<?xml version="1.0" encoding="utf-8" standalone="no"?>
<!DOCTYPE svg PUBLIC "-//W3C//DTD SVG 1.1//EN"
  "http://www.w3.org/Graphics/SVG/1.1/DTD/svg11.dtd">
<svg xmlns:xlink="http://www.w3.org/1999/xlink" width="460.8pt" height="345.6pt" viewBox="0 0 460.8 345.6" xmlns="http://www.w3.org/2000/svg" version="1.1">
 <metadata>
  <rdf:RDF xmlns:dc="http://purl.org/dc/elements/1.1/" xmlns:cc="http://creativecommons.org/ns#" xmlns:rdf="http://www.w3.org/1999/02/22-rdf-syntax-ns#">
   <cc:Work>
    <dc:type rdf:resource="http://purl.org/dc/dcmitype/StillImage"/>
    <dc:date>2025-12-10T14:11:54.033539</dc:date>
    <dc:format>image/svg+xml</dc:format>
    <dc:creator>
     <cc:Agent>
      <dc:title>Matplotlib v3.10.3, https://matplotlib.org/</dc:title>
     </cc:Agent>
    </dc:creator>
   </cc:Work>
  </rdf:RDF>
 </metadata>
 <defs>
  <style type="text/css">*{stroke-linejoin: round; stroke-linecap: butt}</style>
 </defs>
 <g id="figure_1">
  <g id="patch_1">
   <path d="M 0 345.6 
L 460.8 345.6 
L 460.8 0 
L 0 0 
z
" style="fill: #ffffff"/>
  </g>
  <g id="axes_1">
   <g id="patch_2">
    <path d="M 57.6 307.584 
L 414.72 307.584 
L 414.72 41.472 
L 57.6 41.472 
z
" style="fill: #ffffff"/>
   </g>
   <g id="matplotlib.axis_1">
    <g id="xtick_1">
     <g id="line2d_1">
      <defs>
       <path id="mdb8460a880" d="M 0 0 
L 0 3.5 
" style="stroke: #000000; stroke-width: 0.8"/>
      </defs>
      <g>
       <use xlink:href="#mdb8460a880" x="73.832727" y="307.584" style="stroke: #000000; stroke-width: 0.8"/>
      </g>
     </g>
     <g id="text_1">
      <!-- 0 -->
      <g transform="translate(69.060852 325.981656) scale(0.15 -0.15)">
       <defs>
        <path id="DejaVuSans-30" d="M 2034 4250 
Q 1547 4250 1301 3770 
Q 1056 3291 1056 2328 
Q 1056 1369 1301 889 
Q 1547 409 2034 409 
Q 2525 409 2770 889 
Q 3016 1369 3016 2328 
Q 3016 3291 2770 3770 
Q 2525 4250 2034 4250 
z
M 2034 4750 
Q 2819 4750 3233 4129 
Q 3647 3509 3647 2328 
Q 3647 1150 3233 529 
Q 2819 -91 2034 -91 
Q 1250 -91 836 529 
Q 422 1150 422 2328 
Q 422 3509 836 4129 
Q 1250 4750 2034 4750 
z
" transform="scale(0.015625)"/>
       </defs>
       <use xlink:href="#DejaVuSans-30"/>
      </g>
     </g>
    </g>
    <g id="xtick_2">
     <g id="line2d_2">
      <g>
       <use xlink:href="#mdb8460a880" x="154.996364" y="307.584" style="stroke: #000000; stroke-width: 0.8"/>
      </g>
     </g>
     <g id="text_2">
      <!-- 5 -->
      <g transform="translate(150.224489 325.981656) scale(0.15 -0.15)">
       <defs>
        <path id="DejaVuSans-35" d="M 691 4666 
L 3169 4666 
L 3169 4134 
L 1269 4134 
L 1269 2991 
Q 1406 3038 1543 3061 
Q 1681 3084 1819 3084 
Q 2600 3084 3056 2656 
Q 3513 2228 3513 1497 
Q 3513 744 3044 326 
Q 2575 -91 1722 -91 
Q 1428 -91 1123 -41 
Q 819 9 494 109 
L 494 744 
Q 775 591 1075 516 
Q 1375 441 1709 441 
Q 2250 441 2565 725 
Q 2881 1009 2881 1497 
Q 2881 1984 2565 2268 
Q 2250 2553 1709 2553 
Q 1456 2553 1204 2497 
Q 953 2441 691 2322 
L 691 4666 
z
" transform="scale(0.015625)"/>
       </defs>
       <use xlink:href="#DejaVuSans-35"/>
      </g>
     </g>
    </g>
    <g id="xtick_3">
     <g id="line2d_3">
      <g>
       <use xlink:href="#mdb8460a880" x="236.16" y="307.584" style="stroke: #000000; stroke-width: 0.8"/>
      </g>
     </g>
     <g id="text_3">
      <!-- 10 -->
      <g transform="translate(226.61625 325.981656) scale(0.15 -0.15)">
       <defs>
        <path id="DejaVuSans-31" d="M 794 531 
L 1825 531 
L 1825 4091 
L 703 3866 
L 703 4441 
L 1819 4666 
L 2450 4666 
L 2450 531 
L 3481 531 
L 3481 0 
L 794 0 
L 794 531 
z
" transform="scale(0.015625)"/>
       </defs>
       <use xlink:href="#DejaVuSans-31"/>
       <use xlink:href="#DejaVuSans-30" transform="translate(63.623047 0)"/>
      </g>
     </g>
    </g>
    <g id="xtick_4">
     <g id="line2d_4">
      <g>
       <use xlink:href="#mdb8460a880" x="317.323636" y="307.584" style="stroke: #000000; stroke-width: 0.8"/>
      </g>
     </g>
     <g id="text_4">
      <!-- 15 -->
      <g transform="translate(307.779886 325.981656) scale(0.15 -0.15)">
       <use xlink:href="#DejaVuSans-31"/>
       <use xlink:href="#DejaVuSans-35" transform="translate(63.623047 0)"/>
      </g>
     </g>
    </g>
    <g id="xtick_5">
     <g id="line2d_5">
      <g>
       <use xlink:href="#mdb8460a880" x="398.487273" y="307.584" style="stroke: #000000; stroke-width: 0.8"/>
      </g>
     </g>
     <g id="text_5">
      <!-- 20 -->
      <g transform="translate(388.943523 325.981656) scale(0.15 -0.15)">
       <defs>
        <path id="DejaVuSans-32" d="M 1228 531 
L 3431 531 
L 3431 0 
L 469 0 
L 469 531 
Q 828 903 1448 1529 
Q 2069 2156 2228 2338 
Q 2531 2678 2651 2914 
Q 2772 3150 2772 3378 
Q 2772 3750 2511 3984 
Q 2250 4219 1831 4219 
Q 1534 4219 1204 4116 
Q 875 4013 500 3803 
L 500 4441 
Q 881 4594 1212 4672 
Q 1544 4750 1819 4750 
Q 2544 4750 2975 4387 
Q 3406 4025 3406 3419 
Q 3406 3131 3298 2873 
Q 3191 2616 2906 2266 
Q 2828 2175 2409 1742 
Q 1991 1309 1228 531 
z
" transform="scale(0.015625)"/>
       </defs>
       <use xlink:href="#DejaVuSans-32"/>
       <use xlink:href="#DejaVuSans-30" transform="translate(63.623047 0)"/>
      </g>
     </g>
    </g>
   </g>
   <g id="matplotlib.axis_2">
    <g id="ytick_1">
     <g id="line2d_6">
      <defs>
       <path id="mad7e6aa8ef" d="M 0 0 
L -3.5 0 
" style="stroke: #000000; stroke-width: 0.8"/>
      </defs>
      <g>
       <use xlink:href="#mad7e6aa8ef" x="57.6" y="291.392919" style="stroke: #000000; stroke-width: 0.8"/>
      </g>
     </g>
     <g id="text_6">
      <!-- 5.0 -->
      <g transform="translate(26.745313 297.091747) scale(0.15 -0.15)">
       <defs>
        <path id="DejaVuSans-2e" d="M 684 794 
L 1344 794 
L 1344 0 
L 684 0 
L 684 794 
z
" transform="scale(0.015625)"/>
       </defs>
       <use xlink:href="#DejaVuSans-35"/>
       <use xlink:href="#DejaVuSans-2e" transform="translate(63.623047 0)"/>
       <use xlink:href="#DejaVuSans-30" transform="translate(95.410156 0)"/>
      </g>
     </g>
    </g>
    <g id="ytick_2">
     <g id="line2d_7">
      <g>
       <use xlink:href="#mad7e6aa8ef" x="57.6" y="256.913087" style="stroke: #000000; stroke-width: 0.8"/>
      </g>
     </g>
     <g id="text_7">
      <!-- 7.5 -->
      <g transform="translate(26.745313 262.611915) scale(0.15 -0.15)">
       <defs>
        <path id="DejaVuSans-37" d="M 525 4666 
L 3525 4666 
L 3525 4397 
L 1831 0 
L 1172 0 
L 2766 4134 
L 525 4134 
L 525 4666 
z
" transform="scale(0.015625)"/>
       </defs>
       <use xlink:href="#DejaVuSans-37"/>
       <use xlink:href="#DejaVuSans-2e" transform="translate(63.623047 0)"/>
       <use xlink:href="#DejaVuSans-35" transform="translate(95.410156 0)"/>
      </g>
     </g>
    </g>
    <g id="ytick_3">
     <g id="line2d_8">
      <g>
       <use xlink:href="#mad7e6aa8ef" x="57.6" y="222.433256" style="stroke: #000000; stroke-width: 0.8"/>
      </g>
     </g>
     <g id="text_8">
      <!-- 10.0 -->
      <g transform="translate(17.201563 228.132084) scale(0.15 -0.15)">
       <use xlink:href="#DejaVuSans-31"/>
       <use xlink:href="#DejaVuSans-30" transform="translate(63.623047 0)"/>
       <use xlink:href="#DejaVuSans-2e" transform="translate(127.246094 0)"/>
       <use xlink:href="#DejaVuSans-30" transform="translate(159.033203 0)"/>
      </g>
     </g>
    </g>
    <g id="ytick_4">
     <g id="line2d_9">
      <g>
       <use xlink:href="#mad7e6aa8ef" x="57.6" y="187.953424" style="stroke: #000000; stroke-width: 0.8"/>
      </g>
     </g>
     <g id="text_9">
      <!-- 12.5 -->
      <g transform="translate(17.201563 193.652252) scale(0.15 -0.15)">
       <use xlink:href="#DejaVuSans-31"/>
       <use xlink:href="#DejaVuSans-32" transform="translate(63.623047 0)"/>
       <use xlink:href="#DejaVuSans-2e" transform="translate(127.246094 0)"/>
       <use xlink:href="#DejaVuSans-35" transform="translate(159.033203 0)"/>
      </g>
     </g>
    </g>
    <g id="ytick_5">
     <g id="line2d_10">
      <g>
       <use xlink:href="#mad7e6aa8ef" x="57.6" y="153.473592" style="stroke: #000000; stroke-width: 0.8"/>
      </g>
     </g>
     <g id="text_10">
      <!-- 15.0 -->
      <g transform="translate(17.201563 159.172421) scale(0.15 -0.15)">
       <use xlink:href="#DejaVuSans-31"/>
       <use xlink:href="#DejaVuSans-35" transform="translate(63.623047 0)"/>
       <use xlink:href="#DejaVuSans-2e" transform="translate(127.246094 0)"/>
       <use xlink:href="#DejaVuSans-30" transform="translate(159.033203 0)"/>
      </g>
     </g>
    </g>
    <g id="ytick_6">
     <g id="line2d_11">
      <g>
       <use xlink:href="#mad7e6aa8ef" x="57.6" y="118.993761" style="stroke: #000000; stroke-width: 0.8"/>
      </g>
     </g>
     <g id="text_11">
      <!-- 17.5 -->
      <g transform="translate(17.201563 124.692589) scale(0.15 -0.15)">
       <use xlink:href="#DejaVuSans-31"/>
       <use xlink:href="#DejaVuSans-37" transform="translate(63.623047 0)"/>
       <use xlink:href="#DejaVuSans-2e" transform="translate(127.246094 0)"/>
       <use xlink:href="#DejaVuSans-35" transform="translate(159.033203 0)"/>
      </g>
     </g>
    </g>
    <g id="ytick_7">
     <g id="line2d_12">
      <g>
       <use xlink:href="#mad7e6aa8ef" x="57.6" y="84.513929" style="stroke: #000000; stroke-width: 0.8"/>
      </g>
     </g>
     <g id="text_12">
      <!-- 20.0 -->
      <g transform="translate(17.201563 90.212757) scale(0.15 -0.15)">
       <use xlink:href="#DejaVuSans-32"/>
       <use xlink:href="#DejaVuSans-30" transform="translate(63.623047 0)"/>
       <use xlink:href="#DejaVuSans-2e" transform="translate(127.246094 0)"/>
       <use xlink:href="#DejaVuSans-30" transform="translate(159.033203 0)"/>
      </g>
     </g>
    </g>
    <g id="ytick_8">
     <g id="line2d_13">
      <g>
       <use xlink:href="#mad7e6aa8ef" x="57.6" y="50.034098" style="stroke: #000000; stroke-width: 0.8"/>
      </g>
     </g>
     <g id="text_13">
      <!-- 22.5 -->
      <g transform="translate(17.201563 55.732926) scale(0.15 -0.15)">
       <use xlink:href="#DejaVuSans-32"/>
       <use xlink:href="#DejaVuSans-32" transform="translate(63.623047 0)"/>
       <use xlink:href="#DejaVuSans-2e" transform="translate(127.246094 0)"/>
       <use xlink:href="#DejaVuSans-35" transform="translate(159.033203 0)"/>
      </g>
     </g>
    </g>
   </g>
   <g id="line2d_14">
    <path d="M 73.832727 211.214734 
L 90.065455 211.642871 
L 106.298182 218.142358 
L 122.530909 165.254434 
L 138.763636 186.753414 
L 154.996364 175.959651 
L 171.229091 107.109372 
L 187.461818 129.292522 
L 203.694545 121.704807 
L 219.927273 130.891084 
L 236.16 193.176673 
L 252.392727 146.806307 
L 268.625455 155.050576 
L 284.858182 175.739784 
L 301.090909 245.440303 
L 317.323636 149.967991 
L 333.556364 200.73725 
L 349.789091 175.219357 
L 366.021818 226.082977 
L 382.254545 215.999793 
L 398.487273 185.731653 
" clip-path="url(#pedc218eed8)" style="fill: none; stroke: #31688e; stroke-opacity: 0.5; stroke-width: 1.5; stroke-linecap: square"/>
   </g>
   <g id="line2d_15">
    <path d="M 73.832727 263.567454 
L 90.065455 240.984515 
L 106.298182 273.478363 
L 122.530909 182.476859 
L 138.763636 149.420452 
L 154.996364 109.49606 
L 171.229091 160.50765 
L 187.461818 159.09088 
L 203.694545 58.886393 
L 219.927273 155.364655 
L 236.16 75.837625 
L 252.392727 176.105765 
L 268.625455 131.472821 
L 284.858182 165.429072 
L 301.090909 166.8465 
L 317.323636 215.413065 
L 333.556364 102.981408 
L 349.789091 122.595738 
L 366.021818 134.429859 
L 382.254545 128.485581 
L 398.487273 117.016768 
" clip-path="url(#pedc218eed8)" style="fill: none; stroke: #31688e; stroke-opacity: 0.5; stroke-width: 1.5; stroke-linecap: square"/>
   </g>
   <g id="line2d_16">
    <path d="M 73.832727 217.976551 
L 90.065455 226.627768 
L 106.298182 210.516086 
L 122.530909 215.261747 
L 138.763636 227.860916 
L 154.996364 191.756985 
L 171.229091 134.216451 
L 187.461818 150.304535 
L 203.694545 143.941057 
L 219.927273 207.922726 
L 236.16 170.113225 
L 252.392727 113.346032 
L 268.625455 141.874651 
L 284.858182 182.611326 
L 301.090909 217.391785 
L 317.323636 141.661875 
L 333.556364 184.371347 
L 349.789091 203.396683 
L 366.021818 178.696256 
L 382.254545 168.09053 
L 398.487273 127.172991 
" clip-path="url(#pedc218eed8)" style="fill: none; stroke: #31688e; stroke-opacity: 0.5; stroke-width: 1.5; stroke-linecap: square"/>
   </g>
   <g id="line2d_17">
    <path d="M 73.832727 211.800942 
L 90.065455 239.00641 
L 106.298182 213.843711 
L 122.530909 234.824181 
L 138.763636 226.486468 
L 154.996364 222.227905 
L 171.229091 155.269641 
L 187.461818 181.650114 
L 203.694545 166.671666 
L 219.927273 212.386159 
L 236.16 189.839323 
L 252.392727 140.491368 
L 268.625455 181.915703 
L 284.858182 227.690017 
L 301.090909 174.49432 
L 317.323636 197.866926 
L 333.556364 153.957377 
L 349.789091 109.457561 
L 366.021818 98.528514 
L 382.254545 106.187551 
L 398.487273 152.859876 
" clip-path="url(#pedc218eed8)" style="fill: none; stroke: #31688e; stroke-opacity: 0.5; stroke-width: 1.5; stroke-linecap: square"/>
   </g>
   <g id="line2d_18">
    <path d="M 73.832727 236.886289 
L 90.065455 231.24045 
L 106.298182 233.791473 
L 122.530909 244.88942 
L 138.763636 235.359458 
L 154.996364 223.324888 
L 171.229091 204.713416 
L 187.461818 208.068091 
L 203.694545 218.01029 
L 219.927273 224.24206 
L 236.16 181.187386 
L 252.392727 205.257001 
L 268.625455 176.615598 
L 284.858182 203.926937 
L 301.090909 215.479418 
L 317.323636 213.72879 
L 333.556364 225.649234 
L 349.789091 209.238361 
L 366.021818 188.198895 
L 382.254545 168.655446 
L 398.487273 169.789901 
" clip-path="url(#pedc218eed8)" style="fill: none; stroke: #31688e; stroke-opacity: 0.5; stroke-width: 1.5; stroke-linecap: square"/>
   </g>
   <g id="line2d_19">
    <path d="M 73.832727 193.461241 
L 90.065455 246.731416 
L 106.298182 217.831528 
L 122.530909 246.794652 
L 138.763636 203.204864 
L 154.996364 244.614015 
L 171.229091 224.597483 
L 187.461818 239.408702 
L 203.694545 201.297977 
L 219.927273 254.401624 
L 236.16 227.898279 
L 252.392727 233.470301 
L 268.625455 207.942979 
L 284.858182 249.171308 
L 301.090909 256.289977 
L 317.323636 241.765979 
L 333.556364 207.877842 
L 349.789091 239.908518 
L 366.021818 202.762949 
L 382.254545 225.930667 
L 398.487273 245.545324 
" clip-path="url(#pedc218eed8)" style="fill: none; stroke: #31688e; stroke-opacity: 0.5; stroke-width: 1.5; stroke-linecap: square"/>
   </g>
   <g id="line2d_20">
    <path d="M 73.832727 264.197374 
L 90.065455 261.574017 
L 106.298182 264.655764 
L 122.530909 263.5676 
L 138.763636 263.14216 
L 154.996364 203.824067 
L 171.229091 229.219124 
L 187.461818 247.253601 
L 203.694545 239.319057 
L 219.927273 248.354729 
L 236.16 213.324381 
L 252.392727 230.833027 
L 268.625455 224.572971 
L 284.858182 266.376229 
L 301.090909 232.542211 
L 317.323636 240.629826 
L 333.556364 196.029418 
L 349.789091 256.907957 
L 366.021818 225.812573 
L 382.254545 251.294311 
L 398.487273 271.524175 
" clip-path="url(#pedc218eed8)" style="fill: none; stroke: #31688e; stroke-opacity: 0.5; stroke-width: 1.5; stroke-linecap: square"/>
   </g>
   <g id="line2d_21">
    <path d="M 73.832727 258.462435 
L 90.065455 260.995231 
L 106.298182 246.452914 
L 122.530909 239.979482 
L 138.763636 213.111354 
L 154.996364 204.48994 
L 171.229091 182.501983 
L 187.461818 190.718883 
L 203.694545 219.831322 
L 219.927273 200.719748 
L 236.16 157.629905 
L 252.392727 196.074743 
L 268.625455 164.640922 
L 284.858182 217.849669 
L 301.090909 199.910248 
L 317.323636 220.499155 
L 333.556364 210.753233 
L 349.789091 203.776494 
L 366.021818 215.693584 
L 382.254545 218.860882 
L 398.487273 183.568548 
" clip-path="url(#pedc218eed8)" style="fill: none; stroke: #31688e; stroke-opacity: 0.5; stroke-width: 1.5; stroke-linecap: square"/>
   </g>
   <g id="line2d_22">
    <path d="M 73.832727 246.057743 
L 90.065455 264.535747 
L 106.298182 243.372181 
L 122.530909 225.693606 
L 138.763636 250.547847 
L 154.996364 222.54399 
L 171.229091 206.724616 
L 187.461818 217.730185 
L 203.694545 219.551034 
L 219.927273 212.349232 
L 236.16 160.921649 
L 252.392727 149.21695 
L 268.625455 196.94854 
L 284.858182 228.176935 
L 301.090909 215.304136 
L 317.323636 181.611455 
L 333.556364 167.786491 
L 349.789091 175.851599 
L 366.021818 139.669454 
L 382.254545 181.936231 
L 398.487273 146.589722 
" clip-path="url(#pedc218eed8)" style="fill: none; stroke: #31688e; stroke-opacity: 0.5; stroke-width: 1.5; stroke-linecap: square"/>
   </g>
   <g id="line2d_23">
    <path d="M 73.832727 207.337915 
L 90.065455 187.255963 
L 106.298182 220.398726 
L 122.530909 138.785769 
L 138.763636 218.045999 
L 154.996364 219.540779 
L 171.229091 246.351931 
L 187.461818 247.021763 
L 203.694545 239.398384 
L 219.927273 224.67697 
L 236.16 217.491801 
L 252.392727 231.657857 
L 268.625455 207.218506 
L 284.858182 225.431727 
L 301.090909 210.366621 
L 317.323636 222.324749 
L 333.556364 225.257933 
L 349.789091 197.602204 
L 366.021818 221.579071 
L 382.254545 223.549063 
L 398.487273 218.710412 
" clip-path="url(#pedc218eed8)" style="fill: none; stroke: #31688e; stroke-opacity: 0.5; stroke-width: 1.5; stroke-linecap: square"/>
   </g>
   <g id="line2d_24">
    <path d="M 73.832727 234.114067 
L 90.065455 166.395388 
L 106.298182 228.256646 
L 122.530909 211.567361 
L 138.763636 211.639953 
L 154.996364 180.633518 
L 171.229091 230.916837 
L 187.461818 237.188505 
L 203.694545 175.82827 
L 219.927273 251.159131 
L 236.16 139.759256 
L 252.392727 127.673587 
L 268.625455 221.391454 
L 284.858182 250.065422 
L 301.090909 225.705511 
L 317.323636 173.997658 
L 333.556364 216.421401 
L 349.789091 215.948932 
L 366.021818 214.410206 
L 382.254545 196.550613 
L 398.487273 263.710396 
" clip-path="url(#pedc218eed8)" style="fill: none; stroke: #31688e; stroke-opacity: 0.5; stroke-width: 1.5; stroke-linecap: square"/>
   </g>
   <g id="line2d_25">
    <path d="M 73.832727 243.541067 
L 90.065455 221.049909 
L 106.298182 198.888138 
L 122.530909 203.971111 
L 138.763636 260.499727 
L 154.996364 257.909271 
L 171.229091 231.913645 
L 187.461818 180.744176 
L 203.694545 163.324318 
L 219.927273 179.084914 
L 236.16 94.512337 
L 252.392727 198.352418 
L 268.625455 169.501525 
L 284.858182 196.256143 
L 301.090909 199.79749 
L 317.323636 170.092317 
L 333.556364 143.349185 
L 349.789091 136.62202 
L 366.021818 144.540974 
L 382.254545 182.750462 
L 398.487273 218.286584 
" clip-path="url(#pedc218eed8)" style="fill: none; stroke: #31688e; stroke-opacity: 0.5; stroke-width: 1.5; stroke-linecap: square"/>
   </g>
   <g id="line2d_26">
    <path d="M 73.832727 168.575568 
L 90.065455 147.733426 
L 106.298182 167.702364 
L 122.530909 180.937403 
L 138.763636 220.759462 
L 154.996364 182.84977 
L 171.229091 239.750939 
L 187.461818 199.933884 
L 203.694545 158.814008 
L 219.927273 168.980824 
L 236.16 211.589071 
L 252.392727 241.489661 
L 268.625455 192.221098 
L 284.858182 196.042659 
L 301.090909 229.031851 
L 317.323636 219.007307 
L 333.556364 200.112751 
L 349.789091 249.695774 
L 366.021818 250.244152 
L 382.254545 264.781117 
L 398.487273 208.444657 
" clip-path="url(#pedc218eed8)" style="fill: none; stroke: #31688e; stroke-opacity: 0.5; stroke-width: 1.5; stroke-linecap: square"/>
   </g>
   <g id="line2d_27">
    <path d="M 73.832727 124.438909 
L 90.065455 139.014378 
L 106.298182 131.549281 
L 122.530909 60.717335 
L 138.763636 91.634527 
L 154.996364 105.72643 
L 171.229091 138.462553 
L 187.461818 53.568 
L 203.694545 210.769891 
L 219.927273 254.944951 
L 236.16 162.209591 
L 252.392727 121.294944 
L 268.625455 73.990806 
L 284.858182 146.875046 
L 301.090909 104.792715 
L 317.323636 228.519297 
L 333.556364 135.353773 
L 349.789091 127.99776 
L 366.021818 161.432445 
L 382.254545 130.280929 
L 398.487273 114.061434 
" clip-path="url(#pedc218eed8)" style="fill: none; stroke: #31688e; stroke-opacity: 0.5; stroke-width: 1.5; stroke-linecap: square"/>
   </g>
   <g id="line2d_28">
    <path d="M 73.832727 174.636422 
L 90.065455 169.61961 
L 106.298182 214.300382 
L 122.530909 194.185914 
L 138.763636 209.334973 
L 154.996364 221.620586 
L 171.229091 168.798675 
L 187.461818 141.925005 
L 203.694545 216.885927 
L 219.927273 198.000748 
L 236.16 210.187999 
L 252.392727 193.901544 
L 268.625455 187.294703 
L 284.858182 176.378105 
L 301.090909 207.819256 
L 317.323636 236.213824 
L 333.556364 228.230575 
L 349.789091 215.913133 
L 366.021818 205.781314 
L 382.254545 181.491259 
L 398.487273 234.78587 
" clip-path="url(#pedc218eed8)" style="fill: none; stroke: #31688e; stroke-opacity: 0.5; stroke-width: 1.5; stroke-linecap: square"/>
   </g>
   <g id="line2d_29">
    <path d="M 73.832727 238.197312 
L 90.065455 219.306319 
L 106.298182 233.563037 
L 122.530909 257.002271 
L 138.763636 259.613883 
L 154.996364 287.245594 
L 171.229091 276.517545 
L 187.461818 282.749111 
L 203.694545 262.004801 
L 219.927273 256.335944 
L 236.16 229.211017 
L 252.392727 248.411796 
L 268.625455 219.33088 
L 284.858182 256.803175 
L 301.090909 273.693955 
L 317.323636 277.206997 
L 333.556364 276.028624 
L 349.789091 263.109146 
L 366.021818 256.176171 
L 382.254545 252.078951 
L 398.487273 256.573513 
" clip-path="url(#pedc218eed8)" style="fill: none; stroke: #31688e; stroke-opacity: 0.5; stroke-width: 1.5; stroke-linecap: square"/>
   </g>
   <g id="line2d_30">
    <path d="M 73.832727 194.027327 
L 90.065455 214.104365 
L 106.298182 208.589335 
L 122.530909 248.179114 
L 138.763636 266.040402 
L 154.996364 254.654241 
L 171.229091 255.011489 
L 187.461818 242.721075 
L 203.694545 266.946715 
L 219.927273 260.026711 
L 236.16 257.526176 
L 252.392727 266.102518 
L 268.625455 226.971867 
L 284.858182 215.034152 
L 301.090909 261.646328 
L 317.323636 256.041694 
L 333.556364 284.16637 
L 349.789091 279.324677 
L 366.021818 267.895168 
L 382.254545 238.962755 
L 398.487273 271.783288 
" clip-path="url(#pedc218eed8)" style="fill: none; stroke: #31688e; stroke-opacity: 0.5; stroke-width: 1.5; stroke-linecap: square"/>
   </g>
   <g id="line2d_31">
    <path d="M 73.832727 198.447862 
L 90.065455 219.722262 
L 106.298182 231.141537 
L 122.530909 133.511713 
L 138.763636 198.452145 
L 154.996364 236.188477 
L 171.229091 195.636617 
L 187.461818 238.457015 
L 203.694545 230.517221 
L 219.927273 163.921767 
L 236.16 159.774451 
L 252.392727 199.028236 
L 268.625455 131.699548 
L 284.858182 215.0652 
L 301.090909 195.865583 
L 317.323636 165.815303 
L 333.556364 186.496321 
L 349.789091 179.099846 
L 366.021818 174.663192 
L 382.254545 167.551996 
L 398.487273 182.675081 
" clip-path="url(#pedc218eed8)" style="fill: none; stroke: #31688e; stroke-opacity: 0.5; stroke-width: 1.5; stroke-linecap: square"/>
   </g>
   <g id="line2d_32">
    <path d="M 73.832727 230.459653 
L 90.065455 266.582558 
L 106.298182 267.647444 
L 122.530909 205.502787 
L 138.763636 249.801854 
L 154.996364 275.369861 
L 171.229091 262.800245 
L 187.461818 277.752327 
L 203.694545 277.00959 
L 219.927273 247.168439 
L 236.16 249.154099 
L 252.392727 260.128333 
L 268.625455 245.896749 
L 284.858182 262.375753 
L 301.090909 249.848029 
L 317.323636 251.135909 
L 333.556364 256.924071 
L 349.789091 250.851237 
L 366.021818 250.655119 
L 382.254545 231.909678 
L 398.487273 262.61326 
" clip-path="url(#pedc218eed8)" style="fill: none; stroke: #31688e; stroke-opacity: 0.5; stroke-width: 1.5; stroke-linecap: square"/>
   </g>
   <g id="line2d_33">
    <path d="M 73.832727 273.257373 
L 90.065455 288.130095 
L 106.298182 276.877402 
L 122.530909 283.0403 
L 138.763636 290.156777 
L 154.996364 266.618828 
L 171.229091 281.084587 
L 187.461818 242.778693 
L 203.694545 251.552481 
L 219.927273 241.659765 
L 236.16 228.806236 
L 252.392727 227.590769 
L 268.625455 243.154013 
L 284.858182 223.395199 
L 301.090909 265.010455 
L 317.323636 226.022744 
L 333.556364 241.255289 
L 349.789091 260.267104 
L 366.021818 259.234604 
L 382.254545 219.265636 
L 398.487273 191.934014 
" clip-path="url(#pedc218eed8)" style="fill: none; stroke: #31688e; stroke-opacity: 0.5; stroke-width: 1.5; stroke-linecap: square"/>
   </g>
   <g id="line2d_34">
    <path d="M 73.832727 238.608428 
L 90.065455 266.429572 
L 106.298182 258.594322 
L 122.530909 215.77267 
L 138.763636 261.052304 
L 154.996364 247.567755 
L 171.229091 268.500324 
L 187.461818 236.751914 
L 203.694545 264.668687 
L 219.927273 227.820624 
L 236.16 225.913652 
L 252.392727 238.40875 
L 268.625455 205.495717 
L 284.858182 219.463419 
L 301.090909 233.516992 
L 317.323636 200.429355 
L 333.556364 236.112202 
L 349.789091 253.100033 
L 366.021818 232.797892 
L 382.254545 212.163876 
L 398.487273 235.942369 
" clip-path="url(#pedc218eed8)" style="fill: none; stroke: #31688e; stroke-opacity: 0.5; stroke-width: 1.5; stroke-linecap: square"/>
   </g>
   <g id="line2d_35">
    <path d="M 73.832727 244.729116 
L 90.065455 217.72169 
L 106.298182 234.551009 
L 122.530909 258.456655 
L 138.763636 230.245794 
L 154.996364 252.835675 
L 171.229091 279.916032 
L 187.461818 274.708215 
L 203.694545 228.671411 
L 219.927273 277.275843 
L 236.16 256.55025 
L 252.392727 267.326484 
L 268.625455 248.880946 
L 284.858182 235.522998 
L 301.090909 235.404045 
L 317.323636 256.002299 
L 333.556364 247.022939 
L 349.789091 271.403307 
L 366.021818 277.615876 
L 382.254545 253.431869 
L 398.487273 249.321231 
" clip-path="url(#pedc218eed8)" style="fill: none; stroke: #31688e; stroke-opacity: 0.5; stroke-width: 1.5; stroke-linecap: square"/>
   </g>
   <g id="line2d_36">
    <path d="M 73.832727 283.430817 
L 90.065455 286.903251 
L 106.298182 281.230218 
L 122.530909 292.36909 
L 138.763636 289.176577 
L 154.996364 286.538176 
L 171.229091 213.63569 
L 187.461818 220.557636 
L 203.694545 236.347345 
L 219.927273 260.291091 
L 236.16 235.262651 
L 252.392727 251.540587 
L 268.625455 247.240044 
L 284.858182 239.06244 
L 301.090909 248.399518 
L 317.323636 256.608614 
L 333.556364 230.207175 
L 349.789091 249.611493 
L 366.021818 256.876007 
L 382.254545 255.9201 
L 398.487273 242.207402 
" clip-path="url(#pedc218eed8)" style="fill: none; stroke: #31688e; stroke-opacity: 0.5; stroke-width: 1.5; stroke-linecap: square"/>
   </g>
   <g id="line2d_37">
    <path d="M 73.832727 229.77626 
L 90.065455 224.741226 
L 106.298182 229.778752 
L 122.530909 214.794047 
L 138.763636 223.655207 
L 154.996364 228.098964 
L 171.229091 221.991536 
L 187.461818 214.681913 
L 203.694545 231.962617 
L 219.927273 225.431537 
L 236.16 198.422708 
L 252.392727 200.446033 
L 268.625455 215.703403 
L 284.858182 207.916698 
L 301.090909 204.849214 
L 317.323636 206.483536 
L 333.556364 218.159774 
L 349.789091 181.061476 
L 366.021818 200.07145 
L 382.254545 224.876026 
L 398.487273 201.192199 
" clip-path="url(#pedc218eed8)" style="fill: none; stroke: #31688e; stroke-opacity: 0.5; stroke-width: 1.5; stroke-linecap: square"/>
   </g>
   <g id="line2d_38">
    <path d="M 73.832727 266.639395 
L 90.065455 262.584334 
L 106.298182 265.877844 
L 122.530909 280.441999 
L 138.763636 270.444717 
L 154.996364 252.844712 
L 171.229091 280.091154 
L 187.461818 272.368634 
L 203.694545 272.449926 
L 219.927273 257.271298 
L 236.16 227.231474 
L 252.392727 244.378771 
L 268.625455 246.111025 
L 284.858182 253.86797 
L 301.090909 251.5603 
L 317.323636 268.536203 
L 333.556364 242.676034 
L 349.789091 262.274694 
L 366.021818 254.857612 
L 382.254545 244.273206 
L 398.487273 207.934577 
" clip-path="url(#pedc218eed8)" style="fill: none; stroke: #31688e; stroke-opacity: 0.5; stroke-width: 1.5; stroke-linecap: square"/>
   </g>
   <g id="line2d_39">
    <path d="M 73.832727 208.4771 
L 90.065455 135.57671 
L 106.298182 122.529479 
L 122.530909 237.481681 
L 138.763636 204.446255 
L 154.996364 240.049173 
L 171.229091 246.663484 
L 187.461818 277.257734 
L 203.694545 269.4601 
L 219.927273 259.868275 
L 236.16 256.569147 
L 252.392727 268.799984 
L 268.625455 250.445102 
L 284.858182 244.283 
L 301.090909 210.197346 
L 317.323636 243.380273 
L 333.556364 247.74254 
L 349.789091 228.580443 
L 366.021818 240.281799 
L 382.254545 240.701777 
L 398.487273 239.312449 
" clip-path="url(#pedc218eed8)" style="fill: none; stroke: #31688e; stroke-opacity: 0.5; stroke-width: 1.5; stroke-linecap: square"/>
   </g>
   <g id="line2d_40">
    <path d="M 73.832727 214.471089 
L 90.065455 214.446154 
L 106.298182 210.783487 
L 122.530909 240.692309 
L 138.763636 236.930358 
L 154.996364 272.585367 
L 171.229091 255.788356 
L 187.461818 259.571901 
L 203.694545 252.943651 
L 219.927273 247.02828 
L 236.16 238.090162 
L 252.392727 218.453267 
L 268.625455 249.517722 
L 284.858182 207.640866 
L 301.090909 217.44775 
L 317.323636 232.576067 
L 333.556364 263.258471 
L 349.789091 221.047505 
L 366.021818 192.617148 
L 382.254545 259.559895 
L 398.487273 254.01433 
" clip-path="url(#pedc218eed8)" style="fill: none; stroke: #31688e; stroke-opacity: 0.5; stroke-width: 1.5; stroke-linecap: square"/>
   </g>
   <g id="line2d_41">
    <path d="M 73.832727 220.028928 
L 90.065455 229.916481 
L 106.298182 178.594098 
L 122.530909 260.563724 
L 138.763636 261.691655 
L 154.996364 246.709413 
L 171.229091 251.524035 
L 187.461818 262.641366 
L 203.694545 281.534455 
L 219.927273 226.404908 
L 236.16 266.964686 
L 252.392727 271.240424 
L 268.625455 281.089199 
L 284.858182 291.4267 
L 301.090909 264.646169 
L 317.323636 288.783191 
L 333.556364 253.34619 
L 349.789091 278.448683 
L 366.021818 295.436595 
L 382.254545 267.619189 
L 398.487273 279.792874 
" clip-path="url(#pedc218eed8)" style="fill: none; stroke: #31688e; stroke-opacity: 0.5; stroke-width: 1.5; stroke-linecap: square"/>
   </g>
   <g id="line2d_42">
    <path d="M 73.832727 229.429084 
L 90.065455 247.987605 
L 106.298182 187.165689 
L 122.530909 249.123662 
L 138.763636 275.259109 
L 154.996364 257.4402 
L 171.229091 248.051636 
L 187.461818 239.437828 
L 203.694545 245.394743 
L 219.927273 187.32422 
L 236.16 279.304106 
L 252.392727 282.686035 
L 268.625455 281.163977 
L 284.858182 274.489132 
L 301.090909 276.676403 
L 317.323636 241.119387 
L 333.556364 233.175821 
L 349.789091 230.821731 
L 366.021818 201.33894 
L 382.254545 295.488 
L 398.487273 281.605916 
" clip-path="url(#pedc218eed8)" style="fill: none; stroke: #31688e; stroke-opacity: 0.5; stroke-width: 1.5; stroke-linecap: square"/>
   </g>
   <g id="line2d_43">
    <path d="M 73.832727 211.334046 
L 90.065455 203.057586 
L 106.298182 198.027183 
L 122.530909 212.753207 
L 138.763636 191.744554 
L 154.996364 187.073601 
L 171.229091 205.28654 
L 187.461818 218.072123 
L 203.694545 213.676139 
L 219.927273 197.891251 
L 236.16 238.17873 
L 252.392727 212.962582 
L 268.625455 181.878851 
L 284.858182 196.418507 
L 301.090909 195.292617 
L 317.323636 197.212799 
L 333.556364 215.222307 
L 349.789091 224.132764 
L 366.021818 212.509755 
L 382.254545 230.120312 
L 398.487273 192.172583 
" clip-path="url(#pedc218eed8)" style="fill: none; stroke: #31688e; stroke-opacity: 0.5; stroke-width: 1.5; stroke-linecap: square"/>
   </g>
   <g id="line2d_44">
    <path d="M 73.832727 269.675974 
L 90.065455 252.673182 
L 106.298182 274.043838 
L 122.530909 277.676851 
L 138.763636 250.972002 
L 154.996364 241.261496 
L 171.229091 220.635079 
L 187.461818 240.159992 
L 203.694545 275.760248 
L 219.927273 237.511507 
L 236.16 250.021534 
L 252.392727 225.212539 
L 268.625455 234.795702 
L 284.858182 251.268505 
L 301.090909 259.460387 
L 317.323636 263.433012 
L 333.556364 253.543935 
L 349.789091 254.005198 
L 366.021818 271.333441 
L 382.254545 250.625866 
L 398.487273 227.011143 
" clip-path="url(#pedc218eed8)" style="fill: none; stroke: #31688e; stroke-opacity: 0.5; stroke-width: 1.5; stroke-linecap: square"/>
   </g>
   <g id="line2d_45">
    <path d="M 73.832727 252.778606 
L 90.065455 232.650592 
L 106.298182 241.230056 
L 122.530909 267.789698 
L 138.763636 235.826936 
L 154.996364 220.069315 
L 171.229091 197.991518 
L 187.461818 251.402893 
L 203.694545 253.2726 
L 219.927273 220.485395 
L 236.16 187.369511 
L 252.392727 188.6998 
L 268.625455 199.679914 
L 284.858182 263.094579 
L 301.090909 242.373546 
L 317.323636 249.223507 
L 333.556364 222.817421 
L 349.789091 228.241077 
L 366.021818 230.639288 
L 382.254545 217.169393 
L 398.487273 217.286459 
" clip-path="url(#pedc218eed8)" style="fill: none; stroke: #31688e; stroke-opacity: 0.5; stroke-width: 1.5; stroke-linecap: square"/>
   </g>
   <g id="line2d_46">
    <path d="M 73.832727 202.66128 
L 90.065455 223.050611 
L 106.298182 236.67616 
L 122.530909 175.861513 
L 138.763636 228.419939 
L 154.996364 211.170038 
L 171.229091 230.739884 
L 187.461818 202.388012 
L 203.694545 199.485959 
L 219.927273 219.166986 
L 236.16 232.948748 
L 252.392727 227.141752 
L 268.625455 191.925114 
L 284.858182 121.960575 
L 301.090909 184.273014 
L 317.323636 185.973905 
L 333.556364 198.662499 
L 349.789091 214.508702 
L 366.021818 213.165142 
L 382.254545 163.928291 
L 398.487273 166.273753 
" clip-path="url(#pedc218eed8)" style="fill: none; stroke: #31688e; stroke-opacity: 0.5; stroke-width: 1.5; stroke-linecap: square"/>
   </g>
   <g id="line2d_47">
    <path d="M 73.832727 262.470213 
L 90.065455 248.5902 
L 106.298182 232.132848 
L 122.530909 270.172791 
L 138.763636 248.730643 
L 154.996364 204.492647 
L 171.229091 249.850094 
L 187.461818 228.844779 
L 203.694545 206.575646 
L 219.927273 270.136183 
L 236.16 272.096625 
L 252.392727 288.243174 
L 268.625455 285.863046 
L 284.858182 272.26471 
L 301.090909 222.594411 
L 317.323636 283.935421 
L 333.556364 271.191763 
L 349.789091 256.798873 
L 366.021818 270.619948 
L 382.254545 279.290432 
L 398.487273 281.596068 
" clip-path="url(#pedc218eed8)" style="fill: none; stroke: #31688e; stroke-opacity: 0.5; stroke-width: 1.5; stroke-linecap: square"/>
   </g>
   <g id="line2d_48">
    <path d="M 73.832727 199.815917 
L 90.065455 224.643986 
L 106.298182 234.115869 
L 122.530909 205.692949 
L 138.763636 268.568055 
L 154.996364 239.292538 
L 171.229091 252.921896 
L 187.461818 255.089764 
L 203.694545 266.301017 
L 219.927273 275.265606 
L 236.16 246.398507 
L 252.392727 266.591744 
L 268.625455 273.870098 
L 284.858182 231.4183 
L 301.090909 263.946104 
L 317.323636 243.619298 
L 333.556364 260.555151 
L 349.789091 235.771079 
L 366.021818 239.531207 
L 382.254545 269.789747 
L 398.487273 276.785766 
" clip-path="url(#pedc218eed8)" style="fill: none; stroke: #31688e; stroke-opacity: 0.5; stroke-width: 1.5; stroke-linecap: square"/>
   </g>
   <g id="line2d_49">
    <path d="M 73.832727 211.883288 
L 90.065455 214.526574 
L 106.298182 202.129259 
L 122.530909 222.801665 
L 138.763636 215.379476 
L 154.996364 203.815469 
L 171.229091 208.322228 
L 187.461818 214.019696 
L 203.694545 196.481893 
L 219.927273 193.949231 
L 236.16 185.400135 
L 252.392727 214.940496 
L 268.625455 203.566046 
L 284.858182 206.877456 
L 301.090909 209.515031 
L 317.323636 221.455178 
L 333.556364 213.567987 
L 349.789091 212.02375 
L 366.021818 217.873509 
L 382.254545 214.88552 
L 398.487273 208.510394 
" clip-path="url(#pedc218eed8)" style="fill: none; stroke: #31688e; stroke-opacity: 0.5; stroke-width: 1.5; stroke-linecap: square"/>
   </g>
   <g id="line2d_50">
    <path d="M 73.832727 254.865344 
L 90.065455 269.878843 
L 106.298182 277.290339 
L 122.530909 263.604802 
L 138.763636 267.15808 
L 154.996364 265.872531 
L 171.229091 245.977423 
L 187.461818 246.932847 
L 203.694545 244.529913 
L 219.927273 270.959319 
L 236.16 276.232895 
L 252.392727 286.331723 
L 268.625455 293.218917 
L 284.858182 276.526964 
L 301.090909 289.787314 
L 317.323636 269.973776 
L 333.556364 262.361809 
L 349.789091 280.367645 
L 366.021818 281.298148 
L 382.254545 292.50618 
L 398.487273 261.404803 
" clip-path="url(#pedc218eed8)" style="fill: none; stroke: #31688e; stroke-opacity: 0.5; stroke-width: 1.5; stroke-linecap: square"/>
   </g>
   <g id="line2d_51">
    <path d="M 73.832727 278.941491 
L 90.065455 274.586137 
L 106.298182 263.438104 
L 122.530909 278.745412 
L 138.763636 253.668181 
L 154.996364 257.835479 
L 171.229091 271.163601 
L 187.461818 261.265429 
L 203.694545 258.566719 
L 219.927273 267.653256 
L 236.16 232.453453 
L 252.392727 271.5655 
L 268.625455 240.199041 
L 284.858182 248.936645 
L 301.090909 249.230683 
L 317.323636 260.90298 
L 333.556364 261.176827 
L 349.789091 248.058732 
L 366.021818 254.187091 
L 382.254545 262.268274 
L 398.487273 241.640652 
" clip-path="url(#pedc218eed8)" style="fill: none; stroke: #31688e; stroke-opacity: 0.5; stroke-width: 1.5; stroke-linecap: square"/>
   </g>
   <g id="line2d_52">
    <path d="M 73.832727 234.324188 
L 90.065455 226.947578 
L 106.298182 232.669423 
L 122.530909 221.509488 
L 138.763636 255.98295 
L 154.996364 233.633618 
L 171.229091 245.163744 
L 187.461818 188.263167 
L 203.694545 247.721001 
L 219.927273 164.82821 
L 236.16 151.15004 
L 252.392727 163.079503 
L 268.625455 205.250315 
L 284.858182 190.712902 
L 301.090909 207.409681 
L 317.323636 194.354657 
L 333.556364 215.47875 
L 349.789091 202.082138 
L 366.021818 202.061152 
L 382.254545 192.936345 
L 398.487273 188.411888 
" clip-path="url(#pedc218eed8)" style="fill: none; stroke: #31688e; stroke-opacity: 0.5; stroke-width: 1.5; stroke-linecap: square"/>
   </g>
   <g id="line2d_53">
    <path d="M 73.832727 263.049012 
L 90.065455 266.143573 
L 106.298182 272.011148 
L 122.530909 275.141867 
L 138.763636 288.15914 
L 154.996364 266.269192 
L 171.229091 268.316638 
L 187.461818 273.913054 
L 203.694545 272.433 
L 219.927273 205.170025 
L 236.16 246.710496 
L 252.392727 242.465773 
L 268.625455 232.356041 
L 284.858182 250.553006 
L 301.090909 266.890815 
L 317.323636 255.002921 
L 333.556364 270.168465 
L 349.789091 255.771385 
L 366.021818 279.039955 
L 382.254545 237.249873 
L 398.487273 228.105623 
" clip-path="url(#pedc218eed8)" style="fill: none; stroke: #31688e; stroke-opacity: 0.5; stroke-width: 1.5; stroke-linecap: square"/>
   </g>
   <g id="line2d_54">
    <path d="M 73.832727 276.44486 
L 90.065455 277.581716 
L 106.298182 276.4119 
L 122.530909 278.558595 
L 138.763636 276.975534 
L 154.996364 264.889242 
L 171.229091 256.520995 
L 187.461818 275.20025 
L 203.694545 239.660738 
L 219.927273 223.991473 
L 236.16 266.434076 
L 252.392727 258.80768 
L 268.625455 250.092643 
L 284.858182 218.848065 
L 301.090909 273.365234 
L 317.323636 271.084338 
L 333.556364 275.567458 
L 349.789091 272.823364 
L 366.021818 265.926573 
L 382.254545 265.474892 
L 398.487273 249.372637 
" clip-path="url(#pedc218eed8)" style="fill: none; stroke: #31688e; stroke-opacity: 0.5; stroke-width: 1.5; stroke-linecap: square"/>
   </g>
   <g id="line2d_55">
    <path d="M 73.832727 229.335219 
L 90.065455 195.145542 
L 106.298182 215.569007 
L 122.530909 183.56182 
L 138.763636 197.055181 
L 154.996364 186.837811 
L 171.229091 165.678169 
L 187.461818 196.562307 
L 203.694545 210.439335 
L 219.927273 162.873924 
L 236.16 200.352163 
L 252.392727 192.281577 
L 268.625455 175.258767 
L 284.858182 171.806612 
L 301.090909 167.041102 
L 317.323636 182.568661 
L 333.556364 210.071486 
L 349.789091 192.574262 
L 366.021818 196.865812 
L 382.254545 189.268185 
L 398.487273 183.319225 
" clip-path="url(#pedc218eed8)" style="fill: none; stroke: #31688e; stroke-opacity: 0.5; stroke-width: 1.5; stroke-linecap: square"/>
   </g>
   <g id="line2d_56">
    <path d="M 73.832727 245.118663 
L 90.065455 251.037359 
L 106.298182 260.019694 
L 122.530909 276.590646 
L 138.763636 281.510166 
L 154.996364 280.328546 
L 171.229091 251.902027 
L 187.461818 246.443739 
L 203.694545 286.697116 
L 219.927273 240.877377 
L 236.16 240.756561 
L 252.392727 255.077024 
L 268.625455 255.205942 
L 284.858182 256.96853 
L 301.090909 254.706214 
L 317.323636 241.471635 
L 333.556364 219.579916 
L 349.789091 250.686585 
L 366.021818 239.462148 
L 382.254545 230.627113 
L 398.487273 263.184535 
" clip-path="url(#pedc218eed8)" style="fill: none; stroke: #31688e; stroke-opacity: 0.5; stroke-width: 1.5; stroke-linecap: square"/>
   </g>
   <g id="line2d_57">
    <path d="M 73.832727 256.676244 
L 90.065455 231.738576 
L 106.298182 252.516185 
L 122.530909 255.166184 
L 138.763636 246.009618 
L 154.996364 264.368807 
L 171.229091 242.80806 
L 187.461818 238.975945 
L 203.694545 227.517348 
L 219.927273 228.814515 
L 236.16 261.918495 
L 252.392727 247.987543 
L 268.625455 261.015489 
L 284.858182 237.656396 
L 301.090909 243.3716 
L 317.323636 175.481381 
L 333.556364 235.211594 
L 349.789091 220.637744 
L 366.021818 233.176949 
L 382.254545 256.64956 
L 398.487273 235.020935 
" clip-path="url(#pedc218eed8)" style="fill: none; stroke: #31688e; stroke-opacity: 0.5; stroke-width: 1.5; stroke-linecap: square"/>
   </g>
   <g id="line2d_58">
    <path d="M 73.832727 209.126251 
L 90.065455 236.5903 
L 106.298182 224.13035 
L 122.530909 244.14008 
L 138.763636 246.341605 
L 154.996364 248.205437 
L 171.229091 219.140701 
L 187.461818 235.023986 
L 203.694545 222.174397 
L 219.927273 223.487524 
L 236.16 231.673829 
L 252.392727 251.458353 
L 268.625455 215.621677 
L 284.858182 215.431195 
L 301.090909 199.148917 
L 317.323636 224.745927 
L 333.556364 217.103288 
L 349.789091 233.523009 
L 366.021818 208.741144 
L 382.254545 215.149208 
L 398.487273 202.707248 
" clip-path="url(#pedc218eed8)" style="fill: none; stroke: #31688e; stroke-opacity: 0.5; stroke-width: 1.5; stroke-linecap: square"/>
   </g>
   <g id="line2d_59">
    <path d="M 73.832727 214.609703 
L 90.065455 242.181333 
L 106.298182 264.956292 
L 122.530909 251.488717 
L 138.763636 281.700015 
L 154.996364 287.429977 
L 171.229091 287.305284 
L 187.461818 269.991475 
L 203.694545 245.848315 
L 219.927273 260.126664 
L 236.16 260.161793 
L 252.392727 268.960529 
L 268.625455 270.415709 
L 284.858182 259.126262 
L 301.090909 260.196562 
L 317.323636 278.916579 
L 333.556364 266.032528 
L 349.789091 257.078515 
L 366.021818 251.781974 
L 382.254545 267.925676 
L 398.487273 249.408952 
" clip-path="url(#pedc218eed8)" style="fill: none; stroke: #31688e; stroke-opacity: 0.5; stroke-width: 1.5; stroke-linecap: square"/>
   </g>
   <g id="line2d_60">
    <path d="M 73.832727 202.832561 
L 90.065455 259.870453 
L 106.298182 228.899865 
L 122.530909 215.413314 
L 138.763636 268.508681 
L 154.996364 259.161162 
L 171.229091 253.730819 
L 187.461818 247.739777 
L 203.694545 256.198659 
L 219.927273 227.960831 
L 236.16 272.078619 
L 252.392727 231.816818 
L 268.625455 235.661616 
L 284.858182 192.91666 
L 301.090909 243.625362 
L 317.323636 279.600209 
L 333.556364 254.595618 
L 349.789091 252.545589 
L 366.021818 259.765699 
L 382.254545 244.51926 
L 398.487273 250.578354 
" clip-path="url(#pedc218eed8)" style="fill: none; stroke: #31688e; stroke-opacity: 0.5; stroke-width: 1.5; stroke-linecap: square"/>
   </g>
   <g id="line2d_61">
    <path d="M 73.832727 235.390933 
L 90.065455 236.610509 
L 106.298182 243.623176 
L 122.530909 190.842675 
L 138.763636 155.759439 
L 154.996364 159.820329 
L 171.229091 154.977489 
L 187.461818 114.420231 
L 203.694545 155.886986 
L 219.927273 188.679247 
L 236.16 195.334165 
L 252.392727 177.590862 
L 268.625455 196.336338 
L 284.858182 155.308045 
L 301.090909 160.528014 
L 317.323636 187.933125 
L 333.556364 200.373089 
L 349.789091 203.369362 
L 366.021818 218.363684 
L 382.254545 198.538785 
L 398.487273 165.319277 
" clip-path="url(#pedc218eed8)" style="fill: none; stroke: #31688e; stroke-opacity: 0.5; stroke-width: 1.5; stroke-linecap: square"/>
   </g>
   <g id="line2d_62">
    <path d="M 73.832727 254.049035 
L 90.065455 260.910352 
L 106.298182 258.153142 
L 122.530909 287.984832 
L 138.763636 274.997635 
L 154.996364 278.212545 
L 171.229091 248.503965 
L 187.461818 247.806461 
L 203.694545 253.67676 
L 219.927273 226.7161 
L 236.16 260.02284 
L 252.392727 260.667784 
L 268.625455 245.250609 
L 284.858182 260.268211 
L 301.090909 270.234102 
L 317.323636 243.647416 
L 333.556364 184.145904 
L 349.789091 224.080599 
L 366.021818 233.239439 
L 382.254545 232.561496 
L 398.487273 239.689357 
" clip-path="url(#pedc218eed8)" style="fill: none; stroke: #31688e; stroke-opacity: 0.5; stroke-width: 1.5; stroke-linecap: square"/>
   </g>
   <g id="line2d_63">
    <path d="M 73.832727 243.884945 
L 90.065455 220.659426 
L 106.298182 248.949637 
L 122.530909 248.84709 
L 138.763636 243.703588 
L 154.996364 275.209887 
L 171.229091 267.513178 
L 187.461818 237.149535 
L 203.694545 211.168091 
L 219.927273 218.632243 
L 236.16 225.625617 
L 252.392727 265.962296 
L 268.625455 226.173516 
L 284.858182 235.610027 
L 301.090909 247.013384 
L 317.323636 224.551289 
L 333.556364 220.449444 
L 349.789091 269.862619 
L 366.021818 228.071478 
L 382.254545 204.013768 
L 398.487273 233.763687 
" clip-path="url(#pedc218eed8)" style="fill: none; stroke: #31688e; stroke-opacity: 0.5; stroke-width: 1.5; stroke-linecap: square"/>
   </g>
   <g id="line2d_64">
    <path d="M 73.832727 266.134473 
L 90.065455 260.763865 
L 106.298182 267.485481 
L 122.530909 193.643203 
L 138.763636 192.893013 
L 154.996364 224.537163 
L 171.229091 183.582313 
L 187.461818 216.347078 
L 203.694545 192.899543 
L 219.927273 254.630925 
L 236.16 245.150518 
L 252.392727 235.257312 
L 268.625455 203.805383 
L 284.858182 223.258036 
L 301.090909 216.731022 
L 317.323636 247.047917 
L 333.556364 265.571784 
L 349.789091 260.797771 
L 366.021818 259.942821 
L 382.254545 226.617616 
L 398.487273 228.079255 
" clip-path="url(#pedc218eed8)" style="fill: none; stroke: #31688e; stroke-opacity: 0.5; stroke-width: 1.5; stroke-linecap: square"/>
   </g>
   <g id="patch_3">
    <path d="M 57.6 307.584 
L 57.6 41.472 
" style="fill: none; stroke: #000000; stroke-width: 3; stroke-linejoin: miter; stroke-linecap: square"/>
   </g>
   <g id="patch_4">
    <path d="M 414.72 307.584 
L 414.72 41.472 
" style="fill: none; stroke: #000000; stroke-width: 3; stroke-linejoin: miter; stroke-linecap: square"/>
   </g>
   <g id="patch_5">
    <path d="M 57.6 307.584 
L 414.72 307.584 
" style="fill: none; stroke: #000000; stroke-width: 3; stroke-linejoin: miter; stroke-linecap: square"/>
   </g>
   <g id="patch_6">
    <path d="M 57.6 41.472 
L 414.72 41.472 
" style="fill: none; stroke: #000000; stroke-width: 3; stroke-linejoin: miter; stroke-linecap: square"/>
   </g>
   <g id="text_14">
    <!-- Atom Type C (n=51, mean Q=9.75) -->
    <g transform="translate(40.817187 35.472) scale(0.22 -0.22)">
     <defs>
      <path id="DejaVuSans-41" d="M 2188 4044 
L 1331 1722 
L 3047 1722 
L 2188 4044 
z
M 1831 4666 
L 2547 4666 
L 4325 0 
L 3669 0 
L 3244 1197 
L 1141 1197 
L 716 0 
L 50 0 
L 1831 4666 
z
" transform="scale(0.015625)"/>
      <path id="DejaVuSans-74" d="M 1172 4494 
L 1172 3500 
L 2356 3500 
L 2356 3053 
L 1172 3053 
L 1172 1153 
Q 1172 725 1289 603 
Q 1406 481 1766 481 
L 2356 481 
L 2356 0 
L 1766 0 
Q 1100 0 847 248 
Q 594 497 594 1153 
L 594 3053 
L 172 3053 
L 172 3500 
L 594 3500 
L 594 4494 
L 1172 4494 
z
" transform="scale(0.015625)"/>
      <path id="DejaVuSans-6f" d="M 1959 3097 
Q 1497 3097 1228 2736 
Q 959 2375 959 1747 
Q 959 1119 1226 758 
Q 1494 397 1959 397 
Q 2419 397 2687 759 
Q 2956 1122 2956 1747 
Q 2956 2369 2687 2733 
Q 2419 3097 1959 3097 
z
M 1959 3584 
Q 2709 3584 3137 3096 
Q 3566 2609 3566 1747 
Q 3566 888 3137 398 
Q 2709 -91 1959 -91 
Q 1206 -91 779 398 
Q 353 888 353 1747 
Q 353 2609 779 3096 
Q 1206 3584 1959 3584 
z
" transform="scale(0.015625)"/>
      <path id="DejaVuSans-6d" d="M 3328 2828 
Q 3544 3216 3844 3400 
Q 4144 3584 4550 3584 
Q 5097 3584 5394 3201 
Q 5691 2819 5691 2113 
L 5691 0 
L 5113 0 
L 5113 2094 
Q 5113 2597 4934 2840 
Q 4756 3084 4391 3084 
Q 3944 3084 3684 2787 
Q 3425 2491 3425 1978 
L 3425 0 
L 2847 0 
L 2847 2094 
Q 2847 2600 2669 2842 
Q 2491 3084 2119 3084 
Q 1678 3084 1418 2786 
Q 1159 2488 1159 1978 
L 1159 0 
L 581 0 
L 581 3500 
L 1159 3500 
L 1159 2956 
Q 1356 3278 1631 3431 
Q 1906 3584 2284 3584 
Q 2666 3584 2933 3390 
Q 3200 3197 3328 2828 
z
" transform="scale(0.015625)"/>
      <path id="DejaVuSans-20" transform="scale(0.015625)"/>
      <path id="DejaVuSans-54" d="M -19 4666 
L 3928 4666 
L 3928 4134 
L 2272 4134 
L 2272 0 
L 1638 0 
L 1638 4134 
L -19 4134 
L -19 4666 
z
" transform="scale(0.015625)"/>
      <path id="DejaVuSans-79" d="M 2059 -325 
Q 1816 -950 1584 -1140 
Q 1353 -1331 966 -1331 
L 506 -1331 
L 506 -850 
L 844 -850 
Q 1081 -850 1212 -737 
Q 1344 -625 1503 -206 
L 1606 56 
L 191 3500 
L 800 3500 
L 1894 763 
L 2988 3500 
L 3597 3500 
L 2059 -325 
z
" transform="scale(0.015625)"/>
      <path id="DejaVuSans-70" d="M 1159 525 
L 1159 -1331 
L 581 -1331 
L 581 3500 
L 1159 3500 
L 1159 2969 
Q 1341 3281 1617 3432 
Q 1894 3584 2278 3584 
Q 2916 3584 3314 3078 
Q 3713 2572 3713 1747 
Q 3713 922 3314 415 
Q 2916 -91 2278 -91 
Q 1894 -91 1617 61 
Q 1341 213 1159 525 
z
M 3116 1747 
Q 3116 2381 2855 2742 
Q 2594 3103 2138 3103 
Q 1681 3103 1420 2742 
Q 1159 2381 1159 1747 
Q 1159 1113 1420 752 
Q 1681 391 2138 391 
Q 2594 391 2855 752 
Q 3116 1113 3116 1747 
z
" transform="scale(0.015625)"/>
      <path id="DejaVuSans-65" d="M 3597 1894 
L 3597 1613 
L 953 1613 
Q 991 1019 1311 708 
Q 1631 397 2203 397 
Q 2534 397 2845 478 
Q 3156 559 3463 722 
L 3463 178 
Q 3153 47 2828 -22 
Q 2503 -91 2169 -91 
Q 1331 -91 842 396 
Q 353 884 353 1716 
Q 353 2575 817 3079 
Q 1281 3584 2069 3584 
Q 2775 3584 3186 3129 
Q 3597 2675 3597 1894 
z
M 3022 2063 
Q 3016 2534 2758 2815 
Q 2500 3097 2075 3097 
Q 1594 3097 1305 2825 
Q 1016 2553 972 2059 
L 3022 2063 
z
" transform="scale(0.015625)"/>
      <path id="DejaVuSans-43" d="M 4122 4306 
L 4122 3641 
Q 3803 3938 3442 4084 
Q 3081 4231 2675 4231 
Q 1875 4231 1450 3742 
Q 1025 3253 1025 2328 
Q 1025 1406 1450 917 
Q 1875 428 2675 428 
Q 3081 428 3442 575 
Q 3803 722 4122 1019 
L 4122 359 
Q 3791 134 3420 21 
Q 3050 -91 2638 -91 
Q 1578 -91 968 557 
Q 359 1206 359 2328 
Q 359 3453 968 4101 
Q 1578 4750 2638 4750 
Q 3056 4750 3426 4639 
Q 3797 4528 4122 4306 
z
" transform="scale(0.015625)"/>
      <path id="DejaVuSans-28" d="M 1984 4856 
Q 1566 4138 1362 3434 
Q 1159 2731 1159 2009 
Q 1159 1288 1364 580 
Q 1569 -128 1984 -844 
L 1484 -844 
Q 1016 -109 783 600 
Q 550 1309 550 2009 
Q 550 2706 781 3412 
Q 1013 4119 1484 4856 
L 1984 4856 
z
" transform="scale(0.015625)"/>
      <path id="DejaVuSans-6e" d="M 3513 2113 
L 3513 0 
L 2938 0 
L 2938 2094 
Q 2938 2591 2744 2837 
Q 2550 3084 2163 3084 
Q 1697 3084 1428 2787 
Q 1159 2491 1159 1978 
L 1159 0 
L 581 0 
L 581 3500 
L 1159 3500 
L 1159 2956 
Q 1366 3272 1645 3428 
Q 1925 3584 2291 3584 
Q 2894 3584 3203 3211 
Q 3513 2838 3513 2113 
z
" transform="scale(0.015625)"/>
      <path id="DejaVuSans-3d" d="M 678 2906 
L 4684 2906 
L 4684 2381 
L 678 2381 
L 678 2906 
z
M 678 1631 
L 4684 1631 
L 4684 1100 
L 678 1100 
L 678 1631 
z
" transform="scale(0.015625)"/>
      <path id="DejaVuSans-2c" d="M 750 794 
L 1409 794 
L 1409 256 
L 897 -744 
L 494 -744 
L 750 256 
L 750 794 
z
" transform="scale(0.015625)"/>
      <path id="DejaVuSans-61" d="M 2194 1759 
Q 1497 1759 1228 1600 
Q 959 1441 959 1056 
Q 959 750 1161 570 
Q 1363 391 1709 391 
Q 2188 391 2477 730 
Q 2766 1069 2766 1631 
L 2766 1759 
L 2194 1759 
z
M 3341 1997 
L 3341 0 
L 2766 0 
L 2766 531 
Q 2569 213 2275 61 
Q 1981 -91 1556 -91 
Q 1019 -91 701 211 
Q 384 513 384 1019 
Q 384 1609 779 1909 
Q 1175 2209 1959 2209 
L 2766 2209 
L 2766 2266 
Q 2766 2663 2505 2880 
Q 2244 3097 1772 3097 
Q 1472 3097 1187 3025 
Q 903 2953 641 2809 
L 641 3341 
Q 956 3463 1253 3523 
Q 1550 3584 1831 3584 
Q 2591 3584 2966 3190 
Q 3341 2797 3341 1997 
z
" transform="scale(0.015625)"/>
      <path id="DejaVuSans-51" d="M 2522 4238 
Q 1834 4238 1429 3725 
Q 1025 3213 1025 2328 
Q 1025 1447 1429 934 
Q 1834 422 2522 422 
Q 3209 422 3611 934 
Q 4013 1447 4013 2328 
Q 4013 3213 3611 3725 
Q 3209 4238 2522 4238 
z
M 3406 84 
L 4238 -825 
L 3475 -825 
L 2784 -78 
Q 2681 -84 2626 -87 
Q 2572 -91 2522 -91 
Q 1538 -91 948 567 
Q 359 1225 359 2328 
Q 359 3434 948 4092 
Q 1538 4750 2522 4750 
Q 3503 4750 4090 4092 
Q 4678 3434 4678 2328 
Q 4678 1516 4351 937 
Q 4025 359 3406 84 
z
" transform="scale(0.015625)"/>
      <path id="DejaVuSans-39" d="M 703 97 
L 703 672 
Q 941 559 1184 500 
Q 1428 441 1663 441 
Q 2288 441 2617 861 
Q 2947 1281 2994 2138 
Q 2813 1869 2534 1725 
Q 2256 1581 1919 1581 
Q 1219 1581 811 2004 
Q 403 2428 403 3163 
Q 403 3881 828 4315 
Q 1253 4750 1959 4750 
Q 2769 4750 3195 4129 
Q 3622 3509 3622 2328 
Q 3622 1225 3098 567 
Q 2575 -91 1691 -91 
Q 1453 -91 1209 -44 
Q 966 3 703 97 
z
M 1959 2075 
Q 2384 2075 2632 2365 
Q 2881 2656 2881 3163 
Q 2881 3666 2632 3958 
Q 2384 4250 1959 4250 
Q 1534 4250 1286 3958 
Q 1038 3666 1038 3163 
Q 1038 2656 1286 2365 
Q 1534 2075 1959 2075 
z
" transform="scale(0.015625)"/>
      <path id="DejaVuSans-29" d="M 513 4856 
L 1013 4856 
Q 1481 4119 1714 3412 
Q 1947 2706 1947 2009 
Q 1947 1309 1714 600 
Q 1481 -109 1013 -844 
L 513 -844 
Q 928 -128 1133 580 
Q 1338 1288 1338 2009 
Q 1338 2731 1133 3434 
Q 928 4138 513 4856 
z
" transform="scale(0.015625)"/>
     </defs>
     <use xlink:href="#DejaVuSans-41"/>
     <use xlink:href="#DejaVuSans-74" transform="translate(66.658203 0)"/>
     <use xlink:href="#DejaVuSans-6f" transform="translate(105.867188 0)"/>
     <use xlink:href="#DejaVuSans-6d" transform="translate(167.048828 0)"/>
     <use xlink:href="#DejaVuSans-20" transform="translate(264.460938 0)"/>
     <use xlink:href="#DejaVuSans-54" transform="translate(296.248047 0)"/>
     <use xlink:href="#DejaVuSans-79" transform="translate(341.707031 0)"/>
     <use xlink:href="#DejaVuSans-70" transform="translate(400.886719 0)"/>
     <use xlink:href="#DejaVuSans-65" transform="translate(464.363281 0)"/>
     <use xlink:href="#DejaVuSans-20" transform="translate(525.886719 0)"/>
     <use xlink:href="#DejaVuSans-43" transform="translate(557.673828 0)"/>
     <use xlink:href="#DejaVuSans-20" transform="translate(627.498047 0)"/>
     <use xlink:href="#DejaVuSans-28" transform="translate(659.285156 0)"/>
     <use xlink:href="#DejaVuSans-6e" transform="translate(698.298828 0)"/>
     <use xlink:href="#DejaVuSans-3d" transform="translate(761.677734 0)"/>
     <use xlink:href="#DejaVuSans-35" transform="translate(845.466797 0)"/>
     <use xlink:href="#DejaVuSans-31" transform="translate(909.089844 0)"/>
     <use xlink:href="#DejaVuSans-2c" transform="translate(972.712891 0)"/>
     <use xlink:href="#DejaVuSans-20" transform="translate(1004.5 0)"/>
     <use xlink:href="#DejaVuSans-6d" transform="translate(1036.287109 0)"/>
     <use xlink:href="#DejaVuSans-65" transform="translate(1133.699219 0)"/>
     <use xlink:href="#DejaVuSans-61" transform="translate(1195.222656 0)"/>
     <use xlink:href="#DejaVuSans-6e" transform="translate(1256.501953 0)"/>
     <use xlink:href="#DejaVuSans-20" transform="translate(1319.880859 0)"/>
     <use xlink:href="#DejaVuSans-51" transform="translate(1351.667969 0)"/>
     <use xlink:href="#DejaVuSans-3d" transform="translate(1430.378906 0)"/>
     <use xlink:href="#DejaVuSans-39" transform="translate(1514.167969 0)"/>
     <use xlink:href="#DejaVuSans-2e" transform="translate(1577.791016 0)"/>
     <use xlink:href="#DejaVuSans-37" transform="translate(1609.578125 0)"/>
     <use xlink:href="#DejaVuSans-35" transform="translate(1673.201172 0)"/>
     <use xlink:href="#DejaVuSans-29" transform="translate(1736.824219 0)"/>
    </g>
   </g>
  </g>
 </g>
 <defs>
  <clipPath id="pedc218eed8">
   <rect x="57.6" y="41.472" width="357.12" height="266.112"/>
  </clipPath>
 </defs>
</svg>
