<?xml version="1.0" encoding="utf-8" standalone="no"?>
<!DOCTYPE svg PUBLIC "-//W3C//DTD SVG 1.1//EN"
  "http://www.w3.org/Graphics/SVG/1.1/DTD/svg11.dtd">
<svg xmlns:xlink="http://www.w3.org/1999/xlink" width="460.8pt" height="345.6pt" viewBox="0 0 460.8 345.6" xmlns="http://www.w3.org/2000/svg" version="1.1">
 <metadata>
  <rdf:RDF xmlns:dc="http://purl.org/dc/elements/1.1/" xmlns:cc="http://creativecommons.org/ns#" xmlns:rdf="http://www.w3.org/1999/02/22-rdf-syntax-ns#">
   <cc:Work>
    <dc:type rdf:resource="http://purl.org/dc/dcmitype/StillImage"/>
    <dc:date>2025-12-10T13:47:56.068379</dc:date>
    <dc:format>image/svg+xml</dc:format>
    <dc:creator>
     <cc:Agent>
      <dc:title>Matplotlib v3.10.3, https://matplotlib.org/</dc:title>
     </cc:Agent>
    </dc:creator>
   </cc:Work>
  </rdf:RDF>
 </metadata>
 <defs>
  <style type="text/css">*{stroke-linejoin: round; stroke-linecap: butt}</style>
 </defs>
 <g id="figure_1">
  <g id="patch_1">
   <path d="M 0 345.6 
L 460.8 345.6 
L 460.8 0 
L 0 0 
z
" style="fill: #ffffff"/>
  </g>
  <g id="axes_1">
   <g id="patch_2">
    <path d="M 57.6 307.584 
L 414.72 307.584 
L 414.72 41.472 
L 57.6 41.472 
z
" style="fill: #ffffff"/>
   </g>
   <g id="matplotlib.axis_1">
    <g id="xtick_1">
     <g id="line2d_1">
      <defs>
       <path id="mac21db3ed7" d="M 0 0 
L 0 3.5 
" style="stroke: #000000; stroke-width: 0.8"/>
      </defs>
      <g>
       <use xlink:href="#mac21db3ed7" x="73.832727" y="307.584" style="stroke: #000000; stroke-width: 0.8"/>
      </g>
     </g>
     <g id="text_1">
      <!-- 0 -->
      <g transform="translate(69.060852 325.981656) scale(0.15 -0.15)">
       <defs>
        <path id="DejaVuSans-30" d="M 2034 4250 
Q 1547 4250 1301 3770 
Q 1056 3291 1056 2328 
Q 1056 1369 1301 889 
Q 1547 409 2034 409 
Q 2525 409 2770 889 
Q 3016 1369 3016 2328 
Q 3016 3291 2770 3770 
Q 2525 4250 2034 4250 
z
M 2034 4750 
Q 2819 4750 3233 4129 
Q 3647 3509 3647 2328 
Q 3647 1150 3233 529 
Q 2819 -91 2034 -91 
Q 1250 -91 836 529 
Q 422 1150 422 2328 
Q 422 3509 836 4129 
Q 1250 4750 2034 4750 
z
" transform="scale(0.015625)"/>
       </defs>
       <use xlink:href="#DejaVuSans-30"/>
      </g>
     </g>
    </g>
    <g id="xtick_2">
     <g id="line2d_2">
      <g>
       <use xlink:href="#mac21db3ed7" x="154.996364" y="307.584" style="stroke: #000000; stroke-width: 0.8"/>
      </g>
     </g>
     <g id="text_2">
      <!-- 5 -->
      <g transform="translate(150.224489 325.981656) scale(0.15 -0.15)">
       <defs>
        <path id="DejaVuSans-35" d="M 691 4666 
L 3169 4666 
L 3169 4134 
L 1269 4134 
L 1269 2991 
Q 1406 3038 1543 3061 
Q 1681 3084 1819 3084 
Q 2600 3084 3056 2656 
Q 3513 2228 3513 1497 
Q 3513 744 3044 326 
Q 2575 -91 1722 -91 
Q 1428 -91 1123 -41 
Q 819 9 494 109 
L 494 744 
Q 775 591 1075 516 
Q 1375 441 1709 441 
Q 2250 441 2565 725 
Q 2881 1009 2881 1497 
Q 2881 1984 2565 2268 
Q 2250 2553 1709 2553 
Q 1456 2553 1204 2497 
Q 953 2441 691 2322 
L 691 4666 
z
" transform="scale(0.015625)"/>
       </defs>
       <use xlink:href="#DejaVuSans-35"/>
      </g>
     </g>
    </g>
    <g id="xtick_3">
     <g id="line2d_3">
      <g>
       <use xlink:href="#mac21db3ed7" x="236.16" y="307.584" style="stroke: #000000; stroke-width: 0.8"/>
      </g>
     </g>
     <g id="text_3">
      <!-- 10 -->
      <g transform="translate(226.61625 325.981656) scale(0.15 -0.15)">
       <defs>
        <path id="DejaVuSans-31" d="M 794 531 
L 1825 531 
L 1825 4091 
L 703 3866 
L 703 4441 
L 1819 4666 
L 2450 4666 
L 2450 531 
L 3481 531 
L 3481 0 
L 794 0 
L 794 531 
z
" transform="scale(0.015625)"/>
       </defs>
       <use xlink:href="#DejaVuSans-31"/>
       <use xlink:href="#DejaVuSans-30" transform="translate(63.623047 0)"/>
      </g>
     </g>
    </g>
    <g id="xtick_4">
     <g id="line2d_4">
      <g>
       <use xlink:href="#mac21db3ed7" x="317.323636" y="307.584" style="stroke: #000000; stroke-width: 0.8"/>
      </g>
     </g>
     <g id="text_4">
      <!-- 15 -->
      <g transform="translate(307.779886 325.981656) scale(0.15 -0.15)">
       <use xlink:href="#DejaVuSans-31"/>
       <use xlink:href="#DejaVuSans-35" transform="translate(63.623047 0)"/>
      </g>
     </g>
    </g>
    <g id="xtick_5">
     <g id="line2d_5">
      <g>
       <use xlink:href="#mac21db3ed7" x="398.487273" y="307.584" style="stroke: #000000; stroke-width: 0.8"/>
      </g>
     </g>
     <g id="text_5">
      <!-- 20 -->
      <g transform="translate(388.943523 325.981656) scale(0.15 -0.15)">
       <defs>
        <path id="DejaVuSans-32" d="M 1228 531 
L 3431 531 
L 3431 0 
L 469 0 
L 469 531 
Q 828 903 1448 1529 
Q 2069 2156 2228 2338 
Q 2531 2678 2651 2914 
Q 2772 3150 2772 3378 
Q 2772 3750 2511 3984 
Q 2250 4219 1831 4219 
Q 1534 4219 1204 4116 
Q 875 4013 500 3803 
L 500 4441 
Q 881 4594 1212 4672 
Q 1544 4750 1819 4750 
Q 2544 4750 2975 4387 
Q 3406 4025 3406 3419 
Q 3406 3131 3298 2873 
Q 3191 2616 2906 2266 
Q 2828 2175 2409 1742 
Q 1991 1309 1228 531 
z
" transform="scale(0.015625)"/>
       </defs>
       <use xlink:href="#DejaVuSans-32"/>
       <use xlink:href="#DejaVuSans-30" transform="translate(63.623047 0)"/>
      </g>
     </g>
    </g>
   </g>
   <g id="matplotlib.axis_2">
    <g id="ytick_1">
     <g id="line2d_6">
      <defs>
       <path id="me686c5ec81" d="M 0 0 
L -3.5 0 
" style="stroke: #000000; stroke-width: 0.8"/>
      </defs>
      <g>
       <use xlink:href="#me686c5ec81" x="57.6" y="276.42846" style="stroke: #000000; stroke-width: 0.8"/>
      </g>
     </g>
     <g id="text_6">
      <!-- 5 -->
      <g transform="translate(41.05625 282.127288) scale(0.15 -0.15)">
       <use xlink:href="#DejaVuSans-35"/>
      </g>
     </g>
    </g>
    <g id="ytick_2">
     <g id="line2d_7">
      <g>
       <use xlink:href="#me686c5ec81" x="57.6" y="232.548317" style="stroke: #000000; stroke-width: 0.8"/>
      </g>
     </g>
     <g id="text_7">
      <!-- 10 -->
      <g transform="translate(31.5125 238.247145) scale(0.15 -0.15)">
       <use xlink:href="#DejaVuSans-31"/>
       <use xlink:href="#DejaVuSans-30" transform="translate(63.623047 0)"/>
      </g>
     </g>
    </g>
    <g id="ytick_3">
     <g id="line2d_8">
      <g>
       <use xlink:href="#me686c5ec81" x="57.6" y="188.668175" style="stroke: #000000; stroke-width: 0.8"/>
      </g>
     </g>
     <g id="text_8">
      <!-- 15 -->
      <g transform="translate(31.5125 194.367003) scale(0.15 -0.15)">
       <use xlink:href="#DejaVuSans-31"/>
       <use xlink:href="#DejaVuSans-35" transform="translate(63.623047 0)"/>
      </g>
     </g>
    </g>
    <g id="ytick_4">
     <g id="line2d_9">
      <g>
       <use xlink:href="#me686c5ec81" x="57.6" y="144.788033" style="stroke: #000000; stroke-width: 0.8"/>
      </g>
     </g>
     <g id="text_9">
      <!-- 20 -->
      <g transform="translate(31.5125 150.486861) scale(0.15 -0.15)">
       <use xlink:href="#DejaVuSans-32"/>
       <use xlink:href="#DejaVuSans-30" transform="translate(63.623047 0)"/>
      </g>
     </g>
    </g>
    <g id="ytick_5">
     <g id="line2d_10">
      <g>
       <use xlink:href="#me686c5ec81" x="57.6" y="100.90789" style="stroke: #000000; stroke-width: 0.8"/>
      </g>
     </g>
     <g id="text_10">
      <!-- 25 -->
      <g transform="translate(31.5125 106.606718) scale(0.15 -0.15)">
       <use xlink:href="#DejaVuSans-32"/>
       <use xlink:href="#DejaVuSans-35" transform="translate(63.623047 0)"/>
      </g>
     </g>
    </g>
    <g id="ytick_6">
     <g id="line2d_11">
      <g>
       <use xlink:href="#me686c5ec81" x="57.6" y="57.027748" style="stroke: #000000; stroke-width: 0.8"/>
      </g>
     </g>
     <g id="text_11">
      <!-- 30 -->
      <g transform="translate(31.5125 62.726576) scale(0.15 -0.15)">
       <defs>
        <path id="DejaVuSans-33" d="M 2597 2516 
Q 3050 2419 3304 2112 
Q 3559 1806 3559 1356 
Q 3559 666 3084 287 
Q 2609 -91 1734 -91 
Q 1441 -91 1130 -33 
Q 819 25 488 141 
L 488 750 
Q 750 597 1062 519 
Q 1375 441 1716 441 
Q 2309 441 2620 675 
Q 2931 909 2931 1356 
Q 2931 1769 2642 2001 
Q 2353 2234 1838 2234 
L 1294 2234 
L 1294 2753 
L 1863 2753 
Q 2328 2753 2575 2939 
Q 2822 3125 2822 3475 
Q 2822 3834 2567 4026 
Q 2313 4219 1838 4219 
Q 1578 4219 1281 4162 
Q 984 4106 628 3988 
L 628 4550 
Q 988 4650 1302 4700 
Q 1616 4750 1894 4750 
Q 2613 4750 3031 4423 
Q 3450 4097 3450 3541 
Q 3450 3153 3228 2886 
Q 3006 2619 2597 2516 
z
" transform="scale(0.015625)"/>
       </defs>
       <use xlink:href="#DejaVuSans-33"/>
       <use xlink:href="#DejaVuSans-30" transform="translate(63.623047 0)"/>
      </g>
     </g>
    </g>
   </g>
   <g id="line2d_12">
    <path d="M 73.832727 247.656702 
L 90.065455 237.300964 
L 106.298182 255.205354 
L 122.530909 229.505079 
L 138.763636 208.888383 
L 154.996364 231.103915 
L 171.229091 215.258563 
L 187.461818 202.181463 
L 203.694545 179.496076 
L 219.927273 218.863404 
L 236.16 193.128281 
L 252.392727 152.398184 
L 268.625455 252.499223 
L 284.858182 198.489479 
L 301.090909 268.70387 
L 317.323636 268.940449 
L 333.556364 158.915984 
L 349.789091 193.267526 
L 366.021818 159.09554 
L 382.254545 182.02427 
L 398.487273 182.82964 
" clip-path="url(#p6d939e2289)" style="fill: none; stroke: #440154; stroke-opacity: 0.5; stroke-width: 1.5; stroke-linecap: square"/>
   </g>
   <g id="line2d_13">
    <path d="M 73.832727 230.627496 
L 90.065455 246.271088 
L 106.298182 251.834401 
L 122.530909 249.062476 
L 138.763636 238.080378 
L 154.996364 254.063479 
L 171.229091 240.571568 
L 187.461818 231.505576 
L 203.694545 181.607826 
L 219.927273 187.467537 
L 236.16 166.157061 
L 252.392727 175.970528 
L 268.625455 246.056925 
L 284.858182 245.590854 
L 301.090909 219.536098 
L 317.323636 233.673348 
L 333.556364 168.248817 
L 349.789091 167.805975 
L 366.021818 164.267646 
L 382.254545 191.543886 
L 398.487273 178.220757 
" clip-path="url(#p6d939e2289)" style="fill: none; stroke: #440154; stroke-opacity: 0.5; stroke-width: 1.5; stroke-linecap: square"/>
   </g>
   <g id="line2d_14">
    <path d="M 73.832727 270.144629 
L 90.065455 273.151413 
L 106.298182 276.036674 
L 122.530909 253.632085 
L 138.763636 215.086035 
L 154.996364 272.363538 
L 171.229091 258.593548 
L 187.461818 250.159754 
L 203.694545 187.085583 
L 219.927273 175.231784 
L 236.16 209.19222 
L 252.392727 126.55312 
L 268.625455 204.431664 
L 284.858182 195.584913 
L 301.090909 212.58412 
L 317.323636 250.83144 
L 333.556364 150.249292 
L 349.789091 164.444999 
L 366.021818 167.50999 
L 382.254545 201.659023 
L 398.487273 167.683498 
" clip-path="url(#p6d939e2289)" style="fill: none; stroke: #440154; stroke-opacity: 0.5; stroke-width: 1.5; stroke-linecap: square"/>
   </g>
   <g id="line2d_15">
    <path d="M 73.832727 263.299796 
L 90.065455 231.893986 
L 106.298182 195.458927 
L 122.530909 230.480446 
L 138.763636 222.620354 
L 154.996364 201.53791 
L 171.229091 227.41088 
L 187.461818 223.550336 
L 203.694545 210.918534 
L 219.927273 195.627961 
L 236.16 258.151264 
L 252.392727 218.416486 
L 268.625455 161.321352 
L 284.858182 204.895559 
L 301.090909 240.021016 
L 317.323636 163.169191 
L 333.556364 199.836653 
L 349.789091 153.244712 
L 366.021818 185.658064 
L 382.254545 153.3222 
L 398.487273 206.16322 
" clip-path="url(#p6d939e2289)" style="fill: none; stroke: #440154; stroke-opacity: 0.5; stroke-width: 1.5; stroke-linecap: square"/>
   </g>
   <g id="line2d_16">
    <path d="M 73.832727 252.047548 
L 90.065455 213.609121 
L 106.298182 221.76934 
L 122.530909 223.854518 
L 138.763636 221.668006 
L 154.996364 204.642287 
L 171.229091 194.28824 
L 187.461818 239.03546 
L 203.694545 168.494693 
L 219.927273 235.785708 
L 236.16 250.809806 
L 252.392727 268.913009 
L 268.625455 200.675103 
L 284.858182 220.740357 
L 301.090909 162.180636 
L 317.323636 204.280808 
L 333.556364 181.331043 
L 349.789091 151.097762 
L 366.021818 189.381555 
L 382.254545 191.912185 
L 398.487273 193.277499 
" clip-path="url(#p6d939e2289)" style="fill: none; stroke: #440154; stroke-opacity: 0.5; stroke-width: 1.5; stroke-linecap: square"/>
   </g>
   <g id="line2d_17">
    <path d="M 73.832727 233.762401 
L 90.065455 270.347301 
L 106.298182 235.939533 
L 122.530909 261.569173 
L 138.763636 237.791604 
L 154.996364 212.311966 
L 171.229091 233.13084 
L 187.461818 226.127588 
L 203.694545 162.013766 
L 219.927273 242.542873 
L 236.16 267.841519 
L 252.392727 200.239558 
L 268.625455 191.674512 
L 284.858182 215.68463 
L 301.090909 179.3058 
L 317.323636 202.52977 
L 333.556364 189.318866 
L 349.789091 151.98601 
L 366.021818 182.846704 
L 382.254545 153.038391 
L 398.487273 234.657899 
" clip-path="url(#p6d939e2289)" style="fill: none; stroke: #440154; stroke-opacity: 0.5; stroke-width: 1.5; stroke-linecap: square"/>
   </g>
   <g id="line2d_18">
    <path d="M 73.832727 246.336738 
L 90.065455 254.646611 
L 106.298182 244.673049 
L 122.530909 193.599522 
L 138.763636 255.129375 
L 154.996364 248.673025 
L 171.229091 200.66682 
L 187.461818 194.890874 
L 203.694545 246.147936 
L 219.927273 225.619565 
L 236.16 214.24011 
L 252.392727 258.41712 
L 268.625455 220.333737 
L 284.858182 174.743143 
L 301.090909 267.72263 
L 317.323636 144.965777 
L 333.556364 184.433817 
L 349.789091 181.139073 
L 366.021818 203.69224 
L 382.254545 205.793899 
L 398.487273 205.057797 
" clip-path="url(#p6d939e2289)" style="fill: none; stroke: #440154; stroke-opacity: 0.5; stroke-width: 1.5; stroke-linecap: square"/>
   </g>
   <g id="line2d_19">
    <path d="M 73.832727 270.674147 
L 90.065455 239.132431 
L 106.298182 245.456438 
L 122.530909 246.462929 
L 138.763636 286.938092 
L 154.996364 204.277343 
L 171.229091 169.171655 
L 187.461818 174.327815 
L 203.694545 239.381022 
L 219.927273 261.601035 
L 236.16 199.132727 
L 252.392727 246.111608 
L 268.625455 269.327829 
L 284.858182 197.606583 
L 301.090909 203.468859 
L 317.323636 202.301113 
L 333.556364 160.907223 
L 349.789091 208.188693 
L 366.021818 181.215417 
L 382.254545 192.417702 
L 398.487273 206.297123 
" clip-path="url(#p6d939e2289)" style="fill: none; stroke: #440154; stroke-opacity: 0.5; stroke-width: 1.5; stroke-linecap: square"/>
   </g>
   <g id="line2d_20">
    <path d="M 73.832727 229.384717 
L 90.065455 276.346234 
L 106.298182 279.675737 
L 122.530909 240.226345 
L 138.763636 257.185844 
L 154.996364 216.784921 
L 171.229091 195.56557 
L 187.461818 155.945588 
L 203.694545 246.193394 
L 219.927273 265.971346 
L 236.16 214.627379 
L 252.392727 233.724662 
L 268.625455 263.100149 
L 284.858182 181.927472 
L 301.090909 224.053333 
L 317.323636 173.618899 
L 333.556364 155.509703 
L 349.789091 198.685292 
L 366.021818 154.076126 
L 382.254545 207.698154 
L 398.487273 174.15657 
" clip-path="url(#p6d939e2289)" style="fill: none; stroke: #440154; stroke-opacity: 0.5; stroke-width: 1.5; stroke-linecap: square"/>
   </g>
   <g id="line2d_21">
    <path d="M 73.832727 273.468837 
L 90.065455 240.69117 
L 106.298182 255.346668 
L 122.530909 268.359424 
L 138.763636 264.757647 
L 154.996364 256.194221 
L 171.229091 246.274562 
L 187.461818 237.853967 
L 203.694545 209.769368 
L 219.927273 215.329913 
L 236.16 197.520922 
L 252.392727 157.079668 
L 268.625455 186.003676 
L 284.858182 163.200739 
L 301.090909 175.560204 
L 317.323636 195.614851 
L 333.556364 198.546142 
L 349.789091 174.278633 
L 366.021818 205.319918 
L 382.254545 145.684319 
L 398.487273 200.096883 
" clip-path="url(#p6d939e2289)" style="fill: none; stroke: #440154; stroke-opacity: 0.5; stroke-width: 1.5; stroke-linecap: square"/>
   </g>
   <g id="line2d_22">
    <path d="M 73.832727 241.662512 
L 90.065455 235.057547 
L 106.298182 286.21569 
L 122.530909 266.855832 
L 138.763636 246.203 
L 154.996364 249.197018 
L 171.229091 233.975915 
L 187.461818 269.424022 
L 203.694545 208.430341 
L 219.927273 174.318251 
L 236.16 200.921138 
L 252.392727 210.042463 
L 268.625455 208.222254 
L 284.858182 188.370943 
L 301.090909 134.865212 
L 317.323636 228.278075 
L 333.556364 173.105287 
L 349.789091 212.364364 
L 366.021818 216.862887 
L 382.254545 206.340575 
L 398.487273 153.080453 
" clip-path="url(#p6d939e2289)" style="fill: none; stroke: #440154; stroke-opacity: 0.5; stroke-width: 1.5; stroke-linecap: square"/>
   </g>
   <g id="line2d_23">
    <path d="M 73.832727 235.242452 
L 90.065455 207.820789 
L 106.298182 211.604376 
L 122.530909 173.603513 
L 138.763636 222.086621 
L 154.996364 236.903225 
L 171.229091 224.893938 
L 187.461818 238.419447 
L 203.694545 269.472703 
L 219.927273 226.146129 
L 236.16 241.569821 
L 252.392727 234.053686 
L 268.625455 194.341487 
L 284.858182 209.636657 
L 301.090909 167.253652 
L 317.323636 183.898983 
L 333.556364 227.231288 
L 349.789091 183.525571 
L 366.021818 211.995908 
L 382.254545 218.096481 
L 398.487273 192.579853 
" clip-path="url(#p6d939e2289)" style="fill: none; stroke: #440154; stroke-opacity: 0.5; stroke-width: 1.5; stroke-linecap: square"/>
   </g>
   <g id="line2d_24">
    <path d="M 73.832727 259.945969 
L 90.065455 275.616352 
L 106.298182 266.114279 
L 122.530909 266.819167 
L 138.763636 254.800077 
L 154.996364 248.81531 
L 171.229091 267.465712 
L 187.461818 256.124089 
L 203.694545 256.439241 
L 219.927273 237.714331 
L 236.16 232.838533 
L 252.392727 236.492809 
L 268.625455 172.655571 
L 284.858182 191.849042 
L 301.090909 191.017246 
L 317.323636 195.869269 
L 333.556364 223.836501 
L 349.789091 212.376055 
L 366.021818 226.385158 
L 382.254545 251.348867 
L 398.487273 196.356952 
" clip-path="url(#p6d939e2289)" style="fill: none; stroke: #440154; stroke-opacity: 0.5; stroke-width: 1.5; stroke-linecap: square"/>
   </g>
   <g id="line2d_25">
    <path d="M 73.832727 184.094248 
L 90.065455 188.896515 
L 106.298182 200.474479 
L 122.530909 215.719878 
L 138.763636 208.253257 
L 154.996364 240.074382 
L 171.229091 240.94947 
L 187.461818 178.989136 
L 203.694545 220.666499 
L 219.927273 172.158023 
L 236.16 205.02415 
L 252.392727 185.687415 
L 268.625455 164.592102 
L 284.858182 183.969954 
L 301.090909 152.729063 
L 317.323636 184.324109 
L 333.556364 207.587725 
L 349.789091 213.598695 
L 366.021818 215.207474 
L 382.254545 210.370777 
L 398.487273 177.383052 
" clip-path="url(#p6d939e2289)" style="fill: none; stroke: #440154; stroke-opacity: 0.5; stroke-width: 1.5; stroke-linecap: square"/>
   </g>
   <g id="line2d_26">
    <path d="M 73.832727 271.48585 
L 90.065455 277.687231 
L 106.298182 260.655559 
L 122.530909 280.180781 
L 138.763636 268.660289 
L 154.996364 271.82053 
L 171.229091 272.458611 
L 187.461818 252.045904 
L 203.694545 267.926191 
L 219.927273 224.02607 
L 236.16 275.849547 
L 252.392727 226.012348 
L 268.625455 266.528806 
L 284.858182 264.004742 
L 301.090909 239.848193 
L 317.323636 262.115195 
L 333.556364 256.645514 
L 349.789091 253.923473 
L 366.021818 267.150166 
L 382.254545 248.573586 
L 398.487273 257.010657 
" clip-path="url(#p6d939e2289)" style="fill: none; stroke: #440154; stroke-opacity: 0.5; stroke-width: 1.5; stroke-linecap: square"/>
   </g>
   <g id="line2d_27">
    <path d="M 73.832727 267.907738 
L 90.065455 260.530954 
L 106.298182 262.366767 
L 122.530909 260.978905 
L 138.763636 255.686372 
L 154.996364 260.134949 
L 171.229091 250.04519 
L 187.461818 227.090084 
L 203.694545 239.193974 
L 219.927273 258.632381 
L 236.16 260.490796 
L 252.392727 255.619128 
L 268.625455 271.323851 
L 284.858182 268.791465 
L 301.090909 216.034288 
L 317.323636 254.787407 
L 333.556364 225.661001 
L 349.789091 226.43983 
L 366.021818 259.283358 
L 382.254545 236.126523 
L 398.487273 266.582298 
" clip-path="url(#p6d939e2289)" style="fill: none; stroke: #440154; stroke-opacity: 0.5; stroke-width: 1.5; stroke-linecap: square"/>
   </g>
   <g id="line2d_28">
    <path d="M 73.832727 241.545064 
L 90.065455 258.422202 
L 106.298182 280.037949 
L 122.530909 276.721752 
L 138.763636 250.541266 
L 154.996364 249.309275 
L 171.229091 281.674394 
L 187.461818 235.707532 
L 203.694545 246.422156 
L 219.927273 247.674569 
L 236.16 260.11385 
L 252.392727 262.989136 
L 268.625455 264.67768 
L 284.858182 229.526805 
L 301.090909 261.28387 
L 317.323636 246.098321 
L 333.556364 235.379171 
L 349.789091 250.957178 
L 366.021818 217.322446 
L 382.254545 249.524601 
L 398.487273 263.045833 
" clip-path="url(#p6d939e2289)" style="fill: none; stroke: #440154; stroke-opacity: 0.5; stroke-width: 1.5; stroke-linecap: square"/>
   </g>
   <g id="line2d_29">
    <path d="M 73.832727 260.50848 
L 90.065455 269.668648 
L 106.298182 266.677298 
L 122.530909 281.796014 
L 138.763636 254.713366 
L 154.996364 279.368531 
L 171.229091 269.346661 
L 187.461818 248.261884 
L 203.694545 285.563892 
L 219.927273 251.838683 
L 236.16 262.968753 
L 252.392727 230.929836 
L 268.625455 197.877385 
L 284.858182 203.382578 
L 301.090909 211.948101 
L 317.323636 242.105431 
L 333.556364 259.913694 
L 349.789091 236.425478 
L 366.021818 244.340484 
L 382.254545 232.668601 
L 398.487273 261.820698 
" clip-path="url(#p6d939e2289)" style="fill: none; stroke: #440154; stroke-opacity: 0.5; stroke-width: 1.5; stroke-linecap: square"/>
   </g>
   <g id="line2d_30">
    <path d="M 73.832727 259.510194 
L 90.065455 256.038599 
L 106.298182 267.891777 
L 122.530909 251.578869 
L 138.763636 276.358588 
L 154.996364 280.091588 
L 171.229091 254.248609 
L 187.461818 232.405539 
L 203.694545 269.19233 
L 219.927273 250.544403 
L 236.16 267.917515 
L 252.392727 244.549659 
L 268.625455 238.596079 
L 284.858182 226.5378 
L 301.090909 186.24757 
L 317.323636 254.588528 
L 333.556364 243.007128 
L 349.789091 223.872883 
L 366.021818 244.536311 
L 382.254545 248.156665 
L 398.487273 244.537836 
" clip-path="url(#p6d939e2289)" style="fill: none; stroke: #440154; stroke-opacity: 0.5; stroke-width: 1.5; stroke-linecap: square"/>
   </g>
   <g id="line2d_31">
    <path d="M 73.832727 278.616725 
L 90.065455 275.292625 
L 106.298182 274.526608 
L 122.530909 274.118553 
L 138.763636 262.214432 
L 154.996364 252.438096 
L 171.229091 273.190704 
L 187.461818 245.894269 
L 203.694545 276.525724 
L 219.927273 225.837902 
L 236.16 231.134365 
L 252.392727 246.141491 
L 268.625455 264.881865 
L 284.858182 244.60963 
L 301.090909 212.819678 
L 317.323636 259.026566 
L 333.556364 268.765948 
L 349.789091 251.339747 
L 366.021818 258.498927 
L 382.254545 232.937675 
L 398.487273 241.02611 
" clip-path="url(#p6d939e2289)" style="fill: none; stroke: #440154; stroke-opacity: 0.5; stroke-width: 1.5; stroke-linecap: square"/>
   </g>
   <g id="line2d_32">
    <path d="M 73.832727 266.356008 
L 90.065455 230.523335 
L 106.298182 265.211838 
L 122.530909 255.564688 
L 138.763636 262.787532 
L 154.996364 256.419776 
L 171.229091 256.916514 
L 187.461818 255.956919 
L 203.694545 276.976641 
L 219.927273 229.933455 
L 236.16 237.468244 
L 252.392727 257.120317 
L 268.625455 284.66099 
L 284.858182 259.992991 
L 301.090909 243.060064 
L 317.323636 228.76497 
L 333.556364 239.979772 
L 349.789091 176.499081 
L 366.021818 230.217044 
L 382.254545 235.892971 
L 398.487273 260.930488 
" clip-path="url(#p6d939e2289)" style="fill: none; stroke: #440154; stroke-opacity: 0.5; stroke-width: 1.5; stroke-linecap: square"/>
   </g>
   <g id="line2d_33">
    <path d="M 73.832727 272.31296 
L 90.065455 257.27499 
L 106.298182 264.018116 
L 122.530909 280.217415 
L 138.763636 273.386543 
L 154.996364 265.431534 
L 171.229091 253.661714 
L 187.461818 256.237183 
L 203.694545 259.499268 
L 219.927273 255.42542 
L 236.16 259.672809 
L 252.392727 279.019267 
L 268.625455 259.884735 
L 284.858182 256.996346 
L 301.090909 251.724366 
L 317.323636 264.760886 
L 333.556364 235.93966 
L 349.789091 228.30078 
L 366.021818 230.131202 
L 382.254545 239.341165 
L 398.487273 281.710636 
" clip-path="url(#p6d939e2289)" style="fill: none; stroke: #440154; stroke-opacity: 0.5; stroke-width: 1.5; stroke-linecap: square"/>
   </g>
   <g id="line2d_34">
    <path d="M 73.832727 245.951324 
L 90.065455 250.797387 
L 106.298182 243.39417 
L 122.530909 269.360573 
L 138.763636 271.368012 
L 154.996364 262.886823 
L 171.229091 259.661507 
L 187.461818 277.166813 
L 203.694545 218.398776 
L 219.927273 251.338817 
L 236.16 228.019789 
L 252.392727 252.820739 
L 268.625455 250.593564 
L 284.858182 241.677419 
L 301.090909 221.783356 
L 317.323636 251.175621 
L 333.556364 239.729784 
L 349.789091 226.590445 
L 366.021818 260.19101 
L 382.254545 212.247564 
L 398.487273 243.824241 
" clip-path="url(#p6d939e2289)" style="fill: none; stroke: #440154; stroke-opacity: 0.5; stroke-width: 1.5; stroke-linecap: square"/>
   </g>
   <g id="line2d_35">
    <path d="M 73.832727 245.051752 
L 90.065455 268.834147 
L 106.298182 266.123569 
L 122.530909 272.419908 
L 138.763636 249.711493 
L 154.996364 254.142188 
L 171.229091 236.96241 
L 187.461818 236.107344 
L 203.694545 257.451935 
L 219.927273 277.688572 
L 236.16 254.081126 
L 252.392727 256.970544 
L 268.625455 260.203063 
L 284.858182 244.686955 
L 301.090909 227.936296 
L 317.323636 209.293824 
L 333.556364 225.465562 
L 349.789091 243.54866 
L 366.021818 210.810249 
L 382.254545 239.505183 
L 398.487273 226.097867 
" clip-path="url(#p6d939e2289)" style="fill: none; stroke: #440154; stroke-opacity: 0.5; stroke-width: 1.5; stroke-linecap: square"/>
   </g>
   <g id="line2d_36">
    <path d="M 73.832727 253.402846 
L 90.065455 274.006196 
L 106.298182 258.618556 
L 122.530909 262.549951 
L 138.763636 241.63039 
L 154.996364 261.351858 
L 171.229091 253.038461 
L 187.461818 260.503212 
L 203.694545 239.171593 
L 219.927273 237.413725 
L 236.16 238.665758 
L 252.392727 263.526766 
L 268.625455 225.265517 
L 284.858182 242.622658 
L 301.090909 234.452894 
L 317.323636 194.00336 
L 333.556364 233.764291 
L 349.789091 223.655354 
L 366.021818 225.149553 
L 382.254545 231.9429 
L 398.487273 230.834418 
" clip-path="url(#p6d939e2289)" style="fill: none; stroke: #440154; stroke-opacity: 0.5; stroke-width: 1.5; stroke-linecap: square"/>
   </g>
   <g id="line2d_37">
    <path d="M 73.832727 208.574279 
L 90.065455 226.422401 
L 106.298182 240.351083 
L 122.530909 235.952982 
L 138.763636 268.827242 
L 154.996364 241.082516 
L 171.229091 252.242344 
L 187.461818 268.366267 
L 203.694545 254.816538 
L 219.927273 230.644682 
L 236.16 234.015357 
L 252.392727 219.82604 
L 268.625455 235.204675 
L 284.858182 213.514515 
L 301.090909 197.021275 
L 317.323636 236.345518 
L 333.556364 215.776077 
L 349.789091 198.876759 
L 366.021818 211.475697 
L 382.254545 236.764931 
L 398.487273 228.234624 
" clip-path="url(#p6d939e2289)" style="fill: none; stroke: #440154; stroke-opacity: 0.5; stroke-width: 1.5; stroke-linecap: square"/>
   </g>
   <g id="line2d_38">
    <path d="M 73.832727 258.319914 
L 90.065455 261.138721 
L 106.298182 254.365507 
L 122.530909 243.096668 
L 138.763636 272.24596 
L 154.996364 263.089252 
L 171.229091 250.997211 
L 187.461818 228.777893 
L 203.694545 220.541123 
L 219.927273 251.356092 
L 236.16 218.076769 
L 252.392727 219.389632 
L 268.625455 201.642167 
L 284.858182 272.698193 
L 301.090909 236.305486 
L 317.323636 191.714417 
L 333.556364 229.638273 
L 349.789091 211.02562 
L 366.021818 175.378993 
L 382.254545 212.240258 
L 398.487273 202.914769 
" clip-path="url(#p6d939e2289)" style="fill: none; stroke: #440154; stroke-opacity: 0.5; stroke-width: 1.5; stroke-linecap: square"/>
   </g>
   <g id="line2d_39">
    <path d="M 73.832727 228.883043 
L 90.065455 250.283612 
L 106.298182 245.576677 
L 122.530909 249.796063 
L 138.763636 235.951118 
L 154.996364 249.840737 
L 171.229091 239.928093 
L 187.461818 264.578908 
L 203.694545 194.238561 
L 219.927273 216.93089 
L 236.16 200.808138 
L 252.392727 169.307653 
L 268.625455 169.713897 
L 284.858182 190.951784 
L 301.090909 190.220381 
L 317.323636 192.748968 
L 333.556364 174.043514 
L 349.789091 202.810871 
L 366.021818 165.383811 
L 382.254545 153.927552 
L 398.487273 189.456727 
" clip-path="url(#p6d939e2289)" style="fill: none; stroke: #440154; stroke-opacity: 0.5; stroke-width: 1.5; stroke-linecap: square"/>
   </g>
   <g id="line2d_40">
    <path d="M 73.832727 281.030813 
L 90.065455 240.639054 
L 106.298182 260.987017 
L 122.530909 277.808853 
L 138.763636 270.401146 
L 154.996364 257.41918 
L 171.229091 220.904993 
L 187.461818 249.292698 
L 203.694545 241.401537 
L 219.927273 260.950348 
L 236.16 188.9201 
L 252.392727 241.350868 
L 268.625455 199.079162 
L 284.858182 208.100254 
L 301.090909 200.064127 
L 317.323636 199.797192 
L 333.556364 211.952213 
L 349.789091 190.301464 
L 366.021818 206.539867 
L 382.254545 241.436041 
L 398.487273 148.523721 
" clip-path="url(#p6d939e2289)" style="fill: none; stroke: #440154; stroke-opacity: 0.5; stroke-width: 1.5; stroke-linecap: square"/>
   </g>
   <g id="line2d_41">
    <path d="M 73.832727 252.390527 
L 90.065455 274.67968 
L 106.298182 261.028815 
L 122.530909 243.54286 
L 138.763636 273.37189 
L 154.996364 282.005146 
L 171.229091 207.385518 
L 187.461818 239.492799 
L 203.694545 215.476763 
L 219.927273 245.784994 
L 236.16 212.831099 
L 252.392727 243.184569 
L 268.625455 186.936999 
L 284.858182 206.117346 
L 301.090909 195.461037 
L 317.323636 173.593138 
L 333.556364 225.76706 
L 349.789091 197.212676 
L 366.021818 210.594385 
L 382.254545 213.805468 
L 398.487273 144.123046 
" clip-path="url(#p6d939e2289)" style="fill: none; stroke: #440154; stroke-opacity: 0.5; stroke-width: 1.5; stroke-linecap: square"/>
   </g>
   <g id="line2d_42">
    <path d="M 73.832727 265.135704 
L 90.065455 259.327877 
L 106.298182 250.126048 
L 122.530909 264.488895 
L 138.763636 248.880072 
L 154.996364 253.815021 
L 171.229091 236.823602 
L 187.461818 254.067283 
L 203.694545 250.648669 
L 219.927273 267.642534 
L 236.16 209.524335 
L 252.392727 240.984718 
L 268.625455 210.182951 
L 284.858182 219.492694 
L 301.090909 185.053105 
L 317.323636 185.52002 
L 333.556364 230.392296 
L 349.789091 171.146823 
L 366.021818 226.202752 
L 382.254545 209.16824 
L 398.487273 131.090647 
" clip-path="url(#p6d939e2289)" style="fill: none; stroke: #440154; stroke-opacity: 0.5; stroke-width: 1.5; stroke-linecap: square"/>
   </g>
   <g id="line2d_43">
    <path d="M 73.832727 278.148479 
L 90.065455 260.145273 
L 106.298182 258.805462 
L 122.530909 283.371229 
L 138.763636 205.822886 
L 154.996364 220.040851 
L 171.229091 233.188092 
L 187.461818 226.08789 
L 203.694545 243.058282 
L 219.927273 244.106146 
L 236.16 193.876098 
L 252.392727 189.139392 
L 268.625455 182.873598 
L 284.858182 206.925327 
L 301.090909 194.136176 
L 317.323636 183.510857 
L 333.556364 184.689564 
L 349.789091 177.7917 
L 366.021818 168.894389 
L 382.254545 127.092254 
L 398.487273 222.427657 
" clip-path="url(#p6d939e2289)" style="fill: none; stroke: #440154; stroke-opacity: 0.5; stroke-width: 1.5; stroke-linecap: square"/>
   </g>
   <g id="line2d_44">
    <path d="M 73.832727 266.547771 
L 90.065455 244.659797 
L 106.298182 219.663128 
L 122.530909 269.176668 
L 138.763636 207.273948 
L 154.996364 212.569707 
L 171.229091 197.861267 
L 187.461818 162.090941 
L 203.694545 192.045611 
L 219.927273 207.148065 
L 236.16 202.05634 
L 252.392727 228.022272 
L 268.625455 208.175283 
L 284.858182 191.640266 
L 301.090909 189.555083 
L 317.323636 210.850295 
L 333.556364 213.960661 
L 349.789091 227.667289 
L 366.021818 178.286523 
L 382.254545 164.139662 
L 398.487273 205.767334 
" clip-path="url(#p6d939e2289)" style="fill: none; stroke: #440154; stroke-opacity: 0.5; stroke-width: 1.5; stroke-linecap: square"/>
   </g>
   <g id="line2d_45">
    <path d="M 73.832727 241.517452 
L 90.065455 255.988906 
L 106.298182 240.494164 
L 122.530909 251.429889 
L 138.763636 247.255063 
L 154.996364 230.386813 
L 171.229091 242.187251 
L 187.461818 237.041728 
L 203.694545 215.399566 
L 219.927273 257.162198 
L 236.16 201.948422 
L 252.392727 181.203888 
L 268.625455 202.211798 
L 284.858182 180.449884 
L 301.090909 162.340725 
L 317.323636 222.768985 
L 333.556364 179.484972 
L 349.789091 174.738737 
L 366.021818 121.402649 
L 382.254545 134.249813 
L 398.487273 167.387789 
" clip-path="url(#p6d939e2289)" style="fill: none; stroke: #440154; stroke-opacity: 0.5; stroke-width: 1.5; stroke-linecap: square"/>
   </g>
   <g id="line2d_46">
    <path d="M 73.832727 272.870756 
L 90.065455 262.83514 
L 106.298182 276.077265 
L 122.530909 279.882428 
L 138.763636 261.059907 
L 154.996364 250.484566 
L 171.229091 208.826067 
L 187.461818 208.358045 
L 203.694545 212.492627 
L 219.927273 246.134769 
L 236.16 249.939853 
L 252.392727 182.011168 
L 268.625455 199.459405 
L 284.858182 169.708706 
L 301.090909 196.139029 
L 317.323636 167.919072 
L 333.556364 250.372105 
L 349.789091 217.917707 
L 366.021818 197.507616 
L 382.254545 216.171113 
L 398.487273 246.171259 
" clip-path="url(#p6d939e2289)" style="fill: none; stroke: #440154; stroke-opacity: 0.5; stroke-width: 1.5; stroke-linecap: square"/>
   </g>
   <g id="line2d_47">
    <path d="M 73.832727 259.28559 
L 90.065455 242.456575 
L 106.298182 258.615327 
L 122.530909 257.878399 
L 138.763636 231.131063 
L 154.996364 195.199651 
L 171.229091 206.408501 
L 187.461818 210.603306 
L 203.694545 172.368805 
L 219.927273 192.547702 
L 236.16 211.27138 
L 252.392727 167.047299 
L 268.625455 195.725758 
L 284.858182 209.600754 
L 301.090909 199.824078 
L 317.323636 179.107795 
L 333.556364 210.589051 
L 349.789091 170.206583 
L 366.021818 188.520751 
L 382.254545 220.28944 
L 398.487273 220.850803 
" clip-path="url(#p6d939e2289)" style="fill: none; stroke: #440154; stroke-opacity: 0.5; stroke-width: 1.5; stroke-linecap: square"/>
   </g>
   <g id="line2d_48">
    <path d="M 73.832727 254.979711 
L 90.065455 241.007045 
L 106.298182 235.426303 
L 122.530909 235.873567 
L 138.763636 239.149582 
L 154.996364 266.091415 
L 171.229091 199.220435 
L 187.461818 251.939479 
L 203.694545 187.514588 
L 219.927273 210.159132 
L 236.16 259.15948 
L 252.392727 187.184119 
L 268.625455 202.799701 
L 284.858182 225.937326 
L 301.090909 175.193395 
L 317.323636 231.78037 
L 333.556364 248.197833 
L 349.789091 223.940405 
L 366.021818 196.707841 
L 382.254545 197.914295 
L 398.487273 246.205504 
" clip-path="url(#p6d939e2289)" style="fill: none; stroke: #440154; stroke-opacity: 0.5; stroke-width: 1.5; stroke-linecap: square"/>
   </g>
   <g id="line2d_49">
    <path d="M 73.832727 250.391726 
L 90.065455 270.17541 
L 106.298182 258.990476 
L 122.530909 227.356755 
L 138.763636 204.537373 
L 154.996364 206.543035 
L 171.229091 208.868 
L 187.461818 231.120631 
L 203.694545 228.954817 
L 219.927273 210.898746 
L 236.16 173.269095 
L 252.392727 220.176701 
L 268.625455 183.28996 
L 284.858182 210.463824 
L 301.090909 161.979416 
L 317.323636 216.698827 
L 333.556364 185.510017 
L 349.789091 243.360061 
L 366.021818 164.35273 
L 382.254545 165.785525 
L 398.487273 207.467071 
" clip-path="url(#p6d939e2289)" style="fill: none; stroke: #440154; stroke-opacity: 0.5; stroke-width: 1.5; stroke-linecap: square"/>
   </g>
   <g id="line2d_50">
    <path d="M 73.832727 252.148118 
L 90.065455 249.433093 
L 106.298182 271.784826 
L 122.530909 244.470664 
L 138.763636 210.968899 
L 154.996364 248.581856 
L 171.229091 219.848979 
L 187.461818 214.819096 
L 203.694545 223.575766 
L 219.927273 235.516451 
L 236.16 206.71626 
L 252.392727 180.666877 
L 268.625455 182.074105 
L 284.858182 222.703817 
L 301.090909 183.258007 
L 317.323636 182.050421 
L 333.556364 158.95282 
L 349.789091 256.411771 
L 366.021818 156.95589 
L 382.254545 178.769136 
L 398.487273 229.190135 
" clip-path="url(#p6d939e2289)" style="fill: none; stroke: #440154; stroke-opacity: 0.5; stroke-width: 1.5; stroke-linecap: square"/>
   </g>
   <g id="line2d_51">
    <path d="M 73.832727 199.437023 
L 90.065455 186.177792 
L 106.298182 251.629912 
L 122.530909 232.815344 
L 138.763636 238.776923 
L 154.996364 244.99887 
L 171.229091 239.438417 
L 187.461818 234.775841 
L 203.694545 206.263059 
L 219.927273 224.053453 
L 236.16 203.277951 
L 252.392727 191.725334 
L 268.625455 232.126667 
L 284.858182 256.150768 
L 301.090909 242.164066 
L 317.323636 226.122127 
L 333.556364 213.117323 
L 349.789091 259.070562 
L 366.021818 207.514633 
L 382.254545 225.866912 
L 398.487273 235.804806 
" clip-path="url(#p6d939e2289)" style="fill: none; stroke: #440154; stroke-opacity: 0.5; stroke-width: 1.5; stroke-linecap: square"/>
   </g>
   <g id="line2d_52">
    <path d="M 73.832727 251.59597 
L 90.065455 227.320001 
L 106.298182 214.131875 
L 122.530909 204.209319 
L 138.763636 236.088447 
L 154.996364 204.741997 
L 171.229091 266.647177 
L 187.461818 241.733806 
L 203.694545 186.248146 
L 219.927273 246.871626 
L 236.16 189.08946 
L 252.392727 205.326603 
L 268.625455 217.380267 
L 284.858182 257.437369 
L 301.090909 240.915815 
L 317.323636 228.089385 
L 333.556364 205.630778 
L 349.789091 230.751045 
L 366.021818 213.75949 
L 382.254545 203.055575 
L 398.487273 222.827362 
" clip-path="url(#p6d939e2289)" style="fill: none; stroke: #440154; stroke-opacity: 0.5; stroke-width: 1.5; stroke-linecap: square"/>
   </g>
   <g id="line2d_53">
    <path d="M 73.832727 207.975703 
L 90.065455 189.389701 
L 106.298182 230.267051 
L 122.530909 182.091153 
L 138.763636 233.64453 
L 154.996364 204.143349 
L 171.229091 194.674056 
L 187.461818 207.853832 
L 203.694545 198.123268 
L 219.927273 213.930438 
L 236.16 190.097014 
L 252.392727 190.165244 
L 268.625455 189.112396 
L 284.858182 211.175858 
L 301.090909 239.123009 
L 317.323636 221.93165 
L 333.556364 219.170623 
L 349.789091 201.802922 
L 366.021818 179.048475 
L 382.254545 190.876666 
L 398.487273 187.999553 
" clip-path="url(#p6d939e2289)" style="fill: none; stroke: #440154; stroke-opacity: 0.5; stroke-width: 1.5; stroke-linecap: square"/>
   </g>
   <g id="line2d_54">
    <path d="M 73.832727 245.823429 
L 90.065455 211.174921 
L 106.298182 238.812327 
L 122.530909 223.417463 
L 138.763636 267.895652 
L 154.996364 274.265297 
L 171.229091 262.879294 
L 187.461818 279.977695 
L 203.694545 268.242551 
L 219.927273 240.987898 
L 236.16 244.533064 
L 252.392727 265.065648 
L 268.625455 265.889608 
L 284.858182 262.318826 
L 301.090909 277.879171 
L 317.323636 229.797648 
L 333.556364 221.816145 
L 349.789091 232.844953 
L 366.021818 215.933993 
L 382.254545 230.936204 
L 398.487273 225.882943 
" clip-path="url(#p6d939e2289)" style="fill: none; stroke: #440154; stroke-opacity: 0.5; stroke-width: 1.5; stroke-linecap: square"/>
   </g>
   <g id="line2d_55">
    <path d="M 73.832727 235.589273 
L 90.065455 246.23863 
L 106.298182 229.487383 
L 122.530909 262.006709 
L 138.763636 269.460999 
L 154.996364 256.918236 
L 171.229091 266.636413 
L 187.461818 278.608176 
L 203.694545 265.408764 
L 219.927273 230.371185 
L 236.16 263.541244 
L 252.392727 216.408641 
L 268.625455 259.349539 
L 284.858182 278.644894 
L 301.090909 268.840433 
L 317.323636 261.884764 
L 333.556364 253.329953 
L 349.789091 240.832315 
L 366.021818 239.391609 
L 382.254545 260.459184 
L 398.487273 262.583253 
" clip-path="url(#p6d939e2289)" style="fill: none; stroke: #440154; stroke-opacity: 0.5; stroke-width: 1.5; stroke-linecap: square"/>
   </g>
   <g id="line2d_56">
    <path d="M 73.832727 239.079722 
L 90.065455 235.949094 
L 106.298182 227.17986 
L 122.530909 235.90936 
L 138.763636 228.019694 
L 154.996364 216.891188 
L 171.229091 205.40792 
L 187.461818 232.926854 
L 203.694545 198.137433 
L 219.927273 215.990293 
L 236.16 236.581109 
L 252.392727 200.674554 
L 268.625455 221.478944 
L 284.858182 224.146544 
L 301.090909 211.965718 
L 317.323636 209.284688 
L 333.556364 217.685463 
L 349.789091 205.383864 
L 366.021818 226.304455 
L 382.254545 202.8644 
L 398.487273 176.20613 
" clip-path="url(#p6d939e2289)" style="fill: none; stroke: #440154; stroke-opacity: 0.5; stroke-width: 1.5; stroke-linecap: square"/>
   </g>
   <g id="line2d_57">
    <path d="M 73.832727 270.440668 
L 90.065455 251.6627 
L 106.298182 276.037087 
L 122.530909 289.934416 
L 138.763636 270.808835 
L 154.996364 287.122604 
L 171.229091 295.488 
L 187.461818 276.786097 
L 203.694545 276.222553 
L 219.927273 258.438511 
L 236.16 270.456123 
L 252.392727 280.638372 
L 268.625455 251.028225 
L 284.858182 267.5693 
L 301.090909 268.428132 
L 317.323636 264.117888 
L 333.556364 262.22553 
L 349.789091 261.247499 
L 366.021818 250.958786 
L 382.254545 264.413749 
L 398.487273 254.665476 
" clip-path="url(#p6d939e2289)" style="fill: none; stroke: #440154; stroke-opacity: 0.5; stroke-width: 1.5; stroke-linecap: square"/>
   </g>
   <g id="line2d_58">
    <path d="M 73.832727 229.903653 
L 90.065455 268.619246 
L 106.298182 227.467632 
L 122.530909 228.499502 
L 138.763636 215.551368 
L 154.996364 272.216062 
L 171.229091 262.860602 
L 187.461818 273.464332 
L 203.694545 264.287146 
L 219.927273 262.575969 
L 236.16 263.971333 
L 252.392727 269.139305 
L 268.625455 255.9378 
L 284.858182 270.6881 
L 301.090909 269.7789 
L 317.323636 265.094733 
L 333.556364 250.185503 
L 349.789091 260.298704 
L 366.021818 247.094512 
L 382.254545 264.874718 
L 398.487273 260.350586 
" clip-path="url(#p6d939e2289)" style="fill: none; stroke: #440154; stroke-opacity: 0.5; stroke-width: 1.5; stroke-linecap: square"/>
   </g>
   <g id="line2d_59">
    <path d="M 73.832727 244.640546 
L 90.065455 250.435263 
L 106.298182 262.873876 
L 122.530909 238.665027 
L 138.763636 259.873688 
L 154.996364 241.739819 
L 171.229091 212.974842 
L 187.461818 250.082052 
L 203.694545 230.873327 
L 219.927273 196.233109 
L 236.16 187.087805 
L 252.392727 186.353603 
L 268.625455 216.183601 
L 284.858182 210.585459 
L 301.090909 211.965687 
L 317.323636 167.963108 
L 333.556364 182.822026 
L 349.789091 154.092082 
L 366.021818 167.708187 
L 382.254545 197.444222 
L 398.487273 177.454767 
" clip-path="url(#p6d939e2289)" style="fill: none; stroke: #440154; stroke-opacity: 0.5; stroke-width: 1.5; stroke-linecap: square"/>
   </g>
   <g id="line2d_60">
    <path d="M 73.832727 250.535841 
L 90.065455 216.184916 
L 106.298182 258.160828 
L 122.530909 232.395087 
L 138.763636 243.750246 
L 154.996364 221.384578 
L 171.229091 214.532156 
L 187.461818 226.941993 
L 203.694545 248.501232 
L 219.927273 211.016702 
L 236.16 224.414678 
L 252.392727 222.07955 
L 268.625455 187.980142 
L 284.858182 222.704531 
L 301.090909 233.91479 
L 317.323636 218.142011 
L 333.556364 213.375828 
L 349.789091 190.696943 
L 366.021818 187.09051 
L 382.254545 203.960021 
L 398.487273 195.653433 
" clip-path="url(#p6d939e2289)" style="fill: none; stroke: #440154; stroke-opacity: 0.5; stroke-width: 1.5; stroke-linecap: square"/>
   </g>
   <g id="line2d_61">
    <path d="M 73.832727 182.692754 
L 90.065455 200.149495 
L 106.298182 202.809945 
L 122.530909 248.566138 
L 138.763636 223.010272 
L 154.996364 144.787668 
L 171.229091 179.833217 
L 187.461818 191.801371 
L 203.694545 208.647759 
L 219.927273 238.029359 
L 236.16 231.935112 
L 252.392727 222.608426 
L 268.625455 226.737656 
L 284.858182 228.628302 
L 301.090909 248.160161 
L 317.323636 231.003674 
L 333.556364 240.94874 
L 349.789091 240.901566 
L 366.021818 227.038222 
L 382.254545 181.701714 
L 398.487273 239.085057 
" clip-path="url(#p6d939e2289)" style="fill: none; stroke: #440154; stroke-opacity: 0.5; stroke-width: 1.5; stroke-linecap: square"/>
   </g>
   <g id="line2d_62">
    <path d="M 73.832727 204.14542 
L 90.065455 235.376996 
L 106.298182 241.349609 
L 122.530909 259.940881 
L 138.763636 274.173996 
L 154.996364 250.231216 
L 171.229091 273.599175 
L 187.461818 286.318833 
L 203.694545 270.925729 
L 219.927273 283.558199 
L 236.16 271.758218 
L 252.392727 273.999424 
L 268.625455 268.144768 
L 284.858182 265.78375 
L 301.090909 278.698223 
L 317.323636 263.264858 
L 333.556364 256.402015 
L 349.789091 256.695514 
L 366.021818 240.176636 
L 382.254545 260.276601 
L 398.487273 252.60478 
" clip-path="url(#p6d939e2289)" style="fill: none; stroke: #440154; stroke-opacity: 0.5; stroke-width: 1.5; stroke-linecap: square"/>
   </g>
   <g id="line2d_63">
    <path d="M 73.832727 249.627639 
L 90.065455 197.356858 
L 106.298182 218.762913 
L 122.530909 238.266651 
L 138.763636 272.852054 
L 154.996364 269.620535 
L 171.229091 272.294409 
L 187.461818 269.007335 
L 203.694545 253.009881 
L 219.927273 254.460757 
L 236.16 247.127257 
L 252.392727 246.198217 
L 268.625455 247.763033 
L 284.858182 247.560347 
L 301.090909 231.374891 
L 317.323636 260.214061 
L 333.556364 241.229659 
L 349.789091 257.324868 
L 366.021818 234.364081 
L 382.254545 241.097817 
L 398.487273 217.058818 
" clip-path="url(#p6d939e2289)" style="fill: none; stroke: #440154; stroke-opacity: 0.5; stroke-width: 1.5; stroke-linecap: square"/>
   </g>
   <g id="line2d_64">
    <path d="M 73.832727 219.456377 
L 90.065455 198.868744 
L 106.298182 215.444507 
L 122.530909 236.553872 
L 138.763636 210.135976 
L 154.996364 210.113313 
L 171.229091 241.529339 
L 187.461818 242.606441 
L 203.694545 240.891785 
L 219.927273 219.570497 
L 236.16 210.719488 
L 252.392727 207.828648 
L 268.625455 191.861929 
L 284.858182 198.618746 
L 301.090909 175.980337 
L 317.323636 169.884316 
L 333.556364 193.346462 
L 349.789091 201.536233 
L 366.021818 204.474934 
L 382.254545 216.948661 
L 398.487273 206.972907 
" clip-path="url(#p6d939e2289)" style="fill: none; stroke: #440154; stroke-opacity: 0.5; stroke-width: 1.5; stroke-linecap: square"/>
   </g>
   <g id="line2d_65">
    <path d="M 73.832727 266.361867 
L 90.065455 198.129781 
L 106.298182 254.469758 
L 122.530909 246.48026 
L 138.763636 251.101896 
L 154.996364 276.273404 
L 171.229091 261.63631 
L 187.461818 204.412988 
L 203.694545 260.275066 
L 219.927273 274.600781 
L 236.16 279.920239 
L 252.392727 271.809614 
L 268.625455 259.372508 
L 284.858182 249.227694 
L 301.090909 241.10165 
L 317.323636 213.723667 
L 333.556364 217.45698 
L 349.789091 222.448847 
L 366.021818 217.912599 
L 382.254545 228.175858 
L 398.487273 228.695357 
" clip-path="url(#p6d939e2289)" style="fill: none; stroke: #440154; stroke-opacity: 0.5; stroke-width: 1.5; stroke-linecap: square"/>
   </g>
   <g id="line2d_66">
    <path d="M 73.832727 260.524864 
L 90.065455 239.242748 
L 106.298182 278.375613 
L 122.530909 273.403643 
L 138.763636 271.320514 
L 154.996364 274.285202 
L 171.229091 265.564671 
L 187.461818 242.353115 
L 203.694545 268.053968 
L 219.927273 263.850232 
L 236.16 277.816416 
L 252.392727 256.924717 
L 268.625455 254.492603 
L 284.858182 262.33535 
L 301.090909 251.656641 
L 317.323636 220.196268 
L 333.556364 238.619214 
L 349.789091 250.691339 
L 366.021818 233.352855 
L 382.254545 218.66903 
L 398.487273 231.381684 
" clip-path="url(#p6d939e2289)" style="fill: none; stroke: #440154; stroke-opacity: 0.5; stroke-width: 1.5; stroke-linecap: square"/>
   </g>
   <g id="line2d_67">
    <path d="M 73.832727 230.171503 
L 90.065455 238.283219 
L 106.298182 221.332136 
L 122.530909 219.548443 
L 138.763636 219.315901 
L 154.996364 225.427332 
L 171.229091 230.465724 
L 187.461818 229.436541 
L 203.694545 245.393091 
L 219.927273 188.706758 
L 236.16 222.926804 
L 252.392727 214.052539 
L 268.625455 222.118815 
L 284.858182 237.770045 
L 301.090909 246.326956 
L 317.323636 215.054479 
L 333.556364 221.795682 
L 349.789091 206.046729 
L 366.021818 198.39384 
L 382.254545 233.099125 
L 398.487273 224.581581 
" clip-path="url(#p6d939e2289)" style="fill: none; stroke: #440154; stroke-opacity: 0.5; stroke-width: 1.5; stroke-linecap: square"/>
   </g>
   <g id="line2d_68">
    <path d="M 73.832727 203.621796 
L 90.065455 212.978524 
L 106.298182 225.433668 
L 122.530909 238.811999 
L 138.763636 254.458623 
L 154.996364 232.235829 
L 171.229091 218.293421 
L 187.461818 233.778726 
L 203.694545 244.56112 
L 219.927273 209.131649 
L 236.16 240.15178 
L 252.392727 212.058951 
L 268.625455 229.733174 
L 284.858182 196.64128 
L 301.090909 225.570478 
L 317.323636 202.270143 
L 333.556364 205.109898 
L 349.789091 228.394876 
L 366.021818 229.287405 
L 382.254545 208.705865 
L 398.487273 210.194059 
" clip-path="url(#p6d939e2289)" style="fill: none; stroke: #440154; stroke-opacity: 0.5; stroke-width: 1.5; stroke-linecap: square"/>
   </g>
   <g id="line2d_69">
    <path d="M 73.832727 204.658297 
L 90.065455 71.537709 
L 106.298182 53.568 
L 122.530909 92.150842 
L 138.763636 90.356188 
L 154.996364 222.106096 
L 171.229091 158.579799 
L 187.461818 177.90187 
L 203.694545 214.247484 
L 219.927273 205.912542 
L 236.16 197.172763 
L 252.392727 181.348246 
L 268.625455 221.951023 
L 284.858182 189.739474 
L 301.090909 199.639623 
L 317.323636 183.48409 
L 333.556364 185.718577 
L 349.789091 152.00118 
L 366.021818 154.18807 
L 382.254545 192.400517 
L 398.487273 165.590587 
" clip-path="url(#p6d939e2289)" style="fill: none; stroke: #440154; stroke-opacity: 0.5; stroke-width: 1.5; stroke-linecap: square"/>
   </g>
   <g id="line2d_70">
    <path d="M 73.832727 259.372094 
L 90.065455 249.070521 
L 106.298182 263.979752 
L 122.530909 283.357171 
L 138.763636 271.24037 
L 154.996364 249.010428 
L 171.229091 261.173661 
L 187.461818 271.744522 
L 203.694545 270.125871 
L 219.927273 258.447232 
L 236.16 274.736928 
L 252.392727 266.395329 
L 268.625455 273.474001 
L 284.858182 259.657343 
L 301.090909 265.107381 
L 317.323636 266.418535 
L 333.556364 269.158929 
L 349.789091 245.314362 
L 366.021818 269.374357 
L 382.254545 268.851779 
L 398.487273 254.692089 
" clip-path="url(#p6d939e2289)" style="fill: none; stroke: #440154; stroke-opacity: 0.5; stroke-width: 1.5; stroke-linecap: square"/>
   </g>
   <g id="line2d_71">
    <path d="M 73.832727 252.421013 
L 90.065455 260.381185 
L 106.298182 263.811792 
L 122.530909 275.337153 
L 138.763636 271.999655 
L 154.996364 285.27916 
L 171.229091 289.669558 
L 187.461818 278.353294 
L 203.694545 284.497655 
L 219.927273 282.056503 
L 236.16 276.359153 
L 252.392727 260.30974 
L 268.625455 279.716213 
L 284.858182 274.42862 
L 301.090909 264.631485 
L 317.323636 270.055809 
L 333.556364 276.464852 
L 349.789091 254.789896 
L 366.021818 274.949225 
L 382.254545 272.61152 
L 398.487273 275.451069 
" clip-path="url(#p6d939e2289)" style="fill: none; stroke: #440154; stroke-opacity: 0.5; stroke-width: 1.5; stroke-linecap: square"/>
   </g>
   <g id="line2d_72">
    <path d="M 73.832727 188.070777 
L 90.065455 245.443828 
L 106.298182 229.30962 
L 122.530909 238.170688 
L 138.763636 251.529907 
L 154.996364 233.880992 
L 171.229091 211.518629 
L 187.461818 246.841671 
L 203.694545 224.939052 
L 219.927273 205.226583 
L 236.16 219.863704 
L 252.392727 221.347729 
L 268.625455 233.391436 
L 284.858182 222.413361 
L 301.090909 234.99255 
L 317.323636 222.687327 
L 333.556364 236.52531 
L 349.789091 219.373854 
L 366.021818 227.675304 
L 382.254545 224.549702 
L 398.487273 211.414216 
" clip-path="url(#p6d939e2289)" style="fill: none; stroke: #440154; stroke-opacity: 0.5; stroke-width: 1.5; stroke-linecap: square"/>
   </g>
   <g id="line2d_73">
    <path d="M 73.832727 284.100502 
L 90.065455 288.987602 
L 106.298182 268.571902 
L 122.530909 255.657964 
L 138.763636 293.272851 
L 154.996364 277.028621 
L 171.229091 280.338032 
L 187.461818 276.125276 
L 203.694545 289.044519 
L 219.927273 269.730368 
L 236.16 280.984415 
L 252.392727 284.906112 
L 268.625455 281.796829 
L 284.858182 289.860635 
L 301.090909 277.291374 
L 317.323636 257.851262 
L 333.556364 258.307785 
L 349.789091 281.417496 
L 366.021818 254.043654 
L 382.254545 279.602345 
L 398.487273 247.627394 
" clip-path="url(#p6d939e2289)" style="fill: none; stroke: #440154; stroke-opacity: 0.5; stroke-width: 1.5; stroke-linecap: square"/>
   </g>
   <g id="line2d_74">
    <path d="M 73.832727 248.315847 
L 90.065455 254.691603 
L 106.298182 258.405625 
L 122.530909 282.118574 
L 138.763636 283.960872 
L 154.996364 265.359396 
L 171.229091 269.996955 
L 187.461818 257.772607 
L 203.694545 265.971948 
L 219.927273 259.987988 
L 236.16 246.272989 
L 252.392727 265.119247 
L 268.625455 261.514831 
L 284.858182 251.442769 
L 301.090909 273.005641 
L 317.323636 261.333535 
L 333.556364 244.353605 
L 349.789091 271.323059 
L 366.021818 258.149327 
L 382.254545 237.136213 
L 398.487273 240.618182 
" clip-path="url(#p6d939e2289)" style="fill: none; stroke: #440154; stroke-opacity: 0.5; stroke-width: 1.5; stroke-linecap: square"/>
   </g>
   <g id="line2d_75">
    <path d="M 73.832727 241.150772 
L 90.065455 228.987146 
L 106.298182 239.615602 
L 122.530909 224.80157 
L 138.763636 245.47507 
L 154.996364 210.990285 
L 171.229091 223.787382 
L 187.461818 183.418512 
L 203.694545 187.066165 
L 219.927273 208.359032 
L 236.16 193.812829 
L 252.392727 227.436235 
L 268.625455 199.117346 
L 284.858182 177.587193 
L 301.090909 201.434704 
L 317.323636 175.189468 
L 333.556364 170.438327 
L 349.789091 203.296501 
L 366.021818 182.279813 
L 382.254545 186.066432 
L 398.487273 168.056236 
" clip-path="url(#p6d939e2289)" style="fill: none; stroke: #440154; stroke-opacity: 0.5; stroke-width: 1.5; stroke-linecap: square"/>
   </g>
   <g id="line2d_76">
    <path d="M 73.832727 246.713069 
L 90.065455 239.852685 
L 106.298182 249.782182 
L 122.530909 242.831799 
L 138.763636 214.731354 
L 154.996364 240.155271 
L 171.229091 228.179446 
L 187.461818 227.258102 
L 203.694545 221.101982 
L 219.927273 228.319021 
L 236.16 189.45221 
L 252.392727 202.113892 
L 268.625455 205.02679 
L 284.858182 210.434092 
L 301.090909 180.737858 
L 317.323636 189.581053 
L 333.556364 160.157812 
L 349.789091 200.049422 
L 366.021818 169.598159 
L 382.254545 164.017123 
L 398.487273 190.865837 
" clip-path="url(#p6d939e2289)" style="fill: none; stroke: #440154; stroke-opacity: 0.5; stroke-width: 1.5; stroke-linecap: square"/>
   </g>
   <g id="line2d_77">
    <path d="M 73.832727 231.63204 
L 90.065455 233.330409 
L 106.298182 229.194322 
L 122.530909 180.757064 
L 138.763636 215.366413 
L 154.996364 210.05439 
L 171.229091 220.816155 
L 187.461818 215.984778 
L 203.694545 226.399438 
L 219.927273 241.494348 
L 236.16 220.875669 
L 252.392727 189.833827 
L 268.625455 209.604388 
L 284.858182 198.551934 
L 301.090909 192.397891 
L 317.323636 184.618132 
L 333.556364 169.11382 
L 349.789091 193.673959 
L 366.021818 161.43558 
L 382.254545 174.798387 
L 398.487273 206.487838 
" clip-path="url(#p6d939e2289)" style="fill: none; stroke: #440154; stroke-opacity: 0.5; stroke-width: 1.5; stroke-linecap: square"/>
   </g>
   <g id="line2d_78">
    <path d="M 73.832727 276.207585 
L 90.065455 276.554348 
L 106.298182 230.982744 
L 122.530909 197.506371 
L 138.763636 252.521448 
L 154.996364 242.327862 
L 171.229091 213.342108 
L 187.461818 241.710882 
L 203.694545 279.323535 
L 219.927273 266.810779 
L 236.16 282.78233 
L 252.392727 269.464084 
L 268.625455 280.006444 
L 284.858182 273.954662 
L 301.090909 270.375979 
L 317.323636 232.011916 
L 333.556364 240.046911 
L 349.789091 234.536995 
L 366.021818 241.610583 
L 382.254545 254.796971 
L 398.487273 232.365197 
" clip-path="url(#p6d939e2289)" style="fill: none; stroke: #440154; stroke-opacity: 0.5; stroke-width: 1.5; stroke-linecap: square"/>
   </g>
   <g id="line2d_79">
    <path d="M 73.832727 235.146524 
L 90.065455 271.460662 
L 106.298182 271.041951 
L 122.530909 266.304948 
L 138.763636 273.583093 
L 154.996364 272.638998 
L 171.229091 273.72006 
L 187.461818 271.570887 
L 203.694545 281.299732 
L 219.927273 270.766672 
L 236.16 250.770748 
L 252.392727 277.430375 
L 268.625455 274.564024 
L 284.858182 268.517324 
L 301.090909 273.539096 
L 317.323636 244.096716 
L 333.556364 234.599968 
L 349.789091 250.428794 
L 366.021818 229.479473 
L 382.254545 218.873283 
L 398.487273 235.742948 
" clip-path="url(#p6d939e2289)" style="fill: none; stroke: #440154; stroke-opacity: 0.5; stroke-width: 1.5; stroke-linecap: square"/>
   </g>
   <g id="line2d_80">
    <path d="M 73.832727 210.657886 
L 90.065455 215.379655 
L 106.298182 232.644957 
L 122.530909 233.970182 
L 138.763636 184.118817 
L 154.996364 171.104336 
L 171.229091 181.134763 
L 187.461818 190.797119 
L 203.694545 223.772492 
L 219.927273 204.989174 
L 236.16 187.624661 
L 252.392727 204.339292 
L 268.625455 200.792746 
L 284.858182 201.761505 
L 301.090909 198.887961 
L 317.323636 166.187429 
L 333.556364 188.310598 
L 349.789091 199.396724 
L 366.021818 185.896761 
L 382.254545 176.380118 
L 398.487273 172.102429 
" clip-path="url(#p6d939e2289)" style="fill: none; stroke: #440154; stroke-opacity: 0.5; stroke-width: 1.5; stroke-linecap: square"/>
   </g>
   <g id="line2d_81">
    <path d="M 73.832727 270.557906 
L 90.065455 239.376844 
L 106.298182 259.518586 
L 122.530909 258.222201 
L 138.763636 249.514216 
L 154.996364 236.772728 
L 171.229091 260.761935 
L 187.461818 244.17305 
L 203.694545 245.443384 
L 219.927273 255.27802 
L 236.16 259.073605 
L 252.392727 270.139227 
L 268.625455 259.968465 
L 284.858182 234.080393 
L 301.090909 241.041099 
L 317.323636 251.800327 
L 333.556364 254.344052 
L 349.789091 238.915054 
L 366.021818 238.542478 
L 382.254545 242.319865 
L 398.487273 236.269466 
" clip-path="url(#p6d939e2289)" style="fill: none; stroke: #440154; stroke-opacity: 0.5; stroke-width: 1.5; stroke-linecap: square"/>
   </g>
   <g id="line2d_82">
    <path d="M 73.832727 265.24196 
L 90.065455 279.021275 
L 106.298182 277.126895 
L 122.530909 284.757162 
L 138.763636 262.341252 
L 154.996364 274.380837 
L 171.229091 275.704061 
L 187.461818 256.40203 
L 203.694545 260.230116 
L 219.927273 268.112198 
L 236.16 267.558952 
L 252.392727 290.192956 
L 268.625455 269.051548 
L 284.858182 222.903355 
L 301.090909 252.515481 
L 317.323636 217.81042 
L 333.556364 252.959962 
L 349.789091 222.909586 
L 366.021818 222.099585 
L 382.254545 243.159575 
L 398.487273 221.007231 
" clip-path="url(#p6d939e2289)" style="fill: none; stroke: #440154; stroke-opacity: 0.5; stroke-width: 1.5; stroke-linecap: square"/>
   </g>
   <g id="line2d_83">
    <path d="M 73.832727 221.729537 
L 90.065455 241.031716 
L 106.298182 236.329721 
L 122.530909 252.813276 
L 138.763636 225.17314 
L 154.996364 222.645799 
L 171.229091 215.452695 
L 187.461818 254.443224 
L 203.694545 211.349871 
L 219.927273 217.081572 
L 236.16 249.282575 
L 252.392727 240.879788 
L 268.625455 208.872022 
L 284.858182 224.657215 
L 301.090909 183.515623 
L 317.323636 229.855059 
L 333.556364 212.30556 
L 349.789091 199.362583 
L 366.021818 185.828177 
L 382.254545 182.664409 
L 398.487273 234.548664 
" clip-path="url(#p6d939e2289)" style="fill: none; stroke: #440154; stroke-opacity: 0.5; stroke-width: 1.5; stroke-linecap: square"/>
   </g>
   <g id="line2d_84">
    <path d="M 73.832727 151.886363 
L 90.065455 247.602375 
L 106.298182 228.902627 
L 122.530909 209.416184 
L 138.763636 248.36084 
L 154.996364 245.155743 
L 171.229091 234.29194 
L 187.461818 236.669934 
L 203.694545 247.763326 
L 219.927273 250.685802 
L 236.16 233.622086 
L 252.392727 240.021248 
L 268.625455 239.17874 
L 284.858182 228.983006 
L 301.090909 219.732162 
L 317.323636 207.788234 
L 333.556364 227.527348 
L 349.789091 224.310009 
L 366.021818 219.215322 
L 382.254545 221.564723 
L 398.487273 218.484423 
" clip-path="url(#p6d939e2289)" style="fill: none; stroke: #440154; stroke-opacity: 0.5; stroke-width: 1.5; stroke-linecap: square"/>
   </g>
   <g id="line2d_85">
    <path d="M 73.832727 185.575437 
L 90.065455 149.87542 
L 106.298182 172.483909 
L 122.530909 182.227555 
L 138.763636 191.090829 
L 154.996364 179.787333 
L 171.229091 160.32928 
L 187.461818 202.560388 
L 203.694545 212.240834 
L 219.927273 230.431946 
L 236.16 184.096191 
L 252.392727 219.673764 
L 268.625455 229.8422 
L 284.858182 190.411986 
L 301.090909 184.31184 
L 317.323636 188.402233 
L 333.556364 191.247052 
L 349.789091 195.332249 
L 366.021818 173.752465 
L 382.254545 200.077573 
L 398.487273 177.462999 
" clip-path="url(#p6d939e2289)" style="fill: none; stroke: #440154; stroke-opacity: 0.5; stroke-width: 1.5; stroke-linecap: square"/>
   </g>
   <g id="line2d_86">
    <path d="M 73.832727 274.975625 
L 90.065455 274.292879 
L 106.298182 274.014114 
L 122.530909 275.682376 
L 138.763636 272.644223 
L 154.996364 267.136352 
L 171.229091 267.824405 
L 187.461818 266.668048 
L 203.694545 267.879402 
L 219.927273 263.569963 
L 236.16 282.287779 
L 252.392727 254.073899 
L 268.625455 257.101392 
L 284.858182 258.267467 
L 301.090909 270.694369 
L 317.323636 247.625155 
L 333.556364 245.694369 
L 349.789091 248.071968 
L 366.021818 266.790311 
L 382.254545 247.064404 
L 398.487273 259.737907 
" clip-path="url(#p6d939e2289)" style="fill: none; stroke: #440154; stroke-opacity: 0.5; stroke-width: 1.5; stroke-linecap: square"/>
   </g>
   <g id="line2d_87">
    <path d="M 73.832727 274.251821 
L 90.065455 276.138506 
L 106.298182 272.464137 
L 122.530909 272.118404 
L 138.763636 271.85739 
L 154.996364 253.764121 
L 171.229091 263.297291 
L 187.461818 270.192429 
L 203.694545 280.854661 
L 219.927273 279.586243 
L 236.16 272.181352 
L 252.392727 274.975404 
L 268.625455 266.320133 
L 284.858182 271.386105 
L 301.090909 283.179719 
L 317.323636 261.855836 
L 333.556364 263.540698 
L 349.789091 260.863265 
L 366.021818 272.791134 
L 382.254545 266.695736 
L 398.487273 258.334353 
" clip-path="url(#p6d939e2289)" style="fill: none; stroke: #440154; stroke-opacity: 0.5; stroke-width: 1.5; stroke-linecap: square"/>
   </g>
   <g id="line2d_88">
    <path d="M 73.832727 242.134882 
L 90.065455 237.85374 
L 106.298182 223.844667 
L 122.530909 209.080822 
L 138.763636 210.777503 
L 154.996364 216.416118 
L 171.229091 212.03182 
L 187.461818 203.43131 
L 203.694545 207.259992 
L 219.927273 213.288915 
L 236.16 209.525453 
L 252.392727 221.248761 
L 268.625455 222.990239 
L 284.858182 221.956474 
L 301.090909 214.779277 
L 317.323636 193.660391 
L 333.556364 198.720487 
L 349.789091 204.146396 
L 366.021818 217.384148 
L 382.254545 190.964825 
L 398.487273 202.272987 
" clip-path="url(#p6d939e2289)" style="fill: none; stroke: #440154; stroke-opacity: 0.5; stroke-width: 1.5; stroke-linecap: square"/>
   </g>
   <g id="line2d_89">
    <path d="M 73.832727 262.289539 
L 90.065455 269.848728 
L 106.298182 277.527414 
L 122.530909 269.400148 
L 138.763636 289.24619 
L 154.996364 271.768627 
L 171.229091 286.861389 
L 187.461818 279.643953 
L 203.694545 288.891295 
L 219.927273 274.430557 
L 236.16 275.694864 
L 252.392727 275.347657 
L 268.625455 272.600896 
L 284.858182 275.693467 
L 301.090909 278.741798 
L 317.323636 264.238676 
L 333.556364 272.186849 
L 349.789091 264.088221 
L 366.021818 288.986744 
L 382.254545 291.388755 
L 398.487273 265.930121 
" clip-path="url(#p6d939e2289)" style="fill: none; stroke: #440154; stroke-opacity: 0.5; stroke-width: 1.5; stroke-linecap: square"/>
   </g>
   <g id="line2d_90">
    <path d="M 73.832727 258.989649 
L 90.065455 241.430953 
L 106.298182 246.534144 
L 122.530909 220.299576 
L 138.763636 269.119867 
L 154.996364 290.520242 
L 171.229091 286.046305 
L 187.461818 279.228546 
L 203.694545 283.212908 
L 219.927273 277.466509 
L 236.16 288.459104 
L 252.392727 254.363759 
L 268.625455 272.292689 
L 284.858182 257.188846 
L 301.090909 271.509632 
L 317.323636 249.758103 
L 333.556364 261.976537 
L 349.789091 258.221117 
L 366.021818 265.666486 
L 382.254545 278.616905 
L 398.487273 254.204357 
" clip-path="url(#p6d939e2289)" style="fill: none; stroke: #440154; stroke-opacity: 0.5; stroke-width: 1.5; stroke-linecap: square"/>
   </g>
   <g id="line2d_91">
    <path d="M 73.832727 240.58099 
L 90.065455 224.535935 
L 106.298182 234.619362 
L 122.530909 228.894968 
L 138.763636 216.187602 
L 154.996364 227.639105 
L 171.229091 238.190574 
L 187.461818 234.035921 
L 203.694545 224.753365 
L 219.927273 223.590135 
L 236.16 190.253972 
L 252.392727 192.25176 
L 268.625455 223.434094 
L 284.858182 213.69954 
L 301.090909 237.84697 
L 317.323636 200.543032 
L 333.556364 199.152829 
L 349.789091 220.697115 
L 366.021818 199.919601 
L 382.254545 202.371794 
L 398.487273 164.579276 
" clip-path="url(#p6d939e2289)" style="fill: none; stroke: #440154; stroke-opacity: 0.5; stroke-width: 1.5; stroke-linecap: square"/>
   </g>
   <g id="line2d_92">
    <path d="M 73.832727 230.309762 
L 90.065455 213.083732 
L 106.298182 209.143989 
L 122.530909 185.180493 
L 138.763636 197.447545 
L 154.996364 217.752648 
L 171.229091 195.634356 
L 187.461818 207.82975 
L 203.694545 208.157726 
L 219.927273 235.739155 
L 236.16 225.697992 
L 252.392727 212.630365 
L 268.625455 216.095103 
L 284.858182 206.736276 
L 301.090909 231.262246 
L 317.323636 233.96083 
L 333.556364 228.747536 
L 349.789091 232.738834 
L 366.021818 220.062226 
L 382.254545 229.103424 
L 398.487273 225.468475 
" clip-path="url(#p6d939e2289)" style="fill: none; stroke: #440154; stroke-opacity: 0.5; stroke-width: 1.5; stroke-linecap: square"/>
   </g>
   <g id="line2d_93">
    <path d="M 73.832727 195.656675 
L 90.065455 195.318051 
L 106.298182 218.11525 
L 122.530909 256.835882 
L 138.763636 204.194755 
L 154.996364 177.362101 
L 171.229091 188.614445 
L 187.461818 219.675318 
L 203.694545 244.272255 
L 219.927273 200.432987 
L 236.16 214.836902 
L 252.392727 207.978921 
L 268.625455 215.981299 
L 284.858182 216.149627 
L 301.090909 169.118433 
L 317.323636 177.406503 
L 333.556364 193.373802 
L 349.789091 206.080807 
L 366.021818 212.255528 
L 382.254545 226.459992 
L 398.487273 187.146522 
" clip-path="url(#p6d939e2289)" style="fill: none; stroke: #440154; stroke-opacity: 0.5; stroke-width: 1.5; stroke-linecap: square"/>
   </g>
   <g id="line2d_94">
    <path d="M 73.832727 239.391463 
L 90.065455 272.496881 
L 106.298182 270.736259 
L 122.530909 289.385472 
L 138.763636 279.588423 
L 154.996364 272.222047 
L 171.229091 288.479903 
L 187.461818 275.275349 
L 203.694545 273.844285 
L 219.927273 231.21979 
L 236.16 256.283828 
L 252.392727 253.424138 
L 268.625455 236.065054 
L 284.858182 277.844292 
L 301.090909 250.434503 
L 317.323636 243.676276 
L 333.556364 239.172844 
L 349.789091 251.455112 
L 366.021818 259.590005 
L 382.254545 236.203555 
L 398.487273 245.29198 
" clip-path="url(#p6d939e2289)" style="fill: none; stroke: #440154; stroke-opacity: 0.5; stroke-width: 1.5; stroke-linecap: square"/>
   </g>
   <g id="line2d_95">
    <path d="M 73.832727 253.796487 
L 90.065455 280.452163 
L 106.298182 274.027482 
L 122.530909 267.748049 
L 138.763636 265.348632 
L 154.996364 275.697633 
L 171.229091 257.577349 
L 187.461818 273.402673 
L 203.694545 261.586887 
L 219.927273 256.019926 
L 236.16 243.865198 
L 252.392727 233.350463 
L 268.625455 231.088406 
L 284.858182 245.3646 
L 301.090909 227.69593 
L 317.323636 219.984742 
L 333.556364 215.747836 
L 349.789091 240.943763 
L 366.021818 212.044604 
L 382.254545 211.968261 
L 398.487273 227.011631 
" clip-path="url(#p6d939e2289)" style="fill: none; stroke: #440154; stroke-opacity: 0.5; stroke-width: 1.5; stroke-linecap: square"/>
   </g>
   <g id="line2d_96">
    <path d="M 73.832727 231.141397 
L 90.065455 212.165743 
L 106.298182 227.702924 
L 122.530909 205.117542 
L 138.763636 218.655352 
L 154.996364 214.62125 
L 171.229091 180.390732 
L 187.461818 201.56483 
L 203.694545 186.548003 
L 219.927273 196.136553 
L 236.16 207.111965 
L 252.392727 206.488788 
L 268.625455 189.934559 
L 284.858182 199.312117 
L 301.090909 188.112592 
L 317.323636 162.352067 
L 333.556364 175.362519 
L 349.789091 174.220368 
L 366.021818 180.099481 
L 382.254545 172.281947 
L 398.487273 159.823241 
" clip-path="url(#p6d939e2289)" style="fill: none; stroke: #440154; stroke-opacity: 0.5; stroke-width: 1.5; stroke-linecap: square"/>
   </g>
   <g id="line2d_97">
    <path d="M 73.832727 286.301983 
L 90.065455 275.211404 
L 106.298182 267.000869 
L 122.530909 268.80953 
L 138.763636 277.720239 
L 154.996364 257.773779 
L 171.229091 233.716009 
L 187.461818 228.752357 
L 203.694545 252.369989 
L 219.927273 247.216027 
L 236.16 256.030476 
L 252.392727 183.139088 
L 268.625455 247.725214 
L 284.858182 241.192636 
L 301.090909 238.5121 
L 317.323636 258.530403 
L 333.556364 223.621364 
L 349.789091 235.169232 
L 366.021818 236.514398 
L 382.254545 247.426373 
L 398.487273 234.726772 
" clip-path="url(#p6d939e2289)" style="fill: none; stroke: #440154; stroke-opacity: 0.5; stroke-width: 1.5; stroke-linecap: square"/>
   </g>
   <g id="line2d_98">
    <path d="M 73.832727 260.335004 
L 90.065455 274.676257 
L 106.298182 268.791953 
L 122.530909 266.034103 
L 138.763636 265.834399 
L 154.996364 262.924375 
L 171.229091 236.662646 
L 187.461818 243.589923 
L 203.694545 254.2477 
L 219.927273 234.386564 
L 236.16 263.574408 
L 252.392727 222.116932 
L 268.625455 272.402302 
L 284.858182 257.907078 
L 301.090909 269.523875 
L 317.323636 272.7572 
L 333.556364 221.777789 
L 349.789091 259.336608 
L 366.021818 251.713642 
L 382.254545 255.964277 
L 398.487273 252.885736 
" clip-path="url(#p6d939e2289)" style="fill: none; stroke: #440154; stroke-opacity: 0.5; stroke-width: 1.5; stroke-linecap: square"/>
   </g>
   <g id="line2d_99">
    <path d="M 73.832727 254.216811 
L 90.065455 222.338089 
L 106.298182 232.094306 
L 122.530909 237.798365 
L 138.763636 225.493985 
L 154.996364 215.010376 
L 171.229091 188.014724 
L 187.461818 207.565893 
L 203.694545 177.604426 
L 219.927273 216.884025 
L 236.16 223.597633 
L 252.392727 206.124748 
L 268.625455 245.80385 
L 284.858182 216.714785 
L 301.090909 223.294974 
L 317.323636 234.108371 
L 333.556364 201.027524 
L 349.789091 200.599801 
L 366.021818 212.351839 
L 382.254545 202.796592 
L 398.487273 230.043421 
" clip-path="url(#p6d939e2289)" style="fill: none; stroke: #440154; stroke-opacity: 0.5; stroke-width: 1.5; stroke-linecap: square"/>
   </g>
   <g id="line2d_100">
    <path d="M 73.832727 241.812844 
L 90.065455 238.858223 
L 106.298182 249.923899 
L 122.530909 238.757441 
L 138.763636 238.367354 
L 154.996364 216.609027 
L 171.229091 216.978263 
L 187.461818 257.133433 
L 203.694545 211.386567 
L 219.927273 205.902169 
L 236.16 156.529397 
L 252.392727 203.792803 
L 268.625455 196.833572 
L 284.858182 185.226501 
L 301.090909 164.968268 
L 317.323636 187.181591 
L 333.556364 167.4662 
L 349.789091 169.548923 
L 366.021818 177.864759 
L 382.254545 176.605293 
L 398.487273 165.177723 
" clip-path="url(#p6d939e2289)" style="fill: none; stroke: #440154; stroke-opacity: 0.5; stroke-width: 1.5; stroke-linecap: square"/>
   </g>
   <g id="line2d_101">
    <path d="M 73.832727 186.850499 
L 90.065455 215.230563 
L 106.298182 208.331912 
L 122.530909 240.148389 
L 138.763636 216.925496 
L 154.996364 227.281991 
L 171.229091 214.412256 
L 187.461818 196.609358 
L 203.694545 197.022259 
L 219.927273 164.915921 
L 236.16 146.020484 
L 252.392727 207.370685 
L 268.625455 175.254765 
L 284.858182 162.69956 
L 301.090909 161.342417 
L 317.323636 187.404093 
L 333.556364 160.669869 
L 349.789091 162.182554 
L 366.021818 141.123414 
L 382.254545 147.224635 
L 398.487273 181.422346 
" clip-path="url(#p6d939e2289)" style="fill: none; stroke: #440154; stroke-opacity: 0.5; stroke-width: 1.5; stroke-linecap: square"/>
   </g>
   <g id="patch_3">
    <path d="M 57.6 307.584 
L 57.6 41.472 
" style="fill: none; stroke: #000000; stroke-width: 3; stroke-linejoin: miter; stroke-linecap: square"/>
   </g>
   <g id="patch_4">
    <path d="M 414.72 307.584 
L 414.72 41.472 
" style="fill: none; stroke: #000000; stroke-width: 3; stroke-linejoin: miter; stroke-linecap: square"/>
   </g>
   <g id="patch_5">
    <path d="M 57.6 307.584 
L 414.72 307.584 
" style="fill: none; stroke: #000000; stroke-width: 3; stroke-linejoin: miter; stroke-linecap: square"/>
   </g>
   <g id="patch_6">
    <path d="M 57.6 41.472 
L 414.72 41.472 
" style="fill: none; stroke: #000000; stroke-width: 3; stroke-linejoin: miter; stroke-linecap: square"/>
   </g>
   <g id="text_12">
    <!-- Atom Type H (n=90, mean Q=10.28) -->
    <g transform="translate(33.227187 35.472) scale(0.22 -0.22)">
     <defs>
      <path id="DejaVuSans-41" d="M 2188 4044 
L 1331 1722 
L 3047 1722 
L 2188 4044 
z
M 1831 4666 
L 2547 4666 
L 4325 0 
L 3669 0 
L 3244 1197 
L 1141 1197 
L 716 0 
L 50 0 
L 1831 4666 
z
" transform="scale(0.015625)"/>
      <path id="DejaVuSans-74" d="M 1172 4494 
L 1172 3500 
L 2356 3500 
L 2356 3053 
L 1172 3053 
L 1172 1153 
Q 1172 725 1289 603 
Q 1406 481 1766 481 
L 2356 481 
L 2356 0 
L 1766 0 
Q 1100 0 847 248 
Q 594 497 594 1153 
L 594 3053 
L 172 3053 
L 172 3500 
L 594 3500 
L 594 4494 
L 1172 4494 
z
" transform="scale(0.015625)"/>
      <path id="DejaVuSans-6f" d="M 1959 3097 
Q 1497 3097 1228 2736 
Q 959 2375 959 1747 
Q 959 1119 1226 758 
Q 1494 397 1959 397 
Q 2419 397 2687 759 
Q 2956 1122 2956 1747 
Q 2956 2369 2687 2733 
Q 2419 3097 1959 3097 
z
M 1959 3584 
Q 2709 3584 3137 3096 
Q 3566 2609 3566 1747 
Q 3566 888 3137 398 
Q 2709 -91 1959 -91 
Q 1206 -91 779 398 
Q 353 888 353 1747 
Q 353 2609 779 3096 
Q 1206 3584 1959 3584 
z
" transform="scale(0.015625)"/>
      <path id="DejaVuSans-6d" d="M 3328 2828 
Q 3544 3216 3844 3400 
Q 4144 3584 4550 3584 
Q 5097 3584 5394 3201 
Q 5691 2819 5691 2113 
L 5691 0 
L 5113 0 
L 5113 2094 
Q 5113 2597 4934 2840 
Q 4756 3084 4391 3084 
Q 3944 3084 3684 2787 
Q 3425 2491 3425 1978 
L 3425 0 
L 2847 0 
L 2847 2094 
Q 2847 2600 2669 2842 
Q 2491 3084 2119 3084 
Q 1678 3084 1418 2786 
Q 1159 2488 1159 1978 
L 1159 0 
L 581 0 
L 581 3500 
L 1159 3500 
L 1159 2956 
Q 1356 3278 1631 3431 
Q 1906 3584 2284 3584 
Q 2666 3584 2933 3390 
Q 3200 3197 3328 2828 
z
" transform="scale(0.015625)"/>
      <path id="DejaVuSans-20" transform="scale(0.015625)"/>
      <path id="DejaVuSans-54" d="M -19 4666 
L 3928 4666 
L 3928 4134 
L 2272 4134 
L 2272 0 
L 1638 0 
L 1638 4134 
L -19 4134 
L -19 4666 
z
" transform="scale(0.015625)"/>
      <path id="DejaVuSans-79" d="M 2059 -325 
Q 1816 -950 1584 -1140 
Q 1353 -1331 966 -1331 
L 506 -1331 
L 506 -850 
L 844 -850 
Q 1081 -850 1212 -737 
Q 1344 -625 1503 -206 
L 1606 56 
L 191 3500 
L 800 3500 
L 1894 763 
L 2988 3500 
L 3597 3500 
L 2059 -325 
z
" transform="scale(0.015625)"/>
      <path id="DejaVuSans-70" d="M 1159 525 
L 1159 -1331 
L 581 -1331 
L 581 3500 
L 1159 3500 
L 1159 2969 
Q 1341 3281 1617 3432 
Q 1894 3584 2278 3584 
Q 2916 3584 3314 3078 
Q 3713 2572 3713 1747 
Q 3713 922 3314 415 
Q 2916 -91 2278 -91 
Q 1894 -91 1617 61 
Q 1341 213 1159 525 
z
M 3116 1747 
Q 3116 2381 2855 2742 
Q 2594 3103 2138 3103 
Q 1681 3103 1420 2742 
Q 1159 2381 1159 1747 
Q 1159 1113 1420 752 
Q 1681 391 2138 391 
Q 2594 391 2855 752 
Q 3116 1113 3116 1747 
z
" transform="scale(0.015625)"/>
      <path id="DejaVuSans-65" d="M 3597 1894 
L 3597 1613 
L 953 1613 
Q 991 1019 1311 708 
Q 1631 397 2203 397 
Q 2534 397 2845 478 
Q 3156 559 3463 722 
L 3463 178 
Q 3153 47 2828 -22 
Q 2503 -91 2169 -91 
Q 1331 -91 842 396 
Q 353 884 353 1716 
Q 353 2575 817 3079 
Q 1281 3584 2069 3584 
Q 2775 3584 3186 3129 
Q 3597 2675 3597 1894 
z
M 3022 2063 
Q 3016 2534 2758 2815 
Q 2500 3097 2075 3097 
Q 1594 3097 1305 2825 
Q 1016 2553 972 2059 
L 3022 2063 
z
" transform="scale(0.015625)"/>
      <path id="DejaVuSans-48" d="M 628 4666 
L 1259 4666 
L 1259 2753 
L 3553 2753 
L 3553 4666 
L 4184 4666 
L 4184 0 
L 3553 0 
L 3553 2222 
L 1259 2222 
L 1259 0 
L 628 0 
L 628 4666 
z
" transform="scale(0.015625)"/>
      <path id="DejaVuSans-28" d="M 1984 4856 
Q 1566 4138 1362 3434 
Q 1159 2731 1159 2009 
Q 1159 1288 1364 580 
Q 1569 -128 1984 -844 
L 1484 -844 
Q 1016 -109 783 600 
Q 550 1309 550 2009 
Q 550 2706 781 3412 
Q 1013 4119 1484 4856 
L 1984 4856 
z
" transform="scale(0.015625)"/>
      <path id="DejaVuSans-6e" d="M 3513 2113 
L 3513 0 
L 2938 0 
L 2938 2094 
Q 2938 2591 2744 2837 
Q 2550 3084 2163 3084 
Q 1697 3084 1428 2787 
Q 1159 2491 1159 1978 
L 1159 0 
L 581 0 
L 581 3500 
L 1159 3500 
L 1159 2956 
Q 1366 3272 1645 3428 
Q 1925 3584 2291 3584 
Q 2894 3584 3203 3211 
Q 3513 2838 3513 2113 
z
" transform="scale(0.015625)"/>
      <path id="DejaVuSans-3d" d="M 678 2906 
L 4684 2906 
L 4684 2381 
L 678 2381 
L 678 2906 
z
M 678 1631 
L 4684 1631 
L 4684 1100 
L 678 1100 
L 678 1631 
z
" transform="scale(0.015625)"/>
      <path id="DejaVuSans-39" d="M 703 97 
L 703 672 
Q 941 559 1184 500 
Q 1428 441 1663 441 
Q 2288 441 2617 861 
Q 2947 1281 2994 2138 
Q 2813 1869 2534 1725 
Q 2256 1581 1919 1581 
Q 1219 1581 811 2004 
Q 403 2428 403 3163 
Q 403 3881 828 4315 
Q 1253 4750 1959 4750 
Q 2769 4750 3195 4129 
Q 3622 3509 3622 2328 
Q 3622 1225 3098 567 
Q 2575 -91 1691 -91 
Q 1453 -91 1209 -44 
Q 966 3 703 97 
z
M 1959 2075 
Q 2384 2075 2632 2365 
Q 2881 2656 2881 3163 
Q 2881 3666 2632 3958 
Q 2384 4250 1959 4250 
Q 1534 4250 1286 3958 
Q 1038 3666 1038 3163 
Q 1038 2656 1286 2365 
Q 1534 2075 1959 2075 
z
" transform="scale(0.015625)"/>
      <path id="DejaVuSans-2c" d="M 750 794 
L 1409 794 
L 1409 256 
L 897 -744 
L 494 -744 
L 750 256 
L 750 794 
z
" transform="scale(0.015625)"/>
      <path id="DejaVuSans-61" d="M 2194 1759 
Q 1497 1759 1228 1600 
Q 959 1441 959 1056 
Q 959 750 1161 570 
Q 1363 391 1709 391 
Q 2188 391 2477 730 
Q 2766 1069 2766 1631 
L 2766 1759 
L 2194 1759 
z
M 3341 1997 
L 3341 0 
L 2766 0 
L 2766 531 
Q 2569 213 2275 61 
Q 1981 -91 1556 -91 
Q 1019 -91 701 211 
Q 384 513 384 1019 
Q 384 1609 779 1909 
Q 1175 2209 1959 2209 
L 2766 2209 
L 2766 2266 
Q 2766 2663 2505 2880 
Q 2244 3097 1772 3097 
Q 1472 3097 1187 3025 
Q 903 2953 641 2809 
L 641 3341 
Q 956 3463 1253 3523 
Q 1550 3584 1831 3584 
Q 2591 3584 2966 3190 
Q 3341 2797 3341 1997 
z
" transform="scale(0.015625)"/>
      <path id="DejaVuSans-51" d="M 2522 4238 
Q 1834 4238 1429 3725 
Q 1025 3213 1025 2328 
Q 1025 1447 1429 934 
Q 1834 422 2522 422 
Q 3209 422 3611 934 
Q 4013 1447 4013 2328 
Q 4013 3213 3611 3725 
Q 3209 4238 2522 4238 
z
M 3406 84 
L 4238 -825 
L 3475 -825 
L 2784 -78 
Q 2681 -84 2626 -87 
Q 2572 -91 2522 -91 
Q 1538 -91 948 567 
Q 359 1225 359 2328 
Q 359 3434 948 4092 
Q 1538 4750 2522 4750 
Q 3503 4750 4090 4092 
Q 4678 3434 4678 2328 
Q 4678 1516 4351 937 
Q 4025 359 3406 84 
z
" transform="scale(0.015625)"/>
      <path id="DejaVuSans-2e" d="M 684 794 
L 1344 794 
L 1344 0 
L 684 0 
L 684 794 
z
" transform="scale(0.015625)"/>
      <path id="DejaVuSans-38" d="M 2034 2216 
Q 1584 2216 1326 1975 
Q 1069 1734 1069 1313 
Q 1069 891 1326 650 
Q 1584 409 2034 409 
Q 2484 409 2743 651 
Q 3003 894 3003 1313 
Q 3003 1734 2745 1975 
Q 2488 2216 2034 2216 
z
M 1403 2484 
Q 997 2584 770 2862 
Q 544 3141 544 3541 
Q 544 4100 942 4425 
Q 1341 4750 2034 4750 
Q 2731 4750 3128 4425 
Q 3525 4100 3525 3541 
Q 3525 3141 3298 2862 
Q 3072 2584 2669 2484 
Q 3125 2378 3379 2068 
Q 3634 1759 3634 1313 
Q 3634 634 3220 271 
Q 2806 -91 2034 -91 
Q 1263 -91 848 271 
Q 434 634 434 1313 
Q 434 1759 690 2068 
Q 947 2378 1403 2484 
z
M 1172 3481 
Q 1172 3119 1398 2916 
Q 1625 2713 2034 2713 
Q 2441 2713 2670 2916 
Q 2900 3119 2900 3481 
Q 2900 3844 2670 4047 
Q 2441 4250 2034 4250 
Q 1625 4250 1398 4047 
Q 1172 3844 1172 3481 
z
" transform="scale(0.015625)"/>
      <path id="DejaVuSans-29" d="M 513 4856 
L 1013 4856 
Q 1481 4119 1714 3412 
Q 1947 2706 1947 2009 
Q 1947 1309 1714 600 
Q 1481 -109 1013 -844 
L 513 -844 
Q 928 -128 1133 580 
Q 1338 1288 1338 2009 
Q 1338 2731 1133 3434 
Q 928 4138 513 4856 
z
" transform="scale(0.015625)"/>
     </defs>
     <use xlink:href="#DejaVuSans-41"/>
     <use xlink:href="#DejaVuSans-74" transform="translate(66.658203 0)"/>
     <use xlink:href="#DejaVuSans-6f" transform="translate(105.867188 0)"/>
     <use xlink:href="#DejaVuSans-6d" transform="translate(167.048828 0)"/>
     <use xlink:href="#DejaVuSans-20" transform="translate(264.460938 0)"/>
     <use xlink:href="#DejaVuSans-54" transform="translate(296.248047 0)"/>
     <use xlink:href="#DejaVuSans-79" transform="translate(341.707031 0)"/>
     <use xlink:href="#DejaVuSans-70" transform="translate(400.886719 0)"/>
     <use xlink:href="#DejaVuSans-65" transform="translate(464.363281 0)"/>
     <use xlink:href="#DejaVuSans-20" transform="translate(525.886719 0)"/>
     <use xlink:href="#DejaVuSans-48" transform="translate(557.673828 0)"/>
     <use xlink:href="#DejaVuSans-20" transform="translate(632.869141 0)"/>
     <use xlink:href="#DejaVuSans-28" transform="translate(664.65625 0)"/>
     <use xlink:href="#DejaVuSans-6e" transform="translate(703.669922 0)"/>
     <use xlink:href="#DejaVuSans-3d" transform="translate(767.048828 0)"/>
     <use xlink:href="#DejaVuSans-39" transform="translate(850.837891 0)"/>
     <use xlink:href="#DejaVuSans-30" transform="translate(914.460938 0)"/>
     <use xlink:href="#DejaVuSans-2c" transform="translate(978.083984 0)"/>
     <use xlink:href="#DejaVuSans-20" transform="translate(1009.871094 0)"/>
     <use xlink:href="#DejaVuSans-6d" transform="translate(1041.658203 0)"/>
     <use xlink:href="#DejaVuSans-65" transform="translate(1139.070312 0)"/>
     <use xlink:href="#DejaVuSans-61" transform="translate(1200.59375 0)"/>
     <use xlink:href="#DejaVuSans-6e" transform="translate(1261.873047 0)"/>
     <use xlink:href="#DejaVuSans-20" transform="translate(1325.251953 0)"/>
     <use xlink:href="#DejaVuSans-51" transform="translate(1357.039062 0)"/>
     <use xlink:href="#DejaVuSans-3d" transform="translate(1435.75 0)"/>
     <use xlink:href="#DejaVuSans-31" transform="translate(1519.539062 0)"/>
     <use xlink:href="#DejaVuSans-30" transform="translate(1583.162109 0)"/>
     <use xlink:href="#DejaVuSans-2e" transform="translate(1646.785156 0)"/>
     <use xlink:href="#DejaVuSans-32" transform="translate(1678.572266 0)"/>
     <use xlink:href="#DejaVuSans-38" transform="translate(1742.195312 0)"/>
     <use xlink:href="#DejaVuSans-29" transform="translate(1805.818359 0)"/>
    </g>
   </g>
  </g>
 </g>
 <defs>
  <clipPath id="p6d939e2289">
   <rect x="57.6" y="41.472" width="357.12" height="266.112"/>
  </clipPath>
 </defs>
</svg>
