<?xml version="1.0" encoding="utf-8" standalone="no"?>
<!DOCTYPE svg PUBLIC "-//W3C//DTD SVG 1.1//EN"
  "http://www.w3.org/Graphics/SVG/1.1/DTD/svg11.dtd">
<svg xmlns:xlink="http://www.w3.org/1999/xlink" width="460.8pt" height="345.6pt" viewBox="0 0 460.8 345.6" xmlns="http://www.w3.org/2000/svg" version="1.1">
 <metadata>
  <rdf:RDF xmlns:dc="http://purl.org/dc/elements/1.1/" xmlns:cc="http://creativecommons.org/ns#" xmlns:rdf="http://www.w3.org/1999/02/22-rdf-syntax-ns#">
   <cc:Work>
    <dc:type rdf:resource="http://purl.org/dc/dcmitype/StillImage"/>
    <dc:date>2025-12-10T14:10:03.113923</dc:date>
    <dc:format>image/svg+xml</dc:format>
    <dc:creator>
     <cc:Agent>
      <dc:title>Matplotlib v3.10.3, https://matplotlib.org/</dc:title>
     </cc:Agent>
    </dc:creator>
   </cc:Work>
  </rdf:RDF>
 </metadata>
 <defs>
  <style type="text/css">*{stroke-linejoin: round; stroke-linecap: butt}</style>
 </defs>
 <g id="figure_1">
  <g id="patch_1">
   <path d="M 0 345.6 
L 460.8 345.6 
L 460.8 0 
L 0 0 
z
" style="fill: #ffffff"/>
  </g>
  <g id="axes_1">
   <g id="patch_2">
    <path d="M 57.6 307.584 
L 414.72 307.584 
L 414.72 41.472 
L 57.6 41.472 
z
" style="fill: #ffffff"/>
   </g>
   <g id="matplotlib.axis_1">
    <g id="xtick_1">
     <g id="line2d_1">
      <defs>
       <path id="m989acb7780" d="M 0 0 
L 0 3.5 
" style="stroke: #000000; stroke-width: 0.8"/>
      </defs>
      <g>
       <use xlink:href="#m989acb7780" x="73.832727" y="307.584" style="stroke: #000000; stroke-width: 0.8"/>
      </g>
     </g>
     <g id="text_1">
      <!-- 0 -->
      <g transform="translate(69.060852 325.981656) scale(0.15 -0.15)">
       <defs>
        <path id="DejaVuSans-30" d="M 2034 4250 
Q 1547 4250 1301 3770 
Q 1056 3291 1056 2328 
Q 1056 1369 1301 889 
Q 1547 409 2034 409 
Q 2525 409 2770 889 
Q 3016 1369 3016 2328 
Q 3016 3291 2770 3770 
Q 2525 4250 2034 4250 
z
M 2034 4750 
Q 2819 4750 3233 4129 
Q 3647 3509 3647 2328 
Q 3647 1150 3233 529 
Q 2819 -91 2034 -91 
Q 1250 -91 836 529 
Q 422 1150 422 2328 
Q 422 3509 836 4129 
Q 1250 4750 2034 4750 
z
" transform="scale(0.015625)"/>
       </defs>
       <use xlink:href="#DejaVuSans-30"/>
      </g>
     </g>
    </g>
    <g id="xtick_2">
     <g id="line2d_2">
      <g>
       <use xlink:href="#m989acb7780" x="154.996364" y="307.584" style="stroke: #000000; stroke-width: 0.8"/>
      </g>
     </g>
     <g id="text_2">
      <!-- 5 -->
      <g transform="translate(150.224489 325.981656) scale(0.15 -0.15)">
       <defs>
        <path id="DejaVuSans-35" d="M 691 4666 
L 3169 4666 
L 3169 4134 
L 1269 4134 
L 1269 2991 
Q 1406 3038 1543 3061 
Q 1681 3084 1819 3084 
Q 2600 3084 3056 2656 
Q 3513 2228 3513 1497 
Q 3513 744 3044 326 
Q 2575 -91 1722 -91 
Q 1428 -91 1123 -41 
Q 819 9 494 109 
L 494 744 
Q 775 591 1075 516 
Q 1375 441 1709 441 
Q 2250 441 2565 725 
Q 2881 1009 2881 1497 
Q 2881 1984 2565 2268 
Q 2250 2553 1709 2553 
Q 1456 2553 1204 2497 
Q 953 2441 691 2322 
L 691 4666 
z
" transform="scale(0.015625)"/>
       </defs>
       <use xlink:href="#DejaVuSans-35"/>
      </g>
     </g>
    </g>
    <g id="xtick_3">
     <g id="line2d_3">
      <g>
       <use xlink:href="#m989acb7780" x="236.16" y="307.584" style="stroke: #000000; stroke-width: 0.8"/>
      </g>
     </g>
     <g id="text_3">
      <!-- 10 -->
      <g transform="translate(226.61625 325.981656) scale(0.15 -0.15)">
       <defs>
        <path id="DejaVuSans-31" d="M 794 531 
L 1825 531 
L 1825 4091 
L 703 3866 
L 703 4441 
L 1819 4666 
L 2450 4666 
L 2450 531 
L 3481 531 
L 3481 0 
L 794 0 
L 794 531 
z
" transform="scale(0.015625)"/>
       </defs>
       <use xlink:href="#DejaVuSans-31"/>
       <use xlink:href="#DejaVuSans-30" transform="translate(63.623047 0)"/>
      </g>
     </g>
    </g>
    <g id="xtick_4">
     <g id="line2d_4">
      <g>
       <use xlink:href="#m989acb7780" x="317.323636" y="307.584" style="stroke: #000000; stroke-width: 0.8"/>
      </g>
     </g>
     <g id="text_4">
      <!-- 15 -->
      <g transform="translate(307.779886 325.981656) scale(0.15 -0.15)">
       <use xlink:href="#DejaVuSans-31"/>
       <use xlink:href="#DejaVuSans-35" transform="translate(63.623047 0)"/>
      </g>
     </g>
    </g>
    <g id="xtick_5">
     <g id="line2d_5">
      <g>
       <use xlink:href="#m989acb7780" x="398.487273" y="307.584" style="stroke: #000000; stroke-width: 0.8"/>
      </g>
     </g>
     <g id="text_5">
      <!-- 20 -->
      <g transform="translate(388.943523 325.981656) scale(0.15 -0.15)">
       <defs>
        <path id="DejaVuSans-32" d="M 1228 531 
L 3431 531 
L 3431 0 
L 469 0 
L 469 531 
Q 828 903 1448 1529 
Q 2069 2156 2228 2338 
Q 2531 2678 2651 2914 
Q 2772 3150 2772 3378 
Q 2772 3750 2511 3984 
Q 2250 4219 1831 4219 
Q 1534 4219 1204 4116 
Q 875 4013 500 3803 
L 500 4441 
Q 881 4594 1212 4672 
Q 1544 4750 1819 4750 
Q 2544 4750 2975 4387 
Q 3406 4025 3406 3419 
Q 3406 3131 3298 2873 
Q 3191 2616 2906 2266 
Q 2828 2175 2409 1742 
Q 1991 1309 1228 531 
z
" transform="scale(0.015625)"/>
       </defs>
       <use xlink:href="#DejaVuSans-32"/>
       <use xlink:href="#DejaVuSans-30" transform="translate(63.623047 0)"/>
      </g>
     </g>
    </g>
   </g>
   <g id="matplotlib.axis_2">
    <g id="ytick_1">
     <g id="line2d_6">
      <defs>
       <path id="mb6d9ac743c" d="M 0 0 
L -3.5 0 
" style="stroke: #000000; stroke-width: 0.8"/>
      </defs>
      <g>
       <use xlink:href="#mb6d9ac743c" x="57.6" y="294.721895" style="stroke: #000000; stroke-width: 0.8"/>
      </g>
     </g>
     <g id="text_6">
      <!-- 5 -->
      <g transform="translate(41.05625 300.420723) scale(0.15 -0.15)">
       <use xlink:href="#DejaVuSans-35"/>
      </g>
     </g>
    </g>
    <g id="ytick_2">
     <g id="line2d_7">
      <g>
       <use xlink:href="#mb6d9ac743c" x="57.6" y="239.893941" style="stroke: #000000; stroke-width: 0.8"/>
      </g>
     </g>
     <g id="text_7">
      <!-- 10 -->
      <g transform="translate(31.5125 245.592769) scale(0.15 -0.15)">
       <use xlink:href="#DejaVuSans-31"/>
       <use xlink:href="#DejaVuSans-30" transform="translate(63.623047 0)"/>
      </g>
     </g>
    </g>
    <g id="ytick_3">
     <g id="line2d_8">
      <g>
       <use xlink:href="#mb6d9ac743c" x="57.6" y="185.065986" style="stroke: #000000; stroke-width: 0.8"/>
      </g>
     </g>
     <g id="text_8">
      <!-- 15 -->
      <g transform="translate(31.5125 190.764815) scale(0.15 -0.15)">
       <use xlink:href="#DejaVuSans-31"/>
       <use xlink:href="#DejaVuSans-35" transform="translate(63.623047 0)"/>
      </g>
     </g>
    </g>
    <g id="ytick_4">
     <g id="line2d_9">
      <g>
       <use xlink:href="#mb6d9ac743c" x="57.6" y="130.238032" style="stroke: #000000; stroke-width: 0.8"/>
      </g>
     </g>
     <g id="text_9">
      <!-- 20 -->
      <g transform="translate(31.5125 135.936861) scale(0.15 -0.15)">
       <use xlink:href="#DejaVuSans-32"/>
       <use xlink:href="#DejaVuSans-30" transform="translate(63.623047 0)"/>
      </g>
     </g>
    </g>
    <g id="ytick_5">
     <g id="line2d_10">
      <g>
       <use xlink:href="#mb6d9ac743c" x="57.6" y="75.410078" style="stroke: #000000; stroke-width: 0.8"/>
      </g>
     </g>
     <g id="text_10">
      <!-- 25 -->
      <g transform="translate(31.5125 81.108906) scale(0.15 -0.15)">
       <use xlink:href="#DejaVuSans-32"/>
       <use xlink:href="#DejaVuSans-35" transform="translate(63.623047 0)"/>
      </g>
     </g>
    </g>
   </g>
   <g id="line2d_11">
    <path d="M 73.832727 218.452257 
L 90.065455 243.064544 
L 106.298182 255.564809 
L 122.530909 209.786294 
L 138.763636 185.909883 
L 154.996364 216.492198 
L 171.229091 199.720084 
L 187.461818 194.122673 
L 203.694545 140.197356 
L 219.927273 153.133154 
L 236.16 167.869318 
L 252.392727 89.738409 
L 268.625455 165.951487 
L 284.858182 176.38945 
L 301.090909 203.062985 
L 317.323636 220.235115 
L 333.556364 100.874452 
L 349.789091 118.925545 
L 366.021818 81.593557 
L 382.254545 133.42608 
L 398.487273 122.67654 
" clip-path="url(#pd1053cd015)" style="fill: none; stroke: #31688e; stroke-opacity: 0.5; stroke-width: 1.5; stroke-linecap: square"/>
   </g>
   <g id="line2d_12">
    <path d="M 73.832727 253.98685 
L 90.065455 236.651164 
L 106.298182 180.834557 
L 122.530909 227.403776 
L 138.763636 218.193059 
L 154.996364 183.952684 
L 171.229091 217.682277 
L 187.461818 210.67382 
L 203.694545 135.024213 
L 219.927273 195.961154 
L 236.16 234.617858 
L 252.392727 217.6576 
L 268.625455 155.917271 
L 284.858182 177.163491 
L 301.090909 146.967063 
L 317.323636 151.399587 
L 333.556364 138.999766 
L 349.789091 93.974288 
L 366.021818 141.390404 
L 382.254545 111.038244 
L 398.487273 196.392051 
" clip-path="url(#pd1053cd015)" style="fill: none; stroke: #31688e; stroke-opacity: 0.5; stroke-width: 1.5; stroke-linecap: square"/>
   </g>
   <g id="line2d_13">
    <path d="M 73.832727 220.127925 
L 90.065455 267.569128 
L 106.298182 237.841804 
L 122.530909 188.924864 
L 138.763636 258.840983 
L 154.996364 193.967517 
L 171.229091 111.768739 
L 187.461818 110.030707 
L 203.694545 210.571221 
L 219.927273 216.337298 
L 236.16 146.843688 
L 252.392727 218.602457 
L 268.625455 219.420862 
L 284.858182 147.660737 
L 301.090909 217.472328 
L 317.323636 125.231179 
L 333.556364 92.772652 
L 349.789091 146.249321 
L 366.021818 126.193235 
L 382.254545 162.823275 
L 398.487273 138.77044 
" clip-path="url(#pd1053cd015)" style="fill: none; stroke: #31688e; stroke-opacity: 0.5; stroke-width: 1.5; stroke-linecap: square"/>
   </g>
   <g id="line2d_14">
    <path d="M 73.832727 242.141746 
L 90.065455 229.313308 
L 106.298182 253.992945 
L 122.530909 239.802817 
L 138.763636 236.559983 
L 154.996364 202.547575 
L 171.229091 198.155619 
L 187.461818 215.174171 
L 203.694545 164.41837 
L 219.927273 129.925666 
L 236.16 170.815086 
L 252.392727 132.925451 
L 268.625455 89.19761 
L 284.858182 91.666317 
L 301.090909 53.568 
L 317.323636 109.719285 
L 333.556364 124.215114 
L 349.789091 126.936874 
L 366.021818 95.453786 
L 382.254545 115.460057 
L 398.487273 92.70459 
" clip-path="url(#pd1053cd015)" style="fill: none; stroke: #31688e; stroke-opacity: 0.5; stroke-width: 1.5; stroke-linecap: square"/>
   </g>
   <g id="line2d_15">
    <path d="M 73.832727 244.710856 
L 90.065455 212.911241 
L 106.298182 198.566086 
L 122.530909 230.819088 
L 138.763636 218.247125 
L 154.996364 242.779814 
L 171.229091 239.793505 
L 187.461818 239.940846 
L 203.694545 230.888618 
L 219.927273 215.921656 
L 236.16 214.645832 
L 252.392727 219.301555 
L 268.625455 147.650867 
L 284.858182 166.363152 
L 301.090909 148.587138 
L 317.323636 146.683154 
L 333.556364 229.632071 
L 349.789091 168.718961 
L 366.021818 198.574157 
L 382.254545 196.532034 
L 398.487273 185.09878 
" clip-path="url(#pd1053cd015)" style="fill: none; stroke: #31688e; stroke-opacity: 0.5; stroke-width: 1.5; stroke-linecap: square"/>
   </g>
   <g id="line2d_16">
    <path d="M 73.832727 221.547053 
L 90.065455 234.979147 
L 106.298182 238.407218 
L 122.530909 230.510164 
L 138.763636 248.339176 
L 154.996364 259.064666 
L 171.229091 255.345889 
L 187.461818 202.076811 
L 203.694545 232.075146 
L 219.927273 209.251869 
L 236.16 242.927838 
L 252.392727 231.47585 
L 268.625455 247.398525 
L 284.858182 235.844276 
L 301.090909 204.242447 
L 317.323636 235.233492 
L 333.556364 199.436525 
L 349.789091 219.926635 
L 366.021818 232.244714 
L 382.254545 222.738509 
L 398.487273 235.405824 
" clip-path="url(#pd1053cd015)" style="fill: none; stroke: #31688e; stroke-opacity: 0.5; stroke-width: 1.5; stroke-linecap: square"/>
   </g>
   <g id="line2d_17">
    <path d="M 73.832727 268.977129 
L 90.065455 273.548497 
L 106.298182 268.512522 
L 122.530909 276.072655 
L 138.763636 249.612645 
L 154.996364 260.290831 
L 171.229091 248.919635 
L 187.461818 212.311632 
L 203.694545 270.461761 
L 219.927273 243.352573 
L 236.16 242.554128 
L 252.392727 200.806439 
L 268.625455 220.139047 
L 284.858182 226.09794 
L 301.090909 173.386028 
L 317.323636 228.213723 
L 333.556364 235.71429 
L 349.789091 200.531061 
L 366.021818 231.212766 
L 382.254545 214.985225 
L 398.487273 222.760589 
" clip-path="url(#pd1053cd015)" style="fill: none; stroke: #31688e; stroke-opacity: 0.5; stroke-width: 1.5; stroke-linecap: square"/>
   </g>
   <g id="line2d_18">
    <path d="M 73.832727 264.922103 
L 90.065455 262.589172 
L 106.298182 254.471669 
L 122.530909 263.937596 
L 138.763636 245.598336 
L 154.996364 247.185534 
L 171.229091 233.90141 
L 187.461818 257.464247 
L 203.694545 260.373815 
L 219.927273 218.228268 
L 236.16 237.276803 
L 252.392727 243.412874 
L 268.625455 259.996732 
L 284.858182 220.080918 
L 301.090909 201.871278 
L 317.323636 242.302494 
L 333.556364 224.620489 
L 349.789091 167.041823 
L 366.021818 211.563544 
L 382.254545 199.226739 
L 398.487273 249.480434 
" clip-path="url(#pd1053cd015)" style="fill: none; stroke: #31688e; stroke-opacity: 0.5; stroke-width: 1.5; stroke-linecap: square"/>
   </g>
   <g id="line2d_19">
    <path d="M 73.832727 245.508809 
L 90.065455 245.55022 
L 106.298182 245.486915 
L 122.530909 266.836067 
L 138.763636 188.066538 
L 154.996364 226.018257 
L 171.229091 219.392527 
L 187.461818 204.692345 
L 203.694545 181.545541 
L 219.927273 225.305611 
L 236.16 189.933571 
L 252.392727 228.457484 
L 268.625455 179.724088 
L 284.858182 202.556625 
L 301.090909 126.101402 
L 317.323636 130.436558 
L 333.556364 168.938719 
L 349.789091 122.220444 
L 366.021818 138.912858 
L 382.254545 140.406161 
L 398.487273 175.865827 
" clip-path="url(#pd1053cd015)" style="fill: none; stroke: #31688e; stroke-opacity: 0.5; stroke-width: 1.5; stroke-linecap: square"/>
   </g>
   <g id="line2d_20">
    <path d="M 73.832727 221.514427 
L 90.065455 217.19194 
L 106.298182 234.260022 
L 122.530909 231.110381 
L 138.763636 254.401412 
L 154.996364 234.878375 
L 171.229091 209.820522 
L 187.461818 240.832097 
L 203.694545 201.873667 
L 219.927273 248.531726 
L 236.16 227.060405 
L 252.392727 216.997753 
L 268.625455 194.477126 
L 284.858182 223.40593 
L 301.090909 201.862354 
L 317.323636 195.73773 
L 333.556364 223.063055 
L 349.789091 192.060982 
L 366.021818 183.280824 
L 382.254545 196.379035 
L 398.487273 222.423223 
" clip-path="url(#pd1053cd015)" style="fill: none; stroke: #31688e; stroke-opacity: 0.5; stroke-width: 1.5; stroke-linecap: square"/>
   </g>
   <g id="line2d_21">
    <path d="M 73.832727 232.670157 
L 90.065455 219.717292 
L 106.298182 221.046023 
L 122.530909 227.259058 
L 138.763636 222.400473 
L 154.996364 245.819276 
L 171.229091 171.859398 
L 187.461818 209.872649 
L 203.694545 186.24462 
L 219.927273 222.482869 
L 236.16 168.759985 
L 252.392727 197.614533 
L 268.625455 143.769699 
L 284.858182 176.890735 
L 301.090909 144.083705 
L 317.323636 128.146181 
L 333.556364 197.447858 
L 349.789091 118.797947 
L 366.021818 178.4283 
L 382.254545 179.209237 
L 398.487273 75.165967 
" clip-path="url(#pd1053cd015)" style="fill: none; stroke: #31688e; stroke-opacity: 0.5; stroke-width: 1.5; stroke-linecap: square"/>
   </g>
   <g id="line2d_22">
    <path d="M 73.832727 263.913159 
L 90.065455 252.040993 
L 106.298182 204.745086 
L 122.530909 272.097122 
L 138.763636 184.31785 
L 154.996364 163.503596 
L 171.229091 202.803218 
L 187.461818 197.729578 
L 203.694545 199.843081 
L 219.927273 227.821709 
L 236.16 136.557688 
L 252.392727 183.35194 
L 268.625455 110.058157 
L 284.858182 131.712377 
L 301.090909 112.762071 
L 317.323636 183.656896 
L 333.556364 161.471325 
L 349.789091 126.531182 
L 366.021818 76.013319 
L 382.254545 65.890154 
L 398.487273 172.562552 
" clip-path="url(#pd1053cd015)" style="fill: none; stroke: #31688e; stroke-opacity: 0.5; stroke-width: 1.5; stroke-linecap: square"/>
   </g>
   <g id="line2d_23">
    <path d="M 73.832727 252.816432 
L 90.065455 249.096566 
L 106.298182 259.868371 
L 122.530909 247.723188 
L 138.763636 210.147621 
L 154.996364 216.854989 
L 171.229091 133.433839 
L 187.461818 187.163021 
L 203.694545 115.433621 
L 219.927273 173.277475 
L 236.16 222.344608 
L 252.392727 79.216388 
L 268.625455 157.344877 
L 284.858182 175.613975 
L 301.090909 145.066318 
L 317.323636 87.980955 
L 333.556364 220.021954 
L 349.789091 159.671732 
L 366.021818 143.839205 
L 382.254545 171.562551 
L 398.487273 209.079942 
" clip-path="url(#pd1053cd015)" style="fill: none; stroke: #31688e; stroke-opacity: 0.5; stroke-width: 1.5; stroke-linecap: square"/>
   </g>
   <g id="line2d_24">
    <path d="M 73.832727 156.01377 
L 90.065455 219.395445 
L 106.298182 248.455372 
L 122.530909 165.218064 
L 138.763636 161.020095 
L 154.996364 142.102283 
L 171.229091 156.883152 
L 187.461818 142.219282 
L 203.694545 163.454534 
L 219.927273 150.293579 
L 236.16 91.001246 
L 252.392727 113.10479 
L 268.625455 98.624476 
L 284.858182 158.273626 
L 301.090909 87.478918 
L 317.323636 117.392106 
L 333.556364 85.118012 
L 349.789091 236.594601 
L 366.021818 77.135087 
L 382.254545 75.635038 
L 398.487273 188.305459 
" clip-path="url(#pd1053cd015)" style="fill: none; stroke: #31688e; stroke-opacity: 0.5; stroke-width: 1.5; stroke-linecap: square"/>
   </g>
   <g id="line2d_25">
    <path d="M 73.832727 209.684728 
L 90.065455 174.663932 
L 106.298182 202.855892 
L 122.530909 199.758855 
L 138.763636 197.496944 
L 154.996364 199.883384 
L 171.229091 209.793638 
L 187.461818 203.955539 
L 203.694545 181.530867 
L 219.927273 200.770809 
L 236.16 183.845927 
L 252.392727 168.196192 
L 268.625455 207.965069 
L 284.858182 204.577758 
L 301.090909 215.804452 
L 317.323636 219.921253 
L 333.556364 198.894111 
L 349.789091 258.628526 
L 366.021818 195.759276 
L 382.254545 195.316219 
L 398.487273 220.869951 
" clip-path="url(#pd1053cd015)" style="fill: none; stroke: #31688e; stroke-opacity: 0.5; stroke-width: 1.5; stroke-linecap: square"/>
   </g>
   <g id="line2d_26">
    <path d="M 73.832727 230.41649 
L 90.065455 240.992586 
L 106.298182 237.183639 
L 122.530909 248.850505 
L 138.763636 260.639368 
L 154.996364 288.073466 
L 171.229091 278.38464 
L 187.461818 276.754109 
L 203.694545 259.422996 
L 219.927273 277.969439 
L 236.16 266.649777 
L 252.392727 242.771225 
L 268.625455 286.011339 
L 284.858182 281.999329 
L 301.090909 275.820104 
L 317.323636 274.433319 
L 333.556364 263.154678 
L 349.789091 260.550202 
L 366.021818 268.178438 
L 382.254545 269.566831 
L 398.487273 258.966096 
" clip-path="url(#pd1053cd015)" style="fill: none; stroke: #31688e; stroke-opacity: 0.5; stroke-width: 1.5; stroke-linecap: square"/>
   </g>
   <g id="line2d_27">
    <path d="M 73.832727 261.632884 
L 90.065455 274.538096 
L 106.298182 285.361577 
L 122.530909 292.1149 
L 138.763636 289.379093 
L 154.996364 275.764262 
L 171.229091 260.803592 
L 187.461818 242.614632 
L 203.694545 219.141488 
L 219.927273 285.822654 
L 236.16 261.001806 
L 252.392727 237.645915 
L 268.625455 276.549268 
L 284.858182 270.847309 
L 301.090909 271.193017 
L 317.323636 266.341821 
L 333.556364 257.754799 
L 349.789091 254.731536 
L 366.021818 252.481802 
L 382.254545 263.084713 
L 398.487273 252.154625 
" clip-path="url(#pd1053cd015)" style="fill: none; stroke: #31688e; stroke-opacity: 0.5; stroke-width: 1.5; stroke-linecap: square"/>
   </g>
   <g id="line2d_28">
    <path d="M 73.832727 184.470424 
L 90.065455 222.316322 
L 106.298182 236.276537 
L 122.530909 252.374133 
L 138.763636 254.041238 
L 154.996364 250.202413 
L 171.229091 250.689649 
L 187.461818 249.647378 
L 203.694545 250.107265 
L 219.927273 252.343446 
L 236.16 235.418928 
L 252.392727 205.210578 
L 268.625455 230.70809 
L 284.858182 228.933313 
L 301.090909 231.075224 
L 317.323636 233.281868 
L 333.556364 238.702403 
L 349.789091 219.737001 
L 366.021818 219.201274 
L 382.254545 210.59828 
L 398.487273 222.453206 
" clip-path="url(#pd1053cd015)" style="fill: none; stroke: #31688e; stroke-opacity: 0.5; stroke-width: 1.5; stroke-linecap: square"/>
   </g>
   <g id="line2d_29">
    <path d="M 73.832727 225.021357 
L 90.065455 246.565658 
L 106.298182 270.542973 
L 122.530909 279.993765 
L 138.763636 270.037027 
L 154.996364 283.157115 
L 171.229091 284.357751 
L 187.461818 275.508225 
L 203.694545 270.999564 
L 219.927273 224.675558 
L 236.16 269.513096 
L 252.392727 240.198581 
L 268.625455 220.958534 
L 284.858182 237.469692 
L 301.090909 240.388463 
L 317.323636 239.020192 
L 333.556364 244.916022 
L 349.789091 230.093599 
L 366.021818 215.071096 
L 382.254545 255.049661 
L 398.487273 237.132978 
" clip-path="url(#pd1053cd015)" style="fill: none; stroke: #31688e; stroke-opacity: 0.5; stroke-width: 1.5; stroke-linecap: square"/>
   </g>
   <g id="line2d_30">
    <path d="M 73.832727 273.280337 
L 90.065455 280.919019 
L 106.298182 248.496126 
L 122.530909 231.926762 
L 138.763636 272.02145 
L 154.996364 276.317805 
L 171.229091 251.737849 
L 187.461818 241.868454 
L 203.694545 247.530285 
L 219.927273 203.226733 
L 236.16 216.536179 
L 252.392727 247.466846 
L 268.625455 193.1766 
L 284.858182 217.003978 
L 301.090909 222.544877 
L 317.323636 197.14651 
L 333.556364 202.219728 
L 349.789091 196.837574 
L 366.021818 199.061579 
L 382.254545 220.704999 
L 398.487273 220.437803 
" clip-path="url(#pd1053cd015)" style="fill: none; stroke: #31688e; stroke-opacity: 0.5; stroke-width: 1.5; stroke-linecap: square"/>
   </g>
   <g id="line2d_31">
    <path d="M 73.832727 236.844885 
L 90.065455 263.908609 
L 106.298182 255.759247 
L 122.530909 274.628514 
L 138.763636 257.303205 
L 154.996364 210.628055 
L 171.229091 231.970503 
L 187.461818 241.841169 
L 203.694545 271.485661 
L 219.927273 251.512069 
L 236.16 242.697042 
L 252.392727 230.630538 
L 268.625455 221.091705 
L 284.858182 213.668865 
L 301.090909 231.745177 
L 317.323636 220.247134 
L 333.556364 235.174945 
L 349.789091 215.289902 
L 366.021818 220.424535 
L 382.254545 218.47691 
L 398.487273 231.93179 
" clip-path="url(#pd1053cd015)" style="fill: none; stroke: #31688e; stroke-opacity: 0.5; stroke-width: 1.5; stroke-linecap: square"/>
   </g>
   <g id="line2d_32">
    <path d="M 73.832727 256.677344 
L 90.065455 232.739729 
L 106.298182 245.397403 
L 122.530909 260.574044 
L 138.763636 282.72277 
L 154.996364 267.701237 
L 171.229091 281.076839 
L 187.461818 287.571193 
L 203.694545 275.726014 
L 219.927273 266.88147 
L 236.16 262.682309 
L 252.392727 273.096376 
L 268.625455 271.951856 
L 284.858182 248.209383 
L 301.090909 262.866287 
L 317.323636 249.816136 
L 333.556364 249.514402 
L 349.789091 239.143008 
L 366.021818 235.087345 
L 382.254545 257.896582 
L 398.487273 229.979 
" clip-path="url(#pd1053cd015)" style="fill: none; stroke: #31688e; stroke-opacity: 0.5; stroke-width: 1.5; stroke-linecap: square"/>
   </g>
   <g id="line2d_33">
    <path d="M 73.832727 285.56863 
L 90.065455 286.061427 
L 106.298182 262.402188 
L 122.530909 279.463948 
L 138.763636 262.726568 
L 154.996364 252.890144 
L 171.229091 265.723344 
L 187.461818 271.25764 
L 203.694545 259.177168 
L 219.927273 253.073629 
L 236.16 248.171743 
L 252.392727 266.576125 
L 268.625455 238.830203 
L 284.858182 202.55382 
L 301.090909 193.403751 
L 317.323636 189.66345 
L 333.556364 183.513748 
L 349.789091 203.488883 
L 366.021818 211.372121 
L 382.254545 231.396039 
L 398.487273 238.008331 
" clip-path="url(#pd1053cd015)" style="fill: none; stroke: #31688e; stroke-opacity: 0.5; stroke-width: 1.5; stroke-linecap: square"/>
   </g>
   <g id="line2d_34">
    <path d="M 73.832727 190.110976 
L 90.065455 218.864708 
L 106.298182 232.959278 
L 122.530909 236.184689 
L 138.763636 228.597807 
L 154.996364 245.399892 
L 171.229091 225.531668 
L 187.461818 240.212906 
L 203.694545 233.546684 
L 219.927273 250.920064 
L 236.16 233.414964 
L 252.392727 209.12263 
L 268.625455 229.467795 
L 284.858182 200.050154 
L 301.090909 219.921578 
L 317.323636 205.071491 
L 333.556364 211.798268 
L 349.789091 174.67452 
L 366.021818 172.919035 
L 382.254545 203.632312 
L 398.487273 190.42063 
" clip-path="url(#pd1053cd015)" style="fill: none; stroke: #31688e; stroke-opacity: 0.5; stroke-width: 1.5; stroke-linecap: square"/>
   </g>
   <g id="line2d_35">
    <path d="M 73.832727 259.455225 
L 90.065455 243.727824 
L 106.298182 286.374307 
L 122.530909 272.836353 
L 138.763636 273.054993 
L 154.996364 285.550824 
L 171.229091 269.265627 
L 187.461818 244.903814 
L 203.694545 273.663815 
L 219.927273 272.85437 
L 236.16 273.890476 
L 252.392727 268.557028 
L 268.625455 285.97942 
L 284.858182 269.994872 
L 301.090909 256.981438 
L 317.323636 225.519226 
L 333.556364 246.069113 
L 349.789091 242.963629 
L 366.021818 238.268354 
L 382.254545 234.539943 
L 398.487273 247.809426 
" clip-path="url(#pd1053cd015)" style="fill: none; stroke: #31688e; stroke-opacity: 0.5; stroke-width: 1.5; stroke-linecap: square"/>
   </g>
   <g id="line2d_36">
    <path d="M 73.832727 231.430382 
L 90.065455 206.728312 
L 106.298182 254.563792 
L 122.530909 245.737475 
L 138.763636 252.7233 
L 154.996364 264.374917 
L 171.229091 245.738045 
L 187.461818 212.364673 
L 203.694545 224.949493 
L 219.927273 277.042118 
L 236.16 250.277243 
L 252.392727 237.580829 
L 268.625455 273.910873 
L 284.858182 253.732832 
L 301.090909 262.348827 
L 317.323636 264.595872 
L 333.556364 256.833561 
L 349.789091 240.352769 
L 366.021818 238.796478 
L 382.254545 239.79772 
L 398.487273 245.495749 
" clip-path="url(#pd1053cd015)" style="fill: none; stroke: #31688e; stroke-opacity: 0.5; stroke-width: 1.5; stroke-linecap: square"/>
   </g>
   <g id="line2d_37">
    <path d="M 73.832727 234.153064 
L 90.065455 229.880095 
L 106.298182 273.000018 
L 122.530909 268.385656 
L 138.763636 255.713554 
L 154.996364 250.70822 
L 171.229091 235.991584 
L 187.461818 239.276065 
L 203.694545 231.696728 
L 219.927273 262.834638 
L 236.16 229.189526 
L 252.392727 223.352957 
L 268.625455 246.035805 
L 284.858182 201.358988 
L 301.090909 237.29192 
L 317.323636 232.775601 
L 333.556364 239.057273 
L 349.789091 217.791915 
L 366.021818 212.660363 
L 382.254545 245.64397 
L 398.487273 208.10632 
" clip-path="url(#pd1053cd015)" style="fill: none; stroke: #31688e; stroke-opacity: 0.5; stroke-width: 1.5; stroke-linecap: square"/>
   </g>
   <g id="line2d_38">
    <path d="M 73.832727 226.470525 
L 90.065455 254.173896 
L 106.298182 261.324717 
L 122.530909 262.696492 
L 138.763636 278.896153 
L 154.996364 266.710468 
L 171.229091 272.407371 
L 187.461818 265.558201 
L 203.694545 250.049891 
L 219.927273 256.045513 
L 236.16 257.408003 
L 252.392727 260.552992 
L 268.625455 260.376845 
L 284.858182 252.874765 
L 301.090909 258.664285 
L 317.323636 254.272083 
L 333.556364 253.298323 
L 349.789091 252.498264 
L 366.021818 268.162596 
L 382.254545 255.058324 
L 398.487273 265.250349 
" clip-path="url(#pd1053cd015)" style="fill: none; stroke: #31688e; stroke-opacity: 0.5; stroke-width: 1.5; stroke-linecap: square"/>
   </g>
   <g id="line2d_39">
    <path d="M 73.832727 233.647369 
L 90.065455 274.069931 
L 106.298182 266.448947 
L 122.530909 258.976173 
L 138.763636 269.144962 
L 154.996364 282.84202 
L 171.229091 277.923665 
L 187.461818 281.2649 
L 203.694545 281.541596 
L 219.927273 278.68232 
L 236.16 254.019603 
L 252.392727 289.09113 
L 268.625455 287.338713 
L 284.858182 267.668203 
L 301.090909 267.935926 
L 317.323636 267.543008 
L 333.556364 275.299231 
L 349.789091 254.970984 
L 366.021818 271.839216 
L 382.254545 259.041298 
L 398.487273 273.809525 
" clip-path="url(#pd1053cd015)" style="fill: none; stroke: #31688e; stroke-opacity: 0.5; stroke-width: 1.5; stroke-linecap: square"/>
   </g>
   <g id="line2d_40">
    <path d="M 73.832727 232.958538 
L 90.065455 234.652722 
L 106.298182 245.521779 
L 122.530909 233.975121 
L 138.763636 228.093447 
L 154.996364 235.081693 
L 171.229091 230.684196 
L 187.461818 231.16579 
L 203.694545 248.061314 
L 219.927273 245.857761 
L 236.16 242.424682 
L 252.392727 241.112298 
L 268.625455 230.316121 
L 284.858182 236.802735 
L 301.090909 227.733568 
L 317.323636 224.406219 
L 333.556364 222.003036 
L 349.789091 217.697128 
L 366.021818 229.179728 
L 382.254545 235.359133 
L 398.487273 241.557462 
" clip-path="url(#pd1053cd015)" style="fill: none; stroke: #31688e; stroke-opacity: 0.5; stroke-width: 1.5; stroke-linecap: square"/>
   </g>
   <g id="line2d_41">
    <path d="M 73.832727 278.503646 
L 90.065455 273.729395 
L 106.298182 287.097264 
L 122.530909 270.262864 
L 138.763636 288.607062 
L 154.996364 265.868435 
L 171.229091 269.563411 
L 187.461818 275.294102 
L 203.694545 270.251466 
L 219.927273 263.732138 
L 236.16 258.132284 
L 252.392727 268.192668 
L 268.625455 263.195962 
L 284.858182 275.614069 
L 301.090909 267.542774 
L 317.323636 248.059458 
L 333.556364 240.146197 
L 349.789091 268.243526 
L 366.021818 256.956856 
L 382.254545 264.753569 
L 398.487273 250.505561 
" clip-path="url(#pd1053cd015)" style="fill: none; stroke: #31688e; stroke-opacity: 0.5; stroke-width: 1.5; stroke-linecap: square"/>
   </g>
   <g id="line2d_42">
    <path d="M 73.832727 258.029376 
L 90.065455 257.829076 
L 106.298182 259.748868 
L 122.530909 279.492869 
L 138.763636 291.218702 
L 154.996364 261.254122 
L 171.229091 276.754333 
L 187.461818 264.391626 
L 203.694545 260.661351 
L 219.927273 258.790707 
L 236.16 236.680347 
L 252.392727 256.455627 
L 268.625455 239.470596 
L 284.858182 220.591068 
L 301.090909 232.845376 
L 317.323636 238.449352 
L 333.556364 218.878319 
L 349.789091 255.869707 
L 366.021818 241.801175 
L 382.254545 220.347894 
L 398.487273 204.643942 
" clip-path="url(#pd1053cd015)" style="fill: none; stroke: #31688e; stroke-opacity: 0.5; stroke-width: 1.5; stroke-linecap: square"/>
   </g>
   <g id="line2d_43">
    <path d="M 73.832727 250.472816 
L 90.065455 254.465352 
L 106.298182 243.743861 
L 122.530909 236.62952 
L 138.763636 188.030998 
L 154.996364 211.909831 
L 171.229091 206.04996 
L 187.461818 192.718221 
L 203.694545 213.82579 
L 219.927273 196.66357 
L 236.16 211.68926 
L 252.392727 192.749557 
L 268.625455 207.09799 
L 284.858182 192.773804 
L 301.090909 165.439987 
L 317.323636 187.293635 
L 333.556364 153.453826 
L 349.789091 192.087507 
L 366.021818 177.626047 
L 382.254545 195.998467 
L 398.487273 202.732844 
" clip-path="url(#pd1053cd015)" style="fill: none; stroke: #31688e; stroke-opacity: 0.5; stroke-width: 1.5; stroke-linecap: square"/>
   </g>
   <g id="line2d_44">
    <path d="M 73.832727 269.978984 
L 90.065455 276.287924 
L 106.298182 279.349071 
L 122.530909 277.028389 
L 138.763636 277.675844 
L 154.996364 280.098397 
L 171.229091 283.205944 
L 187.461818 281.941078 
L 203.694545 277.813373 
L 219.927273 269.58749 
L 236.16 274.477329 
L 252.392727 259.063171 
L 268.625455 265.086043 
L 284.858182 275.631979 
L 301.090909 270.860041 
L 317.323636 225.668957 
L 333.556364 234.999601 
L 349.789091 233.740398 
L 366.021818 234.252424 
L 382.254545 233.455534 
L 398.487273 229.032783 
" clip-path="url(#pd1053cd015)" style="fill: none; stroke: #31688e; stroke-opacity: 0.5; stroke-width: 1.5; stroke-linecap: square"/>
   </g>
   <g id="line2d_45">
    <path d="M 73.832727 264.148644 
L 90.065455 247.461 
L 106.298182 263.148315 
L 122.530909 249.91848 
L 138.763636 223.114474 
L 154.996364 229.235153 
L 171.229091 226.36855 
L 187.461818 234.94396 
L 203.694545 250.026311 
L 219.927273 245.987804 
L 236.16 238.344719 
L 252.392727 250.327984 
L 268.625455 238.095527 
L 284.858182 243.779504 
L 301.090909 238.39527 
L 317.323636 205.680789 
L 333.556364 207.791075 
L 349.789091 225.472852 
L 366.021818 219.993332 
L 382.254545 215.238623 
L 398.487273 203.655271 
" clip-path="url(#pd1053cd015)" style="fill: none; stroke: #31688e; stroke-opacity: 0.5; stroke-width: 1.5; stroke-linecap: square"/>
   </g>
   <g id="line2d_46">
    <path d="M 73.832727 249.351794 
L 90.065455 236.379097 
L 106.298182 222.235834 
L 122.530909 234.504097 
L 138.763636 227.581452 
L 154.996364 253.410066 
L 171.229091 234.559587 
L 187.461818 211.139192 
L 203.694545 201.866832 
L 219.927273 185.566114 
L 236.16 185.825297 
L 252.392727 235.834969 
L 268.625455 185.556598 
L 284.858182 201.479901 
L 301.090909 203.008067 
L 317.323636 206.422594 
L 333.556364 196.683826 
L 349.789091 199.447085 
L 366.021818 191.829843 
L 382.254545 198.256535 
L 398.487273 181.099775 
" clip-path="url(#pd1053cd015)" style="fill: none; stroke: #31688e; stroke-opacity: 0.5; stroke-width: 1.5; stroke-linecap: square"/>
   </g>
   <g id="line2d_47">
    <path d="M 73.832727 282.957552 
L 90.065455 292.420467 
L 106.298182 295.488 
L 122.530909 294.12087 
L 138.763636 266.339654 
L 154.996364 290.877596 
L 171.229091 290.348025 
L 187.461818 259.591288 
L 203.694545 238.136243 
L 219.927273 252.470961 
L 236.16 260.246799 
L 252.392727 274.66126 
L 268.625455 265.964806 
L 284.858182 228.278494 
L 301.090909 244.452245 
L 317.323636 229.957759 
L 333.556364 244.288849 
L 349.789091 233.717426 
L 366.021818 215.049213 
L 382.254545 237.114778 
L 398.487273 220.396335 
" clip-path="url(#pd1053cd015)" style="fill: none; stroke: #31688e; stroke-opacity: 0.5; stroke-width: 1.5; stroke-linecap: square"/>
   </g>
   <g id="line2d_48">
    <path d="M 73.832727 273.470593 
L 90.065455 288.330453 
L 106.298182 287.618453 
L 122.530909 283.789176 
L 138.763636 248.632325 
L 154.996364 254.050348 
L 171.229091 257.288954 
L 187.461818 255.080113 
L 203.694545 255.278262 
L 219.927273 211.565125 
L 236.16 248.838785 
L 252.392727 221.22812 
L 268.625455 241.733801 
L 284.858182 217.007575 
L 301.090909 206.168846 
L 317.323636 240.555496 
L 333.556364 209.67567 
L 349.789091 200.866898 
L 366.021818 224.632076 
L 382.254545 200.10867 
L 398.487273 230.176169 
" clip-path="url(#pd1053cd015)" style="fill: none; stroke: #31688e; stroke-opacity: 0.5; stroke-width: 1.5; stroke-linecap: square"/>
   </g>
   <g id="line2d_49">
    <path d="M 73.832727 251.121961 
L 90.065455 223.880413 
L 106.298182 225.602153 
L 122.530909 214.096312 
L 138.763636 226.132858 
L 154.996364 226.005902 
L 171.229091 242.721415 
L 187.461818 228.752891 
L 203.694545 203.720026 
L 219.927273 239.137181 
L 236.16 210.293281 
L 252.392727 263.372838 
L 268.625455 208.667012 
L 284.858182 195.788815 
L 301.090909 182.579105 
L 317.323636 180.029289 
L 333.556364 211.886281 
L 349.789091 165.906753 
L 366.021818 173.220532 
L 382.254545 193.130892 
L 398.487273 192.118556 
" clip-path="url(#pd1053cd015)" style="fill: none; stroke: #31688e; stroke-opacity: 0.5; stroke-width: 1.5; stroke-linecap: square"/>
   </g>
   <g id="line2d_50">
    <path d="M 73.832727 275.423028 
L 90.065455 259.769924 
L 106.298182 278.700161 
L 122.530909 284.668642 
L 138.763636 281.389391 
L 154.996364 258.815767 
L 171.229091 270.326379 
L 187.461818 264.34104 
L 203.694545 289.632537 
L 219.927273 273.893797 
L 236.16 286.316107 
L 252.392727 266.898987 
L 268.625455 266.897163 
L 284.858182 257.585123 
L 301.090909 277.872262 
L 317.323636 254.2888 
L 333.556364 245.029572 
L 349.789091 257.013085 
L 366.021818 278.215255 
L 382.254545 261.65742 
L 398.487273 263.557545 
" clip-path="url(#pd1053cd015)" style="fill: none; stroke: #31688e; stroke-opacity: 0.5; stroke-width: 1.5; stroke-linecap: square"/>
   </g>
   <g id="line2d_51">
    <path d="M 73.832727 270.110763 
L 90.065455 270.564401 
L 106.298182 277.468739 
L 122.530909 275.987773 
L 138.763636 272.993398 
L 154.996364 240.189877 
L 171.229091 247.833104 
L 187.461818 258.673235 
L 203.694545 287.502922 
L 219.927273 280.439634 
L 236.16 283.13304 
L 252.392727 283.277228 
L 268.625455 252.656973 
L 284.858182 248.096035 
L 301.090909 242.700896 
L 317.323636 239.257103 
L 333.556364 217.427358 
L 349.789091 241.807704 
L 366.021818 269.040932 
L 382.254545 237.882841 
L 398.487273 255.019681 
" clip-path="url(#pd1053cd015)" style="fill: none; stroke: #31688e; stroke-opacity: 0.5; stroke-width: 1.5; stroke-linecap: square"/>
   </g>
   <g id="line2d_52">
    <path d="M 73.832727 247.41658 
L 90.065455 229.564149 
L 106.298182 249.332578 
L 122.530909 240.878041 
L 138.763636 246.352219 
L 154.996364 227.610731 
L 171.229091 243.431719 
L 187.461818 238.109538 
L 203.694545 237.562173 
L 219.927273 194.074437 
L 236.16 204.805681 
L 252.392727 210.756768 
L 268.625455 200.127952 
L 284.858182 189.334572 
L 301.090909 206.319004 
L 317.323636 202.447161 
L 333.556364 197.789047 
L 349.789091 213.244789 
L 366.021818 208.870757 
L 382.254545 200.11362 
L 398.487273 205.612087 
" clip-path="url(#pd1053cd015)" style="fill: none; stroke: #31688e; stroke-opacity: 0.5; stroke-width: 1.5; stroke-linecap: square"/>
   </g>
   <g id="line2d_53">
    <path d="M 73.832727 291.147283 
L 90.065455 281.80825 
L 106.298182 286.069085 
L 122.530909 260.863887 
L 138.763636 286.612059 
L 154.996364 291.328651 
L 171.229091 291.124254 
L 187.461818 284.022958 
L 203.694545 276.472051 
L 219.927273 284.471737 
L 236.16 276.829939 
L 252.392727 263.225714 
L 268.625455 261.444556 
L 284.858182 240.936561 
L 301.090909 276.445919 
L 317.323636 222.052598 
L 333.556364 252.164334 
L 349.789091 252.609389 
L 366.021818 258.294361 
L 382.254545 257.957188 
L 398.487273 234.005072 
" clip-path="url(#pd1053cd015)" style="fill: none; stroke: #31688e; stroke-opacity: 0.5; stroke-width: 1.5; stroke-linecap: square"/>
   </g>
   <g id="line2d_54">
    <path d="M 73.832727 277.968329 
L 90.065455 270.726142 
L 106.298182 262.244925 
L 122.530909 246.259216 
L 138.763636 256.697134 
L 154.996364 258.824686 
L 171.229091 270.621343 
L 187.461818 264.386399 
L 203.694545 241.046819 
L 219.927273 254.511566 
L 236.16 239.013052 
L 252.392727 273.202934 
L 268.625455 263.602446 
L 284.858182 240.45053 
L 301.090909 258.152385 
L 317.323636 219.979897 
L 333.556364 221.609317 
L 349.789091 224.244906 
L 366.021818 220.476069 
L 382.254545 241.245306 
L 398.487273 208.654036 
" clip-path="url(#pd1053cd015)" style="fill: none; stroke: #31688e; stroke-opacity: 0.5; stroke-width: 1.5; stroke-linecap: square"/>
   </g>
   <g id="line2d_55">
    <path d="M 73.832727 231.629707 
L 90.065455 228.611341 
L 106.298182 205.079616 
L 122.530909 189.260933 
L 138.763636 201.255721 
L 154.996364 160.468535 
L 171.229091 180.459276 
L 187.461818 196.063935 
L 203.694545 176.883936 
L 219.927273 201.12898 
L 236.16 187.570047 
L 252.392727 192.03811 
L 268.625455 231.594428 
L 284.858182 189.738884 
L 301.090909 195.094846 
L 317.323636 190.517523 
L 333.556364 156.587533 
L 349.789091 179.018972 
L 366.021818 194.856523 
L 382.254545 179.40567 
L 398.487273 180.063299 
" clip-path="url(#pd1053cd015)" style="fill: none; stroke: #31688e; stroke-opacity: 0.5; stroke-width: 1.5; stroke-linecap: square"/>
   </g>
   <g id="line2d_56">
    <path d="M 73.832727 267.691595 
L 90.065455 285.526871 
L 106.298182 278.09207 
L 122.530909 290.777902 
L 138.763636 291.398055 
L 154.996364 284.385298 
L 171.229091 281.143874 
L 187.461818 284.8718 
L 203.694545 257.418634 
L 219.927273 242.501371 
L 236.16 234.860301 
L 252.392727 231.947555 
L 268.625455 212.592154 
L 284.858182 247.459435 
L 301.090909 218.895527 
L 317.323636 223.203182 
L 333.556364 220.849935 
L 349.789091 233.775109 
L 366.021818 226.240928 
L 382.254545 206.673548 
L 398.487273 226.558505 
" clip-path="url(#pd1053cd015)" style="fill: none; stroke: #31688e; stroke-opacity: 0.5; stroke-width: 1.5; stroke-linecap: square"/>
   </g>
   <g id="line2d_57">
    <path d="M 73.832727 232.508351 
L 90.065455 266.20106 
L 106.298182 263.510708 
L 122.530909 250.015266 
L 138.763636 274.735761 
L 154.996364 239.013569 
L 171.229091 231.851643 
L 187.461818 217.958741 
L 203.694545 219.642488 
L 219.927273 193.053148 
L 236.16 197.098832 
L 252.392727 202.488802 
L 268.625455 199.028364 
L 284.858182 210.937314 
L 301.090909 203.797983 
L 317.323636 198.219539 
L 333.556364 188.325941 
L 349.789091 196.019616 
L 366.021818 178.150907 
L 382.254545 173.21568 
L 398.487273 197.517948 
" clip-path="url(#pd1053cd015)" style="fill: none; stroke: #31688e; stroke-opacity: 0.5; stroke-width: 1.5; stroke-linecap: square"/>
   </g>
   <g id="line2d_58">
    <path d="M 73.832727 224.805554 
L 90.065455 220.300423 
L 106.298182 222.262652 
L 122.530909 219.919902 
L 138.763636 219.64672 
L 154.996364 213.052299 
L 171.229091 212.506695 
L 187.461818 204.613898 
L 203.694545 202.591936 
L 219.927273 174.019024 
L 236.16 189.716448 
L 252.392727 186.525403 
L 268.625455 173.921513 
L 284.858182 184.263406 
L 301.090909 172.371549 
L 317.323636 207.303118 
L 333.556364 192.203269 
L 349.789091 203.187453 
L 366.021818 200.898817 
L 382.254545 192.467939 
L 398.487273 194.380134 
" clip-path="url(#pd1053cd015)" style="fill: none; stroke: #31688e; stroke-opacity: 0.5; stroke-width: 1.5; stroke-linecap: square"/>
   </g>
   <g id="line2d_59">
    <path d="M 73.832727 269.607355 
L 90.065455 270.20915 
L 106.298182 269.720587 
L 122.530909 273.269857 
L 138.763636 275.267245 
L 154.996364 248.020093 
L 171.229091 224.146213 
L 187.461818 235.203274 
L 203.694545 256.033775 
L 219.927273 252.488611 
L 236.16 272.630034 
L 252.392727 209.92415 
L 268.625455 260.243705 
L 284.858182 243.022638 
L 301.090909 236.422883 
L 317.323636 279.40543 
L 333.556364 222.843723 
L 349.789091 237.817634 
L 366.021818 236.610976 
L 382.254545 244.424861 
L 398.487273 255.046553 
" clip-path="url(#pd1053cd015)" style="fill: none; stroke: #31688e; stroke-opacity: 0.5; stroke-width: 1.5; stroke-linecap: square"/>
   </g>
   <g id="line2d_60">
    <path d="M 73.832727 258.438446 
L 90.065455 216.197399 
L 106.298182 218.640261 
L 122.530909 234.650154 
L 138.763636 228.742024 
L 154.996364 222.03113 
L 171.229091 190.629422 
L 187.461818 202.453211 
L 203.694545 206.181608 
L 219.927273 233.786605 
L 236.16 258.181265 
L 252.392727 216.82998 
L 268.625455 266.85344 
L 284.858182 226.806728 
L 301.090909 202.621428 
L 317.323636 255.41633 
L 333.556364 194.550269 
L 349.789091 218.303513 
L 366.021818 222.232185 
L 382.254545 200.337108 
L 398.487273 245.628278 
" clip-path="url(#pd1053cd015)" style="fill: none; stroke: #31688e; stroke-opacity: 0.5; stroke-width: 1.5; stroke-linecap: square"/>
   </g>
   <g id="line2d_61">
    <path d="M 73.832727 193.708949 
L 90.065455 173.059916 
L 106.298182 149.337203 
L 122.530909 190.490068 
L 138.763636 189.580088 
L 154.996364 157.198774 
L 171.229091 177.809319 
L 187.461818 170.012262 
L 203.694545 196.083299 
L 219.927273 182.926217 
L 236.16 159.996715 
L 252.392727 184.931577 
L 268.625455 164.248737 
L 284.858182 188.089236 
L 301.090909 164.339355 
L 317.323636 132.700313 
L 333.556364 148.194566 
L 349.789091 162.130391 
L 366.021818 140.440309 
L 382.254545 158.262153 
L 398.487273 155.509607 
" clip-path="url(#pd1053cd015)" style="fill: none; stroke: #31688e; stroke-opacity: 0.5; stroke-width: 1.5; stroke-linecap: square"/>
   </g>
   <g id="patch_3">
    <path d="M 57.6 307.584 
L 57.6 41.472 
" style="fill: none; stroke: #000000; stroke-width: 3; stroke-linejoin: miter; stroke-linecap: square"/>
   </g>
   <g id="patch_4">
    <path d="M 414.72 307.584 
L 414.72 41.472 
" style="fill: none; stroke: #000000; stroke-width: 3; stroke-linejoin: miter; stroke-linecap: square"/>
   </g>
   <g id="patch_5">
    <path d="M 57.6 307.584 
L 414.72 307.584 
" style="fill: none; stroke: #000000; stroke-width: 3; stroke-linejoin: miter; stroke-linecap: square"/>
   </g>
   <g id="patch_6">
    <path d="M 57.6 41.472 
L 414.72 41.472 
" style="fill: none; stroke: #000000; stroke-width: 3; stroke-linejoin: miter; stroke-linecap: square"/>
   </g>
   <g id="text_11">
    <!-- Atom Type C (n=51, mean Q=11.30) -->
    <g transform="translate(33.818437 35.472) scale(0.22 -0.22)">
     <defs>
      <path id="DejaVuSans-41" d="M 2188 4044 
L 1331 1722 
L 3047 1722 
L 2188 4044 
z
M 1831 4666 
L 2547 4666 
L 4325 0 
L 3669 0 
L 3244 1197 
L 1141 1197 
L 716 0 
L 50 0 
L 1831 4666 
z
" transform="scale(0.015625)"/>
      <path id="DejaVuSans-74" d="M 1172 4494 
L 1172 3500 
L 2356 3500 
L 2356 3053 
L 1172 3053 
L 1172 1153 
Q 1172 725 1289 603 
Q 1406 481 1766 481 
L 2356 481 
L 2356 0 
L 1766 0 
Q 1100 0 847 248 
Q 594 497 594 1153 
L 594 3053 
L 172 3053 
L 172 3500 
L 594 3500 
L 594 4494 
L 1172 4494 
z
" transform="scale(0.015625)"/>
      <path id="DejaVuSans-6f" d="M 1959 3097 
Q 1497 3097 1228 2736 
Q 959 2375 959 1747 
Q 959 1119 1226 758 
Q 1494 397 1959 397 
Q 2419 397 2687 759 
Q 2956 1122 2956 1747 
Q 2956 2369 2687 2733 
Q 2419 3097 1959 3097 
z
M 1959 3584 
Q 2709 3584 3137 3096 
Q 3566 2609 3566 1747 
Q 3566 888 3137 398 
Q 2709 -91 1959 -91 
Q 1206 -91 779 398 
Q 353 888 353 1747 
Q 353 2609 779 3096 
Q 1206 3584 1959 3584 
z
" transform="scale(0.015625)"/>
      <path id="DejaVuSans-6d" d="M 3328 2828 
Q 3544 3216 3844 3400 
Q 4144 3584 4550 3584 
Q 5097 3584 5394 3201 
Q 5691 2819 5691 2113 
L 5691 0 
L 5113 0 
L 5113 2094 
Q 5113 2597 4934 2840 
Q 4756 3084 4391 3084 
Q 3944 3084 3684 2787 
Q 3425 2491 3425 1978 
L 3425 0 
L 2847 0 
L 2847 2094 
Q 2847 2600 2669 2842 
Q 2491 3084 2119 3084 
Q 1678 3084 1418 2786 
Q 1159 2488 1159 1978 
L 1159 0 
L 581 0 
L 581 3500 
L 1159 3500 
L 1159 2956 
Q 1356 3278 1631 3431 
Q 1906 3584 2284 3584 
Q 2666 3584 2933 3390 
Q 3200 3197 3328 2828 
z
" transform="scale(0.015625)"/>
      <path id="DejaVuSans-20" transform="scale(0.015625)"/>
      <path id="DejaVuSans-54" d="M -19 4666 
L 3928 4666 
L 3928 4134 
L 2272 4134 
L 2272 0 
L 1638 0 
L 1638 4134 
L -19 4134 
L -19 4666 
z
" transform="scale(0.015625)"/>
      <path id="DejaVuSans-79" d="M 2059 -325 
Q 1816 -950 1584 -1140 
Q 1353 -1331 966 -1331 
L 506 -1331 
L 506 -850 
L 844 -850 
Q 1081 -850 1212 -737 
Q 1344 -625 1503 -206 
L 1606 56 
L 191 3500 
L 800 3500 
L 1894 763 
L 2988 3500 
L 3597 3500 
L 2059 -325 
z
" transform="scale(0.015625)"/>
      <path id="DejaVuSans-70" d="M 1159 525 
L 1159 -1331 
L 581 -1331 
L 581 3500 
L 1159 3500 
L 1159 2969 
Q 1341 3281 1617 3432 
Q 1894 3584 2278 3584 
Q 2916 3584 3314 3078 
Q 3713 2572 3713 1747 
Q 3713 922 3314 415 
Q 2916 -91 2278 -91 
Q 1894 -91 1617 61 
Q 1341 213 1159 525 
z
M 3116 1747 
Q 3116 2381 2855 2742 
Q 2594 3103 2138 3103 
Q 1681 3103 1420 2742 
Q 1159 2381 1159 1747 
Q 1159 1113 1420 752 
Q 1681 391 2138 391 
Q 2594 391 2855 752 
Q 3116 1113 3116 1747 
z
" transform="scale(0.015625)"/>
      <path id="DejaVuSans-65" d="M 3597 1894 
L 3597 1613 
L 953 1613 
Q 991 1019 1311 708 
Q 1631 397 2203 397 
Q 2534 397 2845 478 
Q 3156 559 3463 722 
L 3463 178 
Q 3153 47 2828 -22 
Q 2503 -91 2169 -91 
Q 1331 -91 842 396 
Q 353 884 353 1716 
Q 353 2575 817 3079 
Q 1281 3584 2069 3584 
Q 2775 3584 3186 3129 
Q 3597 2675 3597 1894 
z
M 3022 2063 
Q 3016 2534 2758 2815 
Q 2500 3097 2075 3097 
Q 1594 3097 1305 2825 
Q 1016 2553 972 2059 
L 3022 2063 
z
" transform="scale(0.015625)"/>
      <path id="DejaVuSans-43" d="M 4122 4306 
L 4122 3641 
Q 3803 3938 3442 4084 
Q 3081 4231 2675 4231 
Q 1875 4231 1450 3742 
Q 1025 3253 1025 2328 
Q 1025 1406 1450 917 
Q 1875 428 2675 428 
Q 3081 428 3442 575 
Q 3803 722 4122 1019 
L 4122 359 
Q 3791 134 3420 21 
Q 3050 -91 2638 -91 
Q 1578 -91 968 557 
Q 359 1206 359 2328 
Q 359 3453 968 4101 
Q 1578 4750 2638 4750 
Q 3056 4750 3426 4639 
Q 3797 4528 4122 4306 
z
" transform="scale(0.015625)"/>
      <path id="DejaVuSans-28" d="M 1984 4856 
Q 1566 4138 1362 3434 
Q 1159 2731 1159 2009 
Q 1159 1288 1364 580 
Q 1569 -128 1984 -844 
L 1484 -844 
Q 1016 -109 783 600 
Q 550 1309 550 2009 
Q 550 2706 781 3412 
Q 1013 4119 1484 4856 
L 1984 4856 
z
" transform="scale(0.015625)"/>
      <path id="DejaVuSans-6e" d="M 3513 2113 
L 3513 0 
L 2938 0 
L 2938 2094 
Q 2938 2591 2744 2837 
Q 2550 3084 2163 3084 
Q 1697 3084 1428 2787 
Q 1159 2491 1159 1978 
L 1159 0 
L 581 0 
L 581 3500 
L 1159 3500 
L 1159 2956 
Q 1366 3272 1645 3428 
Q 1925 3584 2291 3584 
Q 2894 3584 3203 3211 
Q 3513 2838 3513 2113 
z
" transform="scale(0.015625)"/>
      <path id="DejaVuSans-3d" d="M 678 2906 
L 4684 2906 
L 4684 2381 
L 678 2381 
L 678 2906 
z
M 678 1631 
L 4684 1631 
L 4684 1100 
L 678 1100 
L 678 1631 
z
" transform="scale(0.015625)"/>
      <path id="DejaVuSans-2c" d="M 750 794 
L 1409 794 
L 1409 256 
L 897 -744 
L 494 -744 
L 750 256 
L 750 794 
z
" transform="scale(0.015625)"/>
      <path id="DejaVuSans-61" d="M 2194 1759 
Q 1497 1759 1228 1600 
Q 959 1441 959 1056 
Q 959 750 1161 570 
Q 1363 391 1709 391 
Q 2188 391 2477 730 
Q 2766 1069 2766 1631 
L 2766 1759 
L 2194 1759 
z
M 3341 1997 
L 3341 0 
L 2766 0 
L 2766 531 
Q 2569 213 2275 61 
Q 1981 -91 1556 -91 
Q 1019 -91 701 211 
Q 384 513 384 1019 
Q 384 1609 779 1909 
Q 1175 2209 1959 2209 
L 2766 2209 
L 2766 2266 
Q 2766 2663 2505 2880 
Q 2244 3097 1772 3097 
Q 1472 3097 1187 3025 
Q 903 2953 641 2809 
L 641 3341 
Q 956 3463 1253 3523 
Q 1550 3584 1831 3584 
Q 2591 3584 2966 3190 
Q 3341 2797 3341 1997 
z
" transform="scale(0.015625)"/>
      <path id="DejaVuSans-51" d="M 2522 4238 
Q 1834 4238 1429 3725 
Q 1025 3213 1025 2328 
Q 1025 1447 1429 934 
Q 1834 422 2522 422 
Q 3209 422 3611 934 
Q 4013 1447 4013 2328 
Q 4013 3213 3611 3725 
Q 3209 4238 2522 4238 
z
M 3406 84 
L 4238 -825 
L 3475 -825 
L 2784 -78 
Q 2681 -84 2626 -87 
Q 2572 -91 2522 -91 
Q 1538 -91 948 567 
Q 359 1225 359 2328 
Q 359 3434 948 4092 
Q 1538 4750 2522 4750 
Q 3503 4750 4090 4092 
Q 4678 3434 4678 2328 
Q 4678 1516 4351 937 
Q 4025 359 3406 84 
z
" transform="scale(0.015625)"/>
      <path id="DejaVuSans-2e" d="M 684 794 
L 1344 794 
L 1344 0 
L 684 0 
L 684 794 
z
" transform="scale(0.015625)"/>
      <path id="DejaVuSans-33" d="M 2597 2516 
Q 3050 2419 3304 2112 
Q 3559 1806 3559 1356 
Q 3559 666 3084 287 
Q 2609 -91 1734 -91 
Q 1441 -91 1130 -33 
Q 819 25 488 141 
L 488 750 
Q 750 597 1062 519 
Q 1375 441 1716 441 
Q 2309 441 2620 675 
Q 2931 909 2931 1356 
Q 2931 1769 2642 2001 
Q 2353 2234 1838 2234 
L 1294 2234 
L 1294 2753 
L 1863 2753 
Q 2328 2753 2575 2939 
Q 2822 3125 2822 3475 
Q 2822 3834 2567 4026 
Q 2313 4219 1838 4219 
Q 1578 4219 1281 4162 
Q 984 4106 628 3988 
L 628 4550 
Q 988 4650 1302 4700 
Q 1616 4750 1894 4750 
Q 2613 4750 3031 4423 
Q 3450 4097 3450 3541 
Q 3450 3153 3228 2886 
Q 3006 2619 2597 2516 
z
" transform="scale(0.015625)"/>
      <path id="DejaVuSans-29" d="M 513 4856 
L 1013 4856 
Q 1481 4119 1714 3412 
Q 1947 2706 1947 2009 
Q 1947 1309 1714 600 
Q 1481 -109 1013 -844 
L 513 -844 
Q 928 -128 1133 580 
Q 1338 1288 1338 2009 
Q 1338 2731 1133 3434 
Q 928 4138 513 4856 
z
" transform="scale(0.015625)"/>
     </defs>
     <use xlink:href="#DejaVuSans-41"/>
     <use xlink:href="#DejaVuSans-74" transform="translate(66.658203 0)"/>
     <use xlink:href="#DejaVuSans-6f" transform="translate(105.867188 0)"/>
     <use xlink:href="#DejaVuSans-6d" transform="translate(167.048828 0)"/>
     <use xlink:href="#DejaVuSans-20" transform="translate(264.460938 0)"/>
     <use xlink:href="#DejaVuSans-54" transform="translate(296.248047 0)"/>
     <use xlink:href="#DejaVuSans-79" transform="translate(341.707031 0)"/>
     <use xlink:href="#DejaVuSans-70" transform="translate(400.886719 0)"/>
     <use xlink:href="#DejaVuSans-65" transform="translate(464.363281 0)"/>
     <use xlink:href="#DejaVuSans-20" transform="translate(525.886719 0)"/>
     <use xlink:href="#DejaVuSans-43" transform="translate(557.673828 0)"/>
     <use xlink:href="#DejaVuSans-20" transform="translate(627.498047 0)"/>
     <use xlink:href="#DejaVuSans-28" transform="translate(659.285156 0)"/>
     <use xlink:href="#DejaVuSans-6e" transform="translate(698.298828 0)"/>
     <use xlink:href="#DejaVuSans-3d" transform="translate(761.677734 0)"/>
     <use xlink:href="#DejaVuSans-35" transform="translate(845.466797 0)"/>
     <use xlink:href="#DejaVuSans-31" transform="translate(909.089844 0)"/>
     <use xlink:href="#DejaVuSans-2c" transform="translate(972.712891 0)"/>
     <use xlink:href="#DejaVuSans-20" transform="translate(1004.5 0)"/>
     <use xlink:href="#DejaVuSans-6d" transform="translate(1036.287109 0)"/>
     <use xlink:href="#DejaVuSans-65" transform="translate(1133.699219 0)"/>
     <use xlink:href="#DejaVuSans-61" transform="translate(1195.222656 0)"/>
     <use xlink:href="#DejaVuSans-6e" transform="translate(1256.501953 0)"/>
     <use xlink:href="#DejaVuSans-20" transform="translate(1319.880859 0)"/>
     <use xlink:href="#DejaVuSans-51" transform="translate(1351.667969 0)"/>
     <use xlink:href="#DejaVuSans-3d" transform="translate(1430.378906 0)"/>
     <use xlink:href="#DejaVuSans-31" transform="translate(1514.167969 0)"/>
     <use xlink:href="#DejaVuSans-31" transform="translate(1577.791016 0)"/>
     <use xlink:href="#DejaVuSans-2e" transform="translate(1641.414062 0)"/>
     <use xlink:href="#DejaVuSans-33" transform="translate(1673.201172 0)"/>
     <use xlink:href="#DejaVuSans-30" transform="translate(1736.824219 0)"/>
     <use xlink:href="#DejaVuSans-29" transform="translate(1800.447266 0)"/>
    </g>
   </g>
  </g>
 </g>
 <defs>
  <clipPath id="pd1053cd015">
   <rect x="57.6" y="41.472" width="357.12" height="266.112"/>
  </clipPath>
 </defs>
</svg>
