<?xml version="1.0" encoding="utf-8" standalone="no"?>
<!DOCTYPE svg PUBLIC "-//W3C//DTD SVG 1.1//EN"
  "http://www.w3.org/Graphics/SVG/1.1/DTD/svg11.dtd">
<svg xmlns:xlink="http://www.w3.org/1999/xlink" width="460.8pt" height="345.6pt" viewBox="0 0 460.8 345.6" xmlns="http://www.w3.org/2000/svg" version="1.1">
 <metadata>
  <rdf:RDF xmlns:dc="http://purl.org/dc/elements/1.1/" xmlns:cc="http://creativecommons.org/ns#" xmlns:rdf="http://www.w3.org/1999/02/22-rdf-syntax-ns#">
   <cc:Work>
    <dc:type rdf:resource="http://purl.org/dc/dcmitype/StillImage"/>
    <dc:date>2025-12-10T13:47:56.673476</dc:date>
    <dc:format>image/svg+xml</dc:format>
    <dc:creator>
     <cc:Agent>
      <dc:title>Matplotlib v3.10.3, https://matplotlib.org/</dc:title>
     </cc:Agent>
    </dc:creator>
   </cc:Work>
  </rdf:RDF>
 </metadata>
 <defs>
  <style type="text/css">*{stroke-linejoin: round; stroke-linecap: butt}</style>
 </defs>
 <g id="figure_1">
  <g id="patch_1">
   <path d="M 0 345.6 
L 460.8 345.6 
L 460.8 0 
L 0 0 
z
" style="fill: #ffffff"/>
  </g>
  <g id="axes_1">
   <g id="patch_2">
    <path d="M 57.6 307.584 
L 414.72 307.584 
L 414.72 41.472 
L 57.6 41.472 
z
" style="fill: #ffffff"/>
   </g>
   <g id="matplotlib.axis_1">
    <g id="xtick_1">
     <g id="line2d_1">
      <defs>
       <path id="ma975f54e6c" d="M 0 0 
L 0 3.5 
" style="stroke: #000000; stroke-width: 0.8"/>
      </defs>
      <g>
       <use xlink:href="#ma975f54e6c" x="73.832727" y="307.584" style="stroke: #000000; stroke-width: 0.8"/>
      </g>
     </g>
     <g id="text_1">
      <!-- 0 -->
      <g transform="translate(69.060852 325.981656) scale(0.15 -0.15)">
       <defs>
        <path id="DejaVuSans-30" d="M 2034 4250 
Q 1547 4250 1301 3770 
Q 1056 3291 1056 2328 
Q 1056 1369 1301 889 
Q 1547 409 2034 409 
Q 2525 409 2770 889 
Q 3016 1369 3016 2328 
Q 3016 3291 2770 3770 
Q 2525 4250 2034 4250 
z
M 2034 4750 
Q 2819 4750 3233 4129 
Q 3647 3509 3647 2328 
Q 3647 1150 3233 529 
Q 2819 -91 2034 -91 
Q 1250 -91 836 529 
Q 422 1150 422 2328 
Q 422 3509 836 4129 
Q 1250 4750 2034 4750 
z
" transform="scale(0.015625)"/>
       </defs>
       <use xlink:href="#DejaVuSans-30"/>
      </g>
     </g>
    </g>
    <g id="xtick_2">
     <g id="line2d_2">
      <g>
       <use xlink:href="#ma975f54e6c" x="154.996364" y="307.584" style="stroke: #000000; stroke-width: 0.8"/>
      </g>
     </g>
     <g id="text_2">
      <!-- 5 -->
      <g transform="translate(150.224489 325.981656) scale(0.15 -0.15)">
       <defs>
        <path id="DejaVuSans-35" d="M 691 4666 
L 3169 4666 
L 3169 4134 
L 1269 4134 
L 1269 2991 
Q 1406 3038 1543 3061 
Q 1681 3084 1819 3084 
Q 2600 3084 3056 2656 
Q 3513 2228 3513 1497 
Q 3513 744 3044 326 
Q 2575 -91 1722 -91 
Q 1428 -91 1123 -41 
Q 819 9 494 109 
L 494 744 
Q 775 591 1075 516 
Q 1375 441 1709 441 
Q 2250 441 2565 725 
Q 2881 1009 2881 1497 
Q 2881 1984 2565 2268 
Q 2250 2553 1709 2553 
Q 1456 2553 1204 2497 
Q 953 2441 691 2322 
L 691 4666 
z
" transform="scale(0.015625)"/>
       </defs>
       <use xlink:href="#DejaVuSans-35"/>
      </g>
     </g>
    </g>
    <g id="xtick_3">
     <g id="line2d_3">
      <g>
       <use xlink:href="#ma975f54e6c" x="236.16" y="307.584" style="stroke: #000000; stroke-width: 0.8"/>
      </g>
     </g>
     <g id="text_3">
      <!-- 10 -->
      <g transform="translate(226.61625 325.981656) scale(0.15 -0.15)">
       <defs>
        <path id="DejaVuSans-31" d="M 794 531 
L 1825 531 
L 1825 4091 
L 703 3866 
L 703 4441 
L 1819 4666 
L 2450 4666 
L 2450 531 
L 3481 531 
L 3481 0 
L 794 0 
L 794 531 
z
" transform="scale(0.015625)"/>
       </defs>
       <use xlink:href="#DejaVuSans-31"/>
       <use xlink:href="#DejaVuSans-30" transform="translate(63.623047 0)"/>
      </g>
     </g>
    </g>
    <g id="xtick_4">
     <g id="line2d_4">
      <g>
       <use xlink:href="#ma975f54e6c" x="317.323636" y="307.584" style="stroke: #000000; stroke-width: 0.8"/>
      </g>
     </g>
     <g id="text_4">
      <!-- 15 -->
      <g transform="translate(307.779886 325.981656) scale(0.15 -0.15)">
       <use xlink:href="#DejaVuSans-31"/>
       <use xlink:href="#DejaVuSans-35" transform="translate(63.623047 0)"/>
      </g>
     </g>
    </g>
    <g id="xtick_5">
     <g id="line2d_5">
      <g>
       <use xlink:href="#ma975f54e6c" x="398.487273" y="307.584" style="stroke: #000000; stroke-width: 0.8"/>
      </g>
     </g>
     <g id="text_5">
      <!-- 20 -->
      <g transform="translate(388.943523 325.981656) scale(0.15 -0.15)">
       <defs>
        <path id="DejaVuSans-32" d="M 1228 531 
L 3431 531 
L 3431 0 
L 469 0 
L 469 531 
Q 828 903 1448 1529 
Q 2069 2156 2228 2338 
Q 2531 2678 2651 2914 
Q 2772 3150 2772 3378 
Q 2772 3750 2511 3984 
Q 2250 4219 1831 4219 
Q 1534 4219 1204 4116 
Q 875 4013 500 3803 
L 500 4441 
Q 881 4594 1212 4672 
Q 1544 4750 1819 4750 
Q 2544 4750 2975 4387 
Q 3406 4025 3406 3419 
Q 3406 3131 3298 2873 
Q 3191 2616 2906 2266 
Q 2828 2175 2409 1742 
Q 1991 1309 1228 531 
z
" transform="scale(0.015625)"/>
       </defs>
       <use xlink:href="#DejaVuSans-32"/>
       <use xlink:href="#DejaVuSans-30" transform="translate(63.623047 0)"/>
      </g>
     </g>
    </g>
   </g>
   <g id="matplotlib.axis_2">
    <g id="ytick_1">
     <g id="line2d_6">
      <defs>
       <path id="m13fae3c463" d="M 0 0 
L -3.5 0 
" style="stroke: #000000; stroke-width: 0.8"/>
      </defs>
      <g>
       <use xlink:href="#m13fae3c463" x="57.6" y="273.561266" style="stroke: #000000; stroke-width: 0.8"/>
      </g>
     </g>
     <g id="text_6">
      <!-- 5.0 -->
      <g transform="translate(26.745313 279.260095) scale(0.15 -0.15)">
       <defs>
        <path id="DejaVuSans-2e" d="M 684 794 
L 1344 794 
L 1344 0 
L 684 0 
L 684 794 
z
" transform="scale(0.015625)"/>
       </defs>
       <use xlink:href="#DejaVuSans-35"/>
       <use xlink:href="#DejaVuSans-2e" transform="translate(63.623047 0)"/>
       <use xlink:href="#DejaVuSans-30" transform="translate(95.410156 0)"/>
      </g>
     </g>
    </g>
    <g id="ytick_2">
     <g id="line2d_7">
      <g>
       <use xlink:href="#m13fae3c463" x="57.6" y="234.931597" style="stroke: #000000; stroke-width: 0.8"/>
      </g>
     </g>
     <g id="text_7">
      <!-- 7.5 -->
      <g transform="translate(26.745313 240.630426) scale(0.15 -0.15)">
       <defs>
        <path id="DejaVuSans-37" d="M 525 4666 
L 3525 4666 
L 3525 4397 
L 1831 0 
L 1172 0 
L 2766 4134 
L 525 4134 
L 525 4666 
z
" transform="scale(0.015625)"/>
       </defs>
       <use xlink:href="#DejaVuSans-37"/>
       <use xlink:href="#DejaVuSans-2e" transform="translate(63.623047 0)"/>
       <use xlink:href="#DejaVuSans-35" transform="translate(95.410156 0)"/>
      </g>
     </g>
    </g>
    <g id="ytick_3">
     <g id="line2d_8">
      <g>
       <use xlink:href="#m13fae3c463" x="57.6" y="196.301929" style="stroke: #000000; stroke-width: 0.8"/>
      </g>
     </g>
     <g id="text_8">
      <!-- 10.0 -->
      <g transform="translate(17.201563 202.000757) scale(0.15 -0.15)">
       <use xlink:href="#DejaVuSans-31"/>
       <use xlink:href="#DejaVuSans-30" transform="translate(63.623047 0)"/>
       <use xlink:href="#DejaVuSans-2e" transform="translate(127.246094 0)"/>
       <use xlink:href="#DejaVuSans-30" transform="translate(159.033203 0)"/>
      </g>
     </g>
    </g>
    <g id="ytick_4">
     <g id="line2d_9">
      <g>
       <use xlink:href="#m13fae3c463" x="57.6" y="157.67226" style="stroke: #000000; stroke-width: 0.8"/>
      </g>
     </g>
     <g id="text_9">
      <!-- 12.5 -->
      <g transform="translate(17.201563 163.371088) scale(0.15 -0.15)">
       <use xlink:href="#DejaVuSans-31"/>
       <use xlink:href="#DejaVuSans-32" transform="translate(63.623047 0)"/>
       <use xlink:href="#DejaVuSans-2e" transform="translate(127.246094 0)"/>
       <use xlink:href="#DejaVuSans-35" transform="translate(159.033203 0)"/>
      </g>
     </g>
    </g>
    <g id="ytick_5">
     <g id="line2d_10">
      <g>
       <use xlink:href="#m13fae3c463" x="57.6" y="119.042591" style="stroke: #000000; stroke-width: 0.8"/>
      </g>
     </g>
     <g id="text_10">
      <!-- 15.0 -->
      <g transform="translate(17.201563 124.741419) scale(0.15 -0.15)">
       <use xlink:href="#DejaVuSans-31"/>
       <use xlink:href="#DejaVuSans-35" transform="translate(63.623047 0)"/>
       <use xlink:href="#DejaVuSans-2e" transform="translate(127.246094 0)"/>
       <use xlink:href="#DejaVuSans-30" transform="translate(159.033203 0)"/>
      </g>
     </g>
    </g>
    <g id="ytick_6">
     <g id="line2d_11">
      <g>
       <use xlink:href="#m13fae3c463" x="57.6" y="80.412922" style="stroke: #000000; stroke-width: 0.8"/>
      </g>
     </g>
     <g id="text_11">
      <!-- 17.5 -->
      <g transform="translate(17.201563 86.11175) scale(0.15 -0.15)">
       <use xlink:href="#DejaVuSans-31"/>
       <use xlink:href="#DejaVuSans-37" transform="translate(63.623047 0)"/>
       <use xlink:href="#DejaVuSans-2e" transform="translate(127.246094 0)"/>
       <use xlink:href="#DejaVuSans-35" transform="translate(159.033203 0)"/>
      </g>
     </g>
    </g>
    <g id="ytick_7">
     <g id="line2d_12">
      <g>
       <use xlink:href="#m13fae3c463" x="57.6" y="41.783253" style="stroke: #000000; stroke-width: 0.8"/>
      </g>
     </g>
     <g id="text_12">
      <!-- 20.0 -->
      <g transform="translate(17.201563 47.482081) scale(0.15 -0.15)">
       <use xlink:href="#DejaVuSans-32"/>
       <use xlink:href="#DejaVuSans-30" transform="translate(63.623047 0)"/>
       <use xlink:href="#DejaVuSans-2e" transform="translate(127.246094 0)"/>
       <use xlink:href="#DejaVuSans-30" transform="translate(159.033203 0)"/>
      </g>
     </g>
    </g>
   </g>
   <g id="line2d_13">
    <path d="M 73.832727 197.788873 
L 90.065455 186.453116 
L 106.298182 233.054661 
L 122.530909 247.767227 
L 138.763636 190.06505 
L 154.996364 211.828238 
L 171.229091 227.834255 
L 187.461818 152.713736 
L 203.694545 174.638033 
L 219.927273 167.874482 
L 236.16 194.876836 
L 252.392727 170.022705 
L 268.625455 83.761149 
L 284.858182 107.309636 
L 301.090909 53.568 
L 317.323636 88.346219 
L 333.556364 188.562305 
L 349.789091 143.356229 
L 366.021818 154.188323 
L 382.254545 150.347391 
L 398.487273 111.623431 
" clip-path="url(#p1c9a9bfde7)" style="fill: none; stroke: #35b779; stroke-opacity: 0.5; stroke-width: 1.5; stroke-linecap: square"/>
   </g>
   <g id="line2d_14">
    <path d="M 73.832727 230.460349 
L 90.065455 230.53665 
L 106.298182 232.044342 
L 122.530909 219.995018 
L 138.763636 151.010802 
L 154.996364 192.312896 
L 171.229091 233.020021 
L 187.461818 231.794696 
L 203.694545 113.853911 
L 219.927273 180.259154 
L 236.16 160.365749 
L 252.392727 170.343422 
L 268.625455 122.436734 
L 284.858182 140.721358 
L 301.090909 127.679292 
L 317.323636 135.475042 
L 333.556364 199.083647 
L 349.789091 123.253166 
L 366.021818 141.434222 
L 382.254545 86.793246 
L 398.487273 195.457466 
" clip-path="url(#p1c9a9bfde7)" style="fill: none; stroke: #35b779; stroke-opacity: 0.5; stroke-width: 1.5; stroke-linecap: square"/>
   </g>
   <g id="line2d_15">
    <path d="M 73.832727 152.200471 
L 90.065455 159.84527 
L 106.298182 238.462602 
L 122.530909 161.808728 
L 138.763636 190.388879 
L 154.996364 166.653996 
L 171.229091 130.484212 
L 187.461818 135.778697 
L 203.694545 125.754161 
L 219.927273 157.334352 
L 236.16 134.624097 
L 252.392727 113.657622 
L 268.625455 118.825645 
L 284.858182 105.603556 
L 301.090909 199.434723 
L 317.323636 162.791945 
L 333.556364 167.760093 
L 349.789091 183.26737 
L 366.021818 161.03285 
L 382.254545 163.520083 
L 398.487273 202.432454 
" clip-path="url(#p1c9a9bfde7)" style="fill: none; stroke: #35b779; stroke-opacity: 0.5; stroke-width: 1.5; stroke-linecap: square"/>
   </g>
   <g id="line2d_16">
    <path d="M 73.832727 201.034346 
L 90.065455 241.438465 
L 106.298182 181.178285 
L 122.530909 217.54178 
L 138.763636 267.982702 
L 154.996364 194.053476 
L 171.229091 222.071041 
L 187.461818 210.144575 
L 203.694545 189.774446 
L 219.927273 229.571976 
L 236.16 208.336221 
L 252.392727 153.351016 
L 268.625455 240.466948 
L 284.858182 229.170694 
L 301.090909 190.953435 
L 317.323636 265.629232 
L 333.556364 270.591583 
L 349.789091 241.244151 
L 366.021818 222.660474 
L 382.254545 207.941672 
L 398.487273 213.992047 
" clip-path="url(#p1c9a9bfde7)" style="fill: none; stroke: #35b779; stroke-opacity: 0.5; stroke-width: 1.5; stroke-linecap: square"/>
   </g>
   <g id="line2d_17">
    <path d="M 73.832727 277.425233 
L 90.065455 267.994461 
L 106.298182 263.094901 
L 122.530909 283.534372 
L 138.763636 231.421334 
L 154.996364 239.647301 
L 171.229091 209.221752 
L 187.461818 243.899558 
L 203.694545 225.18612 
L 219.927273 259.867087 
L 236.16 249.775566 
L 252.392727 192.696296 
L 268.625455 227.437232 
L 284.858182 244.443503 
L 301.090909 276.329029 
L 317.323636 265.161652 
L 333.556364 228.694228 
L 349.789091 225.911372 
L 366.021818 201.372278 
L 382.254545 192.027221 
L 398.487273 159.904751 
" clip-path="url(#p1c9a9bfde7)" style="fill: none; stroke: #35b779; stroke-opacity: 0.5; stroke-width: 1.5; stroke-linecap: square"/>
   </g>
   <g id="line2d_18">
    <path d="M 73.832727 186.266724 
L 90.065455 256.759781 
L 106.298182 224.806648 
L 122.530909 163.04444 
L 138.763636 210.875057 
L 154.996364 169.914051 
L 171.229091 195.875266 
L 187.461818 178.876039 
L 203.694545 191.319725 
L 219.927273 139.34099 
L 236.16 127.389561 
L 252.392727 232.16294 
L 268.625455 148.305646 
L 284.858182 156.62503 
L 301.090909 162.782469 
L 317.323636 117.130032 
L 333.556364 123.818654 
L 349.789091 121.379716 
L 366.021818 131.139703 
L 382.254545 161.393842 
L 398.487273 146.653978 
" clip-path="url(#p1c9a9bfde7)" style="fill: none; stroke: #35b779; stroke-opacity: 0.5; stroke-width: 1.5; stroke-linecap: square"/>
   </g>
   <g id="line2d_19">
    <path d="M 73.832727 240.76184 
L 90.065455 273.191253 
L 106.298182 284.953862 
L 122.530909 252.443318 
L 138.763636 268.830109 
L 154.996364 258.426411 
L 171.229091 210.114473 
L 187.461818 261.302334 
L 203.694545 231.832223 
L 219.927273 196.291296 
L 236.16 197.346339 
L 252.392727 175.779121 
L 268.625455 176.514882 
L 284.858182 166.613085 
L 301.090909 192.612386 
L 317.323636 140.399457 
L 333.556364 162.165761 
L 349.789091 108.193027 
L 366.021818 112.74601 
L 382.254545 196.565904 
L 398.487273 148.853874 
" clip-path="url(#p1c9a9bfde7)" style="fill: none; stroke: #35b779; stroke-opacity: 0.5; stroke-width: 1.5; stroke-linecap: square"/>
   </g>
   <g id="line2d_20">
    <path d="M 73.832727 163.267983 
L 90.065455 185.144964 
L 106.298182 202.039308 
L 122.530909 224.065858 
L 138.763636 205.359895 
L 154.996364 144.853307 
L 171.229091 172.284372 
L 187.461818 262.804091 
L 203.694545 232.39257 
L 219.927273 217.483974 
L 236.16 226.111306 
L 252.392727 243.858447 
L 268.625455 218.354903 
L 284.858182 200.605407 
L 301.090909 245.966077 
L 317.323636 243.958612 
L 333.556364 247.196984 
L 349.789091 238.78829 
L 366.021818 226.990039 
L 382.254545 222.812226 
L 398.487273 179.36859 
" clip-path="url(#p1c9a9bfde7)" style="fill: none; stroke: #35b779; stroke-opacity: 0.5; stroke-width: 1.5; stroke-linecap: square"/>
   </g>
   <g id="line2d_21">
    <path d="M 73.832727 264.107231 
L 90.065455 272.639056 
L 106.298182 265.839122 
L 122.530909 285.888774 
L 138.763636 276.662532 
L 154.996364 235.553829 
L 171.229091 237.89845 
L 187.461818 251.608529 
L 203.694545 269.567871 
L 219.927273 237.134309 
L 236.16 233.517977 
L 252.392727 243.799361 
L 268.625455 234.968677 
L 284.858182 274.901821 
L 301.090909 266.759291 
L 317.323636 252.112234 
L 333.556364 236.299498 
L 349.789091 225.419057 
L 366.021818 215.675692 
L 382.254545 233.507476 
L 398.487273 229.025585 
" clip-path="url(#p1c9a9bfde7)" style="fill: none; stroke: #35b779; stroke-opacity: 0.5; stroke-width: 1.5; stroke-linecap: square"/>
   </g>
   <g id="line2d_22">
    <path d="M 73.832727 72.068601 
L 90.065455 215.705418 
L 106.298182 195.301639 
L 122.530909 233.906539 
L 138.763636 224.074998 
L 154.996364 200.293943 
L 171.229091 234.513445 
L 187.461818 200.026536 
L 203.694545 227.089273 
L 219.927273 178.074373 
L 236.16 196.729666 
L 252.392727 162.691716 
L 268.625455 162.805179 
L 284.858182 170.67666 
L 301.090909 178.059746 
L 317.323636 204.354137 
L 333.556364 204.968864 
L 349.789091 176.423079 
L 366.021818 169.634314 
L 382.254545 146.627497 
L 398.487273 193.611047 
" clip-path="url(#p1c9a9bfde7)" style="fill: none; stroke: #35b779; stroke-opacity: 0.5; stroke-width: 1.5; stroke-linecap: square"/>
   </g>
   <g id="line2d_23">
    <path d="M 73.832727 258.418804 
L 90.065455 244.484391 
L 106.298182 192.548966 
L 122.530909 229.087269 
L 138.763636 228.527724 
L 154.996364 236.041502 
L 171.229091 250.265578 
L 187.461818 221.780327 
L 203.694545 214.948126 
L 219.927273 215.667647 
L 236.16 173.413598 
L 252.392727 208.430875 
L 268.625455 159.889383 
L 284.858182 111.325729 
L 301.090909 157.990288 
L 317.323636 124.12045 
L 333.556364 134.433223 
L 349.789091 104.732967 
L 366.021818 156.50086 
L 382.254545 161.190828 
L 398.487273 200.266457 
" clip-path="url(#p1c9a9bfde7)" style="fill: none; stroke: #35b779; stroke-opacity: 0.5; stroke-width: 1.5; stroke-linecap: square"/>
   </g>
   <g id="line2d_24">
    <path d="M 73.832727 234.256069 
L 90.065455 247.324072 
L 106.298182 229.431866 
L 122.530909 293.971615 
L 138.763636 215.366678 
L 154.996364 210.834842 
L 171.229091 260.159225 
L 187.461818 234.454471 
L 203.694545 249.949514 
L 219.927273 225.800281 
L 236.16 240.998491 
L 252.392727 254.405634 
L 268.625455 160.281782 
L 284.858182 167.726792 
L 301.090909 127.951759 
L 317.323636 130.724536 
L 333.556364 141.217546 
L 349.789091 186.299557 
L 366.021818 109.237375 
L 382.254545 222.038873 
L 398.487273 205.817077 
" clip-path="url(#p1c9a9bfde7)" style="fill: none; stroke: #35b779; stroke-opacity: 0.5; stroke-width: 1.5; stroke-linecap: square"/>
   </g>
   <g id="line2d_25">
    <path d="M 73.832727 181.570708 
L 90.065455 228.85011 
L 106.298182 231.424558 
L 122.530909 229.598755 
L 138.763636 281.719602 
L 154.996364 200.23111 
L 171.229091 255.757161 
L 187.461818 248.438808 
L 203.694545 137.245646 
L 219.927273 217.209898 
L 236.16 157.093798 
L 252.392727 140.972257 
L 268.625455 166.58441 
L 284.858182 153.884975 
L 301.090909 143.083774 
L 317.323636 160.412336 
L 333.556364 169.124625 
L 349.789091 157.601944 
L 366.021818 160.657936 
L 382.254545 155.238945 
L 398.487273 164.258513 
" clip-path="url(#p1c9a9bfde7)" style="fill: none; stroke: #35b779; stroke-opacity: 0.5; stroke-width: 1.5; stroke-linecap: square"/>
   </g>
   <g id="line2d_26">
    <path d="M 73.832727 238.673687 
L 90.065455 257.087367 
L 106.298182 247.44114 
L 122.530909 274.054706 
L 138.763636 222.769894 
L 154.996364 216.688586 
L 171.229091 248.488306 
L 187.461818 277.097801 
L 203.694545 265.690388 
L 219.927273 218.634703 
L 236.16 267.368031 
L 252.392727 217.149045 
L 268.625455 232.56728 
L 284.858182 235.972848 
L 301.090909 228.293046 
L 317.323636 239.516452 
L 333.556364 243.287055 
L 349.789091 195.08332 
L 366.021818 168.883664 
L 382.254545 215.065953 
L 398.487273 242.160094 
" clip-path="url(#p1c9a9bfde7)" style="fill: none; stroke: #35b779; stroke-opacity: 0.5; stroke-width: 1.5; stroke-linecap: square"/>
   </g>
   <g id="line2d_27">
    <path d="M 73.832727 232.56443 
L 90.065455 211.687153 
L 106.298182 240.915277 
L 122.530909 251.014923 
L 138.763636 232.071018 
L 154.996364 275.589525 
L 171.229091 280.439569 
L 187.461818 268.849449 
L 203.694545 221.244507 
L 219.927273 223.267497 
L 236.16 205.475998 
L 252.392727 247.841936 
L 268.625455 285.03635 
L 284.858182 272.152294 
L 301.090909 276.707159 
L 317.323636 257.39302 
L 333.556364 248.124166 
L 349.789091 236.539934 
L 366.021818 223.201972 
L 382.254545 175.84066 
L 398.487273 197.872989 
" clip-path="url(#p1c9a9bfde7)" style="fill: none; stroke: #35b779; stroke-opacity: 0.5; stroke-width: 1.5; stroke-linecap: square"/>
   </g>
   <g id="line2d_28">
    <path d="M 73.832727 276.186301 
L 90.065455 246.279098 
L 106.298182 283.909027 
L 122.530909 260.164577 
L 138.763636 289.931308 
L 154.996364 260.680815 
L 171.229091 280.146038 
L 187.461818 255.555326 
L 203.694545 266.376632 
L 219.927273 247.759573 
L 236.16 275.842105 
L 252.392727 263.887644 
L 268.625455 272.75813 
L 284.858182 240.141356 
L 301.090909 264.844336 
L 317.323636 248.344624 
L 333.556364 226.773897 
L 349.789091 262.469326 
L 366.021818 249.403764 
L 382.254545 233.765872 
L 398.487273 256.958468 
" clip-path="url(#p1c9a9bfde7)" style="fill: none; stroke: #35b779; stroke-opacity: 0.5; stroke-width: 1.5; stroke-linecap: square"/>
   </g>
   <g id="line2d_29">
    <path d="M 73.832727 185.263633 
L 90.065455 164.099068 
L 106.298182 132.605659 
L 122.530909 148.095406 
L 138.763636 175.149083 
L 154.996364 198.224699 
L 171.229091 177.942225 
L 187.461818 96.16758 
L 203.694545 179.960571 
L 219.927273 161.482773 
L 236.16 156.605032 
L 252.392727 145.448667 
L 268.625455 179.683274 
L 284.858182 165.930089 
L 301.090909 194.72457 
L 317.323636 176.059441 
L 333.556364 138.137563 
L 349.789091 138.337372 
L 366.021818 108.175236 
L 382.254545 172.43304 
L 398.487273 179.187824 
" clip-path="url(#p1c9a9bfde7)" style="fill: none; stroke: #35b779; stroke-opacity: 0.5; stroke-width: 1.5; stroke-linecap: square"/>
   </g>
   <g id="line2d_30">
    <path d="M 73.832727 83.837456 
L 90.065455 195.855363 
L 106.298182 242.902897 
L 122.530909 191.367429 
L 138.763636 213.549842 
L 154.996364 224.438674 
L 171.229091 197.304613 
L 187.461818 208.838887 
L 203.694545 230.119858 
L 219.927273 226.389488 
L 236.16 160.841641 
L 252.392727 235.33358 
L 268.625455 224.743683 
L 284.858182 219.87867 
L 301.090909 210.082788 
L 317.323636 183.2843 
L 333.556364 187.698277 
L 349.789091 150.266908 
L 366.021818 220.363919 
L 382.254545 99.01761 
L 398.487273 205.190106 
" clip-path="url(#p1c9a9bfde7)" style="fill: none; stroke: #35b779; stroke-opacity: 0.5; stroke-width: 1.5; stroke-linecap: square"/>
   </g>
   <g id="line2d_31">
    <path d="M 73.832727 275.782221 
L 90.065455 295.488 
L 106.298182 290.542614 
L 122.530909 265.857384 
L 138.763636 288.563063 
L 154.996364 278.43476 
L 171.229091 244.535434 
L 187.461818 267.710244 
L 203.694545 280.724984 
L 219.927273 252.316607 
L 236.16 276.388679 
L 252.392727 253.621293 
L 268.625455 253.919469 
L 284.858182 269.764087 
L 301.090909 264.063347 
L 317.323636 219.030629 
L 333.556364 246.083849 
L 349.789091 229.416559 
L 366.021818 252.978779 
L 382.254545 264.088599 
L 398.487273 237.177261 
" clip-path="url(#p1c9a9bfde7)" style="fill: none; stroke: #35b779; stroke-opacity: 0.5; stroke-width: 1.5; stroke-linecap: square"/>
   </g>
   <g id="line2d_32">
    <path d="M 73.832727 107.788017 
L 90.065455 241.734482 
L 106.298182 244.071469 
L 122.530909 269.945814 
L 138.763636 267.746818 
L 154.996364 248.009297 
L 171.229091 277.960061 
L 187.461818 255.961167 
L 203.694545 277.507764 
L 219.927273 230.394366 
L 236.16 195.612414 
L 252.392727 207.269885 
L 268.625455 217.716857 
L 284.858182 185.65949 
L 301.090909 201.318347 
L 317.323636 241.059308 
L 333.556364 189.853133 
L 349.789091 238.454668 
L 366.021818 229.503286 
L 382.254545 193.178962 
L 398.487273 172.42004 
" clip-path="url(#p1c9a9bfde7)" style="fill: none; stroke: #35b779; stroke-opacity: 0.5; stroke-width: 1.5; stroke-linecap: square"/>
   </g>
   <g id="line2d_33">
    <path d="M 73.832727 255.72881 
L 90.065455 256.497643 
L 106.298182 264.117275 
L 122.530909 241.299067 
L 138.763636 253.725997 
L 154.996364 219.129953 
L 171.229091 195.666461 
L 187.461818 209.896988 
L 203.694545 210.373307 
L 219.927273 191.616216 
L 236.16 177.43247 
L 252.392727 194.836872 
L 268.625455 172.315831 
L 284.858182 148.499763 
L 301.090909 187.811493 
L 317.323636 151.36387 
L 333.556364 143.868493 
L 349.789091 192.948439 
L 366.021818 164.222379 
L 382.254545 131.715675 
L 398.487273 140.359177 
" clip-path="url(#p1c9a9bfde7)" style="fill: none; stroke: #35b779; stroke-opacity: 0.5; stroke-width: 1.5; stroke-linecap: square"/>
   </g>
   <g id="line2d_34">
    <path d="M 73.832727 219.040739 
L 90.065455 277.627687 
L 106.298182 269.30995 
L 122.530909 211.174389 
L 138.763636 157.848167 
L 154.996364 244.105756 
L 171.229091 215.542643 
L 187.461818 184.464146 
L 203.694545 183.181705 
L 219.927273 181.014138 
L 236.16 234.641488 
L 252.392727 187.54057 
L 268.625455 184.435274 
L 284.858182 173.149611 
L 301.090909 154.257249 
L 317.323636 167.574274 
L 333.556364 177.767203 
L 349.789091 199.911725 
L 366.021818 191.787846 
L 382.254545 230.932573 
L 398.487273 162.314286 
" clip-path="url(#p1c9a9bfde7)" style="fill: none; stroke: #35b779; stroke-opacity: 0.5; stroke-width: 1.5; stroke-linecap: square"/>
   </g>
   <g id="line2d_35">
    <path d="M 73.832727 261.25227 
L 90.065455 242.595172 
L 106.298182 242.682438 
L 122.530909 244.088521 
L 138.763636 226.648365 
L 154.996364 200.729425 
L 171.229091 200.432988 
L 187.461818 210.437075 
L 203.694545 207.3375 
L 219.927273 219.120349 
L 236.16 156.892019 
L 252.392727 163.423793 
L 268.625455 183.845696 
L 284.858182 167.063851 
L 301.090909 128.359093 
L 317.323636 166.018005 
L 333.556364 134.443772 
L 349.789091 187.198422 
L 366.021818 126.550323 
L 382.254545 149.200437 
L 398.487273 207.038611 
" clip-path="url(#p1c9a9bfde7)" style="fill: none; stroke: #35b779; stroke-opacity: 0.5; stroke-width: 1.5; stroke-linecap: square"/>
   </g>
   <g id="line2d_36">
    <path d="M 73.832727 207.612025 
L 90.065455 199.581155 
L 106.298182 215.764369 
L 122.530909 183.745488 
L 138.763636 153.796124 
L 154.996364 170.479892 
L 171.229091 185.338645 
L 187.461818 160.181848 
L 203.694545 195.721852 
L 219.927273 194.224326 
L 236.16 192.242404 
L 252.392727 97.208985 
L 268.625455 148.809081 
L 284.858182 145.302025 
L 301.090909 170.998142 
L 317.323636 117.452851 
L 333.556364 131.136681 
L 349.789091 155.373401 
L 366.021818 88.32918 
L 382.254545 152.895786 
L 398.487273 182.436108 
" clip-path="url(#p1c9a9bfde7)" style="fill: none; stroke: #35b779; stroke-opacity: 0.5; stroke-width: 1.5; stroke-linecap: square"/>
   </g>
   <g id="line2d_37">
    <path d="M 73.832727 209.86786 
L 90.065455 170.772691 
L 106.298182 203.311002 
L 122.530909 202.353258 
L 138.763636 174.372296 
L 154.996364 158.880327 
L 171.229091 144.199029 
L 187.461818 179.595906 
L 203.694545 192.320325 
L 219.927273 172.469939 
L 236.16 166.307146 
L 252.392727 155.951675 
L 268.625455 177.266791 
L 284.858182 166.568529 
L 301.090909 162.214703 
L 317.323636 108.322277 
L 333.556364 109.369716 
L 349.789091 137.484199 
L 366.021818 129.812267 
L 382.254545 135.555376 
L 398.487273 128.705021 
" clip-path="url(#p1c9a9bfde7)" style="fill: none; stroke: #35b779; stroke-opacity: 0.5; stroke-width: 1.5; stroke-linecap: square"/>
   </g>
   <g id="line2d_38">
    <path d="M 73.832727 200.683841 
L 90.065455 226.771081 
L 106.298182 262.119322 
L 122.530909 248.229185 
L 138.763636 220.676176 
L 154.996364 178.608611 
L 171.229091 181.129994 
L 187.461818 138.504468 
L 203.694545 196.058467 
L 219.927273 208.378465 
L 236.16 188.002536 
L 252.392727 215.952056 
L 268.625455 231.170078 
L 284.858182 208.743188 
L 301.090909 189.756009 
L 317.323636 183.667973 
L 333.556364 184.129696 
L 349.789091 203.823044 
L 366.021818 181.076744 
L 382.254545 188.504367 
L 398.487273 137.730081 
" clip-path="url(#p1c9a9bfde7)" style="fill: none; stroke: #35b779; stroke-opacity: 0.5; stroke-width: 1.5; stroke-linecap: square"/>
   </g>
   <g id="line2d_39">
    <path d="M 73.832727 136.404216 
L 90.065455 290.388888 
L 106.298182 274.999797 
L 122.530909 294.625536 
L 138.763636 192.98611 
L 154.996364 236.901434 
L 171.229091 208.186051 
L 187.461818 235.354992 
L 203.694545 247.549587 
L 219.927273 164.570204 
L 236.16 250.145126 
L 252.392727 181.550871 
L 268.625455 192.218437 
L 284.858182 185.663123 
L 301.090909 157.844866 
L 317.323636 168.259963 
L 333.556364 108.546349 
L 349.789091 159.9941 
L 366.021818 175.727553 
L 382.254545 101.739171 
L 398.487273 163.081255 
" clip-path="url(#p1c9a9bfde7)" style="fill: none; stroke: #35b779; stroke-opacity: 0.5; stroke-width: 1.5; stroke-linecap: square"/>
   </g>
   <g id="line2d_40">
    <path d="M 73.832727 205.962978 
L 90.065455 275.88446 
L 106.298182 259.573765 
L 122.530909 282.462678 
L 138.763636 250.658625 
L 154.996364 210.912295 
L 171.229091 237.553638 
L 187.461818 262.296139 
L 203.694545 213.025267 
L 219.927273 208.085602 
L 236.16 267.159299 
L 252.392727 255.470087 
L 268.625455 209.945735 
L 284.858182 214.29592 
L 301.090909 199.330205 
L 317.323636 241.151298 
L 333.556364 212.344027 
L 349.789091 220.189687 
L 366.021818 216.527225 
L 382.254545 206.244922 
L 398.487273 228.962599 
" clip-path="url(#p1c9a9bfde7)" style="fill: none; stroke: #35b779; stroke-opacity: 0.5; stroke-width: 1.5; stroke-linecap: square"/>
   </g>
   <g id="line2d_41">
    <path d="M 73.832727 266.876994 
L 90.065455 225.918754 
L 106.298182 195.511587 
L 122.530909 117.874608 
L 138.763636 239.998561 
L 154.996364 236.3766 
L 171.229091 276.36406 
L 187.461818 248.387825 
L 203.694545 225.82772 
L 219.927273 250.655204 
L 236.16 243.929208 
L 252.392727 276.529981 
L 268.625455 233.97962 
L 284.858182 207.943569 
L 301.090909 218.926974 
L 317.323636 148.612577 
L 333.556364 213.006337 
L 349.789091 182.579865 
L 366.021818 205.107349 
L 382.254545 225.423332 
L 398.487273 142.669492 
" clip-path="url(#p1c9a9bfde7)" style="fill: none; stroke: #35b779; stroke-opacity: 0.5; stroke-width: 1.5; stroke-linecap: square"/>
   </g>
   <g id="line2d_42">
    <path d="M 73.832727 114.120702 
L 90.065455 207.336479 
L 106.298182 160.596906 
L 122.530909 229.591733 
L 138.763636 277.941521 
L 154.996364 274.889291 
L 171.229091 288.686332 
L 187.461818 256.781209 
L 203.694545 232.755762 
L 219.927273 234.199485 
L 236.16 233.168492 
L 252.392727 266.751906 
L 268.625455 260.175804 
L 284.858182 227.282196 
L 301.090909 224.38397 
L 317.323636 212.647638 
L 333.556364 229.871474 
L 349.789091 204.515906 
L 366.021818 205.518483 
L 382.254545 208.768618 
L 398.487273 189.982114 
" clip-path="url(#p1c9a9bfde7)" style="fill: none; stroke: #35b779; stroke-opacity: 0.5; stroke-width: 1.5; stroke-linecap: square"/>
   </g>
   <g id="line2d_43">
    <path d="M 73.832727 212.516479 
L 90.065455 146.868001 
L 106.298182 169.334765 
L 122.530909 196.578672 
L 138.763636 197.212227 
L 154.996364 197.015633 
L 171.229091 165.521662 
L 187.461818 175.426915 
L 203.694545 158.41093 
L 219.927273 140.477273 
L 236.16 168.998187 
L 252.392727 176.817666 
L 268.625455 175.61792 
L 284.858182 144.626228 
L 301.090909 122.209335 
L 317.323636 166.574849 
L 333.556364 129.506927 
L 349.789091 144.230538 
L 366.021818 127.242775 
L 382.254545 131.036581 
L 398.487273 96.486514 
" clip-path="url(#p1c9a9bfde7)" style="fill: none; stroke: #35b779; stroke-opacity: 0.5; stroke-width: 1.5; stroke-linecap: square"/>
   </g>
   <g id="line2d_44">
    <path d="M 73.832727 265.909663 
L 90.065455 156.121494 
L 106.298182 234.54669 
L 122.530909 202.321945 
L 138.763636 218.386733 
L 154.996364 230.695981 
L 171.229091 188.812467 
L 187.461818 229.646683 
L 203.694545 209.991246 
L 219.927273 265.088191 
L 236.16 228.05599 
L 252.392727 242.943497 
L 268.625455 164.868463 
L 284.858182 159.494798 
L 301.090909 139.271018 
L 317.323636 185.739846 
L 333.556364 157.182115 
L 349.789091 163.593282 
L 366.021818 193.919986 
L 382.254545 217.522844 
L 398.487273 204.462638 
" clip-path="url(#p1c9a9bfde7)" style="fill: none; stroke: #35b779; stroke-opacity: 0.5; stroke-width: 1.5; stroke-linecap: square"/>
   </g>
   <g id="line2d_45">
    <path d="M 73.832727 241.224263 
L 90.065455 229.458404 
L 106.298182 215.186582 
L 122.530909 207.553713 
L 138.763636 211.861828 
L 154.996364 227.345609 
L 171.229091 189.240073 
L 187.461818 201.666392 
L 203.694545 216.234239 
L 219.927273 240.888032 
L 236.16 280.22806 
L 252.392727 248.936637 
L 268.625455 241.380905 
L 284.858182 220.244905 
L 301.090909 219.750814 
L 317.323636 195.970683 
L 333.556364 155.542992 
L 349.789091 208.399052 
L 366.021818 221.194317 
L 382.254545 186.479619 
L 398.487273 199.992346 
" clip-path="url(#p1c9a9bfde7)" style="fill: none; stroke: #35b779; stroke-opacity: 0.5; stroke-width: 1.5; stroke-linecap: square"/>
   </g>
   <g id="line2d_46">
    <path d="M 73.832727 251.143183 
L 90.065455 214.010624 
L 106.298182 174.653211 
L 122.530909 198.14428 
L 138.763636 247.941927 
L 154.996364 237.735257 
L 171.229091 225.393668 
L 187.461818 195.668625 
L 203.694545 190.017997 
L 219.927273 177.978226 
L 236.16 218.259734 
L 252.392727 195.195637 
L 268.625455 216.537784 
L 284.858182 228.773118 
L 301.090909 187.352259 
L 317.323636 165.623082 
L 333.556364 158.003832 
L 349.789091 169.79631 
L 366.021818 161.878382 
L 382.254545 160.409029 
L 398.487273 112.622515 
" clip-path="url(#p1c9a9bfde7)" style="fill: none; stroke: #35b779; stroke-opacity: 0.5; stroke-width: 1.5; stroke-linecap: square"/>
   </g>
   <g id="line2d_47">
    <path d="M 73.832727 280.693916 
L 90.065455 212.040299 
L 106.298182 227.189932 
L 122.530909 247.8 
L 138.763636 255.281943 
L 154.996364 229.706833 
L 171.229091 260.259967 
L 187.461818 239.335912 
L 203.694545 191.698659 
L 219.927273 229.321502 
L 236.16 202.923894 
L 252.392727 164.985512 
L 268.625455 219.354691 
L 284.858182 192.448247 
L 301.090909 206.820287 
L 317.323636 177.546605 
L 333.556364 184.804883 
L 349.789091 185.352741 
L 366.021818 195.668743 
L 382.254545 194.886362 
L 398.487273 151.117537 
" clip-path="url(#p1c9a9bfde7)" style="fill: none; stroke: #35b779; stroke-opacity: 0.5; stroke-width: 1.5; stroke-linecap: square"/>
   </g>
   <g id="line2d_48">
    <path d="M 73.832727 201.426762 
L 90.065455 247.672903 
L 106.298182 223.144248 
L 122.530909 199.146354 
L 138.763636 204.27136 
L 154.996364 131.856789 
L 171.229091 164.745499 
L 187.461818 171.052728 
L 203.694545 135.913111 
L 219.927273 144.32231 
L 236.16 123.170177 
L 252.392727 121.150231 
L 268.625455 202.426893 
L 284.858182 210.854415 
L 301.090909 179.888051 
L 317.323636 158.24598 
L 333.556364 101.171705 
L 349.789091 126.743726 
L 366.021818 113.224571 
L 382.254545 92.117138 
L 398.487273 92.880091 
" clip-path="url(#p1c9a9bfde7)" style="fill: none; stroke: #35b779; stroke-opacity: 0.5; stroke-width: 1.5; stroke-linecap: square"/>
   </g>
   <g id="line2d_49">
    <path d="M 73.832727 246.165571 
L 90.065455 233.824068 
L 106.298182 188.561725 
L 122.530909 166.456822 
L 138.763636 166.561284 
L 154.996364 149.766155 
L 171.229091 151.549732 
L 187.461818 186.300594 
L 203.694545 202.338063 
L 219.927273 209.598446 
L 236.16 195.877517 
L 252.392727 187.851759 
L 268.625455 244.639906 
L 284.858182 215.100697 
L 301.090909 237.003686 
L 317.323636 244.460133 
L 333.556364 207.245434 
L 349.789091 220.235054 
L 366.021818 202.089592 
L 382.254545 200.34471 
L 398.487273 196.297388 
" clip-path="url(#p1c9a9bfde7)" style="fill: none; stroke: #35b779; stroke-opacity: 0.5; stroke-width: 1.5; stroke-linecap: square"/>
   </g>
   <g id="line2d_50">
    <path d="M 73.832727 240.966305 
L 90.065455 223.906362 
L 106.298182 239.320305 
L 122.530909 232.990971 
L 138.763636 218.380468 
L 154.996364 206.288364 
L 171.229091 215.692626 
L 187.461818 209.905104 
L 203.694545 207.168054 
L 219.927273 138.903354 
L 236.16 173.594341 
L 252.392727 161.146029 
L 268.625455 141.253396 
L 284.858182 118.724851 
L 301.090909 117.836807 
L 317.323636 103.650393 
L 333.556364 102.570634 
L 349.789091 134.23901 
L 366.021818 158.299944 
L 382.254545 140.796521 
L 398.487273 132.318872 
" clip-path="url(#p1c9a9bfde7)" style="fill: none; stroke: #35b779; stroke-opacity: 0.5; stroke-width: 1.5; stroke-linecap: square"/>
   </g>
   <g id="line2d_51">
    <path d="M 73.832727 194.949824 
L 90.065455 227.507764 
L 106.298182 195.976717 
L 122.530909 235.661611 
L 138.763636 232.555021 
L 154.996364 192.531188 
L 171.229091 246.493729 
L 187.461818 185.380067 
L 203.694545 232.747638 
L 219.927273 160.991766 
L 236.16 145.611929 
L 252.392727 211.229147 
L 268.625455 201.190514 
L 284.858182 170.467847 
L 301.090909 174.435778 
L 317.323636 193.030346 
L 333.556364 144.294103 
L 349.789091 168.907023 
L 366.021818 119.652612 
L 382.254545 116.007939 
L 398.487273 180.240701 
" clip-path="url(#p1c9a9bfde7)" style="fill: none; stroke: #35b779; stroke-opacity: 0.5; stroke-width: 1.5; stroke-linecap: square"/>
   </g>
   <g id="line2d_52">
    <path d="M 73.832727 243.840821 
L 90.065455 247.686405 
L 106.298182 238.152637 
L 122.530909 205.924977 
L 138.763636 230.627233 
L 154.996364 191.744361 
L 171.229091 183.22774 
L 187.461818 188.991551 
L 203.694545 198.451528 
L 219.927273 188.954895 
L 236.16 219.291106 
L 252.392727 191.289927 
L 268.625455 188.209715 
L 284.858182 211.042558 
L 301.090909 184.468315 
L 317.323636 180.04842 
L 333.556364 160.026313 
L 349.789091 179.53863 
L 366.021818 170.693488 
L 382.254545 166.81005 
L 398.487273 149.245366 
" clip-path="url(#p1c9a9bfde7)" style="fill: none; stroke: #35b779; stroke-opacity: 0.5; stroke-width: 1.5; stroke-linecap: square"/>
   </g>
   <g id="line2d_53">
    <path d="M 73.832727 221.308503 
L 90.065455 167.817829 
L 106.298182 157.442269 
L 122.530909 164.084173 
L 138.763636 174.702822 
L 154.996364 160.798756 
L 171.229091 118.329351 
L 187.461818 116.666503 
L 203.694545 163.518838 
L 219.927273 222.134603 
L 236.16 140.732639 
L 252.392727 147.869085 
L 268.625455 218.454131 
L 284.858182 130.426667 
L 301.090909 57.492107 
L 317.323636 137.792723 
L 333.556364 103.239704 
L 349.789091 94.240051 
L 366.021818 105.4214 
L 382.254545 96.207706 
L 398.487273 176.386055 
" clip-path="url(#p1c9a9bfde7)" style="fill: none; stroke: #35b779; stroke-opacity: 0.5; stroke-width: 1.5; stroke-linecap: square"/>
   </g>
   <g id="line2d_54">
    <path d="M 73.832727 227.37069 
L 90.065455 191.072312 
L 106.298182 204.12397 
L 122.530909 223.087 
L 138.763636 182.76141 
L 154.996364 172.281183 
L 171.229091 138.862795 
L 187.461818 156.846305 
L 203.694545 121.592356 
L 219.927273 203.936727 
L 236.16 246.307894 
L 252.392727 191.429476 
L 268.625455 261.512935 
L 284.858182 206.279212 
L 301.090909 195.107313 
L 317.323636 231.384031 
L 333.556364 167.414987 
L 349.789091 203.469278 
L 366.021818 210.370813 
L 382.254545 178.643931 
L 398.487273 203.080186 
" clip-path="url(#p1c9a9bfde7)" style="fill: none; stroke: #35b779; stroke-opacity: 0.5; stroke-width: 1.5; stroke-linecap: square"/>
   </g>
   <g id="line2d_55">
    <path d="M 73.832727 267.76212 
L 90.065455 278.02121 
L 106.298182 280.574281 
L 122.530909 286.37462 
L 138.763636 258.33563 
L 154.996364 171.71208 
L 171.229091 237.621915 
L 187.461818 249.016302 
L 203.694545 186.450283 
L 219.927273 167.68027 
L 236.16 146.973174 
L 252.392727 198.310045 
L 268.625455 143.911973 
L 284.858182 150.808619 
L 301.090909 145.598835 
L 317.323636 110.036067 
L 333.556364 148.634825 
L 349.789091 142.536456 
L 366.021818 134.262692 
L 382.254545 129.245529 
L 398.487273 134.891803 
" clip-path="url(#p1c9a9bfde7)" style="fill: none; stroke: #35b779; stroke-opacity: 0.5; stroke-width: 1.5; stroke-linecap: square"/>
   </g>
   <g id="line2d_56">
    <path d="M 73.832727 266.354511 
L 90.065455 242.32589 
L 106.298182 215.389125 
L 122.530909 221.207228 
L 138.763636 258.732732 
L 154.996364 246.685168 
L 171.229091 201.421319 
L 187.461818 275.402265 
L 203.694545 172.282876 
L 219.927273 205.105939 
L 236.16 132.494611 
L 252.392727 198.914035 
L 268.625455 149.174516 
L 284.858182 159.579112 
L 301.090909 144.102898 
L 317.323636 121.736608 
L 333.556364 126.863027 
L 349.789091 126.956046 
L 366.021818 127.540472 
L 382.254545 155.995094 
L 398.487273 130.332025 
" clip-path="url(#p1c9a9bfde7)" style="fill: none; stroke: #35b779; stroke-opacity: 0.5; stroke-width: 1.5; stroke-linecap: square"/>
   </g>
   <g id="line2d_57">
    <path d="M 73.832727 197.991422 
L 90.065455 221.332953 
L 106.298182 177.491169 
L 122.530909 232.972159 
L 138.763636 233.585139 
L 154.996364 211.191637 
L 171.229091 213.571873 
L 187.461818 173.91353 
L 203.694545 217.079438 
L 219.927273 128.466764 
L 236.16 107.061536 
L 252.392727 162.876134 
L 268.625455 104.306848 
L 284.858182 91.463897 
L 301.090909 93.872501 
L 317.323636 159.013503 
L 333.556364 135.017759 
L 349.789091 95.499752 
L 366.021818 117.754167 
L 382.254545 81.55588 
L 398.487273 129.272945 
" clip-path="url(#p1c9a9bfde7)" style="fill: none; stroke: #35b779; stroke-opacity: 0.5; stroke-width: 1.5; stroke-linecap: square"/>
   </g>
   <g id="patch_3">
    <path d="M 57.6 307.584 
L 57.6 41.472 
" style="fill: none; stroke: #000000; stroke-width: 3; stroke-linejoin: miter; stroke-linecap: square"/>
   </g>
   <g id="patch_4">
    <path d="M 414.72 307.584 
L 414.72 41.472 
" style="fill: none; stroke: #000000; stroke-width: 3; stroke-linejoin: miter; stroke-linecap: square"/>
   </g>
   <g id="patch_5">
    <path d="M 57.6 307.584 
L 414.72 307.584 
" style="fill: none; stroke: #000000; stroke-width: 3; stroke-linejoin: miter; stroke-linecap: square"/>
   </g>
   <g id="patch_6">
    <path d="M 57.6 41.472 
L 414.72 41.472 
" style="fill: none; stroke: #000000; stroke-width: 3; stroke-linejoin: miter; stroke-linecap: square"/>
   </g>
   <g id="text_13">
    <!-- Atom Type O (n=45, mean Q=9.91) -->
    <g transform="translate(39.839219 35.472) scale(0.22 -0.22)">
     <defs>
      <path id="DejaVuSans-41" d="M 2188 4044 
L 1331 1722 
L 3047 1722 
L 2188 4044 
z
M 1831 4666 
L 2547 4666 
L 4325 0 
L 3669 0 
L 3244 1197 
L 1141 1197 
L 716 0 
L 50 0 
L 1831 4666 
z
" transform="scale(0.015625)"/>
      <path id="DejaVuSans-74" d="M 1172 4494 
L 1172 3500 
L 2356 3500 
L 2356 3053 
L 1172 3053 
L 1172 1153 
Q 1172 725 1289 603 
Q 1406 481 1766 481 
L 2356 481 
L 2356 0 
L 1766 0 
Q 1100 0 847 248 
Q 594 497 594 1153 
L 594 3053 
L 172 3053 
L 172 3500 
L 594 3500 
L 594 4494 
L 1172 4494 
z
" transform="scale(0.015625)"/>
      <path id="DejaVuSans-6f" d="M 1959 3097 
Q 1497 3097 1228 2736 
Q 959 2375 959 1747 
Q 959 1119 1226 758 
Q 1494 397 1959 397 
Q 2419 397 2687 759 
Q 2956 1122 2956 1747 
Q 2956 2369 2687 2733 
Q 2419 3097 1959 3097 
z
M 1959 3584 
Q 2709 3584 3137 3096 
Q 3566 2609 3566 1747 
Q 3566 888 3137 398 
Q 2709 -91 1959 -91 
Q 1206 -91 779 398 
Q 353 888 353 1747 
Q 353 2609 779 3096 
Q 1206 3584 1959 3584 
z
" transform="scale(0.015625)"/>
      <path id="DejaVuSans-6d" d="M 3328 2828 
Q 3544 3216 3844 3400 
Q 4144 3584 4550 3584 
Q 5097 3584 5394 3201 
Q 5691 2819 5691 2113 
L 5691 0 
L 5113 0 
L 5113 2094 
Q 5113 2597 4934 2840 
Q 4756 3084 4391 3084 
Q 3944 3084 3684 2787 
Q 3425 2491 3425 1978 
L 3425 0 
L 2847 0 
L 2847 2094 
Q 2847 2600 2669 2842 
Q 2491 3084 2119 3084 
Q 1678 3084 1418 2786 
Q 1159 2488 1159 1978 
L 1159 0 
L 581 0 
L 581 3500 
L 1159 3500 
L 1159 2956 
Q 1356 3278 1631 3431 
Q 1906 3584 2284 3584 
Q 2666 3584 2933 3390 
Q 3200 3197 3328 2828 
z
" transform="scale(0.015625)"/>
      <path id="DejaVuSans-20" transform="scale(0.015625)"/>
      <path id="DejaVuSans-54" d="M -19 4666 
L 3928 4666 
L 3928 4134 
L 2272 4134 
L 2272 0 
L 1638 0 
L 1638 4134 
L -19 4134 
L -19 4666 
z
" transform="scale(0.015625)"/>
      <path id="DejaVuSans-79" d="M 2059 -325 
Q 1816 -950 1584 -1140 
Q 1353 -1331 966 -1331 
L 506 -1331 
L 506 -850 
L 844 -850 
Q 1081 -850 1212 -737 
Q 1344 -625 1503 -206 
L 1606 56 
L 191 3500 
L 800 3500 
L 1894 763 
L 2988 3500 
L 3597 3500 
L 2059 -325 
z
" transform="scale(0.015625)"/>
      <path id="DejaVuSans-70" d="M 1159 525 
L 1159 -1331 
L 581 -1331 
L 581 3500 
L 1159 3500 
L 1159 2969 
Q 1341 3281 1617 3432 
Q 1894 3584 2278 3584 
Q 2916 3584 3314 3078 
Q 3713 2572 3713 1747 
Q 3713 922 3314 415 
Q 2916 -91 2278 -91 
Q 1894 -91 1617 61 
Q 1341 213 1159 525 
z
M 3116 1747 
Q 3116 2381 2855 2742 
Q 2594 3103 2138 3103 
Q 1681 3103 1420 2742 
Q 1159 2381 1159 1747 
Q 1159 1113 1420 752 
Q 1681 391 2138 391 
Q 2594 391 2855 752 
Q 3116 1113 3116 1747 
z
" transform="scale(0.015625)"/>
      <path id="DejaVuSans-65" d="M 3597 1894 
L 3597 1613 
L 953 1613 
Q 991 1019 1311 708 
Q 1631 397 2203 397 
Q 2534 397 2845 478 
Q 3156 559 3463 722 
L 3463 178 
Q 3153 47 2828 -22 
Q 2503 -91 2169 -91 
Q 1331 -91 842 396 
Q 353 884 353 1716 
Q 353 2575 817 3079 
Q 1281 3584 2069 3584 
Q 2775 3584 3186 3129 
Q 3597 2675 3597 1894 
z
M 3022 2063 
Q 3016 2534 2758 2815 
Q 2500 3097 2075 3097 
Q 1594 3097 1305 2825 
Q 1016 2553 972 2059 
L 3022 2063 
z
" transform="scale(0.015625)"/>
      <path id="DejaVuSans-4f" d="M 2522 4238 
Q 1834 4238 1429 3725 
Q 1025 3213 1025 2328 
Q 1025 1447 1429 934 
Q 1834 422 2522 422 
Q 3209 422 3611 934 
Q 4013 1447 4013 2328 
Q 4013 3213 3611 3725 
Q 3209 4238 2522 4238 
z
M 2522 4750 
Q 3503 4750 4090 4092 
Q 4678 3434 4678 2328 
Q 4678 1225 4090 567 
Q 3503 -91 2522 -91 
Q 1538 -91 948 565 
Q 359 1222 359 2328 
Q 359 3434 948 4092 
Q 1538 4750 2522 4750 
z
" transform="scale(0.015625)"/>
      <path id="DejaVuSans-28" d="M 1984 4856 
Q 1566 4138 1362 3434 
Q 1159 2731 1159 2009 
Q 1159 1288 1364 580 
Q 1569 -128 1984 -844 
L 1484 -844 
Q 1016 -109 783 600 
Q 550 1309 550 2009 
Q 550 2706 781 3412 
Q 1013 4119 1484 4856 
L 1984 4856 
z
" transform="scale(0.015625)"/>
      <path id="DejaVuSans-6e" d="M 3513 2113 
L 3513 0 
L 2938 0 
L 2938 2094 
Q 2938 2591 2744 2837 
Q 2550 3084 2163 3084 
Q 1697 3084 1428 2787 
Q 1159 2491 1159 1978 
L 1159 0 
L 581 0 
L 581 3500 
L 1159 3500 
L 1159 2956 
Q 1366 3272 1645 3428 
Q 1925 3584 2291 3584 
Q 2894 3584 3203 3211 
Q 3513 2838 3513 2113 
z
" transform="scale(0.015625)"/>
      <path id="DejaVuSans-3d" d="M 678 2906 
L 4684 2906 
L 4684 2381 
L 678 2381 
L 678 2906 
z
M 678 1631 
L 4684 1631 
L 4684 1100 
L 678 1100 
L 678 1631 
z
" transform="scale(0.015625)"/>
      <path id="DejaVuSans-34" d="M 2419 4116 
L 825 1625 
L 2419 1625 
L 2419 4116 
z
M 2253 4666 
L 3047 4666 
L 3047 1625 
L 3713 1625 
L 3713 1100 
L 3047 1100 
L 3047 0 
L 2419 0 
L 2419 1100 
L 313 1100 
L 313 1709 
L 2253 4666 
z
" transform="scale(0.015625)"/>
      <path id="DejaVuSans-2c" d="M 750 794 
L 1409 794 
L 1409 256 
L 897 -744 
L 494 -744 
L 750 256 
L 750 794 
z
" transform="scale(0.015625)"/>
      <path id="DejaVuSans-61" d="M 2194 1759 
Q 1497 1759 1228 1600 
Q 959 1441 959 1056 
Q 959 750 1161 570 
Q 1363 391 1709 391 
Q 2188 391 2477 730 
Q 2766 1069 2766 1631 
L 2766 1759 
L 2194 1759 
z
M 3341 1997 
L 3341 0 
L 2766 0 
L 2766 531 
Q 2569 213 2275 61 
Q 1981 -91 1556 -91 
Q 1019 -91 701 211 
Q 384 513 384 1019 
Q 384 1609 779 1909 
Q 1175 2209 1959 2209 
L 2766 2209 
L 2766 2266 
Q 2766 2663 2505 2880 
Q 2244 3097 1772 3097 
Q 1472 3097 1187 3025 
Q 903 2953 641 2809 
L 641 3341 
Q 956 3463 1253 3523 
Q 1550 3584 1831 3584 
Q 2591 3584 2966 3190 
Q 3341 2797 3341 1997 
z
" transform="scale(0.015625)"/>
      <path id="DejaVuSans-51" d="M 2522 4238 
Q 1834 4238 1429 3725 
Q 1025 3213 1025 2328 
Q 1025 1447 1429 934 
Q 1834 422 2522 422 
Q 3209 422 3611 934 
Q 4013 1447 4013 2328 
Q 4013 3213 3611 3725 
Q 3209 4238 2522 4238 
z
M 3406 84 
L 4238 -825 
L 3475 -825 
L 2784 -78 
Q 2681 -84 2626 -87 
Q 2572 -91 2522 -91 
Q 1538 -91 948 567 
Q 359 1225 359 2328 
Q 359 3434 948 4092 
Q 1538 4750 2522 4750 
Q 3503 4750 4090 4092 
Q 4678 3434 4678 2328 
Q 4678 1516 4351 937 
Q 4025 359 3406 84 
z
" transform="scale(0.015625)"/>
      <path id="DejaVuSans-39" d="M 703 97 
L 703 672 
Q 941 559 1184 500 
Q 1428 441 1663 441 
Q 2288 441 2617 861 
Q 2947 1281 2994 2138 
Q 2813 1869 2534 1725 
Q 2256 1581 1919 1581 
Q 1219 1581 811 2004 
Q 403 2428 403 3163 
Q 403 3881 828 4315 
Q 1253 4750 1959 4750 
Q 2769 4750 3195 4129 
Q 3622 3509 3622 2328 
Q 3622 1225 3098 567 
Q 2575 -91 1691 -91 
Q 1453 -91 1209 -44 
Q 966 3 703 97 
z
M 1959 2075 
Q 2384 2075 2632 2365 
Q 2881 2656 2881 3163 
Q 2881 3666 2632 3958 
Q 2384 4250 1959 4250 
Q 1534 4250 1286 3958 
Q 1038 3666 1038 3163 
Q 1038 2656 1286 2365 
Q 1534 2075 1959 2075 
z
" transform="scale(0.015625)"/>
      <path id="DejaVuSans-29" d="M 513 4856 
L 1013 4856 
Q 1481 4119 1714 3412 
Q 1947 2706 1947 2009 
Q 1947 1309 1714 600 
Q 1481 -109 1013 -844 
L 513 -844 
Q 928 -128 1133 580 
Q 1338 1288 1338 2009 
Q 1338 2731 1133 3434 
Q 928 4138 513 4856 
z
" transform="scale(0.015625)"/>
     </defs>
     <use xlink:href="#DejaVuSans-41"/>
     <use xlink:href="#DejaVuSans-74" transform="translate(66.658203 0)"/>
     <use xlink:href="#DejaVuSans-6f" transform="translate(105.867188 0)"/>
     <use xlink:href="#DejaVuSans-6d" transform="translate(167.048828 0)"/>
     <use xlink:href="#DejaVuSans-20" transform="translate(264.460938 0)"/>
     <use xlink:href="#DejaVuSans-54" transform="translate(296.248047 0)"/>
     <use xlink:href="#DejaVuSans-79" transform="translate(341.707031 0)"/>
     <use xlink:href="#DejaVuSans-70" transform="translate(400.886719 0)"/>
     <use xlink:href="#DejaVuSans-65" transform="translate(464.363281 0)"/>
     <use xlink:href="#DejaVuSans-20" transform="translate(525.886719 0)"/>
     <use xlink:href="#DejaVuSans-4f" transform="translate(557.673828 0)"/>
     <use xlink:href="#DejaVuSans-20" transform="translate(636.384766 0)"/>
     <use xlink:href="#DejaVuSans-28" transform="translate(668.171875 0)"/>
     <use xlink:href="#DejaVuSans-6e" transform="translate(707.185547 0)"/>
     <use xlink:href="#DejaVuSans-3d" transform="translate(770.564453 0)"/>
     <use xlink:href="#DejaVuSans-34" transform="translate(854.353516 0)"/>
     <use xlink:href="#DejaVuSans-35" transform="translate(917.976562 0)"/>
     <use xlink:href="#DejaVuSans-2c" transform="translate(981.599609 0)"/>
     <use xlink:href="#DejaVuSans-20" transform="translate(1013.386719 0)"/>
     <use xlink:href="#DejaVuSans-6d" transform="translate(1045.173828 0)"/>
     <use xlink:href="#DejaVuSans-65" transform="translate(1142.585938 0)"/>
     <use xlink:href="#DejaVuSans-61" transform="translate(1204.109375 0)"/>
     <use xlink:href="#DejaVuSans-6e" transform="translate(1265.388672 0)"/>
     <use xlink:href="#DejaVuSans-20" transform="translate(1328.767578 0)"/>
     <use xlink:href="#DejaVuSans-51" transform="translate(1360.554688 0)"/>
     <use xlink:href="#DejaVuSans-3d" transform="translate(1439.265625 0)"/>
     <use xlink:href="#DejaVuSans-39" transform="translate(1523.054688 0)"/>
     <use xlink:href="#DejaVuSans-2e" transform="translate(1586.677734 0)"/>
     <use xlink:href="#DejaVuSans-39" transform="translate(1618.464844 0)"/>
     <use xlink:href="#DejaVuSans-31" transform="translate(1682.087891 0)"/>
     <use xlink:href="#DejaVuSans-29" transform="translate(1745.710938 0)"/>
    </g>
   </g>
  </g>
 </g>
 <defs>
  <clipPath id="p1c9a9bfde7">
   <rect x="57.6" y="41.472" width="357.12" height="266.112"/>
  </clipPath>
 </defs>
</svg>
