<?xml version="1.0" encoding="utf-8" standalone="no"?>
<!DOCTYPE svg PUBLIC "-//W3C//DTD SVG 1.1//EN"
  "http://www.w3.org/Graphics/SVG/1.1/DTD/svg11.dtd">
<svg xmlns:xlink="http://www.w3.org/1999/xlink" width="460.8pt" height="345.6pt" viewBox="0 0 460.8 345.6" xmlns="http://www.w3.org/2000/svg" version="1.1">
 <metadata>
  <rdf:RDF xmlns:dc="http://purl.org/dc/elements/1.1/" xmlns:cc="http://creativecommons.org/ns#" xmlns:rdf="http://www.w3.org/1999/02/22-rdf-syntax-ns#">
   <cc:Work>
    <dc:type rdf:resource="http://purl.org/dc/dcmitype/StillImage"/>
    <dc:date>2025-12-10T14:12:34.258497</dc:date>
    <dc:format>image/svg+xml</dc:format>
    <dc:creator>
     <cc:Agent>
      <dc:title>Matplotlib v3.10.3, https://matplotlib.org/</dc:title>
     </cc:Agent>
    </dc:creator>
   </cc:Work>
  </rdf:RDF>
 </metadata>
 <defs>
  <style type="text/css">*{stroke-linejoin: round; stroke-linecap: butt}</style>
 </defs>
 <g id="figure_1">
  <g id="patch_1">
   <path d="M 0 345.6 
L 460.8 345.6 
L 460.8 0 
L 0 0 
z
" style="fill: #ffffff"/>
  </g>
  <g id="axes_1">
   <g id="patch_2">
    <path d="M 57.6 307.584 
L 414.72 307.584 
L 414.72 41.472 
L 57.6 41.472 
z
" style="fill: #ffffff"/>
   </g>
   <g id="matplotlib.axis_1">
    <g id="xtick_1">
     <g id="line2d_1">
      <defs>
       <path id="m88920ba111" d="M 0 0 
L 0 3.5 
" style="stroke: #000000; stroke-width: 0.8"/>
      </defs>
      <g>
       <use xlink:href="#m88920ba111" x="73.832727" y="307.584" style="stroke: #000000; stroke-width: 0.8"/>
      </g>
     </g>
     <g id="text_1">
      <!-- 0 -->
      <g transform="translate(69.060852 325.981656) scale(0.15 -0.15)">
       <defs>
        <path id="DejaVuSans-30" d="M 2034 4250 
Q 1547 4250 1301 3770 
Q 1056 3291 1056 2328 
Q 1056 1369 1301 889 
Q 1547 409 2034 409 
Q 2525 409 2770 889 
Q 3016 1369 3016 2328 
Q 3016 3291 2770 3770 
Q 2525 4250 2034 4250 
z
M 2034 4750 
Q 2819 4750 3233 4129 
Q 3647 3509 3647 2328 
Q 3647 1150 3233 529 
Q 2819 -91 2034 -91 
Q 1250 -91 836 529 
Q 422 1150 422 2328 
Q 422 3509 836 4129 
Q 1250 4750 2034 4750 
z
" transform="scale(0.015625)"/>
       </defs>
       <use xlink:href="#DejaVuSans-30"/>
      </g>
     </g>
    </g>
    <g id="xtick_2">
     <g id="line2d_2">
      <g>
       <use xlink:href="#m88920ba111" x="154.996364" y="307.584" style="stroke: #000000; stroke-width: 0.8"/>
      </g>
     </g>
     <g id="text_2">
      <!-- 5 -->
      <g transform="translate(150.224489 325.981656) scale(0.15 -0.15)">
       <defs>
        <path id="DejaVuSans-35" d="M 691 4666 
L 3169 4666 
L 3169 4134 
L 1269 4134 
L 1269 2991 
Q 1406 3038 1543 3061 
Q 1681 3084 1819 3084 
Q 2600 3084 3056 2656 
Q 3513 2228 3513 1497 
Q 3513 744 3044 326 
Q 2575 -91 1722 -91 
Q 1428 -91 1123 -41 
Q 819 9 494 109 
L 494 744 
Q 775 591 1075 516 
Q 1375 441 1709 441 
Q 2250 441 2565 725 
Q 2881 1009 2881 1497 
Q 2881 1984 2565 2268 
Q 2250 2553 1709 2553 
Q 1456 2553 1204 2497 
Q 953 2441 691 2322 
L 691 4666 
z
" transform="scale(0.015625)"/>
       </defs>
       <use xlink:href="#DejaVuSans-35"/>
      </g>
     </g>
    </g>
    <g id="xtick_3">
     <g id="line2d_3">
      <g>
       <use xlink:href="#m88920ba111" x="236.16" y="307.584" style="stroke: #000000; stroke-width: 0.8"/>
      </g>
     </g>
     <g id="text_3">
      <!-- 10 -->
      <g transform="translate(226.61625 325.981656) scale(0.15 -0.15)">
       <defs>
        <path id="DejaVuSans-31" d="M 794 531 
L 1825 531 
L 1825 4091 
L 703 3866 
L 703 4441 
L 1819 4666 
L 2450 4666 
L 2450 531 
L 3481 531 
L 3481 0 
L 794 0 
L 794 531 
z
" transform="scale(0.015625)"/>
       </defs>
       <use xlink:href="#DejaVuSans-31"/>
       <use xlink:href="#DejaVuSans-30" transform="translate(63.623047 0)"/>
      </g>
     </g>
    </g>
    <g id="xtick_4">
     <g id="line2d_4">
      <g>
       <use xlink:href="#m88920ba111" x="317.323636" y="307.584" style="stroke: #000000; stroke-width: 0.8"/>
      </g>
     </g>
     <g id="text_4">
      <!-- 15 -->
      <g transform="translate(307.779886 325.981656) scale(0.15 -0.15)">
       <use xlink:href="#DejaVuSans-31"/>
       <use xlink:href="#DejaVuSans-35" transform="translate(63.623047 0)"/>
      </g>
     </g>
    </g>
    <g id="xtick_5">
     <g id="line2d_5">
      <g>
       <use xlink:href="#m88920ba111" x="398.487273" y="307.584" style="stroke: #000000; stroke-width: 0.8"/>
      </g>
     </g>
     <g id="text_5">
      <!-- 20 -->
      <g transform="translate(388.943523 325.981656) scale(0.15 -0.15)">
       <defs>
        <path id="DejaVuSans-32" d="M 1228 531 
L 3431 531 
L 3431 0 
L 469 0 
L 469 531 
Q 828 903 1448 1529 
Q 2069 2156 2228 2338 
Q 2531 2678 2651 2914 
Q 2772 3150 2772 3378 
Q 2772 3750 2511 3984 
Q 2250 4219 1831 4219 
Q 1534 4219 1204 4116 
Q 875 4013 500 3803 
L 500 4441 
Q 881 4594 1212 4672 
Q 1544 4750 1819 4750 
Q 2544 4750 2975 4387 
Q 3406 4025 3406 3419 
Q 3406 3131 3298 2873 
Q 3191 2616 2906 2266 
Q 2828 2175 2409 1742 
Q 1991 1309 1228 531 
z
" transform="scale(0.015625)"/>
       </defs>
       <use xlink:href="#DejaVuSans-32"/>
       <use xlink:href="#DejaVuSans-30" transform="translate(63.623047 0)"/>
      </g>
     </g>
    </g>
   </g>
   <g id="matplotlib.axis_2">
    <g id="ytick_1">
     <g id="line2d_6">
      <defs>
       <path id="m33d571f1f2" d="M 0 0 
L -3.5 0 
" style="stroke: #000000; stroke-width: 0.8"/>
      </defs>
      <g>
       <use xlink:href="#m33d571f1f2" x="57.6" y="304.977832" style="stroke: #000000; stroke-width: 0.8"/>
      </g>
     </g>
     <g id="text_6">
      <!-- 2.5 -->
      <g transform="translate(26.745313 310.67666) scale(0.15 -0.15)">
       <defs>
        <path id="DejaVuSans-2e" d="M 684 794 
L 1344 794 
L 1344 0 
L 684 0 
L 684 794 
z
" transform="scale(0.015625)"/>
       </defs>
       <use xlink:href="#DejaVuSans-32"/>
       <use xlink:href="#DejaVuSans-2e" transform="translate(63.623047 0)"/>
       <use xlink:href="#DejaVuSans-35" transform="translate(95.410156 0)"/>
      </g>
     </g>
    </g>
    <g id="ytick_2">
     <g id="line2d_7">
      <g>
       <use xlink:href="#m33d571f1f2" x="57.6" y="270.331103" style="stroke: #000000; stroke-width: 0.8"/>
      </g>
     </g>
     <g id="text_7">
      <!-- 5.0 -->
      <g transform="translate(26.745313 276.029931) scale(0.15 -0.15)">
       <use xlink:href="#DejaVuSans-35"/>
       <use xlink:href="#DejaVuSans-2e" transform="translate(63.623047 0)"/>
       <use xlink:href="#DejaVuSans-30" transform="translate(95.410156 0)"/>
      </g>
     </g>
    </g>
    <g id="ytick_3">
     <g id="line2d_8">
      <g>
       <use xlink:href="#m33d571f1f2" x="57.6" y="235.684374" style="stroke: #000000; stroke-width: 0.8"/>
      </g>
     </g>
     <g id="text_8">
      <!-- 7.5 -->
      <g transform="translate(26.745313 241.383202) scale(0.15 -0.15)">
       <defs>
        <path id="DejaVuSans-37" d="M 525 4666 
L 3525 4666 
L 3525 4397 
L 1831 0 
L 1172 0 
L 2766 4134 
L 525 4134 
L 525 4666 
z
" transform="scale(0.015625)"/>
       </defs>
       <use xlink:href="#DejaVuSans-37"/>
       <use xlink:href="#DejaVuSans-2e" transform="translate(63.623047 0)"/>
       <use xlink:href="#DejaVuSans-35" transform="translate(95.410156 0)"/>
      </g>
     </g>
    </g>
    <g id="ytick_4">
     <g id="line2d_9">
      <g>
       <use xlink:href="#m33d571f1f2" x="57.6" y="201.037645" style="stroke: #000000; stroke-width: 0.8"/>
      </g>
     </g>
     <g id="text_9">
      <!-- 10.0 -->
      <g transform="translate(17.201563 206.736473) scale(0.15 -0.15)">
       <use xlink:href="#DejaVuSans-31"/>
       <use xlink:href="#DejaVuSans-30" transform="translate(63.623047 0)"/>
       <use xlink:href="#DejaVuSans-2e" transform="translate(127.246094 0)"/>
       <use xlink:href="#DejaVuSans-30" transform="translate(159.033203 0)"/>
      </g>
     </g>
    </g>
    <g id="ytick_5">
     <g id="line2d_10">
      <g>
       <use xlink:href="#m33d571f1f2" x="57.6" y="166.390915" style="stroke: #000000; stroke-width: 0.8"/>
      </g>
     </g>
     <g id="text_10">
      <!-- 12.5 -->
      <g transform="translate(17.201563 172.089743) scale(0.15 -0.15)">
       <use xlink:href="#DejaVuSans-31"/>
       <use xlink:href="#DejaVuSans-32" transform="translate(63.623047 0)"/>
       <use xlink:href="#DejaVuSans-2e" transform="translate(127.246094 0)"/>
       <use xlink:href="#DejaVuSans-35" transform="translate(159.033203 0)"/>
      </g>
     </g>
    </g>
    <g id="ytick_6">
     <g id="line2d_11">
      <g>
       <use xlink:href="#m33d571f1f2" x="57.6" y="131.744186" style="stroke: #000000; stroke-width: 0.8"/>
      </g>
     </g>
     <g id="text_11">
      <!-- 15.0 -->
      <g transform="translate(17.201563 137.443014) scale(0.15 -0.15)">
       <use xlink:href="#DejaVuSans-31"/>
       <use xlink:href="#DejaVuSans-35" transform="translate(63.623047 0)"/>
       <use xlink:href="#DejaVuSans-2e" transform="translate(127.246094 0)"/>
       <use xlink:href="#DejaVuSans-30" transform="translate(159.033203 0)"/>
      </g>
     </g>
    </g>
    <g id="ytick_7">
     <g id="line2d_12">
      <g>
       <use xlink:href="#m33d571f1f2" x="57.6" y="97.097457" style="stroke: #000000; stroke-width: 0.8"/>
      </g>
     </g>
     <g id="text_12">
      <!-- 17.5 -->
      <g transform="translate(17.201563 102.796285) scale(0.15 -0.15)">
       <use xlink:href="#DejaVuSans-31"/>
       <use xlink:href="#DejaVuSans-37" transform="translate(63.623047 0)"/>
       <use xlink:href="#DejaVuSans-2e" transform="translate(127.246094 0)"/>
       <use xlink:href="#DejaVuSans-35" transform="translate(159.033203 0)"/>
      </g>
     </g>
    </g>
    <g id="ytick_8">
     <g id="line2d_13">
      <g>
       <use xlink:href="#m33d571f1f2" x="57.6" y="62.450728" style="stroke: #000000; stroke-width: 0.8"/>
      </g>
     </g>
     <g id="text_13">
      <!-- 20.0 -->
      <g transform="translate(17.201563 68.149556) scale(0.15 -0.15)">
       <use xlink:href="#DejaVuSans-32"/>
       <use xlink:href="#DejaVuSans-30" transform="translate(63.623047 0)"/>
       <use xlink:href="#DejaVuSans-2e" transform="translate(127.246094 0)"/>
       <use xlink:href="#DejaVuSans-30" transform="translate(159.033203 0)"/>
      </g>
     </g>
    </g>
   </g>
   <g id="line2d_14">
    <path d="M 73.832727 174.06652 
L 90.065455 193.24811 
L 106.298182 200.453498 
L 122.530909 176.665119 
L 138.763636 200.944303 
L 154.996364 214.435302 
L 171.229091 215.090614 
L 187.461818 145.594817 
L 203.694545 193.746674 
L 219.927273 246.825116 
L 236.16 191.911674 
L 252.392727 220.568736 
L 268.625455 134.987778 
L 284.858182 199.095136 
L 301.090909 180.245493 
L 317.323636 220.911181 
L 333.556364 148.850408 
L 349.789091 120.881092 
L 366.021818 190.043769 
L 382.254545 207.075319 
L 398.487273 217.890548 
" clip-path="url(#p0415f666f8)" style="fill: none; stroke: #35b779; stroke-opacity: 0.5; stroke-width: 1.5; stroke-linecap: square"/>
   </g>
   <g id="line2d_15">
    <path d="M 73.832727 238.10497 
L 90.065455 207.056468 
L 106.298182 245.710232 
L 122.530909 244.912207 
L 138.763636 243.02187 
L 154.996364 240.619265 
L 171.229091 210.890491 
L 187.461818 214.816392 
L 203.694545 183.278085 
L 219.927273 147.681378 
L 236.16 172.500714 
L 252.392727 160.433416 
L 268.625455 171.78725 
L 284.858182 203.779645 
L 301.090909 208.419293 
L 317.323636 236.762595 
L 333.556364 160.427481 
L 349.789091 147.937246 
L 366.021818 151.603028 
L 382.254545 208.242532 
L 398.487273 160.968432 
" clip-path="url(#p0415f666f8)" style="fill: none; stroke: #35b779; stroke-opacity: 0.5; stroke-width: 1.5; stroke-linecap: square"/>
   </g>
   <g id="line2d_16">
    <path d="M 73.832727 194.199769 
L 90.065455 149.226498 
L 106.298182 140.64337 
L 122.530909 216.604472 
L 138.763636 207.711597 
L 154.996364 224.635324 
L 171.229091 169.261689 
L 187.461818 225.811493 
L 203.694545 181.359037 
L 219.927273 178.898034 
L 236.16 169.676514 
L 252.392727 205.707937 
L 268.625455 215.310071 
L 284.858182 227.210802 
L 301.090909 96.339073 
L 317.323636 205.143798 
L 333.556364 219.70626 
L 349.789091 157.549172 
L 366.021818 156.079276 
L 382.254545 223.193809 
L 398.487273 221.958427 
" clip-path="url(#p0415f666f8)" style="fill: none; stroke: #35b779; stroke-opacity: 0.5; stroke-width: 1.5; stroke-linecap: square"/>
   </g>
   <g id="line2d_17">
    <path d="M 73.832727 221.633623 
L 90.065455 258.744637 
L 106.298182 205.916245 
L 122.530909 252.204354 
L 138.763636 250.106451 
L 154.996364 226.755047 
L 171.229091 237.497428 
L 187.461818 209.895219 
L 203.694545 227.01984 
L 219.927273 216.942771 
L 236.16 211.233016 
L 252.392727 222.496284 
L 268.625455 177.862781 
L 284.858182 237.462432 
L 301.090909 202.594093 
L 317.323636 205.354273 
L 333.556364 214.258879 
L 349.789091 250.922216 
L 366.021818 229.567406 
L 382.254545 224.262339 
L 398.487273 228.669208 
" clip-path="url(#p0415f666f8)" style="fill: none; stroke: #35b779; stroke-opacity: 0.5; stroke-width: 1.5; stroke-linecap: square"/>
   </g>
   <g id="line2d_18">
    <path d="M 73.832727 277.381045 
L 90.065455 287.487875 
L 106.298182 285.879721 
L 122.530909 288.243195 
L 138.763636 258.198942 
L 154.996364 257.607184 
L 171.229091 270.938139 
L 187.461818 282.813418 
L 203.694545 215.201128 
L 219.927273 234.790844 
L 236.16 275.022654 
L 252.392727 271.639315 
L 268.625455 260.929628 
L 284.858182 272.941318 
L 301.090909 264.045854 
L 317.323636 261.353212 
L 333.556364 259.051981 
L 349.789091 265.308433 
L 366.021818 270.030659 
L 382.254545 250.127966 
L 398.487273 238.325644 
" clip-path="url(#p0415f666f8)" style="fill: none; stroke: #35b779; stroke-opacity: 0.5; stroke-width: 1.5; stroke-linecap: square"/>
   </g>
   <g id="line2d_19">
    <path d="M 73.832727 187.43694 
L 90.065455 214.341143 
L 106.298182 212.098014 
L 122.530909 211.162661 
L 138.763636 207.056884 
L 154.996364 210.25772 
L 171.229091 217.712646 
L 187.461818 223.766458 
L 203.694545 227.637989 
L 219.927273 253.181653 
L 236.16 235.217368 
L 252.392727 257.057304 
L 268.625455 198.492814 
L 284.858182 220.405583 
L 301.090909 227.428081 
L 317.323636 216.13625 
L 333.556364 248.881532 
L 349.789091 248.57648 
L 366.021818 249.466483 
L 382.254545 284.397448 
L 398.487273 268.205794 
" clip-path="url(#p0415f666f8)" style="fill: none; stroke: #35b779; stroke-opacity: 0.5; stroke-width: 1.5; stroke-linecap: square"/>
   </g>
   <g id="line2d_20">
    <path d="M 73.832727 214.479447 
L 90.065455 258.251055 
L 106.298182 263.260181 
L 122.530909 248.055837 
L 138.763636 276.485557 
L 154.996364 250.795204 
L 171.229091 272.419352 
L 187.461818 280.416471 
L 203.694545 222.509776 
L 219.927273 261.303283 
L 236.16 245.729951 
L 252.392727 262.398754 
L 268.625455 285.983613 
L 284.858182 251.552471 
L 301.090909 251.446392 
L 317.323636 266.721513 
L 333.556364 290.616657 
L 349.789091 258.624198 
L 366.021818 260.597836 
L 382.254545 273.943714 
L 398.487273 285.642094 
" clip-path="url(#p0415f666f8)" style="fill: none; stroke: #35b779; stroke-opacity: 0.5; stroke-width: 1.5; stroke-linecap: square"/>
   </g>
   <g id="line2d_21">
    <path d="M 73.832727 226.618519 
L 90.065455 257.384922 
L 106.298182 250.383444 
L 122.530909 271.595055 
L 138.763636 244.228703 
L 154.996364 275.258825 
L 171.229091 240.786471 
L 187.461818 266.673689 
L 203.694545 226.951275 
L 219.927273 267.760241 
L 236.16 273.90549 
L 252.392727 249.675222 
L 268.625455 220.915761 
L 284.858182 281.889944 
L 301.090909 280.425728 
L 317.323636 265.82494 
L 333.556364 272.075999 
L 349.789091 238.926431 
L 366.021818 261.573685 
L 382.254545 249.263868 
L 398.487273 257.736024 
" clip-path="url(#p0415f666f8)" style="fill: none; stroke: #35b779; stroke-opacity: 0.5; stroke-width: 1.5; stroke-linecap: square"/>
   </g>
   <g id="line2d_22">
    <path d="M 73.832727 245.111419 
L 90.065455 244.707276 
L 106.298182 235.062618 
L 122.530909 243.442911 
L 138.763636 255.88158 
L 154.996364 252.213769 
L 171.229091 236.268686 
L 187.461818 226.795966 
L 203.694545 234.676857 
L 219.927273 225.140483 
L 236.16 282.225679 
L 252.392727 244.884464 
L 268.625455 234.987633 
L 284.858182 220.152999 
L 301.090909 260.557781 
L 317.323636 227.234589 
L 333.556364 205.193628 
L 349.789091 221.666602 
L 366.021818 211.483186 
L 382.254545 215.977313 
L 398.487273 229.402413 
" clip-path="url(#p0415f666f8)" style="fill: none; stroke: #35b779; stroke-opacity: 0.5; stroke-width: 1.5; stroke-linecap: square"/>
   </g>
   <g id="line2d_23">
    <path d="M 73.832727 181.454722 
L 90.065455 224.224727 
L 106.298182 165.084754 
L 122.530909 203.530291 
L 138.763636 197.04623 
L 154.996364 211.808292 
L 171.229091 181.466229 
L 187.461818 203.025746 
L 203.694545 217.027028 
L 219.927273 187.041206 
L 236.16 180.533064 
L 252.392727 207.34681 
L 268.625455 212.383809 
L 284.858182 153.719963 
L 301.090909 218.479626 
L 317.323636 206.217974 
L 333.556364 201.550111 
L 349.789091 200.084449 
L 366.021818 191.743965 
L 382.254545 203.88266 
L 398.487273 183.257231 
" clip-path="url(#p0415f666f8)" style="fill: none; stroke: #35b779; stroke-opacity: 0.5; stroke-width: 1.5; stroke-linecap: square"/>
   </g>
   <g id="line2d_24">
    <path d="M 73.832727 224.094356 
L 90.065455 248.772939 
L 106.298182 218.0548 
L 122.530909 249.656584 
L 138.763636 292.951087 
L 154.996364 269.414624 
L 171.229091 244.200453 
L 187.461818 225.87001 
L 203.694545 188.218645 
L 219.927273 265.415679 
L 236.16 245.193046 
L 252.392727 279.068988 
L 268.625455 277.064037 
L 284.858182 222.222738 
L 301.090909 263.825096 
L 317.323636 264.79188 
L 333.556364 271.598965 
L 349.789091 262.349193 
L 366.021818 275.36527 
L 382.254545 225.084492 
L 398.487273 243.460995 
" clip-path="url(#p0415f666f8)" style="fill: none; stroke: #35b779; stroke-opacity: 0.5; stroke-width: 1.5; stroke-linecap: square"/>
   </g>
   <g id="line2d_25">
    <path d="M 73.832727 286.509714 
L 90.065455 267.294844 
L 106.298182 257.464655 
L 122.530909 280.031291 
L 138.763636 289.318962 
L 154.996364 275.541139 
L 171.229091 284.720084 
L 187.461818 275.51582 
L 203.694545 246.33422 
L 219.927273 256.339428 
L 236.16 237.768355 
L 252.392727 260.864723 
L 268.625455 273.104382 
L 284.858182 237.60337 
L 301.090909 280.192284 
L 317.323636 273.508212 
L 333.556364 286.787307 
L 349.789091 265.02029 
L 366.021818 246.947605 
L 382.254545 237.558495 
L 398.487273 286.528463 
" clip-path="url(#p0415f666f8)" style="fill: none; stroke: #35b779; stroke-opacity: 0.5; stroke-width: 1.5; stroke-linecap: square"/>
   </g>
   <g id="line2d_26">
    <path d="M 73.832727 248.02466 
L 90.065455 216.265259 
L 106.298182 244.22196 
L 122.530909 256.072792 
L 138.763636 259.361491 
L 154.996364 225.706777 
L 171.229091 271.317222 
L 187.461818 250.533309 
L 203.694545 219.240426 
L 219.927273 274.33192 
L 236.16 235.420484 
L 252.392727 262.565181 
L 268.625455 161.891904 
L 284.858182 262.60841 
L 301.090909 225.860905 
L 317.323636 229.238982 
L 333.556364 220.078007 
L 349.789091 270.253976 
L 366.021818 248.301376 
L 382.254545 272.703222 
L 398.487273 238.305289 
" clip-path="url(#p0415f666f8)" style="fill: none; stroke: #35b779; stroke-opacity: 0.5; stroke-width: 1.5; stroke-linecap: square"/>
   </g>
   <g id="line2d_27">
    <path d="M 73.832727 222.52001 
L 90.065455 260.278084 
L 106.298182 266.436822 
L 122.530909 273.158787 
L 138.763636 275.744148 
L 154.996364 266.592888 
L 171.229091 285.536849 
L 187.461818 281.356351 
L 203.694545 295.488 
L 219.927273 273.737928 
L 236.16 284.490341 
L 252.392727 266.957664 
L 268.625455 268.671926 
L 284.858182 285.247672 
L 301.090909 260.789324 
L 317.323636 293.404673 
L 333.556364 273.833783 
L 349.789091 274.510298 
L 366.021818 256.051653 
L 382.254545 283.186271 
L 398.487273 272.889634 
" clip-path="url(#p0415f666f8)" style="fill: none; stroke: #35b779; stroke-opacity: 0.5; stroke-width: 1.5; stroke-linecap: square"/>
   </g>
   <g id="line2d_28">
    <path d="M 73.832727 223.108095 
L 90.065455 271.850902 
L 106.298182 260.203482 
L 122.530909 266.754057 
L 138.763636 267.460272 
L 154.996364 281.633752 
L 171.229091 266.44942 
L 187.461818 262.825515 
L 203.694545 225.002838 
L 219.927273 252.416753 
L 236.16 257.22852 
L 252.392727 287.14618 
L 268.625455 294.325378 
L 284.858182 113.925604 
L 301.090909 262.610812 
L 317.323636 243.067032 
L 333.556364 273.337706 
L 349.789091 275.538161 
L 366.021818 259.664817 
L 382.254545 264.546691 
L 398.487273 215.541282 
" clip-path="url(#p0415f666f8)" style="fill: none; stroke: #35b779; stroke-opacity: 0.5; stroke-width: 1.5; stroke-linecap: square"/>
   </g>
   <g id="line2d_29">
    <path d="M 73.832727 263.85257 
L 90.065455 278.467742 
L 106.298182 275.553187 
L 122.530909 274.593706 
L 138.763636 264.401903 
L 154.996364 284.097614 
L 171.229091 265.875796 
L 187.461818 253.530679 
L 203.694545 243.360871 
L 219.927273 265.966362 
L 236.16 238.937908 
L 252.392727 249.242032 
L 268.625455 240.40397 
L 284.858182 250.970966 
L 301.090909 252.642531 
L 317.323636 259.473998 
L 333.556364 235.57122 
L 349.789091 253.31561 
L 366.021818 246.925104 
L 382.254545 256.328885 
L 398.487273 262.289917 
" clip-path="url(#p0415f666f8)" style="fill: none; stroke: #35b779; stroke-opacity: 0.5; stroke-width: 1.5; stroke-linecap: square"/>
   </g>
   <g id="line2d_30">
    <path d="M 73.832727 199.842567 
L 90.065455 192.760604 
L 106.298182 201.481593 
L 122.530909 203.520294 
L 138.763636 171.857479 
L 154.996364 217.707911 
L 171.229091 212.667503 
L 187.461818 190.900394 
L 203.694545 186.907818 
L 219.927273 201.814201 
L 236.16 192.821107 
L 252.392727 226.318087 
L 268.625455 208.85708 
L 284.858182 238.90672 
L 301.090909 229.990378 
L 317.323636 224.110128 
L 333.556364 192.816781 
L 349.789091 217.366083 
L 366.021818 207.220574 
L 382.254545 199.4383 
L 398.487273 213.004375 
" clip-path="url(#p0415f666f8)" style="fill: none; stroke: #35b779; stroke-opacity: 0.5; stroke-width: 1.5; stroke-linecap: square"/>
   </g>
   <g id="line2d_31">
    <path d="M 73.832727 146.790016 
L 90.065455 201.293359 
L 106.298182 157.414069 
L 122.530909 183.862039 
L 138.763636 156.217305 
L 154.996364 214.009418 
L 171.229091 222.243617 
L 187.461818 213.256822 
L 203.694545 256.246303 
L 219.927273 236.246468 
L 236.16 234.510599 
L 252.392727 231.086425 
L 268.625455 268.917613 
L 284.858182 257.427364 
L 301.090909 255.802569 
L 317.323636 247.084155 
L 333.556364 253.565128 
L 349.789091 243.64064 
L 366.021818 173.558752 
L 382.254545 186.071059 
L 398.487273 227.316186 
" clip-path="url(#p0415f666f8)" style="fill: none; stroke: #35b779; stroke-opacity: 0.5; stroke-width: 1.5; stroke-linecap: square"/>
   </g>
   <g id="line2d_32">
    <path d="M 73.832727 252.37992 
L 90.065455 233.190575 
L 106.298182 238.458263 
L 122.530909 238.216618 
L 138.763636 237.489392 
L 154.996364 270.987665 
L 171.229091 248.41146 
L 187.461818 270.968698 
L 203.694545 264.079893 
L 219.927273 177.37981 
L 236.16 267.9191 
L 252.392727 264.193494 
L 268.625455 254.197785 
L 284.858182 275.7696 
L 301.090909 247.987432 
L 317.323636 227.618988 
L 333.556364 289.601359 
L 349.789091 280.968373 
L 366.021818 279.047876 
L 382.254545 275.046248 
L 398.487273 268.432887 
" clip-path="url(#p0415f666f8)" style="fill: none; stroke: #35b779; stroke-opacity: 0.5; stroke-width: 1.5; stroke-linecap: square"/>
   </g>
   <g id="line2d_33">
    <path d="M 73.832727 240.002774 
L 90.065455 257.505311 
L 106.298182 258.312272 
L 122.530909 243.840674 
L 138.763636 254.859317 
L 154.996364 257.36109 
L 171.229091 235.172589 
L 187.461818 233.921952 
L 203.694545 259.711066 
L 219.927273 232.122195 
L 236.16 221.938296 
L 252.392727 238.903284 
L 268.625455 236.330737 
L 284.858182 209.830113 
L 301.090909 254.618141 
L 317.323636 199.300034 
L 333.556364 267.222772 
L 349.789091 225.885537 
L 366.021818 189.336694 
L 382.254545 168.484918 
L 398.487273 257.08701 
" clip-path="url(#p0415f666f8)" style="fill: none; stroke: #35b779; stroke-opacity: 0.5; stroke-width: 1.5; stroke-linecap: square"/>
   </g>
   <g id="line2d_34">
    <path d="M 73.832727 236.808285 
L 90.065455 279.877957 
L 106.298182 263.385082 
L 122.530909 270.186197 
L 138.763636 230.968031 
L 154.996364 229.331365 
L 171.229091 215.548268 
L 187.461818 228.186582 
L 203.694545 226.470942 
L 219.927273 236.6068 
L 236.16 253.033797 
L 252.392727 282.318657 
L 268.625455 260.334141 
L 284.858182 223.132443 
L 301.090909 264.024681 
L 317.323636 240.387324 
L 333.556364 256.311305 
L 349.789091 251.857357 
L 366.021818 261.094077 
L 382.254545 274.569185 
L 398.487273 243.132208 
" clip-path="url(#p0415f666f8)" style="fill: none; stroke: #35b779; stroke-opacity: 0.5; stroke-width: 1.5; stroke-linecap: square"/>
   </g>
   <g id="line2d_35">
    <path d="M 73.832727 241.773166 
L 90.065455 229.963805 
L 106.298182 177.35198 
L 122.530909 216.119692 
L 138.763636 207.056345 
L 154.996364 209.889363 
L 171.229091 195.113563 
L 187.461818 240.669349 
L 203.694545 217.262921 
L 219.927273 225.14414 
L 236.16 192.261204 
L 252.392727 235.189827 
L 268.625455 190.38286 
L 284.858182 215.961378 
L 301.090909 227.984305 
L 317.323636 159.14609 
L 333.556364 175.812447 
L 349.789091 201.596322 
L 366.021818 142.13145 
L 382.254545 187.630813 
L 398.487273 215.623258 
" clip-path="url(#p0415f666f8)" style="fill: none; stroke: #35b779; stroke-opacity: 0.5; stroke-width: 1.5; stroke-linecap: square"/>
   </g>
   <g id="line2d_36">
    <path d="M 73.832727 284.720342 
L 90.065455 273.831078 
L 106.298182 184.456202 
L 122.530909 241.064886 
L 138.763636 230.578995 
L 154.996364 229.392167 
L 171.229091 235.176215 
L 187.461818 254.872594 
L 203.694545 237.04425 
L 219.927273 255.392985 
L 236.16 170.094983 
L 252.392727 220.786375 
L 268.625455 201.873578 
L 284.858182 194.132986 
L 301.090909 209.671576 
L 317.323636 205.99316 
L 333.556364 218.129345 
L 349.789091 259.618184 
L 366.021818 222.616001 
L 382.254545 232.80536 
L 398.487273 251.678902 
" clip-path="url(#p0415f666f8)" style="fill: none; stroke: #35b779; stroke-opacity: 0.5; stroke-width: 1.5; stroke-linecap: square"/>
   </g>
   <g id="line2d_37">
    <path d="M 73.832727 195.186422 
L 90.065455 190.846389 
L 106.298182 179.63414 
L 122.530909 205.66994 
L 138.763636 174.01065 
L 154.996364 205.83816 
L 171.229091 215.175321 
L 187.461818 215.457768 
L 203.694545 206.738996 
L 219.927273 195.536745 
L 236.16 209.047363 
L 252.392727 170.826868 
L 268.625455 195.534044 
L 284.858182 176.510407 
L 301.090909 177.087041 
L 317.323636 169.592003 
L 333.556364 225.084337 
L 349.789091 209.357658 
L 366.021818 206.463332 
L 382.254545 201.830148 
L 398.487273 192.205828 
" clip-path="url(#p0415f666f8)" style="fill: none; stroke: #35b779; stroke-opacity: 0.5; stroke-width: 1.5; stroke-linecap: square"/>
   </g>
   <g id="line2d_38">
    <path d="M 73.832727 219.143258 
L 90.065455 162.978075 
L 106.298182 208.502571 
L 122.530909 198.769462 
L 138.763636 191.610297 
L 154.996364 231.685788 
L 171.229091 218.141518 
L 187.461818 235.330014 
L 203.694545 220.289859 
L 219.927273 193.045469 
L 236.16 232.86563 
L 252.392727 246.025116 
L 268.625455 225.376955 
L 284.858182 206.432639 
L 301.090909 251.477323 
L 317.323636 250.397038 
L 333.556364 242.887924 
L 349.789091 239.41311 
L 366.021818 268.887033 
L 382.254545 267.517092 
L 398.487273 280.619504 
" clip-path="url(#p0415f666f8)" style="fill: none; stroke: #35b779; stroke-opacity: 0.5; stroke-width: 1.5; stroke-linecap: square"/>
   </g>
   <g id="line2d_39">
    <path d="M 73.832727 113.822982 
L 90.065455 177.092085 
L 106.298182 161.852042 
L 122.530909 238.242951 
L 138.763636 241.282279 
L 154.996364 247.732894 
L 171.229091 236.955601 
L 187.461818 130.590592 
L 203.694545 164.264119 
L 219.927273 236.012369 
L 236.16 185.799643 
L 252.392727 257.652923 
L 268.625455 203.993628 
L 284.858182 211.105866 
L 301.090909 230.615712 
L 317.323636 211.519082 
L 333.556364 221.53785 
L 349.789091 256.362254 
L 366.021818 255.923081 
L 382.254545 229.884389 
L 398.487273 251.434845 
" clip-path="url(#p0415f666f8)" style="fill: none; stroke: #35b779; stroke-opacity: 0.5; stroke-width: 1.5; stroke-linecap: square"/>
   </g>
   <g id="line2d_40">
    <path d="M 73.832727 222.885927 
L 90.065455 225.251707 
L 106.298182 257.617227 
L 122.530909 276.894585 
L 138.763636 274.574517 
L 154.996364 270.756483 
L 171.229091 233.554894 
L 187.461818 226.268169 
L 203.694545 226.911308 
L 219.927273 175.730098 
L 236.16 218.951841 
L 252.392727 249.242839 
L 268.625455 228.809954 
L 284.858182 218.423819 
L 301.090909 226.407889 
L 317.323636 249.690464 
L 333.556364 180.547851 
L 349.789091 165.646734 
L 366.021818 201.858558 
L 382.254545 212.326864 
L 398.487273 155.138853 
" clip-path="url(#p0415f666f8)" style="fill: none; stroke: #35b779; stroke-opacity: 0.5; stroke-width: 1.5; stroke-linecap: square"/>
   </g>
   <g id="line2d_41">
    <path d="M 73.832727 249.717607 
L 90.065455 211.832429 
L 106.298182 208.360309 
L 122.530909 191.76738 
L 138.763636 181.469581 
L 154.996364 267.529965 
L 171.229091 213.736951 
L 187.461818 271.63373 
L 203.694545 196.472346 
L 219.927273 245.619264 
L 236.16 261.772323 
L 252.392727 260.57182 
L 268.625455 252.315848 
L 284.858182 248.150696 
L 301.090909 263.421127 
L 317.323636 281.283823 
L 333.556364 246.075872 
L 349.789091 275.238336 
L 366.021818 267.995561 
L 382.254545 218.673095 
L 398.487273 257.296504 
" clip-path="url(#p0415f666f8)" style="fill: none; stroke: #35b779; stroke-opacity: 0.5; stroke-width: 1.5; stroke-linecap: square"/>
   </g>
   <g id="line2d_42">
    <path d="M 73.832727 226.874366 
L 90.065455 215.975657 
L 106.298182 201.725945 
L 122.530909 219.112111 
L 138.763636 218.864364 
L 154.996364 237.744586 
L 171.229091 243.146314 
L 187.461818 233.721741 
L 203.694545 229.79168 
L 219.927273 230.012147 
L 236.16 228.597785 
L 252.392727 217.496969 
L 268.625455 214.452304 
L 284.858182 237.687936 
L 301.090909 221.927621 
L 317.323636 245.510961 
L 333.556364 223.238615 
L 349.789091 202.04401 
L 366.021818 208.517894 
L 382.254545 219.792427 
L 398.487273 221.538028 
" clip-path="url(#p0415f666f8)" style="fill: none; stroke: #35b779; stroke-opacity: 0.5; stroke-width: 1.5; stroke-linecap: square"/>
   </g>
   <g id="line2d_43">
    <path d="M 73.832727 278.296489 
L 90.065455 219.776583 
L 106.298182 252.865102 
L 122.530909 244.002537 
L 138.763636 250.803926 
L 154.996364 246.439361 
L 171.229091 281.725518 
L 187.461818 251.156348 
L 203.694545 229.222624 
L 219.927273 280.750053 
L 236.16 276.328873 
L 252.392727 273.559539 
L 268.625455 255.843282 
L 284.858182 268.818872 
L 301.090909 286.73332 
L 317.323636 284.376452 
L 333.556364 275.313292 
L 349.789091 266.3461 
L 366.021818 276.303089 
L 382.254545 253.706085 
L 398.487273 277.523256 
" clip-path="url(#p0415f666f8)" style="fill: none; stroke: #35b779; stroke-opacity: 0.5; stroke-width: 1.5; stroke-linecap: square"/>
   </g>
   <g id="line2d_44">
    <path d="M 73.832727 222.474355 
L 90.065455 219.369105 
L 106.298182 204.116389 
L 122.530909 205.538948 
L 138.763636 209.083372 
L 154.996364 213.176419 
L 171.229091 191.784983 
L 187.461818 190.907664 
L 203.694545 160.776617 
L 219.927273 196.401786 
L 236.16 159.084951 
L 252.392727 178.081891 
L 268.625455 146.52734 
L 284.858182 172.346139 
L 301.090909 164.77372 
L 317.323636 174.75304 
L 333.556364 157.104135 
L 349.789091 161.75351 
L 366.021818 178.48643 
L 382.254545 178.347327 
L 398.487273 187.747699 
" clip-path="url(#p0415f666f8)" style="fill: none; stroke: #35b779; stroke-opacity: 0.5; stroke-width: 1.5; stroke-linecap: square"/>
   </g>
   <g id="line2d_45">
    <path d="M 73.832727 176.300572 
L 90.065455 203.67378 
L 106.298182 209.88272 
L 122.530909 235.63813 
L 138.763636 262.051018 
L 154.996364 257.973568 
L 171.229091 256.951969 
L 187.461818 233.737401 
L 203.694545 252.496975 
L 219.927273 198.335973 
L 236.16 210.063231 
L 252.392727 177.119841 
L 268.625455 241.620609 
L 284.858182 218.98773 
L 301.090909 238.657632 
L 317.323636 234.02118 
L 333.556364 252.698451 
L 349.789091 275.650722 
L 366.021818 279.696068 
L 382.254545 277.982674 
L 398.487273 176.944655 
" clip-path="url(#p0415f666f8)" style="fill: none; stroke: #35b779; stroke-opacity: 0.5; stroke-width: 1.5; stroke-linecap: square"/>
   </g>
   <g id="line2d_46">
    <path d="M 73.832727 247.626048 
L 90.065455 219.732928 
L 106.298182 215.377903 
L 122.530909 194.845419 
L 138.763636 199.246566 
L 154.996364 222.072935 
L 171.229091 212.860264 
L 187.461818 231.328037 
L 203.694545 205.873081 
L 219.927273 257.539153 
L 236.16 248.226299 
L 252.392727 232.931155 
L 268.625455 235.861756 
L 284.858182 243.442703 
L 301.090909 263.138375 
L 317.323636 236.282177 
L 333.556364 271.553311 
L 349.789091 289.916407 
L 366.021818 260.284952 
L 382.254545 285.017238 
L 398.487273 258.577386 
" clip-path="url(#p0415f666f8)" style="fill: none; stroke: #35b779; stroke-opacity: 0.5; stroke-width: 1.5; stroke-linecap: square"/>
   </g>
   <g id="line2d_47">
    <path d="M 73.832727 255.685037 
L 90.065455 190.122995 
L 106.298182 213.230302 
L 122.530909 195.930401 
L 138.763636 179.047824 
L 154.996364 139.683697 
L 171.229091 161.714894 
L 187.461818 216.945404 
L 203.694545 211.84527 
L 219.927273 145.442701 
L 236.16 219.23508 
L 252.392727 206.650949 
L 268.625455 192.457106 
L 284.858182 197.65899 
L 301.090909 163.886569 
L 317.323636 193.405111 
L 333.556364 163.33708 
L 349.789091 157.642395 
L 366.021818 147.466572 
L 382.254545 130.092036 
L 398.487273 176.214592 
" clip-path="url(#p0415f666f8)" style="fill: none; stroke: #35b779; stroke-opacity: 0.5; stroke-width: 1.5; stroke-linecap: square"/>
   </g>
   <g id="line2d_48">
    <path d="M 73.832727 253.246472 
L 90.065455 257.016428 
L 106.298182 245.087839 
L 122.530909 245.575237 
L 138.763636 241.19099 
L 154.996364 256.831128 
L 171.229091 255.175903 
L 187.461818 220.118348 
L 203.694545 244.044261 
L 219.927273 233.537709 
L 236.16 254.536742 
L 252.392727 277.825647 
L 268.625455 221.644773 
L 284.858182 253.66327 
L 301.090909 269.069702 
L 317.323636 233.819876 
L 333.556364 219.45548 
L 349.789091 226.594518 
L 366.021818 210.862086 
L 382.254545 253.144825 
L 398.487273 248.589768 
" clip-path="url(#p0415f666f8)" style="fill: none; stroke: #35b779; stroke-opacity: 0.5; stroke-width: 1.5; stroke-linecap: square"/>
   </g>
   <g id="line2d_49">
    <path d="M 73.832727 222.101231 
L 90.065455 217.48909 
L 106.298182 215.169291 
L 122.530909 237.246115 
L 138.763636 237.856698 
L 154.996364 245.359238 
L 171.229091 245.833815 
L 187.461818 227.376307 
L 203.694545 217.01087 
L 219.927273 248.75036 
L 236.16 234.198348 
L 252.392727 241.213801 
L 268.625455 227.358106 
L 284.858182 221.19515 
L 301.090909 199.547994 
L 317.323636 232.693893 
L 333.556364 203.364817 
L 349.789091 228.137462 
L 366.021818 214.932709 
L 382.254545 136.309372 
L 398.487273 214.28488 
" clip-path="url(#p0415f666f8)" style="fill: none; stroke: #35b779; stroke-opacity: 0.5; stroke-width: 1.5; stroke-linecap: square"/>
   </g>
   <g id="line2d_50">
    <path d="M 73.832727 272.019424 
L 90.065455 273.646656 
L 106.298182 269.428672 
L 122.530909 263.629535 
L 138.763636 273.389252 
L 154.996364 273.597286 
L 171.229091 238.313872 
L 187.461818 271.330386 
L 203.694545 238.639557 
L 219.927273 266.883655 
L 236.16 238.015487 
L 252.392727 252.187433 
L 268.625455 225.498883 
L 284.858182 272.099316 
L 301.090909 225.094259 
L 317.323636 278.971688 
L 333.556364 237.04848 
L 349.789091 208.65597 
L 366.021818 252.546634 
L 382.254545 187.777701 
L 398.487273 195.585719 
" clip-path="url(#p0415f666f8)" style="fill: none; stroke: #35b779; stroke-opacity: 0.5; stroke-width: 1.5; stroke-linecap: square"/>
   </g>
   <g id="line2d_51">
    <path d="M 73.832727 228.605798 
L 90.065455 213.199148 
L 106.298182 188.563533 
L 122.530909 223.3302 
L 138.763636 243.657734 
L 154.996364 240.736045 
L 171.229091 227.438012 
L 187.461818 230.809461 
L 203.694545 217.811703 
L 219.927273 228.633902 
L 236.16 196.874296 
L 252.392727 230.650574 
L 268.625455 229.345959 
L 284.858182 205.720097 
L 301.090909 201.829139 
L 317.323636 233.505989 
L 333.556364 193.985605 
L 349.789091 207.044745 
L 366.021818 187.96976 
L 382.254545 194.863469 
L 398.487273 192.589783 
" clip-path="url(#p0415f666f8)" style="fill: none; stroke: #35b779; stroke-opacity: 0.5; stroke-width: 1.5; stroke-linecap: square"/>
   </g>
   <g id="line2d_52">
    <path d="M 73.832727 184.323349 
L 90.065455 166.085869 
L 106.298182 136.281959 
L 122.530909 205.915086 
L 138.763636 167.325653 
L 154.996364 173.646746 
L 171.229091 238.916301 
L 187.461818 218.376482 
L 203.694545 228.942479 
L 219.927273 286.379682 
L 236.16 209.951941 
L 252.392727 140.812169 
L 268.625455 221.86718 
L 284.858182 150.667044 
L 301.090909 222.084967 
L 317.323636 199.397308 
L 333.556364 217.477968 
L 349.789091 214.16936 
L 366.021818 231.009648 
L 382.254545 203.794402 
L 398.487273 250.572342 
" clip-path="url(#p0415f666f8)" style="fill: none; stroke: #35b779; stroke-opacity: 0.5; stroke-width: 1.5; stroke-linecap: square"/>
   </g>
   <g id="line2d_53">
    <path d="M 73.832727 269.010794 
L 90.065455 228.194235 
L 106.298182 204.601014 
L 122.530909 236.129997 
L 138.763636 213.728321 
L 154.996364 231.647027 
L 171.229091 215.529681 
L 187.461818 262.75556 
L 203.694545 244.287171 
L 219.927273 278.666149 
L 236.16 268.608408 
L 252.392727 224.95201 
L 268.625455 253.87074 
L 284.858182 229.795624 
L 301.090909 256.690091 
L 317.323636 260.995768 
L 333.556364 259.233006 
L 349.789091 253.368328 
L 366.021818 263.872387 
L 382.254545 256.691149 
L 398.487273 250.949615 
" clip-path="url(#p0415f666f8)" style="fill: none; stroke: #35b779; stroke-opacity: 0.5; stroke-width: 1.5; stroke-linecap: square"/>
   </g>
   <g id="line2d_54">
    <path d="M 73.832727 242.367089 
L 90.065455 211.130414 
L 106.298182 235.516122 
L 122.530909 227.921406 
L 138.763636 225.844954 
L 154.996364 225.149545 
L 171.229091 220.630733 
L 187.461818 234.480032 
L 203.694545 219.017262 
L 219.927273 222.169229 
L 236.16 201.064167 
L 252.392727 197.357678 
L 268.625455 223.703565 
L 284.858182 223.090652 
L 301.090909 249.532703 
L 317.323636 238.609572 
L 333.556364 236.036263 
L 349.789091 248.542721 
L 366.021818 241.729408 
L 382.254545 237.128019 
L 398.487273 245.578817 
" clip-path="url(#p0415f666f8)" style="fill: none; stroke: #35b779; stroke-opacity: 0.5; stroke-width: 1.5; stroke-linecap: square"/>
   </g>
   <g id="line2d_55">
    <path d="M 73.832727 217.749109 
L 90.065455 226.185835 
L 106.298182 228.278471 
L 122.530909 214.792613 
L 138.763636 220.476346 
L 154.996364 237.402346 
L 171.229091 248.15441 
L 187.461818 213.691184 
L 203.694545 223.389709 
L 219.927273 263.693884 
L 236.16 237.087536 
L 252.392727 253.140959 
L 268.625455 217.415637 
L 284.858182 225.730941 
L 301.090909 256.556301 
L 317.323636 253.483695 
L 333.556364 242.521616 
L 349.789091 250.866529 
L 366.021818 241.6693 
L 382.254545 240.673266 
L 398.487273 235.922669 
" clip-path="url(#p0415f666f8)" style="fill: none; stroke: #35b779; stroke-opacity: 0.5; stroke-width: 1.5; stroke-linecap: square"/>
   </g>
   <g id="line2d_56">
    <path d="M 73.832727 250.901687 
L 90.065455 53.568 
L 106.298182 165.185157 
L 122.530909 162.92542 
L 138.763636 141.82032 
L 154.996364 211.54371 
L 171.229091 173.967464 
L 187.461818 161.281101 
L 203.694545 212.81652 
L 219.927273 194.485852 
L 236.16 136.862874 
L 252.392727 180.841232 
L 268.625455 190.101126 
L 284.858182 203.667567 
L 301.090909 98.131142 
L 317.323636 146.40468 
L 333.556364 172.769368 
L 349.789091 186.596142 
L 366.021818 122.026347 
L 382.254545 142.829931 
L 398.487273 214.423731 
" clip-path="url(#p0415f666f8)" style="fill: none; stroke: #35b779; stroke-opacity: 0.5; stroke-width: 1.5; stroke-linecap: square"/>
   </g>
   <g id="line2d_57">
    <path d="M 73.832727 236.306123 
L 90.065455 235.789859 
L 106.298182 197.832843 
L 122.530909 248.233394 
L 138.763636 234.081319 
L 154.996364 165.836575 
L 171.229091 263.356346 
L 187.461818 264.731952 
L 203.694545 255.036465 
L 219.927273 258.502138 
L 236.16 248.301506 
L 252.392727 265.786755 
L 268.625455 250.702498 
L 284.858182 232.582225 
L 301.090909 218.93712 
L 317.323636 243.5306 
L 333.556364 268.660146 
L 349.789091 244.971817 
L 366.021818 238.191594 
L 382.254545 251.585543 
L 398.487273 275.642947 
" clip-path="url(#p0415f666f8)" style="fill: none; stroke: #35b779; stroke-opacity: 0.5; stroke-width: 1.5; stroke-linecap: square"/>
   </g>
   <g id="line2d_58">
    <path d="M 73.832727 238.410964 
L 90.065455 227.170504 
L 106.298182 233.304073 
L 122.530909 242.024373 
L 138.763636 223.514435 
L 154.996364 237.897051 
L 171.229091 242.214472 
L 187.461818 230.885578 
L 203.694545 234.688011 
L 219.927273 238.428467 
L 236.16 232.067185 
L 252.392727 221.677421 
L 268.625455 234.918139 
L 284.858182 258.588572 
L 301.090909 203.914608 
L 317.323636 250.082799 
L 333.556364 227.209884 
L 349.789091 257.228872 
L 366.021818 241.104178 
L 382.254545 233.199009 
L 398.487273 248.883178 
" clip-path="url(#p0415f666f8)" style="fill: none; stroke: #35b779; stroke-opacity: 0.5; stroke-width: 1.5; stroke-linecap: square"/>
   </g>
   <g id="patch_3">
    <path d="M 57.6 307.584 
L 57.6 41.472 
" style="fill: none; stroke: #000000; stroke-width: 3; stroke-linejoin: miter; stroke-linecap: square"/>
   </g>
   <g id="patch_4">
    <path d="M 414.72 307.584 
L 414.72 41.472 
" style="fill: none; stroke: #000000; stroke-width: 3; stroke-linejoin: miter; stroke-linecap: square"/>
   </g>
   <g id="patch_5">
    <path d="M 57.6 307.584 
L 414.72 307.584 
" style="fill: none; stroke: #000000; stroke-width: 3; stroke-linejoin: miter; stroke-linecap: square"/>
   </g>
   <g id="patch_6">
    <path d="M 57.6 41.472 
L 414.72 41.472 
" style="fill: none; stroke: #000000; stroke-width: 3; stroke-linejoin: miter; stroke-linecap: square"/>
   </g>
   <g id="text_14">
    <!-- Atom Type O (n=45, mean Q=7.98) -->
    <g transform="translate(39.839219 35.472) scale(0.22 -0.22)">
     <defs>
      <path id="DejaVuSans-41" d="M 2188 4044 
L 1331 1722 
L 3047 1722 
L 2188 4044 
z
M 1831 4666 
L 2547 4666 
L 4325 0 
L 3669 0 
L 3244 1197 
L 1141 1197 
L 716 0 
L 50 0 
L 1831 4666 
z
" transform="scale(0.015625)"/>
      <path id="DejaVuSans-74" d="M 1172 4494 
L 1172 3500 
L 2356 3500 
L 2356 3053 
L 1172 3053 
L 1172 1153 
Q 1172 725 1289 603 
Q 1406 481 1766 481 
L 2356 481 
L 2356 0 
L 1766 0 
Q 1100 0 847 248 
Q 594 497 594 1153 
L 594 3053 
L 172 3053 
L 172 3500 
L 594 3500 
L 594 4494 
L 1172 4494 
z
" transform="scale(0.015625)"/>
      <path id="DejaVuSans-6f" d="M 1959 3097 
Q 1497 3097 1228 2736 
Q 959 2375 959 1747 
Q 959 1119 1226 758 
Q 1494 397 1959 397 
Q 2419 397 2687 759 
Q 2956 1122 2956 1747 
Q 2956 2369 2687 2733 
Q 2419 3097 1959 3097 
z
M 1959 3584 
Q 2709 3584 3137 3096 
Q 3566 2609 3566 1747 
Q 3566 888 3137 398 
Q 2709 -91 1959 -91 
Q 1206 -91 779 398 
Q 353 888 353 1747 
Q 353 2609 779 3096 
Q 1206 3584 1959 3584 
z
" transform="scale(0.015625)"/>
      <path id="DejaVuSans-6d" d="M 3328 2828 
Q 3544 3216 3844 3400 
Q 4144 3584 4550 3584 
Q 5097 3584 5394 3201 
Q 5691 2819 5691 2113 
L 5691 0 
L 5113 0 
L 5113 2094 
Q 5113 2597 4934 2840 
Q 4756 3084 4391 3084 
Q 3944 3084 3684 2787 
Q 3425 2491 3425 1978 
L 3425 0 
L 2847 0 
L 2847 2094 
Q 2847 2600 2669 2842 
Q 2491 3084 2119 3084 
Q 1678 3084 1418 2786 
Q 1159 2488 1159 1978 
L 1159 0 
L 581 0 
L 581 3500 
L 1159 3500 
L 1159 2956 
Q 1356 3278 1631 3431 
Q 1906 3584 2284 3584 
Q 2666 3584 2933 3390 
Q 3200 3197 3328 2828 
z
" transform="scale(0.015625)"/>
      <path id="DejaVuSans-20" transform="scale(0.015625)"/>
      <path id="DejaVuSans-54" d="M -19 4666 
L 3928 4666 
L 3928 4134 
L 2272 4134 
L 2272 0 
L 1638 0 
L 1638 4134 
L -19 4134 
L -19 4666 
z
" transform="scale(0.015625)"/>
      <path id="DejaVuSans-79" d="M 2059 -325 
Q 1816 -950 1584 -1140 
Q 1353 -1331 966 -1331 
L 506 -1331 
L 506 -850 
L 844 -850 
Q 1081 -850 1212 -737 
Q 1344 -625 1503 -206 
L 1606 56 
L 191 3500 
L 800 3500 
L 1894 763 
L 2988 3500 
L 3597 3500 
L 2059 -325 
z
" transform="scale(0.015625)"/>
      <path id="DejaVuSans-70" d="M 1159 525 
L 1159 -1331 
L 581 -1331 
L 581 3500 
L 1159 3500 
L 1159 2969 
Q 1341 3281 1617 3432 
Q 1894 3584 2278 3584 
Q 2916 3584 3314 3078 
Q 3713 2572 3713 1747 
Q 3713 922 3314 415 
Q 2916 -91 2278 -91 
Q 1894 -91 1617 61 
Q 1341 213 1159 525 
z
M 3116 1747 
Q 3116 2381 2855 2742 
Q 2594 3103 2138 3103 
Q 1681 3103 1420 2742 
Q 1159 2381 1159 1747 
Q 1159 1113 1420 752 
Q 1681 391 2138 391 
Q 2594 391 2855 752 
Q 3116 1113 3116 1747 
z
" transform="scale(0.015625)"/>
      <path id="DejaVuSans-65" d="M 3597 1894 
L 3597 1613 
L 953 1613 
Q 991 1019 1311 708 
Q 1631 397 2203 397 
Q 2534 397 2845 478 
Q 3156 559 3463 722 
L 3463 178 
Q 3153 47 2828 -22 
Q 2503 -91 2169 -91 
Q 1331 -91 842 396 
Q 353 884 353 1716 
Q 353 2575 817 3079 
Q 1281 3584 2069 3584 
Q 2775 3584 3186 3129 
Q 3597 2675 3597 1894 
z
M 3022 2063 
Q 3016 2534 2758 2815 
Q 2500 3097 2075 3097 
Q 1594 3097 1305 2825 
Q 1016 2553 972 2059 
L 3022 2063 
z
" transform="scale(0.015625)"/>
      <path id="DejaVuSans-4f" d="M 2522 4238 
Q 1834 4238 1429 3725 
Q 1025 3213 1025 2328 
Q 1025 1447 1429 934 
Q 1834 422 2522 422 
Q 3209 422 3611 934 
Q 4013 1447 4013 2328 
Q 4013 3213 3611 3725 
Q 3209 4238 2522 4238 
z
M 2522 4750 
Q 3503 4750 4090 4092 
Q 4678 3434 4678 2328 
Q 4678 1225 4090 567 
Q 3503 -91 2522 -91 
Q 1538 -91 948 565 
Q 359 1222 359 2328 
Q 359 3434 948 4092 
Q 1538 4750 2522 4750 
z
" transform="scale(0.015625)"/>
      <path id="DejaVuSans-28" d="M 1984 4856 
Q 1566 4138 1362 3434 
Q 1159 2731 1159 2009 
Q 1159 1288 1364 580 
Q 1569 -128 1984 -844 
L 1484 -844 
Q 1016 -109 783 600 
Q 550 1309 550 2009 
Q 550 2706 781 3412 
Q 1013 4119 1484 4856 
L 1984 4856 
z
" transform="scale(0.015625)"/>
      <path id="DejaVuSans-6e" d="M 3513 2113 
L 3513 0 
L 2938 0 
L 2938 2094 
Q 2938 2591 2744 2837 
Q 2550 3084 2163 3084 
Q 1697 3084 1428 2787 
Q 1159 2491 1159 1978 
L 1159 0 
L 581 0 
L 581 3500 
L 1159 3500 
L 1159 2956 
Q 1366 3272 1645 3428 
Q 1925 3584 2291 3584 
Q 2894 3584 3203 3211 
Q 3513 2838 3513 2113 
z
" transform="scale(0.015625)"/>
      <path id="DejaVuSans-3d" d="M 678 2906 
L 4684 2906 
L 4684 2381 
L 678 2381 
L 678 2906 
z
M 678 1631 
L 4684 1631 
L 4684 1100 
L 678 1100 
L 678 1631 
z
" transform="scale(0.015625)"/>
      <path id="DejaVuSans-34" d="M 2419 4116 
L 825 1625 
L 2419 1625 
L 2419 4116 
z
M 2253 4666 
L 3047 4666 
L 3047 1625 
L 3713 1625 
L 3713 1100 
L 3047 1100 
L 3047 0 
L 2419 0 
L 2419 1100 
L 313 1100 
L 313 1709 
L 2253 4666 
z
" transform="scale(0.015625)"/>
      <path id="DejaVuSans-2c" d="M 750 794 
L 1409 794 
L 1409 256 
L 897 -744 
L 494 -744 
L 750 256 
L 750 794 
z
" transform="scale(0.015625)"/>
      <path id="DejaVuSans-61" d="M 2194 1759 
Q 1497 1759 1228 1600 
Q 959 1441 959 1056 
Q 959 750 1161 570 
Q 1363 391 1709 391 
Q 2188 391 2477 730 
Q 2766 1069 2766 1631 
L 2766 1759 
L 2194 1759 
z
M 3341 1997 
L 3341 0 
L 2766 0 
L 2766 531 
Q 2569 213 2275 61 
Q 1981 -91 1556 -91 
Q 1019 -91 701 211 
Q 384 513 384 1019 
Q 384 1609 779 1909 
Q 1175 2209 1959 2209 
L 2766 2209 
L 2766 2266 
Q 2766 2663 2505 2880 
Q 2244 3097 1772 3097 
Q 1472 3097 1187 3025 
Q 903 2953 641 2809 
L 641 3341 
Q 956 3463 1253 3523 
Q 1550 3584 1831 3584 
Q 2591 3584 2966 3190 
Q 3341 2797 3341 1997 
z
" transform="scale(0.015625)"/>
      <path id="DejaVuSans-51" d="M 2522 4238 
Q 1834 4238 1429 3725 
Q 1025 3213 1025 2328 
Q 1025 1447 1429 934 
Q 1834 422 2522 422 
Q 3209 422 3611 934 
Q 4013 1447 4013 2328 
Q 4013 3213 3611 3725 
Q 3209 4238 2522 4238 
z
M 3406 84 
L 4238 -825 
L 3475 -825 
L 2784 -78 
Q 2681 -84 2626 -87 
Q 2572 -91 2522 -91 
Q 1538 -91 948 567 
Q 359 1225 359 2328 
Q 359 3434 948 4092 
Q 1538 4750 2522 4750 
Q 3503 4750 4090 4092 
Q 4678 3434 4678 2328 
Q 4678 1516 4351 937 
Q 4025 359 3406 84 
z
" transform="scale(0.015625)"/>
      <path id="DejaVuSans-39" d="M 703 97 
L 703 672 
Q 941 559 1184 500 
Q 1428 441 1663 441 
Q 2288 441 2617 861 
Q 2947 1281 2994 2138 
Q 2813 1869 2534 1725 
Q 2256 1581 1919 1581 
Q 1219 1581 811 2004 
Q 403 2428 403 3163 
Q 403 3881 828 4315 
Q 1253 4750 1959 4750 
Q 2769 4750 3195 4129 
Q 3622 3509 3622 2328 
Q 3622 1225 3098 567 
Q 2575 -91 1691 -91 
Q 1453 -91 1209 -44 
Q 966 3 703 97 
z
M 1959 2075 
Q 2384 2075 2632 2365 
Q 2881 2656 2881 3163 
Q 2881 3666 2632 3958 
Q 2384 4250 1959 4250 
Q 1534 4250 1286 3958 
Q 1038 3666 1038 3163 
Q 1038 2656 1286 2365 
Q 1534 2075 1959 2075 
z
" transform="scale(0.015625)"/>
      <path id="DejaVuSans-38" d="M 2034 2216 
Q 1584 2216 1326 1975 
Q 1069 1734 1069 1313 
Q 1069 891 1326 650 
Q 1584 409 2034 409 
Q 2484 409 2743 651 
Q 3003 894 3003 1313 
Q 3003 1734 2745 1975 
Q 2488 2216 2034 2216 
z
M 1403 2484 
Q 997 2584 770 2862 
Q 544 3141 544 3541 
Q 544 4100 942 4425 
Q 1341 4750 2034 4750 
Q 2731 4750 3128 4425 
Q 3525 4100 3525 3541 
Q 3525 3141 3298 2862 
Q 3072 2584 2669 2484 
Q 3125 2378 3379 2068 
Q 3634 1759 3634 1313 
Q 3634 634 3220 271 
Q 2806 -91 2034 -91 
Q 1263 -91 848 271 
Q 434 634 434 1313 
Q 434 1759 690 2068 
Q 947 2378 1403 2484 
z
M 1172 3481 
Q 1172 3119 1398 2916 
Q 1625 2713 2034 2713 
Q 2441 2713 2670 2916 
Q 2900 3119 2900 3481 
Q 2900 3844 2670 4047 
Q 2441 4250 2034 4250 
Q 1625 4250 1398 4047 
Q 1172 3844 1172 3481 
z
" transform="scale(0.015625)"/>
      <path id="DejaVuSans-29" d="M 513 4856 
L 1013 4856 
Q 1481 4119 1714 3412 
Q 1947 2706 1947 2009 
Q 1947 1309 1714 600 
Q 1481 -109 1013 -844 
L 513 -844 
Q 928 -128 1133 580 
Q 1338 1288 1338 2009 
Q 1338 2731 1133 3434 
Q 928 4138 513 4856 
z
" transform="scale(0.015625)"/>
     </defs>
     <use xlink:href="#DejaVuSans-41"/>
     <use xlink:href="#DejaVuSans-74" transform="translate(66.658203 0)"/>
     <use xlink:href="#DejaVuSans-6f" transform="translate(105.867188 0)"/>
     <use xlink:href="#DejaVuSans-6d" transform="translate(167.048828 0)"/>
     <use xlink:href="#DejaVuSans-20" transform="translate(264.460938 0)"/>
     <use xlink:href="#DejaVuSans-54" transform="translate(296.248047 0)"/>
     <use xlink:href="#DejaVuSans-79" transform="translate(341.707031 0)"/>
     <use xlink:href="#DejaVuSans-70" transform="translate(400.886719 0)"/>
     <use xlink:href="#DejaVuSans-65" transform="translate(464.363281 0)"/>
     <use xlink:href="#DejaVuSans-20" transform="translate(525.886719 0)"/>
     <use xlink:href="#DejaVuSans-4f" transform="translate(557.673828 0)"/>
     <use xlink:href="#DejaVuSans-20" transform="translate(636.384766 0)"/>
     <use xlink:href="#DejaVuSans-28" transform="translate(668.171875 0)"/>
     <use xlink:href="#DejaVuSans-6e" transform="translate(707.185547 0)"/>
     <use xlink:href="#DejaVuSans-3d" transform="translate(770.564453 0)"/>
     <use xlink:href="#DejaVuSans-34" transform="translate(854.353516 0)"/>
     <use xlink:href="#DejaVuSans-35" transform="translate(917.976562 0)"/>
     <use xlink:href="#DejaVuSans-2c" transform="translate(981.599609 0)"/>
     <use xlink:href="#DejaVuSans-20" transform="translate(1013.386719 0)"/>
     <use xlink:href="#DejaVuSans-6d" transform="translate(1045.173828 0)"/>
     <use xlink:href="#DejaVuSans-65" transform="translate(1142.585938 0)"/>
     <use xlink:href="#DejaVuSans-61" transform="translate(1204.109375 0)"/>
     <use xlink:href="#DejaVuSans-6e" transform="translate(1265.388672 0)"/>
     <use xlink:href="#DejaVuSans-20" transform="translate(1328.767578 0)"/>
     <use xlink:href="#DejaVuSans-51" transform="translate(1360.554688 0)"/>
     <use xlink:href="#DejaVuSans-3d" transform="translate(1439.265625 0)"/>
     <use xlink:href="#DejaVuSans-37" transform="translate(1523.054688 0)"/>
     <use xlink:href="#DejaVuSans-2e" transform="translate(1586.677734 0)"/>
     <use xlink:href="#DejaVuSans-39" transform="translate(1618.464844 0)"/>
     <use xlink:href="#DejaVuSans-38" transform="translate(1682.087891 0)"/>
     <use xlink:href="#DejaVuSans-29" transform="translate(1745.710938 0)"/>
    </g>
   </g>
  </g>
 </g>
 <defs>
  <clipPath id="p0415f666f8">
   <rect x="57.6" y="41.472" width="357.12" height="266.112"/>
  </clipPath>
 </defs>
</svg>
