<?xml version="1.0" encoding="utf-8" standalone="no"?>
<!DOCTYPE svg PUBLIC "-//W3C//DTD SVG 1.1//EN"
  "http://www.w3.org/Graphics/SVG/1.1/DTD/svg11.dtd">
<svg xmlns:xlink="http://www.w3.org/1999/xlink" width="460.8pt" height="345.6pt" viewBox="0 0 460.8 345.6" xmlns="http://www.w3.org/2000/svg" version="1.1">
 <metadata>
  <rdf:RDF xmlns:dc="http://purl.org/dc/elements/1.1/" xmlns:cc="http://creativecommons.org/ns#" xmlns:rdf="http://www.w3.org/1999/02/22-rdf-syntax-ns#">
   <cc:Work>
    <dc:type rdf:resource="http://purl.org/dc/dcmitype/StillImage"/>
    <dc:date>2025-12-10T15:25:52.500841</dc:date>
    <dc:format>image/svg+xml</dc:format>
    <dc:creator>
     <cc:Agent>
      <dc:title>Matplotlib v3.10.3, https://matplotlib.org/</dc:title>
     </cc:Agent>
    </dc:creator>
   </cc:Work>
  </rdf:RDF>
 </metadata>
 <defs>
  <style type="text/css">*{stroke-linejoin: round; stroke-linecap: butt}</style>
 </defs>
 <g id="figure_1">
  <g id="patch_1">
   <path d="M 0 345.6 
L 460.8 345.6 
L 460.8 0 
L 0 0 
z
" style="fill: #ffffff"/>
  </g>
  <g id="axes_1">
   <g id="patch_2">
    <path d="M 57.6 307.584 
L 414.72 307.584 
L 414.72 41.472 
L 57.6 41.472 
z
" style="fill: #ffffff"/>
   </g>
   <g id="matplotlib.axis_1">
    <g id="xtick_1">
     <g id="line2d_1">
      <defs>
       <path id="m963c8d5353" d="M 0 0 
L 0 3.5 
" style="stroke: #000000; stroke-width: 0.8"/>
      </defs>
      <g>
       <use xlink:href="#m963c8d5353" x="73.832727" y="307.584" style="stroke: #000000; stroke-width: 0.8"/>
      </g>
     </g>
     <g id="text_1">
      <!-- 0 -->
      <g transform="translate(69.060852 325.981656) scale(0.15 -0.15)">
       <defs>
        <path id="DejaVuSans-30" d="M 2034 4250 
Q 1547 4250 1301 3770 
Q 1056 3291 1056 2328 
Q 1056 1369 1301 889 
Q 1547 409 2034 409 
Q 2525 409 2770 889 
Q 3016 1369 3016 2328 
Q 3016 3291 2770 3770 
Q 2525 4250 2034 4250 
z
M 2034 4750 
Q 2819 4750 3233 4129 
Q 3647 3509 3647 2328 
Q 3647 1150 3233 529 
Q 2819 -91 2034 -91 
Q 1250 -91 836 529 
Q 422 1150 422 2328 
Q 422 3509 836 4129 
Q 1250 4750 2034 4750 
z
" transform="scale(0.015625)"/>
       </defs>
       <use xlink:href="#DejaVuSans-30"/>
      </g>
     </g>
    </g>
    <g id="xtick_2">
     <g id="line2d_2">
      <g>
       <use xlink:href="#m963c8d5353" x="164.014545" y="307.584" style="stroke: #000000; stroke-width: 0.8"/>
      </g>
     </g>
     <g id="text_2">
      <!-- 50 -->
      <g transform="translate(154.470795 325.981656) scale(0.15 -0.15)">
       <defs>
        <path id="DejaVuSans-35" d="M 691 4666 
L 3169 4666 
L 3169 4134 
L 1269 4134 
L 1269 2991 
Q 1406 3038 1543 3061 
Q 1681 3084 1819 3084 
Q 2600 3084 3056 2656 
Q 3513 2228 3513 1497 
Q 3513 744 3044 326 
Q 2575 -91 1722 -91 
Q 1428 -91 1123 -41 
Q 819 9 494 109 
L 494 744 
Q 775 591 1075 516 
Q 1375 441 1709 441 
Q 2250 441 2565 725 
Q 2881 1009 2881 1497 
Q 2881 1984 2565 2268 
Q 2250 2553 1709 2553 
Q 1456 2553 1204 2497 
Q 953 2441 691 2322 
L 691 4666 
z
" transform="scale(0.015625)"/>
       </defs>
       <use xlink:href="#DejaVuSans-35"/>
       <use xlink:href="#DejaVuSans-30" transform="translate(63.623047 0)"/>
      </g>
     </g>
    </g>
    <g id="xtick_3">
     <g id="line2d_3">
      <g>
       <use xlink:href="#m963c8d5353" x="254.196364" y="307.584" style="stroke: #000000; stroke-width: 0.8"/>
      </g>
     </g>
     <g id="text_3">
      <!-- 100 -->
      <g transform="translate(239.880739 325.981656) scale(0.15 -0.15)">
       <defs>
        <path id="DejaVuSans-31" d="M 794 531 
L 1825 531 
L 1825 4091 
L 703 3866 
L 703 4441 
L 1819 4666 
L 2450 4666 
L 2450 531 
L 3481 531 
L 3481 0 
L 794 0 
L 794 531 
z
" transform="scale(0.015625)"/>
       </defs>
       <use xlink:href="#DejaVuSans-31"/>
       <use xlink:href="#DejaVuSans-30" transform="translate(63.623047 0)"/>
       <use xlink:href="#DejaVuSans-30" transform="translate(127.246094 0)"/>
      </g>
     </g>
    </g>
    <g id="xtick_4">
     <g id="line2d_4">
      <g>
       <use xlink:href="#m963c8d5353" x="344.378182" y="307.584" style="stroke: #000000; stroke-width: 0.8"/>
      </g>
     </g>
     <g id="text_4">
      <!-- 150 -->
      <g transform="translate(330.062557 325.981656) scale(0.15 -0.15)">
       <use xlink:href="#DejaVuSans-31"/>
       <use xlink:href="#DejaVuSans-35" transform="translate(63.623047 0)"/>
       <use xlink:href="#DejaVuSans-30" transform="translate(127.246094 0)"/>
      </g>
     </g>
    </g>
   </g>
   <g id="matplotlib.axis_2">
    <g id="ytick_1">
     <g id="line2d_5">
      <defs>
       <path id="m4e6e12c69d" d="M 0 0 
L -3.5 0 
" style="stroke: #000000; stroke-width: 0.8"/>
      </defs>
      <g>
       <use xlink:href="#m4e6e12c69d" x="57.6" y="281.384334" style="stroke: #000000; stroke-width: 0.8"/>
      </g>
     </g>
     <g id="text_5">
      <!-- 17.5 -->
      <g transform="translate(17.201563 287.083162) scale(0.15 -0.15)">
       <defs>
        <path id="DejaVuSans-37" d="M 525 4666 
L 3525 4666 
L 3525 4397 
L 1831 0 
L 1172 0 
L 2766 4134 
L 525 4134 
L 525 4666 
z
" transform="scale(0.015625)"/>
        <path id="DejaVuSans-2e" d="M 684 794 
L 1344 794 
L 1344 0 
L 684 0 
L 684 794 
z
" transform="scale(0.015625)"/>
       </defs>
       <use xlink:href="#DejaVuSans-31"/>
       <use xlink:href="#DejaVuSans-37" transform="translate(63.623047 0)"/>
       <use xlink:href="#DejaVuSans-2e" transform="translate(127.246094 0)"/>
       <use xlink:href="#DejaVuSans-35" transform="translate(159.033203 0)"/>
      </g>
     </g>
    </g>
    <g id="ytick_2">
     <g id="line2d_6">
      <g>
       <use xlink:href="#m4e6e12c69d" x="57.6" y="247.584877" style="stroke: #000000; stroke-width: 0.8"/>
      </g>
     </g>
     <g id="text_6">
      <!-- 20.0 -->
      <g transform="translate(17.201563 253.283705) scale(0.15 -0.15)">
       <defs>
        <path id="DejaVuSans-32" d="M 1228 531 
L 3431 531 
L 3431 0 
L 469 0 
L 469 531 
Q 828 903 1448 1529 
Q 2069 2156 2228 2338 
Q 2531 2678 2651 2914 
Q 2772 3150 2772 3378 
Q 2772 3750 2511 3984 
Q 2250 4219 1831 4219 
Q 1534 4219 1204 4116 
Q 875 4013 500 3803 
L 500 4441 
Q 881 4594 1212 4672 
Q 1544 4750 1819 4750 
Q 2544 4750 2975 4387 
Q 3406 4025 3406 3419 
Q 3406 3131 3298 2873 
Q 3191 2616 2906 2266 
Q 2828 2175 2409 1742 
Q 1991 1309 1228 531 
z
" transform="scale(0.015625)"/>
       </defs>
       <use xlink:href="#DejaVuSans-32"/>
       <use xlink:href="#DejaVuSans-30" transform="translate(63.623047 0)"/>
       <use xlink:href="#DejaVuSans-2e" transform="translate(127.246094 0)"/>
       <use xlink:href="#DejaVuSans-30" transform="translate(159.033203 0)"/>
      </g>
     </g>
    </g>
    <g id="ytick_3">
     <g id="line2d_7">
      <g>
       <use xlink:href="#m4e6e12c69d" x="57.6" y="213.78542" style="stroke: #000000; stroke-width: 0.8"/>
      </g>
     </g>
     <g id="text_7">
      <!-- 22.5 -->
      <g transform="translate(17.201563 219.484248) scale(0.15 -0.15)">
       <use xlink:href="#DejaVuSans-32"/>
       <use xlink:href="#DejaVuSans-32" transform="translate(63.623047 0)"/>
       <use xlink:href="#DejaVuSans-2e" transform="translate(127.246094 0)"/>
       <use xlink:href="#DejaVuSans-35" transform="translate(159.033203 0)"/>
      </g>
     </g>
    </g>
    <g id="ytick_4">
     <g id="line2d_8">
      <g>
       <use xlink:href="#m4e6e12c69d" x="57.6" y="179.985962" style="stroke: #000000; stroke-width: 0.8"/>
      </g>
     </g>
     <g id="text_8">
      <!-- 25.0 -->
      <g transform="translate(17.201563 185.68479) scale(0.15 -0.15)">
       <use xlink:href="#DejaVuSans-32"/>
       <use xlink:href="#DejaVuSans-35" transform="translate(63.623047 0)"/>
       <use xlink:href="#DejaVuSans-2e" transform="translate(127.246094 0)"/>
       <use xlink:href="#DejaVuSans-30" transform="translate(159.033203 0)"/>
      </g>
     </g>
    </g>
    <g id="ytick_5">
     <g id="line2d_9">
      <g>
       <use xlink:href="#m4e6e12c69d" x="57.6" y="146.186505" style="stroke: #000000; stroke-width: 0.8"/>
      </g>
     </g>
     <g id="text_9">
      <!-- 27.5 -->
      <g transform="translate(17.201563 151.885333) scale(0.15 -0.15)">
       <use xlink:href="#DejaVuSans-32"/>
       <use xlink:href="#DejaVuSans-37" transform="translate(63.623047 0)"/>
       <use xlink:href="#DejaVuSans-2e" transform="translate(127.246094 0)"/>
       <use xlink:href="#DejaVuSans-35" transform="translate(159.033203 0)"/>
      </g>
     </g>
    </g>
    <g id="ytick_6">
     <g id="line2d_10">
      <g>
       <use xlink:href="#m4e6e12c69d" x="57.6" y="112.387048" style="stroke: #000000; stroke-width: 0.8"/>
      </g>
     </g>
     <g id="text_10">
      <!-- 30.0 -->
      <g transform="translate(17.201563 118.085876) scale(0.15 -0.15)">
       <defs>
        <path id="DejaVuSans-33" d="M 2597 2516 
Q 3050 2419 3304 2112 
Q 3559 1806 3559 1356 
Q 3559 666 3084 287 
Q 2609 -91 1734 -91 
Q 1441 -91 1130 -33 
Q 819 25 488 141 
L 488 750 
Q 750 597 1062 519 
Q 1375 441 1716 441 
Q 2309 441 2620 675 
Q 2931 909 2931 1356 
Q 2931 1769 2642 2001 
Q 2353 2234 1838 2234 
L 1294 2234 
L 1294 2753 
L 1863 2753 
Q 2328 2753 2575 2939 
Q 2822 3125 2822 3475 
Q 2822 3834 2567 4026 
Q 2313 4219 1838 4219 
Q 1578 4219 1281 4162 
Q 984 4106 628 3988 
L 628 4550 
Q 988 4650 1302 4700 
Q 1616 4750 1894 4750 
Q 2613 4750 3031 4423 
Q 3450 4097 3450 3541 
Q 3450 3153 3228 2886 
Q 3006 2619 2597 2516 
z
" transform="scale(0.015625)"/>
       </defs>
       <use xlink:href="#DejaVuSans-33"/>
       <use xlink:href="#DejaVuSans-30" transform="translate(63.623047 0)"/>
       <use xlink:href="#DejaVuSans-2e" transform="translate(127.246094 0)"/>
       <use xlink:href="#DejaVuSans-30" transform="translate(159.033203 0)"/>
      </g>
     </g>
    </g>
    <g id="ytick_7">
     <g id="line2d_11">
      <g>
       <use xlink:href="#m4e6e12c69d" x="57.6" y="78.58759" style="stroke: #000000; stroke-width: 0.8"/>
      </g>
     </g>
     <g id="text_11">
      <!-- 32.5 -->
      <g transform="translate(17.201563 84.286418) scale(0.15 -0.15)">
       <use xlink:href="#DejaVuSans-33"/>
       <use xlink:href="#DejaVuSans-32" transform="translate(63.623047 0)"/>
       <use xlink:href="#DejaVuSans-2e" transform="translate(127.246094 0)"/>
       <use xlink:href="#DejaVuSans-35" transform="translate(159.033203 0)"/>
      </g>
     </g>
    </g>
    <g id="ytick_8">
     <g id="line2d_12">
      <g>
       <use xlink:href="#m4e6e12c69d" x="57.6" y="44.788133" style="stroke: #000000; stroke-width: 0.8"/>
      </g>
     </g>
     <g id="text_12">
      <!-- 35.0 -->
      <g transform="translate(17.201563 50.486961) scale(0.15 -0.15)">
       <use xlink:href="#DejaVuSans-33"/>
       <use xlink:href="#DejaVuSans-35" transform="translate(63.623047 0)"/>
       <use xlink:href="#DejaVuSans-2e" transform="translate(127.246094 0)"/>
       <use xlink:href="#DejaVuSans-30" transform="translate(159.033203 0)"/>
      </g>
     </g>
    </g>
   </g>
   <g id="line2d_13">
    <path d="M 73.832727 272.636675 
L 75.636364 259.630872 
L 77.44 262.971319 
L 79.243636 208.905338 
L 81.047273 218.820065 
L 82.850909 206.137289 
L 84.654545 202.765785 
L 86.458182 157.144542 
L 88.261818 142.840305 
L 90.065455 169.811619 
L 91.869091 93.690544 
L 93.672727 191.860728 
L 95.476364 180.337125 
L 97.28 178.976972 
L 99.083636 151.181534 
L 100.887273 175.335706 
L 102.690909 179.883084 
L 104.494545 192.441748 
L 106.298182 190.675145 
L 108.101818 191.892385 
L 109.905455 130.308722 
L 111.709091 195.100604 
L 113.512727 180.125925 
L 115.316364 200.47218 
L 117.12 178.945103 
L 118.923636 233.149539 
L 120.727273 206.198568 
L 122.530909 199.283807 
L 124.334545 179.984612 
L 126.138182 188.327353 
L 127.941818 230.540214 
L 129.745455 163.76095 
L 131.549091 182.878338 
L 133.352727 230.605146 
L 135.156364 183.930429 
L 136.96 228.002928 
L 138.763636 189.767502 
L 140.567273 179.383587 
L 142.370909 234.545184 
L 144.174545 179.122314 
L 145.978182 158.532724 
L 147.781818 157.851828 
L 149.585455 180.992238 
L 151.389091 210.331025 
L 153.192727 204.497826 
L 154.996364 197.009241 
L 156.8 201.73988 
L 158.603636 139.316286 
L 160.407273 142.527019 
L 162.210909 183.145687 
L 164.014545 186.608647 
L 165.818182 228.299022 
L 167.621818 215.80196 
L 169.425455 197.8219 
L 171.229091 190.64512 
L 173.032727 180.981872 
L 174.836364 235.538727 
L 176.64 242.999567 
L 178.443636 233.632402 
L 180.247273 230.725996 
L 182.050909 216.234204 
L 183.854545 248.268984 
L 185.658182 175.199266 
L 187.461818 186.319373 
L 189.265455 140.805456 
L 191.069091 106.764747 
L 192.872727 184.068575 
L 194.676364 121.863148 
L 196.48 183.072137 
L 198.283636 217.874331 
L 200.087273 143.731113 
L 201.890909 189.394614 
L 203.694545 192.19745 
L 205.498182 217.392093 
L 207.301818 206.956982 
L 209.105455 176.497432 
L 210.909091 135.909318 
L 212.712727 115.148936 
L 214.516364 86.589882 
L 216.32 83.015234 
L 218.123636 140.407941 
L 219.927273 246.598885 
L 221.730909 162.475871 
L 223.534545 233.186835 
L 225.338182 240.452894 
L 227.141818 236.960838 
L 228.945455 153.47999 
L 230.749091 225.418977 
L 232.552727 219.072315 
L 234.356364 171.003302 
L 236.16 195.434193 
L 237.963636 227.412518 
L 239.767273 242.454049 
L 241.570909 215.345733 
L 243.374545 147.513722 
L 245.178182 151.282456 
L 246.981818 172.337966 
L 248.785455 251.720225 
L 250.589091 171.820786 
L 252.392727 169.453704 
L 254.196364 212.100751 
L 256 196.474104 
L 257.803636 118.190371 
L 259.607273 145.412808 
L 261.410909 152.792457 
L 263.214545 223.007523 
L 266.821818 228.796258 
L 268.625455 53.568 
L 270.429091 198.229984 
L 272.232727 195.863001 
L 274.036364 203.301341 
L 275.84 179.444032 
L 277.643636 165.247482 
L 279.447273 156.948179 
L 281.250909 177.538735 
L 284.858182 248.191466 
L 286.661818 226.652604 
L 288.465455 237.995205 
L 290.269091 257.650733 
L 292.072727 226.230581 
L 293.876364 286.750863 
L 295.68 289.486007 
L 297.483636 269.625408 
L 299.287273 242.093045 
L 301.090909 263.463221 
L 302.894545 255.117638 
L 304.698182 289.670237 
L 306.501818 224.13709 
L 308.305455 222.368128 
L 310.109091 175.205739 
L 311.912727 247.461991 
L 313.716364 212.954098 
L 315.52 130.35923 
L 317.323636 216.027902 
L 319.127273 142.124138 
L 320.930909 95.701762 
L 322.734545 222.564821 
L 324.538182 193.538619 
L 326.341818 242.205661 
L 328.145455 266.652124 
L 329.949091 246.627376 
L 331.752727 244.549626 
L 333.556364 251.218471 
L 335.36 276.350652 
L 337.163636 264.869368 
L 338.967273 239.3391 
L 340.770909 228.399949 
L 342.574545 252.197511 
L 344.378182 227.910075 
L 346.181818 221.406812 
L 347.985455 249.80645 
L 349.789091 247.109628 
L 351.592727 235.442637 
L 353.396364 242.677951 
L 355.2 172.972988 
L 357.003636 272.52859 
L 358.807273 193.923526 
L 360.610909 134.798904 
L 362.414545 141.532284 
L 364.218182 202.995094 
L 366.021818 199.244024 
L 367.825455 188.259117 
L 369.629091 162.960762 
L 371.432727 192.985826 
L 373.236364 125.000991 
L 375.04 167.652307 
L 376.843636 133.448687 
L 378.647273 156.492476 
L 380.450909 217.644262 
L 382.254545 237.448248 
L 384.058182 204.091044 
L 385.861818 163.53962 
L 387.665455 153.631077 
L 389.469091 195.670411 
L 391.272727 205.325752 
L 393.076364 175.259376 
L 394.88 171.996377 
L 396.683636 207.443884 
L 398.487273 168.645786 
L 398.487273 168.645786 
" clip-path="url(#pba7a899a7c)" style="fill: none; stroke: #21918c; stroke-opacity: 0.5; stroke-width: 1.5; stroke-linecap: square"/>
   </g>
   <g id="line2d_14">
    <path d="M 73.832727 274.257907 
L 75.636364 291.159789 
L 77.44 272.091109 
L 79.243636 206.455334 
L 81.047273 198.431678 
L 82.850909 156.916939 
L 84.654545 186.610412 
L 86.458182 173.745347 
L 88.261818 218.73501 
L 90.065455 220.991735 
L 91.869091 224.860764 
L 93.672727 133.361706 
L 95.476364 192.921368 
L 97.28 172.196455 
L 99.083636 195.351995 
L 100.887273 212.916783 
L 102.690909 172.334531 
L 104.494545 170.244819 
L 106.298182 210.051806 
L 108.101818 180.994079 
L 109.905455 172.771352 
L 111.709091 173.911205 
L 113.512727 232.833425 
L 115.316364 178.875866 
L 117.12 152.169761 
L 118.923636 234.683237 
L 120.727273 124.058742 
L 122.530909 222.599719 
L 124.334545 220.892765 
L 126.138182 192.541067 
L 127.941818 189.186539 
L 129.745455 186.698743 
L 131.549091 161.907912 
L 133.352727 231.641915 
L 135.156364 138.596086 
L 136.96 236.002686 
L 138.763636 212.638253 
L 140.567273 223.923145 
L 142.370909 253.668916 
L 144.174545 262.098901 
L 145.978182 261.071463 
L 147.781818 246.640268 
L 149.585455 262.71473 
L 151.389091 259.21344 
L 153.192727 261.307483 
L 154.996364 233.942893 
L 156.8 251.599277 
L 158.603636 265.269496 
L 160.407273 208.848715 
L 162.210909 266.717192 
L 164.014545 237.777829 
L 165.818182 269.148524 
L 167.621818 234.76732 
L 169.425455 274.844028 
L 171.229091 207.271906 
L 173.032727 238.579625 
L 174.836364 230.082609 
L 176.64 254.399845 
L 178.443636 244.192745 
L 180.247273 260.729177 
L 182.050909 207.235623 
L 183.854545 240.894057 
L 185.658182 251.123027 
L 187.461818 269.313826 
L 189.265455 243.822463 
L 191.069091 260.661084 
L 192.872727 243.971907 
L 194.676364 177.066254 
L 196.48 168.416634 
L 198.283636 173.307497 
L 200.087273 192.606662 
L 201.890909 193.788439 
L 203.694545 189.961181 
L 205.498182 221.456424 
L 207.301818 174.283879 
L 209.105455 148.795198 
L 210.909091 187.600441 
L 212.712727 189.243045 
L 214.516364 276.465279 
L 216.32 248.25966 
L 218.123636 251.643956 
L 219.927273 267.373303 
L 221.730909 278.668117 
L 223.534545 263.694301 
L 225.338182 256.687953 
L 227.141818 273.218928 
L 228.945455 226.825578 
L 230.749091 249.704477 
L 232.552727 266.625767 
L 234.356364 265.539706 
L 236.16 256.403318 
L 237.963636 252.046368 
L 239.767273 243.190528 
L 241.570909 188.60771 
L 243.374545 169.754865 
L 245.178182 213.294001 
L 246.981818 245.269184 
L 248.785455 239.28534 
L 250.589091 233.99078 
L 252.392727 233.263803 
L 254.196364 210.133209 
L 256 233.112333 
L 257.803636 215.05319 
L 259.607273 245.012691 
L 261.410909 175.462403 
L 263.214545 258.952278 
L 265.018182 284.363377 
L 266.821818 193.588034 
L 268.625455 253.554899 
L 270.429091 199.061911 
L 272.232727 166.40974 
L 274.036364 184.767356 
L 275.84 198.17841 
L 277.643636 198.355775 
L 279.447273 210.002708 
L 281.250909 233.382779 
L 283.054545 247.075124 
L 284.858182 265.112103 
L 286.661818 259.223906 
L 288.465455 233.723688 
L 290.269091 274.30856 
L 292.072727 241.94576 
L 293.876364 192.132058 
L 295.68 212.356866 
L 297.483636 214.483339 
L 299.287273 227.855017 
L 301.090909 225.981439 
L 302.894545 258.463977 
L 304.698182 219.782906 
L 306.501818 231.546572 
L 308.305455 241.482016 
L 310.109091 248.188932 
L 311.912727 214.013768 
L 313.716364 259.114346 
L 315.52 259.916733 
L 317.323636 267.327675 
L 319.127273 277.861805 
L 320.930909 242.156755 
L 322.734545 273.407756 
L 324.538182 235.594243 
L 326.341818 244.485719 
L 328.145455 234.835764 
L 329.949091 230.601125 
L 331.752727 230.675463 
L 333.556364 241.409411 
L 335.36 270.600977 
L 337.163636 245.709425 
L 338.967273 280.43977 
L 340.770909 262.098778 
L 342.574545 230.453121 
L 344.378182 181.301264 
L 346.181818 154.39073 
L 347.985455 242.008615 
L 349.789091 219.481271 
L 351.592727 274.492463 
L 353.396364 265.7864 
L 355.2 193.798435 
L 357.003636 280.851891 
L 358.807273 224.77459 
L 360.610909 266.917842 
L 362.414545 224.738615 
L 364.218182 217.11298 
L 366.021818 245.218986 
L 367.825455 228.561461 
L 369.629091 225.686896 
L 371.432727 259.274719 
L 373.236364 217.754574 
L 375.04 198.447161 
L 376.843636 216.102098 
L 378.647273 211.426695 
L 380.450909 216.418138 
L 382.254545 273.370708 
L 384.058182 264.909924 
L 385.861818 283.963951 
L 387.665455 271.056724 
L 389.469091 228.16934 
L 391.272727 230.653153 
L 393.076364 208.569181 
L 394.88 275.045641 
L 396.683636 168.739626 
L 398.487273 199.636406 
L 398.487273 199.636406 
" clip-path="url(#pba7a899a7c)" style="fill: none; stroke: #21918c; stroke-opacity: 0.5; stroke-width: 1.5; stroke-linecap: square"/>
   </g>
   <g id="line2d_15">
    <path d="M 73.832727 277.099806 
L 75.636364 222.700926 
L 77.44 234.611252 
L 79.243636 240.777972 
L 81.047273 256.458673 
L 82.850909 228.188938 
L 84.654545 225.894251 
L 86.458182 147.447353 
L 88.261818 233.91809 
L 90.065455 190.727194 
L 91.869091 204.177494 
L 93.672727 201.088481 
L 95.476364 218.749188 
L 97.28 123.45781 
L 99.083636 258.343285 
L 100.887273 191.786781 
L 102.690909 247.69786 
L 104.494545 184.476609 
L 106.298182 221.372592 
L 108.101818 219.051913 
L 109.905455 164.623779 
L 111.709091 236.860313 
L 113.512727 255.264943 
L 115.316364 241.289103 
L 117.12 258.268645 
L 118.923636 238.309103 
L 120.727273 172.095182 
L 122.530909 227.595482 
L 124.334545 161.226386 
L 126.138182 194.248191 
L 127.941818 198.134376 
L 129.745455 212.315642 
L 131.549091 257.192646 
L 133.352727 224.514169 
L 135.156364 205.383543 
L 136.96 248.955332 
L 138.763636 144.209803 
L 140.567273 207.641999 
L 142.370909 190.532777 
L 144.174545 208.282087 
L 145.978182 269.483678 
L 147.781818 215.780313 
L 149.585455 259.147569 
L 151.389091 248.749148 
L 153.192727 275.908733 
L 154.996364 243.081626 
L 156.8 231.231902 
L 158.603636 249.524185 
L 160.407273 221.77809 
L 162.210909 236.089834 
L 164.014545 156.747823 
L 165.818182 258.334651 
L 167.621818 265.733392 
L 169.425455 242.255916 
L 171.229091 166.215543 
L 173.032727 175.105475 
L 174.836364 201.611986 
L 176.64 197.514526 
L 178.443636 221.865571 
L 180.247273 215.762265 
L 182.050909 230.949845 
L 183.854545 185.724604 
L 185.658182 267.546479 
L 187.461818 236.030288 
L 189.265455 198.094677 
L 191.069091 216.915591 
L 192.872727 219.908171 
L 194.676364 137.624207 
L 196.48 237.452964 
L 198.283636 194.235884 
L 200.087273 106.145612 
L 201.890909 153.43003 
L 203.694545 92.883347 
L 205.498182 133.458105 
L 207.301818 127.5056 
L 209.105455 214.98223 
L 210.909091 236.465854 
L 212.712727 193.378835 
L 214.516364 261.487641 
L 216.32 213.48611 
L 218.123636 253.045768 
L 219.927273 262.477019 
L 221.730909 220.377422 
L 223.534545 261.627002 
L 225.338182 151.011471 
L 227.141818 226.022222 
L 228.945455 205.780794 
L 230.749091 217.880666 
L 232.552727 253.121055 
L 234.356364 258.010695 
L 236.16 225.818578 
L 237.963636 252.032593 
L 239.767273 231.320187 
L 241.570909 237.212435 
L 243.374545 172.576504 
L 245.178182 163.373366 
L 246.981818 268.942782 
L 248.785455 248.762776 
L 250.589091 251.515622 
L 252.392727 182.03518 
L 254.196364 249.348041 
L 256 200.12863 
L 257.803636 174.125823 
L 259.607273 284.549617 
L 261.410909 220.818192 
L 263.214545 219.735718 
L 265.018182 251.903676 
L 266.821818 241.877455 
L 268.625455 250.838942 
L 270.429091 268.516175 
L 272.232727 211.567025 
L 274.036364 222.71459 
L 275.84 177.113482 
L 277.643636 186.678421 
L 279.447273 228.949506 
L 281.250909 236.215525 
L 283.054545 152.610961 
L 284.858182 248.362097 
L 286.661818 246.011492 
L 288.465455 261.907654 
L 290.269091 223.766799 
L 292.072727 199.70058 
L 293.876364 138.774406 
L 295.68 229.018407 
L 297.483636 254.988773 
L 299.287273 259.935273 
L 301.090909 222.95574 
L 302.894545 240.396677 
L 304.698182 262.325334 
L 306.501818 202.469231 
L 308.305455 215.50295 
L 310.109091 238.399955 
L 311.912727 219.525188 
L 313.716364 228.823734 
L 315.52 266.858607 
L 317.323636 232.054608 
L 319.127273 240.583394 
L 320.930909 235.286582 
L 322.734545 265.338392 
L 324.538182 164.368344 
L 328.145455 179.961606 
L 329.949091 142.356143 
L 331.752727 243.589913 
L 333.556364 215.237724 
L 335.36 179.018974 
L 337.163636 263.903674 
L 338.967273 295.488 
L 340.770909 211.972928 
L 342.574545 220.089634 
L 344.378182 144.153538 
L 346.181818 196.200198 
L 347.985455 182.223549 
L 349.789091 180.154405 
L 351.592727 199.719407 
L 353.396364 208.298952 
L 355.2 218.579099 
L 357.003636 153.582238 
L 358.807273 197.660855 
L 360.610909 181.086774 
L 362.414545 136.526239 
L 364.218182 216.242129 
L 366.021818 190.630186 
L 367.825455 238.234448 
L 369.629091 228.581385 
L 371.432727 200.519563 
L 373.236364 176.496576 
L 375.04 179.374368 
L 376.843636 198.089563 
L 378.647273 198.872206 
L 380.450909 220.444358 
L 382.254545 121.731288 
L 384.058182 238.251617 
L 385.861818 234.330343 
L 387.665455 200.968646 
L 389.469091 215.402845 
L 391.272727 213.838287 
L 393.076364 230.54351 
L 394.88 249.810305 
L 396.683636 241.00876 
L 398.487273 182.226798 
L 398.487273 182.226798 
" clip-path="url(#pba7a899a7c)" style="fill: none; stroke: #21918c; stroke-opacity: 0.5; stroke-width: 1.5; stroke-linecap: square"/>
   </g>
   <g id="patch_3">
    <path d="M 57.6 307.584 
L 57.6 41.472 
" style="fill: none; stroke: #000000; stroke-width: 3; stroke-linejoin: miter; stroke-linecap: square"/>
   </g>
   <g id="patch_4">
    <path d="M 414.72 307.584 
L 414.72 41.472 
" style="fill: none; stroke: #000000; stroke-width: 3; stroke-linejoin: miter; stroke-linecap: square"/>
   </g>
   <g id="patch_5">
    <path d="M 57.6 307.584 
L 414.72 307.584 
" style="fill: none; stroke: #000000; stroke-width: 3; stroke-linejoin: miter; stroke-linecap: square"/>
   </g>
   <g id="patch_6">
    <path d="M 57.6 41.472 
L 414.72 41.472 
" style="fill: none; stroke: #000000; stroke-width: 3; stroke-linejoin: miter; stroke-linecap: square"/>
   </g>
   <g id="text_13">
    <!-- Atom Type N (n=3, mean Q=22.56) -->
    <g transform="translate(40.268906 35.472) scale(0.22 -0.22)">
     <defs>
      <path id="DejaVuSans-41" d="M 2188 4044 
L 1331 1722 
L 3047 1722 
L 2188 4044 
z
M 1831 4666 
L 2547 4666 
L 4325 0 
L 3669 0 
L 3244 1197 
L 1141 1197 
L 716 0 
L 50 0 
L 1831 4666 
z
" transform="scale(0.015625)"/>
      <path id="DejaVuSans-74" d="M 1172 4494 
L 1172 3500 
L 2356 3500 
L 2356 3053 
L 1172 3053 
L 1172 1153 
Q 1172 725 1289 603 
Q 1406 481 1766 481 
L 2356 481 
L 2356 0 
L 1766 0 
Q 1100 0 847 248 
Q 594 497 594 1153 
L 594 3053 
L 172 3053 
L 172 3500 
L 594 3500 
L 594 4494 
L 1172 4494 
z
" transform="scale(0.015625)"/>
      <path id="DejaVuSans-6f" d="M 1959 3097 
Q 1497 3097 1228 2736 
Q 959 2375 959 1747 
Q 959 1119 1226 758 
Q 1494 397 1959 397 
Q 2419 397 2687 759 
Q 2956 1122 2956 1747 
Q 2956 2369 2687 2733 
Q 2419 3097 1959 3097 
z
M 1959 3584 
Q 2709 3584 3137 3096 
Q 3566 2609 3566 1747 
Q 3566 888 3137 398 
Q 2709 -91 1959 -91 
Q 1206 -91 779 398 
Q 353 888 353 1747 
Q 353 2609 779 3096 
Q 1206 3584 1959 3584 
z
" transform="scale(0.015625)"/>
      <path id="DejaVuSans-6d" d="M 3328 2828 
Q 3544 3216 3844 3400 
Q 4144 3584 4550 3584 
Q 5097 3584 5394 3201 
Q 5691 2819 5691 2113 
L 5691 0 
L 5113 0 
L 5113 2094 
Q 5113 2597 4934 2840 
Q 4756 3084 4391 3084 
Q 3944 3084 3684 2787 
Q 3425 2491 3425 1978 
L 3425 0 
L 2847 0 
L 2847 2094 
Q 2847 2600 2669 2842 
Q 2491 3084 2119 3084 
Q 1678 3084 1418 2786 
Q 1159 2488 1159 1978 
L 1159 0 
L 581 0 
L 581 3500 
L 1159 3500 
L 1159 2956 
Q 1356 3278 1631 3431 
Q 1906 3584 2284 3584 
Q 2666 3584 2933 3390 
Q 3200 3197 3328 2828 
z
" transform="scale(0.015625)"/>
      <path id="DejaVuSans-20" transform="scale(0.015625)"/>
      <path id="DejaVuSans-54" d="M -19 4666 
L 3928 4666 
L 3928 4134 
L 2272 4134 
L 2272 0 
L 1638 0 
L 1638 4134 
L -19 4134 
L -19 4666 
z
" transform="scale(0.015625)"/>
      <path id="DejaVuSans-79" d="M 2059 -325 
Q 1816 -950 1584 -1140 
Q 1353 -1331 966 -1331 
L 506 -1331 
L 506 -850 
L 844 -850 
Q 1081 -850 1212 -737 
Q 1344 -625 1503 -206 
L 1606 56 
L 191 3500 
L 800 3500 
L 1894 763 
L 2988 3500 
L 3597 3500 
L 2059 -325 
z
" transform="scale(0.015625)"/>
      <path id="DejaVuSans-70" d="M 1159 525 
L 1159 -1331 
L 581 -1331 
L 581 3500 
L 1159 3500 
L 1159 2969 
Q 1341 3281 1617 3432 
Q 1894 3584 2278 3584 
Q 2916 3584 3314 3078 
Q 3713 2572 3713 1747 
Q 3713 922 3314 415 
Q 2916 -91 2278 -91 
Q 1894 -91 1617 61 
Q 1341 213 1159 525 
z
M 3116 1747 
Q 3116 2381 2855 2742 
Q 2594 3103 2138 3103 
Q 1681 3103 1420 2742 
Q 1159 2381 1159 1747 
Q 1159 1113 1420 752 
Q 1681 391 2138 391 
Q 2594 391 2855 752 
Q 3116 1113 3116 1747 
z
" transform="scale(0.015625)"/>
      <path id="DejaVuSans-65" d="M 3597 1894 
L 3597 1613 
L 953 1613 
Q 991 1019 1311 708 
Q 1631 397 2203 397 
Q 2534 397 2845 478 
Q 3156 559 3463 722 
L 3463 178 
Q 3153 47 2828 -22 
Q 2503 -91 2169 -91 
Q 1331 -91 842 396 
Q 353 884 353 1716 
Q 353 2575 817 3079 
Q 1281 3584 2069 3584 
Q 2775 3584 3186 3129 
Q 3597 2675 3597 1894 
z
M 3022 2063 
Q 3016 2534 2758 2815 
Q 2500 3097 2075 3097 
Q 1594 3097 1305 2825 
Q 1016 2553 972 2059 
L 3022 2063 
z
" transform="scale(0.015625)"/>
      <path id="DejaVuSans-4e" d="M 628 4666 
L 1478 4666 
L 3547 763 
L 3547 4666 
L 4159 4666 
L 4159 0 
L 3309 0 
L 1241 3903 
L 1241 0 
L 628 0 
L 628 4666 
z
" transform="scale(0.015625)"/>
      <path id="DejaVuSans-28" d="M 1984 4856 
Q 1566 4138 1362 3434 
Q 1159 2731 1159 2009 
Q 1159 1288 1364 580 
Q 1569 -128 1984 -844 
L 1484 -844 
Q 1016 -109 783 600 
Q 550 1309 550 2009 
Q 550 2706 781 3412 
Q 1013 4119 1484 4856 
L 1984 4856 
z
" transform="scale(0.015625)"/>
      <path id="DejaVuSans-6e" d="M 3513 2113 
L 3513 0 
L 2938 0 
L 2938 2094 
Q 2938 2591 2744 2837 
Q 2550 3084 2163 3084 
Q 1697 3084 1428 2787 
Q 1159 2491 1159 1978 
L 1159 0 
L 581 0 
L 581 3500 
L 1159 3500 
L 1159 2956 
Q 1366 3272 1645 3428 
Q 1925 3584 2291 3584 
Q 2894 3584 3203 3211 
Q 3513 2838 3513 2113 
z
" transform="scale(0.015625)"/>
      <path id="DejaVuSans-3d" d="M 678 2906 
L 4684 2906 
L 4684 2381 
L 678 2381 
L 678 2906 
z
M 678 1631 
L 4684 1631 
L 4684 1100 
L 678 1100 
L 678 1631 
z
" transform="scale(0.015625)"/>
      <path id="DejaVuSans-2c" d="M 750 794 
L 1409 794 
L 1409 256 
L 897 -744 
L 494 -744 
L 750 256 
L 750 794 
z
" transform="scale(0.015625)"/>
      <path id="DejaVuSans-61" d="M 2194 1759 
Q 1497 1759 1228 1600 
Q 959 1441 959 1056 
Q 959 750 1161 570 
Q 1363 391 1709 391 
Q 2188 391 2477 730 
Q 2766 1069 2766 1631 
L 2766 1759 
L 2194 1759 
z
M 3341 1997 
L 3341 0 
L 2766 0 
L 2766 531 
Q 2569 213 2275 61 
Q 1981 -91 1556 -91 
Q 1019 -91 701 211 
Q 384 513 384 1019 
Q 384 1609 779 1909 
Q 1175 2209 1959 2209 
L 2766 2209 
L 2766 2266 
Q 2766 2663 2505 2880 
Q 2244 3097 1772 3097 
Q 1472 3097 1187 3025 
Q 903 2953 641 2809 
L 641 3341 
Q 956 3463 1253 3523 
Q 1550 3584 1831 3584 
Q 2591 3584 2966 3190 
Q 3341 2797 3341 1997 
z
" transform="scale(0.015625)"/>
      <path id="DejaVuSans-51" d="M 2522 4238 
Q 1834 4238 1429 3725 
Q 1025 3213 1025 2328 
Q 1025 1447 1429 934 
Q 1834 422 2522 422 
Q 3209 422 3611 934 
Q 4013 1447 4013 2328 
Q 4013 3213 3611 3725 
Q 3209 4238 2522 4238 
z
M 3406 84 
L 4238 -825 
L 3475 -825 
L 2784 -78 
Q 2681 -84 2626 -87 
Q 2572 -91 2522 -91 
Q 1538 -91 948 567 
Q 359 1225 359 2328 
Q 359 3434 948 4092 
Q 1538 4750 2522 4750 
Q 3503 4750 4090 4092 
Q 4678 3434 4678 2328 
Q 4678 1516 4351 937 
Q 4025 359 3406 84 
z
" transform="scale(0.015625)"/>
      <path id="DejaVuSans-36" d="M 2113 2584 
Q 1688 2584 1439 2293 
Q 1191 2003 1191 1497 
Q 1191 994 1439 701 
Q 1688 409 2113 409 
Q 2538 409 2786 701 
Q 3034 994 3034 1497 
Q 3034 2003 2786 2293 
Q 2538 2584 2113 2584 
z
M 3366 4563 
L 3366 3988 
Q 3128 4100 2886 4159 
Q 2644 4219 2406 4219 
Q 1781 4219 1451 3797 
Q 1122 3375 1075 2522 
Q 1259 2794 1537 2939 
Q 1816 3084 2150 3084 
Q 2853 3084 3261 2657 
Q 3669 2231 3669 1497 
Q 3669 778 3244 343 
Q 2819 -91 2113 -91 
Q 1303 -91 875 529 
Q 447 1150 447 2328 
Q 447 3434 972 4092 
Q 1497 4750 2381 4750 
Q 2619 4750 2861 4703 
Q 3103 4656 3366 4563 
z
" transform="scale(0.015625)"/>
      <path id="DejaVuSans-29" d="M 513 4856 
L 1013 4856 
Q 1481 4119 1714 3412 
Q 1947 2706 1947 2009 
Q 1947 1309 1714 600 
Q 1481 -109 1013 -844 
L 513 -844 
Q 928 -128 1133 580 
Q 1338 1288 1338 2009 
Q 1338 2731 1133 3434 
Q 928 4138 513 4856 
z
" transform="scale(0.015625)"/>
     </defs>
     <use xlink:href="#DejaVuSans-41"/>
     <use xlink:href="#DejaVuSans-74" transform="translate(66.658203 0)"/>
     <use xlink:href="#DejaVuSans-6f" transform="translate(105.867188 0)"/>
     <use xlink:href="#DejaVuSans-6d" transform="translate(167.048828 0)"/>
     <use xlink:href="#DejaVuSans-20" transform="translate(264.460938 0)"/>
     <use xlink:href="#DejaVuSans-54" transform="translate(296.248047 0)"/>
     <use xlink:href="#DejaVuSans-79" transform="translate(341.707031 0)"/>
     <use xlink:href="#DejaVuSans-70" transform="translate(400.886719 0)"/>
     <use xlink:href="#DejaVuSans-65" transform="translate(464.363281 0)"/>
     <use xlink:href="#DejaVuSans-20" transform="translate(525.886719 0)"/>
     <use xlink:href="#DejaVuSans-4e" transform="translate(557.673828 0)"/>
     <use xlink:href="#DejaVuSans-20" transform="translate(632.478516 0)"/>
     <use xlink:href="#DejaVuSans-28" transform="translate(664.265625 0)"/>
     <use xlink:href="#DejaVuSans-6e" transform="translate(703.279297 0)"/>
     <use xlink:href="#DejaVuSans-3d" transform="translate(766.658203 0)"/>
     <use xlink:href="#DejaVuSans-33" transform="translate(850.447266 0)"/>
     <use xlink:href="#DejaVuSans-2c" transform="translate(914.070312 0)"/>
     <use xlink:href="#DejaVuSans-20" transform="translate(945.857422 0)"/>
     <use xlink:href="#DejaVuSans-6d" transform="translate(977.644531 0)"/>
     <use xlink:href="#DejaVuSans-65" transform="translate(1075.056641 0)"/>
     <use xlink:href="#DejaVuSans-61" transform="translate(1136.580078 0)"/>
     <use xlink:href="#DejaVuSans-6e" transform="translate(1197.859375 0)"/>
     <use xlink:href="#DejaVuSans-20" transform="translate(1261.238281 0)"/>
     <use xlink:href="#DejaVuSans-51" transform="translate(1293.025391 0)"/>
     <use xlink:href="#DejaVuSans-3d" transform="translate(1371.736328 0)"/>
     <use xlink:href="#DejaVuSans-32" transform="translate(1455.525391 0)"/>
     <use xlink:href="#DejaVuSans-32" transform="translate(1519.148438 0)"/>
     <use xlink:href="#DejaVuSans-2e" transform="translate(1582.771484 0)"/>
     <use xlink:href="#DejaVuSans-35" transform="translate(1614.558594 0)"/>
     <use xlink:href="#DejaVuSans-36" transform="translate(1678.181641 0)"/>
     <use xlink:href="#DejaVuSans-29" transform="translate(1741.804688 0)"/>
    </g>
   </g>
  </g>
 </g>
 <defs>
  <clipPath id="pba7a899a7c">
   <rect x="57.6" y="41.472" width="357.12" height="266.112"/>
  </clipPath>
 </defs>
</svg>
