<?xml version="1.0" encoding="utf-8" standalone="no"?>
<!DOCTYPE svg PUBLIC "-//W3C//DTD SVG 1.1//EN"
  "http://www.w3.org/Graphics/SVG/1.1/DTD/svg11.dtd">
<svg xmlns:xlink="http://www.w3.org/1999/xlink" width="460.8pt" height="345.6pt" viewBox="0 0 460.8 345.6" xmlns="http://www.w3.org/2000/svg" version="1.1">
 <metadata>
  <rdf:RDF xmlns:dc="http://purl.org/dc/elements/1.1/" xmlns:cc="http://creativecommons.org/ns#" xmlns:rdf="http://www.w3.org/1999/02/22-rdf-syntax-ns#">
   <cc:Work>
    <dc:type rdf:resource="http://purl.org/dc/dcmitype/StillImage"/>
    <dc:date>2025-12-10T13:55:28.478649</dc:date>
    <dc:format>image/svg+xml</dc:format>
    <dc:creator>
     <cc:Agent>
      <dc:title>Matplotlib v3.10.3, https://matplotlib.org/</dc:title>
     </cc:Agent>
    </dc:creator>
   </cc:Work>
  </rdf:RDF>
 </metadata>
 <defs>
  <style type="text/css">*{stroke-linejoin: round; stroke-linecap: butt}</style>
 </defs>
 <g id="figure_1">
  <g id="patch_1">
   <path d="M 0 345.6 
L 460.8 345.6 
L 460.8 0 
L 0 0 
z
" style="fill: #ffffff"/>
  </g>
  <g id="axes_1">
   <g id="patch_2">
    <path d="M 57.6 307.584 
L 414.72 307.584 
L 414.72 41.472 
L 57.6 41.472 
z
" style="fill: #ffffff"/>
   </g>
   <g id="matplotlib.axis_1">
    <g id="xtick_1">
     <g id="line2d_1">
      <defs>
       <path id="m89fdb08f73" d="M 0 0 
L 0 3.5 
" style="stroke: #000000; stroke-width: 0.8"/>
      </defs>
      <g>
       <use xlink:href="#m89fdb08f73" x="73.832727" y="307.584" style="stroke: #000000; stroke-width: 0.8"/>
      </g>
     </g>
     <g id="text_1">
      <!-- 0 -->
      <g transform="translate(69.060852 325.981656) scale(0.15 -0.15)">
       <defs>
        <path id="DejaVuSans-30" d="M 2034 4250 
Q 1547 4250 1301 3770 
Q 1056 3291 1056 2328 
Q 1056 1369 1301 889 
Q 1547 409 2034 409 
Q 2525 409 2770 889 
Q 3016 1369 3016 2328 
Q 3016 3291 2770 3770 
Q 2525 4250 2034 4250 
z
M 2034 4750 
Q 2819 4750 3233 4129 
Q 3647 3509 3647 2328 
Q 3647 1150 3233 529 
Q 2819 -91 2034 -91 
Q 1250 -91 836 529 
Q 422 1150 422 2328 
Q 422 3509 836 4129 
Q 1250 4750 2034 4750 
z
" transform="scale(0.015625)"/>
       </defs>
       <use xlink:href="#DejaVuSans-30"/>
      </g>
     </g>
    </g>
    <g id="xtick_2">
     <g id="line2d_2">
      <g>
       <use xlink:href="#m89fdb08f73" x="154.996364" y="307.584" style="stroke: #000000; stroke-width: 0.8"/>
      </g>
     </g>
     <g id="text_2">
      <!-- 5 -->
      <g transform="translate(150.224489 325.981656) scale(0.15 -0.15)">
       <defs>
        <path id="DejaVuSans-35" d="M 691 4666 
L 3169 4666 
L 3169 4134 
L 1269 4134 
L 1269 2991 
Q 1406 3038 1543 3061 
Q 1681 3084 1819 3084 
Q 2600 3084 3056 2656 
Q 3513 2228 3513 1497 
Q 3513 744 3044 326 
Q 2575 -91 1722 -91 
Q 1428 -91 1123 -41 
Q 819 9 494 109 
L 494 744 
Q 775 591 1075 516 
Q 1375 441 1709 441 
Q 2250 441 2565 725 
Q 2881 1009 2881 1497 
Q 2881 1984 2565 2268 
Q 2250 2553 1709 2553 
Q 1456 2553 1204 2497 
Q 953 2441 691 2322 
L 691 4666 
z
" transform="scale(0.015625)"/>
       </defs>
       <use xlink:href="#DejaVuSans-35"/>
      </g>
     </g>
    </g>
    <g id="xtick_3">
     <g id="line2d_3">
      <g>
       <use xlink:href="#m89fdb08f73" x="236.16" y="307.584" style="stroke: #000000; stroke-width: 0.8"/>
      </g>
     </g>
     <g id="text_3">
      <!-- 10 -->
      <g transform="translate(226.61625 325.981656) scale(0.15 -0.15)">
       <defs>
        <path id="DejaVuSans-31" d="M 794 531 
L 1825 531 
L 1825 4091 
L 703 3866 
L 703 4441 
L 1819 4666 
L 2450 4666 
L 2450 531 
L 3481 531 
L 3481 0 
L 794 0 
L 794 531 
z
" transform="scale(0.015625)"/>
       </defs>
       <use xlink:href="#DejaVuSans-31"/>
       <use xlink:href="#DejaVuSans-30" transform="translate(63.623047 0)"/>
      </g>
     </g>
    </g>
    <g id="xtick_4">
     <g id="line2d_4">
      <g>
       <use xlink:href="#m89fdb08f73" x="317.323636" y="307.584" style="stroke: #000000; stroke-width: 0.8"/>
      </g>
     </g>
     <g id="text_4">
      <!-- 15 -->
      <g transform="translate(307.779886 325.981656) scale(0.15 -0.15)">
       <use xlink:href="#DejaVuSans-31"/>
       <use xlink:href="#DejaVuSans-35" transform="translate(63.623047 0)"/>
      </g>
     </g>
    </g>
    <g id="xtick_5">
     <g id="line2d_5">
      <g>
       <use xlink:href="#m89fdb08f73" x="398.487273" y="307.584" style="stroke: #000000; stroke-width: 0.8"/>
      </g>
     </g>
     <g id="text_5">
      <!-- 20 -->
      <g transform="translate(388.943523 325.981656) scale(0.15 -0.15)">
       <defs>
        <path id="DejaVuSans-32" d="M 1228 531 
L 3431 531 
L 3431 0 
L 469 0 
L 469 531 
Q 828 903 1448 1529 
Q 2069 2156 2228 2338 
Q 2531 2678 2651 2914 
Q 2772 3150 2772 3378 
Q 2772 3750 2511 3984 
Q 2250 4219 1831 4219 
Q 1534 4219 1204 4116 
Q 875 4013 500 3803 
L 500 4441 
Q 881 4594 1212 4672 
Q 1544 4750 1819 4750 
Q 2544 4750 2975 4387 
Q 3406 4025 3406 3419 
Q 3406 3131 3298 2873 
Q 3191 2616 2906 2266 
Q 2828 2175 2409 1742 
Q 1991 1309 1228 531 
z
" transform="scale(0.015625)"/>
       </defs>
       <use xlink:href="#DejaVuSans-32"/>
       <use xlink:href="#DejaVuSans-30" transform="translate(63.623047 0)"/>
      </g>
     </g>
    </g>
   </g>
   <g id="matplotlib.axis_2">
    <g id="ytick_1">
     <g id="line2d_6">
      <defs>
       <path id="m5372728d46" d="M 0 0 
L -3.5 0 
" style="stroke: #000000; stroke-width: 0.8"/>
      </defs>
      <g>
       <use xlink:href="#m5372728d46" x="57.6" y="278.441965" style="stroke: #000000; stroke-width: 0.8"/>
      </g>
     </g>
     <g id="text_6">
      <!-- 5 -->
      <g transform="translate(41.05625 284.140793) scale(0.15 -0.15)">
       <use xlink:href="#DejaVuSans-35"/>
      </g>
     </g>
    </g>
    <g id="ytick_2">
     <g id="line2d_7">
      <g>
       <use xlink:href="#m5372728d46" x="57.6" y="231.184688" style="stroke: #000000; stroke-width: 0.8"/>
      </g>
     </g>
     <g id="text_7">
      <!-- 10 -->
      <g transform="translate(31.5125 236.883516) scale(0.15 -0.15)">
       <use xlink:href="#DejaVuSans-31"/>
       <use xlink:href="#DejaVuSans-30" transform="translate(63.623047 0)"/>
      </g>
     </g>
    </g>
    <g id="ytick_3">
     <g id="line2d_8">
      <g>
       <use xlink:href="#m5372728d46" x="57.6" y="183.927411" style="stroke: #000000; stroke-width: 0.8"/>
      </g>
     </g>
     <g id="text_8">
      <!-- 15 -->
      <g transform="translate(31.5125 189.626239) scale(0.15 -0.15)">
       <use xlink:href="#DejaVuSans-31"/>
       <use xlink:href="#DejaVuSans-35" transform="translate(63.623047 0)"/>
      </g>
     </g>
    </g>
    <g id="ytick_4">
     <g id="line2d_9">
      <g>
       <use xlink:href="#m5372728d46" x="57.6" y="136.670133" style="stroke: #000000; stroke-width: 0.8"/>
      </g>
     </g>
     <g id="text_9">
      <!-- 20 -->
      <g transform="translate(31.5125 142.368961) scale(0.15 -0.15)">
       <use xlink:href="#DejaVuSans-32"/>
       <use xlink:href="#DejaVuSans-30" transform="translate(63.623047 0)"/>
      </g>
     </g>
    </g>
    <g id="ytick_5">
     <g id="line2d_10">
      <g>
       <use xlink:href="#m5372728d46" x="57.6" y="89.412856" style="stroke: #000000; stroke-width: 0.8"/>
      </g>
     </g>
     <g id="text_10">
      <!-- 25 -->
      <g transform="translate(31.5125 95.111684) scale(0.15 -0.15)">
       <use xlink:href="#DejaVuSans-32"/>
       <use xlink:href="#DejaVuSans-35" transform="translate(63.623047 0)"/>
      </g>
     </g>
    </g>
    <g id="ytick_6">
     <g id="line2d_11">
      <g>
       <use xlink:href="#m5372728d46" x="57.6" y="42.155579" style="stroke: #000000; stroke-width: 0.8"/>
      </g>
     </g>
     <g id="text_11">
      <!-- 30 -->
      <g transform="translate(31.5125 47.854407) scale(0.15 -0.15)">
       <defs>
        <path id="DejaVuSans-33" d="M 2597 2516 
Q 3050 2419 3304 2112 
Q 3559 1806 3559 1356 
Q 3559 666 3084 287 
Q 2609 -91 1734 -91 
Q 1441 -91 1130 -33 
Q 819 25 488 141 
L 488 750 
Q 750 597 1062 519 
Q 1375 441 1716 441 
Q 2309 441 2620 675 
Q 2931 909 2931 1356 
Q 2931 1769 2642 2001 
Q 2353 2234 1838 2234 
L 1294 2234 
L 1294 2753 
L 1863 2753 
Q 2328 2753 2575 2939 
Q 2822 3125 2822 3475 
Q 2822 3834 2567 4026 
Q 2313 4219 1838 4219 
Q 1578 4219 1281 4162 
Q 984 4106 628 3988 
L 628 4550 
Q 988 4650 1302 4700 
Q 1616 4750 1894 4750 
Q 2613 4750 3031 4423 
Q 3450 4097 3450 3541 
Q 3450 3153 3228 2886 
Q 3006 2619 2597 2516 
z
" transform="scale(0.015625)"/>
       </defs>
       <use xlink:href="#DejaVuSans-33"/>
       <use xlink:href="#DejaVuSans-30" transform="translate(63.623047 0)"/>
      </g>
     </g>
    </g>
   </g>
   <g id="line2d_12">
    <path d="M 73.832727 216.749062 
L 90.065455 244.756514 
L 106.298182 223.386231 
L 122.530909 170.408311 
L 138.763636 168.764706 
L 154.996364 171.876254 
L 171.229091 142.34979 
L 187.461818 159.124121 
L 203.694545 180.110253 
L 219.927273 144.388978 
L 236.16 181.866789 
L 252.392727 205.671539 
L 268.625455 248.028607 
L 284.858182 193.396036 
L 301.090909 256.452414 
L 317.323636 171.046291 
L 333.556364 208.189595 
L 349.789091 242.207467 
L 366.021818 250.02208 
L 382.254545 247.641277 
L 398.487273 224.203379 
" clip-path="url(#p9086519943)" style="fill: none; stroke: #440154; stroke-opacity: 0.5; stroke-width: 1.5; stroke-linecap: square"/>
   </g>
   <g id="line2d_13">
    <path d="M 73.832727 247.861653 
L 90.065455 253.62806 
L 106.298182 248.887901 
L 122.530909 241.475996 
L 138.763636 234.408444 
L 154.996364 230.813457 
L 171.229091 222.854438 
L 187.461818 209.858886 
L 203.694545 218.058912 
L 219.927273 209.986143 
L 236.16 226.238191 
L 252.392727 220.510147 
L 268.625455 224.421864 
L 284.858182 208.275579 
L 301.090909 249.678757 
L 317.323636 218.689902 
L 333.556364 196.173964 
L 349.789091 247.545765 
L 366.021818 228.715051 
L 382.254545 240.830797 
L 398.487273 227.821393 
" clip-path="url(#p9086519943)" style="fill: none; stroke: #440154; stroke-opacity: 0.5; stroke-width: 1.5; stroke-linecap: square"/>
   </g>
   <g id="line2d_14">
    <path d="M 73.832727 256.866917 
L 90.065455 265.677476 
L 106.298182 258.016977 
L 122.530909 256.961831 
L 138.763636 272.981804 
L 154.996364 254.52882 
L 171.229091 234.180961 
L 187.461818 240.708316 
L 203.694545 205.221329 
L 219.927273 240.046467 
L 236.16 263.415758 
L 252.392727 197.789584 
L 268.625455 221.386795 
L 284.858182 230.876515 
L 301.090909 230.797404 
L 317.323636 209.443602 
L 333.556364 252.391137 
L 349.789091 267.684615 
L 366.021818 259.846918 
L 382.254545 265.884333 
L 398.487273 240.708179 
" clip-path="url(#p9086519943)" style="fill: none; stroke: #440154; stroke-opacity: 0.5; stroke-width: 1.5; stroke-linecap: square"/>
   </g>
   <g id="line2d_15">
    <path d="M 73.832727 277.509811 
L 90.065455 278.053077 
L 106.298182 280.968613 
L 122.530909 191.697506 
L 138.763636 171.039594 
L 154.996364 176.170679 
L 171.229091 226.899336 
L 187.461818 217.880509 
L 203.694545 127.25688 
L 219.927273 192.974875 
L 236.16 134.378476 
L 252.392727 160.439103 
L 268.625455 141.292098 
L 284.858182 148.409043 
L 301.090909 233.074648 
L 317.323636 228.505651 
L 333.556364 185.12624 
L 349.789091 197.925792 
L 366.021818 201.732801 
L 382.254545 188.706553 
L 398.487273 154.241246 
" clip-path="url(#p9086519943)" style="fill: none; stroke: #440154; stroke-opacity: 0.5; stroke-width: 1.5; stroke-linecap: square"/>
   </g>
   <g id="line2d_16">
    <path d="M 73.832727 266.214256 
L 90.065455 237.039124 
L 106.298182 255.971603 
L 122.530909 244.066937 
L 138.763636 240.942965 
L 154.996364 215.535304 
L 171.229091 253.557289 
L 187.461818 254.956735 
L 203.694545 209.393933 
L 219.927273 224.277966 
L 236.16 218.606718 
L 252.392727 253.785773 
L 268.625455 216.692459 
L 284.858182 223.39502 
L 301.090909 169.323072 
L 317.323636 252.184166 
L 333.556364 198.806819 
L 349.789091 220.441004 
L 366.021818 232.30818 
L 382.254545 238.908261 
L 398.487273 208.272099 
" clip-path="url(#p9086519943)" style="fill: none; stroke: #440154; stroke-opacity: 0.5; stroke-width: 1.5; stroke-linecap: square"/>
   </g>
   <g id="line2d_17">
    <path d="M 73.832727 245.838099 
L 90.065455 204.868135 
L 106.298182 235.697524 
L 122.530909 228.47746 
L 138.763636 236.078589 
L 154.996364 178.355514 
L 171.229091 210.285212 
L 187.461818 221.604757 
L 203.694545 179.442261 
L 219.927273 245.863582 
L 236.16 216.920506 
L 252.392727 256.200916 
L 268.625455 238.640931 
L 284.858182 258.072456 
L 301.090909 256.765513 
L 317.323636 270.234106 
L 333.556364 241.209367 
L 349.789091 135.185475 
L 366.021818 141.434537 
L 382.254545 169.983033 
L 398.487273 233.011374 
" clip-path="url(#p9086519943)" style="fill: none; stroke: #440154; stroke-opacity: 0.5; stroke-width: 1.5; stroke-linecap: square"/>
   </g>
   <g id="line2d_18">
    <path d="M 73.832727 267.576208 
L 90.065455 251.931538 
L 106.298182 265.331619 
L 122.530909 228.583638 
L 138.763636 233.393969 
L 154.996364 217.7048 
L 171.229091 199.128183 
L 187.461818 202.140868 
L 203.694545 199.860798 
L 219.927273 248.274661 
L 236.16 237.461963 
L 252.392727 154.290755 
L 268.625455 202.854721 
L 284.858182 226.806795 
L 301.090909 251.13769 
L 317.323636 220.387262 
L 333.556364 254.113377 
L 349.789091 229.118528 
L 366.021818 223.260322 
L 382.254545 201.230188 
L 398.487273 180.296361 
" clip-path="url(#p9086519943)" style="fill: none; stroke: #440154; stroke-opacity: 0.5; stroke-width: 1.5; stroke-linecap: square"/>
   </g>
   <g id="line2d_19">
    <path d="M 73.832727 241.542734 
L 90.065455 268.945651 
L 106.298182 252.198367 
L 122.530909 253.973747 
L 138.763636 250.811382 
L 154.996364 239.597858 
L 171.229091 200.736598 
L 187.461818 196.167024 
L 203.694545 238.982084 
L 219.927273 252.971032 
L 236.16 225.17204 
L 252.392727 223.856939 
L 268.625455 232.944356 
L 284.858182 259.563454 
L 301.090909 260.548831 
L 317.323636 178.226279 
L 333.556364 202.741483 
L 349.789091 255.597095 
L 366.021818 229.726958 
L 382.254545 247.351734 
L 398.487273 206.950573 
" clip-path="url(#p9086519943)" style="fill: none; stroke: #440154; stroke-opacity: 0.5; stroke-width: 1.5; stroke-linecap: square"/>
   </g>
   <g id="line2d_20">
    <path d="M 73.832727 214.687973 
L 90.065455 191.940804 
L 106.298182 186.742747 
L 122.530909 267.855817 
L 138.763636 265.082202 
L 154.996364 254.037663 
L 171.229091 223.353393 
L 187.461818 206.893258 
L 203.694545 201.592768 
L 219.927273 234.086312 
L 236.16 229.51504 
L 252.392727 216.975384 
L 268.625455 226.109573 
L 284.858182 212.345942 
L 301.090909 255.245731 
L 317.323636 197.544457 
L 333.556364 226.705955 
L 349.789091 234.610932 
L 366.021818 234.868138 
L 382.254545 246.396031 
L 398.487273 241.587976 
" clip-path="url(#p9086519943)" style="fill: none; stroke: #440154; stroke-opacity: 0.5; stroke-width: 1.5; stroke-linecap: square"/>
   </g>
   <g id="line2d_21">
    <path d="M 73.832727 250.594401 
L 90.065455 272.480952 
L 106.298182 253.0964 
L 122.530909 284.147007 
L 138.763636 268.328686 
L 154.996364 257.735145 
L 171.229091 242.676359 
L 187.461818 250.699795 
L 203.694545 246.016007 
L 219.927273 244.314498 
L 236.16 262.024199 
L 252.392727 255.935674 
L 268.625455 280.577331 
L 284.858182 268.959782 
L 301.090909 277.763319 
L 317.323636 240.647219 
L 333.556364 256.22754 
L 349.789091 202.990878 
L 366.021818 172.534513 
L 382.254545 223.613309 
L 398.487273 241.898585 
" clip-path="url(#p9086519943)" style="fill: none; stroke: #440154; stroke-opacity: 0.5; stroke-width: 1.5; stroke-linecap: square"/>
   </g>
   <g id="line2d_22">
    <path d="M 73.832727 257.421519 
L 90.065455 259.565904 
L 106.298182 259.308721 
L 122.530909 276.631695 
L 138.763636 254.221006 
L 154.996364 253.35067 
L 171.229091 230.714467 
L 187.461818 245.90978 
L 203.694545 238.001917 
L 219.927273 258.237869 
L 236.16 239.808222 
L 252.392727 209.212484 
L 268.625455 226.45972 
L 284.858182 265.755444 
L 301.090909 248.369111 
L 317.323636 257.879803 
L 333.556364 233.430886 
L 349.789091 239.616564 
L 366.021818 232.312281 
L 382.254545 214.95826 
L 398.487273 249.782647 
" clip-path="url(#p9086519943)" style="fill: none; stroke: #440154; stroke-opacity: 0.5; stroke-width: 1.5; stroke-linecap: square"/>
   </g>
   <g id="line2d_23">
    <path d="M 73.832727 248.573745 
L 90.065455 257.85799 
L 106.298182 246.60975 
L 122.530909 215.816414 
L 138.763636 248.203897 
L 154.996364 229.952114 
L 171.229091 275.663076 
L 187.461818 263.999033 
L 203.694545 255.90722 
L 219.927273 207.057076 
L 236.16 233.221113 
L 252.392727 261.534558 
L 268.625455 224.710812 
L 284.858182 251.891078 
L 301.090909 260.58394 
L 317.323636 232.260608 
L 333.556364 222.757762 
L 349.789091 205.85528 
L 366.021818 218.65021 
L 382.254545 234.849518 
L 398.487273 243.739585 
" clip-path="url(#p9086519943)" style="fill: none; stroke: #440154; stroke-opacity: 0.5; stroke-width: 1.5; stroke-linecap: square"/>
   </g>
   <g id="line2d_24">
    <path d="M 73.832727 258.574364 
L 90.065455 271.155177 
L 106.298182 254.06114 
L 122.530909 251.798126 
L 138.763636 218.96363 
L 154.996364 267.533705 
L 171.229091 249.943928 
L 187.461818 237.193553 
L 203.694545 209.43593 
L 219.927273 216.950155 
L 236.16 232.092337 
L 252.392727 229.336153 
L 268.625455 224.989787 
L 284.858182 238.583534 
L 301.090909 238.750809 
L 317.323636 251.407579 
L 333.556364 261.696982 
L 349.789091 235.037569 
L 366.021818 243.969354 
L 382.254545 233.523363 
L 398.487273 196.642181 
" clip-path="url(#p9086519943)" style="fill: none; stroke: #440154; stroke-opacity: 0.5; stroke-width: 1.5; stroke-linecap: square"/>
   </g>
   <g id="line2d_25">
    <path d="M 73.832727 207.603601 
L 90.065455 214.419886 
L 106.298182 207.623383 
L 122.530909 251.601282 
L 138.763636 234.864533 
L 154.996364 241.514648 
L 171.229091 234.497128 
L 187.461818 223.359578 
L 203.694545 209.294232 
L 219.927273 235.742102 
L 236.16 256.702001 
L 252.392727 223.975229 
L 268.625455 222.626567 
L 284.858182 246.521397 
L 301.090909 234.883906 
L 317.323636 244.48557 
L 333.556364 235.802216 
L 349.789091 182.260089 
L 366.021818 246.156378 
L 382.254545 233.974826 
L 398.487273 235.900369 
" clip-path="url(#p9086519943)" style="fill: none; stroke: #440154; stroke-opacity: 0.5; stroke-width: 1.5; stroke-linecap: square"/>
   </g>
   <g id="line2d_26">
    <path d="M 73.832727 284.563355 
L 90.065455 281.395129 
L 106.298182 282.232975 
L 122.530909 280.747107 
L 138.763636 262.078345 
L 154.996364 255.47488 
L 171.229091 274.28072 
L 187.461818 264.836191 
L 203.694545 244.906876 
L 219.927273 288.889749 
L 236.16 278.237788 
L 252.392727 267.212672 
L 268.625455 250.949214 
L 284.858182 286.994275 
L 301.090909 260.958541 
L 317.323636 259.241469 
L 333.556364 254.681472 
L 349.789091 256.780956 
L 366.021818 265.651845 
L 382.254545 261.657239 
L 398.487273 259.518881 
" clip-path="url(#p9086519943)" style="fill: none; stroke: #440154; stroke-opacity: 0.5; stroke-width: 1.5; stroke-linecap: square"/>
   </g>
   <g id="line2d_27">
    <path d="M 73.832727 285.867244 
L 90.065455 288.540498 
L 106.298182 277.52974 
L 122.530909 244.345888 
L 138.763636 288.908681 
L 154.996364 266.118796 
L 171.229091 271.873894 
L 187.461818 292.551404 
L 203.694545 271.260627 
L 219.927273 273.831425 
L 236.16 263.567362 
L 252.392727 267.084059 
L 268.625455 247.322376 
L 284.858182 272.313466 
L 301.090909 222.096318 
L 317.323636 245.841252 
L 333.556364 272.561441 
L 349.789091 286.793477 
L 366.021818 280.153469 
L 382.254545 272.184548 
L 398.487273 277.278441 
" clip-path="url(#p9086519943)" style="fill: none; stroke: #440154; stroke-opacity: 0.5; stroke-width: 1.5; stroke-linecap: square"/>
   </g>
   <g id="line2d_28">
    <path d="M 73.832727 279.112383 
L 90.065455 252.916619 
L 106.298182 266.41323 
L 122.530909 275.415499 
L 138.763636 266.431304 
L 154.996364 285.735566 
L 171.229091 279.518457 
L 187.461818 288.711548 
L 203.694545 239.966109 
L 219.927273 264.80564 
L 236.16 238.796016 
L 252.392727 246.831477 
L 268.625455 232.094328 
L 284.858182 255.894125 
L 301.090909 285.683911 
L 317.323636 279.189675 
L 333.556364 254.640838 
L 349.789091 244.866849 
L 366.021818 239.774212 
L 382.254545 258.914803 
L 398.487273 282.749581 
" clip-path="url(#p9086519943)" style="fill: none; stroke: #440154; stroke-opacity: 0.5; stroke-width: 1.5; stroke-linecap: square"/>
   </g>
   <g id="line2d_29">
    <path d="M 73.832727 254.603747 
L 90.065455 262.116307 
L 106.298182 270.789232 
L 122.530909 277.028586 
L 138.763636 244.871382 
L 154.996364 197.633955 
L 171.229091 265.177789 
L 187.461818 261.255633 
L 203.694545 203.201089 
L 219.927273 265.730039 
L 236.16 246.65596 
L 252.392727 227.924104 
L 268.625455 262.362772 
L 284.858182 247.939965 
L 301.090909 247.628589 
L 317.323636 256.953681 
L 333.556364 230.305913 
L 349.789091 258.702119 
L 366.021818 241.58385 
L 382.254545 276.988609 
L 398.487273 274.792312 
" clip-path="url(#p9086519943)" style="fill: none; stroke: #440154; stroke-opacity: 0.5; stroke-width: 1.5; stroke-linecap: square"/>
   </g>
   <g id="line2d_30">
    <path d="M 73.832727 278.573097 
L 90.065455 261.529745 
L 106.298182 269.818414 
L 122.530909 263.929212 
L 138.763636 255.674209 
L 154.996364 233.521113 
L 171.229091 252.806386 
L 187.461818 245.485502 
L 203.694545 257.28229 
L 219.927273 243.182185 
L 236.16 212.422578 
L 252.392727 251.022101 
L 268.625455 234.065796 
L 284.858182 277.784404 
L 301.090909 259.630626 
L 317.323636 279.562248 
L 333.556364 269.422285 
L 349.789091 278.663416 
L 366.021818 281.939073 
L 382.254545 278.970008 
L 398.487273 264.978095 
" clip-path="url(#p9086519943)" style="fill: none; stroke: #440154; stroke-opacity: 0.5; stroke-width: 1.5; stroke-linecap: square"/>
   </g>
   <g id="line2d_31">
    <path d="M 73.832727 275.433078 
L 90.065455 276.772105 
L 106.298182 266.706326 
L 122.530909 266.901238 
L 138.763636 275.219016 
L 154.996364 208.778313 
L 171.229091 276.571187 
L 187.461818 263.819746 
L 203.694545 252.92765 
L 219.927273 248.229772 
L 236.16 248.926152 
L 252.392727 245.388526 
L 268.625455 242.926493 
L 284.858182 227.51185 
L 301.090909 243.467936 
L 317.323636 243.063268 
L 333.556364 221.957216 
L 349.789091 240.312889 
L 366.021818 240.498977 
L 382.254545 240.810369 
L 398.487273 243.051444 
" clip-path="url(#p9086519943)" style="fill: none; stroke: #440154; stroke-opacity: 0.5; stroke-width: 1.5; stroke-linecap: square"/>
   </g>
   <g id="line2d_32">
    <path d="M 73.832727 278.393736 
L 90.065455 276.222952 
L 106.298182 268.72202 
L 122.530909 265.455243 
L 138.763636 251.126607 
L 154.996364 257.929098 
L 171.229091 233.090744 
L 187.461818 251.95844 
L 203.694545 262.272655 
L 219.927273 268.364556 
L 236.16 252.224143 
L 252.392727 250.468632 
L 268.625455 253.887791 
L 284.858182 258.771409 
L 301.090909 262.051113 
L 317.323636 253.824121 
L 333.556364 250.083693 
L 349.789091 263.379576 
L 366.021818 263.790006 
L 382.254545 249.991839 
L 398.487273 263.051939 
" clip-path="url(#p9086519943)" style="fill: none; stroke: #440154; stroke-opacity: 0.5; stroke-width: 1.5; stroke-linecap: square"/>
   </g>
   <g id="line2d_33">
    <path d="M 73.832727 273.336848 
L 90.065455 240.541441 
L 106.298182 234.733388 
L 122.530909 258.331322 
L 138.763636 264.399588 
L 154.996364 259.793032 
L 171.229091 219.60538 
L 187.461818 235.303502 
L 203.694545 223.865541 
L 219.927273 243.170212 
L 236.16 276.039033 
L 252.392727 259.326282 
L 268.625455 238.667822 
L 284.858182 261.962221 
L 301.090909 268.358874 
L 317.323636 285.085328 
L 333.556364 279.073783 
L 349.789091 249.556696 
L 366.021818 263.313375 
L 382.254545 253.17844 
L 398.487273 256.645576 
" clip-path="url(#p9086519943)" style="fill: none; stroke: #440154; stroke-opacity: 0.5; stroke-width: 1.5; stroke-linecap: square"/>
   </g>
   <g id="line2d_34">
    <path d="M 73.832727 274.710939 
L 90.065455 278.578791 
L 106.298182 286.084271 
L 122.530909 266.458928 
L 138.763636 234.869319 
L 154.996364 246.107415 
L 171.229091 238.769375 
L 187.461818 237.772822 
L 203.694545 236.223248 
L 219.927273 249.87643 
L 236.16 244.217668 
L 252.392727 238.31581 
L 268.625455 208.254657 
L 284.858182 269.055102 
L 301.090909 279.136802 
L 317.323636 288.026147 
L 333.556364 284.422482 
L 349.789091 270.700169 
L 366.021818 286.619941 
L 382.254545 275.48779 
L 398.487273 234.460676 
" clip-path="url(#p9086519943)" style="fill: none; stroke: #440154; stroke-opacity: 0.5; stroke-width: 1.5; stroke-linecap: square"/>
   </g>
   <g id="line2d_35">
    <path d="M 73.832727 255.028356 
L 90.065455 274.137 
L 106.298182 246.431926 
L 122.530909 239.688012 
L 138.763636 243.761479 
L 154.996364 228.615702 
L 171.229091 244.823692 
L 187.461818 232.629058 
L 203.694545 242.025792 
L 219.927273 241.682087 
L 236.16 224.509982 
L 252.392727 217.868637 
L 268.625455 235.843903 
L 284.858182 248.686935 
L 301.090909 258.897903 
L 317.323636 230.526949 
L 333.556364 227.654265 
L 349.789091 205.62438 
L 366.021818 226.173186 
L 382.254545 237.308237 
L 398.487273 251.999001 
" clip-path="url(#p9086519943)" style="fill: none; stroke: #440154; stroke-opacity: 0.5; stroke-width: 1.5; stroke-linecap: square"/>
   </g>
   <g id="line2d_36">
    <path d="M 73.832727 270.984092 
L 90.065455 257.820617 
L 106.298182 280.157853 
L 122.530909 223.857175 
L 138.763636 277.594221 
L 154.996364 266.282782 
L 171.229091 265.305431 
L 187.461818 267.018301 
L 203.694545 271.276703 
L 219.927273 272.547455 
L 236.16 229.842732 
L 252.392727 186.661536 
L 268.625455 228.62575 
L 284.858182 244.687986 
L 301.090909 247.896753 
L 317.323636 233.667465 
L 333.556364 232.125926 
L 349.789091 232.071409 
L 366.021818 219.73331 
L 382.254545 226.867826 
L 398.487273 212.021726 
" clip-path="url(#p9086519943)" style="fill: none; stroke: #440154; stroke-opacity: 0.5; stroke-width: 1.5; stroke-linecap: square"/>
   </g>
   <g id="line2d_37">
    <path d="M 73.832727 194.752308 
L 90.065455 248.805023 
L 106.298182 168.577149 
L 122.530909 195.800674 
L 138.763636 183.244655 
L 154.996364 240.51448 
L 171.229091 237.316558 
L 187.461818 246.935808 
L 203.694545 201.711849 
L 219.927273 230.895453 
L 236.16 267.403936 
L 252.392727 266.29116 
L 268.625455 180.725237 
L 284.858182 240.035218 
L 301.090909 253.05939 
L 317.323636 229.773381 
L 333.556364 229.829773 
L 349.789091 232.58578 
L 366.021818 246.655899 
L 382.254545 239.877695 
L 398.487273 240.42681 
" clip-path="url(#p9086519943)" style="fill: none; stroke: #440154; stroke-opacity: 0.5; stroke-width: 1.5; stroke-linecap: square"/>
   </g>
   <g id="line2d_38">
    <path d="M 73.832727 271.027355 
L 90.065455 267.262121 
L 106.298182 269.811578 
L 122.530909 255.0392 
L 138.763636 258.553714 
L 154.996364 270.454176 
L 171.229091 272.068016 
L 187.461818 275.423725 
L 203.694545 281.480951 
L 219.927273 260.201048 
L 236.16 222.952605 
L 252.392727 223.077233 
L 268.625455 212.819127 
L 284.858182 228.859521 
L 301.090909 233.376926 
L 317.323636 212.161581 
L 333.556364 219.4694 
L 349.789091 253.036566 
L 366.021818 235.203541 
L 382.254545 201.810654 
L 398.487273 205.489953 
" clip-path="url(#p9086519943)" style="fill: none; stroke: #440154; stroke-opacity: 0.5; stroke-width: 1.5; stroke-linecap: square"/>
   </g>
   <g id="line2d_39">
    <path d="M 73.832727 237.904451 
L 90.065455 245.646929 
L 106.298182 203.799008 
L 122.530909 225.024232 
L 138.763636 199.437271 
L 154.996364 197.967455 
L 171.229091 218.914184 
L 187.461818 220.243042 
L 203.694545 219.915152 
L 219.927273 213.709748 
L 236.16 180.390693 
L 252.392727 212.828746 
L 268.625455 207.110412 
L 284.858182 189.686956 
L 301.090909 203.400317 
L 317.323636 203.626419 
L 333.556364 188.182761 
L 349.789091 211.450306 
L 366.021818 209.77391 
L 382.254545 199.085339 
L 398.487273 193.040282 
" clip-path="url(#p9086519943)" style="fill: none; stroke: #440154; stroke-opacity: 0.5; stroke-width: 1.5; stroke-linecap: square"/>
   </g>
   <g id="line2d_40">
    <path d="M 73.832727 279.22545 
L 90.065455 222.245229 
L 106.298182 269.055502 
L 122.530909 252.56738 
L 138.763636 228.352352 
L 154.996364 252.39444 
L 171.229091 282.811641 
L 187.461818 277.53923 
L 203.694545 204.44102 
L 219.927273 256.545779 
L 236.16 212.665619 
L 252.392727 189.640868 
L 268.625455 245.518539 
L 284.858182 240.776157 
L 301.090909 278.411114 
L 317.323636 221.987563 
L 333.556364 245.554476 
L 349.789091 255.822008 
L 366.021818 231.587153 
L 382.254545 229.465037 
L 398.487273 287.463309 
" clip-path="url(#p9086519943)" style="fill: none; stroke: #440154; stroke-opacity: 0.5; stroke-width: 1.5; stroke-linecap: square"/>
   </g>
   <g id="line2d_41">
    <path d="M 73.832727 252.428351 
L 90.065455 246.367809 
L 106.298182 247.575258 
L 122.530909 233.393216 
L 138.763636 212.371621 
L 154.996364 203.021461 
L 171.229091 226.000319 
L 187.461818 271.41719 
L 203.694545 234.587186 
L 219.927273 281.781516 
L 236.16 174.8355 
L 252.392727 215.777234 
L 268.625455 237.607577 
L 284.858182 238.580524 
L 301.090909 265.919461 
L 317.323636 208.993439 
L 333.556364 259.745736 
L 349.789091 254.107475 
L 366.021818 246.27274 
L 382.254545 255.326136 
L 398.487273 233.207927 
" clip-path="url(#p9086519943)" style="fill: none; stroke: #440154; stroke-opacity: 0.5; stroke-width: 1.5; stroke-linecap: square"/>
   </g>
   <g id="line2d_42">
    <path d="M 73.832727 272.574238 
L 90.065455 243.65953 
L 106.298182 260.936604 
L 122.530909 272.418909 
L 138.763636 273.82892 
L 154.996364 243.914642 
L 171.229091 282.520304 
L 187.461818 266.128696 
L 203.694545 208.517623 
L 219.927273 253.408778 
L 236.16 239.967475 
L 252.392727 245.846896 
L 268.625455 259.830178 
L 284.858182 277.357253 
L 301.090909 252.683863 
L 317.323636 189.956756 
L 333.556364 238.353891 
L 349.789091 250.453273 
L 366.021818 245.126321 
L 382.254545 212.784493 
L 398.487273 273.69611 
" clip-path="url(#p9086519943)" style="fill: none; stroke: #440154; stroke-opacity: 0.5; stroke-width: 1.5; stroke-linecap: square"/>
   </g>
   <g id="line2d_43">
    <path d="M 73.832727 265.468115 
L 90.065455 258.716285 
L 106.298182 262.689653 
L 122.530909 184.576005 
L 138.763636 277.762645 
L 154.996364 269.233678 
L 171.229091 264.398603 
L 187.461818 256.52089 
L 203.694545 241.242595 
L 219.927273 245.358528 
L 236.16 201.194577 
L 252.392727 255.675791 
L 268.625455 226.388735 
L 284.858182 261.402693 
L 301.090909 227.048756 
L 317.323636 225.414304 
L 333.556364 202.030594 
L 349.789091 205.076683 
L 366.021818 197.100335 
L 382.254545 263.781796 
L 398.487273 241.892544 
" clip-path="url(#p9086519943)" style="fill: none; stroke: #440154; stroke-opacity: 0.5; stroke-width: 1.5; stroke-linecap: square"/>
   </g>
   <g id="line2d_44">
    <path d="M 73.832727 263.039545 
L 90.065455 268.569293 
L 106.298182 245.11475 
L 122.530909 267.211618 
L 138.763636 273.949656 
L 154.996364 278.827693 
L 171.229091 261.404568 
L 187.461818 190.138163 
L 203.694545 279.33246 
L 219.927273 204.422682 
L 236.16 191.550869 
L 252.392727 243.935108 
L 268.625455 244.746115 
L 284.858182 264.530472 
L 301.090909 252.344133 
L 317.323636 225.749329 
L 333.556364 219.093869 
L 349.789091 214.964926 
L 366.021818 231.202204 
L 382.254545 248.219979 
L 398.487273 260.119646 
" clip-path="url(#p9086519943)" style="fill: none; stroke: #440154; stroke-opacity: 0.5; stroke-width: 1.5; stroke-linecap: square"/>
   </g>
   <g id="line2d_45">
    <path d="M 73.832727 273.223356 
L 90.065455 281.474898 
L 106.298182 270.887622 
L 122.530909 252.140884 
L 138.763636 270.960876 
L 154.996364 252.820372 
L 171.229091 230.147018 
L 187.461818 258.36578 
L 203.694545 253.460815 
L 219.927273 255.490175 
L 236.16 164.71605 
L 252.392727 223.076544 
L 268.625455 230.600661 
L 284.858182 244.176837 
L 301.090909 251.06381 
L 317.323636 220.696987 
L 333.556364 226.588857 
L 349.789091 231.002614 
L 366.021818 245.467109 
L 382.254545 223.6921 
L 398.487273 245.927518 
" clip-path="url(#p9086519943)" style="fill: none; stroke: #440154; stroke-opacity: 0.5; stroke-width: 1.5; stroke-linecap: square"/>
   </g>
   <g id="line2d_46">
    <path d="M 73.832727 265.036649 
L 90.065455 239.075806 
L 106.298182 248.432399 
L 122.530909 261.901462 
L 138.763636 254.112392 
L 154.996364 244.214634 
L 171.229091 262.001302 
L 187.461818 212.85007 
L 203.694545 202.843367 
L 219.927273 255.771889 
L 236.16 258.850027 
L 252.392727 252.775035 
L 268.625455 257.968995 
L 284.858182 245.576941 
L 301.090909 267.468466 
L 317.323636 260.50608 
L 333.556364 240.38546 
L 349.789091 243.21198 
L 366.021818 269.583165 
L 382.254545 260.29424 
L 398.487273 264.928849 
" clip-path="url(#p9086519943)" style="fill: none; stroke: #440154; stroke-opacity: 0.5; stroke-width: 1.5; stroke-linecap: square"/>
   </g>
   <g id="line2d_47">
    <path d="M 73.832727 226.086246 
L 90.065455 231.419403 
L 106.298182 224.000631 
L 122.530909 244.689901 
L 138.763636 242.404285 
L 154.996364 236.811358 
L 171.229091 224.117698 
L 187.461818 208.38313 
L 203.694545 191.45486 
L 219.927273 225.84678 
L 236.16 237.480353 
L 252.392727 286.609436 
L 268.625455 246.466484 
L 284.858182 222.870064 
L 301.090909 232.278421 
L 317.323636 262.254248 
L 333.556364 234.093325 
L 349.789091 249.745766 
L 366.021818 253.398709 
L 382.254545 284.459351 
L 398.487273 225.725257 
" clip-path="url(#p9086519943)" style="fill: none; stroke: #440154; stroke-opacity: 0.5; stroke-width: 1.5; stroke-linecap: square"/>
   </g>
   <g id="line2d_48">
    <path d="M 73.832727 245.216364 
L 90.065455 240.247118 
L 106.298182 237.913845 
L 122.530909 247.429563 
L 138.763636 255.516246 
L 154.996364 222.499711 
L 171.229091 237.420254 
L 187.461818 230.26951 
L 203.694545 213.247111 
L 219.927273 194.40771 
L 236.16 263.908835 
L 252.392727 253.736166 
L 268.625455 233.796332 
L 284.858182 214.485855 
L 301.090909 262.947248 
L 317.323636 243.568275 
L 333.556364 244.907591 
L 349.789091 262.058169 
L 366.021818 257.003231 
L 382.254545 262.825797 
L 398.487273 274.518275 
" clip-path="url(#p9086519943)" style="fill: none; stroke: #440154; stroke-opacity: 0.5; stroke-width: 1.5; stroke-linecap: square"/>
   </g>
   <g id="line2d_49">
    <path d="M 73.832727 256.629281 
L 90.065455 247.827389 
L 106.298182 269.026971 
L 122.530909 232.616104 
L 138.763636 225.982718 
L 154.996364 250.003776 
L 171.229091 235.862867 
L 187.461818 221.615436 
L 203.694545 262.456938 
L 219.927273 244.333779 
L 236.16 243.379397 
L 252.392727 247.795769 
L 268.625455 202.382808 
L 284.858182 207.828847 
L 301.090909 187.35679 
L 317.323636 260.218954 
L 333.556364 212.994789 
L 349.789091 187.971518 
L 366.021818 197.783936 
L 382.254545 255.216994 
L 398.487273 196.706414 
" clip-path="url(#p9086519943)" style="fill: none; stroke: #440154; stroke-opacity: 0.5; stroke-width: 1.5; stroke-linecap: square"/>
   </g>
   <g id="line2d_50">
    <path d="M 73.832727 235.704993 
L 90.065455 227.178033 
L 106.298182 204.811887 
L 122.530909 175.447843 
L 138.763636 181.817964 
L 154.996364 175.596699 
L 171.229091 189.084972 
L 187.461818 192.890961 
L 203.694545 260.005184 
L 219.927273 216.447453 
L 236.16 198.273301 
L 252.392727 194.731827 
L 268.625455 184.46503 
L 284.858182 251.009184 
L 301.090909 186.916527 
L 317.323636 262.837934 
L 333.556364 191.375529 
L 349.789091 220.895836 
L 366.021818 225.426894 
L 382.254545 193.964318 
L 398.487273 199.966613 
" clip-path="url(#p9086519943)" style="fill: none; stroke: #440154; stroke-opacity: 0.5; stroke-width: 1.5; stroke-linecap: square"/>
   </g>
   <g id="line2d_51">
    <path d="M 73.832727 215.940676 
L 90.065455 231.427655 
L 106.298182 236.419069 
L 122.530909 262.538731 
L 138.763636 260.40229 
L 154.996364 276.582199 
L 171.229091 224.265995 
L 187.461818 208.815904 
L 203.694545 252.675051 
L 219.927273 212.152598 
L 236.16 245.328545 
L 252.392727 224.081983 
L 268.625455 227.34643 
L 284.858182 195.883854 
L 301.090909 205.288725 
L 317.323636 229.326147 
L 333.556364 233.161049 
L 349.789091 227.230227 
L 366.021818 219.021965 
L 382.254545 212.445978 
L 398.487273 264.731516 
" clip-path="url(#p9086519943)" style="fill: none; stroke: #440154; stroke-opacity: 0.5; stroke-width: 1.5; stroke-linecap: square"/>
   </g>
   <g id="line2d_52">
    <path d="M 73.832727 224.426118 
L 90.065455 271.688457 
L 106.298182 270.1991 
L 122.530909 219.67742 
L 138.763636 185.117308 
L 154.996364 202.334562 
L 171.229091 200.578392 
L 187.461818 200.556476 
L 203.694545 223.773751 
L 219.927273 229.573337 
L 236.16 256.894879 
L 252.392727 205.221924 
L 268.625455 198.778037 
L 284.858182 184.688009 
L 301.090909 253.900366 
L 317.323636 244.264508 
L 333.556364 233.079178 
L 349.789091 234.169188 
L 366.021818 239.562592 
L 382.254545 221.861007 
L 398.487273 231.417441 
" clip-path="url(#p9086519943)" style="fill: none; stroke: #440154; stroke-opacity: 0.5; stroke-width: 1.5; stroke-linecap: square"/>
   </g>
   <g id="line2d_53">
    <path d="M 73.832727 234.818949 
L 90.065455 178.175002 
L 106.298182 209.310518 
L 122.530909 181.88203 
L 138.763636 154.134612 
L 154.996364 164.628313 
L 171.229091 208.787991 
L 187.461818 214.533416 
L 203.694545 248.17597 
L 219.927273 222.459356 
L 236.16 225.859433 
L 252.392727 241.862767 
L 268.625455 220.209349 
L 284.858182 237.275402 
L 301.090909 239.072442 
L 317.323636 243.849579 
L 333.556364 235.320988 
L 349.789091 237.578394 
L 366.021818 248.393524 
L 382.254545 225.767524 
L 398.487273 233.596076 
" clip-path="url(#p9086519943)" style="fill: none; stroke: #440154; stroke-opacity: 0.5; stroke-width: 1.5; stroke-linecap: square"/>
   </g>
   <g id="line2d_54">
    <path d="M 73.832727 258.391305 
L 90.065455 228.218021 
L 106.298182 234.009608 
L 122.530909 224.134914 
L 138.763636 246.147382 
L 154.996364 248.388109 
L 171.229091 235.115485 
L 187.461818 277.36893 
L 203.694545 219.477135 
L 219.927273 252.616906 
L 236.16 236.90825 
L 252.392727 228.034495 
L 268.625455 222.560897 
L 284.858182 247.705515 
L 301.090909 251.089012 
L 317.323636 273.904061 
L 333.556364 261.857373 
L 349.789091 253.309636 
L 366.021818 252.286229 
L 382.254545 264.669676 
L 398.487273 241.10894 
" clip-path="url(#p9086519943)" style="fill: none; stroke: #440154; stroke-opacity: 0.5; stroke-width: 1.5; stroke-linecap: square"/>
   </g>
   <g id="line2d_55">
    <path d="M 73.832727 262.52328 
L 90.065455 265.307226 
L 106.298182 264.675767 
L 122.530909 257.473957 
L 138.763636 269.55344 
L 154.996364 263.665724 
L 171.229091 274.837199 
L 187.461818 279.298293 
L 203.694545 260.750053 
L 219.927273 264.799006 
L 236.16 245.946079 
L 252.392727 249.530289 
L 268.625455 256.299031 
L 284.858182 282.065353 
L 301.090909 277.415915 
L 317.323636 263.504017 
L 333.556364 268.505514 
L 349.789091 270.449199 
L 366.021818 267.748975 
L 382.254545 253.057859 
L 398.487273 263.299504 
" clip-path="url(#p9086519943)" style="fill: none; stroke: #440154; stroke-opacity: 0.5; stroke-width: 1.5; stroke-linecap: square"/>
   </g>
   <g id="line2d_56">
    <path d="M 73.832727 251.919802 
L 90.065455 239.992909 
L 106.298182 250.544098 
L 122.530909 230.902581 
L 138.763636 235.980594 
L 154.996364 223.559652 
L 171.229091 238.512454 
L 187.461818 227.146239 
L 203.694545 212.826002 
L 219.927273 230.932385 
L 236.16 221.566588 
L 252.392727 191.109256 
L 268.625455 222.190014 
L 284.858182 197.420382 
L 301.090909 199.491165 
L 317.323636 237.192196 
L 333.556364 245.718059 
L 349.789091 233.044425 
L 366.021818 227.371077 
L 382.254545 230.571726 
L 398.487273 233.888184 
" clip-path="url(#p9086519943)" style="fill: none; stroke: #440154; stroke-opacity: 0.5; stroke-width: 1.5; stroke-linecap: square"/>
   </g>
   <g id="line2d_57">
    <path d="M 73.832727 259.005491 
L 90.065455 267.043024 
L 106.298182 280.829354 
L 122.530909 264.95942 
L 138.763636 261.383893 
L 154.996364 275.224599 
L 171.229091 293.78156 
L 187.461818 290.760048 
L 203.694545 291.439244 
L 219.927273 267.141404 
L 236.16 276.648963 
L 252.392727 273.797037 
L 268.625455 259.290952 
L 284.858182 272.950782 
L 301.090909 284.516659 
L 317.323636 267.682052 
L 333.556364 288.902969 
L 349.789091 261.791188 
L 366.021818 269.574873 
L 382.254545 253.025099 
L 398.487273 275.478461 
" clip-path="url(#p9086519943)" style="fill: none; stroke: #440154; stroke-opacity: 0.5; stroke-width: 1.5; stroke-linecap: square"/>
   </g>
   <g id="line2d_58">
    <path d="M 73.832727 222.574704 
L 90.065455 256.511602 
L 106.298182 250.226961 
L 122.530909 239.979792 
L 138.763636 258.03845 
L 154.996364 279.830335 
L 171.229091 263.429037 
L 187.461818 281.232529 
L 203.694545 277.169037 
L 219.927273 250.145831 
L 236.16 265.388452 
L 252.392727 277.723078 
L 268.625455 268.286628 
L 284.858182 256.797988 
L 301.090909 260.681964 
L 317.323636 258.191722 
L 333.556364 263.74031 
L 349.789091 263.547347 
L 366.021818 266.342457 
L 382.254545 255.588632 
L 398.487273 265.010451 
" clip-path="url(#p9086519943)" style="fill: none; stroke: #440154; stroke-opacity: 0.5; stroke-width: 1.5; stroke-linecap: square"/>
   </g>
   <g id="line2d_59">
    <path d="M 73.832727 245.099624 
L 90.065455 245.890206 
L 106.298182 235.703871 
L 122.530909 253.319883 
L 138.763636 234.73713 
L 154.996364 187.740155 
L 171.229091 204.370229 
L 187.461818 181.297708 
L 203.694545 156.730101 
L 219.927273 231.296355 
L 236.16 226.556296 
L 252.392727 257.574817 
L 268.625455 209.912667 
L 284.858182 253.985711 
L 301.090909 248.160067 
L 317.323636 257.397249 
L 333.556364 255.767828 
L 349.789091 222.954091 
L 366.021818 175.662373 
L 382.254545 251.419299 
L 398.487273 220.388525 
" clip-path="url(#p9086519943)" style="fill: none; stroke: #440154; stroke-opacity: 0.5; stroke-width: 1.5; stroke-linecap: square"/>
   </g>
   <g id="line2d_60">
    <path d="M 73.832727 245.008663 
L 90.065455 233.502136 
L 106.298182 243.356672 
L 122.530909 205.209497 
L 138.763636 250.405933 
L 154.996364 233.292127 
L 171.229091 231.212348 
L 187.461818 233.262307 
L 203.694545 226.575179 
L 219.927273 222.371924 
L 236.16 175.469717 
L 252.392727 149.966933 
L 268.625455 193.668975 
L 284.858182 223.322786 
L 301.090909 242.066563 
L 317.323636 213.229576 
L 333.556364 214.792841 
L 349.789091 194.694749 
L 366.021818 175.08102 
L 382.254545 180.969894 
L 398.487273 187.091218 
" clip-path="url(#p9086519943)" style="fill: none; stroke: #440154; stroke-opacity: 0.5; stroke-width: 1.5; stroke-linecap: square"/>
   </g>
   <g id="line2d_61">
    <path d="M 73.832727 160.334563 
L 90.065455 164.858206 
L 106.298182 193.336165 
L 122.530909 53.568 
L 138.763636 85.47945 
L 154.996364 161.909173 
L 171.229091 146.592157 
L 187.461818 189.86253 
L 203.694545 200.366663 
L 219.927273 253.768166 
L 236.16 251.972767 
L 252.392727 221.768754 
L 268.625455 234.04957 
L 284.858182 247.072512 
L 301.090909 251.349482 
L 317.323636 245.353965 
L 333.556364 245.770063 
L 349.789091 234.728689 
L 366.021818 216.831155 
L 382.254545 225.297539 
L 398.487273 253.360735 
" clip-path="url(#p9086519943)" style="fill: none; stroke: #440154; stroke-opacity: 0.5; stroke-width: 1.5; stroke-linecap: square"/>
   </g>
   <g id="line2d_62">
    <path d="M 73.832727 264.195607 
L 90.065455 257.567782 
L 106.298182 259.985857 
L 122.530909 287.424626 
L 138.763636 272.239112 
L 154.996364 262.474203 
L 171.229091 261.441722 
L 187.461818 251.287006 
L 203.694545 283.526751 
L 219.927273 276.1292 
L 236.16 281.590016 
L 252.392727 285.995606 
L 268.625455 261.662144 
L 284.858182 272.751017 
L 301.090909 271.180935 
L 317.323636 290.683888 
L 333.556364 280.507493 
L 349.789091 276.143931 
L 366.021818 280.48788 
L 382.254545 267.621137 
L 398.487273 278.830184 
" clip-path="url(#p9086519943)" style="fill: none; stroke: #440154; stroke-opacity: 0.5; stroke-width: 1.5; stroke-linecap: square"/>
   </g>
   <g id="line2d_63">
    <path d="M 73.832727 281.67274 
L 90.065455 261.93271 
L 106.298182 273.826341 
L 122.530909 276.285945 
L 138.763636 277.383038 
L 154.996364 277.439145 
L 171.229091 284.804609 
L 187.461818 268.378239 
L 203.694545 269.849195 
L 219.927273 266.372899 
L 236.16 258.199119 
L 252.392727 295.488 
L 268.625455 274.586062 
L 284.858182 284.996017 
L 301.090909 291.403225 
L 317.323636 265.782467 
L 333.556364 272.638406 
L 349.789091 279.022701 
L 366.021818 265.779094 
L 382.254545 271.163183 
L 398.487273 262.186233 
" clip-path="url(#p9086519943)" style="fill: none; stroke: #440154; stroke-opacity: 0.5; stroke-width: 1.5; stroke-linecap: square"/>
   </g>
   <g id="line2d_64">
    <path d="M 73.832727 234.606792 
L 90.065455 193.949082 
L 106.298182 232.518109 
L 122.530909 199.463716 
L 138.763636 210.95685 
L 154.996364 262.227899 
L 171.229091 236.091231 
L 187.461818 209.94499 
L 203.694545 220.026429 
L 219.927273 228.340145 
L 236.16 216.122653 
L 252.392727 218.213297 
L 268.625455 226.122146 
L 284.858182 224.552972 
L 301.090909 222.88448 
L 317.323636 188.423832 
L 333.556364 206.288719 
L 349.789091 200.894344 
L 366.021818 215.221606 
L 382.254545 205.861382 
L 398.487273 203.572584 
" clip-path="url(#p9086519943)" style="fill: none; stroke: #440154; stroke-opacity: 0.5; stroke-width: 1.5; stroke-linecap: square"/>
   </g>
   <g id="line2d_65">
    <path d="M 73.832727 279.055807 
L 90.065455 284.72476 
L 106.298182 283.560108 
L 122.530909 282.952493 
L 138.763636 278.299722 
L 154.996364 265.764284 
L 171.229091 284.996124 
L 187.461818 274.5006 
L 203.694545 281.061638 
L 219.927273 241.830133 
L 236.16 237.09386 
L 252.392727 242.092002 
L 268.625455 226.989805 
L 284.858182 277.895992 
L 301.090909 264.157507 
L 317.323636 275.559976 
L 333.556364 261.181899 
L 349.789091 266.376933 
L 366.021818 275.779316 
L 382.254545 240.206727 
L 398.487273 230.081657 
" clip-path="url(#p9086519943)" style="fill: none; stroke: #440154; stroke-opacity: 0.5; stroke-width: 1.5; stroke-linecap: square"/>
   </g>
   <g id="line2d_66">
    <path d="M 73.832727 286.541863 
L 90.065455 267.831215 
L 106.298182 274.908443 
L 122.530909 286.901535 
L 138.763636 267.519088 
L 154.996364 276.339247 
L 171.229091 284.885803 
L 187.461818 269.799196 
L 203.694545 273.386884 
L 219.927273 263.239228 
L 236.16 248.125866 
L 252.392727 238.048169 
L 268.625455 261.269585 
L 284.858182 261.894584 
L 301.090909 259.704923 
L 317.323636 266.659205 
L 333.556364 242.469891 
L 349.789091 253.416671 
L 366.021818 251.768124 
L 382.254545 252.985067 
L 398.487273 250.852636 
" clip-path="url(#p9086519943)" style="fill: none; stroke: #440154; stroke-opacity: 0.5; stroke-width: 1.5; stroke-linecap: square"/>
   </g>
   <g id="line2d_67">
    <path d="M 73.832727 250.13562 
L 90.065455 225.733535 
L 106.298182 211.741992 
L 122.530909 236.400672 
L 138.763636 243.388713 
L 154.996364 245.871732 
L 171.229091 246.644612 
L 187.461818 260.913283 
L 203.694545 267.862423 
L 219.927273 237.136388 
L 236.16 236.257315 
L 252.392727 210.872014 
L 268.625455 230.834752 
L 284.858182 252.610654 
L 301.090909 234.931321 
L 317.323636 245.071191 
L 333.556364 218.096999 
L 349.789091 207.938285 
L 366.021818 228.513426 
L 382.254545 206.924682 
L 398.487273 221.48787 
" clip-path="url(#p9086519943)" style="fill: none; stroke: #440154; stroke-opacity: 0.5; stroke-width: 1.5; stroke-linecap: square"/>
   </g>
   <g id="line2d_68">
    <path d="M 73.832727 253.212675 
L 90.065455 249.708302 
L 106.298182 256.762558 
L 122.530909 246.520473 
L 138.763636 258.880753 
L 154.996364 260.851358 
L 171.229091 238.229671 
L 187.461818 244.210624 
L 203.694545 256.182779 
L 219.927273 235.121614 
L 236.16 232.800981 
L 252.392727 225.995972 
L 268.625455 219.347377 
L 284.858182 216.869939 
L 301.090909 216.757603 
L 317.323636 232.182265 
L 333.556364 238.422104 
L 349.789091 193.742513 
L 366.021818 191.59515 
L 382.254545 245.028089 
L 398.487273 243.365067 
" clip-path="url(#p9086519943)" style="fill: none; stroke: #440154; stroke-opacity: 0.5; stroke-width: 1.5; stroke-linecap: square"/>
   </g>
   <g id="line2d_69">
    <path d="M 73.832727 245.307567 
L 90.065455 249.918444 
L 106.298182 243.697445 
L 122.530909 249.534558 
L 138.763636 262.509877 
L 154.996364 244.554078 
L 171.229091 184.922788 
L 187.461818 165.469039 
L 203.694545 168.656617 
L 219.927273 252.834063 
L 236.16 199.583362 
L 252.392727 239.439381 
L 268.625455 259.196586 
L 284.858182 221.994155 
L 301.090909 201.771363 
L 317.323636 234.19957 
L 333.556364 229.135424 
L 349.789091 217.702974 
L 366.021818 210.153918 
L 382.254545 236.187728 
L 398.487273 242.689633 
" clip-path="url(#p9086519943)" style="fill: none; stroke: #440154; stroke-opacity: 0.5; stroke-width: 1.5; stroke-linecap: square"/>
   </g>
   <g id="line2d_70">
    <path d="M 73.832727 267.956142 
L 90.065455 274.086182 
L 106.298182 252.970572 
L 122.530909 253.480133 
L 138.763636 278.503918 
L 154.996364 274.823916 
L 171.229091 289.720776 
L 187.461818 256.031069 
L 203.694545 280.353177 
L 219.927273 290.430003 
L 236.16 283.911738 
L 252.392727 281.65778 
L 268.625455 289.887127 
L 284.858182 278.149635 
L 301.090909 282.702497 
L 317.323636 280.235791 
L 333.556364 280.366613 
L 349.789091 270.945413 
L 366.021818 291.949187 
L 382.254545 283.077617 
L 398.487273 269.516004 
" clip-path="url(#p9086519943)" style="fill: none; stroke: #440154; stroke-opacity: 0.5; stroke-width: 1.5; stroke-linecap: square"/>
   </g>
   <g id="line2d_71">
    <path d="M 73.832727 190.539871 
L 90.065455 237.873245 
L 106.298182 235.243337 
L 122.530909 260.540286 
L 138.763636 247.326206 
L 154.996364 249.658834 
L 171.229091 221.860284 
L 187.461818 234.620152 
L 203.694545 257.147698 
L 219.927273 194.496869 
L 236.16 253.890475 
L 252.392727 240.825352 
L 268.625455 249.955831 
L 284.858182 253.060424 
L 301.090909 238.283434 
L 317.323636 235.671444 
L 333.556364 186.162366 
L 349.789091 185.37564 
L 366.021818 258.841357 
L 382.254545 220.036725 
L 398.487273 264.0071 
" clip-path="url(#p9086519943)" style="fill: none; stroke: #440154; stroke-opacity: 0.5; stroke-width: 1.5; stroke-linecap: square"/>
   </g>
   <g id="line2d_72">
    <path d="M 73.832727 223.542541 
L 90.065455 233.213718 
L 106.298182 232.316721 
L 122.530909 249.329438 
L 138.763636 207.442489 
L 154.996364 227.512068 
L 171.229091 230.233654 
L 187.461818 225.515199 
L 203.694545 257.516422 
L 219.927273 237.005099 
L 236.16 215.629803 
L 252.392727 215.861474 
L 268.625455 232.985645 
L 284.858182 181.585557 
L 301.090909 210.150764 
L 317.323636 232.460181 
L 333.556364 216.459381 
L 349.789091 214.271458 
L 366.021818 206.012207 
L 382.254545 250.629032 
L 398.487273 246.188231 
" clip-path="url(#p9086519943)" style="fill: none; stroke: #440154; stroke-opacity: 0.5; stroke-width: 1.5; stroke-linecap: square"/>
   </g>
   <g id="line2d_73">
    <path d="M 73.832727 277.808452 
L 90.065455 270.631754 
L 106.298182 285.521889 
L 122.530909 286.264047 
L 138.763636 262.36044 
L 154.996364 266.795714 
L 171.229091 264.896727 
L 187.461818 265.856676 
L 203.694545 273.184095 
L 219.927273 273.710979 
L 236.16 249.768016 
L 252.392727 251.451777 
L 268.625455 256.926394 
L 284.858182 275.899734 
L 301.090909 239.926062 
L 317.323636 271.571805 
L 333.556364 264.853264 
L 349.789091 263.39554 
L 366.021818 279.404065 
L 382.254545 261.063502 
L 398.487273 238.160476 
" clip-path="url(#p9086519943)" style="fill: none; stroke: #440154; stroke-opacity: 0.5; stroke-width: 1.5; stroke-linecap: square"/>
   </g>
   <g id="line2d_74">
    <path d="M 73.832727 278.129438 
L 90.065455 261.099863 
L 106.298182 270.791086 
L 122.530909 281.909563 
L 138.763636 266.997614 
L 154.996364 260.935816 
L 171.229091 225.759127 
L 187.461818 255.275166 
L 203.694545 269.918037 
L 219.927273 229.52113 
L 236.16 268.576008 
L 252.392727 254.618894 
L 268.625455 249.342026 
L 284.858182 262.025732 
L 301.090909 258.830634 
L 317.323636 262.862874 
L 333.556364 257.029768 
L 349.789091 259.003151 
L 366.021818 283.415226 
L 382.254545 258.863427 
L 398.487273 247.19229 
" clip-path="url(#p9086519943)" style="fill: none; stroke: #440154; stroke-opacity: 0.5; stroke-width: 1.5; stroke-linecap: square"/>
   </g>
   <g id="line2d_75">
    <path d="M 73.832727 232.845666 
L 90.065455 238.727585 
L 106.298182 219.880128 
L 122.530909 247.812406 
L 138.763636 213.719458 
L 154.996364 213.161635 
L 171.229091 221.793701 
L 187.461818 209.001772 
L 203.694545 190.069079 
L 219.927273 225.894145 
L 236.16 212.170713 
L 252.392727 229.863799 
L 268.625455 232.439855 
L 284.858182 202.479069 
L 301.090909 216.001523 
L 317.323636 247.541742 
L 333.556364 212.82793 
L 349.789091 220.214256 
L 366.021818 222.994785 
L 382.254545 226.254025 
L 398.487273 239.146136 
" clip-path="url(#p9086519943)" style="fill: none; stroke: #440154; stroke-opacity: 0.5; stroke-width: 1.5; stroke-linecap: square"/>
   </g>
   <g id="line2d_76">
    <path d="M 73.832727 252.991347 
L 90.065455 259.763061 
L 106.298182 240.062208 
L 122.530909 220.834559 
L 138.763636 238.450344 
L 154.996364 246.613821 
L 171.229091 238.562932 
L 187.461818 251.633701 
L 203.694545 262.88875 
L 219.927273 245.3233 
L 236.16 253.436958 
L 252.392727 244.946658 
L 268.625455 252.540606 
L 284.858182 258.485039 
L 301.090909 259.142936 
L 317.323636 233.136558 
L 333.556364 219.171179 
L 349.789091 243.712772 
L 366.021818 271.446618 
L 382.254545 247.46337 
L 398.487273 241.83958 
" clip-path="url(#p9086519943)" style="fill: none; stroke: #440154; stroke-opacity: 0.5; stroke-width: 1.5; stroke-linecap: square"/>
   </g>
   <g id="line2d_77">
    <path d="M 73.832727 235.178364 
L 90.065455 240.815264 
L 106.298182 244.064026 
L 122.530909 240.300523 
L 138.763636 233.692924 
L 154.996364 227.781923 
L 171.229091 227.057 
L 187.461818 219.503079 
L 203.694545 248.555659 
L 219.927273 218.347303 
L 236.16 247.390803 
L 252.392727 246.884155 
L 268.625455 236.007058 
L 284.858182 209.467779 
L 301.090909 217.67163 
L 317.323636 172.099048 
L 333.556364 226.250101 
L 349.789091 233.16925 
L 366.021818 235.913349 
L 382.254545 216.060517 
L 398.487273 235.158984 
" clip-path="url(#p9086519943)" style="fill: none; stroke: #440154; stroke-opacity: 0.5; stroke-width: 1.5; stroke-linecap: square"/>
   </g>
   <g id="line2d_78">
    <path d="M 73.832727 220.107662 
L 90.065455 213.493749 
L 106.298182 196.751561 
L 122.530909 247.820332 
L 138.763636 210.625643 
L 154.996364 166.005223 
L 171.229091 192.351394 
L 187.461818 187.142346 
L 203.694545 145.643904 
L 219.927273 263.316698 
L 236.16 252.186012 
L 252.392727 266.193009 
L 268.625455 252.485743 
L 284.858182 277.315231 
L 301.090909 261.825749 
L 317.323636 281.157581 
L 333.556364 254.29972 
L 349.789091 234.038254 
L 366.021818 253.622922 
L 382.254545 284.255327 
L 398.487273 258.715526 
" clip-path="url(#p9086519943)" style="fill: none; stroke: #440154; stroke-opacity: 0.5; stroke-width: 1.5; stroke-linecap: square"/>
   </g>
   <g id="line2d_79">
    <path d="M 73.832727 238.290194 
L 90.065455 233.625792 
L 106.298182 217.648901 
L 122.530909 240.38416 
L 138.763636 211.825028 
L 154.996364 151.872541 
L 171.229091 219.225956 
L 187.461818 211.846565 
L 203.694545 187.823357 
L 219.927273 258.254991 
L 236.16 269.943104 
L 252.392727 261.541222 
L 268.625455 272.191233 
L 284.858182 222.945006 
L 301.090909 187.975514 
L 317.323636 262.724981 
L 333.556364 254.520859 
L 349.789091 231.936656 
L 366.021818 249.751241 
L 382.254545 227.496691 
L 398.487273 250.093378 
" clip-path="url(#p9086519943)" style="fill: none; stroke: #440154; stroke-opacity: 0.5; stroke-width: 1.5; stroke-linecap: square"/>
   </g>
   <g id="line2d_80">
    <path d="M 73.832727 182.658086 
L 90.065455 164.130594 
L 106.298182 150.824964 
L 122.530909 175.629171 
L 138.763636 238.304299 
L 154.996364 219.230961 
L 171.229091 238.684357 
L 187.461818 242.735608 
L 203.694545 235.78601 
L 219.927273 271.562524 
L 236.16 253.527738 
L 252.392727 251.221608 
L 268.625455 221.554406 
L 284.858182 253.866221 
L 301.090909 213.68658 
L 317.323636 260.864047 
L 333.556364 266.228765 
L 349.789091 233.484865 
L 366.021818 251.399733 
L 382.254545 225.289279 
L 398.487273 249.388072 
" clip-path="url(#p9086519943)" style="fill: none; stroke: #440154; stroke-opacity: 0.5; stroke-width: 1.5; stroke-linecap: square"/>
   </g>
   <g id="line2d_81">
    <path d="M 73.832727 272.944764 
L 90.065455 265.929192 
L 106.298182 279.138922 
L 122.530909 259.059114 
L 138.763636 270.0346 
L 154.996364 269.183993 
L 171.229091 257.999026 
L 187.461818 242.915323 
L 203.694545 263.990457 
L 219.927273 263.425901 
L 236.16 258.295158 
L 252.392727 237.409878 
L 268.625455 276.834444 
L 284.858182 258.895069 
L 301.090909 272.159714 
L 317.323636 240.547744 
L 333.556364 238.729534 
L 349.789091 251.572443 
L 366.021818 266.26453 
L 382.254545 242.681489 
L 398.487273 259.203821 
" clip-path="url(#p9086519943)" style="fill: none; stroke: #440154; stroke-opacity: 0.5; stroke-width: 1.5; stroke-linecap: square"/>
   </g>
   <g id="line2d_82">
    <path d="M 73.832727 243.58385 
L 90.065455 253.782671 
L 106.298182 253.55743 
L 122.530909 257.951149 
L 138.763636 279.100126 
L 154.996364 281.804411 
L 171.229091 243.672236 
L 187.461818 273.918454 
L 203.694545 280.44468 
L 219.927273 255.105171 
L 236.16 276.88046 
L 252.392727 274.078459 
L 268.625455 274.157898 
L 284.858182 273.270411 
L 301.090909 259.369156 
L 317.323636 259.552927 
L 333.556364 264.682232 
L 349.789091 257.949692 
L 366.021818 273.868846 
L 382.254545 259.937621 
L 398.487273 253.135703 
" clip-path="url(#p9086519943)" style="fill: none; stroke: #440154; stroke-opacity: 0.5; stroke-width: 1.5; stroke-linecap: square"/>
   </g>
   <g id="line2d_83">
    <path d="M 73.832727 216.202531 
L 90.065455 222.058276 
L 106.298182 244.792489 
L 122.530909 216.362602 
L 138.763636 208.15316 
L 154.996364 223.905529 
L 171.229091 224.241969 
L 187.461818 236.765327 
L 203.694545 233.406736 
L 219.927273 242.260343 
L 236.16 217.374886 
L 252.392727 233.031737 
L 268.625455 218.130173 
L 284.858182 242.398853 
L 301.090909 240.016455 
L 317.323636 231.14453 
L 333.556364 209.714601 
L 349.789091 243.064216 
L 366.021818 228.899015 
L 382.254545 233.436654 
L 398.487273 229.923251 
" clip-path="url(#p9086519943)" style="fill: none; stroke: #440154; stroke-opacity: 0.5; stroke-width: 1.5; stroke-linecap: square"/>
   </g>
   <g id="line2d_84">
    <path d="M 73.832727 216.01159 
L 90.065455 222.277193 
L 106.298182 226.341057 
L 122.530909 222.996235 
L 138.763636 199.182815 
L 154.996364 176.119792 
L 171.229091 224.607239 
L 187.461818 209.59051 
L 203.694545 190.872366 
L 219.927273 186.516261 
L 236.16 190.257974 
L 252.392727 186.217523 
L 268.625455 209.584623 
L 284.858182 197.910138 
L 301.090909 189.793449 
L 317.323636 202.303885 
L 333.556364 205.742885 
L 349.789091 188.065716 
L 366.021818 188.914972 
L 382.254545 194.268433 
L 398.487273 183.110752 
" clip-path="url(#p9086519943)" style="fill: none; stroke: #440154; stroke-opacity: 0.5; stroke-width: 1.5; stroke-linecap: square"/>
   </g>
   <g id="line2d_85">
    <path d="M 73.832727 218.739323 
L 90.065455 212.58511 
L 106.298182 203.666472 
L 122.530909 213.260361 
L 138.763636 211.420122 
L 154.996364 204.082661 
L 171.229091 183.251182 
L 187.461818 213.920308 
L 203.694545 198.2647 
L 219.927273 191.796119 
L 236.16 199.138331 
L 252.392727 204.331636 
L 268.625455 176.781053 
L 284.858182 179.040943 
L 301.090909 184.151394 
L 317.323636 172.764102 
L 333.556364 194.610383 
L 349.789091 195.024168 
L 366.021818 191.077566 
L 382.254545 198.972947 
L 398.487273 198.577039 
" clip-path="url(#p9086519943)" style="fill: none; stroke: #440154; stroke-opacity: 0.5; stroke-width: 1.5; stroke-linecap: square"/>
   </g>
   <g id="line2d_86">
    <path d="M 73.832727 266.624012 
L 90.065455 262.520314 
L 106.298182 244.080582 
L 122.530909 258.074695 
L 138.763636 264.272807 
L 154.996364 264.17977 
L 171.229091 261.26691 
L 187.461818 261.483112 
L 203.694545 258.104305 
L 219.927273 199.843444 
L 236.16 234.255972 
L 252.392727 261.294326 
L 268.625455 236.667885 
L 284.858182 256.181071 
L 301.090909 254.472097 
L 317.323636 238.606563 
L 333.556364 243.021019 
L 349.789091 248.235297 
L 366.021818 255.202308 
L 382.254545 234.676894 
L 398.487273 242.296152 
" clip-path="url(#p9086519943)" style="fill: none; stroke: #440154; stroke-opacity: 0.5; stroke-width: 1.5; stroke-linecap: square"/>
   </g>
   <g id="line2d_87">
    <path d="M 73.832727 285.503245 
L 90.065455 268.589604 
L 106.298182 285.598719 
L 122.530909 279.834102 
L 138.763636 282.219605 
L 154.996364 264.627484 
L 171.229091 267.235979 
L 187.461818 268.545936 
L 203.694545 288.026008 
L 219.927273 241.697722 
L 236.16 251.339549 
L 252.392727 232.715349 
L 268.625455 244.780171 
L 284.858182 280.532477 
L 301.090909 294.751588 
L 317.323636 263.558885 
L 333.556364 273.398034 
L 349.789091 275.626939 
L 366.021818 291.703147 
L 382.254545 251.382392 
L 398.487273 244.929175 
" clip-path="url(#p9086519943)" style="fill: none; stroke: #440154; stroke-opacity: 0.5; stroke-width: 1.5; stroke-linecap: square"/>
   </g>
   <g id="line2d_88">
    <path d="M 73.832727 226.452389 
L 90.065455 248.08597 
L 106.298182 231.807132 
L 122.530909 236.946288 
L 138.763636 247.850799 
L 154.996364 217.719231 
L 171.229091 225.714846 
L 187.461818 221.238653 
L 203.694545 204.09407 
L 219.927273 189.822604 
L 236.16 170.706158 
L 252.392727 191.528315 
L 268.625455 188.717828 
L 284.858182 203.732278 
L 301.090909 202.436036 
L 317.323636 215.228738 
L 333.556364 199.599715 
L 349.789091 203.020547 
L 366.021818 220.709441 
L 382.254545 192.30175 
L 398.487273 198.503178 
" clip-path="url(#p9086519943)" style="fill: none; stroke: #440154; stroke-opacity: 0.5; stroke-width: 1.5; stroke-linecap: square"/>
   </g>
   <g id="line2d_89">
    <path d="M 73.832727 279.461606 
L 90.065455 269.181615 
L 106.298182 289.908521 
L 122.530909 288.149623 
L 138.763636 287.995792 
L 154.996364 290.579784 
L 171.229091 282.204272 
L 187.461818 260.91617 
L 203.694545 274.189556 
L 219.927273 255.442729 
L 236.16 259.464548 
L 252.392727 261.059687 
L 268.625455 273.624186 
L 284.858182 248.186745 
L 301.090909 261.310876 
L 317.323636 258.131073 
L 333.556364 236.889976 
L 349.789091 241.663078 
L 366.021818 227.177325 
L 382.254545 250.862191 
L 398.487273 274.738947 
" clip-path="url(#p9086519943)" style="fill: none; stroke: #440154; stroke-opacity: 0.5; stroke-width: 1.5; stroke-linecap: square"/>
   </g>
   <g id="line2d_90">
    <path d="M 73.832727 251.45257 
L 90.065455 267.790281 
L 106.298182 244.709194 
L 122.530909 263.528016 
L 138.763636 272.082872 
L 154.996364 265.143893 
L 171.229091 268.524614 
L 187.461818 245.606437 
L 203.694545 264.559578 
L 219.927273 254.682449 
L 236.16 272.521097 
L 252.392727 261.282391 
L 268.625455 240.015094 
L 284.858182 276.679334 
L 301.090909 252.087633 
L 317.323636 273.654264 
L 333.556364 260.874052 
L 349.789091 255.801163 
L 366.021818 259.969298 
L 382.254545 248.425799 
L 398.487273 250.253031 
" clip-path="url(#p9086519943)" style="fill: none; stroke: #440154; stroke-opacity: 0.5; stroke-width: 1.5; stroke-linecap: square"/>
   </g>
   <g id="line2d_91">
    <path d="M 73.832727 264.873559 
L 90.065455 222.650384 
L 106.298182 250.642285 
L 122.530909 203.952625 
L 138.763636 209.63037 
L 154.996364 223.519775 
L 171.229091 223.221185 
L 187.461818 201.684371 
L 203.694545 203.269586 
L 219.927273 251.839046 
L 236.16 211.815925 
L 252.392727 228.360553 
L 268.625455 230.697035 
L 284.858182 219.672225 
L 301.090909 199.292976 
L 317.323636 198.474205 
L 333.556364 219.49264 
L 349.789091 237.91925 
L 366.021818 248.333162 
L 382.254545 231.218643 
L 398.487273 227.506255 
" clip-path="url(#p9086519943)" style="fill: none; stroke: #440154; stroke-opacity: 0.5; stroke-width: 1.5; stroke-linecap: square"/>
   </g>
   <g id="line2d_92">
    <path d="M 73.832727 251.243291 
L 90.065455 256.493689 
L 106.298182 244.543618 
L 122.530909 254.556154 
L 138.763636 243.739979 
L 154.996364 244.07961 
L 171.229091 258.638756 
L 187.461818 248.62093 
L 203.694545 262.768645 
L 219.927273 237.534194 
L 236.16 231.485384 
L 252.392727 265.373755 
L 268.625455 220.227823 
L 284.858182 241.875595 
L 301.090909 247.841017 
L 317.323636 241.812965 
L 333.556364 226.304227 
L 349.789091 242.015172 
L 366.021818 237.765795 
L 382.254545 245.465129 
L 398.487273 242.914686 
" clip-path="url(#p9086519943)" style="fill: none; stroke: #440154; stroke-opacity: 0.5; stroke-width: 1.5; stroke-linecap: square"/>
   </g>
   <g id="line2d_93">
    <path d="M 73.832727 209.126037 
L 90.065455 243.556998 
L 106.298182 219.871954 
L 122.530909 257.901536 
L 138.763636 261.861201 
L 154.996364 249.067489 
L 171.229091 226.150495 
L 187.461818 244.434233 
L 203.694545 233.456388 
L 219.927273 241.239555 
L 236.16 221.094616 
L 252.392727 191.141592 
L 268.625455 220.898765 
L 284.858182 230.256548 
L 301.090909 204.13715 
L 317.323636 192.787015 
L 333.556364 203.949254 
L 349.789091 212.997661 
L 366.021818 215.837144 
L 382.254545 221.063696 
L 398.487273 230.08932 
" clip-path="url(#p9086519943)" style="fill: none; stroke: #440154; stroke-opacity: 0.5; stroke-width: 1.5; stroke-linecap: square"/>
   </g>
   <g id="line2d_94">
    <path d="M 73.832727 186.818073 
L 90.065455 208.555626 
L 106.298182 242.036326 
L 122.530909 268.987558 
L 138.763636 293.500893 
L 154.996364 279.276103 
L 171.229091 281.448702 
L 187.461818 285.697378 
L 203.694545 261.333925 
L 219.927273 287.626732 
L 236.16 257.940416 
L 252.392727 276.613386 
L 268.625455 269.369039 
L 284.858182 278.807207 
L 301.090909 287.230693 
L 317.323636 283.582436 
L 333.556364 283.342391 
L 349.789091 279.960599 
L 366.021818 270.176427 
L 382.254545 272.114082 
L 398.487273 257.784514 
" clip-path="url(#p9086519943)" style="fill: none; stroke: #440154; stroke-opacity: 0.5; stroke-width: 1.5; stroke-linecap: square"/>
   </g>
   <g id="line2d_95">
    <path d="M 73.832727 238.000363 
L 90.065455 262.776962 
L 106.298182 265.000933 
L 122.530909 280.410315 
L 138.763636 283.168641 
L 154.996364 281.858629 
L 171.229091 280.160905 
L 187.461818 273.565764 
L 203.694545 244.964217 
L 219.927273 261.089097 
L 236.16 252.614672 
L 252.392727 262.763397 
L 268.625455 261.94616 
L 284.858182 235.928475 
L 301.090909 232.202247 
L 317.323636 249.09377 
L 333.556364 267.616622 
L 349.789091 253.804186 
L 366.021818 247.656099 
L 382.254545 258.082468 
L 398.487273 248.756745 
" clip-path="url(#p9086519943)" style="fill: none; stroke: #440154; stroke-opacity: 0.5; stroke-width: 1.5; stroke-linecap: square"/>
   </g>
   <g id="line2d_96">
    <path d="M 73.832727 246.815336 
L 90.065455 209.173202 
L 106.298182 244.712998 
L 122.530909 217.333616 
L 138.763636 211.083857 
L 154.996364 217.475232 
L 171.229091 205.947169 
L 187.461818 214.688769 
L 203.694545 222.338243 
L 219.927273 217.479478 
L 236.16 216.818912 
L 252.392727 234.755036 
L 268.625455 242.064257 
L 284.858182 214.503113 
L 301.090909 232.268437 
L 317.323636 227.421938 
L 333.556364 231.683992 
L 349.789091 233.157922 
L 366.021818 225.833779 
L 382.254545 242.667225 
L 398.487273 248.996352 
" clip-path="url(#p9086519943)" style="fill: none; stroke: #440154; stroke-opacity: 0.5; stroke-width: 1.5; stroke-linecap: square"/>
   </g>
   <g id="line2d_97">
    <path d="M 73.832727 271.307502 
L 90.065455 257.262017 
L 106.298182 268.743465 
L 122.530909 267.786235 
L 138.763636 287.150561 
L 154.996364 289.655803 
L 171.229091 285.289121 
L 187.461818 289.94594 
L 203.694545 274.501938 
L 219.927273 262.061016 
L 236.16 272.421322 
L 252.392727 274.408079 
L 268.625455 271.753822 
L 284.858182 253.575916 
L 301.090909 275.169042 
L 317.323636 224.616049 
L 333.556364 237.537863 
L 349.789091 255.634741 
L 366.021818 250.19515 
L 382.254545 268.412642 
L 398.487273 268.914413 
" clip-path="url(#p9086519943)" style="fill: none; stroke: #440154; stroke-opacity: 0.5; stroke-width: 1.5; stroke-linecap: square"/>
   </g>
   <g id="line2d_98">
    <path d="M 73.832727 271.862895 
L 90.065455 272.638023 
L 106.298182 273.186139 
L 122.530909 289.860083 
L 138.763636 254.564314 
L 154.996364 270.507978 
L 171.229091 229.60902 
L 187.461818 239.758262 
L 203.694545 249.337263 
L 219.927273 262.859591 
L 236.16 273.741682 
L 252.392727 289.404194 
L 268.625455 273.832786 
L 284.858182 279.052619 
L 301.090909 287.680051 
L 317.323636 280.245048 
L 333.556364 240.160976 
L 349.789091 271.587204 
L 366.021818 239.481201 
L 382.254545 258.28127 
L 398.487273 276.574212 
" clip-path="url(#p9086519943)" style="fill: none; stroke: #440154; stroke-opacity: 0.5; stroke-width: 1.5; stroke-linecap: square"/>
   </g>
   <g id="line2d_99">
    <path d="M 73.832727 239.941252 
L 90.065455 215.659159 
L 106.298182 229.88166 
L 122.530909 228.46155 
L 138.763636 224.064443 
L 154.996364 226.137519 
L 171.229091 222.206663 
L 187.461818 211.646009 
L 203.694545 221.624702 
L 219.927273 209.622506 
L 236.16 232.405492 
L 252.392727 241.858964 
L 268.625455 221.808227 
L 284.858182 188.619236 
L 301.090909 168.57003 
L 317.323636 229.457274 
L 333.556364 225.593804 
L 349.789091 242.038192 
L 366.021818 256.244613 
L 382.254545 220.111838 
L 398.487273 222.659878 
" clip-path="url(#p9086519943)" style="fill: none; stroke: #440154; stroke-opacity: 0.5; stroke-width: 1.5; stroke-linecap: square"/>
   </g>
   <g id="line2d_100">
    <path d="M 73.832727 250.398457 
L 90.065455 204.779611 
L 106.298182 241.017634 
L 122.530909 257.552928 
L 138.763636 250.687343 
L 154.996364 253.059977 
L 171.229091 252.483785 
L 187.461818 240.894127 
L 203.694545 218.372296 
L 219.927273 262.152884 
L 236.16 253.910935 
L 252.392727 233.476582 
L 268.625455 243.078603 
L 284.858182 215.810621 
L 301.090909 222.218538 
L 317.323636 246.026509 
L 333.556364 258.767441 
L 349.789091 251.543025 
L 366.021818 257.830506 
L 382.254545 248.1365 
L 398.487273 236.470077 
" clip-path="url(#p9086519943)" style="fill: none; stroke: #440154; stroke-opacity: 0.5; stroke-width: 1.5; stroke-linecap: square"/>
   </g>
   <g id="line2d_101">
    <path d="M 73.832727 210.176783 
L 90.065455 243.106943 
L 106.298182 217.005762 
L 122.530909 198.728777 
L 138.763636 195.725062 
L 154.996364 167.404706 
L 171.229091 221.81876 
L 187.461818 209.481273 
L 203.694545 180.68063 
L 219.927273 214.173125 
L 236.16 246.018282 
L 252.392727 231.951485 
L 268.625455 239.677832 
L 284.858182 150.818914 
L 301.090909 174.847804 
L 317.323636 246.32292 
L 333.556364 214.627239 
L 349.789091 236.30555 
L 366.021818 196.946996 
L 382.254545 226.672446 
L 398.487273 242.703287 
" clip-path="url(#p9086519943)" style="fill: none; stroke: #440154; stroke-opacity: 0.5; stroke-width: 1.5; stroke-linecap: square"/>
   </g>
   <g id="patch_3">
    <path d="M 57.6 307.584 
L 57.6 41.472 
" style="fill: none; stroke: #000000; stroke-width: 3; stroke-linejoin: miter; stroke-linecap: square"/>
   </g>
   <g id="patch_4">
    <path d="M 414.72 307.584 
L 414.72 41.472 
" style="fill: none; stroke: #000000; stroke-width: 3; stroke-linejoin: miter; stroke-linecap: square"/>
   </g>
   <g id="patch_5">
    <path d="M 57.6 307.584 
L 414.72 307.584 
" style="fill: none; stroke: #000000; stroke-width: 3; stroke-linejoin: miter; stroke-linecap: square"/>
   </g>
   <g id="patch_6">
    <path d="M 57.6 41.472 
L 414.72 41.472 
" style="fill: none; stroke: #000000; stroke-width: 3; stroke-linejoin: miter; stroke-linecap: square"/>
   </g>
   <g id="text_12">
    <!-- Atom Type H (n=90, mean Q=9.03) -->
    <g transform="translate(40.225937 35.472) scale(0.22 -0.22)">
     <defs>
      <path id="DejaVuSans-41" d="M 2188 4044 
L 1331 1722 
L 3047 1722 
L 2188 4044 
z
M 1831 4666 
L 2547 4666 
L 4325 0 
L 3669 0 
L 3244 1197 
L 1141 1197 
L 716 0 
L 50 0 
L 1831 4666 
z
" transform="scale(0.015625)"/>
      <path id="DejaVuSans-74" d="M 1172 4494 
L 1172 3500 
L 2356 3500 
L 2356 3053 
L 1172 3053 
L 1172 1153 
Q 1172 725 1289 603 
Q 1406 481 1766 481 
L 2356 481 
L 2356 0 
L 1766 0 
Q 1100 0 847 248 
Q 594 497 594 1153 
L 594 3053 
L 172 3053 
L 172 3500 
L 594 3500 
L 594 4494 
L 1172 4494 
z
" transform="scale(0.015625)"/>
      <path id="DejaVuSans-6f" d="M 1959 3097 
Q 1497 3097 1228 2736 
Q 959 2375 959 1747 
Q 959 1119 1226 758 
Q 1494 397 1959 397 
Q 2419 397 2687 759 
Q 2956 1122 2956 1747 
Q 2956 2369 2687 2733 
Q 2419 3097 1959 3097 
z
M 1959 3584 
Q 2709 3584 3137 3096 
Q 3566 2609 3566 1747 
Q 3566 888 3137 398 
Q 2709 -91 1959 -91 
Q 1206 -91 779 398 
Q 353 888 353 1747 
Q 353 2609 779 3096 
Q 1206 3584 1959 3584 
z
" transform="scale(0.015625)"/>
      <path id="DejaVuSans-6d" d="M 3328 2828 
Q 3544 3216 3844 3400 
Q 4144 3584 4550 3584 
Q 5097 3584 5394 3201 
Q 5691 2819 5691 2113 
L 5691 0 
L 5113 0 
L 5113 2094 
Q 5113 2597 4934 2840 
Q 4756 3084 4391 3084 
Q 3944 3084 3684 2787 
Q 3425 2491 3425 1978 
L 3425 0 
L 2847 0 
L 2847 2094 
Q 2847 2600 2669 2842 
Q 2491 3084 2119 3084 
Q 1678 3084 1418 2786 
Q 1159 2488 1159 1978 
L 1159 0 
L 581 0 
L 581 3500 
L 1159 3500 
L 1159 2956 
Q 1356 3278 1631 3431 
Q 1906 3584 2284 3584 
Q 2666 3584 2933 3390 
Q 3200 3197 3328 2828 
z
" transform="scale(0.015625)"/>
      <path id="DejaVuSans-20" transform="scale(0.015625)"/>
      <path id="DejaVuSans-54" d="M -19 4666 
L 3928 4666 
L 3928 4134 
L 2272 4134 
L 2272 0 
L 1638 0 
L 1638 4134 
L -19 4134 
L -19 4666 
z
" transform="scale(0.015625)"/>
      <path id="DejaVuSans-79" d="M 2059 -325 
Q 1816 -950 1584 -1140 
Q 1353 -1331 966 -1331 
L 506 -1331 
L 506 -850 
L 844 -850 
Q 1081 -850 1212 -737 
Q 1344 -625 1503 -206 
L 1606 56 
L 191 3500 
L 800 3500 
L 1894 763 
L 2988 3500 
L 3597 3500 
L 2059 -325 
z
" transform="scale(0.015625)"/>
      <path id="DejaVuSans-70" d="M 1159 525 
L 1159 -1331 
L 581 -1331 
L 581 3500 
L 1159 3500 
L 1159 2969 
Q 1341 3281 1617 3432 
Q 1894 3584 2278 3584 
Q 2916 3584 3314 3078 
Q 3713 2572 3713 1747 
Q 3713 922 3314 415 
Q 2916 -91 2278 -91 
Q 1894 -91 1617 61 
Q 1341 213 1159 525 
z
M 3116 1747 
Q 3116 2381 2855 2742 
Q 2594 3103 2138 3103 
Q 1681 3103 1420 2742 
Q 1159 2381 1159 1747 
Q 1159 1113 1420 752 
Q 1681 391 2138 391 
Q 2594 391 2855 752 
Q 3116 1113 3116 1747 
z
" transform="scale(0.015625)"/>
      <path id="DejaVuSans-65" d="M 3597 1894 
L 3597 1613 
L 953 1613 
Q 991 1019 1311 708 
Q 1631 397 2203 397 
Q 2534 397 2845 478 
Q 3156 559 3463 722 
L 3463 178 
Q 3153 47 2828 -22 
Q 2503 -91 2169 -91 
Q 1331 -91 842 396 
Q 353 884 353 1716 
Q 353 2575 817 3079 
Q 1281 3584 2069 3584 
Q 2775 3584 3186 3129 
Q 3597 2675 3597 1894 
z
M 3022 2063 
Q 3016 2534 2758 2815 
Q 2500 3097 2075 3097 
Q 1594 3097 1305 2825 
Q 1016 2553 972 2059 
L 3022 2063 
z
" transform="scale(0.015625)"/>
      <path id="DejaVuSans-48" d="M 628 4666 
L 1259 4666 
L 1259 2753 
L 3553 2753 
L 3553 4666 
L 4184 4666 
L 4184 0 
L 3553 0 
L 3553 2222 
L 1259 2222 
L 1259 0 
L 628 0 
L 628 4666 
z
" transform="scale(0.015625)"/>
      <path id="DejaVuSans-28" d="M 1984 4856 
Q 1566 4138 1362 3434 
Q 1159 2731 1159 2009 
Q 1159 1288 1364 580 
Q 1569 -128 1984 -844 
L 1484 -844 
Q 1016 -109 783 600 
Q 550 1309 550 2009 
Q 550 2706 781 3412 
Q 1013 4119 1484 4856 
L 1984 4856 
z
" transform="scale(0.015625)"/>
      <path id="DejaVuSans-6e" d="M 3513 2113 
L 3513 0 
L 2938 0 
L 2938 2094 
Q 2938 2591 2744 2837 
Q 2550 3084 2163 3084 
Q 1697 3084 1428 2787 
Q 1159 2491 1159 1978 
L 1159 0 
L 581 0 
L 581 3500 
L 1159 3500 
L 1159 2956 
Q 1366 3272 1645 3428 
Q 1925 3584 2291 3584 
Q 2894 3584 3203 3211 
Q 3513 2838 3513 2113 
z
" transform="scale(0.015625)"/>
      <path id="DejaVuSans-3d" d="M 678 2906 
L 4684 2906 
L 4684 2381 
L 678 2381 
L 678 2906 
z
M 678 1631 
L 4684 1631 
L 4684 1100 
L 678 1100 
L 678 1631 
z
" transform="scale(0.015625)"/>
      <path id="DejaVuSans-39" d="M 703 97 
L 703 672 
Q 941 559 1184 500 
Q 1428 441 1663 441 
Q 2288 441 2617 861 
Q 2947 1281 2994 2138 
Q 2813 1869 2534 1725 
Q 2256 1581 1919 1581 
Q 1219 1581 811 2004 
Q 403 2428 403 3163 
Q 403 3881 828 4315 
Q 1253 4750 1959 4750 
Q 2769 4750 3195 4129 
Q 3622 3509 3622 2328 
Q 3622 1225 3098 567 
Q 2575 -91 1691 -91 
Q 1453 -91 1209 -44 
Q 966 3 703 97 
z
M 1959 2075 
Q 2384 2075 2632 2365 
Q 2881 2656 2881 3163 
Q 2881 3666 2632 3958 
Q 2384 4250 1959 4250 
Q 1534 4250 1286 3958 
Q 1038 3666 1038 3163 
Q 1038 2656 1286 2365 
Q 1534 2075 1959 2075 
z
" transform="scale(0.015625)"/>
      <path id="DejaVuSans-2c" d="M 750 794 
L 1409 794 
L 1409 256 
L 897 -744 
L 494 -744 
L 750 256 
L 750 794 
z
" transform="scale(0.015625)"/>
      <path id="DejaVuSans-61" d="M 2194 1759 
Q 1497 1759 1228 1600 
Q 959 1441 959 1056 
Q 959 750 1161 570 
Q 1363 391 1709 391 
Q 2188 391 2477 730 
Q 2766 1069 2766 1631 
L 2766 1759 
L 2194 1759 
z
M 3341 1997 
L 3341 0 
L 2766 0 
L 2766 531 
Q 2569 213 2275 61 
Q 1981 -91 1556 -91 
Q 1019 -91 701 211 
Q 384 513 384 1019 
Q 384 1609 779 1909 
Q 1175 2209 1959 2209 
L 2766 2209 
L 2766 2266 
Q 2766 2663 2505 2880 
Q 2244 3097 1772 3097 
Q 1472 3097 1187 3025 
Q 903 2953 641 2809 
L 641 3341 
Q 956 3463 1253 3523 
Q 1550 3584 1831 3584 
Q 2591 3584 2966 3190 
Q 3341 2797 3341 1997 
z
" transform="scale(0.015625)"/>
      <path id="DejaVuSans-51" d="M 2522 4238 
Q 1834 4238 1429 3725 
Q 1025 3213 1025 2328 
Q 1025 1447 1429 934 
Q 1834 422 2522 422 
Q 3209 422 3611 934 
Q 4013 1447 4013 2328 
Q 4013 3213 3611 3725 
Q 3209 4238 2522 4238 
z
M 3406 84 
L 4238 -825 
L 3475 -825 
L 2784 -78 
Q 2681 -84 2626 -87 
Q 2572 -91 2522 -91 
Q 1538 -91 948 567 
Q 359 1225 359 2328 
Q 359 3434 948 4092 
Q 1538 4750 2522 4750 
Q 3503 4750 4090 4092 
Q 4678 3434 4678 2328 
Q 4678 1516 4351 937 
Q 4025 359 3406 84 
z
" transform="scale(0.015625)"/>
      <path id="DejaVuSans-2e" d="M 684 794 
L 1344 794 
L 1344 0 
L 684 0 
L 684 794 
z
" transform="scale(0.015625)"/>
      <path id="DejaVuSans-29" d="M 513 4856 
L 1013 4856 
Q 1481 4119 1714 3412 
Q 1947 2706 1947 2009 
Q 1947 1309 1714 600 
Q 1481 -109 1013 -844 
L 513 -844 
Q 928 -128 1133 580 
Q 1338 1288 1338 2009 
Q 1338 2731 1133 3434 
Q 928 4138 513 4856 
z
" transform="scale(0.015625)"/>
     </defs>
     <use xlink:href="#DejaVuSans-41"/>
     <use xlink:href="#DejaVuSans-74" transform="translate(66.658203 0)"/>
     <use xlink:href="#DejaVuSans-6f" transform="translate(105.867188 0)"/>
     <use xlink:href="#DejaVuSans-6d" transform="translate(167.048828 0)"/>
     <use xlink:href="#DejaVuSans-20" transform="translate(264.460938 0)"/>
     <use xlink:href="#DejaVuSans-54" transform="translate(296.248047 0)"/>
     <use xlink:href="#DejaVuSans-79" transform="translate(341.707031 0)"/>
     <use xlink:href="#DejaVuSans-70" transform="translate(400.886719 0)"/>
     <use xlink:href="#DejaVuSans-65" transform="translate(464.363281 0)"/>
     <use xlink:href="#DejaVuSans-20" transform="translate(525.886719 0)"/>
     <use xlink:href="#DejaVuSans-48" transform="translate(557.673828 0)"/>
     <use xlink:href="#DejaVuSans-20" transform="translate(632.869141 0)"/>
     <use xlink:href="#DejaVuSans-28" transform="translate(664.65625 0)"/>
     <use xlink:href="#DejaVuSans-6e" transform="translate(703.669922 0)"/>
     <use xlink:href="#DejaVuSans-3d" transform="translate(767.048828 0)"/>
     <use xlink:href="#DejaVuSans-39" transform="translate(850.837891 0)"/>
     <use xlink:href="#DejaVuSans-30" transform="translate(914.460938 0)"/>
     <use xlink:href="#DejaVuSans-2c" transform="translate(978.083984 0)"/>
     <use xlink:href="#DejaVuSans-20" transform="translate(1009.871094 0)"/>
     <use xlink:href="#DejaVuSans-6d" transform="translate(1041.658203 0)"/>
     <use xlink:href="#DejaVuSans-65" transform="translate(1139.070312 0)"/>
     <use xlink:href="#DejaVuSans-61" transform="translate(1200.59375 0)"/>
     <use xlink:href="#DejaVuSans-6e" transform="translate(1261.873047 0)"/>
     <use xlink:href="#DejaVuSans-20" transform="translate(1325.251953 0)"/>
     <use xlink:href="#DejaVuSans-51" transform="translate(1357.039062 0)"/>
     <use xlink:href="#DejaVuSans-3d" transform="translate(1435.75 0)"/>
     <use xlink:href="#DejaVuSans-39" transform="translate(1519.539062 0)"/>
     <use xlink:href="#DejaVuSans-2e" transform="translate(1583.162109 0)"/>
     <use xlink:href="#DejaVuSans-30" transform="translate(1614.949219 0)"/>
     <use xlink:href="#DejaVuSans-33" transform="translate(1678.572266 0)"/>
     <use xlink:href="#DejaVuSans-29" transform="translate(1742.195312 0)"/>
    </g>
   </g>
  </g>
 </g>
 <defs>
  <clipPath id="p9086519943">
   <rect x="57.6" y="41.472" width="357.12" height="266.112"/>
  </clipPath>
 </defs>
</svg>
