<?xml version="1.0" encoding="utf-8" standalone="no"?>
<!DOCTYPE svg PUBLIC "-//W3C//DTD SVG 1.1//EN"
  "http://www.w3.org/Graphics/SVG/1.1/DTD/svg11.dtd">
<svg xmlns:xlink="http://www.w3.org/1999/xlink" width="460.8pt" height="345.6pt" viewBox="0 0 460.8 345.6" xmlns="http://www.w3.org/2000/svg" version="1.1">
 <metadata>
  <rdf:RDF xmlns:dc="http://purl.org/dc/elements/1.1/" xmlns:cc="http://creativecommons.org/ns#" xmlns:rdf="http://www.w3.org/1999/02/22-rdf-syntax-ns#">
   <cc:Work>
    <dc:type rdf:resource="http://purl.org/dc/dcmitype/StillImage"/>
    <dc:date>2025-12-10T13:55:28.818006</dc:date>
    <dc:format>image/svg+xml</dc:format>
    <dc:creator>
     <cc:Agent>
      <dc:title>Matplotlib v3.10.3, https://matplotlib.org/</dc:title>
     </cc:Agent>
    </dc:creator>
   </cc:Work>
  </rdf:RDF>
 </metadata>
 <defs>
  <style type="text/css">*{stroke-linejoin: round; stroke-linecap: butt}</style>
 </defs>
 <g id="figure_1">
  <g id="patch_1">
   <path d="M 0 345.6 
L 460.8 345.6 
L 460.8 0 
L 0 0 
z
" style="fill: #ffffff"/>
  </g>
  <g id="axes_1">
   <g id="patch_2">
    <path d="M 57.6 307.584 
L 414.72 307.584 
L 414.72 41.472 
L 57.6 41.472 
z
" style="fill: #ffffff"/>
   </g>
   <g id="matplotlib.axis_1">
    <g id="xtick_1">
     <g id="line2d_1">
      <defs>
       <path id="m868f131493" d="M 0 0 
L 0 3.5 
" style="stroke: #000000; stroke-width: 0.8"/>
      </defs>
      <g>
       <use xlink:href="#m868f131493" x="73.832727" y="307.584" style="stroke: #000000; stroke-width: 0.8"/>
      </g>
     </g>
     <g id="text_1">
      <!-- 0 -->
      <g transform="translate(69.060852 325.981656) scale(0.15 -0.15)">
       <defs>
        <path id="DejaVuSans-30" d="M 2034 4250 
Q 1547 4250 1301 3770 
Q 1056 3291 1056 2328 
Q 1056 1369 1301 889 
Q 1547 409 2034 409 
Q 2525 409 2770 889 
Q 3016 1369 3016 2328 
Q 3016 3291 2770 3770 
Q 2525 4250 2034 4250 
z
M 2034 4750 
Q 2819 4750 3233 4129 
Q 3647 3509 3647 2328 
Q 3647 1150 3233 529 
Q 2819 -91 2034 -91 
Q 1250 -91 836 529 
Q 422 1150 422 2328 
Q 422 3509 836 4129 
Q 1250 4750 2034 4750 
z
" transform="scale(0.015625)"/>
       </defs>
       <use xlink:href="#DejaVuSans-30"/>
      </g>
     </g>
    </g>
    <g id="xtick_2">
     <g id="line2d_2">
      <g>
       <use xlink:href="#m868f131493" x="154.996364" y="307.584" style="stroke: #000000; stroke-width: 0.8"/>
      </g>
     </g>
     <g id="text_2">
      <!-- 5 -->
      <g transform="translate(150.224489 325.981656) scale(0.15 -0.15)">
       <defs>
        <path id="DejaVuSans-35" d="M 691 4666 
L 3169 4666 
L 3169 4134 
L 1269 4134 
L 1269 2991 
Q 1406 3038 1543 3061 
Q 1681 3084 1819 3084 
Q 2600 3084 3056 2656 
Q 3513 2228 3513 1497 
Q 3513 744 3044 326 
Q 2575 -91 1722 -91 
Q 1428 -91 1123 -41 
Q 819 9 494 109 
L 494 744 
Q 775 591 1075 516 
Q 1375 441 1709 441 
Q 2250 441 2565 725 
Q 2881 1009 2881 1497 
Q 2881 1984 2565 2268 
Q 2250 2553 1709 2553 
Q 1456 2553 1204 2497 
Q 953 2441 691 2322 
L 691 4666 
z
" transform="scale(0.015625)"/>
       </defs>
       <use xlink:href="#DejaVuSans-35"/>
      </g>
     </g>
    </g>
    <g id="xtick_3">
     <g id="line2d_3">
      <g>
       <use xlink:href="#m868f131493" x="236.16" y="307.584" style="stroke: #000000; stroke-width: 0.8"/>
      </g>
     </g>
     <g id="text_3">
      <!-- 10 -->
      <g transform="translate(226.61625 325.981656) scale(0.15 -0.15)">
       <defs>
        <path id="DejaVuSans-31" d="M 794 531 
L 1825 531 
L 1825 4091 
L 703 3866 
L 703 4441 
L 1819 4666 
L 2450 4666 
L 2450 531 
L 3481 531 
L 3481 0 
L 794 0 
L 794 531 
z
" transform="scale(0.015625)"/>
       </defs>
       <use xlink:href="#DejaVuSans-31"/>
       <use xlink:href="#DejaVuSans-30" transform="translate(63.623047 0)"/>
      </g>
     </g>
    </g>
    <g id="xtick_4">
     <g id="line2d_4">
      <g>
       <use xlink:href="#m868f131493" x="317.323636" y="307.584" style="stroke: #000000; stroke-width: 0.8"/>
      </g>
     </g>
     <g id="text_4">
      <!-- 15 -->
      <g transform="translate(307.779886 325.981656) scale(0.15 -0.15)">
       <use xlink:href="#DejaVuSans-31"/>
       <use xlink:href="#DejaVuSans-35" transform="translate(63.623047 0)"/>
      </g>
     </g>
    </g>
    <g id="xtick_5">
     <g id="line2d_5">
      <g>
       <use xlink:href="#m868f131493" x="398.487273" y="307.584" style="stroke: #000000; stroke-width: 0.8"/>
      </g>
     </g>
     <g id="text_5">
      <!-- 20 -->
      <g transform="translate(388.943523 325.981656) scale(0.15 -0.15)">
       <defs>
        <path id="DejaVuSans-32" d="M 1228 531 
L 3431 531 
L 3431 0 
L 469 0 
L 469 531 
Q 828 903 1448 1529 
Q 2069 2156 2228 2338 
Q 2531 2678 2651 2914 
Q 2772 3150 2772 3378 
Q 2772 3750 2511 3984 
Q 2250 4219 1831 4219 
Q 1534 4219 1204 4116 
Q 875 4013 500 3803 
L 500 4441 
Q 881 4594 1212 4672 
Q 1544 4750 1819 4750 
Q 2544 4750 2975 4387 
Q 3406 4025 3406 3419 
Q 3406 3131 3298 2873 
Q 3191 2616 2906 2266 
Q 2828 2175 2409 1742 
Q 1991 1309 1228 531 
z
" transform="scale(0.015625)"/>
       </defs>
       <use xlink:href="#DejaVuSans-32"/>
       <use xlink:href="#DejaVuSans-30" transform="translate(63.623047 0)"/>
      </g>
     </g>
    </g>
   </g>
   <g id="matplotlib.axis_2">
    <g id="ytick_1">
     <g id="line2d_6">
      <defs>
       <path id="m81f193c129" d="M 0 0 
L -3.5 0 
" style="stroke: #000000; stroke-width: 0.8"/>
      </defs>
      <g>
       <use xlink:href="#m81f193c129" x="57.6" y="291.392917" style="stroke: #000000; stroke-width: 0.8"/>
      </g>
     </g>
     <g id="text_6">
      <!-- 5.0 -->
      <g transform="translate(26.745313 297.091745) scale(0.15 -0.15)">
       <defs>
        <path id="DejaVuSans-2e" d="M 684 794 
L 1344 794 
L 1344 0 
L 684 0 
L 684 794 
z
" transform="scale(0.015625)"/>
       </defs>
       <use xlink:href="#DejaVuSans-35"/>
       <use xlink:href="#DejaVuSans-2e" transform="translate(63.623047 0)"/>
       <use xlink:href="#DejaVuSans-30" transform="translate(95.410156 0)"/>
      </g>
     </g>
    </g>
    <g id="ytick_2">
     <g id="line2d_7">
      <g>
       <use xlink:href="#m81f193c129" x="57.6" y="256.913085" style="stroke: #000000; stroke-width: 0.8"/>
      </g>
     </g>
     <g id="text_7">
      <!-- 7.5 -->
      <g transform="translate(26.745313 262.611913) scale(0.15 -0.15)">
       <defs>
        <path id="DejaVuSans-37" d="M 525 4666 
L 3525 4666 
L 3525 4397 
L 1831 0 
L 1172 0 
L 2766 4134 
L 525 4134 
L 525 4666 
z
" transform="scale(0.015625)"/>
       </defs>
       <use xlink:href="#DejaVuSans-37"/>
       <use xlink:href="#DejaVuSans-2e" transform="translate(63.623047 0)"/>
       <use xlink:href="#DejaVuSans-35" transform="translate(95.410156 0)"/>
      </g>
     </g>
    </g>
    <g id="ytick_3">
     <g id="line2d_8">
      <g>
       <use xlink:href="#m81f193c129" x="57.6" y="222.433253" style="stroke: #000000; stroke-width: 0.8"/>
      </g>
     </g>
     <g id="text_8">
      <!-- 10.0 -->
      <g transform="translate(17.201563 228.132081) scale(0.15 -0.15)">
       <use xlink:href="#DejaVuSans-31"/>
       <use xlink:href="#DejaVuSans-30" transform="translate(63.623047 0)"/>
       <use xlink:href="#DejaVuSans-2e" transform="translate(127.246094 0)"/>
       <use xlink:href="#DejaVuSans-30" transform="translate(159.033203 0)"/>
      </g>
     </g>
    </g>
    <g id="ytick_4">
     <g id="line2d_9">
      <g>
       <use xlink:href="#m81f193c129" x="57.6" y="187.953421" style="stroke: #000000; stroke-width: 0.8"/>
      </g>
     </g>
     <g id="text_9">
      <!-- 12.5 -->
      <g transform="translate(17.201563 193.652249) scale(0.15 -0.15)">
       <use xlink:href="#DejaVuSans-31"/>
       <use xlink:href="#DejaVuSans-32" transform="translate(63.623047 0)"/>
       <use xlink:href="#DejaVuSans-2e" transform="translate(127.246094 0)"/>
       <use xlink:href="#DejaVuSans-35" transform="translate(159.033203 0)"/>
      </g>
     </g>
    </g>
    <g id="ytick_5">
     <g id="line2d_10">
      <g>
       <use xlink:href="#m81f193c129" x="57.6" y="153.473589" style="stroke: #000000; stroke-width: 0.8"/>
      </g>
     </g>
     <g id="text_10">
      <!-- 15.0 -->
      <g transform="translate(17.201563 159.172418) scale(0.15 -0.15)">
       <use xlink:href="#DejaVuSans-31"/>
       <use xlink:href="#DejaVuSans-35" transform="translate(63.623047 0)"/>
       <use xlink:href="#DejaVuSans-2e" transform="translate(127.246094 0)"/>
       <use xlink:href="#DejaVuSans-30" transform="translate(159.033203 0)"/>
      </g>
     </g>
    </g>
    <g id="ytick_6">
     <g id="line2d_11">
      <g>
       <use xlink:href="#m81f193c129" x="57.6" y="118.993757" style="stroke: #000000; stroke-width: 0.8"/>
      </g>
     </g>
     <g id="text_11">
      <!-- 17.5 -->
      <g transform="translate(17.201563 124.692586) scale(0.15 -0.15)">
       <use xlink:href="#DejaVuSans-31"/>
       <use xlink:href="#DejaVuSans-37" transform="translate(63.623047 0)"/>
       <use xlink:href="#DejaVuSans-2e" transform="translate(127.246094 0)"/>
       <use xlink:href="#DejaVuSans-35" transform="translate(159.033203 0)"/>
      </g>
     </g>
    </g>
    <g id="ytick_7">
     <g id="line2d_12">
      <g>
       <use xlink:href="#m81f193c129" x="57.6" y="84.513926" style="stroke: #000000; stroke-width: 0.8"/>
      </g>
     </g>
     <g id="text_12">
      <!-- 20.0 -->
      <g transform="translate(17.201563 90.212754) scale(0.15 -0.15)">
       <use xlink:href="#DejaVuSans-32"/>
       <use xlink:href="#DejaVuSans-30" transform="translate(63.623047 0)"/>
       <use xlink:href="#DejaVuSans-2e" transform="translate(127.246094 0)"/>
       <use xlink:href="#DejaVuSans-30" transform="translate(159.033203 0)"/>
      </g>
     </g>
    </g>
    <g id="ytick_8">
     <g id="line2d_13">
      <g>
       <use xlink:href="#m81f193c129" x="57.6" y="50.034094" style="stroke: #000000; stroke-width: 0.8"/>
      </g>
     </g>
     <g id="text_13">
      <!-- 22.5 -->
      <g transform="translate(17.201563 55.732922) scale(0.15 -0.15)">
       <use xlink:href="#DejaVuSans-32"/>
       <use xlink:href="#DejaVuSans-32" transform="translate(63.623047 0)"/>
       <use xlink:href="#DejaVuSans-2e" transform="translate(127.246094 0)"/>
       <use xlink:href="#DejaVuSans-35" transform="translate(159.033203 0)"/>
      </g>
     </g>
    </g>
   </g>
   <g id="line2d_14">
    <path d="M 73.832727 211.214731 
L 90.065455 211.642868 
L 106.298182 218.142356 
L 122.530909 165.254432 
L 138.763636 186.753412 
L 154.996364 175.959649 
L 171.229091 107.10937 
L 187.461818 129.29252 
L 203.694545 121.704805 
L 219.927273 130.891082 
L 236.16 193.17667 
L 252.392727 146.806305 
L 268.625455 155.050573 
L 284.858182 175.739782 
L 301.090909 245.440301 
L 317.323636 149.967989 
L 333.556364 200.737248 
L 349.789091 175.219356 
L 366.021818 226.082977 
L 382.254545 215.999792 
L 398.487273 185.731651 
" clip-path="url(#pe57a15872e)" style="fill: none; stroke: #31688e; stroke-opacity: 0.5; stroke-width: 1.5; stroke-linecap: square"/>
   </g>
   <g id="line2d_15">
    <path d="M 73.832727 263.567452 
L 90.065455 240.984513 
L 106.298182 273.478361 
L 122.530909 182.476858 
L 138.763636 149.420451 
L 154.996364 109.496058 
L 171.229091 160.507648 
L 187.461818 159.090879 
L 203.694545 58.886393 
L 219.927273 155.364654 
L 236.16 75.837622 
L 252.392727 176.105763 
L 268.625455 131.472819 
L 284.858182 165.42907 
L 301.090909 166.846498 
L 317.323636 215.413063 
L 333.556364 102.981405 
L 349.789091 122.595735 
L 366.021818 134.429857 
L 382.254545 128.485578 
L 398.487273 117.016766 
" clip-path="url(#pe57a15872e)" style="fill: none; stroke: #31688e; stroke-opacity: 0.5; stroke-width: 1.5; stroke-linecap: square"/>
   </g>
   <g id="line2d_16">
    <path d="M 73.832727 217.97655 
L 90.065455 226.627767 
L 106.298182 210.516085 
L 122.530909 215.261746 
L 138.763636 227.860915 
L 154.996364 191.756984 
L 171.229091 134.21645 
L 187.461818 150.304533 
L 203.694545 143.941057 
L 219.927273 207.922724 
L 236.16 170.113224 
L 252.392727 113.346031 
L 268.625455 141.87465 
L 284.858182 182.611325 
L 301.090909 217.391784 
L 317.323636 141.661874 
L 333.556364 184.371345 
L 349.789091 203.396682 
L 366.021818 178.696254 
L 382.254545 168.090527 
L 398.487273 127.17299 
" clip-path="url(#pe57a15872e)" style="fill: none; stroke: #31688e; stroke-opacity: 0.5; stroke-width: 1.5; stroke-linecap: square"/>
   </g>
   <g id="line2d_17">
    <path d="M 73.832727 211.800941 
L 90.065455 239.006408 
L 106.298182 213.84371 
L 122.530909 234.82418 
L 138.763636 226.486467 
L 154.996364 222.227905 
L 171.229091 155.26964 
L 187.461818 181.650114 
L 203.694545 166.671665 
L 219.927273 212.386158 
L 236.16 189.839323 
L 252.392727 140.491368 
L 268.625455 181.915703 
L 284.858182 227.690016 
L 301.090909 174.49432 
L 317.323636 197.866926 
L 333.556364 153.957377 
L 349.789091 109.457561 
L 366.021818 98.528514 
L 382.254545 106.18755 
L 398.487273 152.859876 
" clip-path="url(#pe57a15872e)" style="fill: none; stroke: #31688e; stroke-opacity: 0.5; stroke-width: 1.5; stroke-linecap: square"/>
   </g>
   <g id="line2d_18">
    <path d="M 73.832727 236.886287 
L 90.065455 231.240449 
L 106.298182 233.791471 
L 122.530909 244.889419 
L 138.763636 235.359457 
L 154.996364 223.324886 
L 171.229091 204.713414 
L 187.461818 208.068089 
L 203.694545 218.010288 
L 219.927273 224.242059 
L 236.16 181.187383 
L 252.392727 205.256999 
L 268.625455 176.615595 
L 284.858182 203.926935 
L 301.090909 215.479416 
L 317.323636 213.728788 
L 333.556364 225.649232 
L 349.789091 209.238359 
L 366.021818 188.198892 
L 382.254545 168.655444 
L 398.487273 169.789898 
" clip-path="url(#pe57a15872e)" style="fill: none; stroke: #31688e; stroke-opacity: 0.5; stroke-width: 1.5; stroke-linecap: square"/>
   </g>
   <g id="line2d_19">
    <path d="M 73.832727 193.461238 
L 90.065455 246.731414 
L 106.298182 217.831526 
L 122.530909 246.794649 
L 138.763636 203.204862 
L 154.996364 244.614013 
L 171.229091 224.59748 
L 187.461818 239.4087 
L 203.694545 201.297975 
L 219.927273 254.401621 
L 236.16 227.898278 
L 252.392727 233.470299 
L 268.625455 207.942978 
L 284.858182 249.171307 
L 301.090909 256.289975 
L 317.323636 241.765978 
L 333.556364 207.87784 
L 349.789091 239.908517 
L 366.021818 202.762948 
L 382.254545 225.930665 
L 398.487273 245.545322 
" clip-path="url(#pe57a15872e)" style="fill: none; stroke: #31688e; stroke-opacity: 0.5; stroke-width: 1.5; stroke-linecap: square"/>
   </g>
   <g id="line2d_20">
    <path d="M 73.832727 264.197373 
L 90.065455 261.574016 
L 106.298182 264.655762 
L 122.530909 263.567599 
L 138.763636 263.142159 
L 154.996364 203.824065 
L 171.229091 229.219122 
L 187.461818 247.253599 
L 203.694545 239.319056 
L 219.927273 248.354728 
L 236.16 213.32438 
L 252.392727 230.833026 
L 268.625455 224.57297 
L 284.858182 266.376227 
L 301.090909 232.54221 
L 317.323636 240.629825 
L 333.556364 196.029417 
L 349.789091 256.907956 
L 366.021818 225.812572 
L 382.254545 251.29431 
L 398.487273 271.524174 
" clip-path="url(#pe57a15872e)" style="fill: none; stroke: #31688e; stroke-opacity: 0.5; stroke-width: 1.5; stroke-linecap: square"/>
   </g>
   <g id="line2d_21">
    <path d="M 73.832727 258.462433 
L 90.065455 260.995229 
L 106.298182 246.452912 
L 122.530909 239.97948 
L 138.763636 213.111354 
L 154.996364 204.489939 
L 171.229091 182.501982 
L 187.461818 190.718882 
L 203.694545 219.831321 
L 219.927273 200.719747 
L 236.16 157.629902 
L 252.392727 196.074742 
L 268.625455 164.64092 
L 284.858182 217.849667 
L 301.090909 199.910245 
L 317.323636 220.499153 
L 333.556364 210.753231 
L 349.789091 203.776492 
L 366.021818 215.693582 
L 382.254545 218.86088 
L 398.487273 183.568545 
" clip-path="url(#pe57a15872e)" style="fill: none; stroke: #31688e; stroke-opacity: 0.5; stroke-width: 1.5; stroke-linecap: square"/>
   </g>
   <g id="line2d_22">
    <path d="M 73.832727 246.057742 
L 90.065455 264.535746 
L 106.298182 243.37218 
L 122.530909 225.693604 
L 138.763636 250.547845 
L 154.996364 222.543988 
L 171.229091 206.724614 
L 187.461818 217.730184 
L 203.694545 219.551032 
L 219.927273 212.349231 
L 236.16 160.921648 
L 252.392727 149.216948 
L 268.625455 196.948539 
L 284.858182 228.176934 
L 301.090909 215.304135 
L 317.323636 181.611455 
L 333.556364 167.78649 
L 349.789091 175.851599 
L 366.021818 139.669454 
L 382.254545 181.93623 
L 398.487273 146.589721 
" clip-path="url(#pe57a15872e)" style="fill: none; stroke: #31688e; stroke-opacity: 0.5; stroke-width: 1.5; stroke-linecap: square"/>
   </g>
   <g id="line2d_23">
    <path d="M 73.832727 207.337914 
L 90.065455 187.255962 
L 106.298182 220.398725 
L 122.530909 138.78577 
L 138.763636 218.045999 
L 154.996364 219.540779 
L 171.229091 246.35193 
L 187.461818 247.021762 
L 203.694545 239.398383 
L 219.927273 224.676969 
L 236.16 217.491799 
L 252.392727 231.657856 
L 268.625455 207.218504 
L 284.858182 225.431725 
L 301.090909 210.36662 
L 317.323636 222.324748 
L 333.556364 225.257931 
L 349.789091 197.602202 
L 366.021818 221.579068 
L 382.254545 223.549061 
L 398.487273 218.71041 
" clip-path="url(#pe57a15872e)" style="fill: none; stroke: #31688e; stroke-opacity: 0.5; stroke-width: 1.5; stroke-linecap: square"/>
   </g>
   <g id="line2d_24">
    <path d="M 73.832727 234.114065 
L 90.065455 166.395386 
L 106.298182 228.256644 
L 122.530909 211.567359 
L 138.763636 211.639951 
L 154.996364 180.633516 
L 171.229091 230.916835 
L 187.461818 237.188503 
L 203.694545 175.828269 
L 219.927273 251.159129 
L 236.16 139.759255 
L 252.392727 127.673586 
L 268.625455 221.391453 
L 284.858182 250.065421 
L 301.090909 225.70551 
L 317.323636 173.997657 
L 333.556364 216.4214 
L 349.789091 215.948931 
L 366.021818 214.410205 
L 382.254545 196.550611 
L 398.487273 263.710395 
" clip-path="url(#pe57a15872e)" style="fill: none; stroke: #31688e; stroke-opacity: 0.5; stroke-width: 1.5; stroke-linecap: square"/>
   </g>
   <g id="line2d_25">
    <path d="M 73.832727 243.541066 
L 90.065455 221.049907 
L 106.298182 198.888136 
L 122.530909 203.971109 
L 138.763636 260.499726 
L 154.996364 257.90927 
L 171.229091 231.913644 
L 187.461818 180.744175 
L 203.694545 163.324317 
L 219.927273 179.084913 
L 236.16 94.512336 
L 252.392727 198.352417 
L 268.625455 169.501523 
L 284.858182 196.256141 
L 301.090909 199.797488 
L 317.323636 170.092315 
L 333.556364 143.349183 
L 349.789091 136.622019 
L 366.021818 144.540973 
L 382.254545 182.75046 
L 398.487273 218.286581 
" clip-path="url(#pe57a15872e)" style="fill: none; stroke: #31688e; stroke-opacity: 0.5; stroke-width: 1.5; stroke-linecap: square"/>
   </g>
   <g id="line2d_26">
    <path d="M 73.832727 168.575567 
L 90.065455 147.733425 
L 106.298182 167.702363 
L 122.530909 180.937402 
L 138.763636 220.759461 
L 154.996364 182.849769 
L 171.229091 239.750938 
L 187.461818 199.933883 
L 203.694545 158.814007 
L 219.927273 168.980823 
L 236.16 211.589071 
L 252.392727 241.489659 
L 268.625455 192.221098 
L 284.858182 196.042658 
L 301.090909 229.03185 
L 317.323636 219.007305 
L 333.556364 200.11275 
L 349.789091 249.695773 
L 366.021818 250.244151 
L 382.254545 264.781115 
L 398.487273 208.444656 
" clip-path="url(#pe57a15872e)" style="fill: none; stroke: #31688e; stroke-opacity: 0.5; stroke-width: 1.5; stroke-linecap: square"/>
   </g>
   <g id="line2d_27">
    <path d="M 73.832727 124.438907 
L 90.065455 139.014377 
L 106.298182 131.54928 
L 122.530909 60.717335 
L 138.763636 91.634527 
L 154.996364 105.72643 
L 171.229091 138.462553 
L 187.461818 53.568 
L 203.694545 210.769891 
L 219.927273 254.944949 
L 236.16 162.209591 
L 252.392727 121.294944 
L 268.625455 73.990806 
L 284.858182 146.875045 
L 301.090909 104.792714 
L 317.323636 228.519296 
L 333.556364 135.353773 
L 349.789091 127.99776 
L 366.021818 161.432445 
L 382.254545 130.280929 
L 398.487273 114.061434 
" clip-path="url(#pe57a15872e)" style="fill: none; stroke: #31688e; stroke-opacity: 0.5; stroke-width: 1.5; stroke-linecap: square"/>
   </g>
   <g id="line2d_28">
    <path d="M 73.832727 174.63642 
L 90.065455 169.619609 
L 106.298182 214.30038 
L 122.530909 194.185912 
L 138.763636 209.334971 
L 154.996364 221.620584 
L 171.229091 168.798672 
L 187.461818 141.925002 
L 203.694545 216.885925 
L 219.927273 198.000747 
L 236.16 210.187997 
L 252.392727 193.901541 
L 268.625455 187.2947 
L 284.858182 176.378103 
L 301.090909 207.819254 
L 317.323636 236.213822 
L 333.556364 228.230573 
L 349.789091 215.91313 
L 366.021818 205.781312 
L 382.254545 181.491257 
L 398.487273 234.785868 
" clip-path="url(#pe57a15872e)" style="fill: none; stroke: #31688e; stroke-opacity: 0.5; stroke-width: 1.5; stroke-linecap: square"/>
   </g>
   <g id="line2d_29">
    <path d="M 73.832727 238.19731 
L 90.065455 219.306316 
L 106.298182 233.563035 
L 122.530909 257.002268 
L 138.763636 259.613881 
L 154.996364 287.245591 
L 171.229091 276.517543 
L 187.461818 282.749109 
L 203.694545 262.004799 
L 219.927273 256.335942 
L 236.16 229.211015 
L 252.392727 248.411793 
L 268.625455 219.330878 
L 284.858182 256.803172 
L 301.090909 273.693952 
L 317.323636 277.206995 
L 333.556364 276.028621 
L 349.789091 263.109143 
L 366.021818 256.176168 
L 382.254545 252.078949 
L 398.487273 256.573512 
" clip-path="url(#pe57a15872e)" style="fill: none; stroke: #31688e; stroke-opacity: 0.5; stroke-width: 1.5; stroke-linecap: square"/>
   </g>
   <g id="line2d_30">
    <path d="M 73.832727 194.027328 
L 90.065455 214.104368 
L 106.298182 208.589337 
L 122.530909 248.179115 
L 138.763636 266.040403 
L 154.996364 254.654243 
L 171.229091 255.011492 
L 187.461818 242.721076 
L 203.694545 266.946716 
L 219.927273 260.02671 
L 236.16 257.526176 
L 252.392727 266.102517 
L 268.625455 226.971865 
L 284.858182 215.034151 
L 301.090909 261.646328 
L 317.323636 256.041694 
L 333.556364 284.16637 
L 349.789091 279.324677 
L 366.021818 267.895168 
L 382.254545 238.962754 
L 398.487273 271.783287 
" clip-path="url(#pe57a15872e)" style="fill: none; stroke: #31688e; stroke-opacity: 0.5; stroke-width: 1.5; stroke-linecap: square"/>
   </g>
   <g id="line2d_31">
    <path d="M 73.832727 198.447858 
L 90.065455 219.72226 
L 106.298182 231.141534 
L 122.530909 133.511708 
L 138.763636 198.452142 
L 154.996364 236.188475 
L 171.229091 195.636614 
L 187.461818 238.457014 
L 203.694545 230.51722 
L 219.927273 163.921767 
L 236.16 159.774452 
L 252.392727 199.028236 
L 268.625455 131.699549 
L 284.858182 215.0652 
L 301.090909 195.865582 
L 317.323636 165.815303 
L 333.556364 186.496322 
L 349.789091 179.099846 
L 366.021818 174.663192 
L 382.254545 167.551997 
L 398.487273 182.675081 
" clip-path="url(#pe57a15872e)" style="fill: none; stroke: #31688e; stroke-opacity: 0.5; stroke-width: 1.5; stroke-linecap: square"/>
   </g>
   <g id="line2d_32">
    <path d="M 73.832727 230.459649 
L 90.065455 266.582555 
L 106.298182 267.64744 
L 122.530909 205.502784 
L 138.763636 249.801851 
L 154.996364 275.369858 
L 171.229091 262.800242 
L 187.461818 277.752324 
L 203.694545 277.009587 
L 219.927273 247.168436 
L 236.16 249.154096 
L 252.392727 260.12833 
L 268.625455 245.896745 
L 284.858182 262.37575 
L 301.090909 249.848025 
L 317.323636 251.135906 
L 333.556364 256.924067 
L 349.789091 250.851234 
L 366.021818 250.655116 
L 382.254545 231.909675 
L 398.487273 262.613258 
" clip-path="url(#pe57a15872e)" style="fill: none; stroke: #31688e; stroke-opacity: 0.5; stroke-width: 1.5; stroke-linecap: square"/>
   </g>
   <g id="line2d_33">
    <path d="M 73.832727 273.257372 
L 90.065455 288.130094 
L 106.298182 276.877401 
L 122.530909 283.040299 
L 138.763636 290.156777 
L 154.996364 266.618827 
L 171.229091 281.084587 
L 187.461818 242.778692 
L 203.694545 251.552481 
L 219.927273 241.659763 
L 236.16 228.806233 
L 252.392727 227.590767 
L 268.625455 243.154011 
L 284.858182 223.395196 
L 301.090909 265.010453 
L 317.323636 226.022742 
L 333.556364 241.255287 
L 349.789091 260.267102 
L 366.021818 259.234603 
L 382.254545 219.265634 
L 398.487273 191.934011 
" clip-path="url(#pe57a15872e)" style="fill: none; stroke: #31688e; stroke-opacity: 0.5; stroke-width: 1.5; stroke-linecap: square"/>
   </g>
   <g id="line2d_34">
    <path d="M 73.832727 238.608428 
L 90.065455 266.429571 
L 106.298182 258.594322 
L 122.530909 215.772671 
L 138.763636 261.052303 
L 154.996364 247.567754 
L 171.229091 268.500323 
L 187.461818 236.751913 
L 203.694545 264.668685 
L 219.927273 227.820622 
L 236.16 225.91365 
L 252.392727 238.40875 
L 268.625455 205.495714 
L 284.858182 219.463417 
L 301.090909 233.51699 
L 317.323636 200.429353 
L 333.556364 236.1122 
L 349.789091 253.100032 
L 366.021818 232.79789 
L 382.254545 212.163874 
L 398.487273 235.942368 
" clip-path="url(#pe57a15872e)" style="fill: none; stroke: #31688e; stroke-opacity: 0.5; stroke-width: 1.5; stroke-linecap: square"/>
   </g>
   <g id="line2d_35">
    <path d="M 73.832727 244.729113 
L 90.065455 217.721687 
L 106.298182 234.551006 
L 122.530909 258.456652 
L 138.763636 230.245791 
L 154.996364 252.835671 
L 171.229091 279.916029 
L 187.461818 274.708213 
L 203.694545 228.671407 
L 219.927273 277.27584 
L 236.16 256.550247 
L 252.392727 267.326481 
L 268.625455 248.880943 
L 284.858182 235.522994 
L 301.090909 235.404041 
L 317.323636 256.002296 
L 333.556364 247.022936 
L 349.789091 271.403303 
L 366.021818 277.615873 
L 382.254545 253.431866 
L 398.487273 249.321227 
" clip-path="url(#pe57a15872e)" style="fill: none; stroke: #31688e; stroke-opacity: 0.5; stroke-width: 1.5; stroke-linecap: square"/>
   </g>
   <g id="line2d_36">
    <path d="M 73.832727 283.430817 
L 90.065455 286.903252 
L 106.298182 281.230219 
L 122.530909 292.369091 
L 138.763636 289.176578 
L 154.996364 286.538177 
L 171.229091 213.635689 
L 187.461818 220.557635 
L 203.694545 236.347345 
L 219.927273 260.29109 
L 236.16 235.262649 
L 252.392727 251.540586 
L 268.625455 247.240042 
L 284.858182 239.062441 
L 301.090909 248.399518 
L 317.323636 256.608613 
L 333.556364 230.207174 
L 349.789091 249.611492 
L 366.021818 256.876005 
L 382.254545 255.920099 
L 398.487273 242.207401 
" clip-path="url(#pe57a15872e)" style="fill: none; stroke: #31688e; stroke-opacity: 0.5; stroke-width: 1.5; stroke-linecap: square"/>
   </g>
   <g id="line2d_37">
    <path d="M 73.832727 229.776259 
L 90.065455 224.741225 
L 106.298182 229.778751 
L 122.530909 214.794047 
L 138.763636 223.655207 
L 154.996364 228.098964 
L 171.229091 221.991537 
L 187.461818 214.681914 
L 203.694545 231.962617 
L 219.927273 225.431537 
L 236.16 198.422709 
L 252.392727 200.446034 
L 268.625455 215.703403 
L 284.858182 207.916699 
L 301.090909 204.849215 
L 317.323636 206.483537 
L 333.556364 218.159775 
L 349.789091 181.061477 
L 366.021818 200.07145 
L 382.254545 224.876026 
L 398.487273 201.1922 
" clip-path="url(#pe57a15872e)" style="fill: none; stroke: #31688e; stroke-opacity: 0.5; stroke-width: 1.5; stroke-linecap: square"/>
   </g>
   <g id="line2d_38">
    <path d="M 73.832727 266.639392 
L 90.065455 262.584331 
L 106.298182 265.877842 
L 122.530909 280.441997 
L 138.763636 270.444715 
L 154.996364 252.844709 
L 171.229091 280.091152 
L 187.461818 272.368632 
L 203.694545 272.449923 
L 219.927273 257.271296 
L 236.16 227.231471 
L 252.392727 244.378768 
L 268.625455 246.111021 
L 284.858182 253.867967 
L 301.090909 251.560297 
L 317.323636 268.5362 
L 333.556364 242.676031 
L 349.789091 262.27469 
L 366.021818 254.857609 
L 382.254545 244.273203 
L 398.487273 207.934574 
" clip-path="url(#pe57a15872e)" style="fill: none; stroke: #31688e; stroke-opacity: 0.5; stroke-width: 1.5; stroke-linecap: square"/>
   </g>
   <g id="line2d_39">
    <path d="M 73.832727 208.477097 
L 90.065455 135.576706 
L 106.298182 122.529475 
L 122.530909 237.481678 
L 138.763636 204.446251 
L 154.996364 240.049171 
L 171.229091 246.663481 
L 187.461818 277.257732 
L 203.694545 269.460098 
L 219.927273 259.868274 
L 236.16 256.569146 
L 252.392727 268.799983 
L 268.625455 250.4451 
L 284.858182 244.282998 
L 301.090909 210.197344 
L 317.323636 243.380271 
L 333.556364 247.742538 
L 349.789091 228.580442 
L 366.021818 240.281797 
L 382.254545 240.701776 
L 398.487273 239.312447 
" clip-path="url(#pe57a15872e)" style="fill: none; stroke: #31688e; stroke-opacity: 0.5; stroke-width: 1.5; stroke-linecap: square"/>
   </g>
   <g id="line2d_40">
    <path d="M 73.832727 214.471089 
L 90.065455 214.446154 
L 106.298182 210.783487 
L 122.530909 240.692309 
L 138.763636 236.930358 
L 154.996364 272.585366 
L 171.229091 255.788354 
L 187.461818 259.5719 
L 203.694545 252.943651 
L 219.927273 247.028278 
L 236.16 238.090161 
L 252.392727 218.453265 
L 268.625455 249.51772 
L 284.858182 207.640863 
L 301.090909 217.447747 
L 317.323636 232.576066 
L 333.556364 263.258471 
L 349.789091 221.047503 
L 366.021818 192.617145 
L 382.254545 259.559893 
L 398.487273 254.014328 
" clip-path="url(#pe57a15872e)" style="fill: none; stroke: #31688e; stroke-opacity: 0.5; stroke-width: 1.5; stroke-linecap: square"/>
   </g>
   <g id="line2d_41">
    <path d="M 73.832727 220.028924 
L 90.065455 229.916478 
L 106.298182 178.594094 
L 122.530909 260.563721 
L 138.763636 261.691653 
L 154.996364 246.70941 
L 171.229091 251.524031 
L 187.461818 262.641363 
L 203.694545 281.534453 
L 219.927273 226.404905 
L 236.16 266.964683 
L 252.392727 271.240422 
L 268.625455 281.089196 
L 284.858182 291.426697 
L 301.090909 264.646166 
L 317.323636 288.783189 
L 333.556364 253.346188 
L 349.789091 278.448681 
L 366.021818 295.436593 
L 382.254545 267.619186 
L 398.487273 279.792871 
" clip-path="url(#pe57a15872e)" style="fill: none; stroke: #31688e; stroke-opacity: 0.5; stroke-width: 1.5; stroke-linecap: square"/>
   </g>
   <g id="line2d_42">
    <path d="M 73.832727 229.429087 
L 90.065455 247.987606 
L 106.298182 187.165693 
L 122.530909 249.123664 
L 138.763636 275.25911 
L 154.996364 257.440202 
L 171.229091 248.051636 
L 187.461818 239.437829 
L 203.694545 245.394744 
L 219.927273 187.324222 
L 236.16 279.304106 
L 252.392727 282.686034 
L 268.625455 281.163976 
L 284.858182 274.489131 
L 301.090909 276.676402 
L 317.323636 241.119386 
L 333.556364 233.17582 
L 349.789091 230.82173 
L 366.021818 201.338938 
L 382.254545 295.488 
L 398.487273 281.605916 
" clip-path="url(#pe57a15872e)" style="fill: none; stroke: #31688e; stroke-opacity: 0.5; stroke-width: 1.5; stroke-linecap: square"/>
   </g>
   <g id="line2d_43">
    <path d="M 73.832727 211.334045 
L 90.065455 203.057586 
L 106.298182 198.027182 
L 122.530909 212.753205 
L 138.763636 191.744554 
L 154.996364 187.073601 
L 171.229091 205.28654 
L 187.461818 218.072122 
L 203.694545 213.676139 
L 219.927273 197.891251 
L 236.16 238.178729 
L 252.392727 212.962583 
L 268.625455 181.878852 
L 284.858182 196.418507 
L 301.090909 195.292617 
L 317.323636 197.212799 
L 333.556364 215.222307 
L 349.789091 224.132764 
L 366.021818 212.509755 
L 382.254545 230.120311 
L 398.487273 192.172584 
" clip-path="url(#pe57a15872e)" style="fill: none; stroke: #31688e; stroke-opacity: 0.5; stroke-width: 1.5; stroke-linecap: square"/>
   </g>
   <g id="line2d_44">
    <path d="M 73.832727 269.675972 
L 90.065455 252.67318 
L 106.298182 274.043836 
L 122.530909 277.676848 
L 138.763636 250.972 
L 154.996364 241.261493 
L 171.229091 220.635077 
L 187.461818 240.159989 
L 203.694545 275.760245 
L 219.927273 237.511505 
L 236.16 250.021531 
L 252.392727 225.212537 
L 268.625455 234.795699 
L 284.858182 251.268501 
L 301.090909 259.460383 
L 317.323636 263.43301 
L 333.556364 253.543933 
L 349.789091 254.005196 
L 366.021818 271.333438 
L 382.254545 250.625863 
L 398.487273 227.01114 
" clip-path="url(#pe57a15872e)" style="fill: none; stroke: #31688e; stroke-opacity: 0.5; stroke-width: 1.5; stroke-linecap: square"/>
   </g>
   <g id="line2d_45">
    <path d="M 73.832727 252.778604 
L 90.065455 232.65059 
L 106.298182 241.230054 
L 122.530909 267.789696 
L 138.763636 235.826933 
L 154.996364 220.069312 
L 171.229091 197.991515 
L 187.461818 251.402892 
L 203.694545 253.272598 
L 219.927273 220.485393 
L 236.16 187.369508 
L 252.392727 188.699797 
L 268.625455 199.679911 
L 284.858182 263.094578 
L 301.090909 242.373544 
L 317.323636 249.223505 
L 333.556364 222.817419 
L 349.789091 228.241075 
L 366.021818 230.639286 
L 382.254545 217.169391 
L 398.487273 217.286456 
" clip-path="url(#pe57a15872e)" style="fill: none; stroke: #31688e; stroke-opacity: 0.5; stroke-width: 1.5; stroke-linecap: square"/>
   </g>
   <g id="line2d_46">
    <path d="M 73.832727 202.661279 
L 90.065455 223.05061 
L 106.298182 236.676158 
L 122.530909 175.861512 
L 138.763636 228.419938 
L 154.996364 211.170035 
L 171.229091 230.739883 
L 187.461818 202.38801 
L 203.694545 199.485957 
L 219.927273 219.166985 
L 236.16 232.948747 
L 252.392727 227.141751 
L 268.625455 191.925112 
L 284.858182 121.960572 
L 301.090909 184.273012 
L 317.323636 185.973903 
L 333.556364 198.662497 
L 349.789091 214.508701 
L 366.021818 213.165141 
L 382.254545 163.92829 
L 398.487273 166.273751 
" clip-path="url(#pe57a15872e)" style="fill: none; stroke: #31688e; stroke-opacity: 0.5; stroke-width: 1.5; stroke-linecap: square"/>
   </g>
   <g id="line2d_47">
    <path d="M 73.832727 262.470211 
L 90.065455 248.590198 
L 106.298182 232.132846 
L 122.530909 270.17279 
L 138.763636 248.73064 
L 154.996364 204.492644 
L 171.229091 249.850092 
L 187.461818 228.844776 
L 203.694545 206.575644 
L 219.927273 270.136181 
L 236.16 272.096623 
L 252.392727 288.243172 
L 268.625455 285.863043 
L 284.858182 272.264708 
L 301.090909 222.594409 
L 317.323636 283.935418 
L 333.556364 271.191761 
L 349.789091 256.798871 
L 366.021818 270.619946 
L 382.254545 279.290429 
L 398.487273 281.596066 
" clip-path="url(#pe57a15872e)" style="fill: none; stroke: #31688e; stroke-opacity: 0.5; stroke-width: 1.5; stroke-linecap: square"/>
   </g>
   <g id="line2d_48">
    <path d="M 73.832727 199.815917 
L 90.065455 224.643986 
L 106.298182 234.115868 
L 122.530909 205.692949 
L 138.763636 268.568054 
L 154.996364 239.292537 
L 171.229091 252.921895 
L 187.461818 255.089763 
L 203.694545 266.301016 
L 219.927273 275.265605 
L 236.16 246.398505 
L 252.392727 266.591743 
L 268.625455 273.870096 
L 284.858182 231.418298 
L 301.090909 263.946102 
L 317.323636 243.619296 
L 333.556364 260.555149 
L 349.789091 235.771076 
L 366.021818 239.531205 
L 382.254545 269.789745 
L 398.487273 276.785765 
" clip-path="url(#pe57a15872e)" style="fill: none; stroke: #31688e; stroke-opacity: 0.5; stroke-width: 1.5; stroke-linecap: square"/>
   </g>
   <g id="line2d_49">
    <path d="M 73.832727 211.883287 
L 90.065455 214.526574 
L 106.298182 202.129259 
L 122.530909 222.801665 
L 138.763636 215.379475 
L 154.996364 203.815469 
L 171.229091 208.322227 
L 187.461818 214.019695 
L 203.694545 196.481891 
L 219.927273 193.949232 
L 236.16 185.400136 
L 252.392727 214.940497 
L 268.625455 203.566047 
L 284.858182 206.877457 
L 301.090909 209.515031 
L 317.323636 221.455178 
L 333.556364 213.567987 
L 349.789091 212.02375 
L 366.021818 217.873509 
L 382.254545 214.885521 
L 398.487273 208.510394 
" clip-path="url(#pe57a15872e)" style="fill: none; stroke: #31688e; stroke-opacity: 0.5; stroke-width: 1.5; stroke-linecap: square"/>
   </g>
   <g id="line2d_50">
    <path d="M 73.832727 254.865342 
L 90.065455 269.878841 
L 106.298182 277.290337 
L 122.530909 263.6048 
L 138.763636 267.158078 
L 154.996364 265.872528 
L 171.229091 245.977421 
L 187.461818 246.932845 
L 203.694545 244.529911 
L 219.927273 270.959317 
L 236.16 276.232893 
L 252.392727 286.331721 
L 268.625455 293.218914 
L 284.858182 276.526961 
L 301.090909 289.787312 
L 317.323636 269.973774 
L 333.556364 262.361806 
L 349.789091 280.367643 
L 366.021818 281.298146 
L 382.254545 292.506178 
L 398.487273 261.4048 
" clip-path="url(#pe57a15872e)" style="fill: none; stroke: #31688e; stroke-opacity: 0.5; stroke-width: 1.5; stroke-linecap: square"/>
   </g>
   <g id="line2d_51">
    <path d="M 73.832727 278.941492 
L 90.065455 274.586138 
L 106.298182 263.438104 
L 122.530909 278.745411 
L 138.763636 253.668182 
L 154.996364 257.835479 
L 171.229091 271.1636 
L 187.461818 261.265428 
L 203.694545 258.566718 
L 219.927273 267.653255 
L 236.16 232.453452 
L 252.392727 271.565501 
L 268.625455 240.199041 
L 284.858182 248.936644 
L 301.090909 249.230684 
L 317.323636 260.902981 
L 333.556364 261.176827 
L 349.789091 248.058731 
L 366.021818 254.18709 
L 382.254545 262.268275 
L 398.487273 241.640651 
" clip-path="url(#pe57a15872e)" style="fill: none; stroke: #31688e; stroke-opacity: 0.5; stroke-width: 1.5; stroke-linecap: square"/>
   </g>
   <g id="line2d_52">
    <path d="M 73.832727 234.324187 
L 90.065455 226.947577 
L 106.298182 232.669422 
L 122.530909 221.509487 
L 138.763636 255.982949 
L 154.996364 233.633616 
L 171.229091 245.163743 
L 187.461818 188.263165 
L 203.694545 247.721002 
L 219.927273 164.828207 
L 236.16 151.150037 
L 252.392727 163.079501 
L 268.625455 205.250314 
L 284.858182 190.712899 
L 301.090909 207.409679 
L 317.323636 194.354655 
L 333.556364 215.478749 
L 349.789091 202.082137 
L 366.021818 202.06115 
L 382.254545 192.936342 
L 398.487273 188.411886 
" clip-path="url(#pe57a15872e)" style="fill: none; stroke: #31688e; stroke-opacity: 0.5; stroke-width: 1.5; stroke-linecap: square"/>
   </g>
   <g id="line2d_53">
    <path d="M 73.832727 263.049009 
L 90.065455 266.143571 
L 106.298182 272.011146 
L 122.530909 275.141865 
L 138.763636 288.159138 
L 154.996364 266.269189 
L 171.229091 268.316636 
L 187.461818 273.913052 
L 203.694545 272.432997 
L 219.927273 205.170024 
L 236.16 246.710494 
L 252.392727 242.46577 
L 268.625455 232.356038 
L 284.858182 250.553004 
L 301.090909 266.890813 
L 317.323636 255.002919 
L 333.556364 270.168463 
L 349.789091 255.771382 
L 366.021818 279.039952 
L 382.254545 237.24987 
L 398.487273 228.10562 
" clip-path="url(#pe57a15872e)" style="fill: none; stroke: #31688e; stroke-opacity: 0.5; stroke-width: 1.5; stroke-linecap: square"/>
   </g>
   <g id="line2d_54">
    <path d="M 73.832727 276.444859 
L 90.065455 277.581717 
L 106.298182 276.4119 
L 122.530909 278.558593 
L 138.763636 276.975532 
L 154.996364 264.88924 
L 171.229091 256.520993 
L 187.461818 275.200248 
L 203.694545 239.660736 
L 219.927273 223.991471 
L 236.16 266.434075 
L 252.392727 258.807679 
L 268.625455 250.092642 
L 284.858182 218.848063 
L 301.090909 273.365233 
L 317.323636 271.084337 
L 333.556364 275.567457 
L 349.789091 272.823362 
L 366.021818 265.926572 
L 382.254545 265.474891 
L 398.487273 249.372635 
" clip-path="url(#pe57a15872e)" style="fill: none; stroke: #31688e; stroke-opacity: 0.5; stroke-width: 1.5; stroke-linecap: square"/>
   </g>
   <g id="line2d_55">
    <path d="M 73.832727 229.335218 
L 90.065455 195.145541 
L 106.298182 215.569007 
L 122.530909 183.561821 
L 138.763636 197.055181 
L 154.996364 186.837811 
L 171.229091 165.67817 
L 187.461818 196.562307 
L 203.694545 210.439335 
L 219.927273 162.873925 
L 236.16 200.352164 
L 252.392727 192.281578 
L 268.625455 175.258768 
L 284.858182 171.806613 
L 301.090909 167.041104 
L 317.323636 182.568662 
L 333.556364 210.071486 
L 349.789091 192.574263 
L 366.021818 196.865813 
L 382.254545 189.268186 
L 398.487273 183.319225 
" clip-path="url(#pe57a15872e)" style="fill: none; stroke: #31688e; stroke-opacity: 0.5; stroke-width: 1.5; stroke-linecap: square"/>
   </g>
   <g id="line2d_56">
    <path d="M 73.832727 245.11866 
L 90.065455 251.037356 
L 106.298182 260.019691 
L 122.530909 276.590642 
L 138.763636 281.510163 
L 154.996364 280.328543 
L 171.229091 251.902024 
L 187.461818 246.443736 
L 203.694545 286.697112 
L 219.927273 240.877374 
L 236.16 240.756557 
L 252.392727 255.07702 
L 268.625455 255.205938 
L 284.858182 256.968526 
L 301.090909 254.70621 
L 317.323636 241.47163 
L 333.556364 219.579911 
L 349.789091 250.686581 
L 366.021818 239.462143 
L 382.254545 230.627108 
L 398.487273 263.184531 
" clip-path="url(#pe57a15872e)" style="fill: none; stroke: #31688e; stroke-opacity: 0.5; stroke-width: 1.5; stroke-linecap: square"/>
   </g>
   <g id="line2d_57">
    <path d="M 73.832727 256.676243 
L 90.065455 231.738575 
L 106.298182 252.516185 
L 122.530909 255.166183 
L 138.763636 246.009617 
L 154.996364 264.368806 
L 171.229091 242.808059 
L 187.461818 238.975943 
L 203.694545 227.517346 
L 219.927273 228.814513 
L 236.16 261.918495 
L 252.392727 247.987542 
L 268.625455 261.015488 
L 284.858182 237.656396 
L 301.090909 243.371598 
L 317.323636 175.48138 
L 333.556364 235.211593 
L 349.789091 220.637743 
L 366.021818 233.176949 
L 382.254545 256.649559 
L 398.487273 235.020934 
" clip-path="url(#pe57a15872e)" style="fill: none; stroke: #31688e; stroke-opacity: 0.5; stroke-width: 1.5; stroke-linecap: square"/>
   </g>
   <g id="line2d_58">
    <path d="M 73.832727 209.126249 
L 90.065455 236.590298 
L 106.298182 224.130348 
L 122.530909 244.140078 
L 138.763636 246.341603 
L 154.996364 248.205435 
L 171.229091 219.140698 
L 187.461818 235.023983 
L 203.694545 222.174395 
L 219.927273 223.487521 
L 236.16 231.673827 
L 252.392727 251.458351 
L 268.625455 215.621674 
L 284.858182 215.431192 
L 301.090909 199.148914 
L 317.323636 224.745925 
L 333.556364 217.103286 
L 349.789091 233.523007 
L 366.021818 208.741142 
L 382.254545 215.149206 
L 398.487273 202.707245 
" clip-path="url(#pe57a15872e)" style="fill: none; stroke: #31688e; stroke-opacity: 0.5; stroke-width: 1.5; stroke-linecap: square"/>
   </g>
   <g id="line2d_59">
    <path d="M 73.832727 214.609701 
L 90.065455 242.18133 
L 106.298182 264.956289 
L 122.530909 251.488714 
L 138.763636 281.700013 
L 154.996364 287.429975 
L 171.229091 287.305282 
L 187.461818 269.991472 
L 203.694545 245.848313 
L 219.927273 260.126662 
L 236.16 260.161792 
L 252.392727 268.960527 
L 268.625455 270.415707 
L 284.858182 259.12626 
L 301.090909 260.19656 
L 317.323636 278.916577 
L 333.556364 266.032525 
L 349.789091 257.078513 
L 366.021818 251.781972 
L 382.254545 267.925674 
L 398.487273 249.40895 
" clip-path="url(#pe57a15872e)" style="fill: none; stroke: #31688e; stroke-opacity: 0.5; stroke-width: 1.5; stroke-linecap: square"/>
   </g>
   <g id="line2d_60">
    <path d="M 73.832727 202.832559 
L 90.065455 259.870452 
L 106.298182 228.899864 
L 122.530909 215.413316 
L 138.763636 268.50868 
L 154.996364 259.16116 
L 171.229091 253.730818 
L 187.461818 247.739775 
L 203.694545 256.198659 
L 219.927273 227.960828 
L 236.16 272.078617 
L 252.392727 231.816816 
L 268.625455 235.661613 
L 284.858182 192.916657 
L 301.090909 243.62536 
L 317.323636 279.600207 
L 333.556364 254.595616 
L 349.789091 252.545587 
L 366.021818 259.765697 
L 382.254545 244.519257 
L 398.487273 250.578352 
" clip-path="url(#pe57a15872e)" style="fill: none; stroke: #31688e; stroke-opacity: 0.5; stroke-width: 1.5; stroke-linecap: square"/>
   </g>
   <g id="line2d_61">
    <path d="M 73.832727 235.390932 
L 90.065455 236.610507 
L 106.298182 243.623175 
L 122.530909 190.842676 
L 138.763636 155.75944 
L 154.996364 159.82033 
L 171.229091 154.97749 
L 187.461818 114.420233 
L 203.694545 155.886987 
L 219.927273 188.679248 
L 236.16 195.334166 
L 252.392727 177.590864 
L 268.625455 196.33634 
L 284.858182 155.308046 
L 301.090909 160.528015 
L 317.323636 187.933126 
L 333.556364 200.37309 
L 349.789091 203.369363 
L 366.021818 218.363684 
L 382.254545 198.538786 
L 398.487273 165.319279 
" clip-path="url(#pe57a15872e)" style="fill: none; stroke: #31688e; stroke-opacity: 0.5; stroke-width: 1.5; stroke-linecap: square"/>
   </g>
   <g id="line2d_62">
    <path d="M 73.832727 254.049032 
L 90.065455 260.910349 
L 106.298182 258.153139 
L 122.530909 287.98483 
L 138.763636 274.997632 
L 154.996364 278.212543 
L 171.229091 248.503963 
L 187.461818 247.806458 
L 203.694545 253.676758 
L 219.927273 226.716097 
L 236.16 260.022837 
L 252.392727 260.667781 
L 268.625455 245.250605 
L 284.858182 260.268208 
L 301.090909 270.234098 
L 317.323636 243.647413 
L 333.556364 184.145901 
L 349.789091 224.080596 
L 366.021818 233.239436 
L 382.254545 232.561493 
L 398.487273 239.689353 
" clip-path="url(#pe57a15872e)" style="fill: none; stroke: #31688e; stroke-opacity: 0.5; stroke-width: 1.5; stroke-linecap: square"/>
   </g>
   <g id="line2d_63">
    <path d="M 73.832727 243.884945 
L 90.065455 220.659425 
L 106.298182 248.949636 
L 122.530909 248.847088 
L 138.763636 243.703587 
L 154.996364 275.209885 
L 171.229091 267.513177 
L 187.461818 237.149533 
L 203.694545 211.168088 
L 219.927273 218.632241 
L 236.16 225.625615 
L 252.392727 265.962295 
L 268.625455 226.173514 
L 284.858182 235.610026 
L 301.090909 247.013383 
L 317.323636 224.551287 
L 333.556364 220.449441 
L 349.789091 269.862617 
L 366.021818 228.071476 
L 382.254545 204.013765 
L 398.487273 233.763685 
" clip-path="url(#pe57a15872e)" style="fill: none; stroke: #31688e; stroke-opacity: 0.5; stroke-width: 1.5; stroke-linecap: square"/>
   </g>
   <g id="line2d_64">
    <path d="M 73.832727 266.134472 
L 90.065455 260.763866 
L 106.298182 267.485481 
L 122.530909 193.643201 
L 138.763636 192.893012 
L 154.996364 224.537163 
L 171.229091 183.582311 
L 187.461818 216.347076 
L 203.694545 192.899541 
L 219.927273 254.630924 
L 236.16 245.150516 
L 252.392727 235.257309 
L 268.625455 203.805381 
L 284.858182 223.258035 
L 301.090909 216.731021 
L 317.323636 247.047915 
L 333.556364 265.571783 
L 349.789091 260.79777 
L 366.021818 259.942821 
L 382.254545 226.617614 
L 398.487273 228.079253 
" clip-path="url(#pe57a15872e)" style="fill: none; stroke: #31688e; stroke-opacity: 0.5; stroke-width: 1.5; stroke-linecap: square"/>
   </g>
   <g id="patch_3">
    <path d="M 57.6 307.584 
L 57.6 41.472 
" style="fill: none; stroke: #000000; stroke-width: 3; stroke-linejoin: miter; stroke-linecap: square"/>
   </g>
   <g id="patch_4">
    <path d="M 414.72 307.584 
L 414.72 41.472 
" style="fill: none; stroke: #000000; stroke-width: 3; stroke-linejoin: miter; stroke-linecap: square"/>
   </g>
   <g id="patch_5">
    <path d="M 57.6 307.584 
L 414.72 307.584 
" style="fill: none; stroke: #000000; stroke-width: 3; stroke-linejoin: miter; stroke-linecap: square"/>
   </g>
   <g id="patch_6">
    <path d="M 57.6 41.472 
L 414.72 41.472 
" style="fill: none; stroke: #000000; stroke-width: 3; stroke-linejoin: miter; stroke-linecap: square"/>
   </g>
   <g id="text_14">
    <!-- Atom Type C (n=51, mean Q=9.75) -->
    <g transform="translate(40.817187 35.472) scale(0.22 -0.22)">
     <defs>
      <path id="DejaVuSans-41" d="M 2188 4044 
L 1331 1722 
L 3047 1722 
L 2188 4044 
z
M 1831 4666 
L 2547 4666 
L 4325 0 
L 3669 0 
L 3244 1197 
L 1141 1197 
L 716 0 
L 50 0 
L 1831 4666 
z
" transform="scale(0.015625)"/>
      <path id="DejaVuSans-74" d="M 1172 4494 
L 1172 3500 
L 2356 3500 
L 2356 3053 
L 1172 3053 
L 1172 1153 
Q 1172 725 1289 603 
Q 1406 481 1766 481 
L 2356 481 
L 2356 0 
L 1766 0 
Q 1100 0 847 248 
Q 594 497 594 1153 
L 594 3053 
L 172 3053 
L 172 3500 
L 594 3500 
L 594 4494 
L 1172 4494 
z
" transform="scale(0.015625)"/>
      <path id="DejaVuSans-6f" d="M 1959 3097 
Q 1497 3097 1228 2736 
Q 959 2375 959 1747 
Q 959 1119 1226 758 
Q 1494 397 1959 397 
Q 2419 397 2687 759 
Q 2956 1122 2956 1747 
Q 2956 2369 2687 2733 
Q 2419 3097 1959 3097 
z
M 1959 3584 
Q 2709 3584 3137 3096 
Q 3566 2609 3566 1747 
Q 3566 888 3137 398 
Q 2709 -91 1959 -91 
Q 1206 -91 779 398 
Q 353 888 353 1747 
Q 353 2609 779 3096 
Q 1206 3584 1959 3584 
z
" transform="scale(0.015625)"/>
      <path id="DejaVuSans-6d" d="M 3328 2828 
Q 3544 3216 3844 3400 
Q 4144 3584 4550 3584 
Q 5097 3584 5394 3201 
Q 5691 2819 5691 2113 
L 5691 0 
L 5113 0 
L 5113 2094 
Q 5113 2597 4934 2840 
Q 4756 3084 4391 3084 
Q 3944 3084 3684 2787 
Q 3425 2491 3425 1978 
L 3425 0 
L 2847 0 
L 2847 2094 
Q 2847 2600 2669 2842 
Q 2491 3084 2119 3084 
Q 1678 3084 1418 2786 
Q 1159 2488 1159 1978 
L 1159 0 
L 581 0 
L 581 3500 
L 1159 3500 
L 1159 2956 
Q 1356 3278 1631 3431 
Q 1906 3584 2284 3584 
Q 2666 3584 2933 3390 
Q 3200 3197 3328 2828 
z
" transform="scale(0.015625)"/>
      <path id="DejaVuSans-20" transform="scale(0.015625)"/>
      <path id="DejaVuSans-54" d="M -19 4666 
L 3928 4666 
L 3928 4134 
L 2272 4134 
L 2272 0 
L 1638 0 
L 1638 4134 
L -19 4134 
L -19 4666 
z
" transform="scale(0.015625)"/>
      <path id="DejaVuSans-79" d="M 2059 -325 
Q 1816 -950 1584 -1140 
Q 1353 -1331 966 -1331 
L 506 -1331 
L 506 -850 
L 844 -850 
Q 1081 -850 1212 -737 
Q 1344 -625 1503 -206 
L 1606 56 
L 191 3500 
L 800 3500 
L 1894 763 
L 2988 3500 
L 3597 3500 
L 2059 -325 
z
" transform="scale(0.015625)"/>
      <path id="DejaVuSans-70" d="M 1159 525 
L 1159 -1331 
L 581 -1331 
L 581 3500 
L 1159 3500 
L 1159 2969 
Q 1341 3281 1617 3432 
Q 1894 3584 2278 3584 
Q 2916 3584 3314 3078 
Q 3713 2572 3713 1747 
Q 3713 922 3314 415 
Q 2916 -91 2278 -91 
Q 1894 -91 1617 61 
Q 1341 213 1159 525 
z
M 3116 1747 
Q 3116 2381 2855 2742 
Q 2594 3103 2138 3103 
Q 1681 3103 1420 2742 
Q 1159 2381 1159 1747 
Q 1159 1113 1420 752 
Q 1681 391 2138 391 
Q 2594 391 2855 752 
Q 3116 1113 3116 1747 
z
" transform="scale(0.015625)"/>
      <path id="DejaVuSans-65" d="M 3597 1894 
L 3597 1613 
L 953 1613 
Q 991 1019 1311 708 
Q 1631 397 2203 397 
Q 2534 397 2845 478 
Q 3156 559 3463 722 
L 3463 178 
Q 3153 47 2828 -22 
Q 2503 -91 2169 -91 
Q 1331 -91 842 396 
Q 353 884 353 1716 
Q 353 2575 817 3079 
Q 1281 3584 2069 3584 
Q 2775 3584 3186 3129 
Q 3597 2675 3597 1894 
z
M 3022 2063 
Q 3016 2534 2758 2815 
Q 2500 3097 2075 3097 
Q 1594 3097 1305 2825 
Q 1016 2553 972 2059 
L 3022 2063 
z
" transform="scale(0.015625)"/>
      <path id="DejaVuSans-43" d="M 4122 4306 
L 4122 3641 
Q 3803 3938 3442 4084 
Q 3081 4231 2675 4231 
Q 1875 4231 1450 3742 
Q 1025 3253 1025 2328 
Q 1025 1406 1450 917 
Q 1875 428 2675 428 
Q 3081 428 3442 575 
Q 3803 722 4122 1019 
L 4122 359 
Q 3791 134 3420 21 
Q 3050 -91 2638 -91 
Q 1578 -91 968 557 
Q 359 1206 359 2328 
Q 359 3453 968 4101 
Q 1578 4750 2638 4750 
Q 3056 4750 3426 4639 
Q 3797 4528 4122 4306 
z
" transform="scale(0.015625)"/>
      <path id="DejaVuSans-28" d="M 1984 4856 
Q 1566 4138 1362 3434 
Q 1159 2731 1159 2009 
Q 1159 1288 1364 580 
Q 1569 -128 1984 -844 
L 1484 -844 
Q 1016 -109 783 600 
Q 550 1309 550 2009 
Q 550 2706 781 3412 
Q 1013 4119 1484 4856 
L 1984 4856 
z
" transform="scale(0.015625)"/>
      <path id="DejaVuSans-6e" d="M 3513 2113 
L 3513 0 
L 2938 0 
L 2938 2094 
Q 2938 2591 2744 2837 
Q 2550 3084 2163 3084 
Q 1697 3084 1428 2787 
Q 1159 2491 1159 1978 
L 1159 0 
L 581 0 
L 581 3500 
L 1159 3500 
L 1159 2956 
Q 1366 3272 1645 3428 
Q 1925 3584 2291 3584 
Q 2894 3584 3203 3211 
Q 3513 2838 3513 2113 
z
" transform="scale(0.015625)"/>
      <path id="DejaVuSans-3d" d="M 678 2906 
L 4684 2906 
L 4684 2381 
L 678 2381 
L 678 2906 
z
M 678 1631 
L 4684 1631 
L 4684 1100 
L 678 1100 
L 678 1631 
z
" transform="scale(0.015625)"/>
      <path id="DejaVuSans-2c" d="M 750 794 
L 1409 794 
L 1409 256 
L 897 -744 
L 494 -744 
L 750 256 
L 750 794 
z
" transform="scale(0.015625)"/>
      <path id="DejaVuSans-61" d="M 2194 1759 
Q 1497 1759 1228 1600 
Q 959 1441 959 1056 
Q 959 750 1161 570 
Q 1363 391 1709 391 
Q 2188 391 2477 730 
Q 2766 1069 2766 1631 
L 2766 1759 
L 2194 1759 
z
M 3341 1997 
L 3341 0 
L 2766 0 
L 2766 531 
Q 2569 213 2275 61 
Q 1981 -91 1556 -91 
Q 1019 -91 701 211 
Q 384 513 384 1019 
Q 384 1609 779 1909 
Q 1175 2209 1959 2209 
L 2766 2209 
L 2766 2266 
Q 2766 2663 2505 2880 
Q 2244 3097 1772 3097 
Q 1472 3097 1187 3025 
Q 903 2953 641 2809 
L 641 3341 
Q 956 3463 1253 3523 
Q 1550 3584 1831 3584 
Q 2591 3584 2966 3190 
Q 3341 2797 3341 1997 
z
" transform="scale(0.015625)"/>
      <path id="DejaVuSans-51" d="M 2522 4238 
Q 1834 4238 1429 3725 
Q 1025 3213 1025 2328 
Q 1025 1447 1429 934 
Q 1834 422 2522 422 
Q 3209 422 3611 934 
Q 4013 1447 4013 2328 
Q 4013 3213 3611 3725 
Q 3209 4238 2522 4238 
z
M 3406 84 
L 4238 -825 
L 3475 -825 
L 2784 -78 
Q 2681 -84 2626 -87 
Q 2572 -91 2522 -91 
Q 1538 -91 948 567 
Q 359 1225 359 2328 
Q 359 3434 948 4092 
Q 1538 4750 2522 4750 
Q 3503 4750 4090 4092 
Q 4678 3434 4678 2328 
Q 4678 1516 4351 937 
Q 4025 359 3406 84 
z
" transform="scale(0.015625)"/>
      <path id="DejaVuSans-39" d="M 703 97 
L 703 672 
Q 941 559 1184 500 
Q 1428 441 1663 441 
Q 2288 441 2617 861 
Q 2947 1281 2994 2138 
Q 2813 1869 2534 1725 
Q 2256 1581 1919 1581 
Q 1219 1581 811 2004 
Q 403 2428 403 3163 
Q 403 3881 828 4315 
Q 1253 4750 1959 4750 
Q 2769 4750 3195 4129 
Q 3622 3509 3622 2328 
Q 3622 1225 3098 567 
Q 2575 -91 1691 -91 
Q 1453 -91 1209 -44 
Q 966 3 703 97 
z
M 1959 2075 
Q 2384 2075 2632 2365 
Q 2881 2656 2881 3163 
Q 2881 3666 2632 3958 
Q 2384 4250 1959 4250 
Q 1534 4250 1286 3958 
Q 1038 3666 1038 3163 
Q 1038 2656 1286 2365 
Q 1534 2075 1959 2075 
z
" transform="scale(0.015625)"/>
      <path id="DejaVuSans-29" d="M 513 4856 
L 1013 4856 
Q 1481 4119 1714 3412 
Q 1947 2706 1947 2009 
Q 1947 1309 1714 600 
Q 1481 -109 1013 -844 
L 513 -844 
Q 928 -128 1133 580 
Q 1338 1288 1338 2009 
Q 1338 2731 1133 3434 
Q 928 4138 513 4856 
z
" transform="scale(0.015625)"/>
     </defs>
     <use xlink:href="#DejaVuSans-41"/>
     <use xlink:href="#DejaVuSans-74" transform="translate(66.658203 0)"/>
     <use xlink:href="#DejaVuSans-6f" transform="translate(105.867188 0)"/>
     <use xlink:href="#DejaVuSans-6d" transform="translate(167.048828 0)"/>
     <use xlink:href="#DejaVuSans-20" transform="translate(264.460938 0)"/>
     <use xlink:href="#DejaVuSans-54" transform="translate(296.248047 0)"/>
     <use xlink:href="#DejaVuSans-79" transform="translate(341.707031 0)"/>
     <use xlink:href="#DejaVuSans-70" transform="translate(400.886719 0)"/>
     <use xlink:href="#DejaVuSans-65" transform="translate(464.363281 0)"/>
     <use xlink:href="#DejaVuSans-20" transform="translate(525.886719 0)"/>
     <use xlink:href="#DejaVuSans-43" transform="translate(557.673828 0)"/>
     <use xlink:href="#DejaVuSans-20" transform="translate(627.498047 0)"/>
     <use xlink:href="#DejaVuSans-28" transform="translate(659.285156 0)"/>
     <use xlink:href="#DejaVuSans-6e" transform="translate(698.298828 0)"/>
     <use xlink:href="#DejaVuSans-3d" transform="translate(761.677734 0)"/>
     <use xlink:href="#DejaVuSans-35" transform="translate(845.466797 0)"/>
     <use xlink:href="#DejaVuSans-31" transform="translate(909.089844 0)"/>
     <use xlink:href="#DejaVuSans-2c" transform="translate(972.712891 0)"/>
     <use xlink:href="#DejaVuSans-20" transform="translate(1004.5 0)"/>
     <use xlink:href="#DejaVuSans-6d" transform="translate(1036.287109 0)"/>
     <use xlink:href="#DejaVuSans-65" transform="translate(1133.699219 0)"/>
     <use xlink:href="#DejaVuSans-61" transform="translate(1195.222656 0)"/>
     <use xlink:href="#DejaVuSans-6e" transform="translate(1256.501953 0)"/>
     <use xlink:href="#DejaVuSans-20" transform="translate(1319.880859 0)"/>
     <use xlink:href="#DejaVuSans-51" transform="translate(1351.667969 0)"/>
     <use xlink:href="#DejaVuSans-3d" transform="translate(1430.378906 0)"/>
     <use xlink:href="#DejaVuSans-39" transform="translate(1514.167969 0)"/>
     <use xlink:href="#DejaVuSans-2e" transform="translate(1577.791016 0)"/>
     <use xlink:href="#DejaVuSans-37" transform="translate(1609.578125 0)"/>
     <use xlink:href="#DejaVuSans-35" transform="translate(1673.201172 0)"/>
     <use xlink:href="#DejaVuSans-29" transform="translate(1736.824219 0)"/>
    </g>
   </g>
  </g>
 </g>
 <defs>
  <clipPath id="pe57a15872e">
   <rect x="57.6" y="41.472" width="357.12" height="266.112"/>
  </clipPath>
 </defs>
</svg>
