<?xml version="1.0" encoding="utf-8" standalone="no"?>
<!DOCTYPE svg PUBLIC "-//W3C//DTD SVG 1.1//EN"
  "http://www.w3.org/Graphics/SVG/1.1/DTD/svg11.dtd">
<svg xmlns:xlink="http://www.w3.org/1999/xlink" width="460.8pt" height="345.6pt" viewBox="0 0 460.8 345.6" xmlns="http://www.w3.org/2000/svg" version="1.1">
 <metadata>
  <rdf:RDF xmlns:dc="http://purl.org/dc/elements/1.1/" xmlns:cc="http://creativecommons.org/ns#" xmlns:rdf="http://www.w3.org/1999/02/22-rdf-syntax-ns#">
   <cc:Work>
    <dc:type rdf:resource="http://purl.org/dc/dcmitype/StillImage"/>
    <dc:date>2025-12-10T13:55:29.130207</dc:date>
    <dc:format>image/svg+xml</dc:format>
    <dc:creator>
     <cc:Agent>
      <dc:title>Matplotlib v3.10.3, https://matplotlib.org/</dc:title>
     </cc:Agent>
    </dc:creator>
   </cc:Work>
  </rdf:RDF>
 </metadata>
 <defs>
  <style type="text/css">*{stroke-linejoin: round; stroke-linecap: butt}</style>
 </defs>
 <g id="figure_1">
  <g id="patch_1">
   <path d="M 0 345.6 
L 460.8 345.6 
L 460.8 0 
L 0 0 
z
" style="fill: #ffffff"/>
  </g>
  <g id="axes_1">
   <g id="patch_2">
    <path d="M 57.6 307.584 
L 414.72 307.584 
L 414.72 41.472 
L 57.6 41.472 
z
" style="fill: #ffffff"/>
   </g>
   <g id="matplotlib.axis_1">
    <g id="xtick_1">
     <g id="line2d_1">
      <defs>
       <path id="m691f512d61" d="M 0 0 
L 0 3.5 
" style="stroke: #000000; stroke-width: 0.8"/>
      </defs>
      <g>
       <use xlink:href="#m691f512d61" x="73.832727" y="307.584" style="stroke: #000000; stroke-width: 0.8"/>
      </g>
     </g>
     <g id="text_1">
      <!-- 0 -->
      <g transform="translate(69.060852 325.981656) scale(0.15 -0.15)">
       <defs>
        <path id="DejaVuSans-30" d="M 2034 4250 
Q 1547 4250 1301 3770 
Q 1056 3291 1056 2328 
Q 1056 1369 1301 889 
Q 1547 409 2034 409 
Q 2525 409 2770 889 
Q 3016 1369 3016 2328 
Q 3016 3291 2770 3770 
Q 2525 4250 2034 4250 
z
M 2034 4750 
Q 2819 4750 3233 4129 
Q 3647 3509 3647 2328 
Q 3647 1150 3233 529 
Q 2819 -91 2034 -91 
Q 1250 -91 836 529 
Q 422 1150 422 2328 
Q 422 3509 836 4129 
Q 1250 4750 2034 4750 
z
" transform="scale(0.015625)"/>
       </defs>
       <use xlink:href="#DejaVuSans-30"/>
      </g>
     </g>
    </g>
    <g id="xtick_2">
     <g id="line2d_2">
      <g>
       <use xlink:href="#m691f512d61" x="154.996364" y="307.584" style="stroke: #000000; stroke-width: 0.8"/>
      </g>
     </g>
     <g id="text_2">
      <!-- 5 -->
      <g transform="translate(150.224489 325.981656) scale(0.15 -0.15)">
       <defs>
        <path id="DejaVuSans-35" d="M 691 4666 
L 3169 4666 
L 3169 4134 
L 1269 4134 
L 1269 2991 
Q 1406 3038 1543 3061 
Q 1681 3084 1819 3084 
Q 2600 3084 3056 2656 
Q 3513 2228 3513 1497 
Q 3513 744 3044 326 
Q 2575 -91 1722 -91 
Q 1428 -91 1123 -41 
Q 819 9 494 109 
L 494 744 
Q 775 591 1075 516 
Q 1375 441 1709 441 
Q 2250 441 2565 725 
Q 2881 1009 2881 1497 
Q 2881 1984 2565 2268 
Q 2250 2553 1709 2553 
Q 1456 2553 1204 2497 
Q 953 2441 691 2322 
L 691 4666 
z
" transform="scale(0.015625)"/>
       </defs>
       <use xlink:href="#DejaVuSans-35"/>
      </g>
     </g>
    </g>
    <g id="xtick_3">
     <g id="line2d_3">
      <g>
       <use xlink:href="#m691f512d61" x="236.16" y="307.584" style="stroke: #000000; stroke-width: 0.8"/>
      </g>
     </g>
     <g id="text_3">
      <!-- 10 -->
      <g transform="translate(226.61625 325.981656) scale(0.15 -0.15)">
       <defs>
        <path id="DejaVuSans-31" d="M 794 531 
L 1825 531 
L 1825 4091 
L 703 3866 
L 703 4441 
L 1819 4666 
L 2450 4666 
L 2450 531 
L 3481 531 
L 3481 0 
L 794 0 
L 794 531 
z
" transform="scale(0.015625)"/>
       </defs>
       <use xlink:href="#DejaVuSans-31"/>
       <use xlink:href="#DejaVuSans-30" transform="translate(63.623047 0)"/>
      </g>
     </g>
    </g>
    <g id="xtick_4">
     <g id="line2d_4">
      <g>
       <use xlink:href="#m691f512d61" x="317.323636" y="307.584" style="stroke: #000000; stroke-width: 0.8"/>
      </g>
     </g>
     <g id="text_4">
      <!-- 15 -->
      <g transform="translate(307.779886 325.981656) scale(0.15 -0.15)">
       <use xlink:href="#DejaVuSans-31"/>
       <use xlink:href="#DejaVuSans-35" transform="translate(63.623047 0)"/>
      </g>
     </g>
    </g>
    <g id="xtick_5">
     <g id="line2d_5">
      <g>
       <use xlink:href="#m691f512d61" x="398.487273" y="307.584" style="stroke: #000000; stroke-width: 0.8"/>
      </g>
     </g>
     <g id="text_5">
      <!-- 20 -->
      <g transform="translate(388.943523 325.981656) scale(0.15 -0.15)">
       <defs>
        <path id="DejaVuSans-32" d="M 1228 531 
L 3431 531 
L 3431 0 
L 469 0 
L 469 531 
Q 828 903 1448 1529 
Q 2069 2156 2228 2338 
Q 2531 2678 2651 2914 
Q 2772 3150 2772 3378 
Q 2772 3750 2511 3984 
Q 2250 4219 1831 4219 
Q 1534 4219 1204 4116 
Q 875 4013 500 3803 
L 500 4441 
Q 881 4594 1212 4672 
Q 1544 4750 1819 4750 
Q 2544 4750 2975 4387 
Q 3406 4025 3406 3419 
Q 3406 3131 3298 2873 
Q 3191 2616 2906 2266 
Q 2828 2175 2409 1742 
Q 1991 1309 1228 531 
z
" transform="scale(0.015625)"/>
       </defs>
       <use xlink:href="#DejaVuSans-32"/>
       <use xlink:href="#DejaVuSans-30" transform="translate(63.623047 0)"/>
      </g>
     </g>
    </g>
   </g>
   <g id="matplotlib.axis_2">
    <g id="ytick_1">
     <g id="line2d_6">
      <defs>
       <path id="m60e8762ffe" d="M 0 0 
L -3.5 0 
" style="stroke: #000000; stroke-width: 0.8"/>
      </defs>
      <g>
       <use xlink:href="#m60e8762ffe" x="57.6" y="305.677171" style="stroke: #000000; stroke-width: 0.8"/>
      </g>
     </g>
     <g id="text_6">
      <!-- 2.5 -->
      <g transform="translate(26.745313 311.376) scale(0.15 -0.15)">
       <defs>
        <path id="DejaVuSans-2e" d="M 684 794 
L 1344 794 
L 1344 0 
L 684 0 
L 684 794 
z
" transform="scale(0.015625)"/>
       </defs>
       <use xlink:href="#DejaVuSans-32"/>
       <use xlink:href="#DejaVuSans-2e" transform="translate(63.623047 0)"/>
       <use xlink:href="#DejaVuSans-35" transform="translate(95.410156 0)"/>
      </g>
     </g>
    </g>
    <g id="ytick_2">
     <g id="line2d_7">
      <g>
       <use xlink:href="#m60e8762ffe" x="57.6" y="270.805683" style="stroke: #000000; stroke-width: 0.8"/>
      </g>
     </g>
     <g id="text_7">
      <!-- 5.0 -->
      <g transform="translate(26.745313 276.504511) scale(0.15 -0.15)">
       <use xlink:href="#DejaVuSans-35"/>
       <use xlink:href="#DejaVuSans-2e" transform="translate(63.623047 0)"/>
       <use xlink:href="#DejaVuSans-30" transform="translate(95.410156 0)"/>
      </g>
     </g>
    </g>
    <g id="ytick_3">
     <g id="line2d_8">
      <g>
       <use xlink:href="#m60e8762ffe" x="57.6" y="235.934195" style="stroke: #000000; stroke-width: 0.8"/>
      </g>
     </g>
     <g id="text_8">
      <!-- 7.5 -->
      <g transform="translate(26.745313 241.633023) scale(0.15 -0.15)">
       <defs>
        <path id="DejaVuSans-37" d="M 525 4666 
L 3525 4666 
L 3525 4397 
L 1831 0 
L 1172 0 
L 2766 4134 
L 525 4134 
L 525 4666 
z
" transform="scale(0.015625)"/>
       </defs>
       <use xlink:href="#DejaVuSans-37"/>
       <use xlink:href="#DejaVuSans-2e" transform="translate(63.623047 0)"/>
       <use xlink:href="#DejaVuSans-35" transform="translate(95.410156 0)"/>
      </g>
     </g>
    </g>
    <g id="ytick_4">
     <g id="line2d_9">
      <g>
       <use xlink:href="#m60e8762ffe" x="57.6" y="201.062707" style="stroke: #000000; stroke-width: 0.8"/>
      </g>
     </g>
     <g id="text_9">
      <!-- 10.0 -->
      <g transform="translate(17.201563 206.761535) scale(0.15 -0.15)">
       <use xlink:href="#DejaVuSans-31"/>
       <use xlink:href="#DejaVuSans-30" transform="translate(63.623047 0)"/>
       <use xlink:href="#DejaVuSans-2e" transform="translate(127.246094 0)"/>
       <use xlink:href="#DejaVuSans-30" transform="translate(159.033203 0)"/>
      </g>
     </g>
    </g>
    <g id="ytick_5">
     <g id="line2d_10">
      <g>
       <use xlink:href="#m60e8762ffe" x="57.6" y="166.191219" style="stroke: #000000; stroke-width: 0.8"/>
      </g>
     </g>
     <g id="text_10">
      <!-- 12.5 -->
      <g transform="translate(17.201563 171.890047) scale(0.15 -0.15)">
       <use xlink:href="#DejaVuSans-31"/>
       <use xlink:href="#DejaVuSans-32" transform="translate(63.623047 0)"/>
       <use xlink:href="#DejaVuSans-2e" transform="translate(127.246094 0)"/>
       <use xlink:href="#DejaVuSans-35" transform="translate(159.033203 0)"/>
      </g>
     </g>
    </g>
    <g id="ytick_6">
     <g id="line2d_11">
      <g>
       <use xlink:href="#m60e8762ffe" x="57.6" y="131.319731" style="stroke: #000000; stroke-width: 0.8"/>
      </g>
     </g>
     <g id="text_11">
      <!-- 15.0 -->
      <g transform="translate(17.201563 137.018559) scale(0.15 -0.15)">
       <use xlink:href="#DejaVuSans-31"/>
       <use xlink:href="#DejaVuSans-35" transform="translate(63.623047 0)"/>
       <use xlink:href="#DejaVuSans-2e" transform="translate(127.246094 0)"/>
       <use xlink:href="#DejaVuSans-30" transform="translate(159.033203 0)"/>
      </g>
     </g>
    </g>
    <g id="ytick_7">
     <g id="line2d_12">
      <g>
       <use xlink:href="#m60e8762ffe" x="57.6" y="96.448243" style="stroke: #000000; stroke-width: 0.8"/>
      </g>
     </g>
     <g id="text_12">
      <!-- 17.5 -->
      <g transform="translate(17.201563 102.147071) scale(0.15 -0.15)">
       <use xlink:href="#DejaVuSans-31"/>
       <use xlink:href="#DejaVuSans-37" transform="translate(63.623047 0)"/>
       <use xlink:href="#DejaVuSans-2e" transform="translate(127.246094 0)"/>
       <use xlink:href="#DejaVuSans-35" transform="translate(159.033203 0)"/>
      </g>
     </g>
    </g>
    <g id="ytick_8">
     <g id="line2d_13">
      <g>
       <use xlink:href="#m60e8762ffe" x="57.6" y="61.576755" style="stroke: #000000; stroke-width: 0.8"/>
      </g>
     </g>
     <g id="text_13">
      <!-- 20.0 -->
      <g transform="translate(17.201563 67.275583) scale(0.15 -0.15)">
       <use xlink:href="#DejaVuSans-32"/>
       <use xlink:href="#DejaVuSans-30" transform="translate(63.623047 0)"/>
       <use xlink:href="#DejaVuSans-2e" transform="translate(127.246094 0)"/>
       <use xlink:href="#DejaVuSans-30" transform="translate(159.033203 0)"/>
      </g>
     </g>
    </g>
   </g>
   <g id="line2d_14">
    <path d="M 73.832727 176.18983 
L 90.065455 188.902322 
L 106.298182 182.530374 
L 122.530909 215.94556 
L 138.763636 202.418115 
L 154.996364 207.960991 
L 171.229091 194.093773 
L 187.461818 187.623211 
L 203.694545 179.301972 
L 219.927273 225.157548 
L 236.16 218.416487 
L 252.392727 186.007597 
L 268.625455 191.839555 
L 284.858182 213.190178 
L 301.090909 256.224653 
L 317.323636 215.489407 
L 333.556364 209.057034 
L 349.789091 197.348936 
L 366.021818 215.520055 
L 382.254545 196.30311 
L 398.487273 210.592986 
" clip-path="url(#pa9a5f3590a)" style="fill: none; stroke: #35b779; stroke-opacity: 0.5; stroke-width: 1.5; stroke-linecap: square"/>
   </g>
   <g id="line2d_15">
    <path d="M 73.832727 245.345477 
L 90.065455 204.671629 
L 106.298182 245.263464 
L 122.530909 230.036103 
L 138.763636 195.194057 
L 154.996364 167.472158 
L 171.229091 182.278822 
L 187.461818 173.020164 
L 203.694545 180.884135 
L 219.927273 189.252929 
L 236.16 131.699369 
L 252.392727 201.144748 
L 268.625455 186.004202 
L 284.858182 165.780116 
L 301.090909 130.262539 
L 317.323636 176.597026 
L 333.556364 204.8013 
L 349.789091 144.39099 
L 366.021818 210.335207 
L 382.254545 165.221361 
L 398.487273 193.319109 
" clip-path="url(#pa9a5f3590a)" style="fill: none; stroke: #35b779; stroke-opacity: 0.5; stroke-width: 1.5; stroke-linecap: square"/>
   </g>
   <g id="line2d_16">
    <path d="M 73.832727 202.410411 
L 90.065455 212.954344 
L 106.298182 160.319269 
L 122.530909 169.341572 
L 138.763636 111.804173 
L 154.996364 142.910645 
L 171.229091 174.527371 
L 187.461818 151.794559 
L 203.694545 225.694611 
L 219.927273 165.808536 
L 236.16 202.441106 
L 252.392727 230.452032 
L 268.625455 165.523504 
L 284.858182 200.016722 
L 301.090909 197.330632 
L 317.323636 242.700153 
L 333.556364 223.852973 
L 349.789091 201.951513 
L 366.021818 214.342767 
L 382.254545 219.753976 
L 398.487273 226.701983 
" clip-path="url(#pa9a5f3590a)" style="fill: none; stroke: #35b779; stroke-opacity: 0.5; stroke-width: 1.5; stroke-linecap: square"/>
   </g>
   <g id="line2d_17">
    <path d="M 73.832727 166.735008 
L 90.065455 141.629878 
L 106.298182 123.554729 
L 122.530909 204.984731 
L 138.763636 215.421252 
L 154.996364 156.163987 
L 171.229091 188.978109 
L 187.461818 199.364359 
L 203.694545 210.310217 
L 219.927273 283.284254 
L 236.16 249.313312 
L 252.392727 248.191675 
L 268.625455 236.492263 
L 284.858182 250.506169 
L 301.090909 277.357822 
L 317.323636 163.844775 
L 333.556364 255.489175 
L 349.789091 288.340186 
L 366.021818 276.136634 
L 382.254545 199.046845 
L 398.487273 233.570598 
" clip-path="url(#pa9a5f3590a)" style="fill: none; stroke: #35b779; stroke-opacity: 0.5; stroke-width: 1.5; stroke-linecap: square"/>
   </g>
   <g id="line2d_18">
    <path d="M 73.832727 242.969245 
L 90.065455 273.70098 
L 106.298182 281.346287 
L 122.530909 229.945498 
L 138.763636 237.61994 
L 154.996364 201.043594 
L 171.229091 234.20839 
L 187.461818 228.048725 
L 203.694545 198.112892 
L 219.927273 254.780449 
L 236.16 245.228106 
L 252.392727 221.52358 
L 268.625455 221.835183 
L 284.858182 246.970056 
L 301.090909 217.517436 
L 317.323636 268.998079 
L 333.556364 281.487046 
L 349.789091 261.967897 
L 366.021818 268.58006 
L 382.254545 254.371566 
L 398.487273 242.034948 
" clip-path="url(#pa9a5f3590a)" style="fill: none; stroke: #35b779; stroke-opacity: 0.5; stroke-width: 1.5; stroke-linecap: square"/>
   </g>
   <g id="line2d_19">
    <path d="M 73.832727 207.489804 
L 90.065455 213.587343 
L 106.298182 179.548725 
L 122.530909 217.844511 
L 138.763636 213.107849 
L 154.996364 246.202508 
L 171.229091 240.226255 
L 187.461818 229.674343 
L 203.694545 258.287148 
L 219.927273 175.321045 
L 236.16 135.727888 
L 252.392727 145.626077 
L 268.625455 191.899468 
L 284.858182 184.440015 
L 301.090909 224.832931 
L 317.323636 159.608155 
L 333.556364 193.536598 
L 349.789091 163.659104 
L 366.021818 216.413078 
L 382.254545 144.176198 
L 398.487273 142.583519 
" clip-path="url(#pa9a5f3590a)" style="fill: none; stroke: #35b779; stroke-opacity: 0.5; stroke-width: 1.5; stroke-linecap: square"/>
   </g>
   <g id="line2d_20">
    <path d="M 73.832727 246.862867 
L 90.065455 266.385119 
L 106.298182 267.10083 
L 122.530909 220.183445 
L 138.763636 208.634045 
L 154.996364 151.610556 
L 171.229091 201.645022 
L 187.461818 156.495669 
L 203.694545 185.526011 
L 219.927273 244.005478 
L 236.16 249.967915 
L 252.392727 276.157531 
L 268.625455 282.071571 
L 284.858182 263.960492 
L 301.090909 281.642424 
L 317.323636 273.048345 
L 333.556364 286.750699 
L 349.789091 233.712831 
L 366.021818 251.757576 
L 382.254545 278.834553 
L 398.487273 232.081857 
" clip-path="url(#pa9a5f3590a)" style="fill: none; stroke: #35b779; stroke-opacity: 0.5; stroke-width: 1.5; stroke-linecap: square"/>
   </g>
   <g id="line2d_21">
    <path d="M 73.832727 246.186055 
L 90.065455 214.417418 
L 106.298182 209.406875 
L 122.530909 243.638881 
L 138.763636 210.482878 
L 154.996364 215.93964 
L 171.229091 217.307414 
L 187.461818 235.529781 
L 203.694545 162.846154 
L 219.927273 280.460947 
L 236.16 259.937746 
L 252.392727 275.869274 
L 268.625455 263.262736 
L 284.858182 262.81406 
L 301.090909 231.598836 
L 317.323636 252.693512 
L 333.556364 273.620441 
L 349.789091 268.787851 
L 366.021818 215.84612 
L 382.254545 271.788019 
L 398.487273 257.487223 
" clip-path="url(#pa9a5f3590a)" style="fill: none; stroke: #35b779; stroke-opacity: 0.5; stroke-width: 1.5; stroke-linecap: square"/>
   </g>
   <g id="line2d_22">
    <path d="M 73.832727 257.713505 
L 90.065455 267.539824 
L 106.298182 251.688355 
L 122.530909 278.224127 
L 138.763636 269.197897 
L 154.996364 244.99074 
L 171.229091 247.447405 
L 187.461818 247.320421 
L 203.694545 289.102159 
L 219.927273 247.397605 
L 236.16 239.846615 
L 252.392727 107.961471 
L 268.625455 243.200437 
L 284.858182 262.495138 
L 301.090909 295.488 
L 317.323636 232.173357 
L 333.556364 260.033109 
L 349.789091 277.947616 
L 366.021818 233.621127 
L 382.254545 251.406164 
L 398.487273 258.470121 
" clip-path="url(#pa9a5f3590a)" style="fill: none; stroke: #35b779; stroke-opacity: 0.5; stroke-width: 1.5; stroke-linecap: square"/>
   </g>
   <g id="line2d_23">
    <path d="M 73.832727 163.402969 
L 90.065455 204.116179 
L 106.298182 215.516023 
L 122.530909 53.568 
L 138.763636 197.977062 
L 154.996364 230.228081 
L 171.229091 185.08863 
L 187.461818 209.93861 
L 203.694545 246.45476 
L 219.927273 202.148773 
L 236.16 206.51848 
L 252.392727 191.340839 
L 268.625455 166.327595 
L 284.858182 216.828457 
L 301.090909 200.884861 
L 317.323636 173.333222 
L 333.556364 198.918135 
L 349.789091 196.286969 
L 366.021818 199.611996 
L 382.254545 146.816788 
L 398.487273 215.258539 
" clip-path="url(#pa9a5f3590a)" style="fill: none; stroke: #35b779; stroke-opacity: 0.5; stroke-width: 1.5; stroke-linecap: square"/>
   </g>
   <g id="line2d_24">
    <path d="M 73.832727 193.748146 
L 90.065455 200.936433 
L 106.298182 153.723459 
L 122.530909 241.669478 
L 138.763636 226.935261 
L 154.996364 231.412838 
L 171.229091 208.084551 
L 187.461818 162.232764 
L 203.694545 214.6623 
L 219.927273 265.576489 
L 236.16 243.293186 
L 252.392727 254.078217 
L 268.625455 261.652886 
L 284.858182 219.225783 
L 301.090909 277.628769 
L 317.323636 276.008398 
L 333.556364 217.149126 
L 349.789091 221.447061 
L 366.021818 223.514521 
L 382.254545 275.151501 
L 398.487273 191.405875 
" clip-path="url(#pa9a5f3590a)" style="fill: none; stroke: #35b779; stroke-opacity: 0.5; stroke-width: 1.5; stroke-linecap: square"/>
   </g>
   <g id="line2d_25">
    <path d="M 73.832727 290.385572 
L 90.065455 272.743477 
L 106.298182 275.249274 
L 122.530909 255.137454 
L 138.763636 259.664287 
L 154.996364 258.839851 
L 171.229091 260.517829 
L 187.461818 248.260644 
L 203.694545 247.969687 
L 219.927273 225.515759 
L 236.16 209.517181 
L 252.392727 224.957181 
L 268.625455 224.046878 
L 284.858182 226.435581 
L 301.090909 253.870339 
L 317.323636 200.880355 
L 333.556364 203.303338 
L 349.789091 207.214362 
L 366.021818 205.334638 
L 382.254545 209.022927 
L 398.487273 232.202468 
" clip-path="url(#pa9a5f3590a)" style="fill: none; stroke: #35b779; stroke-opacity: 0.5; stroke-width: 1.5; stroke-linecap: square"/>
   </g>
   <g id="line2d_26">
    <path d="M 73.832727 237.874616 
L 90.065455 226.432079 
L 106.298182 236.026854 
L 122.530909 238.817197 
L 138.763636 187.232894 
L 154.996364 186.186979 
L 171.229091 248.090115 
L 187.461818 244.341471 
L 203.694545 264.571056 
L 219.927273 168.517007 
L 236.16 121.856158 
L 252.392727 247.809886 
L 268.625455 213.309207 
L 284.858182 252.265886 
L 301.090909 218.098016 
L 317.323636 216.033667 
L 333.556364 197.637233 
L 349.789091 145.603663 
L 366.021818 229.995823 
L 382.254545 169.635252 
L 398.487273 214.264707 
" clip-path="url(#pa9a5f3590a)" style="fill: none; stroke: #35b779; stroke-opacity: 0.5; stroke-width: 1.5; stroke-linecap: square"/>
   </g>
   <g id="line2d_27">
    <path d="M 73.832727 250.728915 
L 90.065455 193.70285 
L 106.298182 194.028714 
L 122.530909 245.197131 
L 138.763636 248.041774 
L 154.996364 258.4345 
L 171.229091 224.354375 
L 187.461818 264.223657 
L 203.694545 274.277852 
L 219.927273 266.200314 
L 236.16 265.485271 
L 252.392727 261.069758 
L 268.625455 264.175643 
L 284.858182 268.080578 
L 301.090909 251.443388 
L 317.323636 257.207481 
L 333.556364 265.927374 
L 349.789091 255.614823 
L 366.021818 259.386243 
L 382.254545 262.259391 
L 398.487273 249.850039 
" clip-path="url(#pa9a5f3590a)" style="fill: none; stroke: #35b779; stroke-opacity: 0.5; stroke-width: 1.5; stroke-linecap: square"/>
   </g>
   <g id="line2d_28">
    <path d="M 73.832727 182.917108 
L 90.065455 208.101804 
L 106.298182 206.155524 
L 122.530909 201.718554 
L 138.763636 215.767046 
L 154.996364 261.178284 
L 171.229091 248.959402 
L 187.461818 235.408023 
L 203.694545 245.238547 
L 219.927273 205.097112 
L 236.16 225.276678 
L 252.392727 187.965921 
L 268.625455 227.560081 
L 284.858182 175.266528 
L 301.090909 222.461665 
L 317.323636 214.758948 
L 333.556364 184.393421 
L 349.789091 236.69536 
L 366.021818 204.526457 
L 382.254545 205.473807 
L 398.487273 244.865471 
" clip-path="url(#pa9a5f3590a)" style="fill: none; stroke: #35b779; stroke-opacity: 0.5; stroke-width: 1.5; stroke-linecap: square"/>
   </g>
   <g id="line2d_29">
    <path d="M 73.832727 263.500498 
L 90.065455 270.000276 
L 106.298182 269.123615 
L 122.530909 274.830023 
L 138.763636 273.169789 
L 154.996364 278.684027 
L 171.229091 231.791362 
L 187.461818 262.923544 
L 203.694545 262.652633 
L 219.927273 252.255258 
L 236.16 256.399386 
L 252.392727 242.964016 
L 268.625455 260.610144 
L 284.858182 219.380639 
L 301.090909 233.258635 
L 317.323636 229.651192 
L 333.556364 275.763223 
L 349.789091 205.109848 
L 366.021818 198.030589 
L 382.254545 264.978268 
L 398.487273 274.920962 
" clip-path="url(#pa9a5f3590a)" style="fill: none; stroke: #35b779; stroke-opacity: 0.5; stroke-width: 1.5; stroke-linecap: square"/>
   </g>
   <g id="line2d_30">
    <path d="M 73.832727 213.397359 
L 90.065455 209.417427 
L 106.298182 216.23568 
L 122.530909 212.40367 
L 138.763636 200.353303 
L 154.996364 216.456032 
L 171.229091 216.156981 
L 187.461818 199.684724 
L 203.694545 212.144428 
L 219.927273 201.00397 
L 236.16 153.938641 
L 252.392727 183.849692 
L 268.625455 217.16049 
L 284.858182 196.260307 
L 301.090909 157.158265 
L 317.323636 192.569517 
L 333.556364 192.646299 
L 349.789091 164.596142 
L 366.021818 178.032133 
L 382.254545 209.075026 
L 398.487273 212.277181 
" clip-path="url(#pa9a5f3590a)" style="fill: none; stroke: #35b779; stroke-opacity: 0.5; stroke-width: 1.5; stroke-linecap: square"/>
   </g>
   <g id="line2d_31">
    <path d="M 73.832727 145.690152 
L 90.065455 196.181605 
L 106.298182 112.627112 
L 122.530909 200.333094 
L 138.763636 222.709992 
L 154.996364 196.041157 
L 171.229091 185.883384 
L 187.461818 211.216451 
L 203.694545 218.921765 
L 219.927273 221.005123 
L 236.16 231.975369 
L 252.392727 250.359846 
L 268.625455 243.048737 
L 284.858182 229.856016 
L 301.090909 210.228374 
L 317.323636 174.292813 
L 333.556364 205.845883 
L 349.789091 201.89413 
L 366.021818 234.111544 
L 382.254545 256.988574 
L 398.487273 257.645918 
" clip-path="url(#pa9a5f3590a)" style="fill: none; stroke: #35b779; stroke-opacity: 0.5; stroke-width: 1.5; stroke-linecap: square"/>
   </g>
   <g id="line2d_32">
    <path d="M 73.832727 271.532442 
L 90.065455 285.845052 
L 106.298182 242.912235 
L 122.530909 280.769169 
L 138.763636 282.427232 
L 154.996364 267.382771 
L 171.229091 241.01177 
L 187.461818 192.893696 
L 203.694545 249.394718 
L 219.927273 208.893541 
L 236.16 262.762678 
L 252.392727 244.555621 
L 268.625455 249.562894 
L 284.858182 250.499983 
L 301.090909 265.791717 
L 317.323636 288.572863 
L 333.556364 291.873403 
L 349.789091 283.595272 
L 366.021818 244.871326 
L 382.254545 271.644236 
L 398.487273 231.035342 
" clip-path="url(#pa9a5f3590a)" style="fill: none; stroke: #35b779; stroke-opacity: 0.5; stroke-width: 1.5; stroke-linecap: square"/>
   </g>
   <g id="line2d_33">
    <path d="M 73.832727 210.242951 
L 90.065455 179.824161 
L 106.298182 222.795582 
L 122.530909 260.07269 
L 138.763636 225.690328 
L 154.996364 208.413687 
L 171.229091 210.411363 
L 187.461818 249.732179 
L 203.694545 203.604405 
L 219.927273 235.235042 
L 236.16 202.255402 
L 252.392727 192.572125 
L 268.625455 195.58952 
L 284.858182 209.298868 
L 301.090909 213.850639 
L 317.323636 253.606239 
L 333.556364 251.438272 
L 349.789091 237.239376 
L 366.021818 220.30689 
L 382.254545 205.957314 
L 398.487273 222.137519 
" clip-path="url(#pa9a5f3590a)" style="fill: none; stroke: #35b779; stroke-opacity: 0.5; stroke-width: 1.5; stroke-linecap: square"/>
   </g>
   <g id="line2d_34">
    <path d="M 73.832727 241.443658 
L 90.065455 277.833716 
L 106.298182 259.650785 
L 122.530909 261.75472 
L 138.763636 225.839525 
L 154.996364 255.228424 
L 171.229091 229.053287 
L 187.461818 217.013035 
L 203.694545 267.359626 
L 219.927273 234.795468 
L 236.16 169.947617 
L 252.392727 198.176938 
L 268.625455 234.397114 
L 284.858182 229.370942 
L 301.090909 261.41686 
L 317.323636 253.741635 
L 333.556364 232.648209 
L 349.789091 234.141206 
L 366.021818 211.881605 
L 382.254545 224.892713 
L 398.487273 241.432325 
" clip-path="url(#pa9a5f3590a)" style="fill: none; stroke: #35b779; stroke-opacity: 0.5; stroke-width: 1.5; stroke-linecap: square"/>
   </g>
   <g id="line2d_35">
    <path d="M 73.832727 221.149769 
L 90.065455 234.390225 
L 106.298182 180.876629 
L 122.530909 256.746826 
L 138.763636 226.306724 
L 154.996364 210.140262 
L 171.229091 221.709149 
L 187.461818 219.051825 
L 203.694545 251.443431 
L 219.927273 248.790856 
L 236.16 205.926501 
L 252.392727 250.429676 
L 268.625455 215.317257 
L 284.858182 198.751367 
L 301.090909 166.56216 
L 317.323636 225.160919 
L 333.556364 211.590421 
L 349.789091 169.568592 
L 366.021818 216.100865 
L 382.254545 253.238227 
L 398.487273 213.463293 
" clip-path="url(#pa9a5f3590a)" style="fill: none; stroke: #35b779; stroke-opacity: 0.5; stroke-width: 1.5; stroke-linecap: square"/>
   </g>
   <g id="line2d_36">
    <path d="M 73.832727 282.751294 
L 90.065455 259.160782 
L 106.298182 249.660147 
L 122.530909 222.295534 
L 138.763636 216.861458 
L 154.996364 255.449183 
L 171.229091 219.173497 
L 187.461818 249.495801 
L 203.694545 266.779875 
L 219.927273 242.033851 
L 236.16 237.517458 
L 252.392727 237.059331 
L 268.625455 247.565719 
L 284.858182 263.305628 
L 301.090909 268.552751 
L 317.323636 241.687045 
L 333.556364 243.281314 
L 349.789091 266.677737 
L 366.021818 272.850467 
L 382.254545 262.249901 
L 398.487273 255.344101 
" clip-path="url(#pa9a5f3590a)" style="fill: none; stroke: #35b779; stroke-opacity: 0.5; stroke-width: 1.5; stroke-linecap: square"/>
   </g>
   <g id="line2d_37">
    <path d="M 73.832727 236.321161 
L 90.065455 233.821212 
L 106.298182 205.633792 
L 122.530909 212.553136 
L 138.763636 229.13979 
L 154.996364 211.956285 
L 171.229091 225.851043 
L 187.461818 221.12001 
L 203.694545 195.513477 
L 219.927273 217.274201 
L 236.16 230.447886 
L 252.392727 217.753466 
L 268.625455 197.238981 
L 284.858182 181.932443 
L 301.090909 184.751777 
L 317.323636 191.108136 
L 333.556364 209.865216 
L 349.789091 182.932436 
L 366.021818 205.057739 
L 382.254545 204.058658 
L 398.487273 190.17978 
" clip-path="url(#pa9a5f3590a)" style="fill: none; stroke: #35b779; stroke-opacity: 0.5; stroke-width: 1.5; stroke-linecap: square"/>
   </g>
   <g id="line2d_38">
    <path d="M 73.832727 217.905076 
L 90.065455 237.152801 
L 106.298182 242.248018 
L 122.530909 227.04587 
L 138.763636 254.375736 
L 154.996364 253.904652 
L 171.229091 229.364006 
L 187.461818 248.380325 
L 203.694545 250.215907 
L 219.927273 255.06421 
L 236.16 201.254869 
L 252.392727 247.330506 
L 268.625455 230.736772 
L 284.858182 202.325585 
L 301.090909 215.591432 
L 317.323636 211.05865 
L 333.556364 234.621641 
L 349.789091 237.777992 
L 366.021818 226.089901 
L 382.254545 247.079031 
L 398.487273 202.478842 
" clip-path="url(#pa9a5f3590a)" style="fill: none; stroke: #35b779; stroke-opacity: 0.5; stroke-width: 1.5; stroke-linecap: square"/>
   </g>
   <g id="line2d_39">
    <path d="M 73.832727 94.135471 
L 90.065455 232.620133 
L 106.298182 186.106077 
L 122.530909 195.221266 
L 138.763636 259.440442 
L 154.996364 269.058115 
L 171.229091 257.998974 
L 187.461818 230.604691 
L 203.694545 247.926671 
L 219.927273 234.731511 
L 236.16 262.374772 
L 252.392727 259.60894 
L 268.625455 247.747037 
L 284.858182 249.385704 
L 301.090909 264.866958 
L 317.323636 246.686538 
L 333.556364 249.268712 
L 349.789091 232.271033 
L 366.021818 246.509923 
L 382.254545 253.073538 
L 398.487273 264.339349 
" clip-path="url(#pa9a5f3590a)" style="fill: none; stroke: #35b779; stroke-opacity: 0.5; stroke-width: 1.5; stroke-linecap: square"/>
   </g>
   <g id="line2d_40">
    <path d="M 73.832727 262.858945 
L 90.065455 245.849214 
L 106.298182 242.585621 
L 122.530909 256.506772 
L 138.763636 227.149938 
L 154.996364 199.485554 
L 171.229091 263.634915 
L 187.461818 271.676416 
L 203.694545 217.229944 
L 219.927273 256.123561 
L 236.16 169.82387 
L 252.392727 222.20739 
L 268.625455 180.127509 
L 284.858182 279.103711 
L 301.090909 207.866469 
L 317.323636 223.446209 
L 333.556364 218.213709 
L 349.789091 217.64488 
L 366.021818 195.906518 
L 382.254545 240.91412 
L 398.487273 207.65547 
" clip-path="url(#pa9a5f3590a)" style="fill: none; stroke: #35b779; stroke-opacity: 0.5; stroke-width: 1.5; stroke-linecap: square"/>
   </g>
   <g id="line2d_41">
    <path d="M 73.832727 261.494617 
L 90.065455 216.264057 
L 106.298182 243.842629 
L 122.530909 213.471368 
L 138.763636 205.857585 
L 154.996364 202.032469 
L 171.229091 214.51918 
L 187.461818 213.023399 
L 203.694545 227.578363 
L 219.927273 252.411322 
L 236.16 263.148404 
L 252.392727 236.154009 
L 268.625455 228.093297 
L 284.858182 246.344685 
L 301.090909 257.149722 
L 317.323636 249.149348 
L 333.556364 227.483592 
L 349.789091 260.081685 
L 366.021818 260.901158 
L 382.254545 215.30994 
L 398.487273 233.903693 
" clip-path="url(#pa9a5f3590a)" style="fill: none; stroke: #35b779; stroke-opacity: 0.5; stroke-width: 1.5; stroke-linecap: square"/>
   </g>
   <g id="line2d_42">
    <path d="M 73.832727 222.216569 
L 90.065455 216.590341 
L 106.298182 208.24277 
L 122.530909 218.068448 
L 138.763636 238.410245 
L 154.996364 208.254294 
L 171.229091 180.057952 
L 187.461818 237.45373 
L 203.694545 186.692611 
L 219.927273 195.756535 
L 236.16 163.354315 
L 252.392727 162.562857 
L 268.625455 181.644727 
L 284.858182 178.596011 
L 301.090909 197.890981 
L 317.323636 175.289656 
L 333.556364 203.152177 
L 349.789091 207.080979 
L 366.021818 210.079373 
L 382.254545 161.339118 
L 398.487273 161.381597 
" clip-path="url(#pa9a5f3590a)" style="fill: none; stroke: #35b779; stroke-opacity: 0.5; stroke-width: 1.5; stroke-linecap: square"/>
   </g>
   <g id="line2d_43">
    <path d="M 73.832727 283.420996 
L 90.065455 280.882824 
L 106.298182 278.423911 
L 122.530909 254.013246 
L 138.763636 282.424078 
L 154.996364 276.013295 
L 171.229091 265.940079 
L 187.461818 278.388464 
L 203.694545 278.557596 
L 219.927273 164.015938 
L 236.16 188.150099 
L 252.392727 190.513721 
L 268.625455 244.665891 
L 284.858182 211.360637 
L 301.090909 201.239122 
L 317.323636 214.396199 
L 333.556364 274.816775 
L 349.789091 207.626504 
L 366.021818 216.544422 
L 382.254545 239.160222 
L 398.487273 205.642007 
" clip-path="url(#pa9a5f3590a)" style="fill: none; stroke: #35b779; stroke-opacity: 0.5; stroke-width: 1.5; stroke-linecap: square"/>
   </g>
   <g id="line2d_44">
    <path d="M 73.832727 233.62029 
L 90.065455 208.995469 
L 106.298182 211.700365 
L 122.530909 238.580159 
L 138.763636 215.8377 
L 154.996364 204.784056 
L 171.229091 175.366787 
L 187.461818 209.721674 
L 203.694545 183.475953 
L 219.927273 175.626131 
L 236.16 172.13104 
L 252.392727 194.944924 
L 268.625455 165.99304 
L 284.858182 169.634946 
L 301.090909 178.404215 
L 317.323636 181.170891 
L 333.556364 181.444503 
L 349.789091 191.56014 
L 366.021818 192.243668 
L 382.254545 185.618927 
L 398.487273 181.421968 
" clip-path="url(#pa9a5f3590a)" style="fill: none; stroke: #35b779; stroke-opacity: 0.5; stroke-width: 1.5; stroke-linecap: square"/>
   </g>
   <g id="line2d_45">
    <path d="M 73.832727 240.936634 
L 90.065455 242.158941 
L 106.298182 260.577151 
L 122.530909 262.701756 
L 138.763636 263.25013 
L 154.996364 246.204698 
L 171.229091 232.250075 
L 187.461818 244.561792 
L 203.694545 233.103392 
L 219.927273 197.946324 
L 236.16 236.058996 
L 252.392727 252.856396 
L 268.625455 233.369273 
L 284.858182 218.61189 
L 301.090909 229.809138 
L 317.323636 231.190153 
L 333.556364 242.113803 
L 349.789091 193.361906 
L 366.021818 210.736168 
L 382.254545 249.112542 
L 398.487273 207.139523 
" clip-path="url(#pa9a5f3590a)" style="fill: none; stroke: #35b779; stroke-opacity: 0.5; stroke-width: 1.5; stroke-linecap: square"/>
   </g>
   <g id="line2d_46">
    <path d="M 73.832727 241.796338 
L 90.065455 259.246317 
L 106.298182 249.872388 
L 122.530909 243.124937 
L 138.763636 254.919376 
L 154.996364 235.69948 
L 171.229091 238.561833 
L 187.461818 229.903622 
L 203.694545 202.81352 
L 219.927273 199.996203 
L 236.16 163.851627 
L 252.392727 199.442677 
L 268.625455 183.507394 
L 284.858182 194.234549 
L 301.090909 241.026883 
L 317.323636 216.39263 
L 333.556364 200.6911 
L 349.789091 220.047055 
L 366.021818 216.600939 
L 382.254545 205.626822 
L 398.487273 196.230049 
" clip-path="url(#pa9a5f3590a)" style="fill: none; stroke: #35b779; stroke-opacity: 0.5; stroke-width: 1.5; stroke-linecap: square"/>
   </g>
   <g id="line2d_47">
    <path d="M 73.832727 233.100388 
L 90.065455 192.686382 
L 106.298182 233.806591 
L 122.530909 218.571608 
L 138.763636 212.187535 
L 154.996364 230.536692 
L 171.229091 204.525078 
L 187.461818 226.74133 
L 203.694545 235.355096 
L 219.927273 162.085352 
L 236.16 198.371406 
L 252.392727 220.146118 
L 268.625455 168.434304 
L 284.858182 242.692983 
L 301.090909 231.778247 
L 317.323636 191.103504 
L 333.556364 238.903815 
L 349.789091 222.910893 
L 366.021818 224.439512 
L 382.254545 230.775747 
L 398.487273 191.475721 
" clip-path="url(#pa9a5f3590a)" style="fill: none; stroke: #35b779; stroke-opacity: 0.5; stroke-width: 1.5; stroke-linecap: square"/>
   </g>
   <g id="line2d_48">
    <path d="M 73.832727 268.446784 
L 90.065455 228.056574 
L 106.298182 260.967401 
L 122.530909 231.42583 
L 138.763636 263.089698 
L 154.996364 224.042413 
L 171.229091 207.783231 
L 187.461818 219.785516 
L 203.694545 177.543645 
L 219.927273 271.441061 
L 236.16 280.719697 
L 252.392727 259.080555 
L 268.625455 275.329946 
L 284.858182 200.721536 
L 301.090909 207.322713 
L 317.323636 239.042783 
L 333.556364 271.936838 
L 349.789091 253.067689 
L 366.021818 253.553774 
L 382.254545 259.513402 
L 398.487273 234.551256 
" clip-path="url(#pa9a5f3590a)" style="fill: none; stroke: #35b779; stroke-opacity: 0.5; stroke-width: 1.5; stroke-linecap: square"/>
   </g>
   <g id="line2d_49">
    <path d="M 73.832727 103.241052 
L 90.065455 194.28526 
L 106.298182 196.502544 
L 122.530909 268.167051 
L 138.763636 246.223915 
L 154.996364 259.977075 
L 171.229091 230.903995 
L 187.461818 250.488047 
L 203.694545 228.345671 
L 219.927273 258.56758 
L 236.16 263.048495 
L 252.392727 256.746541 
L 268.625455 220.477625 
L 284.858182 249.57661 
L 301.090909 226.809905 
L 317.323636 238.183319 
L 333.556364 230.124028 
L 349.789091 233.065127 
L 366.021818 204.333051 
L 382.254545 235.172667 
L 398.487273 240.988906 
" clip-path="url(#pa9a5f3590a)" style="fill: none; stroke: #35b779; stroke-opacity: 0.5; stroke-width: 1.5; stroke-linecap: square"/>
   </g>
   <g id="line2d_50">
    <path d="M 73.832727 275.543326 
L 90.065455 275.732634 
L 106.298182 265.71589 
L 122.530909 267.273984 
L 138.763636 272.650953 
L 154.996364 276.547293 
L 171.229091 269.323842 
L 187.461818 275.574591 
L 203.694545 267.715061 
L 219.927273 272.108167 
L 236.16 263.489283 
L 252.392727 265.715238 
L 268.625455 252.307918 
L 284.858182 253.291627 
L 301.090909 256.228728 
L 317.323636 271.710226 
L 333.556364 251.979206 
L 349.789091 255.353493 
L 366.021818 257.441584 
L 382.254545 265.857738 
L 398.487273 251.513243 
" clip-path="url(#pa9a5f3590a)" style="fill: none; stroke: #35b779; stroke-opacity: 0.5; stroke-width: 1.5; stroke-linecap: square"/>
   </g>
   <g id="line2d_51">
    <path d="M 73.832727 232.4181 
L 90.065455 241.622388 
L 106.298182 236.28063 
L 122.530909 228.960801 
L 138.763636 197.838184 
L 154.996364 213.733587 
L 171.229091 188.615379 
L 187.461818 207.623784 
L 203.694545 211.412872 
L 219.927273 214.620569 
L 236.16 202.538584 
L 252.392727 199.747276 
L 268.625455 195.870463 
L 284.858182 185.869757 
L 301.090909 180.314706 
L 317.323636 187.567126 
L 333.556364 212.327664 
L 349.789091 185.086075 
L 366.021818 187.856121 
L 382.254545 219.533089 
L 398.487273 193.006405 
" clip-path="url(#pa9a5f3590a)" style="fill: none; stroke: #35b779; stroke-opacity: 0.5; stroke-width: 1.5; stroke-linecap: square"/>
   </g>
   <g id="line2d_52">
    <path d="M 73.832727 221.11071 
L 90.065455 258.271582 
L 106.298182 258.217723 
L 122.530909 117.905039 
L 138.763636 258.953714 
L 154.996364 218.797857 
L 171.229091 265.210262 
L 187.461818 245.772087 
L 203.694545 169.362374 
L 219.927273 228.22567 
L 236.16 242.096484 
L 252.392727 189.551447 
L 268.625455 205.707577 
L 284.858182 139.039492 
L 301.090909 181.123471 
L 317.323636 254.016464 
L 333.556364 213.439027 
L 349.789091 222.115543 
L 366.021818 231.034639 
L 382.254545 211.396021 
L 398.487273 248.611262 
" clip-path="url(#pa9a5f3590a)" style="fill: none; stroke: #35b779; stroke-opacity: 0.5; stroke-width: 1.5; stroke-linecap: square"/>
   </g>
   <g id="line2d_53">
    <path d="M 73.832727 264.816809 
L 90.065455 206.615649 
L 106.298182 240.493627 
L 122.530909 210.431008 
L 138.763636 239.73795 
L 154.996364 203.63829 
L 171.229091 214.705187 
L 187.461818 203.682794 
L 203.694545 256.200524 
L 219.927273 236.317839 
L 236.16 220.011601 
L 252.392727 235.661252 
L 268.625455 268.134358 
L 284.858182 170.660327 
L 301.090909 244.214405 
L 317.323636 243.696719 
L 333.556364 266.200698 
L 349.789091 239.526771 
L 366.021818 234.236912 
L 382.254545 253.942124 
L 398.487273 256.893306 
" clip-path="url(#pa9a5f3590a)" style="fill: none; stroke: #35b779; stroke-opacity: 0.5; stroke-width: 1.5; stroke-linecap: square"/>
   </g>
   <g id="line2d_54">
    <path d="M 73.832727 242.87336 
L 90.065455 218.724852 
L 106.298182 240.974276 
L 122.530909 225.133966 
L 138.763636 213.794517 
L 154.996364 227.528116 
L 171.229091 242.10044 
L 187.461818 181.924952 
L 203.694545 148.342364 
L 219.927273 207.109074 
L 236.16 204.99587 
L 252.392727 225.039041 
L 268.625455 201.096537 
L 284.858182 164.527017 
L 301.090909 217.886007 
L 317.323636 161.605667 
L 333.556364 212.772349 
L 349.789091 213.10723 
L 366.021818 158.551686 
L 382.254545 200.335069 
L 398.487273 216.894402 
" clip-path="url(#pa9a5f3590a)" style="fill: none; stroke: #35b779; stroke-opacity: 0.5; stroke-width: 1.5; stroke-linecap: square"/>
   </g>
   <g id="line2d_55">
    <path d="M 73.832727 224.990625 
L 90.065455 184.401749 
L 106.298182 214.972717 
L 122.530909 194.769043 
L 138.763636 224.888469 
L 154.996364 222.127952 
L 171.229091 232.857423 
L 187.461818 182.531033 
L 203.694545 194.644224 
L 219.927273 170.475331 
L 236.16 194.774457 
L 252.392727 227.273824 
L 268.625455 202.677408 
L 284.858182 196.545235 
L 301.090909 190.684758 
L 317.323636 212.877084 
L 333.556364 221.603196 
L 349.789091 251.698485 
L 366.021818 262.074162 
L 382.254545 171.105091 
L 398.487273 193.65683 
" clip-path="url(#pa9a5f3590a)" style="fill: none; stroke: #35b779; stroke-opacity: 0.5; stroke-width: 1.5; stroke-linecap: square"/>
   </g>
   <g id="line2d_56">
    <path d="M 73.832727 249.187939 
L 90.065455 281.839672 
L 106.298182 263.209062 
L 122.530909 254.24858 
L 138.763636 213.305196 
L 154.996364 208.26069 
L 171.229091 235.672951 
L 187.461818 251.68697 
L 203.694545 211.680532 
L 219.927273 207.857583 
L 236.16 197.308762 
L 252.392727 201.765523 
L 268.625455 174.823739 
L 284.858182 186.67371 
L 301.090909 132.584269 
L 317.323636 211.081205 
L 333.556364 209.196677 
L 349.789091 241.636645 
L 366.021818 187.667536 
L 382.254545 192.302061 
L 398.487273 138.094515 
" clip-path="url(#pa9a5f3590a)" style="fill: none; stroke: #35b779; stroke-opacity: 0.5; stroke-width: 1.5; stroke-linecap: square"/>
   </g>
   <g id="line2d_57">
    <path d="M 73.832727 249.779103 
L 90.065455 222.452266 
L 106.298182 239.973634 
L 122.530909 230.581513 
L 138.763636 237.826012 
L 154.996364 273.574679 
L 171.229091 218.495461 
L 187.461818 241.61269 
L 203.694545 222.655583 
L 219.927273 262.361218 
L 236.16 246.545961 
L 252.392727 244.970456 
L 268.625455 251.603486 
L 284.858182 203.109655 
L 301.090909 227.184119 
L 317.323636 246.80017 
L 333.556364 281.011477 
L 349.789091 274.939255 
L 366.021818 256.406342 
L 382.254545 243.668296 
L 398.487273 250.989755 
" clip-path="url(#pa9a5f3590a)" style="fill: none; stroke: #35b779; stroke-opacity: 0.5; stroke-width: 1.5; stroke-linecap: square"/>
   </g>
   <g id="line2d_58">
    <path d="M 73.832727 249.779262 
L 90.065455 260.507002 
L 106.298182 253.561405 
L 122.530909 178.291285 
L 138.763636 127.607169 
L 154.996364 122.757383 
L 171.229091 163.830035 
L 187.461818 120.087512 
L 203.694545 170.408448 
L 219.927273 175.55009 
L 236.16 186.062684 
L 252.392727 158.731323 
L 268.625455 201.244214 
L 284.858182 97.976575 
L 301.090909 110.179211 
L 317.323636 157.484571 
L 333.556364 194.411183 
L 349.789091 190.876552 
L 366.021818 139.854971 
L 382.254545 174.323582 
L 398.487273 186.930825 
" clip-path="url(#pa9a5f3590a)" style="fill: none; stroke: #35b779; stroke-opacity: 0.5; stroke-width: 1.5; stroke-linecap: square"/>
   </g>
   <g id="patch_3">
    <path d="M 57.6 307.584 
L 57.6 41.472 
" style="fill: none; stroke: #000000; stroke-width: 3; stroke-linejoin: miter; stroke-linecap: square"/>
   </g>
   <g id="patch_4">
    <path d="M 414.72 307.584 
L 414.72 41.472 
" style="fill: none; stroke: #000000; stroke-width: 3; stroke-linejoin: miter; stroke-linecap: square"/>
   </g>
   <g id="patch_5">
    <path d="M 57.6 307.584 
L 414.72 307.584 
" style="fill: none; stroke: #000000; stroke-width: 3; stroke-linejoin: miter; stroke-linecap: square"/>
   </g>
   <g id="patch_6">
    <path d="M 57.6 41.472 
L 414.72 41.472 
" style="fill: none; stroke: #000000; stroke-width: 3; stroke-linejoin: miter; stroke-linecap: square"/>
   </g>
   <g id="text_14">
    <!-- Atom Type O (n=45, mean Q=8.44) -->
    <g transform="translate(39.839219 35.472) scale(0.22 -0.22)">
     <defs>
      <path id="DejaVuSans-41" d="M 2188 4044 
L 1331 1722 
L 3047 1722 
L 2188 4044 
z
M 1831 4666 
L 2547 4666 
L 4325 0 
L 3669 0 
L 3244 1197 
L 1141 1197 
L 716 0 
L 50 0 
L 1831 4666 
z
" transform="scale(0.015625)"/>
      <path id="DejaVuSans-74" d="M 1172 4494 
L 1172 3500 
L 2356 3500 
L 2356 3053 
L 1172 3053 
L 1172 1153 
Q 1172 725 1289 603 
Q 1406 481 1766 481 
L 2356 481 
L 2356 0 
L 1766 0 
Q 1100 0 847 248 
Q 594 497 594 1153 
L 594 3053 
L 172 3053 
L 172 3500 
L 594 3500 
L 594 4494 
L 1172 4494 
z
" transform="scale(0.015625)"/>
      <path id="DejaVuSans-6f" d="M 1959 3097 
Q 1497 3097 1228 2736 
Q 959 2375 959 1747 
Q 959 1119 1226 758 
Q 1494 397 1959 397 
Q 2419 397 2687 759 
Q 2956 1122 2956 1747 
Q 2956 2369 2687 2733 
Q 2419 3097 1959 3097 
z
M 1959 3584 
Q 2709 3584 3137 3096 
Q 3566 2609 3566 1747 
Q 3566 888 3137 398 
Q 2709 -91 1959 -91 
Q 1206 -91 779 398 
Q 353 888 353 1747 
Q 353 2609 779 3096 
Q 1206 3584 1959 3584 
z
" transform="scale(0.015625)"/>
      <path id="DejaVuSans-6d" d="M 3328 2828 
Q 3544 3216 3844 3400 
Q 4144 3584 4550 3584 
Q 5097 3584 5394 3201 
Q 5691 2819 5691 2113 
L 5691 0 
L 5113 0 
L 5113 2094 
Q 5113 2597 4934 2840 
Q 4756 3084 4391 3084 
Q 3944 3084 3684 2787 
Q 3425 2491 3425 1978 
L 3425 0 
L 2847 0 
L 2847 2094 
Q 2847 2600 2669 2842 
Q 2491 3084 2119 3084 
Q 1678 3084 1418 2786 
Q 1159 2488 1159 1978 
L 1159 0 
L 581 0 
L 581 3500 
L 1159 3500 
L 1159 2956 
Q 1356 3278 1631 3431 
Q 1906 3584 2284 3584 
Q 2666 3584 2933 3390 
Q 3200 3197 3328 2828 
z
" transform="scale(0.015625)"/>
      <path id="DejaVuSans-20" transform="scale(0.015625)"/>
      <path id="DejaVuSans-54" d="M -19 4666 
L 3928 4666 
L 3928 4134 
L 2272 4134 
L 2272 0 
L 1638 0 
L 1638 4134 
L -19 4134 
L -19 4666 
z
" transform="scale(0.015625)"/>
      <path id="DejaVuSans-79" d="M 2059 -325 
Q 1816 -950 1584 -1140 
Q 1353 -1331 966 -1331 
L 506 -1331 
L 506 -850 
L 844 -850 
Q 1081 -850 1212 -737 
Q 1344 -625 1503 -206 
L 1606 56 
L 191 3500 
L 800 3500 
L 1894 763 
L 2988 3500 
L 3597 3500 
L 2059 -325 
z
" transform="scale(0.015625)"/>
      <path id="DejaVuSans-70" d="M 1159 525 
L 1159 -1331 
L 581 -1331 
L 581 3500 
L 1159 3500 
L 1159 2969 
Q 1341 3281 1617 3432 
Q 1894 3584 2278 3584 
Q 2916 3584 3314 3078 
Q 3713 2572 3713 1747 
Q 3713 922 3314 415 
Q 2916 -91 2278 -91 
Q 1894 -91 1617 61 
Q 1341 213 1159 525 
z
M 3116 1747 
Q 3116 2381 2855 2742 
Q 2594 3103 2138 3103 
Q 1681 3103 1420 2742 
Q 1159 2381 1159 1747 
Q 1159 1113 1420 752 
Q 1681 391 2138 391 
Q 2594 391 2855 752 
Q 3116 1113 3116 1747 
z
" transform="scale(0.015625)"/>
      <path id="DejaVuSans-65" d="M 3597 1894 
L 3597 1613 
L 953 1613 
Q 991 1019 1311 708 
Q 1631 397 2203 397 
Q 2534 397 2845 478 
Q 3156 559 3463 722 
L 3463 178 
Q 3153 47 2828 -22 
Q 2503 -91 2169 -91 
Q 1331 -91 842 396 
Q 353 884 353 1716 
Q 353 2575 817 3079 
Q 1281 3584 2069 3584 
Q 2775 3584 3186 3129 
Q 3597 2675 3597 1894 
z
M 3022 2063 
Q 3016 2534 2758 2815 
Q 2500 3097 2075 3097 
Q 1594 3097 1305 2825 
Q 1016 2553 972 2059 
L 3022 2063 
z
" transform="scale(0.015625)"/>
      <path id="DejaVuSans-4f" d="M 2522 4238 
Q 1834 4238 1429 3725 
Q 1025 3213 1025 2328 
Q 1025 1447 1429 934 
Q 1834 422 2522 422 
Q 3209 422 3611 934 
Q 4013 1447 4013 2328 
Q 4013 3213 3611 3725 
Q 3209 4238 2522 4238 
z
M 2522 4750 
Q 3503 4750 4090 4092 
Q 4678 3434 4678 2328 
Q 4678 1225 4090 567 
Q 3503 -91 2522 -91 
Q 1538 -91 948 565 
Q 359 1222 359 2328 
Q 359 3434 948 4092 
Q 1538 4750 2522 4750 
z
" transform="scale(0.015625)"/>
      <path id="DejaVuSans-28" d="M 1984 4856 
Q 1566 4138 1362 3434 
Q 1159 2731 1159 2009 
Q 1159 1288 1364 580 
Q 1569 -128 1984 -844 
L 1484 -844 
Q 1016 -109 783 600 
Q 550 1309 550 2009 
Q 550 2706 781 3412 
Q 1013 4119 1484 4856 
L 1984 4856 
z
" transform="scale(0.015625)"/>
      <path id="DejaVuSans-6e" d="M 3513 2113 
L 3513 0 
L 2938 0 
L 2938 2094 
Q 2938 2591 2744 2837 
Q 2550 3084 2163 3084 
Q 1697 3084 1428 2787 
Q 1159 2491 1159 1978 
L 1159 0 
L 581 0 
L 581 3500 
L 1159 3500 
L 1159 2956 
Q 1366 3272 1645 3428 
Q 1925 3584 2291 3584 
Q 2894 3584 3203 3211 
Q 3513 2838 3513 2113 
z
" transform="scale(0.015625)"/>
      <path id="DejaVuSans-3d" d="M 678 2906 
L 4684 2906 
L 4684 2381 
L 678 2381 
L 678 2906 
z
M 678 1631 
L 4684 1631 
L 4684 1100 
L 678 1100 
L 678 1631 
z
" transform="scale(0.015625)"/>
      <path id="DejaVuSans-34" d="M 2419 4116 
L 825 1625 
L 2419 1625 
L 2419 4116 
z
M 2253 4666 
L 3047 4666 
L 3047 1625 
L 3713 1625 
L 3713 1100 
L 3047 1100 
L 3047 0 
L 2419 0 
L 2419 1100 
L 313 1100 
L 313 1709 
L 2253 4666 
z
" transform="scale(0.015625)"/>
      <path id="DejaVuSans-2c" d="M 750 794 
L 1409 794 
L 1409 256 
L 897 -744 
L 494 -744 
L 750 256 
L 750 794 
z
" transform="scale(0.015625)"/>
      <path id="DejaVuSans-61" d="M 2194 1759 
Q 1497 1759 1228 1600 
Q 959 1441 959 1056 
Q 959 750 1161 570 
Q 1363 391 1709 391 
Q 2188 391 2477 730 
Q 2766 1069 2766 1631 
L 2766 1759 
L 2194 1759 
z
M 3341 1997 
L 3341 0 
L 2766 0 
L 2766 531 
Q 2569 213 2275 61 
Q 1981 -91 1556 -91 
Q 1019 -91 701 211 
Q 384 513 384 1019 
Q 384 1609 779 1909 
Q 1175 2209 1959 2209 
L 2766 2209 
L 2766 2266 
Q 2766 2663 2505 2880 
Q 2244 3097 1772 3097 
Q 1472 3097 1187 3025 
Q 903 2953 641 2809 
L 641 3341 
Q 956 3463 1253 3523 
Q 1550 3584 1831 3584 
Q 2591 3584 2966 3190 
Q 3341 2797 3341 1997 
z
" transform="scale(0.015625)"/>
      <path id="DejaVuSans-51" d="M 2522 4238 
Q 1834 4238 1429 3725 
Q 1025 3213 1025 2328 
Q 1025 1447 1429 934 
Q 1834 422 2522 422 
Q 3209 422 3611 934 
Q 4013 1447 4013 2328 
Q 4013 3213 3611 3725 
Q 3209 4238 2522 4238 
z
M 3406 84 
L 4238 -825 
L 3475 -825 
L 2784 -78 
Q 2681 -84 2626 -87 
Q 2572 -91 2522 -91 
Q 1538 -91 948 567 
Q 359 1225 359 2328 
Q 359 3434 948 4092 
Q 1538 4750 2522 4750 
Q 3503 4750 4090 4092 
Q 4678 3434 4678 2328 
Q 4678 1516 4351 937 
Q 4025 359 3406 84 
z
" transform="scale(0.015625)"/>
      <path id="DejaVuSans-38" d="M 2034 2216 
Q 1584 2216 1326 1975 
Q 1069 1734 1069 1313 
Q 1069 891 1326 650 
Q 1584 409 2034 409 
Q 2484 409 2743 651 
Q 3003 894 3003 1313 
Q 3003 1734 2745 1975 
Q 2488 2216 2034 2216 
z
M 1403 2484 
Q 997 2584 770 2862 
Q 544 3141 544 3541 
Q 544 4100 942 4425 
Q 1341 4750 2034 4750 
Q 2731 4750 3128 4425 
Q 3525 4100 3525 3541 
Q 3525 3141 3298 2862 
Q 3072 2584 2669 2484 
Q 3125 2378 3379 2068 
Q 3634 1759 3634 1313 
Q 3634 634 3220 271 
Q 2806 -91 2034 -91 
Q 1263 -91 848 271 
Q 434 634 434 1313 
Q 434 1759 690 2068 
Q 947 2378 1403 2484 
z
M 1172 3481 
Q 1172 3119 1398 2916 
Q 1625 2713 2034 2713 
Q 2441 2713 2670 2916 
Q 2900 3119 2900 3481 
Q 2900 3844 2670 4047 
Q 2441 4250 2034 4250 
Q 1625 4250 1398 4047 
Q 1172 3844 1172 3481 
z
" transform="scale(0.015625)"/>
      <path id="DejaVuSans-29" d="M 513 4856 
L 1013 4856 
Q 1481 4119 1714 3412 
Q 1947 2706 1947 2009 
Q 1947 1309 1714 600 
Q 1481 -109 1013 -844 
L 513 -844 
Q 928 -128 1133 580 
Q 1338 1288 1338 2009 
Q 1338 2731 1133 3434 
Q 928 4138 513 4856 
z
" transform="scale(0.015625)"/>
     </defs>
     <use xlink:href="#DejaVuSans-41"/>
     <use xlink:href="#DejaVuSans-74" transform="translate(66.658203 0)"/>
     <use xlink:href="#DejaVuSans-6f" transform="translate(105.867188 0)"/>
     <use xlink:href="#DejaVuSans-6d" transform="translate(167.048828 0)"/>
     <use xlink:href="#DejaVuSans-20" transform="translate(264.460938 0)"/>
     <use xlink:href="#DejaVuSans-54" transform="translate(296.248047 0)"/>
     <use xlink:href="#DejaVuSans-79" transform="translate(341.707031 0)"/>
     <use xlink:href="#DejaVuSans-70" transform="translate(400.886719 0)"/>
     <use xlink:href="#DejaVuSans-65" transform="translate(464.363281 0)"/>
     <use xlink:href="#DejaVuSans-20" transform="translate(525.886719 0)"/>
     <use xlink:href="#DejaVuSans-4f" transform="translate(557.673828 0)"/>
     <use xlink:href="#DejaVuSans-20" transform="translate(636.384766 0)"/>
     <use xlink:href="#DejaVuSans-28" transform="translate(668.171875 0)"/>
     <use xlink:href="#DejaVuSans-6e" transform="translate(707.185547 0)"/>
     <use xlink:href="#DejaVuSans-3d" transform="translate(770.564453 0)"/>
     <use xlink:href="#DejaVuSans-34" transform="translate(854.353516 0)"/>
     <use xlink:href="#DejaVuSans-35" transform="translate(917.976562 0)"/>
     <use xlink:href="#DejaVuSans-2c" transform="translate(981.599609 0)"/>
     <use xlink:href="#DejaVuSans-20" transform="translate(1013.386719 0)"/>
     <use xlink:href="#DejaVuSans-6d" transform="translate(1045.173828 0)"/>
     <use xlink:href="#DejaVuSans-65" transform="translate(1142.585938 0)"/>
     <use xlink:href="#DejaVuSans-61" transform="translate(1204.109375 0)"/>
     <use xlink:href="#DejaVuSans-6e" transform="translate(1265.388672 0)"/>
     <use xlink:href="#DejaVuSans-20" transform="translate(1328.767578 0)"/>
     <use xlink:href="#DejaVuSans-51" transform="translate(1360.554688 0)"/>
     <use xlink:href="#DejaVuSans-3d" transform="translate(1439.265625 0)"/>
     <use xlink:href="#DejaVuSans-38" transform="translate(1523.054688 0)"/>
     <use xlink:href="#DejaVuSans-2e" transform="translate(1586.677734 0)"/>
     <use xlink:href="#DejaVuSans-34" transform="translate(1618.464844 0)"/>
     <use xlink:href="#DejaVuSans-34" transform="translate(1682.087891 0)"/>
     <use xlink:href="#DejaVuSans-29" transform="translate(1745.710938 0)"/>
    </g>
   </g>
  </g>
 </g>
 <defs>
  <clipPath id="pa9a5f3590a">
   <rect x="57.6" y="41.472" width="357.12" height="266.112"/>
  </clipPath>
 </defs>
</svg>
