<?xml version="1.0" encoding="utf-8" standalone="no"?>
<!DOCTYPE svg PUBLIC "-//W3C//DTD SVG 1.1//EN"
  "http://www.w3.org/Graphics/SVG/1.1/DTD/svg11.dtd">
<svg xmlns:xlink="http://www.w3.org/1999/xlink" width="460.8pt" height="345.6pt" viewBox="0 0 460.8 345.6" xmlns="http://www.w3.org/2000/svg" version="1.1">
 <metadata>
  <rdf:RDF xmlns:dc="http://purl.org/dc/elements/1.1/" xmlns:cc="http://creativecommons.org/ns#" xmlns:rdf="http://www.w3.org/1999/02/22-rdf-syntax-ns#">
   <cc:Work>
    <dc:type rdf:resource="http://purl.org/dc/dcmitype/StillImage"/>
    <dc:date>2025-12-10T14:10:17.600322</dc:date>
    <dc:format>image/svg+xml</dc:format>
    <dc:creator>
     <cc:Agent>
      <dc:title>Matplotlib v3.10.3, https://matplotlib.org/</dc:title>
     </cc:Agent>
    </dc:creator>
   </cc:Work>
  </rdf:RDF>
 </metadata>
 <defs>
  <style type="text/css">*{stroke-linejoin: round; stroke-linecap: butt}</style>
 </defs>
 <g id="figure_1">
  <g id="patch_1">
   <path d="M 0 345.6 
L 460.8 345.6 
L 460.8 0 
L 0 0 
z
" style="fill: #ffffff"/>
  </g>
  <g id="axes_1">
   <g id="patch_2">
    <path d="M 57.6 307.584 
L 414.72 307.584 
L 414.72 41.472 
L 57.6 41.472 
z
" style="fill: #ffffff"/>
   </g>
   <g id="matplotlib.axis_1">
    <g id="xtick_1">
     <g id="line2d_1">
      <defs>
       <path id="m214d02d5f2" d="M 0 0 
L 0 3.5 
" style="stroke: #000000; stroke-width: 0.8"/>
      </defs>
      <g>
       <use xlink:href="#m214d02d5f2" x="73.832727" y="307.584" style="stroke: #000000; stroke-width: 0.8"/>
      </g>
     </g>
     <g id="text_1">
      <!-- 0 -->
      <g transform="translate(69.060852 325.981656) scale(0.15 -0.15)">
       <defs>
        <path id="DejaVuSans-30" d="M 2034 4250 
Q 1547 4250 1301 3770 
Q 1056 3291 1056 2328 
Q 1056 1369 1301 889 
Q 1547 409 2034 409 
Q 2525 409 2770 889 
Q 3016 1369 3016 2328 
Q 3016 3291 2770 3770 
Q 2525 4250 2034 4250 
z
M 2034 4750 
Q 2819 4750 3233 4129 
Q 3647 3509 3647 2328 
Q 3647 1150 3233 529 
Q 2819 -91 2034 -91 
Q 1250 -91 836 529 
Q 422 1150 422 2328 
Q 422 3509 836 4129 
Q 1250 4750 2034 4750 
z
" transform="scale(0.015625)"/>
       </defs>
       <use xlink:href="#DejaVuSans-30"/>
      </g>
     </g>
    </g>
    <g id="xtick_2">
     <g id="line2d_2">
      <g>
       <use xlink:href="#m214d02d5f2" x="154.996364" y="307.584" style="stroke: #000000; stroke-width: 0.8"/>
      </g>
     </g>
     <g id="text_2">
      <!-- 5 -->
      <g transform="translate(150.224489 325.981656) scale(0.15 -0.15)">
       <defs>
        <path id="DejaVuSans-35" d="M 691 4666 
L 3169 4666 
L 3169 4134 
L 1269 4134 
L 1269 2991 
Q 1406 3038 1543 3061 
Q 1681 3084 1819 3084 
Q 2600 3084 3056 2656 
Q 3513 2228 3513 1497 
Q 3513 744 3044 326 
Q 2575 -91 1722 -91 
Q 1428 -91 1123 -41 
Q 819 9 494 109 
L 494 744 
Q 775 591 1075 516 
Q 1375 441 1709 441 
Q 2250 441 2565 725 
Q 2881 1009 2881 1497 
Q 2881 1984 2565 2268 
Q 2250 2553 1709 2553 
Q 1456 2553 1204 2497 
Q 953 2441 691 2322 
L 691 4666 
z
" transform="scale(0.015625)"/>
       </defs>
       <use xlink:href="#DejaVuSans-35"/>
      </g>
     </g>
    </g>
    <g id="xtick_3">
     <g id="line2d_3">
      <g>
       <use xlink:href="#m214d02d5f2" x="236.16" y="307.584" style="stroke: #000000; stroke-width: 0.8"/>
      </g>
     </g>
     <g id="text_3">
      <!-- 10 -->
      <g transform="translate(226.61625 325.981656) scale(0.15 -0.15)">
       <defs>
        <path id="DejaVuSans-31" d="M 794 531 
L 1825 531 
L 1825 4091 
L 703 3866 
L 703 4441 
L 1819 4666 
L 2450 4666 
L 2450 531 
L 3481 531 
L 3481 0 
L 794 0 
L 794 531 
z
" transform="scale(0.015625)"/>
       </defs>
       <use xlink:href="#DejaVuSans-31"/>
       <use xlink:href="#DejaVuSans-30" transform="translate(63.623047 0)"/>
      </g>
     </g>
    </g>
    <g id="xtick_4">
     <g id="line2d_4">
      <g>
       <use xlink:href="#m214d02d5f2" x="317.323636" y="307.584" style="stroke: #000000; stroke-width: 0.8"/>
      </g>
     </g>
     <g id="text_4">
      <!-- 15 -->
      <g transform="translate(307.779886 325.981656) scale(0.15 -0.15)">
       <use xlink:href="#DejaVuSans-31"/>
       <use xlink:href="#DejaVuSans-35" transform="translate(63.623047 0)"/>
      </g>
     </g>
    </g>
    <g id="xtick_5">
     <g id="line2d_5">
      <g>
       <use xlink:href="#m214d02d5f2" x="398.487273" y="307.584" style="stroke: #000000; stroke-width: 0.8"/>
      </g>
     </g>
     <g id="text_5">
      <!-- 20 -->
      <g transform="translate(388.943523 325.981656) scale(0.15 -0.15)">
       <defs>
        <path id="DejaVuSans-32" d="M 1228 531 
L 3431 531 
L 3431 0 
L 469 0 
L 469 531 
Q 828 903 1448 1529 
Q 2069 2156 2228 2338 
Q 2531 2678 2651 2914 
Q 2772 3150 2772 3378 
Q 2772 3750 2511 3984 
Q 2250 4219 1831 4219 
Q 1534 4219 1204 4116 
Q 875 4013 500 3803 
L 500 4441 
Q 881 4594 1212 4672 
Q 1544 4750 1819 4750 
Q 2544 4750 2975 4387 
Q 3406 4025 3406 3419 
Q 3406 3131 3298 2873 
Q 3191 2616 2906 2266 
Q 2828 2175 2409 1742 
Q 1991 1309 1228 531 
z
" transform="scale(0.015625)"/>
       </defs>
       <use xlink:href="#DejaVuSans-32"/>
       <use xlink:href="#DejaVuSans-30" transform="translate(63.623047 0)"/>
      </g>
     </g>
    </g>
   </g>
   <g id="matplotlib.axis_2">
    <g id="ytick_1">
     <g id="line2d_6">
      <defs>
       <path id="m8679e1f3da" d="M 0 0 
L -3.5 0 
" style="stroke: #000000; stroke-width: 0.8"/>
      </defs>
      <g>
       <use xlink:href="#m8679e1f3da" x="57.6" y="270.169478" style="stroke: #000000; stroke-width: 0.8"/>
      </g>
     </g>
     <g id="text_6">
      <!-- 5 -->
      <g transform="translate(41.05625 275.868307) scale(0.15 -0.15)">
       <use xlink:href="#DejaVuSans-35"/>
      </g>
     </g>
    </g>
    <g id="ytick_2">
     <g id="line2d_7">
      <g>
       <use xlink:href="#m8679e1f3da" x="57.6" y="221.03262" style="stroke: #000000; stroke-width: 0.8"/>
      </g>
     </g>
     <g id="text_7">
      <!-- 10 -->
      <g transform="translate(31.5125 226.731448) scale(0.15 -0.15)">
       <use xlink:href="#DejaVuSans-31"/>
       <use xlink:href="#DejaVuSans-30" transform="translate(63.623047 0)"/>
      </g>
     </g>
    </g>
    <g id="ytick_3">
     <g id="line2d_8">
      <g>
       <use xlink:href="#m8679e1f3da" x="57.6" y="171.895761" style="stroke: #000000; stroke-width: 0.8"/>
      </g>
     </g>
     <g id="text_8">
      <!-- 15 -->
      <g transform="translate(31.5125 177.594589) scale(0.15 -0.15)">
       <use xlink:href="#DejaVuSans-31"/>
       <use xlink:href="#DejaVuSans-35" transform="translate(63.623047 0)"/>
      </g>
     </g>
    </g>
    <g id="ytick_4">
     <g id="line2d_9">
      <g>
       <use xlink:href="#m8679e1f3da" x="57.6" y="122.758903" style="stroke: #000000; stroke-width: 0.8"/>
      </g>
     </g>
     <g id="text_9">
      <!-- 20 -->
      <g transform="translate(31.5125 128.457731) scale(0.15 -0.15)">
       <use xlink:href="#DejaVuSans-32"/>
       <use xlink:href="#DejaVuSans-30" transform="translate(63.623047 0)"/>
      </g>
     </g>
    </g>
    <g id="ytick_5">
     <g id="line2d_10">
      <g>
       <use xlink:href="#m8679e1f3da" x="57.6" y="73.622044" style="stroke: #000000; stroke-width: 0.8"/>
      </g>
     </g>
     <g id="text_10">
      <!-- 25 -->
      <g transform="translate(31.5125 79.320872) scale(0.15 -0.15)">
       <use xlink:href="#DejaVuSans-32"/>
       <use xlink:href="#DejaVuSans-35" transform="translate(63.623047 0)"/>
      </g>
     </g>
    </g>
   </g>
   <g id="line2d_11">
    <path d="M 73.832727 269.746223 
L 90.065455 251.823242 
L 106.298182 255.767154 
L 122.530909 262.17002 
L 138.763636 269.978924 
L 154.996364 265.925666 
L 171.229091 264.812442 
L 187.461818 282.951687 
L 203.694545 282.377914 
L 219.927273 252.953767 
L 236.16 261.309278 
L 252.392727 261.336285 
L 268.625455 282.773593 
L 284.858182 264.828301 
L 301.090909 279.000009 
L 317.323636 261.796112 
L 333.556364 276.126139 
L 349.789091 255.017207 
L 366.021818 271.914231 
L 382.254545 259.684475 
L 398.487273 253.628004 
" clip-path="url(#p9a79824c77)" style="fill: none; stroke: #440154; stroke-opacity: 0.5; stroke-width: 1.5; stroke-linecap: square"/>
   </g>
   <g id="line2d_12">
    <path d="M 73.832727 269.908211 
L 90.065455 263.351842 
L 106.298182 265.119873 
L 122.530909 275.320319 
L 138.763636 275.687022 
L 154.996364 278.632335 
L 171.229091 272.260609 
L 187.461818 267.294728 
L 203.694545 278.9111 
L 219.927273 262.417493 
L 236.16 256.383031 
L 252.392727 279.102017 
L 268.625455 265.804047 
L 284.858182 271.555331 
L 301.090909 254.802667 
L 317.323636 260.445627 
L 333.556364 278.880647 
L 349.789091 256.270623 
L 366.021818 275.289392 
L 382.254545 249.699803 
L 398.487273 271.128411 
" clip-path="url(#p9a79824c77)" style="fill: none; stroke: #440154; stroke-opacity: 0.5; stroke-width: 1.5; stroke-linecap: square"/>
   </g>
   <g id="line2d_13">
    <path d="M 73.832727 258.072349 
L 90.065455 255.349319 
L 106.298182 259.732254 
L 122.530909 270.556176 
L 138.763636 268.377369 
L 154.996364 240.933964 
L 171.229091 276.779127 
L 187.461818 285.596624 
L 203.694545 278.302675 
L 219.927273 262.680823 
L 236.16 265.189052 
L 252.392727 262.912393 
L 268.625455 270.315902 
L 284.858182 274.588524 
L 301.090909 263.020115 
L 317.323636 263.337056 
L 333.556364 274.278059 
L 349.789091 270.749887 
L 366.021818 265.025632 
L 382.254545 277.837979 
L 398.487273 275.237276 
" clip-path="url(#p9a79824c77)" style="fill: none; stroke: #440154; stroke-opacity: 0.5; stroke-width: 1.5; stroke-linecap: square"/>
   </g>
   <g id="line2d_14">
    <path d="M 73.832727 271.172847 
L 90.065455 259.338579 
L 106.298182 258.786154 
L 122.530909 271.470313 
L 138.763636 254.022192 
L 154.996364 275.787899 
L 171.229091 284.012861 
L 187.461818 263.121071 
L 203.694545 253.400186 
L 219.927273 273.612568 
L 236.16 277.388874 
L 252.392727 262.347634 
L 268.625455 271.182423 
L 284.858182 231.661277 
L 301.090909 260.989892 
L 317.323636 281.654419 
L 333.556364 263.46406 
L 349.789091 268.862135 
L 366.021818 273.724369 
L 382.254545 284.629168 
L 398.487273 272.017269 
" clip-path="url(#p9a79824c77)" style="fill: none; stroke: #440154; stroke-opacity: 0.5; stroke-width: 1.5; stroke-linecap: square"/>
   </g>
   <g id="line2d_15">
    <path d="M 73.832727 237.8185 
L 90.065455 243.887069 
L 106.298182 238.090569 
L 122.530909 250.250462 
L 138.763636 238.644333 
L 154.996364 263.726299 
L 171.229091 266.36008 
L 187.461818 280.379548 
L 203.694545 272.892097 
L 219.927273 274.190929 
L 236.16 265.048262 
L 252.392727 264.307468 
L 268.625455 267.203462 
L 284.858182 280.742519 
L 301.090909 281.115529 
L 317.323636 270.809095 
L 333.556364 265.984762 
L 349.789091 269.954575 
L 366.021818 273.859277 
L 382.254545 263.720373 
L 398.487273 264.861369 
" clip-path="url(#p9a79824c77)" style="fill: none; stroke: #440154; stroke-opacity: 0.5; stroke-width: 1.5; stroke-linecap: square"/>
   </g>
   <g id="line2d_16">
    <path d="M 73.832727 268.009525 
L 90.065455 251.045324 
L 106.298182 269.173425 
L 122.530909 264.19187 
L 138.763636 262.648693 
L 154.996364 261.453405 
L 171.229091 281.230813 
L 187.461818 267.967866 
L 203.694545 282.61128 
L 219.927273 272.988505 
L 236.16 259.860759 
L 252.392727 259.350324 
L 268.625455 276.584995 
L 284.858182 265.458743 
L 301.090909 267.024129 
L 317.323636 271.787515 
L 333.556364 276.468149 
L 349.789091 277.942161 
L 366.021818 269.884783 
L 382.254545 269.681634 
L 398.487273 271.796271 
" clip-path="url(#p9a79824c77)" style="fill: none; stroke: #440154; stroke-opacity: 0.5; stroke-width: 1.5; stroke-linecap: square"/>
   </g>
   <g id="line2d_17">
    <path d="M 73.832727 269.21441 
L 90.065455 263.891269 
L 106.298182 265.15913 
L 122.530909 273.897561 
L 138.763636 273.767434 
L 154.996364 257.430924 
L 171.229091 266.002879 
L 187.461818 261.377524 
L 203.694545 272.400569 
L 219.927273 248.160662 
L 236.16 272.743101 
L 252.392727 276.99059 
L 268.625455 259.092173 
L 284.858182 279.491389 
L 301.090909 273.109932 
L 317.323636 261.002821 
L 333.556364 260.961123 
L 349.789091 281.183401 
L 366.021818 254.592752 
L 382.254545 270.306878 
L 398.487273 224.887671 
" clip-path="url(#p9a79824c77)" style="fill: none; stroke: #440154; stroke-opacity: 0.5; stroke-width: 1.5; stroke-linecap: square"/>
   </g>
   <g id="line2d_18">
    <path d="M 73.832727 238.528277 
L 90.065455 274.279662 
L 106.298182 257.12979 
L 122.530909 275.293689 
L 138.763636 271.00679 
L 154.996364 269.97714 
L 171.229091 269.20315 
L 187.461818 256.96626 
L 203.694545 264.256643 
L 219.927273 271.535817 
L 236.16 260.373323 
L 252.392727 244.035424 
L 268.625455 236.782834 
L 284.858182 283.280818 
L 301.090909 275.352766 
L 317.323636 261.459393 
L 333.556364 242.435574 
L 349.789091 246.329327 
L 366.021818 243.187552 
L 382.254545 246.188394 
L 398.487273 275.61193 
" clip-path="url(#p9a79824c77)" style="fill: none; stroke: #440154; stroke-opacity: 0.5; stroke-width: 1.5; stroke-linecap: square"/>
   </g>
   <g id="line2d_19">
    <path d="M 73.832727 250.288506 
L 90.065455 247.615812 
L 106.298182 252.131503 
L 122.530909 261.459195 
L 138.763636 272.447621 
L 154.996364 278.356633 
L 171.229091 285.209091 
L 187.461818 288.551367 
L 203.694545 262.807152 
L 219.927273 271.206419 
L 236.16 272.551594 
L 252.392727 263.785236 
L 268.625455 270.369152 
L 284.858182 274.317174 
L 301.090909 280.896435 
L 317.323636 267.530551 
L 333.556364 279.850796 
L 349.789091 259.549536 
L 366.021818 269.740672 
L 382.254545 268.988677 
L 398.487273 266.609746 
" clip-path="url(#p9a79824c77)" style="fill: none; stroke: #440154; stroke-opacity: 0.5; stroke-width: 1.5; stroke-linecap: square"/>
   </g>
   <g id="line2d_20">
    <path d="M 73.832727 266.392434 
L 90.065455 271.540463 
L 106.298182 248.692397 
L 122.530909 266.144162 
L 138.763636 277.618639 
L 154.996364 222.683641 
L 171.229091 275.812564 
L 187.461818 272.510153 
L 203.694545 274.060559 
L 219.927273 267.519615 
L 236.16 266.256353 
L 252.392727 266.134695 
L 268.625455 255.654871 
L 284.858182 253.923604 
L 301.090909 253.209001 
L 317.323636 263.701392 
L 333.556364 265.592469 
L 349.789091 283.697352 
L 366.021818 263.042046 
L 382.254545 247.344249 
L 398.487273 276.776619 
" clip-path="url(#p9a79824c77)" style="fill: none; stroke: #440154; stroke-opacity: 0.5; stroke-width: 1.5; stroke-linecap: square"/>
   </g>
   <g id="line2d_21">
    <path d="M 73.832727 250.88857 
L 90.065455 263.849512 
L 106.298182 254.789676 
L 122.530909 265.43203 
L 138.763636 263.939212 
L 154.996364 249.301062 
L 171.229091 272.250306 
L 187.461818 276.461164 
L 203.694545 273.096949 
L 219.927273 267.67616 
L 236.16 276.889083 
L 252.392727 281.949208 
L 268.625455 268.341639 
L 284.858182 258.579445 
L 301.090909 254.195043 
L 317.323636 241.533393 
L 333.556364 206.915475 
L 349.789091 270.04405 
L 366.021818 271.970049 
L 382.254545 272.471203 
L 398.487273 269.70432 
" clip-path="url(#p9a79824c77)" style="fill: none; stroke: #440154; stroke-opacity: 0.5; stroke-width: 1.5; stroke-linecap: square"/>
   </g>
   <g id="line2d_22">
    <path d="M 73.832727 205.931818 
L 90.065455 189.188375 
L 106.298182 176.227436 
L 122.530909 187.348936 
L 138.763636 190.779809 
L 154.996364 219.653566 
L 171.229091 269.19316 
L 187.461818 259.209047 
L 203.694545 267.960505 
L 219.927273 271.185603 
L 236.16 255.862428 
L 252.392727 266.319956 
L 268.625455 276.988576 
L 284.858182 255.499366 
L 301.090909 274.441644 
L 317.323636 264.111261 
L 333.556364 276.698711 
L 349.789091 244.685393 
L 366.021818 240.179853 
L 382.254545 260.185975 
L 398.487273 273.899052 
" clip-path="url(#p9a79824c77)" style="fill: none; stroke: #440154; stroke-opacity: 0.5; stroke-width: 1.5; stroke-linecap: square"/>
   </g>
   <g id="line2d_23">
    <path d="M 73.832727 263.188 
L 90.065455 264.59897 
L 106.298182 233.697506 
L 122.530909 234.853506 
L 138.763636 257.368058 
L 154.996364 273.619256 
L 171.229091 242.833834 
L 187.461818 221.012744 
L 203.694545 220.313403 
L 219.927273 242.440851 
L 236.16 198.584831 
L 252.392727 254.699794 
L 268.625455 266.319725 
L 284.858182 248.121805 
L 301.090909 266.918397 
L 317.323636 242.377795 
L 333.556364 237.374146 
L 349.789091 251.384946 
L 366.021818 274.248684 
L 382.254545 236.24191 
L 398.487273 229.771707 
" clip-path="url(#p9a79824c77)" style="fill: none; stroke: #440154; stroke-opacity: 0.5; stroke-width: 1.5; stroke-linecap: square"/>
   </g>
   <g id="line2d_24">
    <path d="M 73.832727 179.301854 
L 90.065455 179.224115 
L 106.298182 229.065655 
L 122.530909 222.501731 
L 138.763636 245.488528 
L 154.996364 214.20054 
L 171.229091 216.470473 
L 187.461818 217.532956 
L 203.694545 199.429014 
L 219.927273 217.101636 
L 236.16 208.720104 
L 252.392727 251.912305 
L 268.625455 250.967964 
L 284.858182 207.45147 
L 301.090909 157.818153 
L 317.323636 231.064342 
L 333.556364 251.198527 
L 349.789091 237.108612 
L 366.021818 222.085177 
L 382.254545 156.498452 
L 398.487273 236.15724 
" clip-path="url(#p9a79824c77)" style="fill: none; stroke: #440154; stroke-opacity: 0.5; stroke-width: 1.5; stroke-linecap: square"/>
   </g>
   <g id="line2d_25">
    <path d="M 73.832727 286.37874 
L 90.065455 254.303243 
L 106.298182 281.46594 
L 122.530909 283.859058 
L 138.763636 277.766187 
L 154.996364 278.433005 
L 171.229091 230.879367 
L 187.461818 286.045399 
L 203.694545 254.481946 
L 219.927273 252.333767 
L 236.16 287.788581 
L 252.392727 267.067784 
L 268.625455 267.628687 
L 284.858182 274.802872 
L 301.090909 271.044739 
L 317.323636 278.482901 
L 333.556364 281.411863 
L 349.789091 282.31834 
L 366.021818 273.361295 
L 382.254545 251.995464 
L 398.487273 280.463124 
" clip-path="url(#p9a79824c77)" style="fill: none; stroke: #440154; stroke-opacity: 0.5; stroke-width: 1.5; stroke-linecap: square"/>
   </g>
   <g id="line2d_26">
    <path d="M 73.832727 268.72605 
L 90.065455 259.684098 
L 106.298182 270.667382 
L 122.530909 269.147302 
L 138.763636 200.290581 
L 154.996364 281.01591 
L 171.229091 275.257554 
L 187.461818 285.284334 
L 203.694545 266.234929 
L 219.927273 288.880041 
L 236.16 254.908665 
L 252.392727 268.659493 
L 268.625455 261.17483 
L 284.858182 287.124305 
L 301.090909 272.885246 
L 317.323636 231.628086 
L 333.556364 258.744899 
L 349.789091 253.403663 
L 366.021818 240.220538 
L 382.254545 223.606682 
L 398.487273 272.175358 
" clip-path="url(#p9a79824c77)" style="fill: none; stroke: #440154; stroke-opacity: 0.5; stroke-width: 1.5; stroke-linecap: square"/>
   </g>
   <g id="line2d_27">
    <path d="M 73.832727 271.280075 
L 90.065455 261.600832 
L 106.298182 253.775791 
L 122.530909 255.344773 
L 138.763636 266.784638 
L 154.996364 279.613676 
L 171.229091 258.283038 
L 187.461818 271.375705 
L 203.694545 287.659739 
L 219.927273 267.260452 
L 236.16 283.96839 
L 252.392727 265.767472 
L 268.625455 286.616207 
L 284.858182 282.793406 
L 301.090909 265.373879 
L 317.323636 283.962363 
L 333.556364 268.902038 
L 349.789091 250.810175 
L 366.021818 257.162802 
L 382.254545 261.304818 
L 398.487273 274.780835 
" clip-path="url(#p9a79824c77)" style="fill: none; stroke: #440154; stroke-opacity: 0.5; stroke-width: 1.5; stroke-linecap: square"/>
   </g>
   <g id="line2d_28">
    <path d="M 73.832727 281.445785 
L 90.065455 261.842704 
L 106.298182 276.885163 
L 122.530909 272.122935 
L 138.763636 249.299217 
L 154.996364 280.773425 
L 171.229091 250.448507 
L 187.461818 261.48725 
L 203.694545 279.832586 
L 219.927273 273.805415 
L 236.16 256.943012 
L 252.392727 257.283663 
L 268.625455 268.964415 
L 284.858182 280.318813 
L 301.090909 277.072865 
L 317.323636 280.821557 
L 333.556364 265.962171 
L 349.789091 282.207953 
L 366.021818 251.657384 
L 382.254545 286.572372 
L 398.487273 288.219049 
" clip-path="url(#p9a79824c77)" style="fill: none; stroke: #440154; stroke-opacity: 0.5; stroke-width: 1.5; stroke-linecap: square"/>
   </g>
   <g id="line2d_29">
    <path d="M 73.832727 264.749856 
L 90.065455 273.39951 
L 106.298182 278.310532 
L 122.530909 265.464107 
L 138.763636 271.649738 
L 154.996364 271.484264 
L 171.229091 264.022956 
L 187.461818 269.584546 
L 203.694545 258.752566 
L 219.927273 285.421452 
L 236.16 266.252479 
L 252.392727 272.631381 
L 268.625455 281.492592 
L 284.858182 275.569978 
L 301.090909 269.432253 
L 317.323636 281.798383 
L 333.556364 280.731538 
L 349.789091 285.920777 
L 366.021818 256.407996 
L 382.254545 264.27261 
L 398.487273 267.975271 
" clip-path="url(#p9a79824c77)" style="fill: none; stroke: #440154; stroke-opacity: 0.5; stroke-width: 1.5; stroke-linecap: square"/>
   </g>
   <g id="line2d_30">
    <path d="M 73.832727 275.975076 
L 90.065455 273.015712 
L 106.298182 237.508312 
L 122.530909 248.960175 
L 138.763636 275.445461 
L 154.996364 267.51591 
L 171.229091 280.8424 
L 187.461818 279.560504 
L 203.694545 252.358449 
L 219.927273 271.195759 
L 236.16 272.575643 
L 252.392727 268.318282 
L 268.625455 271.295971 
L 284.858182 267.704071 
L 301.090909 284.932196 
L 317.323636 267.264158 
L 333.556364 280.403851 
L 349.789091 283.589791 
L 366.021818 250.963671 
L 382.254545 278.200077 
L 398.487273 264.559424 
" clip-path="url(#p9a79824c77)" style="fill: none; stroke: #440154; stroke-opacity: 0.5; stroke-width: 1.5; stroke-linecap: square"/>
   </g>
   <g id="line2d_31">
    <path d="M 73.832727 249.000692 
L 90.065455 276.921562 
L 106.298182 288.351298 
L 122.530909 243.12873 
L 138.763636 266.569103 
L 154.996364 265.098276 
L 171.229091 268.992772 
L 187.461818 257.943166 
L 203.694545 269.839065 
L 219.927273 275.146349 
L 236.16 246.612198 
L 252.392727 224.204436 
L 268.625455 239.667713 
L 284.858182 232.439611 
L 301.090909 240.389892 
L 317.323636 255.01555 
L 333.556364 244.975372 
L 349.789091 275.113054 
L 366.021818 271.450137 
L 382.254545 251.957159 
L 398.487273 277.009429 
" clip-path="url(#p9a79824c77)" style="fill: none; stroke: #440154; stroke-opacity: 0.5; stroke-width: 1.5; stroke-linecap: square"/>
   </g>
   <g id="line2d_32">
    <path d="M 73.832727 277.858298 
L 90.065455 270.582537 
L 106.298182 261.829172 
L 122.530909 238.302043 
L 138.763636 258.665924 
L 154.996364 278.724307 
L 171.229091 258.680766 
L 187.461818 277.829225 
L 203.694545 269.253565 
L 219.927273 269.666196 
L 236.16 268.779197 
L 252.392727 251.797209 
L 268.625455 260.04412 
L 284.858182 250.765792 
L 301.090909 273.292723 
L 317.323636 271.67488 
L 333.556364 256.628149 
L 349.789091 234.816988 
L 366.021818 281.969733 
L 382.254545 272.433386 
L 398.487273 269.512032 
" clip-path="url(#p9a79824c77)" style="fill: none; stroke: #440154; stroke-opacity: 0.5; stroke-width: 1.5; stroke-linecap: square"/>
   </g>
   <g id="line2d_33">
    <path d="M 73.832727 267.255714 
L 90.065455 278.004606 
L 106.298182 281.579922 
L 122.530909 254.052461 
L 138.763636 278.512994 
L 154.996364 251.942874 
L 171.229091 280.383632 
L 187.461818 263.903662 
L 203.694545 276.26013 
L 219.927273 256.175775 
L 236.16 277.223188 
L 252.392727 273.812874 
L 268.625455 266.732109 
L 284.858182 273.692768 
L 301.090909 279.225824 
L 317.323636 275.846385 
L 333.556364 271.257234 
L 349.789091 272.91684 
L 366.021818 269.957592 
L 382.254545 227.407097 
L 398.487273 260.701668 
" clip-path="url(#p9a79824c77)" style="fill: none; stroke: #440154; stroke-opacity: 0.5; stroke-width: 1.5; stroke-linecap: square"/>
   </g>
   <g id="line2d_34">
    <path d="M 73.832727 209.917298 
L 90.065455 197.44797 
L 106.298182 252.475145 
L 122.530909 244.191275 
L 138.763636 271.512623 
L 154.996364 219.519056 
L 171.229091 256.519875 
L 187.461818 276.711276 
L 203.694545 225.001665 
L 219.927273 264.987217 
L 236.16 234.87832 
L 252.392727 274.110046 
L 268.625455 280.27933 
L 284.858182 275.52735 
L 301.090909 236.698393 
L 317.323636 278.140735 
L 333.556364 283.599165 
L 349.789091 246.130113 
L 366.021818 246.388401 
L 382.254545 277.381278 
L 398.487273 275.718758 
" clip-path="url(#p9a79824c77)" style="fill: none; stroke: #440154; stroke-opacity: 0.5; stroke-width: 1.5; stroke-linecap: square"/>
   </g>
   <g id="line2d_35">
    <path d="M 73.832727 213.578356 
L 90.065455 269.256115 
L 106.298182 255.030455 
L 122.530909 272.518318 
L 138.763636 218.394814 
L 154.996364 153.706138 
L 171.229091 229.197312 
L 187.461818 207.144 
L 203.694545 221.92902 
L 219.927273 246.912196 
L 236.16 284.592188 
L 252.392727 259.15805 
L 268.625455 257.090813 
L 284.858182 263.877499 
L 301.090909 237.143041 
L 317.323636 251.477417 
L 333.556364 251.34607 
L 349.789091 267.268879 
L 366.021818 259.455686 
L 382.254545 274.511033 
L 398.487273 266.605312 
" clip-path="url(#p9a79824c77)" style="fill: none; stroke: #440154; stroke-opacity: 0.5; stroke-width: 1.5; stroke-linecap: square"/>
   </g>
   <g id="line2d_36">
    <path d="M 73.832727 225.936754 
L 90.065455 228.954473 
L 106.298182 189.613276 
L 122.530909 227.540381 
L 138.763636 249.461582 
L 154.996364 261.559729 
L 171.229091 273.323997 
L 187.461818 282.16832 
L 203.694545 272.176789 
L 219.927273 276.0994 
L 236.16 224.958873 
L 252.392727 272.111292 
L 268.625455 273.681147 
L 284.858182 259.019435 
L 301.090909 256.372479 
L 317.323636 280.774391 
L 333.556364 225.191504 
L 349.789091 202.27488 
L 366.021818 273.603279 
L 382.254545 232.417264 
L 398.487273 237.530819 
" clip-path="url(#p9a79824c77)" style="fill: none; stroke: #440154; stroke-opacity: 0.5; stroke-width: 1.5; stroke-linecap: square"/>
   </g>
   <g id="line2d_37">
    <path d="M 73.832727 251.340271 
L 90.065455 263.280117 
L 106.298182 263.312095 
L 122.530909 249.914332 
L 138.763636 267.664254 
L 154.996364 257.124987 
L 171.229091 230.423987 
L 187.461818 244.484504 
L 203.694545 264.264091 
L 219.927273 259.227362 
L 236.16 263.846054 
L 252.392727 247.743164 
L 268.625455 211.714545 
L 284.858182 222.414064 
L 301.090909 260.038895 
L 317.323636 207.947612 
L 333.556364 266.001038 
L 349.789091 210.464583 
L 366.021818 223.29231 
L 382.254545 216.052084 
L 398.487273 272.321082 
" clip-path="url(#p9a79824c77)" style="fill: none; stroke: #440154; stroke-opacity: 0.5; stroke-width: 1.5; stroke-linecap: square"/>
   </g>
   <g id="line2d_38">
    <path d="M 73.832727 237.108424 
L 90.065455 247.633153 
L 106.298182 174.633949 
L 122.530909 231.361596 
L 138.763636 244.786676 
L 154.996364 232.659256 
L 171.229091 234.330039 
L 187.461818 242.893738 
L 203.694545 251.656551 
L 219.927273 239.291005 
L 236.16 251.027534 
L 252.392727 223.748843 
L 268.625455 191.350851 
L 284.858182 224.418251 
L 301.090909 229.023979 
L 317.323636 218.277848 
L 333.556364 243.285135 
L 349.789091 182.743112 
L 366.021818 222.550185 
L 382.254545 184.500114 
L 398.487273 224.805001 
" clip-path="url(#p9a79824c77)" style="fill: none; stroke: #440154; stroke-opacity: 0.5; stroke-width: 1.5; stroke-linecap: square"/>
   </g>
   <g id="line2d_39">
    <path d="M 73.832727 274.627276 
L 90.065455 277.135165 
L 106.298182 276.382161 
L 122.530909 252.766455 
L 138.763636 265.354801 
L 154.996364 282.014083 
L 171.229091 280.045248 
L 187.461818 280.6812 
L 203.694545 268.978609 
L 219.927273 271.175788 
L 236.16 262.123568 
L 252.392727 250.836287 
L 268.625455 274.123807 
L 284.858182 257.72185 
L 301.090909 265.170274 
L 317.323636 273.717502 
L 333.556364 264.825267 
L 349.789091 238.63194 
L 366.021818 260.640146 
L 382.254545 247.67291 
L 398.487273 237.679478 
" clip-path="url(#p9a79824c77)" style="fill: none; stroke: #440154; stroke-opacity: 0.5; stroke-width: 1.5; stroke-linecap: square"/>
   </g>
   <g id="line2d_40">
    <path d="M 73.832727 265.516702 
L 90.065455 278.371986 
L 106.298182 265.626826 
L 122.530909 264.505369 
L 138.763636 269.094324 
L 154.996364 268.701661 
L 171.229091 276.142156 
L 187.461818 275.001018 
L 203.694545 278.385357 
L 219.927273 267.968756 
L 236.16 255.794951 
L 252.392727 251.497158 
L 268.625455 283.970781 
L 284.858182 277.153218 
L 301.090909 252.302469 
L 317.323636 256.961762 
L 333.556364 239.317956 
L 349.789091 261.646277 
L 366.021818 272.032971 
L 382.254545 272.0462 
L 398.487273 262.316207 
" clip-path="url(#p9a79824c77)" style="fill: none; stroke: #440154; stroke-opacity: 0.5; stroke-width: 1.5; stroke-linecap: square"/>
   </g>
   <g id="line2d_41">
    <path d="M 73.832727 241.904068 
L 90.065455 265.392633 
L 106.298182 265.136274 
L 122.530909 267.633143 
L 138.763636 269.356922 
L 154.996364 271.473173 
L 171.229091 278.79105 
L 187.461818 274.98269 
L 203.694545 283.93607 
L 219.927273 271.467306 
L 236.16 280.506445 
L 252.392727 258.390544 
L 268.625455 279.674774 
L 284.858182 264.547916 
L 301.090909 272.146795 
L 317.323636 257.813346 
L 333.556364 260.895798 
L 349.789091 263.992743 
L 366.021818 263.135734 
L 382.254545 268.314604 
L 398.487273 262.025305 
" clip-path="url(#p9a79824c77)" style="fill: none; stroke: #440154; stroke-opacity: 0.5; stroke-width: 1.5; stroke-linecap: square"/>
   </g>
   <g id="line2d_42">
    <path d="M 73.832727 258.16177 
L 90.065455 264.603586 
L 106.298182 267.178116 
L 122.530909 282.876431 
L 138.763636 281.6635 
L 154.996364 251.486802 
L 171.229091 278.477101 
L 187.461818 263.649841 
L 203.694545 271.670032 
L 219.927273 271.756055 
L 236.16 257.335775 
L 252.392727 264.12821 
L 268.625455 270.613241 
L 284.858182 276.77458 
L 301.090909 249.147271 
L 317.323636 254.214466 
L 333.556364 269.788883 
L 349.789091 283.720648 
L 366.021818 279.301328 
L 382.254545 265.988011 
L 398.487273 238.545381 
" clip-path="url(#p9a79824c77)" style="fill: none; stroke: #440154; stroke-opacity: 0.5; stroke-width: 1.5; stroke-linecap: square"/>
   </g>
   <g id="line2d_43">
    <path d="M 73.832727 230.513044 
L 90.065455 266.223631 
L 106.298182 266.905938 
L 122.530909 266.508861 
L 138.763636 269.575469 
L 154.996364 268.025701 
L 171.229091 276.329574 
L 187.461818 259.729978 
L 203.694545 276.155416 
L 219.927273 282.188143 
L 236.16 275.940614 
L 252.392727 263.341038 
L 268.625455 263.531318 
L 284.858182 272.005047 
L 301.090909 255.262028 
L 317.323636 275.795258 
L 333.556364 277.201348 
L 349.789091 279.816726 
L 366.021818 266.074404 
L 382.254545 269.621986 
L 398.487273 270.145142 
" clip-path="url(#p9a79824c77)" style="fill: none; stroke: #440154; stroke-opacity: 0.5; stroke-width: 1.5; stroke-linecap: square"/>
   </g>
   <g id="line2d_44">
    <path d="M 73.832727 225.865411 
L 90.065455 269.02556 
L 106.298182 243.105732 
L 122.530909 266.625139 
L 138.763636 283.406666 
L 154.996364 269.438133 
L 171.229091 276.959691 
L 187.461818 267.787908 
L 203.694545 243.185408 
L 219.927273 268.318638 
L 236.16 250.66874 
L 252.392727 262.292238 
L 268.625455 265.470754 
L 284.858182 272.623073 
L 301.090909 265.355574 
L 317.323636 246.209932 
L 333.556364 248.552018 
L 349.789091 262.919268 
L 366.021818 242.270942 
L 382.254545 256.118418 
L 398.487273 260.834466 
" clip-path="url(#p9a79824c77)" style="fill: none; stroke: #440154; stroke-opacity: 0.5; stroke-width: 1.5; stroke-linecap: square"/>
   </g>
   <g id="line2d_45">
    <path d="M 73.832727 269.978056 
L 90.065455 259.378075 
L 106.298182 252.52945 
L 122.530909 269.053184 
L 138.763636 246.159837 
L 154.996364 273.495168 
L 171.229091 261.597719 
L 187.461818 268.106004 
L 203.694545 251.146002 
L 219.927273 246.235907 
L 236.16 282.282443 
L 252.392727 270.404851 
L 268.625455 256.006339 
L 284.858182 250.826567 
L 301.090909 269.504123 
L 317.323636 262.801985 
L 333.556364 267.098532 
L 349.789091 277.559584 
L 366.021818 250.902785 
L 382.254545 262.836086 
L 398.487273 253.751541 
" clip-path="url(#p9a79824c77)" style="fill: none; stroke: #440154; stroke-opacity: 0.5; stroke-width: 1.5; stroke-linecap: square"/>
   </g>
   <g id="line2d_46">
    <path d="M 73.832727 265.38633 
L 90.065455 239.857334 
L 106.298182 259.558736 
L 122.530909 252.617996 
L 138.763636 251.462412 
L 154.996364 275.520961 
L 171.229091 243.376722 
L 187.461818 270.584303 
L 203.694545 276.791933 
L 219.927273 275.38065 
L 236.16 269.604648 
L 252.392727 282.340572 
L 268.625455 260.098272 
L 284.858182 257.099491 
L 301.090909 253.793262 
L 317.323636 250.638732 
L 333.556364 268.982116 
L 349.789091 265.199096 
L 366.021818 270.725931 
L 382.254545 268.420994 
L 398.487273 261.616799 
" clip-path="url(#p9a79824c77)" style="fill: none; stroke: #440154; stroke-opacity: 0.5; stroke-width: 1.5; stroke-linecap: square"/>
   </g>
   <g id="line2d_47">
    <path d="M 73.832727 255.543285 
L 90.065455 275.654041 
L 106.298182 273.904069 
L 122.530909 278.958836 
L 138.763636 279.348777 
L 154.996364 274.440888 
L 171.229091 268.422229 
L 187.461818 266.568325 
L 203.694545 261.203558 
L 219.927273 265.176438 
L 236.16 274.124443 
L 252.392727 269.152029 
L 268.625455 270.830691 
L 284.858182 263.760627 
L 301.090909 271.585677 
L 317.323636 249.302293 
L 333.556364 247.359553 
L 349.789091 276.194098 
L 366.021818 267.460024 
L 382.254545 245.282575 
L 398.487273 269.645892 
" clip-path="url(#p9a79824c77)" style="fill: none; stroke: #440154; stroke-opacity: 0.5; stroke-width: 1.5; stroke-linecap: square"/>
   </g>
   <g id="line2d_48">
    <path d="M 73.832727 263.385663 
L 90.065455 277.898339 
L 106.298182 280.649095 
L 122.530909 274.665727 
L 138.763636 258.437611 
L 154.996364 272.486043 
L 171.229091 259.072444 
L 187.461818 267.887307 
L 203.694545 251.9724 
L 219.927273 249.109463 
L 236.16 267.615721 
L 252.392727 267.554968 
L 268.625455 249.801884 
L 284.858182 254.438378 
L 301.090909 242.757478 
L 317.323636 244.611338 
L 333.556364 253.839794 
L 349.789091 268.050285 
L 366.021818 241.070725 
L 382.254545 265.946863 
L 398.487273 265.14008 
" clip-path="url(#p9a79824c77)" style="fill: none; stroke: #440154; stroke-opacity: 0.5; stroke-width: 1.5; stroke-linecap: square"/>
   </g>
   <g id="line2d_49">
    <path d="M 73.832727 267.391964 
L 90.065455 270.581506 
L 106.298182 284.329558 
L 122.530909 270.746634 
L 138.763636 273.689863 
L 154.996364 280.798605 
L 171.229091 268.825214 
L 187.461818 272.765078 
L 203.694545 276.273326 
L 219.927273 284.27312 
L 236.16 260.952033 
L 252.392727 251.66351 
L 268.625455 244.23698 
L 284.858182 245.339796 
L 301.090909 251.158382 
L 317.323636 241.454848 
L 333.556364 253.954218 
L 349.789091 228.845126 
L 366.021818 245.359781 
L 382.254545 246.882221 
L 398.487273 254.714696 
" clip-path="url(#p9a79824c77)" style="fill: none; stroke: #440154; stroke-opacity: 0.5; stroke-width: 1.5; stroke-linecap: square"/>
   </g>
   <g id="line2d_50">
    <path d="M 73.832727 187.659876 
L 90.065455 264.741201 
L 106.298182 268.979235 
L 122.530909 270.892246 
L 138.763636 229.488905 
L 154.996364 264.805315 
L 171.229091 244.19673 
L 187.461818 267.313708 
L 203.694545 251.127591 
L 219.927273 254.579715 
L 236.16 263.810702 
L 252.392727 247.037552 
L 268.625455 271.708618 
L 284.858182 273.329325 
L 301.090909 239.317019 
L 317.323636 255.317121 
L 333.556364 272.265011 
L 349.789091 269.912255 
L 366.021818 269.650146 
L 382.254545 243.648534 
L 398.487273 265.342953 
" clip-path="url(#p9a79824c77)" style="fill: none; stroke: #440154; stroke-opacity: 0.5; stroke-width: 1.5; stroke-linecap: square"/>
   </g>
   <g id="line2d_51">
    <path d="M 73.832727 260.006821 
L 90.065455 244.60682 
L 106.298182 225.524791 
L 122.530909 250.11266 
L 138.763636 249.84807 
L 154.996364 264.340954 
L 171.229091 268.398165 
L 187.461818 255.966206 
L 203.694545 268.286602 
L 219.927273 278.265541 
L 236.16 219.266277 
L 252.392727 265.524956 
L 268.625455 256.36598 
L 284.858182 224.701223 
L 301.090909 245.50811 
L 317.323636 267.964592 
L 333.556364 245.088011 
L 349.789091 232.232085 
L 366.021818 258.050733 
L 382.254545 267.924199 
L 398.487273 266.477171 
" clip-path="url(#p9a79824c77)" style="fill: none; stroke: #440154; stroke-opacity: 0.5; stroke-width: 1.5; stroke-linecap: square"/>
   </g>
   <g id="line2d_52">
    <path d="M 73.832727 225.130109 
L 90.065455 241.730101 
L 106.298182 237.205662 
L 122.530909 237.14475 
L 138.763636 252.912259 
L 154.996364 236.951953 
L 171.229091 261.176586 
L 187.461818 255.421199 
L 203.694545 247.702302 
L 219.927273 240.288972 
L 236.16 198.464543 
L 252.392727 221.069395 
L 268.625455 255.575474 
L 284.858182 192.308357 
L 301.090909 215.326238 
L 317.323636 243.565634 
L 333.556364 184.669412 
L 349.789091 242.193779 
L 366.021818 239.18814 
L 382.254545 209.86295 
L 398.487273 232.3483 
" clip-path="url(#p9a79824c77)" style="fill: none; stroke: #440154; stroke-opacity: 0.5; stroke-width: 1.5; stroke-linecap: square"/>
   </g>
   <g id="line2d_53">
    <path d="M 73.832727 201.663053 
L 90.065455 173.465138 
L 106.298182 227.146202 
L 122.530909 246.906986 
L 138.763636 217.341005 
L 154.996364 241.170937 
L 171.229091 211.884855 
L 187.461818 280.00474 
L 203.694545 242.770955 
L 219.927273 241.461744 
L 236.16 238.491441 
L 252.392727 238.979162 
L 268.625455 219.324172 
L 284.858182 250.665759 
L 301.090909 237.630763 
L 317.323636 244.158707 
L 333.556364 243.745902 
L 349.789091 252.707594 
L 366.021818 242.803798 
L 382.254545 256.138324 
L 398.487273 241.698735 
" clip-path="url(#p9a79824c77)" style="fill: none; stroke: #440154; stroke-opacity: 0.5; stroke-width: 1.5; stroke-linecap: square"/>
   </g>
   <g id="line2d_54">
    <path d="M 73.832727 237.706171 
L 90.065455 153.309647 
L 106.298182 209.274123 
L 122.530909 220.45623 
L 138.763636 203.905397 
L 154.996364 237.236036 
L 171.229091 269.305364 
L 187.461818 243.863086 
L 203.694545 258.416193 
L 219.927273 270.394862 
L 236.16 257.5428 
L 252.392727 236.546499 
L 268.625455 283.064689 
L 284.858182 287.796839 
L 301.090909 267.607625 
L 317.323636 267.679434 
L 333.556364 282.347169 
L 349.789091 286.254495 
L 366.021818 265.179887 
L 382.254545 281.720766 
L 398.487273 264.19774 
" clip-path="url(#p9a79824c77)" style="fill: none; stroke: #440154; stroke-opacity: 0.5; stroke-width: 1.5; stroke-linecap: square"/>
   </g>
   <g id="line2d_55">
    <path d="M 73.832727 211.838737 
L 90.065455 243.812112 
L 106.298182 230.813658 
L 122.530909 225.692313 
L 138.763636 251.861884 
L 154.996364 250.679224 
L 171.229091 241.058114 
L 187.461818 240.289372 
L 203.694545 231.161217 
L 219.927273 241.035865 
L 236.16 240.957397 
L 252.392727 239.323396 
L 268.625455 234.588134 
L 284.858182 228.62669 
L 301.090909 231.449668 
L 317.323636 237.390389 
L 333.556364 253.083399 
L 349.789091 248.11742 
L 366.021818 229.781678 
L 382.254545 251.076068 
L 398.487273 252.972454 
" clip-path="url(#p9a79824c77)" style="fill: none; stroke: #440154; stroke-opacity: 0.5; stroke-width: 1.5; stroke-linecap: square"/>
   </g>
   <g id="line2d_56">
    <path d="M 73.832727 270.273591 
L 90.065455 236.053395 
L 106.298182 268.53465 
L 122.530909 268.441266 
L 138.763636 270.589177 
L 154.996364 267.155423 
L 171.229091 268.915535 
L 187.461818 270.57059 
L 203.694545 291.165617 
L 219.927273 291.965043 
L 236.16 291.300743 
L 252.392727 292.738732 
L 268.625455 294.907753 
L 284.858182 286.01652 
L 301.090909 295.488 
L 317.323636 290.813175 
L 333.556364 274.241264 
L 349.789091 286.970225 
L 366.021818 291.643908 
L 382.254545 270.671577 
L 398.487273 293.006849 
" clip-path="url(#p9a79824c77)" style="fill: none; stroke: #440154; stroke-opacity: 0.5; stroke-width: 1.5; stroke-linecap: square"/>
   </g>
   <g id="line2d_57">
    <path d="M 73.832727 192.097444 
L 90.065455 236.336234 
L 106.298182 218.138871 
L 122.530909 222.814185 
L 138.763636 185.852047 
L 154.996364 277.281892 
L 171.229091 265.505479 
L 187.461818 283.250173 
L 203.694545 258.514168 
L 219.927273 256.94437 
L 236.16 279.502483 
L 252.392727 277.130562 
L 268.625455 275.123976 
L 284.858182 280.826184 
L 301.090909 277.86762 
L 317.323636 278.742339 
L 333.556364 267.712396 
L 349.789091 259.789134 
L 366.021818 264.382652 
L 382.254545 244.141224 
L 398.487273 283.627187 
" clip-path="url(#p9a79824c77)" style="fill: none; stroke: #440154; stroke-opacity: 0.5; stroke-width: 1.5; stroke-linecap: square"/>
   </g>
   <g id="line2d_58">
    <path d="M 73.832727 217.498502 
L 90.065455 205.532416 
L 106.298182 190.839462 
L 122.530909 208.331932 
L 138.763636 227.431443 
L 154.996364 219.259722 
L 171.229091 236.723889 
L 187.461818 237.48715 
L 203.694545 234.47971 
L 219.927273 210.691496 
L 236.16 226.16532 
L 252.392727 230.226344 
L 268.625455 207.431058 
L 284.858182 247.432444 
L 301.090909 222.213974 
L 317.323636 207.355601 
L 333.556364 249.995872 
L 349.789091 245.866346 
L 366.021818 236.449351 
L 382.254545 231.609547 
L 398.487273 241.2957 
" clip-path="url(#p9a79824c77)" style="fill: none; stroke: #440154; stroke-opacity: 0.5; stroke-width: 1.5; stroke-linecap: square"/>
   </g>
   <g id="line2d_59">
    <path d="M 73.832727 212.484224 
L 90.065455 160.332767 
L 106.298182 214.854124 
L 122.530909 232.399906 
L 138.763636 222.498111 
L 154.996364 246.236628 
L 171.229091 224.574642 
L 187.461818 259.36279 
L 203.694545 229.403907 
L 219.927273 217.429072 
L 236.16 234.47471 
L 252.392727 258.016376 
L 268.625455 242.733123 
L 284.858182 270.659493 
L 301.090909 248.826658 
L 317.323636 269.187332 
L 333.556364 265.836869 
L 349.789091 247.166522 
L 366.021818 218.160471 
L 382.254545 218.234212 
L 398.487273 246.185551 
" clip-path="url(#p9a79824c77)" style="fill: none; stroke: #440154; stroke-opacity: 0.5; stroke-width: 1.5; stroke-linecap: square"/>
   </g>
   <g id="line2d_60">
    <path d="M 73.832727 211.752632 
L 90.065455 186.9154 
L 106.298182 181.041017 
L 122.530909 191.118067 
L 138.763636 203.182576 
L 154.996364 185.153837 
L 171.229091 214.076689 
L 187.461818 220.752706 
L 203.694545 219.758917 
L 219.927273 229.859107 
L 236.16 233.94862 
L 252.392727 215.222298 
L 268.625455 208.836716 
L 284.858182 215.096768 
L 301.090909 184.870126 
L 317.323636 211.916044 
L 333.556364 221.640396 
L 349.789091 156.876648 
L 366.021818 252.775683 
L 382.254545 190.358605 
L 398.487273 256.793927 
" clip-path="url(#p9a79824c77)" style="fill: none; stroke: #440154; stroke-opacity: 0.5; stroke-width: 1.5; stroke-linecap: square"/>
   </g>
   <g id="line2d_61">
    <path d="M 73.832727 145.7759 
L 90.065455 222.802749 
L 106.298182 229.676038 
L 122.530909 231.596016 
L 138.763636 254.984917 
L 154.996364 267.999307 
L 171.229091 266.036136 
L 187.461818 265.516307 
L 203.694545 272.474419 
L 219.927273 255.302026 
L 236.16 251.53772 
L 252.392727 276.083508 
L 268.625455 278.857777 
L 284.858182 252.544476 
L 301.090909 251.928376 
L 317.323636 244.422197 
L 333.556364 242.835012 
L 349.789091 242.005508 
L 366.021818 247.813586 
L 382.254545 248.051967 
L 398.487273 245.675694 
" clip-path="url(#p9a79824c77)" style="fill: none; stroke: #440154; stroke-opacity: 0.5; stroke-width: 1.5; stroke-linecap: square"/>
   </g>
   <g id="line2d_62">
    <path d="M 73.832727 189.095864 
L 90.065455 223.289903 
L 106.298182 166.603276 
L 122.530909 229.56091 
L 138.763636 234.38513 
L 154.996364 219.277018 
L 171.229091 258.88095 
L 187.461818 246.867643 
L 203.694545 252.8909 
L 219.927273 247.982579 
L 236.16 247.59566 
L 252.392727 270.352078 
L 268.625455 262.567441 
L 284.858182 238.566358 
L 301.090909 250.590851 
L 317.323636 238.336635 
L 333.556364 229.980489 
L 349.789091 253.613588 
L 366.021818 255.764143 
L 382.254545 233.949337 
L 398.487273 238.995818 
" clip-path="url(#p9a79824c77)" style="fill: none; stroke: #440154; stroke-opacity: 0.5; stroke-width: 1.5; stroke-linecap: square"/>
   </g>
   <g id="line2d_63">
    <path d="M 73.832727 219.398451 
L 90.065455 237.755766 
L 106.298182 205.375093 
L 122.530909 207.531789 
L 138.763636 219.729794 
L 154.996364 259.558973 
L 171.229091 230.783734 
L 187.461818 255.466273 
L 203.694545 237.375656 
L 219.927273 234.955223 
L 236.16 256.653784 
L 252.392727 215.926235 
L 268.625455 258.408754 
L 284.858182 252.330085 
L 301.090909 249.359935 
L 317.323636 254.522867 
L 333.556364 248.508349 
L 349.789091 260.347567 
L 366.021818 223.519815 
L 382.254545 242.687617 
L 398.487273 211.486375 
" clip-path="url(#p9a79824c77)" style="fill: none; stroke: #440154; stroke-opacity: 0.5; stroke-width: 1.5; stroke-linecap: square"/>
   </g>
   <g id="line2d_64">
    <path d="M 73.832727 178.71821 
L 90.065455 202.979917 
L 106.298182 202.021229 
L 122.530909 231.044318 
L 138.763636 250.618067 
L 154.996364 251.971008 
L 171.229091 260.772562 
L 187.461818 290.437892 
L 203.694545 285.430937 
L 219.927273 289.724607 
L 236.16 291.325719 
L 252.392727 285.124555 
L 268.625455 266.403116 
L 284.858182 282.893574 
L 301.090909 269.915399 
L 317.323636 288.121624 
L 333.556364 286.190921 
L 349.789091 288.567175 
L 366.021818 283.341014 
L 382.254545 286.100857 
L 398.487273 283.217727 
" clip-path="url(#p9a79824c77)" style="fill: none; stroke: #440154; stroke-opacity: 0.5; stroke-width: 1.5; stroke-linecap: square"/>
   </g>
   <g id="line2d_65">
    <path d="M 73.832727 200.185609 
L 90.065455 223.967935 
L 106.298182 224.798201 
L 122.530909 240.034921 
L 138.763636 254.535526 
L 154.996364 271.023196 
L 171.229091 242.986885 
L 187.461818 277.875847 
L 203.694545 274.750641 
L 219.927273 285.399737 
L 236.16 286.746712 
L 252.392727 277.92764 
L 268.625455 286.061366 
L 284.858182 286.470397 
L 301.090909 287.204152 
L 317.323636 284.63024 
L 333.556364 285.357339 
L 349.789091 280.172849 
L 366.021818 284.938439 
L 382.254545 293.221766 
L 398.487273 289.03987 
" clip-path="url(#p9a79824c77)" style="fill: none; stroke: #440154; stroke-opacity: 0.5; stroke-width: 1.5; stroke-linecap: square"/>
   </g>
   <g id="line2d_66">
    <path d="M 73.832727 225.70418 
L 90.065455 246.243596 
L 106.298182 238.185555 
L 122.530909 171.681613 
L 138.763636 212.137159 
L 154.996364 239.906401 
L 171.229091 248.698336 
L 187.461818 252.362392 
L 203.694545 260.12745 
L 219.927273 251.309095 
L 236.16 265.792053 
L 252.392727 236.310364 
L 268.625455 261.125775 
L 284.858182 267.701504 
L 301.090909 263.339345 
L 317.323636 249.176459 
L 333.556364 263.230074 
L 349.789091 263.884532 
L 366.021818 263.822498 
L 382.254545 257.433996 
L 398.487273 263.095991 
" clip-path="url(#p9a79824c77)" style="fill: none; stroke: #440154; stroke-opacity: 0.5; stroke-width: 1.5; stroke-linecap: square"/>
   </g>
   <g id="line2d_67">
    <path d="M 73.832727 226.338485 
L 90.065455 218.973436 
L 106.298182 241.935871 
L 122.530909 244.946305 
L 138.763636 254.650745 
L 154.996364 248.618178 
L 171.229091 253.935647 
L 187.461818 262.150059 
L 203.694545 256.450884 
L 219.927273 246.719152 
L 236.16 253.448629 
L 252.392727 253.542278 
L 268.625455 259.281148 
L 284.858182 231.428245 
L 301.090909 199.519957 
L 317.323636 251.857679 
L 333.556364 249.656095 
L 349.789091 258.240488 
L 366.021818 272.290465 
L 382.254545 260.381843 
L 398.487273 237.726214 
" clip-path="url(#p9a79824c77)" style="fill: none; stroke: #440154; stroke-opacity: 0.5; stroke-width: 1.5; stroke-linecap: square"/>
   </g>
   <g id="line2d_68">
    <path d="M 73.832727 173.165802 
L 90.065455 200.490226 
L 106.298182 187.710221 
L 122.530909 145.475856 
L 138.763636 208.505085 
L 154.996364 216.568462 
L 171.229091 53.568 
L 187.461818 227.016341 
L 203.694545 172.722661 
L 219.927273 252.758096 
L 236.16 229.325609 
L 252.392727 216.889703 
L 268.625455 169.352856 
L 284.858182 202.238255 
L 301.090909 233.520539 
L 317.323636 209.433413 
L 333.556364 212.129796 
L 349.789091 235.522627 
L 366.021818 248.466267 
L 382.254545 246.517143 
L 398.487273 204.036949 
" clip-path="url(#p9a79824c77)" style="fill: none; stroke: #440154; stroke-opacity: 0.5; stroke-width: 1.5; stroke-linecap: square"/>
   </g>
   <g id="line2d_69">
    <path d="M 73.832727 215.087977 
L 90.065455 151.548102 
L 106.298182 242.113614 
L 122.530909 264.479616 
L 138.763636 186.989448 
L 154.996364 248.362389 
L 171.229091 264.04228 
L 187.461818 243.025821 
L 203.694545 232.182619 
L 219.927273 275.073551 
L 236.16 280.903002 
L 252.392727 268.482515 
L 268.625455 279.878475 
L 284.858182 286.03141 
L 301.090909 264.138757 
L 317.323636 292.621901 
L 333.556364 288.761099 
L 349.789091 281.512855 
L 366.021818 287.371737 
L 382.254545 278.294894 
L 398.487273 264.784167 
" clip-path="url(#p9a79824c77)" style="fill: none; stroke: #440154; stroke-opacity: 0.5; stroke-width: 1.5; stroke-linecap: square"/>
   </g>
   <g id="line2d_70">
    <path d="M 73.832727 112.136481 
L 90.065455 154.152485 
L 106.298182 206.517832 
L 122.530909 149.33092 
L 138.763636 174.046411 
L 154.996364 243.646476 
L 171.229091 198.58765 
L 187.461818 217.019945 
L 203.694545 201.748 
L 219.927273 247.079774 
L 236.16 236.147828 
L 252.392727 214.167308 
L 268.625455 213.677346 
L 284.858182 239.064257 
L 301.090909 239.38191 
L 317.323636 247.862747 
L 333.556364 250.051701 
L 349.789091 240.663688 
L 366.021818 250.010567 
L 382.254545 240.782429 
L 398.487273 254.71731 
" clip-path="url(#p9a79824c77)" style="fill: none; stroke: #440154; stroke-opacity: 0.5; stroke-width: 1.5; stroke-linecap: square"/>
   </g>
   <g id="line2d_71">
    <path d="M 73.832727 167.403813 
L 90.065455 191.049125 
L 106.298182 221.346575 
L 122.530909 207.705134 
L 138.763636 230.687644 
L 154.996364 232.366441 
L 171.229091 193.622431 
L 187.461818 235.941407 
L 203.694545 235.16681 
L 219.927273 244.484546 
L 236.16 221.270411 
L 252.392727 240.683542 
L 268.625455 249.462049 
L 284.858182 239.958269 
L 301.090909 233.198127 
L 317.323636 229.49326 
L 333.556364 251.996927 
L 349.789091 251.819681 
L 366.021818 251.752558 
L 382.254545 254.154886 
L 398.487273 231.692214 
" clip-path="url(#p9a79824c77)" style="fill: none; stroke: #440154; stroke-opacity: 0.5; stroke-width: 1.5; stroke-linecap: square"/>
   </g>
   <g id="line2d_72">
    <path d="M 73.832727 256.625231 
L 90.065455 237.395894 
L 106.298182 273.168678 
L 122.530909 265.049488 
L 138.763636 282.618738 
L 154.996364 274.711611 
L 171.229091 245.404534 
L 187.461818 274.230526 
L 203.694545 272.846944 
L 219.927273 275.593027 
L 236.16 276.933958 
L 252.392727 269.882572 
L 268.625455 288.250141 
L 284.858182 283.663999 
L 301.090909 270.201792 
L 317.323636 262.874691 
L 333.556364 272.172357 
L 349.789091 277.671978 
L 366.021818 267.925105 
L 382.254545 277.580312 
L 398.487273 282.980862 
" clip-path="url(#p9a79824c77)" style="fill: none; stroke: #440154; stroke-opacity: 0.5; stroke-width: 1.5; stroke-linecap: square"/>
   </g>
   <g id="line2d_73">
    <path d="M 73.832727 262.418643 
L 90.065455 238.286123 
L 106.298182 256.224413 
L 122.530909 232.095026 
L 138.763636 257.301144 
L 154.996364 232.223242 
L 171.229091 228.391225 
L 187.461818 241.643338 
L 203.694545 252.158721 
L 219.927273 271.081356 
L 236.16 272.307995 
L 252.392727 253.398952 
L 268.625455 283.966103 
L 284.858182 265.079069 
L 301.090909 256.893724 
L 317.323636 239.022463 
L 333.556364 265.264051 
L 349.789091 250.97886 
L 366.021818 238.775161 
L 382.254545 257.246975 
L 398.487273 255.668614 
" clip-path="url(#p9a79824c77)" style="fill: none; stroke: #440154; stroke-opacity: 0.5; stroke-width: 1.5; stroke-linecap: square"/>
   </g>
   <g id="line2d_74">
    <path d="M 73.832727 224.224691 
L 90.065455 235.213344 
L 106.298182 228.685713 
L 122.530909 232.419797 
L 138.763636 233.337537 
L 154.996364 237.411052 
L 171.229091 257.197342 
L 187.461818 231.338132 
L 203.694545 187.167397 
L 219.927273 248.419651 
L 236.16 244.015855 
L 252.392727 244.249732 
L 268.625455 201.529246 
L 284.858182 269.384148 
L 301.090909 250.342941 
L 317.323636 256.091875 
L 333.556364 247.879006 
L 349.789091 265.688075 
L 366.021818 265.710916 
L 382.254545 262.720402 
L 398.487273 265.545393 
" clip-path="url(#p9a79824c77)" style="fill: none; stroke: #440154; stroke-opacity: 0.5; stroke-width: 1.5; stroke-linecap: square"/>
   </g>
   <g id="line2d_75">
    <path d="M 73.832727 239.88673 
L 90.065455 225.277255 
L 106.298182 213.908921 
L 122.530909 216.79528 
L 138.763636 210.160333 
L 154.996364 249.831521 
L 171.229091 248.163283 
L 187.461818 255.213425 
L 203.694545 260.612235 
L 219.927273 249.165827 
L 236.16 267.249914 
L 252.392727 253.441273 
L 268.625455 253.256304 
L 284.858182 268.278744 
L 301.090909 260.511361 
L 317.323636 259.541929 
L 333.556364 266.179129 
L 349.789091 268.737769 
L 366.021818 245.026952 
L 382.254545 261.71567 
L 398.487273 266.496406 
" clip-path="url(#p9a79824c77)" style="fill: none; stroke: #440154; stroke-opacity: 0.5; stroke-width: 1.5; stroke-linecap: square"/>
   </g>
   <g id="line2d_76">
    <path d="M 73.832727 232.578838 
L 90.065455 198.495996 
L 106.298182 234.465774 
L 122.530909 216.494228 
L 138.763636 242.15422 
L 154.996364 232.219022 
L 171.229091 241.756986 
L 187.461818 245.953761 
L 203.694545 248.934046 
L 219.927273 169.249529 
L 236.16 223.707501 
L 252.392727 244.934785 
L 268.625455 227.381769 
L 284.858182 231.766965 
L 301.090909 243.637124 
L 317.323636 254.770768 
L 333.556364 235.788793 
L 349.789091 248.477526 
L 366.021818 246.479859 
L 382.254545 232.045311 
L 398.487273 249.541133 
" clip-path="url(#p9a79824c77)" style="fill: none; stroke: #440154; stroke-opacity: 0.5; stroke-width: 1.5; stroke-linecap: square"/>
   </g>
   <g id="line2d_77">
    <path d="M 73.832727 241.640568 
L 90.065455 201.547111 
L 106.298182 197.869059 
L 122.530909 211.969359 
L 138.763636 217.726142 
L 154.996364 249.622462 
L 171.229091 238.279846 
L 187.461818 268.267826 
L 203.694545 282.152214 
L 219.927273 267.678729 
L 236.16 282.081436 
L 252.392727 290.787532 
L 268.625455 256.233383 
L 284.858182 274.97546 
L 301.090909 279.574824 
L 317.323636 250.350227 
L 333.556364 278.369468 
L 349.789091 279.602316 
L 366.021818 271.519194 
L 382.254545 280.476129 
L 398.487273 248.977748 
" clip-path="url(#p9a79824c77)" style="fill: none; stroke: #440154; stroke-opacity: 0.5; stroke-width: 1.5; stroke-linecap: square"/>
   </g>
   <g id="line2d_78">
    <path d="M 73.832727 182.204949 
L 90.065455 202.669747 
L 106.298182 226.257655 
L 122.530909 220.708694 
L 138.763636 227.31408 
L 154.996364 230.811422 
L 171.229091 223.840798 
L 187.461818 232.877735 
L 203.694545 217.582154 
L 219.927273 254.140406 
L 236.16 251.630867 
L 252.392727 269.961448 
L 268.625455 253.202833 
L 284.858182 279.952761 
L 301.090909 254.429994 
L 317.323636 208.35658 
L 333.556364 241.740602 
L 349.789091 262.245586 
L 366.021818 231.673872 
L 382.254545 278.741015 
L 398.487273 234.701169 
" clip-path="url(#p9a79824c77)" style="fill: none; stroke: #440154; stroke-opacity: 0.5; stroke-width: 1.5; stroke-linecap: square"/>
   </g>
   <g id="line2d_79">
    <path d="M 73.832727 180.79066 
L 90.065455 215.363241 
L 106.298182 191.548787 
L 122.530909 215.428242 
L 138.763636 232.29528 
L 154.996364 248.153848 
L 171.229091 251.735425 
L 187.461818 260.201136 
L 203.694545 250.06082 
L 219.927273 245.702083 
L 236.16 233.35622 
L 252.392727 226.058106 
L 268.625455 249.124526 
L 284.858182 257.608648 
L 301.090909 247.844573 
L 317.323636 245.388164 
L 333.556364 251.668791 
L 349.789091 249.497887 
L 366.021818 236.52015 
L 382.254545 253.214132 
L 398.487273 261.047915 
" clip-path="url(#p9a79824c77)" style="fill: none; stroke: #440154; stroke-opacity: 0.5; stroke-width: 1.5; stroke-linecap: square"/>
   </g>
   <g id="line2d_80">
    <path d="M 73.832727 235.897545 
L 90.065455 180.136149 
L 106.298182 242.92572 
L 122.530909 231.341206 
L 138.763636 243.33463 
L 154.996364 258.478474 
L 171.229091 278.435257 
L 187.461818 268.364576 
L 203.694545 271.379105 
L 219.927273 264.19016 
L 236.16 258.027526 
L 252.392727 274.231235 
L 268.625455 281.002335 
L 284.858182 290.918191 
L 301.090909 288.672341 
L 317.323636 275.363227 
L 333.556364 277.395078 
L 349.789091 274.413534 
L 366.021818 263.403536 
L 382.254545 262.174104 
L 398.487273 267.673282 
" clip-path="url(#p9a79824c77)" style="fill: none; stroke: #440154; stroke-opacity: 0.5; stroke-width: 1.5; stroke-linecap: square"/>
   </g>
   <g id="line2d_81">
    <path d="M 73.832727 193.390599 
L 90.065455 109.332597 
L 106.298182 242.097851 
L 122.530909 186.554435 
L 138.763636 225.644064 
L 154.996364 236.499297 
L 171.229091 256.430265 
L 187.461818 253.065427 
L 203.694545 251.564675 
L 219.927273 250.944445 
L 236.16 255.556226 
L 252.392727 269.835173 
L 268.625455 269.93609 
L 284.858182 284.209634 
L 301.090909 275.792624 
L 317.323636 267.841483 
L 333.556364 268.853394 
L 349.789091 273.990701 
L 366.021818 235.41075 
L 382.254545 259.35126 
L 398.487273 289.786869 
" clip-path="url(#p9a79824c77)" style="fill: none; stroke: #440154; stroke-opacity: 0.5; stroke-width: 1.5; stroke-linecap: square"/>
   </g>
   <g id="line2d_82">
    <path d="M 73.832727 202.217085 
L 90.065455 189.767117 
L 106.298182 216.396327 
L 122.530909 228.953282 
L 138.763636 239.674982 
L 154.996364 232.81846 
L 171.229091 238.822007 
L 187.461818 248.188812 
L 203.694545 207.480323 
L 219.927273 233.961139 
L 236.16 235.955462 
L 252.392727 243.116531 
L 268.625455 223.531607 
L 284.858182 237.355688 
L 301.090909 238.652381 
L 317.323636 246.574387 
L 333.556364 241.094518 
L 349.789091 221.052637 
L 366.021818 200.015065 
L 382.254545 230.011921 
L 398.487273 243.489801 
" clip-path="url(#p9a79824c77)" style="fill: none; stroke: #440154; stroke-opacity: 0.5; stroke-width: 1.5; stroke-linecap: square"/>
   </g>
   <g id="line2d_83">
    <path d="M 73.832727 111.213035 
L 90.065455 204.182283 
L 106.298182 208.277413 
L 122.530909 167.171143 
L 138.763636 212.743468 
L 154.996364 201.875443 
L 171.229091 157.490141 
L 187.461818 211.66379 
L 203.694545 227.552149 
L 219.927273 199.354295 
L 236.16 209.339002 
L 252.392727 204.267587 
L 268.625455 222.881283 
L 284.858182 222.293058 
L 301.090909 206.123157 
L 317.323636 196.492449 
L 333.556364 203.189729 
L 349.789091 189.75396 
L 366.021818 169.815499 
L 382.254545 229.374971 
L 398.487273 201.504439 
" clip-path="url(#p9a79824c77)" style="fill: none; stroke: #440154; stroke-opacity: 0.5; stroke-width: 1.5; stroke-linecap: square"/>
   </g>
   <g id="line2d_84">
    <path d="M 73.832727 177.413107 
L 90.065455 179.033219 
L 106.298182 241.53427 
L 122.530909 238.65868 
L 138.763636 241.323138 
L 154.996364 255.354324 
L 171.229091 249.141267 
L 187.461818 224.334814 
L 203.694545 254.373927 
L 219.927273 217.870082 
L 236.16 224.994577 
L 252.392727 251.374205 
L 268.625455 197.500496 
L 284.858182 239.274462 
L 301.090909 240.717284 
L 317.323636 227.248479 
L 333.556364 230.038998 
L 349.789091 258.616788 
L 366.021818 225.877644 
L 382.254545 219.227882 
L 398.487273 264.735221 
" clip-path="url(#p9a79824c77)" style="fill: none; stroke: #440154; stroke-opacity: 0.5; stroke-width: 1.5; stroke-linecap: square"/>
   </g>
   <g id="line2d_85">
    <path d="M 73.832727 239.100322 
L 90.065455 229.072914 
L 106.298182 237.395415 
L 122.530909 230.312206 
L 138.763636 246.844174 
L 154.996364 257.704513 
L 171.229091 285.159058 
L 187.461818 246.202845 
L 203.694545 259.936729 
L 219.927273 255.591514 
L 236.16 271.798818 
L 252.392727 269.143015 
L 268.625455 272.444516 
L 284.858182 251.636303 
L 301.090909 274.46988 
L 317.323636 258.686578 
L 333.556364 250.751646 
L 349.789091 260.298593 
L 366.021818 245.655599 
L 382.254545 263.943158 
L 398.487273 262.509818 
" clip-path="url(#p9a79824c77)" style="fill: none; stroke: #440154; stroke-opacity: 0.5; stroke-width: 1.5; stroke-linecap: square"/>
   </g>
   <g id="line2d_86">
    <path d="M 73.832727 234.111461 
L 90.065455 232.544903 
L 106.298182 227.420075 
L 122.530909 255.924553 
L 138.763636 236.797012 
L 154.996364 254.689676 
L 171.229091 269.016941 
L 187.461818 248.613818 
L 203.694545 264.843574 
L 219.927273 227.701339 
L 236.16 258.856872 
L 252.392727 260.720227 
L 268.625455 254.834848 
L 284.858182 189.548566 
L 301.090909 253.771825 
L 317.323636 227.05269 
L 333.556364 236.781514 
L 349.789091 268.19406 
L 366.021818 235.680218 
L 382.254545 245.793137 
L 398.487273 243.095107 
" clip-path="url(#p9a79824c77)" style="fill: none; stroke: #440154; stroke-opacity: 0.5; stroke-width: 1.5; stroke-linecap: square"/>
   </g>
   <g id="line2d_87">
    <path d="M 73.832727 233.40227 
L 90.065455 228.471107 
L 106.298182 219.768236 
L 122.530909 225.23388 
L 138.763636 239.827439 
L 154.996364 251.525441 
L 171.229091 223.076369 
L 187.461818 241.163644 
L 203.694545 243.592129 
L 219.927273 232.015284 
L 236.16 261.993231 
L 252.392727 243.049153 
L 268.625455 238.179464 
L 284.858182 232.328934 
L 301.090909 229.733407 
L 317.323636 233.563411 
L 333.556364 225.42207 
L 349.789091 235.536072 
L 366.021818 213.866449 
L 382.254545 237.495278 
L 398.487273 239.285462 
" clip-path="url(#p9a79824c77)" style="fill: none; stroke: #440154; stroke-opacity: 0.5; stroke-width: 1.5; stroke-linecap: square"/>
   </g>
   <g id="line2d_88">
    <path d="M 73.832727 193.133666 
L 90.065455 257.600749 
L 106.298182 202.286798 
L 122.530909 233.496324 
L 138.763636 248.356309 
L 154.996364 270.153584 
L 171.229091 279.396908 
L 187.461818 278.321198 
L 203.694545 286.269834 
L 219.927273 278.187759 
L 236.16 283.467854 
L 252.392727 270.225979 
L 268.625455 283.597969 
L 284.858182 275.473163 
L 301.090909 281.373317 
L 317.323636 276.971599 
L 333.556364 289.570461 
L 349.789091 286.323711 
L 366.021818 284.949706 
L 382.254545 285.73161 
L 398.487273 283.54123 
" clip-path="url(#p9a79824c77)" style="fill: none; stroke: #440154; stroke-opacity: 0.5; stroke-width: 1.5; stroke-linecap: square"/>
   </g>
   <g id="line2d_89">
    <path d="M 73.832727 128.41142 
L 90.065455 246.687903 
L 106.298182 150.9708 
L 122.530909 260.903795 
L 138.763636 247.439597 
L 154.996364 263.215814 
L 171.229091 280.585179 
L 187.461818 244.611807 
L 203.694545 277.262991 
L 219.927273 268.579278 
L 236.16 280.215614 
L 252.392727 266.107862 
L 268.625455 275.613558 
L 284.858182 282.892467 
L 301.090909 290.477452 
L 317.323636 284.160477 
L 333.556364 272.244816 
L 349.789091 289.36783 
L 366.021818 290.993649 
L 382.254545 288.629517 
L 398.487273 264.176133 
" clip-path="url(#p9a79824c77)" style="fill: none; stroke: #440154; stroke-opacity: 0.5; stroke-width: 1.5; stroke-linecap: square"/>
   </g>
   <g id="line2d_90">
    <path d="M 73.832727 238.816333 
L 90.065455 229.163972 
L 106.298182 228.602449 
L 122.530909 245.923531 
L 138.763636 236.812538 
L 154.996364 252.343723 
L 171.229091 246.213179 
L 187.461818 256.571889 
L 203.694545 253.022077 
L 219.927273 213.976777 
L 236.16 233.59087 
L 252.392727 228.389516 
L 268.625455 234.091091 
L 284.858182 209.729253 
L 301.090909 216.071023 
L 317.323636 227.395176 
L 333.556364 228.131679 
L 349.789091 231.613909 
L 366.021818 210.496489 
L 382.254545 238.577461 
L 398.487273 237.08213 
" clip-path="url(#p9a79824c77)" style="fill: none; stroke: #440154; stroke-opacity: 0.5; stroke-width: 1.5; stroke-linecap: square"/>
   </g>
   <g id="line2d_91">
    <path d="M 73.832727 229.152345 
L 90.065455 235.203075 
L 106.298182 239.597065 
L 122.530909 227.656665 
L 138.763636 228.900892 
L 154.996364 264.414483 
L 171.229091 256.523689 
L 187.461818 269.928572 
L 203.694545 275.312893 
L 219.927273 260.706626 
L 236.16 263.31706 
L 252.392727 256.626123 
L 268.625455 268.775444 
L 284.858182 241.116944 
L 301.090909 262.866064 
L 317.323636 266.281757 
L 333.556364 264.698955 
L 349.789091 253.354277 
L 366.021818 262.102774 
L 382.254545 272.713004 
L 398.487273 274.052793 
" clip-path="url(#p9a79824c77)" style="fill: none; stroke: #440154; stroke-opacity: 0.5; stroke-width: 1.5; stroke-linecap: square"/>
   </g>
   <g id="line2d_92">
    <path d="M 73.832727 166.449192 
L 90.065455 213.55037 
L 106.298182 218.390503 
L 122.530909 229.220379 
L 138.763636 243.916752 
L 154.996364 238.712751 
L 171.229091 227.123675 
L 187.461818 235.611475 
L 203.694545 232.826246 
L 219.927273 225.596664 
L 236.16 231.503883 
L 252.392727 249.110892 
L 268.625455 199.847202 
L 284.858182 203.171037 
L 301.090909 215.286747 
L 317.323636 237.456196 
L 333.556364 234.66305 
L 349.789091 232.886247 
L 366.021818 247.996841 
L 382.254545 245.40645 
L 398.487273 240.62816 
" clip-path="url(#p9a79824c77)" style="fill: none; stroke: #440154; stroke-opacity: 0.5; stroke-width: 1.5; stroke-linecap: square"/>
   </g>
   <g id="line2d_93">
    <path d="M 73.832727 145.877189 
L 90.065455 220.694735 
L 106.298182 243.515641 
L 122.530909 252.777123 
L 138.763636 239.803443 
L 154.996364 254.434204 
L 171.229091 266.316078 
L 187.461818 247.236334 
L 203.694545 274.111276 
L 219.927273 260.82299 
L 236.16 273.906811 
L 252.392727 258.365432 
L 268.625455 259.020481 
L 284.858182 265.382953 
L 301.090909 276.718651 
L 317.323636 266.830961 
L 333.556364 250.872771 
L 349.789091 271.736246 
L 366.021818 250.231344 
L 382.254545 253.532029 
L 398.487273 249.271047 
" clip-path="url(#p9a79824c77)" style="fill: none; stroke: #440154; stroke-opacity: 0.5; stroke-width: 1.5; stroke-linecap: square"/>
   </g>
   <g id="line2d_94">
    <path d="M 73.832727 183.962397 
L 90.065455 220.538957 
L 106.298182 248.461707 
L 122.530909 215.238156 
L 138.763636 238.997486 
L 154.996364 248.522665 
L 171.229091 245.301273 
L 187.461818 262.601907 
L 203.694545 279.255016 
L 219.927273 264.960877 
L 236.16 291.484529 
L 252.392727 278.907441 
L 268.625455 276.786389 
L 284.858182 276.032495 
L 301.090909 276.622758 
L 317.323636 265.354469 
L 333.556364 253.363592 
L 349.789091 262.097468 
L 366.021818 251.693066 
L 382.254545 249.923324 
L 398.487273 262.081161 
" clip-path="url(#p9a79824c77)" style="fill: none; stroke: #440154; stroke-opacity: 0.5; stroke-width: 1.5; stroke-linecap: square"/>
   </g>
   <g id="line2d_95">
    <path d="M 73.832727 234.610379 
L 90.065455 214.107742 
L 106.298182 227.433822 
L 122.530909 207.760313 
L 138.763636 229.890168 
L 154.996364 248.006153 
L 171.229091 241.976598 
L 187.461818 225.150001 
L 203.694545 233.033842 
L 219.927273 249.241758 
L 236.16 230.938775 
L 252.392727 233.290261 
L 268.625455 238.151546 
L 284.858182 246.16718 
L 301.090909 245.297768 
L 317.323636 229.838784 
L 333.556364 246.987831 
L 349.789091 243.1101 
L 366.021818 229.960083 
L 382.254545 248.082622 
L 398.487273 223.968545 
" clip-path="url(#p9a79824c77)" style="fill: none; stroke: #440154; stroke-opacity: 0.5; stroke-width: 1.5; stroke-linecap: square"/>
   </g>
   <g id="line2d_96">
    <path d="M 73.832727 251.342907 
L 90.065455 256.735003 
L 106.298182 279.615092 
L 122.530909 280.874736 
L 138.763636 277.597014 
L 154.996364 265.417955 
L 171.229091 267.63808 
L 187.461818 282.936918 
L 203.694545 276.310393 
L 219.927273 272.789631 
L 236.16 278.132129 
L 252.392727 273.412734 
L 268.625455 278.376807 
L 284.858182 270.879367 
L 301.090909 274.558662 
L 317.323636 287.441093 
L 333.556364 293.158882 
L 349.789091 293.132967 
L 366.021818 271.134323 
L 382.254545 284.248752 
L 398.487273 280.257708 
" clip-path="url(#p9a79824c77)" style="fill: none; stroke: #440154; stroke-opacity: 0.5; stroke-width: 1.5; stroke-linecap: square"/>
   </g>
   <g id="line2d_97">
    <path d="M 73.832727 237.421485 
L 90.065455 249.75463 
L 106.298182 269.806604 
L 122.530909 255.935314 
L 138.763636 257.371359 
L 154.996364 253.487753 
L 171.229091 262.283421 
L 187.461818 265.675776 
L 203.694545 257.409891 
L 219.927273 247.478846 
L 236.16 263.657119 
L 252.392727 269.958842 
L 268.625455 252.514341 
L 284.858182 254.96677 
L 301.090909 269.680858 
L 317.323636 263.030167 
L 333.556364 286.619521 
L 349.789091 285.687196 
L 366.021818 232.204283 
L 382.254545 280.400235 
L 398.487273 270.432433 
" clip-path="url(#p9a79824c77)" style="fill: none; stroke: #440154; stroke-opacity: 0.5; stroke-width: 1.5; stroke-linecap: square"/>
   </g>
   <g id="line2d_98">
    <path d="M 73.832727 215.947021 
L 90.065455 263.591325 
L 106.298182 253.221127 
L 122.530909 236.002017 
L 138.763636 226.44385 
L 154.996364 234.133016 
L 171.229091 236.419071 
L 187.461818 249.621698 
L 203.694545 239.209905 
L 219.927273 222.545362 
L 236.16 226.870961 
L 252.392727 246.955517 
L 268.625455 237.552111 
L 284.858182 271.463413 
L 301.090909 262.738812 
L 317.323636 210.566619 
L 333.556364 216.117896 
L 349.789091 241.428147 
L 366.021818 252.663523 
L 382.254545 248.897585 
L 398.487273 232.278394 
" clip-path="url(#p9a79824c77)" style="fill: none; stroke: #440154; stroke-opacity: 0.5; stroke-width: 1.5; stroke-linecap: square"/>
   </g>
   <g id="line2d_99">
    <path d="M 73.832727 254.119418 
L 90.065455 254.461467 
L 106.298182 257.855313 
L 122.530909 251.762334 
L 138.763636 252.592401 
L 154.996364 268.213422 
L 171.229091 256.51543 
L 187.461818 267.417467 
L 203.694545 251.587239 
L 219.927273 253.024562 
L 236.16 250.204158 
L 252.392727 252.930167 
L 268.625455 265.175874 
L 284.858182 265.556141 
L 301.090909 254.92036 
L 317.323636 262.145658 
L 333.556364 263.17132 
L 349.789091 264.478947 
L 366.021818 262.146284 
L 382.254545 244.693776 
L 398.487273 262.078971 
" clip-path="url(#p9a79824c77)" style="fill: none; stroke: #440154; stroke-opacity: 0.5; stroke-width: 1.5; stroke-linecap: square"/>
   </g>
   <g id="line2d_100">
    <path d="M 73.832727 166.452097 
L 90.065455 204.71764 
L 106.298182 214.271099 
L 122.530909 262.667178 
L 138.763636 250.657402 
L 154.996364 254.677587 
L 171.229091 270.089816 
L 187.461818 237.031823 
L 203.694545 241.47331 
L 219.927273 252.111579 
L 236.16 242.240506 
L 252.392727 249.459447 
L 268.625455 258.80286 
L 284.858182 159.114714 
L 301.090909 255.877317 
L 317.323636 233.682416 
L 333.556364 211.459412 
L 349.789091 183.28757 
L 366.021818 228.748722 
L 382.254545 178.206811 
L 398.487273 224.619832 
" clip-path="url(#p9a79824c77)" style="fill: none; stroke: #440154; stroke-opacity: 0.5; stroke-width: 1.5; stroke-linecap: square"/>
   </g>
   <g id="patch_3">
    <path d="M 57.6 307.584 
L 57.6 41.472 
" style="fill: none; stroke: #000000; stroke-width: 3; stroke-linejoin: miter; stroke-linecap: square"/>
   </g>
   <g id="patch_4">
    <path d="M 414.72 307.584 
L 414.72 41.472 
" style="fill: none; stroke: #000000; stroke-width: 3; stroke-linejoin: miter; stroke-linecap: square"/>
   </g>
   <g id="patch_5">
    <path d="M 57.6 307.584 
L 414.72 307.584 
" style="fill: none; stroke: #000000; stroke-width: 3; stroke-linejoin: miter; stroke-linecap: square"/>
   </g>
   <g id="patch_6">
    <path d="M 57.6 41.472 
L 414.72 41.472 
" style="fill: none; stroke: #000000; stroke-width: 3; stroke-linejoin: miter; stroke-linecap: square"/>
   </g>
   <g id="text_11">
    <!-- Atom Type H (n=90, mean Q=6.93) -->
    <g transform="translate(40.225937 35.472) scale(0.22 -0.22)">
     <defs>
      <path id="DejaVuSans-41" d="M 2188 4044 
L 1331 1722 
L 3047 1722 
L 2188 4044 
z
M 1831 4666 
L 2547 4666 
L 4325 0 
L 3669 0 
L 3244 1197 
L 1141 1197 
L 716 0 
L 50 0 
L 1831 4666 
z
" transform="scale(0.015625)"/>
      <path id="DejaVuSans-74" d="M 1172 4494 
L 1172 3500 
L 2356 3500 
L 2356 3053 
L 1172 3053 
L 1172 1153 
Q 1172 725 1289 603 
Q 1406 481 1766 481 
L 2356 481 
L 2356 0 
L 1766 0 
Q 1100 0 847 248 
Q 594 497 594 1153 
L 594 3053 
L 172 3053 
L 172 3500 
L 594 3500 
L 594 4494 
L 1172 4494 
z
" transform="scale(0.015625)"/>
      <path id="DejaVuSans-6f" d="M 1959 3097 
Q 1497 3097 1228 2736 
Q 959 2375 959 1747 
Q 959 1119 1226 758 
Q 1494 397 1959 397 
Q 2419 397 2687 759 
Q 2956 1122 2956 1747 
Q 2956 2369 2687 2733 
Q 2419 3097 1959 3097 
z
M 1959 3584 
Q 2709 3584 3137 3096 
Q 3566 2609 3566 1747 
Q 3566 888 3137 398 
Q 2709 -91 1959 -91 
Q 1206 -91 779 398 
Q 353 888 353 1747 
Q 353 2609 779 3096 
Q 1206 3584 1959 3584 
z
" transform="scale(0.015625)"/>
      <path id="DejaVuSans-6d" d="M 3328 2828 
Q 3544 3216 3844 3400 
Q 4144 3584 4550 3584 
Q 5097 3584 5394 3201 
Q 5691 2819 5691 2113 
L 5691 0 
L 5113 0 
L 5113 2094 
Q 5113 2597 4934 2840 
Q 4756 3084 4391 3084 
Q 3944 3084 3684 2787 
Q 3425 2491 3425 1978 
L 3425 0 
L 2847 0 
L 2847 2094 
Q 2847 2600 2669 2842 
Q 2491 3084 2119 3084 
Q 1678 3084 1418 2786 
Q 1159 2488 1159 1978 
L 1159 0 
L 581 0 
L 581 3500 
L 1159 3500 
L 1159 2956 
Q 1356 3278 1631 3431 
Q 1906 3584 2284 3584 
Q 2666 3584 2933 3390 
Q 3200 3197 3328 2828 
z
" transform="scale(0.015625)"/>
      <path id="DejaVuSans-20" transform="scale(0.015625)"/>
      <path id="DejaVuSans-54" d="M -19 4666 
L 3928 4666 
L 3928 4134 
L 2272 4134 
L 2272 0 
L 1638 0 
L 1638 4134 
L -19 4134 
L -19 4666 
z
" transform="scale(0.015625)"/>
      <path id="DejaVuSans-79" d="M 2059 -325 
Q 1816 -950 1584 -1140 
Q 1353 -1331 966 -1331 
L 506 -1331 
L 506 -850 
L 844 -850 
Q 1081 -850 1212 -737 
Q 1344 -625 1503 -206 
L 1606 56 
L 191 3500 
L 800 3500 
L 1894 763 
L 2988 3500 
L 3597 3500 
L 2059 -325 
z
" transform="scale(0.015625)"/>
      <path id="DejaVuSans-70" d="M 1159 525 
L 1159 -1331 
L 581 -1331 
L 581 3500 
L 1159 3500 
L 1159 2969 
Q 1341 3281 1617 3432 
Q 1894 3584 2278 3584 
Q 2916 3584 3314 3078 
Q 3713 2572 3713 1747 
Q 3713 922 3314 415 
Q 2916 -91 2278 -91 
Q 1894 -91 1617 61 
Q 1341 213 1159 525 
z
M 3116 1747 
Q 3116 2381 2855 2742 
Q 2594 3103 2138 3103 
Q 1681 3103 1420 2742 
Q 1159 2381 1159 1747 
Q 1159 1113 1420 752 
Q 1681 391 2138 391 
Q 2594 391 2855 752 
Q 3116 1113 3116 1747 
z
" transform="scale(0.015625)"/>
      <path id="DejaVuSans-65" d="M 3597 1894 
L 3597 1613 
L 953 1613 
Q 991 1019 1311 708 
Q 1631 397 2203 397 
Q 2534 397 2845 478 
Q 3156 559 3463 722 
L 3463 178 
Q 3153 47 2828 -22 
Q 2503 -91 2169 -91 
Q 1331 -91 842 396 
Q 353 884 353 1716 
Q 353 2575 817 3079 
Q 1281 3584 2069 3584 
Q 2775 3584 3186 3129 
Q 3597 2675 3597 1894 
z
M 3022 2063 
Q 3016 2534 2758 2815 
Q 2500 3097 2075 3097 
Q 1594 3097 1305 2825 
Q 1016 2553 972 2059 
L 3022 2063 
z
" transform="scale(0.015625)"/>
      <path id="DejaVuSans-48" d="M 628 4666 
L 1259 4666 
L 1259 2753 
L 3553 2753 
L 3553 4666 
L 4184 4666 
L 4184 0 
L 3553 0 
L 3553 2222 
L 1259 2222 
L 1259 0 
L 628 0 
L 628 4666 
z
" transform="scale(0.015625)"/>
      <path id="DejaVuSans-28" d="M 1984 4856 
Q 1566 4138 1362 3434 
Q 1159 2731 1159 2009 
Q 1159 1288 1364 580 
Q 1569 -128 1984 -844 
L 1484 -844 
Q 1016 -109 783 600 
Q 550 1309 550 2009 
Q 550 2706 781 3412 
Q 1013 4119 1484 4856 
L 1984 4856 
z
" transform="scale(0.015625)"/>
      <path id="DejaVuSans-6e" d="M 3513 2113 
L 3513 0 
L 2938 0 
L 2938 2094 
Q 2938 2591 2744 2837 
Q 2550 3084 2163 3084 
Q 1697 3084 1428 2787 
Q 1159 2491 1159 1978 
L 1159 0 
L 581 0 
L 581 3500 
L 1159 3500 
L 1159 2956 
Q 1366 3272 1645 3428 
Q 1925 3584 2291 3584 
Q 2894 3584 3203 3211 
Q 3513 2838 3513 2113 
z
" transform="scale(0.015625)"/>
      <path id="DejaVuSans-3d" d="M 678 2906 
L 4684 2906 
L 4684 2381 
L 678 2381 
L 678 2906 
z
M 678 1631 
L 4684 1631 
L 4684 1100 
L 678 1100 
L 678 1631 
z
" transform="scale(0.015625)"/>
      <path id="DejaVuSans-39" d="M 703 97 
L 703 672 
Q 941 559 1184 500 
Q 1428 441 1663 441 
Q 2288 441 2617 861 
Q 2947 1281 2994 2138 
Q 2813 1869 2534 1725 
Q 2256 1581 1919 1581 
Q 1219 1581 811 2004 
Q 403 2428 403 3163 
Q 403 3881 828 4315 
Q 1253 4750 1959 4750 
Q 2769 4750 3195 4129 
Q 3622 3509 3622 2328 
Q 3622 1225 3098 567 
Q 2575 -91 1691 -91 
Q 1453 -91 1209 -44 
Q 966 3 703 97 
z
M 1959 2075 
Q 2384 2075 2632 2365 
Q 2881 2656 2881 3163 
Q 2881 3666 2632 3958 
Q 2384 4250 1959 4250 
Q 1534 4250 1286 3958 
Q 1038 3666 1038 3163 
Q 1038 2656 1286 2365 
Q 1534 2075 1959 2075 
z
" transform="scale(0.015625)"/>
      <path id="DejaVuSans-2c" d="M 750 794 
L 1409 794 
L 1409 256 
L 897 -744 
L 494 -744 
L 750 256 
L 750 794 
z
" transform="scale(0.015625)"/>
      <path id="DejaVuSans-61" d="M 2194 1759 
Q 1497 1759 1228 1600 
Q 959 1441 959 1056 
Q 959 750 1161 570 
Q 1363 391 1709 391 
Q 2188 391 2477 730 
Q 2766 1069 2766 1631 
L 2766 1759 
L 2194 1759 
z
M 3341 1997 
L 3341 0 
L 2766 0 
L 2766 531 
Q 2569 213 2275 61 
Q 1981 -91 1556 -91 
Q 1019 -91 701 211 
Q 384 513 384 1019 
Q 384 1609 779 1909 
Q 1175 2209 1959 2209 
L 2766 2209 
L 2766 2266 
Q 2766 2663 2505 2880 
Q 2244 3097 1772 3097 
Q 1472 3097 1187 3025 
Q 903 2953 641 2809 
L 641 3341 
Q 956 3463 1253 3523 
Q 1550 3584 1831 3584 
Q 2591 3584 2966 3190 
Q 3341 2797 3341 1997 
z
" transform="scale(0.015625)"/>
      <path id="DejaVuSans-51" d="M 2522 4238 
Q 1834 4238 1429 3725 
Q 1025 3213 1025 2328 
Q 1025 1447 1429 934 
Q 1834 422 2522 422 
Q 3209 422 3611 934 
Q 4013 1447 4013 2328 
Q 4013 3213 3611 3725 
Q 3209 4238 2522 4238 
z
M 3406 84 
L 4238 -825 
L 3475 -825 
L 2784 -78 
Q 2681 -84 2626 -87 
Q 2572 -91 2522 -91 
Q 1538 -91 948 567 
Q 359 1225 359 2328 
Q 359 3434 948 4092 
Q 1538 4750 2522 4750 
Q 3503 4750 4090 4092 
Q 4678 3434 4678 2328 
Q 4678 1516 4351 937 
Q 4025 359 3406 84 
z
" transform="scale(0.015625)"/>
      <path id="DejaVuSans-36" d="M 2113 2584 
Q 1688 2584 1439 2293 
Q 1191 2003 1191 1497 
Q 1191 994 1439 701 
Q 1688 409 2113 409 
Q 2538 409 2786 701 
Q 3034 994 3034 1497 
Q 3034 2003 2786 2293 
Q 2538 2584 2113 2584 
z
M 3366 4563 
L 3366 3988 
Q 3128 4100 2886 4159 
Q 2644 4219 2406 4219 
Q 1781 4219 1451 3797 
Q 1122 3375 1075 2522 
Q 1259 2794 1537 2939 
Q 1816 3084 2150 3084 
Q 2853 3084 3261 2657 
Q 3669 2231 3669 1497 
Q 3669 778 3244 343 
Q 2819 -91 2113 -91 
Q 1303 -91 875 529 
Q 447 1150 447 2328 
Q 447 3434 972 4092 
Q 1497 4750 2381 4750 
Q 2619 4750 2861 4703 
Q 3103 4656 3366 4563 
z
" transform="scale(0.015625)"/>
      <path id="DejaVuSans-2e" d="M 684 794 
L 1344 794 
L 1344 0 
L 684 0 
L 684 794 
z
" transform="scale(0.015625)"/>
      <path id="DejaVuSans-33" d="M 2597 2516 
Q 3050 2419 3304 2112 
Q 3559 1806 3559 1356 
Q 3559 666 3084 287 
Q 2609 -91 1734 -91 
Q 1441 -91 1130 -33 
Q 819 25 488 141 
L 488 750 
Q 750 597 1062 519 
Q 1375 441 1716 441 
Q 2309 441 2620 675 
Q 2931 909 2931 1356 
Q 2931 1769 2642 2001 
Q 2353 2234 1838 2234 
L 1294 2234 
L 1294 2753 
L 1863 2753 
Q 2328 2753 2575 2939 
Q 2822 3125 2822 3475 
Q 2822 3834 2567 4026 
Q 2313 4219 1838 4219 
Q 1578 4219 1281 4162 
Q 984 4106 628 3988 
L 628 4550 
Q 988 4650 1302 4700 
Q 1616 4750 1894 4750 
Q 2613 4750 3031 4423 
Q 3450 4097 3450 3541 
Q 3450 3153 3228 2886 
Q 3006 2619 2597 2516 
z
" transform="scale(0.015625)"/>
      <path id="DejaVuSans-29" d="M 513 4856 
L 1013 4856 
Q 1481 4119 1714 3412 
Q 1947 2706 1947 2009 
Q 1947 1309 1714 600 
Q 1481 -109 1013 -844 
L 513 -844 
Q 928 -128 1133 580 
Q 1338 1288 1338 2009 
Q 1338 2731 1133 3434 
Q 928 4138 513 4856 
z
" transform="scale(0.015625)"/>
     </defs>
     <use xlink:href="#DejaVuSans-41"/>
     <use xlink:href="#DejaVuSans-74" transform="translate(66.658203 0)"/>
     <use xlink:href="#DejaVuSans-6f" transform="translate(105.867188 0)"/>
     <use xlink:href="#DejaVuSans-6d" transform="translate(167.048828 0)"/>
     <use xlink:href="#DejaVuSans-20" transform="translate(264.460938 0)"/>
     <use xlink:href="#DejaVuSans-54" transform="translate(296.248047 0)"/>
     <use xlink:href="#DejaVuSans-79" transform="translate(341.707031 0)"/>
     <use xlink:href="#DejaVuSans-70" transform="translate(400.886719 0)"/>
     <use xlink:href="#DejaVuSans-65" transform="translate(464.363281 0)"/>
     <use xlink:href="#DejaVuSans-20" transform="translate(525.886719 0)"/>
     <use xlink:href="#DejaVuSans-48" transform="translate(557.673828 0)"/>
     <use xlink:href="#DejaVuSans-20" transform="translate(632.869141 0)"/>
     <use xlink:href="#DejaVuSans-28" transform="translate(664.65625 0)"/>
     <use xlink:href="#DejaVuSans-6e" transform="translate(703.669922 0)"/>
     <use xlink:href="#DejaVuSans-3d" transform="translate(767.048828 0)"/>
     <use xlink:href="#DejaVuSans-39" transform="translate(850.837891 0)"/>
     <use xlink:href="#DejaVuSans-30" transform="translate(914.460938 0)"/>
     <use xlink:href="#DejaVuSans-2c" transform="translate(978.083984 0)"/>
     <use xlink:href="#DejaVuSans-20" transform="translate(1009.871094 0)"/>
     <use xlink:href="#DejaVuSans-6d" transform="translate(1041.658203 0)"/>
     <use xlink:href="#DejaVuSans-65" transform="translate(1139.070312 0)"/>
     <use xlink:href="#DejaVuSans-61" transform="translate(1200.59375 0)"/>
     <use xlink:href="#DejaVuSans-6e" transform="translate(1261.873047 0)"/>
     <use xlink:href="#DejaVuSans-20" transform="translate(1325.251953 0)"/>
     <use xlink:href="#DejaVuSans-51" transform="translate(1357.039062 0)"/>
     <use xlink:href="#DejaVuSans-3d" transform="translate(1435.75 0)"/>
     <use xlink:href="#DejaVuSans-36" transform="translate(1519.539062 0)"/>
     <use xlink:href="#DejaVuSans-2e" transform="translate(1583.162109 0)"/>
     <use xlink:href="#DejaVuSans-39" transform="translate(1614.949219 0)"/>
     <use xlink:href="#DejaVuSans-33" transform="translate(1678.572266 0)"/>
     <use xlink:href="#DejaVuSans-29" transform="translate(1742.195312 0)"/>
    </g>
   </g>
  </g>
 </g>
 <defs>
  <clipPath id="p9a79824c77">
   <rect x="57.6" y="41.472" width="357.12" height="266.112"/>
  </clipPath>
 </defs>
</svg>
