<?xml version="1.0" encoding="utf-8" standalone="no"?>
<!DOCTYPE svg PUBLIC "-//W3C//DTD SVG 1.1//EN"
  "http://www.w3.org/Graphics/SVG/1.1/DTD/svg11.dtd">
<svg xmlns:xlink="http://www.w3.org/1999/xlink" width="460.8pt" height="345.6pt" viewBox="0 0 460.8 345.6" xmlns="http://www.w3.org/2000/svg" version="1.1">
 <metadata>
  <rdf:RDF xmlns:dc="http://purl.org/dc/elements/1.1/" xmlns:cc="http://creativecommons.org/ns#" xmlns:rdf="http://www.w3.org/1999/02/22-rdf-syntax-ns#">
   <cc:Work>
    <dc:type rdf:resource="http://purl.org/dc/dcmitype/StillImage"/>
    <dc:date>2025-12-10T13:48:28.848572</dc:date>
    <dc:format>image/svg+xml</dc:format>
    <dc:creator>
     <cc:Agent>
      <dc:title>Matplotlib v3.10.3, https://matplotlib.org/</dc:title>
     </cc:Agent>
    </dc:creator>
   </cc:Work>
  </rdf:RDF>
 </metadata>
 <defs>
  <style type="text/css">*{stroke-linejoin: round; stroke-linecap: butt}</style>
 </defs>
 <g id="figure_1">
  <g id="patch_1">
   <path d="M 0 345.6 
L 460.8 345.6 
L 460.8 0 
L 0 0 
z
" style="fill: #ffffff"/>
  </g>
  <g id="axes_1">
   <g id="patch_2">
    <path d="M 57.6 307.584 
L 414.72 307.584 
L 414.72 41.472 
L 57.6 41.472 
z
" style="fill: #ffffff"/>
   </g>
   <g id="matplotlib.axis_1">
    <g id="xtick_1">
     <g id="line2d_1">
      <defs>
       <path id="m7885342846" d="M 0 0 
L 0 3.5 
" style="stroke: #000000; stroke-width: 0.8"/>
      </defs>
      <g>
       <use xlink:href="#m7885342846" x="73.832727" y="307.584" style="stroke: #000000; stroke-width: 0.8"/>
      </g>
     </g>
     <g id="text_1">
      <!-- 0 -->
      <g transform="translate(69.060852 325.981656) scale(0.15 -0.15)">
       <defs>
        <path id="DejaVuSans-30" d="M 2034 4250 
Q 1547 4250 1301 3770 
Q 1056 3291 1056 2328 
Q 1056 1369 1301 889 
Q 1547 409 2034 409 
Q 2525 409 2770 889 
Q 3016 1369 3016 2328 
Q 3016 3291 2770 3770 
Q 2525 4250 2034 4250 
z
M 2034 4750 
Q 2819 4750 3233 4129 
Q 3647 3509 3647 2328 
Q 3647 1150 3233 529 
Q 2819 -91 2034 -91 
Q 1250 -91 836 529 
Q 422 1150 422 2328 
Q 422 3509 836 4129 
Q 1250 4750 2034 4750 
z
" transform="scale(0.015625)"/>
       </defs>
       <use xlink:href="#DejaVuSans-30"/>
      </g>
     </g>
    </g>
    <g id="xtick_2">
     <g id="line2d_2">
      <g>
       <use xlink:href="#m7885342846" x="154.996364" y="307.584" style="stroke: #000000; stroke-width: 0.8"/>
      </g>
     </g>
     <g id="text_2">
      <!-- 5 -->
      <g transform="translate(150.224489 325.981656) scale(0.15 -0.15)">
       <defs>
        <path id="DejaVuSans-35" d="M 691 4666 
L 3169 4666 
L 3169 4134 
L 1269 4134 
L 1269 2991 
Q 1406 3038 1543 3061 
Q 1681 3084 1819 3084 
Q 2600 3084 3056 2656 
Q 3513 2228 3513 1497 
Q 3513 744 3044 326 
Q 2575 -91 1722 -91 
Q 1428 -91 1123 -41 
Q 819 9 494 109 
L 494 744 
Q 775 591 1075 516 
Q 1375 441 1709 441 
Q 2250 441 2565 725 
Q 2881 1009 2881 1497 
Q 2881 1984 2565 2268 
Q 2250 2553 1709 2553 
Q 1456 2553 1204 2497 
Q 953 2441 691 2322 
L 691 4666 
z
" transform="scale(0.015625)"/>
       </defs>
       <use xlink:href="#DejaVuSans-35"/>
      </g>
     </g>
    </g>
    <g id="xtick_3">
     <g id="line2d_3">
      <g>
       <use xlink:href="#m7885342846" x="236.16" y="307.584" style="stroke: #000000; stroke-width: 0.8"/>
      </g>
     </g>
     <g id="text_3">
      <!-- 10 -->
      <g transform="translate(226.61625 325.981656) scale(0.15 -0.15)">
       <defs>
        <path id="DejaVuSans-31" d="M 794 531 
L 1825 531 
L 1825 4091 
L 703 3866 
L 703 4441 
L 1819 4666 
L 2450 4666 
L 2450 531 
L 3481 531 
L 3481 0 
L 794 0 
L 794 531 
z
" transform="scale(0.015625)"/>
       </defs>
       <use xlink:href="#DejaVuSans-31"/>
       <use xlink:href="#DejaVuSans-30" transform="translate(63.623047 0)"/>
      </g>
     </g>
    </g>
    <g id="xtick_4">
     <g id="line2d_4">
      <g>
       <use xlink:href="#m7885342846" x="317.323636" y="307.584" style="stroke: #000000; stroke-width: 0.8"/>
      </g>
     </g>
     <g id="text_4">
      <!-- 15 -->
      <g transform="translate(307.779886 325.981656) scale(0.15 -0.15)">
       <use xlink:href="#DejaVuSans-31"/>
       <use xlink:href="#DejaVuSans-35" transform="translate(63.623047 0)"/>
      </g>
     </g>
    </g>
    <g id="xtick_5">
     <g id="line2d_5">
      <g>
       <use xlink:href="#m7885342846" x="398.487273" y="307.584" style="stroke: #000000; stroke-width: 0.8"/>
      </g>
     </g>
     <g id="text_5">
      <!-- 20 -->
      <g transform="translate(388.943523 325.981656) scale(0.15 -0.15)">
       <defs>
        <path id="DejaVuSans-32" d="M 1228 531 
L 3431 531 
L 3431 0 
L 469 0 
L 469 531 
Q 828 903 1448 1529 
Q 2069 2156 2228 2338 
Q 2531 2678 2651 2914 
Q 2772 3150 2772 3378 
Q 2772 3750 2511 3984 
Q 2250 4219 1831 4219 
Q 1534 4219 1204 4116 
Q 875 4013 500 3803 
L 500 4441 
Q 881 4594 1212 4672 
Q 1544 4750 1819 4750 
Q 2544 4750 2975 4387 
Q 3406 4025 3406 3419 
Q 3406 3131 3298 2873 
Q 3191 2616 2906 2266 
Q 2828 2175 2409 1742 
Q 1991 1309 1228 531 
z
" transform="scale(0.015625)"/>
       </defs>
       <use xlink:href="#DejaVuSans-32"/>
       <use xlink:href="#DejaVuSans-30" transform="translate(63.623047 0)"/>
      </g>
     </g>
    </g>
   </g>
   <g id="matplotlib.axis_2">
    <g id="ytick_1">
     <g id="line2d_6">
      <defs>
       <path id="m39f1db8d23" d="M 0 0 
L -3.5 0 
" style="stroke: #000000; stroke-width: 0.8"/>
      </defs>
      <g>
       <use xlink:href="#m39f1db8d23" x="57.6" y="294.944227" style="stroke: #000000; stroke-width: 0.8"/>
      </g>
     </g>
     <g id="text_6">
      <!-- 2.5 -->
      <g transform="translate(26.745313 300.643055) scale(0.15 -0.15)">
       <defs>
        <path id="DejaVuSans-2e" d="M 684 794 
L 1344 794 
L 1344 0 
L 684 0 
L 684 794 
z
" transform="scale(0.015625)"/>
       </defs>
       <use xlink:href="#DejaVuSans-32"/>
       <use xlink:href="#DejaVuSans-2e" transform="translate(63.623047 0)"/>
       <use xlink:href="#DejaVuSans-35" transform="translate(95.410156 0)"/>
      </g>
     </g>
    </g>
    <g id="ytick_2">
     <g id="line2d_7">
      <g>
       <use xlink:href="#m39f1db8d23" x="57.6" y="259.846989" style="stroke: #000000; stroke-width: 0.8"/>
      </g>
     </g>
     <g id="text_7">
      <!-- 5.0 -->
      <g transform="translate(26.745313 265.545817) scale(0.15 -0.15)">
       <use xlink:href="#DejaVuSans-35"/>
       <use xlink:href="#DejaVuSans-2e" transform="translate(63.623047 0)"/>
       <use xlink:href="#DejaVuSans-30" transform="translate(95.410156 0)"/>
      </g>
     </g>
    </g>
    <g id="ytick_3">
     <g id="line2d_8">
      <g>
       <use xlink:href="#m39f1db8d23" x="57.6" y="224.749751" style="stroke: #000000; stroke-width: 0.8"/>
      </g>
     </g>
     <g id="text_8">
      <!-- 7.5 -->
      <g transform="translate(26.745313 230.448579) scale(0.15 -0.15)">
       <defs>
        <path id="DejaVuSans-37" d="M 525 4666 
L 3525 4666 
L 3525 4397 
L 1831 0 
L 1172 0 
L 2766 4134 
L 525 4134 
L 525 4666 
z
" transform="scale(0.015625)"/>
       </defs>
       <use xlink:href="#DejaVuSans-37"/>
       <use xlink:href="#DejaVuSans-2e" transform="translate(63.623047 0)"/>
       <use xlink:href="#DejaVuSans-35" transform="translate(95.410156 0)"/>
      </g>
     </g>
    </g>
    <g id="ytick_4">
     <g id="line2d_9">
      <g>
       <use xlink:href="#m39f1db8d23" x="57.6" y="189.652513" style="stroke: #000000; stroke-width: 0.8"/>
      </g>
     </g>
     <g id="text_9">
      <!-- 10.0 -->
      <g transform="translate(17.201563 195.351341) scale(0.15 -0.15)">
       <use xlink:href="#DejaVuSans-31"/>
       <use xlink:href="#DejaVuSans-30" transform="translate(63.623047 0)"/>
       <use xlink:href="#DejaVuSans-2e" transform="translate(127.246094 0)"/>
       <use xlink:href="#DejaVuSans-30" transform="translate(159.033203 0)"/>
      </g>
     </g>
    </g>
    <g id="ytick_5">
     <g id="line2d_10">
      <g>
       <use xlink:href="#m39f1db8d23" x="57.6" y="154.555275" style="stroke: #000000; stroke-width: 0.8"/>
      </g>
     </g>
     <g id="text_10">
      <!-- 12.5 -->
      <g transform="translate(17.201563 160.254103) scale(0.15 -0.15)">
       <use xlink:href="#DejaVuSans-31"/>
       <use xlink:href="#DejaVuSans-32" transform="translate(63.623047 0)"/>
       <use xlink:href="#DejaVuSans-2e" transform="translate(127.246094 0)"/>
       <use xlink:href="#DejaVuSans-35" transform="translate(159.033203 0)"/>
      </g>
     </g>
    </g>
    <g id="ytick_6">
     <g id="line2d_11">
      <g>
       <use xlink:href="#m39f1db8d23" x="57.6" y="119.458037" style="stroke: #000000; stroke-width: 0.8"/>
      </g>
     </g>
     <g id="text_11">
      <!-- 15.0 -->
      <g transform="translate(17.201563 125.156865) scale(0.15 -0.15)">
       <use xlink:href="#DejaVuSans-31"/>
       <use xlink:href="#DejaVuSans-35" transform="translate(63.623047 0)"/>
       <use xlink:href="#DejaVuSans-2e" transform="translate(127.246094 0)"/>
       <use xlink:href="#DejaVuSans-30" transform="translate(159.033203 0)"/>
      </g>
     </g>
    </g>
    <g id="ytick_7">
     <g id="line2d_12">
      <g>
       <use xlink:href="#m39f1db8d23" x="57.6" y="84.360799" style="stroke: #000000; stroke-width: 0.8"/>
      </g>
     </g>
     <g id="text_12">
      <!-- 17.5 -->
      <g transform="translate(17.201563 90.059627) scale(0.15 -0.15)">
       <use xlink:href="#DejaVuSans-31"/>
       <use xlink:href="#DejaVuSans-37" transform="translate(63.623047 0)"/>
       <use xlink:href="#DejaVuSans-2e" transform="translate(127.246094 0)"/>
       <use xlink:href="#DejaVuSans-35" transform="translate(159.033203 0)"/>
      </g>
     </g>
    </g>
    <g id="ytick_8">
     <g id="line2d_13">
      <g>
       <use xlink:href="#m39f1db8d23" x="57.6" y="49.263561" style="stroke: #000000; stroke-width: 0.8"/>
      </g>
     </g>
     <g id="text_13">
      <!-- 20.0 -->
      <g transform="translate(17.201563 54.962389) scale(0.15 -0.15)">
       <use xlink:href="#DejaVuSans-32"/>
       <use xlink:href="#DejaVuSans-30" transform="translate(63.623047 0)"/>
       <use xlink:href="#DejaVuSans-2e" transform="translate(127.246094 0)"/>
       <use xlink:href="#DejaVuSans-30" transform="translate(159.033203 0)"/>
      </g>
     </g>
    </g>
   </g>
   <g id="line2d_14">
    <path d="M 73.832727 229.623128 
L 90.065455 176.7112 
L 106.298182 178.974366 
L 122.530909 220.601368 
L 138.763636 213.591646 
L 154.996364 193.098586 
L 171.229091 213.4532 
L 187.461818 228.303047 
L 203.694545 197.84977 
L 219.927273 223.915105 
L 236.16 182.49722 
L 252.392727 224.490212 
L 268.625455 214.007546 
L 284.858182 200.79683 
L 301.090909 200.243122 
L 317.323636 220.81577 
L 333.556364 240.525881 
L 349.789091 231.40587 
L 366.021818 208.525482 
L 382.254545 184.443005 
L 398.487273 219.755025 
" clip-path="url(#pf0908ac7f1)" style="fill: none; stroke: #35b779; stroke-opacity: 0.5; stroke-width: 1.5; stroke-linecap: square"/>
   </g>
   <g id="line2d_15">
    <path d="M 73.832727 219.194343 
L 90.065455 215.57048 
L 106.298182 179.804337 
L 122.530909 226.476262 
L 138.763636 216.720698 
L 154.996364 148.225847 
L 171.229091 191.637797 
L 187.461818 214.745826 
L 203.694545 210.746756 
L 219.927273 198.277111 
L 236.16 214.934208 
L 252.392727 205.42475 
L 268.625455 194.885806 
L 284.858182 192.297309 
L 301.090909 217.548217 
L 317.323636 206.854714 
L 333.556364 234.157898 
L 349.789091 150.343234 
L 366.021818 200.183677 
L 382.254545 215.879241 
L 398.487273 226.188901 
" clip-path="url(#pf0908ac7f1)" style="fill: none; stroke: #35b779; stroke-opacity: 0.5; stroke-width: 1.5; stroke-linecap: square"/>
   </g>
   <g id="line2d_16">
    <path d="M 73.832727 207.506692 
L 90.065455 145.18764 
L 106.298182 240.573892 
L 122.530909 235.928591 
L 138.763636 202.548729 
L 154.996364 200.414594 
L 171.229091 200.992871 
L 187.461818 209.302175 
L 203.694545 251.69736 
L 219.927273 221.563986 
L 236.16 154.267644 
L 252.392727 214.048762 
L 268.625455 211.202253 
L 284.858182 156.446927 
L 301.090909 205.9004 
L 317.323636 193.590606 
L 333.556364 213.339048 
L 349.789091 217.67448 
L 366.021818 189.634039 
L 382.254545 179.55405 
L 398.487273 190.783147 
" clip-path="url(#pf0908ac7f1)" style="fill: none; stroke: #35b779; stroke-opacity: 0.5; stroke-width: 1.5; stroke-linecap: square"/>
   </g>
   <g id="line2d_17">
    <path d="M 73.832727 159.514871 
L 90.065455 199.265652 
L 106.298182 201.281926 
L 122.530909 205.633615 
L 138.763636 258.573729 
L 154.996364 193.082016 
L 171.229091 261.343104 
L 187.461818 192.694424 
L 203.694545 263.888825 
L 219.927273 274.995542 
L 236.16 269.4904 
L 252.392727 256.455467 
L 268.625455 271.91605 
L 284.858182 259.254857 
L 301.090909 277.369494 
L 317.323636 272.474365 
L 333.556364 263.808184 
L 349.789091 255.035725 
L 366.021818 274.886849 
L 382.254545 255.103129 
L 398.487273 283.674254 
" clip-path="url(#pf0908ac7f1)" style="fill: none; stroke: #35b779; stroke-opacity: 0.5; stroke-width: 1.5; stroke-linecap: square"/>
   </g>
   <g id="line2d_18">
    <path d="M 73.832727 212.432985 
L 90.065455 271.150979 
L 106.298182 273.400375 
L 122.530909 262.131048 
L 138.763636 267.689856 
L 154.996364 275.381556 
L 171.229091 227.804833 
L 187.461818 256.135798 
L 203.694545 268.616577 
L 219.927273 246.417833 
L 236.16 270.985295 
L 252.392727 275.082311 
L 268.625455 282.903856 
L 284.858182 256.041207 
L 301.090909 277.462107 
L 317.323636 269.845969 
L 333.556364 268.531905 
L 349.789091 273.620763 
L 366.021818 268.447965 
L 382.254545 262.255179 
L 398.487273 260.875042 
" clip-path="url(#pf0908ac7f1)" style="fill: none; stroke: #35b779; stroke-opacity: 0.5; stroke-width: 1.5; stroke-linecap: square"/>
   </g>
   <g id="line2d_19">
    <path d="M 73.832727 166.686486 
L 90.065455 262.575335 
L 106.298182 232.195413 
L 122.530909 228.098331 
L 138.763636 212.635291 
L 154.996364 237.446895 
L 171.229091 199.107297 
L 187.461818 231.023478 
L 203.694545 237.349248 
L 219.927273 233.24542 
L 236.16 229.204664 
L 252.392727 226.407411 
L 268.625455 239.908388 
L 284.858182 238.100963 
L 301.090909 217.308563 
L 317.323636 196.337798 
L 333.556364 223.803959 
L 349.789091 214.490398 
L 366.021818 233.048798 
L 382.254545 217.222506 
L 398.487273 231.220249 
" clip-path="url(#pf0908ac7f1)" style="fill: none; stroke: #35b779; stroke-opacity: 0.5; stroke-width: 1.5; stroke-linecap: square"/>
   </g>
   <g id="line2d_20">
    <path d="M 73.832727 200.289402 
L 90.065455 223.143171 
L 106.298182 210.180522 
L 122.530909 238.414293 
L 138.763636 268.211983 
L 154.996364 258.48864 
L 171.229091 278.29244 
L 187.461818 267.341055 
L 203.694545 272.557 
L 219.927273 256.300401 
L 236.16 261.148952 
L 252.392727 277.264367 
L 268.625455 272.093611 
L 284.858182 265.69553 
L 301.090909 267.775312 
L 317.323636 272.23219 
L 333.556364 280.036609 
L 349.789091 275.582743 
L 366.021818 265.648851 
L 382.254545 269.863659 
L 398.487273 232.413003 
" clip-path="url(#pf0908ac7f1)" style="fill: none; stroke: #35b779; stroke-opacity: 0.5; stroke-width: 1.5; stroke-linecap: square"/>
   </g>
   <g id="line2d_21">
    <path d="M 73.832727 214.80049 
L 90.065455 243.950408 
L 106.298182 240.831282 
L 122.530909 250.863202 
L 138.763636 258.215495 
L 154.996364 269.309942 
L 171.229091 267.157198 
L 187.461818 257.155097 
L 203.694545 287.055744 
L 219.927273 262.132919 
L 236.16 262.165585 
L 252.392727 273.774365 
L 268.625455 231.458561 
L 284.858182 260.171913 
L 301.090909 264.142748 
L 317.323636 248.48314 
L 333.556364 263.241801 
L 349.789091 258.033449 
L 366.021818 274.561819 
L 382.254545 264.423801 
L 398.487273 276.492007 
" clip-path="url(#pf0908ac7f1)" style="fill: none; stroke: #35b779; stroke-opacity: 0.5; stroke-width: 1.5; stroke-linecap: square"/>
   </g>
   <g id="line2d_22">
    <path d="M 73.832727 207.538458 
L 90.065455 188.91033 
L 106.298182 222.496911 
L 122.530909 258.403884 
L 138.763636 229.751016 
L 154.996364 235.964571 
L 171.229091 246.200058 
L 187.461818 262.539544 
L 203.694545 265.630283 
L 219.927273 254.240947 
L 236.16 266.479242 
L 252.392727 272.939807 
L 268.625455 262.30796 
L 284.858182 276.543694 
L 301.090909 261.86455 
L 317.323636 271.443531 
L 333.556364 274.136868 
L 349.789091 268.754594 
L 366.021818 254.568343 
L 382.254545 260.599636 
L 398.487273 248.622187 
" clip-path="url(#pf0908ac7f1)" style="fill: none; stroke: #35b779; stroke-opacity: 0.5; stroke-width: 1.5; stroke-linecap: square"/>
   </g>
   <g id="line2d_23">
    <path d="M 73.832727 209.804476 
L 90.065455 197.489267 
L 106.298182 188.712742 
L 122.530909 184.913044 
L 138.763636 205.534372 
L 154.996364 217.958753 
L 171.229091 184.774909 
L 187.461818 198.708176 
L 203.694545 188.369178 
L 219.927273 232.454274 
L 236.16 237.819234 
L 252.392727 244.531869 
L 268.625455 190.609247 
L 284.858182 203.282746 
L 301.090909 222.95199 
L 317.323636 230.909125 
L 333.556364 243.930425 
L 349.789091 242.000812 
L 366.021818 261.90987 
L 382.254545 222.920488 
L 398.487273 260.323227 
" clip-path="url(#pf0908ac7f1)" style="fill: none; stroke: #35b779; stroke-opacity: 0.5; stroke-width: 1.5; stroke-linecap: square"/>
   </g>
   <g id="line2d_24">
    <path d="M 73.832727 228.373615 
L 90.065455 233.123574 
L 106.298182 223.152916 
L 122.530909 158.509396 
L 138.763636 263.610416 
L 154.996364 271.483038 
L 171.229091 274.428352 
L 187.461818 273.686123 
L 203.694545 269.081275 
L 219.927273 268.868751 
L 236.16 263.68228 
L 252.392727 265.563847 
L 268.625455 288.146167 
L 284.858182 262.890788 
L 301.090909 266.82243 
L 317.323636 274.716807 
L 333.556364 253.978392 
L 349.789091 282.577308 
L 366.021818 272.423992 
L 382.254545 267.26043 
L 398.487273 253.31587 
" clip-path="url(#pf0908ac7f1)" style="fill: none; stroke: #35b779; stroke-opacity: 0.5; stroke-width: 1.5; stroke-linecap: square"/>
   </g>
   <g id="line2d_25">
    <path d="M 73.832727 267.818466 
L 90.065455 262.448831 
L 106.298182 264.365115 
L 122.530909 261.812853 
L 138.763636 275.18978 
L 154.996364 294.024065 
L 171.229091 275.475233 
L 187.461818 281.97951 
L 203.694545 288.075844 
L 219.927273 274.332098 
L 236.16 272.78823 
L 252.392727 244.199566 
L 268.625455 271.69888 
L 284.858182 281.062176 
L 301.090909 264.672359 
L 317.323636 268.327116 
L 333.556364 264.543833 
L 349.789091 265.610526 
L 366.021818 262.667832 
L 382.254545 267.612399 
L 398.487273 253.384104 
" clip-path="url(#pf0908ac7f1)" style="fill: none; stroke: #35b779; stroke-opacity: 0.5; stroke-width: 1.5; stroke-linecap: square"/>
   </g>
   <g id="line2d_26">
    <path d="M 73.832727 246.713014 
L 90.065455 232.832938 
L 106.298182 156.779922 
L 122.530909 158.195551 
L 138.763636 240.84025 
L 154.996364 274.201069 
L 171.229091 279.903953 
L 187.461818 273.169199 
L 203.694545 277.636867 
L 219.927273 256.186505 
L 236.16 273.846393 
L 252.392727 279.138636 
L 268.625455 245.654025 
L 284.858182 258.584644 
L 301.090909 260.472566 
L 317.323636 290.250366 
L 333.556364 274.446063 
L 349.789091 246.725379 
L 366.021818 280.144395 
L 382.254545 241.379173 
L 398.487273 280.398713 
" clip-path="url(#pf0908ac7f1)" style="fill: none; stroke: #35b779; stroke-opacity: 0.5; stroke-width: 1.5; stroke-linecap: square"/>
   </g>
   <g id="line2d_27">
    <path d="M 73.832727 228.094453 
L 90.065455 236.382827 
L 106.298182 236.35694 
L 122.530909 181.0698 
L 138.763636 232.853566 
L 154.996364 246.248043 
L 171.229091 281.624175 
L 187.461818 266.25573 
L 203.694545 282.909048 
L 219.927273 271.101175 
L 236.16 281.714376 
L 252.392727 263.553418 
L 268.625455 275.967299 
L 284.858182 254.120046 
L 301.090909 286.839191 
L 317.323636 287.918218 
L 333.556364 273.391137 
L 349.789091 283.885362 
L 366.021818 282.988102 
L 382.254545 255.788874 
L 398.487273 247.451224 
" clip-path="url(#pf0908ac7f1)" style="fill: none; stroke: #35b779; stroke-opacity: 0.5; stroke-width: 1.5; stroke-linecap: square"/>
   </g>
   <g id="line2d_28">
    <path d="M 73.832727 137.912448 
L 90.065455 255.261469 
L 106.298182 254.771093 
L 122.530909 280.840269 
L 138.763636 276.272537 
L 154.996364 267.716507 
L 171.229091 251.613221 
L 187.461818 247.067924 
L 203.694545 227.960709 
L 219.927273 201.377261 
L 236.16 218.1216 
L 252.392727 219.931689 
L 268.625455 245.672155 
L 284.858182 227.445135 
L 301.090909 222.271453 
L 317.323636 252.950114 
L 333.556364 249.168464 
L 349.789091 252.365905 
L 366.021818 240.751692 
L 382.254545 249.225641 
L 398.487273 229.526679 
" clip-path="url(#pf0908ac7f1)" style="fill: none; stroke: #35b779; stroke-opacity: 0.5; stroke-width: 1.5; stroke-linecap: square"/>
   </g>
   <g id="line2d_29">
    <path d="M 73.832727 216.319099 
L 90.065455 246.361833 
L 106.298182 259.576046 
L 122.530909 256.86103 
L 138.763636 280.174603 
L 154.996364 267.344109 
L 171.229091 290.665609 
L 187.461818 271.235262 
L 203.694545 285.844573 
L 219.927273 275.215802 
L 236.16 288.949225 
L 252.392727 278.292908 
L 268.625455 262.792817 
L 284.858182 273.916886 
L 301.090909 242.842188 
L 317.323636 290.275346 
L 333.556364 285.45513 
L 349.789091 275.823604 
L 366.021818 268.935418 
L 382.254545 264.024518 
L 398.487273 281.574454 
" clip-path="url(#pf0908ac7f1)" style="fill: none; stroke: #35b779; stroke-opacity: 0.5; stroke-width: 1.5; stroke-linecap: square"/>
   </g>
   <g id="line2d_30">
    <path d="M 73.832727 137.619853 
L 90.065455 194.282372 
L 106.298182 150.781406 
L 122.530909 75.658337 
L 138.763636 123.14913 
L 154.996364 185.127084 
L 171.229091 61.567888 
L 187.461818 106.265542 
L 203.694545 97.955603 
L 219.927273 158.185494 
L 236.16 171.914605 
L 252.392727 184.989142 
L 268.625455 179.389138 
L 284.858182 96.336624 
L 301.090909 163.342215 
L 317.323636 147.999658 
L 333.556364 189.765046 
L 349.789091 173.889516 
L 366.021818 203.060804 
L 382.254545 210.207188 
L 398.487273 200.199597 
" clip-path="url(#pf0908ac7f1)" style="fill: none; stroke: #35b779; stroke-opacity: 0.5; stroke-width: 1.5; stroke-linecap: square"/>
   </g>
   <g id="line2d_31">
    <path d="M 73.832727 68.505194 
L 90.065455 104.792717 
L 106.298182 228.511249 
L 122.530909 229.383791 
L 138.763636 186.444958 
L 154.996364 241.428216 
L 171.229091 200.296943 
L 187.461818 219.693619 
L 203.694545 177.947373 
L 219.927273 203.882485 
L 236.16 236.835763 
L 252.392727 194.258958 
L 268.625455 262.607246 
L 284.858182 197.813622 
L 301.090909 171.681482 
L 317.323636 242.321405 
L 333.556364 171.582309 
L 349.789091 171.710334 
L 366.021818 156.936707 
L 382.254545 164.292638 
L 398.487273 151.72856 
" clip-path="url(#pf0908ac7f1)" style="fill: none; stroke: #35b779; stroke-opacity: 0.5; stroke-width: 1.5; stroke-linecap: square"/>
   </g>
   <g id="line2d_32">
    <path d="M 73.832727 248.599488 
L 90.065455 237.45803 
L 106.298182 283.742634 
L 122.530909 285.638171 
L 138.763636 262.030936 
L 154.996364 261.083094 
L 171.229091 241.587472 
L 187.461818 282.978024 
L 203.694545 277.181232 
L 219.927273 276.133574 
L 236.16 279.941845 
L 252.392727 253.59061 
L 268.625455 260.060674 
L 284.858182 268.738632 
L 301.090909 253.264686 
L 317.323636 262.426512 
L 333.556364 285.975635 
L 349.789091 288.867514 
L 366.021818 279.72406 
L 382.254545 266.172473 
L 398.487273 267.621886 
" clip-path="url(#pf0908ac7f1)" style="fill: none; stroke: #35b779; stroke-opacity: 0.5; stroke-width: 1.5; stroke-linecap: square"/>
   </g>
   <g id="line2d_33">
    <path d="M 73.832727 147.212411 
L 90.065455 199.933206 
L 106.298182 236.363155 
L 122.530909 200.144004 
L 138.763636 234.728455 
L 154.996364 252.704926 
L 171.229091 62.856571 
L 187.461818 243.611777 
L 203.694545 210.043706 
L 219.927273 224.013503 
L 236.16 205.570663 
L 252.392727 231.810384 
L 268.625455 168.009957 
L 284.858182 228.501903 
L 301.090909 186.891617 
L 317.323636 216.855393 
L 333.556364 224.147175 
L 349.789091 233.659183 
L 366.021818 239.296373 
L 382.254545 246.707639 
L 398.487273 210.933773 
" clip-path="url(#pf0908ac7f1)" style="fill: none; stroke: #35b779; stroke-opacity: 0.5; stroke-width: 1.5; stroke-linecap: square"/>
   </g>
   <g id="line2d_34">
    <path d="M 73.832727 258.692322 
L 90.065455 271.285201 
L 106.298182 269.73441 
L 122.530909 263.806938 
L 138.763636 267.734566 
L 154.996364 268.783587 
L 171.229091 280.398037 
L 187.461818 274.323051 
L 203.694545 262.517814 
L 219.927273 267.414502 
L 236.16 269.652222 
L 252.392727 255.589911 
L 268.625455 266.634755 
L 284.858182 281.910621 
L 301.090909 277.799324 
L 317.323636 268.47093 
L 333.556364 281.159805 
L 349.789091 279.809554 
L 366.021818 277.931387 
L 382.254545 269.198248 
L 398.487273 285.576988 
" clip-path="url(#pf0908ac7f1)" style="fill: none; stroke: #35b779; stroke-opacity: 0.5; stroke-width: 1.5; stroke-linecap: square"/>
   </g>
   <g id="line2d_35">
    <path d="M 73.832727 225.462874 
L 90.065455 216.190699 
L 106.298182 257.785746 
L 122.530909 242.35613 
L 138.763636 236.319856 
L 154.996364 255.810787 
L 171.229091 247.642953 
L 187.461818 251.937226 
L 203.694545 274.103086 
L 219.927273 261.545835 
L 236.16 258.886528 
L 252.392727 267.755719 
L 268.625455 262.357116 
L 284.858182 217.990556 
L 301.090909 252.574229 
L 317.323636 261.527742 
L 333.556364 267.231837 
L 349.789091 260.362121 
L 366.021818 264.286123 
L 382.254545 258.43099 
L 398.487273 240.975516 
" clip-path="url(#pf0908ac7f1)" style="fill: none; stroke: #35b779; stroke-opacity: 0.5; stroke-width: 1.5; stroke-linecap: square"/>
   </g>
   <g id="line2d_36">
    <path d="M 73.832727 252.260622 
L 90.065455 250.343157 
L 106.298182 201.470618 
L 122.530909 249.735935 
L 138.763636 215.366813 
L 154.996364 266.941233 
L 171.229091 248.601522 
L 187.461818 259.028919 
L 203.694545 268.467793 
L 219.927273 248.34456 
L 236.16 277.214932 
L 252.392727 284.707852 
L 268.625455 263.897946 
L 284.858182 286.178418 
L 301.090909 281.162812 
L 317.323636 283.463906 
L 333.556364 282.116868 
L 349.789091 279.777588 
L 366.021818 261.86572 
L 382.254545 277.71218 
L 398.487273 269.195124 
" clip-path="url(#pf0908ac7f1)" style="fill: none; stroke: #35b779; stroke-opacity: 0.5; stroke-width: 1.5; stroke-linecap: square"/>
   </g>
   <g id="line2d_37">
    <path d="M 73.832727 186.281436 
L 90.065455 151.427721 
L 106.298182 208.749318 
L 122.530909 218.937903 
L 138.763636 202.507358 
L 154.996364 182.388869 
L 171.229091 152.100082 
L 187.461818 239.998627 
L 203.694545 190.758216 
L 219.927273 220.630742 
L 236.16 233.90118 
L 252.392727 241.305599 
L 268.625455 224.394847 
L 284.858182 226.991353 
L 301.090909 237.197007 
L 317.323636 237.81588 
L 333.556364 225.573415 
L 349.789091 229.993391 
L 366.021818 209.081857 
L 382.254545 202.899996 
L 398.487273 182.889946 
" clip-path="url(#pf0908ac7f1)" style="fill: none; stroke: #35b779; stroke-opacity: 0.5; stroke-width: 1.5; stroke-linecap: square"/>
   </g>
   <g id="line2d_38">
    <path d="M 73.832727 257.743057 
L 90.065455 236.935526 
L 106.298182 141.723389 
L 122.530909 197.988519 
L 138.763636 198.840868 
L 154.996364 188.598152 
L 171.229091 245.68694 
L 187.461818 216.373985 
L 203.694545 197.684312 
L 219.927273 182.178586 
L 236.16 209.504061 
L 252.392727 250.469665 
L 268.625455 199.389377 
L 284.858182 253.882655 
L 301.090909 264.176929 
L 317.323636 264.979084 
L 333.556364 259.029532 
L 349.789091 262.118336 
L 366.021818 238.892916 
L 382.254545 266.039776 
L 398.487273 225.239824 
" clip-path="url(#pf0908ac7f1)" style="fill: none; stroke: #35b779; stroke-opacity: 0.5; stroke-width: 1.5; stroke-linecap: square"/>
   </g>
   <g id="line2d_39">
    <path d="M 73.832727 192.652077 
L 90.065455 227.399045 
L 106.298182 225.114149 
L 122.530909 232.605167 
L 138.763636 226.683965 
L 154.996364 283.577515 
L 171.229091 272.622072 
L 187.461818 290.198567 
L 203.694545 283.670405 
L 219.927273 290.075546 
L 236.16 283.71926 
L 252.392727 289.017022 
L 268.625455 295.488 
L 284.858182 272.724563 
L 301.090909 277.644935 
L 317.323636 277.602172 
L 333.556364 247.733085 
L 349.789091 274.629483 
L 366.021818 281.787543 
L 382.254545 292.943621 
L 398.487273 290.972923 
" clip-path="url(#pf0908ac7f1)" style="fill: none; stroke: #35b779; stroke-opacity: 0.5; stroke-width: 1.5; stroke-linecap: square"/>
   </g>
   <g id="line2d_40">
    <path d="M 73.832727 112.219442 
L 90.065455 209.682419 
L 106.298182 248.671968 
L 122.530909 245.486032 
L 138.763636 244.025141 
L 154.996364 218.794109 
L 171.229091 239.108414 
L 187.461818 232.240713 
L 203.694545 203.995365 
L 219.927273 252.665179 
L 236.16 222.402347 
L 252.392727 53.568 
L 268.625455 230.34855 
L 284.858182 254.492482 
L 301.090909 192.920722 
L 317.323636 211.954661 
L 333.556364 233.30643 
L 349.789091 154.416856 
L 366.021818 208.176732 
L 382.254545 249.931779 
L 398.487273 235.098489 
" clip-path="url(#pf0908ac7f1)" style="fill: none; stroke: #35b779; stroke-opacity: 0.5; stroke-width: 1.5; stroke-linecap: square"/>
   </g>
   <g id="line2d_41">
    <path d="M 73.832727 222.238137 
L 90.065455 259.095578 
L 106.298182 219.537607 
L 122.530909 249.704392 
L 138.763636 247.367746 
L 154.996364 279.676865 
L 171.229091 264.769979 
L 187.461818 249.699114 
L 203.694545 222.61642 
L 219.927273 234.513998 
L 236.16 260.28172 
L 252.392727 248.3721 
L 268.625455 196.93029 
L 284.858182 265.710852 
L 301.090909 241.297578 
L 317.323636 243.638983 
L 333.556364 243.021832 
L 349.789091 232.437802 
L 366.021818 222.179854 
L 382.254545 236.689425 
L 398.487273 232.807944 
" clip-path="url(#pf0908ac7f1)" style="fill: none; stroke: #35b779; stroke-opacity: 0.5; stroke-width: 1.5; stroke-linecap: square"/>
   </g>
   <g id="line2d_42">
    <path d="M 73.832727 255.91884 
L 90.065455 203.932313 
L 106.298182 239.901814 
L 122.530909 144.174655 
L 138.763636 178.625784 
L 154.996364 232.230165 
L 171.229091 214.677472 
L 187.461818 255.279649 
L 203.694545 273.963949 
L 219.927273 236.822068 
L 236.16 235.576986 
L 252.392727 247.050708 
L 268.625455 260.973229 
L 284.858182 258.945619 
L 301.090909 271.885812 
L 317.323636 261.744173 
L 333.556364 264.588379 
L 349.789091 249.365465 
L 366.021818 251.854702 
L 382.254545 259.164832 
L 398.487273 253.822481 
" clip-path="url(#pf0908ac7f1)" style="fill: none; stroke: #35b779; stroke-opacity: 0.5; stroke-width: 1.5; stroke-linecap: square"/>
   </g>
   <g id="line2d_43">
    <path d="M 73.832727 72.588951 
L 90.065455 239.408033 
L 106.298182 240.728316 
L 122.530909 219.635443 
L 138.763636 278.398926 
L 154.996364 253.116969 
L 171.229091 222.077167 
L 187.461818 253.921394 
L 203.694545 257.70331 
L 219.927273 247.780195 
L 236.16 283.545129 
L 252.392727 277.027467 
L 268.625455 273.717052 
L 284.858182 278.052765 
L 301.090909 270.318381 
L 317.323636 256.562548 
L 333.556364 268.468432 
L 349.789091 277.457023 
L 366.021818 265.430976 
L 382.254545 268.190206 
L 398.487273 260.54001 
" clip-path="url(#pf0908ac7f1)" style="fill: none; stroke: #35b779; stroke-opacity: 0.5; stroke-width: 1.5; stroke-linecap: square"/>
   </g>
   <g id="line2d_44">
    <path d="M 73.832727 196.013651 
L 90.065455 184.753965 
L 106.298182 220.658303 
L 122.530909 220.533105 
L 138.763636 218.072162 
L 154.996364 236.59154 
L 171.229091 217.850683 
L 187.461818 223.259616 
L 203.694545 233.442763 
L 219.927273 230.20673 
L 236.16 234.394972 
L 252.392727 239.451506 
L 268.625455 235.271216 
L 284.858182 236.857878 
L 301.090909 227.36958 
L 317.323636 214.708427 
L 333.556364 231.678526 
L 349.789091 229.095867 
L 366.021818 210.309887 
L 382.254545 236.995967 
L 398.487273 232.485196 
" clip-path="url(#pf0908ac7f1)" style="fill: none; stroke: #35b779; stroke-opacity: 0.5; stroke-width: 1.5; stroke-linecap: square"/>
   </g>
   <g id="line2d_45">
    <path d="M 73.832727 157.730252 
L 90.065455 243.539811 
L 106.298182 194.215136 
L 122.530909 196.217317 
L 138.763636 224.847568 
L 154.996364 255.832583 
L 171.229091 230.357443 
L 187.461818 249.448333 
L 203.694545 280.929951 
L 219.927273 258.047573 
L 236.16 224.233632 
L 252.392727 268.417381 
L 268.625455 244.629013 
L 284.858182 232.010461 
L 301.090909 257.572875 
L 317.323636 268.18271 
L 333.556364 256.196993 
L 349.789091 266.860021 
L 366.021818 246.829056 
L 382.254545 269.810553 
L 398.487273 274.934297 
" clip-path="url(#pf0908ac7f1)" style="fill: none; stroke: #35b779; stroke-opacity: 0.5; stroke-width: 1.5; stroke-linecap: square"/>
   </g>
   <g id="line2d_46">
    <path d="M 73.832727 210.762286 
L 90.065455 242.380738 
L 106.298182 245.449479 
L 122.530909 252.022995 
L 138.763636 243.494972 
L 154.996364 254.568526 
L 171.229091 250.014503 
L 187.461818 255.378846 
L 203.694545 253.045146 
L 219.927273 261.310359 
L 236.16 271.038963 
L 252.392727 252.426381 
L 268.625455 267.782443 
L 284.858182 238.190841 
L 301.090909 239.573051 
L 317.323636 235.827815 
L 333.556364 212.067443 
L 349.789091 221.533406 
L 366.021818 250.508258 
L 382.254545 230.274554 
L 398.487273 246.127752 
" clip-path="url(#pf0908ac7f1)" style="fill: none; stroke: #35b779; stroke-opacity: 0.5; stroke-width: 1.5; stroke-linecap: square"/>
   </g>
   <g id="line2d_47">
    <path d="M 73.832727 260.160235 
L 90.065455 243.263979 
L 106.298182 216.653177 
L 122.530909 211.171368 
L 138.763636 230.717673 
L 154.996364 221.131933 
L 171.229091 280.194617 
L 187.461818 201.776188 
L 203.694545 263.01411 
L 219.927273 226.259396 
L 236.16 235.97238 
L 252.392727 205.672207 
L 268.625455 193.76455 
L 284.858182 207.143335 
L 301.090909 242.55638 
L 317.323636 247.766328 
L 333.556364 271.417795 
L 349.789091 239.93849 
L 366.021818 188.997511 
L 382.254545 204.621065 
L 398.487273 224.014547 
" clip-path="url(#pf0908ac7f1)" style="fill: none; stroke: #35b779; stroke-opacity: 0.5; stroke-width: 1.5; stroke-linecap: square"/>
   </g>
   <g id="line2d_48">
    <path d="M 73.832727 270.051348 
L 90.065455 271.640723 
L 106.298182 262.342628 
L 122.530909 282.652792 
L 138.763636 288.197601 
L 154.996364 246.260215 
L 171.229091 256.175206 
L 187.461818 256.336003 
L 203.694545 253.662944 
L 219.927273 236.246634 
L 236.16 257.037184 
L 252.392727 252.991151 
L 268.625455 269.1876 
L 284.858182 289.508662 
L 301.090909 277.949917 
L 317.323636 278.374451 
L 333.556364 278.144324 
L 349.789091 285.340013 
L 366.021818 277.306984 
L 382.254545 286.515105 
L 398.487273 281.959544 
" clip-path="url(#pf0908ac7f1)" style="fill: none; stroke: #35b779; stroke-opacity: 0.5; stroke-width: 1.5; stroke-linecap: square"/>
   </g>
   <g id="line2d_49">
    <path d="M 73.832727 137.336276 
L 90.065455 191.896276 
L 106.298182 247.172609 
L 122.530909 247.642367 
L 138.763636 238.666926 
L 154.996364 242.155465 
L 171.229091 265.063053 
L 187.461818 269.952808 
L 203.694545 251.091895 
L 219.927273 273.364553 
L 236.16 229.458423 
L 252.392727 264.446945 
L 268.625455 259.496568 
L 284.858182 257.332776 
L 301.090909 229.328745 
L 317.323636 257.611224 
L 333.556364 279.045235 
L 349.789091 272.700456 
L 366.021818 210.668388 
L 382.254545 272.807887 
L 398.487273 261.080768 
" clip-path="url(#pf0908ac7f1)" style="fill: none; stroke: #35b779; stroke-opacity: 0.5; stroke-width: 1.5; stroke-linecap: square"/>
   </g>
   <g id="line2d_50">
    <path d="M 73.832727 248.139811 
L 90.065455 260.838463 
L 106.298182 248.977897 
L 122.530909 226.247711 
L 138.763636 250.981129 
L 154.996364 285.06491 
L 171.229091 282.673217 
L 187.461818 274.724974 
L 203.694545 284.291412 
L 219.927273 283.0303 
L 236.16 279.352136 
L 252.392727 282.794057 
L 268.625455 285.992164 
L 284.858182 290.02449 
L 301.090909 282.312445 
L 317.323636 281.762012 
L 333.556364 284.664413 
L 349.789091 277.561555 
L 366.021818 283.27142 
L 382.254545 280.751381 
L 398.487273 289.481336 
" clip-path="url(#pf0908ac7f1)" style="fill: none; stroke: #35b779; stroke-opacity: 0.5; stroke-width: 1.5; stroke-linecap: square"/>
   </g>
   <g id="line2d_51">
    <path d="M 73.832727 171.442886 
L 90.065455 138.662562 
L 106.298182 140.919975 
L 122.530909 145.769468 
L 138.763636 170.142447 
L 154.996364 215.543351 
L 171.229091 214.131491 
L 187.461818 186.322873 
L 203.694545 172.989994 
L 219.927273 169.118434 
L 236.16 177.389278 
L 252.392727 170.507194 
L 268.625455 164.720621 
L 284.858182 136.165245 
L 301.090909 148.758627 
L 317.323636 181.607156 
L 333.556364 189.762998 
L 349.789091 184.525233 
L 366.021818 179.006403 
L 382.254545 188.779891 
L 398.487273 178.07086 
" clip-path="url(#pf0908ac7f1)" style="fill: none; stroke: #35b779; stroke-opacity: 0.5; stroke-width: 1.5; stroke-linecap: square"/>
   </g>
   <g id="line2d_52">
    <path d="M 73.832727 240.266488 
L 90.065455 214.457167 
L 106.298182 236.252206 
L 122.530909 279.079194 
L 138.763636 278.772649 
L 154.996364 243.529093 
L 171.229091 262.299485 
L 187.461818 266.811502 
L 203.694545 275.204888 
L 219.927273 205.336858 
L 236.16 194.305671 
L 252.392727 159.321984 
L 268.625455 176.133 
L 284.858182 227.860514 
L 301.090909 225.343822 
L 317.323636 247.101255 
L 333.556364 264.794987 
L 349.789091 252.751932 
L 366.021818 259.645413 
L 382.254545 221.388066 
L 398.487273 270.900997 
" clip-path="url(#pf0908ac7f1)" style="fill: none; stroke: #35b779; stroke-opacity: 0.5; stroke-width: 1.5; stroke-linecap: square"/>
   </g>
   <g id="line2d_53">
    <path d="M 73.832727 264.50116 
L 90.065455 247.555244 
L 106.298182 255.81715 
L 122.530909 251.236554 
L 138.763636 253.294146 
L 154.996364 250.51759 
L 171.229091 246.486196 
L 187.461818 239.107761 
L 203.694545 252.279412 
L 219.927273 283.102321 
L 236.16 286.604653 
L 252.392727 294.841997 
L 268.625455 274.922512 
L 284.858182 268.820852 
L 301.090909 290.692186 
L 317.323636 231.657875 
L 333.556364 273.248816 
L 349.789091 260.273161 
L 366.021818 269.56736 
L 382.254545 254.100018 
L 398.487273 272.907107 
" clip-path="url(#pf0908ac7f1)" style="fill: none; stroke: #35b779; stroke-opacity: 0.5; stroke-width: 1.5; stroke-linecap: square"/>
   </g>
   <g id="line2d_54">
    <path d="M 73.832727 228.974662 
L 90.065455 252.233622 
L 106.298182 239.625295 
L 122.530909 248.501214 
L 138.763636 256.087965 
L 154.996364 243.998905 
L 171.229091 243.472817 
L 187.461818 233.858534 
L 203.694545 247.695653 
L 219.927273 255.448756 
L 236.16 253.635606 
L 252.392727 271.59515 
L 268.625455 261.663178 
L 284.858182 244.506742 
L 301.090909 250.74127 
L 317.323636 253.493985 
L 333.556364 252.300702 
L 349.789091 242.60121 
L 366.021818 248.53939 
L 382.254545 244.080975 
L 398.487273 255.812822 
" clip-path="url(#pf0908ac7f1)" style="fill: none; stroke: #35b779; stroke-opacity: 0.5; stroke-width: 1.5; stroke-linecap: square"/>
   </g>
   <g id="line2d_55">
    <path d="M 73.832727 236.883013 
L 90.065455 254.744608 
L 106.298182 260.523094 
L 122.530909 222.220497 
L 138.763636 232.393302 
L 154.996364 256.40327 
L 171.229091 271.14972 
L 187.461818 259.111466 
L 203.694545 255.121238 
L 219.927273 201.859793 
L 236.16 246.64968 
L 252.392727 265.01528 
L 268.625455 268.661189 
L 284.858182 281.867927 
L 301.090909 289.719812 
L 317.323636 288.398476 
L 333.556364 276.600403 
L 349.789091 278.789913 
L 366.021818 261.958121 
L 382.254545 281.506787 
L 398.487273 275.325504 
" clip-path="url(#pf0908ac7f1)" style="fill: none; stroke: #35b779; stroke-opacity: 0.5; stroke-width: 1.5; stroke-linecap: square"/>
   </g>
   <g id="line2d_56">
    <path d="M 73.832727 230.370718 
L 90.065455 240.692565 
L 106.298182 216.195232 
L 122.530909 250.659513 
L 138.763636 259.345495 
L 154.996364 257.607496 
L 171.229091 262.897064 
L 187.461818 258.686984 
L 203.694545 236.116172 
L 219.927273 262.318126 
L 236.16 252.00128 
L 252.392727 257.807507 
L 268.625455 256.249838 
L 284.858182 217.660226 
L 301.090909 233.340399 
L 317.323636 222.644981 
L 333.556364 230.428897 
L 349.789091 246.927015 
L 366.021818 230.849501 
L 382.254545 245.70716 
L 398.487273 244.760112 
" clip-path="url(#pf0908ac7f1)" style="fill: none; stroke: #35b779; stroke-opacity: 0.5; stroke-width: 1.5; stroke-linecap: square"/>
   </g>
   <g id="line2d_57">
    <path d="M 73.832727 192.168145 
L 90.065455 242.612553 
L 106.298182 253.382722 
L 122.530909 277.070436 
L 138.763636 245.526829 
L 154.996364 267.266168 
L 171.229091 269.407029 
L 187.461818 266.560883 
L 203.694545 224.895968 
L 219.927273 271.947406 
L 236.16 275.469903 
L 252.392727 279.731423 
L 268.625455 273.319192 
L 284.858182 270.586577 
L 301.090909 267.58857 
L 317.323636 264.07837 
L 333.556364 270.491447 
L 349.789091 254.745928 
L 366.021818 264.487631 
L 382.254545 234.9406 
L 398.487273 248.772832 
" clip-path="url(#pf0908ac7f1)" style="fill: none; stroke: #35b779; stroke-opacity: 0.5; stroke-width: 1.5; stroke-linecap: square"/>
   </g>
   <g id="line2d_58">
    <path d="M 73.832727 134.937604 
L 90.065455 198.451474 
L 106.298182 239.169816 
L 122.530909 242.084815 
L 138.763636 224.347049 
L 154.996364 241.140997 
L 171.229091 240.833412 
L 187.461818 252.266731 
L 203.694545 254.911071 
L 219.927273 161.354686 
L 236.16 169.905294 
L 252.392727 184.328141 
L 268.625455 205.095857 
L 284.858182 129.892052 
L 301.090909 187.867803 
L 317.323636 215.199618 
L 333.556364 235.759891 
L 349.789091 224.237739 
L 366.021818 223.765168 
L 382.254545 225.917987 
L 398.487273 238.229496 
" clip-path="url(#pf0908ac7f1)" style="fill: none; stroke: #35b779; stroke-opacity: 0.5; stroke-width: 1.5; stroke-linecap: square"/>
   </g>
   <g id="patch_3">
    <path d="M 57.6 307.584 
L 57.6 41.472 
" style="fill: none; stroke: #000000; stroke-width: 3; stroke-linejoin: miter; stroke-linecap: square"/>
   </g>
   <g id="patch_4">
    <path d="M 414.72 307.584 
L 414.72 41.472 
" style="fill: none; stroke: #000000; stroke-width: 3; stroke-linejoin: miter; stroke-linecap: square"/>
   </g>
   <g id="patch_5">
    <path d="M 57.6 307.584 
L 414.72 307.584 
" style="fill: none; stroke: #000000; stroke-width: 3; stroke-linejoin: miter; stroke-linecap: square"/>
   </g>
   <g id="patch_6">
    <path d="M 57.6 41.472 
L 414.72 41.472 
" style="fill: none; stroke: #000000; stroke-width: 3; stroke-linejoin: miter; stroke-linecap: square"/>
   </g>
   <g id="text_14">
    <!-- Atom Type O (n=45, mean Q=6.47) -->
    <g transform="translate(39.839219 35.472) scale(0.22 -0.22)">
     <defs>
      <path id="DejaVuSans-41" d="M 2188 4044 
L 1331 1722 
L 3047 1722 
L 2188 4044 
z
M 1831 4666 
L 2547 4666 
L 4325 0 
L 3669 0 
L 3244 1197 
L 1141 1197 
L 716 0 
L 50 0 
L 1831 4666 
z
" transform="scale(0.015625)"/>
      <path id="DejaVuSans-74" d="M 1172 4494 
L 1172 3500 
L 2356 3500 
L 2356 3053 
L 1172 3053 
L 1172 1153 
Q 1172 725 1289 603 
Q 1406 481 1766 481 
L 2356 481 
L 2356 0 
L 1766 0 
Q 1100 0 847 248 
Q 594 497 594 1153 
L 594 3053 
L 172 3053 
L 172 3500 
L 594 3500 
L 594 4494 
L 1172 4494 
z
" transform="scale(0.015625)"/>
      <path id="DejaVuSans-6f" d="M 1959 3097 
Q 1497 3097 1228 2736 
Q 959 2375 959 1747 
Q 959 1119 1226 758 
Q 1494 397 1959 397 
Q 2419 397 2687 759 
Q 2956 1122 2956 1747 
Q 2956 2369 2687 2733 
Q 2419 3097 1959 3097 
z
M 1959 3584 
Q 2709 3584 3137 3096 
Q 3566 2609 3566 1747 
Q 3566 888 3137 398 
Q 2709 -91 1959 -91 
Q 1206 -91 779 398 
Q 353 888 353 1747 
Q 353 2609 779 3096 
Q 1206 3584 1959 3584 
z
" transform="scale(0.015625)"/>
      <path id="DejaVuSans-6d" d="M 3328 2828 
Q 3544 3216 3844 3400 
Q 4144 3584 4550 3584 
Q 5097 3584 5394 3201 
Q 5691 2819 5691 2113 
L 5691 0 
L 5113 0 
L 5113 2094 
Q 5113 2597 4934 2840 
Q 4756 3084 4391 3084 
Q 3944 3084 3684 2787 
Q 3425 2491 3425 1978 
L 3425 0 
L 2847 0 
L 2847 2094 
Q 2847 2600 2669 2842 
Q 2491 3084 2119 3084 
Q 1678 3084 1418 2786 
Q 1159 2488 1159 1978 
L 1159 0 
L 581 0 
L 581 3500 
L 1159 3500 
L 1159 2956 
Q 1356 3278 1631 3431 
Q 1906 3584 2284 3584 
Q 2666 3584 2933 3390 
Q 3200 3197 3328 2828 
z
" transform="scale(0.015625)"/>
      <path id="DejaVuSans-20" transform="scale(0.015625)"/>
      <path id="DejaVuSans-54" d="M -19 4666 
L 3928 4666 
L 3928 4134 
L 2272 4134 
L 2272 0 
L 1638 0 
L 1638 4134 
L -19 4134 
L -19 4666 
z
" transform="scale(0.015625)"/>
      <path id="DejaVuSans-79" d="M 2059 -325 
Q 1816 -950 1584 -1140 
Q 1353 -1331 966 -1331 
L 506 -1331 
L 506 -850 
L 844 -850 
Q 1081 -850 1212 -737 
Q 1344 -625 1503 -206 
L 1606 56 
L 191 3500 
L 800 3500 
L 1894 763 
L 2988 3500 
L 3597 3500 
L 2059 -325 
z
" transform="scale(0.015625)"/>
      <path id="DejaVuSans-70" d="M 1159 525 
L 1159 -1331 
L 581 -1331 
L 581 3500 
L 1159 3500 
L 1159 2969 
Q 1341 3281 1617 3432 
Q 1894 3584 2278 3584 
Q 2916 3584 3314 3078 
Q 3713 2572 3713 1747 
Q 3713 922 3314 415 
Q 2916 -91 2278 -91 
Q 1894 -91 1617 61 
Q 1341 213 1159 525 
z
M 3116 1747 
Q 3116 2381 2855 2742 
Q 2594 3103 2138 3103 
Q 1681 3103 1420 2742 
Q 1159 2381 1159 1747 
Q 1159 1113 1420 752 
Q 1681 391 2138 391 
Q 2594 391 2855 752 
Q 3116 1113 3116 1747 
z
" transform="scale(0.015625)"/>
      <path id="DejaVuSans-65" d="M 3597 1894 
L 3597 1613 
L 953 1613 
Q 991 1019 1311 708 
Q 1631 397 2203 397 
Q 2534 397 2845 478 
Q 3156 559 3463 722 
L 3463 178 
Q 3153 47 2828 -22 
Q 2503 -91 2169 -91 
Q 1331 -91 842 396 
Q 353 884 353 1716 
Q 353 2575 817 3079 
Q 1281 3584 2069 3584 
Q 2775 3584 3186 3129 
Q 3597 2675 3597 1894 
z
M 3022 2063 
Q 3016 2534 2758 2815 
Q 2500 3097 2075 3097 
Q 1594 3097 1305 2825 
Q 1016 2553 972 2059 
L 3022 2063 
z
" transform="scale(0.015625)"/>
      <path id="DejaVuSans-4f" d="M 2522 4238 
Q 1834 4238 1429 3725 
Q 1025 3213 1025 2328 
Q 1025 1447 1429 934 
Q 1834 422 2522 422 
Q 3209 422 3611 934 
Q 4013 1447 4013 2328 
Q 4013 3213 3611 3725 
Q 3209 4238 2522 4238 
z
M 2522 4750 
Q 3503 4750 4090 4092 
Q 4678 3434 4678 2328 
Q 4678 1225 4090 567 
Q 3503 -91 2522 -91 
Q 1538 -91 948 565 
Q 359 1222 359 2328 
Q 359 3434 948 4092 
Q 1538 4750 2522 4750 
z
" transform="scale(0.015625)"/>
      <path id="DejaVuSans-28" d="M 1984 4856 
Q 1566 4138 1362 3434 
Q 1159 2731 1159 2009 
Q 1159 1288 1364 580 
Q 1569 -128 1984 -844 
L 1484 -844 
Q 1016 -109 783 600 
Q 550 1309 550 2009 
Q 550 2706 781 3412 
Q 1013 4119 1484 4856 
L 1984 4856 
z
" transform="scale(0.015625)"/>
      <path id="DejaVuSans-6e" d="M 3513 2113 
L 3513 0 
L 2938 0 
L 2938 2094 
Q 2938 2591 2744 2837 
Q 2550 3084 2163 3084 
Q 1697 3084 1428 2787 
Q 1159 2491 1159 1978 
L 1159 0 
L 581 0 
L 581 3500 
L 1159 3500 
L 1159 2956 
Q 1366 3272 1645 3428 
Q 1925 3584 2291 3584 
Q 2894 3584 3203 3211 
Q 3513 2838 3513 2113 
z
" transform="scale(0.015625)"/>
      <path id="DejaVuSans-3d" d="M 678 2906 
L 4684 2906 
L 4684 2381 
L 678 2381 
L 678 2906 
z
M 678 1631 
L 4684 1631 
L 4684 1100 
L 678 1100 
L 678 1631 
z
" transform="scale(0.015625)"/>
      <path id="DejaVuSans-34" d="M 2419 4116 
L 825 1625 
L 2419 1625 
L 2419 4116 
z
M 2253 4666 
L 3047 4666 
L 3047 1625 
L 3713 1625 
L 3713 1100 
L 3047 1100 
L 3047 0 
L 2419 0 
L 2419 1100 
L 313 1100 
L 313 1709 
L 2253 4666 
z
" transform="scale(0.015625)"/>
      <path id="DejaVuSans-2c" d="M 750 794 
L 1409 794 
L 1409 256 
L 897 -744 
L 494 -744 
L 750 256 
L 750 794 
z
" transform="scale(0.015625)"/>
      <path id="DejaVuSans-61" d="M 2194 1759 
Q 1497 1759 1228 1600 
Q 959 1441 959 1056 
Q 959 750 1161 570 
Q 1363 391 1709 391 
Q 2188 391 2477 730 
Q 2766 1069 2766 1631 
L 2766 1759 
L 2194 1759 
z
M 3341 1997 
L 3341 0 
L 2766 0 
L 2766 531 
Q 2569 213 2275 61 
Q 1981 -91 1556 -91 
Q 1019 -91 701 211 
Q 384 513 384 1019 
Q 384 1609 779 1909 
Q 1175 2209 1959 2209 
L 2766 2209 
L 2766 2266 
Q 2766 2663 2505 2880 
Q 2244 3097 1772 3097 
Q 1472 3097 1187 3025 
Q 903 2953 641 2809 
L 641 3341 
Q 956 3463 1253 3523 
Q 1550 3584 1831 3584 
Q 2591 3584 2966 3190 
Q 3341 2797 3341 1997 
z
" transform="scale(0.015625)"/>
      <path id="DejaVuSans-51" d="M 2522 4238 
Q 1834 4238 1429 3725 
Q 1025 3213 1025 2328 
Q 1025 1447 1429 934 
Q 1834 422 2522 422 
Q 3209 422 3611 934 
Q 4013 1447 4013 2328 
Q 4013 3213 3611 3725 
Q 3209 4238 2522 4238 
z
M 3406 84 
L 4238 -825 
L 3475 -825 
L 2784 -78 
Q 2681 -84 2626 -87 
Q 2572 -91 2522 -91 
Q 1538 -91 948 567 
Q 359 1225 359 2328 
Q 359 3434 948 4092 
Q 1538 4750 2522 4750 
Q 3503 4750 4090 4092 
Q 4678 3434 4678 2328 
Q 4678 1516 4351 937 
Q 4025 359 3406 84 
z
" transform="scale(0.015625)"/>
      <path id="DejaVuSans-36" d="M 2113 2584 
Q 1688 2584 1439 2293 
Q 1191 2003 1191 1497 
Q 1191 994 1439 701 
Q 1688 409 2113 409 
Q 2538 409 2786 701 
Q 3034 994 3034 1497 
Q 3034 2003 2786 2293 
Q 2538 2584 2113 2584 
z
M 3366 4563 
L 3366 3988 
Q 3128 4100 2886 4159 
Q 2644 4219 2406 4219 
Q 1781 4219 1451 3797 
Q 1122 3375 1075 2522 
Q 1259 2794 1537 2939 
Q 1816 3084 2150 3084 
Q 2853 3084 3261 2657 
Q 3669 2231 3669 1497 
Q 3669 778 3244 343 
Q 2819 -91 2113 -91 
Q 1303 -91 875 529 
Q 447 1150 447 2328 
Q 447 3434 972 4092 
Q 1497 4750 2381 4750 
Q 2619 4750 2861 4703 
Q 3103 4656 3366 4563 
z
" transform="scale(0.015625)"/>
      <path id="DejaVuSans-29" d="M 513 4856 
L 1013 4856 
Q 1481 4119 1714 3412 
Q 1947 2706 1947 2009 
Q 1947 1309 1714 600 
Q 1481 -109 1013 -844 
L 513 -844 
Q 928 -128 1133 580 
Q 1338 1288 1338 2009 
Q 1338 2731 1133 3434 
Q 928 4138 513 4856 
z
" transform="scale(0.015625)"/>
     </defs>
     <use xlink:href="#DejaVuSans-41"/>
     <use xlink:href="#DejaVuSans-74" transform="translate(66.658203 0)"/>
     <use xlink:href="#DejaVuSans-6f" transform="translate(105.867188 0)"/>
     <use xlink:href="#DejaVuSans-6d" transform="translate(167.048828 0)"/>
     <use xlink:href="#DejaVuSans-20" transform="translate(264.460938 0)"/>
     <use xlink:href="#DejaVuSans-54" transform="translate(296.248047 0)"/>
     <use xlink:href="#DejaVuSans-79" transform="translate(341.707031 0)"/>
     <use xlink:href="#DejaVuSans-70" transform="translate(400.886719 0)"/>
     <use xlink:href="#DejaVuSans-65" transform="translate(464.363281 0)"/>
     <use xlink:href="#DejaVuSans-20" transform="translate(525.886719 0)"/>
     <use xlink:href="#DejaVuSans-4f" transform="translate(557.673828 0)"/>
     <use xlink:href="#DejaVuSans-20" transform="translate(636.384766 0)"/>
     <use xlink:href="#DejaVuSans-28" transform="translate(668.171875 0)"/>
     <use xlink:href="#DejaVuSans-6e" transform="translate(707.185547 0)"/>
     <use xlink:href="#DejaVuSans-3d" transform="translate(770.564453 0)"/>
     <use xlink:href="#DejaVuSans-34" transform="translate(854.353516 0)"/>
     <use xlink:href="#DejaVuSans-35" transform="translate(917.976562 0)"/>
     <use xlink:href="#DejaVuSans-2c" transform="translate(981.599609 0)"/>
     <use xlink:href="#DejaVuSans-20" transform="translate(1013.386719 0)"/>
     <use xlink:href="#DejaVuSans-6d" transform="translate(1045.173828 0)"/>
     <use xlink:href="#DejaVuSans-65" transform="translate(1142.585938 0)"/>
     <use xlink:href="#DejaVuSans-61" transform="translate(1204.109375 0)"/>
     <use xlink:href="#DejaVuSans-6e" transform="translate(1265.388672 0)"/>
     <use xlink:href="#DejaVuSans-20" transform="translate(1328.767578 0)"/>
     <use xlink:href="#DejaVuSans-51" transform="translate(1360.554688 0)"/>
     <use xlink:href="#DejaVuSans-3d" transform="translate(1439.265625 0)"/>
     <use xlink:href="#DejaVuSans-36" transform="translate(1523.054688 0)"/>
     <use xlink:href="#DejaVuSans-2e" transform="translate(1586.677734 0)"/>
     <use xlink:href="#DejaVuSans-34" transform="translate(1618.464844 0)"/>
     <use xlink:href="#DejaVuSans-37" transform="translate(1682.087891 0)"/>
     <use xlink:href="#DejaVuSans-29" transform="translate(1745.710938 0)"/>
    </g>
   </g>
  </g>
 </g>
 <defs>
  <clipPath id="pf0908ac7f1">
   <rect x="57.6" y="41.472" width="357.12" height="266.112"/>
  </clipPath>
 </defs>
</svg>
