<?xml version="1.0" encoding="utf-8" standalone="no"?>
<!DOCTYPE svg PUBLIC "-//W3C//DTD SVG 1.1//EN"
  "http://www.w3.org/Graphics/SVG/1.1/DTD/svg11.dtd">
<svg xmlns:xlink="http://www.w3.org/1999/xlink" width="1008pt" height="360pt" viewBox="0 0 1008 360" xmlns="http://www.w3.org/2000/svg" version="1.1">
 <metadata>
  <rdf:RDF xmlns:dc="http://purl.org/dc/elements/1.1/" xmlns:cc="http://creativecommons.org/ns#" xmlns:rdf="http://www.w3.org/1999/02/22-rdf-syntax-ns#">
   <cc:Work>
    <dc:type rdf:resource="http://purl.org/dc/dcmitype/StillImage"/>
    <dc:date>2026-03-04T14:10:06.057322</dc:date>
    <dc:format>image/svg+xml</dc:format>
    <dc:creator>
     <cc:Agent>
      <dc:title>Matplotlib v3.10.8, https://matplotlib.org/</dc:title>
     </cc:Agent>
    </dc:creator>
   </cc:Work>
  </rdf:RDF>
 </metadata>
 <defs>
  <style type="text/css">*{stroke-linejoin: round; stroke-linecap: butt}</style>
 </defs>
 <g id="figure_1">
  <g id="patch_1">
   <path d="M 0 360 
L 1008 360 
L 1008 0 
L 0 0 
z
" style="fill: #ffffff"/>
  </g>
  <g id="axes_1">
   <g id="patch_2">
    <path d="M 126 320.4 
L 481.090909 320.4 
L 481.090909 43.2 
L 126 43.2 
z
" style="fill: #ffffff"/>
   </g>
   <g id="patch_3">
    <path d="M 142.140496 320.4 
L 148.728453 320.4 
L 148.728453 320.308429 
L 142.140496 320.308429 
z
" clip-path="url(#p258ba80ec9)" style="fill: #e9c5dd; stroke: #000000; stroke-linejoin: miter"/>
   </g>
   <g id="patch_4">
    <path d="M 148.728453 320.4 
L 155.316411 320.4 
L 155.316411 318.93486 
L 148.728453 318.93486 
z
" clip-path="url(#p258ba80ec9)" style="fill: #e9c5dd; stroke: #000000; stroke-linejoin: miter"/>
   </g>
   <g id="patch_5">
    <path d="M 155.316411 320.4 
L 161.904368 320.4 
L 161.904368 313.349011 
L 155.316411 313.349011 
z
" clip-path="url(#p258ba80ec9)" style="fill: #e9c5dd; stroke: #000000; stroke-linejoin: miter"/>
   </g>
   <g id="patch_6">
    <path d="M 161.904368 320.4 
L 168.492326 320.4 
L 168.492326 299.796462 
L 161.904368 299.796462 
z
" clip-path="url(#p258ba80ec9)" style="fill: #e9c5dd; stroke: #000000; stroke-linejoin: miter"/>
   </g>
   <g id="patch_7">
    <path d="M 168.492326 320.4 
L 175.080283 320.4 
L 175.080283 268.570656 
L 168.492326 268.570656 
z
" clip-path="url(#p258ba80ec9)" style="fill: #e9c5dd; stroke: #000000; stroke-linejoin: miter"/>
   </g>
   <g id="patch_8">
    <path d="M 175.080283 320.4 
L 181.668241 320.4 
L 181.668241 218.572737 
L 175.080283 218.572737 
z
" clip-path="url(#p258ba80ec9)" style="fill: #e9c5dd; stroke: #000000; stroke-linejoin: miter"/>
   </g>
   <g id="patch_9">
    <path d="M 181.668241 320.4 
L 188.256198 320.4 
L 188.256198 147.604995 
L 181.668241 147.604995 
z
" clip-path="url(#p258ba80ec9)" style="fill: #e9c5dd; stroke: #000000; stroke-linejoin: miter"/>
   </g>
   <g id="patch_10">
    <path d="M 188.256198 320.4 
L 194.844156 320.4 
L 194.844156 93.852653 
L 188.256198 93.852653 
z
" clip-path="url(#p258ba80ec9)" style="fill: #e9c5dd; stroke: #000000; stroke-linejoin: miter"/>
   </g>
   <g id="patch_11">
    <path d="M 194.844156 320.4 
L 201.432113 320.4 
L 201.432113 56.4 
L 194.844156 56.4 
z
" clip-path="url(#p258ba80ec9)" style="fill: #e9c5dd; stroke: #000000; stroke-linejoin: miter"/>
   </g>
   <g id="patch_12">
    <path d="M 201.432113 320.4 
L 208.020071 320.4 
L 208.020071 70.044121 
L 201.432113 70.044121 
z
" clip-path="url(#p258ba80ec9)" style="fill: #e9c5dd; stroke: #000000; stroke-linejoin: miter"/>
   </g>
   <g id="patch_13">
    <path d="M 208.020071 320.4 
L 214.608028 320.4 
L 214.608028 110.243913 
L 208.020071 110.243913 
z
" clip-path="url(#p258ba80ec9)" style="fill: #e9c5dd; stroke: #000000; stroke-linejoin: miter"/>
   </g>
   <g id="patch_14">
    <path d="M 214.608028 320.4 
L 221.195986 320.4 
L 221.195986 163.355255 
L 214.608028 163.355255 
z
" clip-path="url(#p258ba80ec9)" style="fill: #e9c5dd; stroke: #000000; stroke-linejoin: miter"/>
   </g>
   <g id="patch_15">
    <path d="M 221.195986 320.4 
L 227.783943 320.4 
L 227.783943 202.547763 
L 221.195986 202.547763 
z
" clip-path="url(#p258ba80ec9)" style="fill: #e9c5dd; stroke: #000000; stroke-linejoin: miter"/>
   </g>
   <g id="patch_16">
    <path d="M 227.783943 320.4 
L 234.371901 320.4 
L 234.371901 223.334443 
L 227.783943 223.334443 
z
" clip-path="url(#p258ba80ec9)" style="fill: #e9c5dd; stroke: #000000; stroke-linejoin: miter"/>
   </g>
   <g id="patch_17">
    <path d="M 234.371901 320.4 
L 240.959858 320.4 
L 240.959858 230.93486 
L 234.371901 230.93486 
z
" clip-path="url(#p258ba80ec9)" style="fill: #e9c5dd; stroke: #000000; stroke-linejoin: miter"/>
   </g>
   <g id="patch_18">
    <path d="M 240.959858 320.4 
L 247.547816 320.4 
L 247.547816 212.34589 
L 240.959858 212.34589 
z
" clip-path="url(#p258ba80ec9)" style="fill: #e9c5dd; stroke: #000000; stroke-linejoin: miter"/>
   </g>
   <g id="patch_19">
    <path d="M 247.547816 320.4 
L 254.135773 320.4 
L 254.135773 178.556087 
L 247.547816 178.556087 
z
" clip-path="url(#p258ba80ec9)" style="fill: #e9c5dd; stroke: #000000; stroke-linejoin: miter"/>
   </g>
   <g id="patch_20">
    <path d="M 254.135773 320.4 
L 260.723731 320.4 
L 260.723731 149.43642 
L 254.135773 149.43642 
z
" clip-path="url(#p258ba80ec9)" style="fill: #e9c5dd; stroke: #000000; stroke-linejoin: miter"/>
   </g>
   <g id="patch_21">
    <path d="M 260.723731 320.4 
L 267.311688 320.4 
L 267.311688 132.770447 
L 260.723731 132.770447 
z
" clip-path="url(#p258ba80ec9)" style="fill: #e9c5dd; stroke: #000000; stroke-linejoin: miter"/>
   </g>
   <g id="patch_22">
    <path d="M 267.311688 320.4 
L 273.899646 320.4 
L 273.899646 128.375026 
L 267.311688 128.375026 
z
" clip-path="url(#p258ba80ec9)" style="fill: #e9c5dd; stroke: #000000; stroke-linejoin: miter"/>
   </g>
   <g id="patch_23">
    <path d="M 273.899646 320.4 
L 280.487603 320.4 
L 280.487603 141.011863 
L 273.899646 141.011863 
z
" clip-path="url(#p258ba80ec9)" style="fill: #e9c5dd; stroke: #000000; stroke-linejoin: miter"/>
   </g>
   <g id="patch_24">
    <path d="M 280.487603 320.4 
L 287.075561 320.4 
L 287.075561 153.099272 
L 280.487603 153.099272 
z
" clip-path="url(#p258ba80ec9)" style="fill: #e9c5dd; stroke: #000000; stroke-linejoin: miter"/>
   </g>
   <g id="patch_25">
    <path d="M 287.075561 320.4 
L 293.663518 320.4 
L 293.663518 183.226223 
L 287.075561 183.226223 
z
" clip-path="url(#p258ba80ec9)" style="fill: #e9c5dd; stroke: #000000; stroke-linejoin: miter"/>
   </g>
   <g id="patch_26">
    <path d="M 293.663518 320.4 
L 300.251476 320.4 
L 300.251476 207.950468 
L 293.663518 207.950468 
z
" clip-path="url(#p258ba80ec9)" style="fill: #e9c5dd; stroke: #000000; stroke-linejoin: miter"/>
   </g>
   <g id="patch_27">
    <path d="M 300.251476 320.4 
L 306.839433 320.4 
L 306.839433 226.173153 
L 300.251476 226.173153 
z
" clip-path="url(#p258ba80ec9)" style="fill: #e9c5dd; stroke: #000000; stroke-linejoin: miter"/>
   </g>
   <g id="patch_28">
    <path d="M 306.839433 320.4 
L 313.427391 320.4 
L 313.427391 236.978564 
L 306.839433 236.978564 
z
" clip-path="url(#p258ba80ec9)" style="fill: #e9c5dd; stroke: #000000; stroke-linejoin: miter"/>
   </g>
   <g id="patch_29">
    <path d="M 313.427391 320.4 
L 320.015348 320.4 
L 320.015348 244.304266 
L 313.427391 244.304266 
z
" clip-path="url(#p258ba80ec9)" style="fill: #e9c5dd; stroke: #000000; stroke-linejoin: miter"/>
   </g>
   <g id="patch_30">
    <path d="M 320.015348 320.4 
L 326.603306 320.4 
L 326.603306 237.985848 
L 320.015348 237.985848 
z
" clip-path="url(#p258ba80ec9)" style="fill: #e9c5dd; stroke: #000000; stroke-linejoin: miter"/>
   </g>
   <g id="patch_31">
    <path d="M 326.603306 320.4 
L 333.191263 320.4 
L 333.191263 234.506139 
L 326.603306 234.506139 
z
" clip-path="url(#p258ba80ec9)" style="fill: #e9c5dd; stroke: #000000; stroke-linejoin: miter"/>
   </g>
   <g id="patch_32">
    <path d="M 333.191263 320.4 
L 339.779221 320.4 
L 339.779221 230.110718 
L 333.191263 230.110718 
z
" clip-path="url(#p258ba80ec9)" style="fill: #e9c5dd; stroke: #000000; stroke-linejoin: miter"/>
   </g>
   <g id="patch_33">
    <path d="M 339.779221 320.4 
L 346.367178 320.4 
L 346.367178 234.689282 
L 339.779221 234.689282 
z
" clip-path="url(#p258ba80ec9)" style="fill: #e9c5dd; stroke: #000000; stroke-linejoin: miter"/>
   </g>
   <g id="patch_34">
    <path d="M 346.367178 320.4 
L 352.955136 320.4 
L 352.955136 242.655983 
L 346.367178 242.655983 
z
" clip-path="url(#p258ba80ec9)" style="fill: #e9c5dd; stroke: #000000; stroke-linejoin: miter"/>
   </g>
   <g id="patch_35">
    <path d="M 352.955136 320.4 
L 359.543093 320.4 
L 359.543093 249.890114 
L 352.955136 249.890114 
z
" clip-path="url(#p258ba80ec9)" style="fill: #e9c5dd; stroke: #000000; stroke-linejoin: miter"/>
   </g>
   <g id="patch_36">
    <path d="M 359.543093 320.4 
L 366.131051 320.4 
L 366.131051 261.244953 
L 359.543093 261.244953 
z
" clip-path="url(#p258ba80ec9)" style="fill: #e9c5dd; stroke: #000000; stroke-linejoin: miter"/>
   </g>
   <g id="patch_37">
    <path d="M 366.131051 320.4 
L 372.719008 320.4 
L 372.719008 276.628928 
L 366.131051 276.628928 
z
" clip-path="url(#p258ba80ec9)" style="fill: #e9c5dd; stroke: #000000; stroke-linejoin: miter"/>
   </g>
   <g id="patch_38">
    <path d="M 372.719008 320.4 
L 379.306966 320.4 
L 379.306966 284.59563 
L 372.719008 284.59563 
z
" clip-path="url(#p258ba80ec9)" style="fill: #e9c5dd; stroke: #000000; stroke-linejoin: miter"/>
   </g>
   <g id="patch_39">
    <path d="M 379.306966 320.4 
L 385.894923 320.4 
L 385.894923 294.943184 
L 379.306966 294.943184 
z
" clip-path="url(#p258ba80ec9)" style="fill: #e9c5dd; stroke: #000000; stroke-linejoin: miter"/>
   </g>
   <g id="patch_40">
    <path d="M 385.894923 320.4 
L 392.482881 320.4 
L 392.482881 302.635172 
L 385.894923 302.635172 
z
" clip-path="url(#p258ba80ec9)" style="fill: #e9c5dd; stroke: #000000; stroke-linejoin: miter"/>
   </g>
   <g id="patch_41">
    <path d="M 392.482881 320.4 
L 399.070838 320.4 
L 399.070838 306.939022 
L 392.482881 306.939022 
z
" clip-path="url(#p258ba80ec9)" style="fill: #e9c5dd; stroke: #000000; stroke-linejoin: miter"/>
   </g>
   <g id="patch_42">
    <path d="M 399.070838 320.4 
L 405.658796 320.4 
L 405.658796 313.623725 
L 399.070838 313.623725 
z
" clip-path="url(#p258ba80ec9)" style="fill: #e9c5dd; stroke: #000000; stroke-linejoin: miter"/>
   </g>
   <g id="patch_43">
    <path d="M 405.658796 320.4 
L 412.246753 320.4 
L 412.246753 315.913007 
L 405.658796 315.913007 
z
" clip-path="url(#p258ba80ec9)" style="fill: #e9c5dd; stroke: #000000; stroke-linejoin: miter"/>
   </g>
   <g id="patch_44">
    <path d="M 412.246753 320.4 
L 418.834711 320.4 
L 418.834711 316.920291 
L 412.246753 316.920291 
z
" clip-path="url(#p258ba80ec9)" style="fill: #e9c5dd; stroke: #000000; stroke-linejoin: miter"/>
   </g>
   <g id="patch_45">
    <path d="M 418.834711 320.4 
L 425.422668 320.4 
L 425.422668 318.843288 
L 418.834711 318.843288 
z
" clip-path="url(#p258ba80ec9)" style="fill: #e9c5dd; stroke: #000000; stroke-linejoin: miter"/>
   </g>
   <g id="patch_46">
    <path d="M 425.422668 320.4 
L 432.010626 320.4 
L 432.010626 319.301145 
L 425.422668 319.301145 
z
" clip-path="url(#p258ba80ec9)" style="fill: #e9c5dd; stroke: #000000; stroke-linejoin: miter"/>
   </g>
   <g id="patch_47">
    <path d="M 432.010626 320.4 
L 438.598583 320.4 
L 438.598583 320.308429 
L 432.010626 320.308429 
z
" clip-path="url(#p258ba80ec9)" style="fill: #e9c5dd; stroke: #000000; stroke-linejoin: miter"/>
   </g>
   <g id="patch_48">
    <path d="M 438.598583 320.4 
L 445.186541 320.4 
L 445.186541 320.033715 
L 438.598583 320.033715 
z
" clip-path="url(#p258ba80ec9)" style="fill: #e9c5dd; stroke: #000000; stroke-linejoin: miter"/>
   </g>
   <g id="patch_49">
    <path d="M 445.186541 320.4 
L 451.774498 320.4 
L 451.774498 320.308429 
L 445.186541 320.308429 
z
" clip-path="url(#p258ba80ec9)" style="fill: #e9c5dd; stroke: #000000; stroke-linejoin: miter"/>
   </g>
   <g id="patch_50">
    <path d="M 451.774498 320.4 
L 458.362456 320.4 
L 458.362456 320.308429 
L 451.774498 320.308429 
z
" clip-path="url(#p258ba80ec9)" style="fill: #e9c5dd; stroke: #000000; stroke-linejoin: miter"/>
   </g>
   <g id="patch_51">
    <path d="M 458.362456 320.4 
L 464.950413 320.4 
L 464.950413 320.308429 
L 458.362456 320.308429 
z
" clip-path="url(#p258ba80ec9)" style="fill: #e9c5dd; stroke: #000000; stroke-linejoin: miter"/>
   </g>
   <g id="patch_52">
    <path d="M 142.140496 320.4 
L 148.728453 320.4 
L 148.728453 320.033715 
L 142.140496 320.033715 
z
" clip-path="url(#p258ba80ec9)" style="fill: #a18aa5; opacity: 0.5; stroke: #000000; stroke-linejoin: miter"/>
   </g>
   <g id="patch_53">
    <path d="M 148.728453 320.4 
L 155.316411 320.4 
L 155.316411 318.751717 
L 148.728453 318.751717 
z
" clip-path="url(#p258ba80ec9)" style="fill: #a18aa5; opacity: 0.5; stroke: #000000; stroke-linejoin: miter"/>
   </g>
   <g id="patch_54">
    <path d="M 155.316411 320.4 
L 161.904368 320.4 
L 161.904368 312.067014 
L 155.316411 312.067014 
z
" clip-path="url(#p258ba80ec9)" style="fill: #a18aa5; opacity: 0.5; stroke: #000000; stroke-linejoin: miter"/>
   </g>
   <g id="patch_55">
    <path d="M 161.904368 320.4 
L 168.492326 320.4 
L 168.492326 295.217898 
L 161.904368 295.217898 
z
" clip-path="url(#p258ba80ec9)" style="fill: #a18aa5; opacity: 0.5; stroke: #000000; stroke-linejoin: miter"/>
   </g>
   <g id="patch_56">
    <path d="M 168.492326 320.4 
L 175.080283 320.4 
L 175.080283 262.618522 
L 168.492326 262.618522 
z
" clip-path="url(#p258ba80ec9)" style="fill: #a18aa5; opacity: 0.5; stroke: #000000; stroke-linejoin: miter"/>
   </g>
   <g id="patch_57">
    <path d="M 175.080283 320.4 
L 181.668241 320.4 
L 181.668241 203.463476 
L 175.080283 203.463476 
z
" clip-path="url(#p258ba80ec9)" style="fill: #a18aa5; opacity: 0.5; stroke: #000000; stroke-linejoin: miter"/>
   </g>
   <g id="patch_58">
    <path d="M 181.668241 320.4 
L 188.256198 320.4 
L 188.256198 137.25744 
L 181.668241 137.25744 
z
" clip-path="url(#p258ba80ec9)" style="fill: #a18aa5; opacity: 0.5; stroke: #000000; stroke-linejoin: miter"/>
   </g>
   <g id="patch_59">
    <path d="M 188.256198 320.4 
L 194.844156 320.4 
L 194.844156 100.171072 
L 188.256198 100.171072 
z
" clip-path="url(#p258ba80ec9)" style="fill: #a18aa5; opacity: 0.5; stroke: #000000; stroke-linejoin: miter"/>
   </g>
   <g id="patch_60">
    <path d="M 194.844156 320.4 
L 201.432113 320.4 
L 201.432113 70.227263 
L 194.844156 70.227263 
z
" clip-path="url(#p258ba80ec9)" style="fill: #a18aa5; opacity: 0.5; stroke: #000000; stroke-linejoin: miter"/>
   </g>
   <g id="patch_61">
    <path d="M 201.432113 320.4 
L 208.020071 320.4 
L 208.020071 84.970239 
L 201.432113 84.970239 
z
" clip-path="url(#p258ba80ec9)" style="fill: #a18aa5; opacity: 0.5; stroke: #000000; stroke-linejoin: miter"/>
   </g>
   <g id="patch_62">
    <path d="M 208.020071 320.4 
L 214.608028 320.4 
L 214.608028 121.781894 
L 208.020071 121.781894 
z
" clip-path="url(#p258ba80ec9)" style="fill: #a18aa5; opacity: 0.5; stroke: #000000; stroke-linejoin: miter"/>
   </g>
   <g id="patch_63">
    <path d="M 214.608028 320.4 
L 221.195986 320.4 
L 221.195986 166.102393 
L 214.608028 166.102393 
z
" clip-path="url(#p258ba80ec9)" style="fill: #a18aa5; opacity: 0.5; stroke: #000000; stroke-linejoin: miter"/>
   </g>
   <g id="patch_64">
    <path d="M 221.195986 320.4 
L 227.783943 320.4 
L 227.783943 199.251197 
L 221.195986 199.251197 
z
" clip-path="url(#p258ba80ec9)" style="fill: #a18aa5; opacity: 0.5; stroke: #000000; stroke-linejoin: miter"/>
   </g>
   <g id="patch_65">
    <path d="M 227.783943 320.4 
L 234.371901 320.4 
L 234.371901 212.254318 
L 227.783943 212.254318 
z
" clip-path="url(#p258ba80ec9)" style="fill: #a18aa5; opacity: 0.5; stroke: #000000; stroke-linejoin: miter"/>
   </g>
   <g id="patch_66">
    <path d="M 234.371901 320.4 
L 240.959858 320.4 
L 240.959858 213.261602 
L 234.371901 213.261602 
z
" clip-path="url(#p258ba80ec9)" style="fill: #a18aa5; opacity: 0.5; stroke: #000000; stroke-linejoin: miter"/>
   </g>
   <g id="patch_67">
    <path d="M 240.959858 320.4 
L 247.547816 320.4 
L 247.547816 193.207492 
L 240.959858 193.207492 
z
" clip-path="url(#p258ba80ec9)" style="fill: #a18aa5; opacity: 0.5; stroke: #000000; stroke-linejoin: miter"/>
   </g>
   <g id="patch_68">
    <path d="M 247.547816 320.4 
L 254.135773 320.4 
L 254.135773 178.372945 
L 247.547816 178.372945 
z
" clip-path="url(#p258ba80ec9)" style="fill: #a18aa5; opacity: 0.5; stroke: #000000; stroke-linejoin: miter"/>
   </g>
   <g id="patch_69">
    <path d="M 254.135773 320.4 
L 260.723731 320.4 
L 260.723731 152.183559 
L 254.135773 152.183559 
z
" clip-path="url(#p258ba80ec9)" style="fill: #a18aa5; opacity: 0.5; stroke: #000000; stroke-linejoin: miter"/>
   </g>
   <g id="patch_70">
    <path d="M 260.723731 320.4 
L 267.311688 320.4 
L 267.311688 139.455151 
L 260.723731 139.455151 
z
" clip-path="url(#p258ba80ec9)" style="fill: #a18aa5; opacity: 0.5; stroke: #000000; stroke-linejoin: miter"/>
   </g>
   <g id="patch_71">
    <path d="M 267.311688 320.4 
L 273.899646 320.4 
L 273.899646 138.447867 
L 267.311688 138.447867 
z
" clip-path="url(#p258ba80ec9)" style="fill: #a18aa5; opacity: 0.5; stroke: #000000; stroke-linejoin: miter"/>
   </g>
   <g id="patch_72">
    <path d="M 273.899646 320.4 
L 280.487603 320.4 
L 280.487603 151.817274 
L 273.899646 151.817274 
z
" clip-path="url(#p258ba80ec9)" style="fill: #a18aa5; opacity: 0.5; stroke: #000000; stroke-linejoin: miter"/>
   </g>
   <g id="patch_73">
    <path d="M 280.487603 320.4 
L 287.075561 320.4 
L 287.075561 155.663267 
L 280.487603 155.663267 
z
" clip-path="url(#p258ba80ec9)" style="fill: #a18aa5; opacity: 0.5; stroke: #000000; stroke-linejoin: miter"/>
   </g>
   <g id="patch_74">
    <path d="M 287.075561 320.4 
L 293.663518 320.4 
L 293.663518 186.61436 
L 287.075561 186.61436 
z
" clip-path="url(#p258ba80ec9)" style="fill: #a18aa5; opacity: 0.5; stroke: #000000; stroke-linejoin: miter"/>
   </g>
   <g id="patch_75">
    <path d="M 293.663518 320.4 
L 300.251476 320.4 
L 300.251476 207.309469 
L 293.663518 207.309469 
z
" clip-path="url(#p258ba80ec9)" style="fill: #a18aa5; opacity: 0.5; stroke: #000000; stroke-linejoin: miter"/>
   </g>
   <g id="patch_76">
    <path d="M 300.251476 320.4 
L 306.839433 320.4 
L 306.839433 221.045161 
L 300.251476 221.045161 
z
" clip-path="url(#p258ba80ec9)" style="fill: #a18aa5; opacity: 0.5; stroke: #000000; stroke-linejoin: miter"/>
   </g>
   <g id="patch_77">
    <path d="M 306.839433 320.4 
L 313.427391 320.4 
L 313.427391 232.4 
L 306.839433 232.4 
z
" clip-path="url(#p258ba80ec9)" style="fill: #a18aa5; opacity: 0.5; stroke: #000000; stroke-linejoin: miter"/>
   </g>
   <g id="patch_78">
    <path d="M 313.427391 320.4 
L 320.015348 320.4 
L 320.015348 237.161707 
L 313.427391 237.161707 
z
" clip-path="url(#p258ba80ec9)" style="fill: #a18aa5; opacity: 0.5; stroke: #000000; stroke-linejoin: miter"/>
   </g>
   <g id="patch_79">
    <path d="M 320.015348 320.4 
L 326.603306 320.4 
L 326.603306 244.670552 
L 320.015348 244.670552 
z
" clip-path="url(#p258ba80ec9)" style="fill: #a18aa5; opacity: 0.5; stroke: #000000; stroke-linejoin: miter"/>
   </g>
   <g id="patch_80">
    <path d="M 326.603306 320.4 
L 333.191263 320.4 
L 333.191263 233.315713 
L 326.603306 233.315713 
z
" clip-path="url(#p258ba80ec9)" style="fill: #a18aa5; opacity: 0.5; stroke: #000000; stroke-linejoin: miter"/>
   </g>
   <g id="patch_81">
    <path d="M 333.191263 320.4 
L 339.779221 320.4 
L 339.779221 234.139854 
L 333.191263 234.139854 
z
" clip-path="url(#p258ba80ec9)" style="fill: #a18aa5; opacity: 0.5; stroke: #000000; stroke-linejoin: miter"/>
   </g>
   <g id="patch_82">
    <path d="M 339.779221 320.4 
L 346.367178 320.4 
L 346.367178 240.641415 
L 339.779221 240.641415 
z
" clip-path="url(#p258ba80ec9)" style="fill: #a18aa5; opacity: 0.5; stroke: #000000; stroke-linejoin: miter"/>
   </g>
   <g id="patch_83">
    <path d="M 346.367178 320.4 
L 352.955136 320.4 
L 352.955136 244.670552 
L 346.367178 244.670552 
z
" clip-path="url(#p258ba80ec9)" style="fill: #a18aa5; opacity: 0.5; stroke: #000000; stroke-linejoin: miter"/>
   </g>
   <g id="patch_84">
    <path d="M 352.955136 320.4 
L 359.543093 320.4 
L 359.543093 256.75796 
L 352.955136 256.75796 
z
" clip-path="url(#p258ba80ec9)" style="fill: #a18aa5; opacity: 0.5; stroke: #000000; stroke-linejoin: miter"/>
   </g>
   <g id="patch_85">
    <path d="M 359.543093 320.4 
L 366.131051 320.4 
L 366.131051 267.288658 
L 359.543093 267.288658 
z
" clip-path="url(#p258ba80ec9)" style="fill: #a18aa5; opacity: 0.5; stroke: #000000; stroke-linejoin: miter"/>
   </g>
   <g id="patch_86">
    <path d="M 366.131051 320.4 
L 372.719008 320.4 
L 372.719008 276.537357 
L 366.131051 276.537357 
z
" clip-path="url(#p258ba80ec9)" style="fill: #a18aa5; opacity: 0.5; stroke: #000000; stroke-linejoin: miter"/>
   </g>
   <g id="patch_87">
    <path d="M 372.719008 320.4 
L 379.306966 320.4 
L 379.306966 285.145057 
L 372.719008 285.145057 
z
" clip-path="url(#p258ba80ec9)" style="fill: #a18aa5; opacity: 0.5; stroke: #000000; stroke-linejoin: miter"/>
   </g>
   <g id="patch_88">
    <path d="M 379.306966 320.4 
L 385.894923 320.4 
L 385.894923 294.302185 
L 379.306966 294.302185 
z
" clip-path="url(#p258ba80ec9)" style="fill: #a18aa5; opacity: 0.5; stroke: #000000; stroke-linejoin: miter"/>
   </g>
   <g id="patch_89">
    <path d="M 385.894923 320.4 
L 392.482881 320.4 
L 392.482881 299.704891 
L 385.894923 299.704891 
z
" clip-path="url(#p258ba80ec9)" style="fill: #a18aa5; opacity: 0.5; stroke: #000000; stroke-linejoin: miter"/>
   </g>
   <g id="patch_90">
    <path d="M 392.482881 320.4 
L 399.070838 320.4 
L 399.070838 306.572737 
L 392.482881 306.572737 
z
" clip-path="url(#p258ba80ec9)" style="fill: #a18aa5; opacity: 0.5; stroke: #000000; stroke-linejoin: miter"/>
   </g>
   <g id="patch_91">
    <path d="M 399.070838 320.4 
L 405.658796 320.4 
L 405.658796 311.059729 
L 399.070838 311.059729 
z
" clip-path="url(#p258ba80ec9)" style="fill: #a18aa5; opacity: 0.5; stroke: #000000; stroke-linejoin: miter"/>
   </g>
   <g id="patch_92">
    <path d="M 405.658796 320.4 
L 412.246753 320.4 
L 412.246753 315.546722 
L 405.658796 315.546722 
z
" clip-path="url(#p258ba80ec9)" style="fill: #a18aa5; opacity: 0.5; stroke: #000000; stroke-linejoin: miter"/>
   </g>
   <g id="patch_93">
    <path d="M 412.246753 320.4 
L 418.834711 320.4 
L 418.834711 316.645578 
L 412.246753 316.645578 
z
" clip-path="url(#p258ba80ec9)" style="fill: #a18aa5; opacity: 0.5; stroke: #000000; stroke-linejoin: miter"/>
   </g>
   <g id="patch_94">
    <path d="M 418.834711 320.4 
L 425.422668 320.4 
L 425.422668 317.378148 
L 418.834711 317.378148 
z
" clip-path="url(#p258ba80ec9)" style="fill: #a18aa5; opacity: 0.5; stroke: #000000; stroke-linejoin: miter"/>
   </g>
   <g id="patch_95">
    <path d="M 425.422668 320.4 
L 432.010626 320.4 
L 432.010626 319.026431 
L 425.422668 319.026431 
z
" clip-path="url(#p258ba80ec9)" style="fill: #a18aa5; opacity: 0.5; stroke: #000000; stroke-linejoin: miter"/>
   </g>
   <g id="patch_96">
    <path d="M 432.010626 320.4 
L 438.598583 320.4 
L 438.598583 319.942144 
L 432.010626 319.942144 
z
" clip-path="url(#p258ba80ec9)" style="fill: #a18aa5; opacity: 0.5; stroke: #000000; stroke-linejoin: miter"/>
   </g>
   <g id="patch_97">
    <path d="M 438.598583 320.4 
L 445.186541 320.4 
L 445.186541 319.850572 
L 438.598583 319.850572 
z
" clip-path="url(#p258ba80ec9)" style="fill: #a18aa5; opacity: 0.5; stroke: #000000; stroke-linejoin: miter"/>
   </g>
   <g id="patch_98">
    <path d="M 445.186541 320.4 
L 451.774498 320.4 
L 451.774498 320.033715 
L 445.186541 320.033715 
z
" clip-path="url(#p258ba80ec9)" style="fill: #a18aa5; opacity: 0.5; stroke: #000000; stroke-linejoin: miter"/>
   </g>
   <g id="patch_99">
    <path d="M 451.774498 320.4 
L 458.362456 320.4 
L 458.362456 320.308429 
L 451.774498 320.308429 
z
" clip-path="url(#p258ba80ec9)" style="fill: #a18aa5; opacity: 0.5; stroke: #000000; stroke-linejoin: miter"/>
   </g>
   <g id="patch_100">
    <path d="M 458.362456 320.4 
L 464.950413 320.4 
L 464.950413 320.125286 
L 458.362456 320.125286 
z
" clip-path="url(#p258ba80ec9)" style="fill: #a18aa5; opacity: 0.5; stroke: #000000; stroke-linejoin: miter"/>
   </g>
   <g id="matplotlib.axis_1">
    <g id="xtick_1">
     <g id="line2d_1">
      <defs>
       <path id="m6d0146cebb" d="M 0 0 
L 0 3.5 
" style="stroke: #000000; stroke-width: 0.8"/>
      </defs>
      <g>
       <use xlink:href="#m6d0146cebb" x="173.581995" y="320.4" style="stroke: #000000; stroke-width: 0.8"/>
      </g>
     </g>
     <g id="text_1">
      <!-- 1.2 -->
      <g transform="translate(161.654651 338.797656) scale(0.15 -0.15)">
       <defs>
        <path id="DejaVuSans-31" d="M 794 531 
L 1825 531 
L 1825 4091 
L 703 3866 
L 703 4441 
L 1819 4666 
L 2450 4666 
L 2450 531 
L 3481 531 
L 3481 0 
L 794 0 
L 794 531 
z
" transform="scale(0.015625)"/>
        <path id="DejaVuSans-2e" d="M 684 794 
L 1344 794 
L 1344 0 
L 684 0 
L 684 794 
z
" transform="scale(0.015625)"/>
        <path id="DejaVuSans-32" d="M 1228 531 
L 3431 531 
L 3431 0 
L 469 0 
L 469 531 
Q 828 903 1448 1529 
Q 2069 2156 2228 2338 
Q 2531 2678 2651 2914 
Q 2772 3150 2772 3378 
Q 2772 3750 2511 3984 
Q 2250 4219 1831 4219 
Q 1534 4219 1204 4116 
Q 875 4013 500 3803 
L 500 4441 
Q 881 4594 1212 4672 
Q 1544 4750 1819 4750 
Q 2544 4750 2975 4387 
Q 3406 4025 3406 3419 
Q 3406 3131 3298 2873 
Q 3191 2616 2906 2266 
Q 2828 2175 2409 1742 
Q 1991 1309 1228 531 
z
" transform="scale(0.015625)"/>
       </defs>
       <use xlink:href="#DejaVuSans-31"/>
       <use xlink:href="#DejaVuSans-2e" transform="translate(63.623047 0)"/>
       <use xlink:href="#DejaVuSans-32" transform="translate(95.410156 0)"/>
      </g>
     </g>
    </g>
    <g id="xtick_2">
     <g id="line2d_2">
      <g>
       <use xlink:href="#m6d0146cebb" x="246.657921" y="320.4" style="stroke: #000000; stroke-width: 0.8"/>
      </g>
     </g>
     <g id="text_2">
      <!-- 1.3 -->
      <g transform="translate(234.730577 338.797656) scale(0.15 -0.15)">
       <defs>
        <path id="DejaVuSans-33" d="M 2597 2516 
Q 3050 2419 3304 2112 
Q 3559 1806 3559 1356 
Q 3559 666 3084 287 
Q 2609 -91 1734 -91 
Q 1441 -91 1130 -33 
Q 819 25 488 141 
L 488 750 
Q 750 597 1062 519 
Q 1375 441 1716 441 
Q 2309 441 2620 675 
Q 2931 909 2931 1356 
Q 2931 1769 2642 2001 
Q 2353 2234 1838 2234 
L 1294 2234 
L 1294 2753 
L 1863 2753 
Q 2328 2753 2575 2939 
Q 2822 3125 2822 3475 
Q 2822 3834 2567 4026 
Q 2313 4219 1838 4219 
Q 1578 4219 1281 4162 
Q 984 4106 628 3988 
L 628 4550 
Q 988 4650 1302 4700 
Q 1616 4750 1894 4750 
Q 2613 4750 3031 4423 
Q 3450 4097 3450 3541 
Q 3450 3153 3228 2886 
Q 3006 2619 2597 2516 
z
" transform="scale(0.015625)"/>
       </defs>
       <use xlink:href="#DejaVuSans-31"/>
       <use xlink:href="#DejaVuSans-2e" transform="translate(63.623047 0)"/>
       <use xlink:href="#DejaVuSans-33" transform="translate(95.410156 0)"/>
      </g>
     </g>
    </g>
    <g id="xtick_3">
     <g id="line2d_3">
      <g>
       <use xlink:href="#m6d0146cebb" x="319.733847" y="320.4" style="stroke: #000000; stroke-width: 0.8"/>
      </g>
     </g>
     <g id="text_3">
      <!-- 1.4 -->
      <g transform="translate(307.806503 338.797656) scale(0.15 -0.15)">
       <defs>
        <path id="DejaVuSans-34" d="M 2419 4116 
L 825 1625 
L 2419 1625 
L 2419 4116 
z
M 2253 4666 
L 3047 4666 
L 3047 1625 
L 3713 1625 
L 3713 1100 
L 3047 1100 
L 3047 0 
L 2419 0 
L 2419 1100 
L 313 1100 
L 313 1709 
L 2253 4666 
z
" transform="scale(0.015625)"/>
       </defs>
       <use xlink:href="#DejaVuSans-31"/>
       <use xlink:href="#DejaVuSans-2e" transform="translate(63.623047 0)"/>
       <use xlink:href="#DejaVuSans-34" transform="translate(95.410156 0)"/>
      </g>
     </g>
    </g>
    <g id="xtick_4">
     <g id="line2d_4">
      <g>
       <use xlink:href="#m6d0146cebb" x="392.809773" y="320.4" style="stroke: #000000; stroke-width: 0.8"/>
      </g>
     </g>
     <g id="text_4">
      <!-- 1.5 -->
      <g transform="translate(380.882429 338.797656) scale(0.15 -0.15)">
       <defs>
        <path id="DejaVuSans-35" d="M 691 4666 
L 3169 4666 
L 3169 4134 
L 1269 4134 
L 1269 2991 
Q 1406 3038 1543 3061 
Q 1681 3084 1819 3084 
Q 2600 3084 3056 2656 
Q 3513 2228 3513 1497 
Q 3513 744 3044 326 
Q 2575 -91 1722 -91 
Q 1428 -91 1123 -41 
Q 819 9 494 109 
L 494 744 
Q 775 591 1075 516 
Q 1375 441 1709 441 
Q 2250 441 2565 725 
Q 2881 1009 2881 1497 
Q 2881 1984 2565 2268 
Q 2250 2553 1709 2553 
Q 1456 2553 1204 2497 
Q 953 2441 691 2322 
L 691 4666 
z
" transform="scale(0.015625)"/>
       </defs>
       <use xlink:href="#DejaVuSans-31"/>
       <use xlink:href="#DejaVuSans-2e" transform="translate(63.623047 0)"/>
       <use xlink:href="#DejaVuSans-35" transform="translate(95.410156 0)"/>
      </g>
     </g>
    </g>
    <g id="xtick_5">
     <g id="line2d_5">
      <g>
       <use xlink:href="#m6d0146cebb" x="465.885699" y="320.4" style="stroke: #000000; stroke-width: 0.8"/>
      </g>
     </g>
     <g id="text_5">
      <!-- 1.6 -->
      <g transform="translate(453.958355 338.797656) scale(0.15 -0.15)">
       <defs>
        <path id="DejaVuSans-36" d="M 2113 2584 
Q 1688 2584 1439 2293 
Q 1191 2003 1191 1497 
Q 1191 994 1439 701 
Q 1688 409 2113 409 
Q 2538 409 2786 701 
Q 3034 994 3034 1497 
Q 3034 2003 2786 2293 
Q 2538 2584 2113 2584 
z
M 3366 4563 
L 3366 3988 
Q 3128 4100 2886 4159 
Q 2644 4219 2406 4219 
Q 1781 4219 1451 3797 
Q 1122 3375 1075 2522 
Q 1259 2794 1537 2939 
Q 1816 3084 2150 3084 
Q 2853 3084 3261 2657 
Q 3669 2231 3669 1497 
Q 3669 778 3244 343 
Q 2819 -91 2113 -91 
Q 1303 -91 875 529 
Q 447 1150 447 2328 
Q 447 3434 972 4092 
Q 1497 4750 2381 4750 
Q 2619 4750 2861 4703 
Q 3103 4656 3366 4563 
z
" transform="scale(0.015625)"/>
       </defs>
       <use xlink:href="#DejaVuSans-31"/>
       <use xlink:href="#DejaVuSans-2e" transform="translate(63.623047 0)"/>
       <use xlink:href="#DejaVuSans-36" transform="translate(95.410156 0)"/>
      </g>
     </g>
    </g>
    <g id="text_6">
     <!-- C-O Bond length (Å) -->
     <g transform="translate(203.089205 364.482813) scale(0.2 -0.2)">
      <defs>
       <path id="DejaVuSans-43" d="M 4122 4306 
L 4122 3641 
Q 3803 3938 3442 4084 
Q 3081 4231 2675 4231 
Q 1875 4231 1450 3742 
Q 1025 3253 1025 2328 
Q 1025 1406 1450 917 
Q 1875 428 2675 428 
Q 3081 428 3442 575 
Q 3803 722 4122 1019 
L 4122 359 
Q 3791 134 3420 21 
Q 3050 -91 2638 -91 
Q 1578 -91 968 557 
Q 359 1206 359 2328 
Q 359 3453 968 4101 
Q 1578 4750 2638 4750 
Q 3056 4750 3426 4639 
Q 3797 4528 4122 4306 
z
" transform="scale(0.015625)"/>
       <path id="DejaVuSans-2d" d="M 313 2009 
L 1997 2009 
L 1997 1497 
L 313 1497 
L 313 2009 
z
" transform="scale(0.015625)"/>
       <path id="DejaVuSans-4f" d="M 2522 4238 
Q 1834 4238 1429 3725 
Q 1025 3213 1025 2328 
Q 1025 1447 1429 934 
Q 1834 422 2522 422 
Q 3209 422 3611 934 
Q 4013 1447 4013 2328 
Q 4013 3213 3611 3725 
Q 3209 4238 2522 4238 
z
M 2522 4750 
Q 3503 4750 4090 4092 
Q 4678 3434 4678 2328 
Q 4678 1225 4090 567 
Q 3503 -91 2522 -91 
Q 1538 -91 948 565 
Q 359 1222 359 2328 
Q 359 3434 948 4092 
Q 1538 4750 2522 4750 
z
" transform="scale(0.015625)"/>
       <path id="DejaVuSans-20" transform="scale(0.015625)"/>
       <path id="DejaVuSans-42" d="M 1259 2228 
L 1259 519 
L 2272 519 
Q 2781 519 3026 730 
Q 3272 941 3272 1375 
Q 3272 1813 3026 2020 
Q 2781 2228 2272 2228 
L 1259 2228 
z
M 1259 4147 
L 1259 2741 
L 2194 2741 
Q 2656 2741 2882 2914 
Q 3109 3088 3109 3444 
Q 3109 3797 2882 3972 
Q 2656 4147 2194 4147 
L 1259 4147 
z
M 628 4666 
L 2241 4666 
Q 2963 4666 3353 4366 
Q 3744 4066 3744 3513 
Q 3744 3084 3544 2831 
Q 3344 2578 2956 2516 
Q 3422 2416 3680 2098 
Q 3938 1781 3938 1306 
Q 3938 681 3513 340 
Q 3088 0 2303 0 
L 628 0 
L 628 4666 
z
" transform="scale(0.015625)"/>
       <path id="DejaVuSans-6f" d="M 1959 3097 
Q 1497 3097 1228 2736 
Q 959 2375 959 1747 
Q 959 1119 1226 758 
Q 1494 397 1959 397 
Q 2419 397 2687 759 
Q 2956 1122 2956 1747 
Q 2956 2369 2687 2733 
Q 2419 3097 1959 3097 
z
M 1959 3584 
Q 2709 3584 3137 3096 
Q 3566 2609 3566 1747 
Q 3566 888 3137 398 
Q 2709 -91 1959 -91 
Q 1206 -91 779 398 
Q 353 888 353 1747 
Q 353 2609 779 3096 
Q 1206 3584 1959 3584 
z
" transform="scale(0.015625)"/>
       <path id="DejaVuSans-6e" d="M 3513 2113 
L 3513 0 
L 2938 0 
L 2938 2094 
Q 2938 2591 2744 2837 
Q 2550 3084 2163 3084 
Q 1697 3084 1428 2787 
Q 1159 2491 1159 1978 
L 1159 0 
L 581 0 
L 581 3500 
L 1159 3500 
L 1159 2956 
Q 1366 3272 1645 3428 
Q 1925 3584 2291 3584 
Q 2894 3584 3203 3211 
Q 3513 2838 3513 2113 
z
" transform="scale(0.015625)"/>
       <path id="DejaVuSans-64" d="M 2906 2969 
L 2906 4863 
L 3481 4863 
L 3481 0 
L 2906 0 
L 2906 525 
Q 2725 213 2448 61 
Q 2172 -91 1784 -91 
Q 1150 -91 751 415 
Q 353 922 353 1747 
Q 353 2572 751 3078 
Q 1150 3584 1784 3584 
Q 2172 3584 2448 3432 
Q 2725 3281 2906 2969 
z
M 947 1747 
Q 947 1113 1208 752 
Q 1469 391 1925 391 
Q 2381 391 2643 752 
Q 2906 1113 2906 1747 
Q 2906 2381 2643 2742 
Q 2381 3103 1925 3103 
Q 1469 3103 1208 2742 
Q 947 2381 947 1747 
z
" transform="scale(0.015625)"/>
       <path id="DejaVuSans-6c" d="M 603 4863 
L 1178 4863 
L 1178 0 
L 603 0 
L 603 4863 
z
" transform="scale(0.015625)"/>
       <path id="DejaVuSans-65" d="M 3597 1894 
L 3597 1613 
L 953 1613 
Q 991 1019 1311 708 
Q 1631 397 2203 397 
Q 2534 397 2845 478 
Q 3156 559 3463 722 
L 3463 178 
Q 3153 47 2828 -22 
Q 2503 -91 2169 -91 
Q 1331 -91 842 396 
Q 353 884 353 1716 
Q 353 2575 817 3079 
Q 1281 3584 2069 3584 
Q 2775 3584 3186 3129 
Q 3597 2675 3597 1894 
z
M 3022 2063 
Q 3016 2534 2758 2815 
Q 2500 3097 2075 3097 
Q 1594 3097 1305 2825 
Q 1016 2553 972 2059 
L 3022 2063 
z
" transform="scale(0.015625)"/>
       <path id="DejaVuSans-67" d="M 2906 1791 
Q 2906 2416 2648 2759 
Q 2391 3103 1925 3103 
Q 1463 3103 1205 2759 
Q 947 2416 947 1791 
Q 947 1169 1205 825 
Q 1463 481 1925 481 
Q 2391 481 2648 825 
Q 2906 1169 2906 1791 
z
M 3481 434 
Q 3481 -459 3084 -895 
Q 2688 -1331 1869 -1331 
Q 1566 -1331 1297 -1286 
Q 1028 -1241 775 -1147 
L 775 -588 
Q 1028 -725 1275 -790 
Q 1522 -856 1778 -856 
Q 2344 -856 2625 -561 
Q 2906 -266 2906 331 
L 2906 616 
Q 2728 306 2450 153 
Q 2172 0 1784 0 
Q 1141 0 747 490 
Q 353 981 353 1791 
Q 353 2603 747 3093 
Q 1141 3584 1784 3584 
Q 2172 3584 2450 3431 
Q 2728 3278 2906 2969 
L 2906 3500 
L 3481 3500 
L 3481 434 
z
" transform="scale(0.015625)"/>
       <path id="DejaVuSans-74" d="M 1172 4494 
L 1172 3500 
L 2356 3500 
L 2356 3053 
L 1172 3053 
L 1172 1153 
Q 1172 725 1289 603 
Q 1406 481 1766 481 
L 2356 481 
L 2356 0 
L 1766 0 
Q 1100 0 847 248 
Q 594 497 594 1153 
L 594 3053 
L 172 3053 
L 172 3500 
L 594 3500 
L 594 4494 
L 1172 4494 
z
" transform="scale(0.015625)"/>
       <path id="DejaVuSans-68" d="M 3513 2113 
L 3513 0 
L 2938 0 
L 2938 2094 
Q 2938 2591 2744 2837 
Q 2550 3084 2163 3084 
Q 1697 3084 1428 2787 
Q 1159 2491 1159 1978 
L 1159 0 
L 581 0 
L 581 4863 
L 1159 4863 
L 1159 2956 
Q 1366 3272 1645 3428 
Q 1925 3584 2291 3584 
Q 2894 3584 3203 3211 
Q 3513 2838 3513 2113 
z
" transform="scale(0.015625)"/>
       <path id="DejaVuSans-28" d="M 1984 4856 
Q 1566 4138 1362 3434 
Q 1159 2731 1159 2009 
Q 1159 1288 1364 580 
Q 1569 -128 1984 -844 
L 1484 -844 
Q 1016 -109 783 600 
Q 550 1309 550 2009 
Q 550 2706 781 3412 
Q 1013 4119 1484 4856 
L 1984 4856 
z
" transform="scale(0.015625)"/>
       <path id="DejaVuSans-c5" d="M 2663 5081 
Q 2663 5278 2523 5417 
Q 2384 5556 2188 5556 
Q 1988 5556 1852 5420 
Q 1716 5284 1716 5081 
Q 1716 4884 1853 4746 
Q 1991 4609 2188 4609 
Q 2384 4609 2523 4746 
Q 2663 4884 2663 5081 
z
M 2188 4044 
L 1338 1722 
L 3041 1722 
L 2188 4044 
z
M 1716 4366 
Q 1525 4494 1428 4673 
Q 1331 4853 1331 5081 
Q 1331 5441 1579 5691 
Q 1828 5941 2188 5941 
Q 2544 5941 2795 5689 
Q 3047 5438 3047 5081 
Q 3047 4863 2948 4678 
Q 2850 4494 2663 4366 
L 4325 0 
L 3669 0 
L 3244 1197 
L 1141 1197 
L 716 0 
L 50 0 
L 1716 4366 
z
" transform="scale(0.015625)"/>
       <path id="DejaVuSans-29" d="M 513 4856 
L 1013 4856 
Q 1481 4119 1714 3412 
Q 1947 2706 1947 2009 
Q 1947 1309 1714 600 
Q 1481 -109 1013 -844 
L 513 -844 
Q 928 -128 1133 580 
Q 1338 1288 1338 2009 
Q 1338 2731 1133 3434 
Q 928 4138 513 4856 
z
" transform="scale(0.015625)"/>
      </defs>
      <use xlink:href="#DejaVuSans-43"/>
      <use xlink:href="#DejaVuSans-2d" transform="translate(69.824219 0)"/>
      <use xlink:href="#DejaVuSans-4f" transform="translate(108.658203 0)"/>
      <use xlink:href="#DejaVuSans-20" transform="translate(187.369141 0)"/>
      <use xlink:href="#DejaVuSans-42" transform="translate(219.15625 0)"/>
      <use xlink:href="#DejaVuSans-6f" transform="translate(287.759766 0)"/>
      <use xlink:href="#DejaVuSans-6e" transform="translate(348.941406 0)"/>
      <use xlink:href="#DejaVuSans-64" transform="translate(412.320312 0)"/>
      <use xlink:href="#DejaVuSans-20" transform="translate(475.796875 0)"/>
      <use xlink:href="#DejaVuSans-6c" transform="translate(507.583984 0)"/>
      <use xlink:href="#DejaVuSans-65" transform="translate(535.367188 0)"/>
      <use xlink:href="#DejaVuSans-6e" transform="translate(596.890625 0)"/>
      <use xlink:href="#DejaVuSans-67" transform="translate(660.269531 0)"/>
      <use xlink:href="#DejaVuSans-74" transform="translate(723.746094 0)"/>
      <use xlink:href="#DejaVuSans-68" transform="translate(762.955078 0)"/>
      <use xlink:href="#DejaVuSans-20" transform="translate(826.333984 0)"/>
      <use xlink:href="#DejaVuSans-28" transform="translate(858.121094 0)"/>
      <use xlink:href="#DejaVuSans-c5" transform="translate(897.134766 0)"/>
      <use xlink:href="#DejaVuSans-29" transform="translate(965.542969 0)"/>
     </g>
    </g>
   </g>
   <g id="matplotlib.axis_2">
    <g id="ytick_1">
     <g id="line2d_6">
      <defs>
       <path id="m76665569f4" d="M 0 0 
L -3.5 0 
" style="stroke: #000000; stroke-width: 0.8"/>
      </defs>
      <g>
       <use xlink:href="#m76665569f4" x="126" y="320.4" style="stroke: #000000; stroke-width: 0.8"/>
      </g>
     </g>
     <g id="text_7">
      <!-- 0 -->
      <g transform="translate(109.45625 326.098828) scale(0.15 -0.15)">
       <defs>
        <path id="DejaVuSans-30" d="M 2034 4250 
Q 1547 4250 1301 3770 
Q 1056 3291 1056 2328 
Q 1056 1369 1301 889 
Q 1547 409 2034 409 
Q 2525 409 2770 889 
Q 3016 1369 3016 2328 
Q 3016 3291 2770 3770 
Q 2525 4250 2034 4250 
z
M 2034 4750 
Q 2819 4750 3233 4129 
Q 3647 3509 3647 2328 
Q 3647 1150 3233 529 
Q 2819 -91 2034 -91 
Q 1250 -91 836 529 
Q 422 1150 422 2328 
Q 422 3509 836 4129 
Q 1250 4750 2034 4750 
z
" transform="scale(0.015625)"/>
       </defs>
       <use xlink:href="#DejaVuSans-30"/>
      </g>
     </g>
    </g>
    <g id="ytick_2">
     <g id="line2d_7">
      <g>
       <use xlink:href="#m76665569f4" x="126" y="283.213754" style="stroke: #000000; stroke-width: 0.8"/>
      </g>
     </g>
     <g id="text_8">
      <!-- 1 -->
      <g transform="translate(109.45625 288.912582) scale(0.15 -0.15)">
       <use xlink:href="#DejaVuSans-31"/>
      </g>
     </g>
    </g>
    <g id="ytick_3">
     <g id="line2d_8">
      <g>
       <use xlink:href="#m76665569f4" x="126" y="246.027508" style="stroke: #000000; stroke-width: 0.8"/>
      </g>
     </g>
     <g id="text_9">
      <!-- 2 -->
      <g transform="translate(109.45625 251.726336) scale(0.15 -0.15)">
       <use xlink:href="#DejaVuSans-32"/>
      </g>
     </g>
    </g>
    <g id="ytick_4">
     <g id="line2d_9">
      <g>
       <use xlink:href="#m76665569f4" x="126" y="208.841262" style="stroke: #000000; stroke-width: 0.8"/>
      </g>
     </g>
     <g id="text_10">
      <!-- 3 -->
      <g transform="translate(109.45625 214.54009) scale(0.15 -0.15)">
       <use xlink:href="#DejaVuSans-33"/>
      </g>
     </g>
    </g>
    <g id="ytick_5">
     <g id="line2d_10">
      <g>
       <use xlink:href="#m76665569f4" x="126" y="171.655016" style="stroke: #000000; stroke-width: 0.8"/>
      </g>
     </g>
     <g id="text_11">
      <!-- 4 -->
      <g transform="translate(109.45625 177.353844) scale(0.15 -0.15)">
       <use xlink:href="#DejaVuSans-34"/>
      </g>
     </g>
    </g>
    <g id="ytick_6">
     <g id="line2d_11">
      <g>
       <use xlink:href="#m76665569f4" x="126" y="134.46877" style="stroke: #000000; stroke-width: 0.8"/>
      </g>
     </g>
     <g id="text_12">
      <!-- 5 -->
      <g transform="translate(109.45625 140.167598) scale(0.15 -0.15)">
       <use xlink:href="#DejaVuSans-35"/>
      </g>
     </g>
    </g>
    <g id="ytick_7">
     <g id="line2d_12">
      <g>
       <use xlink:href="#m76665569f4" x="126" y="97.282524" style="stroke: #000000; stroke-width: 0.8"/>
      </g>
     </g>
     <g id="text_13">
      <!-- 6 -->
      <g transform="translate(109.45625 102.981353) scale(0.15 -0.15)">
       <use xlink:href="#DejaVuSans-36"/>
      </g>
     </g>
    </g>
    <g id="ytick_8">
     <g id="line2d_13">
      <g>
       <use xlink:href="#m76665569f4" x="126" y="60.096279" style="stroke: #000000; stroke-width: 0.8"/>
      </g>
     </g>
     <g id="text_14">
      <!-- 7 -->
      <g transform="translate(109.45625 65.795107) scale(0.15 -0.15)">
       <defs>
        <path id="DejaVuSans-37" d="M 525 4666 
L 3525 4666 
L 3525 4397 
L 1831 0 
L 1172 0 
L 2766 4134 
L 525 4134 
L 525 4666 
z
" transform="scale(0.015625)"/>
       </defs>
       <use xlink:href="#DejaVuSans-37"/>
      </g>
     </g>
    </g>
    <g id="text_15">
     <!-- Density -->
     <g transform="translate(101.296875 219.817187) rotate(-90) scale(0.2 -0.2)">
      <defs>
       <path id="DejaVuSans-44" d="M 1259 4147 
L 1259 519 
L 2022 519 
Q 2988 519 3436 956 
Q 3884 1394 3884 2338 
Q 3884 3275 3436 3711 
Q 2988 4147 2022 4147 
L 1259 4147 
z
M 628 4666 
L 1925 4666 
Q 3281 4666 3915 4102 
Q 4550 3538 4550 2338 
Q 4550 1131 3912 565 
Q 3275 0 1925 0 
L 628 0 
L 628 4666 
z
" transform="scale(0.015625)"/>
       <path id="DejaVuSans-73" d="M 2834 3397 
L 2834 2853 
Q 2591 2978 2328 3040 
Q 2066 3103 1784 3103 
Q 1356 3103 1142 2972 
Q 928 2841 928 2578 
Q 928 2378 1081 2264 
Q 1234 2150 1697 2047 
L 1894 2003 
Q 2506 1872 2764 1633 
Q 3022 1394 3022 966 
Q 3022 478 2636 193 
Q 2250 -91 1575 -91 
Q 1294 -91 989 -36 
Q 684 19 347 128 
L 347 722 
Q 666 556 975 473 
Q 1284 391 1588 391 
Q 1994 391 2212 530 
Q 2431 669 2431 922 
Q 2431 1156 2273 1281 
Q 2116 1406 1581 1522 
L 1381 1569 
Q 847 1681 609 1914 
Q 372 2147 372 2553 
Q 372 3047 722 3315 
Q 1072 3584 1716 3584 
Q 2034 3584 2315 3537 
Q 2597 3491 2834 3397 
z
" transform="scale(0.015625)"/>
       <path id="DejaVuSans-69" d="M 603 3500 
L 1178 3500 
L 1178 0 
L 603 0 
L 603 3500 
z
M 603 4863 
L 1178 4863 
L 1178 4134 
L 603 4134 
L 603 4863 
z
" transform="scale(0.015625)"/>
       <path id="DejaVuSans-79" d="M 2059 -325 
Q 1816 -950 1584 -1140 
Q 1353 -1331 966 -1331 
L 506 -1331 
L 506 -850 
L 844 -850 
Q 1081 -850 1212 -737 
Q 1344 -625 1503 -206 
L 1606 56 
L 191 3500 
L 800 3500 
L 1894 763 
L 2988 3500 
L 3597 3500 
L 2059 -325 
z
" transform="scale(0.015625)"/>
      </defs>
      <use xlink:href="#DejaVuSans-44"/>
      <use xlink:href="#DejaVuSans-65" transform="translate(77.001953 0)"/>
      <use xlink:href="#DejaVuSans-6e" transform="translate(138.525391 0)"/>
      <use xlink:href="#DejaVuSans-73" transform="translate(201.904297 0)"/>
      <use xlink:href="#DejaVuSans-69" transform="translate(254.003906 0)"/>
      <use xlink:href="#DejaVuSans-74" transform="translate(281.787109 0)"/>
      <use xlink:href="#DejaVuSans-79" transform="translate(320.996094 0)"/>
     </g>
    </g>
   </g>
   <g id="patch_101">
    <path d="M 126 320.4 
L 126 43.2 
" style="fill: none; stroke: #000000; stroke-width: 3; stroke-linejoin: miter; stroke-linecap: square"/>
   </g>
   <g id="patch_102">
    <path d="M 481.090909 320.4 
L 481.090909 43.2 
" style="fill: none; stroke: #000000; stroke-width: 3; stroke-linejoin: miter; stroke-linecap: square"/>
   </g>
   <g id="patch_103">
    <path d="M 126 320.4 
L 481.090909 320.4 
" style="fill: none; stroke: #000000; stroke-width: 3; stroke-linejoin: miter; stroke-linecap: square"/>
   </g>
   <g id="patch_104">
    <path d="M 126 43.2 
L 481.090909 43.2 
" style="fill: none; stroke: #000000; stroke-width: 3; stroke-linejoin: miter; stroke-linecap: square"/>
   </g>
   <g id="legend_1">
    <g id="patch_105">
     <path d="M 379.770597 110.44125 
L 468.490909 110.44125 
Q 472.090909 110.44125 472.090909 106.84125 
L 472.090909 55.8 
Q 472.090909 52.2 468.490909 52.2 
L 379.770597 52.2 
Q 376.170597 52.2 376.170597 55.8 
L 376.170597 106.84125 
Q 376.170597 110.44125 379.770597 110.44125 
z
" style="fill: #ffffff; opacity: 0.8; stroke: #cccccc; stroke-linejoin: miter"/>
    </g>
    <g id="patch_106">
     <path d="M 383.370597 73.077187 
L 419.370597 73.077187 
L 419.370597 60.477187 
L 383.370597 60.477187 
z
" style="fill: #e9c5dd; stroke: #000000; stroke-linejoin: miter"/>
    </g>
    <g id="text_16">
     <!-- U-1 -->
     <g transform="translate(433.770597 73.077187) scale(0.18 -0.18)">
      <defs>
       <path id="DejaVuSans-55" d="M 556 4666 
L 1191 4666 
L 1191 1831 
Q 1191 1081 1462 751 
Q 1734 422 2344 422 
Q 2950 422 3222 751 
Q 3494 1081 3494 1831 
L 3494 4666 
L 4128 4666 
L 4128 1753 
Q 4128 841 3676 375 
Q 3225 -91 2344 -91 
Q 1459 -91 1007 375 
Q 556 841 556 1753 
L 556 4666 
z
" transform="scale(0.015625)"/>
      </defs>
      <use xlink:href="#DejaVuSans-55"/>
      <use xlink:href="#DejaVuSans-2d" transform="translate(73.193359 0)"/>
      <use xlink:href="#DejaVuSans-31" transform="translate(109.277344 0)"/>
     </g>
    </g>
    <g id="patch_107">
     <path d="M 383.370597 99.497812 
L 419.370597 99.497812 
L 419.370597 86.897812 
L 383.370597 86.897812 
z
" style="fill: #a18aa5; opacity: 0.5; stroke: #000000; stroke-linejoin: miter"/>
    </g>
    <g id="text_17">
     <!-- U-2 -->
     <g transform="translate(433.770597 99.497812) scale(0.18 -0.18)">
      <use xlink:href="#DejaVuSans-55"/>
      <use xlink:href="#DejaVuSans-2d" transform="translate(73.193359 0)"/>
      <use xlink:href="#DejaVuSans-32" transform="translate(109.277344 0)"/>
     </g>
    </g>
   </g>
  </g>
  <g id="axes_2">
   <g id="patch_108">
    <path d="M 552.109091 320.4 
L 907.2 320.4 
L 907.2 43.2 
L 552.109091 43.2 
z
" style="fill: #ffffff"/>
   </g>
   <g id="patch_109">
    <path d="M 568.249587 320.4 
L 574.837544 320.4 
L 574.837544 320.210549 
L 568.249587 320.210549 
z
" clip-path="url(#p2aa8af643a)" style="fill: #e9c5dd; stroke: #000000; stroke-linejoin: miter"/>
   </g>
   <g id="patch_110">
    <path d="M 574.837544 320.4 
L 581.425502 320.4 
L 581.425502 318.694941 
L 574.837544 318.694941 
z
" clip-path="url(#p2aa8af643a)" style="fill: #e9c5dd; stroke: #000000; stroke-linejoin: miter"/>
   </g>
   <g id="patch_111">
    <path d="M 581.425502 320.4 
L 588.013459 320.4 
L 588.013459 313.86394 
L 581.425502 313.86394 
z
" clip-path="url(#p2aa8af643a)" style="fill: #e9c5dd; stroke: #000000; stroke-linejoin: miter"/>
   </g>
   <g id="patch_112">
    <path d="M 588.013459 320.4 
L 594.601417 320.4 
L 594.601417 302.781055 
L 588.013459 302.781055 
z
" clip-path="url(#p2aa8af643a)" style="fill: #e9c5dd; stroke: #000000; stroke-linejoin: miter"/>
   </g>
   <g id="patch_113">
    <path d="M 594.601417 320.4 
L 601.189374 320.4 
L 601.189374 279.573305 
L 594.601417 279.573305 
z
" clip-path="url(#p2aa8af643a)" style="fill: #e9c5dd; stroke: #000000; stroke-linejoin: miter"/>
   </g>
   <g id="patch_114">
    <path d="M 601.189374 320.4 
L 607.777332 320.4 
L 607.777332 234.862863 
L 601.189374 234.862863 
z
" clip-path="url(#p2aa8af643a)" style="fill: #e9c5dd; stroke: #000000; stroke-linejoin: miter"/>
   </g>
   <g id="patch_115">
    <path d="M 607.777332 320.4 
L 614.365289 320.4 
L 614.365289 175.659419 
L 607.777332 175.659419 
z
" clip-path="url(#p2aa8af643a)" style="fill: #e9c5dd; stroke: #000000; stroke-linejoin: miter"/>
   </g>
   <g id="patch_116">
    <path d="M 614.365289 320.4 
L 620.953247 320.4 
L 620.953247 120.908073 
L 614.365289 120.908073 
z
" clip-path="url(#p2aa8af643a)" style="fill: #e9c5dd; stroke: #000000; stroke-linejoin: miter"/>
   </g>
   <g id="patch_117">
    <path d="M 620.953247 320.4 
L 627.541204 320.4 
L 627.541204 75.534553 
L 620.953247 75.534553 
z
" clip-path="url(#p2aa8af643a)" style="fill: #e9c5dd; stroke: #000000; stroke-linejoin: miter"/>
   </g>
   <g id="patch_118">
    <path d="M 627.541204 320.4 
L 634.129162 320.4 
L 634.129162 70.893003 
L 627.541204 70.893003 
z
" clip-path="url(#p2aa8af643a)" style="fill: #e9c5dd; stroke: #000000; stroke-linejoin: miter"/>
   </g>
   <g id="patch_119">
    <path d="M 634.129162 320.4 
L 640.717119 320.4 
L 640.717119 87.659419 
L 634.129162 87.659419 
z
" clip-path="url(#p2aa8af643a)" style="fill: #e9c5dd; stroke: #000000; stroke-linejoin: miter"/>
   </g>
   <g id="patch_120">
    <path d="M 640.717119 320.4 
L 647.305077 320.4 
L 647.305077 124.412917 
L 640.717119 124.412917 
z
" clip-path="url(#p2aa8af643a)" style="fill: #e9c5dd; stroke: #000000; stroke-linejoin: miter"/>
   </g>
   <g id="patch_121">
    <path d="M 647.305077 320.4 
L 653.893034 320.4 
L 653.893034 151.220237 
L 647.305077 151.220237 
z
" clip-path="url(#p2aa8af643a)" style="fill: #e9c5dd; stroke: #000000; stroke-linejoin: miter"/>
   </g>
   <g id="patch_122">
    <path d="M 653.893034 320.4 
L 660.480992 320.4 
L 660.480992 168.081378 
L 653.893034 168.081378 
z
" clip-path="url(#p2aa8af643a)" style="fill: #e9c5dd; stroke: #000000; stroke-linejoin: miter"/>
   </g>
   <g id="patch_123">
    <path d="M 660.480992 320.4 
L 667.068949 320.4 
L 667.068949 176.227772 
L 660.480992 176.227772 
z
" clip-path="url(#p2aa8af643a)" style="fill: #e9c5dd; stroke: #000000; stroke-linejoin: miter"/>
   </g>
   <g id="patch_124">
    <path d="M 667.068949 320.4 
L 673.656907 320.4 
L 673.656907 160.503337 
L 667.068949 160.503337 
z
" clip-path="url(#p2aa8af643a)" style="fill: #e9c5dd; stroke: #000000; stroke-linejoin: miter"/>
   </g>
   <g id="patch_125">
    <path d="M 673.656907 320.4 
L 680.244864 320.4 
L 680.244864 147.715393 
L 673.656907 147.715393 
z
" clip-path="url(#p2aa8af643a)" style="fill: #e9c5dd; stroke: #000000; stroke-linejoin: miter"/>
   </g>
   <g id="patch_126">
    <path d="M 680.244864 320.4 
L 686.832822 320.4 
L 686.832822 134.359096 
L 680.244864 134.359096 
z
" clip-path="url(#p2aa8af643a)" style="fill: #e9c5dd; stroke: #000000; stroke-linejoin: miter"/>
   </g>
   <g id="patch_127">
    <path d="M 686.832822 320.4 
L 693.420779 320.4 
L 693.420779 130.380624 
L 686.832822 130.380624 
z
" clip-path="url(#p2aa8af643a)" style="fill: #e9c5dd; stroke: #000000; stroke-linejoin: miter"/>
   </g>
   <g id="patch_128">
    <path d="M 693.420779 320.4 
L 700.008737 320.4 
L 700.008737 137.295587 
L 693.420779 137.295587 
z
" clip-path="url(#p2aa8af643a)" style="fill: #e9c5dd; stroke: #000000; stroke-linejoin: miter"/>
   </g>
   <g id="patch_129">
    <path d="M 700.008737 320.4 
L 706.596694 320.4 
L 706.596694 149.136276 
L 700.008737 149.136276 
z
" clip-path="url(#p2aa8af643a)" style="fill: #e9c5dd; stroke: #000000; stroke-linejoin: miter"/>
   </g>
   <g id="patch_130">
    <path d="M 706.596694 320.4 
L 713.184652 320.4 
L 713.184652 170.828418 
L 706.596694 170.828418 
z
" clip-path="url(#p2aa8af643a)" style="fill: #e9c5dd; stroke: #000000; stroke-linejoin: miter"/>
   </g>
   <g id="patch_131">
    <path d="M 713.184652 320.4 
L 719.772609 320.4 
L 719.772609 200.477503 
L 713.184652 200.477503 
z
" clip-path="url(#p2aa8af643a)" style="fill: #e9c5dd; stroke: #000000; stroke-linejoin: miter"/>
   </g>
   <g id="patch_132">
    <path d="M 719.772609 320.4 
L 726.360567 320.4 
L 726.360567 225.106136 
L 719.772609 225.106136 
z
" clip-path="url(#p2aa8af643a)" style="fill: #e9c5dd; stroke: #000000; stroke-linejoin: miter"/>
   </g>
   <g id="patch_133">
    <path d="M 726.360567 320.4 
L 732.948524 320.4 
L 732.948524 243.388159 
L 726.360567 243.388159 
z
" clip-path="url(#p2aa8af643a)" style="fill: #e9c5dd; stroke: #000000; stroke-linejoin: miter"/>
   </g>
   <g id="patch_134">
    <path d="M 732.948524 320.4 
L 739.536482 320.4 
L 739.536482 250.776749 
L 732.948524 250.776749 
z
" clip-path="url(#p2aa8af643a)" style="fill: #e9c5dd; stroke: #000000; stroke-linejoin: miter"/>
   </g>
   <g id="patch_135">
    <path d="M 739.536482 320.4 
L 746.124439 320.4 
L 746.124439 245.377395 
L 739.536482 245.377395 
z
" clip-path="url(#p2aa8af643a)" style="fill: #e9c5dd; stroke: #000000; stroke-linejoin: miter"/>
   </g>
   <g id="patch_136">
    <path d="M 746.124439 320.4 
L 752.712397 320.4 
L 752.712397 238.367707 
L 746.124439 238.367707 
z
" clip-path="url(#p2aa8af643a)" style="fill: #e9c5dd; stroke: #000000; stroke-linejoin: miter"/>
   </g>
   <g id="patch_137">
    <path d="M 752.712397 320.4 
L 759.300354 320.4 
L 759.300354 240.167492 
L 752.712397 240.167492 
z
" clip-path="url(#p2aa8af643a)" style="fill: #e9c5dd; stroke: #000000; stroke-linejoin: miter"/>
   </g>
   <g id="patch_138">
    <path d="M 759.300354 320.4 
L 765.888312 320.4 
L 765.888312 232.210549 
L 759.300354 232.210549 
z
" clip-path="url(#p2aa8af643a)" style="fill: #e9c5dd; stroke: #000000; stroke-linejoin: miter"/>
   </g>
   <g id="patch_139">
    <path d="M 765.888312 320.4 
L 772.476269 320.4 
L 772.476269 230.221313 
L 765.888312 230.221313 
z
" clip-path="url(#p2aa8af643a)" style="fill: #e9c5dd; stroke: #000000; stroke-linejoin: miter"/>
   </g>
   <g id="patch_140">
    <path d="M 772.476269 320.4 
L 779.064227 320.4 
L 779.064227 237.515178 
L 772.476269 237.515178 
z
" clip-path="url(#p2aa8af643a)" style="fill: #e9c5dd; stroke: #000000; stroke-linejoin: miter"/>
   </g>
   <g id="patch_141">
    <path d="M 779.064227 320.4 
L 785.652184 320.4 
L 785.652184 246.608827 
L 779.064227 246.608827 
z
" clip-path="url(#p2aa8af643a)" style="fill: #e9c5dd; stroke: #000000; stroke-linejoin: miter"/>
   </g>
   <g id="patch_142">
    <path d="M 785.652184 320.4 
L 792.240142 320.4 
L 792.240142 261.291281 
L 785.652184 261.291281 
z
" clip-path="url(#p2aa8af643a)" style="fill: #e9c5dd; stroke: #000000; stroke-linejoin: miter"/>
   </g>
   <g id="patch_143">
    <path d="M 792.240142 320.4 
L 798.828099 320.4 
L 798.828099 268.111518 
L 792.240142 268.111518 
z
" clip-path="url(#p2aa8af643a)" style="fill: #e9c5dd; stroke: #000000; stroke-linejoin: miter"/>
   </g>
   <g id="patch_144">
    <path d="M 798.828099 320.4 
L 805.416057 320.4 
L 805.416057 281.941442 
L 798.828099 281.941442 
z
" clip-path="url(#p2aa8af643a)" style="fill: #e9c5dd; stroke: #000000; stroke-linejoin: miter"/>
   </g>
   <g id="patch_145">
    <path d="M 805.416057 320.4 
L 812.004014 320.4 
L 812.004014 292.929602 
L 805.416057 292.929602 
z
" clip-path="url(#p2aa8af643a)" style="fill: #e9c5dd; stroke: #000000; stroke-linejoin: miter"/>
   </g>
   <g id="patch_146">
    <path d="M 812.004014 320.4 
L 818.591972 320.4 
L 818.591972 300.412917 
L 812.004014 300.412917 
z
" clip-path="url(#p2aa8af643a)" style="fill: #e9c5dd; stroke: #000000; stroke-linejoin: miter"/>
   </g>
   <g id="patch_147">
    <path d="M 818.591972 320.4 
L 825.179929 320.4 
L 825.179929 306.854252 
L 818.591972 306.854252 
z
" clip-path="url(#p2aa8af643a)" style="fill: #e9c5dd; stroke: #000000; stroke-linejoin: miter"/>
   </g>
   <g id="patch_148">
    <path d="M 825.179929 320.4 
L 831.767887 320.4 
L 831.767887 310.453821 
L 825.179929 310.453821 
z
" clip-path="url(#p2aa8af643a)" style="fill: #e9c5dd; stroke: #000000; stroke-linejoin: miter"/>
   </g>
   <g id="patch_149">
    <path d="M 831.767887 320.4 
L 838.355844 320.4 
L 838.355844 314.527018 
L 831.767887 314.527018 
z
" clip-path="url(#p2aa8af643a)" style="fill: #e9c5dd; stroke: #000000; stroke-linejoin: miter"/>
   </g>
   <g id="patch_150">
    <path d="M 838.355844 320.4 
L 844.943802 320.4 
L 844.943802 316.989882 
L 838.355844 316.989882 
z
" clip-path="url(#p2aa8af643a)" style="fill: #e9c5dd; stroke: #000000; stroke-linejoin: miter"/>
   </g>
   <g id="patch_151">
    <path d="M 844.943802 320.4 
L 851.531759 320.4 
L 851.531759 318.031862 
L 844.943802 318.031862 
z
" clip-path="url(#p2aa8af643a)" style="fill: #e9c5dd; stroke: #000000; stroke-linejoin: miter"/>
   </g>
   <g id="patch_152">
    <path d="M 851.531759 320.4 
L 858.119717 320.4 
L 858.119717 318.979117 
L 851.531759 318.979117 
z
" clip-path="url(#p2aa8af643a)" style="fill: #e9c5dd; stroke: #000000; stroke-linejoin: miter"/>
   </g>
   <g id="patch_153">
    <path d="M 858.119717 320.4 
L 864.707674 320.4 
L 864.707674 320.210549 
L 858.119717 320.210549 
z
" clip-path="url(#p2aa8af643a)" style="fill: #e9c5dd; stroke: #000000; stroke-linejoin: miter"/>
   </g>
   <g id="patch_154">
    <path d="M 864.707674 320.4 
L 871.295632 320.4 
L 871.295632 319.926372 
L 864.707674 319.926372 
z
" clip-path="url(#p2aa8af643a)" style="fill: #e9c5dd; stroke: #000000; stroke-linejoin: miter"/>
   </g>
   <g id="patch_155">
    <path d="M 871.295632 320.4 
L 877.883589 320.4 
L 877.883589 320.305274 
L 871.295632 320.305274 
z
" clip-path="url(#p2aa8af643a)" style="fill: #e9c5dd; stroke: #000000; stroke-linejoin: miter"/>
   </g>
   <g id="patch_156">
    <path d="M 877.883589 320.4 
L 884.471547 320.4 
L 884.471547 320.4 
L 877.883589 320.4 
z
" clip-path="url(#p2aa8af643a)" style="fill: #e9c5dd; stroke: #000000; stroke-linejoin: miter"/>
   </g>
   <g id="patch_157">
    <path d="M 884.471547 320.4 
L 891.059504 320.4 
L 891.059504 320.305274 
L 884.471547 320.305274 
z
" clip-path="url(#p2aa8af643a)" style="fill: #e9c5dd; stroke: #000000; stroke-linejoin: miter"/>
   </g>
   <g id="patch_158">
    <path d="M 568.249587 320.4 
L 574.837544 320.4 
L 574.837544 320.305274 
L 568.249587 320.305274 
z
" clip-path="url(#p2aa8af643a)" style="fill: #a18aa5; opacity: 0.5; stroke: #000000; stroke-linejoin: miter"/>
   </g>
   <g id="patch_159">
    <path d="M 574.837544 320.4 
L 581.425502 320.4 
L 581.425502 319.642196 
L 574.837544 319.642196 
z
" clip-path="url(#p2aa8af643a)" style="fill: #a18aa5; opacity: 0.5; stroke: #000000; stroke-linejoin: miter"/>
   </g>
   <g id="patch_160">
    <path d="M 581.425502 320.4 
L 588.013459 320.4 
L 588.013459 317.558235 
L 581.425502 317.558235 
z
" clip-path="url(#p2aa8af643a)" style="fill: #a18aa5; opacity: 0.5; stroke: #000000; stroke-linejoin: miter"/>
   </g>
   <g id="patch_161">
    <path d="M 588.013459 320.4 
L 594.601417 320.4 
L 594.601417 307.043703 
L 588.013459 307.043703 
z
" clip-path="url(#p2aa8af643a)" style="fill: #a18aa5; opacity: 0.5; stroke: #000000; stroke-linejoin: miter"/>
   </g>
   <g id="patch_162">
    <path d="M 594.601417 320.4 
L 601.189374 320.4 
L 601.189374 285.730463 
L 594.601417 285.730463 
z
" clip-path="url(#p2aa8af643a)" style="fill: #a18aa5; opacity: 0.5; stroke: #000000; stroke-linejoin: miter"/>
   </g>
   <g id="patch_163">
    <path d="M 601.189374 320.4 
L 607.777332 320.4 
L 607.777332 245.377395 
L 601.189374 245.377395 
z
" clip-path="url(#p2aa8af643a)" style="fill: #a18aa5; opacity: 0.5; stroke: #000000; stroke-linejoin: miter"/>
   </g>
   <g id="patch_164">
    <path d="M 607.777332 320.4 
L 614.365289 320.4 
L 614.365289 181.911302 
L 607.777332 181.911302 
z
" clip-path="url(#p2aa8af643a)" style="fill: #a18aa5; opacity: 0.5; stroke: #000000; stroke-linejoin: miter"/>
   </g>
   <g id="patch_165">
    <path d="M 614.365289 320.4 
L 620.953247 320.4 
L 620.953247 118.44521 
L 614.365289 118.44521 
z
" clip-path="url(#p2aa8af643a)" style="fill: #a18aa5; opacity: 0.5; stroke: #000000; stroke-linejoin: miter"/>
   </g>
   <g id="patch_166">
    <path d="M 620.953247 320.4 
L 627.541204 320.4 
L 627.541204 70.893003 
L 620.953247 70.893003 
z
" clip-path="url(#p2aa8af643a)" style="fill: #a18aa5; opacity: 0.5; stroke: #000000; stroke-linejoin: miter"/>
   </g>
   <g id="patch_167">
    <path d="M 627.541204 320.4 
L 634.129162 320.4 
L 634.129162 56.4 
L 627.541204 56.4 
z
" clip-path="url(#p2aa8af643a)" style="fill: #a18aa5; opacity: 0.5; stroke: #000000; stroke-linejoin: miter"/>
   </g>
   <g id="patch_168">
    <path d="M 634.129162 320.4 
L 640.717119 320.4 
L 640.717119 69.945748 
L 634.129162 69.945748 
z
" clip-path="url(#p2aa8af643a)" style="fill: #a18aa5; opacity: 0.5; stroke: #000000; stroke-linejoin: miter"/>
   </g>
   <g id="patch_169">
    <path d="M 640.717119 320.4 
L 647.305077 320.4 
L 647.305077 119.203014 
L 640.717119 119.203014 
z
" clip-path="url(#p2aa8af643a)" style="fill: #a18aa5; opacity: 0.5; stroke: #000000; stroke-linejoin: miter"/>
   </g>
   <g id="patch_170">
    <path d="M 647.305077 320.4 
L 653.893034 320.4 
L 653.893034 152.451668 
L 647.305077 152.451668 
z
" clip-path="url(#p2aa8af643a)" style="fill: #a18aa5; opacity: 0.5; stroke: #000000; stroke-linejoin: miter"/>
   </g>
   <g id="patch_171">
    <path d="M 653.893034 320.4 
L 660.480992 320.4 
L 660.480992 188.731539 
L 653.893034 188.731539 
z
" clip-path="url(#p2aa8af643a)" style="fill: #a18aa5; opacity: 0.5; stroke: #000000; stroke-linejoin: miter"/>
   </g>
   <g id="patch_172">
    <path d="M 660.480992 320.4 
L 667.068949 320.4 
L 667.068949 197.919914 
L 660.480992 197.919914 
z
" clip-path="url(#p2aa8af643a)" style="fill: #a18aa5; opacity: 0.5; stroke: #000000; stroke-linejoin: miter"/>
   </g>
   <g id="patch_173">
    <path d="M 667.068949 320.4 
L 673.656907 320.4 
L 673.656907 173.386006 
L 667.068949 173.386006 
z
" clip-path="url(#p2aa8af643a)" style="fill: #a18aa5; opacity: 0.5; stroke: #000000; stroke-linejoin: miter"/>
   </g>
   <g id="patch_174">
    <path d="M 673.656907 320.4 
L 680.244864 320.4 
L 680.244864 155.009257 
L 673.656907 155.009257 
z
" clip-path="url(#p2aa8af643a)" style="fill: #a18aa5; opacity: 0.5; stroke: #000000; stroke-linejoin: miter"/>
   </g>
   <g id="patch_175">
    <path d="M 680.244864 320.4 
L 686.832822 320.4 
L 686.832822 130.285899 
L 680.244864 130.285899 
z
" clip-path="url(#p2aa8af643a)" style="fill: #a18aa5; opacity: 0.5; stroke: #000000; stroke-linejoin: miter"/>
   </g>
   <g id="patch_176">
    <path d="M 686.832822 320.4 
L 693.420779 320.4 
L 693.420779 108.404306 
L 686.832822 108.404306 
z
" clip-path="url(#p2aa8af643a)" style="fill: #a18aa5; opacity: 0.5; stroke: #000000; stroke-linejoin: miter"/>
   </g>
   <g id="patch_177">
    <path d="M 693.420779 320.4 
L 700.008737 320.4 
L 700.008737 109.919914 
L 693.420779 109.919914 
z
" clip-path="url(#p2aa8af643a)" style="fill: #a18aa5; opacity: 0.5; stroke: #000000; stroke-linejoin: miter"/>
   </g>
   <g id="patch_178">
    <path d="M 700.008737 320.4 
L 706.596694 320.4 
L 706.596694 136.443057 
L 700.008737 136.443057 
z
" clip-path="url(#p2aa8af643a)" style="fill: #a18aa5; opacity: 0.5; stroke: #000000; stroke-linejoin: miter"/>
   </g>
   <g id="patch_179">
    <path d="M 706.596694 320.4 
L 713.184652 320.4 
L 713.184652 174.427987 
L 706.596694 174.427987 
z
" clip-path="url(#p2aa8af643a)" style="fill: #a18aa5; opacity: 0.5; stroke: #000000; stroke-linejoin: miter"/>
   </g>
   <g id="patch_180">
    <path d="M 713.184652 320.4 
L 719.772609 320.4 
L 719.772609 204.5507 
L 713.184652 204.5507 
z
" clip-path="url(#p2aa8af643a)" style="fill: #a18aa5; opacity: 0.5; stroke: #000000; stroke-linejoin: miter"/>
   </g>
   <g id="patch_181">
    <path d="M 719.772609 320.4 
L 726.360567 320.4 
L 726.360567 227.663724 
L 719.772609 227.663724 
z
" clip-path="url(#p2aa8af643a)" style="fill: #a18aa5; opacity: 0.5; stroke: #000000; stroke-linejoin: miter"/>
   </g>
   <g id="patch_182">
    <path d="M 726.360567 320.4 
L 732.948524 320.4 
L 732.948524 242.53563 
L 726.360567 242.53563 
z
" clip-path="url(#p2aa8af643a)" style="fill: #a18aa5; opacity: 0.5; stroke: #000000; stroke-linejoin: miter"/>
   </g>
   <g id="patch_183">
    <path d="M 732.948524 320.4 
L 739.536482 320.4 
L 739.536482 248.408611 
L 732.948524 248.408611 
z
" clip-path="url(#p2aa8af643a)" style="fill: #a18aa5; opacity: 0.5; stroke: #000000; stroke-linejoin: miter"/>
   </g>
   <g id="patch_184">
    <path d="M 739.536482 320.4 
L 746.124439 320.4 
L 746.124439 251.534553 
L 739.536482 251.534553 
z
" clip-path="url(#p2aa8af643a)" style="fill: #a18aa5; opacity: 0.5; stroke: #000000; stroke-linejoin: miter"/>
   </g>
   <g id="patch_185">
    <path d="M 746.124439 320.4 
L 752.712397 320.4 
L 752.712397 247.271905 
L 746.124439 247.271905 
z
" clip-path="url(#p2aa8af643a)" style="fill: #a18aa5; opacity: 0.5; stroke: #000000; stroke-linejoin: miter"/>
   </g>
   <g id="patch_186">
    <path d="M 752.712397 320.4 
L 759.300354 320.4 
L 759.300354 239.314962 
L 752.712397 239.314962 
z
" clip-path="url(#p2aa8af643a)" style="fill: #a18aa5; opacity: 0.5; stroke: #000000; stroke-linejoin: miter"/>
   </g>
   <g id="patch_187">
    <path d="M 759.300354 320.4 
L 765.888312 320.4 
L 765.888312 225.200861 
L 759.300354 225.200861 
z
" clip-path="url(#p2aa8af643a)" style="fill: #a18aa5; opacity: 0.5; stroke: #000000; stroke-linejoin: miter"/>
   </g>
   <g id="patch_188">
    <path d="M 765.888312 320.4 
L 772.476269 320.4 
L 772.476269 230.221313 
L 765.888312 230.221313 
z
" clip-path="url(#p2aa8af643a)" style="fill: #a18aa5; opacity: 0.5; stroke: #000000; stroke-linejoin: miter"/>
   </g>
   <g id="patch_189">
    <path d="M 772.476269 320.4 
L 779.064227 320.4 
L 779.064227 238.083531 
L 772.476269 238.083531 
z
" clip-path="url(#p2aa8af643a)" style="fill: #a18aa5; opacity: 0.5; stroke: #000000; stroke-linejoin: miter"/>
   </g>
   <g id="patch_190">
    <path d="M 779.064227 320.4 
L 785.652184 320.4 
L 785.652184 245.851023 
L 779.064227 245.851023 
z
" clip-path="url(#p2aa8af643a)" style="fill: #a18aa5; opacity: 0.5; stroke: #000000; stroke-linejoin: miter"/>
   </g>
   <g id="patch_191">
    <path d="M 785.652184 320.4 
L 792.240142 320.4 
L 792.240142 255.039397 
L 785.652184 255.039397 
z
" clip-path="url(#p2aa8af643a)" style="fill: #a18aa5; opacity: 0.5; stroke: #000000; stroke-linejoin: miter"/>
   </g>
   <g id="patch_192">
    <path d="M 792.240142 320.4 
L 798.828099 320.4 
L 798.828099 269.153498 
L 792.240142 269.153498 
z
" clip-path="url(#p2aa8af643a)" style="fill: #a18aa5; opacity: 0.5; stroke: #000000; stroke-linejoin: miter"/>
   </g>
   <g id="patch_193">
    <path d="M 798.828099 320.4 
L 805.416057 320.4 
L 805.416057 279.478579 
L 798.828099 279.478579 
z
" clip-path="url(#p2aa8af643a)" style="fill: #a18aa5; opacity: 0.5; stroke: #000000; stroke-linejoin: miter"/>
   </g>
   <g id="patch_194">
    <path d="M 805.416057 320.4 
L 812.004014 320.4 
L 812.004014 291.508719 
L 805.416057 291.508719 
z
" clip-path="url(#p2aa8af643a)" style="fill: #a18aa5; opacity: 0.5; stroke: #000000; stroke-linejoin: miter"/>
   </g>
   <g id="patch_195">
    <path d="M 812.004014 320.4 
L 818.591972 320.4 
L 818.591972 302.023251 
L 812.004014 302.023251 
z
" clip-path="url(#p2aa8af643a)" style="fill: #a18aa5; opacity: 0.5; stroke: #000000; stroke-linejoin: miter"/>
   </g>
   <g id="patch_196">
    <path d="M 818.591972 320.4 
L 825.179929 320.4 
L 825.179929 309.601292 
L 818.591972 309.601292 
z
" clip-path="url(#p2aa8af643a)" style="fill: #a18aa5; opacity: 0.5; stroke: #000000; stroke-linejoin: miter"/>
   </g>
   <g id="patch_197">
    <path d="M 825.179929 320.4 
L 831.767887 320.4 
L 831.767887 312.348332 
L 825.179929 312.348332 
z
" clip-path="url(#p2aa8af643a)" style="fill: #a18aa5; opacity: 0.5; stroke: #000000; stroke-linejoin: miter"/>
   </g>
   <g id="patch_198">
    <path d="M 831.767887 320.4 
L 838.355844 320.4 
L 838.355844 315.379548 
L 831.767887 315.379548 
z
" clip-path="url(#p2aa8af643a)" style="fill: #a18aa5; opacity: 0.5; stroke: #000000; stroke-linejoin: miter"/>
   </g>
   <g id="patch_199">
    <path d="M 838.355844 320.4 
L 844.943802 320.4 
L 844.943802 318.410764 
L 838.355844 318.410764 
z
" clip-path="url(#p2aa8af643a)" style="fill: #a18aa5; opacity: 0.5; stroke: #000000; stroke-linejoin: miter"/>
   </g>
   <g id="patch_200">
    <path d="M 844.943802 320.4 
L 851.531759 320.4 
L 851.531759 318.50549 
L 844.943802 318.50549 
z
" clip-path="url(#p2aa8af643a)" style="fill: #a18aa5; opacity: 0.5; stroke: #000000; stroke-linejoin: miter"/>
   </g>
   <g id="patch_201">
    <path d="M 851.531759 320.4 
L 858.119717 320.4 
L 858.119717 319.736921 
L 851.531759 319.736921 
z
" clip-path="url(#p2aa8af643a)" style="fill: #a18aa5; opacity: 0.5; stroke: #000000; stroke-linejoin: miter"/>
   </g>
   <g id="patch_202">
    <path d="M 858.119717 320.4 
L 864.707674 320.4 
L 864.707674 319.926372 
L 858.119717 319.926372 
z
" clip-path="url(#p2aa8af643a)" style="fill: #a18aa5; opacity: 0.5; stroke: #000000; stroke-linejoin: miter"/>
   </g>
   <g id="patch_203">
    <path d="M 864.707674 320.4 
L 871.295632 320.4 
L 871.295632 320.4 
L 864.707674 320.4 
z
" clip-path="url(#p2aa8af643a)" style="fill: #a18aa5; opacity: 0.5; stroke: #000000; stroke-linejoin: miter"/>
   </g>
   <g id="patch_204">
    <path d="M 871.295632 320.4 
L 877.883589 320.4 
L 877.883589 320.4 
L 871.295632 320.4 
z
" clip-path="url(#p2aa8af643a)" style="fill: #a18aa5; opacity: 0.5; stroke: #000000; stroke-linejoin: miter"/>
   </g>
   <g id="patch_205">
    <path d="M 877.883589 320.4 
L 884.471547 320.4 
L 884.471547 320.4 
L 877.883589 320.4 
z
" clip-path="url(#p2aa8af643a)" style="fill: #a18aa5; opacity: 0.5; stroke: #000000; stroke-linejoin: miter"/>
   </g>
   <g id="patch_206">
    <path d="M 884.471547 320.4 
L 891.059504 320.4 
L 891.059504 320.305274 
L 884.471547 320.305274 
z
" clip-path="url(#p2aa8af643a)" style="fill: #a18aa5; opacity: 0.5; stroke: #000000; stroke-linejoin: miter"/>
   </g>
   <g id="matplotlib.axis_3">
    <g id="xtick_6">
     <g id="line2d_14">
      <g>
       <use xlink:href="#m6d0146cebb" x="600.084715" y="320.4" style="stroke: #000000; stroke-width: 0.8"/>
      </g>
     </g>
     <g id="text_18">
      <!-- 1.2 -->
      <g transform="translate(588.157372 338.797656) scale(0.15 -0.15)">
       <use xlink:href="#DejaVuSans-31"/>
       <use xlink:href="#DejaVuSans-2e" transform="translate(63.623047 0)"/>
       <use xlink:href="#DejaVuSans-32" transform="translate(95.410156 0)"/>
      </g>
     </g>
    </g>
    <g id="xtick_7">
     <g id="line2d_15">
      <g>
       <use xlink:href="#m6d0146cebb" x="673.312495" y="320.4" style="stroke: #000000; stroke-width: 0.8"/>
      </g>
     </g>
     <g id="text_19">
      <!-- 1.3 -->
      <g transform="translate(661.385151 338.797656) scale(0.15 -0.15)">
       <use xlink:href="#DejaVuSans-31"/>
       <use xlink:href="#DejaVuSans-2e" transform="translate(63.623047 0)"/>
       <use xlink:href="#DejaVuSans-33" transform="translate(95.410156 0)"/>
      </g>
     </g>
    </g>
    <g id="xtick_8">
     <g id="line2d_16">
      <g>
       <use xlink:href="#m6d0146cebb" x="746.540274" y="320.4" style="stroke: #000000; stroke-width: 0.8"/>
      </g>
     </g>
     <g id="text_20">
      <!-- 1.4 -->
      <g transform="translate(734.61293 338.797656) scale(0.15 -0.15)">
       <use xlink:href="#DejaVuSans-31"/>
       <use xlink:href="#DejaVuSans-2e" transform="translate(63.623047 0)"/>
       <use xlink:href="#DejaVuSans-34" transform="translate(95.410156 0)"/>
      </g>
     </g>
    </g>
    <g id="xtick_9">
     <g id="line2d_17">
      <g>
       <use xlink:href="#m6d0146cebb" x="819.768053" y="320.4" style="stroke: #000000; stroke-width: 0.8"/>
      </g>
     </g>
     <g id="text_21">
      <!-- 1.5 -->
      <g transform="translate(807.84071 338.797656) scale(0.15 -0.15)">
       <use xlink:href="#DejaVuSans-31"/>
       <use xlink:href="#DejaVuSans-2e" transform="translate(63.623047 0)"/>
       <use xlink:href="#DejaVuSans-35" transform="translate(95.410156 0)"/>
      </g>
     </g>
    </g>
    <g id="xtick_10">
     <g id="line2d_18">
      <g>
       <use xlink:href="#m6d0146cebb" x="892.995833" y="320.4" style="stroke: #000000; stroke-width: 0.8"/>
      </g>
     </g>
     <g id="text_22">
      <!-- 1.6 -->
      <g transform="translate(881.068489 338.797656) scale(0.15 -0.15)">
       <use xlink:href="#DejaVuSans-31"/>
       <use xlink:href="#DejaVuSans-2e" transform="translate(63.623047 0)"/>
       <use xlink:href="#DejaVuSans-36" transform="translate(95.410156 0)"/>
      </g>
     </g>
    </g>
    <g id="text_23">
     <!-- C-O Bond length (Å) -->
     <g transform="translate(629.198295 364.482813) scale(0.2 -0.2)">
      <use xlink:href="#DejaVuSans-43"/>
      <use xlink:href="#DejaVuSans-2d" transform="translate(69.824219 0)"/>
      <use xlink:href="#DejaVuSans-4f" transform="translate(108.658203 0)"/>
      <use xlink:href="#DejaVuSans-20" transform="translate(187.369141 0)"/>
      <use xlink:href="#DejaVuSans-42" transform="translate(219.15625 0)"/>
      <use xlink:href="#DejaVuSans-6f" transform="translate(287.759766 0)"/>
      <use xlink:href="#DejaVuSans-6e" transform="translate(348.941406 0)"/>
      <use xlink:href="#DejaVuSans-64" transform="translate(412.320312 0)"/>
      <use xlink:href="#DejaVuSans-20" transform="translate(475.796875 0)"/>
      <use xlink:href="#DejaVuSans-6c" transform="translate(507.583984 0)"/>
      <use xlink:href="#DejaVuSans-65" transform="translate(535.367188 0)"/>
      <use xlink:href="#DejaVuSans-6e" transform="translate(596.890625 0)"/>
      <use xlink:href="#DejaVuSans-67" transform="translate(660.269531 0)"/>
      <use xlink:href="#DejaVuSans-74" transform="translate(723.746094 0)"/>
      <use xlink:href="#DejaVuSans-68" transform="translate(762.955078 0)"/>
      <use xlink:href="#DejaVuSans-20" transform="translate(826.333984 0)"/>
      <use xlink:href="#DejaVuSans-28" transform="translate(858.121094 0)"/>
      <use xlink:href="#DejaVuSans-c5" transform="translate(897.134766 0)"/>
      <use xlink:href="#DejaVuSans-29" transform="translate(965.542969 0)"/>
     </g>
    </g>
   </g>
   <g id="matplotlib.axis_4">
    <g id="ytick_9">
     <g id="line2d_19">
      <g>
       <use xlink:href="#m76665569f4" x="552.109091" y="320.4" style="stroke: #000000; stroke-width: 0.8"/>
      </g>
     </g>
     <g id="text_24">
      <!-- 0 -->
      <g transform="translate(535.565341 326.098828) scale(0.15 -0.15)">
       <use xlink:href="#DejaVuSans-30"/>
      </g>
     </g>
    </g>
    <g id="ytick_10">
     <g id="line2d_20">
      <g>
       <use xlink:href="#m76665569f4" x="552.109091" y="282.01262" style="stroke: #000000; stroke-width: 0.8"/>
      </g>
     </g>
     <g id="text_25">
      <!-- 1 -->
      <g transform="translate(535.565341 287.711448) scale(0.15 -0.15)">
       <use xlink:href="#DejaVuSans-31"/>
      </g>
     </g>
    </g>
    <g id="ytick_11">
     <g id="line2d_21">
      <g>
       <use xlink:href="#m76665569f4" x="552.109091" y="243.62524" style="stroke: #000000; stroke-width: 0.8"/>
      </g>
     </g>
     <g id="text_26">
      <!-- 2 -->
      <g transform="translate(535.565341 249.324068) scale(0.15 -0.15)">
       <use xlink:href="#DejaVuSans-32"/>
      </g>
     </g>
    </g>
    <g id="ytick_12">
     <g id="line2d_22">
      <g>
       <use xlink:href="#m76665569f4" x="552.109091" y="205.237859" style="stroke: #000000; stroke-width: 0.8"/>
      </g>
     </g>
     <g id="text_27">
      <!-- 3 -->
      <g transform="translate(535.565341 210.936688) scale(0.15 -0.15)">
       <use xlink:href="#DejaVuSans-33"/>
      </g>
     </g>
    </g>
    <g id="ytick_13">
     <g id="line2d_23">
      <g>
       <use xlink:href="#m76665569f4" x="552.109091" y="166.850479" style="stroke: #000000; stroke-width: 0.8"/>
      </g>
     </g>
     <g id="text_28">
      <!-- 4 -->
      <g transform="translate(535.565341 172.549307) scale(0.15 -0.15)">
       <use xlink:href="#DejaVuSans-34"/>
      </g>
     </g>
    </g>
    <g id="ytick_14">
     <g id="line2d_24">
      <g>
       <use xlink:href="#m76665569f4" x="552.109091" y="128.463099" style="stroke: #000000; stroke-width: 0.8"/>
      </g>
     </g>
     <g id="text_29">
      <!-- 5 -->
      <g transform="translate(535.565341 134.161927) scale(0.15 -0.15)">
       <use xlink:href="#DejaVuSans-35"/>
      </g>
     </g>
    </g>
    <g id="ytick_15">
     <g id="line2d_25">
      <g>
       <use xlink:href="#m76665569f4" x="552.109091" y="90.075719" style="stroke: #000000; stroke-width: 0.8"/>
      </g>
     </g>
     <g id="text_30">
      <!-- 6 -->
      <g transform="translate(535.565341 95.774547) scale(0.15 -0.15)">
       <use xlink:href="#DejaVuSans-36"/>
      </g>
     </g>
    </g>
    <g id="ytick_16">
     <g id="line2d_26">
      <g>
       <use xlink:href="#m76665569f4" x="552.109091" y="51.688339" style="stroke: #000000; stroke-width: 0.8"/>
      </g>
     </g>
     <g id="text_31">
      <!-- 7 -->
      <g transform="translate(535.565341 57.387167) scale(0.15 -0.15)">
       <use xlink:href="#DejaVuSans-37"/>
      </g>
     </g>
    </g>
    <g id="text_32">
     <!-- Density -->
     <g transform="translate(527.405966 219.817187) rotate(-90) scale(0.2 -0.2)">
      <use xlink:href="#DejaVuSans-44"/>
      <use xlink:href="#DejaVuSans-65" transform="translate(77.001953 0)"/>
      <use xlink:href="#DejaVuSans-6e" transform="translate(138.525391 0)"/>
      <use xlink:href="#DejaVuSans-73" transform="translate(201.904297 0)"/>
      <use xlink:href="#DejaVuSans-69" transform="translate(254.003906 0)"/>
      <use xlink:href="#DejaVuSans-74" transform="translate(281.787109 0)"/>
      <use xlink:href="#DejaVuSans-79" transform="translate(320.996094 0)"/>
     </g>
    </g>
   </g>
   <g id="patch_207">
    <path d="M 552.109091 320.4 
L 552.109091 43.2 
" style="fill: none; stroke: #000000; stroke-width: 3; stroke-linejoin: miter; stroke-linecap: square"/>
   </g>
   <g id="patch_208">
    <path d="M 907.2 320.4 
L 907.2 43.2 
" style="fill: none; stroke: #000000; stroke-width: 3; stroke-linejoin: miter; stroke-linecap: square"/>
   </g>
   <g id="patch_209">
    <path d="M 552.109091 320.4 
L 907.2 320.4 
" style="fill: none; stroke: #000000; stroke-width: 3; stroke-linejoin: miter; stroke-linecap: square"/>
   </g>
   <g id="patch_210">
    <path d="M 552.109091 43.2 
L 907.2 43.2 
" style="fill: none; stroke: #000000; stroke-width: 3; stroke-linejoin: miter; stroke-linecap: square"/>
   </g>
   <g id="legend_2">
    <g id="patch_211">
     <path d="M 804.515625 110.44125 
L 894.6 110.44125 
Q 898.2 110.44125 898.2 106.84125 
L 898.2 55.8 
Q 898.2 52.2 894.6 52.2 
L 804.515625 52.2 
Q 800.915625 52.2 800.915625 55.8 
L 800.915625 106.84125 
Q 800.915625 110.44125 804.515625 110.44125 
z
" style="fill: #ffffff; opacity: 0.8; stroke: #cccccc; stroke-linejoin: miter"/>
    </g>
    <g id="patch_212">
     <path d="M 808.115625 73.077187 
L 844.115625 73.077187 
L 844.115625 60.477187 
L 808.115625 60.477187 
z
" style="fill: #e9c5dd; stroke: #000000; stroke-linejoin: miter"/>
    </g>
    <g id="text_33">
     <!-- U -->
     <g transform="translate(858.515625 73.077187) scale(0.18 -0.18)">
      <use xlink:href="#DejaVuSans-55"/>
     </g>
    </g>
    <g id="patch_213">
     <path d="M 808.115625 99.497812 
L 844.115625 99.497812 
L 844.115625 86.897812 
L 808.115625 86.897812 
z
" style="fill: #a18aa5; opacity: 0.5; stroke: #000000; stroke-linejoin: miter"/>
    </g>
    <g id="text_34">
     <!-- FT1 -->
     <g transform="translate(858.515625 99.497812) scale(0.18 -0.18)">
      <defs>
       <path id="DejaVuSans-46" d="M 628 4666 
L 3309 4666 
L 3309 4134 
L 1259 4134 
L 1259 2759 
L 3109 2759 
L 3109 2228 
L 1259 2228 
L 1259 0 
L 628 0 
L 628 4666 
z
" transform="scale(0.015625)"/>
       <path id="DejaVuSans-54" d="M -19 4666 
L 3928 4666 
L 3928 4134 
L 2272 4134 
L 2272 0 
L 1638 0 
L 1638 4134 
L -19 4134 
L -19 4666 
z
" transform="scale(0.015625)"/>
      </defs>
      <use xlink:href="#DejaVuSans-46"/>
      <use xlink:href="#DejaVuSans-54" transform="translate(55.769531 0)"/>
      <use xlink:href="#DejaVuSans-31" transform="translate(116.853516 0)"/>
     </g>
    </g>
   </g>
  </g>
 </g>
 <defs>
  <clipPath id="p258ba80ec9">
   <rect x="126" y="43.2" width="355.090909" height="277.2"/>
  </clipPath>
  <clipPath id="p2aa8af643a">
   <rect x="552.109091" y="43.2" width="355.090909" height="277.2"/>
  </clipPath>
 </defs>
</svg>
