<?xml version="1.0" encoding="utf-8" standalone="no"?>
<!DOCTYPE svg PUBLIC "-//W3C//DTD SVG 1.1//EN"
  "http://www.w3.org/Graphics/SVG/1.1/DTD/svg11.dtd">
<svg xmlns:xlink="http://www.w3.org/1999/xlink" width="1008pt" height="360pt" viewBox="0 0 1008 360" xmlns="http://www.w3.org/2000/svg" version="1.1">
 <metadata>
  <rdf:RDF xmlns:dc="http://purl.org/dc/elements/1.1/" xmlns:cc="http://creativecommons.org/ns#" xmlns:rdf="http://www.w3.org/1999/02/22-rdf-syntax-ns#">
   <cc:Work>
    <dc:type rdf:resource="http://purl.org/dc/dcmitype/StillImage"/>
    <dc:date>2026-03-04T14:10:07.157398</dc:date>
    <dc:format>image/svg+xml</dc:format>
    <dc:creator>
     <cc:Agent>
      <dc:title>Matplotlib v3.10.8, https://matplotlib.org/</dc:title>
     </cc:Agent>
    </dc:creator>
   </cc:Work>
  </rdf:RDF>
 </metadata>
 <defs>
  <style type="text/css">*{stroke-linejoin: round; stroke-linecap: butt}</style>
 </defs>
 <g id="figure_1">
  <g id="patch_1">
   <path d="M 0 360 
L 1008 360 
L 1008 0 
L 0 0 
z
" style="fill: #ffffff"/>
  </g>
  <g id="axes_1">
   <g id="patch_2">
    <path d="M 126 320.4 
L 481.090909 320.4 
L 481.090909 43.2 
L 126 43.2 
z
" style="fill: #ffffff"/>
   </g>
   <g id="patch_3">
    <path d="M 142.140496 320.4 
L 148.728453 320.4 
L 148.728453 320.4 
L 142.140496 320.4 
z
" clip-path="url(#p749dbb459d)" style="fill: #e9c5dd; stroke: #000000; stroke-linejoin: miter"/>
   </g>
   <g id="patch_4">
    <path d="M 148.728453 320.4 
L 155.316411 320.4 
L 155.316411 320.4 
L 148.728453 320.4 
z
" clip-path="url(#p749dbb459d)" style="fill: #e9c5dd; stroke: #000000; stroke-linejoin: miter"/>
   </g>
   <g id="patch_5">
    <path d="M 155.316411 320.4 
L 161.904368 320.4 
L 161.904368 320.4 
L 155.316411 320.4 
z
" clip-path="url(#p749dbb459d)" style="fill: #e9c5dd; stroke: #000000; stroke-linejoin: miter"/>
   </g>
   <g id="patch_6">
    <path d="M 161.904368 320.4 
L 168.492326 320.4 
L 168.492326 320.4 
L 161.904368 320.4 
z
" clip-path="url(#p749dbb459d)" style="fill: #e9c5dd; stroke: #000000; stroke-linejoin: miter"/>
   </g>
   <g id="patch_7">
    <path d="M 168.492326 320.4 
L 175.080283 320.4 
L 175.080283 320.4 
L 168.492326 320.4 
z
" clip-path="url(#p749dbb459d)" style="fill: #e9c5dd; stroke: #000000; stroke-linejoin: miter"/>
   </g>
   <g id="patch_8">
    <path d="M 175.080283 320.4 
L 181.668241 320.4 
L 181.668241 320.4 
L 175.080283 320.4 
z
" clip-path="url(#p749dbb459d)" style="fill: #e9c5dd; stroke: #000000; stroke-linejoin: miter"/>
   </g>
   <g id="patch_9">
    <path d="M 181.668241 320.4 
L 188.256198 320.4 
L 188.256198 320.4 
L 181.668241 320.4 
z
" clip-path="url(#p749dbb459d)" style="fill: #e9c5dd; stroke: #000000; stroke-linejoin: miter"/>
   </g>
   <g id="patch_10">
    <path d="M 188.256198 320.4 
L 194.844156 320.4 
L 194.844156 320.4 
L 188.256198 320.4 
z
" clip-path="url(#p749dbb459d)" style="fill: #e9c5dd; stroke: #000000; stroke-linejoin: miter"/>
   </g>
   <g id="patch_11">
    <path d="M 194.844156 320.4 
L 201.432113 320.4 
L 201.432113 320.4 
L 194.844156 320.4 
z
" clip-path="url(#p749dbb459d)" style="fill: #e9c5dd; stroke: #000000; stroke-linejoin: miter"/>
   </g>
   <g id="patch_12">
    <path d="M 201.432113 320.4 
L 208.020071 320.4 
L 208.020071 320.4 
L 201.432113 320.4 
z
" clip-path="url(#p749dbb459d)" style="fill: #e9c5dd; stroke: #000000; stroke-linejoin: miter"/>
   </g>
   <g id="patch_13">
    <path d="M 208.020071 320.4 
L 214.608028 320.4 
L 214.608028 320.4 
L 208.020071 320.4 
z
" clip-path="url(#p749dbb459d)" style="fill: #e9c5dd; stroke: #000000; stroke-linejoin: miter"/>
   </g>
   <g id="patch_14">
    <path d="M 214.608028 320.4 
L 221.195986 320.4 
L 221.195986 320.4 
L 214.608028 320.4 
z
" clip-path="url(#p749dbb459d)" style="fill: #e9c5dd; stroke: #000000; stroke-linejoin: miter"/>
   </g>
   <g id="patch_15">
    <path d="M 221.195986 320.4 
L 227.783943 320.4 
L 227.783943 301.542857 
L 221.195986 301.542857 
z
" clip-path="url(#p749dbb459d)" style="fill: #e9c5dd; stroke: #000000; stroke-linejoin: miter"/>
   </g>
   <g id="patch_16">
    <path d="M 227.783943 320.4 
L 234.371901 320.4 
L 234.371901 320.4 
L 227.783943 320.4 
z
" clip-path="url(#p749dbb459d)" style="fill: #e9c5dd; stroke: #000000; stroke-linejoin: miter"/>
   </g>
   <g id="patch_17">
    <path d="M 234.371901 320.4 
L 240.959858 320.4 
L 240.959858 320.4 
L 234.371901 320.4 
z
" clip-path="url(#p749dbb459d)" style="fill: #e9c5dd; stroke: #000000; stroke-linejoin: miter"/>
   </g>
   <g id="patch_18">
    <path d="M 240.959858 320.4 
L 247.547816 320.4 
L 247.547816 320.4 
L 240.959858 320.4 
z
" clip-path="url(#p749dbb459d)" style="fill: #e9c5dd; stroke: #000000; stroke-linejoin: miter"/>
   </g>
   <g id="patch_19">
    <path d="M 247.547816 320.4 
L 254.135773 320.4 
L 254.135773 320.4 
L 247.547816 320.4 
z
" clip-path="url(#p749dbb459d)" style="fill: #e9c5dd; stroke: #000000; stroke-linejoin: miter"/>
   </g>
   <g id="patch_20">
    <path d="M 254.135773 320.4 
L 260.723731 320.4 
L 260.723731 320.4 
L 254.135773 320.4 
z
" clip-path="url(#p749dbb459d)" style="fill: #e9c5dd; stroke: #000000; stroke-linejoin: miter"/>
   </g>
   <g id="patch_21">
    <path d="M 260.723731 320.4 
L 267.311688 320.4 
L 267.311688 320.4 
L 260.723731 320.4 
z
" clip-path="url(#p749dbb459d)" style="fill: #e9c5dd; stroke: #000000; stroke-linejoin: miter"/>
   </g>
   <g id="patch_22">
    <path d="M 267.311688 320.4 
L 273.899646 320.4 
L 273.899646 320.4 
L 267.311688 320.4 
z
" clip-path="url(#p749dbb459d)" style="fill: #e9c5dd; stroke: #000000; stroke-linejoin: miter"/>
   </g>
   <g id="patch_23">
    <path d="M 273.899646 320.4 
L 280.487603 320.4 
L 280.487603 320.4 
L 273.899646 320.4 
z
" clip-path="url(#p749dbb459d)" style="fill: #e9c5dd; stroke: #000000; stroke-linejoin: miter"/>
   </g>
   <g id="patch_24">
    <path d="M 280.487603 320.4 
L 287.075561 320.4 
L 287.075561 320.4 
L 280.487603 320.4 
z
" clip-path="url(#p749dbb459d)" style="fill: #e9c5dd; stroke: #000000; stroke-linejoin: miter"/>
   </g>
   <g id="patch_25">
    <path d="M 287.075561 320.4 
L 293.663518 320.4 
L 293.663518 320.4 
L 287.075561 320.4 
z
" clip-path="url(#p749dbb459d)" style="fill: #e9c5dd; stroke: #000000; stroke-linejoin: miter"/>
   </g>
   <g id="patch_26">
    <path d="M 293.663518 320.4 
L 300.251476 320.4 
L 300.251476 320.4 
L 293.663518 320.4 
z
" clip-path="url(#p749dbb459d)" style="fill: #e9c5dd; stroke: #000000; stroke-linejoin: miter"/>
   </g>
   <g id="patch_27">
    <path d="M 300.251476 320.4 
L 306.839433 320.4 
L 306.839433 320.4 
L 300.251476 320.4 
z
" clip-path="url(#p749dbb459d)" style="fill: #e9c5dd; stroke: #000000; stroke-linejoin: miter"/>
   </g>
   <g id="patch_28">
    <path d="M 306.839433 320.4 
L 313.427391 320.4 
L 313.427391 320.4 
L 306.839433 320.4 
z
" clip-path="url(#p749dbb459d)" style="fill: #e9c5dd; stroke: #000000; stroke-linejoin: miter"/>
   </g>
   <g id="patch_29">
    <path d="M 313.427391 320.4 
L 320.015348 320.4 
L 320.015348 320.4 
L 313.427391 320.4 
z
" clip-path="url(#p749dbb459d)" style="fill: #e9c5dd; stroke: #000000; stroke-linejoin: miter"/>
   </g>
   <g id="patch_30">
    <path d="M 320.015348 320.4 
L 326.603306 320.4 
L 326.603306 320.4 
L 320.015348 320.4 
z
" clip-path="url(#p749dbb459d)" style="fill: #e9c5dd; stroke: #000000; stroke-linejoin: miter"/>
   </g>
   <g id="patch_31">
    <path d="M 326.603306 320.4 
L 333.191263 320.4 
L 333.191263 282.685714 
L 326.603306 282.685714 
z
" clip-path="url(#p749dbb459d)" style="fill: #e9c5dd; stroke: #000000; stroke-linejoin: miter"/>
   </g>
   <g id="patch_32">
    <path d="M 333.191263 320.4 
L 339.779221 320.4 
L 339.779221 320.4 
L 333.191263 320.4 
z
" clip-path="url(#p749dbb459d)" style="fill: #e9c5dd; stroke: #000000; stroke-linejoin: miter"/>
   </g>
   <g id="patch_33">
    <path d="M 339.779221 320.4 
L 346.367178 320.4 
L 346.367178 263.828571 
L 339.779221 263.828571 
z
" clip-path="url(#p749dbb459d)" style="fill: #e9c5dd; stroke: #000000; stroke-linejoin: miter"/>
   </g>
   <g id="patch_34">
    <path d="M 346.367178 320.4 
L 352.955136 320.4 
L 352.955136 301.542857 
L 346.367178 301.542857 
z
" clip-path="url(#p749dbb459d)" style="fill: #e9c5dd; stroke: #000000; stroke-linejoin: miter"/>
   </g>
   <g id="patch_35">
    <path d="M 352.955136 320.4 
L 359.543093 320.4 
L 359.543093 320.4 
L 352.955136 320.4 
z
" clip-path="url(#p749dbb459d)" style="fill: #e9c5dd; stroke: #000000; stroke-linejoin: miter"/>
   </g>
   <g id="patch_36">
    <path d="M 359.543093 320.4 
L 366.131051 320.4 
L 366.131051 320.4 
L 359.543093 320.4 
z
" clip-path="url(#p749dbb459d)" style="fill: #e9c5dd; stroke: #000000; stroke-linejoin: miter"/>
   </g>
   <g id="patch_37">
    <path d="M 366.131051 320.4 
L 372.719008 320.4 
L 372.719008 301.542857 
L 366.131051 301.542857 
z
" clip-path="url(#p749dbb459d)" style="fill: #e9c5dd; stroke: #000000; stroke-linejoin: miter"/>
   </g>
   <g id="patch_38">
    <path d="M 372.719008 320.4 
L 379.306966 320.4 
L 379.306966 301.542857 
L 372.719008 301.542857 
z
" clip-path="url(#p749dbb459d)" style="fill: #e9c5dd; stroke: #000000; stroke-linejoin: miter"/>
   </g>
   <g id="patch_39">
    <path d="M 379.306966 320.4 
L 385.894923 320.4 
L 385.894923 320.4 
L 379.306966 320.4 
z
" clip-path="url(#p749dbb459d)" style="fill: #e9c5dd; stroke: #000000; stroke-linejoin: miter"/>
   </g>
   <g id="patch_40">
    <path d="M 385.894923 320.4 
L 392.482881 320.4 
L 392.482881 320.4 
L 385.894923 320.4 
z
" clip-path="url(#p749dbb459d)" style="fill: #e9c5dd; stroke: #000000; stroke-linejoin: miter"/>
   </g>
   <g id="patch_41">
    <path d="M 392.482881 320.4 
L 399.070838 320.4 
L 399.070838 301.542857 
L 392.482881 301.542857 
z
" clip-path="url(#p749dbb459d)" style="fill: #e9c5dd; stroke: #000000; stroke-linejoin: miter"/>
   </g>
   <g id="patch_42">
    <path d="M 399.070838 320.4 
L 405.658796 320.4 
L 405.658796 320.4 
L 399.070838 320.4 
z
" clip-path="url(#p749dbb459d)" style="fill: #e9c5dd; stroke: #000000; stroke-linejoin: miter"/>
   </g>
   <g id="patch_43">
    <path d="M 405.658796 320.4 
L 412.246753 320.4 
L 412.246753 263.828571 
L 405.658796 263.828571 
z
" clip-path="url(#p749dbb459d)" style="fill: #e9c5dd; stroke: #000000; stroke-linejoin: miter"/>
   </g>
   <g id="patch_44">
    <path d="M 412.246753 320.4 
L 418.834711 320.4 
L 418.834711 263.828571 
L 412.246753 263.828571 
z
" clip-path="url(#p749dbb459d)" style="fill: #e9c5dd; stroke: #000000; stroke-linejoin: miter"/>
   </g>
   <g id="patch_45">
    <path d="M 418.834711 320.4 
L 425.422668 320.4 
L 425.422668 263.828571 
L 418.834711 263.828571 
z
" clip-path="url(#p749dbb459d)" style="fill: #e9c5dd; stroke: #000000; stroke-linejoin: miter"/>
   </g>
   <g id="patch_46">
    <path d="M 425.422668 320.4 
L 432.010626 320.4 
L 432.010626 244.971429 
L 425.422668 244.971429 
z
" clip-path="url(#p749dbb459d)" style="fill: #e9c5dd; stroke: #000000; stroke-linejoin: miter"/>
   </g>
   <g id="patch_47">
    <path d="M 432.010626 320.4 
L 438.598583 320.4 
L 438.598583 263.828571 
L 432.010626 263.828571 
z
" clip-path="url(#p749dbb459d)" style="fill: #e9c5dd; stroke: #000000; stroke-linejoin: miter"/>
   </g>
   <g id="patch_48">
    <path d="M 438.598583 320.4 
L 445.186541 320.4 
L 445.186541 226.114286 
L 438.598583 226.114286 
z
" clip-path="url(#p749dbb459d)" style="fill: #e9c5dd; stroke: #000000; stroke-linejoin: miter"/>
   </g>
   <g id="patch_49">
    <path d="M 445.186541 320.4 
L 451.774498 320.4 
L 451.774498 226.114286 
L 445.186541 226.114286 
z
" clip-path="url(#p749dbb459d)" style="fill: #e9c5dd; stroke: #000000; stroke-linejoin: miter"/>
   </g>
   <g id="patch_50">
    <path d="M 451.774498 320.4 
L 458.362456 320.4 
L 458.362456 150.685714 
L 451.774498 150.685714 
z
" clip-path="url(#p749dbb459d)" style="fill: #e9c5dd; stroke: #000000; stroke-linejoin: miter"/>
   </g>
   <g id="patch_51">
    <path d="M 458.362456 320.4 
L 464.950413 320.4 
L 464.950413 56.4 
L 458.362456 56.4 
z
" clip-path="url(#p749dbb459d)" style="fill: #e9c5dd; stroke: #000000; stroke-linejoin: miter"/>
   </g>
   <g id="patch_52">
    <path d="M 142.140496 320.4 
L 148.728453 320.4 
L 148.728453 316.589824 
L 142.140496 316.589824 
z
" clip-path="url(#p749dbb459d)" style="fill: #a18aa5; opacity: 0.5; stroke: #000000; stroke-linejoin: miter"/>
   </g>
   <g id="patch_53">
    <path d="M 148.728453 320.4 
L 155.316411 320.4 
L 155.316411 314.684736 
L 148.728453 314.684736 
z
" clip-path="url(#p749dbb459d)" style="fill: #a18aa5; opacity: 0.5; stroke: #000000; stroke-linejoin: miter"/>
   </g>
   <g id="patch_54">
    <path d="M 155.316411 320.4 
L 161.904368 320.4 
L 161.904368 314.684736 
L 155.316411 314.684736 
z
" clip-path="url(#p749dbb459d)" style="fill: #a18aa5; opacity: 0.5; stroke: #000000; stroke-linejoin: miter"/>
   </g>
   <g id="patch_55">
    <path d="M 161.904368 320.4 
L 168.492326 320.4 
L 168.492326 318.494912 
L 161.904368 318.494912 
z
" clip-path="url(#p749dbb459d)" style="fill: #a18aa5; opacity: 0.5; stroke: #000000; stroke-linejoin: miter"/>
   </g>
   <g id="patch_56">
    <path d="M 168.492326 320.4 
L 175.080283 320.4 
L 175.080283 310.87456 
L 168.492326 310.87456 
z
" clip-path="url(#p749dbb459d)" style="fill: #a18aa5; opacity: 0.5; stroke: #000000; stroke-linejoin: miter"/>
   </g>
   <g id="patch_57">
    <path d="M 175.080283 320.4 
L 181.668241 320.4 
L 181.668241 314.684736 
L 175.080283 314.684736 
z
" clip-path="url(#p749dbb459d)" style="fill: #a18aa5; opacity: 0.5; stroke: #000000; stroke-linejoin: miter"/>
   </g>
   <g id="patch_58">
    <path d="M 181.668241 320.4 
L 188.256198 320.4 
L 188.256198 310.87456 
L 181.668241 310.87456 
z
" clip-path="url(#p749dbb459d)" style="fill: #a18aa5; opacity: 0.5; stroke: #000000; stroke-linejoin: miter"/>
   </g>
   <g id="patch_59">
    <path d="M 188.256198 320.4 
L 194.844156 320.4 
L 194.844156 308.969472 
L 188.256198 308.969472 
z
" clip-path="url(#p749dbb459d)" style="fill: #a18aa5; opacity: 0.5; stroke: #000000; stroke-linejoin: miter"/>
   </g>
   <g id="patch_60">
    <path d="M 194.844156 320.4 
L 201.432113 320.4 
L 201.432113 310.87456 
L 194.844156 310.87456 
z
" clip-path="url(#p749dbb459d)" style="fill: #a18aa5; opacity: 0.5; stroke: #000000; stroke-linejoin: miter"/>
   </g>
   <g id="patch_61">
    <path d="M 201.432113 320.4 
L 208.020071 320.4 
L 208.020071 307.064384 
L 201.432113 307.064384 
z
" clip-path="url(#p749dbb459d)" style="fill: #a18aa5; opacity: 0.5; stroke: #000000; stroke-linejoin: miter"/>
   </g>
   <g id="patch_62">
    <path d="M 208.020071 320.4 
L 214.608028 320.4 
L 214.608028 305.159295 
L 208.020071 305.159295 
z
" clip-path="url(#p749dbb459d)" style="fill: #a18aa5; opacity: 0.5; stroke: #000000; stroke-linejoin: miter"/>
   </g>
   <g id="patch_63">
    <path d="M 214.608028 320.4 
L 221.195986 320.4 
L 221.195986 297.538943 
L 214.608028 297.538943 
z
" clip-path="url(#p749dbb459d)" style="fill: #a18aa5; opacity: 0.5; stroke: #000000; stroke-linejoin: miter"/>
   </g>
   <g id="patch_64">
    <path d="M 221.195986 320.4 
L 227.783943 320.4 
L 227.783943 286.108415 
L 221.195986 286.108415 
z
" clip-path="url(#p749dbb459d)" style="fill: #a18aa5; opacity: 0.5; stroke: #000000; stroke-linejoin: miter"/>
   </g>
   <g id="patch_65">
    <path d="M 227.783943 320.4 
L 234.371901 320.4 
L 234.371901 291.823679 
L 227.783943 291.823679 
z
" clip-path="url(#p749dbb459d)" style="fill: #a18aa5; opacity: 0.5; stroke: #000000; stroke-linejoin: miter"/>
   </g>
   <g id="patch_66">
    <path d="M 234.371901 320.4 
L 240.959858 320.4 
L 240.959858 291.823679 
L 234.371901 291.823679 
z
" clip-path="url(#p749dbb459d)" style="fill: #a18aa5; opacity: 0.5; stroke: #000000; stroke-linejoin: miter"/>
   </g>
   <g id="patch_67">
    <path d="M 240.959858 320.4 
L 247.547816 320.4 
L 247.547816 295.633855 
L 240.959858 295.633855 
z
" clip-path="url(#p749dbb459d)" style="fill: #a18aa5; opacity: 0.5; stroke: #000000; stroke-linejoin: miter"/>
   </g>
   <g id="patch_68">
    <path d="M 247.547816 320.4 
L 254.135773 320.4 
L 254.135773 291.823679 
L 247.547816 291.823679 
z
" clip-path="url(#p749dbb459d)" style="fill: #a18aa5; opacity: 0.5; stroke: #000000; stroke-linejoin: miter"/>
   </g>
   <g id="patch_69">
    <path d="M 254.135773 320.4 
L 260.723731 320.4 
L 260.723731 288.013503 
L 254.135773 288.013503 
z
" clip-path="url(#p749dbb459d)" style="fill: #a18aa5; opacity: 0.5; stroke: #000000; stroke-linejoin: miter"/>
   </g>
   <g id="patch_70">
    <path d="M 260.723731 320.4 
L 267.311688 320.4 
L 267.311688 284.203327 
L 260.723731 284.203327 
z
" clip-path="url(#p749dbb459d)" style="fill: #a18aa5; opacity: 0.5; stroke: #000000; stroke-linejoin: miter"/>
   </g>
   <g id="patch_71">
    <path d="M 267.311688 320.4 
L 273.899646 320.4 
L 273.899646 297.538943 
L 267.311688 297.538943 
z
" clip-path="url(#p749dbb459d)" style="fill: #a18aa5; opacity: 0.5; stroke: #000000; stroke-linejoin: miter"/>
   </g>
   <g id="patch_72">
    <path d="M 273.899646 320.4 
L 280.487603 320.4 
L 280.487603 299.444031 
L 273.899646 299.444031 
z
" clip-path="url(#p749dbb459d)" style="fill: #a18aa5; opacity: 0.5; stroke: #000000; stroke-linejoin: miter"/>
   </g>
   <g id="patch_73">
    <path d="M 280.487603 320.4 
L 287.075561 320.4 
L 287.075561 291.823679 
L 280.487603 291.823679 
z
" clip-path="url(#p749dbb459d)" style="fill: #a18aa5; opacity: 0.5; stroke: #000000; stroke-linejoin: miter"/>
   </g>
   <g id="patch_74">
    <path d="M 287.075561 320.4 
L 293.663518 320.4 
L 293.663518 284.203327 
L 287.075561 284.203327 
z
" clip-path="url(#p749dbb459d)" style="fill: #a18aa5; opacity: 0.5; stroke: #000000; stroke-linejoin: miter"/>
   </g>
   <g id="patch_75">
    <path d="M 293.663518 320.4 
L 300.251476 320.4 
L 300.251476 293.728767 
L 293.663518 293.728767 
z
" clip-path="url(#p749dbb459d)" style="fill: #a18aa5; opacity: 0.5; stroke: #000000; stroke-linejoin: miter"/>
   </g>
   <g id="patch_76">
    <path d="M 300.251476 320.4 
L 306.839433 320.4 
L 306.839433 291.823679 
L 300.251476 291.823679 
z
" clip-path="url(#p749dbb459d)" style="fill: #a18aa5; opacity: 0.5; stroke: #000000; stroke-linejoin: miter"/>
   </g>
   <g id="patch_77">
    <path d="M 306.839433 320.4 
L 313.427391 320.4 
L 313.427391 293.728767 
L 306.839433 293.728767 
z
" clip-path="url(#p749dbb459d)" style="fill: #a18aa5; opacity: 0.5; stroke: #000000; stroke-linejoin: miter"/>
   </g>
   <g id="patch_78">
    <path d="M 313.427391 320.4 
L 320.015348 320.4 
L 320.015348 295.633855 
L 313.427391 295.633855 
z
" clip-path="url(#p749dbb459d)" style="fill: #a18aa5; opacity: 0.5; stroke: #000000; stroke-linejoin: miter"/>
   </g>
   <g id="patch_79">
    <path d="M 320.015348 320.4 
L 326.603306 320.4 
L 326.603306 288.013503 
L 320.015348 288.013503 
z
" clip-path="url(#p749dbb459d)" style="fill: #a18aa5; opacity: 0.5; stroke: #000000; stroke-linejoin: miter"/>
   </g>
   <g id="patch_80">
    <path d="M 326.603306 320.4 
L 333.191263 320.4 
L 333.191263 293.728767 
L 326.603306 293.728767 
z
" clip-path="url(#p749dbb459d)" style="fill: #a18aa5; opacity: 0.5; stroke: #000000; stroke-linejoin: miter"/>
   </g>
   <g id="patch_81">
    <path d="M 333.191263 320.4 
L 339.779221 320.4 
L 339.779221 286.108415 
L 333.191263 286.108415 
z
" clip-path="url(#p749dbb459d)" style="fill: #a18aa5; opacity: 0.5; stroke: #000000; stroke-linejoin: miter"/>
   </g>
   <g id="patch_82">
    <path d="M 339.779221 320.4 
L 346.367178 320.4 
L 346.367178 293.728767 
L 339.779221 293.728767 
z
" clip-path="url(#p749dbb459d)" style="fill: #a18aa5; opacity: 0.5; stroke: #000000; stroke-linejoin: miter"/>
   </g>
   <g id="patch_83">
    <path d="M 346.367178 320.4 
L 352.955136 320.4 
L 352.955136 289.918591 
L 346.367178 289.918591 
z
" clip-path="url(#p749dbb459d)" style="fill: #a18aa5; opacity: 0.5; stroke: #000000; stroke-linejoin: miter"/>
   </g>
   <g id="patch_84">
    <path d="M 352.955136 320.4 
L 359.543093 320.4 
L 359.543093 291.823679 
L 352.955136 291.823679 
z
" clip-path="url(#p749dbb459d)" style="fill: #a18aa5; opacity: 0.5; stroke: #000000; stroke-linejoin: miter"/>
   </g>
   <g id="patch_85">
    <path d="M 359.543093 320.4 
L 366.131051 320.4 
L 366.131051 295.633855 
L 359.543093 295.633855 
z
" clip-path="url(#p749dbb459d)" style="fill: #a18aa5; opacity: 0.5; stroke: #000000; stroke-linejoin: miter"/>
   </g>
   <g id="patch_86">
    <path d="M 366.131051 320.4 
L 372.719008 320.4 
L 372.719008 299.444031 
L 366.131051 299.444031 
z
" clip-path="url(#p749dbb459d)" style="fill: #a18aa5; opacity: 0.5; stroke: #000000; stroke-linejoin: miter"/>
   </g>
   <g id="patch_87">
    <path d="M 372.719008 320.4 
L 379.306966 320.4 
L 379.306966 288.013503 
L 372.719008 288.013503 
z
" clip-path="url(#p749dbb459d)" style="fill: #a18aa5; opacity: 0.5; stroke: #000000; stroke-linejoin: miter"/>
   </g>
   <g id="patch_88">
    <path d="M 379.306966 320.4 
L 385.894923 320.4 
L 385.894923 305.159295 
L 379.306966 305.159295 
z
" clip-path="url(#p749dbb459d)" style="fill: #a18aa5; opacity: 0.5; stroke: #000000; stroke-linejoin: miter"/>
   </g>
   <g id="patch_89">
    <path d="M 385.894923 320.4 
L 392.482881 320.4 
L 392.482881 288.013503 
L 385.894923 288.013503 
z
" clip-path="url(#p749dbb459d)" style="fill: #a18aa5; opacity: 0.5; stroke: #000000; stroke-linejoin: miter"/>
   </g>
   <g id="patch_90">
    <path d="M 392.482881 320.4 
L 399.070838 320.4 
L 399.070838 301.349119 
L 392.482881 301.349119 
z
" clip-path="url(#p749dbb459d)" style="fill: #a18aa5; opacity: 0.5; stroke: #000000; stroke-linejoin: miter"/>
   </g>
   <g id="patch_91">
    <path d="M 399.070838 320.4 
L 405.658796 320.4 
L 405.658796 288.013503 
L 399.070838 288.013503 
z
" clip-path="url(#p749dbb459d)" style="fill: #a18aa5; opacity: 0.5; stroke: #000000; stroke-linejoin: miter"/>
   </g>
   <g id="patch_92">
    <path d="M 405.658796 320.4 
L 412.246753 320.4 
L 412.246753 291.823679 
L 405.658796 291.823679 
z
" clip-path="url(#p749dbb459d)" style="fill: #a18aa5; opacity: 0.5; stroke: #000000; stroke-linejoin: miter"/>
   </g>
   <g id="patch_93">
    <path d="M 412.246753 320.4 
L 418.834711 320.4 
L 418.834711 293.728767 
L 412.246753 293.728767 
z
" clip-path="url(#p749dbb459d)" style="fill: #a18aa5; opacity: 0.5; stroke: #000000; stroke-linejoin: miter"/>
   </g>
   <g id="patch_94">
    <path d="M 418.834711 320.4 
L 425.422668 320.4 
L 425.422668 297.538943 
L 418.834711 297.538943 
z
" clip-path="url(#p749dbb459d)" style="fill: #a18aa5; opacity: 0.5; stroke: #000000; stroke-linejoin: miter"/>
   </g>
   <g id="patch_95">
    <path d="M 425.422668 320.4 
L 432.010626 320.4 
L 432.010626 307.064384 
L 425.422668 307.064384 
z
" clip-path="url(#p749dbb459d)" style="fill: #a18aa5; opacity: 0.5; stroke: #000000; stroke-linejoin: miter"/>
   </g>
   <g id="patch_96">
    <path d="M 432.010626 320.4 
L 438.598583 320.4 
L 438.598583 295.633855 
L 432.010626 295.633855 
z
" clip-path="url(#p749dbb459d)" style="fill: #a18aa5; opacity: 0.5; stroke: #000000; stroke-linejoin: miter"/>
   </g>
   <g id="patch_97">
    <path d="M 438.598583 320.4 
L 445.186541 320.4 
L 445.186541 291.823679 
L 438.598583 291.823679 
z
" clip-path="url(#p749dbb459d)" style="fill: #a18aa5; opacity: 0.5; stroke: #000000; stroke-linejoin: miter"/>
   </g>
   <g id="patch_98">
    <path d="M 445.186541 320.4 
L 451.774498 320.4 
L 451.774498 299.444031 
L 445.186541 299.444031 
z
" clip-path="url(#p749dbb459d)" style="fill: #a18aa5; opacity: 0.5; stroke: #000000; stroke-linejoin: miter"/>
   </g>
   <g id="patch_99">
    <path d="M 451.774498 320.4 
L 458.362456 320.4 
L 458.362456 295.633855 
L 451.774498 295.633855 
z
" clip-path="url(#p749dbb459d)" style="fill: #a18aa5; opacity: 0.5; stroke: #000000; stroke-linejoin: miter"/>
   </g>
   <g id="patch_100">
    <path d="M 458.362456 320.4 
L 464.950413 320.4 
L 464.950413 297.538943 
L 458.362456 297.538943 
z
" clip-path="url(#p749dbb459d)" style="fill: #a18aa5; opacity: 0.5; stroke: #000000; stroke-linejoin: miter"/>
   </g>
   <g id="matplotlib.axis_1">
    <g id="xtick_1">
     <g id="line2d_1">
      <defs>
       <path id="m9f48aeb400" d="M 0 0 
L 0 3.5 
" style="stroke: #000000; stroke-width: 0.8"/>
      </defs>
      <g>
       <use xlink:href="#m9f48aeb400" x="184.435233" y="320.4" style="stroke: #000000; stroke-width: 0.8"/>
      </g>
     </g>
     <g id="text_1">
      <!-- 1.3 -->
      <g transform="translate(172.507889 338.797656) scale(0.15 -0.15)">
       <defs>
        <path id="DejaVuSans-31" d="M 794 531 
L 1825 531 
L 1825 4091 
L 703 3866 
L 703 4441 
L 1819 4666 
L 2450 4666 
L 2450 531 
L 3481 531 
L 3481 0 
L 794 0 
L 794 531 
z
" transform="scale(0.015625)"/>
        <path id="DejaVuSans-2e" d="M 684 794 
L 1344 794 
L 1344 0 
L 684 0 
L 684 794 
z
" transform="scale(0.015625)"/>
        <path id="DejaVuSans-33" d="M 2597 2516 
Q 3050 2419 3304 2112 
Q 3559 1806 3559 1356 
Q 3559 666 3084 287 
Q 2609 -91 1734 -91 
Q 1441 -91 1130 -33 
Q 819 25 488 141 
L 488 750 
Q 750 597 1062 519 
Q 1375 441 1716 441 
Q 2309 441 2620 675 
Q 2931 909 2931 1356 
Q 2931 1769 2642 2001 
Q 2353 2234 1838 2234 
L 1294 2234 
L 1294 2753 
L 1863 2753 
Q 2328 2753 2575 2939 
Q 2822 3125 2822 3475 
Q 2822 3834 2567 4026 
Q 2313 4219 1838 4219 
Q 1578 4219 1281 4162 
Q 984 4106 628 3988 
L 628 4550 
Q 988 4650 1302 4700 
Q 1616 4750 1894 4750 
Q 2613 4750 3031 4423 
Q 3450 4097 3450 3541 
Q 3450 3153 3228 2886 
Q 3006 2619 2597 2516 
z
" transform="scale(0.015625)"/>
       </defs>
       <use xlink:href="#DejaVuSans-31"/>
       <use xlink:href="#DejaVuSans-2e" transform="translate(63.623047 0)"/>
       <use xlink:href="#DejaVuSans-33" transform="translate(95.410156 0)"/>
      </g>
     </g>
    </g>
    <g id="xtick_2">
     <g id="line2d_2">
      <g>
       <use xlink:href="#m9f48aeb400" x="278.020238" y="320.4" style="stroke: #000000; stroke-width: 0.8"/>
      </g>
     </g>
     <g id="text_2">
      <!-- 1.4 -->
      <g transform="translate(266.092894 338.797656) scale(0.15 -0.15)">
       <defs>
        <path id="DejaVuSans-34" d="M 2419 4116 
L 825 1625 
L 2419 1625 
L 2419 4116 
z
M 2253 4666 
L 3047 4666 
L 3047 1625 
L 3713 1625 
L 3713 1100 
L 3047 1100 
L 3047 0 
L 2419 0 
L 2419 1100 
L 313 1100 
L 313 1709 
L 2253 4666 
z
" transform="scale(0.015625)"/>
       </defs>
       <use xlink:href="#DejaVuSans-31"/>
       <use xlink:href="#DejaVuSans-2e" transform="translate(63.623047 0)"/>
       <use xlink:href="#DejaVuSans-34" transform="translate(95.410156 0)"/>
      </g>
     </g>
    </g>
    <g id="xtick_3">
     <g id="line2d_3">
      <g>
       <use xlink:href="#m9f48aeb400" x="371.605243" y="320.4" style="stroke: #000000; stroke-width: 0.8"/>
      </g>
     </g>
     <g id="text_3">
      <!-- 1.5 -->
      <g transform="translate(359.677899 338.797656) scale(0.15 -0.15)">
       <defs>
        <path id="DejaVuSans-35" d="M 691 4666 
L 3169 4666 
L 3169 4134 
L 1269 4134 
L 1269 2991 
Q 1406 3038 1543 3061 
Q 1681 3084 1819 3084 
Q 2600 3084 3056 2656 
Q 3513 2228 3513 1497 
Q 3513 744 3044 326 
Q 2575 -91 1722 -91 
Q 1428 -91 1123 -41 
Q 819 9 494 109 
L 494 744 
Q 775 591 1075 516 
Q 1375 441 1709 441 
Q 2250 441 2565 725 
Q 2881 1009 2881 1497 
Q 2881 1984 2565 2268 
Q 2250 2553 1709 2553 
Q 1456 2553 1204 2497 
Q 953 2441 691 2322 
L 691 4666 
z
" transform="scale(0.015625)"/>
       </defs>
       <use xlink:href="#DejaVuSans-31"/>
       <use xlink:href="#DejaVuSans-2e" transform="translate(63.623047 0)"/>
       <use xlink:href="#DejaVuSans-35" transform="translate(95.410156 0)"/>
      </g>
     </g>
    </g>
    <g id="xtick_4">
     <g id="line2d_4">
      <g>
       <use xlink:href="#m9f48aeb400" x="465.190248" y="320.4" style="stroke: #000000; stroke-width: 0.8"/>
      </g>
     </g>
     <g id="text_4">
      <!-- 1.6 -->
      <g transform="translate(453.262904 338.797656) scale(0.15 -0.15)">
       <defs>
        <path id="DejaVuSans-36" d="M 2113 2584 
Q 1688 2584 1439 2293 
Q 1191 2003 1191 1497 
Q 1191 994 1439 701 
Q 1688 409 2113 409 
Q 2538 409 2786 701 
Q 3034 994 3034 1497 
Q 3034 2003 2786 2293 
Q 2538 2584 2113 2584 
z
M 3366 4563 
L 3366 3988 
Q 3128 4100 2886 4159 
Q 2644 4219 2406 4219 
Q 1781 4219 1451 3797 
Q 1122 3375 1075 2522 
Q 1259 2794 1537 2939 
Q 1816 3084 2150 3084 
Q 2853 3084 3261 2657 
Q 3669 2231 3669 1497 
Q 3669 778 3244 343 
Q 2819 -91 2113 -91 
Q 1303 -91 875 529 
Q 447 1150 447 2328 
Q 447 3434 972 4092 
Q 1497 4750 2381 4750 
Q 2619 4750 2861 4703 
Q 3103 4656 3366 4563 
z
" transform="scale(0.015625)"/>
       </defs>
       <use xlink:href="#DejaVuSans-31"/>
       <use xlink:href="#DejaVuSans-2e" transform="translate(63.623047 0)"/>
       <use xlink:href="#DejaVuSans-36" transform="translate(95.410156 0)"/>
      </g>
     </g>
    </g>
    <g id="text_5">
     <!-- H-Cl Bond length (Å) -->
     <g transform="translate(200.937642 364.482813) scale(0.2 -0.2)">
      <defs>
       <path id="DejaVuSans-48" d="M 628 4666 
L 1259 4666 
L 1259 2753 
L 3553 2753 
L 3553 4666 
L 4184 4666 
L 4184 0 
L 3553 0 
L 3553 2222 
L 1259 2222 
L 1259 0 
L 628 0 
L 628 4666 
z
" transform="scale(0.015625)"/>
       <path id="DejaVuSans-2d" d="M 313 2009 
L 1997 2009 
L 1997 1497 
L 313 1497 
L 313 2009 
z
" transform="scale(0.015625)"/>
       <path id="DejaVuSans-43" d="M 4122 4306 
L 4122 3641 
Q 3803 3938 3442 4084 
Q 3081 4231 2675 4231 
Q 1875 4231 1450 3742 
Q 1025 3253 1025 2328 
Q 1025 1406 1450 917 
Q 1875 428 2675 428 
Q 3081 428 3442 575 
Q 3803 722 4122 1019 
L 4122 359 
Q 3791 134 3420 21 
Q 3050 -91 2638 -91 
Q 1578 -91 968 557 
Q 359 1206 359 2328 
Q 359 3453 968 4101 
Q 1578 4750 2638 4750 
Q 3056 4750 3426 4639 
Q 3797 4528 4122 4306 
z
" transform="scale(0.015625)"/>
       <path id="DejaVuSans-6c" d="M 603 4863 
L 1178 4863 
L 1178 0 
L 603 0 
L 603 4863 
z
" transform="scale(0.015625)"/>
       <path id="DejaVuSans-20" transform="scale(0.015625)"/>
       <path id="DejaVuSans-42" d="M 1259 2228 
L 1259 519 
L 2272 519 
Q 2781 519 3026 730 
Q 3272 941 3272 1375 
Q 3272 1813 3026 2020 
Q 2781 2228 2272 2228 
L 1259 2228 
z
M 1259 4147 
L 1259 2741 
L 2194 2741 
Q 2656 2741 2882 2914 
Q 3109 3088 3109 3444 
Q 3109 3797 2882 3972 
Q 2656 4147 2194 4147 
L 1259 4147 
z
M 628 4666 
L 2241 4666 
Q 2963 4666 3353 4366 
Q 3744 4066 3744 3513 
Q 3744 3084 3544 2831 
Q 3344 2578 2956 2516 
Q 3422 2416 3680 2098 
Q 3938 1781 3938 1306 
Q 3938 681 3513 340 
Q 3088 0 2303 0 
L 628 0 
L 628 4666 
z
" transform="scale(0.015625)"/>
       <path id="DejaVuSans-6f" d="M 1959 3097 
Q 1497 3097 1228 2736 
Q 959 2375 959 1747 
Q 959 1119 1226 758 
Q 1494 397 1959 397 
Q 2419 397 2687 759 
Q 2956 1122 2956 1747 
Q 2956 2369 2687 2733 
Q 2419 3097 1959 3097 
z
M 1959 3584 
Q 2709 3584 3137 3096 
Q 3566 2609 3566 1747 
Q 3566 888 3137 398 
Q 2709 -91 1959 -91 
Q 1206 -91 779 398 
Q 353 888 353 1747 
Q 353 2609 779 3096 
Q 1206 3584 1959 3584 
z
" transform="scale(0.015625)"/>
       <path id="DejaVuSans-6e" d="M 3513 2113 
L 3513 0 
L 2938 0 
L 2938 2094 
Q 2938 2591 2744 2837 
Q 2550 3084 2163 3084 
Q 1697 3084 1428 2787 
Q 1159 2491 1159 1978 
L 1159 0 
L 581 0 
L 581 3500 
L 1159 3500 
L 1159 2956 
Q 1366 3272 1645 3428 
Q 1925 3584 2291 3584 
Q 2894 3584 3203 3211 
Q 3513 2838 3513 2113 
z
" transform="scale(0.015625)"/>
       <path id="DejaVuSans-64" d="M 2906 2969 
L 2906 4863 
L 3481 4863 
L 3481 0 
L 2906 0 
L 2906 525 
Q 2725 213 2448 61 
Q 2172 -91 1784 -91 
Q 1150 -91 751 415 
Q 353 922 353 1747 
Q 353 2572 751 3078 
Q 1150 3584 1784 3584 
Q 2172 3584 2448 3432 
Q 2725 3281 2906 2969 
z
M 947 1747 
Q 947 1113 1208 752 
Q 1469 391 1925 391 
Q 2381 391 2643 752 
Q 2906 1113 2906 1747 
Q 2906 2381 2643 2742 
Q 2381 3103 1925 3103 
Q 1469 3103 1208 2742 
Q 947 2381 947 1747 
z
" transform="scale(0.015625)"/>
       <path id="DejaVuSans-65" d="M 3597 1894 
L 3597 1613 
L 953 1613 
Q 991 1019 1311 708 
Q 1631 397 2203 397 
Q 2534 397 2845 478 
Q 3156 559 3463 722 
L 3463 178 
Q 3153 47 2828 -22 
Q 2503 -91 2169 -91 
Q 1331 -91 842 396 
Q 353 884 353 1716 
Q 353 2575 817 3079 
Q 1281 3584 2069 3584 
Q 2775 3584 3186 3129 
Q 3597 2675 3597 1894 
z
M 3022 2063 
Q 3016 2534 2758 2815 
Q 2500 3097 2075 3097 
Q 1594 3097 1305 2825 
Q 1016 2553 972 2059 
L 3022 2063 
z
" transform="scale(0.015625)"/>
       <path id="DejaVuSans-67" d="M 2906 1791 
Q 2906 2416 2648 2759 
Q 2391 3103 1925 3103 
Q 1463 3103 1205 2759 
Q 947 2416 947 1791 
Q 947 1169 1205 825 
Q 1463 481 1925 481 
Q 2391 481 2648 825 
Q 2906 1169 2906 1791 
z
M 3481 434 
Q 3481 -459 3084 -895 
Q 2688 -1331 1869 -1331 
Q 1566 -1331 1297 -1286 
Q 1028 -1241 775 -1147 
L 775 -588 
Q 1028 -725 1275 -790 
Q 1522 -856 1778 -856 
Q 2344 -856 2625 -561 
Q 2906 -266 2906 331 
L 2906 616 
Q 2728 306 2450 153 
Q 2172 0 1784 0 
Q 1141 0 747 490 
Q 353 981 353 1791 
Q 353 2603 747 3093 
Q 1141 3584 1784 3584 
Q 2172 3584 2450 3431 
Q 2728 3278 2906 2969 
L 2906 3500 
L 3481 3500 
L 3481 434 
z
" transform="scale(0.015625)"/>
       <path id="DejaVuSans-74" d="M 1172 4494 
L 1172 3500 
L 2356 3500 
L 2356 3053 
L 1172 3053 
L 1172 1153 
Q 1172 725 1289 603 
Q 1406 481 1766 481 
L 2356 481 
L 2356 0 
L 1766 0 
Q 1100 0 847 248 
Q 594 497 594 1153 
L 594 3053 
L 172 3053 
L 172 3500 
L 594 3500 
L 594 4494 
L 1172 4494 
z
" transform="scale(0.015625)"/>
       <path id="DejaVuSans-68" d="M 3513 2113 
L 3513 0 
L 2938 0 
L 2938 2094 
Q 2938 2591 2744 2837 
Q 2550 3084 2163 3084 
Q 1697 3084 1428 2787 
Q 1159 2491 1159 1978 
L 1159 0 
L 581 0 
L 581 4863 
L 1159 4863 
L 1159 2956 
Q 1366 3272 1645 3428 
Q 1925 3584 2291 3584 
Q 2894 3584 3203 3211 
Q 3513 2838 3513 2113 
z
" transform="scale(0.015625)"/>
       <path id="DejaVuSans-28" d="M 1984 4856 
Q 1566 4138 1362 3434 
Q 1159 2731 1159 2009 
Q 1159 1288 1364 580 
Q 1569 -128 1984 -844 
L 1484 -844 
Q 1016 -109 783 600 
Q 550 1309 550 2009 
Q 550 2706 781 3412 
Q 1013 4119 1484 4856 
L 1984 4856 
z
" transform="scale(0.015625)"/>
       <path id="DejaVuSans-c5" d="M 2663 5081 
Q 2663 5278 2523 5417 
Q 2384 5556 2188 5556 
Q 1988 5556 1852 5420 
Q 1716 5284 1716 5081 
Q 1716 4884 1853 4746 
Q 1991 4609 2188 4609 
Q 2384 4609 2523 4746 
Q 2663 4884 2663 5081 
z
M 2188 4044 
L 1338 1722 
L 3041 1722 
L 2188 4044 
z
M 1716 4366 
Q 1525 4494 1428 4673 
Q 1331 4853 1331 5081 
Q 1331 5441 1579 5691 
Q 1828 5941 2188 5941 
Q 2544 5941 2795 5689 
Q 3047 5438 3047 5081 
Q 3047 4863 2948 4678 
Q 2850 4494 2663 4366 
L 4325 0 
L 3669 0 
L 3244 1197 
L 1141 1197 
L 716 0 
L 50 0 
L 1716 4366 
z
" transform="scale(0.015625)"/>
       <path id="DejaVuSans-29" d="M 513 4856 
L 1013 4856 
Q 1481 4119 1714 3412 
Q 1947 2706 1947 2009 
Q 1947 1309 1714 600 
Q 1481 -109 1013 -844 
L 513 -844 
Q 928 -128 1133 580 
Q 1338 1288 1338 2009 
Q 1338 2731 1133 3434 
Q 928 4138 513 4856 
z
" transform="scale(0.015625)"/>
      </defs>
      <use xlink:href="#DejaVuSans-48"/>
      <use xlink:href="#DejaVuSans-2d" transform="translate(75.195312 0)"/>
      <use xlink:href="#DejaVuSans-43" transform="translate(111.279297 0)"/>
      <use xlink:href="#DejaVuSans-6c" transform="translate(181.103516 0)"/>
      <use xlink:href="#DejaVuSans-20" transform="translate(208.886719 0)"/>
      <use xlink:href="#DejaVuSans-42" transform="translate(240.673828 0)"/>
      <use xlink:href="#DejaVuSans-6f" transform="translate(309.277344 0)"/>
      <use xlink:href="#DejaVuSans-6e" transform="translate(370.458984 0)"/>
      <use xlink:href="#DejaVuSans-64" transform="translate(433.837891 0)"/>
      <use xlink:href="#DejaVuSans-20" transform="translate(497.314453 0)"/>
      <use xlink:href="#DejaVuSans-6c" transform="translate(529.101562 0)"/>
      <use xlink:href="#DejaVuSans-65" transform="translate(556.884766 0)"/>
      <use xlink:href="#DejaVuSans-6e" transform="translate(618.408203 0)"/>
      <use xlink:href="#DejaVuSans-67" transform="translate(681.787109 0)"/>
      <use xlink:href="#DejaVuSans-74" transform="translate(745.263672 0)"/>
      <use xlink:href="#DejaVuSans-68" transform="translate(784.472656 0)"/>
      <use xlink:href="#DejaVuSans-20" transform="translate(847.851562 0)"/>
      <use xlink:href="#DejaVuSans-28" transform="translate(879.638672 0)"/>
      <use xlink:href="#DejaVuSans-c5" transform="translate(918.652344 0)"/>
      <use xlink:href="#DejaVuSans-29" transform="translate(987.060547 0)"/>
     </g>
    </g>
   </g>
   <g id="matplotlib.axis_2">
    <g id="ytick_1">
     <g id="line2d_5">
      <defs>
       <path id="madfe189df8" d="M 0 0 
L -3.5 0 
" style="stroke: #000000; stroke-width: 0.8"/>
      </defs>
      <g>
       <use xlink:href="#madfe189df8" x="126" y="320.4" style="stroke: #000000; stroke-width: 0.8"/>
      </g>
     </g>
     <g id="text_6">
      <!-- 0 -->
      <g transform="translate(109.45625 326.098828) scale(0.15 -0.15)">
       <defs>
        <path id="DejaVuSans-30" d="M 2034 4250 
Q 1547 4250 1301 3770 
Q 1056 3291 1056 2328 
Q 1056 1369 1301 889 
Q 1547 409 2034 409 
Q 2525 409 2770 889 
Q 3016 1369 3016 2328 
Q 3016 3291 2770 3770 
Q 2525 4250 2034 4250 
z
M 2034 4750 
Q 2819 4750 3233 4129 
Q 3647 3509 3647 2328 
Q 3647 1150 3233 529 
Q 2819 -91 2034 -91 
Q 1250 -91 836 529 
Q 422 1150 422 2328 
Q 422 3509 836 4129 
Q 1250 4750 2034 4750 
z
" transform="scale(0.015625)"/>
       </defs>
       <use xlink:href="#DejaVuSans-30"/>
      </g>
     </g>
    </g>
    <g id="ytick_2">
     <g id="line2d_6">
      <g>
       <use xlink:href="#madfe189df8" x="126" y="281.240023" style="stroke: #000000; stroke-width: 0.8"/>
      </g>
     </g>
     <g id="text_7">
      <!-- 5 -->
      <g transform="translate(109.45625 286.938851) scale(0.15 -0.15)">
       <use xlink:href="#DejaVuSans-35"/>
      </g>
     </g>
    </g>
    <g id="ytick_3">
     <g id="line2d_7">
      <g>
       <use xlink:href="#madfe189df8" x="126" y="242.080046" style="stroke: #000000; stroke-width: 0.8"/>
      </g>
     </g>
     <g id="text_8">
      <!-- 10 -->
      <g transform="translate(99.9125 247.778874) scale(0.15 -0.15)">
       <use xlink:href="#DejaVuSans-31"/>
       <use xlink:href="#DejaVuSans-30" transform="translate(63.623047 0)"/>
      </g>
     </g>
    </g>
    <g id="ytick_4">
     <g id="line2d_8">
      <g>
       <use xlink:href="#madfe189df8" x="126" y="202.920069" style="stroke: #000000; stroke-width: 0.8"/>
      </g>
     </g>
     <g id="text_9">
      <!-- 15 -->
      <g transform="translate(99.9125 208.618897) scale(0.15 -0.15)">
       <use xlink:href="#DejaVuSans-31"/>
       <use xlink:href="#DejaVuSans-35" transform="translate(63.623047 0)"/>
      </g>
     </g>
    </g>
    <g id="ytick_5">
     <g id="line2d_9">
      <g>
       <use xlink:href="#madfe189df8" x="126" y="163.760092" style="stroke: #000000; stroke-width: 0.8"/>
      </g>
     </g>
     <g id="text_10">
      <!-- 20 -->
      <g transform="translate(99.9125 169.458921) scale(0.15 -0.15)">
       <defs>
        <path id="DejaVuSans-32" d="M 1228 531 
L 3431 531 
L 3431 0 
L 469 0 
L 469 531 
Q 828 903 1448 1529 
Q 2069 2156 2228 2338 
Q 2531 2678 2651 2914 
Q 2772 3150 2772 3378 
Q 2772 3750 2511 3984 
Q 2250 4219 1831 4219 
Q 1534 4219 1204 4116 
Q 875 4013 500 3803 
L 500 4441 
Q 881 4594 1212 4672 
Q 1544 4750 1819 4750 
Q 2544 4750 2975 4387 
Q 3406 4025 3406 3419 
Q 3406 3131 3298 2873 
Q 3191 2616 2906 2266 
Q 2828 2175 2409 1742 
Q 1991 1309 1228 531 
z
" transform="scale(0.015625)"/>
       </defs>
       <use xlink:href="#DejaVuSans-32"/>
       <use xlink:href="#DejaVuSans-30" transform="translate(63.623047 0)"/>
      </g>
     </g>
    </g>
    <g id="ytick_6">
     <g id="line2d_10">
      <g>
       <use xlink:href="#madfe189df8" x="126" y="124.600115" style="stroke: #000000; stroke-width: 0.8"/>
      </g>
     </g>
     <g id="text_11">
      <!-- 25 -->
      <g transform="translate(99.9125 130.298944) scale(0.15 -0.15)">
       <use xlink:href="#DejaVuSans-32"/>
       <use xlink:href="#DejaVuSans-35" transform="translate(63.623047 0)"/>
      </g>
     </g>
    </g>
    <g id="ytick_7">
     <g id="line2d_11">
      <g>
       <use xlink:href="#madfe189df8" x="126" y="85.440139" style="stroke: #000000; stroke-width: 0.8"/>
      </g>
     </g>
     <g id="text_12">
      <!-- 30 -->
      <g transform="translate(99.9125 91.138967) scale(0.15 -0.15)">
       <use xlink:href="#DejaVuSans-33"/>
       <use xlink:href="#DejaVuSans-30" transform="translate(63.623047 0)"/>
      </g>
     </g>
    </g>
    <g id="ytick_8">
     <g id="line2d_12">
      <g>
       <use xlink:href="#madfe189df8" x="126" y="46.280162" style="stroke: #000000; stroke-width: 0.8"/>
      </g>
     </g>
     <g id="text_13">
      <!-- 35 -->
      <g transform="translate(99.9125 51.97899) scale(0.15 -0.15)">
       <use xlink:href="#DejaVuSans-33"/>
       <use xlink:href="#DejaVuSans-35" transform="translate(63.623047 0)"/>
      </g>
     </g>
    </g>
    <g id="text_14">
     <!-- Density -->
     <g transform="translate(91.753125 219.817187) rotate(-90) scale(0.2 -0.2)">
      <defs>
       <path id="DejaVuSans-44" d="M 1259 4147 
L 1259 519 
L 2022 519 
Q 2988 519 3436 956 
Q 3884 1394 3884 2338 
Q 3884 3275 3436 3711 
Q 2988 4147 2022 4147 
L 1259 4147 
z
M 628 4666 
L 1925 4666 
Q 3281 4666 3915 4102 
Q 4550 3538 4550 2338 
Q 4550 1131 3912 565 
Q 3275 0 1925 0 
L 628 0 
L 628 4666 
z
" transform="scale(0.015625)"/>
       <path id="DejaVuSans-73" d="M 2834 3397 
L 2834 2853 
Q 2591 2978 2328 3040 
Q 2066 3103 1784 3103 
Q 1356 3103 1142 2972 
Q 928 2841 928 2578 
Q 928 2378 1081 2264 
Q 1234 2150 1697 2047 
L 1894 2003 
Q 2506 1872 2764 1633 
Q 3022 1394 3022 966 
Q 3022 478 2636 193 
Q 2250 -91 1575 -91 
Q 1294 -91 989 -36 
Q 684 19 347 128 
L 347 722 
Q 666 556 975 473 
Q 1284 391 1588 391 
Q 1994 391 2212 530 
Q 2431 669 2431 922 
Q 2431 1156 2273 1281 
Q 2116 1406 1581 1522 
L 1381 1569 
Q 847 1681 609 1914 
Q 372 2147 372 2553 
Q 372 3047 722 3315 
Q 1072 3584 1716 3584 
Q 2034 3584 2315 3537 
Q 2597 3491 2834 3397 
z
" transform="scale(0.015625)"/>
       <path id="DejaVuSans-69" d="M 603 3500 
L 1178 3500 
L 1178 0 
L 603 0 
L 603 3500 
z
M 603 4863 
L 1178 4863 
L 1178 4134 
L 603 4134 
L 603 4863 
z
" transform="scale(0.015625)"/>
       <path id="DejaVuSans-79" d="M 2059 -325 
Q 1816 -950 1584 -1140 
Q 1353 -1331 966 -1331 
L 506 -1331 
L 506 -850 
L 844 -850 
Q 1081 -850 1212 -737 
Q 1344 -625 1503 -206 
L 1606 56 
L 191 3500 
L 800 3500 
L 1894 763 
L 2988 3500 
L 3597 3500 
L 2059 -325 
z
" transform="scale(0.015625)"/>
      </defs>
      <use xlink:href="#DejaVuSans-44"/>
      <use xlink:href="#DejaVuSans-65" transform="translate(77.001953 0)"/>
      <use xlink:href="#DejaVuSans-6e" transform="translate(138.525391 0)"/>
      <use xlink:href="#DejaVuSans-73" transform="translate(201.904297 0)"/>
      <use xlink:href="#DejaVuSans-69" transform="translate(254.003906 0)"/>
      <use xlink:href="#DejaVuSans-74" transform="translate(281.787109 0)"/>
      <use xlink:href="#DejaVuSans-79" transform="translate(320.996094 0)"/>
     </g>
    </g>
   </g>
   <g id="patch_101">
    <path d="M 126 320.4 
L 126 43.2 
" style="fill: none; stroke: #000000; stroke-width: 3; stroke-linejoin: miter; stroke-linecap: square"/>
   </g>
   <g id="patch_102">
    <path d="M 481.090909 320.4 
L 481.090909 43.2 
" style="fill: none; stroke: #000000; stroke-width: 3; stroke-linejoin: miter; stroke-linecap: square"/>
   </g>
   <g id="patch_103">
    <path d="M 126 320.4 
L 481.090909 320.4 
" style="fill: none; stroke: #000000; stroke-width: 3; stroke-linejoin: miter; stroke-linecap: square"/>
   </g>
   <g id="patch_104">
    <path d="M 126 43.2 
L 481.090909 43.2 
" style="fill: none; stroke: #000000; stroke-width: 3; stroke-linejoin: miter; stroke-linecap: square"/>
   </g>
   <g id="legend_1">
    <g id="patch_105">
     <path d="M 138.6 110.44125 
L 227.320312 110.44125 
Q 230.920312 110.44125 230.920312 106.84125 
L 230.920312 55.8 
Q 230.920312 52.2 227.320312 52.2 
L 138.6 52.2 
Q 135 52.2 135 55.8 
L 135 106.84125 
Q 135 110.44125 138.6 110.44125 
z
" style="fill: #ffffff; opacity: 0.8; stroke: #cccccc; stroke-linejoin: miter"/>
    </g>
    <g id="patch_106">
     <path d="M 142.2 73.077187 
L 178.2 73.077187 
L 178.2 60.477187 
L 142.2 60.477187 
z
" style="fill: #e9c5dd; stroke: #000000; stroke-linejoin: miter"/>
    </g>
    <g id="text_15">
     <!-- U-1 -->
     <g transform="translate(192.6 73.077187) scale(0.18 -0.18)">
      <defs>
       <path id="DejaVuSans-55" d="M 556 4666 
L 1191 4666 
L 1191 1831 
Q 1191 1081 1462 751 
Q 1734 422 2344 422 
Q 2950 422 3222 751 
Q 3494 1081 3494 1831 
L 3494 4666 
L 4128 4666 
L 4128 1753 
Q 4128 841 3676 375 
Q 3225 -91 2344 -91 
Q 1459 -91 1007 375 
Q 556 841 556 1753 
L 556 4666 
z
" transform="scale(0.015625)"/>
      </defs>
      <use xlink:href="#DejaVuSans-55"/>
      <use xlink:href="#DejaVuSans-2d" transform="translate(73.193359 0)"/>
      <use xlink:href="#DejaVuSans-31" transform="translate(109.277344 0)"/>
     </g>
    </g>
    <g id="patch_107">
     <path d="M 142.2 99.497812 
L 178.2 99.497812 
L 178.2 86.897812 
L 142.2 86.897812 
z
" style="fill: #a18aa5; opacity: 0.5; stroke: #000000; stroke-linejoin: miter"/>
    </g>
    <g id="text_16">
     <!-- U-2 -->
     <g transform="translate(192.6 99.497812) scale(0.18 -0.18)">
      <use xlink:href="#DejaVuSans-55"/>
      <use xlink:href="#DejaVuSans-2d" transform="translate(73.193359 0)"/>
      <use xlink:href="#DejaVuSans-32" transform="translate(109.277344 0)"/>
     </g>
    </g>
   </g>
  </g>
  <g id="axes_2">
   <g id="patch_108">
    <path d="M 552.109091 320.4 
L 907.2 320.4 
L 907.2 43.2 
L 552.109091 43.2 
z
" style="fill: #ffffff"/>
   </g>
   <g id="patch_109">
    <path d="M 568.249587 320.4 
L 574.837544 320.4 
L 574.837544 320.4 
L 568.249587 320.4 
z
" clip-path="url(#p00f8a1d106)" style="fill: #e9c5dd; stroke: #000000; stroke-linejoin: miter"/>
   </g>
   <g id="patch_110">
    <path d="M 574.837544 320.4 
L 581.425502 320.4 
L 581.425502 320.4 
L 574.837544 320.4 
z
" clip-path="url(#p00f8a1d106)" style="fill: #e9c5dd; stroke: #000000; stroke-linejoin: miter"/>
   </g>
   <g id="patch_111">
    <path d="M 581.425502 320.4 
L 588.013459 320.4 
L 588.013459 320.4 
L 581.425502 320.4 
z
" clip-path="url(#p00f8a1d106)" style="fill: #e9c5dd; stroke: #000000; stroke-linejoin: miter"/>
   </g>
   <g id="patch_112">
    <path d="M 588.013459 320.4 
L 594.601417 320.4 
L 594.601417 316.498037 
L 588.013459 316.498037 
z
" clip-path="url(#p00f8a1d106)" style="fill: #e9c5dd; stroke: #000000; stroke-linejoin: miter"/>
   </g>
   <g id="patch_113">
    <path d="M 594.601417 320.4 
L 601.189374 320.4 
L 601.189374 320.4 
L 594.601417 320.4 
z
" clip-path="url(#p00f8a1d106)" style="fill: #e9c5dd; stroke: #000000; stroke-linejoin: miter"/>
   </g>
   <g id="patch_114">
    <path d="M 601.189374 320.4 
L 607.777332 320.4 
L 607.777332 312.596074 
L 601.189374 312.596074 
z
" clip-path="url(#p00f8a1d106)" style="fill: #e9c5dd; stroke: #000000; stroke-linejoin: miter"/>
   </g>
   <g id="patch_115">
    <path d="M 607.777332 320.4 
L 614.365289 320.4 
L 614.365289 300.890185 
L 607.777332 300.890185 
z
" clip-path="url(#p00f8a1d106)" style="fill: #e9c5dd; stroke: #000000; stroke-linejoin: miter"/>
   </g>
   <g id="patch_116">
    <path d="M 614.365289 320.4 
L 620.953247 320.4 
L 620.953247 296.988222 
L 614.365289 296.988222 
z
" clip-path="url(#p00f8a1d106)" style="fill: #e9c5dd; stroke: #000000; stroke-linejoin: miter"/>
   </g>
   <g id="patch_117">
    <path d="M 620.953247 320.4 
L 627.541204 320.4 
L 627.541204 265.772518 
L 620.953247 265.772518 
z
" clip-path="url(#p00f8a1d106)" style="fill: #e9c5dd; stroke: #000000; stroke-linejoin: miter"/>
   </g>
   <g id="patch_118">
    <path d="M 627.541204 320.4 
L 634.129162 320.4 
L 634.129162 285.282333 
L 627.541204 285.282333 
z
" clip-path="url(#p00f8a1d106)" style="fill: #e9c5dd; stroke: #000000; stroke-linejoin: miter"/>
   </g>
   <g id="patch_119">
    <path d="M 634.129162 320.4 
L 640.717119 320.4 
L 640.717119 222.850924 
L 634.129162 222.850924 
z
" clip-path="url(#p00f8a1d106)" style="fill: #e9c5dd; stroke: #000000; stroke-linejoin: miter"/>
   </g>
   <g id="patch_120">
    <path d="M 640.717119 320.4 
L 647.305077 320.4 
L 647.305077 254.066628 
L 640.717119 254.066628 
z
" clip-path="url(#p00f8a1d106)" style="fill: #e9c5dd; stroke: #000000; stroke-linejoin: miter"/>
   </g>
   <g id="patch_121">
    <path d="M 647.305077 320.4 
L 653.893034 320.4 
L 653.893034 211.145035 
L 647.305077 211.145035 
z
" clip-path="url(#p00f8a1d106)" style="fill: #e9c5dd; stroke: #000000; stroke-linejoin: miter"/>
   </g>
   <g id="patch_122">
    <path d="M 653.893034 320.4 
L 660.480992 320.4 
L 660.480992 195.537183 
L 653.893034 195.537183 
z
" clip-path="url(#p00f8a1d106)" style="fill: #e9c5dd; stroke: #000000; stroke-linejoin: miter"/>
   </g>
   <g id="patch_123">
    <path d="M 660.480992 320.4 
L 667.068949 320.4 
L 667.068949 179.929331 
L 660.480992 179.929331 
z
" clip-path="url(#p00f8a1d106)" style="fill: #e9c5dd; stroke: #000000; stroke-linejoin: miter"/>
   </g>
   <g id="patch_124">
    <path d="M 667.068949 320.4 
L 673.656907 320.4 
L 673.656907 152.615589 
L 667.068949 152.615589 
z
" clip-path="url(#p00f8a1d106)" style="fill: #e9c5dd; stroke: #000000; stroke-linejoin: miter"/>
   </g>
   <g id="patch_125">
    <path d="M 673.656907 320.4 
L 680.244864 320.4 
L 680.244864 187.733257 
L 673.656907 187.733257 
z
" clip-path="url(#p00f8a1d106)" style="fill: #e9c5dd; stroke: #000000; stroke-linejoin: miter"/>
   </g>
   <g id="patch_126">
    <path d="M 680.244864 320.4 
L 686.832822 320.4 
L 686.832822 140.9097 
L 680.244864 140.9097 
z
" clip-path="url(#p00f8a1d106)" style="fill: #e9c5dd; stroke: #000000; stroke-linejoin: miter"/>
   </g>
   <g id="patch_127">
    <path d="M 686.832822 320.4 
L 693.420779 320.4 
L 693.420779 195.537183 
L 686.832822 195.537183 
z
" clip-path="url(#p00f8a1d106)" style="fill: #e9c5dd; stroke: #000000; stroke-linejoin: miter"/>
   </g>
   <g id="patch_128">
    <path d="M 693.420779 320.4 
L 700.008737 320.4 
L 700.008737 168.223442 
L 693.420779 168.223442 
z
" clip-path="url(#p00f8a1d106)" style="fill: #e9c5dd; stroke: #000000; stroke-linejoin: miter"/>
   </g>
   <g id="patch_129">
    <path d="M 700.008737 320.4 
L 706.596694 320.4 
L 706.596694 164.321479 
L 700.008737 164.321479 
z
" clip-path="url(#p00f8a1d106)" style="fill: #e9c5dd; stroke: #000000; stroke-linejoin: miter"/>
   </g>
   <g id="patch_130">
    <path d="M 706.596694 320.4 
L 713.184652 320.4 
L 713.184652 207.243072 
L 706.596694 207.243072 
z
" clip-path="url(#p00f8a1d106)" style="fill: #e9c5dd; stroke: #000000; stroke-linejoin: miter"/>
   </g>
   <g id="patch_131">
    <path d="M 713.184652 320.4 
L 719.772609 320.4 
L 719.772609 176.027368 
L 713.184652 176.027368 
z
" clip-path="url(#p00f8a1d106)" style="fill: #e9c5dd; stroke: #000000; stroke-linejoin: miter"/>
   </g>
   <g id="patch_132">
    <path d="M 719.772609 320.4 
L 726.360567 320.4 
L 726.360567 156.517553 
L 719.772609 156.517553 
z
" clip-path="url(#p00f8a1d106)" style="fill: #e9c5dd; stroke: #000000; stroke-linejoin: miter"/>
   </g>
   <g id="patch_133">
    <path d="M 726.360567 320.4 
L 732.948524 320.4 
L 732.948524 195.537183 
L 726.360567 195.537183 
z
" clip-path="url(#p00f8a1d106)" style="fill: #e9c5dd; stroke: #000000; stroke-linejoin: miter"/>
   </g>
   <g id="patch_134">
    <path d="M 732.948524 320.4 
L 739.536482 320.4 
L 739.536482 183.831294 
L 732.948524 183.831294 
z
" clip-path="url(#p00f8a1d106)" style="fill: #e9c5dd; stroke: #000000; stroke-linejoin: miter"/>
   </g>
   <g id="patch_135">
    <path d="M 739.536482 320.4 
L 746.124439 320.4 
L 746.124439 183.831294 
L 739.536482 183.831294 
z
" clip-path="url(#p00f8a1d106)" style="fill: #e9c5dd; stroke: #000000; stroke-linejoin: miter"/>
   </g>
   <g id="patch_136">
    <path d="M 746.124439 320.4 
L 752.712397 320.4 
L 752.712397 211.145035 
L 746.124439 211.145035 
z
" clip-path="url(#p00f8a1d106)" style="fill: #e9c5dd; stroke: #000000; stroke-linejoin: miter"/>
   </g>
   <g id="patch_137">
    <path d="M 752.712397 320.4 
L 759.300354 320.4 
L 759.300354 203.341109 
L 752.712397 203.341109 
z
" clip-path="url(#p00f8a1d106)" style="fill: #e9c5dd; stroke: #000000; stroke-linejoin: miter"/>
   </g>
   <g id="patch_138">
    <path d="M 759.300354 320.4 
L 765.888312 320.4 
L 765.888312 250.164665 
L 759.300354 250.164665 
z
" clip-path="url(#p00f8a1d106)" style="fill: #e9c5dd; stroke: #000000; stroke-linejoin: miter"/>
   </g>
   <g id="patch_139">
    <path d="M 765.888312 320.4 
L 772.476269 320.4 
L 772.476269 246.262702 
L 765.888312 246.262702 
z
" clip-path="url(#p00f8a1d106)" style="fill: #e9c5dd; stroke: #000000; stroke-linejoin: miter"/>
   </g>
   <g id="patch_140">
    <path d="M 772.476269 320.4 
L 779.064227 320.4 
L 779.064227 242.360739 
L 772.476269 242.360739 
z
" clip-path="url(#p00f8a1d106)" style="fill: #e9c5dd; stroke: #000000; stroke-linejoin: miter"/>
   </g>
   <g id="patch_141">
    <path d="M 779.064227 320.4 
L 785.652184 320.4 
L 785.652184 234.556813 
L 779.064227 234.556813 
z
" clip-path="url(#p00f8a1d106)" style="fill: #e9c5dd; stroke: #000000; stroke-linejoin: miter"/>
   </g>
   <g id="patch_142">
    <path d="M 785.652184 320.4 
L 792.240142 320.4 
L 792.240142 218.948961 
L 785.652184 218.948961 
z
" clip-path="url(#p00f8a1d106)" style="fill: #e9c5dd; stroke: #000000; stroke-linejoin: miter"/>
   </g>
   <g id="patch_143">
    <path d="M 792.240142 320.4 
L 798.828099 320.4 
L 798.828099 273.576444 
L 792.240142 273.576444 
z
" clip-path="url(#p00f8a1d106)" style="fill: #e9c5dd; stroke: #000000; stroke-linejoin: miter"/>
   </g>
   <g id="patch_144">
    <path d="M 798.828099 320.4 
L 805.416057 320.4 
L 805.416057 246.262702 
L 798.828099 246.262702 
z
" clip-path="url(#p00f8a1d106)" style="fill: #e9c5dd; stroke: #000000; stroke-linejoin: miter"/>
   </g>
   <g id="patch_145">
    <path d="M 805.416057 320.4 
L 812.004014 320.4 
L 812.004014 238.458776 
L 805.416057 238.458776 
z
" clip-path="url(#p00f8a1d106)" style="fill: #e9c5dd; stroke: #000000; stroke-linejoin: miter"/>
   </g>
   <g id="patch_146">
    <path d="M 812.004014 320.4 
L 818.591972 320.4 
L 818.591972 246.262702 
L 812.004014 246.262702 
z
" clip-path="url(#p00f8a1d106)" style="fill: #e9c5dd; stroke: #000000; stroke-linejoin: miter"/>
   </g>
   <g id="patch_147">
    <path d="M 818.591972 320.4 
L 825.179929 320.4 
L 825.179929 218.948961 
L 818.591972 218.948961 
z
" clip-path="url(#p00f8a1d106)" style="fill: #e9c5dd; stroke: #000000; stroke-linejoin: miter"/>
   </g>
   <g id="patch_148">
    <path d="M 825.179929 320.4 
L 831.767887 320.4 
L 831.767887 257.968591 
L 825.179929 257.968591 
z
" clip-path="url(#p00f8a1d106)" style="fill: #e9c5dd; stroke: #000000; stroke-linejoin: miter"/>
   </g>
   <g id="patch_149">
    <path d="M 831.767887 320.4 
L 838.355844 320.4 
L 838.355844 215.046998 
L 831.767887 215.046998 
z
" clip-path="url(#p00f8a1d106)" style="fill: #e9c5dd; stroke: #000000; stroke-linejoin: miter"/>
   </g>
   <g id="patch_150">
    <path d="M 838.355844 320.4 
L 844.943802 320.4 
L 844.943802 269.674481 
L 838.355844 269.674481 
z
" clip-path="url(#p00f8a1d106)" style="fill: #e9c5dd; stroke: #000000; stroke-linejoin: miter"/>
   </g>
   <g id="patch_151">
    <path d="M 844.943802 320.4 
L 851.531759 320.4 
L 851.531759 250.164665 
L 844.943802 250.164665 
z
" clip-path="url(#p00f8a1d106)" style="fill: #e9c5dd; stroke: #000000; stroke-linejoin: miter"/>
   </g>
   <g id="patch_152">
    <path d="M 851.531759 320.4 
L 858.119717 320.4 
L 858.119717 246.262702 
L 851.531759 246.262702 
z
" clip-path="url(#p00f8a1d106)" style="fill: #e9c5dd; stroke: #000000; stroke-linejoin: miter"/>
   </g>
   <g id="patch_153">
    <path d="M 858.119717 320.4 
L 864.707674 320.4 
L 864.707674 234.556813 
L 858.119717 234.556813 
z
" clip-path="url(#p00f8a1d106)" style="fill: #e9c5dd; stroke: #000000; stroke-linejoin: miter"/>
   </g>
   <g id="patch_154">
    <path d="M 864.707674 320.4 
L 871.295632 320.4 
L 871.295632 203.341109 
L 864.707674 203.341109 
z
" clip-path="url(#p00f8a1d106)" style="fill: #e9c5dd; stroke: #000000; stroke-linejoin: miter"/>
   </g>
   <g id="patch_155">
    <path d="M 871.295632 320.4 
L 877.883589 320.4 
L 877.883589 199.439146 
L 871.295632 199.439146 
z
" clip-path="url(#p00f8a1d106)" style="fill: #e9c5dd; stroke: #000000; stroke-linejoin: miter"/>
   </g>
   <g id="patch_156">
    <path d="M 877.883589 320.4 
L 884.471547 320.4 
L 884.471547 160.419516 
L 877.883589 160.419516 
z
" clip-path="url(#p00f8a1d106)" style="fill: #e9c5dd; stroke: #000000; stroke-linejoin: miter"/>
   </g>
   <g id="patch_157">
    <path d="M 884.471547 320.4 
L 891.059504 320.4 
L 891.059504 211.145035 
L 884.471547 211.145035 
z
" clip-path="url(#p00f8a1d106)" style="fill: #e9c5dd; stroke: #000000; stroke-linejoin: miter"/>
   </g>
   <g id="patch_158">
    <path d="M 568.249587 320.4 
L 574.837544 320.4 
L 574.837544 311.883871 
L 568.249587 311.883871 
z
" clip-path="url(#p00f8a1d106)" style="fill: #a18aa5; opacity: 0.5; stroke: #000000; stroke-linejoin: miter"/>
   </g>
   <g id="patch_159">
    <path d="M 574.837544 320.4 
L 581.425502 320.4 
L 581.425502 311.883871 
L 574.837544 311.883871 
z
" clip-path="url(#p00f8a1d106)" style="fill: #a18aa5; opacity: 0.5; stroke: #000000; stroke-linejoin: miter"/>
   </g>
   <g id="patch_160">
    <path d="M 581.425502 320.4 
L 588.013459 320.4 
L 588.013459 316.141935 
L 581.425502 316.141935 
z
" clip-path="url(#p00f8a1d106)" style="fill: #a18aa5; opacity: 0.5; stroke: #000000; stroke-linejoin: miter"/>
   </g>
   <g id="patch_161">
    <path d="M 588.013459 320.4 
L 594.601417 320.4 
L 594.601417 307.625806 
L 588.013459 307.625806 
z
" clip-path="url(#p00f8a1d106)" style="fill: #a18aa5; opacity: 0.5; stroke: #000000; stroke-linejoin: miter"/>
   </g>
   <g id="patch_162">
    <path d="M 594.601417 320.4 
L 601.189374 320.4 
L 601.189374 299.109677 
L 594.601417 299.109677 
z
" clip-path="url(#p00f8a1d106)" style="fill: #a18aa5; opacity: 0.5; stroke: #000000; stroke-linejoin: miter"/>
   </g>
   <g id="patch_163">
    <path d="M 601.189374 320.4 
L 607.777332 320.4 
L 607.777332 290.593548 
L 601.189374 290.593548 
z
" clip-path="url(#p00f8a1d106)" style="fill: #a18aa5; opacity: 0.5; stroke: #000000; stroke-linejoin: miter"/>
   </g>
   <g id="patch_164">
    <path d="M 607.777332 320.4 
L 614.365289 320.4 
L 614.365289 252.270968 
L 607.777332 252.270968 
z
" clip-path="url(#p00f8a1d106)" style="fill: #a18aa5; opacity: 0.5; stroke: #000000; stroke-linejoin: miter"/>
   </g>
   <g id="patch_165">
    <path d="M 614.365289 320.4 
L 620.953247 320.4 
L 620.953247 230.980645 
L 614.365289 230.980645 
z
" clip-path="url(#p00f8a1d106)" style="fill: #a18aa5; opacity: 0.5; stroke: #000000; stroke-linejoin: miter"/>
   </g>
   <g id="patch_166">
    <path d="M 620.953247 320.4 
L 627.541204 320.4 
L 627.541204 239.496774 
L 620.953247 239.496774 
z
" clip-path="url(#p00f8a1d106)" style="fill: #a18aa5; opacity: 0.5; stroke: #000000; stroke-linejoin: miter"/>
   </g>
   <g id="patch_167">
    <path d="M 627.541204 320.4 
L 634.129162 320.4 
L 634.129162 201.174194 
L 627.541204 201.174194 
z
" clip-path="url(#p00f8a1d106)" style="fill: #a18aa5; opacity: 0.5; stroke: #000000; stroke-linejoin: miter"/>
   </g>
   <g id="patch_168">
    <path d="M 634.129162 320.4 
L 640.717119 320.4 
L 640.717119 213.948387 
L 634.129162 213.948387 
z
" clip-path="url(#p00f8a1d106)" style="fill: #a18aa5; opacity: 0.5; stroke: #000000; stroke-linejoin: miter"/>
   </g>
   <g id="patch_169">
    <path d="M 640.717119 320.4 
L 647.305077 320.4 
L 647.305077 111.754839 
L 640.717119 111.754839 
z
" clip-path="url(#p00f8a1d106)" style="fill: #a18aa5; opacity: 0.5; stroke: #000000; stroke-linejoin: miter"/>
   </g>
   <g id="patch_170">
    <path d="M 647.305077 320.4 
L 653.893034 320.4 
L 653.893034 120.270968 
L 647.305077 120.270968 
z
" clip-path="url(#p00f8a1d106)" style="fill: #a18aa5; opacity: 0.5; stroke: #000000; stroke-linejoin: miter"/>
   </g>
   <g id="patch_171">
    <path d="M 653.893034 320.4 
L 660.480992 320.4 
L 660.480992 154.335484 
L 653.893034 154.335484 
z
" clip-path="url(#p00f8a1d106)" style="fill: #a18aa5; opacity: 0.5; stroke: #000000; stroke-linejoin: miter"/>
   </g>
   <g id="patch_172">
    <path d="M 660.480992 320.4 
L 667.068949 320.4 
L 667.068949 56.4 
L 660.480992 56.4 
z
" clip-path="url(#p00f8a1d106)" style="fill: #a18aa5; opacity: 0.5; stroke: #000000; stroke-linejoin: miter"/>
   </g>
   <g id="patch_173">
    <path d="M 667.068949 320.4 
L 673.656907 320.4 
L 673.656907 73.432258 
L 667.068949 73.432258 
z
" clip-path="url(#p00f8a1d106)" style="fill: #a18aa5; opacity: 0.5; stroke: #000000; stroke-linejoin: miter"/>
   </g>
   <g id="patch_174">
    <path d="M 673.656907 320.4 
L 680.244864 320.4 
L 680.244864 94.722581 
L 673.656907 94.722581 
z
" clip-path="url(#p00f8a1d106)" style="fill: #a18aa5; opacity: 0.5; stroke: #000000; stroke-linejoin: miter"/>
   </g>
   <g id="patch_175">
    <path d="M 680.244864 320.4 
L 686.832822 320.4 
L 686.832822 69.174194 
L 680.244864 69.174194 
z
" clip-path="url(#p00f8a1d106)" style="fill: #a18aa5; opacity: 0.5; stroke: #000000; stroke-linejoin: miter"/>
   </g>
   <g id="patch_176">
    <path d="M 686.832822 320.4 
L 693.420779 320.4 
L 693.420779 124.529032 
L 686.832822 124.529032 
z
" clip-path="url(#p00f8a1d106)" style="fill: #a18aa5; opacity: 0.5; stroke: #000000; stroke-linejoin: miter"/>
   </g>
   <g id="patch_177">
    <path d="M 693.420779 320.4 
L 700.008737 320.4 
L 700.008737 77.690323 
L 693.420779 77.690323 
z
" clip-path="url(#p00f8a1d106)" style="fill: #a18aa5; opacity: 0.5; stroke: #000000; stroke-linejoin: miter"/>
   </g>
   <g id="patch_178">
    <path d="M 700.008737 320.4 
L 706.596694 320.4 
L 706.596694 103.23871 
L 700.008737 103.23871 
z
" clip-path="url(#p00f8a1d106)" style="fill: #a18aa5; opacity: 0.5; stroke: #000000; stroke-linejoin: miter"/>
   </g>
   <g id="patch_179">
    <path d="M 706.596694 320.4 
L 713.184652 320.4 
L 713.184652 154.335484 
L 706.596694 154.335484 
z
" clip-path="url(#p00f8a1d106)" style="fill: #a18aa5; opacity: 0.5; stroke: #000000; stroke-linejoin: miter"/>
   </g>
   <g id="patch_180">
    <path d="M 713.184652 320.4 
L 719.772609 320.4 
L 719.772609 196.916129 
L 713.184652 196.916129 
z
" clip-path="url(#p00f8a1d106)" style="fill: #a18aa5; opacity: 0.5; stroke: #000000; stroke-linejoin: miter"/>
   </g>
   <g id="patch_181">
    <path d="M 719.772609 320.4 
L 726.360567 320.4 
L 726.360567 167.109677 
L 719.772609 167.109677 
z
" clip-path="url(#p00f8a1d106)" style="fill: #a18aa5; opacity: 0.5; stroke: #000000; stroke-linejoin: miter"/>
   </g>
   <g id="patch_182">
    <path d="M 726.360567 320.4 
L 732.948524 320.4 
L 732.948524 158.593548 
L 726.360567 158.593548 
z
" clip-path="url(#p00f8a1d106)" style="fill: #a18aa5; opacity: 0.5; stroke: #000000; stroke-linejoin: miter"/>
   </g>
   <g id="patch_183">
    <path d="M 732.948524 320.4 
L 739.536482 320.4 
L 739.536482 222.464516 
L 732.948524 222.464516 
z
" clip-path="url(#p00f8a1d106)" style="fill: #a18aa5; opacity: 0.5; stroke: #000000; stroke-linejoin: miter"/>
   </g>
   <g id="patch_184">
    <path d="M 739.536482 320.4 
L 746.124439 320.4 
L 746.124439 230.980645 
L 739.536482 230.980645 
z
" clip-path="url(#p00f8a1d106)" style="fill: #a18aa5; opacity: 0.5; stroke: #000000; stroke-linejoin: miter"/>
   </g>
   <g id="patch_185">
    <path d="M 746.124439 320.4 
L 752.712397 320.4 
L 752.712397 256.529032 
L 746.124439 256.529032 
z
" clip-path="url(#p00f8a1d106)" style="fill: #a18aa5; opacity: 0.5; stroke: #000000; stroke-linejoin: miter"/>
   </g>
   <g id="patch_186">
    <path d="M 752.712397 320.4 
L 759.300354 320.4 
L 759.300354 218.206452 
L 752.712397 218.206452 
z
" clip-path="url(#p00f8a1d106)" style="fill: #a18aa5; opacity: 0.5; stroke: #000000; stroke-linejoin: miter"/>
   </g>
   <g id="patch_187">
    <path d="M 759.300354 320.4 
L 765.888312 320.4 
L 765.888312 252.270968 
L 759.300354 252.270968 
z
" clip-path="url(#p00f8a1d106)" style="fill: #a18aa5; opacity: 0.5; stroke: #000000; stroke-linejoin: miter"/>
   </g>
   <g id="patch_188">
    <path d="M 765.888312 320.4 
L 772.476269 320.4 
L 772.476269 248.012903 
L 765.888312 248.012903 
z
" clip-path="url(#p00f8a1d106)" style="fill: #a18aa5; opacity: 0.5; stroke: #000000; stroke-linejoin: miter"/>
   </g>
   <g id="patch_189">
    <path d="M 772.476269 320.4 
L 779.064227 320.4 
L 779.064227 265.045161 
L 772.476269 265.045161 
z
" clip-path="url(#p00f8a1d106)" style="fill: #a18aa5; opacity: 0.5; stroke: #000000; stroke-linejoin: miter"/>
   </g>
   <g id="patch_190">
    <path d="M 779.064227 320.4 
L 785.652184 320.4 
L 785.652184 290.593548 
L 779.064227 290.593548 
z
" clip-path="url(#p00f8a1d106)" style="fill: #a18aa5; opacity: 0.5; stroke: #000000; stroke-linejoin: miter"/>
   </g>
   <g id="patch_191">
    <path d="M 785.652184 320.4 
L 792.240142 320.4 
L 792.240142 269.303226 
L 785.652184 269.303226 
z
" clip-path="url(#p00f8a1d106)" style="fill: #a18aa5; opacity: 0.5; stroke: #000000; stroke-linejoin: miter"/>
   </g>
   <g id="patch_192">
    <path d="M 792.240142 320.4 
L 798.828099 320.4 
L 798.828099 294.851613 
L 792.240142 294.851613 
z
" clip-path="url(#p00f8a1d106)" style="fill: #a18aa5; opacity: 0.5; stroke: #000000; stroke-linejoin: miter"/>
   </g>
   <g id="patch_193">
    <path d="M 798.828099 320.4 
L 805.416057 320.4 
L 805.416057 290.593548 
L 798.828099 290.593548 
z
" clip-path="url(#p00f8a1d106)" style="fill: #a18aa5; opacity: 0.5; stroke: #000000; stroke-linejoin: miter"/>
   </g>
   <g id="patch_194">
    <path d="M 805.416057 320.4 
L 812.004014 320.4 
L 812.004014 294.851613 
L 805.416057 294.851613 
z
" clip-path="url(#p00f8a1d106)" style="fill: #a18aa5; opacity: 0.5; stroke: #000000; stroke-linejoin: miter"/>
   </g>
   <g id="patch_195">
    <path d="M 812.004014 320.4 
L 818.591972 320.4 
L 818.591972 290.593548 
L 812.004014 290.593548 
z
" clip-path="url(#p00f8a1d106)" style="fill: #a18aa5; opacity: 0.5; stroke: #000000; stroke-linejoin: miter"/>
   </g>
   <g id="patch_196">
    <path d="M 818.591972 320.4 
L 825.179929 320.4 
L 825.179929 273.56129 
L 818.591972 273.56129 
z
" clip-path="url(#p00f8a1d106)" style="fill: #a18aa5; opacity: 0.5; stroke: #000000; stroke-linejoin: miter"/>
   </g>
   <g id="patch_197">
    <path d="M 825.179929 320.4 
L 831.767887 320.4 
L 831.767887 290.593548 
L 825.179929 290.593548 
z
" clip-path="url(#p00f8a1d106)" style="fill: #a18aa5; opacity: 0.5; stroke: #000000; stroke-linejoin: miter"/>
   </g>
   <g id="patch_198">
    <path d="M 831.767887 320.4 
L 838.355844 320.4 
L 838.355844 299.109677 
L 831.767887 299.109677 
z
" clip-path="url(#p00f8a1d106)" style="fill: #a18aa5; opacity: 0.5; stroke: #000000; stroke-linejoin: miter"/>
   </g>
   <g id="patch_199">
    <path d="M 838.355844 320.4 
L 844.943802 320.4 
L 844.943802 303.367742 
L 838.355844 303.367742 
z
" clip-path="url(#p00f8a1d106)" style="fill: #a18aa5; opacity: 0.5; stroke: #000000; stroke-linejoin: miter"/>
   </g>
   <g id="patch_200">
    <path d="M 844.943802 320.4 
L 851.531759 320.4 
L 851.531759 303.367742 
L 844.943802 303.367742 
z
" clip-path="url(#p00f8a1d106)" style="fill: #a18aa5; opacity: 0.5; stroke: #000000; stroke-linejoin: miter"/>
   </g>
   <g id="patch_201">
    <path d="M 851.531759 320.4 
L 858.119717 320.4 
L 858.119717 307.625806 
L 851.531759 307.625806 
z
" clip-path="url(#p00f8a1d106)" style="fill: #a18aa5; opacity: 0.5; stroke: #000000; stroke-linejoin: miter"/>
   </g>
   <g id="patch_202">
    <path d="M 858.119717 320.4 
L 864.707674 320.4 
L 864.707674 282.077419 
L 858.119717 282.077419 
z
" clip-path="url(#p00f8a1d106)" style="fill: #a18aa5; opacity: 0.5; stroke: #000000; stroke-linejoin: miter"/>
   </g>
   <g id="patch_203">
    <path d="M 864.707674 320.4 
L 871.295632 320.4 
L 871.295632 290.593548 
L 864.707674 290.593548 
z
" clip-path="url(#p00f8a1d106)" style="fill: #a18aa5; opacity: 0.5; stroke: #000000; stroke-linejoin: miter"/>
   </g>
   <g id="patch_204">
    <path d="M 871.295632 320.4 
L 877.883589 320.4 
L 877.883589 303.367742 
L 871.295632 303.367742 
z
" clip-path="url(#p00f8a1d106)" style="fill: #a18aa5; opacity: 0.5; stroke: #000000; stroke-linejoin: miter"/>
   </g>
   <g id="patch_205">
    <path d="M 877.883589 320.4 
L 884.471547 320.4 
L 884.471547 299.109677 
L 877.883589 299.109677 
z
" clip-path="url(#p00f8a1d106)" style="fill: #a18aa5; opacity: 0.5; stroke: #000000; stroke-linejoin: miter"/>
   </g>
   <g id="patch_206">
    <path d="M 884.471547 320.4 
L 891.059504 320.4 
L 891.059504 299.109677 
L 884.471547 299.109677 
z
" clip-path="url(#p00f8a1d106)" style="fill: #a18aa5; opacity: 0.5; stroke: #000000; stroke-linejoin: miter"/>
   </g>
   <g id="matplotlib.axis_3">
    <g id="xtick_5">
     <g id="line2d_13">
      <g>
       <use xlink:href="#m9f48aeb400" x="563.779608" y="320.4" style="stroke: #000000; stroke-width: 0.8"/>
      </g>
     </g>
     <g id="text_17">
      <!-- 1.2 -->
      <g transform="translate(551.852264 338.797656) scale(0.15 -0.15)">
       <use xlink:href="#DejaVuSans-31"/>
       <use xlink:href="#DejaVuSans-2e" transform="translate(63.623047 0)"/>
       <use xlink:href="#DejaVuSans-32" transform="translate(95.410156 0)"/>
      </g>
     </g>
    </g>
    <g id="xtick_6">
     <g id="line2d_14">
      <g>
       <use xlink:href="#m9f48aeb400" x="645.647548" y="320.4" style="stroke: #000000; stroke-width: 0.8"/>
      </g>
     </g>
     <g id="text_18">
      <!-- 1.3 -->
      <g transform="translate(633.720204 338.797656) scale(0.15 -0.15)">
       <use xlink:href="#DejaVuSans-31"/>
       <use xlink:href="#DejaVuSans-2e" transform="translate(63.623047 0)"/>
       <use xlink:href="#DejaVuSans-33" transform="translate(95.410156 0)"/>
      </g>
     </g>
    </g>
    <g id="xtick_7">
     <g id="line2d_15">
      <g>
       <use xlink:href="#m9f48aeb400" x="727.515488" y="320.4" style="stroke: #000000; stroke-width: 0.8"/>
      </g>
     </g>
     <g id="text_19">
      <!-- 1.4 -->
      <g transform="translate(715.588145 338.797656) scale(0.15 -0.15)">
       <use xlink:href="#DejaVuSans-31"/>
       <use xlink:href="#DejaVuSans-2e" transform="translate(63.623047 0)"/>
       <use xlink:href="#DejaVuSans-34" transform="translate(95.410156 0)"/>
      </g>
     </g>
    </g>
    <g id="xtick_8">
     <g id="line2d_16">
      <g>
       <use xlink:href="#m9f48aeb400" x="809.383429" y="320.4" style="stroke: #000000; stroke-width: 0.8"/>
      </g>
     </g>
     <g id="text_20">
      <!-- 1.5 -->
      <g transform="translate(797.456085 338.797656) scale(0.15 -0.15)">
       <use xlink:href="#DejaVuSans-31"/>
       <use xlink:href="#DejaVuSans-2e" transform="translate(63.623047 0)"/>
       <use xlink:href="#DejaVuSans-35" transform="translate(95.410156 0)"/>
      </g>
     </g>
    </g>
    <g id="xtick_9">
     <g id="line2d_17">
      <g>
       <use xlink:href="#m9f48aeb400" x="891.251369" y="320.4" style="stroke: #000000; stroke-width: 0.8"/>
      </g>
     </g>
     <g id="text_21">
      <!-- 1.6 -->
      <g transform="translate(879.324025 338.797656) scale(0.15 -0.15)">
       <use xlink:href="#DejaVuSans-31"/>
       <use xlink:href="#DejaVuSans-2e" transform="translate(63.623047 0)"/>
       <use xlink:href="#DejaVuSans-36" transform="translate(95.410156 0)"/>
      </g>
     </g>
    </g>
    <g id="text_22">
     <!-- H-Cl Bond length (Å) -->
     <g transform="translate(627.046733 364.482813) scale(0.2 -0.2)">
      <use xlink:href="#DejaVuSans-48"/>
      <use xlink:href="#DejaVuSans-2d" transform="translate(75.195312 0)"/>
      <use xlink:href="#DejaVuSans-43" transform="translate(111.279297 0)"/>
      <use xlink:href="#DejaVuSans-6c" transform="translate(181.103516 0)"/>
      <use xlink:href="#DejaVuSans-20" transform="translate(208.886719 0)"/>
      <use xlink:href="#DejaVuSans-42" transform="translate(240.673828 0)"/>
      <use xlink:href="#DejaVuSans-6f" transform="translate(309.277344 0)"/>
      <use xlink:href="#DejaVuSans-6e" transform="translate(370.458984 0)"/>
      <use xlink:href="#DejaVuSans-64" transform="translate(433.837891 0)"/>
      <use xlink:href="#DejaVuSans-20" transform="translate(497.314453 0)"/>
      <use xlink:href="#DejaVuSans-6c" transform="translate(529.101562 0)"/>
      <use xlink:href="#DejaVuSans-65" transform="translate(556.884766 0)"/>
      <use xlink:href="#DejaVuSans-6e" transform="translate(618.408203 0)"/>
      <use xlink:href="#DejaVuSans-67" transform="translate(681.787109 0)"/>
      <use xlink:href="#DejaVuSans-74" transform="translate(745.263672 0)"/>
      <use xlink:href="#DejaVuSans-68" transform="translate(784.472656 0)"/>
      <use xlink:href="#DejaVuSans-20" transform="translate(847.851562 0)"/>
      <use xlink:href="#DejaVuSans-28" transform="translate(879.638672 0)"/>
      <use xlink:href="#DejaVuSans-c5" transform="translate(918.652344 0)"/>
      <use xlink:href="#DejaVuSans-29" transform="translate(987.060547 0)"/>
     </g>
    </g>
   </g>
   <g id="matplotlib.axis_4">
    <g id="ytick_9">
     <g id="line2d_18">
      <g>
       <use xlink:href="#madfe189df8" x="552.109091" y="320.4" style="stroke: #000000; stroke-width: 0.8"/>
      </g>
     </g>
     <g id="text_23">
      <!-- 0 -->
      <g transform="translate(535.565341 326.098828) scale(0.15 -0.15)">
       <use xlink:href="#DejaVuSans-30"/>
      </g>
     </g>
    </g>
    <g id="ytick_10">
     <g id="line2d_19">
      <g>
       <use xlink:href="#madfe189df8" x="552.109091" y="285.107178" style="stroke: #000000; stroke-width: 0.8"/>
      </g>
     </g>
     <g id="text_24">
      <!-- 1 -->
      <g transform="translate(535.565341 290.806006) scale(0.15 -0.15)">
       <use xlink:href="#DejaVuSans-31"/>
      </g>
     </g>
    </g>
    <g id="ytick_11">
     <g id="line2d_20">
      <g>
       <use xlink:href="#madfe189df8" x="552.109091" y="249.814356" style="stroke: #000000; stroke-width: 0.8"/>
      </g>
     </g>
     <g id="text_25">
      <!-- 2 -->
      <g transform="translate(535.565341 255.513184) scale(0.15 -0.15)">
       <use xlink:href="#DejaVuSans-32"/>
      </g>
     </g>
    </g>
    <g id="ytick_12">
     <g id="line2d_21">
      <g>
       <use xlink:href="#madfe189df8" x="552.109091" y="214.521534" style="stroke: #000000; stroke-width: 0.8"/>
      </g>
     </g>
     <g id="text_26">
      <!-- 3 -->
      <g transform="translate(535.565341 220.220362) scale(0.15 -0.15)">
       <use xlink:href="#DejaVuSans-33"/>
      </g>
     </g>
    </g>
    <g id="ytick_13">
     <g id="line2d_22">
      <g>
       <use xlink:href="#madfe189df8" x="552.109091" y="179.228712" style="stroke: #000000; stroke-width: 0.8"/>
      </g>
     </g>
     <g id="text_27">
      <!-- 4 -->
      <g transform="translate(535.565341 184.92754) scale(0.15 -0.15)">
       <use xlink:href="#DejaVuSans-34"/>
      </g>
     </g>
    </g>
    <g id="ytick_14">
     <g id="line2d_23">
      <g>
       <use xlink:href="#madfe189df8" x="552.109091" y="143.93589" style="stroke: #000000; stroke-width: 0.8"/>
      </g>
     </g>
     <g id="text_28">
      <!-- 5 -->
      <g transform="translate(535.565341 149.634718) scale(0.15 -0.15)">
       <use xlink:href="#DejaVuSans-35"/>
      </g>
     </g>
    </g>
    <g id="ytick_15">
     <g id="line2d_24">
      <g>
       <use xlink:href="#madfe189df8" x="552.109091" y="108.643068" style="stroke: #000000; stroke-width: 0.8"/>
      </g>
     </g>
     <g id="text_29">
      <!-- 6 -->
      <g transform="translate(535.565341 114.341896) scale(0.15 -0.15)">
       <use xlink:href="#DejaVuSans-36"/>
      </g>
     </g>
    </g>
    <g id="ytick_16">
     <g id="line2d_25">
      <g>
       <use xlink:href="#madfe189df8" x="552.109091" y="73.350246" style="stroke: #000000; stroke-width: 0.8"/>
      </g>
     </g>
     <g id="text_30">
      <!-- 7 -->
      <g transform="translate(535.565341 79.049074) scale(0.15 -0.15)">
       <defs>
        <path id="DejaVuSans-37" d="M 525 4666 
L 3525 4666 
L 3525 4397 
L 1831 0 
L 1172 0 
L 2766 4134 
L 525 4134 
L 525 4666 
z
" transform="scale(0.015625)"/>
       </defs>
       <use xlink:href="#DejaVuSans-37"/>
      </g>
     </g>
    </g>
    <g id="text_31">
     <!-- Density -->
     <g transform="translate(527.405966 219.817187) rotate(-90) scale(0.2 -0.2)">
      <use xlink:href="#DejaVuSans-44"/>
      <use xlink:href="#DejaVuSans-65" transform="translate(77.001953 0)"/>
      <use xlink:href="#DejaVuSans-6e" transform="translate(138.525391 0)"/>
      <use xlink:href="#DejaVuSans-73" transform="translate(201.904297 0)"/>
      <use xlink:href="#DejaVuSans-69" transform="translate(254.003906 0)"/>
      <use xlink:href="#DejaVuSans-74" transform="translate(281.787109 0)"/>
      <use xlink:href="#DejaVuSans-79" transform="translate(320.996094 0)"/>
     </g>
    </g>
   </g>
   <g id="patch_207">
    <path d="M 552.109091 320.4 
L 552.109091 43.2 
" style="fill: none; stroke: #000000; stroke-width: 3; stroke-linejoin: miter; stroke-linecap: square"/>
   </g>
   <g id="patch_208">
    <path d="M 907.2 320.4 
L 907.2 43.2 
" style="fill: none; stroke: #000000; stroke-width: 3; stroke-linejoin: miter; stroke-linecap: square"/>
   </g>
   <g id="patch_209">
    <path d="M 552.109091 320.4 
L 907.2 320.4 
" style="fill: none; stroke: #000000; stroke-width: 3; stroke-linejoin: miter; stroke-linecap: square"/>
   </g>
   <g id="patch_210">
    <path d="M 552.109091 43.2 
L 907.2 43.2 
" style="fill: none; stroke: #000000; stroke-width: 3; stroke-linejoin: miter; stroke-linecap: square"/>
   </g>
   <g id="legend_2">
    <g id="patch_211">
     <path d="M 804.515625 110.44125 
L 894.6 110.44125 
Q 898.2 110.44125 898.2 106.84125 
L 898.2 55.8 
Q 898.2 52.2 894.6 52.2 
L 804.515625 52.2 
Q 800.915625 52.2 800.915625 55.8 
L 800.915625 106.84125 
Q 800.915625 110.44125 804.515625 110.44125 
z
" style="fill: #ffffff; opacity: 0.8; stroke: #cccccc; stroke-linejoin: miter"/>
    </g>
    <g id="patch_212">
     <path d="M 808.115625 73.077187 
L 844.115625 73.077187 
L 844.115625 60.477187 
L 808.115625 60.477187 
z
" style="fill: #e9c5dd; stroke: #000000; stroke-linejoin: miter"/>
    </g>
    <g id="text_32">
     <!-- U -->
     <g transform="translate(858.515625 73.077187) scale(0.18 -0.18)">
      <use xlink:href="#DejaVuSans-55"/>
     </g>
    </g>
    <g id="patch_213">
     <path d="M 808.115625 99.497812 
L 844.115625 99.497812 
L 844.115625 86.897812 
L 808.115625 86.897812 
z
" style="fill: #a18aa5; opacity: 0.5; stroke: #000000; stroke-linejoin: miter"/>
    </g>
    <g id="text_33">
     <!-- FT1 -->
     <g transform="translate(858.515625 99.497812) scale(0.18 -0.18)">
      <defs>
       <path id="DejaVuSans-46" d="M 628 4666 
L 3309 4666 
L 3309 4134 
L 1259 4134 
L 1259 2759 
L 3109 2759 
L 3109 2228 
L 1259 2228 
L 1259 0 
L 628 0 
L 628 4666 
z
" transform="scale(0.015625)"/>
       <path id="DejaVuSans-54" d="M -19 4666 
L 3928 4666 
L 3928 4134 
L 2272 4134 
L 2272 0 
L 1638 0 
L 1638 4134 
L -19 4134 
L -19 4666 
z
" transform="scale(0.015625)"/>
      </defs>
      <use xlink:href="#DejaVuSans-46"/>
      <use xlink:href="#DejaVuSans-54" transform="translate(55.769531 0)"/>
      <use xlink:href="#DejaVuSans-31" transform="translate(116.853516 0)"/>
     </g>
    </g>
   </g>
  </g>
 </g>
 <defs>
  <clipPath id="p749dbb459d">
   <rect x="126" y="43.2" width="355.090909" height="277.2"/>
  </clipPath>
  <clipPath id="p00f8a1d106">
   <rect x="552.109091" y="43.2" width="355.090909" height="277.2"/>
  </clipPath>
 </defs>
</svg>
