<?xml version="1.0" encoding="utf-8" standalone="no"?>
<!DOCTYPE svg PUBLIC "-//W3C//DTD SVG 1.1//EN"
  "http://www.w3.org/Graphics/SVG/1.1/DTD/svg11.dtd">
<svg xmlns:xlink="http://www.w3.org/1999/xlink" width="460.8pt" height="345.6pt" viewBox="0 0 460.8 345.6" xmlns="http://www.w3.org/2000/svg" version="1.1">
 <metadata>
  <rdf:RDF xmlns:dc="http://purl.org/dc/elements/1.1/" xmlns:cc="http://creativecommons.org/ns#" xmlns:rdf="http://www.w3.org/1999/02/22-rdf-syntax-ns#">
   <cc:Work>
    <dc:type rdf:resource="http://purl.org/dc/dcmitype/StillImage"/>
    <dc:date>2025-12-10T13:56:05.128632</dc:date>
    <dc:format>image/svg+xml</dc:format>
    <dc:creator>
     <cc:Agent>
      <dc:title>Matplotlib v3.10.3, https://matplotlib.org/</dc:title>
     </cc:Agent>
    </dc:creator>
   </cc:Work>
  </rdf:RDF>
 </metadata>
 <defs>
  <style type="text/css">*{stroke-linejoin: round; stroke-linecap: butt}</style>
 </defs>
 <g id="figure_1">
  <g id="patch_1">
   <path d="M 0 345.6 
L 460.8 345.6 
L 460.8 0 
L 0 0 
z
" style="fill: #ffffff"/>
  </g>
  <g id="axes_1">
   <g id="patch_2">
    <path d="M 57.6 307.584 
L 414.72 307.584 
L 414.72 41.472 
L 57.6 41.472 
z
" style="fill: #ffffff"/>
   </g>
   <g id="matplotlib.axis_1">
    <g id="xtick_1">
     <g id="line2d_1">
      <defs>
       <path id="m6ce54b9afd" d="M 0 0 
L 0 3.5 
" style="stroke: #000000; stroke-width: 0.8"/>
      </defs>
      <g>
       <use xlink:href="#m6ce54b9afd" x="73.832727" y="307.584" style="stroke: #000000; stroke-width: 0.8"/>
      </g>
     </g>
     <g id="text_1">
      <!-- 0 -->
      <g transform="translate(69.060852 325.981656) scale(0.15 -0.15)">
       <defs>
        <path id="DejaVuSans-30" d="M 2034 4250 
Q 1547 4250 1301 3770 
Q 1056 3291 1056 2328 
Q 1056 1369 1301 889 
Q 1547 409 2034 409 
Q 2525 409 2770 889 
Q 3016 1369 3016 2328 
Q 3016 3291 2770 3770 
Q 2525 4250 2034 4250 
z
M 2034 4750 
Q 2819 4750 3233 4129 
Q 3647 3509 3647 2328 
Q 3647 1150 3233 529 
Q 2819 -91 2034 -91 
Q 1250 -91 836 529 
Q 422 1150 422 2328 
Q 422 3509 836 4129 
Q 1250 4750 2034 4750 
z
" transform="scale(0.015625)"/>
       </defs>
       <use xlink:href="#DejaVuSans-30"/>
      </g>
     </g>
    </g>
    <g id="xtick_2">
     <g id="line2d_2">
      <g>
       <use xlink:href="#m6ce54b9afd" x="154.996364" y="307.584" style="stroke: #000000; stroke-width: 0.8"/>
      </g>
     </g>
     <g id="text_2">
      <!-- 5 -->
      <g transform="translate(150.224489 325.981656) scale(0.15 -0.15)">
       <defs>
        <path id="DejaVuSans-35" d="M 691 4666 
L 3169 4666 
L 3169 4134 
L 1269 4134 
L 1269 2991 
Q 1406 3038 1543 3061 
Q 1681 3084 1819 3084 
Q 2600 3084 3056 2656 
Q 3513 2228 3513 1497 
Q 3513 744 3044 326 
Q 2575 -91 1722 -91 
Q 1428 -91 1123 -41 
Q 819 9 494 109 
L 494 744 
Q 775 591 1075 516 
Q 1375 441 1709 441 
Q 2250 441 2565 725 
Q 2881 1009 2881 1497 
Q 2881 1984 2565 2268 
Q 2250 2553 1709 2553 
Q 1456 2553 1204 2497 
Q 953 2441 691 2322 
L 691 4666 
z
" transform="scale(0.015625)"/>
       </defs>
       <use xlink:href="#DejaVuSans-35"/>
      </g>
     </g>
    </g>
    <g id="xtick_3">
     <g id="line2d_3">
      <g>
       <use xlink:href="#m6ce54b9afd" x="236.16" y="307.584" style="stroke: #000000; stroke-width: 0.8"/>
      </g>
     </g>
     <g id="text_3">
      <!-- 10 -->
      <g transform="translate(226.61625 325.981656) scale(0.15 -0.15)">
       <defs>
        <path id="DejaVuSans-31" d="M 794 531 
L 1825 531 
L 1825 4091 
L 703 3866 
L 703 4441 
L 1819 4666 
L 2450 4666 
L 2450 531 
L 3481 531 
L 3481 0 
L 794 0 
L 794 531 
z
" transform="scale(0.015625)"/>
       </defs>
       <use xlink:href="#DejaVuSans-31"/>
       <use xlink:href="#DejaVuSans-30" transform="translate(63.623047 0)"/>
      </g>
     </g>
    </g>
    <g id="xtick_4">
     <g id="line2d_4">
      <g>
       <use xlink:href="#m6ce54b9afd" x="317.323636" y="307.584" style="stroke: #000000; stroke-width: 0.8"/>
      </g>
     </g>
     <g id="text_4">
      <!-- 15 -->
      <g transform="translate(307.779886 325.981656) scale(0.15 -0.15)">
       <use xlink:href="#DejaVuSans-31"/>
       <use xlink:href="#DejaVuSans-35" transform="translate(63.623047 0)"/>
      </g>
     </g>
    </g>
    <g id="xtick_5">
     <g id="line2d_5">
      <g>
       <use xlink:href="#m6ce54b9afd" x="398.487273" y="307.584" style="stroke: #000000; stroke-width: 0.8"/>
      </g>
     </g>
     <g id="text_5">
      <!-- 20 -->
      <g transform="translate(388.943523 325.981656) scale(0.15 -0.15)">
       <defs>
        <path id="DejaVuSans-32" d="M 1228 531 
L 3431 531 
L 3431 0 
L 469 0 
L 469 531 
Q 828 903 1448 1529 
Q 2069 2156 2228 2338 
Q 2531 2678 2651 2914 
Q 2772 3150 2772 3378 
Q 2772 3750 2511 3984 
Q 2250 4219 1831 4219 
Q 1534 4219 1204 4116 
Q 875 4013 500 3803 
L 500 4441 
Q 881 4594 1212 4672 
Q 1544 4750 1819 4750 
Q 2544 4750 2975 4387 
Q 3406 4025 3406 3419 
Q 3406 3131 3298 2873 
Q 3191 2616 2906 2266 
Q 2828 2175 2409 1742 
Q 1991 1309 1228 531 
z
" transform="scale(0.015625)"/>
       </defs>
       <use xlink:href="#DejaVuSans-32"/>
       <use xlink:href="#DejaVuSans-30" transform="translate(63.623047 0)"/>
      </g>
     </g>
    </g>
   </g>
   <g id="matplotlib.axis_2">
    <g id="ytick_1">
     <g id="line2d_6">
      <defs>
       <path id="m1fbd33e3eb" d="M 0 0 
L -3.5 0 
" style="stroke: #000000; stroke-width: 0.8"/>
      </defs>
      <g>
       <use xlink:href="#m1fbd33e3eb" x="57.6" y="293.339055" style="stroke: #000000; stroke-width: 0.8"/>
      </g>
     </g>
     <g id="text_6">
      <!-- 5 -->
      <g transform="translate(41.05625 299.037883) scale(0.15 -0.15)">
       <use xlink:href="#DejaVuSans-35"/>
      </g>
     </g>
    </g>
    <g id="ytick_2">
     <g id="line2d_7">
      <g>
       <use xlink:href="#m1fbd33e3eb" x="57.6" y="235.376525" style="stroke: #000000; stroke-width: 0.8"/>
      </g>
     </g>
     <g id="text_7">
      <!-- 10 -->
      <g transform="translate(31.5125 241.075353) scale(0.15 -0.15)">
       <use xlink:href="#DejaVuSans-31"/>
       <use xlink:href="#DejaVuSans-30" transform="translate(63.623047 0)"/>
      </g>
     </g>
    </g>
    <g id="ytick_3">
     <g id="line2d_8">
      <g>
       <use xlink:href="#m1fbd33e3eb" x="57.6" y="177.413995" style="stroke: #000000; stroke-width: 0.8"/>
      </g>
     </g>
     <g id="text_8">
      <!-- 15 -->
      <g transform="translate(31.5125 183.112823) scale(0.15 -0.15)">
       <use xlink:href="#DejaVuSans-31"/>
       <use xlink:href="#DejaVuSans-35" transform="translate(63.623047 0)"/>
      </g>
     </g>
    </g>
    <g id="ytick_4">
     <g id="line2d_9">
      <g>
       <use xlink:href="#m1fbd33e3eb" x="57.6" y="119.451465" style="stroke: #000000; stroke-width: 0.8"/>
      </g>
     </g>
     <g id="text_9">
      <!-- 20 -->
      <g transform="translate(31.5125 125.150294) scale(0.15 -0.15)">
       <use xlink:href="#DejaVuSans-32"/>
       <use xlink:href="#DejaVuSans-30" transform="translate(63.623047 0)"/>
      </g>
     </g>
    </g>
    <g id="ytick_5">
     <g id="line2d_10">
      <g>
       <use xlink:href="#m1fbd33e3eb" x="57.6" y="61.488936" style="stroke: #000000; stroke-width: 0.8"/>
      </g>
     </g>
     <g id="text_10">
      <!-- 25 -->
      <g transform="translate(31.5125 67.187764) scale(0.15 -0.15)">
       <use xlink:href="#DejaVuSans-32"/>
       <use xlink:href="#DejaVuSans-35" transform="translate(63.623047 0)"/>
      </g>
     </g>
    </g>
   </g>
   <g id="line2d_11">
    <path d="M 73.832727 214.064862 
L 90.065455 227.871488 
L 106.298182 222.627696 
L 122.530909 225.282577 
L 138.763636 223.617751 
L 154.996364 217.537028 
L 171.229091 228.551072 
L 187.461818 202.530895 
L 203.694545 169.032277 
L 219.927273 205.207415 
L 236.16 130.678118 
L 252.392727 163.030202 
L 268.625455 171.649677 
L 284.858182 205.084069 
L 301.090909 183.695202 
L 317.323636 202.881883 
L 333.556364 193.702886 
L 349.789091 218.339546 
L 366.021818 170.179925 
L 382.254545 201.397351 
L 398.487273 141.679271 
" clip-path="url(#p6d5894e176)" style="fill: none; stroke: #31688e; stroke-opacity: 0.5; stroke-width: 1.5; stroke-linecap: square"/>
   </g>
   <g id="line2d_12">
    <path d="M 73.832727 240.840957 
L 90.065455 256.471263 
L 106.298182 244.502664 
L 122.530909 248.257657 
L 138.763636 184.572501 
L 154.996364 217.429049 
L 171.229091 217.453179 
L 187.461818 247.470504 
L 203.694545 211.882033 
L 219.927273 202.482551 
L 236.16 257.315035 
L 252.392727 262.165517 
L 268.625455 275.178001 
L 284.858182 264.036997 
L 301.090909 267.611052 
L 317.323636 242.894701 
L 333.556364 263.487807 
L 349.789091 230.489411 
L 366.021818 232.001709 
L 382.254545 265.323836 
L 398.487273 140.006548 
" clip-path="url(#p6d5894e176)" style="fill: none; stroke: #31688e; stroke-opacity: 0.5; stroke-width: 1.5; stroke-linecap: square"/>
   </g>
   <g id="line2d_13">
    <path d="M 73.832727 238.003449 
L 90.065455 127.125394 
L 106.298182 122.923431 
L 122.530909 129.41507 
L 138.763636 140.679993 
L 154.996364 125.886551 
L 171.229091 110.29542 
L 187.461818 165.169165 
L 203.694545 136.078873 
L 219.927273 240.469342 
L 236.16 209.977278 
L 252.392727 168.999453 
L 268.625455 255.762681 
L 284.858182 215.676021 
L 301.090909 230.391598 
L 317.323636 237.97877 
L 333.556364 223.86997 
L 349.789091 252.108276 
L 366.021818 248.565442 
L 382.254545 203.580403 
L 398.487273 240.095637 
" clip-path="url(#p6d5894e176)" style="fill: none; stroke: #31688e; stroke-opacity: 0.5; stroke-width: 1.5; stroke-linecap: square"/>
   </g>
   <g id="line2d_14">
    <path d="M 73.832727 230.764866 
L 90.065455 196.252003 
L 106.298182 193.055469 
L 122.530909 185.407154 
L 138.763636 182.732365 
L 154.996364 268.483777 
L 171.229091 227.160031 
L 187.461818 249.200378 
L 203.694545 235.946953 
L 219.927273 91.789662 
L 236.16 144.18306 
L 252.392727 160.461487 
L 268.625455 70.959569 
L 284.858182 54.966252 
L 301.090909 117.235229 
L 317.323636 126.975295 
L 333.556364 83.282893 
L 349.789091 99.180692 
L 366.021818 53.568 
L 382.254545 154.630762 
L 398.487273 181.923049 
" clip-path="url(#p6d5894e176)" style="fill: none; stroke: #31688e; stroke-opacity: 0.5; stroke-width: 1.5; stroke-linecap: square"/>
   </g>
   <g id="line2d_15">
    <path d="M 73.832727 255.090067 
L 90.065455 229.979695 
L 106.298182 255.123058 
L 122.530909 249.443395 
L 138.763636 241.916118 
L 154.996364 202.375012 
L 171.229091 202.578366 
L 187.461818 164.762598 
L 203.694545 234.942498 
L 219.927273 150.274451 
L 236.16 204.623462 
L 252.392727 212.794233 
L 268.625455 151.52098 
L 284.858182 170.551425 
L 301.090909 160.234662 
L 317.323636 171.179707 
L 333.556364 156.041198 
L 349.789091 170.69215 
L 366.021818 165.556296 
L 382.254545 155.775307 
L 398.487273 219.347557 
" clip-path="url(#p6d5894e176)" style="fill: none; stroke: #31688e; stroke-opacity: 0.5; stroke-width: 1.5; stroke-linecap: square"/>
   </g>
   <g id="line2d_16">
    <path d="M 73.832727 228.828157 
L 90.065455 260.013543 
L 106.298182 243.08592 
L 122.530909 256.37038 
L 138.763636 263.40745 
L 154.996364 238.285663 
L 171.229091 234.372272 
L 187.461818 232.424832 
L 203.694545 264.982658 
L 219.927273 197.020155 
L 236.16 229.503187 
L 252.392727 219.497481 
L 268.625455 209.673773 
L 284.858182 212.895125 
L 301.090909 226.503269 
L 317.323636 226.515312 
L 333.556364 229.699197 
L 349.789091 222.211891 
L 366.021818 247.646627 
L 382.254545 242.013399 
L 398.487273 235.548009 
" clip-path="url(#p6d5894e176)" style="fill: none; stroke: #31688e; stroke-opacity: 0.5; stroke-width: 1.5; stroke-linecap: square"/>
   </g>
   <g id="line2d_17">
    <path d="M 73.832727 249.830811 
L 90.065455 262.678503 
L 106.298182 270.871915 
L 122.530909 275.008031 
L 138.763636 259.795751 
L 154.996364 230.959731 
L 171.229091 228.529835 
L 187.461818 217.442189 
L 203.694545 270.066685 
L 219.927273 231.238208 
L 236.16 177.496272 
L 252.392727 239.163449 
L 268.625455 217.724137 
L 284.858182 235.972582 
L 301.090909 233.025077 
L 317.323636 212.122279 
L 333.556364 243.628281 
L 349.789091 240.141008 
L 366.021818 204.516656 
L 382.254545 256.304498 
L 398.487273 250.904066 
" clip-path="url(#p6d5894e176)" style="fill: none; stroke: #31688e; stroke-opacity: 0.5; stroke-width: 1.5; stroke-linecap: square"/>
   </g>
   <g id="line2d_18">
    <path d="M 73.832727 254.942873 
L 90.065455 258.011974 
L 106.298182 249.083069 
L 122.530909 257.284569 
L 138.763636 263.103445 
L 154.996364 248.034432 
L 171.229091 234.766083 
L 187.461818 258.226017 
L 203.694545 246.475501 
L 219.927273 254.970334 
L 236.16 263.642247 
L 252.392727 228.225791 
L 268.625455 210.508546 
L 284.858182 246.343512 
L 301.090909 261.577496 
L 317.323636 237.471231 
L 333.556364 210.951832 
L 349.789091 220.900981 
L 366.021818 187.165341 
L 382.254545 240.520861 
L 398.487273 234.440974 
" clip-path="url(#p6d5894e176)" style="fill: none; stroke: #31688e; stroke-opacity: 0.5; stroke-width: 1.5; stroke-linecap: square"/>
   </g>
   <g id="line2d_19">
    <path d="M 73.832727 247.902014 
L 90.065455 222.033058 
L 106.298182 245.798029 
L 122.530909 224.387735 
L 138.763636 251.143254 
L 154.996364 252.3164 
L 171.229091 247.017919 
L 187.461818 233.527551 
L 203.694545 256.30053 
L 219.927273 205.098952 
L 236.16 187.22478 
L 252.392727 233.73711 
L 268.625455 195.235748 
L 284.858182 150.779553 
L 301.090909 200.75628 
L 317.323636 151.389921 
L 333.556364 173.600089 
L 349.789091 190.852973 
L 366.021818 223.128139 
L 382.254545 197.046584 
L 398.487273 154.489998 
" clip-path="url(#p6d5894e176)" style="fill: none; stroke: #31688e; stroke-opacity: 0.5; stroke-width: 1.5; stroke-linecap: square"/>
   </g>
   <g id="line2d_20">
    <path d="M 73.832727 226.18833 
L 90.065455 194.352157 
L 106.298182 224.949456 
L 122.530909 212.519332 
L 138.763636 225.937249 
L 154.996364 195.116154 
L 171.229091 255.518687 
L 187.461818 199.740569 
L 203.694545 198.958506 
L 219.927273 230.031772 
L 236.16 232.544673 
L 252.392727 261.533936 
L 268.625455 223.886587 
L 284.858182 232.405711 
L 301.090909 220.257532 
L 317.323636 255.961303 
L 333.556364 226.759444 
L 349.789091 241.369321 
L 366.021818 227.544684 
L 382.254545 235.849841 
L 398.487273 239.700691 
" clip-path="url(#p6d5894e176)" style="fill: none; stroke: #31688e; stroke-opacity: 0.5; stroke-width: 1.5; stroke-linecap: square"/>
   </g>
   <g id="line2d_21">
    <path d="M 73.832727 211.869878 
L 90.065455 214.209593 
L 106.298182 218.173164 
L 122.530909 199.468875 
L 138.763636 190.635345 
L 154.996364 231.969753 
L 171.229091 220.500336 
L 187.461818 224.596633 
L 203.694545 190.457833 
L 219.927273 258.892618 
L 236.16 246.517747 
L 252.392727 239.508685 
L 268.625455 214.379503 
L 284.858182 165.638721 
L 301.090909 206.608762 
L 317.323636 182.200572 
L 333.556364 186.467053 
L 349.789091 145.342965 
L 366.021818 205.256756 
L 382.254545 169.125979 
L 398.487273 196.945338 
" clip-path="url(#p6d5894e176)" style="fill: none; stroke: #31688e; stroke-opacity: 0.5; stroke-width: 1.5; stroke-linecap: square"/>
   </g>
   <g id="line2d_22">
    <path d="M 73.832727 243.433617 
L 90.065455 266.50843 
L 106.298182 248.23825 
L 122.530909 217.503968 
L 138.763636 225.8019 
L 154.996364 223.142815 
L 171.229091 239.917586 
L 187.461818 210.031289 
L 203.694545 242.351679 
L 219.927273 252.518434 
L 236.16 244.483573 
L 252.392727 241.519083 
L 268.625455 147.59372 
L 284.858182 132.839131 
L 301.090909 130.985095 
L 317.323636 190.610804 
L 333.556364 245.460352 
L 349.789091 211.219981 
L 366.021818 214.49848 
L 382.254545 151.615394 
L 398.487273 216.572654 
" clip-path="url(#p6d5894e176)" style="fill: none; stroke: #31688e; stroke-opacity: 0.5; stroke-width: 1.5; stroke-linecap: square"/>
   </g>
   <g id="line2d_23">
    <path d="M 73.832727 219.106283 
L 90.065455 242.274967 
L 106.298182 243.170416 
L 122.530909 246.988077 
L 138.763636 259.62409 
L 154.996364 251.231398 
L 171.229091 220.721208 
L 187.461818 231.181127 
L 203.694545 259.370147 
L 219.927273 197.586771 
L 236.16 247.750116 
L 252.392727 211.834216 
L 268.625455 187.136532 
L 284.858182 153.463754 
L 301.090909 163.838918 
L 317.323636 260.128022 
L 333.556364 224.615516 
L 349.789091 235.219482 
L 366.021818 206.133567 
L 382.254545 254.055973 
L 398.487273 260.041497 
" clip-path="url(#p6d5894e176)" style="fill: none; stroke: #31688e; stroke-opacity: 0.5; stroke-width: 1.5; stroke-linecap: square"/>
   </g>
   <g id="line2d_24">
    <path d="M 73.832727 180.026994 
L 90.065455 202.217246 
L 106.298182 179.487823 
L 122.530909 201.935885 
L 138.763636 173.449465 
L 154.996364 180.592723 
L 171.229091 128.896736 
L 187.461818 206.747407 
L 203.694545 249.708251 
L 219.927273 169.520072 
L 236.16 92.25786 
L 252.392727 120.580194 
L 268.625455 170.146246 
L 284.858182 121.821447 
L 301.090909 183.767876 
L 317.323636 147.798942 
L 333.556364 152.348679 
L 349.789091 134.986395 
L 366.021818 168.23825 
L 382.254545 151.231647 
L 398.487273 179.433728 
" clip-path="url(#p6d5894e176)" style="fill: none; stroke: #31688e; stroke-opacity: 0.5; stroke-width: 1.5; stroke-linecap: square"/>
   </g>
   <g id="line2d_25">
    <path d="M 73.832727 210.330419 
L 90.065455 186.71729 
L 106.298182 200.442675 
L 122.530909 168.283413 
L 138.763636 185.61241 
L 154.996364 203.800949 
L 171.229091 171.877288 
L 187.461818 250.54551 
L 203.694545 241.586949 
L 219.927273 183.358936 
L 236.16 174.973321 
L 252.392727 187.286873 
L 268.625455 218.39546 
L 284.858182 195.386887 
L 301.090909 240.433693 
L 317.323636 221.589715 
L 333.556364 205.843777 
L 349.789091 214.182961 
L 366.021818 227.759628 
L 382.254545 206.829393 
L 398.487273 220.463806 
" clip-path="url(#p6d5894e176)" style="fill: none; stroke: #31688e; stroke-opacity: 0.5; stroke-width: 1.5; stroke-linecap: square"/>
   </g>
   <g id="line2d_26">
    <path d="M 73.832727 227.325153 
L 90.065455 228.535337 
L 106.298182 258.034426 
L 122.530909 221.313855 
L 138.763636 267.770856 
L 154.996364 287.598266 
L 171.229091 282.482105 
L 187.461818 289.630444 
L 203.694545 271.888801 
L 219.927273 258.268381 
L 236.16 263.663572 
L 252.392727 233.959275 
L 268.625455 263.688501 
L 284.858182 253.340678 
L 301.090909 252.389112 
L 317.323636 269.830047 
L 333.556364 248.140521 
L 349.789091 235.371395 
L 366.021818 252.577993 
L 382.254545 240.062659 
L 398.487273 254.370738 
" clip-path="url(#p6d5894e176)" style="fill: none; stroke: #31688e; stroke-opacity: 0.5; stroke-width: 1.5; stroke-linecap: square"/>
   </g>
   <g id="line2d_27">
    <path d="M 73.832727 239.622164 
L 90.065455 247.42521 
L 106.298182 272.406265 
L 122.530909 253.405704 
L 138.763636 265.047221 
L 154.996364 274.525628 
L 171.229091 261.835533 
L 187.461818 254.376696 
L 203.694545 269.602168 
L 219.927273 261.317035 
L 236.16 257.449332 
L 252.392727 242.523195 
L 268.625455 255.726146 
L 284.858182 253.086223 
L 301.090909 278.962184 
L 317.323636 281.104789 
L 333.556364 265.170535 
L 349.789091 264.766855 
L 366.021818 261.577619 
L 382.254545 276.061534 
L 398.487273 268.029301 
" clip-path="url(#p6d5894e176)" style="fill: none; stroke: #31688e; stroke-opacity: 0.5; stroke-width: 1.5; stroke-linecap: square"/>
   </g>
   <g id="line2d_28">
    <path d="M 73.832727 227.270786 
L 90.065455 229.33971 
L 106.298182 238.603772 
L 122.530909 216.024882 
L 138.763636 210.627574 
L 154.996364 232.804967 
L 171.229091 237.860693 
L 187.461818 246.540916 
L 203.694545 216.578847 
L 219.927273 214.89008 
L 236.16 221.637087 
L 252.392727 213.670997 
L 268.625455 237.016329 
L 284.858182 221.823846 
L 301.090909 228.345189 
L 317.323636 232.190681 
L 333.556364 228.219514 
L 349.789091 219.644426 
L 366.021818 219.993047 
L 382.254545 226.107742 
L 398.487273 208.857226 
" clip-path="url(#p6d5894e176)" style="fill: none; stroke: #31688e; stroke-opacity: 0.5; stroke-width: 1.5; stroke-linecap: square"/>
   </g>
   <g id="line2d_29">
    <path d="M 73.832727 207.86875 
L 90.065455 280.339708 
L 106.298182 276.527366 
L 122.530909 249.409488 
L 138.763636 275.234514 
L 154.996364 276.796245 
L 171.229091 278.492134 
L 187.461818 280.607623 
L 203.694545 257.932523 
L 219.927273 220.488486 
L 236.16 254.506291 
L 252.392727 264.499995 
L 268.625455 281.811822 
L 284.858182 237.379818 
L 301.090909 256.065279 
L 317.323636 247.98535 
L 333.556364 230.3965 
L 349.789091 232.445372 
L 366.021818 247.146977 
L 382.254545 244.72381 
L 398.487273 238.24416 
" clip-path="url(#p6d5894e176)" style="fill: none; stroke: #31688e; stroke-opacity: 0.5; stroke-width: 1.5; stroke-linecap: square"/>
   </g>
   <g id="line2d_30">
    <path d="M 73.832727 267.442919 
L 90.065455 271.953858 
L 106.298182 254.002485 
L 122.530909 275.708904 
L 138.763636 281.729766 
L 154.996364 269.599635 
L 171.229091 270.334139 
L 187.461818 261.436512 
L 203.694545 267.773284 
L 219.927273 262.717004 
L 236.16 262.661436 
L 252.392727 256.453521 
L 268.625455 261.756835 
L 284.858182 259.168376 
L 301.090909 259.634989 
L 317.323636 257.419924 
L 333.556364 250.130165 
L 349.789091 251.984227 
L 366.021818 252.341853 
L 382.254545 257.570706 
L 398.487273 248.184445 
" clip-path="url(#p6d5894e176)" style="fill: none; stroke: #31688e; stroke-opacity: 0.5; stroke-width: 1.5; stroke-linecap: square"/>
   </g>
   <g id="line2d_31">
    <path d="M 73.832727 263.485549 
L 90.065455 251.745212 
L 106.298182 250.832445 
L 122.530909 251.445001 
L 138.763636 257.356406 
L 154.996364 258.490489 
L 171.229091 264.743 
L 187.461818 229.819344 
L 203.694545 247.234534 
L 219.927273 229.842864 
L 236.16 252.887658 
L 252.392727 212.440937 
L 268.625455 223.629354 
L 284.858182 234.842925 
L 301.090909 237.578543 
L 317.323636 211.752542 
L 333.556364 230.760134 
L 349.789091 238.695888 
L 366.021818 251.732975 
L 382.254545 205.059921 
L 398.487273 231.494941 
" clip-path="url(#p6d5894e176)" style="fill: none; stroke: #31688e; stroke-opacity: 0.5; stroke-width: 1.5; stroke-linecap: square"/>
   </g>
   <g id="line2d_32">
    <path d="M 73.832727 290.093448 
L 90.065455 212.655745 
L 106.298182 230.184918 
L 122.530909 257.982558 
L 138.763636 261.419448 
L 154.996364 221.590969 
L 171.229091 268.994826 
L 187.461818 268.340338 
L 203.694545 254.656083 
L 219.927273 266.53426 
L 236.16 273.41195 
L 252.392727 280.517996 
L 268.625455 277.243001 
L 284.858182 288.381771 
L 301.090909 267.790273 
L 317.323636 276.678825 
L 333.556364 277.889663 
L 349.789091 260.883548 
L 366.021818 269.882125 
L 382.254545 283.753844 
L 398.487273 280.180799 
" clip-path="url(#p6d5894e176)" style="fill: none; stroke: #31688e; stroke-opacity: 0.5; stroke-width: 1.5; stroke-linecap: square"/>
   </g>
   <g id="line2d_33">
    <path d="M 73.832727 283.201664 
L 90.065455 280.048409 
L 106.298182 286.874299 
L 122.530909 257.643782 
L 138.763636 284.505544 
L 154.996364 275.962958 
L 171.229091 288.401237 
L 187.461818 269.278413 
L 203.694545 266.072459 
L 219.927273 251.126664 
L 236.16 265.101401 
L 252.392727 276.59298 
L 268.625455 277.381975 
L 284.858182 270.642699 
L 301.090909 281.273502 
L 317.323636 281.041787 
L 333.556364 283.853094 
L 349.789091 283.576606 
L 366.021818 282.549908 
L 382.254545 292.414412 
L 398.487273 279.41548 
" clip-path="url(#p6d5894e176)" style="fill: none; stroke: #31688e; stroke-opacity: 0.5; stroke-width: 1.5; stroke-linecap: square"/>
   </g>
   <g id="line2d_34">
    <path d="M 73.832727 236.335976 
L 90.065455 231.957139 
L 106.298182 230.84053 
L 122.530909 224.633119 
L 138.763636 238.105127 
L 154.996364 242.434224 
L 171.229091 238.919923 
L 187.461818 229.146486 
L 203.694545 226.685353 
L 219.927273 200.43884 
L 236.16 206.441474 
L 252.392727 203.680024 
L 268.625455 178.540889 
L 284.858182 225.860956 
L 301.090909 222.232146 
L 317.323636 225.012166 
L 333.556364 218.547589 
L 349.789091 228.346217 
L 366.021818 225.688806 
L 382.254545 243.677961 
L 398.487273 247.78672 
" clip-path="url(#p6d5894e176)" style="fill: none; stroke: #31688e; stroke-opacity: 0.5; stroke-width: 1.5; stroke-linecap: square"/>
   </g>
   <g id="line2d_35">
    <path d="M 73.832727 252.295424 
L 90.065455 259.904019 
L 106.298182 255.212639 
L 122.530909 251.642543 
L 138.763636 271.099857 
L 154.996364 265.381152 
L 171.229091 259.804314 
L 187.461818 280.993912 
L 203.694545 287.902382 
L 219.927273 287.705353 
L 236.16 273.962234 
L 252.392727 265.492735 
L 268.625455 274.512382 
L 284.858182 281.411974 
L 301.090909 270.524413 
L 317.323636 279.5074 
L 333.556364 278.648494 
L 349.789091 287.943892 
L 366.021818 281.242512 
L 382.254545 285.530145 
L 398.487273 292.083451 
" clip-path="url(#p6d5894e176)" style="fill: none; stroke: #31688e; stroke-opacity: 0.5; stroke-width: 1.5; stroke-linecap: square"/>
   </g>
   <g id="line2d_36">
    <path d="M 73.832727 220.464373 
L 90.065455 201.071266 
L 106.298182 203.783862 
L 122.530909 210.792789 
L 138.763636 198.893119 
L 154.996364 238.405377 
L 171.229091 226.471742 
L 187.461818 262.927733 
L 203.694545 287.823448 
L 219.927273 265.871185 
L 236.16 261.979222 
L 252.392727 266.509696 
L 268.625455 260.418454 
L 284.858182 275.63508 
L 301.090909 241.47752 
L 317.323636 257.266089 
L 333.556364 227.438968 
L 349.789091 241.802197 
L 366.021818 239.252086 
L 382.254545 256.611127 
L 398.487273 259.199722 
" clip-path="url(#p6d5894e176)" style="fill: none; stroke: #31688e; stroke-opacity: 0.5; stroke-width: 1.5; stroke-linecap: square"/>
   </g>
   <g id="line2d_37">
    <path d="M 73.832727 229.122295 
L 90.065455 236.657957 
L 106.298182 244.744138 
L 122.530909 224.122072 
L 138.763636 263.51087 
L 154.996364 245.466649 
L 171.229091 266.241608 
L 187.461818 258.341681 
L 203.694545 233.341647 
L 219.927273 239.265671 
L 236.16 252.146646 
L 252.392727 253.215255 
L 268.625455 228.714958 
L 284.858182 264.926996 
L 301.090909 218.420508 
L 317.323636 223.714551 
L 333.556364 194.516251 
L 349.789091 181.980091 
L 366.021818 226.469735 
L 382.254545 186.781022 
L 398.487273 232.470809 
" clip-path="url(#p6d5894e176)" style="fill: none; stroke: #31688e; stroke-opacity: 0.5; stroke-width: 1.5; stroke-linecap: square"/>
   </g>
   <g id="line2d_38">
    <path d="M 73.832727 230.068567 
L 90.065455 216.420318 
L 106.298182 232.551598 
L 122.530909 234.025107 
L 138.763636 246.484617 
L 154.996364 285.491834 
L 171.229091 271.25761 
L 187.461818 280.334801 
L 203.694545 267.351817 
L 219.927273 222.02476 
L 236.16 218.525368 
L 252.392727 257.678673 
L 268.625455 206.657925 
L 284.858182 262.912743 
L 301.090909 263.395429 
L 317.323636 275.043156 
L 333.556364 250.104821 
L 349.789091 234.962007 
L 366.021818 210.542967 
L 382.254545 263.254581 
L 398.487273 283.800159 
" clip-path="url(#p6d5894e176)" style="fill: none; stroke: #31688e; stroke-opacity: 0.5; stroke-width: 1.5; stroke-linecap: square"/>
   </g>
   <g id="line2d_39">
    <path d="M 73.832727 263.767869 
L 90.065455 252.993762 
L 106.298182 270.339095 
L 122.530909 232.409516 
L 138.763636 255.871026 
L 154.996364 285.901325 
L 171.229091 265.927122 
L 187.461818 270.103259 
L 203.694545 275.778477 
L 219.927273 277.42207 
L 236.16 268.045093 
L 252.392727 266.403715 
L 268.625455 292.868531 
L 284.858182 292.594733 
L 301.090909 289.81877 
L 317.323636 295.488 
L 333.556364 279.13908 
L 349.789091 290.399384 
L 366.021818 287.853401 
L 382.254545 283.116471 
L 398.487273 281.580017 
" clip-path="url(#p6d5894e176)" style="fill: none; stroke: #31688e; stroke-opacity: 0.5; stroke-width: 1.5; stroke-linecap: square"/>
   </g>
   <g id="line2d_40">
    <path d="M 73.832727 226.223639 
L 90.065455 230.01608 
L 106.298182 238.280937 
L 122.530909 231.259801 
L 138.763636 220.747119 
L 154.996364 223.732531 
L 171.229091 211.299601 
L 187.461818 212.158345 
L 203.694545 224.813113 
L 219.927273 240.770161 
L 236.16 230.934677 
L 252.392727 227.699354 
L 268.625455 226.380752 
L 284.858182 242.781231 
L 301.090909 236.866219 
L 317.323636 241.418268 
L 333.556364 246.624777 
L 349.789091 241.898058 
L 366.021818 246.938488 
L 382.254545 248.305253 
L 398.487273 246.222445 
" clip-path="url(#p6d5894e176)" style="fill: none; stroke: #31688e; stroke-opacity: 0.5; stroke-width: 1.5; stroke-linecap: square"/>
   </g>
   <g id="line2d_41">
    <path d="M 73.832727 276.620886 
L 90.065455 267.947949 
L 106.298182 270.376597 
L 122.530909 253.411971 
L 138.763636 270.005363 
L 154.996364 283.899413 
L 171.229091 284.183375 
L 187.461818 257.683924 
L 203.694545 250.617935 
L 219.927273 264.495667 
L 236.16 262.516685 
L 252.392727 282.799282 
L 268.625455 273.7698 
L 284.858182 284.721091 
L 301.090909 272.256747 
L 317.323636 294.626081 
L 333.556364 289.751749 
L 349.789091 280.092968 
L 366.021818 276.002828 
L 382.254545 287.126525 
L 398.487273 271.81876 
" clip-path="url(#p6d5894e176)" style="fill: none; stroke: #31688e; stroke-opacity: 0.5; stroke-width: 1.5; stroke-linecap: square"/>
   </g>
   <g id="line2d_42">
    <path d="M 73.832727 268.595357 
L 90.065455 270.46515 
L 106.298182 272.773743 
L 122.530909 255.77636 
L 138.763636 265.647545 
L 154.996364 275.451158 
L 171.229091 252.268545 
L 187.461818 257.469934 
L 203.694545 257.571815 
L 219.927273 245.21543 
L 236.16 230.631959 
L 252.392727 261.69955 
L 268.625455 211.60103 
L 284.858182 230.839087 
L 301.090909 241.096848 
L 317.323636 283.332621 
L 333.556364 256.872919 
L 349.789091 249.203532 
L 366.021818 256.074978 
L 382.254545 283.333291 
L 398.487273 251.949811 
" clip-path="url(#p6d5894e176)" style="fill: none; stroke: #31688e; stroke-opacity: 0.5; stroke-width: 1.5; stroke-linecap: square"/>
   </g>
   <g id="line2d_43">
    <path d="M 73.832727 220.357877 
L 90.065455 246.225131 
L 106.298182 254.56022 
L 122.530909 270.82743 
L 138.763636 241.581714 
L 154.996364 202.729942 
L 171.229091 246.767601 
L 187.461818 240.740723 
L 203.694545 248.67425 
L 219.927273 254.351121 
L 236.16 242.89063 
L 252.392727 247.020284 
L 268.625455 259.734657 
L 284.858182 272.075091 
L 301.090909 232.604499 
L 317.323636 220.043025 
L 333.556364 263.146095 
L 349.789091 261.720852 
L 366.021818 232.74089 
L 382.254545 213.332328 
L 398.487273 249.960178 
" clip-path="url(#p6d5894e176)" style="fill: none; stroke: #31688e; stroke-opacity: 0.5; stroke-width: 1.5; stroke-linecap: square"/>
   </g>
   <g id="line2d_44">
    <path d="M 73.832727 252.368631 
L 90.065455 255.673413 
L 106.298182 231.615699 
L 122.530909 268.176088 
L 138.763636 210.535823 
L 154.996364 235.969135 
L 171.229091 243.369284 
L 187.461818 249.550233 
L 203.694545 286.570039 
L 219.927273 258.954324 
L 236.16 264.906311 
L 252.392727 241.887826 
L 268.625455 229.883699 
L 284.858182 228.432998 
L 301.090909 286.276467 
L 317.323636 265.654109 
L 333.556364 273.80436 
L 349.789091 251.295806 
L 366.021818 263.449064 
L 382.254545 256.011792 
L 398.487273 265.912258 
" clip-path="url(#p6d5894e176)" style="fill: none; stroke: #31688e; stroke-opacity: 0.5; stroke-width: 1.5; stroke-linecap: square"/>
   </g>
   <g id="line2d_45">
    <path d="M 73.832727 227.812603 
L 90.065455 208.197533 
L 106.298182 214.24317 
L 122.530909 253.268195 
L 138.763636 233.133941 
L 154.996364 245.653302 
L 171.229091 275.847795 
L 187.461818 259.238316 
L 203.694545 249.574645 
L 219.927273 210.137542 
L 236.16 245.262761 
L 252.392727 228.424642 
L 268.625455 210.872879 
L 284.858182 220.808841 
L 301.090909 238.954173 
L 317.323636 259.792748 
L 333.556364 251.847172 
L 349.789091 206.432953 
L 366.021818 247.143349 
L 382.254545 232.205745 
L 398.487273 224.818785 
" clip-path="url(#p6d5894e176)" style="fill: none; stroke: #31688e; stroke-opacity: 0.5; stroke-width: 1.5; stroke-linecap: square"/>
   </g>
   <g id="line2d_46">
    <path d="M 73.832727 226.537705 
L 90.065455 220.704692 
L 106.298182 219.243724 
L 122.530909 226.752007 
L 138.763636 216.815686 
L 154.996364 226.10431 
L 171.229091 227.814676 
L 187.461818 234.714469 
L 203.694545 236.59075 
L 219.927273 228.703797 
L 236.16 226.837022 
L 252.392727 228.290405 
L 268.625455 238.011404 
L 284.858182 219.06846 
L 301.090909 233.426466 
L 317.323636 223.929333 
L 333.556364 242.66538 
L 349.789091 244.579939 
L 366.021818 232.886927 
L 382.254545 248.401288 
L 398.487273 232.31821 
" clip-path="url(#p6d5894e176)" style="fill: none; stroke: #31688e; stroke-opacity: 0.5; stroke-width: 1.5; stroke-linecap: square"/>
   </g>
   <g id="line2d_47">
    <path d="M 73.832727 263.819257 
L 90.065455 272.506882 
L 106.298182 254.661486 
L 122.530909 259.640182 
L 138.763636 267.010936 
L 154.996364 270.006113 
L 171.229091 274.699689 
L 187.461818 291.505249 
L 203.694545 259.059425 
L 219.927273 275.888467 
L 236.16 264.278654 
L 252.392727 273.00421 
L 268.625455 280.242822 
L 284.858182 260.934341 
L 301.090909 277.854774 
L 317.323636 261.091701 
L 333.556364 277.037624 
L 349.789091 283.278346 
L 366.021818 285.098644 
L 382.254545 284.029765 
L 398.487273 268.887398 
" clip-path="url(#p6d5894e176)" style="fill: none; stroke: #31688e; stroke-opacity: 0.5; stroke-width: 1.5; stroke-linecap: square"/>
   </g>
   <g id="line2d_48">
    <path d="M 73.832727 280.824962 
L 90.065455 248.580281 
L 106.298182 256.537967 
L 122.530909 266.310584 
L 138.763636 255.026324 
L 154.996364 281.890596 
L 171.229091 266.121238 
L 187.461818 273.488723 
L 203.694545 221.689146 
L 219.927273 256.766617 
L 236.16 261.705923 
L 252.392727 250.636377 
L 268.625455 262.812908 
L 284.858182 241.735142 
L 301.090909 253.278255 
L 317.323636 253.607054 
L 333.556364 277.107927 
L 349.789091 269.519561 
L 366.021818 273.092957 
L 382.254545 274.447939 
L 398.487273 268.195795 
" clip-path="url(#p6d5894e176)" style="fill: none; stroke: #31688e; stroke-opacity: 0.5; stroke-width: 1.5; stroke-linecap: square"/>
   </g>
   <g id="line2d_49">
    <path d="M 73.832727 249.537479 
L 90.065455 237.88912 
L 106.298182 243.748055 
L 122.530909 250.300954 
L 138.763636 254.733131 
L 154.996364 256.741772 
L 171.229091 257.349014 
L 187.461818 234.641586 
L 203.694545 211.822119 
L 219.927273 161.160869 
L 236.16 154.291915 
L 252.392727 141.633113 
L 268.625455 181.569832 
L 284.858182 164.759994 
L 301.090909 197.030548 
L 317.323636 164.240454 
L 333.556364 135.56322 
L 349.789091 154.259303 
L 366.021818 156.675483 
L 382.254545 127.519575 
L 398.487273 158.708739 
" clip-path="url(#p6d5894e176)" style="fill: none; stroke: #31688e; stroke-opacity: 0.5; stroke-width: 1.5; stroke-linecap: square"/>
   </g>
   <g id="line2d_50">
    <path d="M 73.832727 237.314466 
L 90.065455 196.243712 
L 106.298182 201.229638 
L 122.530909 249.782182 
L 138.763636 213.743702 
L 154.996364 281.399831 
L 171.229091 278.494785 
L 187.461818 280.315551 
L 203.694545 290.151897 
L 219.927273 287.264929 
L 236.16 275.928928 
L 252.392727 285.591846 
L 268.625455 276.620757 
L 284.858182 271.756908 
L 301.090909 283.873007 
L 317.323636 273.941552 
L 333.556364 284.114796 
L 349.789091 280.156757 
L 366.021818 269.798316 
L 382.254545 279.339933 
L 398.487273 274.954699 
" clip-path="url(#p6d5894e176)" style="fill: none; stroke: #31688e; stroke-opacity: 0.5; stroke-width: 1.5; stroke-linecap: square"/>
   </g>
   <g id="line2d_51">
    <path d="M 73.832727 272.563612 
L 90.065455 279.689045 
L 106.298182 279.123346 
L 122.530909 284.631196 
L 138.763636 274.236157 
L 154.996364 278.952687 
L 171.229091 269.417609 
L 187.461818 271.067506 
L 203.694545 256.280095 
L 219.927273 269.362414 
L 236.16 269.284445 
L 252.392727 220.887938 
L 268.625455 272.582247 
L 284.858182 274.207816 
L 301.090909 267.390412 
L 317.323636 269.116117 
L 333.556364 283.701556 
L 349.789091 270.021529 
L 366.021818 272.707079 
L 382.254545 275.546577 
L 398.487273 282.690972 
" clip-path="url(#p6d5894e176)" style="fill: none; stroke: #31688e; stroke-opacity: 0.5; stroke-width: 1.5; stroke-linecap: square"/>
   </g>
   <g id="line2d_52">
    <path d="M 73.832727 228.806602 
L 90.065455 230.624312 
L 106.298182 224.747459 
L 122.530909 235.587385 
L 138.763636 231.224504 
L 154.996364 235.093518 
L 171.229091 245.402723 
L 187.461818 226.302342 
L 203.694545 225.15656 
L 219.927273 221.189442 
L 236.16 233.222352 
L 252.392727 243.105606 
L 268.625455 240.096674 
L 284.858182 243.286919 
L 301.090909 226.321348 
L 317.323636 225.956001 
L 333.556364 235.976651 
L 349.789091 238.020324 
L 366.021818 236.152079 
L 382.254545 245.489594 
L 398.487273 223.943748 
" clip-path="url(#p6d5894e176)" style="fill: none; stroke: #31688e; stroke-opacity: 0.5; stroke-width: 1.5; stroke-linecap: square"/>
   </g>
   <g id="line2d_53">
    <path d="M 73.832727 268.491985 
L 90.065455 277.840165 
L 106.298182 285.550505 
L 122.530909 293.23 
L 138.763636 288.781478 
L 154.996364 271.633813 
L 171.229091 251.331923 
L 187.461818 273.590719 
L 203.694545 258.613738 
L 219.927273 261.646812 
L 236.16 273.579804 
L 252.392727 255.634266 
L 268.625455 231.272133 
L 284.858182 263.904101 
L 301.090909 243.020187 
L 317.323636 236.119466 
L 333.556364 275.450707 
L 349.789091 223.384509 
L 366.021818 254.36834 
L 382.254545 250.843102 
L 398.487273 257.743883 
" clip-path="url(#p6d5894e176)" style="fill: none; stroke: #31688e; stroke-opacity: 0.5; stroke-width: 1.5; stroke-linecap: square"/>
   </g>
   <g id="line2d_54">
    <path d="M 73.832727 242.106857 
L 90.065455 259.143789 
L 106.298182 256.738458 
L 122.530909 255.113009 
L 138.763636 268.499845 
L 154.996364 231.264073 
L 171.229091 228.589256 
L 187.461818 275.012899 
L 203.694545 261.232697 
L 219.927273 270.016446 
L 236.16 268.214092 
L 252.392727 280.133558 
L 268.625455 251.988344 
L 284.858182 273.960034 
L 301.090909 257.988404 
L 317.323636 272.007956 
L 333.556364 281.840448 
L 349.789091 290.274858 
L 366.021818 290.98709 
L 382.254545 283.552745 
L 398.487273 288.137411 
" clip-path="url(#p6d5894e176)" style="fill: none; stroke: #31688e; stroke-opacity: 0.5; stroke-width: 1.5; stroke-linecap: square"/>
   </g>
   <g id="line2d_55">
    <path d="M 73.832727 219.322672 
L 90.065455 253.135853 
L 106.298182 264.032709 
L 122.530909 256.853757 
L 138.763636 258.234096 
L 154.996364 272.294407 
L 171.229091 255.271296 
L 187.461818 239.063482 
L 203.694545 198.426143 
L 219.927273 234.113709 
L 236.16 204.194509 
L 252.392727 249.183519 
L 268.625455 237.733184 
L 284.858182 190.806657 
L 301.090909 240.054078 
L 317.323636 252.565485 
L 333.556364 201.524225 
L 349.789091 177.273047 
L 366.021818 183.896084 
L 382.254545 196.256099 
L 398.487273 220.170695 
" clip-path="url(#p6d5894e176)" style="fill: none; stroke: #31688e; stroke-opacity: 0.5; stroke-width: 1.5; stroke-linecap: square"/>
   </g>
   <g id="line2d_56">
    <path d="M 73.832727 244.437953 
L 90.065455 288.402392 
L 106.298182 284.537817 
L 122.530909 287.024863 
L 138.763636 294.175317 
L 154.996364 279.01734 
L 171.229091 281.833429 
L 187.461818 267.285541 
L 203.694545 279.285191 
L 219.927273 272.85059 
L 236.16 281.510218 
L 252.392727 278.283813 
L 268.625455 273.409963 
L 284.858182 258.147389 
L 301.090909 278.145784 
L 317.323636 276.818043 
L 333.556364 274.543627 
L 349.789091 269.818533 
L 366.021818 279.833962 
L 382.254545 283.631436 
L 398.487273 257.265246 
" clip-path="url(#p6d5894e176)" style="fill: none; stroke: #31688e; stroke-opacity: 0.5; stroke-width: 1.5; stroke-linecap: square"/>
   </g>
   <g id="line2d_57">
    <path d="M 73.832727 232.799739 
L 90.065455 234.825442 
L 106.298182 217.824918 
L 122.530909 232.664451 
L 138.763636 214.310181 
L 154.996364 238.979316 
L 171.229091 232.854958 
L 187.461818 248.431196 
L 203.694545 272.546161 
L 219.927273 249.448755 
L 236.16 263.413528 
L 252.392727 251.695004 
L 268.625455 221.245543 
L 284.858182 247.103235 
L 301.090909 280.124506 
L 317.323636 260.263559 
L 333.556364 273.904232 
L 349.789091 221.289026 
L 366.021818 280.177178 
L 382.254545 239.723526 
L 398.487273 267.086103 
" clip-path="url(#p6d5894e176)" style="fill: none; stroke: #31688e; stroke-opacity: 0.5; stroke-width: 1.5; stroke-linecap: square"/>
   </g>
   <g id="line2d_58">
    <path d="M 73.832727 234.586763 
L 90.065455 234.713959 
L 106.298182 247.709087 
L 122.530909 252.012953 
L 138.763636 245.781483 
L 154.996364 216.112803 
L 171.229091 231.536353 
L 187.461818 238.717084 
L 203.694545 245.793634 
L 219.927273 210.386549 
L 236.16 233.479089 
L 252.392727 239.745631 
L 268.625455 222.261343 
L 284.858182 229.219196 
L 301.090909 232.396681 
L 317.323636 187.748291 
L 333.556364 209.697959 
L 349.789091 215.962385 
L 366.021818 219.914623 
L 382.254545 210.352937 
L 398.487273 221.604933 
" clip-path="url(#p6d5894e176)" style="fill: none; stroke: #31688e; stroke-opacity: 0.5; stroke-width: 1.5; stroke-linecap: square"/>
   </g>
   <g id="line2d_59">
    <path d="M 73.832727 258.669621 
L 90.065455 268.090273 
L 106.298182 258.588297 
L 122.530909 271.973644 
L 138.763636 261.619137 
L 154.996364 265.429366 
L 171.229091 267.486405 
L 187.461818 264.327691 
L 203.694545 258.575224 
L 219.927273 283.165696 
L 236.16 274.125756 
L 252.392727 274.920636 
L 268.625455 277.528774 
L 284.858182 283.57198 
L 301.090909 247.183544 
L 317.323636 265.179271 
L 333.556364 251.047078 
L 349.789091 256.876869 
L 366.021818 264.412443 
L 382.254545 270.913999 
L 398.487273 262.331598 
" clip-path="url(#p6d5894e176)" style="fill: none; stroke: #31688e; stroke-opacity: 0.5; stroke-width: 1.5; stroke-linecap: square"/>
   </g>
   <g id="line2d_60">
    <path d="M 73.832727 248.718502 
L 90.065455 266.511112 
L 106.298182 245.433207 
L 122.530909 250.145447 
L 138.763636 242.481426 
L 154.996364 255.478747 
L 171.229091 262.725479 
L 187.461818 267.379252 
L 203.694545 216.931665 
L 219.927273 242.396924 
L 236.16 246.998408 
L 252.392727 251.196843 
L 268.625455 227.563861 
L 284.858182 222.871205 
L 301.090909 244.513424 
L 317.323636 250.628836 
L 333.556364 255.963227 
L 349.789091 253.011627 
L 366.021818 232.708283 
L 382.254545 253.190934 
L 398.487273 247.872143 
" clip-path="url(#p6d5894e176)" style="fill: none; stroke: #31688e; stroke-opacity: 0.5; stroke-width: 1.5; stroke-linecap: square"/>
   </g>
   <g id="line2d_61">
    <path d="M 73.832727 236.64133 
L 90.065455 232.31152 
L 106.298182 220.794132 
L 122.530909 231.657061 
L 138.763636 224.026091 
L 154.996364 234.870226 
L 171.229091 220.825155 
L 187.461818 243.386802 
L 203.694545 195.72695 
L 219.927273 242.704372 
L 236.16 267.453144 
L 252.392727 275.543138 
L 268.625455 253.567136 
L 284.858182 231.94912 
L 301.090909 210.621366 
L 317.323636 258.382611 
L 333.556364 255.051365 
L 349.789091 253.997957 
L 366.021818 258.715799 
L 382.254545 261.160595 
L 398.487273 257.650516 
" clip-path="url(#p6d5894e176)" style="fill: none; stroke: #31688e; stroke-opacity: 0.5; stroke-width: 1.5; stroke-linecap: square"/>
   </g>
   <g id="patch_3">
    <path d="M 57.6 307.584 
L 57.6 41.472 
" style="fill: none; stroke: #000000; stroke-width: 3; stroke-linejoin: miter; stroke-linecap: square"/>
   </g>
   <g id="patch_4">
    <path d="M 414.72 307.584 
L 414.72 41.472 
" style="fill: none; stroke: #000000; stroke-width: 3; stroke-linejoin: miter; stroke-linecap: square"/>
   </g>
   <g id="patch_5">
    <path d="M 57.6 307.584 
L 414.72 307.584 
" style="fill: none; stroke: #000000; stroke-width: 3; stroke-linejoin: miter; stroke-linecap: square"/>
   </g>
   <g id="patch_6">
    <path d="M 57.6 41.472 
L 414.72 41.472 
" style="fill: none; stroke: #000000; stroke-width: 3; stroke-linejoin: miter; stroke-linecap: square"/>
   </g>
   <g id="text_11">
    <!-- Atom Type C (n=51, mean Q=9.71) -->
    <g transform="translate(40.817187 35.472) scale(0.22 -0.22)">
     <defs>
      <path id="DejaVuSans-41" d="M 2188 4044 
L 1331 1722 
L 3047 1722 
L 2188 4044 
z
M 1831 4666 
L 2547 4666 
L 4325 0 
L 3669 0 
L 3244 1197 
L 1141 1197 
L 716 0 
L 50 0 
L 1831 4666 
z
" transform="scale(0.015625)"/>
      <path id="DejaVuSans-74" d="M 1172 4494 
L 1172 3500 
L 2356 3500 
L 2356 3053 
L 1172 3053 
L 1172 1153 
Q 1172 725 1289 603 
Q 1406 481 1766 481 
L 2356 481 
L 2356 0 
L 1766 0 
Q 1100 0 847 248 
Q 594 497 594 1153 
L 594 3053 
L 172 3053 
L 172 3500 
L 594 3500 
L 594 4494 
L 1172 4494 
z
" transform="scale(0.015625)"/>
      <path id="DejaVuSans-6f" d="M 1959 3097 
Q 1497 3097 1228 2736 
Q 959 2375 959 1747 
Q 959 1119 1226 758 
Q 1494 397 1959 397 
Q 2419 397 2687 759 
Q 2956 1122 2956 1747 
Q 2956 2369 2687 2733 
Q 2419 3097 1959 3097 
z
M 1959 3584 
Q 2709 3584 3137 3096 
Q 3566 2609 3566 1747 
Q 3566 888 3137 398 
Q 2709 -91 1959 -91 
Q 1206 -91 779 398 
Q 353 888 353 1747 
Q 353 2609 779 3096 
Q 1206 3584 1959 3584 
z
" transform="scale(0.015625)"/>
      <path id="DejaVuSans-6d" d="M 3328 2828 
Q 3544 3216 3844 3400 
Q 4144 3584 4550 3584 
Q 5097 3584 5394 3201 
Q 5691 2819 5691 2113 
L 5691 0 
L 5113 0 
L 5113 2094 
Q 5113 2597 4934 2840 
Q 4756 3084 4391 3084 
Q 3944 3084 3684 2787 
Q 3425 2491 3425 1978 
L 3425 0 
L 2847 0 
L 2847 2094 
Q 2847 2600 2669 2842 
Q 2491 3084 2119 3084 
Q 1678 3084 1418 2786 
Q 1159 2488 1159 1978 
L 1159 0 
L 581 0 
L 581 3500 
L 1159 3500 
L 1159 2956 
Q 1356 3278 1631 3431 
Q 1906 3584 2284 3584 
Q 2666 3584 2933 3390 
Q 3200 3197 3328 2828 
z
" transform="scale(0.015625)"/>
      <path id="DejaVuSans-20" transform="scale(0.015625)"/>
      <path id="DejaVuSans-54" d="M -19 4666 
L 3928 4666 
L 3928 4134 
L 2272 4134 
L 2272 0 
L 1638 0 
L 1638 4134 
L -19 4134 
L -19 4666 
z
" transform="scale(0.015625)"/>
      <path id="DejaVuSans-79" d="M 2059 -325 
Q 1816 -950 1584 -1140 
Q 1353 -1331 966 -1331 
L 506 -1331 
L 506 -850 
L 844 -850 
Q 1081 -850 1212 -737 
Q 1344 -625 1503 -206 
L 1606 56 
L 191 3500 
L 800 3500 
L 1894 763 
L 2988 3500 
L 3597 3500 
L 2059 -325 
z
" transform="scale(0.015625)"/>
      <path id="DejaVuSans-70" d="M 1159 525 
L 1159 -1331 
L 581 -1331 
L 581 3500 
L 1159 3500 
L 1159 2969 
Q 1341 3281 1617 3432 
Q 1894 3584 2278 3584 
Q 2916 3584 3314 3078 
Q 3713 2572 3713 1747 
Q 3713 922 3314 415 
Q 2916 -91 2278 -91 
Q 1894 -91 1617 61 
Q 1341 213 1159 525 
z
M 3116 1747 
Q 3116 2381 2855 2742 
Q 2594 3103 2138 3103 
Q 1681 3103 1420 2742 
Q 1159 2381 1159 1747 
Q 1159 1113 1420 752 
Q 1681 391 2138 391 
Q 2594 391 2855 752 
Q 3116 1113 3116 1747 
z
" transform="scale(0.015625)"/>
      <path id="DejaVuSans-65" d="M 3597 1894 
L 3597 1613 
L 953 1613 
Q 991 1019 1311 708 
Q 1631 397 2203 397 
Q 2534 397 2845 478 
Q 3156 559 3463 722 
L 3463 178 
Q 3153 47 2828 -22 
Q 2503 -91 2169 -91 
Q 1331 -91 842 396 
Q 353 884 353 1716 
Q 353 2575 817 3079 
Q 1281 3584 2069 3584 
Q 2775 3584 3186 3129 
Q 3597 2675 3597 1894 
z
M 3022 2063 
Q 3016 2534 2758 2815 
Q 2500 3097 2075 3097 
Q 1594 3097 1305 2825 
Q 1016 2553 972 2059 
L 3022 2063 
z
" transform="scale(0.015625)"/>
      <path id="DejaVuSans-43" d="M 4122 4306 
L 4122 3641 
Q 3803 3938 3442 4084 
Q 3081 4231 2675 4231 
Q 1875 4231 1450 3742 
Q 1025 3253 1025 2328 
Q 1025 1406 1450 917 
Q 1875 428 2675 428 
Q 3081 428 3442 575 
Q 3803 722 4122 1019 
L 4122 359 
Q 3791 134 3420 21 
Q 3050 -91 2638 -91 
Q 1578 -91 968 557 
Q 359 1206 359 2328 
Q 359 3453 968 4101 
Q 1578 4750 2638 4750 
Q 3056 4750 3426 4639 
Q 3797 4528 4122 4306 
z
" transform="scale(0.015625)"/>
      <path id="DejaVuSans-28" d="M 1984 4856 
Q 1566 4138 1362 3434 
Q 1159 2731 1159 2009 
Q 1159 1288 1364 580 
Q 1569 -128 1984 -844 
L 1484 -844 
Q 1016 -109 783 600 
Q 550 1309 550 2009 
Q 550 2706 781 3412 
Q 1013 4119 1484 4856 
L 1984 4856 
z
" transform="scale(0.015625)"/>
      <path id="DejaVuSans-6e" d="M 3513 2113 
L 3513 0 
L 2938 0 
L 2938 2094 
Q 2938 2591 2744 2837 
Q 2550 3084 2163 3084 
Q 1697 3084 1428 2787 
Q 1159 2491 1159 1978 
L 1159 0 
L 581 0 
L 581 3500 
L 1159 3500 
L 1159 2956 
Q 1366 3272 1645 3428 
Q 1925 3584 2291 3584 
Q 2894 3584 3203 3211 
Q 3513 2838 3513 2113 
z
" transform="scale(0.015625)"/>
      <path id="DejaVuSans-3d" d="M 678 2906 
L 4684 2906 
L 4684 2381 
L 678 2381 
L 678 2906 
z
M 678 1631 
L 4684 1631 
L 4684 1100 
L 678 1100 
L 678 1631 
z
" transform="scale(0.015625)"/>
      <path id="DejaVuSans-2c" d="M 750 794 
L 1409 794 
L 1409 256 
L 897 -744 
L 494 -744 
L 750 256 
L 750 794 
z
" transform="scale(0.015625)"/>
      <path id="DejaVuSans-61" d="M 2194 1759 
Q 1497 1759 1228 1600 
Q 959 1441 959 1056 
Q 959 750 1161 570 
Q 1363 391 1709 391 
Q 2188 391 2477 730 
Q 2766 1069 2766 1631 
L 2766 1759 
L 2194 1759 
z
M 3341 1997 
L 3341 0 
L 2766 0 
L 2766 531 
Q 2569 213 2275 61 
Q 1981 -91 1556 -91 
Q 1019 -91 701 211 
Q 384 513 384 1019 
Q 384 1609 779 1909 
Q 1175 2209 1959 2209 
L 2766 2209 
L 2766 2266 
Q 2766 2663 2505 2880 
Q 2244 3097 1772 3097 
Q 1472 3097 1187 3025 
Q 903 2953 641 2809 
L 641 3341 
Q 956 3463 1253 3523 
Q 1550 3584 1831 3584 
Q 2591 3584 2966 3190 
Q 3341 2797 3341 1997 
z
" transform="scale(0.015625)"/>
      <path id="DejaVuSans-51" d="M 2522 4238 
Q 1834 4238 1429 3725 
Q 1025 3213 1025 2328 
Q 1025 1447 1429 934 
Q 1834 422 2522 422 
Q 3209 422 3611 934 
Q 4013 1447 4013 2328 
Q 4013 3213 3611 3725 
Q 3209 4238 2522 4238 
z
M 3406 84 
L 4238 -825 
L 3475 -825 
L 2784 -78 
Q 2681 -84 2626 -87 
Q 2572 -91 2522 -91 
Q 1538 -91 948 567 
Q 359 1225 359 2328 
Q 359 3434 948 4092 
Q 1538 4750 2522 4750 
Q 3503 4750 4090 4092 
Q 4678 3434 4678 2328 
Q 4678 1516 4351 937 
Q 4025 359 3406 84 
z
" transform="scale(0.015625)"/>
      <path id="DejaVuSans-39" d="M 703 97 
L 703 672 
Q 941 559 1184 500 
Q 1428 441 1663 441 
Q 2288 441 2617 861 
Q 2947 1281 2994 2138 
Q 2813 1869 2534 1725 
Q 2256 1581 1919 1581 
Q 1219 1581 811 2004 
Q 403 2428 403 3163 
Q 403 3881 828 4315 
Q 1253 4750 1959 4750 
Q 2769 4750 3195 4129 
Q 3622 3509 3622 2328 
Q 3622 1225 3098 567 
Q 2575 -91 1691 -91 
Q 1453 -91 1209 -44 
Q 966 3 703 97 
z
M 1959 2075 
Q 2384 2075 2632 2365 
Q 2881 2656 2881 3163 
Q 2881 3666 2632 3958 
Q 2384 4250 1959 4250 
Q 1534 4250 1286 3958 
Q 1038 3666 1038 3163 
Q 1038 2656 1286 2365 
Q 1534 2075 1959 2075 
z
" transform="scale(0.015625)"/>
      <path id="DejaVuSans-2e" d="M 684 794 
L 1344 794 
L 1344 0 
L 684 0 
L 684 794 
z
" transform="scale(0.015625)"/>
      <path id="DejaVuSans-37" d="M 525 4666 
L 3525 4666 
L 3525 4397 
L 1831 0 
L 1172 0 
L 2766 4134 
L 525 4134 
L 525 4666 
z
" transform="scale(0.015625)"/>
      <path id="DejaVuSans-29" d="M 513 4856 
L 1013 4856 
Q 1481 4119 1714 3412 
Q 1947 2706 1947 2009 
Q 1947 1309 1714 600 
Q 1481 -109 1013 -844 
L 513 -844 
Q 928 -128 1133 580 
Q 1338 1288 1338 2009 
Q 1338 2731 1133 3434 
Q 928 4138 513 4856 
z
" transform="scale(0.015625)"/>
     </defs>
     <use xlink:href="#DejaVuSans-41"/>
     <use xlink:href="#DejaVuSans-74" transform="translate(66.658203 0)"/>
     <use xlink:href="#DejaVuSans-6f" transform="translate(105.867188 0)"/>
     <use xlink:href="#DejaVuSans-6d" transform="translate(167.048828 0)"/>
     <use xlink:href="#DejaVuSans-20" transform="translate(264.460938 0)"/>
     <use xlink:href="#DejaVuSans-54" transform="translate(296.248047 0)"/>
     <use xlink:href="#DejaVuSans-79" transform="translate(341.707031 0)"/>
     <use xlink:href="#DejaVuSans-70" transform="translate(400.886719 0)"/>
     <use xlink:href="#DejaVuSans-65" transform="translate(464.363281 0)"/>
     <use xlink:href="#DejaVuSans-20" transform="translate(525.886719 0)"/>
     <use xlink:href="#DejaVuSans-43" transform="translate(557.673828 0)"/>
     <use xlink:href="#DejaVuSans-20" transform="translate(627.498047 0)"/>
     <use xlink:href="#DejaVuSans-28" transform="translate(659.285156 0)"/>
     <use xlink:href="#DejaVuSans-6e" transform="translate(698.298828 0)"/>
     <use xlink:href="#DejaVuSans-3d" transform="translate(761.677734 0)"/>
     <use xlink:href="#DejaVuSans-35" transform="translate(845.466797 0)"/>
     <use xlink:href="#DejaVuSans-31" transform="translate(909.089844 0)"/>
     <use xlink:href="#DejaVuSans-2c" transform="translate(972.712891 0)"/>
     <use xlink:href="#DejaVuSans-20" transform="translate(1004.5 0)"/>
     <use xlink:href="#DejaVuSans-6d" transform="translate(1036.287109 0)"/>
     <use xlink:href="#DejaVuSans-65" transform="translate(1133.699219 0)"/>
     <use xlink:href="#DejaVuSans-61" transform="translate(1195.222656 0)"/>
     <use xlink:href="#DejaVuSans-6e" transform="translate(1256.501953 0)"/>
     <use xlink:href="#DejaVuSans-20" transform="translate(1319.880859 0)"/>
     <use xlink:href="#DejaVuSans-51" transform="translate(1351.667969 0)"/>
     <use xlink:href="#DejaVuSans-3d" transform="translate(1430.378906 0)"/>
     <use xlink:href="#DejaVuSans-39" transform="translate(1514.167969 0)"/>
     <use xlink:href="#DejaVuSans-2e" transform="translate(1577.791016 0)"/>
     <use xlink:href="#DejaVuSans-37" transform="translate(1609.578125 0)"/>
     <use xlink:href="#DejaVuSans-31" transform="translate(1673.201172 0)"/>
     <use xlink:href="#DejaVuSans-29" transform="translate(1736.824219 0)"/>
    </g>
   </g>
  </g>
 </g>
 <defs>
  <clipPath id="p6d5894e176">
   <rect x="57.6" y="41.472" width="357.12" height="266.112"/>
  </clipPath>
 </defs>
</svg>
