<?xml version="1.0" encoding="utf-8" standalone="no"?>
<!DOCTYPE svg PUBLIC "-//W3C//DTD SVG 1.1//EN"
  "http://www.w3.org/Graphics/SVG/1.1/DTD/svg11.dtd">
<svg xmlns:xlink="http://www.w3.org/1999/xlink" width="460.8pt" height="345.6pt" viewBox="0 0 460.8 345.6" xmlns="http://www.w3.org/2000/svg" version="1.1">
 <metadata>
  <rdf:RDF xmlns:dc="http://purl.org/dc/elements/1.1/" xmlns:cc="http://creativecommons.org/ns#" xmlns:rdf="http://www.w3.org/1999/02/22-rdf-syntax-ns#">
   <cc:Work>
    <dc:type rdf:resource="http://purl.org/dc/dcmitype/StillImage"/>
    <dc:date>2025-12-10T13:56:04.809117</dc:date>
    <dc:format>image/svg+xml</dc:format>
    <dc:creator>
     <cc:Agent>
      <dc:title>Matplotlib v3.10.3, https://matplotlib.org/</dc:title>
     </cc:Agent>
    </dc:creator>
   </cc:Work>
  </rdf:RDF>
 </metadata>
 <defs>
  <style type="text/css">*{stroke-linejoin: round; stroke-linecap: butt}</style>
 </defs>
 <g id="figure_1">
  <g id="patch_1">
   <path d="M 0 345.6 
L 460.8 345.6 
L 460.8 0 
L 0 0 
z
" style="fill: #ffffff"/>
  </g>
  <g id="axes_1">
   <g id="patch_2">
    <path d="M 57.6 307.584 
L 414.72 307.584 
L 414.72 41.472 
L 57.6 41.472 
z
" style="fill: #ffffff"/>
   </g>
   <g id="matplotlib.axis_1">
    <g id="xtick_1">
     <g id="line2d_1">
      <defs>
       <path id="me6d9fb31f1" d="M 0 0 
L 0 3.5 
" style="stroke: #000000; stroke-width: 0.8"/>
      </defs>
      <g>
       <use xlink:href="#me6d9fb31f1" x="73.832727" y="307.584" style="stroke: #000000; stroke-width: 0.8"/>
      </g>
     </g>
     <g id="text_1">
      <!-- 0 -->
      <g transform="translate(69.060852 325.981656) scale(0.15 -0.15)">
       <defs>
        <path id="DejaVuSans-30" d="M 2034 4250 
Q 1547 4250 1301 3770 
Q 1056 3291 1056 2328 
Q 1056 1369 1301 889 
Q 1547 409 2034 409 
Q 2525 409 2770 889 
Q 3016 1369 3016 2328 
Q 3016 3291 2770 3770 
Q 2525 4250 2034 4250 
z
M 2034 4750 
Q 2819 4750 3233 4129 
Q 3647 3509 3647 2328 
Q 3647 1150 3233 529 
Q 2819 -91 2034 -91 
Q 1250 -91 836 529 
Q 422 1150 422 2328 
Q 422 3509 836 4129 
Q 1250 4750 2034 4750 
z
" transform="scale(0.015625)"/>
       </defs>
       <use xlink:href="#DejaVuSans-30"/>
      </g>
     </g>
    </g>
    <g id="xtick_2">
     <g id="line2d_2">
      <g>
       <use xlink:href="#me6d9fb31f1" x="154.996364" y="307.584" style="stroke: #000000; stroke-width: 0.8"/>
      </g>
     </g>
     <g id="text_2">
      <!-- 5 -->
      <g transform="translate(150.224489 325.981656) scale(0.15 -0.15)">
       <defs>
        <path id="DejaVuSans-35" d="M 691 4666 
L 3169 4666 
L 3169 4134 
L 1269 4134 
L 1269 2991 
Q 1406 3038 1543 3061 
Q 1681 3084 1819 3084 
Q 2600 3084 3056 2656 
Q 3513 2228 3513 1497 
Q 3513 744 3044 326 
Q 2575 -91 1722 -91 
Q 1428 -91 1123 -41 
Q 819 9 494 109 
L 494 744 
Q 775 591 1075 516 
Q 1375 441 1709 441 
Q 2250 441 2565 725 
Q 2881 1009 2881 1497 
Q 2881 1984 2565 2268 
Q 2250 2553 1709 2553 
Q 1456 2553 1204 2497 
Q 953 2441 691 2322 
L 691 4666 
z
" transform="scale(0.015625)"/>
       </defs>
       <use xlink:href="#DejaVuSans-35"/>
      </g>
     </g>
    </g>
    <g id="xtick_3">
     <g id="line2d_3">
      <g>
       <use xlink:href="#me6d9fb31f1" x="236.16" y="307.584" style="stroke: #000000; stroke-width: 0.8"/>
      </g>
     </g>
     <g id="text_3">
      <!-- 10 -->
      <g transform="translate(226.61625 325.981656) scale(0.15 -0.15)">
       <defs>
        <path id="DejaVuSans-31" d="M 794 531 
L 1825 531 
L 1825 4091 
L 703 3866 
L 703 4441 
L 1819 4666 
L 2450 4666 
L 2450 531 
L 3481 531 
L 3481 0 
L 794 0 
L 794 531 
z
" transform="scale(0.015625)"/>
       </defs>
       <use xlink:href="#DejaVuSans-31"/>
       <use xlink:href="#DejaVuSans-30" transform="translate(63.623047 0)"/>
      </g>
     </g>
    </g>
    <g id="xtick_4">
     <g id="line2d_4">
      <g>
       <use xlink:href="#me6d9fb31f1" x="317.323636" y="307.584" style="stroke: #000000; stroke-width: 0.8"/>
      </g>
     </g>
     <g id="text_4">
      <!-- 15 -->
      <g transform="translate(307.779886 325.981656) scale(0.15 -0.15)">
       <use xlink:href="#DejaVuSans-31"/>
       <use xlink:href="#DejaVuSans-35" transform="translate(63.623047 0)"/>
      </g>
     </g>
    </g>
    <g id="xtick_5">
     <g id="line2d_5">
      <g>
       <use xlink:href="#me6d9fb31f1" x="398.487273" y="307.584" style="stroke: #000000; stroke-width: 0.8"/>
      </g>
     </g>
     <g id="text_5">
      <!-- 20 -->
      <g transform="translate(388.943523 325.981656) scale(0.15 -0.15)">
       <defs>
        <path id="DejaVuSans-32" d="M 1228 531 
L 3431 531 
L 3431 0 
L 469 0 
L 469 531 
Q 828 903 1448 1529 
Q 2069 2156 2228 2338 
Q 2531 2678 2651 2914 
Q 2772 3150 2772 3378 
Q 2772 3750 2511 3984 
Q 2250 4219 1831 4219 
Q 1534 4219 1204 4116 
Q 875 4013 500 3803 
L 500 4441 
Q 881 4594 1212 4672 
Q 1544 4750 1819 4750 
Q 2544 4750 2975 4387 
Q 3406 4025 3406 3419 
Q 3406 3131 3298 2873 
Q 3191 2616 2906 2266 
Q 2828 2175 2409 1742 
Q 1991 1309 1228 531 
z
" transform="scale(0.015625)"/>
       </defs>
       <use xlink:href="#DejaVuSans-32"/>
       <use xlink:href="#DejaVuSans-30" transform="translate(63.623047 0)"/>
      </g>
     </g>
    </g>
   </g>
   <g id="matplotlib.axis_2">
    <g id="ytick_1">
     <g id="line2d_6">
      <defs>
       <path id="m55dedcdea1" d="M 0 0 
L -3.5 0 
" style="stroke: #000000; stroke-width: 0.8"/>
      </defs>
      <g>
       <use xlink:href="#m55dedcdea1" x="57.6" y="275.011507" style="stroke: #000000; stroke-width: 0.8"/>
      </g>
     </g>
     <g id="text_6">
      <!-- 5 -->
      <g transform="translate(41.05625 280.710335) scale(0.15 -0.15)">
       <use xlink:href="#DejaVuSans-35"/>
      </g>
     </g>
    </g>
    <g id="ytick_2">
     <g id="line2d_7">
      <g>
       <use xlink:href="#m55dedcdea1" x="57.6" y="217.15476" style="stroke: #000000; stroke-width: 0.8"/>
      </g>
     </g>
     <g id="text_7">
      <!-- 10 -->
      <g transform="translate(31.5125 222.853589) scale(0.15 -0.15)">
       <use xlink:href="#DejaVuSans-31"/>
       <use xlink:href="#DejaVuSans-30" transform="translate(63.623047 0)"/>
      </g>
     </g>
    </g>
    <g id="ytick_3">
     <g id="line2d_8">
      <g>
       <use xlink:href="#m55dedcdea1" x="57.6" y="159.298014" style="stroke: #000000; stroke-width: 0.8"/>
      </g>
     </g>
     <g id="text_8">
      <!-- 15 -->
      <g transform="translate(31.5125 164.996842) scale(0.15 -0.15)">
       <use xlink:href="#DejaVuSans-31"/>
       <use xlink:href="#DejaVuSans-35" transform="translate(63.623047 0)"/>
      </g>
     </g>
    </g>
    <g id="ytick_4">
     <g id="line2d_9">
      <g>
       <use xlink:href="#m55dedcdea1" x="57.6" y="101.441267" style="stroke: #000000; stroke-width: 0.8"/>
      </g>
     </g>
     <g id="text_9">
      <!-- 20 -->
      <g transform="translate(31.5125 107.140095) scale(0.15 -0.15)">
       <use xlink:href="#DejaVuSans-32"/>
       <use xlink:href="#DejaVuSans-30" transform="translate(63.623047 0)"/>
      </g>
     </g>
    </g>
    <g id="ytick_5">
     <g id="line2d_10">
      <g>
       <use xlink:href="#m55dedcdea1" x="57.6" y="43.58452" style="stroke: #000000; stroke-width: 0.8"/>
      </g>
     </g>
     <g id="text_10">
      <!-- 25 -->
      <g transform="translate(31.5125 49.283349) scale(0.15 -0.15)">
       <use xlink:href="#DejaVuSans-32"/>
       <use xlink:href="#DejaVuSans-35" transform="translate(63.623047 0)"/>
      </g>
     </g>
    </g>
   </g>
   <g id="line2d_11">
    <path d="M 73.832727 232.818129 
L 90.065455 225.024275 
L 106.298182 222.989949 
L 122.530909 222.271492 
L 138.763636 205.507163 
L 154.996364 173.013256 
L 171.229091 208.599937 
L 187.461818 198.297443 
L 203.694545 149.356657 
L 219.927273 239.524905 
L 236.16 179.352881 
L 252.392727 227.720729 
L 268.625455 201.522073 
L 284.858182 241.36653 
L 301.090909 244.765331 
L 317.323636 248.338021 
L 333.556364 238.336341 
L 349.789091 268.165295 
L 366.021818 179.715898 
L 382.254545 193.425753 
L 398.487273 216.53884 
" clip-path="url(#p4e8c4f97a7)" style="fill: none; stroke: #440154; stroke-opacity: 0.5; stroke-width: 1.5; stroke-linecap: square"/>
   </g>
   <g id="line2d_12">
    <path d="M 73.832727 244.651626 
L 90.065455 253.239646 
L 106.298182 254.429998 
L 122.530909 256.941236 
L 138.763636 251.357712 
L 154.996364 252.409895 
L 171.229091 272.874307 
L 187.461818 233.652099 
L 203.694545 221.010418 
L 219.927273 250.372954 
L 236.16 95.014529 
L 252.392727 124.959864 
L 268.625455 158.65734 
L 284.858182 174.301231 
L 301.090909 145.132614 
L 317.323636 195.783897 
L 333.556364 182.729485 
L 349.789091 214.537544 
L 366.021818 202.881863 
L 382.254545 235.835007 
L 398.487273 139.078076 
" clip-path="url(#p4e8c4f97a7)" style="fill: none; stroke: #440154; stroke-opacity: 0.5; stroke-width: 1.5; stroke-linecap: square"/>
   </g>
   <g id="line2d_13">
    <path d="M 73.832727 226.533085 
L 90.065455 244.005707 
L 106.298182 253.442064 
L 122.530909 259.366682 
L 138.763636 270.39063 
L 154.996364 254.308452 
L 171.229091 273.603484 
L 187.461818 241.978229 
L 203.694545 197.304231 
L 219.927273 192.221367 
L 236.16 193.578023 
L 252.392727 226.749274 
L 268.625455 193.42963 
L 284.858182 193.10083 
L 301.090909 203.047866 
L 317.323636 262.970286 
L 333.556364 228.252251 
L 349.789091 231.063561 
L 366.021818 234.9067 
L 382.254545 239.379851 
L 398.487273 223.030938 
" clip-path="url(#p4e8c4f97a7)" style="fill: none; stroke: #440154; stroke-opacity: 0.5; stroke-width: 1.5; stroke-linecap: square"/>
   </g>
   <g id="line2d_14">
    <path d="M 73.832727 243.920209 
L 90.065455 246.51931 
L 106.298182 249.376149 
L 122.530909 225.652335 
L 138.763636 191.178729 
L 154.996364 239.914865 
L 171.229091 200.873575 
L 187.461818 219.019767 
L 203.694545 178.25142 
L 219.927273 180.049836 
L 236.16 264.825794 
L 252.392727 230.859393 
L 268.625455 238.845235 
L 284.858182 255.796912 
L 301.090909 268.376869 
L 317.323636 265.908072 
L 333.556364 271.723357 
L 349.789091 248.188472 
L 366.021818 236.796234 
L 382.254545 219.31618 
L 398.487273 108.008529 
" clip-path="url(#p4e8c4f97a7)" style="fill: none; stroke: #440154; stroke-opacity: 0.5; stroke-width: 1.5; stroke-linecap: square"/>
   </g>
   <g id="line2d_15">
    <path d="M 73.832727 178.236124 
L 90.065455 248.749574 
L 106.298182 257.203938 
L 122.530909 215.161354 
L 138.763636 259.161081 
L 154.996364 256.673251 
L 171.229091 262.017423 
L 187.461818 243.444193 
L 203.694545 259.036519 
L 219.927273 215.023796 
L 236.16 264.498226 
L 252.392727 271.864887 
L 268.625455 257.513005 
L 284.858182 249.223319 
L 301.090909 268.286879 
L 317.323636 252.010129 
L 333.556364 261.394607 
L 349.789091 258.317296 
L 366.021818 247.719345 
L 382.254545 253.816631 
L 398.487273 177.988552 
" clip-path="url(#p4e8c4f97a7)" style="fill: none; stroke: #440154; stroke-opacity: 0.5; stroke-width: 1.5; stroke-linecap: square"/>
   </g>
   <g id="line2d_16">
    <path d="M 73.832727 224.175707 
L 90.065455 247.370456 
L 106.298182 235.48827 
L 122.530909 236.187152 
L 138.763636 220.214865 
L 154.996364 245.695074 
L 171.229091 223.946785 
L 187.461818 255.54469 
L 203.694545 212.071884 
L 219.927273 252.409927 
L 236.16 256.52037 
L 252.392727 280.826069 
L 268.625455 268.826077 
L 284.858182 246.134693 
L 301.090909 230.974165 
L 317.323636 239.575545 
L 333.556364 248.392467 
L 349.789091 256.630157 
L 366.021818 246.172225 
L 382.254545 254.665763 
L 398.487273 153.569252 
" clip-path="url(#p4e8c4f97a7)" style="fill: none; stroke: #440154; stroke-opacity: 0.5; stroke-width: 1.5; stroke-linecap: square"/>
   </g>
   <g id="line2d_17">
    <path d="M 73.832727 243.10816 
L 90.065455 136.221277 
L 106.298182 146.583706 
L 122.530909 142.254351 
L 138.763636 120.52364 
L 154.996364 86.608624 
L 171.229091 118.617127 
L 187.461818 127.477961 
L 203.694545 101.882218 
L 219.927273 245.509917 
L 236.16 248.985622 
L 252.392727 202.570275 
L 268.625455 232.626013 
L 284.858182 249.103321 
L 301.090909 241.858306 
L 317.323636 234.960995 
L 333.556364 255.796639 
L 349.789091 225.157356 
L 366.021818 225.220528 
L 382.254545 191.586122 
L 398.487273 260.001312 
" clip-path="url(#p4e8c4f97a7)" style="fill: none; stroke: #440154; stroke-opacity: 0.5; stroke-width: 1.5; stroke-linecap: square"/>
   </g>
   <g id="line2d_18">
    <path d="M 73.832727 234.623475 
L 90.065455 192.719852 
L 106.298182 178.001515 
L 122.530909 175.938547 
L 138.763636 182.32388 
L 154.996364 172.473657 
L 171.229091 181.446429 
L 187.461818 210.645496 
L 203.694545 145.800738 
L 219.927273 271.588046 
L 236.16 147.316769 
L 252.392727 135.802255 
L 268.625455 206.355555 
L 284.858182 219.95631 
L 301.090909 157.355414 
L 317.323636 206.402116 
L 333.556364 216.09268 
L 349.789091 268.802526 
L 366.021818 252.529001 
L 382.254545 232.748664 
L 398.487273 262.317473 
" clip-path="url(#p4e8c4f97a7)" style="fill: none; stroke: #440154; stroke-opacity: 0.5; stroke-width: 1.5; stroke-linecap: square"/>
   </g>
   <g id="line2d_19">
    <path d="M 73.832727 189.057633 
L 90.065455 171.853272 
L 106.298182 193.317974 
L 122.530909 230.778649 
L 138.763636 195.569404 
L 154.996364 176.143013 
L 171.229091 174.737036 
L 187.461818 184.351279 
L 203.694545 179.39959 
L 219.927273 275.950117 
L 236.16 225.582583 
L 252.392727 220.235727 
L 268.625455 276.252115 
L 284.858182 279.322528 
L 301.090909 234.473861 
L 317.323636 259.760117 
L 333.556364 254.409686 
L 349.789091 220.278392 
L 366.021818 229.936675 
L 382.254545 273.371975 
L 398.487273 261.846594 
" clip-path="url(#p4e8c4f97a7)" style="fill: none; stroke: #440154; stroke-opacity: 0.5; stroke-width: 1.5; stroke-linecap: square"/>
   </g>
   <g id="line2d_20">
    <path d="M 73.832727 256.84206 
L 90.065455 216.318949 
L 106.298182 224.711485 
L 122.530909 229.156966 
L 138.763636 215.244667 
L 154.996364 269.906367 
L 171.229091 256.105174 
L 187.461818 271.946286 
L 203.694545 261.560038 
L 219.927273 70.546376 
L 236.16 204.94379 
L 252.392727 225.905772 
L 268.625455 177.276832 
L 284.858182 182.309274 
L 301.090909 182.065509 
L 317.323636 160.300716 
L 333.556364 188.378574 
L 349.789091 176.555544 
L 366.021818 165.638916 
L 382.254545 137.359059 
L 398.487273 161.258117 
" clip-path="url(#p4e8c4f97a7)" style="fill: none; stroke: #440154; stroke-opacity: 0.5; stroke-width: 1.5; stroke-linecap: square"/>
   </g>
   <g id="line2d_21">
    <path d="M 73.832727 250.616074 
L 90.065455 251.967514 
L 106.298182 272.368399 
L 122.530909 228.843998 
L 138.763636 240.184876 
L 154.996364 275.345087 
L 171.229091 239.363183 
L 187.461818 241.797814 
L 203.694545 251.745885 
L 219.927273 109.838857 
L 236.16 139.073801 
L 252.392727 142.12874 
L 268.625455 53.568 
L 284.858182 74.813662 
L 301.090909 105.526862 
L 317.323636 97.641874 
L 333.556364 88.609208 
L 349.789091 82.638148 
L 366.021818 74.774126 
L 382.254545 135.081662 
L 398.487273 257.568715 
" clip-path="url(#p4e8c4f97a7)" style="fill: none; stroke: #440154; stroke-opacity: 0.5; stroke-width: 1.5; stroke-linecap: square"/>
   </g>
   <g id="line2d_22">
    <path d="M 73.832727 236.337975 
L 90.065455 263.531763 
L 106.298182 252.271768 
L 122.530909 256.510038 
L 138.763636 263.036981 
L 154.996364 217.752781 
L 171.229091 213.41376 
L 187.461818 169.216481 
L 203.694545 237.2465 
L 219.927273 185.183181 
L 236.16 194.412832 
L 252.392727 193.698891 
L 268.625455 129.387802 
L 284.858182 144.291867 
L 301.090909 149.847318 
L 317.323636 212.725127 
L 333.556364 146.71439 
L 349.789091 214.634947 
L 366.021818 191.164566 
L 382.254545 176.253081 
L 398.487273 253.159922 
" clip-path="url(#p4e8c4f97a7)" style="fill: none; stroke: #440154; stroke-opacity: 0.5; stroke-width: 1.5; stroke-linecap: square"/>
   </g>
   <g id="line2d_23">
    <path d="M 73.832727 266.308497 
L 90.065455 256.346995 
L 106.298182 261.553751 
L 122.530909 259.468445 
L 138.763636 251.334615 
L 154.996364 213.317463 
L 171.229091 206.028845 
L 187.461818 179.411886 
L 203.694545 179.447314 
L 219.927273 145.099685 
L 236.16 241.215753 
L 252.392727 199.115029 
L 268.625455 190.751379 
L 284.858182 161.518409 
L 301.090909 184.229044 
L 317.323636 164.736792 
L 333.556364 179.009387 
L 349.789091 146.625046 
L 366.021818 163.261005 
L 382.254545 192.375335 
L 398.487273 228.971208 
" clip-path="url(#p4e8c4f97a7)" style="fill: none; stroke: #440154; stroke-opacity: 0.5; stroke-width: 1.5; stroke-linecap: square"/>
   </g>
   <g id="line2d_24">
    <path d="M 73.832727 166.04166 
L 90.065455 202.881057 
L 106.298182 206.835704 
L 122.530909 198.716821 
L 138.763636 195.182782 
L 154.996364 208.731683 
L 171.229091 197.80357 
L 187.461818 180.083701 
L 203.694545 149.999836 
L 219.927273 132.249272 
L 236.16 176.374702 
L 252.392727 185.996862 
L 268.625455 225.894294 
L 284.858182 226.457966 
L 301.090909 207.942409 
L 317.323636 179.484396 
L 333.556364 211.890582 
L 349.789091 206.055059 
L 366.021818 206.255132 
L 382.254545 215.295516 
L 398.487273 210.137511 
" clip-path="url(#p4e8c4f97a7)" style="fill: none; stroke: #440154; stroke-opacity: 0.5; stroke-width: 1.5; stroke-linecap: square"/>
   </g>
   <g id="line2d_25">
    <path d="M 73.832727 276.586393 
L 90.065455 283.010598 
L 106.298182 276.028162 
L 122.530909 283.098021 
L 138.763636 279.617742 
L 154.996364 257.459779 
L 171.229091 252.585671 
L 187.461818 260.01615 
L 203.694545 252.600485 
L 219.927273 262.857671 
L 236.16 254.238575 
L 252.392727 233.269791 
L 268.625455 234.770951 
L 284.858182 221.163357 
L 301.090909 248.108435 
L 317.323636 254.055066 
L 333.556364 251.784544 
L 349.789091 240.13029 
L 366.021818 230.305559 
L 382.254545 249.913865 
L 398.487273 241.502021 
" clip-path="url(#p4e8c4f97a7)" style="fill: none; stroke: #440154; stroke-opacity: 0.5; stroke-width: 1.5; stroke-linecap: square"/>
   </g>
   <g id="line2d_26">
    <path d="M 73.832727 272.915368 
L 90.065455 247.772173 
L 106.298182 276.434633 
L 122.530909 265.194553 
L 138.763636 282.903482 
L 154.996364 268.508791 
L 171.229091 261.372238 
L 187.461818 261.04431 
L 203.694545 227.030996 
L 219.927273 231.290347 
L 236.16 230.94436 
L 252.392727 225.866999 
L 268.625455 209.672402 
L 284.858182 236.29227 
L 301.090909 234.461575 
L 317.323636 264.783812 
L 333.556364 261.741514 
L 349.789091 251.60617 
L 366.021818 225.612905 
L 382.254545 215.651688 
L 398.487273 253.347934 
" clip-path="url(#p4e8c4f97a7)" style="fill: none; stroke: #440154; stroke-opacity: 0.5; stroke-width: 1.5; stroke-linecap: square"/>
   </g>
   <g id="line2d_27">
    <path d="M 73.832727 264.696231 
L 90.065455 270.951713 
L 106.298182 254.407945 
L 122.530909 264.745709 
L 138.763636 276.768393 
L 154.996364 283.604508 
L 171.229091 273.486072 
L 187.461818 260.881734 
L 203.694545 249.53725 
L 219.927273 242.95379 
L 236.16 222.767368 
L 252.392727 259.232746 
L 268.625455 230.122751 
L 284.858182 220.996352 
L 301.090909 231.975642 
L 317.323636 204.299628 
L 333.556364 232.258665 
L 349.789091 207.559322 
L 366.021818 210.693107 
L 382.254545 272.38669 
L 398.487273 244.175864 
" clip-path="url(#p4e8c4f97a7)" style="fill: none; stroke: #440154; stroke-opacity: 0.5; stroke-width: 1.5; stroke-linecap: square"/>
   </g>
   <g id="line2d_28">
    <path d="M 73.832727 257.361156 
L 90.065455 283.887592 
L 106.298182 240.522478 
L 122.530909 252.640015 
L 138.763636 210.149102 
L 154.996364 233.023035 
L 171.229091 216.83879 
L 187.461818 243.204418 
L 203.694545 284.75505 
L 219.927273 239.397503 
L 236.16 219.008888 
L 252.392727 235.984962 
L 268.625455 257.168404 
L 284.858182 261.705605 
L 301.090909 207.796812 
L 317.323636 247.230851 
L 333.556364 258.336834 
L 349.789091 265.065746 
L 366.021818 217.316403 
L 382.254545 274.224786 
L 398.487273 259.233337 
" clip-path="url(#p4e8c4f97a7)" style="fill: none; stroke: #440154; stroke-opacity: 0.5; stroke-width: 1.5; stroke-linecap: square"/>
   </g>
   <g id="line2d_29">
    <path d="M 73.832727 236.856119 
L 90.065455 236.757492 
L 106.298182 275.875475 
L 122.530909 272.040325 
L 138.763636 255.741852 
L 154.996364 233.057539 
L 171.229091 201.536605 
L 187.461818 244.051586 
L 203.694545 248.760791 
L 219.927273 252.295002 
L 236.16 241.446761 
L 252.392727 243.832199 
L 268.625455 186.265147 
L 284.858182 245.028746 
L 301.090909 258.012926 
L 317.323636 249.447841 
L 333.556364 248.335001 
L 349.789091 259.493363 
L 366.021818 238.305229 
L 382.254545 261.594962 
L 398.487273 244.869909 
" clip-path="url(#p4e8c4f97a7)" style="fill: none; stroke: #440154; stroke-opacity: 0.5; stroke-width: 1.5; stroke-linecap: square"/>
   </g>
   <g id="line2d_30">
    <path d="M 73.832727 267.863043 
L 90.065455 278.338334 
L 106.298182 276.886346 
L 122.530909 251.884387 
L 138.763636 240.616765 
L 154.996364 241.509453 
L 171.229091 256.356065 
L 187.461818 183.55468 
L 203.694545 253.71366 
L 219.927273 267.887201 
L 236.16 233.069701 
L 252.392727 250.919507 
L 268.625455 224.634527 
L 284.858182 249.010207 
L 301.090909 255.29414 
L 317.323636 222.195594 
L 333.556364 201.778031 
L 349.789091 205.64378 
L 366.021818 246.939435 
L 382.254545 272.860693 
L 398.487273 237.833072 
" clip-path="url(#p4e8c4f97a7)" style="fill: none; stroke: #440154; stroke-opacity: 0.5; stroke-width: 1.5; stroke-linecap: square"/>
   </g>
   <g id="line2d_31">
    <path d="M 73.832727 276.651778 
L 90.065455 280.15351 
L 106.298182 274.653563 
L 122.530909 283.789133 
L 138.763636 265.326501 
L 154.996364 230.948028 
L 171.229091 246.390395 
L 187.461818 268.180579 
L 203.694545 233.053193 
L 219.927273 277.290163 
L 236.16 255.397892 
L 252.392727 231.648995 
L 268.625455 230.25835 
L 284.858182 227.923154 
L 301.090909 248.05634 
L 317.323636 274.601496 
L 333.556364 236.325429 
L 349.789091 248.572821 
L 366.021818 243.087485 
L 382.254545 264.162408 
L 398.487273 259.265274 
" clip-path="url(#p4e8c4f97a7)" style="fill: none; stroke: #440154; stroke-opacity: 0.5; stroke-width: 1.5; stroke-linecap: square"/>
   </g>
   <g id="line2d_32">
    <path d="M 73.832727 281.454506 
L 90.065455 268.957558 
L 106.298182 254.953963 
L 122.530909 258.612762 
L 138.763636 264.847689 
L 154.996364 259.506721 
L 171.229091 219.666738 
L 187.461818 226.713328 
L 203.694545 208.460526 
L 219.927273 245.337779 
L 236.16 243.583836 
L 252.392727 250.168805 
L 268.625455 252.955571 
L 284.858182 240.668928 
L 301.090909 225.393274 
L 317.323636 248.630148 
L 333.556364 216.282613 
L 349.789091 195.876658 
L 366.021818 186.458413 
L 382.254545 233.487462 
L 398.487273 229.61472 
" clip-path="url(#p4e8c4f97a7)" style="fill: none; stroke: #440154; stroke-opacity: 0.5; stroke-width: 1.5; stroke-linecap: square"/>
   </g>
   <g id="line2d_33">
    <path d="M 73.832727 278.596535 
L 90.065455 253.924322 
L 106.298182 231.226923 
L 122.530909 241.671677 
L 138.763636 252.941657 
L 154.996364 241.4146 
L 171.229091 222.255567 
L 187.461818 236.718286 
L 203.694545 222.944585 
L 219.927273 261.265208 
L 236.16 276.800361 
L 252.392727 234.140114 
L 268.625455 237.097748 
L 284.858182 186.953659 
L 301.090909 232.123772 
L 317.323636 249.557106 
L 333.556364 235.703083 
L 349.789091 219.534067 
L 366.021818 243.288476 
L 382.254545 278.459983 
L 398.487273 231.828369 
" clip-path="url(#p4e8c4f97a7)" style="fill: none; stroke: #440154; stroke-opacity: 0.5; stroke-width: 1.5; stroke-linecap: square"/>
   </g>
   <g id="line2d_34">
    <path d="M 73.832727 255.256893 
L 90.065455 186.678358 
L 106.298182 179.697514 
L 122.530909 213.712578 
L 138.763636 241.316819 
L 154.996364 239.112317 
L 171.229091 238.43593 
L 187.461818 239.967979 
L 203.694545 261.992374 
L 219.927273 227.925457 
L 236.16 266.450734 
L 252.392727 243.194726 
L 268.625455 276.77078 
L 284.858182 219.872692 
L 301.090909 274.507102 
L 317.323636 213.112122 
L 333.556364 240.809525 
L 349.789091 215.533335 
L 366.021818 259.91927 
L 382.254545 226.03069 
L 398.487273 229.43171 
" clip-path="url(#p4e8c4f97a7)" style="fill: none; stroke: #440154; stroke-opacity: 0.5; stroke-width: 1.5; stroke-linecap: square"/>
   </g>
   <g id="line2d_35">
    <path d="M 73.832727 268.516808 
L 90.065455 228.369217 
L 106.298182 251.783956 
L 122.530909 199.277408 
L 138.763636 245.035635 
L 154.996364 271.902173 
L 171.229091 260.751 
L 187.461818 247.873685 
L 203.694545 272.845389 
L 219.927273 234.795775 
L 236.16 250.455705 
L 252.392727 225.018949 
L 268.625455 219.153381 
L 284.858182 210.918581 
L 301.090909 260.104594 
L 317.323636 236.459772 
L 333.556364 225.959586 
L 349.789091 221.334008 
L 366.021818 226.145928 
L 382.254545 240.553708 
L 398.487273 222.164411 
" clip-path="url(#p4e8c4f97a7)" style="fill: none; stroke: #440154; stroke-opacity: 0.5; stroke-width: 1.5; stroke-linecap: square"/>
   </g>
   <g id="line2d_36">
    <path d="M 73.832727 221.643432 
L 90.065455 119.319673 
L 106.298182 134.12656 
L 122.530909 202.215483 
L 138.763636 184.881937 
L 154.996364 156.922136 
L 171.229091 210.961391 
L 187.461818 109.412952 
L 203.694545 278.344992 
L 219.927273 264.140697 
L 236.16 222.83871 
L 252.392727 239.515113 
L 268.625455 234.130483 
L 284.858182 247.537389 
L 301.090909 262.28167 
L 317.323636 225.043945 
L 333.556364 204.026016 
L 349.789091 271.017946 
L 366.021818 210.110033 
L 382.254545 200.555084 
L 398.487273 213.250972 
" clip-path="url(#p4e8c4f97a7)" style="fill: none; stroke: #440154; stroke-opacity: 0.5; stroke-width: 1.5; stroke-linecap: square"/>
   </g>
   <g id="line2d_37">
    <path d="M 73.832727 267.73187 
L 90.065455 269.588065 
L 106.298182 269.981194 
L 122.530909 232.518108 
L 138.763636 221.600478 
L 154.996364 249.051218 
L 171.229091 253.735827 
L 187.461818 278.330373 
L 203.694545 143.06924 
L 219.927273 256.638477 
L 236.16 207.577789 
L 252.392727 230.602641 
L 268.625455 265.929842 
L 284.858182 220.533746 
L 301.090909 191.784404 
L 317.323636 263.710037 
L 333.556364 257.992463 
L 349.789091 171.464521 
L 366.021818 228.199717 
L 382.254545 266.441358 
L 398.487273 267.71703 
" clip-path="url(#p4e8c4f97a7)" style="fill: none; stroke: #440154; stroke-opacity: 0.5; stroke-width: 1.5; stroke-linecap: square"/>
   </g>
   <g id="line2d_38">
    <path d="M 73.832727 239.67049 
L 90.065455 165.685854 
L 106.298182 182.280028 
L 122.530909 221.054093 
L 138.763636 179.530857 
L 154.996364 204.658838 
L 171.229091 216.199757 
L 187.461818 255.005653 
L 203.694545 226.030242 
L 219.927273 222.003262 
L 236.16 136.195784 
L 252.392727 208.912487 
L 268.625455 213.953586 
L 284.858182 255.418194 
L 301.090909 239.979975 
L 317.323636 192.686836 
L 333.556364 176.738117 
L 349.789091 223.893335 
L 366.021818 255.651188 
L 382.254545 209.032512 
L 398.487273 200.529924 
" clip-path="url(#p4e8c4f97a7)" style="fill: none; stroke: #440154; stroke-opacity: 0.5; stroke-width: 1.5; stroke-linecap: square"/>
   </g>
   <g id="line2d_39">
    <path d="M 73.832727 261.687323 
L 90.065455 251.301392 
L 106.298182 219.803041 
L 122.530909 240.915766 
L 138.763636 239.779922 
L 154.996364 213.130953 
L 171.229091 255.809018 
L 187.461818 212.850359 
L 203.694545 194.297448 
L 219.927273 221.018953 
L 236.16 242.907494 
L 252.392727 219.927273 
L 268.625455 199.525987 
L 284.858182 194.082017 
L 301.090909 220.988212 
L 317.323636 207.816517 
L 333.556364 215.467286 
L 349.789091 191.325523 
L 366.021818 213.885481 
L 382.254545 197.62322 
L 398.487273 213.91916 
" clip-path="url(#p4e8c4f97a7)" style="fill: none; stroke: #440154; stroke-opacity: 0.5; stroke-width: 1.5; stroke-linecap: square"/>
   </g>
   <g id="line2d_40">
    <path d="M 73.832727 216.560766 
L 90.065455 235.151414 
L 106.298182 255.87979 
L 122.530909 248.873944 
L 138.763636 249.945556 
L 154.996364 277.133111 
L 171.229091 251.724669 
L 187.461818 202.682605 
L 203.694545 201.089157 
L 219.927273 272.898104 
L 236.16 285.696006 
L 252.392727 255.05509 
L 268.625455 219.20463 
L 284.858182 241.609882 
L 301.090909 227.741029 
L 317.323636 198.101207 
L 333.556364 195.879604 
L 349.789091 177.273428 
L 366.021818 187.614509 
L 382.254545 186.64724 
L 398.487273 230.116311 
" clip-path="url(#p4e8c4f97a7)" style="fill: none; stroke: #440154; stroke-opacity: 0.5; stroke-width: 1.5; stroke-linecap: square"/>
   </g>
   <g id="line2d_41">
    <path d="M 73.832727 236.492644 
L 90.065455 241.34809 
L 106.298182 234.77452 
L 122.530909 226.422128 
L 138.763636 218.371184 
L 154.996364 248.279751 
L 171.229091 230.889949 
L 187.461818 258.214762 
L 203.694545 230.74829 
L 219.927273 258.511432 
L 236.16 244.651274 
L 252.392727 259.482348 
L 268.625455 253.065903 
L 284.858182 230.160488 
L 301.090909 230.181905 
L 317.323636 203.454617 
L 333.556364 234.755232 
L 349.789091 191.298778 
L 366.021818 238.536867 
L 382.254545 191.928313 
L 398.487273 183.44339 
" clip-path="url(#p4e8c4f97a7)" style="fill: none; stroke: #440154; stroke-opacity: 0.5; stroke-width: 1.5; stroke-linecap: square"/>
   </g>
   <g id="line2d_42">
    <path d="M 73.832727 291.499704 
L 90.065455 285.638044 
L 106.298182 252.279908 
L 122.530909 250.64836 
L 138.763636 231.694995 
L 154.996364 240.398789 
L 171.229091 259.328592 
L 187.461818 196.372071 
L 203.694545 217.743819 
L 219.927273 275.135464 
L 236.16 266.277297 
L 252.392727 260.561217 
L 268.625455 176.554341 
L 284.858182 176.417407 
L 301.090909 171.658232 
L 317.323636 205.772408 
L 333.556364 257.807955 
L 349.789091 210.503445 
L 366.021818 242.966211 
L 382.254545 219.072105 
L 398.487273 226.795299 
" clip-path="url(#p4e8c4f97a7)" style="fill: none; stroke: #440154; stroke-opacity: 0.5; stroke-width: 1.5; stroke-linecap: square"/>
   </g>
   <g id="line2d_43">
    <path d="M 73.832727 240.984096 
L 90.065455 237.859737 
L 106.298182 241.059812 
L 122.530909 233.22868 
L 138.763636 206.080453 
L 154.996364 244.665037 
L 171.229091 205.759311 
L 187.461818 168.963574 
L 203.694545 225.792325 
L 219.927273 251.368587 
L 236.16 212.508796 
L 252.392727 254.759071 
L 268.625455 201.025117 
L 284.858182 189.970814 
L 301.090909 207.323263 
L 317.323636 246.864112 
L 333.556364 283.598148 
L 349.789091 259.334326 
L 366.021818 210.611149 
L 382.254545 190.635418 
L 398.487273 243.132919 
" clip-path="url(#p4e8c4f97a7)" style="fill: none; stroke: #440154; stroke-opacity: 0.5; stroke-width: 1.5; stroke-linecap: square"/>
   </g>
   <g id="line2d_44">
    <path d="M 73.832727 262.384642 
L 90.065455 233.348414 
L 106.298182 206.731632 
L 122.530909 216.107286 
L 138.763636 230.217256 
L 154.996364 256.116404 
L 171.229091 254.233041 
L 187.461818 231.108747 
L 203.694545 222.343894 
L 219.927273 245.189943 
L 236.16 243.461067 
L 252.392727 218.946608 
L 268.625455 176.429945 
L 284.858182 182.367393 
L 301.090909 153.779858 
L 317.323636 211.963391 
L 333.556364 239.808601 
L 349.789091 189.090206 
L 366.021818 201.081755 
L 382.254545 194.125545 
L 398.487273 206.507168 
" clip-path="url(#p4e8c4f97a7)" style="fill: none; stroke: #440154; stroke-opacity: 0.5; stroke-width: 1.5; stroke-linecap: square"/>
   </g>
   <g id="line2d_45">
    <path d="M 73.832727 271.293419 
L 90.065455 254.429911 
L 106.298182 277.395441 
L 122.530909 249.611978 
L 138.763636 273.397912 
L 154.996364 275.843032 
L 171.229091 240.08399 
L 187.461818 209.120861 
L 203.694545 251.850039 
L 219.927273 238.280512 
L 236.16 208.461697 
L 252.392727 251.599337 
L 268.625455 213.328723 
L 284.858182 203.406092 
L 301.090909 193.999298 
L 317.323636 269.902905 
L 333.556364 240.387189 
L 349.789091 246.190496 
L 366.021818 229.244813 
L 382.254545 258.334188 
L 398.487273 258.991345 
" clip-path="url(#p4e8c4f97a7)" style="fill: none; stroke: #440154; stroke-opacity: 0.5; stroke-width: 1.5; stroke-linecap: square"/>
   </g>
   <g id="line2d_46">
    <path d="M 73.832727 224.536293 
L 90.065455 221.243056 
L 106.298182 259.466838 
L 122.530909 248.369285 
L 138.763636 222.567441 
L 154.996364 276.156872 
L 171.229091 237.803376 
L 187.461818 259.707286 
L 203.694545 246.177123 
L 219.927273 250.014314 
L 236.16 275.625777 
L 252.392727 208.322846 
L 268.625455 166.337001 
L 284.858182 149.076641 
L 301.090909 183.215399 
L 317.323636 228.747877 
L 333.556364 248.261858 
L 349.789091 252.921063 
L 366.021818 232.927094 
L 382.254545 273.484817 
L 398.487273 243.01502 
" clip-path="url(#p4e8c4f97a7)" style="fill: none; stroke: #440154; stroke-opacity: 0.5; stroke-width: 1.5; stroke-linecap: square"/>
   </g>
   <g id="line2d_47">
    <path d="M 73.832727 239.843693 
L 90.065455 242.066255 
L 106.298182 281.208051 
L 122.530909 273.559122 
L 138.763636 260.139004 
L 154.996364 246.556891 
L 171.229091 254.700791 
L 187.461818 212.841425 
L 203.694545 249.625629 
L 219.927273 221.056414 
L 236.16 241.50827 
L 252.392727 237.446505 
L 268.625455 229.21058 
L 284.858182 204.475733 
L 301.090909 193.038133 
L 317.323636 253.370294 
L 333.556364 218.186084 
L 349.789091 237.656665 
L 366.021818 206.81521 
L 382.254545 237.640778 
L 398.487273 263.654364 
" clip-path="url(#p4e8c4f97a7)" style="fill: none; stroke: #440154; stroke-opacity: 0.5; stroke-width: 1.5; stroke-linecap: square"/>
   </g>
   <g id="line2d_48">
    <path d="M 73.832727 231.519876 
L 90.065455 255.280481 
L 106.298182 206.142067 
L 122.530909 221.121765 
L 138.763636 223.048699 
L 154.996364 157.968536 
L 171.229091 187.014012 
L 187.461818 258.128555 
L 203.694545 241.884136 
L 219.927273 160.369625 
L 236.16 203.788222 
L 252.392727 168.78003 
L 268.625455 189.444114 
L 284.858182 180.033532 
L 301.090909 252.414369 
L 317.323636 177.720776 
L 333.556364 226.855728 
L 349.789091 160.462514 
L 366.021818 224.712182 
L 382.254545 166.206466 
L 398.487273 178.606965 
" clip-path="url(#p4e8c4f97a7)" style="fill: none; stroke: #440154; stroke-opacity: 0.5; stroke-width: 1.5; stroke-linecap: square"/>
   </g>
   <g id="line2d_49">
    <path d="M 73.832727 225.698218 
L 90.065455 222.086024 
L 106.298182 246.052845 
L 122.530909 244.664169 
L 138.763636 244.672846 
L 154.996364 225.612113 
L 171.229091 218.276817 
L 187.461818 195.47923 
L 203.694545 229.227933 
L 219.927273 259.181134 
L 236.16 182.751996 
L 252.392727 191.923281 
L 268.625455 257.908523 
L 284.858182 173.821909 
L 301.090909 241.225769 
L 317.323636 191.119718 
L 333.556364 159.773305 
L 349.789091 196.042829 
L 366.021818 236.94259 
L 382.254545 192.394725 
L 398.487273 243.545424 
" clip-path="url(#p4e8c4f97a7)" style="fill: none; stroke: #440154; stroke-opacity: 0.5; stroke-width: 1.5; stroke-linecap: square"/>
   </g>
   <g id="line2d_50">
    <path d="M 73.832727 196.019615 
L 90.065455 200.297746 
L 106.298182 204.635446 
L 122.530909 144.56012 
L 138.763636 203.758248 
L 154.996364 207.487681 
L 171.229091 168.086636 
L 187.461818 248.683311 
L 203.694545 221.924059 
L 219.927273 204.078908 
L 236.16 197.294444 
L 252.392727 183.233941 
L 268.625455 204.566146 
L 284.858182 209.674366 
L 301.090909 214.748125 
L 317.323636 246.283372 
L 333.556364 241.25067 
L 349.789091 226.946218 
L 366.021818 248.273738 
L 382.254545 260.314086 
L 398.487273 201.408844 
" clip-path="url(#p4e8c4f97a7)" style="fill: none; stroke: #440154; stroke-opacity: 0.5; stroke-width: 1.5; stroke-linecap: square"/>
   </g>
   <g id="line2d_51">
    <path d="M 73.832727 224.94613 
L 90.065455 206.681612 
L 106.298182 243.629558 
L 122.530909 191.42252 
L 138.763636 169.655476 
L 154.996364 255.688931 
L 171.229091 211.236272 
L 187.461818 228.855302 
L 203.694545 230.627282 
L 219.927273 177.970946 
L 236.16 164.187063 
L 252.392727 174.765366 
L 268.625455 245.401493 
L 284.858182 190.850975 
L 301.090909 207.201454 
L 317.323636 247.008842 
L 333.556364 247.863485 
L 349.789091 208.43072 
L 366.021818 212.162451 
L 382.254545 245.395118 
L 398.487273 221.582329 
" clip-path="url(#p4e8c4f97a7)" style="fill: none; stroke: #440154; stroke-opacity: 0.5; stroke-width: 1.5; stroke-linecap: square"/>
   </g>
   <g id="line2d_52">
    <path d="M 73.832727 192.087233 
L 90.065455 199.757628 
L 106.298182 187.016308 
L 122.530909 211.366454 
L 138.763636 207.997507 
L 154.996364 212.401633 
L 171.229091 139.354205 
L 187.461818 173.79818 
L 203.694545 93.473745 
L 219.927273 133.381919 
L 236.16 158.109784 
L 252.392727 175.84062 
L 268.625455 160.601971 
L 284.858182 215.760094 
L 301.090909 199.790896 
L 317.323636 190.905654 
L 333.556364 230.264265 
L 349.789091 166.225874 
L 366.021818 197.484805 
L 382.254545 197.181374 
L 398.487273 230.362552 
" clip-path="url(#p4e8c4f97a7)" style="fill: none; stroke: #440154; stroke-opacity: 0.5; stroke-width: 1.5; stroke-linecap: square"/>
   </g>
   <g id="line2d_53">
    <path d="M 73.832727 250.95654 
L 90.065455 215.919996 
L 106.298182 197.809391 
L 122.530909 182.327942 
L 138.763636 263.958813 
L 154.996364 284.664465 
L 171.229091 255.430479 
L 187.461818 275.324547 
L 203.694545 270.464644 
L 219.927273 214.534782 
L 236.16 242.972037 
L 252.392727 199.438281 
L 268.625455 274.201561 
L 284.858182 230.105352 
L 301.090909 258.399931 
L 317.323636 220.181564 
L 333.556364 220.9452 
L 349.789091 245.834182 
L 366.021818 238.273425 
L 382.254545 249.320805 
L 398.487273 227.895053 
" clip-path="url(#p4e8c4f97a7)" style="fill: none; stroke: #440154; stroke-opacity: 0.5; stroke-width: 1.5; stroke-linecap: square"/>
   </g>
   <g id="line2d_54">
    <path d="M 73.832727 241.590131 
L 90.065455 217.24636 
L 106.298182 269.899971 
L 122.530909 209.754237 
L 138.763636 240.670466 
L 154.996364 270.286081 
L 171.229091 243.474574 
L 187.461818 258.248844 
L 203.694545 271.614238 
L 219.927273 254.030029 
L 236.16 271.44066 
L 252.392727 249.126069 
L 268.625455 230.641904 
L 284.858182 239.90428 
L 301.090909 255.077078 
L 317.323636 247.472942 
L 333.556364 235.898902 
L 349.789091 231.871479 
L 366.021818 266.642151 
L 382.254545 250.086711 
L 398.487273 251.791717 
" clip-path="url(#p4e8c4f97a7)" style="fill: none; stroke: #440154; stroke-opacity: 0.5; stroke-width: 1.5; stroke-linecap: square"/>
   </g>
   <g id="line2d_55">
    <path d="M 73.832727 226.457625 
L 90.065455 202.271037 
L 106.298182 235.435533 
L 122.530909 245.018013 
L 138.763636 239.442117 
L 154.996364 211.083181 
L 171.229091 185.661543 
L 187.461818 205.37491 
L 203.694545 212.195171 
L 219.927273 226.637085 
L 236.16 181.986947 
L 252.392727 163.315864 
L 268.625455 186.588364 
L 284.858182 179.106062 
L 301.090909 236.408035 
L 317.323636 201.557466 
L 333.556364 208.411781 
L 349.789091 217.52475 
L 366.021818 198.318031 
L 382.254545 235.566437 
L 398.487273 194.855093 
" clip-path="url(#p4e8c4f97a7)" style="fill: none; stroke: #440154; stroke-opacity: 0.5; stroke-width: 1.5; stroke-linecap: square"/>
   </g>
   <g id="line2d_56">
    <path d="M 73.832727 240.633692 
L 90.065455 288.508605 
L 106.298182 294.125494 
L 122.530909 288.307966 
L 138.763636 272.384107 
L 154.996364 278.70658 
L 171.229091 288.64811 
L 187.461818 287.06799 
L 203.694545 268.073027 
L 219.927273 192.311581 
L 236.16 232.857845 
L 252.392727 258.083724 
L 268.625455 279.742524 
L 284.858182 232.787753 
L 301.090909 268.6906 
L 317.323636 234.030042 
L 333.556364 223.060881 
L 349.789091 230.243068 
L 366.021818 250.29882 
L 382.254545 252.015234 
L 398.487273 239.878167 
" clip-path="url(#p4e8c4f97a7)" style="fill: none; stroke: #440154; stroke-opacity: 0.5; stroke-width: 1.5; stroke-linecap: square"/>
   </g>
   <g id="line2d_57">
    <path d="M 73.832727 210.151416 
L 90.065455 276.901627 
L 106.298182 258.993363 
L 122.530909 226.929416 
L 138.763636 240.64054 
L 154.996364 267.791326 
L 171.229091 269.642259 
L 187.461818 263.029786 
L 203.694545 217.168432 
L 219.927273 258.063276 
L 236.16 226.163172 
L 252.392727 258.414035 
L 268.625455 228.888399 
L 284.858182 150.625724 
L 301.090909 261.936353 
L 317.323636 257.234305 
L 333.556364 251.390698 
L 349.789091 240.081909 
L 366.021818 271.929808 
L 382.254545 260.335811 
L 398.487273 263.706685 
" clip-path="url(#p4e8c4f97a7)" style="fill: none; stroke: #440154; stroke-opacity: 0.5; stroke-width: 1.5; stroke-linecap: square"/>
   </g>
   <g id="line2d_58">
    <path d="M 73.832727 222.364029 
L 90.065455 212.757612 
L 106.298182 211.01498 
L 122.530909 215.464545 
L 138.763636 209.301854 
L 154.996364 149.833537 
L 171.229091 173.858688 
L 187.461818 225.101146 
L 203.694545 232.338899 
L 219.927273 240.360073 
L 236.16 226.120612 
L 252.392727 206.98679 
L 268.625455 236.622589 
L 284.858182 247.484987 
L 301.090909 233.311236 
L 317.323636 231.17043 
L 333.556364 240.116656 
L 349.789091 245.393338 
L 366.021818 248.752039 
L 382.254545 246.150217 
L 398.487273 254.190037 
" clip-path="url(#p4e8c4f97a7)" style="fill: none; stroke: #440154; stroke-opacity: 0.5; stroke-width: 1.5; stroke-linecap: square"/>
   </g>
   <g id="line2d_59">
    <path d="M 73.832727 227.965238 
L 90.065455 231.004659 
L 106.298182 217.300302 
L 122.530909 244.103176 
L 138.763636 240.799586 
L 154.996364 222.622046 
L 171.229091 228.124446 
L 187.461818 191.128916 
L 203.694545 209.808958 
L 219.927273 217.897919 
L 236.16 202.980077 
L 252.392727 199.754334 
L 268.625455 199.856658 
L 284.858182 176.461564 
L 301.090909 175.757983 
L 317.323636 204.055033 
L 333.556364 177.753009 
L 349.789091 195.054809 
L 366.021818 187.290883 
L 382.254545 213.119664 
L 398.487273 201.846546 
" clip-path="url(#p4e8c4f97a7)" style="fill: none; stroke: #440154; stroke-opacity: 0.5; stroke-width: 1.5; stroke-linecap: square"/>
   </g>
   <g id="line2d_60">
    <path d="M 73.832727 128.79104 
L 90.065455 99.496387 
L 106.298182 162.617683 
L 122.530909 110.956085 
L 138.763636 157.794739 
L 154.996364 185.611692 
L 171.229091 166.127918 
L 187.461818 148.257972 
L 203.694545 192.272451 
L 219.927273 212.751812 
L 236.16 238.431496 
L 252.392727 198.175284 
L 268.625455 245.536949 
L 284.858182 242.633547 
L 301.090909 206.054232 
L 317.323636 189.234625 
L 333.556364 229.272911 
L 349.789091 204.539852 
L 366.021818 212.417142 
L 382.254545 228.353439 
L 398.487273 230.934621 
" clip-path="url(#p4e8c4f97a7)" style="fill: none; stroke: #440154; stroke-opacity: 0.5; stroke-width: 1.5; stroke-linecap: square"/>
   </g>
   <g id="line2d_61">
    <path d="M 73.832727 263.359014 
L 90.065455 243.127046 
L 106.298182 246.330381 
L 122.530909 261.143461 
L 138.763636 284.390706 
L 154.996364 235.867626 
L 171.229091 265.663591 
L 187.461818 287.667403 
L 203.694545 260.468764 
L 219.927273 248.064266 
L 236.16 238.515919 
L 252.392727 261.980463 
L 268.625455 248.402276 
L 284.858182 262.584707 
L 301.090909 249.267976 
L 317.323636 248.165361 
L 333.556364 278.086069 
L 349.789091 274.324833 
L 366.021818 245.387896 
L 382.254545 277.152694 
L 398.487273 259.018288 
" clip-path="url(#p4e8c4f97a7)" style="fill: none; stroke: #440154; stroke-opacity: 0.5; stroke-width: 1.5; stroke-linecap: square"/>
   </g>
   <g id="line2d_62">
    <path d="M 73.832727 239.73367 
L 90.065455 243.60878 
L 106.298182 235.309195 
L 122.530909 232.993665 
L 138.763636 238.684349 
L 154.996364 255.575039 
L 171.229091 264.422547 
L 187.461818 241.115347 
L 203.694545 224.137066 
L 219.927273 226.476495 
L 236.16 251.761935 
L 252.392727 243.699201 
L 268.625455 230.90446 
L 284.858182 238.819297 
L 301.090909 229.06361 
L 317.323636 263.750069 
L 333.556364 241.385126 
L 349.789091 223.558949 
L 366.021818 242.461515 
L 382.254545 247.84635 
L 398.487273 261.708908 
" clip-path="url(#p4e8c4f97a7)" style="fill: none; stroke: #440154; stroke-opacity: 0.5; stroke-width: 1.5; stroke-linecap: square"/>
   </g>
   <g id="line2d_63">
    <path d="M 73.832727 232.06676 
L 90.065455 206.364311 
L 106.298182 190.861181 
L 122.530909 214.326349 
L 138.763636 215.609506 
L 154.996364 235.925112 
L 171.229091 240.305008 
L 187.461818 257.434058 
L 203.694545 201.427044 
L 219.927273 188.518514 
L 236.16 185.859917 
L 252.392727 205.60438 
L 268.625455 187.910421 
L 284.858182 195.182659 
L 301.090909 173.034781 
L 317.323636 174.60469 
L 333.556364 172.35574 
L 349.789091 192.700974 
L 366.021818 166.711253 
L 382.254545 174.342631 
L 398.487273 178.913726 
" clip-path="url(#p4e8c4f97a7)" style="fill: none; stroke: #440154; stroke-opacity: 0.5; stroke-width: 1.5; stroke-linecap: square"/>
   </g>
   <g id="line2d_64">
    <path d="M 73.832727 260.408267 
L 90.065455 278.679832 
L 106.298182 275.296858 
L 122.530909 276.00742 
L 138.763636 280.964761 
L 154.996364 264.487347 
L 171.229091 254.441599 
L 187.461818 255.86428 
L 203.694545 268.605517 
L 219.927273 266.26316 
L 236.16 263.990185 
L 252.392727 246.630302 
L 268.625455 285.339432 
L 284.858182 261.267177 
L 301.090909 258.250913 
L 317.323636 266.176533 
L 333.556364 288.284979 
L 349.789091 288.288003 
L 366.021818 286.296079 
L 382.254545 288.646509 
L 398.487273 259.460644 
" clip-path="url(#p4e8c4f97a7)" style="fill: none; stroke: #440154; stroke-opacity: 0.5; stroke-width: 1.5; stroke-linecap: square"/>
   </g>
   <g id="line2d_65">
    <path d="M 73.832727 263.101243 
L 90.065455 239.738437 
L 106.298182 247.178571 
L 122.530909 242.507761 
L 138.763636 257.455162 
L 154.996364 257.593837 
L 171.229091 271.817207 
L 187.461818 259.009072 
L 203.694545 277.203667 
L 219.927273 268.42397 
L 236.16 273.754049 
L 252.392727 268.62018 
L 268.625455 240.987854 
L 284.858182 281.620999 
L 301.090909 268.606823 
L 317.323636 272.828475 
L 333.556364 261.400426 
L 349.789091 273.134936 
L 366.021818 276.876022 
L 382.254545 273.527032 
L 398.487273 280.775404 
" clip-path="url(#p4e8c4f97a7)" style="fill: none; stroke: #440154; stroke-opacity: 0.5; stroke-width: 1.5; stroke-linecap: square"/>
   </g>
   <g id="line2d_66">
    <path d="M 73.832727 226.62146 
L 90.065455 222.434424 
L 106.298182 215.587869 
L 122.530909 222.613973 
L 138.763636 197.268239 
L 154.996364 226.880601 
L 171.229091 220.480439 
L 187.461818 242.225962 
L 203.694545 227.596209 
L 219.927273 207.590886 
L 236.16 240.109766 
L 252.392727 216.809391 
L 268.625455 218.266928 
L 284.858182 138.470642 
L 301.090909 217.78215 
L 317.323636 226.231008 
L 333.556364 213.911194 
L 349.789091 219.810571 
L 366.021818 229.9998 
L 382.254545 232.906963 
L 398.487273 233.06811 
" clip-path="url(#p4e8c4f97a7)" style="fill: none; stroke: #440154; stroke-opacity: 0.5; stroke-width: 1.5; stroke-linecap: square"/>
   </g>
   <g id="line2d_67">
    <path d="M 73.832727 224.729117 
L 90.065455 258.184255 
L 106.298182 248.708071 
L 122.530909 243.382252 
L 138.763636 247.143281 
L 154.996364 243.763796 
L 171.229091 244.702846 
L 187.461818 242.873772 
L 203.694545 233.502436 
L 219.927273 237.217782 
L 236.16 257.345242 
L 252.392727 263.402946 
L 268.625455 246.513606 
L 284.858182 240.001451 
L 301.090909 263.908646 
L 317.323636 231.278532 
L 333.556364 239.463989 
L 349.789091 222.117761 
L 366.021818 233.485669 
L 382.254545 237.643559 
L 398.487273 263.430737 
" clip-path="url(#p4e8c4f97a7)" style="fill: none; stroke: #440154; stroke-opacity: 0.5; stroke-width: 1.5; stroke-linecap: square"/>
   </g>
   <g id="line2d_68">
    <path d="M 73.832727 254.735669 
L 90.065455 216.71353 
L 106.298182 198.761183 
L 122.530909 211.574219 
L 138.763636 203.87027 
L 154.996364 197.528689 
L 171.229091 221.714123 
L 187.461818 219.386549 
L 203.694545 177.135475 
L 219.927273 147.743232 
L 236.16 189.321269 
L 252.392727 164.878978 
L 268.625455 162.735586 
L 284.858182 210.112469 
L 301.090909 210.111014 
L 317.323636 201.134241 
L 333.556364 177.304363 
L 349.789091 175.663945 
L 366.021818 191.492863 
L 382.254545 197.709529 
L 398.487273 192.799705 
" clip-path="url(#p4e8c4f97a7)" style="fill: none; stroke: #440154; stroke-opacity: 0.5; stroke-width: 1.5; stroke-linecap: square"/>
   </g>
   <g id="line2d_69">
    <path d="M 73.832727 262.344399 
L 90.065455 269.026572 
L 106.298182 278.160491 
L 122.530909 260.808594 
L 138.763636 272.337721 
L 154.996364 285.288287 
L 171.229091 262.949344 
L 187.461818 283.582774 
L 203.694545 270.408947 
L 219.927273 278.293904 
L 236.16 255.832461 
L 252.392727 275.035235 
L 268.625455 242.231773 
L 284.858182 273.375521 
L 301.090909 288.705642 
L 317.323636 290.442376 
L 333.556364 256.479685 
L 349.789091 227.209659 
L 366.021818 261.465348 
L 382.254545 288.472095 
L 398.487273 295.488 
" clip-path="url(#p4e8c4f97a7)" style="fill: none; stroke: #440154; stroke-opacity: 0.5; stroke-width: 1.5; stroke-linecap: square"/>
   </g>
   <g id="line2d_70">
    <path d="M 73.832727 208.46629 
L 90.065455 248.151144 
L 106.298182 219.124573 
L 122.530909 242.396433 
L 138.763636 204.417145 
L 154.996364 265.004952 
L 171.229091 242.706873 
L 187.461818 278.192012 
L 203.694545 234.767926 
L 219.927273 267.75001 
L 236.16 248.839014 
L 252.392727 269.397968 
L 268.625455 288.910529 
L 284.858182 247.092631 
L 301.090909 241.43325 
L 317.323636 223.500628 
L 333.556364 228.885778 
L 349.789091 254.96344 
L 366.021818 224.027834 
L 382.254545 228.129714 
L 398.487273 207.579324 
" clip-path="url(#p4e8c4f97a7)" style="fill: none; stroke: #440154; stroke-opacity: 0.5; stroke-width: 1.5; stroke-linecap: square"/>
   </g>
   <g id="line2d_71">
    <path d="M 73.832727 197.345978 
L 90.065455 202.159573 
L 106.298182 221.739877 
L 122.530909 221.906656 
L 138.763636 226.509637 
L 154.996364 204.104497 
L 171.229091 239.516069 
L 187.461818 175.674277 
L 203.694545 206.285258 
L 219.927273 211.151545 
L 236.16 182.357386 
L 252.392727 252.836474 
L 268.625455 233.80578 
L 284.858182 267.600014 
L 301.090909 233.137654 
L 317.323636 223.198592 
L 333.556364 219.702412 
L 349.789091 229.721186 
L 366.021818 219.920394 
L 382.254545 190.293604 
L 398.487273 215.535161 
" clip-path="url(#p4e8c4f97a7)" style="fill: none; stroke: #440154; stroke-opacity: 0.5; stroke-width: 1.5; stroke-linecap: square"/>
   </g>
   <g id="line2d_72">
    <path d="M 73.832727 258.845954 
L 90.065455 282.268224 
L 106.298182 284.931501 
L 122.530909 266.911576 
L 138.763636 285.338577 
L 154.996364 268.096698 
L 171.229091 278.635122 
L 187.461818 276.05439 
L 203.694545 270.493492 
L 219.927273 269.468731 
L 236.16 289.173223 
L 252.392727 275.684568 
L 268.625455 287.9083 
L 284.858182 265.717307 
L 301.090909 287.122575 
L 317.323636 284.763745 
L 333.556364 291.574561 
L 349.789091 288.155367 
L 366.021818 284.82342 
L 382.254545 272.054006 
L 398.487273 289.241171 
" clip-path="url(#p4e8c4f97a7)" style="fill: none; stroke: #440154; stroke-opacity: 0.5; stroke-width: 1.5; stroke-linecap: square"/>
   </g>
   <g id="line2d_73">
    <path d="M 73.832727 268.6648 
L 90.065455 249.056248 
L 106.298182 269.784705 
L 122.530909 244.730618 
L 138.763636 263.405468 
L 154.996364 276.085492 
L 171.229091 269.112467 
L 187.461818 221.19604 
L 203.694545 253.52938 
L 219.927273 259.487477 
L 236.16 228.477072 
L 252.392727 253.805168 
L 268.625455 257.638763 
L 284.858182 248.211512 
L 301.090909 242.079671 
L 317.323636 252.27031 
L 333.556364 249.363171 
L 349.789091 245.231493 
L 366.021818 254.459537 
L 382.254545 286.52647 
L 398.487273 267.009723 
" clip-path="url(#p4e8c4f97a7)" style="fill: none; stroke: #440154; stroke-opacity: 0.5; stroke-width: 1.5; stroke-linecap: square"/>
   </g>
   <g id="line2d_74">
    <path d="M 73.832727 218.501705 
L 90.065455 175.295952 
L 106.298182 209.250437 
L 122.530909 179.261133 
L 138.763636 217.941817 
L 154.996364 260.4196 
L 171.229091 210.412066 
L 187.461818 229.04367 
L 203.694545 253.045602 
L 219.927273 218.238638 
L 236.16 244.032625 
L 252.392727 253.736603 
L 268.625455 236.040372 
L 284.858182 199.703356 
L 301.090909 231.770069 
L 317.323636 237.159302 
L 333.556364 226.152101 
L 349.789091 236.761208 
L 366.021818 258.708908 
L 382.254545 246.345866 
L 398.487273 236.998226 
" clip-path="url(#p4e8c4f97a7)" style="fill: none; stroke: #440154; stroke-opacity: 0.5; stroke-width: 1.5; stroke-linecap: square"/>
   </g>
   <g id="line2d_75">
    <path d="M 73.832727 232.175125 
L 90.065455 147.167413 
L 106.298182 136.46779 
L 122.530909 234.212132 
L 138.763636 244.693064 
L 154.996364 239.73603 
L 171.229091 228.608182 
L 187.461818 249.5486 
L 203.694545 238.554288 
L 219.927273 249.234724 
L 236.16 260.14067 
L 252.392727 263.647213 
L 268.625455 251.084725 
L 284.858182 255.844586 
L 301.090909 247.618379 
L 317.323636 238.246074 
L 333.556364 263.096842 
L 349.789091 266.282766 
L 366.021818 257.504516 
L 382.254545 216.244132 
L 398.487273 234.045432 
" clip-path="url(#p4e8c4f97a7)" style="fill: none; stroke: #440154; stroke-opacity: 0.5; stroke-width: 1.5; stroke-linecap: square"/>
   </g>
   <g id="line2d_76">
    <path d="M 73.832727 206.346473 
L 90.065455 210.030509 
L 106.298182 188.525508 
L 122.530909 222.155008 
L 138.763636 207.992861 
L 154.996364 225.824111 
L 171.229091 218.046617 
L 187.461818 222.923864 
L 203.694545 214.187319 
L 219.927273 248.366474 
L 236.16 231.296255 
L 252.392727 235.539489 
L 268.625455 231.137416 
L 284.858182 217.028527 
L 301.090909 209.301068 
L 317.323636 223.731315 
L 333.556364 232.203353 
L 349.789091 216.78825 
L 366.021818 233.900554 
L 382.254545 170.134821 
L 398.487273 189.304702 
" clip-path="url(#p4e8c4f97a7)" style="fill: none; stroke: #440154; stroke-opacity: 0.5; stroke-width: 1.5; stroke-linecap: square"/>
   </g>
   <g id="line2d_77">
    <path d="M 73.832727 200.513987 
L 90.065455 238.878215 
L 106.298182 230.865435 
L 122.530909 262.284993 
L 138.763636 201.81754 
L 154.996364 233.081172 
L 171.229091 217.343301 
L 187.461818 180.314574 
L 203.694545 259.949902 
L 219.927273 269.062801 
L 236.16 224.779775 
L 252.392727 216.988553 
L 268.625455 254.871719 
L 284.858182 249.804483 
L 301.090909 257.513684 
L 317.323636 254.697052 
L 333.556364 241.775382 
L 349.789091 219.796284 
L 366.021818 237.050362 
L 382.254545 223.240078 
L 398.487273 236.517402 
" clip-path="url(#p4e8c4f97a7)" style="fill: none; stroke: #440154; stroke-opacity: 0.5; stroke-width: 1.5; stroke-linecap: square"/>
   </g>
   <g id="line2d_78">
    <path d="M 73.832727 197.479088 
L 90.065455 215.385515 
L 106.298182 180.078109 
L 122.530909 217.399827 
L 138.763636 138.103846 
L 154.996364 142.312725 
L 171.229091 131.692044 
L 187.461818 214.214965 
L 203.694545 259.929753 
L 219.927273 238.797855 
L 236.16 245.272951 
L 252.392727 254.00621 
L 268.625455 220.070453 
L 284.858182 249.312725 
L 301.090909 274.036318 
L 317.323636 245.835154 
L 333.556364 255.813828 
L 349.789091 259.336645 
L 366.021818 260.110746 
L 382.254545 258.680566 
L 398.487273 253.345211 
" clip-path="url(#p4e8c4f97a7)" style="fill: none; stroke: #440154; stroke-opacity: 0.5; stroke-width: 1.5; stroke-linecap: square"/>
   </g>
   <g id="line2d_79">
    <path d="M 73.832727 126.783535 
L 90.065455 188.759319 
L 106.298182 183.235501 
L 122.530909 201.54515 
L 138.763636 177.958375 
L 154.996364 236.470214 
L 171.229091 235.751078 
L 187.461818 230.151762 
L 203.694545 213.053986 
L 219.927273 224.253369 
L 236.16 209.284108 
L 252.392727 208.856873 
L 268.625455 217.901712 
L 284.858182 200.588643 
L 301.090909 188.14582 
L 317.323636 175.571752 
L 333.556364 176.172483 
L 349.789091 139.805033 
L 366.021818 161.618941 
L 382.254545 179.221263 
L 398.487273 165.259918 
" clip-path="url(#p4e8c4f97a7)" style="fill: none; stroke: #440154; stroke-opacity: 0.5; stroke-width: 1.5; stroke-linecap: square"/>
   </g>
   <g id="line2d_80">
    <path d="M 73.832727 277.26554 
L 90.065455 276.550823 
L 106.298182 262.72525 
L 122.530909 255.513758 
L 138.763636 242.694213 
L 154.996364 266.455779 
L 171.229091 263.728094 
L 187.461818 279.914661 
L 203.694545 259.93695 
L 219.927273 262.983494 
L 236.16 260.576225 
L 252.392727 254.638688 
L 268.625455 283.487422 
L 284.858182 258.590228 
L 301.090909 281.643616 
L 317.323636 265.109157 
L 333.556364 268.259805 
L 349.789091 275.133196 
L 366.021818 280.503007 
L 382.254545 275.202123 
L 398.487273 268.485579 
" clip-path="url(#p4e8c4f97a7)" style="fill: none; stroke: #440154; stroke-opacity: 0.5; stroke-width: 1.5; stroke-linecap: square"/>
   </g>
   <g id="line2d_81">
    <path d="M 73.832727 242.018127 
L 90.065455 261.928345 
L 106.298182 261.434076 
L 122.530909 269.542651 
L 138.763636 276.685528 
L 154.996364 276.731025 
L 171.229091 280.364083 
L 187.461818 287.578135 
L 203.694545 264.715537 
L 219.927273 239.989412 
L 236.16 247.428548 
L 252.392727 260.025815 
L 268.625455 259.608831 
L 284.858182 244.889821 
L 301.090909 240.068231 
L 317.323636 251.011412 
L 333.556364 264.588667 
L 349.789091 247.823263 
L 366.021818 239.352842 
L 382.254545 233.981234 
L 398.487273 215.707265 
" clip-path="url(#p4e8c4f97a7)" style="fill: none; stroke: #440154; stroke-opacity: 0.5; stroke-width: 1.5; stroke-linecap: square"/>
   </g>
   <g id="line2d_82">
    <path d="M 73.832727 217.461975 
L 90.065455 218.455713 
L 106.298182 195.704908 
L 122.530909 221.063016 
L 138.763636 202.409524 
L 154.996364 222.038986 
L 171.229091 227.590506 
L 187.461818 199.821886 
L 203.694545 186.518012 
L 219.927273 220.462641 
L 236.16 220.629362 
L 252.392727 227.384837 
L 268.625455 243.086987 
L 284.858182 236.412609 
L 301.090909 229.832459 
L 317.323636 232.566331 
L 333.556364 222.440459 
L 349.789091 224.244115 
L 366.021818 231.792287 
L 382.254545 213.910844 
L 398.487273 209.800609 
" clip-path="url(#p4e8c4f97a7)" style="fill: none; stroke: #440154; stroke-opacity: 0.5; stroke-width: 1.5; stroke-linecap: square"/>
   </g>
   <g id="line2d_83">
    <path d="M 73.832727 209.71321 
L 90.065455 194.815061 
L 106.298182 244.520556 
L 122.530909 214.257434 
L 138.763636 185.375818 
L 154.996364 225.921446 
L 171.229091 177.521359 
L 187.461818 198.20315 
L 203.694545 170.146981 
L 219.927273 203.131981 
L 236.16 195.653575 
L 252.392727 180.73053 
L 268.625455 169.584344 
L 284.858182 192.752714 
L 301.090909 166.914647 
L 317.323636 181.993827 
L 333.556364 193.066973 
L 349.789091 215.006008 
L 366.021818 175.124641 
L 382.254545 171.558383 
L 398.487273 157.261142 
" clip-path="url(#p4e8c4f97a7)" style="fill: none; stroke: #440154; stroke-opacity: 0.5; stroke-width: 1.5; stroke-linecap: square"/>
   </g>
   <g id="line2d_84">
    <path d="M 73.832727 208.634827 
L 90.065455 181.045205 
L 106.298182 202.183747 
L 122.530909 196.839472 
L 138.763636 200.792534 
L 154.996364 146.81725 
L 171.229091 172.178624 
L 187.461818 132.050688 
L 203.694545 176.327257 
L 219.927273 176.022563 
L 236.16 155.38158 
L 252.392727 176.647137 
L 268.625455 217.841852 
L 284.858182 196.227346 
L 301.090909 192.092417 
L 317.323636 176.075173 
L 333.556364 188.962559 
L 349.789091 169.040073 
L 366.021818 165.672628 
L 382.254545 162.814061 
L 398.487273 166.893194 
" clip-path="url(#p4e8c4f97a7)" style="fill: none; stroke: #440154; stroke-opacity: 0.5; stroke-width: 1.5; stroke-linecap: square"/>
   </g>
   <g id="line2d_85">
    <path d="M 73.832727 190.912107 
L 90.065455 154.12025 
L 106.298182 152.97465 
L 122.530909 221.899162 
L 138.763636 192.864371 
L 154.996364 270.527538 
L 171.229091 260.711881 
L 187.461818 270.74869 
L 203.694545 285.562047 
L 219.927273 277.301675 
L 236.16 268.882014 
L 252.392727 264.47537 
L 268.625455 266.379167 
L 284.858182 275.883988 
L 301.090909 263.158838 
L 317.323636 262.723922 
L 333.556364 245.399058 
L 349.789091 255.297755 
L 366.021818 249.9853 
L 382.254545 255.613187 
L 398.487273 267.817914 
" clip-path="url(#p4e8c4f97a7)" style="fill: none; stroke: #440154; stroke-opacity: 0.5; stroke-width: 1.5; stroke-linecap: square"/>
   </g>
   <g id="line2d_86">
    <path d="M 73.832727 274.181297 
L 90.065455 229.718606 
L 106.298182 242.523681 
L 122.530909 248.743919 
L 138.763636 234.053311 
L 154.996364 277.087368 
L 171.229091 263.815062 
L 187.461818 267.326894 
L 203.694545 287.991924 
L 219.927273 236.180235 
L 236.16 250.713868 
L 252.392727 248.360307 
L 268.625455 251.462386 
L 284.858182 259.691656 
L 301.090909 250.24804 
L 317.323636 274.496643 
L 333.556364 260.63276 
L 349.789091 287.411987 
L 366.021818 261.336837 
L 382.254545 255.160105 
L 398.487273 267.767219 
" clip-path="url(#p4e8c4f97a7)" style="fill: none; stroke: #440154; stroke-opacity: 0.5; stroke-width: 1.5; stroke-linecap: square"/>
   </g>
   <g id="line2d_87">
    <path d="M 73.832727 225.226532 
L 90.065455 259.865323 
L 106.298182 249.530832 
L 122.530909 225.555324 
L 138.763636 242.542181 
L 154.996364 208.947457 
L 171.229091 198.486567 
L 187.461818 186.399804 
L 203.694545 217.316638 
L 219.927273 218.303019 
L 236.16 194.20407 
L 252.392727 214.356634 
L 268.625455 161.139967 
L 284.858182 188.923283 
L 301.090909 189.914196 
L 317.323636 180.743667 
L 333.556364 208.323384 
L 349.789091 171.054536 
L 366.021818 174.895778 
L 382.254545 162.670017 
L 398.487273 188.361906 
" clip-path="url(#p4e8c4f97a7)" style="fill: none; stroke: #440154; stroke-opacity: 0.5; stroke-width: 1.5; stroke-linecap: square"/>
   </g>
   <g id="line2d_88">
    <path d="M 73.832727 257.79051 
L 90.065455 274.031074 
L 106.298182 273.811721 
L 122.530909 288.868418 
L 138.763636 282.725509 
L 154.996364 287.619901 
L 171.229091 268.816031 
L 187.461818 287.727159 
L 203.694545 256.284987 
L 219.927273 252.679308 
L 236.16 261.483408 
L 252.392727 263.883554 
L 268.625455 242.934594 
L 284.858182 278.91651 
L 301.090909 255.960111 
L 317.323636 285.067237 
L 333.556364 264.834419 
L 349.789091 270.827832 
L 366.021818 280.463185 
L 382.254545 267.319385 
L 398.487273 267.914794 
" clip-path="url(#p4e8c4f97a7)" style="fill: none; stroke: #440154; stroke-opacity: 0.5; stroke-width: 1.5; stroke-linecap: square"/>
   </g>
   <g id="line2d_89">
    <path d="M 73.832727 214.454102 
L 90.065455 223.239589 
L 106.298182 242.369029 
L 122.530909 256.351886 
L 138.763636 237.850848 
L 154.996364 277.027613 
L 171.229091 256.25212 
L 187.461818 253.383452 
L 203.694545 233.217177 
L 219.927273 232.726377 
L 236.16 259.765412 
L 252.392727 252.23615 
L 268.625455 241.351327 
L 284.858182 249.704411 
L 301.090909 279.785731 
L 317.323636 269.282324 
L 333.556364 279.222559 
L 349.789091 246.807686 
L 366.021818 265.024989 
L 382.254545 241.10538 
L 398.487273 276.324788 
" clip-path="url(#p4e8c4f97a7)" style="fill: none; stroke: #440154; stroke-opacity: 0.5; stroke-width: 1.5; stroke-linecap: square"/>
   </g>
   <g id="line2d_90">
    <path d="M 73.832727 244.511567 
L 90.065455 203.892845 
L 106.298182 195.117785 
L 122.530909 219.52085 
L 138.763636 188.400254 
L 154.996364 254.547939 
L 171.229091 233.864207 
L 187.461818 216.657309 
L 203.694545 253.808631 
L 219.927273 193.19919 
L 236.16 232.539355 
L 252.392727 207.644725 
L 268.625455 207.587667 
L 284.858182 229.891167 
L 301.090909 216.922598 
L 317.323636 205.155722 
L 333.556364 221.136279 
L 349.789091 236.936906 
L 366.021818 231.123698 
L 382.254545 219.537902 
L 398.487273 236.556007 
" clip-path="url(#p4e8c4f97a7)" style="fill: none; stroke: #440154; stroke-opacity: 0.5; stroke-width: 1.5; stroke-linecap: square"/>
   </g>
   <g id="line2d_91">
    <path d="M 73.832727 235.769356 
L 90.065455 219.873145 
L 106.298182 234.550102 
L 122.530909 236.579965 
L 138.763636 246.90791 
L 154.996364 256.83212 
L 171.229091 223.427022 
L 187.461818 182.680305 
L 203.694545 212.44718 
L 219.927273 248.589617 
L 236.16 190.671891 
L 252.392727 223.202164 
L 268.625455 223.138771 
L 284.858182 215.940807 
L 301.090909 212.066781 
L 317.323636 199.923739 
L 333.556364 177.213132 
L 349.789091 176.546256 
L 366.021818 201.230882 
L 382.254545 183.636282 
L 398.487273 201.125797 
" clip-path="url(#p4e8c4f97a7)" style="fill: none; stroke: #440154; stroke-opacity: 0.5; stroke-width: 1.5; stroke-linecap: square"/>
   </g>
   <g id="line2d_92">
    <path d="M 73.832727 136.874388 
L 90.065455 148.78139 
L 106.298182 179.552949 
L 122.530909 156.798797 
L 138.763636 173.910468 
L 154.996364 226.31485 
L 171.229091 229.1814 
L 187.461818 222.888666 
L 203.694545 201.956432 
L 219.927273 210.102978 
L 236.16 192.946627 
L 252.392727 162.547348 
L 268.625455 167.718383 
L 284.858182 106.607426 
L 301.090909 208.130325 
L 317.323636 242.604461 
L 333.556364 244.634949 
L 349.789091 241.104019 
L 366.021818 244.533772 
L 382.254545 247.477313 
L 398.487273 240.1233 
" clip-path="url(#p4e8c4f97a7)" style="fill: none; stroke: #440154; stroke-opacity: 0.5; stroke-width: 1.5; stroke-linecap: square"/>
   </g>
   <g id="line2d_93">
    <path d="M 73.832727 197.327404 
L 90.065455 276.686841 
L 106.298182 261.230237 
L 122.530909 280.904242 
L 138.763636 282.011088 
L 154.996364 245.066951 
L 171.229091 256.148236 
L 187.461818 275.91209 
L 203.694545 268.112593 
L 219.927273 275.114872 
L 236.16 228.8154 
L 252.392727 240.078819 
L 268.625455 271.433587 
L 284.858182 281.238598 
L 301.090909 246.526212 
L 317.323636 263.547528 
L 333.556364 252.533588 
L 349.789091 271.519077 
L 366.021818 274.897334 
L 382.254545 270.931329 
L 398.487273 236.22699 
" clip-path="url(#p4e8c4f97a7)" style="fill: none; stroke: #440154; stroke-opacity: 0.5; stroke-width: 1.5; stroke-linecap: square"/>
   </g>
   <g id="line2d_94">
    <path d="M 73.832727 227.114646 
L 90.065455 287.025642 
L 106.298182 278.024607 
L 122.530909 262.803336 
L 138.763636 270.40708 
L 154.996364 269.038865 
L 171.229091 274.812119 
L 187.461818 257.070883 
L 203.694545 268.514461 
L 219.927273 265.529471 
L 236.16 271.916656 
L 252.392727 278.937075 
L 268.625455 253.382888 
L 284.858182 243.884477 
L 301.090909 250.52585 
L 317.323636 261.365811 
L 333.556364 247.388101 
L 349.789091 241.946689 
L 366.021818 274.651063 
L 382.254545 266.238161 
L 398.487273 246.549662 
" clip-path="url(#p4e8c4f97a7)" style="fill: none; stroke: #440154; stroke-opacity: 0.5; stroke-width: 1.5; stroke-linecap: square"/>
   </g>
   <g id="line2d_95">
    <path d="M 73.832727 223.889324 
L 90.065455 198.293494 
L 106.298182 216.622727 
L 122.530909 231.537049 
L 138.763636 230.017687 
L 154.996364 209.091307 
L 171.229091 170.042688 
L 187.461818 198.606539 
L 203.694545 221.383744 
L 219.927273 142.110616 
L 236.16 174.248478 
L 252.392727 224.444996 
L 268.625455 249.65718 
L 284.858182 211.213964 
L 301.090909 204.865777 
L 317.323636 230.585605 
L 333.556364 204.775615 
L 349.789091 192.609512 
L 366.021818 166.087326 
L 382.254545 197.681631 
L 398.487273 192.368327 
" clip-path="url(#p4e8c4f97a7)" style="fill: none; stroke: #440154; stroke-opacity: 0.5; stroke-width: 1.5; stroke-linecap: square"/>
   </g>
   <g id="line2d_96">
    <path d="M 73.832727 266.336806 
L 90.065455 277.396253 
L 106.298182 276.933272 
L 122.530909 268.76056 
L 138.763636 275.587633 
L 154.996364 281.55592 
L 171.229091 238.149185 
L 187.461818 255.008314 
L 203.694545 274.491495 
L 219.927273 278.02297 
L 236.16 253.09376 
L 252.392727 247.869962 
L 268.625455 292.553614 
L 284.858182 281.921294 
L 301.090909 236.189342 
L 317.323636 250.685875 
L 333.556364 244.77026 
L 349.789091 238.325073 
L 366.021818 271.141529 
L 382.254545 240.236961 
L 398.487273 248.28793 
" clip-path="url(#p4e8c4f97a7)" style="fill: none; stroke: #440154; stroke-opacity: 0.5; stroke-width: 1.5; stroke-linecap: square"/>
   </g>
   <g id="line2d_97">
    <path d="M 73.832727 270.258695 
L 90.065455 281.432898 
L 106.298182 265.859676 
L 122.530909 281.677031 
L 138.763636 270.762186 
L 154.996364 267.654922 
L 171.229091 290.256178 
L 187.461818 269.319169 
L 203.694545 252.150237 
L 219.927273 255.237135 
L 236.16 280.745066 
L 252.392727 283.519742 
L 268.625455 238.435499 
L 284.858182 259.215825 
L 301.090909 265.473418 
L 317.323636 254.640879 
L 333.556364 258.460357 
L 349.789091 241.631996 
L 366.021818 257.277965 
L 382.254545 244.655088 
L 398.487273 255.959975 
" clip-path="url(#p4e8c4f97a7)" style="fill: none; stroke: #440154; stroke-opacity: 0.5; stroke-width: 1.5; stroke-linecap: square"/>
   </g>
   <g id="line2d_98">
    <path d="M 73.832727 226.300666 
L 90.065455 231.482311 
L 106.298182 227.563624 
L 122.530909 213.132993 
L 138.763636 212.455774 
L 154.996364 220.541695 
L 171.229091 229.617738 
L 187.461818 206.06313 
L 203.694545 166.746255 
L 219.927273 182.22329 
L 236.16 200.339339 
L 252.392727 159.011806 
L 268.625455 183.297399 
L 284.858182 200.081931 
L 301.090909 234.311889 
L 317.323636 216.653375 
L 333.556364 188.058787 
L 349.789091 194.228366 
L 366.021818 194.125595 
L 382.254545 192.98165 
L 398.487273 242.909404 
" clip-path="url(#p4e8c4f97a7)" style="fill: none; stroke: #440154; stroke-opacity: 0.5; stroke-width: 1.5; stroke-linecap: square"/>
   </g>
   <g id="line2d_99">
    <path d="M 73.832727 215.414311 
L 90.065455 238.619354 
L 106.298182 249.421441 
L 122.530909 243.691 
L 138.763636 240.67514 
L 154.996364 212.598587 
L 171.229091 224.988599 
L 187.461818 168.203646 
L 203.694545 190.606787 
L 219.927273 203.887545 
L 236.16 237.214747 
L 252.392727 232.477569 
L 268.625455 231.610603 
L 284.858182 228.471029 
L 301.090909 212.32989 
L 317.323636 204.340418 
L 333.556364 208.450317 
L 349.789091 204.745451 
L 366.021818 211.921762 
L 382.254545 217.359538 
L 398.487273 207.460677 
" clip-path="url(#p4e8c4f97a7)" style="fill: none; stroke: #440154; stroke-opacity: 0.5; stroke-width: 1.5; stroke-linecap: square"/>
   </g>
   <g id="line2d_100">
    <path d="M 73.832727 173.383609 
L 90.065455 150.855894 
L 106.298182 218.609181 
L 122.530909 206.671001 
L 138.763636 183.762647 
L 154.996364 191.396265 
L 171.229091 210.858421 
L 187.461818 192.196544 
L 203.694545 215.428581 
L 219.927273 214.125425 
L 236.16 227.840561 
L 252.392727 206.964554 
L 268.625455 254.327762 
L 284.858182 250.774005 
L 301.090909 238.605015 
L 317.323636 215.201709 
L 333.556364 217.76694 
L 349.789091 238.994768 
L 366.021818 267.52349 
L 382.254545 244.566862 
L 398.487273 220.062919 
" clip-path="url(#p4e8c4f97a7)" style="fill: none; stroke: #440154; stroke-opacity: 0.5; stroke-width: 1.5; stroke-linecap: square"/>
   </g>
   <g id="patch_3">
    <path d="M 57.6 307.584 
L 57.6 41.472 
" style="fill: none; stroke: #000000; stroke-width: 3; stroke-linejoin: miter; stroke-linecap: square"/>
   </g>
   <g id="patch_4">
    <path d="M 414.72 307.584 
L 414.72 41.472 
" style="fill: none; stroke: #000000; stroke-width: 3; stroke-linejoin: miter; stroke-linecap: square"/>
   </g>
   <g id="patch_5">
    <path d="M 57.6 307.584 
L 414.72 307.584 
" style="fill: none; stroke: #000000; stroke-width: 3; stroke-linejoin: miter; stroke-linecap: square"/>
   </g>
   <g id="patch_6">
    <path d="M 57.6 41.472 
L 414.72 41.472 
" style="fill: none; stroke: #000000; stroke-width: 3; stroke-linejoin: miter; stroke-linecap: square"/>
   </g>
   <g id="text_11">
    <!-- Atom Type H (n=90, mean Q=8.99) -->
    <g transform="translate(40.225937 35.472) scale(0.22 -0.22)">
     <defs>
      <path id="DejaVuSans-41" d="M 2188 4044 
L 1331 1722 
L 3047 1722 
L 2188 4044 
z
M 1831 4666 
L 2547 4666 
L 4325 0 
L 3669 0 
L 3244 1197 
L 1141 1197 
L 716 0 
L 50 0 
L 1831 4666 
z
" transform="scale(0.015625)"/>
      <path id="DejaVuSans-74" d="M 1172 4494 
L 1172 3500 
L 2356 3500 
L 2356 3053 
L 1172 3053 
L 1172 1153 
Q 1172 725 1289 603 
Q 1406 481 1766 481 
L 2356 481 
L 2356 0 
L 1766 0 
Q 1100 0 847 248 
Q 594 497 594 1153 
L 594 3053 
L 172 3053 
L 172 3500 
L 594 3500 
L 594 4494 
L 1172 4494 
z
" transform="scale(0.015625)"/>
      <path id="DejaVuSans-6f" d="M 1959 3097 
Q 1497 3097 1228 2736 
Q 959 2375 959 1747 
Q 959 1119 1226 758 
Q 1494 397 1959 397 
Q 2419 397 2687 759 
Q 2956 1122 2956 1747 
Q 2956 2369 2687 2733 
Q 2419 3097 1959 3097 
z
M 1959 3584 
Q 2709 3584 3137 3096 
Q 3566 2609 3566 1747 
Q 3566 888 3137 398 
Q 2709 -91 1959 -91 
Q 1206 -91 779 398 
Q 353 888 353 1747 
Q 353 2609 779 3096 
Q 1206 3584 1959 3584 
z
" transform="scale(0.015625)"/>
      <path id="DejaVuSans-6d" d="M 3328 2828 
Q 3544 3216 3844 3400 
Q 4144 3584 4550 3584 
Q 5097 3584 5394 3201 
Q 5691 2819 5691 2113 
L 5691 0 
L 5113 0 
L 5113 2094 
Q 5113 2597 4934 2840 
Q 4756 3084 4391 3084 
Q 3944 3084 3684 2787 
Q 3425 2491 3425 1978 
L 3425 0 
L 2847 0 
L 2847 2094 
Q 2847 2600 2669 2842 
Q 2491 3084 2119 3084 
Q 1678 3084 1418 2786 
Q 1159 2488 1159 1978 
L 1159 0 
L 581 0 
L 581 3500 
L 1159 3500 
L 1159 2956 
Q 1356 3278 1631 3431 
Q 1906 3584 2284 3584 
Q 2666 3584 2933 3390 
Q 3200 3197 3328 2828 
z
" transform="scale(0.015625)"/>
      <path id="DejaVuSans-20" transform="scale(0.015625)"/>
      <path id="DejaVuSans-54" d="M -19 4666 
L 3928 4666 
L 3928 4134 
L 2272 4134 
L 2272 0 
L 1638 0 
L 1638 4134 
L -19 4134 
L -19 4666 
z
" transform="scale(0.015625)"/>
      <path id="DejaVuSans-79" d="M 2059 -325 
Q 1816 -950 1584 -1140 
Q 1353 -1331 966 -1331 
L 506 -1331 
L 506 -850 
L 844 -850 
Q 1081 -850 1212 -737 
Q 1344 -625 1503 -206 
L 1606 56 
L 191 3500 
L 800 3500 
L 1894 763 
L 2988 3500 
L 3597 3500 
L 2059 -325 
z
" transform="scale(0.015625)"/>
      <path id="DejaVuSans-70" d="M 1159 525 
L 1159 -1331 
L 581 -1331 
L 581 3500 
L 1159 3500 
L 1159 2969 
Q 1341 3281 1617 3432 
Q 1894 3584 2278 3584 
Q 2916 3584 3314 3078 
Q 3713 2572 3713 1747 
Q 3713 922 3314 415 
Q 2916 -91 2278 -91 
Q 1894 -91 1617 61 
Q 1341 213 1159 525 
z
M 3116 1747 
Q 3116 2381 2855 2742 
Q 2594 3103 2138 3103 
Q 1681 3103 1420 2742 
Q 1159 2381 1159 1747 
Q 1159 1113 1420 752 
Q 1681 391 2138 391 
Q 2594 391 2855 752 
Q 3116 1113 3116 1747 
z
" transform="scale(0.015625)"/>
      <path id="DejaVuSans-65" d="M 3597 1894 
L 3597 1613 
L 953 1613 
Q 991 1019 1311 708 
Q 1631 397 2203 397 
Q 2534 397 2845 478 
Q 3156 559 3463 722 
L 3463 178 
Q 3153 47 2828 -22 
Q 2503 -91 2169 -91 
Q 1331 -91 842 396 
Q 353 884 353 1716 
Q 353 2575 817 3079 
Q 1281 3584 2069 3584 
Q 2775 3584 3186 3129 
Q 3597 2675 3597 1894 
z
M 3022 2063 
Q 3016 2534 2758 2815 
Q 2500 3097 2075 3097 
Q 1594 3097 1305 2825 
Q 1016 2553 972 2059 
L 3022 2063 
z
" transform="scale(0.015625)"/>
      <path id="DejaVuSans-48" d="M 628 4666 
L 1259 4666 
L 1259 2753 
L 3553 2753 
L 3553 4666 
L 4184 4666 
L 4184 0 
L 3553 0 
L 3553 2222 
L 1259 2222 
L 1259 0 
L 628 0 
L 628 4666 
z
" transform="scale(0.015625)"/>
      <path id="DejaVuSans-28" d="M 1984 4856 
Q 1566 4138 1362 3434 
Q 1159 2731 1159 2009 
Q 1159 1288 1364 580 
Q 1569 -128 1984 -844 
L 1484 -844 
Q 1016 -109 783 600 
Q 550 1309 550 2009 
Q 550 2706 781 3412 
Q 1013 4119 1484 4856 
L 1984 4856 
z
" transform="scale(0.015625)"/>
      <path id="DejaVuSans-6e" d="M 3513 2113 
L 3513 0 
L 2938 0 
L 2938 2094 
Q 2938 2591 2744 2837 
Q 2550 3084 2163 3084 
Q 1697 3084 1428 2787 
Q 1159 2491 1159 1978 
L 1159 0 
L 581 0 
L 581 3500 
L 1159 3500 
L 1159 2956 
Q 1366 3272 1645 3428 
Q 1925 3584 2291 3584 
Q 2894 3584 3203 3211 
Q 3513 2838 3513 2113 
z
" transform="scale(0.015625)"/>
      <path id="DejaVuSans-3d" d="M 678 2906 
L 4684 2906 
L 4684 2381 
L 678 2381 
L 678 2906 
z
M 678 1631 
L 4684 1631 
L 4684 1100 
L 678 1100 
L 678 1631 
z
" transform="scale(0.015625)"/>
      <path id="DejaVuSans-39" d="M 703 97 
L 703 672 
Q 941 559 1184 500 
Q 1428 441 1663 441 
Q 2288 441 2617 861 
Q 2947 1281 2994 2138 
Q 2813 1869 2534 1725 
Q 2256 1581 1919 1581 
Q 1219 1581 811 2004 
Q 403 2428 403 3163 
Q 403 3881 828 4315 
Q 1253 4750 1959 4750 
Q 2769 4750 3195 4129 
Q 3622 3509 3622 2328 
Q 3622 1225 3098 567 
Q 2575 -91 1691 -91 
Q 1453 -91 1209 -44 
Q 966 3 703 97 
z
M 1959 2075 
Q 2384 2075 2632 2365 
Q 2881 2656 2881 3163 
Q 2881 3666 2632 3958 
Q 2384 4250 1959 4250 
Q 1534 4250 1286 3958 
Q 1038 3666 1038 3163 
Q 1038 2656 1286 2365 
Q 1534 2075 1959 2075 
z
" transform="scale(0.015625)"/>
      <path id="DejaVuSans-2c" d="M 750 794 
L 1409 794 
L 1409 256 
L 897 -744 
L 494 -744 
L 750 256 
L 750 794 
z
" transform="scale(0.015625)"/>
      <path id="DejaVuSans-61" d="M 2194 1759 
Q 1497 1759 1228 1600 
Q 959 1441 959 1056 
Q 959 750 1161 570 
Q 1363 391 1709 391 
Q 2188 391 2477 730 
Q 2766 1069 2766 1631 
L 2766 1759 
L 2194 1759 
z
M 3341 1997 
L 3341 0 
L 2766 0 
L 2766 531 
Q 2569 213 2275 61 
Q 1981 -91 1556 -91 
Q 1019 -91 701 211 
Q 384 513 384 1019 
Q 384 1609 779 1909 
Q 1175 2209 1959 2209 
L 2766 2209 
L 2766 2266 
Q 2766 2663 2505 2880 
Q 2244 3097 1772 3097 
Q 1472 3097 1187 3025 
Q 903 2953 641 2809 
L 641 3341 
Q 956 3463 1253 3523 
Q 1550 3584 1831 3584 
Q 2591 3584 2966 3190 
Q 3341 2797 3341 1997 
z
" transform="scale(0.015625)"/>
      <path id="DejaVuSans-51" d="M 2522 4238 
Q 1834 4238 1429 3725 
Q 1025 3213 1025 2328 
Q 1025 1447 1429 934 
Q 1834 422 2522 422 
Q 3209 422 3611 934 
Q 4013 1447 4013 2328 
Q 4013 3213 3611 3725 
Q 3209 4238 2522 4238 
z
M 3406 84 
L 4238 -825 
L 3475 -825 
L 2784 -78 
Q 2681 -84 2626 -87 
Q 2572 -91 2522 -91 
Q 1538 -91 948 567 
Q 359 1225 359 2328 
Q 359 3434 948 4092 
Q 1538 4750 2522 4750 
Q 3503 4750 4090 4092 
Q 4678 3434 4678 2328 
Q 4678 1516 4351 937 
Q 4025 359 3406 84 
z
" transform="scale(0.015625)"/>
      <path id="DejaVuSans-38" d="M 2034 2216 
Q 1584 2216 1326 1975 
Q 1069 1734 1069 1313 
Q 1069 891 1326 650 
Q 1584 409 2034 409 
Q 2484 409 2743 651 
Q 3003 894 3003 1313 
Q 3003 1734 2745 1975 
Q 2488 2216 2034 2216 
z
M 1403 2484 
Q 997 2584 770 2862 
Q 544 3141 544 3541 
Q 544 4100 942 4425 
Q 1341 4750 2034 4750 
Q 2731 4750 3128 4425 
Q 3525 4100 3525 3541 
Q 3525 3141 3298 2862 
Q 3072 2584 2669 2484 
Q 3125 2378 3379 2068 
Q 3634 1759 3634 1313 
Q 3634 634 3220 271 
Q 2806 -91 2034 -91 
Q 1263 -91 848 271 
Q 434 634 434 1313 
Q 434 1759 690 2068 
Q 947 2378 1403 2484 
z
M 1172 3481 
Q 1172 3119 1398 2916 
Q 1625 2713 2034 2713 
Q 2441 2713 2670 2916 
Q 2900 3119 2900 3481 
Q 2900 3844 2670 4047 
Q 2441 4250 2034 4250 
Q 1625 4250 1398 4047 
Q 1172 3844 1172 3481 
z
" transform="scale(0.015625)"/>
      <path id="DejaVuSans-2e" d="M 684 794 
L 1344 794 
L 1344 0 
L 684 0 
L 684 794 
z
" transform="scale(0.015625)"/>
      <path id="DejaVuSans-29" d="M 513 4856 
L 1013 4856 
Q 1481 4119 1714 3412 
Q 1947 2706 1947 2009 
Q 1947 1309 1714 600 
Q 1481 -109 1013 -844 
L 513 -844 
Q 928 -128 1133 580 
Q 1338 1288 1338 2009 
Q 1338 2731 1133 3434 
Q 928 4138 513 4856 
z
" transform="scale(0.015625)"/>
     </defs>
     <use xlink:href="#DejaVuSans-41"/>
     <use xlink:href="#DejaVuSans-74" transform="translate(66.658203 0)"/>
     <use xlink:href="#DejaVuSans-6f" transform="translate(105.867188 0)"/>
     <use xlink:href="#DejaVuSans-6d" transform="translate(167.048828 0)"/>
     <use xlink:href="#DejaVuSans-20" transform="translate(264.460938 0)"/>
     <use xlink:href="#DejaVuSans-54" transform="translate(296.248047 0)"/>
     <use xlink:href="#DejaVuSans-79" transform="translate(341.707031 0)"/>
     <use xlink:href="#DejaVuSans-70" transform="translate(400.886719 0)"/>
     <use xlink:href="#DejaVuSans-65" transform="translate(464.363281 0)"/>
     <use xlink:href="#DejaVuSans-20" transform="translate(525.886719 0)"/>
     <use xlink:href="#DejaVuSans-48" transform="translate(557.673828 0)"/>
     <use xlink:href="#DejaVuSans-20" transform="translate(632.869141 0)"/>
     <use xlink:href="#DejaVuSans-28" transform="translate(664.65625 0)"/>
     <use xlink:href="#DejaVuSans-6e" transform="translate(703.669922 0)"/>
     <use xlink:href="#DejaVuSans-3d" transform="translate(767.048828 0)"/>
     <use xlink:href="#DejaVuSans-39" transform="translate(850.837891 0)"/>
     <use xlink:href="#DejaVuSans-30" transform="translate(914.460938 0)"/>
     <use xlink:href="#DejaVuSans-2c" transform="translate(978.083984 0)"/>
     <use xlink:href="#DejaVuSans-20" transform="translate(1009.871094 0)"/>
     <use xlink:href="#DejaVuSans-6d" transform="translate(1041.658203 0)"/>
     <use xlink:href="#DejaVuSans-65" transform="translate(1139.070312 0)"/>
     <use xlink:href="#DejaVuSans-61" transform="translate(1200.59375 0)"/>
     <use xlink:href="#DejaVuSans-6e" transform="translate(1261.873047 0)"/>
     <use xlink:href="#DejaVuSans-20" transform="translate(1325.251953 0)"/>
     <use xlink:href="#DejaVuSans-51" transform="translate(1357.039062 0)"/>
     <use xlink:href="#DejaVuSans-3d" transform="translate(1435.75 0)"/>
     <use xlink:href="#DejaVuSans-38" transform="translate(1519.539062 0)"/>
     <use xlink:href="#DejaVuSans-2e" transform="translate(1583.162109 0)"/>
     <use xlink:href="#DejaVuSans-39" transform="translate(1614.949219 0)"/>
     <use xlink:href="#DejaVuSans-39" transform="translate(1678.572266 0)"/>
     <use xlink:href="#DejaVuSans-29" transform="translate(1742.195312 0)"/>
    </g>
   </g>
  </g>
 </g>
 <defs>
  <clipPath id="p4e8c4f97a7">
   <rect x="57.6" y="41.472" width="357.12" height="266.112"/>
  </clipPath>
 </defs>
</svg>
