<?xml version="1.0" encoding="utf-8" standalone="no"?>
<!DOCTYPE svg PUBLIC "-//W3C//DTD SVG 1.1//EN"
  "http://www.w3.org/Graphics/SVG/1.1/DTD/svg11.dtd">
<svg xmlns:xlink="http://www.w3.org/1999/xlink" width="460.8pt" height="345.6pt" viewBox="0 0 460.8 345.6" xmlns="http://www.w3.org/2000/svg" version="1.1">
 <metadata>
  <rdf:RDF xmlns:dc="http://purl.org/dc/elements/1.1/" xmlns:cc="http://creativecommons.org/ns#" xmlns:rdf="http://www.w3.org/1999/02/22-rdf-syntax-ns#">
   <cc:Work>
    <dc:type rdf:resource="http://purl.org/dc/dcmitype/StillImage"/>
    <dc:date>2025-12-10T13:56:05.420153</dc:date>
    <dc:format>image/svg+xml</dc:format>
    <dc:creator>
     <cc:Agent>
      <dc:title>Matplotlib v3.10.3, https://matplotlib.org/</dc:title>
     </cc:Agent>
    </dc:creator>
   </cc:Work>
  </rdf:RDF>
 </metadata>
 <defs>
  <style type="text/css">*{stroke-linejoin: round; stroke-linecap: butt}</style>
 </defs>
 <g id="figure_1">
  <g id="patch_1">
   <path d="M 0 345.6 
L 460.8 345.6 
L 460.8 0 
L 0 0 
z
" style="fill: #ffffff"/>
  </g>
  <g id="axes_1">
   <g id="patch_2">
    <path d="M 57.6 307.584 
L 414.72 307.584 
L 414.72 41.472 
L 57.6 41.472 
z
" style="fill: #ffffff"/>
   </g>
   <g id="matplotlib.axis_1">
    <g id="xtick_1">
     <g id="line2d_1">
      <defs>
       <path id="m0ada2638b8" d="M 0 0 
L 0 3.5 
" style="stroke: #000000; stroke-width: 0.8"/>
      </defs>
      <g>
       <use xlink:href="#m0ada2638b8" x="73.832727" y="307.584" style="stroke: #000000; stroke-width: 0.8"/>
      </g>
     </g>
     <g id="text_1">
      <!-- 0 -->
      <g transform="translate(69.060852 325.981656) scale(0.15 -0.15)">
       <defs>
        <path id="DejaVuSans-30" d="M 2034 4250 
Q 1547 4250 1301 3770 
Q 1056 3291 1056 2328 
Q 1056 1369 1301 889 
Q 1547 409 2034 409 
Q 2525 409 2770 889 
Q 3016 1369 3016 2328 
Q 3016 3291 2770 3770 
Q 2525 4250 2034 4250 
z
M 2034 4750 
Q 2819 4750 3233 4129 
Q 3647 3509 3647 2328 
Q 3647 1150 3233 529 
Q 2819 -91 2034 -91 
Q 1250 -91 836 529 
Q 422 1150 422 2328 
Q 422 3509 836 4129 
Q 1250 4750 2034 4750 
z
" transform="scale(0.015625)"/>
       </defs>
       <use xlink:href="#DejaVuSans-30"/>
      </g>
     </g>
    </g>
    <g id="xtick_2">
     <g id="line2d_2">
      <g>
       <use xlink:href="#m0ada2638b8" x="154.996364" y="307.584" style="stroke: #000000; stroke-width: 0.8"/>
      </g>
     </g>
     <g id="text_2">
      <!-- 5 -->
      <g transform="translate(150.224489 325.981656) scale(0.15 -0.15)">
       <defs>
        <path id="DejaVuSans-35" d="M 691 4666 
L 3169 4666 
L 3169 4134 
L 1269 4134 
L 1269 2991 
Q 1406 3038 1543 3061 
Q 1681 3084 1819 3084 
Q 2600 3084 3056 2656 
Q 3513 2228 3513 1497 
Q 3513 744 3044 326 
Q 2575 -91 1722 -91 
Q 1428 -91 1123 -41 
Q 819 9 494 109 
L 494 744 
Q 775 591 1075 516 
Q 1375 441 1709 441 
Q 2250 441 2565 725 
Q 2881 1009 2881 1497 
Q 2881 1984 2565 2268 
Q 2250 2553 1709 2553 
Q 1456 2553 1204 2497 
Q 953 2441 691 2322 
L 691 4666 
z
" transform="scale(0.015625)"/>
       </defs>
       <use xlink:href="#DejaVuSans-35"/>
      </g>
     </g>
    </g>
    <g id="xtick_3">
     <g id="line2d_3">
      <g>
       <use xlink:href="#m0ada2638b8" x="236.16" y="307.584" style="stroke: #000000; stroke-width: 0.8"/>
      </g>
     </g>
     <g id="text_3">
      <!-- 10 -->
      <g transform="translate(226.61625 325.981656) scale(0.15 -0.15)">
       <defs>
        <path id="DejaVuSans-31" d="M 794 531 
L 1825 531 
L 1825 4091 
L 703 3866 
L 703 4441 
L 1819 4666 
L 2450 4666 
L 2450 531 
L 3481 531 
L 3481 0 
L 794 0 
L 794 531 
z
" transform="scale(0.015625)"/>
       </defs>
       <use xlink:href="#DejaVuSans-31"/>
       <use xlink:href="#DejaVuSans-30" transform="translate(63.623047 0)"/>
      </g>
     </g>
    </g>
    <g id="xtick_4">
     <g id="line2d_4">
      <g>
       <use xlink:href="#m0ada2638b8" x="317.323636" y="307.584" style="stroke: #000000; stroke-width: 0.8"/>
      </g>
     </g>
     <g id="text_4">
      <!-- 15 -->
      <g transform="translate(307.779886 325.981656) scale(0.15 -0.15)">
       <use xlink:href="#DejaVuSans-31"/>
       <use xlink:href="#DejaVuSans-35" transform="translate(63.623047 0)"/>
      </g>
     </g>
    </g>
    <g id="xtick_5">
     <g id="line2d_5">
      <g>
       <use xlink:href="#m0ada2638b8" x="398.487273" y="307.584" style="stroke: #000000; stroke-width: 0.8"/>
      </g>
     </g>
     <g id="text_5">
      <!-- 20 -->
      <g transform="translate(388.943523 325.981656) scale(0.15 -0.15)">
       <defs>
        <path id="DejaVuSans-32" d="M 1228 531 
L 3431 531 
L 3431 0 
L 469 0 
L 469 531 
Q 828 903 1448 1529 
Q 2069 2156 2228 2338 
Q 2531 2678 2651 2914 
Q 2772 3150 2772 3378 
Q 2772 3750 2511 3984 
Q 2250 4219 1831 4219 
Q 1534 4219 1204 4116 
Q 875 4013 500 3803 
L 500 4441 
Q 881 4594 1212 4672 
Q 1544 4750 1819 4750 
Q 2544 4750 2975 4387 
Q 3406 4025 3406 3419 
Q 3406 3131 3298 2873 
Q 3191 2616 2906 2266 
Q 2828 2175 2409 1742 
Q 1991 1309 1228 531 
z
" transform="scale(0.015625)"/>
       </defs>
       <use xlink:href="#DejaVuSans-32"/>
       <use xlink:href="#DejaVuSans-30" transform="translate(63.623047 0)"/>
      </g>
     </g>
    </g>
   </g>
   <g id="matplotlib.axis_2">
    <g id="ytick_1">
     <g id="line2d_6">
      <defs>
       <path id="mb3ff08b484" d="M 0 0 
L -3.5 0 
" style="stroke: #000000; stroke-width: 0.8"/>
      </defs>
      <g>
       <use xlink:href="#mb3ff08b484" x="57.6" y="305.799203" style="stroke: #000000; stroke-width: 0.8"/>
      </g>
     </g>
     <g id="text_6">
      <!-- 2.5 -->
      <g transform="translate(26.745313 311.498031) scale(0.15 -0.15)">
       <defs>
        <path id="DejaVuSans-2e" d="M 684 794 
L 1344 794 
L 1344 0 
L 684 0 
L 684 794 
z
" transform="scale(0.015625)"/>
       </defs>
       <use xlink:href="#DejaVuSans-32"/>
       <use xlink:href="#DejaVuSans-2e" transform="translate(63.623047 0)"/>
       <use xlink:href="#DejaVuSans-35" transform="translate(95.410156 0)"/>
      </g>
     </g>
    </g>
    <g id="ytick_2">
     <g id="line2d_7">
      <g>
       <use xlink:href="#mb3ff08b484" x="57.6" y="266.77465" style="stroke: #000000; stroke-width: 0.8"/>
      </g>
     </g>
     <g id="text_7">
      <!-- 5.0 -->
      <g transform="translate(26.745313 272.473478) scale(0.15 -0.15)">
       <use xlink:href="#DejaVuSans-35"/>
       <use xlink:href="#DejaVuSans-2e" transform="translate(63.623047 0)"/>
       <use xlink:href="#DejaVuSans-30" transform="translate(95.410156 0)"/>
      </g>
     </g>
    </g>
    <g id="ytick_3">
     <g id="line2d_8">
      <g>
       <use xlink:href="#mb3ff08b484" x="57.6" y="227.750098" style="stroke: #000000; stroke-width: 0.8"/>
      </g>
     </g>
     <g id="text_8">
      <!-- 7.5 -->
      <g transform="translate(26.745313 233.448926) scale(0.15 -0.15)">
       <defs>
        <path id="DejaVuSans-37" d="M 525 4666 
L 3525 4666 
L 3525 4397 
L 1831 0 
L 1172 0 
L 2766 4134 
L 525 4134 
L 525 4666 
z
" transform="scale(0.015625)"/>
       </defs>
       <use xlink:href="#DejaVuSans-37"/>
       <use xlink:href="#DejaVuSans-2e" transform="translate(63.623047 0)"/>
       <use xlink:href="#DejaVuSans-35" transform="translate(95.410156 0)"/>
      </g>
     </g>
    </g>
    <g id="ytick_4">
     <g id="line2d_9">
      <g>
       <use xlink:href="#mb3ff08b484" x="57.6" y="188.725545" style="stroke: #000000; stroke-width: 0.8"/>
      </g>
     </g>
     <g id="text_9">
      <!-- 10.0 -->
      <g transform="translate(17.201563 194.424373) scale(0.15 -0.15)">
       <use xlink:href="#DejaVuSans-31"/>
       <use xlink:href="#DejaVuSans-30" transform="translate(63.623047 0)"/>
       <use xlink:href="#DejaVuSans-2e" transform="translate(127.246094 0)"/>
       <use xlink:href="#DejaVuSans-30" transform="translate(159.033203 0)"/>
      </g>
     </g>
    </g>
    <g id="ytick_5">
     <g id="line2d_10">
      <g>
       <use xlink:href="#mb3ff08b484" x="57.6" y="149.700993" style="stroke: #000000; stroke-width: 0.8"/>
      </g>
     </g>
     <g id="text_10">
      <!-- 12.5 -->
      <g transform="translate(17.201563 155.399821) scale(0.15 -0.15)">
       <use xlink:href="#DejaVuSans-31"/>
       <use xlink:href="#DejaVuSans-32" transform="translate(63.623047 0)"/>
       <use xlink:href="#DejaVuSans-2e" transform="translate(127.246094 0)"/>
       <use xlink:href="#DejaVuSans-35" transform="translate(159.033203 0)"/>
      </g>
     </g>
    </g>
    <g id="ytick_6">
     <g id="line2d_11">
      <g>
       <use xlink:href="#mb3ff08b484" x="57.6" y="110.67644" style="stroke: #000000; stroke-width: 0.8"/>
      </g>
     </g>
     <g id="text_11">
      <!-- 15.0 -->
      <g transform="translate(17.201563 116.375268) scale(0.15 -0.15)">
       <use xlink:href="#DejaVuSans-31"/>
       <use xlink:href="#DejaVuSans-35" transform="translate(63.623047 0)"/>
       <use xlink:href="#DejaVuSans-2e" transform="translate(127.246094 0)"/>
       <use xlink:href="#DejaVuSans-30" transform="translate(159.033203 0)"/>
      </g>
     </g>
    </g>
    <g id="ytick_7">
     <g id="line2d_12">
      <g>
       <use xlink:href="#mb3ff08b484" x="57.6" y="71.651887" style="stroke: #000000; stroke-width: 0.8"/>
      </g>
     </g>
     <g id="text_12">
      <!-- 17.5 -->
      <g transform="translate(17.201563 77.350716) scale(0.15 -0.15)">
       <use xlink:href="#DejaVuSans-31"/>
       <use xlink:href="#DejaVuSans-37" transform="translate(63.623047 0)"/>
       <use xlink:href="#DejaVuSans-2e" transform="translate(127.246094 0)"/>
       <use xlink:href="#DejaVuSans-35" transform="translate(159.033203 0)"/>
      </g>
     </g>
    </g>
   </g>
   <g id="line2d_13">
    <path d="M 73.832727 170.39412 
L 90.065455 133.588364 
L 106.298182 196.419034 
L 122.530909 181.003188 
L 138.763636 216.933112 
L 154.996364 176.056663 
L 171.229091 187.38799 
L 187.461818 157.963463 
L 203.694545 146.139144 
L 219.927273 75.901089 
L 236.16 121.921514 
L 252.392727 174.928522 
L 268.625455 159.325065 
L 284.858182 195.602572 
L 301.090909 154.548735 
L 317.323636 156.143292 
L 333.556364 181.448789 
L 349.789091 166.181078 
L 366.021818 165.787422 
L 382.254545 182.810099 
L 398.487273 190.938629 
" clip-path="url(#pe0c0803720)" style="fill: none; stroke: #35b779; stroke-opacity: 0.5; stroke-width: 1.5; stroke-linecap: square"/>
   </g>
   <g id="line2d_14">
    <path d="M 73.832727 226.211528 
L 90.065455 125.395758 
L 106.298182 150.531569 
L 122.530909 163.096582 
L 138.763636 59.755615 
L 154.996364 185.949008 
L 171.229091 164.464 
L 187.461818 220.013078 
L 203.694545 206.283756 
L 219.927273 225.803872 
L 236.16 191.027202 
L 252.392727 201.376667 
L 268.625455 167.047033 
L 284.858182 210.807643 
L 301.090909 224.736345 
L 317.323636 135.495168 
L 333.556364 169.165912 
L 349.789091 164.910699 
L 366.021818 203.476065 
L 382.254545 177.983098 
L 398.487273 195.985975 
" clip-path="url(#pe0c0803720)" style="fill: none; stroke: #35b779; stroke-opacity: 0.5; stroke-width: 1.5; stroke-linecap: square"/>
   </g>
   <g id="line2d_15">
    <path d="M 73.832727 171.54193 
L 90.065455 188.724761 
L 106.298182 154.332272 
L 122.530909 176.014164 
L 138.763636 166.354065 
L 154.996364 183.994394 
L 171.229091 165.249944 
L 187.461818 67.135261 
L 203.694545 127.867513 
L 219.927273 101.37974 
L 236.16 155.639814 
L 252.392727 165.782773 
L 268.625455 146.02382 
L 284.858182 188.886451 
L 301.090909 198.755792 
L 317.323636 181.350142 
L 333.556364 129.891066 
L 349.789091 150.010051 
L 366.021818 144.583362 
L 382.254545 154.308928 
L 398.487273 157.501384 
" clip-path="url(#pe0c0803720)" style="fill: none; stroke: #35b779; stroke-opacity: 0.5; stroke-width: 1.5; stroke-linecap: square"/>
   </g>
   <g id="line2d_16">
    <path d="M 73.832727 175.396277 
L 90.065455 145.127948 
L 106.298182 262.156099 
L 122.530909 200.183115 
L 138.763636 235.619962 
L 154.996364 135.729742 
L 171.229091 140.719915 
L 187.461818 141.98766 
L 203.694545 251.392286 
L 219.927273 237.329806 
L 236.16 211.698096 
L 252.392727 229.827073 
L 268.625455 230.526324 
L 284.858182 215.913877 
L 301.090909 272.20281 
L 317.323636 271.113589 
L 333.556364 270.309374 
L 349.789091 251.872178 
L 366.021818 238.097578 
L 382.254545 286.557065 
L 398.487273 247.057119 
" clip-path="url(#pe0c0803720)" style="fill: none; stroke: #35b779; stroke-opacity: 0.5; stroke-width: 1.5; stroke-linecap: square"/>
   </g>
   <g id="line2d_17">
    <path d="M 73.832727 270.246662 
L 90.065455 281.653364 
L 106.298182 265.475364 
L 122.530909 282.494396 
L 138.763636 228.050224 
L 154.996364 205.561674 
L 171.229091 203.557763 
L 187.461818 221.355267 
L 203.694545 244.605664 
L 219.927273 227.835516 
L 236.16 184.765364 
L 252.392727 168.657776 
L 268.625455 198.448243 
L 284.858182 163.525055 
L 301.090909 242.653198 
L 317.323636 193.069197 
L 333.556364 192.809264 
L 349.789091 228.480595 
L 366.021818 216.301196 
L 382.254545 185.008204 
L 398.487273 182.371397 
" clip-path="url(#pe0c0803720)" style="fill: none; stroke: #35b779; stroke-opacity: 0.5; stroke-width: 1.5; stroke-linecap: square"/>
   </g>
   <g id="line2d_18">
    <path d="M 73.832727 179.573562 
L 90.065455 201.57335 
L 106.298182 182.04614 
L 122.530909 198.752517 
L 138.763636 211.431799 
L 154.996364 208.963117 
L 171.229091 211.246746 
L 187.461818 255.546388 
L 203.694545 228.236017 
L 219.927273 241.624817 
L 236.16 221.990782 
L 252.392727 243.37679 
L 268.625455 148.702319 
L 284.858182 227.14827 
L 301.090909 214.530488 
L 317.323636 228.257515 
L 333.556364 240.506781 
L 349.789091 198.007319 
L 366.021818 204.197659 
L 382.254545 253.551102 
L 398.487273 215.822532 
" clip-path="url(#pe0c0803720)" style="fill: none; stroke: #35b779; stroke-opacity: 0.5; stroke-width: 1.5; stroke-linecap: square"/>
   </g>
   <g id="line2d_19">
    <path d="M 73.832727 213.707766 
L 90.065455 187.193938 
L 106.298182 174.527376 
L 122.530909 188.897469 
L 138.763636 166.327716 
L 154.996364 135.388334 
L 171.229091 150.477658 
L 187.461818 233.119643 
L 203.694545 251.867063 
L 219.927273 265.260682 
L 236.16 282.855311 
L 252.392727 243.481243 
L 268.625455 265.755454 
L 284.858182 268.519328 
L 301.090909 286.237381 
L 317.323636 266.634536 
L 333.556364 268.51853 
L 349.789091 284.526419 
L 366.021818 278.343814 
L 382.254545 290.620757 
L 398.487273 270.228773 
" clip-path="url(#pe0c0803720)" style="fill: none; stroke: #35b779; stroke-opacity: 0.5; stroke-width: 1.5; stroke-linecap: square"/>
   </g>
   <g id="line2d_20">
    <path d="M 73.832727 214.866744 
L 90.065455 243.97518 
L 106.298182 239.67314 
L 122.530909 243.213197 
L 138.763636 196.72843 
L 154.996364 117.369624 
L 171.229091 160.523845 
L 187.461818 162.047959 
L 203.694545 203.744492 
L 219.927273 151.05411 
L 236.16 243.735355 
L 252.392727 236.415002 
L 268.625455 229.278206 
L 284.858182 202.27074 
L 301.090909 230.744566 
L 317.323636 223.137444 
L 333.556364 206.094567 
L 349.789091 208.501809 
L 366.021818 233.991726 
L 382.254545 220.589318 
L 398.487273 264.490426 
" clip-path="url(#pe0c0803720)" style="fill: none; stroke: #35b779; stroke-opacity: 0.5; stroke-width: 1.5; stroke-linecap: square"/>
   </g>
   <g id="line2d_21">
    <path d="M 73.832727 215.444101 
L 90.065455 201.164742 
L 106.298182 237.02684 
L 122.530909 242.076144 
L 138.763636 270.035224 
L 154.996364 243.132511 
L 171.229091 253.897719 
L 187.461818 233.57608 
L 203.694545 266.9821 
L 219.927273 227.162818 
L 236.16 263.361712 
L 252.392727 226.001277 
L 268.625455 265.13163 
L 284.858182 260.943689 
L 301.090909 265.164147 
L 317.323636 230.277774 
L 333.556364 239.963082 
L 349.789091 236.852807 
L 366.021818 242.766196 
L 382.254545 232.763061 
L 398.487273 277.081049 
" clip-path="url(#pe0c0803720)" style="fill: none; stroke: #35b779; stroke-opacity: 0.5; stroke-width: 1.5; stroke-linecap: square"/>
   </g>
   <g id="line2d_22">
    <path d="M 73.832727 165.92872 
L 90.065455 115.53747 
L 106.298182 167.833613 
L 122.530909 85.263553 
L 138.763636 142.86304 
L 154.996364 222.562288 
L 171.229091 199.593531 
L 187.461818 214.029157 
L 203.694545 225.351682 
L 219.927273 175.726026 
L 236.16 195.350123 
L 252.392727 193.212319 
L 268.625455 251.498592 
L 284.858182 221.946115 
L 301.090909 196.07072 
L 317.323636 197.96921 
L 333.556364 190.864163 
L 349.789091 207.182836 
L 366.021818 188.656842 
L 382.254545 207.683333 
L 398.487273 191.281363 
" clip-path="url(#pe0c0803720)" style="fill: none; stroke: #35b779; stroke-opacity: 0.5; stroke-width: 1.5; stroke-linecap: square"/>
   </g>
   <g id="line2d_23">
    <path d="M 73.832727 231.982988 
L 90.065455 192.044378 
L 106.298182 252.471959 
L 122.530909 201.426383 
L 138.763636 239.699584 
L 154.996364 231.293257 
L 171.229091 217.528668 
L 187.461818 221.99239 
L 203.694545 230.069168 
L 219.927273 167.515957 
L 236.16 243.594115 
L 252.392727 220.536614 
L 268.625455 267.170349 
L 284.858182 239.213917 
L 301.090909 238.078559 
L 317.323636 233.515001 
L 333.556364 261.070088 
L 349.789091 273.888052 
L 366.021818 273.17571 
L 382.254545 237.438841 
L 398.487273 208.42658 
" clip-path="url(#pe0c0803720)" style="fill: none; stroke: #35b779; stroke-opacity: 0.5; stroke-width: 1.5; stroke-linecap: square"/>
   </g>
   <g id="line2d_24">
    <path d="M 73.832727 294.871715 
L 90.065455 240.832311 
L 106.298182 256.424411 
L 122.530909 269.875712 
L 138.763636 291.696607 
L 154.996364 290.948063 
L 171.229091 295.488 
L 187.461818 261.082593 
L 203.694545 210.699608 
L 219.927273 209.764031 
L 236.16 198.100906 
L 252.392727 236.626394 
L 268.625455 232.415396 
L 284.858182 201.885061 
L 301.090909 209.435483 
L 317.323636 188.391634 
L 333.556364 181.864217 
L 349.789091 189.72224 
L 366.021818 188.080787 
L 382.254545 208.45541 
L 398.487273 202.515452 
" clip-path="url(#pe0c0803720)" style="fill: none; stroke: #35b779; stroke-opacity: 0.5; stroke-width: 1.5; stroke-linecap: square"/>
   </g>
   <g id="line2d_25">
    <path d="M 73.832727 204.806343 
L 90.065455 205.609764 
L 106.298182 208.181269 
L 122.530909 223.976664 
L 138.763636 190.74253 
L 154.996364 231.853906 
L 171.229091 195.910869 
L 187.461818 173.009819 
L 203.694545 277.037789 
L 219.927273 230.224996 
L 236.16 220.928376 
L 252.392727 214.483366 
L 268.625455 204.500487 
L 284.858182 223.633967 
L 301.090909 202.70075 
L 317.323636 156.222947 
L 333.556364 167.684285 
L 349.789091 177.86435 
L 366.021818 205.885191 
L 382.254545 223.523997 
L 398.487273 217.848596 
" clip-path="url(#pe0c0803720)" style="fill: none; stroke: #35b779; stroke-opacity: 0.5; stroke-width: 1.5; stroke-linecap: square"/>
   </g>
   <g id="line2d_26">
    <path d="M 73.832727 212.618547 
L 90.065455 251.340043 
L 106.298182 234.423871 
L 122.530909 254.099967 
L 138.763636 203.46287 
L 154.996364 248.102374 
L 171.229091 208.8029 
L 187.461818 276.876807 
L 203.694545 278.904048 
L 219.927273 246.628596 
L 236.16 219.073014 
L 252.392727 251.59819 
L 268.625455 259.385323 
L 284.858182 259.785586 
L 301.090909 250.116876 
L 317.323636 245.267118 
L 333.556364 196.425467 
L 349.789091 230.526433 
L 366.021818 222.274667 
L 382.254545 257.682528 
L 398.487273 240.970561 
" clip-path="url(#pe0c0803720)" style="fill: none; stroke: #35b779; stroke-opacity: 0.5; stroke-width: 1.5; stroke-linecap: square"/>
   </g>
   <g id="line2d_27">
    <path d="M 73.832727 169.047289 
L 90.065455 259.251037 
L 106.298182 264.968342 
L 122.530909 263.037846 
L 138.763636 260.528699 
L 154.996364 264.987412 
L 171.229091 272.19877 
L 187.461818 253.198988 
L 203.694545 228.769912 
L 219.927273 257.573792 
L 236.16 280.809042 
L 252.392727 246.815257 
L 268.625455 258.303069 
L 284.858182 243.057473 
L 301.090909 255.996312 
L 317.323636 206.056502 
L 333.556364 225.033883 
L 349.789091 146.637377 
L 366.021818 232.23338 
L 382.254545 186.917372 
L 398.487273 258.675111 
" clip-path="url(#pe0c0803720)" style="fill: none; stroke: #35b779; stroke-opacity: 0.5; stroke-width: 1.5; stroke-linecap: square"/>
   </g>
   <g id="line2d_28">
    <path d="M 73.832727 238.707606 
L 90.065455 245.252592 
L 106.298182 252.19001 
L 122.530909 210.320018 
L 138.763636 282.084046 
L 154.996364 279.15527 
L 171.229091 271.532672 
L 187.461818 249.365542 
L 203.694545 247.170076 
L 219.927273 257.109871 
L 236.16 271.728908 
L 252.392727 277.770384 
L 268.625455 293.937371 
L 284.858182 234.990957 
L 301.090909 250.732726 
L 317.323636 266.336232 
L 333.556364 240.521408 
L 349.789091 279.455057 
L 366.021818 260.211038 
L 382.254545 269.926215 
L 398.487273 277.364483 
" clip-path="url(#pe0c0803720)" style="fill: none; stroke: #35b779; stroke-opacity: 0.5; stroke-width: 1.5; stroke-linecap: square"/>
   </g>
   <g id="line2d_29">
    <path d="M 73.832727 207.698566 
L 90.065455 170.945202 
L 106.298182 187.243922 
L 122.530909 185.413426 
L 138.763636 186.562219 
L 154.996364 182.888431 
L 171.229091 178.743934 
L 187.461818 175.542462 
L 203.694545 222.177162 
L 219.927273 196.980994 
L 236.16 167.954993 
L 252.392727 162.391784 
L 268.625455 207.633754 
L 284.858182 220.320431 
L 301.090909 234.081151 
L 317.323636 232.826378 
L 333.556364 236.714291 
L 349.789091 253.776509 
L 366.021818 253.283157 
L 382.254545 260.502561 
L 398.487273 250.3201 
" clip-path="url(#pe0c0803720)" style="fill: none; stroke: #35b779; stroke-opacity: 0.5; stroke-width: 1.5; stroke-linecap: square"/>
   </g>
   <g id="line2d_30">
    <path d="M 73.832727 202.538222 
L 90.065455 164.048639 
L 106.298182 181.934757 
L 122.530909 150.669435 
L 138.763636 184.829711 
L 154.996364 248.033934 
L 171.229091 217.539959 
L 187.461818 208.878731 
L 203.694545 196.702689 
L 219.927273 191.388428 
L 236.16 186.423283 
L 252.392727 177.304119 
L 268.625455 243.837392 
L 284.858182 194.811111 
L 301.090909 273.860766 
L 317.323636 205.646155 
L 333.556364 203.460877 
L 349.789091 233.578233 
L 366.021818 238.161516 
L 382.254545 177.167569 
L 398.487273 180.883907 
" clip-path="url(#pe0c0803720)" style="fill: none; stroke: #35b779; stroke-opacity: 0.5; stroke-width: 1.5; stroke-linecap: square"/>
   </g>
   <g id="line2d_31">
    <path d="M 73.832727 287.873874 
L 90.065455 276.738031 
L 106.298182 271.3919 
L 122.530909 275.181297 
L 138.763636 280.65857 
L 154.996364 283.370862 
L 171.229091 261.097824 
L 187.461818 285.170271 
L 203.694545 274.610233 
L 219.927273 249.335203 
L 236.16 236.247294 
L 252.392727 237.825275 
L 268.625455 268.54103 
L 284.858182 282.611986 
L 301.090909 261.97618 
L 317.323636 252.832129 
L 333.556364 242.056095 
L 349.789091 271.421294 
L 366.021818 268.827307 
L 382.254545 268.249139 
L 398.487273 290.458894 
" clip-path="url(#pe0c0803720)" style="fill: none; stroke: #35b779; stroke-opacity: 0.5; stroke-width: 1.5; stroke-linecap: square"/>
   </g>
   <g id="line2d_32">
    <path d="M 73.832727 181.597641 
L 90.065455 222.967002 
L 106.298182 214.177608 
L 122.530909 213.529311 
L 138.763636 215.393351 
L 154.996364 261.20131 
L 171.229091 244.281028 
L 187.461818 242.202523 
L 203.694545 234.600234 
L 219.927273 216.041798 
L 236.16 255.9042 
L 252.392727 266.104723 
L 268.625455 175.996966 
L 284.858182 193.245076 
L 301.090909 220.242441 
L 317.323636 194.07271 
L 333.556364 202.086638 
L 349.789091 208.542263 
L 366.021818 248.782567 
L 382.254545 212.863723 
L 398.487273 213.639556 
" clip-path="url(#pe0c0803720)" style="fill: none; stroke: #35b779; stroke-opacity: 0.5; stroke-width: 1.5; stroke-linecap: square"/>
   </g>
   <g id="line2d_33">
    <path d="M 73.832727 258.21258 
L 90.065455 242.05877 
L 106.298182 256.851404 
L 122.530909 214.619237 
L 138.763636 267.99623 
L 154.996364 253.542956 
L 171.229091 252.750395 
L 187.461818 260.504892 
L 203.694545 282.818209 
L 219.927273 270.906536 
L 236.16 254.046889 
L 252.392727 267.683763 
L 268.625455 284.675193 
L 284.858182 250.223217 
L 301.090909 281.692686 
L 317.323636 230.871874 
L 333.556364 243.826928 
L 349.789091 244.923755 
L 366.021818 291.132267 
L 382.254545 258.958405 
L 398.487273 241.536673 
" clip-path="url(#pe0c0803720)" style="fill: none; stroke: #35b779; stroke-opacity: 0.5; stroke-width: 1.5; stroke-linecap: square"/>
   </g>
   <g id="line2d_34">
    <path d="M 73.832727 195.678551 
L 90.065455 211.787872 
L 106.298182 191.615327 
L 122.530909 223.506635 
L 138.763636 215.652395 
L 154.996364 246.116814 
L 171.229091 236.049378 
L 187.461818 187.781527 
L 203.694545 122.423546 
L 219.927273 243.613329 
L 236.16 238.140525 
L 252.392727 249.287608 
L 268.625455 252.126774 
L 284.858182 260.173245 
L 301.090909 239.249799 
L 317.323636 207.973944 
L 333.556364 189.809372 
L 349.789091 210.964858 
L 366.021818 186.090373 
L 382.254545 201.731578 
L 398.487273 183.230135 
" clip-path="url(#pe0c0803720)" style="fill: none; stroke: #35b779; stroke-opacity: 0.5; stroke-width: 1.5; stroke-linecap: square"/>
   </g>
   <g id="line2d_35">
    <path d="M 73.832727 222.665109 
L 90.065455 219.082291 
L 106.298182 230.746236 
L 122.530909 252.673428 
L 138.763636 258.337617 
L 154.996364 214.256897 
L 171.229091 141.898645 
L 187.461818 237.231845 
L 203.694545 255.950685 
L 219.927273 262.161458 
L 236.16 288.048318 
L 252.392727 266.68386 
L 268.625455 262.48353 
L 284.858182 269.834816 
L 301.090909 263.351189 
L 317.323636 239.792976 
L 333.556364 280.279028 
L 349.789091 285.136899 
L 366.021818 273.402755 
L 382.254545 224.136033 
L 398.487273 240.180974 
" clip-path="url(#pe0c0803720)" style="fill: none; stroke: #35b779; stroke-opacity: 0.5; stroke-width: 1.5; stroke-linecap: square"/>
   </g>
   <g id="line2d_36">
    <path d="M 73.832727 210.010467 
L 90.065455 221.690238 
L 106.298182 201.611725 
L 122.530909 229.31333 
L 138.763636 230.554918 
L 154.996364 207.47144 
L 171.229091 206.861638 
L 187.461818 223.762812 
L 203.694545 182.287099 
L 219.927273 223.717304 
L 236.16 228.921461 
L 252.392727 210.838625 
L 268.625455 215.171608 
L 284.858182 191.283156 
L 301.090909 180.034424 
L 317.323636 197.493346 
L 333.556364 223.227468 
L 349.789091 200.207041 
L 366.021818 222.777798 
L 382.254545 181.853548 
L 398.487273 176.828179 
" clip-path="url(#pe0c0803720)" style="fill: none; stroke: #35b779; stroke-opacity: 0.5; stroke-width: 1.5; stroke-linecap: square"/>
   </g>
   <g id="line2d_37">
    <path d="M 73.832727 210.483867 
L 90.065455 163.210481 
L 106.298182 160.485311 
L 122.530909 223.713633 
L 138.763636 215.318529 
L 154.996364 200.885162 
L 171.229091 217.257892 
L 187.461818 147.968151 
L 203.694545 189.295083 
L 219.927273 184.735829 
L 236.16 232.340709 
L 252.392727 198.245209 
L 268.625455 232.818864 
L 284.858182 222.252114 
L 301.090909 217.621718 
L 317.323636 239.703755 
L 333.556364 214.405676 
L 349.789091 225.81942 
L 366.021818 208.480959 
L 382.254545 199.113086 
L 398.487273 200.050489 
" clip-path="url(#pe0c0803720)" style="fill: none; stroke: #35b779; stroke-opacity: 0.5; stroke-width: 1.5; stroke-linecap: square"/>
   </g>
   <g id="line2d_38">
    <path d="M 73.832727 53.568 
L 90.065455 177.101495 
L 106.298182 184.994631 
L 122.530909 194.663272 
L 138.763636 167.549832 
L 154.996364 239.058831 
L 171.229091 259.294368 
L 187.461818 235.275637 
L 203.694545 226.911546 
L 219.927273 244.974042 
L 236.16 265.494631 
L 252.392727 243.103895 
L 268.625455 213.317298 
L 284.858182 166.936061 
L 301.090909 203.057035 
L 317.323636 214.805539 
L 333.556364 205.462833 
L 349.789091 193.0799 
L 366.021818 208.704477 
L 382.254545 167.912656 
L 398.487273 175.292244 
" clip-path="url(#pe0c0803720)" style="fill: none; stroke: #35b779; stroke-opacity: 0.5; stroke-width: 1.5; stroke-linecap: square"/>
   </g>
   <g id="line2d_39">
    <path d="M 73.832727 273.90388 
L 90.065455 193.122446 
L 106.298182 206.753753 
L 122.530909 251.364684 
L 138.763636 195.271337 
L 154.996364 242.606258 
L 171.229091 190.982795 
L 187.461818 172.703766 
L 203.694545 238.699664 
L 219.927273 173.260306 
L 236.16 271.753066 
L 252.392727 254.844706 
L 268.625455 227.427697 
L 284.858182 201.38875 
L 301.090909 250.67551 
L 317.323636 256.973152 
L 333.556364 288.758016 
L 349.789091 271.78839 
L 366.021818 282.591715 
L 382.254545 266.030771 
L 398.487273 258.243259 
" clip-path="url(#pe0c0803720)" style="fill: none; stroke: #35b779; stroke-opacity: 0.5; stroke-width: 1.5; stroke-linecap: square"/>
   </g>
   <g id="line2d_40">
    <path d="M 73.832727 270.045087 
L 90.065455 249.041288 
L 106.298182 207.373483 
L 122.530909 225.734644 
L 138.763636 226.114279 
L 154.996364 217.572454 
L 171.229091 211.071669 
L 187.461818 191.322951 
L 203.694545 137.504187 
L 219.927273 236.108267 
L 236.16 218.135612 
L 252.392727 266.427596 
L 268.625455 239.171738 
L 284.858182 221.612001 
L 301.090909 254.205305 
L 317.323636 248.428333 
L 333.556364 230.528542 
L 349.789091 193.195531 
L 366.021818 261.638687 
L 382.254545 254.703631 
L 398.487273 249.104622 
" clip-path="url(#pe0c0803720)" style="fill: none; stroke: #35b779; stroke-opacity: 0.5; stroke-width: 1.5; stroke-linecap: square"/>
   </g>
   <g id="line2d_41">
    <path d="M 73.832727 220.152757 
L 90.065455 182.98339 
L 106.298182 194.390223 
L 122.530909 161.790903 
L 138.763636 197.702723 
L 154.996364 193.764139 
L 171.229091 191.786327 
L 187.461818 202.954457 
L 203.694545 244.743917 
L 219.927273 184.353826 
L 236.16 150.54448 
L 252.392727 143.140872 
L 268.625455 171.064804 
L 284.858182 153.650014 
L 301.090909 165.570539 
L 317.323636 163.817427 
L 333.556364 162.291147 
L 349.789091 168.648643 
L 366.021818 138.080481 
L 382.254545 158.67373 
L 398.487273 168.147889 
" clip-path="url(#pe0c0803720)" style="fill: none; stroke: #35b779; stroke-opacity: 0.5; stroke-width: 1.5; stroke-linecap: square"/>
   </g>
   <g id="line2d_42">
    <path d="M 73.832727 278.201803 
L 90.065455 280.245214 
L 106.298182 262.954338 
L 122.530909 273.251819 
L 138.763636 283.26256 
L 154.996364 275.380848 
L 171.229091 273.621018 
L 187.461818 270.279885 
L 203.694545 253.852614 
L 219.927273 211.605098 
L 236.16 191.634363 
L 252.392727 186.496664 
L 268.625455 213.017527 
L 284.858182 218.880167 
L 301.090909 174.124111 
L 317.323636 233.584742 
L 333.556364 163.555258 
L 349.789091 169.396206 
L 366.021818 195.958226 
L 382.254545 176.960119 
L 398.487273 229.306315 
" clip-path="url(#pe0c0803720)" style="fill: none; stroke: #35b779; stroke-opacity: 0.5; stroke-width: 1.5; stroke-linecap: square"/>
   </g>
   <g id="line2d_43">
    <path d="M 73.832727 227.29411 
L 90.065455 199.806374 
L 106.298182 203.49891 
L 122.530909 188.341821 
L 138.763636 189.810191 
L 154.996364 181.220501 
L 171.229091 190.046924 
L 187.461818 205.043164 
L 203.694545 188.230147 
L 219.927273 183.065636 
L 236.16 130.353857 
L 252.392727 159.731217 
L 268.625455 199.749181 
L 284.858182 184.049937 
L 301.090909 183.344028 
L 317.323636 172.400966 
L 333.556364 200.402674 
L 349.789091 194.539637 
L 366.021818 175.575402 
L 382.254545 201.131935 
L 398.487273 170.087781 
" clip-path="url(#pe0c0803720)" style="fill: none; stroke: #35b779; stroke-opacity: 0.5; stroke-width: 1.5; stroke-linecap: square"/>
   </g>
   <g id="line2d_44">
    <path d="M 73.832727 167.236962 
L 90.065455 215.441269 
L 106.298182 219.483216 
L 122.530909 214.770532 
L 138.763636 235.396565 
L 154.996364 241.140213 
L 171.229091 244.365126 
L 187.461818 238.097678 
L 203.694545 233.987262 
L 219.927273 209.629088 
L 236.16 247.227637 
L 252.392727 223.347602 
L 268.625455 193.745549 
L 284.858182 245.468933 
L 301.090909 234.260086 
L 317.323636 175.293495 
L 333.556364 205.774346 
L 349.789091 189.305695 
L 366.021818 230.152425 
L 382.254545 120.115054 
L 398.487273 232.155176 
" clip-path="url(#pe0c0803720)" style="fill: none; stroke: #35b779; stroke-opacity: 0.5; stroke-width: 1.5; stroke-linecap: square"/>
   </g>
   <g id="line2d_45">
    <path d="M 73.832727 241.586524 
L 90.065455 260.015293 
L 106.298182 255.059149 
L 122.530909 265.734236 
L 138.763636 246.97223 
L 154.996364 213.786418 
L 171.229091 204.473429 
L 187.461818 226.994308 
L 203.694545 231.025695 
L 219.927273 246.968685 
L 236.16 232.082382 
L 252.392727 237.94571 
L 268.625455 188.85784 
L 284.858182 202.353149 
L 301.090909 205.802364 
L 317.323636 230.454389 
L 333.556364 237.991486 
L 349.789091 215.332651 
L 366.021818 204.601714 
L 382.254545 202.297093 
L 398.487273 233.515618 
" clip-path="url(#pe0c0803720)" style="fill: none; stroke: #35b779; stroke-opacity: 0.5; stroke-width: 1.5; stroke-linecap: square"/>
   </g>
   <g id="line2d_46">
    <path d="M 73.832727 239.959108 
L 90.065455 175.100952 
L 106.298182 197.114911 
L 122.530909 218.603123 
L 138.763636 234.990386 
L 154.996364 141.698535 
L 171.229091 132.778552 
L 187.461818 249.112664 
L 203.694545 200.511449 
L 219.927273 243.388502 
L 236.16 205.563116 
L 252.392727 244.285816 
L 268.625455 225.37374 
L 284.858182 216.447998 
L 301.090909 174.730607 
L 317.323636 230.75466 
L 333.556364 252.150409 
L 349.789091 263.464931 
L 366.021818 251.207673 
L 382.254545 232.379238 
L 398.487273 256.243911 
" clip-path="url(#pe0c0803720)" style="fill: none; stroke: #35b779; stroke-opacity: 0.5; stroke-width: 1.5; stroke-linecap: square"/>
   </g>
   <g id="line2d_47">
    <path d="M 73.832727 263.272293 
L 90.065455 231.149169 
L 106.298182 252.909604 
L 122.530909 252.622129 
L 138.763636 258.424391 
L 154.996364 277.096957 
L 171.229091 239.05989 
L 187.461818 227.897869 
L 203.694545 264.2412 
L 219.927273 244.086804 
L 236.16 244.232828 
L 252.392727 280.679813 
L 268.625455 224.617682 
L 284.858182 235.111339 
L 301.090909 250.224055 
L 317.323636 235.491165 
L 333.556364 254.104729 
L 349.789091 274.504836 
L 366.021818 270.559753 
L 382.254545 243.536865 
L 398.487273 279.689418 
" clip-path="url(#pe0c0803720)" style="fill: none; stroke: #35b779; stroke-opacity: 0.5; stroke-width: 1.5; stroke-linecap: square"/>
   </g>
   <g id="line2d_48">
    <path d="M 73.832727 164.696536 
L 90.065455 205.761016 
L 106.298182 216.109335 
L 122.530909 220.9861 
L 138.763636 253.915628 
L 154.996364 202.076761 
L 171.229091 190.511468 
L 187.461818 265.283758 
L 203.694545 191.663703 
L 219.927273 239.227533 
L 236.16 215.617612 
L 252.392727 240.818673 
L 268.625455 246.829077 
L 284.858182 196.660287 
L 301.090909 248.165232 
L 317.323636 236.977529 
L 333.556364 193.269471 
L 349.789091 156.307907 
L 366.021818 177.42664 
L 382.254545 176.304204 
L 398.487273 216.913009 
" clip-path="url(#pe0c0803720)" style="fill: none; stroke: #35b779; stroke-opacity: 0.5; stroke-width: 1.5; stroke-linecap: square"/>
   </g>
   <g id="line2d_49">
    <path d="M 73.832727 257.366537 
L 90.065455 249.107839 
L 106.298182 268.382593 
L 122.530909 259.49877 
L 138.763636 243.146236 
L 154.996364 278.062076 
L 171.229091 257.038406 
L 187.461818 225.260564 
L 203.694545 245.406892 
L 219.927273 257.741378 
L 236.16 251.852161 
L 252.392727 263.345844 
L 268.625455 289.347204 
L 284.858182 274.597561 
L 301.090909 217.678955 
L 317.323636 249.991666 
L 333.556364 232.035347 
L 349.789091 226.342389 
L 366.021818 257.470751 
L 382.254545 190.832445 
L 398.487273 264.19413 
" clip-path="url(#pe0c0803720)" style="fill: none; stroke: #35b779; stroke-opacity: 0.5; stroke-width: 1.5; stroke-linecap: square"/>
   </g>
   <g id="line2d_50">
    <path d="M 73.832727 138.717088 
L 90.065455 163.271491 
L 106.298182 153.56083 
L 122.530909 122.867446 
L 138.763636 145.011325 
L 154.996364 237.413773 
L 171.229091 235.104618 
L 187.461818 175.629119 
L 203.694545 133.777409 
L 219.927273 191.009348 
L 236.16 179.341742 
L 252.392727 198.557378 
L 268.625455 197.883262 
L 284.858182 236.173506 
L 301.090909 184.18357 
L 317.323636 200.843029 
L 333.556364 192.563871 
L 349.789091 204.406812 
L 366.021818 208.033557 
L 382.254545 201.04964 
L 398.487273 172.820386 
" clip-path="url(#pe0c0803720)" style="fill: none; stroke: #35b779; stroke-opacity: 0.5; stroke-width: 1.5; stroke-linecap: square"/>
   </g>
   <g id="line2d_51">
    <path d="M 73.832727 175.946791 
L 90.065455 220.899575 
L 106.298182 222.661028 
L 122.530909 194.575148 
L 138.763636 181.967249 
L 154.996364 145.744513 
L 171.229091 143.494473 
L 187.461818 251.45735 
L 203.694545 260.274842 
L 219.927273 135.338711 
L 236.16 187.843674 
L 252.392727 121.98547 
L 268.625455 133.779913 
L 284.858182 84.423519 
L 301.090909 225.990263 
L 317.323636 208.982719 
L 333.556364 191.639926 
L 349.789091 86.229474 
L 366.021818 193.805554 
L 382.254545 150.568736 
L 398.487273 194.986615 
" clip-path="url(#pe0c0803720)" style="fill: none; stroke: #35b779; stroke-opacity: 0.5; stroke-width: 1.5; stroke-linecap: square"/>
   </g>
   <g id="line2d_52">
    <path d="M 73.832727 273.662567 
L 90.065455 268.506054 
L 106.298182 273.796997 
L 122.530909 248.598344 
L 138.763636 229.636371 
L 154.996364 259.053556 
L 171.229091 213.315327 
L 187.461818 226.304128 
L 203.694545 258.32428 
L 219.927273 222.780627 
L 236.16 234.667287 
L 252.392727 225.445835 
L 268.625455 195.348082 
L 284.858182 209.931058 
L 301.090909 233.296213 
L 317.323636 227.416905 
L 333.556364 223.042296 
L 349.789091 204.47474 
L 366.021818 247.370572 
L 382.254545 258.814403 
L 398.487273 242.377812 
" clip-path="url(#pe0c0803720)" style="fill: none; stroke: #35b779; stroke-opacity: 0.5; stroke-width: 1.5; stroke-linecap: square"/>
   </g>
   <g id="line2d_53">
    <path d="M 73.832727 236.883046 
L 90.065455 239.629455 
L 106.298182 223.076871 
L 122.530909 230.51741 
L 138.763636 211.639496 
L 154.996364 200.987299 
L 171.229091 221.678911 
L 187.461818 213.134174 
L 203.694545 162.872361 
L 219.927273 225.837356 
L 236.16 210.106177 
L 252.392727 201.730193 
L 268.625455 213.977496 
L 284.858182 182.662716 
L 301.090909 218.637324 
L 317.323636 198.890815 
L 333.556364 189.498918 
L 349.789091 218.914553 
L 366.021818 179.01845 
L 382.254545 203.349453 
L 398.487273 190.656793 
" clip-path="url(#pe0c0803720)" style="fill: none; stroke: #35b779; stroke-opacity: 0.5; stroke-width: 1.5; stroke-linecap: square"/>
   </g>
   <g id="line2d_54">
    <path d="M 73.832727 218.315013 
L 90.065455 238.50814 
L 106.298182 221.26165 
L 122.530909 217.423062 
L 138.763636 213.888197 
L 154.996364 212.288593 
L 171.229091 205.040572 
L 187.461818 199.526197 
L 203.694545 180.650319 
L 219.927273 212.685611 
L 236.16 253.7053 
L 252.392727 279.179881 
L 268.625455 195.841612 
L 284.858182 208.960218 
L 301.090909 255.936376 
L 317.323636 236.527906 
L 333.556364 251.29564 
L 349.789091 229.569646 
L 366.021818 232.128328 
L 382.254545 249.423593 
L 398.487273 242.573688 
" clip-path="url(#pe0c0803720)" style="fill: none; stroke: #35b779; stroke-opacity: 0.5; stroke-width: 1.5; stroke-linecap: square"/>
   </g>
   <g id="line2d_55">
    <path d="M 73.832727 221.539365 
L 90.065455 248.107362 
L 106.298182 215.536454 
L 122.530909 235.797178 
L 138.763636 197.520152 
L 154.996364 215.758766 
L 171.229091 213.859278 
L 187.461818 205.516149 
L 203.694545 179.851075 
L 219.927273 232.594621 
L 236.16 259.467557 
L 252.392727 226.376966 
L 268.625455 241.233582 
L 284.858182 204.025071 
L 301.090909 231.36368 
L 317.323636 253.56378 
L 333.556364 255.802603 
L 349.789091 244.132398 
L 366.021818 244.139572 
L 382.254545 266.81089 
L 398.487273 257.585381 
" clip-path="url(#pe0c0803720)" style="fill: none; stroke: #35b779; stroke-opacity: 0.5; stroke-width: 1.5; stroke-linecap: square"/>
   </g>
   <g id="line2d_56">
    <path d="M 73.832727 228.870699 
L 90.065455 239.965689 
L 106.298182 254.775 
L 122.530909 234.153891 
L 138.763636 211.276883 
L 154.996364 220.582263 
L 171.229091 203.013787 
L 187.461818 187.640168 
L 203.694545 216.742913 
L 219.927273 250.123965 
L 236.16 272.466036 
L 252.392727 265.077718 
L 268.625455 251.11668 
L 284.858182 268.940654 
L 301.090909 256.063525 
L 317.323636 254.66755 
L 333.556364 264.297412 
L 349.789091 257.101117 
L 366.021818 223.407023 
L 382.254545 266.308451 
L 398.487273 259.448115 
" clip-path="url(#pe0c0803720)" style="fill: none; stroke: #35b779; stroke-opacity: 0.5; stroke-width: 1.5; stroke-linecap: square"/>
   </g>
   <g id="line2d_57">
    <path d="M 73.832727 195.609384 
L 90.065455 236.946973 
L 106.298182 239.690786 
L 122.530909 242.562977 
L 138.763636 236.573526 
L 154.996364 191.299981 
L 171.229091 217.295086 
L 187.461818 197.064214 
L 203.694545 222.571572 
L 219.927273 185.045166 
L 236.16 190.884409 
L 252.392727 163.10397 
L 268.625455 220.04168 
L 284.858182 233.218704 
L 301.090909 223.887401 
L 317.323636 140.275412 
L 333.556364 168.259456 
L 349.789091 204.578432 
L 366.021818 218.770209 
L 382.254545 163.267148 
L 398.487273 181.296544 
" clip-path="url(#pe0c0803720)" style="fill: none; stroke: #35b779; stroke-opacity: 0.5; stroke-width: 1.5; stroke-linecap: square"/>
   </g>
   <g id="patch_3">
    <path d="M 57.6 307.584 
L 57.6 41.472 
" style="fill: none; stroke: #000000; stroke-width: 3; stroke-linejoin: miter; stroke-linecap: square"/>
   </g>
   <g id="patch_4">
    <path d="M 414.72 307.584 
L 414.72 41.472 
" style="fill: none; stroke: #000000; stroke-width: 3; stroke-linejoin: miter; stroke-linecap: square"/>
   </g>
   <g id="patch_5">
    <path d="M 57.6 307.584 
L 414.72 307.584 
" style="fill: none; stroke: #000000; stroke-width: 3; stroke-linejoin: miter; stroke-linecap: square"/>
   </g>
   <g id="patch_6">
    <path d="M 57.6 41.472 
L 414.72 41.472 
" style="fill: none; stroke: #000000; stroke-width: 3; stroke-linejoin: miter; stroke-linecap: square"/>
   </g>
   <g id="text_13">
    <!-- Atom Type O (n=45, mean Q=8.10) -->
    <g transform="translate(39.839219 35.472) scale(0.22 -0.22)">
     <defs>
      <path id="DejaVuSans-41" d="M 2188 4044 
L 1331 1722 
L 3047 1722 
L 2188 4044 
z
M 1831 4666 
L 2547 4666 
L 4325 0 
L 3669 0 
L 3244 1197 
L 1141 1197 
L 716 0 
L 50 0 
L 1831 4666 
z
" transform="scale(0.015625)"/>
      <path id="DejaVuSans-74" d="M 1172 4494 
L 1172 3500 
L 2356 3500 
L 2356 3053 
L 1172 3053 
L 1172 1153 
Q 1172 725 1289 603 
Q 1406 481 1766 481 
L 2356 481 
L 2356 0 
L 1766 0 
Q 1100 0 847 248 
Q 594 497 594 1153 
L 594 3053 
L 172 3053 
L 172 3500 
L 594 3500 
L 594 4494 
L 1172 4494 
z
" transform="scale(0.015625)"/>
      <path id="DejaVuSans-6f" d="M 1959 3097 
Q 1497 3097 1228 2736 
Q 959 2375 959 1747 
Q 959 1119 1226 758 
Q 1494 397 1959 397 
Q 2419 397 2687 759 
Q 2956 1122 2956 1747 
Q 2956 2369 2687 2733 
Q 2419 3097 1959 3097 
z
M 1959 3584 
Q 2709 3584 3137 3096 
Q 3566 2609 3566 1747 
Q 3566 888 3137 398 
Q 2709 -91 1959 -91 
Q 1206 -91 779 398 
Q 353 888 353 1747 
Q 353 2609 779 3096 
Q 1206 3584 1959 3584 
z
" transform="scale(0.015625)"/>
      <path id="DejaVuSans-6d" d="M 3328 2828 
Q 3544 3216 3844 3400 
Q 4144 3584 4550 3584 
Q 5097 3584 5394 3201 
Q 5691 2819 5691 2113 
L 5691 0 
L 5113 0 
L 5113 2094 
Q 5113 2597 4934 2840 
Q 4756 3084 4391 3084 
Q 3944 3084 3684 2787 
Q 3425 2491 3425 1978 
L 3425 0 
L 2847 0 
L 2847 2094 
Q 2847 2600 2669 2842 
Q 2491 3084 2119 3084 
Q 1678 3084 1418 2786 
Q 1159 2488 1159 1978 
L 1159 0 
L 581 0 
L 581 3500 
L 1159 3500 
L 1159 2956 
Q 1356 3278 1631 3431 
Q 1906 3584 2284 3584 
Q 2666 3584 2933 3390 
Q 3200 3197 3328 2828 
z
" transform="scale(0.015625)"/>
      <path id="DejaVuSans-20" transform="scale(0.015625)"/>
      <path id="DejaVuSans-54" d="M -19 4666 
L 3928 4666 
L 3928 4134 
L 2272 4134 
L 2272 0 
L 1638 0 
L 1638 4134 
L -19 4134 
L -19 4666 
z
" transform="scale(0.015625)"/>
      <path id="DejaVuSans-79" d="M 2059 -325 
Q 1816 -950 1584 -1140 
Q 1353 -1331 966 -1331 
L 506 -1331 
L 506 -850 
L 844 -850 
Q 1081 -850 1212 -737 
Q 1344 -625 1503 -206 
L 1606 56 
L 191 3500 
L 800 3500 
L 1894 763 
L 2988 3500 
L 3597 3500 
L 2059 -325 
z
" transform="scale(0.015625)"/>
      <path id="DejaVuSans-70" d="M 1159 525 
L 1159 -1331 
L 581 -1331 
L 581 3500 
L 1159 3500 
L 1159 2969 
Q 1341 3281 1617 3432 
Q 1894 3584 2278 3584 
Q 2916 3584 3314 3078 
Q 3713 2572 3713 1747 
Q 3713 922 3314 415 
Q 2916 -91 2278 -91 
Q 1894 -91 1617 61 
Q 1341 213 1159 525 
z
M 3116 1747 
Q 3116 2381 2855 2742 
Q 2594 3103 2138 3103 
Q 1681 3103 1420 2742 
Q 1159 2381 1159 1747 
Q 1159 1113 1420 752 
Q 1681 391 2138 391 
Q 2594 391 2855 752 
Q 3116 1113 3116 1747 
z
" transform="scale(0.015625)"/>
      <path id="DejaVuSans-65" d="M 3597 1894 
L 3597 1613 
L 953 1613 
Q 991 1019 1311 708 
Q 1631 397 2203 397 
Q 2534 397 2845 478 
Q 3156 559 3463 722 
L 3463 178 
Q 3153 47 2828 -22 
Q 2503 -91 2169 -91 
Q 1331 -91 842 396 
Q 353 884 353 1716 
Q 353 2575 817 3079 
Q 1281 3584 2069 3584 
Q 2775 3584 3186 3129 
Q 3597 2675 3597 1894 
z
M 3022 2063 
Q 3016 2534 2758 2815 
Q 2500 3097 2075 3097 
Q 1594 3097 1305 2825 
Q 1016 2553 972 2059 
L 3022 2063 
z
" transform="scale(0.015625)"/>
      <path id="DejaVuSans-4f" d="M 2522 4238 
Q 1834 4238 1429 3725 
Q 1025 3213 1025 2328 
Q 1025 1447 1429 934 
Q 1834 422 2522 422 
Q 3209 422 3611 934 
Q 4013 1447 4013 2328 
Q 4013 3213 3611 3725 
Q 3209 4238 2522 4238 
z
M 2522 4750 
Q 3503 4750 4090 4092 
Q 4678 3434 4678 2328 
Q 4678 1225 4090 567 
Q 3503 -91 2522 -91 
Q 1538 -91 948 565 
Q 359 1222 359 2328 
Q 359 3434 948 4092 
Q 1538 4750 2522 4750 
z
" transform="scale(0.015625)"/>
      <path id="DejaVuSans-28" d="M 1984 4856 
Q 1566 4138 1362 3434 
Q 1159 2731 1159 2009 
Q 1159 1288 1364 580 
Q 1569 -128 1984 -844 
L 1484 -844 
Q 1016 -109 783 600 
Q 550 1309 550 2009 
Q 550 2706 781 3412 
Q 1013 4119 1484 4856 
L 1984 4856 
z
" transform="scale(0.015625)"/>
      <path id="DejaVuSans-6e" d="M 3513 2113 
L 3513 0 
L 2938 0 
L 2938 2094 
Q 2938 2591 2744 2837 
Q 2550 3084 2163 3084 
Q 1697 3084 1428 2787 
Q 1159 2491 1159 1978 
L 1159 0 
L 581 0 
L 581 3500 
L 1159 3500 
L 1159 2956 
Q 1366 3272 1645 3428 
Q 1925 3584 2291 3584 
Q 2894 3584 3203 3211 
Q 3513 2838 3513 2113 
z
" transform="scale(0.015625)"/>
      <path id="DejaVuSans-3d" d="M 678 2906 
L 4684 2906 
L 4684 2381 
L 678 2381 
L 678 2906 
z
M 678 1631 
L 4684 1631 
L 4684 1100 
L 678 1100 
L 678 1631 
z
" transform="scale(0.015625)"/>
      <path id="DejaVuSans-34" d="M 2419 4116 
L 825 1625 
L 2419 1625 
L 2419 4116 
z
M 2253 4666 
L 3047 4666 
L 3047 1625 
L 3713 1625 
L 3713 1100 
L 3047 1100 
L 3047 0 
L 2419 0 
L 2419 1100 
L 313 1100 
L 313 1709 
L 2253 4666 
z
" transform="scale(0.015625)"/>
      <path id="DejaVuSans-2c" d="M 750 794 
L 1409 794 
L 1409 256 
L 897 -744 
L 494 -744 
L 750 256 
L 750 794 
z
" transform="scale(0.015625)"/>
      <path id="DejaVuSans-61" d="M 2194 1759 
Q 1497 1759 1228 1600 
Q 959 1441 959 1056 
Q 959 750 1161 570 
Q 1363 391 1709 391 
Q 2188 391 2477 730 
Q 2766 1069 2766 1631 
L 2766 1759 
L 2194 1759 
z
M 3341 1997 
L 3341 0 
L 2766 0 
L 2766 531 
Q 2569 213 2275 61 
Q 1981 -91 1556 -91 
Q 1019 -91 701 211 
Q 384 513 384 1019 
Q 384 1609 779 1909 
Q 1175 2209 1959 2209 
L 2766 2209 
L 2766 2266 
Q 2766 2663 2505 2880 
Q 2244 3097 1772 3097 
Q 1472 3097 1187 3025 
Q 903 2953 641 2809 
L 641 3341 
Q 956 3463 1253 3523 
Q 1550 3584 1831 3584 
Q 2591 3584 2966 3190 
Q 3341 2797 3341 1997 
z
" transform="scale(0.015625)"/>
      <path id="DejaVuSans-51" d="M 2522 4238 
Q 1834 4238 1429 3725 
Q 1025 3213 1025 2328 
Q 1025 1447 1429 934 
Q 1834 422 2522 422 
Q 3209 422 3611 934 
Q 4013 1447 4013 2328 
Q 4013 3213 3611 3725 
Q 3209 4238 2522 4238 
z
M 3406 84 
L 4238 -825 
L 3475 -825 
L 2784 -78 
Q 2681 -84 2626 -87 
Q 2572 -91 2522 -91 
Q 1538 -91 948 567 
Q 359 1225 359 2328 
Q 359 3434 948 4092 
Q 1538 4750 2522 4750 
Q 3503 4750 4090 4092 
Q 4678 3434 4678 2328 
Q 4678 1516 4351 937 
Q 4025 359 3406 84 
z
" transform="scale(0.015625)"/>
      <path id="DejaVuSans-38" d="M 2034 2216 
Q 1584 2216 1326 1975 
Q 1069 1734 1069 1313 
Q 1069 891 1326 650 
Q 1584 409 2034 409 
Q 2484 409 2743 651 
Q 3003 894 3003 1313 
Q 3003 1734 2745 1975 
Q 2488 2216 2034 2216 
z
M 1403 2484 
Q 997 2584 770 2862 
Q 544 3141 544 3541 
Q 544 4100 942 4425 
Q 1341 4750 2034 4750 
Q 2731 4750 3128 4425 
Q 3525 4100 3525 3541 
Q 3525 3141 3298 2862 
Q 3072 2584 2669 2484 
Q 3125 2378 3379 2068 
Q 3634 1759 3634 1313 
Q 3634 634 3220 271 
Q 2806 -91 2034 -91 
Q 1263 -91 848 271 
Q 434 634 434 1313 
Q 434 1759 690 2068 
Q 947 2378 1403 2484 
z
M 1172 3481 
Q 1172 3119 1398 2916 
Q 1625 2713 2034 2713 
Q 2441 2713 2670 2916 
Q 2900 3119 2900 3481 
Q 2900 3844 2670 4047 
Q 2441 4250 2034 4250 
Q 1625 4250 1398 4047 
Q 1172 3844 1172 3481 
z
" transform="scale(0.015625)"/>
      <path id="DejaVuSans-29" d="M 513 4856 
L 1013 4856 
Q 1481 4119 1714 3412 
Q 1947 2706 1947 2009 
Q 1947 1309 1714 600 
Q 1481 -109 1013 -844 
L 513 -844 
Q 928 -128 1133 580 
Q 1338 1288 1338 2009 
Q 1338 2731 1133 3434 
Q 928 4138 513 4856 
z
" transform="scale(0.015625)"/>
     </defs>
     <use xlink:href="#DejaVuSans-41"/>
     <use xlink:href="#DejaVuSans-74" transform="translate(66.658203 0)"/>
     <use xlink:href="#DejaVuSans-6f" transform="translate(105.867188 0)"/>
     <use xlink:href="#DejaVuSans-6d" transform="translate(167.048828 0)"/>
     <use xlink:href="#DejaVuSans-20" transform="translate(264.460938 0)"/>
     <use xlink:href="#DejaVuSans-54" transform="translate(296.248047 0)"/>
     <use xlink:href="#DejaVuSans-79" transform="translate(341.707031 0)"/>
     <use xlink:href="#DejaVuSans-70" transform="translate(400.886719 0)"/>
     <use xlink:href="#DejaVuSans-65" transform="translate(464.363281 0)"/>
     <use xlink:href="#DejaVuSans-20" transform="translate(525.886719 0)"/>
     <use xlink:href="#DejaVuSans-4f" transform="translate(557.673828 0)"/>
     <use xlink:href="#DejaVuSans-20" transform="translate(636.384766 0)"/>
     <use xlink:href="#DejaVuSans-28" transform="translate(668.171875 0)"/>
     <use xlink:href="#DejaVuSans-6e" transform="translate(707.185547 0)"/>
     <use xlink:href="#DejaVuSans-3d" transform="translate(770.564453 0)"/>
     <use xlink:href="#DejaVuSans-34" transform="translate(854.353516 0)"/>
     <use xlink:href="#DejaVuSans-35" transform="translate(917.976562 0)"/>
     <use xlink:href="#DejaVuSans-2c" transform="translate(981.599609 0)"/>
     <use xlink:href="#DejaVuSans-20" transform="translate(1013.386719 0)"/>
     <use xlink:href="#DejaVuSans-6d" transform="translate(1045.173828 0)"/>
     <use xlink:href="#DejaVuSans-65" transform="translate(1142.585938 0)"/>
     <use xlink:href="#DejaVuSans-61" transform="translate(1204.109375 0)"/>
     <use xlink:href="#DejaVuSans-6e" transform="translate(1265.388672 0)"/>
     <use xlink:href="#DejaVuSans-20" transform="translate(1328.767578 0)"/>
     <use xlink:href="#DejaVuSans-51" transform="translate(1360.554688 0)"/>
     <use xlink:href="#DejaVuSans-3d" transform="translate(1439.265625 0)"/>
     <use xlink:href="#DejaVuSans-38" transform="translate(1523.054688 0)"/>
     <use xlink:href="#DejaVuSans-2e" transform="translate(1586.677734 0)"/>
     <use xlink:href="#DejaVuSans-31" transform="translate(1618.464844 0)"/>
     <use xlink:href="#DejaVuSans-30" transform="translate(1682.087891 0)"/>
     <use xlink:href="#DejaVuSans-29" transform="translate(1745.710938 0)"/>
    </g>
   </g>
  </g>
 </g>
 <defs>
  <clipPath id="pe0c0803720">
   <rect x="57.6" y="41.472" width="357.12" height="266.112"/>
  </clipPath>
 </defs>
</svg>
