<?xml version="1.0" encoding="utf-8" standalone="no"?>
<!DOCTYPE svg PUBLIC "-//W3C//DTD SVG 1.1//EN"
  "http://www.w3.org/Graphics/SVG/1.1/DTD/svg11.dtd">
<svg xmlns:xlink="http://www.w3.org/1999/xlink" width="460.8pt" height="345.6pt" viewBox="0 0 460.8 345.6" xmlns="http://www.w3.org/2000/svg" version="1.1">
 <metadata>
  <rdf:RDF xmlns:dc="http://purl.org/dc/elements/1.1/" xmlns:cc="http://creativecommons.org/ns#" xmlns:rdf="http://www.w3.org/1999/02/22-rdf-syntax-ns#">
   <cc:Work>
    <dc:type rdf:resource="http://purl.org/dc/dcmitype/StillImage"/>
    <dc:date>2025-12-10T14:11:24.310858</dc:date>
    <dc:format>image/svg+xml</dc:format>
    <dc:creator>
     <cc:Agent>
      <dc:title>Matplotlib v3.10.3, https://matplotlib.org/</dc:title>
     </cc:Agent>
    </dc:creator>
   </cc:Work>
  </rdf:RDF>
 </metadata>
 <defs>
  <style type="text/css">*{stroke-linejoin: round; stroke-linecap: butt}</style>
 </defs>
 <g id="figure_1">
  <g id="patch_1">
   <path d="M 0 345.6 
L 460.8 345.6 
L 460.8 0 
L 0 0 
z
" style="fill: #ffffff"/>
  </g>
  <g id="axes_1">
   <g id="patch_2">
    <path d="M 57.6 307.584 
L 414.72 307.584 
L 414.72 41.472 
L 57.6 41.472 
z
" style="fill: #ffffff"/>
   </g>
   <g id="matplotlib.axis_1">
    <g id="xtick_1">
     <g id="line2d_1">
      <defs>
       <path id="m5886479523" d="M 0 0 
L 0 3.5 
" style="stroke: #000000; stroke-width: 0.8"/>
      </defs>
      <g>
       <use xlink:href="#m5886479523" x="73.832727" y="307.584" style="stroke: #000000; stroke-width: 0.8"/>
      </g>
     </g>
     <g id="text_1">
      <!-- 0 -->
      <g transform="translate(69.060852 325.981656) scale(0.15 -0.15)">
       <defs>
        <path id="DejaVuSans-30" d="M 2034 4250 
Q 1547 4250 1301 3770 
Q 1056 3291 1056 2328 
Q 1056 1369 1301 889 
Q 1547 409 2034 409 
Q 2525 409 2770 889 
Q 3016 1369 3016 2328 
Q 3016 3291 2770 3770 
Q 2525 4250 2034 4250 
z
M 2034 4750 
Q 2819 4750 3233 4129 
Q 3647 3509 3647 2328 
Q 3647 1150 3233 529 
Q 2819 -91 2034 -91 
Q 1250 -91 836 529 
Q 422 1150 422 2328 
Q 422 3509 836 4129 
Q 1250 4750 2034 4750 
z
" transform="scale(0.015625)"/>
       </defs>
       <use xlink:href="#DejaVuSans-30"/>
      </g>
     </g>
    </g>
    <g id="xtick_2">
     <g id="line2d_2">
      <g>
       <use xlink:href="#m5886479523" x="154.996364" y="307.584" style="stroke: #000000; stroke-width: 0.8"/>
      </g>
     </g>
     <g id="text_2">
      <!-- 5 -->
      <g transform="translate(150.224489 325.981656) scale(0.15 -0.15)">
       <defs>
        <path id="DejaVuSans-35" d="M 691 4666 
L 3169 4666 
L 3169 4134 
L 1269 4134 
L 1269 2991 
Q 1406 3038 1543 3061 
Q 1681 3084 1819 3084 
Q 2600 3084 3056 2656 
Q 3513 2228 3513 1497 
Q 3513 744 3044 326 
Q 2575 -91 1722 -91 
Q 1428 -91 1123 -41 
Q 819 9 494 109 
L 494 744 
Q 775 591 1075 516 
Q 1375 441 1709 441 
Q 2250 441 2565 725 
Q 2881 1009 2881 1497 
Q 2881 1984 2565 2268 
Q 2250 2553 1709 2553 
Q 1456 2553 1204 2497 
Q 953 2441 691 2322 
L 691 4666 
z
" transform="scale(0.015625)"/>
       </defs>
       <use xlink:href="#DejaVuSans-35"/>
      </g>
     </g>
    </g>
    <g id="xtick_3">
     <g id="line2d_3">
      <g>
       <use xlink:href="#m5886479523" x="236.16" y="307.584" style="stroke: #000000; stroke-width: 0.8"/>
      </g>
     </g>
     <g id="text_3">
      <!-- 10 -->
      <g transform="translate(226.61625 325.981656) scale(0.15 -0.15)">
       <defs>
        <path id="DejaVuSans-31" d="M 794 531 
L 1825 531 
L 1825 4091 
L 703 3866 
L 703 4441 
L 1819 4666 
L 2450 4666 
L 2450 531 
L 3481 531 
L 3481 0 
L 794 0 
L 794 531 
z
" transform="scale(0.015625)"/>
       </defs>
       <use xlink:href="#DejaVuSans-31"/>
       <use xlink:href="#DejaVuSans-30" transform="translate(63.623047 0)"/>
      </g>
     </g>
    </g>
    <g id="xtick_4">
     <g id="line2d_4">
      <g>
       <use xlink:href="#m5886479523" x="317.323636" y="307.584" style="stroke: #000000; stroke-width: 0.8"/>
      </g>
     </g>
     <g id="text_4">
      <!-- 15 -->
      <g transform="translate(307.779886 325.981656) scale(0.15 -0.15)">
       <use xlink:href="#DejaVuSans-31"/>
       <use xlink:href="#DejaVuSans-35" transform="translate(63.623047 0)"/>
      </g>
     </g>
    </g>
    <g id="xtick_5">
     <g id="line2d_5">
      <g>
       <use xlink:href="#m5886479523" x="398.487273" y="307.584" style="stroke: #000000; stroke-width: 0.8"/>
      </g>
     </g>
     <g id="text_5">
      <!-- 20 -->
      <g transform="translate(388.943523 325.981656) scale(0.15 -0.15)">
       <defs>
        <path id="DejaVuSans-32" d="M 1228 531 
L 3431 531 
L 3431 0 
L 469 0 
L 469 531 
Q 828 903 1448 1529 
Q 2069 2156 2228 2338 
Q 2531 2678 2651 2914 
Q 2772 3150 2772 3378 
Q 2772 3750 2511 3984 
Q 2250 4219 1831 4219 
Q 1534 4219 1204 4116 
Q 875 4013 500 3803 
L 500 4441 
Q 881 4594 1212 4672 
Q 1544 4750 1819 4750 
Q 2544 4750 2975 4387 
Q 3406 4025 3406 3419 
Q 3406 3131 3298 2873 
Q 3191 2616 2906 2266 
Q 2828 2175 2409 1742 
Q 1991 1309 1228 531 
z
" transform="scale(0.015625)"/>
       </defs>
       <use xlink:href="#DejaVuSans-32"/>
       <use xlink:href="#DejaVuSans-30" transform="translate(63.623047 0)"/>
      </g>
     </g>
    </g>
   </g>
   <g id="matplotlib.axis_2">
    <g id="ytick_1">
     <g id="line2d_6">
      <defs>
       <path id="mf7d9626d1b" d="M 0 0 
L -3.5 0 
" style="stroke: #000000; stroke-width: 0.8"/>
      </defs>
      <g>
       <use xlink:href="#mf7d9626d1b" x="57.6" y="272.137743" style="stroke: #000000; stroke-width: 0.8"/>
      </g>
     </g>
     <g id="text_6">
      <!-- 5 -->
      <g transform="translate(41.05625 277.836571) scale(0.15 -0.15)">
       <use xlink:href="#DejaVuSans-35"/>
      </g>
     </g>
    </g>
    <g id="ytick_2">
     <g id="line2d_7">
      <g>
       <use xlink:href="#mf7d9626d1b" x="57.6" y="208.851217" style="stroke: #000000; stroke-width: 0.8"/>
      </g>
     </g>
     <g id="text_7">
      <!-- 10 -->
      <g transform="translate(31.5125 214.550045) scale(0.15 -0.15)">
       <use xlink:href="#DejaVuSans-31"/>
       <use xlink:href="#DejaVuSans-30" transform="translate(63.623047 0)"/>
      </g>
     </g>
    </g>
    <g id="ytick_3">
     <g id="line2d_8">
      <g>
       <use xlink:href="#mf7d9626d1b" x="57.6" y="145.564691" style="stroke: #000000; stroke-width: 0.8"/>
      </g>
     </g>
     <g id="text_8">
      <!-- 15 -->
      <g transform="translate(31.5125 151.263519) scale(0.15 -0.15)">
       <use xlink:href="#DejaVuSans-31"/>
       <use xlink:href="#DejaVuSans-35" transform="translate(63.623047 0)"/>
      </g>
     </g>
    </g>
    <g id="ytick_4">
     <g id="line2d_9">
      <g>
       <use xlink:href="#mf7d9626d1b" x="57.6" y="82.278164" style="stroke: #000000; stroke-width: 0.8"/>
      </g>
     </g>
     <g id="text_9">
      <!-- 20 -->
      <g transform="translate(31.5125 87.976992) scale(0.15 -0.15)">
       <use xlink:href="#DejaVuSans-32"/>
       <use xlink:href="#DejaVuSans-30" transform="translate(63.623047 0)"/>
      </g>
     </g>
    </g>
   </g>
   <g id="line2d_10">
    <path d="M 73.832727 211.348489 
L 90.065455 139.646539 
L 106.298182 206.268823 
L 122.530909 198.218922 
L 138.763636 234.738263 
L 154.996364 212.067871 
L 171.229091 158.041811 
L 187.461818 151.292356 
L 203.694545 162.827933 
L 219.927273 130.086354 
L 236.16 200.21833 
L 252.392727 154.584265 
L 268.625455 106.230598 
L 284.858182 106.886682 
L 301.090909 178.962277 
L 317.323636 174.243363 
L 333.556364 144.393579 
L 349.789091 154.957804 
L 366.021818 155.987008 
L 382.254545 159.515879 
L 398.487273 136.052074 
" clip-path="url(#pe9dd0a78d8)" style="fill: none; stroke: #35b779; stroke-opacity: 0.5; stroke-width: 1.5; stroke-linecap: square"/>
   </g>
   <g id="line2d_11">
    <path d="M 73.832727 226.034951 
L 90.065455 206.992661 
L 106.298182 200.451087 
L 122.530909 196.947278 
L 138.763636 167.981278 
L 154.996364 178.659598 
L 171.229091 180.386172 
L 187.461818 158.461802 
L 203.694545 187.522228 
L 219.927273 197.078037 
L 236.16 187.781248 
L 252.392727 176.62424 
L 268.625455 191.448662 
L 284.858182 170.472997 
L 301.090909 185.824433 
L 317.323636 174.024284 
L 333.556364 193.254142 
L 349.789091 185.374779 
L 366.021818 175.5443 
L 382.254545 145.641372 
L 398.487273 173.591125 
" clip-path="url(#pe9dd0a78d8)" style="fill: none; stroke: #35b779; stroke-opacity: 0.5; stroke-width: 1.5; stroke-linecap: square"/>
   </g>
   <g id="line2d_12">
    <path d="M 73.832727 189.148431 
L 90.065455 217.500546 
L 106.298182 161.353862 
L 122.530909 215.636176 
L 138.763636 162.740735 
L 154.996364 157.286995 
L 171.229091 212.220353 
L 187.461818 138.879373 
L 203.694545 183.072532 
L 219.927273 158.418355 
L 236.16 135.504226 
L 252.392727 172.612902 
L 268.625455 194.223011 
L 284.858182 182.103386 
L 301.090909 213.981509 
L 317.323636 163.298296 
L 333.556364 166.469357 
L 349.789091 156.682848 
L 366.021818 137.244565 
L 382.254545 122.918997 
L 398.487273 174.763973 
" clip-path="url(#pe9dd0a78d8)" style="fill: none; stroke: #35b779; stroke-opacity: 0.5; stroke-width: 1.5; stroke-linecap: square"/>
   </g>
   <g id="line2d_13">
    <path d="M 73.832727 174.320894 
L 90.065455 246.214806 
L 106.298182 260.783882 
L 122.530909 248.539987 
L 138.763636 272.549383 
L 154.996364 273.872583 
L 171.229091 269.539605 
L 187.461818 260.45604 
L 203.694545 235.062519 
L 219.927273 274.763102 
L 236.16 264.32297 
L 252.392727 232.332435 
L 268.625455 255.067652 
L 284.858182 255.607508 
L 301.090909 227.865339 
L 317.323636 200.671956 
L 333.556364 198.933646 
L 349.789091 200.322659 
L 366.021818 229.252351 
L 382.254545 248.380553 
L 398.487273 197.53184 
" clip-path="url(#pe9dd0a78d8)" style="fill: none; stroke: #35b779; stroke-opacity: 0.5; stroke-width: 1.5; stroke-linecap: square"/>
   </g>
   <g id="line2d_14">
    <path d="M 73.832727 277.357795 
L 90.065455 238.198828 
L 106.298182 264.503246 
L 122.530909 228.011211 
L 138.763636 238.921935 
L 154.996364 218.940865 
L 171.229091 222.690515 
L 187.461818 228.566062 
L 203.694545 250.321607 
L 219.927273 230.846887 
L 236.16 263.096749 
L 252.392727 235.75849 
L 268.625455 226.850266 
L 284.858182 186.035858 
L 301.090909 185.914215 
L 317.323636 267.384792 
L 333.556364 238.806265 
L 349.789091 229.567321 
L 366.021818 208.003898 
L 382.254545 186.694103 
L 398.487273 201.976185 
" clip-path="url(#pe9dd0a78d8)" style="fill: none; stroke: #35b779; stroke-opacity: 0.5; stroke-width: 1.5; stroke-linecap: square"/>
   </g>
   <g id="line2d_15">
    <path d="M 73.832727 200.525211 
L 90.065455 220.559643 
L 106.298182 217.236365 
L 122.530909 204.430202 
L 138.763636 260.402684 
L 154.996364 270.853873 
L 171.229091 254.19057 
L 187.461818 247.708926 
L 203.694545 187.59876 
L 219.927273 232.257478 
L 236.16 226.995155 
L 252.392727 224.028064 
L 268.625455 207.065241 
L 284.858182 231.411979 
L 301.090909 235.62862 
L 317.323636 223.832037 
L 333.556364 271.501469 
L 349.789091 245.16314 
L 366.021818 268.10008 
L 382.254545 254.303563 
L 398.487273 264.407356 
" clip-path="url(#pe9dd0a78d8)" style="fill: none; stroke: #35b779; stroke-opacity: 0.5; stroke-width: 1.5; stroke-linecap: square"/>
   </g>
   <g id="line2d_16">
    <path d="M 73.832727 277.640228 
L 90.065455 262.671187 
L 106.298182 266.731577 
L 122.530909 256.525045 
L 138.763636 251.044223 
L 154.996364 264.982421 
L 171.229091 238.247745 
L 187.461818 227.579596 
L 203.694545 245.342351 
L 219.927273 194.059784 
L 236.16 229.402276 
L 252.392727 238.763416 
L 268.625455 222.016396 
L 284.858182 212.250709 
L 301.090909 218.704527 
L 317.323636 219.725282 
L 333.556364 226.683761 
L 349.789091 233.557232 
L 366.021818 230.329567 
L 382.254545 230.534582 
L 398.487273 238.877777 
" clip-path="url(#pe9dd0a78d8)" style="fill: none; stroke: #35b779; stroke-opacity: 0.5; stroke-width: 1.5; stroke-linecap: square"/>
   </g>
   <g id="line2d_17">
    <path d="M 73.832727 232.861289 
L 90.065455 237.224302 
L 106.298182 250.361335 
L 122.530909 273.972203 
L 138.763636 238.683302 
L 154.996364 176.250394 
L 171.229091 246.900598 
L 187.461818 230.28672 
L 203.694545 211.362342 
L 219.927273 214.750168 
L 236.16 249.456458 
L 252.392727 245.923517 
L 268.625455 267.223207 
L 284.858182 187.256648 
L 301.090909 207.216061 
L 317.323636 246.333279 
L 333.556364 202.230708 
L 349.789091 227.993415 
L 366.021818 204.031083 
L 382.254545 231.598846 
L 398.487273 243.584932 
" clip-path="url(#pe9dd0a78d8)" style="fill: none; stroke: #35b779; stroke-opacity: 0.5; stroke-width: 1.5; stroke-linecap: square"/>
   </g>
   <g id="line2d_18">
    <path d="M 73.832727 232.927522 
L 90.065455 219.338366 
L 106.298182 233.118491 
L 122.530909 280.652853 
L 138.763636 244.894297 
L 154.996364 245.644994 
L 171.229091 257.727694 
L 187.461818 246.120007 
L 203.694545 211.75846 
L 219.927273 261.484893 
L 236.16 253.491059 
L 252.392727 259.79555 
L 268.625455 252.235916 
L 284.858182 249.663953 
L 301.090909 248.842039 
L 317.323636 247.233452 
L 333.556364 230.684535 
L 349.789091 236.217671 
L 366.021818 222.348432 
L 382.254545 192.850896 
L 398.487273 218.876216 
" clip-path="url(#pe9dd0a78d8)" style="fill: none; stroke: #35b779; stroke-opacity: 0.5; stroke-width: 1.5; stroke-linecap: square"/>
   </g>
   <g id="line2d_19">
    <path d="M 73.832727 119.677077 
L 90.065455 53.568 
L 106.298182 165.414192 
L 122.530909 167.643349 
L 138.763636 138.965801 
L 154.996364 135.570346 
L 171.229091 147.791188 
L 187.461818 119.638333 
L 203.694545 102.230761 
L 219.927273 94.049003 
L 236.16 68.960413 
L 252.392727 163.0507 
L 268.625455 133.6431 
L 284.858182 216.60146 
L 301.090909 189.160554 
L 317.323636 180.348732 
L 333.556364 203.833103 
L 349.789091 185.754199 
L 366.021818 174.125656 
L 382.254545 119.702207 
L 398.487273 231.10928 
" clip-path="url(#pe9dd0a78d8)" style="fill: none; stroke: #35b779; stroke-opacity: 0.5; stroke-width: 1.5; stroke-linecap: square"/>
   </g>
   <g id="line2d_20">
    <path d="M 73.832727 263.13998 
L 90.065455 268.923493 
L 106.298182 117.660951 
L 122.530909 90.286224 
L 138.763636 234.587706 
L 154.996364 241.686581 
L 171.229091 214.851556 
L 187.461818 177.351788 
L 203.694545 231.199339 
L 219.927273 203.306951 
L 236.16 232.927186 
L 252.392727 208.398646 
L 268.625455 201.567645 
L 284.858182 205.454069 
L 301.090909 210.387731 
L 317.323636 225.361641 
L 333.556364 237.857624 
L 349.789091 267.359385 
L 366.021818 198.356164 
L 382.254545 250.353865 
L 398.487273 256.56446 
" clip-path="url(#pe9dd0a78d8)" style="fill: none; stroke: #35b779; stroke-opacity: 0.5; stroke-width: 1.5; stroke-linecap: square"/>
   </g>
   <g id="line2d_21">
    <path d="M 73.832727 288.535956 
L 90.065455 267.530151 
L 106.298182 229.979703 
L 122.530909 275.131775 
L 138.763636 290.711556 
L 154.996364 244.490784 
L 171.229091 259.841214 
L 187.461818 271.484043 
L 203.694545 280.721453 
L 219.927273 252.808658 
L 236.16 235.074274 
L 252.392727 295.488 
L 268.625455 218.105378 
L 284.858182 255.381805 
L 301.090909 271.296408 
L 317.323636 266.374152 
L 333.556364 258.705393 
L 349.789091 246.138781 
L 366.021818 233.355005 
L 382.254545 273.322874 
L 398.487273 265.815422 
" clip-path="url(#pe9dd0a78d8)" style="fill: none; stroke: #35b779; stroke-opacity: 0.5; stroke-width: 1.5; stroke-linecap: square"/>
   </g>
   <g id="line2d_22">
    <path d="M 73.832727 228.885796 
L 90.065455 262.945797 
L 106.298182 240.428081 
L 122.530909 248.415872 
L 138.763636 234.45982 
L 154.996364 236.749597 
L 171.229091 252.956589 
L 187.461818 222.393509 
L 203.694545 207.726399 
L 219.927273 247.776363 
L 236.16 181.084724 
L 252.392727 194.421735 
L 268.625455 215.136427 
L 284.858182 209.180014 
L 301.090909 184.088314 
L 317.323636 254.499487 
L 333.556364 153.920374 
L 349.789091 231.838012 
L 366.021818 243.606196 
L 382.254545 242.518125 
L 398.487273 140.986547 
" clip-path="url(#pe9dd0a78d8)" style="fill: none; stroke: #35b779; stroke-opacity: 0.5; stroke-width: 1.5; stroke-linecap: square"/>
   </g>
   <g id="line2d_23">
    <path d="M 73.832727 233.445247 
L 90.065455 209.850948 
L 106.298182 255.820557 
L 122.530909 213.062798 
L 138.763636 282.641596 
L 154.996364 280.298791 
L 171.229091 266.304031 
L 187.461818 268.794321 
L 203.694545 278.644797 
L 219.927273 271.020498 
L 236.16 239.038595 
L 252.392727 275.32361 
L 268.625455 254.444217 
L 284.858182 211.315761 
L 301.090909 211.59533 
L 317.323636 257.956962 
L 333.556364 265.789474 
L 349.789091 278.870386 
L 366.021818 266.433154 
L 382.254545 255.440634 
L 398.487273 274.710267 
" clip-path="url(#pe9dd0a78d8)" style="fill: none; stroke: #35b779; stroke-opacity: 0.5; stroke-width: 1.5; stroke-linecap: square"/>
   </g>
   <g id="line2d_24">
    <path d="M 73.832727 196.155031 
L 90.065455 213.286092 
L 106.298182 269.92915 
L 122.530909 239.417349 
L 138.763636 277.599786 
L 154.996364 260.069642 
L 171.229091 265.070696 
L 187.461818 269.913547 
L 203.694545 280.671468 
L 219.927273 258.43824 
L 236.16 268.559836 
L 252.392727 279.461951 
L 268.625455 258.258493 
L 284.858182 247.871676 
L 301.090909 235.374398 
L 317.323636 279.099115 
L 333.556364 267.001505 
L 349.789091 243.428541 
L 366.021818 219.033365 
L 382.254545 257.893656 
L 398.487273 229.339177 
" clip-path="url(#pe9dd0a78d8)" style="fill: none; stroke: #35b779; stroke-opacity: 0.5; stroke-width: 1.5; stroke-linecap: square"/>
   </g>
   <g id="line2d_25">
    <path d="M 73.832727 225.802165 
L 90.065455 243.572428 
L 106.298182 272.926848 
L 122.530909 256.123061 
L 138.763636 271.449702 
L 154.996364 253.044057 
L 171.229091 273.327752 
L 187.461818 274.69814 
L 203.694545 271.621249 
L 219.927273 265.91112 
L 236.16 276.701645 
L 252.392727 281.130595 
L 268.625455 246.994382 
L 284.858182 273.411346 
L 301.090909 249.220559 
L 317.323636 257.825222 
L 333.556364 249.517355 
L 349.789091 245.626164 
L 366.021818 256.435848 
L 382.254545 236.225023 
L 398.487273 263.964893 
" clip-path="url(#pe9dd0a78d8)" style="fill: none; stroke: #35b779; stroke-opacity: 0.5; stroke-width: 1.5; stroke-linecap: square"/>
   </g>
   <g id="line2d_26">
    <path d="M 73.832727 229.656872 
L 90.065455 247.731714 
L 106.298182 237.367882 
L 122.530909 219.244182 
L 138.763636 219.764701 
L 154.996364 241.064366 
L 171.229091 224.480492 
L 187.461818 238.324188 
L 203.694545 235.38093 
L 219.927273 246.371421 
L 236.16 191.750592 
L 252.392727 209.158404 
L 268.625455 242.796796 
L 284.858182 232.338459 
L 301.090909 248.606622 
L 317.323636 236.729948 
L 333.556364 205.16774 
L 349.789091 196.833834 
L 366.021818 253.300891 
L 382.254545 232.998391 
L 398.487273 199.822177 
" clip-path="url(#pe9dd0a78d8)" style="fill: none; stroke: #35b779; stroke-opacity: 0.5; stroke-width: 1.5; stroke-linecap: square"/>
   </g>
   <g id="line2d_27">
    <path d="M 73.832727 193.579568 
L 90.065455 207.35828 
L 106.298182 240.017769 
L 122.530909 255.242526 
L 138.763636 217.935788 
L 154.996364 230.059133 
L 171.229091 274.248197 
L 187.461818 268.010217 
L 203.694545 145.132894 
L 219.927273 201.548769 
L 236.16 242.449062 
L 252.392727 246.721459 
L 268.625455 265.055387 
L 284.858182 237.265995 
L 301.090909 210.260456 
L 317.323636 213.519824 
L 333.556364 223.138222 
L 349.789091 231.721905 
L 366.021818 202.317626 
L 382.254545 202.825523 
L 398.487273 204.018555 
" clip-path="url(#pe9dd0a78d8)" style="fill: none; stroke: #35b779; stroke-opacity: 0.5; stroke-width: 1.5; stroke-linecap: square"/>
   </g>
   <g id="line2d_28">
    <path d="M 73.832727 242.123929 
L 90.065455 256.96024 
L 106.298182 271.822204 
L 122.530909 268.540898 
L 138.763636 266.841584 
L 154.996364 257.348821 
L 171.229091 220.332704 
L 187.461818 245.414956 
L 203.694545 193.654582 
L 219.927273 209.533484 
L 236.16 155.192148 
L 252.392727 190.921747 
L 268.625455 207.893461 
L 284.858182 131.312319 
L 301.090909 124.853464 
L 317.323636 163.189035 
L 333.556364 161.754505 
L 349.789091 227.016922 
L 366.021818 166.116158 
L 382.254545 186.951772 
L 398.487273 241.961916 
" clip-path="url(#pe9dd0a78d8)" style="fill: none; stroke: #35b779; stroke-opacity: 0.5; stroke-width: 1.5; stroke-linecap: square"/>
   </g>
   <g id="line2d_29">
    <path d="M 73.832727 258.127025 
L 90.065455 193.884199 
L 106.298182 229.762505 
L 122.530909 249.075365 
L 138.763636 181.113829 
L 154.996364 175.717487 
L 171.229091 222.682257 
L 187.461818 206.710699 
L 203.694545 242.641848 
L 219.927273 200.432996 
L 236.16 209.223059 
L 252.392727 185.44471 
L 268.625455 184.515578 
L 284.858182 190.761629 
L 301.090909 154.721802 
L 317.323636 181.769973 
L 333.556364 184.006681 
L 349.789091 112.60334 
L 366.021818 116.048148 
L 382.254545 163.126466 
L 398.487273 87.006606 
" clip-path="url(#pe9dd0a78d8)" style="fill: none; stroke: #35b779; stroke-opacity: 0.5; stroke-width: 1.5; stroke-linecap: square"/>
   </g>
   <g id="line2d_30">
    <path d="M 73.832727 188.921269 
L 90.065455 273.511918 
L 106.298182 290.885214 
L 122.530909 279.382415 
L 138.763636 216.135097 
L 154.996364 199.705783 
L 171.229091 264.302542 
L 187.461818 225.456369 
L 203.694545 202.055676 
L 219.927273 228.793659 
L 236.16 243.811957 
L 252.392727 264.13885 
L 268.625455 244.540045 
L 284.858182 232.835666 
L 301.090909 221.323601 
L 317.323636 222.891296 
L 333.556364 177.580076 
L 349.789091 163.845977 
L 366.021818 155.945534 
L 382.254545 163.310875 
L 398.487273 151.986198 
" clip-path="url(#pe9dd0a78d8)" style="fill: none; stroke: #35b779; stroke-opacity: 0.5; stroke-width: 1.5; stroke-linecap: square"/>
   </g>
   <g id="line2d_31">
    <path d="M 73.832727 230.162917 
L 90.065455 190.788595 
L 106.298182 238.066446 
L 122.530909 224.620755 
L 138.763636 236.560429 
L 154.996364 247.024624 
L 171.229091 245.494354 
L 187.461818 274.909385 
L 203.694545 244.614035 
L 219.927273 259.318976 
L 236.16 208.45327 
L 252.392727 263.497128 
L 268.625455 197.807782 
L 284.858182 221.374401 
L 301.090909 199.994233 
L 317.323636 186.804607 
L 333.556364 239.062144 
L 349.789091 213.776365 
L 366.021818 177.792524 
L 382.254545 174.098393 
L 398.487273 243.798744 
" clip-path="url(#pe9dd0a78d8)" style="fill: none; stroke: #35b779; stroke-opacity: 0.5; stroke-width: 1.5; stroke-linecap: square"/>
   </g>
   <g id="line2d_32">
    <path d="M 73.832727 247.212492 
L 90.065455 265.474123 
L 106.298182 204.109985 
L 122.530909 226.062863 
L 138.763636 240.269148 
L 154.996364 210.865832 
L 171.229091 250.086092 
L 187.461818 240.382812 
L 203.694545 254.641656 
L 219.927273 224.647647 
L 236.16 222.446497 
L 252.392727 216.038552 
L 268.625455 179.566604 
L 284.858182 201.1569 
L 301.090909 190.90301 
L 317.323636 160.553219 
L 333.556364 155.871957 
L 349.789091 119.173001 
L 366.021818 88.75453 
L 382.254545 147.231304 
L 398.487273 102.184406 
" clip-path="url(#pe9dd0a78d8)" style="fill: none; stroke: #35b779; stroke-opacity: 0.5; stroke-width: 1.5; stroke-linecap: square"/>
   </g>
   <g id="line2d_33">
    <path d="M 73.832727 234.649252 
L 90.065455 160.340294 
L 106.298182 185.840626 
L 122.530909 238.610702 
L 138.763636 225.109072 
L 154.996364 236.525848 
L 171.229091 174.04148 
L 187.461818 194.573204 
L 203.694545 217.220094 
L 219.927273 190.740109 
L 236.16 195.864604 
L 252.392727 174.37537 
L 268.625455 198.105028 
L 284.858182 186.751343 
L 301.090909 195.579974 
L 317.323636 207.103351 
L 333.556364 185.227167 
L 349.789091 219.206129 
L 366.021818 224.636138 
L 382.254545 204.496984 
L 398.487273 204.600781 
" clip-path="url(#pe9dd0a78d8)" style="fill: none; stroke: #35b779; stroke-opacity: 0.5; stroke-width: 1.5; stroke-linecap: square"/>
   </g>
   <g id="line2d_34">
    <path d="M 73.832727 245.771369 
L 90.065455 257.202698 
L 106.298182 117.803836 
L 122.530909 196.538692 
L 138.763636 263.145258 
L 154.996364 209.450942 
L 171.229091 256.374318 
L 187.461818 249.345819 
L 203.694545 244.300808 
L 219.927273 235.491362 
L 236.16 244.261358 
L 252.392727 243.901791 
L 268.625455 243.782724 
L 284.858182 252.262867 
L 301.090909 220.451267 
L 317.323636 213.973634 
L 333.556364 247.176096 
L 349.789091 231.706423 
L 366.021818 210.156931 
L 382.254545 232.538308 
L 398.487273 237.933273 
" clip-path="url(#pe9dd0a78d8)" style="fill: none; stroke: #35b779; stroke-opacity: 0.5; stroke-width: 1.5; stroke-linecap: square"/>
   </g>
   <g id="line2d_35">
    <path d="M 73.832727 135.635567 
L 90.065455 187.030352 
L 106.298182 255.943049 
L 122.530909 245.469098 
L 138.763636 227.64301 
L 154.996364 248.011213 
L 171.229091 239.169673 
L 187.461818 203.68997 
L 203.694545 232.083146 
L 219.927273 183.06474 
L 236.16 232.721457 
L 252.392727 209.342415 
L 268.625455 253.690288 
L 284.858182 225.417845 
L 301.090909 223.213371 
L 317.323636 274.961771 
L 333.556364 204.53577 
L 349.789091 246.42979 
L 366.021818 265.809941 
L 382.254545 258.760526 
L 398.487273 254.060669 
" clip-path="url(#pe9dd0a78d8)" style="fill: none; stroke: #35b779; stroke-opacity: 0.5; stroke-width: 1.5; stroke-linecap: square"/>
   </g>
   <g id="line2d_36">
    <path d="M 73.832727 214.208238 
L 90.065455 261.883436 
L 106.298182 185.874575 
L 122.530909 161.04657 
L 138.763636 180.753616 
L 154.996364 247.199701 
L 171.229091 154.166741 
L 187.461818 141.745467 
L 203.694545 152.682489 
L 219.927273 195.175842 
L 236.16 195.91737 
L 252.392727 186.10529 
L 268.625455 193.30958 
L 284.858182 137.099372 
L 301.090909 148.726195 
L 317.323636 167.855184 
L 333.556364 138.737544 
L 349.789091 174.190946 
L 366.021818 145.267871 
L 382.254545 119.863246 
L 398.487273 169.613689 
" clip-path="url(#pe9dd0a78d8)" style="fill: none; stroke: #35b779; stroke-opacity: 0.5; stroke-width: 1.5; stroke-linecap: square"/>
   </g>
   <g id="line2d_37">
    <path d="M 73.832727 222.389723 
L 90.065455 253.559352 
L 106.298182 252.116577 
L 122.530909 209.727274 
L 138.763636 229.716381 
L 154.996364 243.626204 
L 171.229091 224.325348 
L 187.461818 179.647707 
L 203.694545 184.215397 
L 219.927273 181.298246 
L 236.16 206.021164 
L 252.392727 166.134899 
L 268.625455 192.879324 
L 284.858182 115.077717 
L 301.090909 134.775581 
L 317.323636 162.37167 
L 333.556364 147.750581 
L 349.789091 173.786196 
L 366.021818 175.409204 
L 382.254545 212.846356 
L 398.487273 205.043411 
" clip-path="url(#pe9dd0a78d8)" style="fill: none; stroke: #35b779; stroke-opacity: 0.5; stroke-width: 1.5; stroke-linecap: square"/>
   </g>
   <g id="line2d_38">
    <path d="M 73.832727 222.917157 
L 90.065455 269.913291 
L 106.298182 244.996203 
L 122.530909 249.342593 
L 138.763636 215.241198 
L 154.996364 231.57856 
L 171.229091 259.468631 
L 187.461818 227.955091 
L 203.694545 219.183323 
L 219.927273 219.177395 
L 236.16 247.3883 
L 252.392727 231.908716 
L 268.625455 245.896116 
L 284.858182 208.440107 
L 301.090909 253.427253 
L 317.323636 267.839495 
L 333.556364 260.734628 
L 349.789091 266.100402 
L 366.021818 247.234643 
L 382.254545 262.077014 
L 398.487273 258.568434 
" clip-path="url(#pe9dd0a78d8)" style="fill: none; stroke: #35b779; stroke-opacity: 0.5; stroke-width: 1.5; stroke-linecap: square"/>
   </g>
   <g id="line2d_39">
    <path d="M 73.832727 211.318324 
L 90.065455 281.927891 
L 106.298182 265.57078 
L 122.530909 220.246079 
L 138.763636 285.791189 
L 154.996364 232.654513 
L 171.229091 246.861462 
L 187.461818 230.011724 
L 203.694545 214.675293 
L 219.927273 240.061766 
L 236.16 244.47023 
L 252.392727 240.549153 
L 268.625455 260.07285 
L 284.858182 241.456627 
L 301.090909 218.987877 
L 317.323636 238.151861 
L 333.556364 200.228721 
L 349.789091 234.685632 
L 366.021818 229.821283 
L 382.254545 214.584494 
L 398.487273 233.159005 
" clip-path="url(#pe9dd0a78d8)" style="fill: none; stroke: #35b779; stroke-opacity: 0.5; stroke-width: 1.5; stroke-linecap: square"/>
   </g>
   <g id="line2d_40">
    <path d="M 73.832727 222.088701 
L 90.065455 234.262219 
L 106.298182 238.496579 
L 122.530909 234.399462 
L 138.763636 220.978072 
L 154.996364 231.264038 
L 171.229091 198.557223 
L 187.461818 181.310787 
L 203.694545 167.0002 
L 219.927273 187.828366 
L 236.16 218.531274 
L 252.392727 169.28213 
L 268.625455 189.852907 
L 284.858182 178.335795 
L 301.090909 204.455318 
L 317.323636 237.678692 
L 333.556364 201.737491 
L 349.789091 224.46522 
L 366.021818 226.355645 
L 382.254545 234.989193 
L 398.487273 224.464107 
" clip-path="url(#pe9dd0a78d8)" style="fill: none; stroke: #35b779; stroke-opacity: 0.5; stroke-width: 1.5; stroke-linecap: square"/>
   </g>
   <g id="line2d_41">
    <path d="M 73.832727 225.814251 
L 90.065455 273.712227 
L 106.298182 276.798076 
L 122.530909 248.882017 
L 138.763636 233.530062 
L 154.996364 226.483489 
L 171.229091 257.22108 
L 187.461818 258.392734 
L 203.694545 269.518226 
L 219.927273 216.769718 
L 236.16 200.312874 
L 252.392727 233.87346 
L 268.625455 180.746951 
L 284.858182 217.425404 
L 301.090909 207.733478 
L 317.323636 215.822288 
L 333.556364 153.98305 
L 349.789091 159.164404 
L 366.021818 241.524097 
L 382.254545 166.054632 
L 398.487273 169.873661 
" clip-path="url(#pe9dd0a78d8)" style="fill: none; stroke: #35b779; stroke-opacity: 0.5; stroke-width: 1.5; stroke-linecap: square"/>
   </g>
   <g id="line2d_42">
    <path d="M 73.832727 245.754309 
L 90.065455 243.202154 
L 106.298182 251.867673 
L 122.530909 234.612288 
L 138.763636 247.068535 
L 154.996364 233.619615 
L 171.229091 258.934977 
L 187.461818 202.971094 
L 203.694545 226.87992 
L 219.927273 197.251257 
L 236.16 168.116537 
L 252.392727 239.065735 
L 268.625455 202.498475 
L 284.858182 245.098434 
L 301.090909 220.939459 
L 317.323636 203.656088 
L 333.556364 213.158021 
L 349.789091 184.75708 
L 366.021818 186.233382 
L 382.254545 246.32718 
L 398.487273 184.928908 
" clip-path="url(#pe9dd0a78d8)" style="fill: none; stroke: #35b779; stroke-opacity: 0.5; stroke-width: 1.5; stroke-linecap: square"/>
   </g>
   <g id="line2d_43">
    <path d="M 73.832727 268.812012 
L 90.065455 241.80338 
L 106.298182 222.499172 
L 122.530909 203.149881 
L 138.763636 202.96795 
L 154.996364 239.023127 
L 171.229091 196.432026 
L 187.461818 184.297436 
L 203.694545 161.188661 
L 219.927273 170.47885 
L 236.16 196.156452 
L 252.392727 207.09059 
L 268.625455 178.697424 
L 284.858182 208.546893 
L 301.090909 210.05547 
L 317.323636 156.124004 
L 333.556364 154.520678 
L 349.789091 182.171274 
L 366.021818 165.058288 
L 382.254545 212.166839 
L 398.487273 178.398261 
" clip-path="url(#pe9dd0a78d8)" style="fill: none; stroke: #35b779; stroke-opacity: 0.5; stroke-width: 1.5; stroke-linecap: square"/>
   </g>
   <g id="line2d_44">
    <path d="M 73.832727 262.309793 
L 90.065455 232.647045 
L 106.298182 259.152003 
L 122.530909 227.691933 
L 138.763636 294.029862 
L 154.996364 270.340362 
L 171.229091 275.160486 
L 187.461818 242.060496 
L 203.694545 232.743957 
L 219.927273 224.404304 
L 236.16 227.90911 
L 252.392727 214.416968 
L 268.625455 238.584883 
L 284.858182 225.688635 
L 301.090909 219.09719 
L 317.323636 207.185303 
L 333.556364 251.075333 
L 349.789091 248.714805 
L 366.021818 222.314061 
L 382.254545 268.726793 
L 398.487273 260.709686 
" clip-path="url(#pe9dd0a78d8)" style="fill: none; stroke: #35b779; stroke-opacity: 0.5; stroke-width: 1.5; stroke-linecap: square"/>
   </g>
   <g id="line2d_45">
    <path d="M 73.832727 173.470239 
L 90.065455 219.436851 
L 106.298182 242.216308 
L 122.530909 261.958944 
L 138.763636 253.578294 
L 154.996364 243.601167 
L 171.229091 257.704957 
L 187.461818 226.534291 
L 203.694545 209.725927 
L 219.927273 212.542985 
L 236.16 210.363538 
L 252.392727 163.961606 
L 268.625455 200.458646 
L 284.858182 181.635395 
L 301.090909 207.180385 
L 317.323636 206.613384 
L 333.556364 230.762349 
L 349.789091 257.927025 
L 366.021818 238.162471 
L 382.254545 246.96678 
L 398.487273 264.326716 
" clip-path="url(#pe9dd0a78d8)" style="fill: none; stroke: #35b779; stroke-opacity: 0.5; stroke-width: 1.5; stroke-linecap: square"/>
   </g>
   <g id="line2d_46">
    <path d="M 73.832727 263.141003 
L 90.065455 273.439784 
L 106.298182 220.472108 
L 122.530909 258.577567 
L 138.763636 257.755339 
L 154.996364 236.107127 
L 171.229091 272.575985 
L 187.461818 272.890504 
L 203.694545 217.148291 
L 219.927273 178.740948 
L 236.16 202.538346 
L 252.392727 233.639535 
L 268.625455 209.690038 
L 284.858182 181.596753 
L 301.090909 192.687943 
L 317.323636 178.959095 
L 333.556364 198.744753 
L 349.789091 184.353997 
L 366.021818 190.220121 
L 382.254545 220.114265 
L 398.487273 199.999221 
" clip-path="url(#pe9dd0a78d8)" style="fill: none; stroke: #35b779; stroke-opacity: 0.5; stroke-width: 1.5; stroke-linecap: square"/>
   </g>
   <g id="line2d_47">
    <path d="M 73.832727 253.340698 
L 90.065455 159.904272 
L 106.298182 249.060934 
L 122.530909 241.272375 
L 138.763636 238.345555 
L 154.996364 210.972139 
L 171.229091 214.605379 
L 187.461818 248.369788 
L 203.694545 212.697845 
L 219.927273 167.634488 
L 236.16 190.203473 
L 252.392727 168.967772 
L 268.625455 156.299515 
L 284.858182 151.197385 
L 301.090909 148.302393 
L 317.323636 148.769622 
L 333.556364 131.988164 
L 349.789091 193.340303 
L 366.021818 221.472783 
L 382.254545 194.783525 
L 398.487273 203.571826 
" clip-path="url(#pe9dd0a78d8)" style="fill: none; stroke: #35b779; stroke-opacity: 0.5; stroke-width: 1.5; stroke-linecap: square"/>
   </g>
   <g id="line2d_48">
    <path d="M 73.832727 177.816404 
L 90.065455 270.496885 
L 106.298182 262.618371 
L 122.530909 239.342964 
L 138.763636 222.660098 
L 154.996364 218.564092 
L 171.229091 182.899683 
L 187.461818 211.200827 
L 203.694545 191.846641 
L 219.927273 197.864397 
L 236.16 148.559468 
L 252.392727 156.393146 
L 268.625455 198.281965 
L 284.858182 188.365378 
L 301.090909 161.20656 
L 317.323636 144.782021 
L 333.556364 198.104323 
L 349.789091 222.037358 
L 366.021818 211.082059 
L 382.254545 245.396446 
L 398.487273 229.42974 
" clip-path="url(#pe9dd0a78d8)" style="fill: none; stroke: #35b779; stroke-opacity: 0.5; stroke-width: 1.5; stroke-linecap: square"/>
   </g>
   <g id="line2d_49">
    <path d="M 73.832727 205.953748 
L 90.065455 198.875922 
L 106.298182 243.73547 
L 122.530909 231.997538 
L 138.763636 175.903033 
L 154.996364 204.290369 
L 171.229091 248.846328 
L 187.461818 243.482073 
L 203.694545 248.89196 
L 219.927273 228.729057 
L 236.16 210.393225 
L 252.392727 187.701811 
L 268.625455 237.146066 
L 284.858182 221.44281 
L 301.090909 210.821002 
L 317.323636 204.006299 
L 333.556364 230.40571 
L 349.789091 269.25468 
L 366.021818 243.440498 
L 382.254545 185.760295 
L 398.487273 269.702495 
" clip-path="url(#pe9dd0a78d8)" style="fill: none; stroke: #35b779; stroke-opacity: 0.5; stroke-width: 1.5; stroke-linecap: square"/>
   </g>
   <g id="line2d_50">
    <path d="M 73.832727 230.625194 
L 90.065455 222.622296 
L 106.298182 227.926845 
L 122.530909 215.541496 
L 138.763636 247.695585 
L 154.996364 226.067846 
L 171.229091 242.966138 
L 187.461818 184.111457 
L 203.694545 181.998001 
L 219.927273 186.076616 
L 236.16 223.154031 
L 252.392727 203.289454 
L 268.625455 229.227879 
L 284.858182 192.883858 
L 301.090909 231.52482 
L 317.323636 196.826845 
L 333.556364 184.078734 
L 349.789091 188.102357 
L 366.021818 186.440818 
L 382.254545 211.887464 
L 398.487273 226.956008 
" clip-path="url(#pe9dd0a78d8)" style="fill: none; stroke: #35b779; stroke-opacity: 0.5; stroke-width: 1.5; stroke-linecap: square"/>
   </g>
   <g id="line2d_51">
    <path d="M 73.832727 245.656911 
L 90.065455 216.071524 
L 106.298182 266.029068 
L 122.530909 234.375596 
L 138.763636 265.219088 
L 154.996364 235.465585 
L 171.229091 170.219371 
L 187.461818 194.522718 
L 203.694545 187.251135 
L 219.927273 199.687819 
L 236.16 187.302463 
L 252.392727 192.412426 
L 268.625455 237.842034 
L 284.858182 199.928648 
L 301.090909 224.879014 
L 317.323636 226.774994 
L 333.556364 209.083667 
L 349.789091 204.697396 
L 366.021818 174.675849 
L 382.254545 185.164274 
L 398.487273 218.374973 
" clip-path="url(#pe9dd0a78d8)" style="fill: none; stroke: #35b779; stroke-opacity: 0.5; stroke-width: 1.5; stroke-linecap: square"/>
   </g>
   <g id="line2d_52">
    <path d="M 73.832727 273.748936 
L 90.065455 243.444786 
L 106.298182 255.703346 
L 122.530909 216.732585 
L 138.763636 201.750458 
L 154.996364 186.45307 
L 171.229091 201.647542 
L 187.461818 204.94807 
L 203.694545 217.038739 
L 219.927273 212.695435 
L 236.16 198.96284 
L 252.392727 163.473069 
L 268.625455 202.129034 
L 284.858182 235.809262 
L 301.090909 206.547789 
L 317.323636 221.475963 
L 333.556364 206.427861 
L 349.789091 201.527968 
L 366.021818 201.597792 
L 382.254545 185.677352 
L 398.487273 201.186862 
" clip-path="url(#pe9dd0a78d8)" style="fill: none; stroke: #35b779; stroke-opacity: 0.5; stroke-width: 1.5; stroke-linecap: square"/>
   </g>
   <g id="line2d_53">
    <path d="M 73.832727 265.367039 
L 90.065455 256.093366 
L 106.298182 283.83562 
L 122.530909 243.808534 
L 138.763636 211.413206 
L 154.996364 248.366841 
L 171.229091 195.005478 
L 187.461818 235.92046 
L 203.694545 197.466875 
L 219.927273 225.475264 
L 236.16 177.699511 
L 252.392727 190.145181 
L 268.625455 183.451051 
L 284.858182 212.470313 
L 301.090909 199.505081 
L 317.323636 189.833294 
L 333.556364 181.221785 
L 349.789091 193.093426 
L 366.021818 254.834396 
L 382.254545 233.11824 
L 398.487273 221.462384 
" clip-path="url(#pe9dd0a78d8)" style="fill: none; stroke: #35b779; stroke-opacity: 0.5; stroke-width: 1.5; stroke-linecap: square"/>
   </g>
   <g id="line2d_54">
    <path d="M 73.832727 195.249167 
L 90.065455 186.609171 
L 106.298182 227.430668 
L 122.530909 164.672644 
L 138.763636 203.310543 
L 154.996364 173.67602 
L 171.229091 137.835108 
L 187.461818 185.930441 
L 203.694545 155.80953 
L 219.927273 220.926184 
L 236.16 143.285102 
L 252.392727 117.294334 
L 268.625455 191.074242 
L 284.858182 182.769085 
L 301.090909 191.900998 
L 317.323636 140.003724 
L 333.556364 151.06825 
L 349.789091 158.816691 
L 366.021818 123.201822 
L 382.254545 164.150511 
L 398.487273 134.558863 
" clip-path="url(#pe9dd0a78d8)" style="fill: none; stroke: #35b779; stroke-opacity: 0.5; stroke-width: 1.5; stroke-linecap: square"/>
   </g>
   <g id="patch_3">
    <path d="M 57.6 307.584 
L 57.6 41.472 
" style="fill: none; stroke: #000000; stroke-width: 3; stroke-linejoin: miter; stroke-linecap: square"/>
   </g>
   <g id="patch_4">
    <path d="M 414.72 307.584 
L 414.72 41.472 
" style="fill: none; stroke: #000000; stroke-width: 3; stroke-linejoin: miter; stroke-linecap: square"/>
   </g>
   <g id="patch_5">
    <path d="M 57.6 307.584 
L 414.72 307.584 
" style="fill: none; stroke: #000000; stroke-width: 3; stroke-linejoin: miter; stroke-linecap: square"/>
   </g>
   <g id="patch_6">
    <path d="M 57.6 41.472 
L 414.72 41.472 
" style="fill: none; stroke: #000000; stroke-width: 3; stroke-linejoin: miter; stroke-linecap: square"/>
   </g>
   <g id="text_10">
    <!-- Atom Type O (n=45, mean Q=9.41) -->
    <g transform="translate(39.839219 35.472) scale(0.22 -0.22)">
     <defs>
      <path id="DejaVuSans-41" d="M 2188 4044 
L 1331 1722 
L 3047 1722 
L 2188 4044 
z
M 1831 4666 
L 2547 4666 
L 4325 0 
L 3669 0 
L 3244 1197 
L 1141 1197 
L 716 0 
L 50 0 
L 1831 4666 
z
" transform="scale(0.015625)"/>
      <path id="DejaVuSans-74" d="M 1172 4494 
L 1172 3500 
L 2356 3500 
L 2356 3053 
L 1172 3053 
L 1172 1153 
Q 1172 725 1289 603 
Q 1406 481 1766 481 
L 2356 481 
L 2356 0 
L 1766 0 
Q 1100 0 847 248 
Q 594 497 594 1153 
L 594 3053 
L 172 3053 
L 172 3500 
L 594 3500 
L 594 4494 
L 1172 4494 
z
" transform="scale(0.015625)"/>
      <path id="DejaVuSans-6f" d="M 1959 3097 
Q 1497 3097 1228 2736 
Q 959 2375 959 1747 
Q 959 1119 1226 758 
Q 1494 397 1959 397 
Q 2419 397 2687 759 
Q 2956 1122 2956 1747 
Q 2956 2369 2687 2733 
Q 2419 3097 1959 3097 
z
M 1959 3584 
Q 2709 3584 3137 3096 
Q 3566 2609 3566 1747 
Q 3566 888 3137 398 
Q 2709 -91 1959 -91 
Q 1206 -91 779 398 
Q 353 888 353 1747 
Q 353 2609 779 3096 
Q 1206 3584 1959 3584 
z
" transform="scale(0.015625)"/>
      <path id="DejaVuSans-6d" d="M 3328 2828 
Q 3544 3216 3844 3400 
Q 4144 3584 4550 3584 
Q 5097 3584 5394 3201 
Q 5691 2819 5691 2113 
L 5691 0 
L 5113 0 
L 5113 2094 
Q 5113 2597 4934 2840 
Q 4756 3084 4391 3084 
Q 3944 3084 3684 2787 
Q 3425 2491 3425 1978 
L 3425 0 
L 2847 0 
L 2847 2094 
Q 2847 2600 2669 2842 
Q 2491 3084 2119 3084 
Q 1678 3084 1418 2786 
Q 1159 2488 1159 1978 
L 1159 0 
L 581 0 
L 581 3500 
L 1159 3500 
L 1159 2956 
Q 1356 3278 1631 3431 
Q 1906 3584 2284 3584 
Q 2666 3584 2933 3390 
Q 3200 3197 3328 2828 
z
" transform="scale(0.015625)"/>
      <path id="DejaVuSans-20" transform="scale(0.015625)"/>
      <path id="DejaVuSans-54" d="M -19 4666 
L 3928 4666 
L 3928 4134 
L 2272 4134 
L 2272 0 
L 1638 0 
L 1638 4134 
L -19 4134 
L -19 4666 
z
" transform="scale(0.015625)"/>
      <path id="DejaVuSans-79" d="M 2059 -325 
Q 1816 -950 1584 -1140 
Q 1353 -1331 966 -1331 
L 506 -1331 
L 506 -850 
L 844 -850 
Q 1081 -850 1212 -737 
Q 1344 -625 1503 -206 
L 1606 56 
L 191 3500 
L 800 3500 
L 1894 763 
L 2988 3500 
L 3597 3500 
L 2059 -325 
z
" transform="scale(0.015625)"/>
      <path id="DejaVuSans-70" d="M 1159 525 
L 1159 -1331 
L 581 -1331 
L 581 3500 
L 1159 3500 
L 1159 2969 
Q 1341 3281 1617 3432 
Q 1894 3584 2278 3584 
Q 2916 3584 3314 3078 
Q 3713 2572 3713 1747 
Q 3713 922 3314 415 
Q 2916 -91 2278 -91 
Q 1894 -91 1617 61 
Q 1341 213 1159 525 
z
M 3116 1747 
Q 3116 2381 2855 2742 
Q 2594 3103 2138 3103 
Q 1681 3103 1420 2742 
Q 1159 2381 1159 1747 
Q 1159 1113 1420 752 
Q 1681 391 2138 391 
Q 2594 391 2855 752 
Q 3116 1113 3116 1747 
z
" transform="scale(0.015625)"/>
      <path id="DejaVuSans-65" d="M 3597 1894 
L 3597 1613 
L 953 1613 
Q 991 1019 1311 708 
Q 1631 397 2203 397 
Q 2534 397 2845 478 
Q 3156 559 3463 722 
L 3463 178 
Q 3153 47 2828 -22 
Q 2503 -91 2169 -91 
Q 1331 -91 842 396 
Q 353 884 353 1716 
Q 353 2575 817 3079 
Q 1281 3584 2069 3584 
Q 2775 3584 3186 3129 
Q 3597 2675 3597 1894 
z
M 3022 2063 
Q 3016 2534 2758 2815 
Q 2500 3097 2075 3097 
Q 1594 3097 1305 2825 
Q 1016 2553 972 2059 
L 3022 2063 
z
" transform="scale(0.015625)"/>
      <path id="DejaVuSans-4f" d="M 2522 4238 
Q 1834 4238 1429 3725 
Q 1025 3213 1025 2328 
Q 1025 1447 1429 934 
Q 1834 422 2522 422 
Q 3209 422 3611 934 
Q 4013 1447 4013 2328 
Q 4013 3213 3611 3725 
Q 3209 4238 2522 4238 
z
M 2522 4750 
Q 3503 4750 4090 4092 
Q 4678 3434 4678 2328 
Q 4678 1225 4090 567 
Q 3503 -91 2522 -91 
Q 1538 -91 948 565 
Q 359 1222 359 2328 
Q 359 3434 948 4092 
Q 1538 4750 2522 4750 
z
" transform="scale(0.015625)"/>
      <path id="DejaVuSans-28" d="M 1984 4856 
Q 1566 4138 1362 3434 
Q 1159 2731 1159 2009 
Q 1159 1288 1364 580 
Q 1569 -128 1984 -844 
L 1484 -844 
Q 1016 -109 783 600 
Q 550 1309 550 2009 
Q 550 2706 781 3412 
Q 1013 4119 1484 4856 
L 1984 4856 
z
" transform="scale(0.015625)"/>
      <path id="DejaVuSans-6e" d="M 3513 2113 
L 3513 0 
L 2938 0 
L 2938 2094 
Q 2938 2591 2744 2837 
Q 2550 3084 2163 3084 
Q 1697 3084 1428 2787 
Q 1159 2491 1159 1978 
L 1159 0 
L 581 0 
L 581 3500 
L 1159 3500 
L 1159 2956 
Q 1366 3272 1645 3428 
Q 1925 3584 2291 3584 
Q 2894 3584 3203 3211 
Q 3513 2838 3513 2113 
z
" transform="scale(0.015625)"/>
      <path id="DejaVuSans-3d" d="M 678 2906 
L 4684 2906 
L 4684 2381 
L 678 2381 
L 678 2906 
z
M 678 1631 
L 4684 1631 
L 4684 1100 
L 678 1100 
L 678 1631 
z
" transform="scale(0.015625)"/>
      <path id="DejaVuSans-34" d="M 2419 4116 
L 825 1625 
L 2419 1625 
L 2419 4116 
z
M 2253 4666 
L 3047 4666 
L 3047 1625 
L 3713 1625 
L 3713 1100 
L 3047 1100 
L 3047 0 
L 2419 0 
L 2419 1100 
L 313 1100 
L 313 1709 
L 2253 4666 
z
" transform="scale(0.015625)"/>
      <path id="DejaVuSans-2c" d="M 750 794 
L 1409 794 
L 1409 256 
L 897 -744 
L 494 -744 
L 750 256 
L 750 794 
z
" transform="scale(0.015625)"/>
      <path id="DejaVuSans-61" d="M 2194 1759 
Q 1497 1759 1228 1600 
Q 959 1441 959 1056 
Q 959 750 1161 570 
Q 1363 391 1709 391 
Q 2188 391 2477 730 
Q 2766 1069 2766 1631 
L 2766 1759 
L 2194 1759 
z
M 3341 1997 
L 3341 0 
L 2766 0 
L 2766 531 
Q 2569 213 2275 61 
Q 1981 -91 1556 -91 
Q 1019 -91 701 211 
Q 384 513 384 1019 
Q 384 1609 779 1909 
Q 1175 2209 1959 2209 
L 2766 2209 
L 2766 2266 
Q 2766 2663 2505 2880 
Q 2244 3097 1772 3097 
Q 1472 3097 1187 3025 
Q 903 2953 641 2809 
L 641 3341 
Q 956 3463 1253 3523 
Q 1550 3584 1831 3584 
Q 2591 3584 2966 3190 
Q 3341 2797 3341 1997 
z
" transform="scale(0.015625)"/>
      <path id="DejaVuSans-51" d="M 2522 4238 
Q 1834 4238 1429 3725 
Q 1025 3213 1025 2328 
Q 1025 1447 1429 934 
Q 1834 422 2522 422 
Q 3209 422 3611 934 
Q 4013 1447 4013 2328 
Q 4013 3213 3611 3725 
Q 3209 4238 2522 4238 
z
M 3406 84 
L 4238 -825 
L 3475 -825 
L 2784 -78 
Q 2681 -84 2626 -87 
Q 2572 -91 2522 -91 
Q 1538 -91 948 567 
Q 359 1225 359 2328 
Q 359 3434 948 4092 
Q 1538 4750 2522 4750 
Q 3503 4750 4090 4092 
Q 4678 3434 4678 2328 
Q 4678 1516 4351 937 
Q 4025 359 3406 84 
z
" transform="scale(0.015625)"/>
      <path id="DejaVuSans-39" d="M 703 97 
L 703 672 
Q 941 559 1184 500 
Q 1428 441 1663 441 
Q 2288 441 2617 861 
Q 2947 1281 2994 2138 
Q 2813 1869 2534 1725 
Q 2256 1581 1919 1581 
Q 1219 1581 811 2004 
Q 403 2428 403 3163 
Q 403 3881 828 4315 
Q 1253 4750 1959 4750 
Q 2769 4750 3195 4129 
Q 3622 3509 3622 2328 
Q 3622 1225 3098 567 
Q 2575 -91 1691 -91 
Q 1453 -91 1209 -44 
Q 966 3 703 97 
z
M 1959 2075 
Q 2384 2075 2632 2365 
Q 2881 2656 2881 3163 
Q 2881 3666 2632 3958 
Q 2384 4250 1959 4250 
Q 1534 4250 1286 3958 
Q 1038 3666 1038 3163 
Q 1038 2656 1286 2365 
Q 1534 2075 1959 2075 
z
" transform="scale(0.015625)"/>
      <path id="DejaVuSans-2e" d="M 684 794 
L 1344 794 
L 1344 0 
L 684 0 
L 684 794 
z
" transform="scale(0.015625)"/>
      <path id="DejaVuSans-29" d="M 513 4856 
L 1013 4856 
Q 1481 4119 1714 3412 
Q 1947 2706 1947 2009 
Q 1947 1309 1714 600 
Q 1481 -109 1013 -844 
L 513 -844 
Q 928 -128 1133 580 
Q 1338 1288 1338 2009 
Q 1338 2731 1133 3434 
Q 928 4138 513 4856 
z
" transform="scale(0.015625)"/>
     </defs>
     <use xlink:href="#DejaVuSans-41"/>
     <use xlink:href="#DejaVuSans-74" transform="translate(66.658203 0)"/>
     <use xlink:href="#DejaVuSans-6f" transform="translate(105.867188 0)"/>
     <use xlink:href="#DejaVuSans-6d" transform="translate(167.048828 0)"/>
     <use xlink:href="#DejaVuSans-20" transform="translate(264.460938 0)"/>
     <use xlink:href="#DejaVuSans-54" transform="translate(296.248047 0)"/>
     <use xlink:href="#DejaVuSans-79" transform="translate(341.707031 0)"/>
     <use xlink:href="#DejaVuSans-70" transform="translate(400.886719 0)"/>
     <use xlink:href="#DejaVuSans-65" transform="translate(464.363281 0)"/>
     <use xlink:href="#DejaVuSans-20" transform="translate(525.886719 0)"/>
     <use xlink:href="#DejaVuSans-4f" transform="translate(557.673828 0)"/>
     <use xlink:href="#DejaVuSans-20" transform="translate(636.384766 0)"/>
     <use xlink:href="#DejaVuSans-28" transform="translate(668.171875 0)"/>
     <use xlink:href="#DejaVuSans-6e" transform="translate(707.185547 0)"/>
     <use xlink:href="#DejaVuSans-3d" transform="translate(770.564453 0)"/>
     <use xlink:href="#DejaVuSans-34" transform="translate(854.353516 0)"/>
     <use xlink:href="#DejaVuSans-35" transform="translate(917.976562 0)"/>
     <use xlink:href="#DejaVuSans-2c" transform="translate(981.599609 0)"/>
     <use xlink:href="#DejaVuSans-20" transform="translate(1013.386719 0)"/>
     <use xlink:href="#DejaVuSans-6d" transform="translate(1045.173828 0)"/>
     <use xlink:href="#DejaVuSans-65" transform="translate(1142.585938 0)"/>
     <use xlink:href="#DejaVuSans-61" transform="translate(1204.109375 0)"/>
     <use xlink:href="#DejaVuSans-6e" transform="translate(1265.388672 0)"/>
     <use xlink:href="#DejaVuSans-20" transform="translate(1328.767578 0)"/>
     <use xlink:href="#DejaVuSans-51" transform="translate(1360.554688 0)"/>
     <use xlink:href="#DejaVuSans-3d" transform="translate(1439.265625 0)"/>
     <use xlink:href="#DejaVuSans-39" transform="translate(1523.054688 0)"/>
     <use xlink:href="#DejaVuSans-2e" transform="translate(1586.677734 0)"/>
     <use xlink:href="#DejaVuSans-34" transform="translate(1618.464844 0)"/>
     <use xlink:href="#DejaVuSans-31" transform="translate(1682.087891 0)"/>
     <use xlink:href="#DejaVuSans-29" transform="translate(1745.710938 0)"/>
    </g>
   </g>
  </g>
 </g>
 <defs>
  <clipPath id="pe9dd0a78d8">
   <rect x="57.6" y="41.472" width="357.12" height="266.112"/>
  </clipPath>
 </defs>
</svg>
