<?xml version="1.0" encoding="utf-8" standalone="no"?>
<!DOCTYPE svg PUBLIC "-//W3C//DTD SVG 1.1//EN"
  "http://www.w3.org/Graphics/SVG/1.1/DTD/svg11.dtd">
<svg xmlns:xlink="http://www.w3.org/1999/xlink" width="460.8pt" height="345.6pt" viewBox="0 0 460.8 345.6" xmlns="http://www.w3.org/2000/svg" version="1.1">
 <metadata>
  <rdf:RDF xmlns:dc="http://purl.org/dc/elements/1.1/" xmlns:cc="http://creativecommons.org/ns#" xmlns:rdf="http://www.w3.org/1999/02/22-rdf-syntax-ns#">
   <cc:Work>
    <dc:type rdf:resource="http://purl.org/dc/dcmitype/StillImage"/>
    <dc:date>2025-12-10T15:25:53.492979</dc:date>
    <dc:format>image/svg+xml</dc:format>
    <dc:creator>
     <cc:Agent>
      <dc:title>Matplotlib v3.10.3, https://matplotlib.org/</dc:title>
     </cc:Agent>
    </dc:creator>
   </cc:Work>
  </rdf:RDF>
 </metadata>
 <defs>
  <style type="text/css">*{stroke-linejoin: round; stroke-linecap: butt}</style>
 </defs>
 <g id="figure_1">
  <g id="patch_1">
   <path d="M 0 345.6 
L 460.8 345.6 
L 460.8 0 
L 0 0 
z
" style="fill: #ffffff"/>
  </g>
  <g id="axes_1">
   <g id="patch_2">
    <path d="M 57.6 307.584 
L 414.72 307.584 
L 414.72 41.472 
L 57.6 41.472 
z
" style="fill: #ffffff"/>
   </g>
   <g id="matplotlib.axis_1">
    <g id="xtick_1">
     <g id="line2d_1">
      <defs>
       <path id="m03abfb5cda" d="M 0 0 
L 0 3.5 
" style="stroke: #000000; stroke-width: 0.8"/>
      </defs>
      <g>
       <use xlink:href="#m03abfb5cda" x="73.832727" y="307.584" style="stroke: #000000; stroke-width: 0.8"/>
      </g>
     </g>
     <g id="text_1">
      <!-- 0 -->
      <g transform="translate(69.060852 325.981656) scale(0.15 -0.15)">
       <defs>
        <path id="DejaVuSans-30" d="M 2034 4250 
Q 1547 4250 1301 3770 
Q 1056 3291 1056 2328 
Q 1056 1369 1301 889 
Q 1547 409 2034 409 
Q 2525 409 2770 889 
Q 3016 1369 3016 2328 
Q 3016 3291 2770 3770 
Q 2525 4250 2034 4250 
z
M 2034 4750 
Q 2819 4750 3233 4129 
Q 3647 3509 3647 2328 
Q 3647 1150 3233 529 
Q 2819 -91 2034 -91 
Q 1250 -91 836 529 
Q 422 1150 422 2328 
Q 422 3509 836 4129 
Q 1250 4750 2034 4750 
z
" transform="scale(0.015625)"/>
       </defs>
       <use xlink:href="#DejaVuSans-30"/>
      </g>
     </g>
    </g>
    <g id="xtick_2">
     <g id="line2d_2">
      <g>
       <use xlink:href="#m03abfb5cda" x="164.014545" y="307.584" style="stroke: #000000; stroke-width: 0.8"/>
      </g>
     </g>
     <g id="text_2">
      <!-- 50 -->
      <g transform="translate(154.470795 325.981656) scale(0.15 -0.15)">
       <defs>
        <path id="DejaVuSans-35" d="M 691 4666 
L 3169 4666 
L 3169 4134 
L 1269 4134 
L 1269 2991 
Q 1406 3038 1543 3061 
Q 1681 3084 1819 3084 
Q 2600 3084 3056 2656 
Q 3513 2228 3513 1497 
Q 3513 744 3044 326 
Q 2575 -91 1722 -91 
Q 1428 -91 1123 -41 
Q 819 9 494 109 
L 494 744 
Q 775 591 1075 516 
Q 1375 441 1709 441 
Q 2250 441 2565 725 
Q 2881 1009 2881 1497 
Q 2881 1984 2565 2268 
Q 2250 2553 1709 2553 
Q 1456 2553 1204 2497 
Q 953 2441 691 2322 
L 691 4666 
z
" transform="scale(0.015625)"/>
       </defs>
       <use xlink:href="#DejaVuSans-35"/>
       <use xlink:href="#DejaVuSans-30" transform="translate(63.623047 0)"/>
      </g>
     </g>
    </g>
    <g id="xtick_3">
     <g id="line2d_3">
      <g>
       <use xlink:href="#m03abfb5cda" x="254.196364" y="307.584" style="stroke: #000000; stroke-width: 0.8"/>
      </g>
     </g>
     <g id="text_3">
      <!-- 100 -->
      <g transform="translate(239.880739 325.981656) scale(0.15 -0.15)">
       <defs>
        <path id="DejaVuSans-31" d="M 794 531 
L 1825 531 
L 1825 4091 
L 703 3866 
L 703 4441 
L 1819 4666 
L 2450 4666 
L 2450 531 
L 3481 531 
L 3481 0 
L 794 0 
L 794 531 
z
" transform="scale(0.015625)"/>
       </defs>
       <use xlink:href="#DejaVuSans-31"/>
       <use xlink:href="#DejaVuSans-30" transform="translate(63.623047 0)"/>
       <use xlink:href="#DejaVuSans-30" transform="translate(127.246094 0)"/>
      </g>
     </g>
    </g>
    <g id="xtick_4">
     <g id="line2d_4">
      <g>
       <use xlink:href="#m03abfb5cda" x="344.378182" y="307.584" style="stroke: #000000; stroke-width: 0.8"/>
      </g>
     </g>
     <g id="text_4">
      <!-- 150 -->
      <g transform="translate(330.062557 325.981656) scale(0.15 -0.15)">
       <use xlink:href="#DejaVuSans-31"/>
       <use xlink:href="#DejaVuSans-35" transform="translate(63.623047 0)"/>
       <use xlink:href="#DejaVuSans-30" transform="translate(127.246094 0)"/>
      </g>
     </g>
    </g>
   </g>
   <g id="matplotlib.axis_2">
    <g id="ytick_1">
     <g id="line2d_5">
      <defs>
       <path id="m4762a1d492" d="M 0 0 
L -3.5 0 
" style="stroke: #000000; stroke-width: 0.8"/>
      </defs>
      <g>
       <use xlink:href="#m4762a1d492" x="57.6" y="302.649059" style="stroke: #000000; stroke-width: 0.8"/>
      </g>
     </g>
     <g id="text_5">
      <!-- 30 -->
      <g transform="translate(31.5125 308.347887) scale(0.15 -0.15)">
       <defs>
        <path id="DejaVuSans-33" d="M 2597 2516 
Q 3050 2419 3304 2112 
Q 3559 1806 3559 1356 
Q 3559 666 3084 287 
Q 2609 -91 1734 -91 
Q 1441 -91 1130 -33 
Q 819 25 488 141 
L 488 750 
Q 750 597 1062 519 
Q 1375 441 1716 441 
Q 2309 441 2620 675 
Q 2931 909 2931 1356 
Q 2931 1769 2642 2001 
Q 2353 2234 1838 2234 
L 1294 2234 
L 1294 2753 
L 1863 2753 
Q 2328 2753 2575 2939 
Q 2822 3125 2822 3475 
Q 2822 3834 2567 4026 
Q 2313 4219 1838 4219 
Q 1578 4219 1281 4162 
Q 984 4106 628 3988 
L 628 4550 
Q 988 4650 1302 4700 
Q 1616 4750 1894 4750 
Q 2613 4750 3031 4423 
Q 3450 4097 3450 3541 
Q 3450 3153 3228 2886 
Q 3006 2619 2597 2516 
z
" transform="scale(0.015625)"/>
       </defs>
       <use xlink:href="#DejaVuSans-33"/>
       <use xlink:href="#DejaVuSans-30" transform="translate(63.623047 0)"/>
      </g>
     </g>
    </g>
    <g id="ytick_2">
     <g id="line2d_6">
      <g>
       <use xlink:href="#m4762a1d492" x="57.6" y="257.124252" style="stroke: #000000; stroke-width: 0.8"/>
      </g>
     </g>
     <g id="text_6">
      <!-- 35 -->
      <g transform="translate(31.5125 262.82308) scale(0.15 -0.15)">
       <use xlink:href="#DejaVuSans-33"/>
       <use xlink:href="#DejaVuSans-35" transform="translate(63.623047 0)"/>
      </g>
     </g>
    </g>
    <g id="ytick_3">
     <g id="line2d_7">
      <g>
       <use xlink:href="#m4762a1d492" x="57.6" y="211.599445" style="stroke: #000000; stroke-width: 0.8"/>
      </g>
     </g>
     <g id="text_7">
      <!-- 40 -->
      <g transform="translate(31.5125 217.298274) scale(0.15 -0.15)">
       <defs>
        <path id="DejaVuSans-34" d="M 2419 4116 
L 825 1625 
L 2419 1625 
L 2419 4116 
z
M 2253 4666 
L 3047 4666 
L 3047 1625 
L 3713 1625 
L 3713 1100 
L 3047 1100 
L 3047 0 
L 2419 0 
L 2419 1100 
L 313 1100 
L 313 1709 
L 2253 4666 
z
" transform="scale(0.015625)"/>
       </defs>
       <use xlink:href="#DejaVuSans-34"/>
       <use xlink:href="#DejaVuSans-30" transform="translate(63.623047 0)"/>
      </g>
     </g>
    </g>
    <g id="ytick_4">
     <g id="line2d_8">
      <g>
       <use xlink:href="#m4762a1d492" x="57.6" y="166.074639" style="stroke: #000000; stroke-width: 0.8"/>
      </g>
     </g>
     <g id="text_8">
      <!-- 45 -->
      <g transform="translate(31.5125 171.773467) scale(0.15 -0.15)">
       <use xlink:href="#DejaVuSans-34"/>
       <use xlink:href="#DejaVuSans-35" transform="translate(63.623047 0)"/>
      </g>
     </g>
    </g>
    <g id="ytick_5">
     <g id="line2d_9">
      <g>
       <use xlink:href="#m4762a1d492" x="57.6" y="120.549832" style="stroke: #000000; stroke-width: 0.8"/>
      </g>
     </g>
     <g id="text_9">
      <!-- 50 -->
      <g transform="translate(31.5125 126.24866) scale(0.15 -0.15)">
       <use xlink:href="#DejaVuSans-35"/>
       <use xlink:href="#DejaVuSans-30" transform="translate(63.623047 0)"/>
      </g>
     </g>
    </g>
    <g id="ytick_6">
     <g id="line2d_10">
      <g>
       <use xlink:href="#m4762a1d492" x="57.6" y="75.025025" style="stroke: #000000; stroke-width: 0.8"/>
      </g>
     </g>
     <g id="text_10">
      <!-- 55 -->
      <g transform="translate(31.5125 80.723853) scale(0.15 -0.15)">
       <use xlink:href="#DejaVuSans-35"/>
       <use xlink:href="#DejaVuSans-35" transform="translate(63.623047 0)"/>
      </g>
     </g>
    </g>
   </g>
   <g id="line2d_11">
    <path d="M 73.832727 218.571374 
L 75.636364 247.567373 
L 77.44 234.606974 
L 79.243636 234.966393 
L 81.047273 273.06668 
L 82.850909 258.6649 
L 84.654545 251.889761 
L 86.458182 253.071262 
L 88.261818 275.1557 
L 90.065455 235.486923 
L 93.672727 283.448558 
L 95.476364 255.852835 
L 97.28 260.870712 
L 99.083636 234.509775 
L 100.887273 260.859601 
L 102.690909 233.159681 
L 104.494545 262.559441 
L 106.298182 247.964626 
L 108.101818 260.766787 
L 109.905455 279.398461 
L 111.709091 259.84169 
L 113.512727 256.890374 
L 115.316364 257.427658 
L 117.12 190.098356 
L 118.923636 253.298679 
L 120.727273 257.723341 
L 122.530909 295.488 
L 124.334545 264.202385 
L 126.138182 247.842605 
L 127.941818 246.66433 
L 129.745455 240.820051 
L 131.549091 277.848234 
L 135.156364 287.60579 
L 136.96 271.12239 
L 138.763636 263.540242 
L 140.567273 279.004034 
L 142.370909 291.403625 
L 144.174545 272.656541 
L 145.978182 192.341948 
L 147.781818 259.618261 
L 149.585455 263.647353 
L 151.389091 249.020703 
L 153.192727 247.477883 
L 154.996364 269.490387 
L 156.8 274.177947 
L 158.603636 271.650106 
L 160.407273 258.226703 
L 162.210909 276.36109 
L 164.014545 252.81732 
L 165.818182 172.090332 
L 167.621818 240.086028 
L 169.425455 242.756905 
L 171.229091 251.157991 
L 173.032727 267.259736 
L 174.836364 255.2593 
L 176.64 245.852959 
L 178.443636 242.543921 
L 180.247273 221.706923 
L 182.050909 250.845127 
L 183.854545 235.292827 
L 185.658182 243.988227 
L 187.461818 262.354643 
L 189.265455 248.611276 
L 191.069091 261.203158 
L 192.872727 252.734404 
L 194.676364 252.022692 
L 196.48 262.29056 
L 198.283636 270.536275 
L 200.087273 255.708878 
L 201.890909 267.379418 
L 203.694545 251.807888 
L 205.498182 263.32527 
L 207.301818 262.768685 
L 209.105455 263.302973 
L 210.909091 270.109182 
L 212.712727 251.23018 
L 214.516364 278.474322 
L 216.32 292.631771 
L 218.123636 282.823725 
L 219.927273 264.774215 
L 221.730909 237.416839 
L 223.534545 272.368213 
L 225.338182 275.183462 
L 227.141818 278.327992 
L 228.945455 249.991521 
L 230.749091 283.930479 
L 232.552727 287.521056 
L 234.356364 255.901698 
L 236.16 286.369325 
L 237.963636 277.316269 
L 239.767273 213.568663 
L 241.570909 202.672495 
L 243.374545 223.556666 
L 245.178182 254.011808 
L 246.981818 261.2949 
L 248.785455 267.476677 
L 250.589091 272.80088 
L 252.392727 237.272098 
L 254.196364 269.803647 
L 256 260.731892 
L 257.803636 201.46756 
L 259.607273 275.14485 
L 261.410909 240.308921 
L 263.214545 270.511408 
L 265.018182 269.823142 
L 266.821818 241.499173 
L 268.625455 264.249666 
L 270.429091 242.213858 
L 272.232727 279.711057 
L 274.036364 261.379496 
L 275.84 246.715618 
L 277.643636 281.670563 
L 279.447273 260.000015 
L 281.250909 266.318675 
L 283.054545 263.667535 
L 284.858182 260.294645 
L 286.661818 249.578784 
L 288.465455 248.834908 
L 290.269091 260.29216 
L 292.072727 254.908119 
L 293.876364 255.415623 
L 295.68 242.304901 
L 297.483636 268.284863 
L 299.287273 263.418419 
L 301.090909 262.849001 
L 302.894545 263.639315 
L 304.698182 259.527381 
L 306.501818 265.14911 
L 308.305455 256.816788 
L 310.109091 259.055598 
L 311.912727 265.813594 
L 313.716364 261.345409 
L 315.52 260.143133 
L 317.323636 259.210992 
L 319.127273 255.441122 
L 320.930909 250.223657 
L 322.734545 257.658369 
L 324.538182 258.256437 
L 326.341818 255.716589 
L 328.145455 263.224595 
L 329.949091 265.186761 
L 331.752727 261.109503 
L 333.556364 261.407698 
L 335.36 264.637421 
L 337.163636 266.244693 
L 338.967273 261.190682 
L 340.770909 266.199325 
L 342.574545 262.36095 
L 344.378182 251.344676 
L 346.181818 251.604419 
L 347.985455 248.208262 
L 349.789091 239.613352 
L 351.592727 210.226919 
L 353.396364 187.534835 
L 355.2 226.303778 
L 357.003636 250.311255 
L 358.807273 231.247292 
L 360.610909 262.631115 
L 362.414545 201.040659 
L 364.218182 200.914995 
L 366.021818 266.203502 
L 367.825455 278.440063 
L 369.629091 268.724569 
L 371.432727 210.794916 
L 373.236364 260.937719 
L 375.04 245.441359 
L 376.843636 245.381825 
L 378.647273 276.564368 
L 380.450909 259.667923 
L 382.254545 262.967238 
L 384.058182 192.783037 
L 385.861818 200.593821 
L 387.665455 263.556007 
L 389.469091 251.107204 
L 391.272727 259.555964 
L 393.076364 257.703771 
L 394.88 262.675563 
L 396.683636 257.608167 
L 398.487273 149.284665 
L 398.487273 149.284665 
" clip-path="url(#p3b8fcdc9d2)" style="fill: none; stroke: #90d743; stroke-opacity: 0.5; stroke-width: 1.5; stroke-linecap: square"/>
   </g>
   <g id="line2d_12">
    <path d="M 73.832727 223.477356 
L 75.636364 235.994429 
L 77.44 251.353454 
L 79.243636 255.668902 
L 81.047273 208.059149 
L 82.850909 224.799631 
L 84.654545 246.264723 
L 86.458182 251.25455 
L 88.261818 220.526317 
L 90.065455 263.208116 
L 91.869091 230.637858 
L 93.672727 248.130866 
L 95.476364 273.116744 
L 97.28 248.707371 
L 99.083636 279.11292 
L 100.887273 262.894196 
L 102.690909 272.274483 
L 104.494545 276.207436 
L 106.298182 274.96064 
L 108.101818 267.913554 
L 109.905455 257.837193 
L 111.709091 281.871033 
L 113.512727 269.211849 
L 115.316364 264.091663 
L 117.12 227.832607 
L 118.923636 182.372476 
L 120.727273 265.140152 
L 122.530909 231.218508 
L 124.334545 248.439706 
L 126.138182 238.350547 
L 127.941818 268.8326 
L 129.745455 251.806735 
L 133.352727 269.341167 
L 135.156364 231.598249 
L 136.96 250.439363 
L 138.763636 242.381666 
L 140.567273 235.911677 
L 142.370909 266.579196 
L 144.174545 235.796928 
L 145.978182 191.64278 
L 147.781818 196.546084 
L 149.585455 250.529628 
L 151.389091 248.718521 
L 153.192727 241.081831 
L 154.996364 261.460357 
L 156.8 265.89083 
L 158.603636 266.208652 
L 160.407273 200.158637 
L 162.210909 254.011125 
L 164.014545 241.691193 
L 165.818182 220.476928 
L 167.621818 233.425195 
L 169.425455 261.131668 
L 171.229091 254.772703 
L 173.032727 252.598806 
L 174.836364 227.139206 
L 176.64 251.263376 
L 178.443636 218.289076 
L 180.247273 228.52863 
L 182.050909 222.73705 
L 183.854545 226.683679 
L 185.658182 212.45099 
L 187.461818 217.681342 
L 189.265455 214.044222 
L 191.069091 225.467173 
L 192.872727 253.70217 
L 196.48 227.136405 
L 198.283636 256.052886 
L 200.087273 253.937922 
L 201.890909 254.384088 
L 203.694545 236.062852 
L 205.498182 231.335404 
L 207.301818 251.851632 
L 209.105455 232.850744 
L 210.909091 251.14107 
L 212.712727 259.643298 
L 214.516364 210.198652 
L 216.32 242.102377 
L 218.123636 239.228627 
L 219.927273 225.50132 
L 221.730909 245.248974 
L 223.534545 235.631449 
L 225.338182 235.982223 
L 227.141818 242.965301 
L 228.945455 256.981848 
L 230.749091 236.662989 
L 232.552727 237.617575 
L 234.356364 228.907213 
L 236.16 231.899098 
L 237.963636 257.236969 
L 239.767273 239.295224 
L 241.570909 222.873611 
L 243.374545 224.750513 
L 245.178182 261.350077 
L 246.981818 244.284512 
L 248.785455 266.837247 
L 250.589091 262.411177 
L 252.392727 217.651693 
L 254.196364 259.696953 
L 256 254.81636 
L 257.803636 264.122709 
L 259.607273 239.970733 
L 261.410909 210.305239 
L 263.214545 214.765241 
L 265.018182 175.580437 
L 266.821818 265.193385 
L 268.625455 219.473159 
L 270.429091 233.497163 
L 272.232727 258.050062 
L 274.036364 235.012575 
L 275.84 261.384482 
L 277.643636 253.832621 
L 279.447273 241.225737 
L 281.250909 257.941289 
L 283.054545 252.352214 
L 284.858182 208.737188 
L 286.661818 227.602764 
L 288.465455 239.082654 
L 290.269091 235.294468 
L 292.072727 243.042681 
L 293.876364 240.469552 
L 295.68 253.272865 
L 297.483636 229.501599 
L 299.287273 248.3346 
L 301.090909 253.545272 
L 302.894545 256.380442 
L 304.698182 262.522406 
L 306.501818 274.529726 
L 308.305455 277.346755 
L 310.109091 277.629368 
L 311.912727 276.120347 
L 313.716364 273.39198 
L 315.52 272.66761 
L 317.323636 273.427021 
L 319.127273 259.347771 
L 320.930909 268.556494 
L 322.734545 274.405437 
L 324.538182 268.926609 
L 326.341818 275.741603 
L 328.145455 278.451834 
L 329.949091 273.826316 
L 331.752727 277.100873 
L 333.556364 276.463024 
L 335.36 278.208132 
L 337.163636 279.297105 
L 338.967273 277.012564 
L 340.770909 274.211687 
L 342.574545 275.217708 
L 344.378182 230.831087 
L 346.181818 232.887278 
L 347.985455 214.808254 
L 349.789091 216.41946 
L 351.592727 249.336373 
L 353.396364 239.132676 
L 355.2 245.796068 
L 357.003636 260.581859 
L 358.807273 238.601285 
L 360.610909 242.991889 
L 362.414545 253.31344 
L 364.218182 241.331235 
L 366.021818 241.523899 
L 367.825455 217.275663 
L 369.629091 241.16153 
L 371.432727 241.143765 
L 373.236364 260.883452 
L 376.843636 243.384255 
L 378.647273 229.951963 
L 380.450909 226.618711 
L 382.254545 251.966573 
L 384.058182 256.490127 
L 385.861818 247.058859 
L 387.665455 228.927167 
L 389.469091 222.280302 
L 391.272727 240.055392 
L 393.076364 255.950422 
L 394.88 231.63077 
L 396.683636 243.679584 
L 398.487273 248.218866 
L 398.487273 248.218866 
" clip-path="url(#p3b8fcdc9d2)" style="fill: none; stroke: #90d743; stroke-opacity: 0.5; stroke-width: 1.5; stroke-linecap: square"/>
   </g>
   <g id="line2d_13">
    <path d="M 73.832727 137.290543 
L 75.636364 227.546593 
L 77.44 175.8117 
L 79.243636 223.083384 
L 81.047273 256.542462 
L 82.850909 264.462091 
L 84.654545 245.743846 
L 86.458182 244.821535 
L 88.261818 276.009358 
L 90.065455 228.48271 
L 91.869091 244.06516 
L 93.672727 256.635236 
L 95.476364 259.934778 
L 97.28 270.57698 
L 99.083636 242.240469 
L 100.887273 276.630183 
L 102.690909 272.944412 
L 104.494545 262.076273 
L 106.298182 239.212957 
L 108.101818 270.452403 
L 109.905455 259.054907 
L 111.709091 269.44098 
L 113.512727 249.668983 
L 115.316364 248.833258 
L 117.12 254.878971 
L 118.923636 239.116522 
L 120.727273 262.621648 
L 122.530909 224.253035 
L 124.334545 276.528928 
L 126.138182 213.283286 
L 127.941818 246.221103 
L 129.745455 230.533966 
L 131.549091 169.948575 
L 133.352727 238.591436 
L 135.156364 258.331782 
L 136.96 245.718203 
L 138.763636 245.601732 
L 140.567273 254.702667 
L 142.370909 219.815863 
L 144.174545 94.611141 
L 145.978182 216.052029 
L 147.781818 227.451665 
L 149.585455 202.924107 
L 151.389091 212.84504 
L 154.996364 140.575182 
L 156.8 201.333278 
L 158.603636 53.568 
L 160.407273 161.887691 
L 162.210909 75.117963 
L 164.014545 179.371344 
L 165.818182 230.486219 
L 167.621818 242.946161 
L 169.425455 209.381419 
L 171.229091 217.127022 
L 173.032727 242.631415 
L 174.836364 261.853223 
L 176.64 171.065834 
L 178.443636 241.543303 
L 180.247273 220.420466 
L 182.050909 207.707663 
L 183.854545 183.480096 
L 185.658182 250.6974 
L 187.461818 195.944598 
L 189.265455 233.392516 
L 191.069091 167.656728 
L 192.872727 203.391646 
L 194.676364 218.693611 
L 196.48 239.960354 
L 198.283636 199.903059 
L 200.087273 187.402577 
L 201.890909 124.123383 
L 203.694545 269.350778 
L 205.498182 161.166492 
L 207.301818 272.534708 
L 209.105455 263.25058 
L 210.909091 267.709395 
L 212.712727 258.650648 
L 214.516364 217.725551 
L 216.32 215.636924 
L 218.123636 70.149119 
L 219.927273 226.166321 
L 221.730909 180.16036 
L 223.534545 273.963766 
L 225.338182 220.265081 
L 227.141818 268.264838 
L 228.945455 224.877018 
L 230.749091 249.43767 
L 232.552727 194.183302 
L 234.356364 239.442772 
L 236.16 219.736237 
L 237.963636 272.056411 
L 239.767273 206.208302 
L 241.570909 271.677717 
L 243.374545 209.086489 
L 245.178182 253.386421 
L 246.981818 231.388788 
L 248.785455 218.587566 
L 250.589091 244.73122 
L 252.392727 217.57196 
L 254.196364 179.333466 
L 256 221.844263 
L 257.803636 206.119421 
L 259.607273 265.123984 
L 261.410909 191.707804 
L 263.214545 261.095188 
L 265.018182 289.969983 
L 266.821818 228.096312 
L 268.625455 217.435158 
L 270.429091 224.67991 
L 272.232727 225.61421 
L 274.036364 212.455365 
L 275.84 206.54765 
L 277.643636 222.27488 
L 279.447273 149.571947 
L 281.250909 264.55314 
L 283.054545 232.823235 
L 284.858182 250.257384 
L 286.661818 246.928128 
L 288.465455 239.101832 
L 290.269091 247.173344 
L 292.072727 265.437053 
L 293.876364 255.241983 
L 295.68 255.496593 
L 297.483636 277.246212 
L 299.287273 277.249797 
L 301.090909 271.328126 
L 302.894545 273.677825 
L 304.698182 270.657513 
L 306.501818 243.728501 
L 308.305455 239.394124 
L 310.109091 246.287407 
L 311.912727 251.084262 
L 313.716364 245.323384 
L 315.52 237.99978 
L 317.323636 229.976363 
L 319.127273 248.216847 
L 320.930909 254.07121 
L 322.734545 271.524344 
L 324.538182 256.774654 
L 326.341818 254.622312 
L 328.145455 257.967526 
L 329.949091 249.021505 
L 331.752727 251.515472 
L 333.556364 247.91165 
L 335.36 239.210976 
L 337.163636 258.643204 
L 338.967273 239.969987 
L 340.770909 227.384368 
L 342.574545 251.800388 
L 344.378182 243.298398 
L 346.181818 212.62417 
L 347.985455 231.532147 
L 349.789091 193.031382 
L 351.592727 260.440175 
L 353.396364 267.209813 
L 355.2 271.558402 
L 357.003636 238.834365 
L 358.807273 282.771439 
L 360.610909 269.285141 
L 362.414545 268.882521 
L 364.218182 272.411121 
L 366.021818 247.092236 
L 367.825455 287.033787 
L 369.629091 279.026252 
L 371.432727 262.549852 
L 373.236364 270.817116 
L 375.04 262.964288 
L 376.843636 274.868591 
L 378.647273 270.341689 
L 380.450909 220.69668 
L 382.254545 262.341191 
L 384.058182 281.472007 
L 385.861818 253.40838 
L 387.665455 251.58101 
L 389.469091 238.337087 
L 391.272727 279.380879 
L 393.076364 258.562524 
L 394.88 282.655127 
L 396.683636 279.748745 
L 398.487273 285.169779 
L 398.487273 285.169779 
" clip-path="url(#p3b8fcdc9d2)" style="fill: none; stroke: #90d743; stroke-opacity: 0.5; stroke-width: 1.5; stroke-linecap: square"/>
   </g>
   <g id="line2d_14">
    <path d="M 73.832727 266.038711 
L 75.636364 230.735524 
L 77.44 241.52132 
L 79.243636 216.27269 
L 81.047273 170.782819 
L 82.850909 210.519342 
L 84.654545 219.735893 
L 86.458182 128.000743 
L 88.261818 211.361302 
L 90.065455 239.348265 
L 91.869091 231.698151 
L 93.672727 251.26202 
L 95.476364 237.859628 
L 97.28 264.993243 
L 99.083636 254.994824 
L 100.887273 271.000301 
L 102.690909 246.593551 
L 104.494545 254.277476 
L 106.298182 247.70042 
L 108.101818 214.053521 
L 109.905455 234.781703 
L 111.709091 248.42609 
L 113.512727 255.87672 
L 115.316364 211.267641 
L 117.12 218.039356 
L 118.923636 209.042853 
L 122.530909 248.560565 
L 124.334545 260.4246 
L 126.138182 257.474117 
L 127.941818 237.925686 
L 129.745455 255.269336 
L 131.549091 237.545976 
L 133.352727 223.976677 
L 135.156364 218.611787 
L 136.96 217.051315 
L 138.763636 266.598844 
L 140.567273 256.904208 
L 142.370909 183.984827 
L 144.174545 256.01764 
L 145.978182 226.420456 
L 147.781818 262.50344 
L 149.585455 242.004177 
L 151.389091 246.388693 
L 153.192727 237.42319 
L 154.996364 242.22906 
L 156.8 232.10081 
L 158.603636 257.781239 
L 160.407273 246.71176 
L 162.210909 209.059118 
L 164.014545 241.646557 
L 165.818182 257.564051 
L 167.621818 250.008069 
L 169.425455 238.462769 
L 171.229091 245.497555 
L 173.032727 218.693677 
L 174.836364 236.975121 
L 176.64 221.814687 
L 178.443636 263.829197 
L 180.247273 250.13891 
L 182.050909 256.433763 
L 183.854545 244.359389 
L 185.658182 255.749764 
L 187.461818 264.328342 
L 189.265455 262.267669 
L 191.069091 259.962948 
L 192.872727 233.714345 
L 194.676364 216.033079 
L 196.48 255.546295 
L 198.283636 250.675828 
L 200.087273 211.446206 
L 203.694545 255.468127 
L 205.498182 255.653263 
L 207.301818 250.335782 
L 209.105455 253.783523 
L 210.909091 256.693229 
L 212.712727 205.720682 
L 214.516364 218.323485 
L 216.32 198.70107 
L 218.123636 242.95446 
L 219.927273 240.54552 
L 221.730909 259.440711 
L 223.534545 212.760512 
L 225.338182 224.584255 
L 227.141818 227.301637 
L 228.945455 227.095574 
L 230.749091 231.961308 
L 232.552727 224.912616 
L 234.356364 215.77399 
L 236.16 204.49405 
L 237.963636 199.33227 
L 239.767273 240.8421 
L 241.570909 188.766534 
L 243.374545 144.726743 
L 245.178182 224.166788 
L 246.981818 238.008263 
L 248.785455 188.177956 
L 250.589091 229.502851 
L 252.392727 244.251721 
L 254.196364 211.684029 
L 256 191.29475 
L 259.607273 245.469381 
L 261.410909 270.878482 
L 263.214545 226.791635 
L 265.018182 244.724336 
L 266.821818 266.600029 
L 268.625455 239.822388 
L 270.429091 236.697924 
L 272.232727 204.212268 
L 274.036364 232.891571 
L 275.84 250.266513 
L 277.643636 233.981288 
L 279.447273 228.872986 
L 281.250909 191.460977 
L 283.054545 198.531566 
L 284.858182 260.347635 
L 286.661818 265.048163 
L 288.465455 270.832173 
L 290.269091 271.646235 
L 292.072727 268.581877 
L 293.876364 260.465219 
L 295.68 269.916215 
L 297.483636 221.736358 
L 299.287273 238.852321 
L 301.090909 242.144355 
L 302.894545 236.412083 
L 304.698182 247.996078 
L 306.501818 226.140987 
L 308.305455 252.518711 
L 310.109091 243.41166 
L 311.912727 237.9485 
L 313.716364 207.751467 
L 315.52 257.029921 
L 317.323636 243.850737 
L 319.127273 265.309336 
L 320.930909 247.205637 
L 322.734545 245.057657 
L 326.341818 233.063073 
L 328.145455 244.049516 
L 329.949091 220.325261 
L 331.752727 238.349263 
L 333.556364 235.108528 
L 335.36 243.053631 
L 337.163636 243.456102 
L 338.967273 244.522054 
L 340.770909 226.788971 
L 342.574545 238.774282 
L 344.378182 230.316261 
L 346.181818 237.98177 
L 347.985455 229.192166 
L 349.789091 240.657377 
L 351.592727 243.184652 
L 353.396364 257.385404 
L 355.2 239.166993 
L 357.003636 233.055051 
L 358.807273 217.874612 
L 360.610909 245.789809 
L 362.414545 257.39566 
L 364.218182 186.259318 
L 366.021818 249.574518 
L 367.825455 254.095727 
L 369.629091 247.220736 
L 371.432727 242.745745 
L 373.236364 186.984784 
L 375.04 246.601463 
L 376.843636 211.148887 
L 378.647273 256.053434 
L 380.450909 258.863537 
L 382.254545 256.219237 
L 384.058182 258.444416 
L 385.861818 207.803926 
L 387.665455 206.12217 
L 389.469091 215.763814 
L 391.272727 235.989741 
L 393.076364 245.190996 
L 394.88 241.107839 
L 396.683636 262.091834 
L 398.487273 248.058742 
L 398.487273 248.058742 
" clip-path="url(#p3b8fcdc9d2)" style="fill: none; stroke: #90d743; stroke-opacity: 0.5; stroke-width: 1.5; stroke-linecap: square"/>
   </g>
   <g id="line2d_15">
    <path d="M 73.832727 234.17431 
L 75.636364 232.206021 
L 77.44 231.817216 
L 79.243636 219.033583 
L 81.047273 262.249215 
L 82.850909 282.406106 
L 84.654545 274.813715 
L 86.458182 274.187289 
L 88.261818 254.49708 
L 90.065455 252.305701 
L 91.869091 230.694969 
L 93.672727 254.63623 
L 95.476364 245.805511 
L 97.28 228.622126 
L 99.083636 240.177527 
L 100.887273 224.77701 
L 102.690909 227.917586 
L 104.494545 221.91604 
L 106.298182 220.613524 
L 108.101818 226.847042 
L 109.905455 234.411625 
L 111.709091 238.084167 
L 113.512727 233.386211 
L 115.316364 218.109333 
L 117.12 273.349436 
L 118.923636 251.917136 
L 120.727273 247.34854 
L 122.530909 226.603458 
L 124.334545 179.405675 
L 126.138182 258.093998 
L 127.941818 251.018162 
L 129.745455 223.534852 
L 131.549091 239.634582 
L 133.352727 240.149569 
L 135.156364 252.567901 
L 136.96 259.979254 
L 138.763636 231.524151 
L 140.567273 238.237816 
L 142.370909 260.121774 
L 144.174545 253.260683 
L 145.978182 263.945614 
L 147.781818 231.733872 
L 149.585455 211.799202 
L 151.389091 181.890463 
L 153.192727 231.764306 
L 154.996364 229.176195 
L 156.8 200.094567 
L 158.603636 233.301563 
L 160.407273 232.169585 
L 162.210909 259.099742 
L 164.014545 239.118695 
L 165.818182 267.347774 
L 167.621818 236.485696 
L 169.425455 226.88539 
L 171.229091 222.745637 
L 173.032727 241.193901 
L 174.836364 256.981249 
L 176.64 262.77899 
L 178.443636 237.178122 
L 180.247273 244.083555 
L 182.050909 240.112999 
L 183.854545 240.34955 
L 185.658182 243.567574 
L 187.461818 250.112696 
L 189.265455 240.40741 
L 191.069091 251.601914 
L 192.872727 227.811581 
L 194.676364 257.663823 
L 196.48 249.255851 
L 198.283636 247.816419 
L 200.087273 262.294117 
L 201.890909 254.952752 
L 203.694545 250.713105 
L 205.498182 260.498779 
L 209.105455 247.703981 
L 210.909091 249.96841 
L 212.712727 244.409218 
L 214.516364 245.692252 
L 216.32 237.3983 
L 218.123636 235.269079 
L 219.927273 240.108719 
L 221.730909 239.605039 
L 223.534545 242.117337 
L 225.338182 245.300911 
L 227.141818 242.590086 
L 228.945455 188.856871 
L 230.749091 260.535775 
L 232.552727 250.318676 
L 234.356364 262.109641 
L 236.16 261.374748 
L 237.963636 260.432579 
L 239.767273 214.032666 
L 241.570909 257.369528 
L 243.374545 264.948416 
L 245.178182 203.580087 
L 246.981818 217.103254 
L 248.785455 217.966335 
L 250.589091 213.101391 
L 252.392727 209.490545 
L 254.196364 236.999631 
L 256 238.064443 
L 257.803636 248.844474 
L 259.607273 215.152606 
L 261.410909 218.552973 
L 263.214545 265.751342 
L 265.018182 241.841342 
L 266.821818 233.404138 
L 268.625455 254.20625 
L 270.429091 258.664218 
L 272.232727 237.73799 
L 274.036364 261.35104 
L 275.84 223.142726 
L 277.643636 272.740896 
L 279.447273 197.325104 
L 281.250909 252.351641 
L 283.054545 242.136765 
L 284.858182 230.93492 
L 286.661818 277.729245 
L 288.465455 274.555065 
L 290.269091 250.403123 
L 292.072727 241.068685 
L 293.876364 228.017091 
L 295.68 228.233259 
L 297.483636 252.589583 
L 299.287273 252.022063 
L 301.090909 262.567675 
L 302.894545 248.288293 
L 304.698182 248.305597 
L 306.501818 254.388191 
L 308.305455 246.225294 
L 310.109091 257.00104 
L 311.912727 246.170326 
L 313.716364 240.615499 
L 315.52 205.608431 
L 317.323636 239.075092 
L 319.127273 233.75325 
L 320.930909 231.556708 
L 322.734545 240.938102 
L 324.538182 235.827957 
L 326.341818 244.818016 
L 328.145455 276.147247 
L 329.949091 276.389354 
L 331.752727 270.843859 
L 333.556364 275.758815 
L 335.36 254.445012 
L 337.163636 259.820394 
L 338.967273 257.088694 
L 340.770909 247.135063 
L 342.574545 251.074147 
L 344.378182 234.358214 
L 346.181818 236.38213 
L 347.985455 241.438097 
L 349.789091 243.508467 
L 351.592727 227.655116 
L 353.396364 230.096462 
L 355.2 235.838253 
L 357.003636 248.865881 
L 358.807273 240.734409 
L 360.610909 241.151842 
L 362.414545 233.183592 
L 364.218182 226.674212 
L 366.021818 253.29954 
L 367.825455 247.278879 
L 369.629091 229.888556 
L 371.432727 257.163051 
L 373.236364 264.064424 
L 375.04 246.498473 
L 376.843636 249.054433 
L 378.647273 242.071613 
L 380.450909 236.220443 
L 382.254545 241.785566 
L 384.058182 228.18446 
L 385.861818 257.072855 
L 387.665455 244.166657 
L 389.469091 238.935564 
L 391.272727 240.082523 
L 393.076364 244.600031 
L 394.88 232.491836 
L 396.683636 247.55961 
L 398.487273 256.893871 
L 398.487273 256.893871 
" clip-path="url(#p3b8fcdc9d2)" style="fill: none; stroke: #90d743; stroke-opacity: 0.5; stroke-width: 1.5; stroke-linecap: square"/>
   </g>
   <g id="line2d_16">
    <path d="M 73.832727 210.145141 
L 75.636364 234.397119 
L 77.44 223.860705 
L 79.243636 206.358744 
L 81.047273 269.856366 
L 82.850909 246.02308 
L 84.654545 229.74446 
L 86.458182 256.042094 
L 88.261818 277.358486 
L 90.065455 216.45083 
L 91.869091 259.553555 
L 93.672727 261.995851 
L 95.476364 282.180473 
L 97.28 281.001203 
L 99.083636 266.710874 
L 100.887273 279.275161 
L 102.690909 281.069827 
L 104.494545 281.466663 
L 106.298182 247.192544 
L 108.101818 263.383718 
L 109.905455 289.626407 
L 111.709091 263.756287 
L 113.512727 164.95214 
L 115.316364 280.498614 
L 117.12 218.816829 
L 118.923636 230.60536 
L 120.727273 252.596497 
L 122.530909 210.643183 
L 124.334545 266.231914 
L 126.138182 259.389187 
L 127.941818 261.748979 
L 129.745455 258.704484 
L 131.549091 249.209119 
L 133.352727 234.649042 
L 135.156364 235.418271 
L 136.96 230.120565 
L 138.763636 246.479995 
L 140.567273 250.331077 
L 142.370909 222.069031 
L 144.174545 251.465164 
L 145.978182 254.336848 
L 147.781818 253.212839 
L 149.585455 230.840706 
L 151.389091 274.22027 
L 153.192727 253.378891 
L 154.996364 247.493086 
L 156.8 260.892653 
L 158.603636 245.214322 
L 160.407273 251.424838 
L 162.210909 245.551153 
L 164.014545 232.593236 
L 165.818182 250.265288 
L 167.621818 253.255649 
L 169.425455 264.007674 
L 171.229091 261.425177 
L 173.032727 231.015446 
L 174.836364 256.885135 
L 176.64 224.791397 
L 178.443636 238.364507 
L 180.247273 240.443373 
L 182.050909 240.518685 
L 183.854545 242.103202 
L 185.658182 242.296338 
L 187.461818 255.281126 
L 189.265455 263.369477 
L 191.069091 214.589052 
L 192.872727 160.385618 
L 194.676364 217.041933 
L 196.48 225.813368 
L 198.283636 252.348746 
L 200.087273 255.516412 
L 201.890909 259.957469 
L 203.694545 246.03309 
L 205.498182 227.752795 
L 207.301818 241.299849 
L 209.105455 230.749854 
L 210.909091 248.0809 
L 212.712727 238.102961 
L 214.516364 220.999367 
L 216.32 241.951198 
L 218.123636 241.232756 
L 219.927273 244.629346 
L 221.730909 258.453337 
L 223.534545 238.843304 
L 225.338182 234.394766 
L 227.141818 246.627142 
L 228.945455 248.077429 
L 230.749091 228.428406 
L 232.552727 227.333034 
L 234.356364 232.034943 
L 236.16 247.190171 
L 237.963636 225.711497 
L 239.767273 233.676694 
L 241.570909 268.638533 
L 243.374545 247.697031 
L 245.178182 258.534366 
L 246.981818 219.245404 
L 248.785455 211.438529 
L 250.589091 261.0295 
L 252.392727 247.096012 
L 254.196364 208.537266 
L 256 218.275678 
L 257.803636 264.787859 
L 259.607273 207.419449 
L 261.410909 244.268845 
L 263.214545 253.422098 
L 265.018182 255.788365 
L 266.821818 261.511285 
L 268.625455 255.667018 
L 270.429091 259.527099 
L 272.232727 261.375504 
L 274.036364 225.594144 
L 275.84 271.210866 
L 277.643636 223.184283 
L 279.447273 264.562672 
L 281.250909 258.708945 
L 283.054545 278.62769 
L 284.858182 169.57145 
L 286.661818 238.09562 
L 288.465455 228.763834 
L 290.269091 210.353034 
L 292.072727 239.343009 
L 293.876364 245.971778 
L 295.68 261.854253 
L 297.483636 222.846285 
L 299.287273 211.66872 
L 301.090909 269.57875 
L 302.894545 227.876507 
L 304.698182 230.242824 
L 306.501818 255.701177 
L 308.305455 247.609523 
L 310.109091 214.004046 
L 311.912727 265.947712 
L 313.716364 266.833367 
L 315.52 250.929808 
L 317.323636 217.217388 
L 319.127273 253.071836 
L 320.930909 251.761633 
L 322.734545 240.265767 
L 324.538182 229.697044 
L 326.341818 217.405577 
L 328.145455 237.49514 
L 329.949091 178.880604 
L 331.752727 171.246569 
L 333.556364 222.413497 
L 335.36 215.655225 
L 337.163636 261.815611 
L 338.967273 234.499733 
L 340.770909 233.293859 
L 342.574545 213.07489 
L 344.378182 255.279801 
L 346.181818 269.902424 
L 347.985455 286.753244 
L 349.789091 271.243763 
L 351.592727 270.144595 
L 353.396364 228.522458 
L 355.2 218.404989 
L 357.003636 286.819279 
L 358.807273 249.557323 
L 360.610909 248.328512 
L 362.414545 274.115635 
L 364.218182 250.046081 
L 366.021818 270.046929 
L 367.825455 243.70721 
L 369.629091 248.367298 
L 371.432727 263.514828 
L 373.236364 265.017765 
L 375.04 214.76654 
L 376.843636 235.533616 
L 378.647273 274.575498 
L 380.450909 251.626602 
L 382.254545 256.410383 
L 384.058182 237.115756 
L 385.861818 278.861318 
L 387.665455 260.326404 
L 389.469091 254.873498 
L 391.272727 219.090654 
L 393.076364 258.72974 
L 394.88 257.466972 
L 396.683636 261.284517 
L 398.487273 237.01284 
L 398.487273 237.01284 
" clip-path="url(#p3b8fcdc9d2)" style="fill: none; stroke: #90d743; stroke-opacity: 0.5; stroke-width: 1.5; stroke-linecap: square"/>
   </g>
   <g id="patch_3">
    <path d="M 57.6 307.584 
L 57.6 41.472 
" style="fill: none; stroke: #000000; stroke-width: 3; stroke-linejoin: miter; stroke-linecap: square"/>
   </g>
   <g id="patch_4">
    <path d="M 414.72 307.584 
L 414.72 41.472 
" style="fill: none; stroke: #000000; stroke-width: 3; stroke-linejoin: miter; stroke-linecap: square"/>
   </g>
   <g id="patch_5">
    <path d="M 57.6 307.584 
L 414.72 307.584 
" style="fill: none; stroke: #000000; stroke-width: 3; stroke-linejoin: miter; stroke-linecap: square"/>
   </g>
   <g id="patch_6">
    <path d="M 57.6 41.472 
L 414.72 41.472 
" style="fill: none; stroke: #000000; stroke-width: 3; stroke-linejoin: miter; stroke-linecap: square"/>
   </g>
   <g id="text_11">
    <!-- Atom Type Cl (n=6, mean Q=36.56) -->
    <g transform="translate(37.76125 35.472) scale(0.22 -0.22)">
     <defs>
      <path id="DejaVuSans-41" d="M 2188 4044 
L 1331 1722 
L 3047 1722 
L 2188 4044 
z
M 1831 4666 
L 2547 4666 
L 4325 0 
L 3669 0 
L 3244 1197 
L 1141 1197 
L 716 0 
L 50 0 
L 1831 4666 
z
" transform="scale(0.015625)"/>
      <path id="DejaVuSans-74" d="M 1172 4494 
L 1172 3500 
L 2356 3500 
L 2356 3053 
L 1172 3053 
L 1172 1153 
Q 1172 725 1289 603 
Q 1406 481 1766 481 
L 2356 481 
L 2356 0 
L 1766 0 
Q 1100 0 847 248 
Q 594 497 594 1153 
L 594 3053 
L 172 3053 
L 172 3500 
L 594 3500 
L 594 4494 
L 1172 4494 
z
" transform="scale(0.015625)"/>
      <path id="DejaVuSans-6f" d="M 1959 3097 
Q 1497 3097 1228 2736 
Q 959 2375 959 1747 
Q 959 1119 1226 758 
Q 1494 397 1959 397 
Q 2419 397 2687 759 
Q 2956 1122 2956 1747 
Q 2956 2369 2687 2733 
Q 2419 3097 1959 3097 
z
M 1959 3584 
Q 2709 3584 3137 3096 
Q 3566 2609 3566 1747 
Q 3566 888 3137 398 
Q 2709 -91 1959 -91 
Q 1206 -91 779 398 
Q 353 888 353 1747 
Q 353 2609 779 3096 
Q 1206 3584 1959 3584 
z
" transform="scale(0.015625)"/>
      <path id="DejaVuSans-6d" d="M 3328 2828 
Q 3544 3216 3844 3400 
Q 4144 3584 4550 3584 
Q 5097 3584 5394 3201 
Q 5691 2819 5691 2113 
L 5691 0 
L 5113 0 
L 5113 2094 
Q 5113 2597 4934 2840 
Q 4756 3084 4391 3084 
Q 3944 3084 3684 2787 
Q 3425 2491 3425 1978 
L 3425 0 
L 2847 0 
L 2847 2094 
Q 2847 2600 2669 2842 
Q 2491 3084 2119 3084 
Q 1678 3084 1418 2786 
Q 1159 2488 1159 1978 
L 1159 0 
L 581 0 
L 581 3500 
L 1159 3500 
L 1159 2956 
Q 1356 3278 1631 3431 
Q 1906 3584 2284 3584 
Q 2666 3584 2933 3390 
Q 3200 3197 3328 2828 
z
" transform="scale(0.015625)"/>
      <path id="DejaVuSans-20" transform="scale(0.015625)"/>
      <path id="DejaVuSans-54" d="M -19 4666 
L 3928 4666 
L 3928 4134 
L 2272 4134 
L 2272 0 
L 1638 0 
L 1638 4134 
L -19 4134 
L -19 4666 
z
" transform="scale(0.015625)"/>
      <path id="DejaVuSans-79" d="M 2059 -325 
Q 1816 -950 1584 -1140 
Q 1353 -1331 966 -1331 
L 506 -1331 
L 506 -850 
L 844 -850 
Q 1081 -850 1212 -737 
Q 1344 -625 1503 -206 
L 1606 56 
L 191 3500 
L 800 3500 
L 1894 763 
L 2988 3500 
L 3597 3500 
L 2059 -325 
z
" transform="scale(0.015625)"/>
      <path id="DejaVuSans-70" d="M 1159 525 
L 1159 -1331 
L 581 -1331 
L 581 3500 
L 1159 3500 
L 1159 2969 
Q 1341 3281 1617 3432 
Q 1894 3584 2278 3584 
Q 2916 3584 3314 3078 
Q 3713 2572 3713 1747 
Q 3713 922 3314 415 
Q 2916 -91 2278 -91 
Q 1894 -91 1617 61 
Q 1341 213 1159 525 
z
M 3116 1747 
Q 3116 2381 2855 2742 
Q 2594 3103 2138 3103 
Q 1681 3103 1420 2742 
Q 1159 2381 1159 1747 
Q 1159 1113 1420 752 
Q 1681 391 2138 391 
Q 2594 391 2855 752 
Q 3116 1113 3116 1747 
z
" transform="scale(0.015625)"/>
      <path id="DejaVuSans-65" d="M 3597 1894 
L 3597 1613 
L 953 1613 
Q 991 1019 1311 708 
Q 1631 397 2203 397 
Q 2534 397 2845 478 
Q 3156 559 3463 722 
L 3463 178 
Q 3153 47 2828 -22 
Q 2503 -91 2169 -91 
Q 1331 -91 842 396 
Q 353 884 353 1716 
Q 353 2575 817 3079 
Q 1281 3584 2069 3584 
Q 2775 3584 3186 3129 
Q 3597 2675 3597 1894 
z
M 3022 2063 
Q 3016 2534 2758 2815 
Q 2500 3097 2075 3097 
Q 1594 3097 1305 2825 
Q 1016 2553 972 2059 
L 3022 2063 
z
" transform="scale(0.015625)"/>
      <path id="DejaVuSans-43" d="M 4122 4306 
L 4122 3641 
Q 3803 3938 3442 4084 
Q 3081 4231 2675 4231 
Q 1875 4231 1450 3742 
Q 1025 3253 1025 2328 
Q 1025 1406 1450 917 
Q 1875 428 2675 428 
Q 3081 428 3442 575 
Q 3803 722 4122 1019 
L 4122 359 
Q 3791 134 3420 21 
Q 3050 -91 2638 -91 
Q 1578 -91 968 557 
Q 359 1206 359 2328 
Q 359 3453 968 4101 
Q 1578 4750 2638 4750 
Q 3056 4750 3426 4639 
Q 3797 4528 4122 4306 
z
" transform="scale(0.015625)"/>
      <path id="DejaVuSans-6c" d="M 603 4863 
L 1178 4863 
L 1178 0 
L 603 0 
L 603 4863 
z
" transform="scale(0.015625)"/>
      <path id="DejaVuSans-28" d="M 1984 4856 
Q 1566 4138 1362 3434 
Q 1159 2731 1159 2009 
Q 1159 1288 1364 580 
Q 1569 -128 1984 -844 
L 1484 -844 
Q 1016 -109 783 600 
Q 550 1309 550 2009 
Q 550 2706 781 3412 
Q 1013 4119 1484 4856 
L 1984 4856 
z
" transform="scale(0.015625)"/>
      <path id="DejaVuSans-6e" d="M 3513 2113 
L 3513 0 
L 2938 0 
L 2938 2094 
Q 2938 2591 2744 2837 
Q 2550 3084 2163 3084 
Q 1697 3084 1428 2787 
Q 1159 2491 1159 1978 
L 1159 0 
L 581 0 
L 581 3500 
L 1159 3500 
L 1159 2956 
Q 1366 3272 1645 3428 
Q 1925 3584 2291 3584 
Q 2894 3584 3203 3211 
Q 3513 2838 3513 2113 
z
" transform="scale(0.015625)"/>
      <path id="DejaVuSans-3d" d="M 678 2906 
L 4684 2906 
L 4684 2381 
L 678 2381 
L 678 2906 
z
M 678 1631 
L 4684 1631 
L 4684 1100 
L 678 1100 
L 678 1631 
z
" transform="scale(0.015625)"/>
      <path id="DejaVuSans-36" d="M 2113 2584 
Q 1688 2584 1439 2293 
Q 1191 2003 1191 1497 
Q 1191 994 1439 701 
Q 1688 409 2113 409 
Q 2538 409 2786 701 
Q 3034 994 3034 1497 
Q 3034 2003 2786 2293 
Q 2538 2584 2113 2584 
z
M 3366 4563 
L 3366 3988 
Q 3128 4100 2886 4159 
Q 2644 4219 2406 4219 
Q 1781 4219 1451 3797 
Q 1122 3375 1075 2522 
Q 1259 2794 1537 2939 
Q 1816 3084 2150 3084 
Q 2853 3084 3261 2657 
Q 3669 2231 3669 1497 
Q 3669 778 3244 343 
Q 2819 -91 2113 -91 
Q 1303 -91 875 529 
Q 447 1150 447 2328 
Q 447 3434 972 4092 
Q 1497 4750 2381 4750 
Q 2619 4750 2861 4703 
Q 3103 4656 3366 4563 
z
" transform="scale(0.015625)"/>
      <path id="DejaVuSans-2c" d="M 750 794 
L 1409 794 
L 1409 256 
L 897 -744 
L 494 -744 
L 750 256 
L 750 794 
z
" transform="scale(0.015625)"/>
      <path id="DejaVuSans-61" d="M 2194 1759 
Q 1497 1759 1228 1600 
Q 959 1441 959 1056 
Q 959 750 1161 570 
Q 1363 391 1709 391 
Q 2188 391 2477 730 
Q 2766 1069 2766 1631 
L 2766 1759 
L 2194 1759 
z
M 3341 1997 
L 3341 0 
L 2766 0 
L 2766 531 
Q 2569 213 2275 61 
Q 1981 -91 1556 -91 
Q 1019 -91 701 211 
Q 384 513 384 1019 
Q 384 1609 779 1909 
Q 1175 2209 1959 2209 
L 2766 2209 
L 2766 2266 
Q 2766 2663 2505 2880 
Q 2244 3097 1772 3097 
Q 1472 3097 1187 3025 
Q 903 2953 641 2809 
L 641 3341 
Q 956 3463 1253 3523 
Q 1550 3584 1831 3584 
Q 2591 3584 2966 3190 
Q 3341 2797 3341 1997 
z
" transform="scale(0.015625)"/>
      <path id="DejaVuSans-51" d="M 2522 4238 
Q 1834 4238 1429 3725 
Q 1025 3213 1025 2328 
Q 1025 1447 1429 934 
Q 1834 422 2522 422 
Q 3209 422 3611 934 
Q 4013 1447 4013 2328 
Q 4013 3213 3611 3725 
Q 3209 4238 2522 4238 
z
M 3406 84 
L 4238 -825 
L 3475 -825 
L 2784 -78 
Q 2681 -84 2626 -87 
Q 2572 -91 2522 -91 
Q 1538 -91 948 567 
Q 359 1225 359 2328 
Q 359 3434 948 4092 
Q 1538 4750 2522 4750 
Q 3503 4750 4090 4092 
Q 4678 3434 4678 2328 
Q 4678 1516 4351 937 
Q 4025 359 3406 84 
z
" transform="scale(0.015625)"/>
      <path id="DejaVuSans-2e" d="M 684 794 
L 1344 794 
L 1344 0 
L 684 0 
L 684 794 
z
" transform="scale(0.015625)"/>
      <path id="DejaVuSans-29" d="M 513 4856 
L 1013 4856 
Q 1481 4119 1714 3412 
Q 1947 2706 1947 2009 
Q 1947 1309 1714 600 
Q 1481 -109 1013 -844 
L 513 -844 
Q 928 -128 1133 580 
Q 1338 1288 1338 2009 
Q 1338 2731 1133 3434 
Q 928 4138 513 4856 
z
" transform="scale(0.015625)"/>
     </defs>
     <use xlink:href="#DejaVuSans-41"/>
     <use xlink:href="#DejaVuSans-74" transform="translate(66.658203 0)"/>
     <use xlink:href="#DejaVuSans-6f" transform="translate(105.867188 0)"/>
     <use xlink:href="#DejaVuSans-6d" transform="translate(167.048828 0)"/>
     <use xlink:href="#DejaVuSans-20" transform="translate(264.460938 0)"/>
     <use xlink:href="#DejaVuSans-54" transform="translate(296.248047 0)"/>
     <use xlink:href="#DejaVuSans-79" transform="translate(341.707031 0)"/>
     <use xlink:href="#DejaVuSans-70" transform="translate(400.886719 0)"/>
     <use xlink:href="#DejaVuSans-65" transform="translate(464.363281 0)"/>
     <use xlink:href="#DejaVuSans-20" transform="translate(525.886719 0)"/>
     <use xlink:href="#DejaVuSans-43" transform="translate(557.673828 0)"/>
     <use xlink:href="#DejaVuSans-6c" transform="translate(627.498047 0)"/>
     <use xlink:href="#DejaVuSans-20" transform="translate(655.28125 0)"/>
     <use xlink:href="#DejaVuSans-28" transform="translate(687.068359 0)"/>
     <use xlink:href="#DejaVuSans-6e" transform="translate(726.082031 0)"/>
     <use xlink:href="#DejaVuSans-3d" transform="translate(789.460938 0)"/>
     <use xlink:href="#DejaVuSans-36" transform="translate(873.25 0)"/>
     <use xlink:href="#DejaVuSans-2c" transform="translate(936.873047 0)"/>
     <use xlink:href="#DejaVuSans-20" transform="translate(968.660156 0)"/>
     <use xlink:href="#DejaVuSans-6d" transform="translate(1000.447266 0)"/>
     <use xlink:href="#DejaVuSans-65" transform="translate(1097.859375 0)"/>
     <use xlink:href="#DejaVuSans-61" transform="translate(1159.382812 0)"/>
     <use xlink:href="#DejaVuSans-6e" transform="translate(1220.662109 0)"/>
     <use xlink:href="#DejaVuSans-20" transform="translate(1284.041016 0)"/>
     <use xlink:href="#DejaVuSans-51" transform="translate(1315.828125 0)"/>
     <use xlink:href="#DejaVuSans-3d" transform="translate(1394.539062 0)"/>
     <use xlink:href="#DejaVuSans-33" transform="translate(1478.328125 0)"/>
     <use xlink:href="#DejaVuSans-36" transform="translate(1541.951172 0)"/>
     <use xlink:href="#DejaVuSans-2e" transform="translate(1605.574219 0)"/>
     <use xlink:href="#DejaVuSans-35" transform="translate(1637.361328 0)"/>
     <use xlink:href="#DejaVuSans-36" transform="translate(1700.984375 0)"/>
     <use xlink:href="#DejaVuSans-29" transform="translate(1764.607422 0)"/>
    </g>
   </g>
  </g>
 </g>
 <defs>
  <clipPath id="p3b8fcdc9d2">
   <rect x="57.6" y="41.472" width="357.12" height="266.112"/>
  </clipPath>
 </defs>
</svg>
