<?xml version="1.0" encoding="utf-8" standalone="no"?>
<!DOCTYPE svg PUBLIC "-//W3C//DTD SVG 1.1//EN"
  "http://www.w3.org/Graphics/SVG/1.1/DTD/svg11.dtd">
<svg xmlns:xlink="http://www.w3.org/1999/xlink" width="864pt" height="360pt" viewBox="0 0 864 360" xmlns="http://www.w3.org/2000/svg" version="1.1">
 <metadata>
  <rdf:RDF xmlns:dc="http://purl.org/dc/elements/1.1/" xmlns:cc="http://creativecommons.org/ns#" xmlns:rdf="http://www.w3.org/1999/02/22-rdf-syntax-ns#">
   <cc:Work>
    <dc:type rdf:resource="http://purl.org/dc/dcmitype/StillImage"/>
    <dc:date>2026-01-05T14:21:41.544662</dc:date>
    <dc:format>image/svg+xml</dc:format>
    <dc:creator>
     <cc:Agent>
      <dc:title>Matplotlib v3.10.3, https://matplotlib.org/</dc:title>
     </cc:Agent>
    </dc:creator>
   </cc:Work>
  </rdf:RDF>
 </metadata>
 <defs>
  <style type="text/css">*{stroke-linejoin: round; stroke-linecap: butt}</style>
 </defs>
 <g id="figure_1">
  <g id="patch_1">
   <path d="M 0 360 
L 864 360 
L 864 0 
L 0 0 
z
" style="fill: #ffffff"/>
  </g>
  <g id="axes_1">
   <g id="patch_2">
    <path d="M 83.99 296.44 
L 411.139711 296.44 
L 411.139711 25.2 
L 83.99 25.2 
z
" style="fill: #ffffff"/>
   </g>
   <g id="matplotlib.axis_1">
    <g id="xtick_1">
     <g id="line2d_1">
      <defs>
       <path id="mb1e0f94d31" d="M 0 0 
L 0 3.5 
" style="stroke: #000000; stroke-width: 0.8"/>
      </defs>
      <g>
       <use xlink:href="#mb1e0f94d31" x="98.860441" y="296.44" style="stroke: #000000; stroke-width: 0.8"/>
      </g>
     </g>
     <g id="text_1">
      <!-- FT1/10pts -->
      <g transform="translate(66.608254 313.317969) scale(0.13 -0.13)">
       <defs>
        <path id="DejaVuSans-46" d="M 628 4666 
L 3309 4666 
L 3309 4134 
L 1259 4134 
L 1259 2759 
L 3109 2759 
L 3109 2228 
L 1259 2228 
L 1259 0 
L 628 0 
L 628 4666 
z
" transform="scale(0.015625)"/>
        <path id="DejaVuSans-54" d="M -19 4666 
L 3928 4666 
L 3928 4134 
L 2272 4134 
L 2272 0 
L 1638 0 
L 1638 4134 
L -19 4134 
L -19 4666 
z
" transform="scale(0.015625)"/>
        <path id="DejaVuSans-31" d="M 794 531 
L 1825 531 
L 1825 4091 
L 703 3866 
L 703 4441 
L 1819 4666 
L 2450 4666 
L 2450 531 
L 3481 531 
L 3481 0 
L 794 0 
L 794 531 
z
" transform="scale(0.015625)"/>
        <path id="DejaVuSans-2f" d="M 1625 4666 
L 2156 4666 
L 531 -594 
L 0 -594 
L 1625 4666 
z
" transform="scale(0.015625)"/>
        <path id="DejaVuSans-30" d="M 2034 4250 
Q 1547 4250 1301 3770 
Q 1056 3291 1056 2328 
Q 1056 1369 1301 889 
Q 1547 409 2034 409 
Q 2525 409 2770 889 
Q 3016 1369 3016 2328 
Q 3016 3291 2770 3770 
Q 2525 4250 2034 4250 
z
M 2034 4750 
Q 2819 4750 3233 4129 
Q 3647 3509 3647 2328 
Q 3647 1150 3233 529 
Q 2819 -91 2034 -91 
Q 1250 -91 836 529 
Q 422 1150 422 2328 
Q 422 3509 836 4129 
Q 1250 4750 2034 4750 
z
" transform="scale(0.015625)"/>
        <path id="DejaVuSans-70" d="M 1159 525 
L 1159 -1331 
L 581 -1331 
L 581 3500 
L 1159 3500 
L 1159 2969 
Q 1341 3281 1617 3432 
Q 1894 3584 2278 3584 
Q 2916 3584 3314 3078 
Q 3713 2572 3713 1747 
Q 3713 922 3314 415 
Q 2916 -91 2278 -91 
Q 1894 -91 1617 61 
Q 1341 213 1159 525 
z
M 3116 1747 
Q 3116 2381 2855 2742 
Q 2594 3103 2138 3103 
Q 1681 3103 1420 2742 
Q 1159 2381 1159 1747 
Q 1159 1113 1420 752 
Q 1681 391 2138 391 
Q 2594 391 2855 752 
Q 3116 1113 3116 1747 
z
" transform="scale(0.015625)"/>
        <path id="DejaVuSans-74" d="M 1172 4494 
L 1172 3500 
L 2356 3500 
L 2356 3053 
L 1172 3053 
L 1172 1153 
Q 1172 725 1289 603 
Q 1406 481 1766 481 
L 2356 481 
L 2356 0 
L 1766 0 
Q 1100 0 847 248 
Q 594 497 594 1153 
L 594 3053 
L 172 3053 
L 172 3500 
L 594 3500 
L 594 4494 
L 1172 4494 
z
" transform="scale(0.015625)"/>
        <path id="DejaVuSans-73" d="M 2834 3397 
L 2834 2853 
Q 2591 2978 2328 3040 
Q 2066 3103 1784 3103 
Q 1356 3103 1142 2972 
Q 928 2841 928 2578 
Q 928 2378 1081 2264 
Q 1234 2150 1697 2047 
L 1894 2003 
Q 2506 1872 2764 1633 
Q 3022 1394 3022 966 
Q 3022 478 2636 193 
Q 2250 -91 1575 -91 
Q 1294 -91 989 -36 
Q 684 19 347 128 
L 347 722 
Q 666 556 975 473 
Q 1284 391 1588 391 
Q 1994 391 2212 530 
Q 2431 669 2431 922 
Q 2431 1156 2273 1281 
Q 2116 1406 1581 1522 
L 1381 1569 
Q 847 1681 609 1914 
Q 372 2147 372 2553 
Q 372 3047 722 3315 
Q 1072 3584 1716 3584 
Q 2034 3584 2315 3537 
Q 2597 3491 2834 3397 
z
" transform="scale(0.015625)"/>
       </defs>
       <use xlink:href="#DejaVuSans-46"/>
       <use xlink:href="#DejaVuSans-54" transform="translate(55.769531 0)"/>
       <use xlink:href="#DejaVuSans-31" transform="translate(116.853516 0)"/>
       <use xlink:href="#DejaVuSans-2f" transform="translate(180.476562 0)"/>
       <use xlink:href="#DejaVuSans-31" transform="translate(214.167969 0)"/>
       <use xlink:href="#DejaVuSans-30" transform="translate(277.791016 0)"/>
       <use xlink:href="#DejaVuSans-70" transform="translate(341.414062 0)"/>
       <use xlink:href="#DejaVuSans-74" transform="translate(404.890625 0)"/>
       <use xlink:href="#DejaVuSans-73" transform="translate(444.099609 0)"/>
      </g>
     </g>
    </g>
    <g id="xtick_2">
     <g id="line2d_2">
      <g>
       <use xlink:href="#mb1e0f94d31" x="173.212648" y="296.44" style="stroke: #000000; stroke-width: 0.8"/>
      </g>
     </g>
     <g id="text_2">
      <!-- FT2/21pts -->
      <g transform="translate(140.960461 313.317969) scale(0.13 -0.13)">
       <defs>
        <path id="DejaVuSans-32" d="M 1228 531 
L 3431 531 
L 3431 0 
L 469 0 
L 469 531 
Q 828 903 1448 1529 
Q 2069 2156 2228 2338 
Q 2531 2678 2651 2914 
Q 2772 3150 2772 3378 
Q 2772 3750 2511 3984 
Q 2250 4219 1831 4219 
Q 1534 4219 1204 4116 
Q 875 4013 500 3803 
L 500 4441 
Q 881 4594 1212 4672 
Q 1544 4750 1819 4750 
Q 2544 4750 2975 4387 
Q 3406 4025 3406 3419 
Q 3406 3131 3298 2873 
Q 3191 2616 2906 2266 
Q 2828 2175 2409 1742 
Q 1991 1309 1228 531 
z
" transform="scale(0.015625)"/>
       </defs>
       <use xlink:href="#DejaVuSans-46"/>
       <use xlink:href="#DejaVuSans-54" transform="translate(55.769531 0)"/>
       <use xlink:href="#DejaVuSans-32" transform="translate(116.853516 0)"/>
       <use xlink:href="#DejaVuSans-2f" transform="translate(180.476562 0)"/>
       <use xlink:href="#DejaVuSans-32" transform="translate(214.167969 0)"/>
       <use xlink:href="#DejaVuSans-31" transform="translate(277.791016 0)"/>
       <use xlink:href="#DejaVuSans-70" transform="translate(341.414062 0)"/>
       <use xlink:href="#DejaVuSans-74" transform="translate(404.890625 0)"/>
       <use xlink:href="#DejaVuSans-73" transform="translate(444.099609 0)"/>
      </g>
     </g>
    </g>
    <g id="xtick_3">
     <g id="line2d_3">
      <g>
       <use xlink:href="#mb1e0f94d31" x="247.564855" y="296.44" style="stroke: #000000; stroke-width: 0.8"/>
      </g>
     </g>
     <g id="text_3">
      <!-- FT3/31pts -->
      <g transform="translate(215.312668 313.317969) scale(0.13 -0.13)">
       <defs>
        <path id="DejaVuSans-33" d="M 2597 2516 
Q 3050 2419 3304 2112 
Q 3559 1806 3559 1356 
Q 3559 666 3084 287 
Q 2609 -91 1734 -91 
Q 1441 -91 1130 -33 
Q 819 25 488 141 
L 488 750 
Q 750 597 1062 519 
Q 1375 441 1716 441 
Q 2309 441 2620 675 
Q 2931 909 2931 1356 
Q 2931 1769 2642 2001 
Q 2353 2234 1838 2234 
L 1294 2234 
L 1294 2753 
L 1863 2753 
Q 2328 2753 2575 2939 
Q 2822 3125 2822 3475 
Q 2822 3834 2567 4026 
Q 2313 4219 1838 4219 
Q 1578 4219 1281 4162 
Q 984 4106 628 3988 
L 628 4550 
Q 988 4650 1302 4700 
Q 1616 4750 1894 4750 
Q 2613 4750 3031 4423 
Q 3450 4097 3450 3541 
Q 3450 3153 3228 2886 
Q 3006 2619 2597 2516 
z
" transform="scale(0.015625)"/>
       </defs>
       <use xlink:href="#DejaVuSans-46"/>
       <use xlink:href="#DejaVuSans-54" transform="translate(55.769531 0)"/>
       <use xlink:href="#DejaVuSans-33" transform="translate(116.853516 0)"/>
       <use xlink:href="#DejaVuSans-2f" transform="translate(180.476562 0)"/>
       <use xlink:href="#DejaVuSans-33" transform="translate(214.167969 0)"/>
       <use xlink:href="#DejaVuSans-31" transform="translate(277.791016 0)"/>
       <use xlink:href="#DejaVuSans-70" transform="translate(341.414062 0)"/>
       <use xlink:href="#DejaVuSans-74" transform="translate(404.890625 0)"/>
       <use xlink:href="#DejaVuSans-73" transform="translate(444.099609 0)"/>
      </g>
     </g>
    </g>
    <g id="xtick_4">
     <g id="line2d_4">
      <g>
       <use xlink:href="#mb1e0f94d31" x="321.917062" y="296.44" style="stroke: #000000; stroke-width: 0.8"/>
      </g>
     </g>
     <g id="text_4">
      <!-- FT4/40pts -->
      <g transform="translate(289.664875 313.317969) scale(0.13 -0.13)">
       <defs>
        <path id="DejaVuSans-34" d="M 2419 4116 
L 825 1625 
L 2419 1625 
L 2419 4116 
z
M 2253 4666 
L 3047 4666 
L 3047 1625 
L 3713 1625 
L 3713 1100 
L 3047 1100 
L 3047 0 
L 2419 0 
L 2419 1100 
L 313 1100 
L 313 1709 
L 2253 4666 
z
" transform="scale(0.015625)"/>
       </defs>
       <use xlink:href="#DejaVuSans-46"/>
       <use xlink:href="#DejaVuSans-54" transform="translate(55.769531 0)"/>
       <use xlink:href="#DejaVuSans-34" transform="translate(116.853516 0)"/>
       <use xlink:href="#DejaVuSans-2f" transform="translate(180.476562 0)"/>
       <use xlink:href="#DejaVuSans-34" transform="translate(214.167969 0)"/>
       <use xlink:href="#DejaVuSans-30" transform="translate(277.791016 0)"/>
       <use xlink:href="#DejaVuSans-70" transform="translate(341.414062 0)"/>
       <use xlink:href="#DejaVuSans-74" transform="translate(404.890625 0)"/>
       <use xlink:href="#DejaVuSans-73" transform="translate(444.099609 0)"/>
      </g>
     </g>
    </g>
    <g id="xtick_5">
     <g id="line2d_5">
      <g>
       <use xlink:href="#mb1e0f94d31" x="396.269269" y="296.44" style="stroke: #000000; stroke-width: 0.8"/>
      </g>
     </g>
     <g id="text_5">
      <!-- FT5/50pts -->
      <g transform="translate(364.017082 313.317969) scale(0.13 -0.13)">
       <defs>
        <path id="DejaVuSans-35" d="M 691 4666 
L 3169 4666 
L 3169 4134 
L 1269 4134 
L 1269 2991 
Q 1406 3038 1543 3061 
Q 1681 3084 1819 3084 
Q 2600 3084 3056 2656 
Q 3513 2228 3513 1497 
Q 3513 744 3044 326 
Q 2575 -91 1722 -91 
Q 1428 -91 1123 -41 
Q 819 9 494 109 
L 494 744 
Q 775 591 1075 516 
Q 1375 441 1709 441 
Q 2250 441 2565 725 
Q 2881 1009 2881 1497 
Q 2881 1984 2565 2268 
Q 2250 2553 1709 2553 
Q 1456 2553 1204 2497 
Q 953 2441 691 2322 
L 691 4666 
z
" transform="scale(0.015625)"/>
       </defs>
       <use xlink:href="#DejaVuSans-46"/>
       <use xlink:href="#DejaVuSans-54" transform="translate(55.769531 0)"/>
       <use xlink:href="#DejaVuSans-35" transform="translate(116.853516 0)"/>
       <use xlink:href="#DejaVuSans-2f" transform="translate(180.476562 0)"/>
       <use xlink:href="#DejaVuSans-35" transform="translate(214.167969 0)"/>
       <use xlink:href="#DejaVuSans-30" transform="translate(277.791016 0)"/>
       <use xlink:href="#DejaVuSans-70" transform="translate(341.414062 0)"/>
       <use xlink:href="#DejaVuSans-74" transform="translate(404.890625 0)"/>
       <use xlink:href="#DejaVuSans-73" transform="translate(444.099609 0)"/>
      </g>
     </g>
    </g>
    <g id="text_6">
     <!-- Model -->
     <g transform="translate(217.538293 335.218437) scale(0.2 -0.2)">
      <defs>
       <path id="DejaVuSans-4d" d="M 628 4666 
L 1569 4666 
L 2759 1491 
L 3956 4666 
L 4897 4666 
L 4897 0 
L 4281 0 
L 4281 4097 
L 3078 897 
L 2444 897 
L 1241 4097 
L 1241 0 
L 628 0 
L 628 4666 
z
" transform="scale(0.015625)"/>
       <path id="DejaVuSans-6f" d="M 1959 3097 
Q 1497 3097 1228 2736 
Q 959 2375 959 1747 
Q 959 1119 1226 758 
Q 1494 397 1959 397 
Q 2419 397 2687 759 
Q 2956 1122 2956 1747 
Q 2956 2369 2687 2733 
Q 2419 3097 1959 3097 
z
M 1959 3584 
Q 2709 3584 3137 3096 
Q 3566 2609 3566 1747 
Q 3566 888 3137 398 
Q 2709 -91 1959 -91 
Q 1206 -91 779 398 
Q 353 888 353 1747 
Q 353 2609 779 3096 
Q 1206 3584 1959 3584 
z
" transform="scale(0.015625)"/>
       <path id="DejaVuSans-64" d="M 2906 2969 
L 2906 4863 
L 3481 4863 
L 3481 0 
L 2906 0 
L 2906 525 
Q 2725 213 2448 61 
Q 2172 -91 1784 -91 
Q 1150 -91 751 415 
Q 353 922 353 1747 
Q 353 2572 751 3078 
Q 1150 3584 1784 3584 
Q 2172 3584 2448 3432 
Q 2725 3281 2906 2969 
z
M 947 1747 
Q 947 1113 1208 752 
Q 1469 391 1925 391 
Q 2381 391 2643 752 
Q 2906 1113 2906 1747 
Q 2906 2381 2643 2742 
Q 2381 3103 1925 3103 
Q 1469 3103 1208 2742 
Q 947 2381 947 1747 
z
" transform="scale(0.015625)"/>
       <path id="DejaVuSans-65" d="M 3597 1894 
L 3597 1613 
L 953 1613 
Q 991 1019 1311 708 
Q 1631 397 2203 397 
Q 2534 397 2845 478 
Q 3156 559 3463 722 
L 3463 178 
Q 3153 47 2828 -22 
Q 2503 -91 2169 -91 
Q 1331 -91 842 396 
Q 353 884 353 1716 
Q 353 2575 817 3079 
Q 1281 3584 2069 3584 
Q 2775 3584 3186 3129 
Q 3597 2675 3597 1894 
z
M 3022 2063 
Q 3016 2534 2758 2815 
Q 2500 3097 2075 3097 
Q 1594 3097 1305 2825 
Q 1016 2553 972 2059 
L 3022 2063 
z
" transform="scale(0.015625)"/>
       <path id="DejaVuSans-6c" d="M 603 4863 
L 1178 4863 
L 1178 0 
L 603 0 
L 603 4863 
z
" transform="scale(0.015625)"/>
      </defs>
      <use xlink:href="#DejaVuSans-4d"/>
      <use xlink:href="#DejaVuSans-6f" transform="translate(86.279297 0)"/>
      <use xlink:href="#DejaVuSans-64" transform="translate(147.460938 0)"/>
      <use xlink:href="#DejaVuSans-65" transform="translate(210.9375 0)"/>
      <use xlink:href="#DejaVuSans-6c" transform="translate(272.460938 0)"/>
     </g>
    </g>
   </g>
   <g id="matplotlib.axis_2">
    <g id="ytick_1">
     <g id="line2d_6">
      <defs>
       <path id="m89cd1f2ea6" d="M 0 0 
L -3.5 0 
" style="stroke: #000000; stroke-width: 0.8"/>
      </defs>
      <g>
       <use xlink:href="#m89cd1f2ea6" x="83.99" y="284.832608" style="stroke: #000000; stroke-width: 0.8"/>
      </g>
     </g>
     <g id="text_7">
      <!-- 8.5 -->
      <g transform="translate(53.135313 290.531437) scale(0.15 -0.15)">
       <defs>
        <path id="DejaVuSans-38" d="M 2034 2216 
Q 1584 2216 1326 1975 
Q 1069 1734 1069 1313 
Q 1069 891 1326 650 
Q 1584 409 2034 409 
Q 2484 409 2743 651 
Q 3003 894 3003 1313 
Q 3003 1734 2745 1975 
Q 2488 2216 2034 2216 
z
M 1403 2484 
Q 997 2584 770 2862 
Q 544 3141 544 3541 
Q 544 4100 942 4425 
Q 1341 4750 2034 4750 
Q 2731 4750 3128 4425 
Q 3525 4100 3525 3541 
Q 3525 3141 3298 2862 
Q 3072 2584 2669 2484 
Q 3125 2378 3379 2068 
Q 3634 1759 3634 1313 
Q 3634 634 3220 271 
Q 2806 -91 2034 -91 
Q 1263 -91 848 271 
Q 434 634 434 1313 
Q 434 1759 690 2068 
Q 947 2378 1403 2484 
z
M 1172 3481 
Q 1172 3119 1398 2916 
Q 1625 2713 2034 2713 
Q 2441 2713 2670 2916 
Q 2900 3119 2900 3481 
Q 2900 3844 2670 4047 
Q 2441 4250 2034 4250 
Q 1625 4250 1398 4047 
Q 1172 3844 1172 3481 
z
" transform="scale(0.015625)"/>
        <path id="DejaVuSans-2e" d="M 684 794 
L 1344 794 
L 1344 0 
L 684 0 
L 684 794 
z
" transform="scale(0.015625)"/>
       </defs>
       <use xlink:href="#DejaVuSans-38"/>
       <use xlink:href="#DejaVuSans-2e" transform="translate(63.623047 0)"/>
       <use xlink:href="#DejaVuSans-35" transform="translate(95.410156 0)"/>
      </g>
     </g>
    </g>
    <g id="ytick_2">
     <g id="line2d_7">
      <g>
       <use xlink:href="#m89cd1f2ea6" x="83.99" y="247.318905" style="stroke: #000000; stroke-width: 0.8"/>
      </g>
     </g>
     <g id="text_8">
      <!-- 9.0 -->
      <g transform="translate(53.135313 253.017733) scale(0.15 -0.15)">
       <defs>
        <path id="DejaVuSans-39" d="M 703 97 
L 703 672 
Q 941 559 1184 500 
Q 1428 441 1663 441 
Q 2288 441 2617 861 
Q 2947 1281 2994 2138 
Q 2813 1869 2534 1725 
Q 2256 1581 1919 1581 
Q 1219 1581 811 2004 
Q 403 2428 403 3163 
Q 403 3881 828 4315 
Q 1253 4750 1959 4750 
Q 2769 4750 3195 4129 
Q 3622 3509 3622 2328 
Q 3622 1225 3098 567 
Q 2575 -91 1691 -91 
Q 1453 -91 1209 -44 
Q 966 3 703 97 
z
M 1959 2075 
Q 2384 2075 2632 2365 
Q 2881 2656 2881 3163 
Q 2881 3666 2632 3958 
Q 2384 4250 1959 4250 
Q 1534 4250 1286 3958 
Q 1038 3666 1038 3163 
Q 1038 2656 1286 2365 
Q 1534 2075 1959 2075 
z
" transform="scale(0.015625)"/>
       </defs>
       <use xlink:href="#DejaVuSans-39"/>
       <use xlink:href="#DejaVuSans-2e" transform="translate(63.623047 0)"/>
       <use xlink:href="#DejaVuSans-30" transform="translate(95.410156 0)"/>
      </g>
     </g>
    </g>
    <g id="ytick_3">
     <g id="line2d_8">
      <g>
       <use xlink:href="#m89cd1f2ea6" x="83.99" y="209.805202" style="stroke: #000000; stroke-width: 0.8"/>
      </g>
     </g>
     <g id="text_9">
      <!-- 9.5 -->
      <g transform="translate(53.135313 215.50403) scale(0.15 -0.15)">
       <use xlink:href="#DejaVuSans-39"/>
       <use xlink:href="#DejaVuSans-2e" transform="translate(63.623047 0)"/>
       <use xlink:href="#DejaVuSans-35" transform="translate(95.410156 0)"/>
      </g>
     </g>
    </g>
    <g id="ytick_4">
     <g id="line2d_9">
      <g>
       <use xlink:href="#m89cd1f2ea6" x="83.99" y="172.291499" style="stroke: #000000; stroke-width: 0.8"/>
      </g>
     </g>
     <g id="text_10">
      <!-- 10.0 -->
      <g transform="translate(43.591563 177.990327) scale(0.15 -0.15)">
       <use xlink:href="#DejaVuSans-31"/>
       <use xlink:href="#DejaVuSans-30" transform="translate(63.623047 0)"/>
       <use xlink:href="#DejaVuSans-2e" transform="translate(127.246094 0)"/>
       <use xlink:href="#DejaVuSans-30" transform="translate(159.033203 0)"/>
      </g>
     </g>
    </g>
    <g id="ytick_5">
     <g id="line2d_10">
      <g>
       <use xlink:href="#m89cd1f2ea6" x="83.99" y="134.777796" style="stroke: #000000; stroke-width: 0.8"/>
      </g>
     </g>
     <g id="text_11">
      <!-- 10.5 -->
      <g transform="translate(43.591563 140.476624) scale(0.15 -0.15)">
       <use xlink:href="#DejaVuSans-31"/>
       <use xlink:href="#DejaVuSans-30" transform="translate(63.623047 0)"/>
       <use xlink:href="#DejaVuSans-2e" transform="translate(127.246094 0)"/>
       <use xlink:href="#DejaVuSans-35" transform="translate(159.033203 0)"/>
      </g>
     </g>
    </g>
    <g id="ytick_6">
     <g id="line2d_11">
      <g>
       <use xlink:href="#m89cd1f2ea6" x="83.99" y="97.264092" style="stroke: #000000; stroke-width: 0.8"/>
      </g>
     </g>
     <g id="text_12">
      <!-- 11.0 -->
      <g transform="translate(43.591563 102.96292) scale(0.15 -0.15)">
       <use xlink:href="#DejaVuSans-31"/>
       <use xlink:href="#DejaVuSans-31" transform="translate(63.623047 0)"/>
       <use xlink:href="#DejaVuSans-2e" transform="translate(127.246094 0)"/>
       <use xlink:href="#DejaVuSans-30" transform="translate(159.033203 0)"/>
      </g>
     </g>
    </g>
    <g id="ytick_7">
     <g id="line2d_12">
      <g>
       <use xlink:href="#m89cd1f2ea6" x="83.99" y="59.750389" style="stroke: #000000; stroke-width: 0.8"/>
      </g>
     </g>
     <g id="text_13">
      <!-- 11.5 -->
      <g transform="translate(43.591563 65.449217) scale(0.15 -0.15)">
       <use xlink:href="#DejaVuSans-31"/>
       <use xlink:href="#DejaVuSans-31" transform="translate(63.623047 0)"/>
       <use xlink:href="#DejaVuSans-2e" transform="translate(127.246094 0)"/>
       <use xlink:href="#DejaVuSans-35" transform="translate(159.033203 0)"/>
      </g>
     </g>
    </g>
    <g id="text_14">
     <!-- Q-Residual -->
     <g transform="translate(35.432188 214.805938) rotate(-90) scale(0.2 -0.2)">
      <defs>
       <path id="DejaVuSans-51" d="M 2522 4238 
Q 1834 4238 1429 3725 
Q 1025 3213 1025 2328 
Q 1025 1447 1429 934 
Q 1834 422 2522 422 
Q 3209 422 3611 934 
Q 4013 1447 4013 2328 
Q 4013 3213 3611 3725 
Q 3209 4238 2522 4238 
z
M 3406 84 
L 4238 -825 
L 3475 -825 
L 2784 -78 
Q 2681 -84 2626 -87 
Q 2572 -91 2522 -91 
Q 1538 -91 948 567 
Q 359 1225 359 2328 
Q 359 3434 948 4092 
Q 1538 4750 2522 4750 
Q 3503 4750 4090 4092 
Q 4678 3434 4678 2328 
Q 4678 1516 4351 937 
Q 4025 359 3406 84 
z
" transform="scale(0.015625)"/>
       <path id="DejaVuSans-2d" d="M 313 2009 
L 1997 2009 
L 1997 1497 
L 313 1497 
L 313 2009 
z
" transform="scale(0.015625)"/>
       <path id="DejaVuSans-52" d="M 2841 2188 
Q 3044 2119 3236 1894 
Q 3428 1669 3622 1275 
L 4263 0 
L 3584 0 
L 2988 1197 
Q 2756 1666 2539 1819 
Q 2322 1972 1947 1972 
L 1259 1972 
L 1259 0 
L 628 0 
L 628 4666 
L 2053 4666 
Q 2853 4666 3247 4331 
Q 3641 3997 3641 3322 
Q 3641 2881 3436 2590 
Q 3231 2300 2841 2188 
z
M 1259 4147 
L 1259 2491 
L 2053 2491 
Q 2509 2491 2742 2702 
Q 2975 2913 2975 3322 
Q 2975 3731 2742 3939 
Q 2509 4147 2053 4147 
L 1259 4147 
z
" transform="scale(0.015625)"/>
       <path id="DejaVuSans-69" d="M 603 3500 
L 1178 3500 
L 1178 0 
L 603 0 
L 603 3500 
z
M 603 4863 
L 1178 4863 
L 1178 4134 
L 603 4134 
L 603 4863 
z
" transform="scale(0.015625)"/>
       <path id="DejaVuSans-75" d="M 544 1381 
L 544 3500 
L 1119 3500 
L 1119 1403 
Q 1119 906 1312 657 
Q 1506 409 1894 409 
Q 2359 409 2629 706 
Q 2900 1003 2900 1516 
L 2900 3500 
L 3475 3500 
L 3475 0 
L 2900 0 
L 2900 538 
Q 2691 219 2414 64 
Q 2138 -91 1772 -91 
Q 1169 -91 856 284 
Q 544 659 544 1381 
z
M 1991 3584 
L 1991 3584 
z
" transform="scale(0.015625)"/>
       <path id="DejaVuSans-61" d="M 2194 1759 
Q 1497 1759 1228 1600 
Q 959 1441 959 1056 
Q 959 750 1161 570 
Q 1363 391 1709 391 
Q 2188 391 2477 730 
Q 2766 1069 2766 1631 
L 2766 1759 
L 2194 1759 
z
M 3341 1997 
L 3341 0 
L 2766 0 
L 2766 531 
Q 2569 213 2275 61 
Q 1981 -91 1556 -91 
Q 1019 -91 701 211 
Q 384 513 384 1019 
Q 384 1609 779 1909 
Q 1175 2209 1959 2209 
L 2766 2209 
L 2766 2266 
Q 2766 2663 2505 2880 
Q 2244 3097 1772 3097 
Q 1472 3097 1187 3025 
Q 903 2953 641 2809 
L 641 3341 
Q 956 3463 1253 3523 
Q 1550 3584 1831 3584 
Q 2591 3584 2966 3190 
Q 3341 2797 3341 1997 
z
" transform="scale(0.015625)"/>
      </defs>
      <use xlink:href="#DejaVuSans-51"/>
      <use xlink:href="#DejaVuSans-2d" transform="translate(81.460938 0)"/>
      <use xlink:href="#DejaVuSans-52" transform="translate(117.544922 0)"/>
      <use xlink:href="#DejaVuSans-65" transform="translate(182.527344 0)"/>
      <use xlink:href="#DejaVuSans-73" transform="translate(244.050781 0)"/>
      <use xlink:href="#DejaVuSans-69" transform="translate(296.150391 0)"/>
      <use xlink:href="#DejaVuSans-64" transform="translate(323.933594 0)"/>
      <use xlink:href="#DejaVuSans-75" transform="translate(387.410156 0)"/>
      <use xlink:href="#DejaVuSans-61" transform="translate(450.789062 0)"/>
      <use xlink:href="#DejaVuSans-6c" transform="translate(512.068359 0)"/>
     </g>
    </g>
   </g>
   <g id="line2d_13">
    <path d="M 98.860441 37.529091 
L 173.212648 153.334722 
L 247.564855 143.782599 
L 321.917062 148.367028 
L 396.269269 161.259003 
" clip-path="url(#pf3cf9d5a85)" style="fill: none; stroke: #a18aa5; stroke-width: 2; stroke-linecap: square"/>
    <defs>
     <path id="m2db53ffd71" d="M -4 4 
L 4 -4 
M -4 -4 
L 4 4 
" style="stroke: #a18aa5"/>
    </defs>
    <g clip-path="url(#pf3cf9d5a85)">
     <use xlink:href="#m2db53ffd71" x="98.860441" y="37.529091" style="fill: #a18aa5; stroke: #a18aa5"/>
     <use xlink:href="#m2db53ffd71" x="173.212648" y="153.334722" style="fill: #a18aa5; stroke: #a18aa5"/>
     <use xlink:href="#m2db53ffd71" x="247.564855" y="143.782599" style="fill: #a18aa5; stroke: #a18aa5"/>
     <use xlink:href="#m2db53ffd71" x="321.917062" y="148.367028" style="fill: #a18aa5; stroke: #a18aa5"/>
     <use xlink:href="#m2db53ffd71" x="396.269269" y="161.259003" style="fill: #a18aa5; stroke: #a18aa5"/>
    </g>
   </g>
   <g id="line2d_14">
    <path d="M 98.860441 41.830183 
L 173.212648 284.110909 
L 247.564855 275.602196 
L 321.917062 259.997793 
L 396.269269 257.518238 
" clip-path="url(#pf3cf9d5a85)" style="fill: none; stroke: #3b3657; stroke-width: 2; stroke-linecap: square"/>
    <defs>
     <path id="m55e332b8d0" d="M -4 4 
L 4 -4 
M -4 -4 
L 4 4 
" style="stroke: #3b3657"/>
    </defs>
    <g clip-path="url(#pf3cf9d5a85)">
     <use xlink:href="#m55e332b8d0" x="98.860441" y="41.830183" style="fill: #3b3657; stroke: #3b3657"/>
     <use xlink:href="#m55e332b8d0" x="173.212648" y="284.110909" style="fill: #3b3657; stroke: #3b3657"/>
     <use xlink:href="#m55e332b8d0" x="247.564855" y="275.602196" style="fill: #3b3657; stroke: #3b3657"/>
     <use xlink:href="#m55e332b8d0" x="321.917062" y="259.997793" style="fill: #3b3657; stroke: #3b3657"/>
     <use xlink:href="#m55e332b8d0" x="396.269269" y="257.518238" style="fill: #3b3657; stroke: #3b3657"/>
    </g>
   </g>
   <g id="patch_3">
    <path d="M 83.99 296.44 
L 83.99 25.2 
" style="fill: none; stroke: #000000; stroke-width: 3; stroke-linejoin: miter; stroke-linecap: square"/>
   </g>
   <g id="patch_4">
    <path d="M 411.139711 296.44 
L 411.139711 25.2 
" style="fill: none; stroke: #000000; stroke-width: 3; stroke-linejoin: miter; stroke-linecap: square"/>
   </g>
   <g id="patch_5">
    <path d="M 83.99 296.44 
L 411.139711 296.44 
" style="fill: none; stroke: #000000; stroke-width: 3; stroke-linejoin: miter; stroke-linecap: square"/>
   </g>
   <g id="patch_6">
    <path d="M 83.99 25.2 
L 411.139711 25.2 
" style="fill: none; stroke: #000000; stroke-width: 3; stroke-linejoin: miter; stroke-linecap: square"/>
   </g>
   <g id="legend_1">
    <g id="patch_7">
     <path d="M 269.924086 92.44125 
L 398.539711 92.44125 
Q 402.139711 92.44125 402.139711 88.84125 
L 402.139711 37.8 
Q 402.139711 34.2 398.539711 34.2 
L 269.924086 34.2 
Q 266.324086 34.2 266.324086 37.8 
L 266.324086 88.84125 
Q 266.324086 92.44125 269.924086 92.44125 
z
" style="fill: #ffffff; opacity: 0.8; stroke: #cccccc; stroke-linejoin: miter"/>
    </g>
    <g id="line2d_15">
     <path d="M 273.524086 48.777188 
L 291.524086 48.777188 
L 309.524086 48.777188 
" style="fill: none; stroke: #a18aa5; stroke-width: 2; stroke-linecap: square"/>
     <g>
      <use xlink:href="#m2db53ffd71" x="291.524086" y="48.777188" style="fill: #a18aa5; stroke: #a18aa5"/>
     </g>
    </g>
    <g id="text_15">
     <!-- Naive -->
     <g transform="translate(323.924086 55.077188) scale(0.18 -0.18)">
      <defs>
       <path id="DejaVuSans-4e" d="M 628 4666 
L 1478 4666 
L 3547 763 
L 3547 4666 
L 4159 4666 
L 4159 0 
L 3309 0 
L 1241 3903 
L 1241 0 
L 628 0 
L 628 4666 
z
" transform="scale(0.015625)"/>
       <path id="DejaVuSans-76" d="M 191 3500 
L 800 3500 
L 1894 563 
L 2988 3500 
L 3597 3500 
L 2284 0 
L 1503 0 
L 191 3500 
z
" transform="scale(0.015625)"/>
      </defs>
      <use xlink:href="#DejaVuSans-4e"/>
      <use xlink:href="#DejaVuSans-61" transform="translate(74.804688 0)"/>
      <use xlink:href="#DejaVuSans-69" transform="translate(136.083984 0)"/>
      <use xlink:href="#DejaVuSans-76" transform="translate(163.867188 0)"/>
      <use xlink:href="#DejaVuSans-65" transform="translate(223.046875 0)"/>
     </g>
    </g>
    <g id="line2d_16">
     <path d="M 273.524086 75.197813 
L 291.524086 75.197813 
L 309.524086 75.197813 
" style="fill: none; stroke: #3b3657; stroke-width: 2; stroke-linecap: square"/>
     <g>
      <use xlink:href="#m55e332b8d0" x="291.524086" y="75.197813" style="fill: #3b3657; stroke: #3b3657"/>
     </g>
    </g>
    <g id="text_16">
     <!-- Periodic -->
     <g transform="translate(323.924086 81.497813) scale(0.18 -0.18)">
      <defs>
       <path id="DejaVuSans-50" d="M 1259 4147 
L 1259 2394 
L 2053 2394 
Q 2494 2394 2734 2622 
Q 2975 2850 2975 3272 
Q 2975 3691 2734 3919 
Q 2494 4147 2053 4147 
L 1259 4147 
z
M 628 4666 
L 2053 4666 
Q 2838 4666 3239 4311 
Q 3641 3956 3641 3272 
Q 3641 2581 3239 2228 
Q 2838 1875 2053 1875 
L 1259 1875 
L 1259 0 
L 628 0 
L 628 4666 
z
" transform="scale(0.015625)"/>
       <path id="DejaVuSans-72" d="M 2631 2963 
Q 2534 3019 2420 3045 
Q 2306 3072 2169 3072 
Q 1681 3072 1420 2755 
Q 1159 2438 1159 1844 
L 1159 0 
L 581 0 
L 581 3500 
L 1159 3500 
L 1159 2956 
Q 1341 3275 1631 3429 
Q 1922 3584 2338 3584 
Q 2397 3584 2469 3576 
Q 2541 3569 2628 3553 
L 2631 2963 
z
" transform="scale(0.015625)"/>
       <path id="DejaVuSans-63" d="M 3122 3366 
L 3122 2828 
Q 2878 2963 2633 3030 
Q 2388 3097 2138 3097 
Q 1578 3097 1268 2742 
Q 959 2388 959 1747 
Q 959 1106 1268 751 
Q 1578 397 2138 397 
Q 2388 397 2633 464 
Q 2878 531 3122 666 
L 3122 134 
Q 2881 22 2623 -34 
Q 2366 -91 2075 -91 
Q 1284 -91 818 406 
Q 353 903 353 1747 
Q 353 2603 823 3093 
Q 1294 3584 2113 3584 
Q 2378 3584 2631 3529 
Q 2884 3475 3122 3366 
z
" transform="scale(0.015625)"/>
      </defs>
      <use xlink:href="#DejaVuSans-50"/>
      <use xlink:href="#DejaVuSans-65" transform="translate(56.677734 0)"/>
      <use xlink:href="#DejaVuSans-72" transform="translate(118.201172 0)"/>
      <use xlink:href="#DejaVuSans-69" transform="translate(159.314453 0)"/>
      <use xlink:href="#DejaVuSans-6f" transform="translate(187.097656 0)"/>
      <use xlink:href="#DejaVuSans-64" transform="translate(248.279297 0)"/>
      <use xlink:href="#DejaVuSans-69" transform="translate(311.755859 0)"/>
      <use xlink:href="#DejaVuSans-63" transform="translate(339.539062 0)"/>
     </g>
    </g>
   </g>
  </g>
  <g id="axes_2">
   <g id="patch_8">
    <path d="M 499.115 296.44 
L 826.264711 296.44 
L 826.264711 25.2 
L 499.115 25.2 
z
" style="fill: #ffffff"/>
   </g>
   <g id="matplotlib.axis_3">
    <g id="xtick_6">
     <g id="line2d_17">
      <g>
       <use xlink:href="#mb1e0f94d31" x="513.985441" y="296.44" style="stroke: #000000; stroke-width: 0.8"/>
      </g>
     </g>
     <g id="text_17">
      <!-- FT1/10pts -->
      <g transform="translate(481.733254 313.317969) scale(0.13 -0.13)">
       <use xlink:href="#DejaVuSans-46"/>
       <use xlink:href="#DejaVuSans-54" transform="translate(55.769531 0)"/>
       <use xlink:href="#DejaVuSans-31" transform="translate(116.853516 0)"/>
       <use xlink:href="#DejaVuSans-2f" transform="translate(180.476562 0)"/>
       <use xlink:href="#DejaVuSans-31" transform="translate(214.167969 0)"/>
       <use xlink:href="#DejaVuSans-30" transform="translate(277.791016 0)"/>
       <use xlink:href="#DejaVuSans-70" transform="translate(341.414062 0)"/>
       <use xlink:href="#DejaVuSans-74" transform="translate(404.890625 0)"/>
       <use xlink:href="#DejaVuSans-73" transform="translate(444.099609 0)"/>
      </g>
     </g>
    </g>
    <g id="xtick_7">
     <g id="line2d_18">
      <g>
       <use xlink:href="#mb1e0f94d31" x="588.337648" y="296.44" style="stroke: #000000; stroke-width: 0.8"/>
      </g>
     </g>
     <g id="text_18">
      <!-- FT2/21pts -->
      <g transform="translate(556.085461 313.317969) scale(0.13 -0.13)">
       <use xlink:href="#DejaVuSans-46"/>
       <use xlink:href="#DejaVuSans-54" transform="translate(55.769531 0)"/>
       <use xlink:href="#DejaVuSans-32" transform="translate(116.853516 0)"/>
       <use xlink:href="#DejaVuSans-2f" transform="translate(180.476562 0)"/>
       <use xlink:href="#DejaVuSans-32" transform="translate(214.167969 0)"/>
       <use xlink:href="#DejaVuSans-31" transform="translate(277.791016 0)"/>
       <use xlink:href="#DejaVuSans-70" transform="translate(341.414062 0)"/>
       <use xlink:href="#DejaVuSans-74" transform="translate(404.890625 0)"/>
       <use xlink:href="#DejaVuSans-73" transform="translate(444.099609 0)"/>
      </g>
     </g>
    </g>
    <g id="xtick_8">
     <g id="line2d_19">
      <g>
       <use xlink:href="#mb1e0f94d31" x="662.689855" y="296.44" style="stroke: #000000; stroke-width: 0.8"/>
      </g>
     </g>
     <g id="text_19">
      <!-- FT3/31pts -->
      <g transform="translate(630.437668 313.317969) scale(0.13 -0.13)">
       <use xlink:href="#DejaVuSans-46"/>
       <use xlink:href="#DejaVuSans-54" transform="translate(55.769531 0)"/>
       <use xlink:href="#DejaVuSans-33" transform="translate(116.853516 0)"/>
       <use xlink:href="#DejaVuSans-2f" transform="translate(180.476562 0)"/>
       <use xlink:href="#DejaVuSans-33" transform="translate(214.167969 0)"/>
       <use xlink:href="#DejaVuSans-31" transform="translate(277.791016 0)"/>
       <use xlink:href="#DejaVuSans-70" transform="translate(341.414062 0)"/>
       <use xlink:href="#DejaVuSans-74" transform="translate(404.890625 0)"/>
       <use xlink:href="#DejaVuSans-73" transform="translate(444.099609 0)"/>
      </g>
     </g>
    </g>
    <g id="xtick_9">
     <g id="line2d_20">
      <g>
       <use xlink:href="#mb1e0f94d31" x="737.042062" y="296.44" style="stroke: #000000; stroke-width: 0.8"/>
      </g>
     </g>
     <g id="text_20">
      <!-- FT4/40pts -->
      <g transform="translate(704.789875 313.317969) scale(0.13 -0.13)">
       <use xlink:href="#DejaVuSans-46"/>
       <use xlink:href="#DejaVuSans-54" transform="translate(55.769531 0)"/>
       <use xlink:href="#DejaVuSans-34" transform="translate(116.853516 0)"/>
       <use xlink:href="#DejaVuSans-2f" transform="translate(180.476562 0)"/>
       <use xlink:href="#DejaVuSans-34" transform="translate(214.167969 0)"/>
       <use xlink:href="#DejaVuSans-30" transform="translate(277.791016 0)"/>
       <use xlink:href="#DejaVuSans-70" transform="translate(341.414062 0)"/>
       <use xlink:href="#DejaVuSans-74" transform="translate(404.890625 0)"/>
       <use xlink:href="#DejaVuSans-73" transform="translate(444.099609 0)"/>
      </g>
     </g>
    </g>
    <g id="xtick_10">
     <g id="line2d_21">
      <g>
       <use xlink:href="#mb1e0f94d31" x="811.394269" y="296.44" style="stroke: #000000; stroke-width: 0.8"/>
      </g>
     </g>
     <g id="text_21">
      <!-- FT5/50pts -->
      <g transform="translate(779.142082 313.317969) scale(0.13 -0.13)">
       <use xlink:href="#DejaVuSans-46"/>
       <use xlink:href="#DejaVuSans-54" transform="translate(55.769531 0)"/>
       <use xlink:href="#DejaVuSans-35" transform="translate(116.853516 0)"/>
       <use xlink:href="#DejaVuSans-2f" transform="translate(180.476562 0)"/>
       <use xlink:href="#DejaVuSans-35" transform="translate(214.167969 0)"/>
       <use xlink:href="#DejaVuSans-30" transform="translate(277.791016 0)"/>
       <use xlink:href="#DejaVuSans-70" transform="translate(341.414062 0)"/>
       <use xlink:href="#DejaVuSans-74" transform="translate(404.890625 0)"/>
       <use xlink:href="#DejaVuSans-73" transform="translate(444.099609 0)"/>
      </g>
     </g>
    </g>
    <g id="text_22">
     <!-- Model -->
     <g transform="translate(632.663293 335.218437) scale(0.2 -0.2)">
      <use xlink:href="#DejaVuSans-4d"/>
      <use xlink:href="#DejaVuSans-6f" transform="translate(86.279297 0)"/>
      <use xlink:href="#DejaVuSans-64" transform="translate(147.460938 0)"/>
      <use xlink:href="#DejaVuSans-65" transform="translate(210.9375 0)"/>
      <use xlink:href="#DejaVuSans-6c" transform="translate(272.460938 0)"/>
     </g>
    </g>
   </g>
   <g id="matplotlib.axis_4">
    <g id="ytick_8">
     <g id="line2d_22">
      <g>
       <use xlink:href="#m89cd1f2ea6" x="499.115" y="263.568925" style="stroke: #000000; stroke-width: 0.8"/>
      </g>
     </g>
     <g id="text_23">
      <!-- 10 -->
      <g transform="translate(473.0275 269.267753) scale(0.15 -0.15)">
       <use xlink:href="#DejaVuSans-31"/>
       <use xlink:href="#DejaVuSans-30" transform="translate(63.623047 0)"/>
      </g>
     </g>
    </g>
    <g id="ytick_9">
     <g id="line2d_23">
      <g>
       <use xlink:href="#m89cd1f2ea6" x="499.115" y="203.976694" style="stroke: #000000; stroke-width: 0.8"/>
      </g>
     </g>
     <g id="text_24">
      <!-- 20 -->
      <g transform="translate(473.0275 209.675522) scale(0.15 -0.15)">
       <use xlink:href="#DejaVuSans-32"/>
       <use xlink:href="#DejaVuSans-30" transform="translate(63.623047 0)"/>
      </g>
     </g>
    </g>
    <g id="ytick_10">
     <g id="line2d_24">
      <g>
       <use xlink:href="#m89cd1f2ea6" x="499.115" y="144.384463" style="stroke: #000000; stroke-width: 0.8"/>
      </g>
     </g>
     <g id="text_25">
      <!-- 30 -->
      <g transform="translate(473.0275 150.083291) scale(0.15 -0.15)">
       <use xlink:href="#DejaVuSans-33"/>
       <use xlink:href="#DejaVuSans-30" transform="translate(63.623047 0)"/>
      </g>
     </g>
    </g>
    <g id="ytick_11">
     <g id="line2d_25">
      <g>
       <use xlink:href="#m89cd1f2ea6" x="499.115" y="84.792231" style="stroke: #000000; stroke-width: 0.8"/>
      </g>
     </g>
     <g id="text_26">
      <!-- 40 -->
      <g transform="translate(473.0275 90.491059) scale(0.15 -0.15)">
       <use xlink:href="#DejaVuSans-34"/>
       <use xlink:href="#DejaVuSans-30" transform="translate(63.623047 0)"/>
      </g>
     </g>
    </g>
    <g id="ytick_12">
     <g id="line2d_26">
      <g>
       <use xlink:href="#m89cd1f2ea6" x="499.115" y="25.2" style="stroke: #000000; stroke-width: 0.8"/>
      </g>
     </g>
     <g id="text_27">
      <!-- 50 -->
      <g transform="translate(473.0275 30.898828) scale(0.15 -0.15)">
       <use xlink:href="#DejaVuSans-35"/>
       <use xlink:href="#DejaVuSans-30" transform="translate(63.623047 0)"/>
      </g>
     </g>
    </g>
    <g id="text_28">
     <!-- Q-residual -->
     <g transform="translate(464.868125 212.193438) rotate(-90) scale(0.2 -0.2)">
      <use xlink:href="#DejaVuSans-51"/>
      <use xlink:href="#DejaVuSans-2d" transform="translate(81.460938 0)"/>
      <use xlink:href="#DejaVuSans-72" transform="translate(117.544922 0)"/>
      <use xlink:href="#DejaVuSans-65" transform="translate(156.408203 0)"/>
      <use xlink:href="#DejaVuSans-73" transform="translate(217.931641 0)"/>
      <use xlink:href="#DejaVuSans-69" transform="translate(270.03125 0)"/>
      <use xlink:href="#DejaVuSans-64" transform="translate(297.814453 0)"/>
      <use xlink:href="#DejaVuSans-75" transform="translate(361.291016 0)"/>
      <use xlink:href="#DejaVuSans-61" transform="translate(424.669922 0)"/>
      <use xlink:href="#DejaVuSans-6c" transform="translate(485.949219 0)"/>
     </g>
    </g>
   </g>
   <g id="line2d_27">
    <path d="M 513.985441 117.925512 
L 588.337648 155.945355 
L 662.689855 170.426268 
L 737.042062 124.599842 
L 811.394269 141.047298 
" clip-path="url(#p5cf0a8e259)" style="fill: none; stroke-dasharray: 7.5,15; stroke-dashoffset: 0; stroke: #3b3657; stroke-opacity: 0.75; stroke-width: 1.5"/>
    <defs>
     <path id="mf4b7dbd712" d="M -2.594723 -3.477398 
L -1.608073 -3.477398 
L -2.853058 2.966954 
L 0.682699 2.966954 
L 0.522407 3.783976 
L -4 3.783976 
L -2.594723 -3.477398 
z
M 3.105167 -3.783976 
L 4 -3.783976 
L 3.780571 -2.649483 
L 2.885739 -2.649483 
L 3.105167 -3.783976 
z
M 2.695878 -1.662833 
L 3.590711 -1.662833 
L 2.526249 3.783976 
L 1.631416 3.783976 
L 2.695878 -1.662833 
z
" style="stroke: #3b3657; stroke-opacity: 0.75"/>
    </defs>
    <g clip-path="url(#p5cf0a8e259)">
     <use xlink:href="#mf4b7dbd712" x="513.985441" y="117.925512" style="fill: #3b3657; fill-opacity: 0.75; stroke: #3b3657; stroke-opacity: 0.75"/>
     <use xlink:href="#mf4b7dbd712" x="588.337648" y="155.945355" style="fill: #3b3657; fill-opacity: 0.75; stroke: #3b3657; stroke-opacity: 0.75"/>
     <use xlink:href="#mf4b7dbd712" x="662.689855" y="170.426268" style="fill: #3b3657; fill-opacity: 0.75; stroke: #3b3657; stroke-opacity: 0.75"/>
     <use xlink:href="#mf4b7dbd712" x="737.042062" y="124.599842" style="fill: #3b3657; fill-opacity: 0.75; stroke: #3b3657; stroke-opacity: 0.75"/>
     <use xlink:href="#mf4b7dbd712" x="811.394269" y="141.047298" style="fill: #3b3657; fill-opacity: 0.75; stroke: #3b3657; stroke-opacity: 0.75"/>
    </g>
   </g>
   <g id="line2d_28">
    <path d="M 513.985441 47.90464 
L 588.337648 82.408542 
L 662.689855 110.476483 
L 737.042062 104.398075 
L 811.394269 79.42893 
" clip-path="url(#p5cf0a8e259)" style="fill: none; stroke-dasharray: 7.5,15; stroke-dashoffset: 0; stroke: #a18aa5; stroke-opacity: 0.75; stroke-width: 1.5"/>
    <defs>
     <path id="m6766d42547" d="M -2.594723 -3.477398 
L -1.608073 -3.477398 
L -2.853058 2.966954 
L 0.682699 2.966954 
L 0.522407 3.783976 
L -4 3.783976 
L -2.594723 -3.477398 
z
M 3.105167 -3.783976 
L 4 -3.783976 
L 3.780571 -2.649483 
L 2.885739 -2.649483 
L 3.105167 -3.783976 
z
M 2.695878 -1.662833 
L 3.590711 -1.662833 
L 2.526249 3.783976 
L 1.631416 3.783976 
L 2.695878 -1.662833 
z
" style="stroke: #a18aa5; stroke-opacity: 0.75"/>
    </defs>
    <g clip-path="url(#p5cf0a8e259)">
     <use xlink:href="#m6766d42547" x="513.985441" y="47.90464" style="fill: #a18aa5; fill-opacity: 0.75; stroke: #a18aa5; stroke-opacity: 0.75"/>
     <use xlink:href="#m6766d42547" x="588.337648" y="82.408542" style="fill: #a18aa5; fill-opacity: 0.75; stroke: #a18aa5; stroke-opacity: 0.75"/>
     <use xlink:href="#m6766d42547" x="662.689855" y="110.476483" style="fill: #a18aa5; fill-opacity: 0.75; stroke: #a18aa5; stroke-opacity: 0.75"/>
     <use xlink:href="#m6766d42547" x="737.042062" y="104.398075" style="fill: #a18aa5; fill-opacity: 0.75; stroke: #a18aa5; stroke-opacity: 0.75"/>
     <use xlink:href="#m6766d42547" x="811.394269" y="79.42893" style="fill: #a18aa5; fill-opacity: 0.75; stroke: #a18aa5; stroke-opacity: 0.75"/>
    </g>
   </g>
   <g id="line2d_29">
    <path d="M 513.985441 103.802153 
L 588.337648 138.008094 
L 662.689855 144.205686 
L 737.042062 93.909843 
L 811.394269 130.797434 
" clip-path="url(#p5cf0a8e259)" style="fill: none; stroke-dasharray: 7.5,15; stroke-dashoffset: 0; stroke: #3b3657; stroke-opacity: 0.75; stroke-width: 1.5"/>
    <defs>
     <path id="m420e095e31" d="M 0.409819 -3.032314 
L 0.213443 -2.012082 
Q -0.246812 -2.476939 -0.762297 -2.702464 
Q -1.277783 -2.927989 -1.877649 -2.927989 
Q -2.696903 -2.927989 -3.318247 -2.533704 
Q -3.938057 -2.140953 -4.389107 -1.335507 
Q -4.677534 -0.818487 -4.829418 -0.2401 
Q -4.979768 0.338287 -4.979768 0.922811 
Q -4.979768 1.900086 -4.473487 2.414038 
Q -3.967207 2.926455 -3.00374 2.926455 
Q -2.337904 2.926455 -1.724231 2.713204 
Q -1.110557 2.499952 -0.530636 2.073449 
L -0.754627 3.219484 
Q -1.325343 3.463419 -1.908333 3.587688 
Q -2.491322 3.713491 -3.075846 3.713491 
Q -4.452009 3.713491 -5.226772 2.966344 
Q -6 2.217662 -6 0.884457 
Q -6 0.031451 -5.705437 -0.792406 
Q -5.410874 -1.617797 -4.858567 -2.298974 
Q -4.274044 -3.023109 -3.523828 -3.3683 
Q -2.773612 -3.713491 -1.776393 -3.713491 
Q -1.162719 -3.713491 -0.613482 -3.543197 
Q -0.064244 -3.372902 0.409819 -3.032314 
z
M 2.936235 3.713491 
Q 1.991178 3.713491 1.441941 3.130501 
Q 0.894237 2.547512 0.894237 1.541087 
Q 0.894237 0.956563 1.082942 0.350561 
Q 1.273181 -0.256976 1.575415 -0.669671 
Q 2.049477 -1.31096 2.634001 -1.617797 
Q 3.218525 -1.924633 3.958002 -1.924633 
Q 4.873909 -1.924633 5.436955 -1.353917 
Q 6 -0.784735 6 0.135775 
Q 6 0.773996 5.81283 1.407613 
Q 5.625659 2.039697 5.323425 2.456995 
Q 4.853965 3.099818 4.269441 3.406655 
Q 3.684917 3.713491 2.936235 3.713491 
z
M 1.810145 1.511938 
Q 1.810145 2.240675 2.113913 2.602742 
Q 2.419216 2.96481 3.037492 2.96481 
Q 3.92425 2.96481 4.505705 2.191581 
Q 5.088695 1.416818 5.088695 0.227826 
Q 5.088695 -0.467159 4.777256 -0.821555 
Q 4.465816 -1.177486 3.861348 -1.177486 
Q 3.362739 -1.177486 2.97459 -0.94429 
Q 2.586442 -0.712628 2.279605 -0.237031 
Q 2.05408 0.117365 1.931345 0.573018 
Q 1.810145 1.02867 1.810145 1.511938 
z
" style="stroke: #3b3657; stroke-opacity: 0.75"/>
    </defs>
    <g clip-path="url(#p5cf0a8e259)">
     <use xlink:href="#m420e095e31" x="513.985441" y="103.802153" style="fill: #3b3657; fill-opacity: 0.75; stroke: #3b3657; stroke-opacity: 0.75"/>
     <use xlink:href="#m420e095e31" x="588.337648" y="138.008094" style="fill: #3b3657; fill-opacity: 0.75; stroke: #3b3657; stroke-opacity: 0.75"/>
     <use xlink:href="#m420e095e31" x="662.689855" y="144.205686" style="fill: #3b3657; fill-opacity: 0.75; stroke: #3b3657; stroke-opacity: 0.75"/>
     <use xlink:href="#m420e095e31" x="737.042062" y="93.909843" style="fill: #3b3657; fill-opacity: 0.75; stroke: #3b3657; stroke-opacity: 0.75"/>
     <use xlink:href="#m420e095e31" x="811.394269" y="130.797434" style="fill: #3b3657; fill-opacity: 0.75; stroke: #3b3657; stroke-opacity: 0.75"/>
    </g>
   </g>
   <g id="line2d_30">
    <path d="M 513.985441 68.225591 
L 588.337648 98.37926 
L 662.689855 99.153959 
L 737.042062 91.943299 
L 811.394269 98.498445 
" clip-path="url(#p5cf0a8e259)" style="fill: none; stroke-dasharray: 7.5,15; stroke-dashoffset: 0; stroke: #a18aa5; stroke-opacity: 0.75; stroke-width: 1.5"/>
    <defs>
     <path id="mee3e46a880" d="M 0.409819 -3.032314 
L 0.213443 -2.012082 
Q -0.246812 -2.476939 -0.762297 -2.702464 
Q -1.277783 -2.927989 -1.877649 -2.927989 
Q -2.696903 -2.927989 -3.318247 -2.533704 
Q -3.938057 -2.140953 -4.389107 -1.335507 
Q -4.677534 -0.818487 -4.829418 -0.2401 
Q -4.979768 0.338287 -4.979768 0.922811 
Q -4.979768 1.900086 -4.473487 2.414038 
Q -3.967207 2.926455 -3.00374 2.926455 
Q -2.337904 2.926455 -1.724231 2.713204 
Q -1.110557 2.499952 -0.530636 2.073449 
L -0.754627 3.219484 
Q -1.325343 3.463419 -1.908333 3.587688 
Q -2.491322 3.713491 -3.075846 3.713491 
Q -4.452009 3.713491 -5.226772 2.966344 
Q -6 2.217662 -6 0.884457 
Q -6 0.031451 -5.705437 -0.792406 
Q -5.410874 -1.617797 -4.858567 -2.298974 
Q -4.274044 -3.023109 -3.523828 -3.3683 
Q -2.773612 -3.713491 -1.776393 -3.713491 
Q -1.162719 -3.713491 -0.613482 -3.543197 
Q -0.064244 -3.372902 0.409819 -3.032314 
z
M 2.936235 3.713491 
Q 1.991178 3.713491 1.441941 3.130501 
Q 0.894237 2.547512 0.894237 1.541087 
Q 0.894237 0.956563 1.082942 0.350561 
Q 1.273181 -0.256976 1.575415 -0.669671 
Q 2.049477 -1.31096 2.634001 -1.617797 
Q 3.218525 -1.924633 3.958002 -1.924633 
Q 4.873909 -1.924633 5.436955 -1.353917 
Q 6 -0.784735 6 0.135775 
Q 6 0.773996 5.81283 1.407613 
Q 5.625659 2.039697 5.323425 2.456995 
Q 4.853965 3.099818 4.269441 3.406655 
Q 3.684917 3.713491 2.936235 3.713491 
z
M 1.810145 1.511938 
Q 1.810145 2.240675 2.113913 2.602742 
Q 2.419216 2.96481 3.037492 2.96481 
Q 3.92425 2.96481 4.505705 2.191581 
Q 5.088695 1.416818 5.088695 0.227826 
Q 5.088695 -0.467159 4.777256 -0.821555 
Q 4.465816 -1.177486 3.861348 -1.177486 
Q 3.362739 -1.177486 2.97459 -0.94429 
Q 2.586442 -0.712628 2.279605 -0.237031 
Q 2.05408 0.117365 1.931345 0.573018 
Q 1.810145 1.02867 1.810145 1.511938 
z
" style="stroke: #a18aa5; stroke-opacity: 0.75"/>
    </defs>
    <g clip-path="url(#p5cf0a8e259)">
     <use xlink:href="#mee3e46a880" x="513.985441" y="68.225591" style="fill: #a18aa5; fill-opacity: 0.75; stroke: #a18aa5; stroke-opacity: 0.75"/>
     <use xlink:href="#mee3e46a880" x="588.337648" y="98.37926" style="fill: #a18aa5; fill-opacity: 0.75; stroke: #a18aa5; stroke-opacity: 0.75"/>
     <use xlink:href="#mee3e46a880" x="662.689855" y="99.153959" style="fill: #a18aa5; fill-opacity: 0.75; stroke: #a18aa5; stroke-opacity: 0.75"/>
     <use xlink:href="#mee3e46a880" x="737.042062" y="91.943299" style="fill: #a18aa5; fill-opacity: 0.75; stroke: #a18aa5; stroke-opacity: 0.75"/>
     <use xlink:href="#mee3e46a880" x="811.394269" y="98.498445" style="fill: #a18aa5; fill-opacity: 0.75; stroke: #a18aa5; stroke-opacity: 0.75"/>
    </g>
   </g>
   <g id="line2d_31">
    <path d="M 513.985441 110.11893 
L 588.337648 127.75823 
L 662.689855 156.06454 
L 737.042062 136.518288 
L 811.394269 136.04155 
" clip-path="url(#p5cf0a8e259)" style="fill: none; stroke-dasharray: 7.5,15; stroke-dashoffset: 0; stroke: #3b3657; stroke-opacity: 0.75; stroke-width: 1.5"/>
    <defs>
     <path id="me41154664e" d="M 1.620549 -2.582923 
L 1.448354 -1.688317 
Q 1.044772 -2.095935 0.592761 -2.29369 
Q 0.140749 -2.491445 -0.385252 -2.491445 
Q -1.103628 -2.491445 -1.648463 -2.14571 
Q -2.191954 -1.80132 -2.587464 -1.095052 
Q -2.840375 -0.641695 -2.973557 -0.134527 
Q -3.105394 0.372641 -3.105394 0.885189 
Q -3.105394 1.742128 -2.661454 2.192794 
Q -2.217514 2.642115 -1.372683 2.642115 
Q -0.788834 2.642115 -0.250725 2.455123 
Q 0.287384 2.26813 0.795897 1.894144 
L 0.599487 2.899063 
Q 0.099046 3.112961 -0.412158 3.221928 
Q -0.923361 3.33224 -1.43591 3.33224 
Q -2.64262 3.33224 -3.321983 2.677093 
Q -4 2.020599 -4 0.851558 
Q -4 0.103586 -3.741708 -0.618825 
Q -3.483415 -1.342582 -2.999117 -1.939883 
Q -2.486568 -2.574852 -1.82873 -2.877538 
Q -1.170892 -3.180224 -0.296464 -3.180224 
Q 0.241645 -3.180224 0.723252 -3.030899 
Q 1.20486 -2.881574 1.620549 -2.582923 
z
M 3.226468 -3.33224 
L 4 -3.33224 
L 2.726027 3.20982 
L 1.952495 3.20982 
L 3.226468 -3.33224 
z
" style="stroke: #3b3657; stroke-opacity: 0.75"/>
    </defs>
    <g clip-path="url(#p5cf0a8e259)">
     <use xlink:href="#me41154664e" x="513.985441" y="110.11893" style="fill: #3b3657; fill-opacity: 0.75; stroke: #3b3657; stroke-opacity: 0.75"/>
     <use xlink:href="#me41154664e" x="588.337648" y="127.75823" style="fill: #3b3657; fill-opacity: 0.75; stroke: #3b3657; stroke-opacity: 0.75"/>
     <use xlink:href="#me41154664e" x="662.689855" y="156.06454" style="fill: #3b3657; fill-opacity: 0.75; stroke: #3b3657; stroke-opacity: 0.75"/>
     <use xlink:href="#me41154664e" x="737.042062" y="136.518288" style="fill: #3b3657; fill-opacity: 0.75; stroke: #3b3657; stroke-opacity: 0.75"/>
     <use xlink:href="#me41154664e" x="811.394269" y="136.04155" style="fill: #3b3657; fill-opacity: 0.75; stroke: #3b3657; stroke-opacity: 0.75"/>
    </g>
   </g>
   <g id="line2d_32">
    <path d="M 513.985441 107.616056 
L 588.337648 94.684542 
L 662.689855 107.556464 
L 737.042062 102.848677 
L 811.394269 100.464988 
" clip-path="url(#p5cf0a8e259)" style="fill: none; stroke-dasharray: 7.5,15; stroke-dashoffset: 0; stroke: #a18aa5; stroke-opacity: 0.75; stroke-width: 1.5"/>
    <defs>
     <path id="ma86f325154" d="M 1.620549 -2.582923 
L 1.448354 -1.688317 
Q 1.044772 -2.095935 0.592761 -2.29369 
Q 0.140749 -2.491445 -0.385252 -2.491445 
Q -1.103628 -2.491445 -1.648463 -2.14571 
Q -2.191954 -1.80132 -2.587464 -1.095052 
Q -2.840375 -0.641695 -2.973557 -0.134527 
Q -3.105394 0.372641 -3.105394 0.885189 
Q -3.105394 1.742128 -2.661454 2.192794 
Q -2.217514 2.642115 -1.372683 2.642115 
Q -0.788834 2.642115 -0.250725 2.455123 
Q 0.287384 2.26813 0.795897 1.894144 
L 0.599487 2.899063 
Q 0.099046 3.112961 -0.412158 3.221928 
Q -0.923361 3.33224 -1.43591 3.33224 
Q -2.64262 3.33224 -3.321983 2.677093 
Q -4 2.020599 -4 0.851558 
Q -4 0.103586 -3.741708 -0.618825 
Q -3.483415 -1.342582 -2.999117 -1.939883 
Q -2.486568 -2.574852 -1.82873 -2.877538 
Q -1.170892 -3.180224 -0.296464 -3.180224 
Q 0.241645 -3.180224 0.723252 -3.030899 
Q 1.20486 -2.881574 1.620549 -2.582923 
z
M 3.226468 -3.33224 
L 4 -3.33224 
L 2.726027 3.20982 
L 1.952495 3.20982 
L 3.226468 -3.33224 
z
" style="stroke: #a18aa5; stroke-opacity: 0.75"/>
    </defs>
    <g clip-path="url(#p5cf0a8e259)">
     <use xlink:href="#ma86f325154" x="513.985441" y="107.616056" style="fill: #a18aa5; fill-opacity: 0.75; stroke: #a18aa5; stroke-opacity: 0.75"/>
     <use xlink:href="#ma86f325154" x="588.337648" y="94.684542" style="fill: #a18aa5; fill-opacity: 0.75; stroke: #a18aa5; stroke-opacity: 0.75"/>
     <use xlink:href="#ma86f325154" x="662.689855" y="107.556464" style="fill: #a18aa5; fill-opacity: 0.75; stroke: #a18aa5; stroke-opacity: 0.75"/>
     <use xlink:href="#ma86f325154" x="737.042062" y="102.848677" style="fill: #a18aa5; fill-opacity: 0.75; stroke: #a18aa5; stroke-opacity: 0.75"/>
     <use xlink:href="#ma86f325154" x="811.394269" y="100.464988" style="fill: #a18aa5; fill-opacity: 0.75; stroke: #a18aa5; stroke-opacity: 0.75"/>
    </g>
   </g>
   <g id="line2d_33">
    <path d="M 513.985441 255.821935 
L 588.337648 271.077546 
L 662.689855 270.004886 
L 737.042062 271.196731 
L 811.394269 270.36244 
" clip-path="url(#p5cf0a8e259)" style="fill: none; stroke-dasharray: 7.5,15; stroke-dashoffset: 0; stroke: #3b3657; stroke-opacity: 0.75; stroke-width: 1.5"/>
    <defs>
     <path id="md142afcbdd" d="M 3.452179 -3.266267 
L 3.240653 -2.167321 
Q 2.744887 -2.668044 2.18963 -2.910969 
Q 1.634373 -3.153894 0.988226 -3.153894 
Q 0.105763 -3.153894 -0.56352 -2.729188 
Q -1.231151 -2.306135 -1.717001 -1.438546 
Q -2.02768 -0.881636 -2.191283 -0.258624 
Q -2.353233 0.364388 -2.353233 0.99401 
Q -2.353233 2.046685 -1.807891 2.600289 
Q -1.262549 3.152241 -0.224747 3.152241 
Q 0.49246 3.152241 1.153481 2.922537 
Q 1.814501 2.692832 2.439165 2.233423 
L 2.197893 3.467879 
Q 1.583144 3.730634 0.955175 3.864491 
Q 0.327205 4 -0.302417 4 
Q -1.784755 4 -2.619294 3.195208 
Q -3.452179 2.388763 -3.452179 0.952696 
Q -3.452179 0.033877 -3.134889 -0.853543 
Q -2.8176 -1.742615 -2.222681 -2.476348 
Q -1.593059 -3.256352 -0.784962 -3.628176 
Q 0.023136 -4 1.097294 -4 
Q 1.758314 -4 2.349928 -3.816567 
Q 2.941541 -3.633134 3.452179 -3.266267 
z
" style="stroke: #3b3657; stroke-opacity: 0.75"/>
    </defs>
    <g clip-path="url(#p5cf0a8e259)">
     <use xlink:href="#md142afcbdd" x="513.985441" y="255.821935" style="fill: #3b3657; fill-opacity: 0.75; stroke: #3b3657; stroke-opacity: 0.75"/>
     <use xlink:href="#md142afcbdd" x="588.337648" y="271.077546" style="fill: #3b3657; fill-opacity: 0.75; stroke: #3b3657; stroke-opacity: 0.75"/>
     <use xlink:href="#md142afcbdd" x="662.689855" y="270.004886" style="fill: #3b3657; fill-opacity: 0.75; stroke: #3b3657; stroke-opacity: 0.75"/>
     <use xlink:href="#md142afcbdd" x="737.042062" y="271.196731" style="fill: #3b3657; fill-opacity: 0.75; stroke: #3b3657; stroke-opacity: 0.75"/>
     <use xlink:href="#md142afcbdd" x="811.394269" y="270.36244" style="fill: #3b3657; fill-opacity: 0.75; stroke: #3b3657; stroke-opacity: 0.75"/>
    </g>
   </g>
   <g id="line2d_34">
    <path d="M 513.985441 257.01378 
L 588.337648 266.965682 
L 662.689855 265.058731 
L 737.042062 265.2971 
L 811.394269 266.190983 
" clip-path="url(#p5cf0a8e259)" style="fill: none; stroke-dasharray: 7.5,15; stroke-dashoffset: 0; stroke: #a18aa5; stroke-opacity: 0.75; stroke-width: 1.5"/>
    <defs>
     <path id="mbbca02087f" d="M 3.452179 -3.266267 
L 3.240653 -2.167321 
Q 2.744887 -2.668044 2.18963 -2.910969 
Q 1.634373 -3.153894 0.988226 -3.153894 
Q 0.105763 -3.153894 -0.56352 -2.729188 
Q -1.231151 -2.306135 -1.717001 -1.438546 
Q -2.02768 -0.881636 -2.191283 -0.258624 
Q -2.353233 0.364388 -2.353233 0.99401 
Q -2.353233 2.046685 -1.807891 2.600289 
Q -1.262549 3.152241 -0.224747 3.152241 
Q 0.49246 3.152241 1.153481 2.922537 
Q 1.814501 2.692832 2.439165 2.233423 
L 2.197893 3.467879 
Q 1.583144 3.730634 0.955175 3.864491 
Q 0.327205 4 -0.302417 4 
Q -1.784755 4 -2.619294 3.195208 
Q -3.452179 2.388763 -3.452179 0.952696 
Q -3.452179 0.033877 -3.134889 -0.853543 
Q -2.8176 -1.742615 -2.222681 -2.476348 
Q -1.593059 -3.256352 -0.784962 -3.628176 
Q 0.023136 -4 1.097294 -4 
Q 1.758314 -4 2.349928 -3.816567 
Q 2.941541 -3.633134 3.452179 -3.266267 
z
" style="stroke: #a18aa5; stroke-opacity: 0.75"/>
    </defs>
    <g clip-path="url(#p5cf0a8e259)">
     <use xlink:href="#mbbca02087f" x="513.985441" y="257.01378" style="fill: #a18aa5; fill-opacity: 0.75; stroke: #a18aa5; stroke-opacity: 0.75"/>
     <use xlink:href="#mbbca02087f" x="588.337648" y="266.965682" style="fill: #a18aa5; fill-opacity: 0.75; stroke: #a18aa5; stroke-opacity: 0.75"/>
     <use xlink:href="#mbbca02087f" x="662.689855" y="265.058731" style="fill: #a18aa5; fill-opacity: 0.75; stroke: #a18aa5; stroke-opacity: 0.75"/>
     <use xlink:href="#mbbca02087f" x="737.042062" y="265.2971" style="fill: #a18aa5; fill-opacity: 0.75; stroke: #a18aa5; stroke-opacity: 0.75"/>
     <use xlink:href="#mbbca02087f" x="811.394269" y="266.190983" style="fill: #a18aa5; fill-opacity: 0.75; stroke: #a18aa5; stroke-opacity: 0.75"/>
    </g>
   </g>
   <g id="line2d_35">
    <path d="M 513.985441 166.671957 
L 588.337648 204.036286 
L 662.689855 206.777529 
L 737.042062 211.6045 
L 811.394269 221.794771 
" clip-path="url(#p5cf0a8e259)" style="fill: none; stroke-dasharray: 7.5,15; stroke-dashoffset: 0; stroke: #3b3657; stroke-opacity: 0.75; stroke-width: 1.5"/>
    <defs>
     <path id="m7c39b513ef" d="M -2.251179 -4 
L -0.793828 -4 
L 1.414488 2.858123 
L 2.753536 -4 
L 3.809687 -4 
L 2.249464 4 
L 0.78697 4 
L -1.414488 -2.900986 
L -2.753536 4 
L -3.809687 4 
L -2.251179 -4 
z
" style="stroke: #3b3657; stroke-opacity: 0.75"/>
    </defs>
    <g clip-path="url(#p5cf0a8e259)">
     <use xlink:href="#m7c39b513ef" x="513.985441" y="166.671957" style="fill: #3b3657; fill-opacity: 0.75; stroke: #3b3657; stroke-opacity: 0.75"/>
     <use xlink:href="#m7c39b513ef" x="588.337648" y="204.036286" style="fill: #3b3657; fill-opacity: 0.75; stroke: #3b3657; stroke-opacity: 0.75"/>
     <use xlink:href="#m7c39b513ef" x="662.689855" y="206.777529" style="fill: #3b3657; fill-opacity: 0.75; stroke: #3b3657; stroke-opacity: 0.75"/>
     <use xlink:href="#m7c39b513ef" x="737.042062" y="211.6045" style="fill: #3b3657; fill-opacity: 0.75; stroke: #3b3657; stroke-opacity: 0.75"/>
     <use xlink:href="#m7c39b513ef" x="811.394269" y="221.794771" style="fill: #3b3657; fill-opacity: 0.75; stroke: #3b3657; stroke-opacity: 0.75"/>
    </g>
   </g>
   <g id="line2d_36">
    <path d="M 513.985441 177.100598 
L 588.337648 196.527665 
L 662.689855 193.905607 
L 737.042062 188.721083 
L 811.394269 200.818306 
" clip-path="url(#p5cf0a8e259)" style="fill: none; stroke-dasharray: 7.5,15; stroke-dashoffset: 0; stroke: #a18aa5; stroke-opacity: 0.75; stroke-width: 1.5"/>
    <defs>
     <path id="m98095f3e4e" d="M -2.251179 -4 
L -0.793828 -4 
L 1.414488 2.858123 
L 2.753536 -4 
L 3.809687 -4 
L 2.249464 4 
L 0.78697 4 
L -1.414488 -2.900986 
L -2.753536 4 
L -3.809687 4 
L -2.251179 -4 
z
" style="stroke: #a18aa5; stroke-opacity: 0.75"/>
    </defs>
    <g clip-path="url(#p5cf0a8e259)">
     <use xlink:href="#m98095f3e4e" x="513.985441" y="177.100598" style="fill: #a18aa5; fill-opacity: 0.75; stroke: #a18aa5; stroke-opacity: 0.75"/>
     <use xlink:href="#m98095f3e4e" x="588.337648" y="196.527665" style="fill: #a18aa5; fill-opacity: 0.75; stroke: #a18aa5; stroke-opacity: 0.75"/>
     <use xlink:href="#m98095f3e4e" x="662.689855" y="193.905607" style="fill: #a18aa5; fill-opacity: 0.75; stroke: #a18aa5; stroke-opacity: 0.75"/>
     <use xlink:href="#m98095f3e4e" x="737.042062" y="188.721083" style="fill: #a18aa5; fill-opacity: 0.75; stroke: #a18aa5; stroke-opacity: 0.75"/>
     <use xlink:href="#m98095f3e4e" x="811.394269" y="200.818306" style="fill: #a18aa5; fill-opacity: 0.75; stroke: #a18aa5; stroke-opacity: 0.75"/>
    </g>
   </g>
   <g id="line2d_37">
    <path d="M 513.985441 264.105255 
L 588.337648 284.604983 
L 662.689855 284.247429 
L 737.042062 283.234362 
L 811.394269 281.982925 
" clip-path="url(#p5cf0a8e259)" style="fill: none; stroke-dasharray: 7.5,15; stroke-dashoffset: 0; stroke: #3b3657; stroke-opacity: 0.75; stroke-width: 1.5"/>
    <defs>
     <path id="md8872c8a05" d="M 0.661847 -3.153894 
Q -0.195827 -3.153894 -0.85189 -2.737451 
Q -1.507953 -2.321008 -1.99215 -1.469944 
Q -2.30283 -0.927907 -2.466433 -0.318116 
Q -2.628383 0.291675 -2.628383 0.911382 
Q -2.628383 1.98554 -2.114439 2.568891 
Q -1.600496 3.152241 -0.660194 3.152241 
Q 0.185912 3.152241 0.848585 2.732493 
Q 1.512911 2.311093 1.983888 1.47986 
Q 2.297872 0.921297 2.463127 0.309853 
Q 2.628383 -0.303243 2.628383 -0.911382 
Q 2.628383 -1.980583 2.111134 -2.567238 
Q 1.595538 -3.153894 0.661847 -3.153894 
z
M -0.691593 4 
Q -2.111134 4 -2.925842 3.158851 
Q -3.738897 2.31605 -3.738897 0.853543 
Q -3.738897 0.017352 -3.421607 -0.855195 
Q -3.102665 -1.727742 -2.545755 -2.410246 
Q -1.889692 -3.210081 -1.0849 -3.60504 
Q -0.278455 -4 0.693245 -4 
Q 2.107829 -4 2.922537 -3.165462 
Q 3.738897 -2.332576 3.738897 -0.891551 
Q 3.738897 -0.002479 3.428217 0.855195 
Q 3.11919 1.711217 2.540797 2.408593 
Q 1.879777 3.215038 1.081595 3.608345 
Q 0.285065 4 -0.691593 4 
z
" style="stroke: #3b3657; stroke-opacity: 0.75"/>
    </defs>
    <g clip-path="url(#p5cf0a8e259)">
     <use xlink:href="#md8872c8a05" x="513.985441" y="264.105255" style="fill: #3b3657; fill-opacity: 0.75; stroke: #3b3657; stroke-opacity: 0.75"/>
     <use xlink:href="#md8872c8a05" x="588.337648" y="284.604983" style="fill: #3b3657; fill-opacity: 0.75; stroke: #3b3657; stroke-opacity: 0.75"/>
     <use xlink:href="#md8872c8a05" x="662.689855" y="284.247429" style="fill: #3b3657; fill-opacity: 0.75; stroke: #3b3657; stroke-opacity: 0.75"/>
     <use xlink:href="#md8872c8a05" x="737.042062" y="283.234362" style="fill: #3b3657; fill-opacity: 0.75; stroke: #3b3657; stroke-opacity: 0.75"/>
     <use xlink:href="#md8872c8a05" x="811.394269" y="281.982925" style="fill: #3b3657; fill-opacity: 0.75; stroke: #3b3657; stroke-opacity: 0.75"/>
    </g>
   </g>
   <g id="line2d_38">
    <path d="M 513.985441 267.084867 
L 588.337648 275.487371 
L 662.689855 272.865313 
L 737.042062 274.891449 
L 811.394269 275.606556 
" clip-path="url(#p5cf0a8e259)" style="fill: none; stroke-dasharray: 7.5,15; stroke-dashoffset: 0; stroke: #a18aa5; stroke-opacity: 0.75; stroke-width: 1.5"/>
    <defs>
     <path id="m18a1371080" d="M 0.661847 -3.153894 
Q -0.195827 -3.153894 -0.85189 -2.737451 
Q -1.507953 -2.321008 -1.99215 -1.469944 
Q -2.30283 -0.927907 -2.466433 -0.318116 
Q -2.628383 0.291675 -2.628383 0.911382 
Q -2.628383 1.98554 -2.114439 2.568891 
Q -1.600496 3.152241 -0.660194 3.152241 
Q 0.185912 3.152241 0.848585 2.732493 
Q 1.512911 2.311093 1.983888 1.47986 
Q 2.297872 0.921297 2.463127 0.309853 
Q 2.628383 -0.303243 2.628383 -0.911382 
Q 2.628383 -1.980583 2.111134 -2.567238 
Q 1.595538 -3.153894 0.661847 -3.153894 
z
M -0.691593 4 
Q -2.111134 4 -2.925842 3.158851 
Q -3.738897 2.31605 -3.738897 0.853543 
Q -3.738897 0.017352 -3.421607 -0.855195 
Q -3.102665 -1.727742 -2.545755 -2.410246 
Q -1.889692 -3.210081 -1.0849 -3.60504 
Q -0.278455 -4 0.693245 -4 
Q 2.107829 -4 2.922537 -3.165462 
Q 3.738897 -2.332576 3.738897 -0.891551 
Q 3.738897 -0.002479 3.428217 0.855195 
Q 3.11919 1.711217 2.540797 2.408593 
Q 1.879777 3.215038 1.081595 3.608345 
Q 0.285065 4 -0.691593 4 
z
" style="stroke: #a18aa5; stroke-opacity: 0.75"/>
    </defs>
    <g clip-path="url(#p5cf0a8e259)">
     <use xlink:href="#m18a1371080" x="513.985441" y="267.084867" style="fill: #a18aa5; fill-opacity: 0.75; stroke: #a18aa5; stroke-opacity: 0.75"/>
     <use xlink:href="#m18a1371080" x="588.337648" y="275.487371" style="fill: #a18aa5; fill-opacity: 0.75; stroke: #a18aa5; stroke-opacity: 0.75"/>
     <use xlink:href="#m18a1371080" x="662.689855" y="272.865313" style="fill: #a18aa5; fill-opacity: 0.75; stroke: #a18aa5; stroke-opacity: 0.75"/>
     <use xlink:href="#m18a1371080" x="737.042062" y="274.891449" style="fill: #a18aa5; fill-opacity: 0.75; stroke: #a18aa5; stroke-opacity: 0.75"/>
     <use xlink:href="#m18a1371080" x="811.394269" y="275.606556" style="fill: #a18aa5; fill-opacity: 0.75; stroke: #a18aa5; stroke-opacity: 0.75"/>
    </g>
   </g>
   <g id="line2d_39">
    <path d="M 513.985441 261.900343 
L 588.337648 281.86374 
L 662.689855 279.003313 
L 737.042062 278.288206 
L 811.394269 278.049837 
" clip-path="url(#p5cf0a8e259)" style="fill: none; stroke-dasharray: 7.5,15; stroke-dashoffset: 0; stroke: #3b3657; stroke-opacity: 0.75; stroke-width: 1.5"/>
    <defs>
     <path id="m869ffa4b65" d="M -2.27261 -4 
L -1.183883 -4 
L -1.821689 -0.720103 
L 2.104586 -0.720103 
L 2.742392 -4 
L 3.831119 -4 
L 2.270896 4 
L 1.183883 4 
L 1.92799 0.190313 
L -1.998285 0.190313 
L -2.744106 4 
L -3.831119 4 
L -2.27261 -4 
z
" style="stroke: #3b3657; stroke-opacity: 0.75"/>
    </defs>
    <g clip-path="url(#p5cf0a8e259)">
     <use xlink:href="#m869ffa4b65" x="513.985441" y="261.900343" style="fill: #3b3657; fill-opacity: 0.75; stroke: #3b3657; stroke-opacity: 0.75"/>
     <use xlink:href="#m869ffa4b65" x="588.337648" y="281.86374" style="fill: #3b3657; fill-opacity: 0.75; stroke: #3b3657; stroke-opacity: 0.75"/>
     <use xlink:href="#m869ffa4b65" x="662.689855" y="279.003313" style="fill: #3b3657; fill-opacity: 0.75; stroke: #3b3657; stroke-opacity: 0.75"/>
     <use xlink:href="#m869ffa4b65" x="737.042062" y="278.288206" style="fill: #3b3657; fill-opacity: 0.75; stroke: #3b3657; stroke-opacity: 0.75"/>
     <use xlink:href="#m869ffa4b65" x="811.394269" y="278.049837" style="fill: #3b3657; fill-opacity: 0.75; stroke: #3b3657; stroke-opacity: 0.75"/>
    </g>
   </g>
   <g id="line2d_40">
    <path d="M 513.985441 259.933799 
L 588.337648 269.766517 
L 662.689855 269.349372 
L 737.042062 269.587741 
L 811.394269 271.017954 
" clip-path="url(#p5cf0a8e259)" style="fill: none; stroke-dasharray: 7.5,15; stroke-dashoffset: 0; stroke: #a18aa5; stroke-opacity: 0.75; stroke-width: 1.5"/>
    <defs>
     <path id="m5ecd8b3523" d="M -2.27261 -4 
L -1.183883 -4 
L -1.821689 -0.720103 
L 2.104586 -0.720103 
L 2.742392 -4 
L 3.831119 -4 
L 2.270896 4 
L 1.183883 4 
L 1.92799 0.190313 
L -1.998285 0.190313 
L -2.744106 4 
L -3.831119 4 
L -2.27261 -4 
z
" style="stroke: #a18aa5; stroke-opacity: 0.75"/>
    </defs>
    <g clip-path="url(#p5cf0a8e259)">
     <use xlink:href="#m5ecd8b3523" x="513.985441" y="259.933799" style="fill: #a18aa5; fill-opacity: 0.75; stroke: #a18aa5; stroke-opacity: 0.75"/>
     <use xlink:href="#m5ecd8b3523" x="588.337648" y="269.766517" style="fill: #a18aa5; fill-opacity: 0.75; stroke: #a18aa5; stroke-opacity: 0.75"/>
     <use xlink:href="#m5ecd8b3523" x="662.689855" y="269.349372" style="fill: #a18aa5; fill-opacity: 0.75; stroke: #a18aa5; stroke-opacity: 0.75"/>
     <use xlink:href="#m5ecd8b3523" x="737.042062" y="269.587741" style="fill: #a18aa5; fill-opacity: 0.75; stroke: #a18aa5; stroke-opacity: 0.75"/>
     <use xlink:href="#m5ecd8b3523" x="811.394269" y="271.017954" style="fill: #a18aa5; fill-opacity: 0.75; stroke: #a18aa5; stroke-opacity: 0.75"/>
    </g>
   </g>
   <g id="patch_9">
    <path d="M 499.115 296.44 
L 499.115 25.2 
" style="fill: none; stroke: #000000; stroke-width: 3; stroke-linejoin: miter; stroke-linecap: square"/>
   </g>
   <g id="patch_10">
    <path d="M 826.264711 296.44 
L 826.264711 25.2 
" style="fill: none; stroke: #000000; stroke-width: 3; stroke-linejoin: miter; stroke-linecap: square"/>
   </g>
   <g id="patch_11">
    <path d="M 499.115 296.44 
L 826.264711 296.44 
" style="fill: none; stroke: #000000; stroke-width: 3; stroke-linejoin: miter; stroke-linecap: square"/>
   </g>
   <g id="patch_12">
    <path d="M 499.115 25.2 
L 826.264711 25.2 
" style="fill: none; stroke: #000000; stroke-width: 3; stroke-linejoin: miter; stroke-linecap: square"/>
   </g>
   <g id="legend_2">
    <g id="patch_13">
     <path d="M 598.382043 92.44125 
L 726.997668 92.44125 
Q 730.597668 92.44125 730.597668 88.84125 
L 730.597668 37.8 
Q 730.597668 34.2 726.997668 34.2 
L 598.382043 34.2 
Q 594.782043 34.2 594.782043 37.8 
L 594.782043 88.84125 
Q 594.782043 92.44125 598.382043 92.44125 
z
" style="fill: #ffffff; opacity: 0.8; stroke: #cccccc; stroke-linejoin: miter"/>
    </g>
    <g id="line2d_41">
     <path d="M 601.982043 48.777188 
L 619.982043 48.777188 
L 637.982043 48.777188 
" style="fill: none; stroke-dasharray: 7.5,15; stroke-dashoffset: 0; stroke: #a18aa5; stroke-width: 1.5"/>
    </g>
    <g id="text_29">
     <!-- Naive -->
     <g transform="translate(652.382043 55.077188) scale(0.18 -0.18)">
      <use xlink:href="#DejaVuSans-4e"/>
      <use xlink:href="#DejaVuSans-61" transform="translate(74.804688 0)"/>
      <use xlink:href="#DejaVuSans-69" transform="translate(136.083984 0)"/>
      <use xlink:href="#DejaVuSans-76" transform="translate(163.867188 0)"/>
      <use xlink:href="#DejaVuSans-65" transform="translate(223.046875 0)"/>
     </g>
    </g>
    <g id="line2d_42">
     <path d="M 601.982043 75.197813 
L 619.982043 75.197813 
L 637.982043 75.197813 
" style="fill: none; stroke-dasharray: 7.5,15; stroke-dashoffset: 0; stroke: #3b3657; stroke-width: 1.5"/>
    </g>
    <g id="text_30">
     <!-- Periodic -->
     <g transform="translate(652.382043 81.497813) scale(0.18 -0.18)">
      <use xlink:href="#DejaVuSans-50"/>
      <use xlink:href="#DejaVuSans-65" transform="translate(56.677734 0)"/>
      <use xlink:href="#DejaVuSans-72" transform="translate(118.201172 0)"/>
      <use xlink:href="#DejaVuSans-69" transform="translate(159.314453 0)"/>
      <use xlink:href="#DejaVuSans-6f" transform="translate(187.097656 0)"/>
      <use xlink:href="#DejaVuSans-64" transform="translate(248.279297 0)"/>
      <use xlink:href="#DejaVuSans-69" transform="translate(311.755859 0)"/>
      <use xlink:href="#DejaVuSans-63" transform="translate(339.539062 0)"/>
     </g>
    </g>
   </g>
  </g>
 </g>
 <defs>
  <clipPath id="pf3cf9d5a85">
   <rect x="83.99" y="25.2" width="327.149711" height="271.24"/>
  </clipPath>
  <clipPath id="p5cf0a8e259">
   <rect x="499.115" y="25.2" width="327.149711" height="271.24"/>
  </clipPath>
 </defs>
</svg>
