<?xml version="1.0" encoding="utf-8" standalone="no"?>
<!DOCTYPE svg PUBLIC "-//W3C//DTD SVG 1.1//EN"
  "http://www.w3.org/Graphics/SVG/1.1/DTD/svg11.dtd">
<svg xmlns:xlink="http://www.w3.org/1999/xlink" width="432pt" height="360pt" viewBox="0 0 432 360" xmlns="http://www.w3.org/2000/svg" version="1.1">
 <metadata>
  <rdf:RDF xmlns:dc="http://purl.org/dc/elements/1.1/" xmlns:cc="http://creativecommons.org/ns#" xmlns:rdf="http://www.w3.org/1999/02/22-rdf-syntax-ns#">
   <cc:Work>
    <dc:type rdf:resource="http://purl.org/dc/dcmitype/StillImage"/>
    <dc:date>2025-12-07T11:59:14.778387</dc:date>
    <dc:format>image/svg+xml</dc:format>
    <dc:creator>
     <cc:Agent>
      <dc:title>Matplotlib v3.10.3, https://matplotlib.org/</dc:title>
     </cc:Agent>
    </dc:creator>
   </cc:Work>
  </rdf:RDF>
 </metadata>
 <defs>
  <style type="text/css">*{stroke-linejoin: round; stroke-linecap: butt}</style>
 </defs>
 <g id="figure_1">
  <g id="patch_1">
   <path d="M 0 360 
L 432 360 
L 432 0 
L 0 0 
z
" style="fill: #ffffff"/>
  </g>
  <g id="axes_1">
   <g id="patch_2">
    <path d="M 87.05 295 
L 400.635 295 
L 400.635 25.2 
L 87.05 25.2 
z
" style="fill: #ffffff"/>
   </g>
   <g id="PathCollection_1">
    <defs>
     <path id="mb8339ccae2" d="M 0 1.118034 
C 0.296506 1.118034 0.580908 1.000231 0.790569 0.790569 
C 1.000231 0.580908 1.118034 0.296506 1.118034 0 
C 1.118034 -0.296506 1.000231 -0.580908 0.790569 -0.790569 
C 0.580908 -1.000231 0.296506 -1.118034 0 -1.118034 
C -0.296506 -1.118034 -0.580908 -1.000231 -0.790569 -0.790569 
C -1.000231 -0.580908 -1.118034 -0.296506 -1.118034 0 
C -1.118034 0.296506 -1.000231 0.580908 -0.790569 0.790569 
C -0.580908 1.000231 -0.296506 1.118034 0 1.118034 
z
" style="stroke: #3b3657"/>
    </defs>
    <g clip-path="url(#pbd68488f8b)">
     <use xlink:href="#mb8339ccae2" x="148.509936" y="121.058681" style="fill: #3b3657; stroke: #3b3657"/>
     <use xlink:href="#mb8339ccae2" x="271.516086" y="197.00824" style="fill: #3b3657; stroke: #3b3657"/>
     <use xlink:href="#mb8339ccae2" x="149.018083" y="121.490388" style="fill: #3b3657; stroke: #3b3657"/>
     <use xlink:href="#mb8339ccae2" x="242.194958" y="188.833814" style="fill: #3b3657; stroke: #3b3657"/>
     <use xlink:href="#mb8339ccae2" x="237.83407" y="175.463074" style="fill: #3b3657; stroke: #3b3657"/>
     <use xlink:href="#mb8339ccae2" x="261.625394" y="171.894264" style="fill: #3b3657; stroke: #3b3657"/>
     <use xlink:href="#mb8339ccae2" x="289.557883" y="151.020587" style="fill: #3b3657; stroke: #3b3657"/>
     <use xlink:href="#mb8339ccae2" x="272.722188" y="178.734062" style="fill: #3b3657; stroke: #3b3657"/>
     <use xlink:href="#mb8339ccae2" x="253.173536" y="167.393087" style="fill: #3b3657; stroke: #3b3657"/>
     <use xlink:href="#mb8339ccae2" x="150.322403" y="122.779437" style="fill: #3b3657; stroke: #3b3657"/>
     <use xlink:href="#mb8339ccae2" x="267.887861" y="211.093977" style="fill: #3b3657; stroke: #3b3657"/>
     <use xlink:href="#mb8339ccae2" x="304.236536" y="211.39636" style="fill: #3b3657; stroke: #3b3657"/>
     <use xlink:href="#mb8339ccae2" x="279.307367" y="189.206221" style="fill: #3b3657; stroke: #3b3657"/>
     <use xlink:href="#mb8339ccae2" x="149.107244" y="120.884788" style="fill: #3b3657; stroke: #3b3657"/>
     <use xlink:href="#mb8339ccae2" x="261.336393" y="196.87438" style="fill: #3b3657; stroke: #3b3657"/>
     <use xlink:href="#mb8339ccae2" x="161.686706" y="127.754496" style="fill: #3b3657; stroke: #3b3657"/>
     <use xlink:href="#mb8339ccae2" x="287.050836" y="287.683691" style="fill: #3b3657; stroke: #3b3657"/>
     <use xlink:href="#mb8339ccae2" x="294.371926" y="165.574037" style="fill: #3b3657; stroke: #3b3657"/>
     <use xlink:href="#mb8339ccae2" x="148.540274" y="121.491422" style="fill: #3b3657; stroke: #3b3657"/>
     <use xlink:href="#mb8339ccae2" x="321.833319" y="311.52575" style="fill: #3b3657; stroke: #3b3657"/>
     <use xlink:href="#mb8339ccae2" x="209.615688" y="167.704729" style="fill: #3b3657; stroke: #3b3657"/>
     <use xlink:href="#mb8339ccae2" x="332.979208" y="317.323598" style="fill: #3b3657; stroke: #3b3657"/>
     <use xlink:href="#mb8339ccae2" x="282.251903" y="176.640138" style="fill: #3b3657; stroke: #3b3657"/>
     <use xlink:href="#mb8339ccae2" x="156.237087" y="126.603685" style="fill: #3b3657; stroke: #3b3657"/>
     <use xlink:href="#mb8339ccae2" x="302.141562" y="214.525796" style="fill: #3b3657; stroke: #3b3657"/>
     <use xlink:href="#mb8339ccae2" x="261.921046" y="165.813201" style="fill: #3b3657; stroke: #3b3657"/>
     <use xlink:href="#mb8339ccae2" x="321.616686" y="289.906606" style="fill: #3b3657; stroke: #3b3657"/>
     <use xlink:href="#mb8339ccae2" x="256.849949" y="199.575422" style="fill: #3b3657; stroke: #3b3657"/>
     <use xlink:href="#mb8339ccae2" x="159.94493" y="126.384998" style="fill: #3b3657; stroke: #3b3657"/>
     <use xlink:href="#mb8339ccae2" x="285.847573" y="205.717467" style="fill: #3b3657; stroke: #3b3657"/>
     <use xlink:href="#mb8339ccae2" x="239.72111" y="168.743941" style="fill: #3b3657; stroke: #3b3657"/>
     <use xlink:href="#mb8339ccae2" x="318.854685" y="291.286666" style="fill: #3b3657; stroke: #3b3657"/>
     <use xlink:href="#mb8339ccae2" x="259.42919" y="189.701057" style="fill: #3b3657; stroke: #3b3657"/>
     <use xlink:href="#mb8339ccae2" x="212.217211" y="166.756464" style="fill: #3b3657; stroke: #3b3657"/>
     <use xlink:href="#mb8339ccae2" x="290.56511" y="279.16821" style="fill: #3b3657; stroke: #3b3657"/>
     <use xlink:href="#mb8339ccae2" x="285.192885" y="205.703217" style="fill: #3b3657; stroke: #3b3657"/>
     <use xlink:href="#mb8339ccae2" x="244.176108" y="154.286987" style="fill: #3b3657; stroke: #3b3657"/>
     <use xlink:href="#mb8339ccae2" x="316.632018" y="307.180817" style="fill: #3b3657; stroke: #3b3657"/>
     <use xlink:href="#mb8339ccae2" x="153.600935" y="123.759778" style="fill: #3b3657; stroke: #3b3657"/>
     <use xlink:href="#mb8339ccae2" x="282.11146" y="314.561208" style="fill: #3b3657; stroke: #3b3657"/>
     <use xlink:href="#mb8339ccae2" x="283.598491" y="173.568672" style="fill: #3b3657; stroke: #3b3657"/>
     <use xlink:href="#mb8339ccae2" x="301.817167" y="205.795633" style="fill: #3b3657; stroke: #3b3657"/>
     <use xlink:href="#mb8339ccae2" x="146.822911" y="119.808888" style="fill: #3b3657; stroke: #3b3657"/>
     <use xlink:href="#mb8339ccae2" x="299.320224" y="294.506428" style="fill: #3b3657; stroke: #3b3657"/>
     <use xlink:href="#mb8339ccae2" x="253.919672" y="190.068041" style="fill: #3b3657; stroke: #3b3657"/>
     <use xlink:href="#mb8339ccae2" x="150.051771" y="123.36588" style="fill: #3b3657; stroke: #3b3657"/>
     <use xlink:href="#mb8339ccae2" x="299.538231" y="184.626908" style="fill: #3b3657; stroke: #3b3657"/>
     <use xlink:href="#mb8339ccae2" x="276.424941" y="196.783419" style="fill: #3b3657; stroke: #3b3657"/>
     <use xlink:href="#mb8339ccae2" x="298.637177" y="276.405446" style="fill: #3b3657; stroke: #3b3657"/>
     <use xlink:href="#mb8339ccae2" x="294.505711" y="204.417128" style="fill: #3b3657; stroke: #3b3657"/>
    </g>
   </g>
   <g id="PathCollection_2">
    <defs>
     <path id="m054aaa23d3" d="M 0 1.118034 
C 0.296506 1.118034 0.580908 1.000231 0.790569 0.790569 
C 1.000231 0.580908 1.118034 0.296506 1.118034 0 
C 1.118034 -0.296506 1.000231 -0.580908 0.790569 -0.790569 
C 0.580908 -1.000231 0.296506 -1.118034 0 -1.118034 
C -0.296506 -1.118034 -0.580908 -1.000231 -0.790569 -0.790569 
C -1.000231 -0.580908 -1.118034 -0.296506 -1.118034 0 
C -1.118034 0.296506 -1.000231 0.580908 -0.790569 0.790569 
C -0.580908 1.000231 -0.296506 1.118034 0 1.118034 
z
" style="stroke: #7e6e8a"/>
    </defs>
    <g clip-path="url(#pbd68488f8b)">
     <use xlink:href="#m054aaa23d3" x="220.857537" y="117.850454" style="fill: #7e6e8a; stroke: #7e6e8a"/>
     <use xlink:href="#m054aaa23d3" x="206.389449" y="139.110835" style="fill: #7e6e8a; stroke: #7e6e8a"/>
     <use xlink:href="#m054aaa23d3" x="214.759491" y="114.17652" style="fill: #7e6e8a; stroke: #7e6e8a"/>
     <use xlink:href="#m054aaa23d3" x="241.47249" y="114.211197" style="fill: #7e6e8a; stroke: #7e6e8a"/>
     <use xlink:href="#m054aaa23d3" x="233.197613" y="113.343365" style="fill: #7e6e8a; stroke: #7e6e8a"/>
     <use xlink:href="#m054aaa23d3" x="226.920718" y="105.181167" style="fill: #7e6e8a; stroke: #7e6e8a"/>
     <use xlink:href="#m054aaa23d3" x="231.240423" y="116.235435" style="fill: #7e6e8a; stroke: #7e6e8a"/>
     <use xlink:href="#m054aaa23d3" x="242.149914" y="123.127191" style="fill: #7e6e8a; stroke: #7e6e8a"/>
     <use xlink:href="#m054aaa23d3" x="220.563311" y="111.137574" style="fill: #7e6e8a; stroke: #7e6e8a"/>
     <use xlink:href="#m054aaa23d3" x="230.987428" y="110.745914" style="fill: #7e6e8a; stroke: #7e6e8a"/>
     <use xlink:href="#m054aaa23d3" x="210.764652" y="117.658859" style="fill: #7e6e8a; stroke: #7e6e8a"/>
     <use xlink:href="#m054aaa23d3" x="223.371158" y="109.39866" style="fill: #7e6e8a; stroke: #7e6e8a"/>
     <use xlink:href="#m054aaa23d3" x="266.608908" y="120.871115" style="fill: #7e6e8a; stroke: #7e6e8a"/>
     <use xlink:href="#m054aaa23d3" x="212.42707" y="113.261066" style="fill: #7e6e8a; stroke: #7e6e8a"/>
     <use xlink:href="#m054aaa23d3" x="204.16994" y="114.10055" style="fill: #7e6e8a; stroke: #7e6e8a"/>
     <use xlink:href="#m054aaa23d3" x="230.038646" y="124.430312" style="fill: #7e6e8a; stroke: #7e6e8a"/>
     <use xlink:href="#m054aaa23d3" x="194.20105" y="100.180054" style="fill: #7e6e8a; stroke: #7e6e8a"/>
     <use xlink:href="#m054aaa23d3" x="201.754809" y="109.123145" style="fill: #7e6e8a; stroke: #7e6e8a"/>
     <use xlink:href="#m054aaa23d3" x="207.379322" y="114.082165" style="fill: #7e6e8a; stroke: #7e6e8a"/>
     <use xlink:href="#m054aaa23d3" x="203.91214" y="113.710731" style="fill: #7e6e8a; stroke: #7e6e8a"/>
     <use xlink:href="#m054aaa23d3" x="222.377116" y="89.925236" style="fill: #7e6e8a; stroke: #7e6e8a"/>
     <use xlink:href="#m054aaa23d3" x="207.671671" y="100.096528" style="fill: #7e6e8a; stroke: #7e6e8a"/>
     <use xlink:href="#m054aaa23d3" x="208.186337" y="99.926985" style="fill: #7e6e8a; stroke: #7e6e8a"/>
     <use xlink:href="#m054aaa23d3" x="197.998302" y="109.8377" style="fill: #7e6e8a; stroke: #7e6e8a"/>
     <use xlink:href="#m054aaa23d3" x="209.760073" y="132.178015" style="fill: #7e6e8a; stroke: #7e6e8a"/>
     <use xlink:href="#m054aaa23d3" x="213.745991" y="95.239327" style="fill: #7e6e8a; stroke: #7e6e8a"/>
     <use xlink:href="#m054aaa23d3" x="212.83625" y="103.566479" style="fill: #7e6e8a; stroke: #7e6e8a"/>
     <use xlink:href="#m054aaa23d3" x="199.162516" y="85.118223" style="fill: #7e6e8a; stroke: #7e6e8a"/>
     <use xlink:href="#m054aaa23d3" x="204.146748" y="106.220503" style="fill: #7e6e8a; stroke: #7e6e8a"/>
     <use xlink:href="#m054aaa23d3" x="214.645021" y="105.508563" style="fill: #7e6e8a; stroke: #7e6e8a"/>
     <use xlink:href="#m054aaa23d3" x="196.85155" y="100.361215" style="fill: #7e6e8a; stroke: #7e6e8a"/>
     <use xlink:href="#m054aaa23d3" x="185.82589" y="85.190739" style="fill: #7e6e8a; stroke: #7e6e8a"/>
     <use xlink:href="#m054aaa23d3" x="182.133041" y="87.433321" style="fill: #7e6e8a; stroke: #7e6e8a"/>
     <use xlink:href="#m054aaa23d3" x="198.221689" y="105.335548" style="fill: #7e6e8a; stroke: #7e6e8a"/>
     <use xlink:href="#m054aaa23d3" x="237.812517" y="106.336981" style="fill: #7e6e8a; stroke: #7e6e8a"/>
     <use xlink:href="#m054aaa23d3" x="207.871525" y="114.133638" style="fill: #7e6e8a; stroke: #7e6e8a"/>
     <use xlink:href="#m054aaa23d3" x="223.629988" y="118.209282" style="fill: #7e6e8a; stroke: #7e6e8a"/>
     <use xlink:href="#m054aaa23d3" x="227.758693" y="144.85143" style="fill: #7e6e8a; stroke: #7e6e8a"/>
     <use xlink:href="#m054aaa23d3" x="252.812233" y="103.369585" style="fill: #7e6e8a; stroke: #7e6e8a"/>
     <use xlink:href="#m054aaa23d3" x="224.785934" y="119.836203" style="fill: #7e6e8a; stroke: #7e6e8a"/>
     <use xlink:href="#m054aaa23d3" x="216.426977" y="128.069936" style="fill: #7e6e8a; stroke: #7e6e8a"/>
     <use xlink:href="#m054aaa23d3" x="215.962455" y="146.342677" style="fill: #7e6e8a; stroke: #7e6e8a"/>
     <use xlink:href="#m054aaa23d3" x="247.955031" y="111.541696" style="fill: #7e6e8a; stroke: #7e6e8a"/>
     <use xlink:href="#m054aaa23d3" x="239.820426" y="108.696261" style="fill: #7e6e8a; stroke: #7e6e8a"/>
     <use xlink:href="#m054aaa23d3" x="214.507727" y="104.199591" style="fill: #7e6e8a; stroke: #7e6e8a"/>
     <use xlink:href="#m054aaa23d3" x="195.56846" y="111.517676" style="fill: #7e6e8a; stroke: #7e6e8a"/>
     <use xlink:href="#m054aaa23d3" x="208.311823" y="96.7018" style="fill: #7e6e8a; stroke: #7e6e8a"/>
     <use xlink:href="#m054aaa23d3" x="233.598751" y="103.055916" style="fill: #7e6e8a; stroke: #7e6e8a"/>
     <use xlink:href="#m054aaa23d3" x="222.980107" y="117.905255" style="fill: #7e6e8a; stroke: #7e6e8a"/>
     <use xlink:href="#m054aaa23d3" x="210.694331" y="113.133265" style="fill: #7e6e8a; stroke: #7e6e8a"/>
     <use xlink:href="#m054aaa23d3" x="205.397248" y="116.457083" style="fill: #7e6e8a; stroke: #7e6e8a"/>
     <use xlink:href="#m054aaa23d3" x="212.414379" y="100.529195" style="fill: #7e6e8a; stroke: #7e6e8a"/>
     <use xlink:href="#m054aaa23d3" x="241.991335" y="112.891856" style="fill: #7e6e8a; stroke: #7e6e8a"/>
     <use xlink:href="#m054aaa23d3" x="215.763191" y="106.247659" style="fill: #7e6e8a; stroke: #7e6e8a"/>
     <use xlink:href="#m054aaa23d3" x="197.442037" y="138.675984" style="fill: #7e6e8a; stroke: #7e6e8a"/>
    </g>
   </g>
   <g id="PathCollection_3">
    <defs>
     <path id="m9420505b90" d="M 0 1.118034 
C 0.296506 1.118034 0.580908 1.000231 0.790569 0.790569 
C 1.000231 0.580908 1.118034 0.296506 1.118034 0 
C 1.118034 -0.296506 1.000231 -0.580908 0.790569 -0.790569 
C 0.580908 -1.000231 0.296506 -1.118034 0 -1.118034 
C -0.296506 -1.118034 -0.580908 -1.000231 -0.790569 -0.790569 
C -1.000231 -0.580908 -1.118034 -0.296506 -1.118034 0 
C -1.118034 0.296506 -1.000231 0.580908 -0.790569 0.790569 
C -0.580908 1.000231 -0.296506 1.118034 0 1.118034 
z
" style="stroke: #e9c5dd"/>
    </defs>
    <g clip-path="url(#pbd68488f8b)">
     <use xlink:href="#m9420505b90" x="190.335162" y="133.156433" style="fill: #e9c5dd; stroke: #e9c5dd"/>
     <use xlink:href="#m9420505b90" x="192.562456" y="140.909432" style="fill: #e9c5dd; stroke: #e9c5dd"/>
     <use xlink:href="#m9420505b90" x="181.652012" y="134.290715" style="fill: #e9c5dd; stroke: #e9c5dd"/>
     <use xlink:href="#m9420505b90" x="165.068124" y="125.99859" style="fill: #e9c5dd; stroke: #e9c5dd"/>
     <use xlink:href="#m9420505b90" x="196.010594" y="136.582363" style="fill: #e9c5dd; stroke: #e9c5dd"/>
     <use xlink:href="#m9420505b90" x="194.747851" y="137.030756" style="fill: #e9c5dd; stroke: #e9c5dd"/>
     <use xlink:href="#m9420505b90" x="195.451595" y="137.452517" style="fill: #e9c5dd; stroke: #e9c5dd"/>
     <use xlink:href="#m9420505b90" x="196.979731" y="138.718087" style="fill: #e9c5dd; stroke: #e9c5dd"/>
     <use xlink:href="#m9420505b90" x="184.113461" y="138.223469" style="fill: #e9c5dd; stroke: #e9c5dd"/>
     <use xlink:href="#m9420505b90" x="202.735452" y="144.070842" style="fill: #e9c5dd; stroke: #e9c5dd"/>
     <use xlink:href="#m9420505b90" x="177.893766" y="128.969061" style="fill: #e9c5dd; stroke: #e9c5dd"/>
     <use xlink:href="#m9420505b90" x="182.1306" y="131.497523" style="fill: #e9c5dd; stroke: #e9c5dd"/>
     <use xlink:href="#m9420505b90" x="179.644874" y="126.560723" style="fill: #e9c5dd; stroke: #e9c5dd"/>
     <use xlink:href="#m9420505b90" x="204.248632" y="138.81292" style="fill: #e9c5dd; stroke: #e9c5dd"/>
     <use xlink:href="#m9420505b90" x="233.895283" y="156.814884" style="fill: #e9c5dd; stroke: #e9c5dd"/>
     <use xlink:href="#m9420505b90" x="229.542658" y="160.513168" style="fill: #e9c5dd; stroke: #e9c5dd"/>
     <use xlink:href="#m9420505b90" x="246.026633" y="168.810914" style="fill: #e9c5dd; stroke: #e9c5dd"/>
     <use xlink:href="#m9420505b90" x="235.889655" y="168.851727" style="fill: #e9c5dd; stroke: #e9c5dd"/>
     <use xlink:href="#m9420505b90" x="235.043953" y="165.49638" style="fill: #e9c5dd; stroke: #e9c5dd"/>
     <use xlink:href="#m9420505b90" x="204.150287" y="155.385657" style="fill: #e9c5dd; stroke: #e9c5dd"/>
     <use xlink:href="#m9420505b90" x="236.394325" y="159.070719" style="fill: #e9c5dd; stroke: #e9c5dd"/>
     <use xlink:href="#m9420505b90" x="211.667713" y="158.319773" style="fill: #e9c5dd; stroke: #e9c5dd"/>
     <use xlink:href="#m9420505b90" x="206.426572" y="145.397894" style="fill: #e9c5dd; stroke: #e9c5dd"/>
     <use xlink:href="#m9420505b90" x="230.188541" y="150.439932" style="fill: #e9c5dd; stroke: #e9c5dd"/>
     <use xlink:href="#m9420505b90" x="213.937699" y="156.609929" style="fill: #e9c5dd; stroke: #e9c5dd"/>
     <use xlink:href="#m9420505b90" x="193.322409" y="138.72501" style="fill: #e9c5dd; stroke: #e9c5dd"/>
     <use xlink:href="#m9420505b90" x="238.930175" y="166.503199" style="fill: #e9c5dd; stroke: #e9c5dd"/>
     <use xlink:href="#m9420505b90" x="220.905097" y="158.603014" style="fill: #e9c5dd; stroke: #e9c5dd"/>
     <use xlink:href="#m9420505b90" x="221.482189" y="159.395074" style="fill: #e9c5dd; stroke: #e9c5dd"/>
    </g>
   </g>
   <g id="matplotlib.axis_1">
    <g id="xtick_1">
     <g id="line2d_1">
      <defs>
       <path id="mcff046a9b1" d="M 0 0 
L 0 3.5 
" style="stroke: #000000; stroke-opacity: 0; stroke-width: 0.8"/>
      </defs>
      <g>
       <use xlink:href="#mcff046a9b1" x="87.05" y="295" style="fill-opacity: 0; stroke: #000000; stroke-opacity: 0; stroke-width: 0.8"/>
      </g>
     </g>
     <g id="text_1">
      <!-- −2.5 -->
      <g style="opacity: 0" transform="translate(68.837891 313.397656) scale(0.15 -0.15)">
       <defs>
        <path id="DejaVuSans-2212" d="M 678 2272 
L 4684 2272 
L 4684 1741 
L 678 1741 
L 678 2272 
z
" transform="scale(0.015625)"/>
        <path id="DejaVuSans-32" d="M 1228 531 
L 3431 531 
L 3431 0 
L 469 0 
L 469 531 
Q 828 903 1448 1529 
Q 2069 2156 2228 2338 
Q 2531 2678 2651 2914 
Q 2772 3150 2772 3378 
Q 2772 3750 2511 3984 
Q 2250 4219 1831 4219 
Q 1534 4219 1204 4116 
Q 875 4013 500 3803 
L 500 4441 
Q 881 4594 1212 4672 
Q 1544 4750 1819 4750 
Q 2544 4750 2975 4387 
Q 3406 4025 3406 3419 
Q 3406 3131 3298 2873 
Q 3191 2616 2906 2266 
Q 2828 2175 2409 1742 
Q 1991 1309 1228 531 
z
" transform="scale(0.015625)"/>
        <path id="DejaVuSans-2e" d="M 684 794 
L 1344 794 
L 1344 0 
L 684 0 
L 684 794 
z
" transform="scale(0.015625)"/>
        <path id="DejaVuSans-35" d="M 691 4666 
L 3169 4666 
L 3169 4134 
L 1269 4134 
L 1269 2991 
Q 1406 3038 1543 3061 
Q 1681 3084 1819 3084 
Q 2600 3084 3056 2656 
Q 3513 2228 3513 1497 
Q 3513 744 3044 326 
Q 2575 -91 1722 -91 
Q 1428 -91 1123 -41 
Q 819 9 494 109 
L 494 744 
Q 775 591 1075 516 
Q 1375 441 1709 441 
Q 2250 441 2565 725 
Q 2881 1009 2881 1497 
Q 2881 1984 2565 2268 
Q 2250 2553 1709 2553 
Q 1456 2553 1204 2497 
Q 953 2441 691 2322 
L 691 4666 
z
" transform="scale(0.015625)"/>
       </defs>
       <use xlink:href="#DejaVuSans-2212"/>
       <use xlink:href="#DejaVuSans-32" transform="translate(83.789062 0)"/>
       <use xlink:href="#DejaVuSans-2e" transform="translate(147.412109 0)"/>
       <use xlink:href="#DejaVuSans-35" transform="translate(179.199219 0)"/>
      </g>
     </g>
    </g>
    <g id="xtick_2">
     <g id="line2d_2">
      <g>
       <use xlink:href="#mcff046a9b1" x="149.767" y="295" style="fill-opacity: 0; stroke: #000000; stroke-opacity: 0; stroke-width: 0.8"/>
      </g>
     </g>
     <g id="text_2">
      <!-- −2.0 -->
      <g style="opacity: 0" transform="translate(131.554891 313.397656) scale(0.15 -0.15)">
       <defs>
        <path id="DejaVuSans-30" d="M 2034 4250 
Q 1547 4250 1301 3770 
Q 1056 3291 1056 2328 
Q 1056 1369 1301 889 
Q 1547 409 2034 409 
Q 2525 409 2770 889 
Q 3016 1369 3016 2328 
Q 3016 3291 2770 3770 
Q 2525 4250 2034 4250 
z
M 2034 4750 
Q 2819 4750 3233 4129 
Q 3647 3509 3647 2328 
Q 3647 1150 3233 529 
Q 2819 -91 2034 -91 
Q 1250 -91 836 529 
Q 422 1150 422 2328 
Q 422 3509 836 4129 
Q 1250 4750 2034 4750 
z
" transform="scale(0.015625)"/>
       </defs>
       <use xlink:href="#DejaVuSans-2212"/>
       <use xlink:href="#DejaVuSans-32" transform="translate(83.789062 0)"/>
       <use xlink:href="#DejaVuSans-2e" transform="translate(147.412109 0)"/>
       <use xlink:href="#DejaVuSans-30" transform="translate(179.199219 0)"/>
      </g>
     </g>
    </g>
    <g id="xtick_3">
     <g id="line2d_3">
      <g>
       <use xlink:href="#mcff046a9b1" x="212.484" y="295" style="fill-opacity: 0; stroke: #000000; stroke-opacity: 0; stroke-width: 0.8"/>
      </g>
     </g>
     <g id="text_3">
      <!-- −1.5 -->
      <g style="opacity: 0" transform="translate(194.271891 313.397656) scale(0.15 -0.15)">
       <defs>
        <path id="DejaVuSans-31" d="M 794 531 
L 1825 531 
L 1825 4091 
L 703 3866 
L 703 4441 
L 1819 4666 
L 2450 4666 
L 2450 531 
L 3481 531 
L 3481 0 
L 794 0 
L 794 531 
z
" transform="scale(0.015625)"/>
       </defs>
       <use xlink:href="#DejaVuSans-2212"/>
       <use xlink:href="#DejaVuSans-31" transform="translate(83.789062 0)"/>
       <use xlink:href="#DejaVuSans-2e" transform="translate(147.412109 0)"/>
       <use xlink:href="#DejaVuSans-35" transform="translate(179.199219 0)"/>
      </g>
     </g>
    </g>
    <g id="xtick_4">
     <g id="line2d_4">
      <g>
       <use xlink:href="#mcff046a9b1" x="275.201" y="295" style="fill-opacity: 0; stroke: #000000; stroke-opacity: 0; stroke-width: 0.8"/>
      </g>
     </g>
     <g id="text_4">
      <!-- −1.0 -->
      <g style="opacity: 0" transform="translate(256.988891 313.397656) scale(0.15 -0.15)">
       <use xlink:href="#DejaVuSans-2212"/>
       <use xlink:href="#DejaVuSans-31" transform="translate(83.789062 0)"/>
       <use xlink:href="#DejaVuSans-2e" transform="translate(147.412109 0)"/>
       <use xlink:href="#DejaVuSans-30" transform="translate(179.199219 0)"/>
      </g>
     </g>
    </g>
    <g id="xtick_5">
     <g id="line2d_5">
      <g>
       <use xlink:href="#mcff046a9b1" x="337.918" y="295" style="fill-opacity: 0; stroke: #000000; stroke-opacity: 0; stroke-width: 0.8"/>
      </g>
     </g>
     <g id="text_5">
      <!-- −0.5 -->
      <g style="opacity: 0" transform="translate(319.705891 313.397656) scale(0.15 -0.15)">
       <use xlink:href="#DejaVuSans-2212"/>
       <use xlink:href="#DejaVuSans-30" transform="translate(83.789062 0)"/>
       <use xlink:href="#DejaVuSans-2e" transform="translate(147.412109 0)"/>
       <use xlink:href="#DejaVuSans-35" transform="translate(179.199219 0)"/>
      </g>
     </g>
    </g>
    <g id="xtick_6">
     <g id="line2d_6">
      <g>
       <use xlink:href="#mcff046a9b1" x="400.635" y="295" style="fill-opacity: 0; stroke: #000000; stroke-opacity: 0; stroke-width: 0.8"/>
      </g>
     </g>
     <g id="text_6">
      <!-- 0.0 -->
      <g style="opacity: 0" transform="translate(388.707656 313.397656) scale(0.15 -0.15)">
       <use xlink:href="#DejaVuSans-30"/>
       <use xlink:href="#DejaVuSans-2e" transform="translate(63.623047 0)"/>
       <use xlink:href="#DejaVuSans-30" transform="translate(95.410156 0)"/>
      </g>
     </g>
    </g>
    <g id="text_7">
     <!-- PC1 -->
     <g transform="translate(224.4675 335.714063) scale(0.2 -0.2)">
      <defs>
       <path id="DejaVuSans-50" d="M 1259 4147 
L 1259 2394 
L 2053 2394 
Q 2494 2394 2734 2622 
Q 2975 2850 2975 3272 
Q 2975 3691 2734 3919 
Q 2494 4147 2053 4147 
L 1259 4147 
z
M 628 4666 
L 2053 4666 
Q 2838 4666 3239 4311 
Q 3641 3956 3641 3272 
Q 3641 2581 3239 2228 
Q 2838 1875 2053 1875 
L 1259 1875 
L 1259 0 
L 628 0 
L 628 4666 
z
" transform="scale(0.015625)"/>
       <path id="DejaVuSans-43" d="M 4122 4306 
L 4122 3641 
Q 3803 3938 3442 4084 
Q 3081 4231 2675 4231 
Q 1875 4231 1450 3742 
Q 1025 3253 1025 2328 
Q 1025 1406 1450 917 
Q 1875 428 2675 428 
Q 3081 428 3442 575 
Q 3803 722 4122 1019 
L 4122 359 
Q 3791 134 3420 21 
Q 3050 -91 2638 -91 
Q 1578 -91 968 557 
Q 359 1206 359 2328 
Q 359 3453 968 4101 
Q 1578 4750 2638 4750 
Q 3056 4750 3426 4639 
Q 3797 4528 4122 4306 
z
" transform="scale(0.015625)"/>
      </defs>
      <use xlink:href="#DejaVuSans-50"/>
      <use xlink:href="#DejaVuSans-43" transform="translate(60.302734 0)"/>
      <use xlink:href="#DejaVuSans-31" transform="translate(130.126953 0)"/>
     </g>
    </g>
   </g>
   <g id="matplotlib.axis_2">
    <g id="ytick_1">
     <g id="line2d_7">
      <defs>
       <path id="m4d4ef4a18a" d="M 0 0 
L -3.5 0 
" style="stroke: #000000; stroke-opacity: 0; stroke-width: 0.8"/>
      </defs>
      <g>
       <use xlink:href="#m4d4ef4a18a" x="87.05" y="295" style="fill-opacity: 0; stroke: #000000; stroke-opacity: 0; stroke-width: 0.8"/>
      </g>
     </g>
     <g id="text_8">
      <!-- −2.5 -->
      <g style="opacity: 0" transform="translate(43.625781 300.698828) scale(0.15 -0.15)">
       <use xlink:href="#DejaVuSans-2212"/>
       <use xlink:href="#DejaVuSans-32" transform="translate(83.789062 0)"/>
       <use xlink:href="#DejaVuSans-2e" transform="translate(147.412109 0)"/>
       <use xlink:href="#DejaVuSans-35" transform="translate(179.199219 0)"/>
      </g>
     </g>
    </g>
    <g id="ytick_2">
     <g id="line2d_8">
      <g>
       <use xlink:href="#m4d4ef4a18a" x="87.05" y="241.04" style="fill-opacity: 0; stroke: #000000; stroke-opacity: 0; stroke-width: 0.8"/>
      </g>
     </g>
     <g id="text_9">
      <!-- −2.0 -->
      <g style="opacity: 0" transform="translate(43.625781 246.738828) scale(0.15 -0.15)">
       <use xlink:href="#DejaVuSans-2212"/>
       <use xlink:href="#DejaVuSans-32" transform="translate(83.789062 0)"/>
       <use xlink:href="#DejaVuSans-2e" transform="translate(147.412109 0)"/>
       <use xlink:href="#DejaVuSans-30" transform="translate(179.199219 0)"/>
      </g>
     </g>
    </g>
    <g id="ytick_3">
     <g id="line2d_9">
      <g>
       <use xlink:href="#m4d4ef4a18a" x="87.05" y="187.08" style="fill-opacity: 0; stroke: #000000; stroke-opacity: 0; stroke-width: 0.8"/>
      </g>
     </g>
     <g id="text_10">
      <!-- −1.5 -->
      <g style="opacity: 0" transform="translate(43.625781 192.778828) scale(0.15 -0.15)">
       <use xlink:href="#DejaVuSans-2212"/>
       <use xlink:href="#DejaVuSans-31" transform="translate(83.789062 0)"/>
       <use xlink:href="#DejaVuSans-2e" transform="translate(147.412109 0)"/>
       <use xlink:href="#DejaVuSans-35" transform="translate(179.199219 0)"/>
      </g>
     </g>
    </g>
    <g id="ytick_4">
     <g id="line2d_10">
      <g>
       <use xlink:href="#m4d4ef4a18a" x="87.05" y="133.12" style="fill-opacity: 0; stroke: #000000; stroke-opacity: 0; stroke-width: 0.8"/>
      </g>
     </g>
     <g id="text_11">
      <!-- −1.0 -->
      <g style="opacity: 0" transform="translate(43.625781 138.818828) scale(0.15 -0.15)">
       <use xlink:href="#DejaVuSans-2212"/>
       <use xlink:href="#DejaVuSans-31" transform="translate(83.789062 0)"/>
       <use xlink:href="#DejaVuSans-2e" transform="translate(147.412109 0)"/>
       <use xlink:href="#DejaVuSans-30" transform="translate(179.199219 0)"/>
      </g>
     </g>
    </g>
    <g id="ytick_5">
     <g id="line2d_11">
      <g>
       <use xlink:href="#m4d4ef4a18a" x="87.05" y="79.16" style="fill-opacity: 0; stroke: #000000; stroke-opacity: 0; stroke-width: 0.8"/>
      </g>
     </g>
     <g id="text_12">
      <!-- −0.5 -->
      <g style="opacity: 0" transform="translate(43.625781 84.858828) scale(0.15 -0.15)">
       <use xlink:href="#DejaVuSans-2212"/>
       <use xlink:href="#DejaVuSans-30" transform="translate(83.789062 0)"/>
       <use xlink:href="#DejaVuSans-2e" transform="translate(147.412109 0)"/>
       <use xlink:href="#DejaVuSans-35" transform="translate(179.199219 0)"/>
      </g>
     </g>
    </g>
    <g id="ytick_6">
     <g id="line2d_12">
      <g>
       <use xlink:href="#m4d4ef4a18a" x="87.05" y="25.2" style="fill-opacity: 0; stroke: #000000; stroke-opacity: 0; stroke-width: 0.8"/>
      </g>
     </g>
     <g id="text_13">
      <!-- 0.0 -->
      <g style="opacity: 0" transform="translate(56.195313 30.898828) scale(0.15 -0.15)">
       <use xlink:href="#DejaVuSans-30"/>
       <use xlink:href="#DejaVuSans-2e" transform="translate(63.623047 0)"/>
       <use xlink:href="#DejaVuSans-30" transform="translate(95.410156 0)"/>
      </g>
     </g>
    </g>
    <g id="text_14">
     <!-- PC2 -->
     <g transform="translate(35.466406 179.475) rotate(-90) scale(0.2 -0.2)">
      <use xlink:href="#DejaVuSans-50"/>
      <use xlink:href="#DejaVuSans-43" transform="translate(60.302734 0)"/>
      <use xlink:href="#DejaVuSans-32" transform="translate(130.126953 0)"/>
     </g>
    </g>
   </g>
   <g id="patch_3">
    <path d="M 87.05 295 
L 87.05 25.2 
" style="fill: none; stroke: #000000; stroke-width: 3; stroke-linejoin: miter; stroke-linecap: square"/>
   </g>
   <g id="patch_4">
    <path d="M 400.635 295 
L 400.635 25.2 
" style="fill: none; stroke: #000000; stroke-width: 3; stroke-linejoin: miter; stroke-linecap: square"/>
   </g>
   <g id="patch_5">
    <path d="M 87.05 295 
L 400.635 295 
" style="fill: none; stroke: #000000; stroke-width: 3; stroke-linejoin: miter; stroke-linecap: square"/>
   </g>
   <g id="patch_6">
    <path d="M 87.05 25.2 
L 400.635 25.2 
" style="fill: none; stroke: #000000; stroke-width: 3; stroke-linejoin: miter; stroke-linecap: square"/>
   </g>
   <g id="legend_1">
    <g id="patch_7">
     <path d="M 99.65 286 
L 291.555312 286 
Q 295.155312 286 295.155312 282.4 
L 295.155312 204.938125 
Q 295.155312 201.338125 291.555312 201.338125 
L 99.65 201.338125 
Q 96.05 201.338125 96.05 204.938125 
L 96.05 282.4 
Q 96.05 286 99.65 286 
z
" style="fill: #ffffff; opacity: 0.8; stroke: #cccccc; stroke-linejoin: miter"/>
    </g>
    <g id="PathCollection_4">
     <defs>
      <path id="m8ac3c15809" d="M 0 5.59017 
C 1.48253 5.59017 2.90454 5.001154 3.952847 3.952847 
C 5.001154 2.90454 5.59017 1.48253 5.59017 0 
C 5.59017 -1.48253 5.001154 -2.90454 3.952847 -3.952847 
C 2.90454 -5.001154 1.48253 -5.59017 0 -5.59017 
C -1.48253 -5.59017 -2.90454 -5.001154 -3.952847 -3.952847 
C -5.001154 -2.90454 -5.59017 -1.48253 -5.59017 0 
C -5.59017 1.48253 -5.001154 2.90454 -3.952847 3.952847 
C -2.90454 5.001154 -1.48253 5.59017 0 5.59017 
z
" style="stroke: #3b3657"/>
     </defs>
     <g>
      <use xlink:href="#m8ac3c15809" x="121.25" y="217.490312" style="fill: #3b3657; stroke: #3b3657"/>
     </g>
    </g>
    <g id="text_15">
     <!-- Cobalt Dataset -->
     <g transform="translate(153.65 222.215312) scale(0.18 -0.18)">
      <defs>
       <path id="DejaVuSans-6f" d="M 1959 3097 
Q 1497 3097 1228 2736 
Q 959 2375 959 1747 
Q 959 1119 1226 758 
Q 1494 397 1959 397 
Q 2419 397 2687 759 
Q 2956 1122 2956 1747 
Q 2956 2369 2687 2733 
Q 2419 3097 1959 3097 
z
M 1959 3584 
Q 2709 3584 3137 3096 
Q 3566 2609 3566 1747 
Q 3566 888 3137 398 
Q 2709 -91 1959 -91 
Q 1206 -91 779 398 
Q 353 888 353 1747 
Q 353 2609 779 3096 
Q 1206 3584 1959 3584 
z
" transform="scale(0.015625)"/>
       <path id="DejaVuSans-62" d="M 3116 1747 
Q 3116 2381 2855 2742 
Q 2594 3103 2138 3103 
Q 1681 3103 1420 2742 
Q 1159 2381 1159 1747 
Q 1159 1113 1420 752 
Q 1681 391 2138 391 
Q 2594 391 2855 752 
Q 3116 1113 3116 1747 
z
M 1159 2969 
Q 1341 3281 1617 3432 
Q 1894 3584 2278 3584 
Q 2916 3584 3314 3078 
Q 3713 2572 3713 1747 
Q 3713 922 3314 415 
Q 2916 -91 2278 -91 
Q 1894 -91 1617 61 
Q 1341 213 1159 525 
L 1159 0 
L 581 0 
L 581 4863 
L 1159 4863 
L 1159 2969 
z
" transform="scale(0.015625)"/>
       <path id="DejaVuSans-61" d="M 2194 1759 
Q 1497 1759 1228 1600 
Q 959 1441 959 1056 
Q 959 750 1161 570 
Q 1363 391 1709 391 
Q 2188 391 2477 730 
Q 2766 1069 2766 1631 
L 2766 1759 
L 2194 1759 
z
M 3341 1997 
L 3341 0 
L 2766 0 
L 2766 531 
Q 2569 213 2275 61 
Q 1981 -91 1556 -91 
Q 1019 -91 701 211 
Q 384 513 384 1019 
Q 384 1609 779 1909 
Q 1175 2209 1959 2209 
L 2766 2209 
L 2766 2266 
Q 2766 2663 2505 2880 
Q 2244 3097 1772 3097 
Q 1472 3097 1187 3025 
Q 903 2953 641 2809 
L 641 3341 
Q 956 3463 1253 3523 
Q 1550 3584 1831 3584 
Q 2591 3584 2966 3190 
Q 3341 2797 3341 1997 
z
" transform="scale(0.015625)"/>
       <path id="DejaVuSans-6c" d="M 603 4863 
L 1178 4863 
L 1178 0 
L 603 0 
L 603 4863 
z
" transform="scale(0.015625)"/>
       <path id="DejaVuSans-74" d="M 1172 4494 
L 1172 3500 
L 2356 3500 
L 2356 3053 
L 1172 3053 
L 1172 1153 
Q 1172 725 1289 603 
Q 1406 481 1766 481 
L 2356 481 
L 2356 0 
L 1766 0 
Q 1100 0 847 248 
Q 594 497 594 1153 
L 594 3053 
L 172 3053 
L 172 3500 
L 594 3500 
L 594 4494 
L 1172 4494 
z
" transform="scale(0.015625)"/>
       <path id="DejaVuSans-20" transform="scale(0.015625)"/>
       <path id="DejaVuSans-44" d="M 1259 4147 
L 1259 519 
L 2022 519 
Q 2988 519 3436 956 
Q 3884 1394 3884 2338 
Q 3884 3275 3436 3711 
Q 2988 4147 2022 4147 
L 1259 4147 
z
M 628 4666 
L 1925 4666 
Q 3281 4666 3915 4102 
Q 4550 3538 4550 2338 
Q 4550 1131 3912 565 
Q 3275 0 1925 0 
L 628 0 
L 628 4666 
z
" transform="scale(0.015625)"/>
       <path id="DejaVuSans-73" d="M 2834 3397 
L 2834 2853 
Q 2591 2978 2328 3040 
Q 2066 3103 1784 3103 
Q 1356 3103 1142 2972 
Q 928 2841 928 2578 
Q 928 2378 1081 2264 
Q 1234 2150 1697 2047 
L 1894 2003 
Q 2506 1872 2764 1633 
Q 3022 1394 3022 966 
Q 3022 478 2636 193 
Q 2250 -91 1575 -91 
Q 1294 -91 989 -36 
Q 684 19 347 128 
L 347 722 
Q 666 556 975 473 
Q 1284 391 1588 391 
Q 1994 391 2212 530 
Q 2431 669 2431 922 
Q 2431 1156 2273 1281 
Q 2116 1406 1581 1522 
L 1381 1569 
Q 847 1681 609 1914 
Q 372 2147 372 2553 
Q 372 3047 722 3315 
Q 1072 3584 1716 3584 
Q 2034 3584 2315 3537 
Q 2597 3491 2834 3397 
z
" transform="scale(0.015625)"/>
       <path id="DejaVuSans-65" d="M 3597 1894 
L 3597 1613 
L 953 1613 
Q 991 1019 1311 708 
Q 1631 397 2203 397 
Q 2534 397 2845 478 
Q 3156 559 3463 722 
L 3463 178 
Q 3153 47 2828 -22 
Q 2503 -91 2169 -91 
Q 1331 -91 842 396 
Q 353 884 353 1716 
Q 353 2575 817 3079 
Q 1281 3584 2069 3584 
Q 2775 3584 3186 3129 
Q 3597 2675 3597 1894 
z
M 3022 2063 
Q 3016 2534 2758 2815 
Q 2500 3097 2075 3097 
Q 1594 3097 1305 2825 
Q 1016 2553 972 2059 
L 3022 2063 
z
" transform="scale(0.015625)"/>
      </defs>
      <use xlink:href="#DejaVuSans-43"/>
      <use xlink:href="#DejaVuSans-6f" transform="translate(69.824219 0)"/>
      <use xlink:href="#DejaVuSans-62" transform="translate(131.005859 0)"/>
      <use xlink:href="#DejaVuSans-61" transform="translate(194.482422 0)"/>
      <use xlink:href="#DejaVuSans-6c" transform="translate(255.761719 0)"/>
      <use xlink:href="#DejaVuSans-74" transform="translate(283.544922 0)"/>
      <use xlink:href="#DejaVuSans-20" transform="translate(322.753906 0)"/>
      <use xlink:href="#DejaVuSans-44" transform="translate(354.541016 0)"/>
      <use xlink:href="#DejaVuSans-61" transform="translate(431.542969 0)"/>
      <use xlink:href="#DejaVuSans-74" transform="translate(492.822266 0)"/>
      <use xlink:href="#DejaVuSans-61" transform="translate(532.03125 0)"/>
      <use xlink:href="#DejaVuSans-73" transform="translate(593.310547 0)"/>
      <use xlink:href="#DejaVuSans-65" transform="translate(645.410156 0)"/>
      <use xlink:href="#DejaVuSans-74" transform="translate(706.933594 0)"/>
     </g>
    </g>
    <g id="PathCollection_5">
     <defs>
      <path id="m20e92fe75e" d="M 0 5.59017 
C 1.48253 5.59017 2.90454 5.001154 3.952847 3.952847 
C 5.001154 2.90454 5.59017 1.48253 5.59017 0 
C 5.59017 -1.48253 5.001154 -2.90454 3.952847 -3.952847 
C 2.90454 -5.001154 1.48253 -5.59017 0 -5.59017 
C -1.48253 -5.59017 -2.90454 -5.001154 -3.952847 -3.952847 
C -5.001154 -2.90454 -5.59017 -1.48253 -5.59017 0 
C -5.59017 1.48253 -5.001154 2.90454 -3.952847 3.952847 
C -2.90454 5.001154 -1.48253 5.59017 0 5.59017 
z
" style="stroke: #7e6e8a"/>
     </defs>
     <g>
      <use xlink:href="#m20e92fe75e" x="121.25" y="243.910937" style="fill: #7e6e8a; stroke: #7e6e8a"/>
     </g>
    </g>
    <g id="text_16">
     <!-- $\mathregular{CoCl_3}$ -->
     <g transform="translate(153.65 248.635937) scale(0.18 -0.18)">
      <defs>
       <path id="DejaVuSans-33" d="M 2597 2516 
Q 3050 2419 3304 2112 
Q 3559 1806 3559 1356 
Q 3559 666 3084 287 
Q 2609 -91 1734 -91 
Q 1441 -91 1130 -33 
Q 819 25 488 141 
L 488 750 
Q 750 597 1062 519 
Q 1375 441 1716 441 
Q 2309 441 2620 675 
Q 2931 909 2931 1356 
Q 2931 1769 2642 2001 
Q 2353 2234 1838 2234 
L 1294 2234 
L 1294 2753 
L 1863 2753 
Q 2328 2753 2575 2939 
Q 2822 3125 2822 3475 
Q 2822 3834 2567 4026 
Q 2313 4219 1838 4219 
Q 1578 4219 1281 4162 
Q 984 4106 628 3988 
L 628 4550 
Q 988 4650 1302 4700 
Q 1616 4750 1894 4750 
Q 2613 4750 3031 4423 
Q 3450 4097 3450 3541 
Q 3450 3153 3228 2886 
Q 3006 2619 2597 2516 
z
" transform="scale(0.015625)"/>
      </defs>
      <use xlink:href="#DejaVuSans-43" transform="translate(0 0.015625)"/>
      <use xlink:href="#DejaVuSans-6f" transform="translate(69.824219 0.015625)"/>
      <use xlink:href="#DejaVuSans-43" transform="translate(131.005859 0.015625)"/>
      <use xlink:href="#DejaVuSans-6c" transform="translate(200.830078 0.015625)"/>
      <use xlink:href="#DejaVuSans-33" transform="translate(229.570312 -16.390625) scale(0.7)"/>
     </g>
    </g>
    <g id="PathCollection_6">
     <defs>
      <path id="m112d0a9c18" d="M 0 5.59017 
C 1.48253 5.59017 2.90454 5.001154 3.952847 3.952847 
C 5.001154 2.90454 5.59017 1.48253 5.59017 0 
C 5.59017 -1.48253 5.001154 -2.90454 3.952847 -3.952847 
C 2.90454 -5.001154 1.48253 -5.59017 0 -5.59017 
C -1.48253 -5.59017 -2.90454 -5.001154 -3.952847 -3.952847 
C -5.001154 -2.90454 -5.59017 -1.48253 -5.59017 0 
C -5.59017 1.48253 -5.001154 2.90454 -3.952847 3.952847 
C -2.90454 5.001154 -1.48253 5.59017 0 5.59017 
z
" style="stroke: #e9c5dd"/>
     </defs>
     <g>
      <use xlink:href="#m112d0a9c18" x="121.25" y="270.331562" style="fill: #e9c5dd; stroke: #e9c5dd"/>
     </g>
    </g>
    <g id="text_17">
     <!-- $\mathregular{CoCl_4}$ -->
     <g transform="translate(153.65 275.056562) scale(0.18 -0.18)">
      <defs>
       <path id="DejaVuSans-34" d="M 2419 4116 
L 825 1625 
L 2419 1625 
L 2419 4116 
z
M 2253 4666 
L 3047 4666 
L 3047 1625 
L 3713 1625 
L 3713 1100 
L 3047 1100 
L 3047 0 
L 2419 0 
L 2419 1100 
L 313 1100 
L 313 1709 
L 2253 4666 
z
" transform="scale(0.015625)"/>
      </defs>
      <use xlink:href="#DejaVuSans-43" transform="translate(0 0.015625)"/>
      <use xlink:href="#DejaVuSans-6f" transform="translate(69.824219 0.015625)"/>
      <use xlink:href="#DejaVuSans-43" transform="translate(131.005859 0.015625)"/>
      <use xlink:href="#DejaVuSans-6c" transform="translate(200.830078 0.015625)"/>
      <use xlink:href="#DejaVuSans-34" transform="translate(229.570312 -16.390625) scale(0.7)"/>
     </g>
    </g>
   </g>
  </g>
 </g>
 <defs>
  <clipPath id="pbd68488f8b">
   <rect x="87.05" y="25.2" width="313.585" height="269.8"/>
  </clipPath>
 </defs>
</svg>
