<?xml version="1.0" encoding="utf-8" standalone="no"?>
<!DOCTYPE svg PUBLIC "-//W3C//DTD SVG 1.1//EN"
  "http://www.w3.org/Graphics/SVG/1.1/DTD/svg11.dtd">
<svg xmlns:xlink="http://www.w3.org/1999/xlink" width="864pt" height="360pt" viewBox="0 0 864 360" xmlns="http://www.w3.org/2000/svg" version="1.1">
 <metadata>
  <rdf:RDF xmlns:dc="http://purl.org/dc/elements/1.1/" xmlns:cc="http://creativecommons.org/ns#" xmlns:rdf="http://www.w3.org/1999/02/22-rdf-syntax-ns#">
   <cc:Work>
    <dc:type rdf:resource="http://purl.org/dc/dcmitype/StillImage"/>
    <dc:date>2026-01-07T13:59:32.706707</dc:date>
    <dc:format>image/svg+xml</dc:format>
    <dc:creator>
     <cc:Agent>
      <dc:title>Matplotlib v3.10.3, https://matplotlib.org/</dc:title>
     </cc:Agent>
    </dc:creator>
   </cc:Work>
  </rdf:RDF>
 </metadata>
 <defs>
  <style type="text/css">*{stroke-linejoin: round; stroke-linecap: butt}</style>
 </defs>
 <g id="figure_1">
  <g id="patch_1">
   <path d="M 0 360 
L 864 360 
L 864 0 
L 0 0 
z
" style="fill: #ffffff"/>
  </g>
  <g id="axes_1">
   <g id="patch_2">
    <path d="M 69.68 295 
L 433.57 295 
L 433.57 19.44 
L 69.68 19.44 
z
" style="fill: #ffffff"/>
   </g>
   <g id="matplotlib.axis_1">
    <g id="xtick_1">
     <g id="line2d_1">
      <defs>
       <path id="mac9ffe5ea0" d="M 0 0 
L 0 3.5 
" style="stroke: #000000; stroke-width: 0.8"/>
      </defs>
      <g>
       <use xlink:href="#mac9ffe5ea0" x="81.433828" y="295" style="stroke: #000000; stroke-width: 0.8"/>
      </g>
     </g>
     <g id="text_1">
      <!-- 2.95 -->
      <g transform="translate(64.734609 313.397656) scale(0.15 -0.15)">
       <defs>
        <path id="DejaVuSans-32" d="M 1228 531 
L 3431 531 
L 3431 0 
L 469 0 
L 469 531 
Q 828 903 1448 1529 
Q 2069 2156 2228 2338 
Q 2531 2678 2651 2914 
Q 2772 3150 2772 3378 
Q 2772 3750 2511 3984 
Q 2250 4219 1831 4219 
Q 1534 4219 1204 4116 
Q 875 4013 500 3803 
L 500 4441 
Q 881 4594 1212 4672 
Q 1544 4750 1819 4750 
Q 2544 4750 2975 4387 
Q 3406 4025 3406 3419 
Q 3406 3131 3298 2873 
Q 3191 2616 2906 2266 
Q 2828 2175 2409 1742 
Q 1991 1309 1228 531 
z
" transform="scale(0.015625)"/>
        <path id="DejaVuSans-2e" d="M 684 794 
L 1344 794 
L 1344 0 
L 684 0 
L 684 794 
z
" transform="scale(0.015625)"/>
        <path id="DejaVuSans-39" d="M 703 97 
L 703 672 
Q 941 559 1184 500 
Q 1428 441 1663 441 
Q 2288 441 2617 861 
Q 2947 1281 2994 2138 
Q 2813 1869 2534 1725 
Q 2256 1581 1919 1581 
Q 1219 1581 811 2004 
Q 403 2428 403 3163 
Q 403 3881 828 4315 
Q 1253 4750 1959 4750 
Q 2769 4750 3195 4129 
Q 3622 3509 3622 2328 
Q 3622 1225 3098 567 
Q 2575 -91 1691 -91 
Q 1453 -91 1209 -44 
Q 966 3 703 97 
z
M 1959 2075 
Q 2384 2075 2632 2365 
Q 2881 2656 2881 3163 
Q 2881 3666 2632 3958 
Q 2384 4250 1959 4250 
Q 1534 4250 1286 3958 
Q 1038 3666 1038 3163 
Q 1038 2656 1286 2365 
Q 1534 2075 1959 2075 
z
" transform="scale(0.015625)"/>
        <path id="DejaVuSans-35" d="M 691 4666 
L 3169 4666 
L 3169 4134 
L 1269 4134 
L 1269 2991 
Q 1406 3038 1543 3061 
Q 1681 3084 1819 3084 
Q 2600 3084 3056 2656 
Q 3513 2228 3513 1497 
Q 3513 744 3044 326 
Q 2575 -91 1722 -91 
Q 1428 -91 1123 -41 
Q 819 9 494 109 
L 494 744 
Q 775 591 1075 516 
Q 1375 441 1709 441 
Q 2250 441 2565 725 
Q 2881 1009 2881 1497 
Q 2881 1984 2565 2268 
Q 2250 2553 1709 2553 
Q 1456 2553 1204 2497 
Q 953 2441 691 2322 
L 691 4666 
z
" transform="scale(0.015625)"/>
       </defs>
       <use xlink:href="#DejaVuSans-32"/>
       <use xlink:href="#DejaVuSans-2e" transform="translate(63.623047 0)"/>
       <use xlink:href="#DejaVuSans-39" transform="translate(95.410156 0)"/>
       <use xlink:href="#DejaVuSans-35" transform="translate(159.033203 0)"/>
      </g>
     </g>
    </g>
    <g id="xtick_2">
     <g id="line2d_2">
      <g>
       <use xlink:href="#mac9ffe5ea0" x="134.618569" y="295" style="stroke: #000000; stroke-width: 0.8"/>
      </g>
     </g>
     <g id="text_2">
      <!-- 3.00 -->
      <g transform="translate(117.91935 313.397656) scale(0.15 -0.15)">
       <defs>
        <path id="DejaVuSans-33" d="M 2597 2516 
Q 3050 2419 3304 2112 
Q 3559 1806 3559 1356 
Q 3559 666 3084 287 
Q 2609 -91 1734 -91 
Q 1441 -91 1130 -33 
Q 819 25 488 141 
L 488 750 
Q 750 597 1062 519 
Q 1375 441 1716 441 
Q 2309 441 2620 675 
Q 2931 909 2931 1356 
Q 2931 1769 2642 2001 
Q 2353 2234 1838 2234 
L 1294 2234 
L 1294 2753 
L 1863 2753 
Q 2328 2753 2575 2939 
Q 2822 3125 2822 3475 
Q 2822 3834 2567 4026 
Q 2313 4219 1838 4219 
Q 1578 4219 1281 4162 
Q 984 4106 628 3988 
L 628 4550 
Q 988 4650 1302 4700 
Q 1616 4750 1894 4750 
Q 2613 4750 3031 4423 
Q 3450 4097 3450 3541 
Q 3450 3153 3228 2886 
Q 3006 2619 2597 2516 
z
" transform="scale(0.015625)"/>
        <path id="DejaVuSans-30" d="M 2034 4250 
Q 1547 4250 1301 3770 
Q 1056 3291 1056 2328 
Q 1056 1369 1301 889 
Q 1547 409 2034 409 
Q 2525 409 2770 889 
Q 3016 1369 3016 2328 
Q 3016 3291 2770 3770 
Q 2525 4250 2034 4250 
z
M 2034 4750 
Q 2819 4750 3233 4129 
Q 3647 3509 3647 2328 
Q 3647 1150 3233 529 
Q 2819 -91 2034 -91 
Q 1250 -91 836 529 
Q 422 1150 422 2328 
Q 422 3509 836 4129 
Q 1250 4750 2034 4750 
z
" transform="scale(0.015625)"/>
       </defs>
       <use xlink:href="#DejaVuSans-33"/>
       <use xlink:href="#DejaVuSans-2e" transform="translate(63.623047 0)"/>
       <use xlink:href="#DejaVuSans-30" transform="translate(95.410156 0)"/>
       <use xlink:href="#DejaVuSans-30" transform="translate(159.033203 0)"/>
      </g>
     </g>
    </g>
    <g id="xtick_3">
     <g id="line2d_3">
      <g>
       <use xlink:href="#mac9ffe5ea0" x="187.80331" y="295" style="stroke: #000000; stroke-width: 0.8"/>
      </g>
     </g>
     <g id="text_3">
      <!-- 3.05 -->
      <g transform="translate(171.104092 313.397656) scale(0.15 -0.15)">
       <use xlink:href="#DejaVuSans-33"/>
       <use xlink:href="#DejaVuSans-2e" transform="translate(63.623047 0)"/>
       <use xlink:href="#DejaVuSans-30" transform="translate(95.410156 0)"/>
       <use xlink:href="#DejaVuSans-35" transform="translate(159.033203 0)"/>
      </g>
     </g>
    </g>
    <g id="xtick_4">
     <g id="line2d_4">
      <g>
       <use xlink:href="#mac9ffe5ea0" x="240.988052" y="295" style="stroke: #000000; stroke-width: 0.8"/>
      </g>
     </g>
     <g id="text_4">
      <!-- 3.10 -->
      <g transform="translate(224.288833 313.397656) scale(0.15 -0.15)">
       <defs>
        <path id="DejaVuSans-31" d="M 794 531 
L 1825 531 
L 1825 4091 
L 703 3866 
L 703 4441 
L 1819 4666 
L 2450 4666 
L 2450 531 
L 3481 531 
L 3481 0 
L 794 0 
L 794 531 
z
" transform="scale(0.015625)"/>
       </defs>
       <use xlink:href="#DejaVuSans-33"/>
       <use xlink:href="#DejaVuSans-2e" transform="translate(63.623047 0)"/>
       <use xlink:href="#DejaVuSans-31" transform="translate(95.410156 0)"/>
       <use xlink:href="#DejaVuSans-30" transform="translate(159.033203 0)"/>
      </g>
     </g>
    </g>
    <g id="xtick_5">
     <g id="line2d_5">
      <g>
       <use xlink:href="#mac9ffe5ea0" x="294.172793" y="295" style="stroke: #000000; stroke-width: 0.8"/>
      </g>
     </g>
     <g id="text_5">
      <!-- 3.15 -->
      <g transform="translate(277.473574 313.397656) scale(0.15 -0.15)">
       <use xlink:href="#DejaVuSans-33"/>
       <use xlink:href="#DejaVuSans-2e" transform="translate(63.623047 0)"/>
       <use xlink:href="#DejaVuSans-31" transform="translate(95.410156 0)"/>
       <use xlink:href="#DejaVuSans-35" transform="translate(159.033203 0)"/>
      </g>
     </g>
    </g>
    <g id="xtick_6">
     <g id="line2d_6">
      <g>
       <use xlink:href="#mac9ffe5ea0" x="347.357534" y="295" style="stroke: #000000; stroke-width: 0.8"/>
      </g>
     </g>
     <g id="text_6">
      <!-- 3.20 -->
      <g transform="translate(330.658316 313.397656) scale(0.15 -0.15)">
       <use xlink:href="#DejaVuSans-33"/>
       <use xlink:href="#DejaVuSans-2e" transform="translate(63.623047 0)"/>
       <use xlink:href="#DejaVuSans-32" transform="translate(95.410156 0)"/>
       <use xlink:href="#DejaVuSans-30" transform="translate(159.033203 0)"/>
      </g>
     </g>
    </g>
    <g id="xtick_7">
     <g id="line2d_7">
      <g>
       <use xlink:href="#mac9ffe5ea0" x="400.542276" y="295" style="stroke: #000000; stroke-width: 0.8"/>
      </g>
     </g>
     <g id="text_7">
      <!-- 3.25 -->
      <g transform="translate(383.843057 313.397656) scale(0.15 -0.15)">
       <use xlink:href="#DejaVuSans-33"/>
       <use xlink:href="#DejaVuSans-2e" transform="translate(63.623047 0)"/>
       <use xlink:href="#DejaVuSans-32" transform="translate(95.410156 0)"/>
       <use xlink:href="#DejaVuSans-35" transform="translate(159.033203 0)"/>
      </g>
     </g>
    </g>
    <g id="text_8">
     <!-- Time (ns) -->
     <g transform="translate(204.629688 335.714063) scale(0.2 -0.2)">
      <defs>
       <path id="DejaVuSans-54" d="M -19 4666 
L 3928 4666 
L 3928 4134 
L 2272 4134 
L 2272 0 
L 1638 0 
L 1638 4134 
L -19 4134 
L -19 4666 
z
" transform="scale(0.015625)"/>
       <path id="DejaVuSans-69" d="M 603 3500 
L 1178 3500 
L 1178 0 
L 603 0 
L 603 3500 
z
M 603 4863 
L 1178 4863 
L 1178 4134 
L 603 4134 
L 603 4863 
z
" transform="scale(0.015625)"/>
       <path id="DejaVuSans-6d" d="M 3328 2828 
Q 3544 3216 3844 3400 
Q 4144 3584 4550 3584 
Q 5097 3584 5394 3201 
Q 5691 2819 5691 2113 
L 5691 0 
L 5113 0 
L 5113 2094 
Q 5113 2597 4934 2840 
Q 4756 3084 4391 3084 
Q 3944 3084 3684 2787 
Q 3425 2491 3425 1978 
L 3425 0 
L 2847 0 
L 2847 2094 
Q 2847 2600 2669 2842 
Q 2491 3084 2119 3084 
Q 1678 3084 1418 2786 
Q 1159 2488 1159 1978 
L 1159 0 
L 581 0 
L 581 3500 
L 1159 3500 
L 1159 2956 
Q 1356 3278 1631 3431 
Q 1906 3584 2284 3584 
Q 2666 3584 2933 3390 
Q 3200 3197 3328 2828 
z
" transform="scale(0.015625)"/>
       <path id="DejaVuSans-65" d="M 3597 1894 
L 3597 1613 
L 953 1613 
Q 991 1019 1311 708 
Q 1631 397 2203 397 
Q 2534 397 2845 478 
Q 3156 559 3463 722 
L 3463 178 
Q 3153 47 2828 -22 
Q 2503 -91 2169 -91 
Q 1331 -91 842 396 
Q 353 884 353 1716 
Q 353 2575 817 3079 
Q 1281 3584 2069 3584 
Q 2775 3584 3186 3129 
Q 3597 2675 3597 1894 
z
M 3022 2063 
Q 3016 2534 2758 2815 
Q 2500 3097 2075 3097 
Q 1594 3097 1305 2825 
Q 1016 2553 972 2059 
L 3022 2063 
z
" transform="scale(0.015625)"/>
       <path id="DejaVuSans-20" transform="scale(0.015625)"/>
       <path id="DejaVuSans-28" d="M 1984 4856 
Q 1566 4138 1362 3434 
Q 1159 2731 1159 2009 
Q 1159 1288 1364 580 
Q 1569 -128 1984 -844 
L 1484 -844 
Q 1016 -109 783 600 
Q 550 1309 550 2009 
Q 550 2706 781 3412 
Q 1013 4119 1484 4856 
L 1984 4856 
z
" transform="scale(0.015625)"/>
       <path id="DejaVuSans-6e" d="M 3513 2113 
L 3513 0 
L 2938 0 
L 2938 2094 
Q 2938 2591 2744 2837 
Q 2550 3084 2163 3084 
Q 1697 3084 1428 2787 
Q 1159 2491 1159 1978 
L 1159 0 
L 581 0 
L 581 3500 
L 1159 3500 
L 1159 2956 
Q 1366 3272 1645 3428 
Q 1925 3584 2291 3584 
Q 2894 3584 3203 3211 
Q 3513 2838 3513 2113 
z
" transform="scale(0.015625)"/>
       <path id="DejaVuSans-73" d="M 2834 3397 
L 2834 2853 
Q 2591 2978 2328 3040 
Q 2066 3103 1784 3103 
Q 1356 3103 1142 2972 
Q 928 2841 928 2578 
Q 928 2378 1081 2264 
Q 1234 2150 1697 2047 
L 1894 2003 
Q 2506 1872 2764 1633 
Q 3022 1394 3022 966 
Q 3022 478 2636 193 
Q 2250 -91 1575 -91 
Q 1294 -91 989 -36 
Q 684 19 347 128 
L 347 722 
Q 666 556 975 473 
Q 1284 391 1588 391 
Q 1994 391 2212 530 
Q 2431 669 2431 922 
Q 2431 1156 2273 1281 
Q 2116 1406 1581 1522 
L 1381 1569 
Q 847 1681 609 1914 
Q 372 2147 372 2553 
Q 372 3047 722 3315 
Q 1072 3584 1716 3584 
Q 2034 3584 2315 3537 
Q 2597 3491 2834 3397 
z
" transform="scale(0.015625)"/>
       <path id="DejaVuSans-29" d="M 513 4856 
L 1013 4856 
Q 1481 4119 1714 3412 
Q 1947 2706 1947 2009 
Q 1947 1309 1714 600 
Q 1481 -109 1013 -844 
L 513 -844 
Q 928 -128 1133 580 
Q 1338 1288 1338 2009 
Q 1338 2731 1133 3434 
Q 928 4138 513 4856 
z
" transform="scale(0.015625)"/>
      </defs>
      <use xlink:href="#DejaVuSans-54"/>
      <use xlink:href="#DejaVuSans-69" transform="translate(57.958984 0)"/>
      <use xlink:href="#DejaVuSans-6d" transform="translate(85.742188 0)"/>
      <use xlink:href="#DejaVuSans-65" transform="translate(183.154297 0)"/>
      <use xlink:href="#DejaVuSans-20" transform="translate(244.677734 0)"/>
      <use xlink:href="#DejaVuSans-28" transform="translate(276.464844 0)"/>
      <use xlink:href="#DejaVuSans-6e" transform="translate(315.478516 0)"/>
      <use xlink:href="#DejaVuSans-73" transform="translate(378.857422 0)"/>
      <use xlink:href="#DejaVuSans-29" transform="translate(430.957031 0)"/>
     </g>
    </g>
   </g>
   <g id="matplotlib.axis_2">
    <g id="ytick_1">
     <g id="line2d_8">
      <defs>
       <path id="mbd2a81c145" d="M 0 0 
L -3.5 0 
" style="stroke: #000000; stroke-width: 0.8"/>
      </defs>
      <g>
       <use xlink:href="#mbd2a81c145" x="69.68" y="241.655833" style="stroke: #000000; stroke-width: 0.8"/>
      </g>
     </g>
     <g id="text_9">
      <!-- 10 -->
      <g transform="translate(43.5925 247.354661) scale(0.15 -0.15)">
       <use xlink:href="#DejaVuSans-31"/>
       <use xlink:href="#DejaVuSans-30" transform="translate(63.623047 0)"/>
      </g>
     </g>
    </g>
    <g id="ytick_2">
     <g id="line2d_9">
      <g>
       <use xlink:href="#mbd2a81c145" x="69.68" y="179.902232" style="stroke: #000000; stroke-width: 0.8"/>
      </g>
     </g>
     <g id="text_10">
      <!-- 20 -->
      <g transform="translate(43.5925 185.60106) scale(0.15 -0.15)">
       <use xlink:href="#DejaVuSans-32"/>
       <use xlink:href="#DejaVuSans-30" transform="translate(63.623047 0)"/>
      </g>
     </g>
    </g>
    <g id="ytick_3">
     <g id="line2d_10">
      <g>
       <use xlink:href="#mbd2a81c145" x="69.68" y="118.148632" style="stroke: #000000; stroke-width: 0.8"/>
      </g>
     </g>
     <g id="text_11">
      <!-- 30 -->
      <g transform="translate(43.5925 123.84746) scale(0.15 -0.15)">
       <use xlink:href="#DejaVuSans-33"/>
       <use xlink:href="#DejaVuSans-30" transform="translate(63.623047 0)"/>
      </g>
     </g>
    </g>
    <g id="ytick_4">
     <g id="line2d_11">
      <g>
       <use xlink:href="#mbd2a81c145" x="69.68" y="56.395031" style="stroke: #000000; stroke-width: 0.8"/>
      </g>
     </g>
     <g id="text_12">
      <!-- 40 -->
      <g transform="translate(43.5925 62.093859) scale(0.15 -0.15)">
       <defs>
        <path id="DejaVuSans-34" d="M 2419 4116 
L 825 1625 
L 2419 1625 
L 2419 4116 
z
M 2253 4666 
L 3047 4666 
L 3047 1625 
L 3713 1625 
L 3713 1100 
L 3047 1100 
L 3047 0 
L 2419 0 
L 2419 1100 
L 313 1100 
L 313 1709 
L 2253 4666 
z
" transform="scale(0.015625)"/>
       </defs>
       <use xlink:href="#DejaVuSans-34"/>
       <use xlink:href="#DejaVuSans-30" transform="translate(63.623047 0)"/>
      </g>
     </g>
    </g>
    <g id="text_13">
     <!-- Q-Residual -->
     <g transform="translate(35.433125 211.205937) rotate(-90) scale(0.2 -0.2)">
      <defs>
       <path id="DejaVuSans-51" d="M 2522 4238 
Q 1834 4238 1429 3725 
Q 1025 3213 1025 2328 
Q 1025 1447 1429 934 
Q 1834 422 2522 422 
Q 3209 422 3611 934 
Q 4013 1447 4013 2328 
Q 4013 3213 3611 3725 
Q 3209 4238 2522 4238 
z
M 3406 84 
L 4238 -825 
L 3475 -825 
L 2784 -78 
Q 2681 -84 2626 -87 
Q 2572 -91 2522 -91 
Q 1538 -91 948 567 
Q 359 1225 359 2328 
Q 359 3434 948 4092 
Q 1538 4750 2522 4750 
Q 3503 4750 4090 4092 
Q 4678 3434 4678 2328 
Q 4678 1516 4351 937 
Q 4025 359 3406 84 
z
" transform="scale(0.015625)"/>
       <path id="DejaVuSans-2d" d="M 313 2009 
L 1997 2009 
L 1997 1497 
L 313 1497 
L 313 2009 
z
" transform="scale(0.015625)"/>
       <path id="DejaVuSans-52" d="M 2841 2188 
Q 3044 2119 3236 1894 
Q 3428 1669 3622 1275 
L 4263 0 
L 3584 0 
L 2988 1197 
Q 2756 1666 2539 1819 
Q 2322 1972 1947 1972 
L 1259 1972 
L 1259 0 
L 628 0 
L 628 4666 
L 2053 4666 
Q 2853 4666 3247 4331 
Q 3641 3997 3641 3322 
Q 3641 2881 3436 2590 
Q 3231 2300 2841 2188 
z
M 1259 4147 
L 1259 2491 
L 2053 2491 
Q 2509 2491 2742 2702 
Q 2975 2913 2975 3322 
Q 2975 3731 2742 3939 
Q 2509 4147 2053 4147 
L 1259 4147 
z
" transform="scale(0.015625)"/>
       <path id="DejaVuSans-64" d="M 2906 2969 
L 2906 4863 
L 3481 4863 
L 3481 0 
L 2906 0 
L 2906 525 
Q 2725 213 2448 61 
Q 2172 -91 1784 -91 
Q 1150 -91 751 415 
Q 353 922 353 1747 
Q 353 2572 751 3078 
Q 1150 3584 1784 3584 
Q 2172 3584 2448 3432 
Q 2725 3281 2906 2969 
z
M 947 1747 
Q 947 1113 1208 752 
Q 1469 391 1925 391 
Q 2381 391 2643 752 
Q 2906 1113 2906 1747 
Q 2906 2381 2643 2742 
Q 2381 3103 1925 3103 
Q 1469 3103 1208 2742 
Q 947 2381 947 1747 
z
" transform="scale(0.015625)"/>
       <path id="DejaVuSans-75" d="M 544 1381 
L 544 3500 
L 1119 3500 
L 1119 1403 
Q 1119 906 1312 657 
Q 1506 409 1894 409 
Q 2359 409 2629 706 
Q 2900 1003 2900 1516 
L 2900 3500 
L 3475 3500 
L 3475 0 
L 2900 0 
L 2900 538 
Q 2691 219 2414 64 
Q 2138 -91 1772 -91 
Q 1169 -91 856 284 
Q 544 659 544 1381 
z
M 1991 3584 
L 1991 3584 
z
" transform="scale(0.015625)"/>
       <path id="DejaVuSans-61" d="M 2194 1759 
Q 1497 1759 1228 1600 
Q 959 1441 959 1056 
Q 959 750 1161 570 
Q 1363 391 1709 391 
Q 2188 391 2477 730 
Q 2766 1069 2766 1631 
L 2766 1759 
L 2194 1759 
z
M 3341 1997 
L 3341 0 
L 2766 0 
L 2766 531 
Q 2569 213 2275 61 
Q 1981 -91 1556 -91 
Q 1019 -91 701 211 
Q 384 513 384 1019 
Q 384 1609 779 1909 
Q 1175 2209 1959 2209 
L 2766 2209 
L 2766 2266 
Q 2766 2663 2505 2880 
Q 2244 3097 1772 3097 
Q 1472 3097 1187 3025 
Q 903 2953 641 2809 
L 641 3341 
Q 956 3463 1253 3523 
Q 1550 3584 1831 3584 
Q 2591 3584 2966 3190 
Q 3341 2797 3341 1997 
z
" transform="scale(0.015625)"/>
       <path id="DejaVuSans-6c" d="M 603 4863 
L 1178 4863 
L 1178 0 
L 603 0 
L 603 4863 
z
" transform="scale(0.015625)"/>
      </defs>
      <use xlink:href="#DejaVuSans-51"/>
      <use xlink:href="#DejaVuSans-2d" transform="translate(81.460938 0)"/>
      <use xlink:href="#DejaVuSans-52" transform="translate(117.544922 0)"/>
      <use xlink:href="#DejaVuSans-65" transform="translate(182.527344 0)"/>
      <use xlink:href="#DejaVuSans-73" transform="translate(244.050781 0)"/>
      <use xlink:href="#DejaVuSans-69" transform="translate(296.150391 0)"/>
      <use xlink:href="#DejaVuSans-64" transform="translate(323.933594 0)"/>
      <use xlink:href="#DejaVuSans-75" transform="translate(387.410156 0)"/>
      <use xlink:href="#DejaVuSans-61" transform="translate(450.789062 0)"/>
      <use xlink:href="#DejaVuSans-6c" transform="translate(512.068359 0)"/>
     </g>
    </g>
   </g>
   <g id="line2d_12">
    <path d="M 251.625 295 
L 251.625 19.44 
" clip-path="url(#p6ceedabfa0)" style="fill: none; stroke: #000000; stroke-width: 1.5; stroke-linecap: square"/>
   </g>
   <g id="patch_3">
    <path d="M 69.68 295 
L 69.68 19.44 
" style="fill: none; stroke: #000000; stroke-width: 3; stroke-linejoin: miter; stroke-linecap: square"/>
   </g>
   <g id="patch_4">
    <path d="M 433.57 295 
L 433.57 19.44 
" style="fill: none; stroke: #000000; stroke-width: 3; stroke-linejoin: miter; stroke-linecap: square"/>
   </g>
   <g id="patch_5">
    <path d="M 69.68 295 
L 433.57 295 
" style="fill: none; stroke: #000000; stroke-width: 3; stroke-linejoin: miter; stroke-linecap: square"/>
   </g>
   <g id="patch_6">
    <path d="M 69.68 19.44 
L 433.57 19.44 
" style="fill: none; stroke: #000000; stroke-width: 3; stroke-linejoin: miter; stroke-linecap: square"/>
   </g>
   <g id="legend_1">
    <g id="patch_7">
     <path d="M 413.77 42.84 
L 420.97 42.84 
Q 424.57 42.84 424.57 39.24 
L 424.57 32.04 
Q 424.57 28.44 420.97 28.44 
L 413.77 28.44 
Q 410.17 28.44 410.17 32.04 
L 410.17 39.24 
Q 410.17 42.84 413.77 42.84 
z
" style="fill: #ffffff; opacity: 0.8; stroke: #cccccc; stroke-linejoin: miter"/>
    </g>
   </g>
  </g>
  <g id="axes_2">
   <g id="patch_8">
    <path d="M 480.67 295 
L 844.56 295 
L 844.56 19.44 
L 480.67 19.44 
z
" style="fill: #ffffff"/>
   </g>
   <g id="matplotlib.axis_3">
    <g id="xtick_8">
     <g id="line2d_13">
      <g>
       <use xlink:href="#mac9ffe5ea0" x="497.210455" y="295" style="stroke: #000000; stroke-width: 0.8"/>
      </g>
     </g>
     <g id="text_14">
      <!-- 0 -->
      <g transform="translate(492.43858 313.397656) scale(0.15 -0.15)">
       <use xlink:href="#DejaVuSans-30"/>
      </g>
     </g>
    </g>
    <g id="xtick_9">
     <g id="line2d_14">
      <g>
       <use xlink:href="#mac9ffe5ea0" x="570.723586" y="295" style="stroke: #000000; stroke-width: 0.8"/>
      </g>
     </g>
     <g id="text_15">
      <!-- 2 -->
      <g transform="translate(565.951711 313.397656) scale(0.15 -0.15)">
       <use xlink:href="#DejaVuSans-32"/>
      </g>
     </g>
    </g>
    <g id="xtick_10">
     <g id="line2d_15">
      <g>
       <use xlink:href="#mac9ffe5ea0" x="644.236717" y="295" style="stroke: #000000; stroke-width: 0.8"/>
      </g>
     </g>
     <g id="text_16">
      <!-- 4 -->
      <g transform="translate(639.464842 313.397656) scale(0.15 -0.15)">
       <use xlink:href="#DejaVuSans-34"/>
      </g>
     </g>
    </g>
    <g id="xtick_11">
     <g id="line2d_16">
      <g>
       <use xlink:href="#mac9ffe5ea0" x="717.749848" y="295" style="stroke: #000000; stroke-width: 0.8"/>
      </g>
     </g>
     <g id="text_17">
      <!-- 6 -->
      <g transform="translate(712.977973 313.397656) scale(0.15 -0.15)">
       <defs>
        <path id="DejaVuSans-36" d="M 2113 2584 
Q 1688 2584 1439 2293 
Q 1191 2003 1191 1497 
Q 1191 994 1439 701 
Q 1688 409 2113 409 
Q 2538 409 2786 701 
Q 3034 994 3034 1497 
Q 3034 2003 2786 2293 
Q 2538 2584 2113 2584 
z
M 3366 4563 
L 3366 3988 
Q 3128 4100 2886 4159 
Q 2644 4219 2406 4219 
Q 1781 4219 1451 3797 
Q 1122 3375 1075 2522 
Q 1259 2794 1537 2939 
Q 1816 3084 2150 3084 
Q 2853 3084 3261 2657 
Q 3669 2231 3669 1497 
Q 3669 778 3244 343 
Q 2819 -91 2113 -91 
Q 1303 -91 875 529 
Q 447 1150 447 2328 
Q 447 3434 972 4092 
Q 1497 4750 2381 4750 
Q 2619 4750 2861 4703 
Q 3103 4656 3366 4563 
z
" transform="scale(0.015625)"/>
       </defs>
       <use xlink:href="#DejaVuSans-36"/>
      </g>
     </g>
    </g>
    <g id="xtick_12">
     <g id="line2d_17">
      <g>
       <use xlink:href="#mac9ffe5ea0" x="791.26298" y="295" style="stroke: #000000; stroke-width: 0.8"/>
      </g>
     </g>
     <g id="text_18">
      <!-- 8 -->
      <g transform="translate(786.491105 313.397656) scale(0.15 -0.15)">
       <defs>
        <path id="DejaVuSans-38" d="M 2034 2216 
Q 1584 2216 1326 1975 
Q 1069 1734 1069 1313 
Q 1069 891 1326 650 
Q 1584 409 2034 409 
Q 2484 409 2743 651 
Q 3003 894 3003 1313 
Q 3003 1734 2745 1975 
Q 2488 2216 2034 2216 
z
M 1403 2484 
Q 997 2584 770 2862 
Q 544 3141 544 3541 
Q 544 4100 942 4425 
Q 1341 4750 2034 4750 
Q 2731 4750 3128 4425 
Q 3525 4100 3525 3541 
Q 3525 3141 3298 2862 
Q 3072 2584 2669 2484 
Q 3125 2378 3379 2068 
Q 3634 1759 3634 1313 
Q 3634 634 3220 271 
Q 2806 -91 2034 -91 
Q 1263 -91 848 271 
Q 434 634 434 1313 
Q 434 1759 690 2068 
Q 947 2378 1403 2484 
z
M 1172 3481 
Q 1172 3119 1398 2916 
Q 1625 2713 2034 2713 
Q 2441 2713 2670 2916 
Q 2900 3119 2900 3481 
Q 2900 3844 2670 4047 
Q 2441 4250 2034 4250 
Q 1625 4250 1398 4047 
Q 1172 3844 1172 3481 
z
" transform="scale(0.015625)"/>
       </defs>
       <use xlink:href="#DejaVuSans-38"/>
      </g>
     </g>
    </g>
    <g id="text_19">
     <!-- Time (ns) -->
     <g transform="translate(615.619687 335.714063) scale(0.2 -0.2)">
      <use xlink:href="#DejaVuSans-54"/>
      <use xlink:href="#DejaVuSans-69" transform="translate(57.958984 0)"/>
      <use xlink:href="#DejaVuSans-6d" transform="translate(85.742188 0)"/>
      <use xlink:href="#DejaVuSans-65" transform="translate(183.154297 0)"/>
      <use xlink:href="#DejaVuSans-20" transform="translate(244.677734 0)"/>
      <use xlink:href="#DejaVuSans-28" transform="translate(276.464844 0)"/>
      <use xlink:href="#DejaVuSans-6e" transform="translate(315.478516 0)"/>
      <use xlink:href="#DejaVuSans-73" transform="translate(378.857422 0)"/>
      <use xlink:href="#DejaVuSans-29" transform="translate(430.957031 0)"/>
     </g>
    </g>
   </g>
   <g id="matplotlib.axis_4">
    <g id="ytick_5">
     <g id="line2d_18">
      <g>
       <use xlink:href="#mbd2a81c145" x="480.67" y="241.655833" style="stroke: #000000; stroke-width: 0.8"/>
      </g>
     </g>
    </g>
    <g id="ytick_6">
     <g id="line2d_19">
      <g>
       <use xlink:href="#mbd2a81c145" x="480.67" y="179.902232" style="stroke: #000000; stroke-width: 0.8"/>
      </g>
     </g>
    </g>
    <g id="ytick_7">
     <g id="line2d_20">
      <g>
       <use xlink:href="#mbd2a81c145" x="480.67" y="118.148632" style="stroke: #000000; stroke-width: 0.8"/>
      </g>
     </g>
    </g>
    <g id="ytick_8">
     <g id="line2d_21">
      <g>
       <use xlink:href="#mbd2a81c145" x="480.67" y="56.395031" style="stroke: #000000; stroke-width: 0.8"/>
      </g>
     </g>
    </g>
    <g id="text_20">
     <!--   -->
     <g transform="translate(469.010625 160.398125) rotate(-90) scale(0.2 -0.2)">
      <use xlink:href="#DejaVuSans-20"/>
     </g>
    </g>
   </g>
   <g id="line2d_22">
    <path d="M 497.210455 280.135045 
L 499.048283 267.660039 
L 500.886111 282.474545 
L 502.723939 260.345428 
L 504.561768 256.348756 
L 506.399596 249.467461 
L 508.237424 249.264371 
L 510.075253 250.158776 
L 511.913081 225.951445 
L 513.750909 244.672124 
L 515.588737 248.684741 
L 517.426566 237.979621 
L 519.264394 265.045424 
L 521.102222 246.90748 
L 522.940051 257.05411 
L 524.777879 244.301386 
L 526.615707 263.274908 
L 528.453535 255.700136 
L 530.291364 250.752016 
L 532.129192 251.225533 
L 533.96702 256.351769 
L 535.804848 254.489191 
L 537.642677 265.693238 
L 539.480505 251.655309 
L 541.318333 246.973042 
L 543.156162 246.560406 
L 544.99399 249.139577 
L 546.831818 258.337853 
L 548.669646 262.954446 
L 550.507475 265.602076 
L 552.345303 257.267275 
L 554.183131 261.949932 
L 556.02096 249.598505 
L 557.858788 266.3913 
L 559.696616 249.164501 
L 561.534444 254.892386 
L 563.372273 254.319453 
L 565.210101 242.091559 
L 567.047929 255.913201 
L 568.885758 240.540795 
L 570.723586 243.165909 
L 572.561414 253.12257 
L 574.399242 259.978171 
L 576.237071 265.077855 
L 578.074899 247.335713 
L 579.912727 241.876475 
L 581.750556 239.633698 
L 583.588384 243.651938 
L 585.426212 250.087064 
L 587.26404 237.798435 
L 589.101869 228.464843 
L 590.939697 260.221738 
L 592.777525 250.172791 
L 594.615354 254.104475 
L 596.453182 254.266533 
L 598.29101 250.86909 
L 600.128838 249.296302 
L 601.966667 231.69244 
L 603.804495 251.650594 
L 605.642323 260.516493 
L 607.480152 256.863134 
L 609.31798 241.272326 
L 611.155808 264.638467 
L 612.993636 249.02334 
L 614.831465 249.189482 
L 616.669293 257.642214 
L 618.507121 236.418504 
L 620.344949 247.969042 
L 622.182778 226.006913 
L 624.020606 241.263074 
L 625.858434 242.049157 
L 627.696263 266.477474 
L 629.534091 246.044477 
L 631.371919 256.023103 
L 633.209747 243.468413 
L 635.047576 251.353969 
L 636.885404 262.357073 
L 638.723232 259.714016 
L 640.561061 249.363188 
L 642.398889 248.485116 
L 644.236717 259.440909 
L 646.074545 257.668698 
L 647.912374 261.290322 
L 649.750202 262.095163 
L 651.58803 263.303376 
L 653.425859 265.235238 
L 655.263687 250.144839 
L 657.101515 255.464166 
L 658.939343 252.939039 
L 660.777172 258.668748 
L 662.615 252.806831 
L 664.452828 261.639898 
L 666.290657 244.606613 
L 668.128485 258.359386 
L 669.966313 239.912091 
L 671.804141 236.156714 
L 673.64197 250.797731 
L 675.479798 257.669479 
L 677.317626 269.392539 
L 679.155455 254.082128 
L 680.993283 251.014153 
L 682.831111 260.259988 
L 684.668939 259.790001 
L 686.506768 262.404163 
L 688.344596 259.346494 
L 690.182424 244.531619 
L 692.020253 270.130488 
L 693.858081 264.627646 
L 695.695909 270.216835 
L 697.533737 272.811303 
L 699.371566 274.40423 
L 701.209394 251.155686 
L 703.047222 233.359267 
L 704.885051 232.629011 
L 706.722879 260.475725 
L 708.560707 248.63894 
L 710.398535 245.822834 
L 712.236364 197.715823 
L 714.074192 224.815644 
L 715.91202 256.844451 
L 717.749848 264.038534 
L 719.587677 251.566314 
L 721.425505 276.911027 
L 723.263333 266.542698 
L 725.101162 272.4435 
L 726.93899 269.21779 
L 728.776818 262.707319 
L 730.614646 265.274481 
L 732.452475 254.105427 
L 734.290303 252.552484 
L 736.128131 252.411818 
L 737.96596 266.108117 
L 739.803788 215.920983 
L 741.641616 253.370224 
L 743.479444 254.699903 
L 745.317273 241.862634 
L 747.155101 261.513535 
L 748.992929 266.112277 
L 750.830758 271.013668 
L 752.668586 264.119513 
L 754.506414 278.34963 
L 756.344242 267.428613 
L 758.182071 262.359142 
L 760.019899 240.200726 
L 761.857727 251.269834 
L 763.695556 248.579309 
L 765.533384 259.544979 
L 767.371212 273.858911 
L 769.20904 250.989366 
L 771.046869 256.715155 
L 772.884697 264.635116 
L 774.722525 261.215446 
L 776.560354 267.787731 
L 778.398182 272.876345 
L 780.23601 251.418554 
L 782.073838 255.368499 
L 783.911667 263.174655 
L 785.749495 268.945768 
L 787.587323 260.16039 
L 789.425152 254.147479 
L 791.26298 268.896425 
L 793.100808 245.786717 
L 794.938636 259.059164 
L 796.776465 265.021699 
L 798.614293 258.947626 
L 800.452121 263.369807 
L 802.289949 251.832206 
L 804.127778 253.758239 
L 805.965606 256.875402 
L 807.803434 254.353666 
L 809.641263 246.004398 
L 811.479091 236.794333 
L 813.316919 271.202061 
L 815.154747 259.861466 
L 816.992576 255.483643 
L 818.830404 268.128154 
L 820.668232 259.071296 
L 822.506061 245.656115 
L 824.343889 258.024249 
L 826.181717 262.123104 
L 828.019545 251.647663 
L 828.019545 251.647663 
" clip-path="url(#pccb7e67c24)" style="fill: none; stroke: #a18aa5; stroke-width: 1.5; stroke-linecap: square"/>
   </g>
   <g id="line2d_23">
    <path d="M 497.210455 237.050495 
L 499.048283 244.121933 
L 500.886111 253.263828 
L 502.723939 240.905698 
L 504.561768 232.894258 
L 506.399596 233.151624 
L 508.237424 224.024653 
L 510.075253 229.77226 
L 511.913081 212.523034 
L 513.750909 230.423145 
L 515.588737 224.205373 
L 517.426566 207.43944 
L 519.264394 240.23394 
L 521.102222 228.295362 
L 522.940051 235.61832 
L 524.777879 227.255661 
L 526.615707 234.594694 
L 528.453535 243.173808 
L 530.291364 233.594822 
L 532.129192 232.823679 
L 533.96702 228.446645 
L 535.804848 232.147401 
L 537.642677 244.182261 
L 539.480505 229.508261 
L 541.318333 227.154552 
L 543.156162 225.423709 
L 544.99399 234.068437 
L 546.831818 243.761013 
L 548.669646 238.585633 
L 550.507475 234.866673 
L 552.345303 232.040218 
L 554.183131 230.898279 
L 556.02096 242.766356 
L 557.858788 231.345623 
L 559.696616 235.131069 
L 561.534444 239.197078 
L 563.372273 236.19031 
L 565.210101 224.110662 
L 567.047929 235.490936 
L 568.885758 219.592042 
L 570.723586 232.694009 
L 572.561414 242.515472 
L 574.399242 231.224515 
L 576.237071 233.865602 
L 578.074899 235.773979 
L 579.912727 218.648672 
L 581.750556 219.030681 
L 583.588384 220.715245 
L 585.426212 224.504814 
L 587.26404 222.976406 
L 589.101869 236.847615 
L 590.939697 255.669125 
L 592.777525 244.223354 
L 594.615354 246.557576 
L 596.453182 249.604016 
L 598.29101 236.601378 
L 600.128838 248.855617 
L 601.966667 241.981807 
L 603.804495 247.894737 
L 605.642323 251.806381 
L 607.480152 247.341047 
L 609.31798 243.612579 
L 611.155808 256.279836 
L 612.993636 247.787525 
L 614.831465 240.19061 
L 616.669293 250.692444 
L 618.507121 237.231854 
L 620.344949 246.074924 
L 622.182778 218.147682 
L 624.020606 236.25261 
L 625.858434 235.031992 
L 627.696263 247.864316 
L 629.534091 232.036075 
L 631.371919 243.487912 
L 633.209747 237.53092 
L 635.047576 234.938623 
L 636.885404 239.516147 
L 638.723232 236.933119 
L 640.561061 228.302916 
L 642.398889 200.987597 
L 644.236717 244.920623 
L 646.074545 222.135653 
L 647.912374 218.113396 
L 649.750202 242.67621 
L 651.58803 233.678483 
L 653.425859 238.794704 
L 655.263687 226.975218 
L 657.101515 227.624763 
L 658.939343 234.686089 
L 660.777172 208.439876 
L 662.615 208.952606 
L 664.452828 230.265942 
L 666.290657 184.681121 
L 668.128485 215.110151 
L 669.966313 218.071943 
L 671.804141 196.584918 
L 673.64197 204.03523 
L 675.479798 212.144821 
L 677.317626 227.528332 
L 679.155455 221.082827 
L 680.993283 222.120615 
L 682.831111 200.279212 
L 684.668939 240.160272 
L 686.506768 242.396802 
L 688.344596 228.881906 
L 690.182424 213.561015 
L 692.020253 242.246469 
L 693.858081 206.346323 
L 695.695909 203.066637 
L 697.533737 186.849656 
L 699.371566 213.712954 
L 701.209394 190.003874 
L 703.047222 206.238759 
L 704.885051 224.712199 
L 706.722879 204.448916 
L 708.560707 202.629264 
L 710.398535 157.322117 
L 712.236364 120.07003 
L 714.074192 154.640259 
L 715.91202 140.226836 
L 717.749848 135.0317 
L 719.587677 142.015388 
L 721.425505 149.876469 
L 723.263333 131.32006 
L 725.101162 146.168577 
L 726.93899 132.414255 
L 728.776818 134.553095 
L 730.614646 135.893382 
L 732.452475 133.021204 
L 734.290303 145.664487 
L 736.128131 149.657469 
L 737.96596 145.157438 
L 739.803788 138.618049 
L 741.641616 159.908849 
L 743.479444 142.75744 
L 745.317273 161.261534 
L 747.155101 147.994835 
L 748.992929 149.566244 
L 750.830758 153.26371 
L 752.668586 145.382225 
L 754.506414 145.121983 
L 756.344242 149.725386 
L 758.182071 141.145684 
L 760.019899 168.544184 
L 761.857727 161.08796 
L 763.695556 166.049831 
L 765.533384 134.525477 
L 767.371212 144.145752 
L 769.20904 151.526992 
L 771.046869 144.316535 
L 772.884697 245.047325 
L 774.722525 251.572688 
L 776.560354 238.147464 
L 778.398182 256.360127 
L 780.23601 242.83299 
L 782.073838 233.809938 
L 783.911667 243.971013 
L 785.749495 238.354589 
L 787.587323 225.246127 
L 789.425152 226.473943 
L 791.26298 234.665366 
L 793.100808 223.984638 
L 794.938636 243.442204 
L 796.776465 241.838812 
L 798.614293 231.35063 
L 800.452121 238.669401 
L 802.289949 209.51249 
L 804.127778 225.221746 
L 805.965606 229.556244 
L 809.641263 240.719582 
L 811.479091 227.146698 
L 813.316919 237.485673 
L 815.154747 232.486469 
L 816.992576 241.770636 
L 818.830404 244.541623 
L 820.668232 228.462991 
L 822.506061 220.590532 
L 824.343889 238.277983 
L 826.181717 226.38693 
L 828.019545 223.356195 
L 828.019545 223.356195 
" clip-path="url(#pccb7e67c24)" style="fill: none; stroke: #e9c5dd; stroke-width: 1.5; stroke-linecap: square"/>
   </g>
   <g id="line2d_24">
    <path d="M 497.210455 64.451119 
L 499.048283 72.940714 
L 500.886111 83.357838 
L 502.723939 86.284753 
L 504.561768 53.993856 
L 506.399596 65.347941 
L 508.237424 79.906451 
L 510.075253 83.290757 
L 511.913081 62.449603 
L 513.750909 91.398158 
L 515.588737 69.307667 
L 517.426566 81.172146 
L 519.264394 98.118598 
L 521.102222 81.563156 
L 522.940051 102.185452 
L 524.777879 91.185245 
L 526.615707 97.547342 
L 528.453535 100.214833 
L 530.291364 99.369205 
L 532.129192 94.58958 
L 533.96702 87.755377 
L 535.804848 104.056118 
L 537.642677 95.470137 
L 539.480505 91.997416 
L 541.318333 67.40503 
L 543.156162 36.572095 
L 544.99399 92.708545 
L 546.831818 69.701487 
L 548.669646 81.381614 
L 550.507475 74.53873 
L 552.345303 95.212915 
L 554.183131 83.665272 
L 557.858788 95.557846 
L 559.696616 69.959044 
L 561.534444 82.737864 
L 563.372273 77.272802 
L 565.210101 72.884589 
L 567.047929 93.684564 
L 568.885758 72.806761 
L 570.723586 42.859598 
L 572.561414 46.18522 
L 574.399242 82.799085 
L 576.237071 81.570717 
L 578.074899 76.3912 
L 579.912727 90.212756 
L 581.750556 93.217686 
L 583.588384 93.433246 
L 585.426212 48.635403 
L 587.26404 85.16038 
L 589.101869 76.804494 
L 590.939697 62.416105 
L 592.777525 71.198154 
L 594.615354 89.989826 
L 596.453182 85.676913 
L 598.29101 84.202487 
L 600.128838 66.934737 
L 601.966667 83.296743 
L 603.804495 60.932214 
L 605.642323 67.877101 
L 607.480152 63.949013 
L 609.31798 66.62578 
L 611.155808 56.972583 
L 612.993636 60.520024 
L 614.831465 58.053179 
L 616.669293 65.800695 
L 618.507121 84.950834 
L 622.182778 66.932837 
L 624.020606 86.545187 
L 625.858434 85.110731 
L 627.696263 85.413339 
L 629.534091 72.987121 
L 631.371919 69.780771 
L 633.209747 83.695723 
L 635.047576 70.808538 
L 636.885404 83.21379 
L 638.723232 88.980352 
L 640.561061 55.444955 
L 642.398889 77.083376 
L 644.236717 75.13428 
L 646.074545 65.823855 
L 647.912374 79.217528 
L 649.750202 72.694526 
L 651.58803 72.932435 
L 653.425859 77.668647 
L 655.263687 87.175247 
L 657.101515 73.394159 
L 658.939343 74.041599 
L 660.777172 68.133872 
L 662.615 70.163091 
L 664.452828 87.348281 
L 666.290657 75.179449 
L 668.128485 64.041635 
L 669.966313 65.314627 
L 671.804141 90.13796 
L 673.64197 78.56339 
L 675.479798 93.859585 
L 677.317626 90.857641 
L 679.155455 60.499914 
L 680.993283 89.016743 
L 682.831111 85.706523 
L 684.668939 92.018473 
L 686.506768 75.637607 
L 688.344596 55.517247 
L 690.182424 58.542204 
L 692.020253 31.965455 
L 693.858081 92.74465 
L 695.695909 61.735308 
L 697.533737 71.246965 
L 699.371566 87.899754 
L 701.209394 72.27478 
L 703.047222 90.161294 
L 704.885051 85.039311 
L 706.722879 76.488803 
L 708.560707 87.825979 
L 710.398535 84.035238 
L 712.236364 54.45373 
L 714.074192 67.249141 
L 715.91202 75.035276 
L 717.749848 72.465972 
L 719.587677 77.721129 
L 721.425505 75.975927 
L 723.263333 84.659662 
L 725.101162 68.537009 
L 726.93899 81.310327 
L 728.776818 84.844419 
L 730.614646 86.767349 
L 732.452475 90.933081 
L 734.290303 99.076941 
L 736.128131 100.987566 
L 737.96596 101.179246 
L 739.803788 100.155766 
L 741.641616 98.305275 
L 743.479444 97.813977 
L 745.317273 98.329041 
L 747.155101 88.779913 
L 748.992929 95.025649 
L 750.830758 98.992643 
L 752.668586 95.276676 
L 754.506414 99.898886 
L 756.344242 101.737076 
L 758.182071 98.599859 
L 760.019899 100.820799 
L 761.857727 100.388183 
L 763.695556 101.571788 
L 765.533384 102.310374 
L 767.371212 100.760904 
L 769.20904 98.861234 
L 771.046869 99.543559 
L 772.884697 69.438723 
L 774.722525 70.833316 
L 776.560354 58.571377 
L 778.398182 59.664163 
L 780.23601 81.98977 
L 782.073838 75.069203 
L 783.911667 79.58859 
L 785.749495 89.616923 
L 787.587323 74.708791 
L 789.425152 77.68668 
L 791.26298 84.687181 
L 793.100808 76.560356 
L 794.938636 76.691029 
L 796.776465 60.244875 
L 798.614293 76.445255 
L 800.452121 76.433206 
L 802.289949 89.821476 
L 805.965606 77.952799 
L 807.803434 68.842465 
L 809.641263 66.581716 
L 811.479091 83.773681 
L 813.316919 86.841741 
L 815.154747 80.445067 
L 816.992576 68.147406 
L 818.830404 63.639228 
L 820.668232 75.695026 
L 822.506061 86.475691 
L 824.343889 69.981101 
L 826.181717 78.153103 
L 828.019545 81.231831 
L 828.019545 81.231831 
" clip-path="url(#pccb7e67c24)" style="fill: none; stroke: #5c5470; stroke-width: 1.5; stroke-linecap: square"/>
   </g>
   <g id="line2d_25">
    <path d="M 703.139114 295 
L 703.139114 19.44 
" clip-path="url(#pccb7e67c24)" style="fill: none; stroke: #000000; stroke-width: 1.5; stroke-linecap: square"/>
   </g>
   <g id="patch_9">
    <path d="M 480.67 295 
L 480.67 19.44 
" style="fill: none; stroke: #000000; stroke-width: 3; stroke-linejoin: miter; stroke-linecap: square"/>
   </g>
   <g id="patch_10">
    <path d="M 844.56 295 
L 844.56 19.44 
" style="fill: none; stroke: #000000; stroke-width: 3; stroke-linejoin: miter; stroke-linecap: square"/>
   </g>
   <g id="patch_11">
    <path d="M 480.67 295 
L 844.56 295 
" style="fill: none; stroke: #000000; stroke-width: 3; stroke-linejoin: miter; stroke-linecap: square"/>
   </g>
   <g id="patch_12">
    <path d="M 480.67 19.44 
L 844.56 19.44 
" style="fill: none; stroke: #000000; stroke-width: 3; stroke-linejoin: miter; stroke-linecap: square"/>
   </g>
   <g id="legend_2">
    <g id="patch_13">
     <path d="M 493.27 199.550937 
L 622.563437 199.550937 
Q 626.163437 199.550937 626.163437 195.950937 
L 626.163437 118.489062 
Q 626.163437 114.889062 622.563437 114.889062 
L 493.27 114.889062 
Q 489.67 114.889062 489.67 118.489062 
L 489.67 195.950937 
Q 489.67 199.550937 493.27 199.550937 
z
" style="fill: #ffffff; opacity: 0.8; stroke: #cccccc; stroke-linejoin: miter"/>
    </g>
    <g id="line2d_26">
     <path d="M 496.87 129.46625 
L 514.87 129.46625 
L 532.87 129.46625 
" style="fill: none; stroke: #a18aa5; stroke-width: 1.5; stroke-linecap: square"/>
    </g>
    <g id="text_21">
     <!-- O (90) -->
     <g transform="translate(547.27 135.76625) scale(0.18 -0.18)">
      <defs>
       <path id="DejaVuSans-4f" d="M 2522 4238 
Q 1834 4238 1429 3725 
Q 1025 3213 1025 2328 
Q 1025 1447 1429 934 
Q 1834 422 2522 422 
Q 3209 422 3611 934 
Q 4013 1447 4013 2328 
Q 4013 3213 3611 3725 
Q 3209 4238 2522 4238 
z
M 2522 4750 
Q 3503 4750 4090 4092 
Q 4678 3434 4678 2328 
Q 4678 1225 4090 567 
Q 3503 -91 2522 -91 
Q 1538 -91 948 565 
Q 359 1222 359 2328 
Q 359 3434 948 4092 
Q 1538 4750 2522 4750 
z
" transform="scale(0.015625)"/>
      </defs>
      <use xlink:href="#DejaVuSans-4f"/>
      <use xlink:href="#DejaVuSans-20" transform="translate(78.710938 0)"/>
      <use xlink:href="#DejaVuSans-28" transform="translate(110.498047 0)"/>
      <use xlink:href="#DejaVuSans-39" transform="translate(149.511719 0)"/>
      <use xlink:href="#DejaVuSans-30" transform="translate(213.134766 0)"/>
      <use xlink:href="#DejaVuSans-29" transform="translate(276.757812 0)"/>
     </g>
    </g>
    <g id="line2d_27">
     <path d="M 496.87 155.886875 
L 514.87 155.886875 
L 532.87 155.886875 
" style="fill: none; stroke: #e9c5dd; stroke-width: 1.5; stroke-linecap: square"/>
    </g>
    <g id="text_22">
     <!-- H (102) -->
     <g transform="translate(547.27 162.186875) scale(0.18 -0.18)">
      <defs>
       <path id="DejaVuSans-48" d="M 628 4666 
L 1259 4666 
L 1259 2753 
L 3553 2753 
L 3553 4666 
L 4184 4666 
L 4184 0 
L 3553 0 
L 3553 2222 
L 1259 2222 
L 1259 0 
L 628 0 
L 628 4666 
z
" transform="scale(0.015625)"/>
      </defs>
      <use xlink:href="#DejaVuSans-48"/>
      <use xlink:href="#DejaVuSans-20" transform="translate(75.195312 0)"/>
      <use xlink:href="#DejaVuSans-28" transform="translate(106.982422 0)"/>
      <use xlink:href="#DejaVuSans-31" transform="translate(145.996094 0)"/>
      <use xlink:href="#DejaVuSans-30" transform="translate(209.619141 0)"/>
      <use xlink:href="#DejaVuSans-32" transform="translate(273.242188 0)"/>
      <use xlink:href="#DejaVuSans-29" transform="translate(336.865234 0)"/>
     </g>
    </g>
    <g id="line2d_28">
     <path d="M 496.87 182.3075 
L 514.87 182.3075 
L 532.87 182.3075 
" style="fill: none; stroke: #5c5470; stroke-width: 1.5; stroke-linecap: square"/>
    </g>
    <g id="text_23">
     <!-- Cl (193) -->
     <g transform="translate(547.27 188.6075) scale(0.18 -0.18)">
      <defs>
       <path id="DejaVuSans-43" d="M 4122 4306 
L 4122 3641 
Q 3803 3938 3442 4084 
Q 3081 4231 2675 4231 
Q 1875 4231 1450 3742 
Q 1025 3253 1025 2328 
Q 1025 1406 1450 917 
Q 1875 428 2675 428 
Q 3081 428 3442 575 
Q 3803 722 4122 1019 
L 4122 359 
Q 3791 134 3420 21 
Q 3050 -91 2638 -91 
Q 1578 -91 968 557 
Q 359 1206 359 2328 
Q 359 3453 968 4101 
Q 1578 4750 2638 4750 
Q 3056 4750 3426 4639 
Q 3797 4528 4122 4306 
z
" transform="scale(0.015625)"/>
      </defs>
      <use xlink:href="#DejaVuSans-43"/>
      <use xlink:href="#DejaVuSans-6c" transform="translate(69.824219 0)"/>
      <use xlink:href="#DejaVuSans-20" transform="translate(97.607422 0)"/>
      <use xlink:href="#DejaVuSans-28" transform="translate(129.394531 0)"/>
      <use xlink:href="#DejaVuSans-31" transform="translate(168.408203 0)"/>
      <use xlink:href="#DejaVuSans-39" transform="translate(232.03125 0)"/>
      <use xlink:href="#DejaVuSans-33" transform="translate(295.654297 0)"/>
      <use xlink:href="#DejaVuSans-29" transform="translate(359.277344 0)"/>
     </g>
    </g>
   </g>
  </g>
 </g>
 <defs>
  <clipPath id="p6ceedabfa0">
   <rect x="69.68" y="19.44" width="363.89" height="275.56"/>
  </clipPath>
  <clipPath id="pccb7e67c24">
   <rect x="480.67" y="19.44" width="363.89" height="275.56"/>
  </clipPath>
 </defs>
</svg>
