<?xml version="1.0" encoding="utf-8" standalone="no"?>
<!DOCTYPE svg PUBLIC "-//W3C//DTD SVG 1.1//EN"
  "http://www.w3.org/Graphics/SVG/1.1/DTD/svg11.dtd">
<svg xmlns:xlink="http://www.w3.org/1999/xlink" width="460.8pt" height="345.6pt" viewBox="0 0 460.8 345.6" xmlns="http://www.w3.org/2000/svg" version="1.1">
 <metadata>
  <rdf:RDF xmlns:dc="http://purl.org/dc/elements/1.1/" xmlns:cc="http://creativecommons.org/ns#" xmlns:rdf="http://www.w3.org/1999/02/22-rdf-syntax-ns#">
   <cc:Work>
    <dc:type rdf:resource="http://purl.org/dc/dcmitype/StillImage"/>
    <dc:date>2025-12-10T13:49:26.946906</dc:date>
    <dc:format>image/svg+xml</dc:format>
    <dc:creator>
     <cc:Agent>
      <dc:title>Matplotlib v3.10.3, https://matplotlib.org/</dc:title>
     </cc:Agent>
    </dc:creator>
   </cc:Work>
  </rdf:RDF>
 </metadata>
 <defs>
  <style type="text/css">*{stroke-linejoin: round; stroke-linecap: butt}</style>
 </defs>
 <g id="figure_1">
  <g id="patch_1">
   <path d="M 0 345.6 
L 460.8 345.6 
L 460.8 0 
L 0 0 
z
" style="fill: #ffffff"/>
  </g>
  <g id="axes_1">
   <g id="patch_2">
    <path d="M 57.6 307.584 
L 414.72 307.584 
L 414.72 41.472 
L 57.6 41.472 
z
" style="fill: #ffffff"/>
   </g>
   <g id="matplotlib.axis_1">
    <g id="xtick_1">
     <g id="line2d_1">
      <defs>
       <path id="m835974b241" d="M 0 0 
L 0 3.5 
" style="stroke: #000000; stroke-width: 0.8"/>
      </defs>
      <g>
       <use xlink:href="#m835974b241" x="73.832727" y="307.584" style="stroke: #000000; stroke-width: 0.8"/>
      </g>
     </g>
     <g id="text_1">
      <!-- 0 -->
      <g transform="translate(69.060852 325.981656) scale(0.15 -0.15)">
       <defs>
        <path id="DejaVuSans-30" d="M 2034 4250 
Q 1547 4250 1301 3770 
Q 1056 3291 1056 2328 
Q 1056 1369 1301 889 
Q 1547 409 2034 409 
Q 2525 409 2770 889 
Q 3016 1369 3016 2328 
Q 3016 3291 2770 3770 
Q 2525 4250 2034 4250 
z
M 2034 4750 
Q 2819 4750 3233 4129 
Q 3647 3509 3647 2328 
Q 3647 1150 3233 529 
Q 2819 -91 2034 -91 
Q 1250 -91 836 529 
Q 422 1150 422 2328 
Q 422 3509 836 4129 
Q 1250 4750 2034 4750 
z
" transform="scale(0.015625)"/>
       </defs>
       <use xlink:href="#DejaVuSans-30"/>
      </g>
     </g>
    </g>
    <g id="xtick_2">
     <g id="line2d_2">
      <g>
       <use xlink:href="#m835974b241" x="154.996364" y="307.584" style="stroke: #000000; stroke-width: 0.8"/>
      </g>
     </g>
     <g id="text_2">
      <!-- 5 -->
      <g transform="translate(150.224489 325.981656) scale(0.15 -0.15)">
       <defs>
        <path id="DejaVuSans-35" d="M 691 4666 
L 3169 4666 
L 3169 4134 
L 1269 4134 
L 1269 2991 
Q 1406 3038 1543 3061 
Q 1681 3084 1819 3084 
Q 2600 3084 3056 2656 
Q 3513 2228 3513 1497 
Q 3513 744 3044 326 
Q 2575 -91 1722 -91 
Q 1428 -91 1123 -41 
Q 819 9 494 109 
L 494 744 
Q 775 591 1075 516 
Q 1375 441 1709 441 
Q 2250 441 2565 725 
Q 2881 1009 2881 1497 
Q 2881 1984 2565 2268 
Q 2250 2553 1709 2553 
Q 1456 2553 1204 2497 
Q 953 2441 691 2322 
L 691 4666 
z
" transform="scale(0.015625)"/>
       </defs>
       <use xlink:href="#DejaVuSans-35"/>
      </g>
     </g>
    </g>
    <g id="xtick_3">
     <g id="line2d_3">
      <g>
       <use xlink:href="#m835974b241" x="236.16" y="307.584" style="stroke: #000000; stroke-width: 0.8"/>
      </g>
     </g>
     <g id="text_3">
      <!-- 10 -->
      <g transform="translate(226.61625 325.981656) scale(0.15 -0.15)">
       <defs>
        <path id="DejaVuSans-31" d="M 794 531 
L 1825 531 
L 1825 4091 
L 703 3866 
L 703 4441 
L 1819 4666 
L 2450 4666 
L 2450 531 
L 3481 531 
L 3481 0 
L 794 0 
L 794 531 
z
" transform="scale(0.015625)"/>
       </defs>
       <use xlink:href="#DejaVuSans-31"/>
       <use xlink:href="#DejaVuSans-30" transform="translate(63.623047 0)"/>
      </g>
     </g>
    </g>
    <g id="xtick_4">
     <g id="line2d_4">
      <g>
       <use xlink:href="#m835974b241" x="317.323636" y="307.584" style="stroke: #000000; stroke-width: 0.8"/>
      </g>
     </g>
     <g id="text_4">
      <!-- 15 -->
      <g transform="translate(307.779886 325.981656) scale(0.15 -0.15)">
       <use xlink:href="#DejaVuSans-31"/>
       <use xlink:href="#DejaVuSans-35" transform="translate(63.623047 0)"/>
      </g>
     </g>
    </g>
    <g id="xtick_5">
     <g id="line2d_5">
      <g>
       <use xlink:href="#m835974b241" x="398.487273" y="307.584" style="stroke: #000000; stroke-width: 0.8"/>
      </g>
     </g>
     <g id="text_5">
      <!-- 20 -->
      <g transform="translate(388.943523 325.981656) scale(0.15 -0.15)">
       <defs>
        <path id="DejaVuSans-32" d="M 1228 531 
L 3431 531 
L 3431 0 
L 469 0 
L 469 531 
Q 828 903 1448 1529 
Q 2069 2156 2228 2338 
Q 2531 2678 2651 2914 
Q 2772 3150 2772 3378 
Q 2772 3750 2511 3984 
Q 2250 4219 1831 4219 
Q 1534 4219 1204 4116 
Q 875 4013 500 3803 
L 500 4441 
Q 881 4594 1212 4672 
Q 1544 4750 1819 4750 
Q 2544 4750 2975 4387 
Q 3406 4025 3406 3419 
Q 3406 3131 3298 2873 
Q 3191 2616 2906 2266 
Q 2828 2175 2409 1742 
Q 1991 1309 1228 531 
z
" transform="scale(0.015625)"/>
       </defs>
       <use xlink:href="#DejaVuSans-32"/>
       <use xlink:href="#DejaVuSans-30" transform="translate(63.623047 0)"/>
      </g>
     </g>
    </g>
   </g>
   <g id="matplotlib.axis_2">
    <g id="ytick_1">
     <g id="line2d_6">
      <defs>
       <path id="m65ba89c297" d="M 0 0 
L -3.5 0 
" style="stroke: #000000; stroke-width: 0.8"/>
      </defs>
      <g>
       <use xlink:href="#m65ba89c297" x="57.6" y="260.906279" style="stroke: #000000; stroke-width: 0.8"/>
      </g>
     </g>
     <g id="text_6">
      <!-- 5 -->
      <g transform="translate(41.05625 266.605107) scale(0.15 -0.15)">
       <use xlink:href="#DejaVuSans-35"/>
      </g>
     </g>
    </g>
    <g id="ytick_2">
     <g id="line2d_7">
      <g>
       <use xlink:href="#m65ba89c297" x="57.6" y="198.993707" style="stroke: #000000; stroke-width: 0.8"/>
      </g>
     </g>
     <g id="text_7">
      <!-- 10 -->
      <g transform="translate(31.5125 204.692535) scale(0.15 -0.15)">
       <use xlink:href="#DejaVuSans-31"/>
       <use xlink:href="#DejaVuSans-30" transform="translate(63.623047 0)"/>
      </g>
     </g>
    </g>
    <g id="ytick_3">
     <g id="line2d_8">
      <g>
       <use xlink:href="#m65ba89c297" x="57.6" y="137.081135" style="stroke: #000000; stroke-width: 0.8"/>
      </g>
     </g>
     <g id="text_8">
      <!-- 15 -->
      <g transform="translate(31.5125 142.779963) scale(0.15 -0.15)">
       <use xlink:href="#DejaVuSans-31"/>
       <use xlink:href="#DejaVuSans-35" transform="translate(63.623047 0)"/>
      </g>
     </g>
    </g>
    <g id="ytick_4">
     <g id="line2d_9">
      <g>
       <use xlink:href="#m65ba89c297" x="57.6" y="75.168563" style="stroke: #000000; stroke-width: 0.8"/>
      </g>
     </g>
     <g id="text_9">
      <!-- 20 -->
      <g transform="translate(31.5125 80.867391) scale(0.15 -0.15)">
       <use xlink:href="#DejaVuSans-32"/>
       <use xlink:href="#DejaVuSans-30" transform="translate(63.623047 0)"/>
      </g>
     </g>
    </g>
   </g>
   <g id="line2d_10">
    <path d="M 73.832727 219.263847 
L 90.065455 174.387417 
L 106.298182 170.938645 
L 122.530909 135.068941 
L 138.763636 206.725523 
L 154.996364 198.945721 
L 171.229091 198.389975 
L 187.461818 166.623818 
L 203.694545 186.491212 
L 219.927273 198.56376 
L 236.16 223.713509 
L 252.392727 206.302316 
L 268.625455 220.660505 
L 284.858182 230.454967 
L 301.090909 203.061186 
L 317.323636 218.625828 
L 333.556364 207.018366 
L 349.789091 218.87892 
L 366.021818 183.455934 
L 382.254545 204.402072 
L 398.487273 204.859828 
" clip-path="url(#p7bb686bb5f)" style="fill: none; stroke: #35b779; stroke-opacity: 0.5; stroke-width: 1.5; stroke-linecap: square"/>
   </g>
   <g id="line2d_11">
    <path d="M 73.832727 199.932401 
L 90.065455 163.70328 
L 106.298182 187.223208 
L 122.530909 173.755124 
L 138.763636 149.320197 
L 154.996364 197.762509 
L 171.229091 218.221373 
L 187.461818 230.341652 
L 203.694545 229.713807 
L 219.927273 237.19828 
L 236.16 248.803062 
L 252.392727 249.477601 
L 268.625455 207.884834 
L 284.858182 218.486165 
L 301.090909 241.574752 
L 317.323636 230.184881 
L 333.556364 207.725187 
L 349.789091 236.391532 
L 366.021818 230.853085 
L 382.254545 222.182654 
L 398.487273 228.100848 
" clip-path="url(#p7bb686bb5f)" style="fill: none; stroke: #35b779; stroke-opacity: 0.5; stroke-width: 1.5; stroke-linecap: square"/>
   </g>
   <g id="line2d_12">
    <path d="M 73.832727 238.638317 
L 90.065455 220.673107 
L 106.298182 215.30758 
L 122.530909 239.510969 
L 138.763636 194.952748 
L 154.996364 246.474031 
L 171.229091 165.287211 
L 187.461818 216.772976 
L 203.694545 254.89843 
L 219.927273 211.794473 
L 236.16 237.184175 
L 252.392727 212.433608 
L 268.625455 200.658716 
L 284.858182 196.921637 
L 301.090909 190.167584 
L 317.323636 144.222965 
L 333.556364 158.297897 
L 349.789091 166.020066 
L 366.021818 236.586619 
L 382.254545 235.784944 
L 398.487273 240.133899 
" clip-path="url(#p7bb686bb5f)" style="fill: none; stroke: #35b779; stroke-opacity: 0.5; stroke-width: 1.5; stroke-linecap: square"/>
   </g>
   <g id="line2d_13">
    <path d="M 73.832727 241.129822 
L 90.065455 229.471727 
L 106.298182 228.357165 
L 122.530909 254.439122 
L 138.763636 236.292526 
L 154.996364 258.892234 
L 171.229091 244.335425 
L 187.461818 258.505806 
L 203.694545 285.382268 
L 219.927273 270.747507 
L 236.16 283.979213 
L 252.392727 280.771817 
L 268.625455 283.02296 
L 284.858182 278.698382 
L 301.090909 276.622119 
L 317.323636 272.19366 
L 333.556364 268.875089 
L 349.789091 272.725454 
L 366.021818 281.522315 
L 382.254545 268.71351 
L 398.487273 281.36244 
" clip-path="url(#p7bb686bb5f)" style="fill: none; stroke: #35b779; stroke-opacity: 0.5; stroke-width: 1.5; stroke-linecap: square"/>
   </g>
   <g id="line2d_14">
    <path d="M 73.832727 228.024302 
L 90.065455 270.240729 
L 106.298182 263.509772 
L 122.530909 277.796366 
L 138.763636 250.827183 
L 154.996364 274.99176 
L 171.229091 264.470958 
L 187.461818 233.594098 
L 203.694545 285.801716 
L 219.927273 292.336986 
L 236.16 279.011904 
L 252.392727 278.994992 
L 268.625455 277.940447 
L 284.858182 282.990864 
L 301.090909 276.047862 
L 317.323636 278.254997 
L 333.556364 282.969773 
L 349.789091 275.776867 
L 366.021818 273.834725 
L 382.254545 287.145757 
L 398.487273 275.779765 
" clip-path="url(#p7bb686bb5f)" style="fill: none; stroke: #35b779; stroke-opacity: 0.5; stroke-width: 1.5; stroke-linecap: square"/>
   </g>
   <g id="line2d_15">
    <path d="M 73.832727 196.983906 
L 90.065455 259.526236 
L 106.298182 241.771877 
L 122.530909 258.093593 
L 138.763636 249.766365 
L 154.996364 270.051159 
L 171.229091 255.809422 
L 187.461818 213.035054 
L 203.694545 284.944944 
L 219.927273 260.137206 
L 236.16 237.840549 
L 252.392727 245.151245 
L 268.625455 265.20321 
L 284.858182 278.415486 
L 301.090909 277.963525 
L 317.323636 266.002199 
L 333.556364 277.65206 
L 349.789091 267.138004 
L 366.021818 263.761059 
L 382.254545 245.021699 
L 398.487273 263.684455 
" clip-path="url(#p7bb686bb5f)" style="fill: none; stroke: #35b779; stroke-opacity: 0.5; stroke-width: 1.5; stroke-linecap: square"/>
   </g>
   <g id="line2d_16">
    <path d="M 73.832727 235.725251 
L 90.065455 243.047054 
L 106.298182 247.554146 
L 122.530909 252.717404 
L 138.763636 284.293904 
L 154.996364 272.766538 
L 171.229091 281.482411 
L 187.461818 153.966029 
L 203.694545 270.431923 
L 219.927273 271.08301 
L 236.16 221.022846 
L 252.392727 255.063641 
L 268.625455 227.412542 
L 284.858182 257.362701 
L 301.090909 267.653599 
L 317.323636 257.609358 
L 333.556364 251.461737 
L 349.789091 198.922952 
L 366.021818 237.312596 
L 382.254545 284.506283 
L 398.487273 212.725997 
" clip-path="url(#p7bb686bb5f)" style="fill: none; stroke: #35b779; stroke-opacity: 0.5; stroke-width: 1.5; stroke-linecap: square"/>
   </g>
   <g id="line2d_17">
    <path d="M 73.832727 187.53156 
L 90.065455 272.478629 
L 106.298182 274.002687 
L 122.530909 272.043387 
L 138.763636 266.35858 
L 154.996364 257.764263 
L 171.229091 259.111858 
L 187.461818 269.16184 
L 203.694545 264.947682 
L 219.927273 276.241408 
L 236.16 244.957725 
L 252.392727 281.858191 
L 268.625455 248.88938 
L 284.858182 258.426442 
L 301.090909 266.637668 
L 317.323636 279.808429 
L 333.556364 243.824866 
L 349.789091 234.623983 
L 366.021818 272.225671 
L 382.254545 279.223198 
L 398.487273 250.611431 
" clip-path="url(#p7bb686bb5f)" style="fill: none; stroke: #35b779; stroke-opacity: 0.5; stroke-width: 1.5; stroke-linecap: square"/>
   </g>
   <g id="line2d_18">
    <path d="M 73.832727 220.749271 
L 90.065455 151.17877 
L 106.298182 164.023055 
L 122.530909 156.562728 
L 138.763636 251.84403 
L 154.996364 223.016914 
L 171.229091 207.756086 
L 187.461818 212.325233 
L 203.694545 256.099151 
L 219.927273 258.426064 
L 236.16 251.157339 
L 252.392727 264.638503 
L 268.625455 248.466914 
L 284.858182 272.02566 
L 301.090909 265.484695 
L 317.323636 242.250391 
L 333.556364 254.925366 
L 349.789091 228.200732 
L 366.021818 277.274722 
L 382.254545 243.410421 
L 398.487273 247.131814 
" clip-path="url(#p7bb686bb5f)" style="fill: none; stroke: #35b779; stroke-opacity: 0.5; stroke-width: 1.5; stroke-linecap: square"/>
   </g>
   <g id="line2d_19">
    <path d="M 73.832727 181.298986 
L 90.065455 109.559411 
L 106.298182 169.941365 
L 122.530909 162.276969 
L 138.763636 120.052657 
L 154.996364 194.851799 
L 171.229091 184.611956 
L 187.461818 176.647088 
L 203.694545 241.301023 
L 219.927273 250.222663 
L 236.16 248.438857 
L 252.392727 244.605331 
L 268.625455 239.491871 
L 284.858182 248.326591 
L 301.090909 234.64648 
L 317.323636 230.150263 
L 333.556364 257.478859 
L 349.789091 252.622802 
L 366.021818 235.979668 
L 382.254545 250.116774 
L 398.487273 238.184501 
" clip-path="url(#p7bb686bb5f)" style="fill: none; stroke: #35b779; stroke-opacity: 0.5; stroke-width: 1.5; stroke-linecap: square"/>
   </g>
   <g id="line2d_20">
    <path d="M 73.832727 242.431417 
L 90.065455 187.726583 
L 106.298182 187.646242 
L 122.530909 256.234586 
L 138.763636 243.413745 
L 154.996364 256.556018 
L 171.229091 275.720303 
L 187.461818 258.744462 
L 203.694545 250.037132 
L 219.927273 262.675313 
L 236.16 233.803802 
L 252.392727 275.888014 
L 268.625455 287.312082 
L 284.858182 282.671764 
L 301.090909 290.092756 
L 317.323636 273.655331 
L 333.556364 267.522547 
L 349.789091 275.845993 
L 366.021818 278.636142 
L 382.254545 278.408578 
L 398.487273 273.73377 
" clip-path="url(#p7bb686bb5f)" style="fill: none; stroke: #35b779; stroke-opacity: 0.5; stroke-width: 1.5; stroke-linecap: square"/>
   </g>
   <g id="line2d_21">
    <path d="M 73.832727 255.070233 
L 90.065455 200.579962 
L 106.298182 224.697884 
L 122.530909 246.550074 
L 138.763636 234.218229 
L 154.996364 269.248011 
L 171.229091 280.473699 
L 187.461818 265.909063 
L 203.694545 271.282244 
L 219.927273 279.628307 
L 236.16 272.194524 
L 252.392727 271.915253 
L 268.625455 284.426233 
L 284.858182 281.361716 
L 301.090909 277.418272 
L 317.323636 281.222946 
L 333.556364 279.62928 
L 349.789091 230.357158 
L 366.021818 278.845712 
L 382.254545 281.312738 
L 398.487273 268.748611 
" clip-path="url(#p7bb686bb5f)" style="fill: none; stroke: #35b779; stroke-opacity: 0.5; stroke-width: 1.5; stroke-linecap: square"/>
   </g>
   <g id="line2d_22">
    <path d="M 73.832727 241.5523 
L 90.065455 243.325714 
L 106.298182 251.565518 
L 122.530909 255.115621 
L 138.763636 258.990291 
L 154.996364 237.639999 
L 171.229091 227.351888 
L 187.461818 258.178243 
L 203.694545 233.363646 
L 219.927273 271.112644 
L 236.16 266.585416 
L 252.392727 250.663162 
L 268.625455 281.399898 
L 284.858182 234.05144 
L 301.090909 257.859694 
L 317.323636 281.789265 
L 333.556364 271.395432 
L 349.789091 277.558243 
L 366.021818 282.99521 
L 382.254545 285.843623 
L 398.487273 276.160408 
" clip-path="url(#p7bb686bb5f)" style="fill: none; stroke: #35b779; stroke-opacity: 0.5; stroke-width: 1.5; stroke-linecap: square"/>
   </g>
   <g id="line2d_23">
    <path d="M 73.832727 239.135538 
L 90.065455 243.456718 
L 106.298182 243.281307 
L 122.530909 244.931537 
L 138.763636 268.120862 
L 154.996364 252.827303 
L 171.229091 289.653301 
L 187.461818 242.741056 
L 203.694545 263.806565 
L 219.927273 234.923741 
L 236.16 267.325399 
L 252.392727 280.500036 
L 268.625455 268.283598 
L 284.858182 262.646249 
L 301.090909 254.82704 
L 317.323636 282.794615 
L 333.556364 282.233526 
L 349.789091 248.993577 
L 366.021818 222.745206 
L 382.254545 237.744017 
L 398.487273 257.892835 
" clip-path="url(#p7bb686bb5f)" style="fill: none; stroke: #35b779; stroke-opacity: 0.5; stroke-width: 1.5; stroke-linecap: square"/>
   </g>
   <g id="line2d_24">
    <path d="M 73.832727 168.363519 
L 90.065455 173.801905 
L 106.298182 175.256396 
L 122.530909 193.633867 
L 138.763636 216.178402 
L 154.996364 192.166084 
L 171.229091 242.913801 
L 187.461818 238.620324 
L 203.694545 243.514103 
L 219.927273 232.128805 
L 236.16 257.442812 
L 252.392727 265.889495 
L 268.625455 260.944718 
L 284.858182 258.189685 
L 301.090909 249.236405 
L 317.323636 263.950769 
L 333.556364 269.648166 
L 349.789091 266.100646 
L 366.021818 264.123905 
L 382.254545 266.627824 
L 398.487273 253.888864 
" clip-path="url(#p7bb686bb5f)" style="fill: none; stroke: #35b779; stroke-opacity: 0.5; stroke-width: 1.5; stroke-linecap: square"/>
   </g>
   <g id="line2d_25">
    <path d="M 73.832727 236.480648 
L 90.065455 232.422257 
L 106.298182 218.832547 
L 122.530909 214.91298 
L 138.763636 268.36093 
L 154.996364 253.439135 
L 171.229091 263.411221 
L 187.461818 256.325282 
L 203.694545 246.22263 
L 219.927273 286.286649 
L 236.16 287.311317 
L 252.392727 286.021267 
L 268.625455 282.88686 
L 284.858182 263.373764 
L 301.090909 291.816008 
L 317.323636 272.297374 
L 333.556364 269.84376 
L 349.789091 272.37396 
L 366.021818 265.222799 
L 382.254545 273.532591 
L 398.487273 266.074403 
" clip-path="url(#p7bb686bb5f)" style="fill: none; stroke: #35b779; stroke-opacity: 0.5; stroke-width: 1.5; stroke-linecap: square"/>
   </g>
   <g id="line2d_26">
    <path d="M 73.832727 139.739275 
L 90.065455 154.398541 
L 106.298182 112.958715 
L 122.530909 177.423723 
L 138.763636 197.960271 
L 154.996364 207.730295 
L 171.229091 195.807761 
L 187.461818 203.238136 
L 203.694545 166.552729 
L 219.927273 198.832052 
L 236.16 214.713109 
L 252.392727 162.953708 
L 268.625455 119.38963 
L 284.858182 199.480242 
L 301.090909 139.977561 
L 317.323636 223.767578 
L 333.556364 212.748761 
L 349.789091 236.444994 
L 366.021818 231.094522 
L 382.254545 207.209608 
L 398.487273 202.329838 
" clip-path="url(#p7bb686bb5f)" style="fill: none; stroke: #35b779; stroke-opacity: 0.5; stroke-width: 1.5; stroke-linecap: square"/>
   </g>
   <g id="line2d_27">
    <path d="M 73.832727 53.568 
L 90.065455 180.205319 
L 106.298182 219.663862 
L 122.530909 189.462681 
L 138.763636 177.845919 
L 154.996364 168.078597 
L 171.229091 212.184699 
L 187.461818 204.894671 
L 203.694545 167.537955 
L 219.927273 197.982208 
L 236.16 184.490821 
L 252.392727 151.594046 
L 268.625455 226.05013 
L 284.858182 176.856865 
L 301.090909 208.433066 
L 317.323636 169.484868 
L 333.556364 165.467212 
L 349.789091 165.788043 
L 366.021818 190.534651 
L 382.254545 213.758587 
L 398.487273 148.244214 
" clip-path="url(#p7bb686bb5f)" style="fill: none; stroke: #35b779; stroke-opacity: 0.5; stroke-width: 1.5; stroke-linecap: square"/>
   </g>
   <g id="line2d_28">
    <path d="M 73.832727 231.214073 
L 90.065455 262.263274 
L 106.298182 258.955815 
L 122.530909 267.382826 
L 138.763636 273.350734 
L 154.996364 266.661203 
L 171.229091 263.384436 
L 187.461818 285.758329 
L 203.694545 267.82633 
L 219.927273 226.211895 
L 236.16 258.102644 
L 252.392727 271.757587 
L 268.625455 283.864032 
L 284.858182 262.550124 
L 301.090909 286.684042 
L 317.323636 266.448232 
L 333.556364 280.9776 
L 349.789091 268.575395 
L 366.021818 245.059787 
L 382.254545 218.543763 
L 398.487273 248.441335 
" clip-path="url(#p7bb686bb5f)" style="fill: none; stroke: #35b779; stroke-opacity: 0.5; stroke-width: 1.5; stroke-linecap: square"/>
   </g>
   <g id="line2d_29">
    <path d="M 73.832727 197.610319 
L 90.065455 197.6905 
L 106.298182 215.030314 
L 122.530909 211.117995 
L 138.763636 247.202656 
L 154.996364 234.457817 
L 171.229091 265.73242 
L 187.461818 226.707926 
L 203.694545 232.355308 
L 219.927273 254.092613 
L 236.16 237.012015 
L 252.392727 254.716611 
L 268.625455 234.787836 
L 284.858182 212.859507 
L 301.090909 231.97088 
L 317.323636 241.145654 
L 333.556364 235.330418 
L 349.789091 273.556551 
L 366.021818 232.803839 
L 382.254545 202.850881 
L 398.487273 243.626526 
" clip-path="url(#p7bb686bb5f)" style="fill: none; stroke: #35b779; stroke-opacity: 0.5; stroke-width: 1.5; stroke-linecap: square"/>
   </g>
   <g id="line2d_30">
    <path d="M 73.832727 220.819114 
L 90.065455 242.544495 
L 106.298182 265.140934 
L 122.530909 253.53293 
L 138.763636 240.371905 
L 154.996364 269.231285 
L 171.229091 255.523905 
L 187.461818 263.062608 
L 203.694545 261.398111 
L 219.927273 253.83481 
L 236.16 260.716918 
L 252.392727 278.256853 
L 268.625455 249.419919 
L 284.858182 279.020771 
L 301.090909 271.853296 
L 317.323636 286.88778 
L 333.556364 277.415809 
L 349.789091 267.910981 
L 366.021818 279.798588 
L 382.254545 249.416178 
L 398.487273 288.015843 
" clip-path="url(#p7bb686bb5f)" style="fill: none; stroke: #35b779; stroke-opacity: 0.5; stroke-width: 1.5; stroke-linecap: square"/>
   </g>
   <g id="line2d_31">
    <path d="M 73.832727 206.175951 
L 90.065455 254.527778 
L 106.298182 240.676956 
L 122.530909 213.881025 
L 138.763636 255.567097 
L 154.996364 248.420637 
L 171.229091 246.768015 
L 187.461818 241.489371 
L 203.694545 237.565191 
L 219.927273 254.112416 
L 236.16 257.502706 
L 252.392727 250.748057 
L 268.625455 268.555779 
L 284.858182 255.606831 
L 301.090909 247.815173 
L 317.323636 213.684845 
L 333.556364 276.045796 
L 349.789091 237.175822 
L 366.021818 249.840902 
L 382.254545 263.042122 
L 398.487273 247.667211 
" clip-path="url(#p7bb686bb5f)" style="fill: none; stroke: #35b779; stroke-opacity: 0.5; stroke-width: 1.5; stroke-linecap: square"/>
   </g>
   <g id="line2d_32">
    <path d="M 73.832727 260.896263 
L 90.065455 266.792855 
L 106.298182 275.103603 
L 122.530909 264.492696 
L 138.763636 253.735125 
L 154.996364 265.943384 
L 171.229091 274.537957 
L 187.461818 282.046936 
L 203.694545 272.856791 
L 219.927273 267.690213 
L 236.16 272.495328 
L 252.392727 264.929273 
L 268.625455 263.923004 
L 284.858182 278.456874 
L 301.090909 264.431359 
L 317.323636 272.869596 
L 333.556364 266.447127 
L 349.789091 257.692034 
L 366.021818 274.373918 
L 382.254545 286.052704 
L 398.487273 254.967062 
" clip-path="url(#p7bb686bb5f)" style="fill: none; stroke: #35b779; stroke-opacity: 0.5; stroke-width: 1.5; stroke-linecap: square"/>
   </g>
   <g id="line2d_33">
    <path d="M 73.832727 205.800041 
L 90.065455 206.941703 
L 106.298182 216.9075 
L 122.530909 203.335716 
L 138.763636 229.912738 
L 154.996364 197.561013 
L 171.229091 157.010105 
L 187.461818 226.929369 
L 203.694545 208.336767 
L 219.927273 255.189964 
L 236.16 248.043148 
L 252.392727 211.197724 
L 268.625455 221.617719 
L 284.858182 235.318379 
L 301.090909 249.978013 
L 317.323636 228.45641 
L 333.556364 176.896161 
L 349.789091 234.775007 
L 366.021818 243.625998 
L 382.254545 248.256069 
L 398.487273 141.659686 
" clip-path="url(#p7bb686bb5f)" style="fill: none; stroke: #35b779; stroke-opacity: 0.5; stroke-width: 1.5; stroke-linecap: square"/>
   </g>
   <g id="line2d_34">
    <path d="M 73.832727 265.24547 
L 90.065455 265.150968 
L 106.298182 242.303244 
L 122.530909 233.560333 
L 138.763636 248.354193 
L 154.996364 235.51724 
L 171.229091 181.255395 
L 187.461818 227.63672 
L 203.694545 259.325465 
L 219.927273 259.413938 
L 236.16 254.117129 
L 252.392727 252.413764 
L 268.625455 279.56946 
L 284.858182 266.875884 
L 301.090909 247.014601 
L 317.323636 244.776155 
L 333.556364 267.772353 
L 349.789091 256.919904 
L 366.021818 239.507002 
L 382.254545 244.978628 
L 398.487273 281.208382 
" clip-path="url(#p7bb686bb5f)" style="fill: none; stroke: #35b779; stroke-opacity: 0.5; stroke-width: 1.5; stroke-linecap: square"/>
   </g>
   <g id="line2d_35">
    <path d="M 73.832727 222.193512 
L 90.065455 232.020553 
L 106.298182 256.549606 
L 122.530909 245.04821 
L 138.763636 248.075314 
L 154.996364 248.273424 
L 171.229091 250.477056 
L 187.461818 120.528757 
L 203.694545 249.324532 
L 219.927273 269.01118 
L 236.16 279.999324 
L 252.392727 292.386064 
L 268.625455 267.849752 
L 284.858182 276.844682 
L 301.090909 277.227523 
L 317.323636 283.208885 
L 333.556364 277.461509 
L 349.789091 274.496831 
L 366.021818 275.913905 
L 382.254545 266.103707 
L 398.487273 275.496616 
" clip-path="url(#p7bb686bb5f)" style="fill: none; stroke: #35b779; stroke-opacity: 0.5; stroke-width: 1.5; stroke-linecap: square"/>
   </g>
   <g id="line2d_36">
    <path d="M 73.832727 126.744274 
L 90.065455 200.794937 
L 106.298182 182.744495 
L 122.530909 224.256563 
L 138.763636 197.150552 
L 154.996364 208.529182 
L 171.229091 211.29611 
L 187.461818 235.888971 
L 203.694545 256.649599 
L 219.927273 220.966077 
L 236.16 254.878407 
L 252.392727 189.14111 
L 268.625455 255.635094 
L 284.858182 249.265065 
L 301.090909 258.295612 
L 317.323636 245.044116 
L 333.556364 246.637347 
L 349.789091 231.081795 
L 366.021818 204.525078 
L 382.254545 233.993785 
L 398.487273 256.684735 
" clip-path="url(#p7bb686bb5f)" style="fill: none; stroke: #35b779; stroke-opacity: 0.5; stroke-width: 1.5; stroke-linecap: square"/>
   </g>
   <g id="line2d_37">
    <path d="M 73.832727 235.128091 
L 90.065455 232.456884 
L 106.298182 257.441942 
L 122.530909 236.025163 
L 138.763636 258.357822 
L 154.996364 183.77649 
L 171.229091 242.247229 
L 187.461818 249.784587 
L 203.694545 262.683786 
L 219.927273 244.42074 
L 236.16 255.416242 
L 252.392727 249.808218 
L 268.625455 254.666479 
L 284.858182 239.037184 
L 301.090909 232.773545 
L 317.323636 243.648766 
L 333.556364 226.166974 
L 349.789091 231.841359 
L 366.021818 247.016725 
L 382.254545 248.302031 
L 398.487273 258.206068 
" clip-path="url(#p7bb686bb5f)" style="fill: none; stroke: #35b779; stroke-opacity: 0.5; stroke-width: 1.5; stroke-linecap: square"/>
   </g>
   <g id="line2d_38">
    <path d="M 73.832727 235.306456 
L 90.065455 216.707809 
L 106.298182 213.14417 
L 122.530909 207.653827 
L 138.763636 238.900339 
L 154.996364 230.086404 
L 171.229091 237.268017 
L 187.461818 259.079139 
L 203.694545 249.479147 
L 219.927273 237.094056 
L 236.16 264.929264 
L 252.392727 241.770725 
L 268.625455 241.414549 
L 284.858182 247.203544 
L 301.090909 241.517714 
L 317.323636 248.019299 
L 333.556364 245.713699 
L 349.789091 254.466454 
L 366.021818 241.721719 
L 382.254545 255.324113 
L 398.487273 255.672017 
" clip-path="url(#p7bb686bb5f)" style="fill: none; stroke: #35b779; stroke-opacity: 0.5; stroke-width: 1.5; stroke-linecap: square"/>
   </g>
   <g id="line2d_39">
    <path d="M 73.832727 107.556134 
L 90.065455 240.488634 
L 106.298182 225.20382 
L 122.530909 233.275871 
L 138.763636 256.023515 
L 154.996364 228.173417 
L 171.229091 255.166931 
L 187.461818 254.275038 
L 203.694545 265.452028 
L 219.927273 276.590159 
L 236.16 272.887379 
L 252.392727 275.942777 
L 268.625455 273.469997 
L 284.858182 279.918724 
L 301.090909 279.457205 
L 317.323636 274.903296 
L 333.556364 262.723362 
L 349.789091 280.327299 
L 366.021818 274.435857 
L 382.254545 268.215147 
L 398.487273 261.469496 
" clip-path="url(#p7bb686bb5f)" style="fill: none; stroke: #35b779; stroke-opacity: 0.5; stroke-width: 1.5; stroke-linecap: square"/>
   </g>
   <g id="line2d_40">
    <path d="M 73.832727 209.202084 
L 90.065455 220.315295 
L 106.298182 222.15258 
L 122.530909 226.805319 
L 138.763636 211.656219 
L 154.996364 241.7451 
L 171.229091 223.843756 
L 187.461818 235.013052 
L 203.694545 240.176395 
L 219.927273 245.785826 
L 236.16 241.715113 
L 252.392727 246.78644 
L 268.625455 246.618338 
L 284.858182 259.431047 
L 301.090909 240.414626 
L 317.323636 245.815674 
L 333.556364 237.508159 
L 349.789091 253.688381 
L 366.021818 249.30736 
L 382.254545 242.516789 
L 398.487273 239.791727 
" clip-path="url(#p7bb686bb5f)" style="fill: none; stroke: #35b779; stroke-opacity: 0.5; stroke-width: 1.5; stroke-linecap: square"/>
   </g>
   <g id="line2d_41">
    <path d="M 73.832727 223.600881 
L 90.065455 223.606502 
L 106.298182 201.319597 
L 122.530909 222.614799 
L 138.763636 204.930514 
L 154.996364 200.123929 
L 171.229091 275.209644 
L 187.461818 282.203844 
L 203.694545 185.679966 
L 219.927273 230.193659 
L 236.16 247.542157 
L 252.392727 235.587264 
L 268.625455 204.640553 
L 284.858182 224.338701 
L 301.090909 258.599992 
L 317.323636 250.349046 
L 333.556364 255.128521 
L 349.789091 250.143415 
L 366.021818 270.229443 
L 382.254545 267.993172 
L 398.487273 234.011128 
" clip-path="url(#p7bb686bb5f)" style="fill: none; stroke: #35b779; stroke-opacity: 0.5; stroke-width: 1.5; stroke-linecap: square"/>
   </g>
   <g id="line2d_42">
    <path d="M 73.832727 256.038273 
L 90.065455 237.545103 
L 106.298182 235.806008 
L 122.530909 257.45011 
L 138.763636 249.699191 
L 154.996364 249.142344 
L 171.229091 288.197347 
L 187.461818 283.573173 
L 203.694545 250.202616 
L 219.927273 263.439169 
L 236.16 260.880392 
L 252.392727 261.312353 
L 268.625455 236.072315 
L 284.858182 268.534649 
L 301.090909 270.743322 
L 317.323636 260.91309 
L 333.556364 268.499581 
L 349.789091 249.772138 
L 366.021818 267.177936 
L 382.254545 275.915844 
L 398.487273 264.841563 
" clip-path="url(#p7bb686bb5f)" style="fill: none; stroke: #35b779; stroke-opacity: 0.5; stroke-width: 1.5; stroke-linecap: square"/>
   </g>
   <g id="line2d_43">
    <path d="M 73.832727 229.298811 
L 90.065455 224.709148 
L 106.298182 218.924697 
L 122.530909 266.129688 
L 138.763636 220.711521 
L 154.996364 251.084038 
L 171.229091 219.890589 
L 187.461818 235.077537 
L 203.694545 255.189508 
L 219.927273 182.941149 
L 236.16 229.586093 
L 252.392727 212.921913 
L 268.625455 220.998151 
L 284.858182 240.364102 
L 301.090909 211.151268 
L 317.323636 205.042033 
L 333.556364 126.644833 
L 349.789091 218.841745 
L 366.021818 226.290387 
L 382.254545 222.024162 
L 398.487273 195.045883 
" clip-path="url(#p7bb686bb5f)" style="fill: none; stroke: #35b779; stroke-opacity: 0.5; stroke-width: 1.5; stroke-linecap: square"/>
   </g>
   <g id="line2d_44">
    <path d="M 73.832727 252.773729 
L 90.065455 247.188207 
L 106.298182 222.700282 
L 122.530909 236.259632 
L 138.763636 259.480184 
L 154.996364 267.760344 
L 171.229091 228.593051 
L 187.461818 250.091045 
L 203.694545 280.291784 
L 219.927273 273.032692 
L 236.16 262.910116 
L 252.392727 270.692905 
L 268.625455 283.21583 
L 284.858182 266.514673 
L 301.090909 277.218785 
L 317.323636 272.488383 
L 333.556364 248.488134 
L 349.789091 262.773619 
L 366.021818 264.579766 
L 382.254545 273.28407 
L 398.487273 276.528781 
" clip-path="url(#p7bb686bb5f)" style="fill: none; stroke: #35b779; stroke-opacity: 0.5; stroke-width: 1.5; stroke-linecap: square"/>
   </g>
   <g id="line2d_45">
    <path d="M 73.832727 186.406447 
L 90.065455 252.071903 
L 106.298182 250.52043 
L 122.530909 236.061759 
L 138.763636 281.918375 
L 154.996364 283.640966 
L 171.229091 235.2917 
L 187.461818 220.305326 
L 203.694545 199.361493 
L 219.927273 263.335709 
L 236.16 262.773458 
L 252.392727 230.892735 
L 268.625455 260.155887 
L 284.858182 207.024771 
L 301.090909 217.532165 
L 317.323636 265.266436 
L 333.556364 277.975282 
L 349.789091 275.067103 
L 366.021818 257.598863 
L 382.254545 270.963838 
L 398.487273 277.44887 
" clip-path="url(#p7bb686bb5f)" style="fill: none; stroke: #35b779; stroke-opacity: 0.5; stroke-width: 1.5; stroke-linecap: square"/>
   </g>
   <g id="line2d_46">
    <path d="M 73.832727 262.741532 
L 90.065455 262.281124 
L 106.298182 255.66359 
L 122.530909 253.519644 
L 138.763636 261.80782 
L 154.996364 268.400283 
L 171.229091 274.460794 
L 187.461818 272.407004 
L 203.694545 260.977383 
L 219.927273 272.238442 
L 236.16 262.194454 
L 252.392727 271.931837 
L 268.625455 266.235856 
L 284.858182 265.707553 
L 301.090909 283.201878 
L 317.323636 270.318612 
L 333.556364 265.626571 
L 349.789091 263.724421 
L 366.021818 271.329063 
L 382.254545 246.084615 
L 398.487273 268.905635 
" clip-path="url(#p7bb686bb5f)" style="fill: none; stroke: #35b779; stroke-opacity: 0.5; stroke-width: 1.5; stroke-linecap: square"/>
   </g>
   <g id="line2d_47">
    <path d="M 73.832727 216.902063 
L 90.065455 235.650299 
L 106.298182 235.581705 
L 122.530909 234.867133 
L 138.763636 239.762184 
L 154.996364 245.362577 
L 171.229091 211.236344 
L 187.461818 218.040533 
L 203.694545 191.518423 
L 219.927273 241.233243 
L 236.16 241.16366 
L 252.392727 253.787721 
L 268.625455 248.810312 
L 284.858182 245.237333 
L 301.090909 246.517683 
L 317.323636 242.43669 
L 333.556364 242.926912 
L 349.789091 212.946933 
L 366.021818 238.734781 
L 382.254545 246.746432 
L 398.487273 248.095732 
" clip-path="url(#p7bb686bb5f)" style="fill: none; stroke: #35b779; stroke-opacity: 0.5; stroke-width: 1.5; stroke-linecap: square"/>
   </g>
   <g id="line2d_48">
    <path d="M 73.832727 246.335719 
L 90.065455 180.106257 
L 106.298182 208.652363 
L 122.530909 237.084048 
L 138.763636 185.038279 
L 154.996364 249.970546 
L 171.229091 255.190275 
L 187.461818 238.688045 
L 203.694545 268.046637 
L 219.927273 271.165726 
L 236.16 279.72201 
L 252.392727 282.210947 
L 268.625455 249.6014 
L 284.858182 252.943176 
L 301.090909 263.524891 
L 317.323636 255.925951 
L 333.556364 262.989504 
L 349.789091 275.586803 
L 366.021818 295.488 
L 382.254545 254.750535 
L 398.487273 274.532504 
" clip-path="url(#p7bb686bb5f)" style="fill: none; stroke: #35b779; stroke-opacity: 0.5; stroke-width: 1.5; stroke-linecap: square"/>
   </g>
   <g id="line2d_49">
    <path d="M 73.832727 252.823773 
L 90.065455 253.291509 
L 106.298182 255.846005 
L 122.530909 261.174701 
L 138.763636 280.677131 
L 154.996364 281.365423 
L 171.229091 273.114142 
L 187.461818 208.939402 
L 203.694545 174.578033 
L 219.927273 227.484839 
L 236.16 254.618184 
L 252.392727 238.754719 
L 268.625455 255.587781 
L 284.858182 248.835079 
L 301.090909 254.471905 
L 317.323636 263.43077 
L 333.556364 258.787081 
L 349.789091 253.159164 
L 366.021818 227.121883 
L 382.254545 268.789208 
L 398.487273 258.323182 
" clip-path="url(#p7bb686bb5f)" style="fill: none; stroke: #35b779; stroke-opacity: 0.5; stroke-width: 1.5; stroke-linecap: square"/>
   </g>
   <g id="line2d_50">
    <path d="M 73.832727 234.51777 
L 90.065455 219.03954 
L 106.298182 234.928716 
L 122.530909 218.639209 
L 138.763636 242.316125 
L 154.996364 255.2855 
L 171.229091 278.813115 
L 187.461818 258.392797 
L 203.694545 245.154114 
L 219.927273 231.212602 
L 236.16 244.843257 
L 252.392727 241.833831 
L 268.625455 260.91239 
L 284.858182 241.587179 
L 301.090909 224.440367 
L 317.323636 243.383141 
L 333.556364 245.975489 
L 349.789091 244.552693 
L 366.021818 254.462122 
L 382.254545 257.54483 
L 398.487273 243.623857 
" clip-path="url(#p7bb686bb5f)" style="fill: none; stroke: #35b779; stroke-opacity: 0.5; stroke-width: 1.5; stroke-linecap: square"/>
   </g>
   <g id="line2d_51">
    <path d="M 73.832727 241.353194 
L 90.065455 215.148248 
L 106.298182 238.029543 
L 122.530909 232.792521 
L 138.763636 227.786395 
L 154.996364 255.803237 
L 171.229091 221.431179 
L 187.461818 252.589551 
L 203.694545 256.187554 
L 219.927273 207.886984 
L 236.16 225.444194 
L 252.392727 220.835813 
L 268.625455 237.975378 
L 284.858182 229.735936 
L 301.090909 231.849286 
L 317.323636 230.38426 
L 333.556364 175.087182 
L 349.789091 259.388459 
L 366.021818 187.923462 
L 382.254545 237.255865 
L 398.487273 237.651609 
" clip-path="url(#p7bb686bb5f)" style="fill: none; stroke: #35b779; stroke-opacity: 0.5; stroke-width: 1.5; stroke-linecap: square"/>
   </g>
   <g id="line2d_52">
    <path d="M 73.832727 254.784347 
L 90.065455 252.553576 
L 106.298182 253.11006 
L 122.530909 252.365731 
L 138.763636 230.27596 
L 154.996364 239.604962 
L 171.229091 261.213289 
L 187.461818 275.413116 
L 203.694545 255.732832 
L 219.927273 248.315572 
L 236.16 251.390311 
L 252.392727 242.382191 
L 268.625455 250.57956 
L 284.858182 212.810685 
L 301.090909 205.032591 
L 317.323636 211.683943 
L 333.556364 206.009254 
L 349.789091 260.604468 
L 366.021818 258.292733 
L 382.254545 187.647889 
L 398.487273 259.912077 
" clip-path="url(#p7bb686bb5f)" style="fill: none; stroke: #35b779; stroke-opacity: 0.5; stroke-width: 1.5; stroke-linecap: square"/>
   </g>
   <g id="line2d_53">
    <path d="M 73.832727 248.821288 
L 90.065455 231.124297 
L 106.298182 223.138847 
L 122.530909 240.764932 
L 138.763636 258.454337 
L 154.996364 265.214329 
L 171.229091 222.093945 
L 187.461818 261.207901 
L 203.694545 263.556464 
L 219.927273 238.638117 
L 236.16 240.819553 
L 252.392727 221.344603 
L 268.625455 226.749375 
L 284.858182 220.956525 
L 301.090909 231.766511 
L 317.323636 257.583149 
L 333.556364 258.966457 
L 349.789091 269.965434 
L 366.021818 243.679186 
L 382.254545 255.776732 
L 398.487273 268.430273 
" clip-path="url(#p7bb686bb5f)" style="fill: none; stroke: #35b779; stroke-opacity: 0.5; stroke-width: 1.5; stroke-linecap: square"/>
   </g>
   <g id="line2d_54">
    <path d="M 73.832727 172.458494 
L 90.065455 216.802917 
L 106.298182 184.330789 
L 122.530909 236.572259 
L 138.763636 208.280017 
L 154.996364 169.318964 
L 171.229091 245.591924 
L 187.461818 235.340356 
L 203.694545 244.494442 
L 219.927273 249.017004 
L 236.16 261.169866 
L 252.392727 262.872699 
L 268.625455 248.489889 
L 284.858182 248.923924 
L 301.090909 265.12327 
L 317.323636 251.285648 
L 333.556364 257.510212 
L 349.789091 259.195609 
L 366.021818 263.729596 
L 382.254545 178.89619 
L 398.487273 253.138448 
" clip-path="url(#p7bb686bb5f)" style="fill: none; stroke: #35b779; stroke-opacity: 0.5; stroke-width: 1.5; stroke-linecap: square"/>
   </g>
   <g id="patch_3">
    <path d="M 57.6 307.584 
L 57.6 41.472 
" style="fill: none; stroke: #000000; stroke-width: 3; stroke-linejoin: miter; stroke-linecap: square"/>
   </g>
   <g id="patch_4">
    <path d="M 414.72 307.584 
L 414.72 41.472 
" style="fill: none; stroke: #000000; stroke-width: 3; stroke-linejoin: miter; stroke-linecap: square"/>
   </g>
   <g id="patch_5">
    <path d="M 57.6 307.584 
L 414.72 307.584 
" style="fill: none; stroke: #000000; stroke-width: 3; stroke-linejoin: miter; stroke-linecap: square"/>
   </g>
   <g id="patch_6">
    <path d="M 57.6 41.472 
L 414.72 41.472 
" style="fill: none; stroke: #000000; stroke-width: 3; stroke-linejoin: miter; stroke-linecap: square"/>
   </g>
   <g id="text_10">
    <!-- Atom Type O (n=45, mean Q=6.53) -->
    <g transform="translate(39.839219 35.472) scale(0.22 -0.22)">
     <defs>
      <path id="DejaVuSans-41" d="M 2188 4044 
L 1331 1722 
L 3047 1722 
L 2188 4044 
z
M 1831 4666 
L 2547 4666 
L 4325 0 
L 3669 0 
L 3244 1197 
L 1141 1197 
L 716 0 
L 50 0 
L 1831 4666 
z
" transform="scale(0.015625)"/>
      <path id="DejaVuSans-74" d="M 1172 4494 
L 1172 3500 
L 2356 3500 
L 2356 3053 
L 1172 3053 
L 1172 1153 
Q 1172 725 1289 603 
Q 1406 481 1766 481 
L 2356 481 
L 2356 0 
L 1766 0 
Q 1100 0 847 248 
Q 594 497 594 1153 
L 594 3053 
L 172 3053 
L 172 3500 
L 594 3500 
L 594 4494 
L 1172 4494 
z
" transform="scale(0.015625)"/>
      <path id="DejaVuSans-6f" d="M 1959 3097 
Q 1497 3097 1228 2736 
Q 959 2375 959 1747 
Q 959 1119 1226 758 
Q 1494 397 1959 397 
Q 2419 397 2687 759 
Q 2956 1122 2956 1747 
Q 2956 2369 2687 2733 
Q 2419 3097 1959 3097 
z
M 1959 3584 
Q 2709 3584 3137 3096 
Q 3566 2609 3566 1747 
Q 3566 888 3137 398 
Q 2709 -91 1959 -91 
Q 1206 -91 779 398 
Q 353 888 353 1747 
Q 353 2609 779 3096 
Q 1206 3584 1959 3584 
z
" transform="scale(0.015625)"/>
      <path id="DejaVuSans-6d" d="M 3328 2828 
Q 3544 3216 3844 3400 
Q 4144 3584 4550 3584 
Q 5097 3584 5394 3201 
Q 5691 2819 5691 2113 
L 5691 0 
L 5113 0 
L 5113 2094 
Q 5113 2597 4934 2840 
Q 4756 3084 4391 3084 
Q 3944 3084 3684 2787 
Q 3425 2491 3425 1978 
L 3425 0 
L 2847 0 
L 2847 2094 
Q 2847 2600 2669 2842 
Q 2491 3084 2119 3084 
Q 1678 3084 1418 2786 
Q 1159 2488 1159 1978 
L 1159 0 
L 581 0 
L 581 3500 
L 1159 3500 
L 1159 2956 
Q 1356 3278 1631 3431 
Q 1906 3584 2284 3584 
Q 2666 3584 2933 3390 
Q 3200 3197 3328 2828 
z
" transform="scale(0.015625)"/>
      <path id="DejaVuSans-20" transform="scale(0.015625)"/>
      <path id="DejaVuSans-54" d="M -19 4666 
L 3928 4666 
L 3928 4134 
L 2272 4134 
L 2272 0 
L 1638 0 
L 1638 4134 
L -19 4134 
L -19 4666 
z
" transform="scale(0.015625)"/>
      <path id="DejaVuSans-79" d="M 2059 -325 
Q 1816 -950 1584 -1140 
Q 1353 -1331 966 -1331 
L 506 -1331 
L 506 -850 
L 844 -850 
Q 1081 -850 1212 -737 
Q 1344 -625 1503 -206 
L 1606 56 
L 191 3500 
L 800 3500 
L 1894 763 
L 2988 3500 
L 3597 3500 
L 2059 -325 
z
" transform="scale(0.015625)"/>
      <path id="DejaVuSans-70" d="M 1159 525 
L 1159 -1331 
L 581 -1331 
L 581 3500 
L 1159 3500 
L 1159 2969 
Q 1341 3281 1617 3432 
Q 1894 3584 2278 3584 
Q 2916 3584 3314 3078 
Q 3713 2572 3713 1747 
Q 3713 922 3314 415 
Q 2916 -91 2278 -91 
Q 1894 -91 1617 61 
Q 1341 213 1159 525 
z
M 3116 1747 
Q 3116 2381 2855 2742 
Q 2594 3103 2138 3103 
Q 1681 3103 1420 2742 
Q 1159 2381 1159 1747 
Q 1159 1113 1420 752 
Q 1681 391 2138 391 
Q 2594 391 2855 752 
Q 3116 1113 3116 1747 
z
" transform="scale(0.015625)"/>
      <path id="DejaVuSans-65" d="M 3597 1894 
L 3597 1613 
L 953 1613 
Q 991 1019 1311 708 
Q 1631 397 2203 397 
Q 2534 397 2845 478 
Q 3156 559 3463 722 
L 3463 178 
Q 3153 47 2828 -22 
Q 2503 -91 2169 -91 
Q 1331 -91 842 396 
Q 353 884 353 1716 
Q 353 2575 817 3079 
Q 1281 3584 2069 3584 
Q 2775 3584 3186 3129 
Q 3597 2675 3597 1894 
z
M 3022 2063 
Q 3016 2534 2758 2815 
Q 2500 3097 2075 3097 
Q 1594 3097 1305 2825 
Q 1016 2553 972 2059 
L 3022 2063 
z
" transform="scale(0.015625)"/>
      <path id="DejaVuSans-4f" d="M 2522 4238 
Q 1834 4238 1429 3725 
Q 1025 3213 1025 2328 
Q 1025 1447 1429 934 
Q 1834 422 2522 422 
Q 3209 422 3611 934 
Q 4013 1447 4013 2328 
Q 4013 3213 3611 3725 
Q 3209 4238 2522 4238 
z
M 2522 4750 
Q 3503 4750 4090 4092 
Q 4678 3434 4678 2328 
Q 4678 1225 4090 567 
Q 3503 -91 2522 -91 
Q 1538 -91 948 565 
Q 359 1222 359 2328 
Q 359 3434 948 4092 
Q 1538 4750 2522 4750 
z
" transform="scale(0.015625)"/>
      <path id="DejaVuSans-28" d="M 1984 4856 
Q 1566 4138 1362 3434 
Q 1159 2731 1159 2009 
Q 1159 1288 1364 580 
Q 1569 -128 1984 -844 
L 1484 -844 
Q 1016 -109 783 600 
Q 550 1309 550 2009 
Q 550 2706 781 3412 
Q 1013 4119 1484 4856 
L 1984 4856 
z
" transform="scale(0.015625)"/>
      <path id="DejaVuSans-6e" d="M 3513 2113 
L 3513 0 
L 2938 0 
L 2938 2094 
Q 2938 2591 2744 2837 
Q 2550 3084 2163 3084 
Q 1697 3084 1428 2787 
Q 1159 2491 1159 1978 
L 1159 0 
L 581 0 
L 581 3500 
L 1159 3500 
L 1159 2956 
Q 1366 3272 1645 3428 
Q 1925 3584 2291 3584 
Q 2894 3584 3203 3211 
Q 3513 2838 3513 2113 
z
" transform="scale(0.015625)"/>
      <path id="DejaVuSans-3d" d="M 678 2906 
L 4684 2906 
L 4684 2381 
L 678 2381 
L 678 2906 
z
M 678 1631 
L 4684 1631 
L 4684 1100 
L 678 1100 
L 678 1631 
z
" transform="scale(0.015625)"/>
      <path id="DejaVuSans-34" d="M 2419 4116 
L 825 1625 
L 2419 1625 
L 2419 4116 
z
M 2253 4666 
L 3047 4666 
L 3047 1625 
L 3713 1625 
L 3713 1100 
L 3047 1100 
L 3047 0 
L 2419 0 
L 2419 1100 
L 313 1100 
L 313 1709 
L 2253 4666 
z
" transform="scale(0.015625)"/>
      <path id="DejaVuSans-2c" d="M 750 794 
L 1409 794 
L 1409 256 
L 897 -744 
L 494 -744 
L 750 256 
L 750 794 
z
" transform="scale(0.015625)"/>
      <path id="DejaVuSans-61" d="M 2194 1759 
Q 1497 1759 1228 1600 
Q 959 1441 959 1056 
Q 959 750 1161 570 
Q 1363 391 1709 391 
Q 2188 391 2477 730 
Q 2766 1069 2766 1631 
L 2766 1759 
L 2194 1759 
z
M 3341 1997 
L 3341 0 
L 2766 0 
L 2766 531 
Q 2569 213 2275 61 
Q 1981 -91 1556 -91 
Q 1019 -91 701 211 
Q 384 513 384 1019 
Q 384 1609 779 1909 
Q 1175 2209 1959 2209 
L 2766 2209 
L 2766 2266 
Q 2766 2663 2505 2880 
Q 2244 3097 1772 3097 
Q 1472 3097 1187 3025 
Q 903 2953 641 2809 
L 641 3341 
Q 956 3463 1253 3523 
Q 1550 3584 1831 3584 
Q 2591 3584 2966 3190 
Q 3341 2797 3341 1997 
z
" transform="scale(0.015625)"/>
      <path id="DejaVuSans-51" d="M 2522 4238 
Q 1834 4238 1429 3725 
Q 1025 3213 1025 2328 
Q 1025 1447 1429 934 
Q 1834 422 2522 422 
Q 3209 422 3611 934 
Q 4013 1447 4013 2328 
Q 4013 3213 3611 3725 
Q 3209 4238 2522 4238 
z
M 3406 84 
L 4238 -825 
L 3475 -825 
L 2784 -78 
Q 2681 -84 2626 -87 
Q 2572 -91 2522 -91 
Q 1538 -91 948 567 
Q 359 1225 359 2328 
Q 359 3434 948 4092 
Q 1538 4750 2522 4750 
Q 3503 4750 4090 4092 
Q 4678 3434 4678 2328 
Q 4678 1516 4351 937 
Q 4025 359 3406 84 
z
" transform="scale(0.015625)"/>
      <path id="DejaVuSans-36" d="M 2113 2584 
Q 1688 2584 1439 2293 
Q 1191 2003 1191 1497 
Q 1191 994 1439 701 
Q 1688 409 2113 409 
Q 2538 409 2786 701 
Q 3034 994 3034 1497 
Q 3034 2003 2786 2293 
Q 2538 2584 2113 2584 
z
M 3366 4563 
L 3366 3988 
Q 3128 4100 2886 4159 
Q 2644 4219 2406 4219 
Q 1781 4219 1451 3797 
Q 1122 3375 1075 2522 
Q 1259 2794 1537 2939 
Q 1816 3084 2150 3084 
Q 2853 3084 3261 2657 
Q 3669 2231 3669 1497 
Q 3669 778 3244 343 
Q 2819 -91 2113 -91 
Q 1303 -91 875 529 
Q 447 1150 447 2328 
Q 447 3434 972 4092 
Q 1497 4750 2381 4750 
Q 2619 4750 2861 4703 
Q 3103 4656 3366 4563 
z
" transform="scale(0.015625)"/>
      <path id="DejaVuSans-2e" d="M 684 794 
L 1344 794 
L 1344 0 
L 684 0 
L 684 794 
z
" transform="scale(0.015625)"/>
      <path id="DejaVuSans-33" d="M 2597 2516 
Q 3050 2419 3304 2112 
Q 3559 1806 3559 1356 
Q 3559 666 3084 287 
Q 2609 -91 1734 -91 
Q 1441 -91 1130 -33 
Q 819 25 488 141 
L 488 750 
Q 750 597 1062 519 
Q 1375 441 1716 441 
Q 2309 441 2620 675 
Q 2931 909 2931 1356 
Q 2931 1769 2642 2001 
Q 2353 2234 1838 2234 
L 1294 2234 
L 1294 2753 
L 1863 2753 
Q 2328 2753 2575 2939 
Q 2822 3125 2822 3475 
Q 2822 3834 2567 4026 
Q 2313 4219 1838 4219 
Q 1578 4219 1281 4162 
Q 984 4106 628 3988 
L 628 4550 
Q 988 4650 1302 4700 
Q 1616 4750 1894 4750 
Q 2613 4750 3031 4423 
Q 3450 4097 3450 3541 
Q 3450 3153 3228 2886 
Q 3006 2619 2597 2516 
z
" transform="scale(0.015625)"/>
      <path id="DejaVuSans-29" d="M 513 4856 
L 1013 4856 
Q 1481 4119 1714 3412 
Q 1947 2706 1947 2009 
Q 1947 1309 1714 600 
Q 1481 -109 1013 -844 
L 513 -844 
Q 928 -128 1133 580 
Q 1338 1288 1338 2009 
Q 1338 2731 1133 3434 
Q 928 4138 513 4856 
z
" transform="scale(0.015625)"/>
     </defs>
     <use xlink:href="#DejaVuSans-41"/>
     <use xlink:href="#DejaVuSans-74" transform="translate(66.658203 0)"/>
     <use xlink:href="#DejaVuSans-6f" transform="translate(105.867188 0)"/>
     <use xlink:href="#DejaVuSans-6d" transform="translate(167.048828 0)"/>
     <use xlink:href="#DejaVuSans-20" transform="translate(264.460938 0)"/>
     <use xlink:href="#DejaVuSans-54" transform="translate(296.248047 0)"/>
     <use xlink:href="#DejaVuSans-79" transform="translate(341.707031 0)"/>
     <use xlink:href="#DejaVuSans-70" transform="translate(400.886719 0)"/>
     <use xlink:href="#DejaVuSans-65" transform="translate(464.363281 0)"/>
     <use xlink:href="#DejaVuSans-20" transform="translate(525.886719 0)"/>
     <use xlink:href="#DejaVuSans-4f" transform="translate(557.673828 0)"/>
     <use xlink:href="#DejaVuSans-20" transform="translate(636.384766 0)"/>
     <use xlink:href="#DejaVuSans-28" transform="translate(668.171875 0)"/>
     <use xlink:href="#DejaVuSans-6e" transform="translate(707.185547 0)"/>
     <use xlink:href="#DejaVuSans-3d" transform="translate(770.564453 0)"/>
     <use xlink:href="#DejaVuSans-34" transform="translate(854.353516 0)"/>
     <use xlink:href="#DejaVuSans-35" transform="translate(917.976562 0)"/>
     <use xlink:href="#DejaVuSans-2c" transform="translate(981.599609 0)"/>
     <use xlink:href="#DejaVuSans-20" transform="translate(1013.386719 0)"/>
     <use xlink:href="#DejaVuSans-6d" transform="translate(1045.173828 0)"/>
     <use xlink:href="#DejaVuSans-65" transform="translate(1142.585938 0)"/>
     <use xlink:href="#DejaVuSans-61" transform="translate(1204.109375 0)"/>
     <use xlink:href="#DejaVuSans-6e" transform="translate(1265.388672 0)"/>
     <use xlink:href="#DejaVuSans-20" transform="translate(1328.767578 0)"/>
     <use xlink:href="#DejaVuSans-51" transform="translate(1360.554688 0)"/>
     <use xlink:href="#DejaVuSans-3d" transform="translate(1439.265625 0)"/>
     <use xlink:href="#DejaVuSans-36" transform="translate(1523.054688 0)"/>
     <use xlink:href="#DejaVuSans-2e" transform="translate(1586.677734 0)"/>
     <use xlink:href="#DejaVuSans-35" transform="translate(1618.464844 0)"/>
     <use xlink:href="#DejaVuSans-33" transform="translate(1682.087891 0)"/>
     <use xlink:href="#DejaVuSans-29" transform="translate(1745.710938 0)"/>
    </g>
   </g>
  </g>
 </g>
 <defs>
  <clipPath id="p7bb686bb5f">
   <rect x="57.6" y="41.472" width="357.12" height="266.112"/>
  </clipPath>
 </defs>
</svg>
