<?xml version="1.0" encoding="utf-8" standalone="no"?>
<!DOCTYPE svg PUBLIC "-//W3C//DTD SVG 1.1//EN"
  "http://www.w3.org/Graphics/SVG/1.1/DTD/svg11.dtd">
<svg xmlns:xlink="http://www.w3.org/1999/xlink" width="864pt" height="360pt" viewBox="0 0 864 360" xmlns="http://www.w3.org/2000/svg" version="1.1">
 <metadata>
  <rdf:RDF xmlns:dc="http://purl.org/dc/elements/1.1/" xmlns:cc="http://creativecommons.org/ns#" xmlns:rdf="http://www.w3.org/1999/02/22-rdf-syntax-ns#">
   <cc:Work>
    <dc:type rdf:resource="http://purl.org/dc/dcmitype/StillImage"/>
    <dc:date>2026-01-24T16:01:28.460357</dc:date>
    <dc:format>image/svg+xml</dc:format>
    <dc:creator>
     <cc:Agent>
      <dc:title>Matplotlib v3.10.6, https://matplotlib.org/</dc:title>
     </cc:Agent>
    </dc:creator>
   </cc:Work>
  </rdf:RDF>
 </metadata>
 <defs>
  <style type="text/css">*{stroke-linejoin: round; stroke-linecap: butt}</style>
 </defs>
 <g id="figure_1">
  <g id="patch_1">
   <path d="M 0 360 
L 864 360 
L 864 0 
L 0 0 
z
" style="fill: #ffffff"/>
  </g>
  <g id="axes_1">
   <g id="patch_2">
    <path d="M 101.36 295 
L 461.49 295 
L 461.49 19.44 
L 101.36 19.44 
z
" style="fill: #ffffff"/>
   </g>
   <g id="matplotlib.axis_1">
    <g id="xtick_1">
     <g id="line2d_1">
      <defs>
       <path id="m1b7d7daaf3" d="M 0 0 
L 0 3.5 
" style="stroke: #000000; stroke-width: 0.8"/>
      </defs>
      <g>
       <use xlink:href="#m1b7d7daaf3" x="158.653409" y="295" style="stroke: #000000; stroke-width: 0.8"/>
      </g>
     </g>
     <g id="text_1">
      <!-- 2 -->
      <g transform="translate(153.881534 313.397656) scale(0.15 -0.15)">
       <defs>
        <path id="DejaVuSans-32" d="M 1228 531 
L 3431 531 
L 3431 0 
L 469 0 
L 469 531 
Q 828 903 1448 1529 
Q 2069 2156 2228 2338 
Q 2531 2678 2651 2914 
Q 2772 3150 2772 3378 
Q 2772 3750 2511 3984 
Q 2250 4219 1831 4219 
Q 1534 4219 1204 4116 
Q 875 4013 500 3803 
L 500 4441 
Q 881 4594 1212 4672 
Q 1544 4750 1819 4750 
Q 2544 4750 2975 4387 
Q 3406 4025 3406 3419 
Q 3406 3131 3298 2873 
Q 3191 2616 2906 2266 
Q 2828 2175 2409 1742 
Q 1991 1309 1228 531 
z
" transform="scale(0.015625)"/>
       </defs>
       <use xlink:href="#DejaVuSans-32"/>
      </g>
     </g>
    </g>
    <g id="xtick_2">
     <g id="line2d_2">
      <g>
       <use xlink:href="#m1b7d7daaf3" x="240.501136" y="295" style="stroke: #000000; stroke-width: 0.8"/>
      </g>
     </g>
     <g id="text_2">
      <!-- 4 -->
      <g transform="translate(235.729261 313.397656) scale(0.15 -0.15)">
       <defs>
        <path id="DejaVuSans-34" d="M 2419 4116 
L 825 1625 
L 2419 1625 
L 2419 4116 
z
M 2253 4666 
L 3047 4666 
L 3047 1625 
L 3713 1625 
L 3713 1100 
L 3047 1100 
L 3047 0 
L 2419 0 
L 2419 1100 
L 313 1100 
L 313 1709 
L 2253 4666 
z
" transform="scale(0.015625)"/>
       </defs>
       <use xlink:href="#DejaVuSans-34"/>
      </g>
     </g>
    </g>
    <g id="xtick_3">
     <g id="line2d_3">
      <g>
       <use xlink:href="#m1b7d7daaf3" x="322.348864" y="295" style="stroke: #000000; stroke-width: 0.8"/>
      </g>
     </g>
     <g id="text_3">
      <!-- 6 -->
      <g transform="translate(317.576989 313.397656) scale(0.15 -0.15)">
       <defs>
        <path id="DejaVuSans-36" d="M 2113 2584 
Q 1688 2584 1439 2293 
Q 1191 2003 1191 1497 
Q 1191 994 1439 701 
Q 1688 409 2113 409 
Q 2538 409 2786 701 
Q 3034 994 3034 1497 
Q 3034 2003 2786 2293 
Q 2538 2584 2113 2584 
z
M 3366 4563 
L 3366 3988 
Q 3128 4100 2886 4159 
Q 2644 4219 2406 4219 
Q 1781 4219 1451 3797 
Q 1122 3375 1075 2522 
Q 1259 2794 1537 2939 
Q 1816 3084 2150 3084 
Q 2853 3084 3261 2657 
Q 3669 2231 3669 1497 
Q 3669 778 3244 343 
Q 2819 -91 2113 -91 
Q 1303 -91 875 529 
Q 447 1150 447 2328 
Q 447 3434 972 4092 
Q 1497 4750 2381 4750 
Q 2619 4750 2861 4703 
Q 3103 4656 3366 4563 
z
" transform="scale(0.015625)"/>
       </defs>
       <use xlink:href="#DejaVuSans-36"/>
      </g>
     </g>
    </g>
    <g id="xtick_4">
     <g id="line2d_4">
      <g>
       <use xlink:href="#m1b7d7daaf3" x="404.196591" y="295" style="stroke: #000000; stroke-width: 0.8"/>
      </g>
     </g>
     <g id="text_4">
      <!-- 8 -->
      <g transform="translate(399.424716 313.397656) scale(0.15 -0.15)">
       <defs>
        <path id="DejaVuSans-38" d="M 2034 2216 
Q 1584 2216 1326 1975 
Q 1069 1734 1069 1313 
Q 1069 891 1326 650 
Q 1584 409 2034 409 
Q 2484 409 2743 651 
Q 3003 894 3003 1313 
Q 3003 1734 2745 1975 
Q 2488 2216 2034 2216 
z
M 1403 2484 
Q 997 2584 770 2862 
Q 544 3141 544 3541 
Q 544 4100 942 4425 
Q 1341 4750 2034 4750 
Q 2731 4750 3128 4425 
Q 3525 4100 3525 3541 
Q 3525 3141 3298 2862 
Q 3072 2584 2669 2484 
Q 3125 2378 3379 2068 
Q 3634 1759 3634 1313 
Q 3634 634 3220 271 
Q 2806 -91 2034 -91 
Q 1263 -91 848 271 
Q 434 634 434 1313 
Q 434 1759 690 2068 
Q 947 2378 1403 2484 
z
M 1172 3481 
Q 1172 3119 1398 2916 
Q 1625 2713 2034 2713 
Q 2441 2713 2670 2916 
Q 2900 3119 2900 3481 
Q 2900 3844 2670 4047 
Q 2441 4250 2034 4250 
Q 1625 4250 1398 4047 
Q 1172 3844 1172 3481 
z
" transform="scale(0.015625)"/>
       </defs>
       <use xlink:href="#DejaVuSans-38"/>
      </g>
     </g>
    </g>
    <g id="text_5">
     <!-- Time (ns) -->
     <g transform="translate(234.429688 335.714063) scale(0.2 -0.2)">
      <defs>
       <path id="DejaVuSans-54" d="M -19 4666 
L 3928 4666 
L 3928 4134 
L 2272 4134 
L 2272 0 
L 1638 0 
L 1638 4134 
L -19 4134 
L -19 4666 
z
" transform="scale(0.015625)"/>
       <path id="DejaVuSans-69" d="M 603 3500 
L 1178 3500 
L 1178 0 
L 603 0 
L 603 3500 
z
M 603 4863 
L 1178 4863 
L 1178 4134 
L 603 4134 
L 603 4863 
z
" transform="scale(0.015625)"/>
       <path id="DejaVuSans-6d" d="M 3328 2828 
Q 3544 3216 3844 3400 
Q 4144 3584 4550 3584 
Q 5097 3584 5394 3201 
Q 5691 2819 5691 2113 
L 5691 0 
L 5113 0 
L 5113 2094 
Q 5113 2597 4934 2840 
Q 4756 3084 4391 3084 
Q 3944 3084 3684 2787 
Q 3425 2491 3425 1978 
L 3425 0 
L 2847 0 
L 2847 2094 
Q 2847 2600 2669 2842 
Q 2491 3084 2119 3084 
Q 1678 3084 1418 2786 
Q 1159 2488 1159 1978 
L 1159 0 
L 581 0 
L 581 3500 
L 1159 3500 
L 1159 2956 
Q 1356 3278 1631 3431 
Q 1906 3584 2284 3584 
Q 2666 3584 2933 3390 
Q 3200 3197 3328 2828 
z
" transform="scale(0.015625)"/>
       <path id="DejaVuSans-65" d="M 3597 1894 
L 3597 1613 
L 953 1613 
Q 991 1019 1311 708 
Q 1631 397 2203 397 
Q 2534 397 2845 478 
Q 3156 559 3463 722 
L 3463 178 
Q 3153 47 2828 -22 
Q 2503 -91 2169 -91 
Q 1331 -91 842 396 
Q 353 884 353 1716 
Q 353 2575 817 3079 
Q 1281 3584 2069 3584 
Q 2775 3584 3186 3129 
Q 3597 2675 3597 1894 
z
M 3022 2063 
Q 3016 2534 2758 2815 
Q 2500 3097 2075 3097 
Q 1594 3097 1305 2825 
Q 1016 2553 972 2059 
L 3022 2063 
z
" transform="scale(0.015625)"/>
       <path id="DejaVuSans-20" transform="scale(0.015625)"/>
       <path id="DejaVuSans-28" d="M 1984 4856 
Q 1566 4138 1362 3434 
Q 1159 2731 1159 2009 
Q 1159 1288 1364 580 
Q 1569 -128 1984 -844 
L 1484 -844 
Q 1016 -109 783 600 
Q 550 1309 550 2009 
Q 550 2706 781 3412 
Q 1013 4119 1484 4856 
L 1984 4856 
z
" transform="scale(0.015625)"/>
       <path id="DejaVuSans-6e" d="M 3513 2113 
L 3513 0 
L 2938 0 
L 2938 2094 
Q 2938 2591 2744 2837 
Q 2550 3084 2163 3084 
Q 1697 3084 1428 2787 
Q 1159 2491 1159 1978 
L 1159 0 
L 581 0 
L 581 3500 
L 1159 3500 
L 1159 2956 
Q 1366 3272 1645 3428 
Q 1925 3584 2291 3584 
Q 2894 3584 3203 3211 
Q 3513 2838 3513 2113 
z
" transform="scale(0.015625)"/>
       <path id="DejaVuSans-73" d="M 2834 3397 
L 2834 2853 
Q 2591 2978 2328 3040 
Q 2066 3103 1784 3103 
Q 1356 3103 1142 2972 
Q 928 2841 928 2578 
Q 928 2378 1081 2264 
Q 1234 2150 1697 2047 
L 1894 2003 
Q 2506 1872 2764 1633 
Q 3022 1394 3022 966 
Q 3022 478 2636 193 
Q 2250 -91 1575 -91 
Q 1294 -91 989 -36 
Q 684 19 347 128 
L 347 722 
Q 666 556 975 473 
Q 1284 391 1588 391 
Q 1994 391 2212 530 
Q 2431 669 2431 922 
Q 2431 1156 2273 1281 
Q 2116 1406 1581 1522 
L 1381 1569 
Q 847 1681 609 1914 
Q 372 2147 372 2553 
Q 372 3047 722 3315 
Q 1072 3584 1716 3584 
Q 2034 3584 2315 3537 
Q 2597 3491 2834 3397 
z
" transform="scale(0.015625)"/>
       <path id="DejaVuSans-29" d="M 513 4856 
L 1013 4856 
Q 1481 4119 1714 3412 
Q 1947 2706 1947 2009 
Q 1947 1309 1714 600 
Q 1481 -109 1013 -844 
L 513 -844 
Q 928 -128 1133 580 
Q 1338 1288 1338 2009 
Q 1338 2731 1133 3434 
Q 928 4138 513 4856 
z
" transform="scale(0.015625)"/>
      </defs>
      <use xlink:href="#DejaVuSans-54"/>
      <use xlink:href="#DejaVuSans-69" transform="translate(57.958984 0)"/>
      <use xlink:href="#DejaVuSans-6d" transform="translate(85.742188 0)"/>
      <use xlink:href="#DejaVuSans-65" transform="translate(183.154297 0)"/>
      <use xlink:href="#DejaVuSans-20" transform="translate(244.677734 0)"/>
      <use xlink:href="#DejaVuSans-28" transform="translate(276.464844 0)"/>
      <use xlink:href="#DejaVuSans-6e" transform="translate(315.478516 0)"/>
      <use xlink:href="#DejaVuSans-73" transform="translate(378.857422 0)"/>
      <use xlink:href="#DejaVuSans-29" transform="translate(430.957031 0)"/>
     </g>
    </g>
   </g>
   <g id="matplotlib.axis_2">
    <g id="ytick_1">
     <g id="line2d_5">
      <defs>
       <path id="mf2cb890e51" d="M 0 0 
L -3.5 0 
" style="stroke: #000000; stroke-width: 0.8"/>
      </defs>
      <g>
       <use xlink:href="#mf2cb890e51" x="101.36" y="279.168944" style="stroke: #000000; stroke-width: 0.8"/>
      </g>
     </g>
     <g id="text_6">
      <!-- −5850 -->
      <g transform="translate(43.615469 284.867772) scale(0.15 -0.15)">
       <defs>
        <path id="DejaVuSans-2212" d="M 678 2272 
L 4684 2272 
L 4684 1741 
L 678 1741 
L 678 2272 
z
" transform="scale(0.015625)"/>
        <path id="DejaVuSans-35" d="M 691 4666 
L 3169 4666 
L 3169 4134 
L 1269 4134 
L 1269 2991 
Q 1406 3038 1543 3061 
Q 1681 3084 1819 3084 
Q 2600 3084 3056 2656 
Q 3513 2228 3513 1497 
Q 3513 744 3044 326 
Q 2575 -91 1722 -91 
Q 1428 -91 1123 -41 
Q 819 9 494 109 
L 494 744 
Q 775 591 1075 516 
Q 1375 441 1709 441 
Q 2250 441 2565 725 
Q 2881 1009 2881 1497 
Q 2881 1984 2565 2268 
Q 2250 2553 1709 2553 
Q 1456 2553 1204 2497 
Q 953 2441 691 2322 
L 691 4666 
z
" transform="scale(0.015625)"/>
        <path id="DejaVuSans-30" d="M 2034 4250 
Q 1547 4250 1301 3770 
Q 1056 3291 1056 2328 
Q 1056 1369 1301 889 
Q 1547 409 2034 409 
Q 2525 409 2770 889 
Q 3016 1369 3016 2328 
Q 3016 3291 2770 3770 
Q 2525 4250 2034 4250 
z
M 2034 4750 
Q 2819 4750 3233 4129 
Q 3647 3509 3647 2328 
Q 3647 1150 3233 529 
Q 2819 -91 2034 -91 
Q 1250 -91 836 529 
Q 422 1150 422 2328 
Q 422 3509 836 4129 
Q 1250 4750 2034 4750 
z
" transform="scale(0.015625)"/>
       </defs>
       <use xlink:href="#DejaVuSans-2212"/>
       <use xlink:href="#DejaVuSans-35" transform="translate(83.789062 0)"/>
       <use xlink:href="#DejaVuSans-38" transform="translate(147.412109 0)"/>
       <use xlink:href="#DejaVuSans-35" transform="translate(211.035156 0)"/>
       <use xlink:href="#DejaVuSans-30" transform="translate(274.658203 0)"/>
      </g>
     </g>
    </g>
    <g id="ytick_2">
     <g id="line2d_6">
      <g>
       <use xlink:href="#mf2cb890e51" x="101.36" y="246.543514" style="stroke: #000000; stroke-width: 0.8"/>
      </g>
     </g>
     <g id="text_7">
      <!-- −5845 -->
      <g transform="translate(43.615469 252.242342) scale(0.15 -0.15)">
       <use xlink:href="#DejaVuSans-2212"/>
       <use xlink:href="#DejaVuSans-35" transform="translate(83.789062 0)"/>
       <use xlink:href="#DejaVuSans-38" transform="translate(147.412109 0)"/>
       <use xlink:href="#DejaVuSans-34" transform="translate(211.035156 0)"/>
       <use xlink:href="#DejaVuSans-35" transform="translate(274.658203 0)"/>
      </g>
     </g>
    </g>
    <g id="ytick_3">
     <g id="line2d_7">
      <g>
       <use xlink:href="#mf2cb890e51" x="101.36" y="213.918085" style="stroke: #000000; stroke-width: 0.8"/>
      </g>
     </g>
     <g id="text_8">
      <!-- −5840 -->
      <g transform="translate(43.615469 219.616913) scale(0.15 -0.15)">
       <use xlink:href="#DejaVuSans-2212"/>
       <use xlink:href="#DejaVuSans-35" transform="translate(83.789062 0)"/>
       <use xlink:href="#DejaVuSans-38" transform="translate(147.412109 0)"/>
       <use xlink:href="#DejaVuSans-34" transform="translate(211.035156 0)"/>
       <use xlink:href="#DejaVuSans-30" transform="translate(274.658203 0)"/>
      </g>
     </g>
    </g>
    <g id="ytick_4">
     <g id="line2d_8">
      <g>
       <use xlink:href="#mf2cb890e51" x="101.36" y="181.292656" style="stroke: #000000; stroke-width: 0.8"/>
      </g>
     </g>
     <g id="text_9">
      <!-- −5835 -->
      <g transform="translate(43.615469 186.991484) scale(0.15 -0.15)">
       <defs>
        <path id="DejaVuSans-33" d="M 2597 2516 
Q 3050 2419 3304 2112 
Q 3559 1806 3559 1356 
Q 3559 666 3084 287 
Q 2609 -91 1734 -91 
Q 1441 -91 1130 -33 
Q 819 25 488 141 
L 488 750 
Q 750 597 1062 519 
Q 1375 441 1716 441 
Q 2309 441 2620 675 
Q 2931 909 2931 1356 
Q 2931 1769 2642 2001 
Q 2353 2234 1838 2234 
L 1294 2234 
L 1294 2753 
L 1863 2753 
Q 2328 2753 2575 2939 
Q 2822 3125 2822 3475 
Q 2822 3834 2567 4026 
Q 2313 4219 1838 4219 
Q 1578 4219 1281 4162 
Q 984 4106 628 3988 
L 628 4550 
Q 988 4650 1302 4700 
Q 1616 4750 1894 4750 
Q 2613 4750 3031 4423 
Q 3450 4097 3450 3541 
Q 3450 3153 3228 2886 
Q 3006 2619 2597 2516 
z
" transform="scale(0.015625)"/>
       </defs>
       <use xlink:href="#DejaVuSans-2212"/>
       <use xlink:href="#DejaVuSans-35" transform="translate(83.789062 0)"/>
       <use xlink:href="#DejaVuSans-38" transform="translate(147.412109 0)"/>
       <use xlink:href="#DejaVuSans-33" transform="translate(211.035156 0)"/>
       <use xlink:href="#DejaVuSans-35" transform="translate(274.658203 0)"/>
      </g>
     </g>
    </g>
    <g id="ytick_5">
     <g id="line2d_9">
      <g>
       <use xlink:href="#mf2cb890e51" x="101.36" y="148.667227" style="stroke: #000000; stroke-width: 0.8"/>
      </g>
     </g>
     <g id="text_10">
      <!-- −5830 -->
      <g transform="translate(43.615469 154.366055) scale(0.15 -0.15)">
       <use xlink:href="#DejaVuSans-2212"/>
       <use xlink:href="#DejaVuSans-35" transform="translate(83.789062 0)"/>
       <use xlink:href="#DejaVuSans-38" transform="translate(147.412109 0)"/>
       <use xlink:href="#DejaVuSans-33" transform="translate(211.035156 0)"/>
       <use xlink:href="#DejaVuSans-30" transform="translate(274.658203 0)"/>
      </g>
     </g>
    </g>
    <g id="ytick_6">
     <g id="line2d_10">
      <g>
       <use xlink:href="#mf2cb890e51" x="101.36" y="116.041797" style="stroke: #000000; stroke-width: 0.8"/>
      </g>
     </g>
     <g id="text_11">
      <!-- −5825 -->
      <g transform="translate(43.615469 121.740626) scale(0.15 -0.15)">
       <use xlink:href="#DejaVuSans-2212"/>
       <use xlink:href="#DejaVuSans-35" transform="translate(83.789062 0)"/>
       <use xlink:href="#DejaVuSans-38" transform="translate(147.412109 0)"/>
       <use xlink:href="#DejaVuSans-32" transform="translate(211.035156 0)"/>
       <use xlink:href="#DejaVuSans-35" transform="translate(274.658203 0)"/>
      </g>
     </g>
    </g>
    <g id="ytick_7">
     <g id="line2d_11">
      <g>
       <use xlink:href="#mf2cb890e51" x="101.36" y="83.416368" style="stroke: #000000; stroke-width: 0.8"/>
      </g>
     </g>
     <g id="text_12">
      <!-- −5820 -->
      <g transform="translate(43.615469 89.115196) scale(0.15 -0.15)">
       <use xlink:href="#DejaVuSans-2212"/>
       <use xlink:href="#DejaVuSans-35" transform="translate(83.789062 0)"/>
       <use xlink:href="#DejaVuSans-38" transform="translate(147.412109 0)"/>
       <use xlink:href="#DejaVuSans-32" transform="translate(211.035156 0)"/>
       <use xlink:href="#DejaVuSans-30" transform="translate(274.658203 0)"/>
      </g>
     </g>
    </g>
    <g id="ytick_8">
     <g id="line2d_12">
      <g>
       <use xlink:href="#mf2cb890e51" x="101.36" y="50.790939" style="stroke: #000000; stroke-width: 0.8"/>
      </g>
     </g>
     <g id="text_13">
      <!-- −5815 -->
      <g transform="translate(43.615469 56.489767) scale(0.15 -0.15)">
       <defs>
        <path id="DejaVuSans-31" d="M 794 531 
L 1825 531 
L 1825 4091 
L 703 3866 
L 703 4441 
L 1819 4666 
L 2450 4666 
L 2450 531 
L 3481 531 
L 3481 0 
L 794 0 
L 794 531 
z
" transform="scale(0.015625)"/>
       </defs>
       <use xlink:href="#DejaVuSans-2212"/>
       <use xlink:href="#DejaVuSans-35" transform="translate(83.789062 0)"/>
       <use xlink:href="#DejaVuSans-38" transform="translate(147.412109 0)"/>
       <use xlink:href="#DejaVuSans-31" transform="translate(211.035156 0)"/>
       <use xlink:href="#DejaVuSans-35" transform="translate(274.658203 0)"/>
      </g>
     </g>
    </g>
    <g id="text_14">
     <!-- Potential Energy (meV/at) -->
     <g transform="translate(35.456094 286.345) rotate(-90) scale(0.2 -0.2)">
      <defs>
       <path id="DejaVuSans-50" d="M 1259 4147 
L 1259 2394 
L 2053 2394 
Q 2494 2394 2734 2622 
Q 2975 2850 2975 3272 
Q 2975 3691 2734 3919 
Q 2494 4147 2053 4147 
L 1259 4147 
z
M 628 4666 
L 2053 4666 
Q 2838 4666 3239 4311 
Q 3641 3956 3641 3272 
Q 3641 2581 3239 2228 
Q 2838 1875 2053 1875 
L 1259 1875 
L 1259 0 
L 628 0 
L 628 4666 
z
" transform="scale(0.015625)"/>
       <path id="DejaVuSans-6f" d="M 1959 3097 
Q 1497 3097 1228 2736 
Q 959 2375 959 1747 
Q 959 1119 1226 758 
Q 1494 397 1959 397 
Q 2419 397 2687 759 
Q 2956 1122 2956 1747 
Q 2956 2369 2687 2733 
Q 2419 3097 1959 3097 
z
M 1959 3584 
Q 2709 3584 3137 3096 
Q 3566 2609 3566 1747 
Q 3566 888 3137 398 
Q 2709 -91 1959 -91 
Q 1206 -91 779 398 
Q 353 888 353 1747 
Q 353 2609 779 3096 
Q 1206 3584 1959 3584 
z
" transform="scale(0.015625)"/>
       <path id="DejaVuSans-74" d="M 1172 4494 
L 1172 3500 
L 2356 3500 
L 2356 3053 
L 1172 3053 
L 1172 1153 
Q 1172 725 1289 603 
Q 1406 481 1766 481 
L 2356 481 
L 2356 0 
L 1766 0 
Q 1100 0 847 248 
Q 594 497 594 1153 
L 594 3053 
L 172 3053 
L 172 3500 
L 594 3500 
L 594 4494 
L 1172 4494 
z
" transform="scale(0.015625)"/>
       <path id="DejaVuSans-61" d="M 2194 1759 
Q 1497 1759 1228 1600 
Q 959 1441 959 1056 
Q 959 750 1161 570 
Q 1363 391 1709 391 
Q 2188 391 2477 730 
Q 2766 1069 2766 1631 
L 2766 1759 
L 2194 1759 
z
M 3341 1997 
L 3341 0 
L 2766 0 
L 2766 531 
Q 2569 213 2275 61 
Q 1981 -91 1556 -91 
Q 1019 -91 701 211 
Q 384 513 384 1019 
Q 384 1609 779 1909 
Q 1175 2209 1959 2209 
L 2766 2209 
L 2766 2266 
Q 2766 2663 2505 2880 
Q 2244 3097 1772 3097 
Q 1472 3097 1187 3025 
Q 903 2953 641 2809 
L 641 3341 
Q 956 3463 1253 3523 
Q 1550 3584 1831 3584 
Q 2591 3584 2966 3190 
Q 3341 2797 3341 1997 
z
" transform="scale(0.015625)"/>
       <path id="DejaVuSans-6c" d="M 603 4863 
L 1178 4863 
L 1178 0 
L 603 0 
L 603 4863 
z
" transform="scale(0.015625)"/>
       <path id="DejaVuSans-45" d="M 628 4666 
L 3578 4666 
L 3578 4134 
L 1259 4134 
L 1259 2753 
L 3481 2753 
L 3481 2222 
L 1259 2222 
L 1259 531 
L 3634 531 
L 3634 0 
L 628 0 
L 628 4666 
z
" transform="scale(0.015625)"/>
       <path id="DejaVuSans-72" d="M 2631 2963 
Q 2534 3019 2420 3045 
Q 2306 3072 2169 3072 
Q 1681 3072 1420 2755 
Q 1159 2438 1159 1844 
L 1159 0 
L 581 0 
L 581 3500 
L 1159 3500 
L 1159 2956 
Q 1341 3275 1631 3429 
Q 1922 3584 2338 3584 
Q 2397 3584 2469 3576 
Q 2541 3569 2628 3553 
L 2631 2963 
z
" transform="scale(0.015625)"/>
       <path id="DejaVuSans-67" d="M 2906 1791 
Q 2906 2416 2648 2759 
Q 2391 3103 1925 3103 
Q 1463 3103 1205 2759 
Q 947 2416 947 1791 
Q 947 1169 1205 825 
Q 1463 481 1925 481 
Q 2391 481 2648 825 
Q 2906 1169 2906 1791 
z
M 3481 434 
Q 3481 -459 3084 -895 
Q 2688 -1331 1869 -1331 
Q 1566 -1331 1297 -1286 
Q 1028 -1241 775 -1147 
L 775 -588 
Q 1028 -725 1275 -790 
Q 1522 -856 1778 -856 
Q 2344 -856 2625 -561 
Q 2906 -266 2906 331 
L 2906 616 
Q 2728 306 2450 153 
Q 2172 0 1784 0 
Q 1141 0 747 490 
Q 353 981 353 1791 
Q 353 2603 747 3093 
Q 1141 3584 1784 3584 
Q 2172 3584 2450 3431 
Q 2728 3278 2906 2969 
L 2906 3500 
L 3481 3500 
L 3481 434 
z
" transform="scale(0.015625)"/>
       <path id="DejaVuSans-79" d="M 2059 -325 
Q 1816 -950 1584 -1140 
Q 1353 -1331 966 -1331 
L 506 -1331 
L 506 -850 
L 844 -850 
Q 1081 -850 1212 -737 
Q 1344 -625 1503 -206 
L 1606 56 
L 191 3500 
L 800 3500 
L 1894 763 
L 2988 3500 
L 3597 3500 
L 2059 -325 
z
" transform="scale(0.015625)"/>
       <path id="DejaVuSans-56" d="M 1831 0 
L 50 4666 
L 709 4666 
L 2188 738 
L 3669 4666 
L 4325 4666 
L 2547 0 
L 1831 0 
z
" transform="scale(0.015625)"/>
       <path id="DejaVuSans-2f" d="M 1625 4666 
L 2156 4666 
L 531 -594 
L 0 -594 
L 1625 4666 
z
" transform="scale(0.015625)"/>
      </defs>
      <use xlink:href="#DejaVuSans-50"/>
      <use xlink:href="#DejaVuSans-6f" transform="translate(56.677734 0)"/>
      <use xlink:href="#DejaVuSans-74" transform="translate(117.859375 0)"/>
      <use xlink:href="#DejaVuSans-65" transform="translate(157.068359 0)"/>
      <use xlink:href="#DejaVuSans-6e" transform="translate(218.591797 0)"/>
      <use xlink:href="#DejaVuSans-74" transform="translate(281.970703 0)"/>
      <use xlink:href="#DejaVuSans-69" transform="translate(321.179688 0)"/>
      <use xlink:href="#DejaVuSans-61" transform="translate(348.962891 0)"/>
      <use xlink:href="#DejaVuSans-6c" transform="translate(410.242188 0)"/>
      <use xlink:href="#DejaVuSans-20" transform="translate(438.025391 0)"/>
      <use xlink:href="#DejaVuSans-45" transform="translate(469.8125 0)"/>
      <use xlink:href="#DejaVuSans-6e" transform="translate(532.996094 0)"/>
      <use xlink:href="#DejaVuSans-65" transform="translate(596.375 0)"/>
      <use xlink:href="#DejaVuSans-72" transform="translate(657.898438 0)"/>
      <use xlink:href="#DejaVuSans-67" transform="translate(697.261719 0)"/>
      <use xlink:href="#DejaVuSans-79" transform="translate(760.738281 0)"/>
      <use xlink:href="#DejaVuSans-20" transform="translate(819.917969 0)"/>
      <use xlink:href="#DejaVuSans-28" transform="translate(851.705078 0)"/>
      <use xlink:href="#DejaVuSans-6d" transform="translate(890.71875 0)"/>
      <use xlink:href="#DejaVuSans-65" transform="translate(988.130859 0)"/>
      <use xlink:href="#DejaVuSans-56" transform="translate(1049.654297 0)"/>
      <use xlink:href="#DejaVuSans-2f" transform="translate(1118.0625 0)"/>
      <use xlink:href="#DejaVuSans-61" transform="translate(1151.753906 0)"/>
      <use xlink:href="#DejaVuSans-74" transform="translate(1213.033203 0)"/>
      <use xlink:href="#DejaVuSans-29" transform="translate(1252.242188 0)"/>
     </g>
    </g>
   </g>
   <g id="line2d_13">
    <path d="M 117.729545 240.09461 
L 121.821932 239.81307 
L 125.914318 226.272689 
L 130.006705 208.906687 
L 134.099091 245.006641 
L 138.191477 246.589886 
L 142.283864 235.454181 
L 146.37625 218.051744 
L 150.468636 215.438397 
L 154.561023 237.607128 
L 158.653409 215.753059 
L 162.745795 240.793489 
L 166.838182 256.645805 
L 170.930568 265.701431 
L 175.022955 243.059052 
L 179.115341 229.571667 
L 183.207727 218.568451 
L 187.300114 240.863046 
L 191.3925 265.029049 
L 195.484886 242.085258 
L 199.577273 242.962998 
L 203.669659 216.776536 
L 207.762045 222.867721 
L 211.854432 217.515163 
L 215.946818 248.554036 
L 220.039205 245.086135 
L 224.131591 232.46324 
L 228.223977 212.245411 
L 232.316364 207.399624 
L 236.40875 233.331044 
L 240.501136 223.281749 
L 244.593523 258.103184 
L 248.685909 220.463044 
L 252.778295 233.19193 
L 256.870682 229.001964 
L 260.963068 235.639665 
L 265.055455 231.115164 
L 269.147841 244.516432 
L 273.240227 209.552571 
L 277.332614 227.518086 
L 281.425 225.540687 
L 285.517386 225.05379 
L 289.609773 212.921105 
L 293.702159 224.29529 
L 297.794545 223.341369 
L 301.886932 224.669572 
L 305.979318 212.281845 
L 310.071705 196.833622 
L 314.164091 221.257979 
L 318.256477 234.228657 
L 322.348864 228.965529 
L 326.44125 232.443367 
L 330.533636 258.888182 
L 334.626023 229.71078 
L 338.718409 246.77537 
L 342.810795 219.476001 
L 346.903182 226.338934 
L 350.995568 248.338741 
L 355.087955 233.615895 
L 359.180341 248.189691 
L 363.272727 251.879511 
L 367.365114 248.457981 
L 371.4575 246.914484 
L 375.549886 246.122862 
L 379.642273 246.129486 
L 383.734659 260.981509 
L 387.827045 270.318675 
L 391.919432 259.226029 
L 396.011818 252.840057 
L 400.104205 260.772839 
L 404.196591 238.21989 
L 408.288977 233.291297 
L 412.381364 261.624081 
L 416.47375 259.82223 
L 420.566136 245.112633 
L 424.658523 227.173615 
L 428.750909 238.541176 
L 432.843295 249.895487 
L 436.935682 240.796802 
L 441.028068 258.9743 
L 445.120455 282.474545 
" clip-path="url(#p2bf160b54b)" style="fill: none; stroke-dasharray: 5.55,2.4; stroke-dashoffset: 0; stroke: #3b3657; stroke-opacity: 0.5; stroke-width: 1.5"/>
   </g>
   <g id="line2d_14">
    <path d="M 117.729545 162.091681 
L 121.821932 171.895267 
L 125.914318 164.610005 
L 130.006705 140.96579 
L 134.099091 183.706031 
L 138.191477 197.777961 
L 142.283864 194.829718 
L 146.37625 169.818065 
L 150.468636 165.585761 
L 154.561023 179.939925 
L 158.653409 168.469677 
L 162.745795 184.769207 
L 166.838182 202.226534 
L 170.930568 215.596417 
L 175.022955 196.117953 
L 179.115341 162.102419 
L 183.207727 148.057197 
L 187.300114 175.492932 
L 191.3925 202.687578 
L 195.484886 198.276913 
L 199.577273 181.509047 
L 203.669659 150.362104 
L 207.762045 170.40626 
L 211.854432 162.420422 
L 215.946818 195.827532 
L 220.039205 189.511377 
L 224.131591 173.98719 
L 228.223977 154.307491 
L 232.316364 155.138168 
L 236.40875 177.087335 
L 240.501136 175.244233 
L 244.593523 204.960395 
L 248.685909 188.435124 
L 252.778295 167.452375 
L 256.870682 170.151806 
L 260.963068 198.197069 
L 265.055455 200.640307 
L 269.147841 200.04511 
L 273.240227 159.946854 
L 277.332614 177.6442 
L 281.425 166.15713 
L 285.517386 173.658591 
L 289.609773 158.004746 
L 293.702159 173.850748 
L 297.794545 175.176061 
L 301.886932 180.950583 
L 305.979318 160.511405 
L 310.071705 135.241318 
L 314.164091 155.933095 
L 318.256477 187.462937 
L 322.348864 177.887162 
L 326.44125 183.65221 
L 330.533636 205.939804 
L 334.626023 181.16684 
L 338.718409 195.529151 
L 342.810795 168.889018 
L 346.903182 176.21259 
L 350.995568 196.994284 
L 355.087955 172.875155 
L 359.180341 193.2363 
L 363.272727 199.186785 
L 367.365114 209.634775 
L 371.4575 196.911906 
L 375.549886 197.704052 
L 379.642273 189.813003 
L 383.734659 215.126894 
L 387.827045 203.42497 
L 391.919432 222.974154 
L 396.011818 223.392774 
L 400.104205 213.131265 
L 404.196591 218.754149 
L 408.288977 182.746074 
L 412.381364 207.667835 
L 416.47375 228.256729 
L 420.566136 233.786745 
L 424.658523 227.058278 
L 428.750909 188.232551 
L 432.843295 183.652288 
L 436.935682 205.55242 
L 441.028068 215.018546 
L 445.120455 239.412091 
" clip-path="url(#p2bf160b54b)" style="fill: none; stroke: #3b3657; stroke-width: 1.5; stroke-linecap: square"/>
   </g>
   <g id="line2d_15">
    <defs>
     <path id="m88faf0ace0" d="M 0 3 
C 0.795609 3 1.55874 2.683901 2.12132 2.12132 
C 2.683901 1.55874 3 0.795609 3 0 
C 3 -0.795609 2.683901 -1.55874 2.12132 -2.12132 
C 1.55874 -2.683901 0.795609 -3 0 -3 
C -0.795609 -3 -1.55874 -2.683901 -2.12132 -2.12132 
C -2.683901 -1.55874 -3 -0.795609 -3 0 
C -3 0.795609 -2.683901 1.55874 -2.12132 2.12132 
C -1.55874 2.683901 -0.795609 3 0 3 
z
" style="stroke: #3b3657"/>
    </defs>
    <g clip-path="url(#p2bf160b54b)">
     <use xlink:href="#m88faf0ace0" x="285.517386" y="148.678236" style="fill: #3b3657; stroke: #3b3657"/>
     <use xlink:href="#m88faf0ace0" x="305.979318" y="143.762132" style="fill: #3b3657; stroke: #3b3657"/>
     <use xlink:href="#m88faf0ace0" x="310.071705" y="124.671468" style="fill: #3b3657; stroke: #3b3657"/>
     <use xlink:href="#m88faf0ace0" x="318.256477" y="185.544537" style="fill: #3b3657; stroke: #3b3657"/>
     <use xlink:href="#m88faf0ace0" x="322.348864" y="158.608743" style="fill: #3b3657; stroke: #3b3657"/>
     <use xlink:href="#m88faf0ace0" x="326.44125" y="176.172591" style="fill: #3b3657; stroke: #3b3657"/>
     <use xlink:href="#m88faf0ace0" x="330.533636" y="200.131874" style="fill: #3b3657; stroke: #3b3657"/>
     <use xlink:href="#m88faf0ace0" x="334.626023" y="174.790375" style="fill: #3b3657; stroke: #3b3657"/>
     <use xlink:href="#m88faf0ace0" x="338.718409" y="200.138371" style="fill: #3b3657; stroke: #3b3657"/>
     <use xlink:href="#m88faf0ace0" x="342.810795" y="170.69822" style="fill: #3b3657; stroke: #3b3657"/>
     <use xlink:href="#m88faf0ace0" x="346.903182" y="164.633083" style="fill: #3b3657; stroke: #3b3657"/>
     <use xlink:href="#m88faf0ace0" x="350.995568" y="197.847488" style="fill: #3b3657; stroke: #3b3657"/>
     <use xlink:href="#m88faf0ace0" x="355.087955" y="192.208035" style="fill: #3b3657; stroke: #3b3657"/>
     <use xlink:href="#m88faf0ace0" x="359.180341" y="186.950247" style="fill: #3b3657; stroke: #3b3657"/>
     <use xlink:href="#m88faf0ace0" x="363.272727" y="194.600851" style="fill: #3b3657; stroke: #3b3657"/>
     <use xlink:href="#m88faf0ace0" x="367.365114" y="202.425376" style="fill: #3b3657; stroke: #3b3657"/>
     <use xlink:href="#m88faf0ace0" x="371.4575" y="212.209486" style="fill: #3b3657; stroke: #3b3657"/>
     <use xlink:href="#m88faf0ace0" x="375.549886" y="193.013804" style="fill: #3b3657; stroke: #3b3657"/>
     <use xlink:href="#m88faf0ace0" x="379.642273" y="200.123447" style="fill: #3b3657; stroke: #3b3657"/>
     <use xlink:href="#m88faf0ace0" x="383.734659" y="196.189487" style="fill: #3b3657; stroke: #3b3657"/>
     <use xlink:href="#m88faf0ace0" x="387.827045" y="230.405386" style="fill: #3b3657; stroke: #3b3657"/>
     <use xlink:href="#m88faf0ace0" x="391.919432" y="218.0159" style="fill: #3b3657; stroke: #3b3657"/>
     <use xlink:href="#m88faf0ace0" x="396.011818" y="208.728836" style="fill: #3b3657; stroke: #3b3657"/>
     <use xlink:href="#m88faf0ace0" x="400.104205" y="208.718741" style="fill: #3b3657; stroke: #3b3657"/>
     <use xlink:href="#m88faf0ace0" x="404.196591" y="177.63597" style="fill: #3b3657; stroke: #3b3657"/>
     <use xlink:href="#m88faf0ace0" x="408.288977" y="186.352975" style="fill: #3b3657; stroke: #3b3657"/>
     <use xlink:href="#m88faf0ace0" x="412.381364" y="214.466959" style="fill: #3b3657; stroke: #3b3657"/>
     <use xlink:href="#m88faf0ace0" x="416.47375" y="203.613797" style="fill: #3b3657; stroke: #3b3657"/>
     <use xlink:href="#m88faf0ace0" x="420.566136" y="192.898568" style="fill: #3b3657; stroke: #3b3657"/>
     <use xlink:href="#m88faf0ace0" x="424.658523" y="167.229515" style="fill: #3b3657; stroke: #3b3657"/>
     <use xlink:href="#m88faf0ace0" x="428.750909" y="190.508161" style="fill: #3b3657; stroke: #3b3657"/>
     <use xlink:href="#m88faf0ace0" x="432.843295" y="197.312759" style="fill: #3b3657; stroke: #3b3657"/>
     <use xlink:href="#m88faf0ace0" x="436.935682" y="191.341811" style="fill: #3b3657; stroke: #3b3657"/>
     <use xlink:href="#m88faf0ace0" x="441.028068" y="214.09832" style="fill: #3b3657; stroke: #3b3657"/>
     <use xlink:href="#m88faf0ace0" x="445.120455" y="232.52461" style="fill: #3b3657; stroke: #3b3657"/>
     <use xlink:href="#m88faf0ace0" x="117.729545" y="155.169735" style="fill: #3b3657; stroke: #3b3657"/>
     <use xlink:href="#m88faf0ace0" x="121.821932" y="163.236865" style="fill: #3b3657; stroke: #3b3657"/>
     <use xlink:href="#m88faf0ace0" x="125.914318" y="157.821626" style="fill: #3b3657; stroke: #3b3657"/>
     <use xlink:href="#m88faf0ace0" x="130.006705" y="126.4439" style="fill: #3b3657; stroke: #3b3657"/>
     <use xlink:href="#m88faf0ace0" x="138.191477" y="176.791211" style="fill: #3b3657; stroke: #3b3657"/>
     <use xlink:href="#m88faf0ace0" x="142.283864" y="185.91901" style="fill: #3b3657; stroke: #3b3657"/>
     <use xlink:href="#m88faf0ace0" x="146.37625" y="144.908887" style="fill: #3b3657; stroke: #3b3657"/>
     <use xlink:href="#m88faf0ace0" x="166.838182" y="183.866721" style="fill: #3b3657; stroke: #3b3657"/>
     <use xlink:href="#m88faf0ace0" x="179.115341" y="157.444287" style="fill: #3b3657; stroke: #3b3657"/>
     <use xlink:href="#m88faf0ace0" x="183.207727" y="131.090115" style="fill: #3b3657; stroke: #3b3657"/>
     <use xlink:href="#m88faf0ace0" x="187.300114" y="184.638726" style="fill: #3b3657; stroke: #3b3657"/>
     <use xlink:href="#m88faf0ace0" x="195.484886" y="196.399163" style="fill: #3b3657; stroke: #3b3657"/>
     <use xlink:href="#m88faf0ace0" x="199.577273" y="179.916873" style="fill: #3b3657; stroke: #3b3657"/>
     <use xlink:href="#m88faf0ace0" x="211.854432" y="136.141868" style="fill: #3b3657; stroke: #3b3657"/>
     <use xlink:href="#m88faf0ace0" x="215.946818" y="170.736546" style="fill: #3b3657; stroke: #3b3657"/>
     <use xlink:href="#m88faf0ace0" x="224.131591" y="148.618966" style="fill: #3b3657; stroke: #3b3657"/>
     <use xlink:href="#m88faf0ace0" x="228.223977" y="126.114132" style="fill: #3b3657; stroke: #3b3657"/>
     <use xlink:href="#m88faf0ace0" x="236.40875" y="145.396336" style="fill: #3b3657; stroke: #3b3657"/>
     <use xlink:href="#m88faf0ace0" x="252.778295" y="149.123658" style="fill: #3b3657; stroke: #3b3657"/>
     <use xlink:href="#m88faf0ace0" x="260.963068" y="181.297968" style="fill: #3b3657; stroke: #3b3657"/>
     <use xlink:href="#m88faf0ace0" x="265.055455" y="140.957482" style="fill: #3b3657; stroke: #3b3657"/>
     <use xlink:href="#m88faf0ace0" x="269.147841" y="31.965455" style="fill: #3b3657; stroke: #3b3657"/>
     <use xlink:href="#m88faf0ace0" x="273.240227" y="132.372959" style="fill: #3b3657; stroke: #3b3657"/>
    </g>
   </g>
   <g id="patch_3">
    <path d="M 101.36 295 
L 101.36 19.44 
" style="fill: none; stroke: #000000; stroke-width: 3; stroke-linejoin: miter; stroke-linecap: square"/>
   </g>
   <g id="patch_4">
    <path d="M 461.49 295 
L 461.49 19.44 
" style="fill: none; stroke: #000000; stroke-width: 3; stroke-linejoin: miter; stroke-linecap: square"/>
   </g>
   <g id="patch_5">
    <path d="M 101.36 295 
L 461.49 295 
" style="fill: none; stroke: #000000; stroke-width: 3; stroke-linejoin: miter; stroke-linecap: square"/>
   </g>
   <g id="patch_6">
    <path d="M 101.36 19.44 
L 461.49 19.44 
" style="fill: none; stroke: #000000; stroke-width: 3; stroke-linejoin: miter; stroke-linecap: square"/>
   </g>
   <g id="legend_1">
    <g id="patch_7">
     <path d="M 320.564063 113.101875 
L 448.89 113.101875 
Q 452.49 113.101875 452.49 109.501875 
L 452.49 32.04 
Q 452.49 28.44 448.89 28.44 
L 320.564063 28.44 
Q 316.964063 28.44 316.964063 32.04 
L 316.964063 109.501875 
Q 316.964063 113.101875 320.564063 113.101875 
z
" style="fill: #ffffff; opacity: 0.8; stroke: #cccccc; stroke-linejoin: miter"/>
    </g>
    <g id="line2d_16">
     <path d="M 324.164063 43.017188 
L 342.164063 43.017188 
L 360.164063 43.017188 
" style="fill: none; stroke-dasharray: 5.55,2.4; stroke-dashoffset: 0; stroke: #3b3657; stroke-opacity: 0.5; stroke-width: 1.5"/>
    </g>
    <g id="text_15">
     <!-- N-50pts -->
     <g transform="translate(374.564063 49.317188) scale(0.18 -0.18)">
      <defs>
       <path id="DejaVuSans-4e" d="M 628 4666 
L 1478 4666 
L 3547 763 
L 3547 4666 
L 4159 4666 
L 4159 0 
L 3309 0 
L 1241 3903 
L 1241 0 
L 628 0 
L 628 4666 
z
" transform="scale(0.015625)"/>
       <path id="DejaVuSans-2d" d="M 313 2009 
L 1997 2009 
L 1997 1497 
L 313 1497 
L 313 2009 
z
" transform="scale(0.015625)"/>
       <path id="DejaVuSans-70" d="M 1159 525 
L 1159 -1331 
L 581 -1331 
L 581 3500 
L 1159 3500 
L 1159 2969 
Q 1341 3281 1617 3432 
Q 1894 3584 2278 3584 
Q 2916 3584 3314 3078 
Q 3713 2572 3713 1747 
Q 3713 922 3314 415 
Q 2916 -91 2278 -91 
Q 1894 -91 1617 61 
Q 1341 213 1159 525 
z
M 3116 1747 
Q 3116 2381 2855 2742 
Q 2594 3103 2138 3103 
Q 1681 3103 1420 2742 
Q 1159 2381 1159 1747 
Q 1159 1113 1420 752 
Q 1681 391 2138 391 
Q 2594 391 2855 752 
Q 3116 1113 3116 1747 
z
" transform="scale(0.015625)"/>
      </defs>
      <use xlink:href="#DejaVuSans-4e"/>
      <use xlink:href="#DejaVuSans-2d" transform="translate(74.804688 0)"/>
      <use xlink:href="#DejaVuSans-35" transform="translate(110.888672 0)"/>
      <use xlink:href="#DejaVuSans-30" transform="translate(174.511719 0)"/>
      <use xlink:href="#DejaVuSans-70" transform="translate(238.134766 0)"/>
      <use xlink:href="#DejaVuSans-74" transform="translate(301.611328 0)"/>
      <use xlink:href="#DejaVuSans-73" transform="translate(340.820312 0)"/>
     </g>
    </g>
    <g id="line2d_17">
     <path d="M 324.164063 69.437813 
L 342.164063 69.437813 
L 360.164063 69.437813 
" style="fill: none; stroke: #3b3657; stroke-width: 1.5; stroke-linecap: square"/>
    </g>
    <g id="text_16">
     <!-- FT5 -->
     <g transform="translate(374.564063 75.737813) scale(0.18 -0.18)">
      <defs>
       <path id="DejaVuSans-46" d="M 628 4666 
L 3309 4666 
L 3309 4134 
L 1259 4134 
L 1259 2759 
L 3109 2759 
L 3109 2228 
L 1259 2228 
L 1259 0 
L 628 0 
L 628 4666 
z
" transform="scale(0.015625)"/>
      </defs>
      <use xlink:href="#DejaVuSans-46"/>
      <use xlink:href="#DejaVuSans-54" transform="translate(55.769531 0)"/>
      <use xlink:href="#DejaVuSans-35" transform="translate(116.853516 0)"/>
     </g>
    </g>
    <g id="line2d_18">
     <g>
      <use xlink:href="#m88faf0ace0" x="342.164063" y="95.858438" style="fill: #3b3657; stroke: #3b3657"/>
     </g>
    </g>
    <g id="text_17">
     <!-- DFT -->
     <g transform="translate(374.564063 102.158438) scale(0.18 -0.18)">
      <defs>
       <path id="DejaVuSans-44" d="M 1259 4147 
L 1259 519 
L 2022 519 
Q 2988 519 3436 956 
Q 3884 1394 3884 2338 
Q 3884 3275 3436 3711 
Q 2988 4147 2022 4147 
L 1259 4147 
z
M 628 4666 
L 1925 4666 
Q 3281 4666 3915 4102 
Q 4550 3538 4550 2338 
Q 4550 1131 3912 565 
Q 3275 0 1925 0 
L 628 0 
L 628 4666 
z
" transform="scale(0.015625)"/>
      </defs>
      <use xlink:href="#DejaVuSans-44"/>
      <use xlink:href="#DejaVuSans-46" transform="translate(77.001953 0)"/>
      <use xlink:href="#DejaVuSans-54" transform="translate(132.771484 0)"/>
     </g>
    </g>
   </g>
  </g>
  <g id="axes_2">
   <g id="patch_8">
    <path d="M 484.43 295 
L 844.56 295 
L 844.56 19.44 
L 484.43 19.44 
z
" style="fill: #ffffff"/>
   </g>
   <g id="matplotlib.axis_3">
    <g id="xtick_5">
     <g id="line2d_19">
      <g>
       <use xlink:href="#m1b7d7daaf3" x="541.723409" y="295" style="stroke: #000000; stroke-width: 0.8"/>
      </g>
     </g>
     <g id="text_18">
      <!-- 2 -->
      <g transform="translate(536.951534 313.397656) scale(0.15 -0.15)">
       <use xlink:href="#DejaVuSans-32"/>
      </g>
     </g>
    </g>
    <g id="xtick_6">
     <g id="line2d_20">
      <g>
       <use xlink:href="#m1b7d7daaf3" x="623.571136" y="295" style="stroke: #000000; stroke-width: 0.8"/>
      </g>
     </g>
     <g id="text_19">
      <!-- 4 -->
      <g transform="translate(618.799261 313.397656) scale(0.15 -0.15)">
       <use xlink:href="#DejaVuSans-34"/>
      </g>
     </g>
    </g>
    <g id="xtick_7">
     <g id="line2d_21">
      <g>
       <use xlink:href="#m1b7d7daaf3" x="705.418864" y="295" style="stroke: #000000; stroke-width: 0.8"/>
      </g>
     </g>
     <g id="text_20">
      <!-- 6 -->
      <g transform="translate(700.646989 313.397656) scale(0.15 -0.15)">
       <use xlink:href="#DejaVuSans-36"/>
      </g>
     </g>
    </g>
    <g id="xtick_8">
     <g id="line2d_22">
      <g>
       <use xlink:href="#m1b7d7daaf3" x="787.266591" y="295" style="stroke: #000000; stroke-width: 0.8"/>
      </g>
     </g>
     <g id="text_21">
      <!-- 8 -->
      <g transform="translate(782.494716 313.397656) scale(0.15 -0.15)">
       <use xlink:href="#DejaVuSans-38"/>
      </g>
     </g>
    </g>
    <g id="text_22">
     <!-- Time (ns) -->
     <g transform="translate(617.499687 335.714063) scale(0.2 -0.2)">
      <use xlink:href="#DejaVuSans-54"/>
      <use xlink:href="#DejaVuSans-69" transform="translate(57.958984 0)"/>
      <use xlink:href="#DejaVuSans-6d" transform="translate(85.742188 0)"/>
      <use xlink:href="#DejaVuSans-65" transform="translate(183.154297 0)"/>
      <use xlink:href="#DejaVuSans-20" transform="translate(244.677734 0)"/>
      <use xlink:href="#DejaVuSans-28" transform="translate(276.464844 0)"/>
      <use xlink:href="#DejaVuSans-6e" transform="translate(315.478516 0)"/>
      <use xlink:href="#DejaVuSans-73" transform="translate(378.857422 0)"/>
      <use xlink:href="#DejaVuSans-29" transform="translate(430.957031 0)"/>
     </g>
    </g>
   </g>
   <g id="matplotlib.axis_4">
    <g id="ytick_9">
     <g id="line2d_23">
      <g>
       <use xlink:href="#mf2cb890e51" x="484.43" y="279.168944" style="stroke: #000000; stroke-width: 0.8"/>
      </g>
     </g>
    </g>
    <g id="ytick_10">
     <g id="line2d_24">
      <g>
       <use xlink:href="#mf2cb890e51" x="484.43" y="246.543514" style="stroke: #000000; stroke-width: 0.8"/>
      </g>
     </g>
    </g>
    <g id="ytick_11">
     <g id="line2d_25">
      <g>
       <use xlink:href="#mf2cb890e51" x="484.43" y="213.918085" style="stroke: #000000; stroke-width: 0.8"/>
      </g>
     </g>
    </g>
    <g id="ytick_12">
     <g id="line2d_26">
      <g>
       <use xlink:href="#mf2cb890e51" x="484.43" y="181.292656" style="stroke: #000000; stroke-width: 0.8"/>
      </g>
     </g>
    </g>
    <g id="ytick_13">
     <g id="line2d_27">
      <g>
       <use xlink:href="#mf2cb890e51" x="484.43" y="148.667227" style="stroke: #000000; stroke-width: 0.8"/>
      </g>
     </g>
    </g>
    <g id="ytick_14">
     <g id="line2d_28">
      <g>
       <use xlink:href="#mf2cb890e51" x="484.43" y="116.041797" style="stroke: #000000; stroke-width: 0.8"/>
      </g>
     </g>
    </g>
    <g id="ytick_15">
     <g id="line2d_29">
      <g>
       <use xlink:href="#mf2cb890e51" x="484.43" y="83.416368" style="stroke: #000000; stroke-width: 0.8"/>
      </g>
     </g>
    </g>
    <g id="ytick_16">
     <g id="line2d_30">
      <g>
       <use xlink:href="#mf2cb890e51" x="484.43" y="50.790939" style="stroke: #000000; stroke-width: 0.8"/>
      </g>
     </g>
    </g>
   </g>
   <g id="line2d_31">
    <path d="M 500.799545 224.421155 
L 504.891932 229.151014 
L 508.984318 208.085255 
L 513.076705 188.079408 
L 517.169091 237.020864 
L 521.261477 233.970303 
L 525.353864 212.844924 
L 529.44625 200.02992 
L 533.538636 204.253009 
L 537.631023 225.593683 
L 541.723409 230.244049 
L 545.815795 226.981506 
L 549.908182 208.250866 
L 554.000568 208.31711 
L 558.092955 193.79631 
L 562.185341 218.217355 
L 566.277727 236.305423 
L 570.370114 245.685648 
L 574.4625 243.459832 
L 578.554886 218.270351 
L 582.647273 221.261291 
L 586.739659 206.08467 
L 590.832045 209.658562 
L 594.924432 228.935719 
L 599.016818 219.790662 
L 603.109205 218.545265 
L 607.201591 195.998941 
L 611.293977 185.081843 
L 615.386364 204.431869 
L 619.47875 227.594268 
L 623.571136 235.166017 
L 627.663523 211.374295 
L 631.755909 219.899966 
L 635.848295 200.159097 
L 639.940682 234.460513 
L 644.033068 232.940201 
L 648.125455 221.960171 
L 652.217841 233.748384 
L 656.310227 212.950915 
L 660.402614 218.098115 
L 664.495 230.509027 
L 668.587386 245.947314 
L 672.679773 234.473762 
L 676.772159 225.626805 
L 680.864545 213.699478 
L 684.956932 213.298699 
L 689.049318 228.097726 
L 693.141705 222.778291 
L 697.234091 251.574786 
L 701.326477 223.424175 
L 705.418864 218.141174 
L 709.51125 227.812875 
L 713.603636 217.00508 
L 717.696023 252.137865 
L 721.788409 237.540883 
L 725.880795 235.782091 
L 729.973182 225.487692 
L 734.065568 216.882528 
L 738.157955 220.502791 
L 742.250341 207.340004 
L 746.342727 177.447161 
L 750.435114 212.324904 
L 754.5275 204.498113 
L 758.619886 229.018525 
L 762.712273 217.339615 
L 766.804659 215.123736 
L 770.897045 203.42164 
L 774.989432 222.973712 
L 779.081818 223.394365 
L 783.174205 213.126463 
L 787.266591 218.753936 
L 791.358977 182.740099 
L 795.451364 207.664602 
L 799.54375 228.250088 
L 803.636136 233.788131 
L 807.728523 227.057687 
L 811.820909 188.23177 
L 815.913295 183.654273 
L 820.005682 205.554714 
L 824.098068 215.017744 
L 828.190455 239.412291 
" clip-path="url(#pe2d7de23d6)" style="fill: none; stroke: #3b3657; stroke-opacity: 0.5; stroke-width: 1.5; stroke-linecap: square"/>
   </g>
   <g id="line2d_32">
    <path d="M 500.799545 229.527897 
L 504.891932 244.567682 
L 508.984318 214.410869 
L 513.076705 197.924563 
L 517.169091 242.37837 
L 521.261477 246.446144 
L 525.353864 213.989209 
L 529.44625 212.528046 
L 533.538636 206.51535 
L 537.631023 221.202764 
L 541.723409 228.147281 
L 545.815795 231.883508 
L 549.908182 216.608139 
L 554.000568 218.957594 
L 558.092955 197.396976 
L 562.185341 221.783624 
L 566.277727 238.439297 
L 570.370114 248.510768 
L 574.4625 252.10624 
L 578.554886 217.20521 
L 582.647273 219.435858 
L 586.739659 209.785724 
L 590.832045 208.59389 
L 594.924432 225.911779 
L 599.016818 215.118776 
L 603.109205 228.161169 
L 607.201591 196.081458 
L 611.293977 181.323994 
L 615.386364 204.705882 
L 619.47875 235.718186 
L 623.571136 246.589501 
L 627.663523 215.59493 
L 631.755909 219.379716 
L 635.848295 203.915587 
L 639.940682 242.340704 
L 644.033068 240.478366 
L 648.125455 223.888973 
L 652.217841 233.666224 
L 656.310227 212.624335 
L 660.402614 218.457032 
L 664.495 233.232038 
L 668.587386 247.090671 
L 672.679773 235.306491 
L 676.772159 230.720605 
L 680.864545 212.110776 
L 684.956932 220.398929 
L 689.049318 235.662394 
L 693.141705 220.849453 
L 697.234091 243.115352 
L 701.326477 225.783729 
L 705.418864 213.824312 
L 709.51125 231.311646 
L 713.603636 217.929146 
L 717.696023 255.670565 
L 721.788409 238.450945 
L 725.880795 234.710914 
L 729.973182 224.49539 
L 734.065568 216.233588 
L 738.157955 218.318281 
L 742.250341 212.505649 
L 746.342727 183.88832 
L 750.435114 211.974757 
L 754.5275 206.647144 
L 758.619886 238.983873 
L 762.712273 215.251108 
L 766.804659 219.055878 
L 770.897045 204.892557 
L 774.989432 229.560675 
L 779.081818 228.492336 
L 783.174205 217.646561 
L 787.266591 215.529043 
L 791.358977 184.864045 
L 795.451364 203.189605 
L 799.54375 236.802408 
L 803.636136 242.223825 
L 807.728523 237.647381 
L 811.820909 201.614859 
L 815.913295 184.364156 
L 820.005682 211.471889 
L 824.098068 219.932148 
L 828.190455 242.723667 
" clip-path="url(#pe2d7de23d6)" style="fill: none; stroke-dasharray: 5.55,2.4; stroke-dashoffset: 0; stroke: #3b3657; stroke-width: 1.5"/>
   </g>
   <g id="line2d_33">
    <g clip-path="url(#pe2d7de23d6)">
     <use xlink:href="#m88faf0ace0" x="664.495" y="202.623488" style="fill: #3b3657; stroke: #3b3657"/>
     <use xlink:href="#m88faf0ace0" x="672.679773" y="196.400276" style="fill: #3b3657; stroke: #3b3657"/>
     <use xlink:href="#m88faf0ace0" x="676.772159" y="179.831501" style="fill: #3b3657; stroke: #3b3657"/>
     <use xlink:href="#m88faf0ace0" x="680.864545" y="170.635523" style="fill: #3b3657; stroke: #3b3657"/>
     <use xlink:href="#m88faf0ace0" x="684.956932" y="190.401412" style="fill: #3b3657; stroke: #3b3657"/>
     <use xlink:href="#m88faf0ace0" x="693.141705" y="181.093047" style="fill: #3b3657; stroke: #3b3657"/>
     <use xlink:href="#m88faf0ace0" x="697.234091" y="214.983991" style="fill: #3b3657; stroke: #3b3657"/>
     <use xlink:href="#m88faf0ace0" x="705.418864" y="185.429321" style="fill: #3b3657; stroke: #3b3657"/>
     <use xlink:href="#m88faf0ace0" x="709.51125" y="192.419068" style="fill: #3b3657; stroke: #3b3657"/>
     <use xlink:href="#m88faf0ace0" x="717.696023" y="208.223847" style="fill: #3b3657; stroke: #3b3657"/>
     <use xlink:href="#m88faf0ace0" x="721.788409" y="200.949478" style="fill: #3b3657; stroke: #3b3657"/>
     <use xlink:href="#m88faf0ace0" x="729.973182" y="152.329502" style="fill: #3b3657; stroke: #3b3657"/>
     <use xlink:href="#m88faf0ace0" x="734.065568" y="173.079929" style="fill: #3b3657; stroke: #3b3657"/>
     <use xlink:href="#m88faf0ace0" x="750.435114" y="175.229005" style="fill: #3b3657; stroke: #3b3657"/>
     <use xlink:href="#m88faf0ace0" x="754.5275" y="170.736957" style="fill: #3b3657; stroke: #3b3657"/>
     <use xlink:href="#m88faf0ace0" x="758.619886" y="197.835512" style="fill: #3b3657; stroke: #3b3657"/>
     <use xlink:href="#m88faf0ace0" x="762.712273" y="168.699462" style="fill: #3b3657; stroke: #3b3657"/>
     <use xlink:href="#m88faf0ace0" x="766.804659" y="179.353234" style="fill: #3b3657; stroke: #3b3657"/>
     <use xlink:href="#m88faf0ace0" x="770.897045" y="165.135193" style="fill: #3b3657; stroke: #3b3657"/>
     <use xlink:href="#m88faf0ace0" x="783.174205" y="185.956048" style="fill: #3b3657; stroke: #3b3657"/>
     <use xlink:href="#m88faf0ace0" x="791.358977" y="114.404545" style="fill: #3b3657; stroke: #3b3657"/>
     <use xlink:href="#m88faf0ace0" x="799.54375" y="191.16351" style="fill: #3b3657; stroke: #3b3657"/>
     <use xlink:href="#m88faf0ace0" x="803.636136" y="210.980335" style="fill: #3b3657; stroke: #3b3657"/>
     <use xlink:href="#m88faf0ace0" x="807.728523" y="189.712561" style="fill: #3b3657; stroke: #3b3657"/>
     <use xlink:href="#m88faf0ace0" x="815.913295" y="143.40459" style="fill: #3b3657; stroke: #3b3657"/>
     <use xlink:href="#m88faf0ace0" x="820.005682" y="166.087913" style="fill: #3b3657; stroke: #3b3657"/>
     <use xlink:href="#m88faf0ace0" x="824.098068" y="179.635877" style="fill: #3b3657; stroke: #3b3657"/>
     <use xlink:href="#m88faf0ace0" x="828.190455" y="205.808258" style="fill: #3b3657; stroke: #3b3657"/>
     <use xlink:href="#m88faf0ace0" x="500.799545" y="191.990787" style="fill: #3b3657; stroke: #3b3657"/>
     <use xlink:href="#m88faf0ace0" x="508.984318" y="181.799693" style="fill: #3b3657; stroke: #3b3657"/>
     <use xlink:href="#m88faf0ace0" x="513.076705" y="155.495301" style="fill: #3b3657; stroke: #3b3657"/>
     <use xlink:href="#m88faf0ace0" x="517.169091" y="209.616371" style="fill: #3b3657; stroke: #3b3657"/>
     <use xlink:href="#m88faf0ace0" x="521.261477" y="210.579538" style="fill: #3b3657; stroke: #3b3657"/>
     <use xlink:href="#m88faf0ace0" x="525.353864" y="179.951706" style="fill: #3b3657; stroke: #3b3657"/>
     <use xlink:href="#m88faf0ace0" x="529.44625" y="163.699279" style="fill: #3b3657; stroke: #3b3657"/>
     <use xlink:href="#m88faf0ace0" x="537.631023" y="153.529224" style="fill: #3b3657; stroke: #3b3657"/>
     <use xlink:href="#m88faf0ace0" x="541.723409" y="155.114081" style="fill: #3b3657; stroke: #3b3657"/>
     <use xlink:href="#m88faf0ace0" x="549.908182" y="149.082179" style="fill: #3b3657; stroke: #3b3657"/>
     <use xlink:href="#m88faf0ace0" x="554.000568" y="175.750557" style="fill: #3b3657; stroke: #3b3657"/>
     <use xlink:href="#m88faf0ace0" x="558.092955" y="162.802097" style="fill: #3b3657; stroke: #3b3657"/>
     <use xlink:href="#m88faf0ace0" x="566.277727" y="201.997577" style="fill: #3b3657; stroke: #3b3657"/>
     <use xlink:href="#m88faf0ace0" x="570.370114" y="200.910039" style="fill: #3b3657; stroke: #3b3657"/>
     <use xlink:href="#m88faf0ace0" x="574.4625" y="173.975785" style="fill: #3b3657; stroke: #3b3657"/>
     <use xlink:href="#m88faf0ace0" x="578.554886" y="171.77989" style="fill: #3b3657; stroke: #3b3657"/>
     <use xlink:href="#m88faf0ace0" x="582.647273" y="181.162375" style="fill: #3b3657; stroke: #3b3657"/>
     <use xlink:href="#m88faf0ace0" x="590.832045" y="169.43116" style="fill: #3b3657; stroke: #3b3657"/>
     <use xlink:href="#m88faf0ace0" x="594.924432" y="186.155047" style="fill: #3b3657; stroke: #3b3657"/>
     <use xlink:href="#m88faf0ace0" x="599.016818" y="168.978008" style="fill: #3b3657; stroke: #3b3657"/>
     <use xlink:href="#m88faf0ace0" x="607.201591" y="156.051378" style="fill: #3b3657; stroke: #3b3657"/>
     <use xlink:href="#m88faf0ace0" x="611.293977" y="142.747481" style="fill: #3b3657; stroke: #3b3657"/>
     <use xlink:href="#m88faf0ace0" x="615.386364" y="164.579779" style="fill: #3b3657; stroke: #3b3657"/>
     <use xlink:href="#m88faf0ace0" x="619.47875" y="198.473723" style="fill: #3b3657; stroke: #3b3657"/>
     <use xlink:href="#m88faf0ace0" x="644.033068" y="200.209416" style="fill: #3b3657; stroke: #3b3657"/>
     <use xlink:href="#m88faf0ace0" x="648.125455" y="185.194866" style="fill: #3b3657; stroke: #3b3657"/>
     <use xlink:href="#m88faf0ace0" x="652.217841" y="191.762498" style="fill: #3b3657; stroke: #3b3657"/>
     <use xlink:href="#m88faf0ace0" x="660.402614" y="176.422785" style="fill: #3b3657; stroke: #3b3657"/>
    </g>
   </g>
   <g id="patch_9">
    <path d="M 484.43 295 
L 484.43 19.44 
" style="fill: none; stroke: #000000; stroke-width: 3; stroke-linejoin: miter; stroke-linecap: square"/>
   </g>
   <g id="patch_10">
    <path d="M 844.56 295 
L 844.56 19.44 
" style="fill: none; stroke: #000000; stroke-width: 3; stroke-linejoin: miter; stroke-linecap: square"/>
   </g>
   <g id="patch_11">
    <path d="M 484.43 295 
L 844.56 295 
" style="fill: none; stroke: #000000; stroke-width: 3; stroke-linejoin: miter; stroke-linecap: square"/>
   </g>
   <g id="patch_12">
    <path d="M 484.43 19.44 
L 844.56 19.44 
" style="fill: none; stroke: #000000; stroke-width: 3; stroke-linejoin: miter; stroke-linecap: square"/>
   </g>
   <g id="legend_2">
    <g id="patch_13">
     <path d="M 703.634062 113.101875 
L 831.96 113.101875 
Q 835.56 113.101875 835.56 109.501875 
L 835.56 32.04 
Q 835.56 28.44 831.96 28.44 
L 703.634062 28.44 
Q 700.034062 28.44 700.034062 32.04 
L 700.034062 109.501875 
Q 700.034062 113.101875 703.634062 113.101875 
z
" style="fill: #ffffff; opacity: 0.8; stroke: #cccccc; stroke-linejoin: miter"/>
    </g>
    <g id="line2d_34">
     <path d="M 707.234062 43.017188 
L 725.234062 43.017188 
L 743.234062 43.017188 
" style="fill: none; stroke: #3b3657; stroke-opacity: 0.5; stroke-width: 1.5; stroke-linecap: square"/>
    </g>
    <g id="text_23">
     <!-- FT5 -->
     <g transform="translate(757.634062 49.317188) scale(0.18 -0.18)">
      <use xlink:href="#DejaVuSans-46"/>
      <use xlink:href="#DejaVuSans-54" transform="translate(55.769531 0)"/>
      <use xlink:href="#DejaVuSans-35" transform="translate(116.853516 0)"/>
     </g>
    </g>
    <g id="line2d_35">
     <path d="M 707.234062 69.437813 
L 725.234062 69.437813 
L 743.234062 69.437813 
" style="fill: none; stroke-dasharray: 5.55,2.4; stroke-dashoffset: 0; stroke: #3b3657; stroke-width: 1.5"/>
    </g>
    <g id="text_24">
     <!-- N-50pts -->
     <g transform="translate(757.634062 75.737813) scale(0.18 -0.18)">
      <use xlink:href="#DejaVuSans-4e"/>
      <use xlink:href="#DejaVuSans-2d" transform="translate(74.804688 0)"/>
      <use xlink:href="#DejaVuSans-35" transform="translate(110.888672 0)"/>
      <use xlink:href="#DejaVuSans-30" transform="translate(174.511719 0)"/>
      <use xlink:href="#DejaVuSans-70" transform="translate(238.134766 0)"/>
      <use xlink:href="#DejaVuSans-74" transform="translate(301.611328 0)"/>
      <use xlink:href="#DejaVuSans-73" transform="translate(340.820312 0)"/>
     </g>
    </g>
    <g id="line2d_36">
     <g>
      <use xlink:href="#m88faf0ace0" x="725.234062" y="95.858438" style="fill: #3b3657; stroke: #3b3657"/>
     </g>
    </g>
    <g id="text_25">
     <!-- DFT -->
     <g transform="translate(757.634062 102.158438) scale(0.18 -0.18)">
      <use xlink:href="#DejaVuSans-44"/>
      <use xlink:href="#DejaVuSans-46" transform="translate(77.001953 0)"/>
      <use xlink:href="#DejaVuSans-54" transform="translate(132.771484 0)"/>
     </g>
    </g>
   </g>
  </g>
 </g>
 <defs>
  <clipPath id="p2bf160b54b">
   <rect x="101.36" y="19.44" width="360.13" height="275.56"/>
  </clipPath>
  <clipPath id="pe2d7de23d6">
   <rect x="484.43" y="19.44" width="360.13" height="275.56"/>
  </clipPath>
 </defs>
</svg>
