<?xml version="1.0" encoding="utf-8" standalone="no"?>
<!DOCTYPE svg PUBLIC "-//W3C//DTD SVG 1.1//EN"
  "http://www.w3.org/Graphics/SVG/1.1/DTD/svg11.dtd">
<svg xmlns:xlink="http://www.w3.org/1999/xlink" width="460.8pt" height="345.6pt" viewBox="0 0 460.8 345.6" xmlns="http://www.w3.org/2000/svg" version="1.1">
 <metadata>
  <rdf:RDF xmlns:dc="http://purl.org/dc/elements/1.1/" xmlns:cc="http://creativecommons.org/ns#" xmlns:rdf="http://www.w3.org/1999/02/22-rdf-syntax-ns#">
   <cc:Work>
    <dc:type rdf:resource="http://purl.org/dc/dcmitype/StillImage"/>
    <dc:date>2025-12-10T14:11:38.065772</dc:date>
    <dc:format>image/svg+xml</dc:format>
    <dc:creator>
     <cc:Agent>
      <dc:title>Matplotlib v3.10.3, https://matplotlib.org/</dc:title>
     </cc:Agent>
    </dc:creator>
   </cc:Work>
  </rdf:RDF>
 </metadata>
 <defs>
  <style type="text/css">*{stroke-linejoin: round; stroke-linecap: butt}</style>
 </defs>
 <g id="figure_1">
  <g id="patch_1">
   <path d="M 0 345.6 
L 460.8 345.6 
L 460.8 0 
L 0 0 
z
" style="fill: #ffffff"/>
  </g>
  <g id="axes_1">
   <g id="patch_2">
    <path d="M 57.6 307.584 
L 414.72 307.584 
L 414.72 41.472 
L 57.6 41.472 
z
" style="fill: #ffffff"/>
   </g>
   <g id="matplotlib.axis_1">
    <g id="xtick_1">
     <g id="line2d_1">
      <defs>
       <path id="m4c23d2f1c4" d="M 0 0 
L 0 3.5 
" style="stroke: #000000; stroke-width: 0.8"/>
      </defs>
      <g>
       <use xlink:href="#m4c23d2f1c4" x="73.832727" y="307.584" style="stroke: #000000; stroke-width: 0.8"/>
      </g>
     </g>
     <g id="text_1">
      <!-- 0 -->
      <g transform="translate(69.060852 325.981656) scale(0.15 -0.15)">
       <defs>
        <path id="DejaVuSans-30" d="M 2034 4250 
Q 1547 4250 1301 3770 
Q 1056 3291 1056 2328 
Q 1056 1369 1301 889 
Q 1547 409 2034 409 
Q 2525 409 2770 889 
Q 3016 1369 3016 2328 
Q 3016 3291 2770 3770 
Q 2525 4250 2034 4250 
z
M 2034 4750 
Q 2819 4750 3233 4129 
Q 3647 3509 3647 2328 
Q 3647 1150 3233 529 
Q 2819 -91 2034 -91 
Q 1250 -91 836 529 
Q 422 1150 422 2328 
Q 422 3509 836 4129 
Q 1250 4750 2034 4750 
z
" transform="scale(0.015625)"/>
       </defs>
       <use xlink:href="#DejaVuSans-30"/>
      </g>
     </g>
    </g>
    <g id="xtick_2">
     <g id="line2d_2">
      <g>
       <use xlink:href="#m4c23d2f1c4" x="154.996364" y="307.584" style="stroke: #000000; stroke-width: 0.8"/>
      </g>
     </g>
     <g id="text_2">
      <!-- 5 -->
      <g transform="translate(150.224489 325.981656) scale(0.15 -0.15)">
       <defs>
        <path id="DejaVuSans-35" d="M 691 4666 
L 3169 4666 
L 3169 4134 
L 1269 4134 
L 1269 2991 
Q 1406 3038 1543 3061 
Q 1681 3084 1819 3084 
Q 2600 3084 3056 2656 
Q 3513 2228 3513 1497 
Q 3513 744 3044 326 
Q 2575 -91 1722 -91 
Q 1428 -91 1123 -41 
Q 819 9 494 109 
L 494 744 
Q 775 591 1075 516 
Q 1375 441 1709 441 
Q 2250 441 2565 725 
Q 2881 1009 2881 1497 
Q 2881 1984 2565 2268 
Q 2250 2553 1709 2553 
Q 1456 2553 1204 2497 
Q 953 2441 691 2322 
L 691 4666 
z
" transform="scale(0.015625)"/>
       </defs>
       <use xlink:href="#DejaVuSans-35"/>
      </g>
     </g>
    </g>
    <g id="xtick_3">
     <g id="line2d_3">
      <g>
       <use xlink:href="#m4c23d2f1c4" x="236.16" y="307.584" style="stroke: #000000; stroke-width: 0.8"/>
      </g>
     </g>
     <g id="text_3">
      <!-- 10 -->
      <g transform="translate(226.61625 325.981656) scale(0.15 -0.15)">
       <defs>
        <path id="DejaVuSans-31" d="M 794 531 
L 1825 531 
L 1825 4091 
L 703 3866 
L 703 4441 
L 1819 4666 
L 2450 4666 
L 2450 531 
L 3481 531 
L 3481 0 
L 794 0 
L 794 531 
z
" transform="scale(0.015625)"/>
       </defs>
       <use xlink:href="#DejaVuSans-31"/>
       <use xlink:href="#DejaVuSans-30" transform="translate(63.623047 0)"/>
      </g>
     </g>
    </g>
    <g id="xtick_4">
     <g id="line2d_4">
      <g>
       <use xlink:href="#m4c23d2f1c4" x="317.323636" y="307.584" style="stroke: #000000; stroke-width: 0.8"/>
      </g>
     </g>
     <g id="text_4">
      <!-- 15 -->
      <g transform="translate(307.779886 325.981656) scale(0.15 -0.15)">
       <use xlink:href="#DejaVuSans-31"/>
       <use xlink:href="#DejaVuSans-35" transform="translate(63.623047 0)"/>
      </g>
     </g>
    </g>
    <g id="xtick_5">
     <g id="line2d_5">
      <g>
       <use xlink:href="#m4c23d2f1c4" x="398.487273" y="307.584" style="stroke: #000000; stroke-width: 0.8"/>
      </g>
     </g>
     <g id="text_5">
      <!-- 20 -->
      <g transform="translate(388.943523 325.981656) scale(0.15 -0.15)">
       <defs>
        <path id="DejaVuSans-32" d="M 1228 531 
L 3431 531 
L 3431 0 
L 469 0 
L 469 531 
Q 828 903 1448 1529 
Q 2069 2156 2228 2338 
Q 2531 2678 2651 2914 
Q 2772 3150 2772 3378 
Q 2772 3750 2511 3984 
Q 2250 4219 1831 4219 
Q 1534 4219 1204 4116 
Q 875 4013 500 3803 
L 500 4441 
Q 881 4594 1212 4672 
Q 1544 4750 1819 4750 
Q 2544 4750 2975 4387 
Q 3406 4025 3406 3419 
Q 3406 3131 3298 2873 
Q 3191 2616 2906 2266 
Q 2828 2175 2409 1742 
Q 1991 1309 1228 531 
z
" transform="scale(0.015625)"/>
       </defs>
       <use xlink:href="#DejaVuSans-32"/>
       <use xlink:href="#DejaVuSans-30" transform="translate(63.623047 0)"/>
      </g>
     </g>
    </g>
   </g>
   <g id="matplotlib.axis_2">
    <g id="ytick_1">
     <g id="line2d_6">
      <defs>
       <path id="m218cb3ce00" d="M 0 0 
L -3.5 0 
" style="stroke: #000000; stroke-width: 0.8"/>
      </defs>
      <g>
       <use xlink:href="#m218cb3ce00" x="57.6" y="303.196192" style="stroke: #000000; stroke-width: 0.8"/>
      </g>
     </g>
     <g id="text_6">
      <!-- 2.5 -->
      <g transform="translate(26.745313 308.89502) scale(0.15 -0.15)">
       <defs>
        <path id="DejaVuSans-2e" d="M 684 794 
L 1344 794 
L 1344 0 
L 684 0 
L 684 794 
z
" transform="scale(0.015625)"/>
       </defs>
       <use xlink:href="#DejaVuSans-32"/>
       <use xlink:href="#DejaVuSans-2e" transform="translate(63.623047 0)"/>
       <use xlink:href="#DejaVuSans-35" transform="translate(95.410156 0)"/>
      </g>
     </g>
    </g>
    <g id="ytick_2">
     <g id="line2d_7">
      <g>
       <use xlink:href="#m218cb3ce00" x="57.6" y="262.008358" style="stroke: #000000; stroke-width: 0.8"/>
      </g>
     </g>
     <g id="text_7">
      <!-- 5.0 -->
      <g transform="translate(26.745313 267.707186) scale(0.15 -0.15)">
       <use xlink:href="#DejaVuSans-35"/>
       <use xlink:href="#DejaVuSans-2e" transform="translate(63.623047 0)"/>
       <use xlink:href="#DejaVuSans-30" transform="translate(95.410156 0)"/>
      </g>
     </g>
    </g>
    <g id="ytick_3">
     <g id="line2d_8">
      <g>
       <use xlink:href="#m218cb3ce00" x="57.6" y="220.820524" style="stroke: #000000; stroke-width: 0.8"/>
      </g>
     </g>
     <g id="text_8">
      <!-- 7.5 -->
      <g transform="translate(26.745313 226.519352) scale(0.15 -0.15)">
       <defs>
        <path id="DejaVuSans-37" d="M 525 4666 
L 3525 4666 
L 3525 4397 
L 1831 0 
L 1172 0 
L 2766 4134 
L 525 4134 
L 525 4666 
z
" transform="scale(0.015625)"/>
       </defs>
       <use xlink:href="#DejaVuSans-37"/>
       <use xlink:href="#DejaVuSans-2e" transform="translate(63.623047 0)"/>
       <use xlink:href="#DejaVuSans-35" transform="translate(95.410156 0)"/>
      </g>
     </g>
    </g>
    <g id="ytick_4">
     <g id="line2d_9">
      <g>
       <use xlink:href="#m218cb3ce00" x="57.6" y="179.63269" style="stroke: #000000; stroke-width: 0.8"/>
      </g>
     </g>
     <g id="text_9">
      <!-- 10.0 -->
      <g transform="translate(17.201563 185.331519) scale(0.15 -0.15)">
       <use xlink:href="#DejaVuSans-31"/>
       <use xlink:href="#DejaVuSans-30" transform="translate(63.623047 0)"/>
       <use xlink:href="#DejaVuSans-2e" transform="translate(127.246094 0)"/>
       <use xlink:href="#DejaVuSans-30" transform="translate(159.033203 0)"/>
      </g>
     </g>
    </g>
    <g id="ytick_5">
     <g id="line2d_10">
      <g>
       <use xlink:href="#m218cb3ce00" x="57.6" y="138.444857" style="stroke: #000000; stroke-width: 0.8"/>
      </g>
     </g>
     <g id="text_10">
      <!-- 12.5 -->
      <g transform="translate(17.201563 144.143685) scale(0.15 -0.15)">
       <use xlink:href="#DejaVuSans-31"/>
       <use xlink:href="#DejaVuSans-32" transform="translate(63.623047 0)"/>
       <use xlink:href="#DejaVuSans-2e" transform="translate(127.246094 0)"/>
       <use xlink:href="#DejaVuSans-35" transform="translate(159.033203 0)"/>
      </g>
     </g>
    </g>
    <g id="ytick_6">
     <g id="line2d_11">
      <g>
       <use xlink:href="#m218cb3ce00" x="57.6" y="97.257023" style="stroke: #000000; stroke-width: 0.8"/>
      </g>
     </g>
     <g id="text_11">
      <!-- 15.0 -->
      <g transform="translate(17.201563 102.955851) scale(0.15 -0.15)">
       <use xlink:href="#DejaVuSans-31"/>
       <use xlink:href="#DejaVuSans-35" transform="translate(63.623047 0)"/>
       <use xlink:href="#DejaVuSans-2e" transform="translate(127.246094 0)"/>
       <use xlink:href="#DejaVuSans-30" transform="translate(159.033203 0)"/>
      </g>
     </g>
    </g>
    <g id="ytick_7">
     <g id="line2d_12">
      <g>
       <use xlink:href="#m218cb3ce00" x="57.6" y="56.069189" style="stroke: #000000; stroke-width: 0.8"/>
      </g>
     </g>
     <g id="text_12">
      <!-- 17.5 -->
      <g transform="translate(17.201563 61.768018) scale(0.15 -0.15)">
       <use xlink:href="#DejaVuSans-31"/>
       <use xlink:href="#DejaVuSans-37" transform="translate(63.623047 0)"/>
       <use xlink:href="#DejaVuSans-2e" transform="translate(127.246094 0)"/>
       <use xlink:href="#DejaVuSans-35" transform="translate(159.033203 0)"/>
      </g>
     </g>
    </g>
   </g>
   <g id="line2d_13">
    <path d="M 73.832727 175.8907 
L 90.065455 190.757849 
L 106.298182 144.833631 
L 122.530909 185.072785 
L 138.763636 152.622071 
L 154.996364 134.638773 
L 171.229091 162.1712 
L 187.461818 117.60423 
L 203.694545 142.946252 
L 219.927273 189.079932 
L 236.16 105.742606 
L 252.392727 133.996019 
L 268.625455 176.237561 
L 284.858182 200.02349 
L 301.090909 140.014976 
L 317.323636 100.488708 
L 333.556364 164.333279 
L 349.789091 226.102435 
L 366.021818 196.432517 
L 382.254545 195.042744 
L 398.487273 221.406634 
" clip-path="url(#p24db4e9b67)" style="fill: none; stroke: #35b779; stroke-opacity: 0.5; stroke-width: 1.5; stroke-linecap: square"/>
   </g>
   <g id="line2d_14">
    <path d="M 73.832727 220.028617 
L 90.065455 157.69764 
L 106.298182 86.490208 
L 122.530909 146.416376 
L 138.763636 149.724776 
L 154.996364 168.023073 
L 171.229091 198.243064 
L 187.461818 150.261192 
L 203.694545 227.186199 
L 219.927273 122.952879 
L 236.16 167.900976 
L 252.392727 89.654349 
L 268.625455 158.452767 
L 284.858182 157.916644 
L 301.090909 130.899238 
L 317.323636 193.058136 
L 333.556364 154.080192 
L 349.789091 169.79975 
L 366.021818 186.452516 
L 382.254545 116.282201 
L 398.487273 177.498868 
" clip-path="url(#p24db4e9b67)" style="fill: none; stroke: #35b779; stroke-opacity: 0.5; stroke-width: 1.5; stroke-linecap: square"/>
   </g>
   <g id="line2d_15">
    <path d="M 73.832727 152.413419 
L 90.065455 148.303928 
L 106.298182 163.006826 
L 122.530909 140.016648 
L 138.763636 119.424059 
L 154.996364 144.613705 
L 171.229091 175.710887 
L 187.461818 110.443845 
L 203.694545 127.361876 
L 219.927273 167.016761 
L 236.16 141.65338 
L 252.392727 81.996279 
L 268.625455 207.450707 
L 284.858182 160.770631 
L 301.090909 157.854511 
L 317.323636 172.783468 
L 333.556364 188.814482 
L 349.789091 161.261969 
L 366.021818 125.345369 
L 382.254545 129.63109 
L 398.487273 148.109946 
" clip-path="url(#p24db4e9b67)" style="fill: none; stroke: #35b779; stroke-opacity: 0.5; stroke-width: 1.5; stroke-linecap: square"/>
   </g>
   <g id="line2d_16">
    <path d="M 73.832727 180.384395 
L 90.065455 248.25977 
L 106.298182 217.167267 
L 122.530909 234.039792 
L 138.763636 229.581358 
L 154.996364 212.260497 
L 171.229091 249.845346 
L 187.461818 224.533541 
L 203.694545 239.546324 
L 219.927273 241.277735 
L 236.16 215.59942 
L 252.392727 245.713022 
L 268.625455 244.629356 
L 284.858182 242.896658 
L 301.090909 215.676986 
L 317.323636 214.19149 
L 333.556364 242.840695 
L 349.789091 235.119632 
L 366.021818 233.393577 
L 382.254545 233.069248 
L 398.487273 231.52855 
" clip-path="url(#p24db4e9b67)" style="fill: none; stroke: #35b779; stroke-opacity: 0.5; stroke-width: 1.5; stroke-linecap: square"/>
   </g>
   <g id="line2d_17">
    <path d="M 73.832727 222.778433 
L 90.065455 264.417445 
L 106.298182 243.903363 
L 122.530909 258.981501 
L 138.763636 266.687188 
L 154.996364 268.27653 
L 171.229091 274.007165 
L 187.461818 241.664223 
L 203.694545 213.601807 
L 219.927273 246.8183 
L 236.16 205.186454 
L 252.392727 268.266199 
L 268.625455 263.651546 
L 284.858182 263.947101 
L 301.090909 198.502948 
L 317.323636 253.469552 
L 333.556364 210.265369 
L 349.789091 254.266715 
L 366.021818 234.010608 
L 382.254545 256.954309 
L 398.487273 223.304229 
" clip-path="url(#p24db4e9b67)" style="fill: none; stroke: #35b779; stroke-opacity: 0.5; stroke-width: 1.5; stroke-linecap: square"/>
   </g>
   <g id="line2d_18">
    <path d="M 73.832727 158.341804 
L 90.065455 194.740998 
L 106.298182 248.109384 
L 122.530909 204.049965 
L 138.763636 209.545967 
L 154.996364 245.156249 
L 171.229091 233.895543 
L 187.461818 186.970647 
L 203.694545 182.089291 
L 219.927273 230.788747 
L 236.16 152.891485 
L 252.392727 185.251679 
L 268.625455 169.897672 
L 284.858182 160.095732 
L 301.090909 209.973037 
L 317.323636 169.737604 
L 333.556364 167.339058 
L 349.789091 212.466834 
L 366.021818 201.341523 
L 382.254545 216.143472 
L 398.487273 193.585586 
" clip-path="url(#p24db4e9b67)" style="fill: none; stroke: #35b779; stroke-opacity: 0.5; stroke-width: 1.5; stroke-linecap: square"/>
   </g>
   <g id="line2d_19">
    <path d="M 73.832727 210.224996 
L 90.065455 198.335828 
L 106.298182 223.494238 
L 122.530909 219.981531 
L 138.763636 207.889666 
L 154.996364 180.350731 
L 171.229091 252.533404 
L 187.461818 267.125103 
L 203.694545 204.539945 
L 219.927273 265.035373 
L 236.16 232.851477 
L 252.392727 251.71627 
L 268.625455 254.269798 
L 284.858182 217.264919 
L 301.090909 194.236125 
L 317.323636 210.9025 
L 333.556364 231.256196 
L 349.789091 186.205162 
L 366.021818 166.516524 
L 382.254545 187.29416 
L 398.487273 176.76169 
" clip-path="url(#p24db4e9b67)" style="fill: none; stroke: #35b779; stroke-opacity: 0.5; stroke-width: 1.5; stroke-linecap: square"/>
   </g>
   <g id="line2d_20">
    <path d="M 73.832727 203.390987 
L 90.065455 259.03178 
L 106.298182 262.703715 
L 122.530909 272.244233 
L 138.763636 263.230067 
L 154.996364 200.20836 
L 171.229091 236.643496 
L 187.461818 227.762872 
L 203.694545 269.914292 
L 219.927273 197.816542 
L 236.16 234.718961 
L 252.392727 233.992382 
L 268.625455 194.195746 
L 284.858182 241.928473 
L 301.090909 252.229614 
L 317.323636 187.534881 
L 333.556364 219.534471 
L 349.789091 226.609288 
L 366.021818 233.615332 
L 382.254545 224.437919 
L 398.487273 270.110176 
" clip-path="url(#p24db4e9b67)" style="fill: none; stroke: #35b779; stroke-opacity: 0.5; stroke-width: 1.5; stroke-linecap: square"/>
   </g>
   <g id="line2d_21">
    <path d="M 73.832727 179.527813 
L 90.065455 186.222918 
L 106.298182 239.365126 
L 122.530909 239.414521 
L 138.763636 251.250713 
L 154.996364 269.761588 
L 171.229091 253.938499 
L 187.461818 204.57874 
L 203.694545 227.884588 
L 219.927273 183.288704 
L 236.16 257.817783 
L 252.392727 289.461433 
L 268.625455 242.014219 
L 284.858182 229.088216 
L 301.090909 235.620115 
L 317.323636 232.542081 
L 333.556364 205.935031 
L 349.789091 253.26471 
L 366.021818 247.951778 
L 382.254545 219.55292 
L 398.487273 231.626825 
" clip-path="url(#p24db4e9b67)" style="fill: none; stroke: #35b779; stroke-opacity: 0.5; stroke-width: 1.5; stroke-linecap: square"/>
   </g>
   <g id="line2d_22">
    <path d="M 73.832727 63.665737 
L 90.065455 129.55456 
L 106.298182 85.055702 
L 122.530909 107.820247 
L 138.763636 127.616625 
L 154.996364 131.38263 
L 171.229091 239.992499 
L 187.461818 187.99764 
L 203.694545 87.677392 
L 219.927273 196.911508 
L 236.16 243.806176 
L 252.392727 229.980804 
L 268.625455 211.79766 
L 284.858182 245.43072 
L 301.090909 219.069306 
L 317.323636 219.819236 
L 333.556364 214.431512 
L 349.789091 211.806204 
L 366.021818 223.249115 
L 382.254545 223.384152 
L 398.487273 225.296734 
" clip-path="url(#p24db4e9b67)" style="fill: none; stroke: #35b779; stroke-opacity: 0.5; stroke-width: 1.5; stroke-linecap: square"/>
   </g>
   <g id="line2d_23">
    <path d="M 73.832727 225.955046 
L 90.065455 173.241815 
L 106.298182 261.237758 
L 122.530909 244.894964 
L 138.763636 198.499258 
L 154.996364 235.334745 
L 171.229091 227.397219 
L 187.461818 227.6948 
L 203.694545 228.909109 
L 219.927273 275.075804 
L 236.16 221.783598 
L 252.392727 235.504669 
L 268.625455 235.534416 
L 284.858182 233.593823 
L 301.090909 235.0114 
L 317.323636 169.553648 
L 333.556364 229.316907 
L 349.789091 222.817423 
L 366.021818 239.7638 
L 382.254545 190.872133 
L 398.487273 218.332577 
" clip-path="url(#p24db4e9b67)" style="fill: none; stroke: #35b779; stroke-opacity: 0.5; stroke-width: 1.5; stroke-linecap: square"/>
   </g>
   <g id="line2d_24">
    <path d="M 73.832727 258.848981 
L 90.065455 253.592739 
L 106.298182 259.036847 
L 122.530909 247.468622 
L 138.763636 209.9005 
L 154.996364 197.637404 
L 171.229091 160.930014 
L 187.461818 195.773756 
L 203.694545 185.609053 
L 219.927273 186.464269 
L 236.16 228.744443 
L 252.392727 194.683268 
L 268.625455 216.846626 
L 284.858182 226.548073 
L 301.090909 222.98179 
L 317.323636 201.968428 
L 333.556364 220.560672 
L 349.789091 224.842082 
L 366.021818 229.748936 
L 382.254545 215.199945 
L 398.487273 225.399312 
" clip-path="url(#p24db4e9b67)" style="fill: none; stroke: #35b779; stroke-opacity: 0.5; stroke-width: 1.5; stroke-linecap: square"/>
   </g>
   <g id="line2d_25">
    <path d="M 73.832727 223.320413 
L 90.065455 279.158219 
L 106.298182 188.181944 
L 122.530909 223.34128 
L 138.763636 228.172769 
L 154.996364 229.866993 
L 171.229091 249.209644 
L 187.461818 258.383101 
L 203.694545 188.615427 
L 219.927273 246.215567 
L 236.16 191.33337 
L 252.392727 188.004013 
L 268.625455 177.530295 
L 284.858182 171.932038 
L 301.090909 162.79658 
L 317.323636 154.799353 
L 333.556364 174.215948 
L 349.789091 191.910408 
L 366.021818 204.081003 
L 382.254545 175.267351 
L 398.487273 210.909684 
" clip-path="url(#p24db4e9b67)" style="fill: none; stroke: #35b779; stroke-opacity: 0.5; stroke-width: 1.5; stroke-linecap: square"/>
   </g>
   <g id="line2d_26">
    <path d="M 73.832727 206.533373 
L 90.065455 228.603683 
L 106.298182 216.384825 
L 122.530909 222.294663 
L 138.763636 264.981219 
L 154.996364 185.534817 
L 171.229091 281.832648 
L 187.461818 295.488 
L 203.694545 239.033705 
L 219.927273 243.278864 
L 236.16 260.668873 
L 252.392727 226.017505 
L 268.625455 245.294055 
L 284.858182 236.19778 
L 301.090909 259.331635 
L 317.323636 229.015305 
L 333.556364 226.345159 
L 349.789091 254.653045 
L 366.021818 232.409907 
L 382.254545 265.000498 
L 398.487273 232.274145 
" clip-path="url(#p24db4e9b67)" style="fill: none; stroke: #35b779; stroke-opacity: 0.5; stroke-width: 1.5; stroke-linecap: square"/>
   </g>
   <g id="line2d_27">
    <path d="M 73.832727 88.817166 
L 90.065455 214.712047 
L 106.298182 252.932101 
L 122.530909 267.443402 
L 138.763636 270.988206 
L 154.996364 226.326986 
L 171.229091 221.521605 
L 187.461818 230.128095 
L 203.694545 225.206049 
L 219.927273 161.309799 
L 236.16 250.394866 
L 252.392727 218.914922 
L 268.625455 217.276543 
L 284.858182 213.895478 
L 301.090909 226.906254 
L 317.323636 234.109266 
L 333.556364 183.555603 
L 349.789091 217.906769 
L 366.021818 232.234841 
L 382.254545 264.280965 
L 398.487273 238.976213 
" clip-path="url(#p24db4e9b67)" style="fill: none; stroke: #35b779; stroke-opacity: 0.5; stroke-width: 1.5; stroke-linecap: square"/>
   </g>
   <g id="line2d_28">
    <path d="M 73.832727 186.838213 
L 90.065455 156.674368 
L 106.298182 246.513788 
L 122.530909 187.155946 
L 138.763636 224.612529 
L 154.996364 233.803023 
L 171.229091 210.60693 
L 187.461818 255.953158 
L 203.694545 265.48854 
L 219.927273 251.991599 
L 236.16 217.2566 
L 252.392727 268.749699 
L 268.625455 280.376694 
L 284.858182 267.84677 
L 301.090909 252.332464 
L 317.323636 259.58574 
L 333.556364 211.433857 
L 349.789091 213.792509 
L 366.021818 221.75447 
L 382.254545 208.109878 
L 398.487273 238.515627 
" clip-path="url(#p24db4e9b67)" style="fill: none; stroke: #35b779; stroke-opacity: 0.5; stroke-width: 1.5; stroke-linecap: square"/>
   </g>
   <g id="line2d_29">
    <path d="M 73.832727 207.107833 
L 90.065455 214.544269 
L 106.298182 202.349035 
L 122.530909 173.79915 
L 138.763636 215.834147 
L 154.996364 129.846318 
L 171.229091 208.855556 
L 187.461818 215.979796 
L 203.694545 225.432251 
L 219.927273 170.374502 
L 236.16 220.72539 
L 252.392727 214.30266 
L 268.625455 249.38219 
L 284.858182 199.786573 
L 301.090909 203.67571 
L 317.323636 229.25409 
L 333.556364 216.162627 
L 349.789091 234.959787 
L 366.021818 198.249482 
L 382.254545 222.497417 
L 398.487273 250.564678 
" clip-path="url(#p24db4e9b67)" style="fill: none; stroke: #35b779; stroke-opacity: 0.5; stroke-width: 1.5; stroke-linecap: square"/>
   </g>
   <g id="line2d_30">
    <path d="M 73.832727 130.387337 
L 90.065455 162.244011 
L 106.298182 154.580918 
L 122.530909 143.223941 
L 138.763636 235.101799 
L 154.996364 172.957705 
L 171.229091 249.616432 
L 187.461818 230.582601 
L 203.694545 190.855578 
L 219.927273 209.468773 
L 236.16 188.301594 
L 252.392727 228.580287 
L 268.625455 271.776494 
L 284.858182 230.66811 
L 301.090909 205.29599 
L 317.323636 235.532828 
L 333.556364 265.628802 
L 349.789091 275.300141 
L 366.021818 243.415723 
L 382.254545 210.291797 
L 398.487273 263.36971 
" clip-path="url(#p24db4e9b67)" style="fill: none; stroke: #35b779; stroke-opacity: 0.5; stroke-width: 1.5; stroke-linecap: square"/>
   </g>
   <g id="line2d_31">
    <path d="M 73.832727 294.460265 
L 90.065455 287.432736 
L 106.298182 254.446337 
L 122.530909 252.723107 
L 138.763636 254.512632 
L 154.996364 263.269728 
L 171.229091 273.595097 
L 187.461818 274.642492 
L 203.694545 292.179021 
L 219.927273 283.720565 
L 236.16 153.478074 
L 252.392727 209.802066 
L 268.625455 244.110351 
L 284.858182 241.768197 
L 301.090909 218.351108 
L 317.323636 228.748784 
L 333.556364 232.385034 
L 349.789091 232.595031 
L 366.021818 219.120922 
L 382.254545 201.664118 
L 398.487273 255.196977 
" clip-path="url(#p24db4e9b67)" style="fill: none; stroke: #35b779; stroke-opacity: 0.5; stroke-width: 1.5; stroke-linecap: square"/>
   </g>
   <g id="line2d_32">
    <path d="M 73.832727 154.74831 
L 90.065455 151.293341 
L 106.298182 229.210486 
L 122.530909 241.68164 
L 138.763636 210.164198 
L 154.996364 215.911462 
L 171.229091 210.170645 
L 187.461818 250.427954 
L 203.694545 190.283427 
L 219.927273 215.56013 
L 236.16 140.187837 
L 252.392727 156.52011 
L 268.625455 201.971788 
L 284.858182 203.48927 
L 301.090909 147.624024 
L 317.323636 184.421783 
L 333.556364 203.533901 
L 349.789091 221.683455 
L 366.021818 143.008167 
L 382.254545 128.306432 
L 398.487273 219.193942 
" clip-path="url(#p24db4e9b67)" style="fill: none; stroke: #35b779; stroke-opacity: 0.5; stroke-width: 1.5; stroke-linecap: square"/>
   </g>
   <g id="line2d_33">
    <path d="M 73.832727 250.282392 
L 90.065455 260.521041 
L 106.298182 275.806067 
L 122.530909 262.19228 
L 138.763636 268.682767 
L 154.996364 210.66479 
L 171.229091 259.682174 
L 187.461818 247.746032 
L 203.694545 200.759691 
L 219.927273 266.578034 
L 236.16 237.174303 
L 252.392727 243.003905 
L 268.625455 264.238016 
L 284.858182 279.733979 
L 301.090909 219.322443 
L 317.323636 217.353946 
L 333.556364 234.152415 
L 349.789091 247.700544 
L 366.021818 264.452907 
L 382.254545 188.248062 
L 398.487273 275.951365 
" clip-path="url(#p24db4e9b67)" style="fill: none; stroke: #35b779; stroke-opacity: 0.5; stroke-width: 1.5; stroke-linecap: square"/>
   </g>
   <g id="line2d_34">
    <path d="M 73.832727 173.676438 
L 90.065455 191.417453 
L 106.298182 249.26731 
L 122.530909 233.472237 
L 138.763636 206.525773 
L 154.996364 218.914783 
L 171.229091 185.26776 
L 187.461818 201.320489 
L 203.694545 226.033476 
L 219.927273 216.302937 
L 236.16 232.771859 
L 252.392727 204.4346 
L 268.625455 207.690875 
L 284.858182 248.699266 
L 301.090909 193.052019 
L 317.323636 260.328599 
L 333.556364 175.712828 
L 349.789091 247.880604 
L 366.021818 219.665911 
L 382.254545 225.807876 
L 398.487273 218.540142 
" clip-path="url(#p24db4e9b67)" style="fill: none; stroke: #35b779; stroke-opacity: 0.5; stroke-width: 1.5; stroke-linecap: square"/>
   </g>
   <g id="line2d_35">
    <path d="M 73.832727 246.557035 
L 90.065455 254.61931 
L 106.298182 235.816824 
L 122.530909 216.373921 
L 138.763636 225.98827 
L 154.996364 219.81711 
L 171.229091 175.179167 
L 187.461818 230.46191 
L 203.694545 236.174364 
L 219.927273 240.601926 
L 236.16 197.215463 
L 252.392727 232.750992 
L 268.625455 237.960333 
L 284.858182 258.078802 
L 301.090909 278.270216 
L 317.323636 252.298136 
L 333.556364 221.838904 
L 349.789091 248.023445 
L 366.021818 239.548111 
L 382.254545 249.513404 
L 398.487273 255.661955 
" clip-path="url(#p24db4e9b67)" style="fill: none; stroke: #35b779; stroke-opacity: 0.5; stroke-width: 1.5; stroke-linecap: square"/>
   </g>
   <g id="line2d_36">
    <path d="M 73.832727 204.380509 
L 90.065455 222.832769 
L 106.298182 182.479984 
L 122.530909 179.970752 
L 138.763636 194.841737 
L 154.996364 173.523436 
L 171.229091 186.499054 
L 187.461818 191.822019 
L 203.694545 191.792733 
L 219.927273 181.081501 
L 236.16 188.176447 
L 252.392727 238.251268 
L 268.625455 188.707306 
L 284.858182 197.382949 
L 301.090909 191.522867 
L 317.323636 166.330768 
L 333.556364 193.683962 
L 349.789091 163.588627 
L 366.021818 192.418838 
L 382.254545 219.043493 
L 398.487273 203.151849 
" clip-path="url(#p24db4e9b67)" style="fill: none; stroke: #35b779; stroke-opacity: 0.5; stroke-width: 1.5; stroke-linecap: square"/>
   </g>
   <g id="line2d_37">
    <path d="M 73.832727 162.868964 
L 90.065455 181.126056 
L 106.298182 207.30941 
L 122.530909 188.262653 
L 138.763636 229.541037 
L 154.996364 241.27957 
L 171.229091 183.71927 
L 187.461818 245.767275 
L 203.694545 234.733704 
L 219.927273 232.69977 
L 236.16 192.066985 
L 252.392727 224.8282 
L 268.625455 180.197345 
L 284.858182 221.006829 
L 301.090909 205.308705 
L 317.323636 173.500759 
L 333.556364 223.328451 
L 349.789091 221.411605 
L 366.021818 192.069874 
L 382.254545 197.321458 
L 398.487273 216.035567 
" clip-path="url(#p24db4e9b67)" style="fill: none; stroke: #35b779; stroke-opacity: 0.5; stroke-width: 1.5; stroke-linecap: square"/>
   </g>
   <g id="line2d_38">
    <path d="M 73.832727 53.568 
L 90.065455 188.799093 
L 106.298182 144.440998 
L 122.530909 196.044533 
L 138.763636 236.348805 
L 154.996364 186.206769 
L 171.229091 175.754693 
L 187.461818 213.08889 
L 203.694545 197.540471 
L 219.927273 218.371784 
L 236.16 233.475603 
L 252.392727 232.932459 
L 268.625455 213.622914 
L 284.858182 233.115939 
L 301.090909 222.676869 
L 317.323636 233.826882 
L 333.556364 271.915002 
L 349.789091 244.622233 
L 366.021818 232.642011 
L 382.254545 224.268096 
L 398.487273 234.861971 
" clip-path="url(#p24db4e9b67)" style="fill: none; stroke: #35b779; stroke-opacity: 0.5; stroke-width: 1.5; stroke-linecap: square"/>
   </g>
   <g id="line2d_39">
    <path d="M 73.832727 273.077191 
L 90.065455 215.938071 
L 106.298182 221.936641 
L 122.530909 208.228631 
L 138.763636 185.361124 
L 154.996364 235.334843 
L 171.229091 215.360908 
L 187.461818 255.437407 
L 203.694545 255.165615 
L 219.927273 173.831597 
L 236.16 238.061128 
L 252.392727 189.144585 
L 268.625455 236.522875 
L 284.858182 250.648558 
L 301.090909 253.203298 
L 317.323636 72.458372 
L 333.556364 164.76848 
L 349.789091 187.927248 
L 366.021818 210.688841 
L 382.254545 201.398153 
L 398.487273 173.37201 
" clip-path="url(#p24db4e9b67)" style="fill: none; stroke: #35b779; stroke-opacity: 0.5; stroke-width: 1.5; stroke-linecap: square"/>
   </g>
   <g id="line2d_40">
    <path d="M 73.832727 237.015815 
L 90.065455 185.013729 
L 106.298182 203.753823 
L 122.530909 189.741951 
L 138.763636 211.500427 
L 154.996364 227.531734 
L 171.229091 216.544606 
L 187.461818 189.482504 
L 203.694545 179.58191 
L 219.927273 199.623966 
L 236.16 195.939731 
L 252.392727 243.622217 
L 268.625455 246.188864 
L 284.858182 233.497499 
L 301.090909 264.931245 
L 317.323636 242.376641 
L 333.556364 253.551175 
L 349.789091 244.766042 
L 366.021818 253.057872 
L 382.254545 275.397375 
L 398.487273 267.139281 
" clip-path="url(#p24db4e9b67)" style="fill: none; stroke: #35b779; stroke-opacity: 0.5; stroke-width: 1.5; stroke-linecap: square"/>
   </g>
   <g id="line2d_41">
    <path d="M 73.832727 193.906367 
L 90.065455 169.142792 
L 106.298182 203.107925 
L 122.530909 217.475146 
L 138.763636 220.760282 
L 154.996364 223.015401 
L 171.229091 214.547928 
L 187.461818 203.92743 
L 203.694545 203.117172 
L 219.927273 194.563795 
L 236.16 203.833692 
L 252.392727 230.823101 
L 268.625455 236.80362 
L 284.858182 229.743383 
L 301.090909 217.310666 
L 317.323636 232.067669 
L 333.556364 213.07149 
L 349.789091 223.613476 
L 366.021818 206.018407 
L 382.254545 208.668877 
L 398.487273 249.686765 
" clip-path="url(#p24db4e9b67)" style="fill: none; stroke: #35b779; stroke-opacity: 0.5; stroke-width: 1.5; stroke-linecap: square"/>
   </g>
   <g id="line2d_42">
    <path d="M 73.832727 280.850215 
L 90.065455 268.368964 
L 106.298182 254.83643 
L 122.530909 238.642086 
L 138.763636 232.265142 
L 154.996364 257.290587 
L 171.229091 284.740648 
L 187.461818 264.994039 
L 203.694545 262.223985 
L 219.927273 236.132121 
L 236.16 267.724235 
L 252.392727 227.998364 
L 268.625455 229.044316 
L 284.858182 258.322979 
L 301.090909 253.243184 
L 317.323636 255.607973 
L 333.556364 246.254745 
L 349.789091 222.708243 
L 366.021818 230.468594 
L 382.254545 224.54289 
L 398.487273 257.819889 
" clip-path="url(#p24db4e9b67)" style="fill: none; stroke: #35b779; stroke-opacity: 0.5; stroke-width: 1.5; stroke-linecap: square"/>
   </g>
   <g id="line2d_43">
    <path d="M 73.832727 206.407533 
L 90.065455 213.330653 
L 106.298182 206.756822 
L 122.530909 197.197229 
L 138.763636 196.429257 
L 154.996364 223.369724 
L 171.229091 225.943626 
L 187.461818 202.926638 
L 203.694545 210.140745 
L 219.927273 230.963095 
L 236.16 199.56001 
L 252.392727 188.590824 
L 268.625455 193.882933 
L 284.858182 155.370416 
L 301.090909 242.651086 
L 317.323636 215.314512 
L 333.556364 241.590858 
L 349.789091 229.500398 
L 366.021818 204.586443 
L 382.254545 206.36276 
L 398.487273 220.579596 
" clip-path="url(#p24db4e9b67)" style="fill: none; stroke: #35b779; stroke-opacity: 0.5; stroke-width: 1.5; stroke-linecap: square"/>
   </g>
   <g id="line2d_44">
    <path d="M 73.832727 179.943585 
L 90.065455 170.570962 
L 106.298182 230.038549 
L 122.530909 246.154597 
L 138.763636 228.784156 
L 154.996364 209.320014 
L 171.229091 246.309663 
L 187.461818 280.89073 
L 203.694545 247.923522 
L 219.927273 216.383148 
L 236.16 256.521428 
L 252.392727 216.187628 
L 268.625455 260.706702 
L 284.858182 258.356583 
L 301.090909 218.903677 
L 317.323636 230.119672 
L 333.556364 214.729064 
L 349.789091 188.420786 
L 366.021818 220.700637 
L 382.254545 170.249171 
L 398.487273 203.787617 
" clip-path="url(#p24db4e9b67)" style="fill: none; stroke: #35b779; stroke-opacity: 0.5; stroke-width: 1.5; stroke-linecap: square"/>
   </g>
   <g id="line2d_45">
    <path d="M 73.832727 248.649375 
L 90.065455 226.48868 
L 106.298182 253.092069 
L 122.530909 249.545039 
L 138.763636 235.69028 
L 154.996364 206.385805 
L 171.229091 240.143581 
L 187.461818 230.299443 
L 203.694545 218.800642 
L 219.927273 220.663642 
L 236.16 222.679938 
L 252.392727 201.485986 
L 268.625455 203.378561 
L 284.858182 173.377522 
L 301.090909 157.947081 
L 317.323636 212.315523 
L 333.556364 166.884708 
L 349.789091 195.651875 
L 366.021818 187.921268 
L 382.254545 193.678112 
L 398.487273 233.819625 
" clip-path="url(#p24db4e9b67)" style="fill: none; stroke: #35b779; stroke-opacity: 0.5; stroke-width: 1.5; stroke-linecap: square"/>
   </g>
   <g id="line2d_46">
    <path d="M 73.832727 233.006701 
L 90.065455 190.712882 
L 106.298182 169.244354 
L 122.530909 167.913336 
L 138.763636 193.380465 
L 154.996364 134.103564 
L 171.229091 225.224326 
L 187.461818 212.571073 
L 203.694545 171.534775 
L 219.927273 202.789903 
L 236.16 217.804094 
L 252.392727 190.504473 
L 268.625455 184.364031 
L 284.858182 164.392835 
L 301.090909 120.645857 
L 317.323636 111.529556 
L 333.556364 163.855905 
L 349.789091 140.191494 
L 366.021818 86.758845 
L 382.254545 171.943966 
L 398.487273 172.630053 
" clip-path="url(#p24db4e9b67)" style="fill: none; stroke: #35b779; stroke-opacity: 0.5; stroke-width: 1.5; stroke-linecap: square"/>
   </g>
   <g id="line2d_47">
    <path d="M 73.832727 244.492527 
L 90.065455 220.776542 
L 106.298182 261.459034 
L 122.530909 244.774496 
L 138.763636 230.273118 
L 154.996364 255.171882 
L 171.229091 276.594897 
L 187.461818 245.239 
L 203.694545 214.565168 
L 219.927273 194.782301 
L 236.16 229.461068 
L 252.392727 230.667745 
L 268.625455 202.309691 
L 284.858182 176.387099 
L 301.090909 202.121177 
L 317.323636 197.281521 
L 333.556364 184.551008 
L 349.789091 222.081706 
L 366.021818 211.511787 
L 382.254545 216.317635 
L 398.487273 207.515697 
" clip-path="url(#p24db4e9b67)" style="fill: none; stroke: #35b779; stroke-opacity: 0.5; stroke-width: 1.5; stroke-linecap: square"/>
   </g>
   <g id="line2d_48">
    <path d="M 73.832727 179.921477 
L 90.065455 202.167631 
L 106.298182 194.549459 
L 122.530909 208.722051 
L 138.763636 223.452182 
L 154.996364 217.093473 
L 171.229091 282.089955 
L 187.461818 260.254001 
L 203.694545 248.546407 
L 219.927273 227.170607 
L 236.16 211.179573 
L 252.392727 189.230111 
L 268.625455 236.507811 
L 284.858182 192.617264 
L 301.090909 158.455749 
L 317.323636 193.565706 
L 333.556364 162.106709 
L 349.789091 178.593262 
L 366.021818 183.1084 
L 382.254545 158.414144 
L 398.487273 177.792547 
" clip-path="url(#p24db4e9b67)" style="fill: none; stroke: #35b779; stroke-opacity: 0.5; stroke-width: 1.5; stroke-linecap: square"/>
   </g>
   <g id="line2d_49">
    <path d="M 73.832727 271.335335 
L 90.065455 275.29652 
L 106.298182 205.017892 
L 122.530909 240.855854 
L 138.763636 231.438631 
L 154.996364 261.347436 
L 171.229091 260.688491 
L 187.461818 277.073201 
L 203.694545 253.818979 
L 219.927273 246.329143 
L 236.16 280.054392 
L 252.392727 246.996794 
L 268.625455 213.508866 
L 284.858182 235.779174 
L 301.090909 190.536642 
L 317.323636 276.067227 
L 333.556364 224.48861 
L 349.789091 265.058005 
L 366.021818 280.34064 
L 382.254545 250.816127 
L 398.487273 255.801598 
" clip-path="url(#p24db4e9b67)" style="fill: none; stroke: #35b779; stroke-opacity: 0.5; stroke-width: 1.5; stroke-linecap: square"/>
   </g>
   <g id="line2d_50">
    <path d="M 73.832727 86.456372 
L 90.065455 83.830572 
L 106.298182 114.84239 
L 122.530909 104.107209 
L 138.763636 104.487402 
L 154.996364 229.82822 
L 171.229091 146.62016 
L 187.461818 165.833779 
L 203.694545 150.189015 
L 219.927273 146.511562 
L 236.16 185.029922 
L 252.392727 201.980672 
L 268.625455 228.179366 
L 284.858182 221.051669 
L 301.090909 215.798296 
L 317.323636 186.802132 
L 333.556364 153.142982 
L 349.789091 178.699361 
L 366.021818 189.14385 
L 382.254545 236.895246 
L 398.487273 130.19889 
" clip-path="url(#p24db4e9b67)" style="fill: none; stroke: #35b779; stroke-opacity: 0.5; stroke-width: 1.5; stroke-linecap: square"/>
   </g>
   <g id="line2d_51">
    <path d="M 73.832727 213.893682 
L 90.065455 245.785034 
L 106.298182 237.801988 
L 122.530909 218.261202 
L 138.763636 186.528112 
L 154.996364 201.56978 
L 171.229091 143.7325 
L 187.461818 186.487401 
L 203.694545 156.528722 
L 219.927273 171.820644 
L 236.16 235.641312 
L 252.392727 239.481939 
L 268.625455 251.462391 
L 284.858182 252.879104 
L 301.090909 238.921967 
L 317.323636 222.121652 
L 333.556364 201.49835 
L 349.789091 197.102814 
L 366.021818 212.262681 
L 382.254545 254.699272 
L 398.487273 200.425977 
" clip-path="url(#p24db4e9b67)" style="fill: none; stroke: #35b779; stroke-opacity: 0.5; stroke-width: 1.5; stroke-linecap: square"/>
   </g>
   <g id="line2d_52">
    <path d="M 73.832727 259.173776 
L 90.065455 225.662237 
L 106.298182 222.969632 
L 122.530909 199.505955 
L 138.763636 236.658759 
L 154.996364 170.707125 
L 171.229091 252.660726 
L 187.461818 226.472686 
L 203.694545 232.758969 
L 219.927273 232.451959 
L 236.16 233.677306 
L 252.392727 259.098188 
L 268.625455 249.757081 
L 284.858182 228.326532 
L 301.090909 230.133983 
L 317.323636 279.143716 
L 333.556364 264.918953 
L 349.789091 268.204324 
L 366.021818 258.086123 
L 382.254545 232.466744 
L 398.487273 283.265372 
" clip-path="url(#p24db4e9b67)" style="fill: none; stroke: #35b779; stroke-opacity: 0.5; stroke-width: 1.5; stroke-linecap: square"/>
   </g>
   <g id="line2d_53">
    <path d="M 73.832727 231.603255 
L 90.065455 236.939909 
L 106.298182 237.051662 
L 122.530909 229.477877 
L 138.763636 249.793214 
L 154.996364 229.241651 
L 171.229091 221.056874 
L 187.461818 232.06283 
L 203.694545 214.903585 
L 219.927273 191.969793 
L 236.16 214.907774 
L 252.392727 157.23195 
L 268.625455 172.959217 
L 284.858182 193.308717 
L 301.090909 181.380524 
L 317.323636 210.75213 
L 333.556364 208.088133 
L 349.789091 158.973322 
L 366.021818 168.469942 
L 382.254545 179.571387 
L 398.487273 167.11542 
" clip-path="url(#p24db4e9b67)" style="fill: none; stroke: #35b779; stroke-opacity: 0.5; stroke-width: 1.5; stroke-linecap: square"/>
   </g>
   <g id="line2d_54">
    <path d="M 73.832727 204.059273 
L 90.065455 221.611427 
L 106.298182 241.137349 
L 122.530909 203.737417 
L 138.763636 264.637283 
L 154.996364 190.636549 
L 171.229091 220.004868 
L 187.461818 194.24383 
L 203.694545 203.759648 
L 219.927273 200.496407 
L 236.16 236.923677 
L 252.392727 229.015159 
L 268.625455 191.696398 
L 284.858182 254.933473 
L 301.090909 179.371982 
L 317.323636 174.616038 
L 333.556364 165.370864 
L 349.789091 183.616039 
L 366.021818 170.285216 
L 382.254545 186.079486 
L 398.487273 100.653133 
" clip-path="url(#p24db4e9b67)" style="fill: none; stroke: #35b779; stroke-opacity: 0.5; stroke-width: 1.5; stroke-linecap: square"/>
   </g>
   <g id="line2d_55">
    <path d="M 73.832727 214.030833 
L 90.065455 185.04735 
L 106.298182 174.69014 
L 122.530909 185.305002 
L 138.763636 168.37038 
L 154.996364 202.24992 
L 171.229091 161.275036 
L 187.461818 206.488142 
L 203.694545 222.660199 
L 219.927273 202.642614 
L 236.16 185.310702 
L 252.392727 201.841333 
L 268.625455 223.312231 
L 284.858182 206.588918 
L 301.090909 209.666034 
L 317.323636 228.985526 
L 333.556364 195.608776 
L 349.789091 169.540467 
L 366.021818 181.087464 
L 382.254545 191.394296 
L 398.487273 146.647603 
" clip-path="url(#p24db4e9b67)" style="fill: none; stroke: #35b779; stroke-opacity: 0.5; stroke-width: 1.5; stroke-linecap: square"/>
   </g>
   <g id="line2d_56">
    <path d="M 73.832727 256.392417 
L 90.065455 230.58444 
L 106.298182 267.494491 
L 122.530909 244.970239 
L 138.763636 227.981486 
L 154.996364 206.28319 
L 171.229091 271.469199 
L 187.461818 247.711316 
L 203.694545 215.417314 
L 219.927273 223.132947 
L 236.16 232.012744 
L 252.392727 233.770111 
L 268.625455 246.358878 
L 284.858182 196.420324 
L 301.090909 207.926177 
L 317.323636 241.022566 
L 333.556364 228.040801 
L 349.789091 238.221549 
L 366.021818 223.634857 
L 382.254545 229.843466 
L 398.487273 270.000419 
" clip-path="url(#p24db4e9b67)" style="fill: none; stroke: #35b779; stroke-opacity: 0.5; stroke-width: 1.5; stroke-linecap: square"/>
   </g>
   <g id="line2d_57">
    <path d="M 73.832727 199.428948 
L 90.065455 197.918632 
L 106.298182 210.780466 
L 122.530909 210.012763 
L 138.763636 242.803811 
L 154.996364 227.526434 
L 171.229091 237.246244 
L 187.461818 199.093125 
L 203.694545 218.982444 
L 219.927273 199.637781 
L 236.16 193.736383 
L 252.392727 209.624863 
L 268.625455 168.12142 
L 284.858182 190.241623 
L 301.090909 161.536944 
L 317.323636 212.880321 
L 333.556364 202.52656 
L 349.789091 201.685331 
L 366.021818 204.49188 
L 382.254545 83.225271 
L 398.487273 197.112397 
" clip-path="url(#p24db4e9b67)" style="fill: none; stroke: #35b779; stroke-opacity: 0.5; stroke-width: 1.5; stroke-linecap: square"/>
   </g>
   <g id="patch_3">
    <path d="M 57.6 307.584 
L 57.6 41.472 
" style="fill: none; stroke: #000000; stroke-width: 3; stroke-linejoin: miter; stroke-linecap: square"/>
   </g>
   <g id="patch_4">
    <path d="M 414.72 307.584 
L 414.72 41.472 
" style="fill: none; stroke: #000000; stroke-width: 3; stroke-linejoin: miter; stroke-linecap: square"/>
   </g>
   <g id="patch_5">
    <path d="M 57.6 307.584 
L 414.72 307.584 
" style="fill: none; stroke: #000000; stroke-width: 3; stroke-linejoin: miter; stroke-linecap: square"/>
   </g>
   <g id="patch_6">
    <path d="M 57.6 41.472 
L 414.72 41.472 
" style="fill: none; stroke: #000000; stroke-width: 3; stroke-linejoin: miter; stroke-linecap: square"/>
   </g>
   <g id="text_13">
    <!-- Atom Type O (n=45, mean Q=8.00) -->
    <g transform="translate(39.839219 35.472) scale(0.22 -0.22)">
     <defs>
      <path id="DejaVuSans-41" d="M 2188 4044 
L 1331 1722 
L 3047 1722 
L 2188 4044 
z
M 1831 4666 
L 2547 4666 
L 4325 0 
L 3669 0 
L 3244 1197 
L 1141 1197 
L 716 0 
L 50 0 
L 1831 4666 
z
" transform="scale(0.015625)"/>
      <path id="DejaVuSans-74" d="M 1172 4494 
L 1172 3500 
L 2356 3500 
L 2356 3053 
L 1172 3053 
L 1172 1153 
Q 1172 725 1289 603 
Q 1406 481 1766 481 
L 2356 481 
L 2356 0 
L 1766 0 
Q 1100 0 847 248 
Q 594 497 594 1153 
L 594 3053 
L 172 3053 
L 172 3500 
L 594 3500 
L 594 4494 
L 1172 4494 
z
" transform="scale(0.015625)"/>
      <path id="DejaVuSans-6f" d="M 1959 3097 
Q 1497 3097 1228 2736 
Q 959 2375 959 1747 
Q 959 1119 1226 758 
Q 1494 397 1959 397 
Q 2419 397 2687 759 
Q 2956 1122 2956 1747 
Q 2956 2369 2687 2733 
Q 2419 3097 1959 3097 
z
M 1959 3584 
Q 2709 3584 3137 3096 
Q 3566 2609 3566 1747 
Q 3566 888 3137 398 
Q 2709 -91 1959 -91 
Q 1206 -91 779 398 
Q 353 888 353 1747 
Q 353 2609 779 3096 
Q 1206 3584 1959 3584 
z
" transform="scale(0.015625)"/>
      <path id="DejaVuSans-6d" d="M 3328 2828 
Q 3544 3216 3844 3400 
Q 4144 3584 4550 3584 
Q 5097 3584 5394 3201 
Q 5691 2819 5691 2113 
L 5691 0 
L 5113 0 
L 5113 2094 
Q 5113 2597 4934 2840 
Q 4756 3084 4391 3084 
Q 3944 3084 3684 2787 
Q 3425 2491 3425 1978 
L 3425 0 
L 2847 0 
L 2847 2094 
Q 2847 2600 2669 2842 
Q 2491 3084 2119 3084 
Q 1678 3084 1418 2786 
Q 1159 2488 1159 1978 
L 1159 0 
L 581 0 
L 581 3500 
L 1159 3500 
L 1159 2956 
Q 1356 3278 1631 3431 
Q 1906 3584 2284 3584 
Q 2666 3584 2933 3390 
Q 3200 3197 3328 2828 
z
" transform="scale(0.015625)"/>
      <path id="DejaVuSans-20" transform="scale(0.015625)"/>
      <path id="DejaVuSans-54" d="M -19 4666 
L 3928 4666 
L 3928 4134 
L 2272 4134 
L 2272 0 
L 1638 0 
L 1638 4134 
L -19 4134 
L -19 4666 
z
" transform="scale(0.015625)"/>
      <path id="DejaVuSans-79" d="M 2059 -325 
Q 1816 -950 1584 -1140 
Q 1353 -1331 966 -1331 
L 506 -1331 
L 506 -850 
L 844 -850 
Q 1081 -850 1212 -737 
Q 1344 -625 1503 -206 
L 1606 56 
L 191 3500 
L 800 3500 
L 1894 763 
L 2988 3500 
L 3597 3500 
L 2059 -325 
z
" transform="scale(0.015625)"/>
      <path id="DejaVuSans-70" d="M 1159 525 
L 1159 -1331 
L 581 -1331 
L 581 3500 
L 1159 3500 
L 1159 2969 
Q 1341 3281 1617 3432 
Q 1894 3584 2278 3584 
Q 2916 3584 3314 3078 
Q 3713 2572 3713 1747 
Q 3713 922 3314 415 
Q 2916 -91 2278 -91 
Q 1894 -91 1617 61 
Q 1341 213 1159 525 
z
M 3116 1747 
Q 3116 2381 2855 2742 
Q 2594 3103 2138 3103 
Q 1681 3103 1420 2742 
Q 1159 2381 1159 1747 
Q 1159 1113 1420 752 
Q 1681 391 2138 391 
Q 2594 391 2855 752 
Q 3116 1113 3116 1747 
z
" transform="scale(0.015625)"/>
      <path id="DejaVuSans-65" d="M 3597 1894 
L 3597 1613 
L 953 1613 
Q 991 1019 1311 708 
Q 1631 397 2203 397 
Q 2534 397 2845 478 
Q 3156 559 3463 722 
L 3463 178 
Q 3153 47 2828 -22 
Q 2503 -91 2169 -91 
Q 1331 -91 842 396 
Q 353 884 353 1716 
Q 353 2575 817 3079 
Q 1281 3584 2069 3584 
Q 2775 3584 3186 3129 
Q 3597 2675 3597 1894 
z
M 3022 2063 
Q 3016 2534 2758 2815 
Q 2500 3097 2075 3097 
Q 1594 3097 1305 2825 
Q 1016 2553 972 2059 
L 3022 2063 
z
" transform="scale(0.015625)"/>
      <path id="DejaVuSans-4f" d="M 2522 4238 
Q 1834 4238 1429 3725 
Q 1025 3213 1025 2328 
Q 1025 1447 1429 934 
Q 1834 422 2522 422 
Q 3209 422 3611 934 
Q 4013 1447 4013 2328 
Q 4013 3213 3611 3725 
Q 3209 4238 2522 4238 
z
M 2522 4750 
Q 3503 4750 4090 4092 
Q 4678 3434 4678 2328 
Q 4678 1225 4090 567 
Q 3503 -91 2522 -91 
Q 1538 -91 948 565 
Q 359 1222 359 2328 
Q 359 3434 948 4092 
Q 1538 4750 2522 4750 
z
" transform="scale(0.015625)"/>
      <path id="DejaVuSans-28" d="M 1984 4856 
Q 1566 4138 1362 3434 
Q 1159 2731 1159 2009 
Q 1159 1288 1364 580 
Q 1569 -128 1984 -844 
L 1484 -844 
Q 1016 -109 783 600 
Q 550 1309 550 2009 
Q 550 2706 781 3412 
Q 1013 4119 1484 4856 
L 1984 4856 
z
" transform="scale(0.015625)"/>
      <path id="DejaVuSans-6e" d="M 3513 2113 
L 3513 0 
L 2938 0 
L 2938 2094 
Q 2938 2591 2744 2837 
Q 2550 3084 2163 3084 
Q 1697 3084 1428 2787 
Q 1159 2491 1159 1978 
L 1159 0 
L 581 0 
L 581 3500 
L 1159 3500 
L 1159 2956 
Q 1366 3272 1645 3428 
Q 1925 3584 2291 3584 
Q 2894 3584 3203 3211 
Q 3513 2838 3513 2113 
z
" transform="scale(0.015625)"/>
      <path id="DejaVuSans-3d" d="M 678 2906 
L 4684 2906 
L 4684 2381 
L 678 2381 
L 678 2906 
z
M 678 1631 
L 4684 1631 
L 4684 1100 
L 678 1100 
L 678 1631 
z
" transform="scale(0.015625)"/>
      <path id="DejaVuSans-34" d="M 2419 4116 
L 825 1625 
L 2419 1625 
L 2419 4116 
z
M 2253 4666 
L 3047 4666 
L 3047 1625 
L 3713 1625 
L 3713 1100 
L 3047 1100 
L 3047 0 
L 2419 0 
L 2419 1100 
L 313 1100 
L 313 1709 
L 2253 4666 
z
" transform="scale(0.015625)"/>
      <path id="DejaVuSans-2c" d="M 750 794 
L 1409 794 
L 1409 256 
L 897 -744 
L 494 -744 
L 750 256 
L 750 794 
z
" transform="scale(0.015625)"/>
      <path id="DejaVuSans-61" d="M 2194 1759 
Q 1497 1759 1228 1600 
Q 959 1441 959 1056 
Q 959 750 1161 570 
Q 1363 391 1709 391 
Q 2188 391 2477 730 
Q 2766 1069 2766 1631 
L 2766 1759 
L 2194 1759 
z
M 3341 1997 
L 3341 0 
L 2766 0 
L 2766 531 
Q 2569 213 2275 61 
Q 1981 -91 1556 -91 
Q 1019 -91 701 211 
Q 384 513 384 1019 
Q 384 1609 779 1909 
Q 1175 2209 1959 2209 
L 2766 2209 
L 2766 2266 
Q 2766 2663 2505 2880 
Q 2244 3097 1772 3097 
Q 1472 3097 1187 3025 
Q 903 2953 641 2809 
L 641 3341 
Q 956 3463 1253 3523 
Q 1550 3584 1831 3584 
Q 2591 3584 2966 3190 
Q 3341 2797 3341 1997 
z
" transform="scale(0.015625)"/>
      <path id="DejaVuSans-51" d="M 2522 4238 
Q 1834 4238 1429 3725 
Q 1025 3213 1025 2328 
Q 1025 1447 1429 934 
Q 1834 422 2522 422 
Q 3209 422 3611 934 
Q 4013 1447 4013 2328 
Q 4013 3213 3611 3725 
Q 3209 4238 2522 4238 
z
M 3406 84 
L 4238 -825 
L 3475 -825 
L 2784 -78 
Q 2681 -84 2626 -87 
Q 2572 -91 2522 -91 
Q 1538 -91 948 567 
Q 359 1225 359 2328 
Q 359 3434 948 4092 
Q 1538 4750 2522 4750 
Q 3503 4750 4090 4092 
Q 4678 3434 4678 2328 
Q 4678 1516 4351 937 
Q 4025 359 3406 84 
z
" transform="scale(0.015625)"/>
      <path id="DejaVuSans-38" d="M 2034 2216 
Q 1584 2216 1326 1975 
Q 1069 1734 1069 1313 
Q 1069 891 1326 650 
Q 1584 409 2034 409 
Q 2484 409 2743 651 
Q 3003 894 3003 1313 
Q 3003 1734 2745 1975 
Q 2488 2216 2034 2216 
z
M 1403 2484 
Q 997 2584 770 2862 
Q 544 3141 544 3541 
Q 544 4100 942 4425 
Q 1341 4750 2034 4750 
Q 2731 4750 3128 4425 
Q 3525 4100 3525 3541 
Q 3525 3141 3298 2862 
Q 3072 2584 2669 2484 
Q 3125 2378 3379 2068 
Q 3634 1759 3634 1313 
Q 3634 634 3220 271 
Q 2806 -91 2034 -91 
Q 1263 -91 848 271 
Q 434 634 434 1313 
Q 434 1759 690 2068 
Q 947 2378 1403 2484 
z
M 1172 3481 
Q 1172 3119 1398 2916 
Q 1625 2713 2034 2713 
Q 2441 2713 2670 2916 
Q 2900 3119 2900 3481 
Q 2900 3844 2670 4047 
Q 2441 4250 2034 4250 
Q 1625 4250 1398 4047 
Q 1172 3844 1172 3481 
z
" transform="scale(0.015625)"/>
      <path id="DejaVuSans-29" d="M 513 4856 
L 1013 4856 
Q 1481 4119 1714 3412 
Q 1947 2706 1947 2009 
Q 1947 1309 1714 600 
Q 1481 -109 1013 -844 
L 513 -844 
Q 928 -128 1133 580 
Q 1338 1288 1338 2009 
Q 1338 2731 1133 3434 
Q 928 4138 513 4856 
z
" transform="scale(0.015625)"/>
     </defs>
     <use xlink:href="#DejaVuSans-41"/>
     <use xlink:href="#DejaVuSans-74" transform="translate(66.658203 0)"/>
     <use xlink:href="#DejaVuSans-6f" transform="translate(105.867188 0)"/>
     <use xlink:href="#DejaVuSans-6d" transform="translate(167.048828 0)"/>
     <use xlink:href="#DejaVuSans-20" transform="translate(264.460938 0)"/>
     <use xlink:href="#DejaVuSans-54" transform="translate(296.248047 0)"/>
     <use xlink:href="#DejaVuSans-79" transform="translate(341.707031 0)"/>
     <use xlink:href="#DejaVuSans-70" transform="translate(400.886719 0)"/>
     <use xlink:href="#DejaVuSans-65" transform="translate(464.363281 0)"/>
     <use xlink:href="#DejaVuSans-20" transform="translate(525.886719 0)"/>
     <use xlink:href="#DejaVuSans-4f" transform="translate(557.673828 0)"/>
     <use xlink:href="#DejaVuSans-20" transform="translate(636.384766 0)"/>
     <use xlink:href="#DejaVuSans-28" transform="translate(668.171875 0)"/>
     <use xlink:href="#DejaVuSans-6e" transform="translate(707.185547 0)"/>
     <use xlink:href="#DejaVuSans-3d" transform="translate(770.564453 0)"/>
     <use xlink:href="#DejaVuSans-34" transform="translate(854.353516 0)"/>
     <use xlink:href="#DejaVuSans-35" transform="translate(917.976562 0)"/>
     <use xlink:href="#DejaVuSans-2c" transform="translate(981.599609 0)"/>
     <use xlink:href="#DejaVuSans-20" transform="translate(1013.386719 0)"/>
     <use xlink:href="#DejaVuSans-6d" transform="translate(1045.173828 0)"/>
     <use xlink:href="#DejaVuSans-65" transform="translate(1142.585938 0)"/>
     <use xlink:href="#DejaVuSans-61" transform="translate(1204.109375 0)"/>
     <use xlink:href="#DejaVuSans-6e" transform="translate(1265.388672 0)"/>
     <use xlink:href="#DejaVuSans-20" transform="translate(1328.767578 0)"/>
     <use xlink:href="#DejaVuSans-51" transform="translate(1360.554688 0)"/>
     <use xlink:href="#DejaVuSans-3d" transform="translate(1439.265625 0)"/>
     <use xlink:href="#DejaVuSans-38" transform="translate(1523.054688 0)"/>
     <use xlink:href="#DejaVuSans-2e" transform="translate(1586.677734 0)"/>
     <use xlink:href="#DejaVuSans-30" transform="translate(1618.464844 0)"/>
     <use xlink:href="#DejaVuSans-30" transform="translate(1682.087891 0)"/>
     <use xlink:href="#DejaVuSans-29" transform="translate(1745.710938 0)"/>
    </g>
   </g>
  </g>
 </g>
 <defs>
  <clipPath id="p24db4e9b67">
   <rect x="57.6" y="41.472" width="357.12" height="266.112"/>
  </clipPath>
 </defs>
</svg>
