<?xml version="1.0" encoding="utf-8" standalone="no"?>
<!DOCTYPE svg PUBLIC "-//W3C//DTD SVG 1.1//EN"
  "http://www.w3.org/Graphics/SVG/1.1/DTD/svg11.dtd">
<svg xmlns:xlink="http://www.w3.org/1999/xlink" width="460.8pt" height="345.6pt" viewBox="0 0 460.8 345.6" xmlns="http://www.w3.org/2000/svg" version="1.1">
 <metadata>
  <rdf:RDF xmlns:dc="http://purl.org/dc/elements/1.1/" xmlns:cc="http://creativecommons.org/ns#" xmlns:rdf="http://www.w3.org/1999/02/22-rdf-syntax-ns#">
   <cc:Work>
    <dc:type rdf:resource="http://purl.org/dc/dcmitype/StillImage"/>
    <dc:date>2025-12-10T14:11:37.767987</dc:date>
    <dc:format>image/svg+xml</dc:format>
    <dc:creator>
     <cc:Agent>
      <dc:title>Matplotlib v3.10.3, https://matplotlib.org/</dc:title>
     </cc:Agent>
    </dc:creator>
   </cc:Work>
  </rdf:RDF>
 </metadata>
 <defs>
  <style type="text/css">*{stroke-linejoin: round; stroke-linecap: butt}</style>
 </defs>
 <g id="figure_1">
  <g id="patch_1">
   <path d="M 0 345.6 
L 460.8 345.6 
L 460.8 0 
L 0 0 
z
" style="fill: #ffffff"/>
  </g>
  <g id="axes_1">
   <g id="patch_2">
    <path d="M 57.6 307.584 
L 414.72 307.584 
L 414.72 41.472 
L 57.6 41.472 
z
" style="fill: #ffffff"/>
   </g>
   <g id="matplotlib.axis_1">
    <g id="xtick_1">
     <g id="line2d_1">
      <defs>
       <path id="m540b0b31cb" d="M 0 0 
L 0 3.5 
" style="stroke: #000000; stroke-width: 0.8"/>
      </defs>
      <g>
       <use xlink:href="#m540b0b31cb" x="73.832727" y="307.584" style="stroke: #000000; stroke-width: 0.8"/>
      </g>
     </g>
     <g id="text_1">
      <!-- 0 -->
      <g transform="translate(69.060852 325.981656) scale(0.15 -0.15)">
       <defs>
        <path id="DejaVuSans-30" d="M 2034 4250 
Q 1547 4250 1301 3770 
Q 1056 3291 1056 2328 
Q 1056 1369 1301 889 
Q 1547 409 2034 409 
Q 2525 409 2770 889 
Q 3016 1369 3016 2328 
Q 3016 3291 2770 3770 
Q 2525 4250 2034 4250 
z
M 2034 4750 
Q 2819 4750 3233 4129 
Q 3647 3509 3647 2328 
Q 3647 1150 3233 529 
Q 2819 -91 2034 -91 
Q 1250 -91 836 529 
Q 422 1150 422 2328 
Q 422 3509 836 4129 
Q 1250 4750 2034 4750 
z
" transform="scale(0.015625)"/>
       </defs>
       <use xlink:href="#DejaVuSans-30"/>
      </g>
     </g>
    </g>
    <g id="xtick_2">
     <g id="line2d_2">
      <g>
       <use xlink:href="#m540b0b31cb" x="154.996364" y="307.584" style="stroke: #000000; stroke-width: 0.8"/>
      </g>
     </g>
     <g id="text_2">
      <!-- 5 -->
      <g transform="translate(150.224489 325.981656) scale(0.15 -0.15)">
       <defs>
        <path id="DejaVuSans-35" d="M 691 4666 
L 3169 4666 
L 3169 4134 
L 1269 4134 
L 1269 2991 
Q 1406 3038 1543 3061 
Q 1681 3084 1819 3084 
Q 2600 3084 3056 2656 
Q 3513 2228 3513 1497 
Q 3513 744 3044 326 
Q 2575 -91 1722 -91 
Q 1428 -91 1123 -41 
Q 819 9 494 109 
L 494 744 
Q 775 591 1075 516 
Q 1375 441 1709 441 
Q 2250 441 2565 725 
Q 2881 1009 2881 1497 
Q 2881 1984 2565 2268 
Q 2250 2553 1709 2553 
Q 1456 2553 1204 2497 
Q 953 2441 691 2322 
L 691 4666 
z
" transform="scale(0.015625)"/>
       </defs>
       <use xlink:href="#DejaVuSans-35"/>
      </g>
     </g>
    </g>
    <g id="xtick_3">
     <g id="line2d_3">
      <g>
       <use xlink:href="#m540b0b31cb" x="236.16" y="307.584" style="stroke: #000000; stroke-width: 0.8"/>
      </g>
     </g>
     <g id="text_3">
      <!-- 10 -->
      <g transform="translate(226.61625 325.981656) scale(0.15 -0.15)">
       <defs>
        <path id="DejaVuSans-31" d="M 794 531 
L 1825 531 
L 1825 4091 
L 703 3866 
L 703 4441 
L 1819 4666 
L 2450 4666 
L 2450 531 
L 3481 531 
L 3481 0 
L 794 0 
L 794 531 
z
" transform="scale(0.015625)"/>
       </defs>
       <use xlink:href="#DejaVuSans-31"/>
       <use xlink:href="#DejaVuSans-30" transform="translate(63.623047 0)"/>
      </g>
     </g>
    </g>
    <g id="xtick_4">
     <g id="line2d_4">
      <g>
       <use xlink:href="#m540b0b31cb" x="317.323636" y="307.584" style="stroke: #000000; stroke-width: 0.8"/>
      </g>
     </g>
     <g id="text_4">
      <!-- 15 -->
      <g transform="translate(307.779886 325.981656) scale(0.15 -0.15)">
       <use xlink:href="#DejaVuSans-31"/>
       <use xlink:href="#DejaVuSans-35" transform="translate(63.623047 0)"/>
      </g>
     </g>
    </g>
    <g id="xtick_5">
     <g id="line2d_5">
      <g>
       <use xlink:href="#m540b0b31cb" x="398.487273" y="307.584" style="stroke: #000000; stroke-width: 0.8"/>
      </g>
     </g>
     <g id="text_5">
      <!-- 20 -->
      <g transform="translate(388.943523 325.981656) scale(0.15 -0.15)">
       <defs>
        <path id="DejaVuSans-32" d="M 1228 531 
L 3431 531 
L 3431 0 
L 469 0 
L 469 531 
Q 828 903 1448 1529 
Q 2069 2156 2228 2338 
Q 2531 2678 2651 2914 
Q 2772 3150 2772 3378 
Q 2772 3750 2511 3984 
Q 2250 4219 1831 4219 
Q 1534 4219 1204 4116 
Q 875 4013 500 3803 
L 500 4441 
Q 881 4594 1212 4672 
Q 1544 4750 1819 4750 
Q 2544 4750 2975 4387 
Q 3406 4025 3406 3419 
Q 3406 3131 3298 2873 
Q 3191 2616 2906 2266 
Q 2828 2175 2409 1742 
Q 1991 1309 1228 531 
z
" transform="scale(0.015625)"/>
       </defs>
       <use xlink:href="#DejaVuSans-32"/>
       <use xlink:href="#DejaVuSans-30" transform="translate(63.623047 0)"/>
      </g>
     </g>
    </g>
   </g>
   <g id="matplotlib.axis_2">
    <g id="ytick_1">
     <g id="line2d_6">
      <defs>
       <path id="m8a21aabfb9" d="M 0 0 
L -3.5 0 
" style="stroke: #000000; stroke-width: 0.8"/>
      </defs>
      <g>
       <use xlink:href="#m8a21aabfb9" x="57.6" y="288.777434" style="stroke: #000000; stroke-width: 0.8"/>
      </g>
     </g>
     <g id="text_6">
      <!-- 5 -->
      <g transform="translate(41.05625 294.476262) scale(0.15 -0.15)">
       <use xlink:href="#DejaVuSans-35"/>
      </g>
     </g>
    </g>
    <g id="ytick_2">
     <g id="line2d_7">
      <g>
       <use xlink:href="#m8a21aabfb9" x="57.6" y="229.683246" style="stroke: #000000; stroke-width: 0.8"/>
      </g>
     </g>
     <g id="text_7">
      <!-- 10 -->
      <g transform="translate(31.5125 235.382075) scale(0.15 -0.15)">
       <use xlink:href="#DejaVuSans-31"/>
       <use xlink:href="#DejaVuSans-30" transform="translate(63.623047 0)"/>
      </g>
     </g>
    </g>
    <g id="ytick_3">
     <g id="line2d_8">
      <g>
       <use xlink:href="#m8a21aabfb9" x="57.6" y="170.589059" style="stroke: #000000; stroke-width: 0.8"/>
      </g>
     </g>
     <g id="text_8">
      <!-- 15 -->
      <g transform="translate(31.5125 176.287887) scale(0.15 -0.15)">
       <use xlink:href="#DejaVuSans-31"/>
       <use xlink:href="#DejaVuSans-35" transform="translate(63.623047 0)"/>
      </g>
     </g>
    </g>
    <g id="ytick_4">
     <g id="line2d_9">
      <g>
       <use xlink:href="#m8a21aabfb9" x="57.6" y="111.494871" style="stroke: #000000; stroke-width: 0.8"/>
      </g>
     </g>
     <g id="text_9">
      <!-- 20 -->
      <g transform="translate(31.5125 117.193699) scale(0.15 -0.15)">
       <use xlink:href="#DejaVuSans-32"/>
       <use xlink:href="#DejaVuSans-30" transform="translate(63.623047 0)"/>
      </g>
     </g>
    </g>
    <g id="ytick_5">
     <g id="line2d_10">
      <g>
       <use xlink:href="#m8a21aabfb9" x="57.6" y="52.400684" style="stroke: #000000; stroke-width: 0.8"/>
      </g>
     </g>
     <g id="text_10">
      <!-- 25 -->
      <g transform="translate(31.5125 58.099512) scale(0.15 -0.15)">
       <use xlink:href="#DejaVuSans-32"/>
       <use xlink:href="#DejaVuSans-35" transform="translate(63.623047 0)"/>
      </g>
     </g>
    </g>
   </g>
   <g id="line2d_11">
    <path d="M 73.832727 212.63339 
L 90.065455 224.827867 
L 106.298182 218.473939 
L 122.530909 210.787811 
L 138.763636 272.292409 
L 154.996364 256.652333 
L 171.229091 223.362806 
L 187.461818 226.560016 
L 203.694545 258.325169 
L 219.927273 155.527902 
L 236.16 218.529309 
L 252.392727 152.7207 
L 268.625455 161.501116 
L 284.858182 116.090233 
L 301.090909 243.866154 
L 317.323636 231.334116 
L 333.556364 213.468673 
L 349.789091 195.487014 
L 366.021818 186.474128 
L 382.254545 197.717272 
L 398.487273 227.709347 
" clip-path="url(#p9bcb1c3b06)" style="fill: none; stroke: #31688e; stroke-opacity: 0.5; stroke-width: 1.5; stroke-linecap: square"/>
   </g>
   <g id="line2d_12">
    <path d="M 73.832727 238.914644 
L 90.065455 217.171498 
L 106.298182 174.031781 
L 122.530909 199.963533 
L 138.763636 212.990769 
L 154.996364 228.662679 
L 171.229091 136.410667 
L 187.461818 169.960973 
L 203.694545 193.448817 
L 219.927273 199.561828 
L 236.16 156.572682 
L 252.392727 220.825797 
L 268.625455 241.527751 
L 284.858182 188.279179 
L 301.090909 186.115037 
L 317.323636 159.725858 
L 333.556364 142.750244 
L 349.789091 255.065431 
L 366.021818 179.048171 
L 382.254545 233.40894 
L 398.487273 158.112295 
" clip-path="url(#p9bcb1c3b06)" style="fill: none; stroke: #31688e; stroke-opacity: 0.5; stroke-width: 1.5; stroke-linecap: square"/>
   </g>
   <g id="line2d_13">
    <path d="M 73.832727 195.709458 
L 90.065455 172.230203 
L 106.298182 184.945456 
L 122.530909 224.046322 
L 138.763636 187.609302 
L 154.996364 246.297478 
L 171.229091 224.721238 
L 187.461818 234.044783 
L 203.694545 224.956608 
L 219.927273 197.615442 
L 236.16 208.719997 
L 252.392727 202.45514 
L 268.625455 173.453543 
L 284.858182 215.896479 
L 301.090909 218.215883 
L 317.323636 249.772017 
L 333.556364 220.030864 
L 349.789091 194.97905 
L 366.021818 203.106124 
L 382.254545 227.611284 
L 398.487273 214.609382 
" clip-path="url(#p9bcb1c3b06)" style="fill: none; stroke: #31688e; stroke-opacity: 0.5; stroke-width: 1.5; stroke-linecap: square"/>
   </g>
   <g id="line2d_14">
    <path d="M 73.832727 217.856986 
L 90.065455 203.374927 
L 106.298182 193.276902 
L 122.530909 164.557108 
L 138.763636 141.37837 
L 154.996364 147.838541 
L 171.229091 149.704396 
L 187.461818 196.42078 
L 203.694545 160.808111 
L 219.927273 194.622063 
L 236.16 137.966349 
L 252.392727 185.360939 
L 268.625455 53.568 
L 284.858182 167.376908 
L 301.090909 247.061391 
L 317.323636 166.076331 
L 333.556364 196.289174 
L 349.789091 218.391556 
L 366.021818 215.807537 
L 382.254545 179.932588 
L 398.487273 222.561259 
" clip-path="url(#p9bcb1c3b06)" style="fill: none; stroke: #31688e; stroke-opacity: 0.5; stroke-width: 1.5; stroke-linecap: square"/>
   </g>
   <g id="line2d_15">
    <path d="M 73.832727 246.398293 
L 90.065455 235.061051 
L 106.298182 239.407069 
L 122.530909 236.524132 
L 138.763636 215.757528 
L 154.996364 191.872214 
L 171.229091 228.325346 
L 187.461818 226.644295 
L 203.694545 220.402107 
L 219.927273 223.362176 
L 236.16 237.487519 
L 252.392727 225.900369 
L 268.625455 178.415351 
L 284.858182 226.723026 
L 301.090909 154.343545 
L 317.323636 165.996702 
L 333.556364 225.593023 
L 349.789091 219.674831 
L 366.021818 190.051475 
L 382.254545 224.3851 
L 398.487273 216.386519 
" clip-path="url(#p9bcb1c3b06)" style="fill: none; stroke: #31688e; stroke-opacity: 0.5; stroke-width: 1.5; stroke-linecap: square"/>
   </g>
   <g id="line2d_16">
    <path d="M 73.832727 225.47087 
L 90.065455 234.546446 
L 106.298182 213.186908 
L 122.530909 197.719597 
L 138.763636 246.876261 
L 154.996364 229.989421 
L 171.229091 230.159386 
L 187.461818 254.746875 
L 203.694545 247.961564 
L 219.927273 267.045296 
L 236.16 248.064296 
L 252.392727 205.03487 
L 268.625455 242.09081 
L 284.858182 239.438498 
L 301.090909 263.962599 
L 317.323636 209.319649 
L 333.556364 243.801769 
L 349.789091 218.787462 
L 366.021818 227.887913 
L 382.254545 246.811926 
L 398.487273 224.873454 
" clip-path="url(#p9bcb1c3b06)" style="fill: none; stroke: #31688e; stroke-opacity: 0.5; stroke-width: 1.5; stroke-linecap: square"/>
   </g>
   <g id="line2d_17">
    <path d="M 73.832727 230.827003 
L 90.065455 272.439687 
L 106.298182 269.322867 
L 122.530909 253.581577 
L 138.763636 261.26681 
L 154.996364 268.22179 
L 171.229091 255.99226 
L 187.461818 269.591093 
L 203.694545 237.923059 
L 219.927273 222.580356 
L 236.16 232.991215 
L 252.392727 246.22289 
L 268.625455 249.490623 
L 284.858182 211.832017 
L 301.090909 213.910177 
L 317.323636 212.570666 
L 333.556364 252.591109 
L 349.789091 244.103613 
L 366.021818 239.17934 
L 382.254545 253.363172 
L 398.487273 250.500357 
" clip-path="url(#p9bcb1c3b06)" style="fill: none; stroke: #31688e; stroke-opacity: 0.5; stroke-width: 1.5; stroke-linecap: square"/>
   </g>
   <g id="line2d_18">
    <path d="M 73.832727 251.314469 
L 90.065455 243.38563 
L 106.298182 254.879693 
L 122.530909 271.199927 
L 138.763636 271.503688 
L 154.996364 263.995296 
L 171.229091 206.308618 
L 187.461818 237.35978 
L 203.694545 215.548776 
L 219.927273 228.638236 
L 236.16 226.477573 
L 252.392727 231.954959 
L 268.625455 214.872231 
L 284.858182 199.365569 
L 301.090909 260.05836 
L 317.323636 219.593193 
L 333.556364 247.931056 
L 349.789091 246.207235 
L 366.021818 250.614524 
L 382.254545 265.718143 
L 398.487273 240.82933 
" clip-path="url(#p9bcb1c3b06)" style="fill: none; stroke: #31688e; stroke-opacity: 0.5; stroke-width: 1.5; stroke-linecap: square"/>
   </g>
   <g id="line2d_19">
    <path d="M 73.832727 244.883814 
L 90.065455 259.044895 
L 106.298182 215.294122 
L 122.530909 246.109103 
L 138.763636 251.231482 
L 154.996364 231.011817 
L 171.229091 229.791848 
L 187.461818 222.003654 
L 203.694545 210.713899 
L 219.927273 224.303677 
L 236.16 221.574563 
L 252.392727 198.91328 
L 268.625455 216.207826 
L 284.858182 212.159104 
L 301.090909 198.218801 
L 317.323636 186.241281 
L 333.556364 241.378697 
L 349.789091 202.525394 
L 366.021818 162.230701 
L 382.254545 183.414881 
L 398.487273 201.58254 
" clip-path="url(#p9bcb1c3b06)" style="fill: none; stroke: #31688e; stroke-opacity: 0.5; stroke-width: 1.5; stroke-linecap: square"/>
   </g>
   <g id="line2d_20">
    <path d="M 73.832727 221.749383 
L 90.065455 241.61595 
L 106.298182 236.766376 
L 122.530909 225.510241 
L 138.763636 238.45583 
L 154.996364 229.718014 
L 171.229091 229.53184 
L 187.461818 229.122568 
L 203.694545 226.80145 
L 219.927273 236.281454 
L 236.16 223.718298 
L 252.392727 206.892367 
L 268.625455 235.124838 
L 284.858182 249.883109 
L 301.090909 238.534592 
L 317.323636 245.943733 
L 333.556364 237.756369 
L 349.789091 244.5241 
L 366.021818 248.474135 
L 382.254545 233.422132 
L 398.487273 249.062322 
" clip-path="url(#p9bcb1c3b06)" style="fill: none; stroke: #31688e; stroke-opacity: 0.5; stroke-width: 1.5; stroke-linecap: square"/>
   </g>
   <g id="line2d_21">
    <path d="M 73.832727 194.315084 
L 90.065455 201.059742 
L 106.298182 216.933221 
L 122.530909 219.687565 
L 138.763636 227.790185 
L 154.996364 204.759628 
L 171.229091 210.685762 
L 187.461818 244.289394 
L 203.694545 215.922305 
L 219.927273 202.25479 
L 236.16 219.088461 
L 252.392727 168.969354 
L 268.625455 176.568271 
L 284.858182 172.143586 
L 301.090909 169.394401 
L 317.323636 153.990556 
L 333.556364 83.445173 
L 349.789091 138.795734 
L 366.021818 151.118419 
L 382.254545 138.644331 
L 398.487273 213.980826 
" clip-path="url(#p9bcb1c3b06)" style="fill: none; stroke: #31688e; stroke-opacity: 0.5; stroke-width: 1.5; stroke-linecap: square"/>
   </g>
   <g id="line2d_22">
    <path d="M 73.832727 236.004678 
L 90.065455 239.419639 
L 106.298182 205.429171 
L 122.530909 224.414647 
L 138.763636 207.240928 
L 154.996364 201.178771 
L 171.229091 221.370089 
L 187.461818 132.122992 
L 203.694545 155.888405 
L 219.927273 194.739698 
L 236.16 185.492778 
L 252.392727 197.668136 
L 268.625455 131.290343 
L 284.858182 97.75737 
L 301.090909 99.130257 
L 317.323636 222.875285 
L 333.556364 220.062347 
L 349.789091 160.367116 
L 366.021818 129.837908 
L 382.254545 137.722014 
L 398.487273 166.044581 
" clip-path="url(#p9bcb1c3b06)" style="fill: none; stroke: #31688e; stroke-opacity: 0.5; stroke-width: 1.5; stroke-linecap: square"/>
   </g>
   <g id="line2d_23">
    <path d="M 73.832727 198.923217 
L 90.065455 234.338675 
L 106.298182 215.252661 
L 122.530909 222.236017 
L 138.763636 222.588892 
L 154.996364 267.020993 
L 171.229091 255.632596 
L 187.461818 199.833709 
L 203.694545 116.189109 
L 219.927273 203.423851 
L 236.16 213.825848 
L 252.392727 167.90765 
L 268.625455 212.061314 
L 284.858182 189.537609 
L 301.090909 173.500417 
L 317.323636 185.570761 
L 333.556364 206.082677 
L 349.789091 146.880739 
L 366.021818 188.113974 
L 382.254545 194.382607 
L 398.487273 181.128126 
" clip-path="url(#p9bcb1c3b06)" style="fill: none; stroke: #31688e; stroke-opacity: 0.5; stroke-width: 1.5; stroke-linecap: square"/>
   </g>
   <g id="line2d_24">
    <path d="M 73.832727 169.92381 
L 90.065455 214.958995 
L 106.298182 211.963528 
L 122.530909 242.865564 
L 138.763636 125.561252 
L 154.996364 187.90599 
L 171.229091 158.568818 
L 187.461818 157.418488 
L 203.694545 213.912038 
L 219.927273 229.345162 
L 236.16 107.307335 
L 252.392727 231.536954 
L 268.625455 128.909332 
L 284.858182 162.242279 
L 301.090909 179.148102 
L 317.323636 179.096907 
L 333.556364 169.643862 
L 349.789091 219.085509 
L 366.021818 180.301689 
L 382.254545 149.685235 
L 398.487273 269.365965 
" clip-path="url(#p9bcb1c3b06)" style="fill: none; stroke: #31688e; stroke-opacity: 0.5; stroke-width: 1.5; stroke-linecap: square"/>
   </g>
   <g id="line2d_25">
    <path d="M 73.832727 209.671849 
L 90.065455 211.395762 
L 106.298182 184.110636 
L 122.530909 209.924066 
L 138.763636 205.571912 
L 154.996364 158.67559 
L 171.229091 175.582338 
L 187.461818 181.302746 
L 203.694545 160.782438 
L 219.927273 217.960399 
L 236.16 168.826752 
L 252.392727 234.959528 
L 268.625455 195.085929 
L 284.858182 224.425888 
L 301.090909 228.794794 
L 317.323636 228.677453 
L 333.556364 199.992402 
L 349.789091 216.420992 
L 366.021818 191.886243 
L 382.254545 127.610569 
L 398.487273 167.429949 
" clip-path="url(#p9bcb1c3b06)" style="fill: none; stroke: #31688e; stroke-opacity: 0.5; stroke-width: 1.5; stroke-linecap: square"/>
   </g>
   <g id="line2d_26">
    <path d="M 73.832727 233.321035 
L 90.065455 252.630371 
L 106.298182 237.508205 
L 122.530909 225.636161 
L 138.763636 238.574636 
L 154.996364 254.832896 
L 171.229091 243.762307 
L 187.461818 278.184642 
L 203.694545 274.574559 
L 219.927273 269.638342 
L 236.16 260.555845 
L 252.392727 271.745857 
L 268.625455 288.155659 
L 284.858182 275.589116 
L 301.090909 263.614222 
L 317.323636 256.902422 
L 333.556364 199.276105 
L 349.789091 255.480435 
L 366.021818 266.542511 
L 382.254545 271.308633 
L 398.487273 283.142732 
" clip-path="url(#p9bcb1c3b06)" style="fill: none; stroke: #31688e; stroke-opacity: 0.5; stroke-width: 1.5; stroke-linecap: square"/>
   </g>
   <g id="line2d_27">
    <path d="M 73.832727 241.478961 
L 90.065455 278.98695 
L 106.298182 287.437506 
L 122.530909 282.323954 
L 138.763636 267.545176 
L 154.996364 253.235893 
L 171.229091 285.6244 
L 187.461818 282.516801 
L 203.694545 277.518554 
L 219.927273 295.488 
L 236.16 227.676227 
L 252.392727 260.301646 
L 268.625455 285.525704 
L 284.858182 268.065701 
L 301.090909 247.55208 
L 317.323636 261.012033 
L 333.556364 256.439384 
L 349.789091 270.268996 
L 366.021818 266.989705 
L 382.254545 264.866769 
L 398.487273 269.462391 
" clip-path="url(#p9bcb1c3b06)" style="fill: none; stroke: #31688e; stroke-opacity: 0.5; stroke-width: 1.5; stroke-linecap: square"/>
   </g>
   <g id="line2d_28">
    <path d="M 73.832727 216.331148 
L 90.065455 220.240255 
L 106.298182 213.54746 
L 122.530909 219.115262 
L 138.763636 220.083336 
L 154.996364 209.687536 
L 171.229091 226.586972 
L 187.461818 228.617656 
L 203.694545 210.53366 
L 219.927273 242.681267 
L 236.16 220.844719 
L 252.392727 236.994674 
L 268.625455 203.007063 
L 284.858182 249.451466 
L 301.090909 231.212992 
L 317.323636 236.412208 
L 333.556364 225.001047 
L 349.789091 235.122386 
L 366.021818 228.357027 
L 382.254545 232.554319 
L 398.487273 231.210295 
" clip-path="url(#p9bcb1c3b06)" style="fill: none; stroke: #31688e; stroke-opacity: 0.5; stroke-width: 1.5; stroke-linecap: square"/>
   </g>
   <g id="line2d_29">
    <path d="M 73.832727 203.005857 
L 90.065455 271.794876 
L 106.298182 244.868967 
L 122.530909 271.59839 
L 138.763636 246.904269 
L 154.996364 276.634024 
L 171.229091 282.943171 
L 187.461818 275.196504 
L 203.694545 277.443791 
L 219.927273 287.292483 
L 236.16 272.366838 
L 252.392727 284.311725 
L 268.625455 275.384401 
L 284.858182 277.679574 
L 301.090909 284.631596 
L 317.323636 279.482182 
L 333.556364 283.985943 
L 349.789091 272.125032 
L 366.021818 290.887374 
L 382.254545 284.936275 
L 398.487273 270.251423 
" clip-path="url(#p9bcb1c3b06)" style="fill: none; stroke: #31688e; stroke-opacity: 0.5; stroke-width: 1.5; stroke-linecap: square"/>
   </g>
   <g id="line2d_30">
    <path d="M 73.832727 266.839797 
L 90.065455 247.018105 
L 106.298182 273.060455 
L 122.530909 253.348401 
L 138.763636 253.900517 
L 154.996364 270.681962 
L 171.229091 242.214721 
L 187.461818 242.629014 
L 203.694545 250.030216 
L 219.927273 260.850478 
L 236.16 227.359532 
L 252.392727 241.458064 
L 268.625455 237.745455 
L 284.858182 214.525365 
L 301.090909 216.255875 
L 317.323636 233.418222 
L 333.556364 248.091113 
L 349.789091 235.504097 
L 366.021818 242.028715 
L 382.254545 242.950961 
L 398.487273 228.200134 
" clip-path="url(#p9bcb1c3b06)" style="fill: none; stroke: #31688e; stroke-opacity: 0.5; stroke-width: 1.5; stroke-linecap: square"/>
   </g>
   <g id="line2d_31">
    <path d="M 73.832727 256.012245 
L 90.065455 258.487735 
L 106.298182 220.690109 
L 122.530909 203.391856 
L 138.763636 266.016032 
L 154.996364 256.38435 
L 171.229091 253.240019 
L 187.461818 228.454884 
L 203.694545 247.513479 
L 219.927273 236.792836 
L 236.16 227.114004 
L 252.392727 252.920355 
L 268.625455 250.198202 
L 284.858182 254.574759 
L 301.090909 241.893915 
L 317.323636 209.10537 
L 333.556364 198.455696 
L 349.789091 234.23527 
L 366.021818 237.200199 
L 382.254545 238.678356 
L 398.487273 236.489247 
" clip-path="url(#p9bcb1c3b06)" style="fill: none; stroke: #31688e; stroke-opacity: 0.5; stroke-width: 1.5; stroke-linecap: square"/>
   </g>
   <g id="line2d_32">
    <path d="M 73.832727 258.520594 
L 90.065455 260.391654 
L 106.298182 228.808008 
L 122.530909 268.984972 
L 138.763636 278.822305 
L 154.996364 279.934239 
L 171.229091 269.706218 
L 187.461818 287.775327 
L 203.694545 262.099842 
L 219.927273 258.647804 
L 236.16 242.956136 
L 252.392727 266.797694 
L 268.625455 273.160824 
L 284.858182 262.519192 
L 301.090909 269.463511 
L 317.323636 268.047711 
L 333.556364 270.417566 
L 349.789091 279.727524 
L 366.021818 276.116048 
L 382.254545 268.923416 
L 398.487273 268.17595 
" clip-path="url(#p9bcb1c3b06)" style="fill: none; stroke: #31688e; stroke-opacity: 0.5; stroke-width: 1.5; stroke-linecap: square"/>
   </g>
   <g id="line2d_33">
    <path d="M 73.832727 279.326594 
L 90.065455 266.185811 
L 106.298182 288.578485 
L 122.530909 291.596269 
L 138.763636 264.623253 
L 154.996364 268.450392 
L 171.229091 225.103563 
L 187.461818 218.434448 
L 203.694545 259.312489 
L 219.927273 272.796339 
L 236.16 276.683286 
L 252.392727 264.899728 
L 268.625455 255.921736 
L 284.858182 284.730403 
L 301.090909 279.166969 
L 317.323636 243.858219 
L 333.556364 260.739035 
L 349.789091 256.212403 
L 366.021818 263.703072 
L 382.254545 259.513456 
L 398.487273 256.061511 
" clip-path="url(#p9bcb1c3b06)" style="fill: none; stroke: #31688e; stroke-opacity: 0.5; stroke-width: 1.5; stroke-linecap: square"/>
   </g>
   <g id="line2d_34">
    <path d="M 73.832727 219.005636 
L 90.065455 200.18311 
L 106.298182 186.332572 
L 122.530909 206.607502 
L 138.763636 231.520879 
L 154.996364 221.025611 
L 171.229091 241.905877 
L 187.461818 227.18 
L 203.694545 215.283416 
L 219.927273 231.518666 
L 236.16 222.482335 
L 252.392727 236.428357 
L 268.625455 247.24253 
L 284.858182 239.535316 
L 301.090909 249.199711 
L 317.323636 247.295274 
L 333.556364 226.176871 
L 349.789091 236.588426 
L 366.021818 241.347315 
L 382.254545 231.867497 
L 398.487273 243.136418 
" clip-path="url(#p9bcb1c3b06)" style="fill: none; stroke: #31688e; stroke-opacity: 0.5; stroke-width: 1.5; stroke-linecap: square"/>
   </g>
   <g id="line2d_35">
    <path d="M 73.832727 253.689905 
L 90.065455 273.982115 
L 106.298182 253.956976 
L 122.530909 281.380646 
L 138.763636 274.134855 
L 154.996364 262.272177 
L 171.229091 286.452831 
L 187.461818 289.595542 
L 203.694545 281.326698 
L 219.927273 281.342671 
L 236.16 268.727565 
L 252.392727 268.651854 
L 268.625455 273.088813 
L 284.858182 274.266547 
L 301.090909 274.382948 
L 317.323636 285.496417 
L 333.556364 272.144541 
L 349.789091 280.905466 
L 366.021818 274.223235 
L 382.254545 283.620901 
L 398.487273 283.574531 
" clip-path="url(#p9bcb1c3b06)" style="fill: none; stroke: #31688e; stroke-opacity: 0.5; stroke-width: 1.5; stroke-linecap: square"/>
   </g>
   <g id="line2d_36">
    <path d="M 73.832727 237.310339 
L 90.065455 270.129574 
L 106.298182 248.928176 
L 122.530909 260.32819 
L 138.763636 282.585103 
L 154.996364 276.514047 
L 171.229091 269.682388 
L 187.461818 289.655918 
L 203.694545 261.296516 
L 219.927273 271.926968 
L 236.16 265.23302 
L 252.392727 255.532464 
L 268.625455 243.390582 
L 284.858182 260.3912 
L 301.090909 264.03019 
L 317.323636 275.247514 
L 333.556364 269.920033 
L 349.789091 271.216046 
L 366.021818 289.356399 
L 382.254545 279.504589 
L 398.487273 280.534882 
" clip-path="url(#p9bcb1c3b06)" style="fill: none; stroke: #31688e; stroke-opacity: 0.5; stroke-width: 1.5; stroke-linecap: square"/>
   </g>
   <g id="line2d_37">
    <path d="M 73.832727 226.433605 
L 90.065455 247.062647 
L 106.298182 264.129891 
L 122.530909 246.542238 
L 138.763636 245.66549 
L 154.996364 268.482539 
L 171.229091 221.825618 
L 187.461818 252.136916 
L 203.694545 248.725659 
L 219.927273 253.9052 
L 236.16 245.02798 
L 252.392727 263.132568 
L 268.625455 257.576423 
L 284.858182 257.189635 
L 301.090909 237.575833 
L 317.323636 253.709024 
L 333.556364 241.303899 
L 349.789091 265.660935 
L 366.021818 258.431016 
L 382.254545 250.488654 
L 398.487273 231.827911 
" clip-path="url(#p9bcb1c3b06)" style="fill: none; stroke: #31688e; stroke-opacity: 0.5; stroke-width: 1.5; stroke-linecap: square"/>
   </g>
   <g id="line2d_38">
    <path d="M 73.832727 228.527151 
L 90.065455 156.087091 
L 106.298182 255.976759 
L 122.530909 282.32106 
L 138.763636 249.965362 
L 154.996364 288.385313 
L 171.229091 276.879459 
L 187.461818 281.60665 
L 203.694545 285.879531 
L 219.927273 292.29057 
L 236.16 259.967186 
L 252.392727 261.541985 
L 268.625455 285.789837 
L 284.858182 278.488983 
L 301.090909 282.995359 
L 317.323636 258.063623 
L 333.556364 275.594083 
L 349.789091 265.836155 
L 366.021818 264.77362 
L 382.254545 255.955287 
L 398.487273 273.16246 
" clip-path="url(#p9bcb1c3b06)" style="fill: none; stroke: #31688e; stroke-opacity: 0.5; stroke-width: 1.5; stroke-linecap: square"/>
   </g>
   <g id="line2d_39">
    <path d="M 73.832727 271.11135 
L 90.065455 268.966012 
L 106.298182 282.081531 
L 122.530909 269.739749 
L 138.763636 281.832554 
L 154.996364 289.387688 
L 171.229091 267.182845 
L 187.461818 267.271711 
L 203.694545 287.936537 
L 219.927273 281.036206 
L 236.16 239.065052 
L 252.392727 263.059163 
L 268.625455 274.869989 
L 284.858182 265.910893 
L 301.090909 274.14878 
L 317.323636 257.28873 
L 333.556364 287.174092 
L 349.789091 281.820446 
L 366.021818 274.332289 
L 382.254545 245.554823 
L 398.487273 283.058259 
" clip-path="url(#p9bcb1c3b06)" style="fill: none; stroke: #31688e; stroke-opacity: 0.5; stroke-width: 1.5; stroke-linecap: square"/>
   </g>
   <g id="line2d_40">
    <path d="M 73.832727 221.667722 
L 90.065455 212.371912 
L 106.298182 226.941728 
L 122.530909 211.467584 
L 138.763636 195.884688 
L 154.996364 243.243265 
L 171.229091 189.178307 
L 187.461818 164.59418 
L 203.694545 237.306515 
L 219.927273 214.925128 
L 236.16 177.731312 
L 252.392727 225.185656 
L 268.625455 208.054262 
L 284.858182 228.216047 
L 301.090909 222.934878 
L 317.323636 193.942274 
L 333.556364 198.898557 
L 349.789091 222.215823 
L 366.021818 230.619958 
L 382.254545 200.233207 
L 398.487273 239.240108 
" clip-path="url(#p9bcb1c3b06)" style="fill: none; stroke: #31688e; stroke-opacity: 0.5; stroke-width: 1.5; stroke-linecap: square"/>
   </g>
   <g id="line2d_41">
    <path d="M 73.832727 266.98951 
L 90.065455 285.747809 
L 106.298182 288.258757 
L 122.530909 286.722423 
L 138.763636 270.203903 
L 154.996364 263.656277 
L 171.229091 283.674444 
L 187.461818 258.432586 
L 203.694545 274.846788 
L 219.927273 276.806939 
L 236.16 269.909145 
L 252.392727 279.935544 
L 268.625455 273.467008 
L 284.858182 262.860639 
L 301.090909 276.153325 
L 317.323636 271.740715 
L 333.556364 260.975769 
L 349.789091 263.146856 
L 366.021818 273.097358 
L 382.254545 262.802119 
L 398.487273 281.486419 
" clip-path="url(#p9bcb1c3b06)" style="fill: none; stroke: #31688e; stroke-opacity: 0.5; stroke-width: 1.5; stroke-linecap: square"/>
   </g>
   <g id="line2d_42">
    <path d="M 73.832727 247.857663 
L 90.065455 246.586293 
L 106.298182 258.615646 
L 122.530909 266.48713 
L 138.763636 252.325317 
L 154.996364 249.846358 
L 171.229091 264.164932 
L 187.461818 260.492163 
L 203.694545 236.468754 
L 219.927273 271.757548 
L 236.16 231.564605 
L 252.392727 228.788465 
L 268.625455 244.612326 
L 284.858182 273.23226 
L 301.090909 230.647777 
L 317.323636 251.097488 
L 333.556364 255.349024 
L 349.789091 242.378449 
L 366.021818 234.324722 
L 382.254545 196.464477 
L 398.487273 257.720846 
" clip-path="url(#p9bcb1c3b06)" style="fill: none; stroke: #31688e; stroke-opacity: 0.5; stroke-width: 1.5; stroke-linecap: square"/>
   </g>
   <g id="line2d_43">
    <path d="M 73.832727 235.611111 
L 90.065455 226.758043 
L 106.298182 234.702271 
L 122.530909 229.949767 
L 138.763636 207.241176 
L 154.996364 248.572856 
L 171.229091 225.561318 
L 187.461818 214.86102 
L 203.694545 238.696144 
L 219.927273 198.605271 
L 236.16 207.115289 
L 252.392727 201.435591 
L 268.625455 221.940009 
L 284.858182 186.712063 
L 301.090909 237.61178 
L 317.323636 251.687011 
L 333.556364 251.207734 
L 349.789091 218.776946 
L 366.021818 220.661183 
L 382.254545 201.078243 
L 398.487273 217.290613 
" clip-path="url(#p9bcb1c3b06)" style="fill: none; stroke: #31688e; stroke-opacity: 0.5; stroke-width: 1.5; stroke-linecap: square"/>
   </g>
   <g id="line2d_44">
    <path d="M 73.832727 244.891337 
L 90.065455 215.013734 
L 106.298182 228.91308 
L 122.530909 233.865389 
L 138.763636 237.179684 
L 154.996364 225.499778 
L 171.229091 272.183937 
L 187.461818 277.915734 
L 203.694545 270.138245 
L 219.927273 260.250195 
L 236.16 253.664207 
L 252.392727 251.99118 
L 268.625455 251.639134 
L 284.858182 277.178945 
L 301.090909 271.157819 
L 317.323636 292.365022 
L 333.556364 287.374476 
L 349.789091 281.954595 
L 366.021818 274.647413 
L 382.254545 275.050477 
L 398.487273 259.801253 
" clip-path="url(#p9bcb1c3b06)" style="fill: none; stroke: #31688e; stroke-opacity: 0.5; stroke-width: 1.5; stroke-linecap: square"/>
   </g>
   <g id="line2d_45">
    <path d="M 73.832727 232.812282 
L 90.065455 219.920767 
L 106.298182 234.65281 
L 122.530909 240.353976 
L 138.763636 252.3579 
L 154.996364 243.813649 
L 171.229091 218.797371 
L 187.461818 258.572859 
L 203.694545 227.900896 
L 219.927273 289.974702 
L 236.16 260.99057 
L 252.392727 253.977227 
L 268.625455 227.769075 
L 284.858182 247.262581 
L 301.090909 260.888965 
L 317.323636 263.617947 
L 333.556364 270.484424 
L 349.789091 261.755988 
L 366.021818 261.256925 
L 382.254545 248.366358 
L 398.487273 249.906757 
" clip-path="url(#p9bcb1c3b06)" style="fill: none; stroke: #31688e; stroke-opacity: 0.5; stroke-width: 1.5; stroke-linecap: square"/>
   </g>
   <g id="line2d_46">
    <path d="M 73.832727 205.118673 
L 90.065455 188.487751 
L 106.298182 226.162687 
L 122.530909 231.38099 
L 138.763636 212.88302 
L 154.996364 219.429692 
L 171.229091 233.549546 
L 187.461818 205.661389 
L 203.694545 215.54171 
L 219.927273 233.584797 
L 236.16 212.616136 
L 252.392727 240.469884 
L 268.625455 196.947042 
L 284.858182 210.742637 
L 301.090909 226.91565 
L 317.323636 253.512159 
L 333.556364 240.095368 
L 349.789091 233.534897 
L 366.021818 227.159318 
L 382.254545 218.253041 
L 398.487273 215.739211 
" clip-path="url(#p9bcb1c3b06)" style="fill: none; stroke: #31688e; stroke-opacity: 0.5; stroke-width: 1.5; stroke-linecap: square"/>
   </g>
   <g id="line2d_47">
    <path d="M 73.832727 251.386263 
L 90.065455 223.105997 
L 106.298182 284.376405 
L 122.530909 278.735114 
L 138.763636 272.036001 
L 154.996364 279.756821 
L 171.229091 275.180053 
L 187.461818 264.234292 
L 203.694545 239.561277 
L 219.927273 258.454684 
L 236.16 291.424604 
L 252.392727 285.27618 
L 268.625455 249.807434 
L 284.858182 268.9281 
L 301.090909 280.621766 
L 317.323636 286.205525 
L 333.556364 280.396442 
L 349.789091 266.270773 
L 366.021818 280.973112 
L 382.254545 251.109724 
L 398.487273 245.705517 
" clip-path="url(#p9bcb1c3b06)" style="fill: none; stroke: #31688e; stroke-opacity: 0.5; stroke-width: 1.5; stroke-linecap: square"/>
   </g>
   <g id="line2d_48">
    <path d="M 73.832727 287.405926 
L 90.065455 242.023041 
L 106.298182 263.049454 
L 122.530909 263.623513 
L 138.763636 271.941259 
L 154.996364 254.20698 
L 171.229091 240.669429 
L 187.461818 265.017515 
L 203.694545 249.454804 
L 219.927273 226.943979 
L 236.16 265.452796 
L 252.392727 238.726622 
L 268.625455 235.390231 
L 284.858182 267.225194 
L 301.090909 272.178104 
L 317.323636 232.798984 
L 333.556364 231.891692 
L 349.789091 257.835485 
L 366.021818 268.062621 
L 382.254545 265.547287 
L 398.487273 253.826557 
" clip-path="url(#p9bcb1c3b06)" style="fill: none; stroke: #31688e; stroke-opacity: 0.5; stroke-width: 1.5; stroke-linecap: square"/>
   </g>
   <g id="line2d_49">
    <path d="M 73.832727 231.828306 
L 90.065455 213.717265 
L 106.298182 254.338889 
L 122.530909 257.170368 
L 138.763636 211.876339 
L 154.996364 212.551809 
L 171.229091 247.23612 
L 187.461818 248.371772 
L 203.694545 221.940626 
L 219.927273 242.027105 
L 236.16 225.88308 
L 252.392727 238.559834 
L 268.625455 223.442136 
L 284.858182 242.942076 
L 301.090909 239.160048 
L 317.323636 249.497899 
L 333.556364 249.577988 
L 349.789091 233.198254 
L 366.021818 218.832793 
L 382.254545 224.621697 
L 398.487273 229.317667 
" clip-path="url(#p9bcb1c3b06)" style="fill: none; stroke: #31688e; stroke-opacity: 0.5; stroke-width: 1.5; stroke-linecap: square"/>
   </g>
   <g id="line2d_50">
    <path d="M 73.832727 233.240393 
L 90.065455 178.01025 
L 106.298182 216.693941 
L 122.530909 207.27175 
L 138.763636 243.33951 
L 154.996364 264.073977 
L 171.229091 263.312611 
L 187.461818 263.880282 
L 203.694545 273.00196 
L 219.927273 276.787768 
L 236.16 281.952083 
L 252.392727 277.453677 
L 268.625455 286.695969 
L 284.858182 281.106584 
L 301.090909 273.104639 
L 317.323636 265.312044 
L 333.556364 283.304022 
L 349.789091 279.22353 
L 366.021818 269.163583 
L 382.254545 282.157655 
L 398.487273 282.748025 
" clip-path="url(#p9bcb1c3b06)" style="fill: none; stroke: #31688e; stroke-opacity: 0.5; stroke-width: 1.5; stroke-linecap: square"/>
   </g>
   <g id="line2d_51">
    <path d="M 73.832727 272.693694 
L 90.065455 286.028039 
L 106.298182 220.873546 
L 122.530909 239.698348 
L 138.763636 274.026714 
L 154.996364 281.285355 
L 171.229091 284.691721 
L 187.461818 284.212274 
L 203.694545 271.208978 
L 219.927273 281.424396 
L 236.16 277.470321 
L 252.392727 236.723507 
L 268.625455 284.41459 
L 284.858182 250.588582 
L 301.090909 255.670131 
L 317.323636 249.003486 
L 333.556364 269.197135 
L 349.789091 251.214748 
L 366.021818 256.83127 
L 382.254545 231.078005 
L 398.487273 249.625091 
" clip-path="url(#p9bcb1c3b06)" style="fill: none; stroke: #31688e; stroke-opacity: 0.5; stroke-width: 1.5; stroke-linecap: square"/>
   </g>
   <g id="line2d_52">
    <path d="M 73.832727 216.999508 
L 90.065455 211.578537 
L 106.298182 226.411361 
L 122.530909 236.422472 
L 138.763636 223.642851 
L 154.996364 213.541414 
L 171.229091 203.75027 
L 187.461818 223.288203 
L 203.694545 227.272138 
L 219.927273 228.459439 
L 236.16 210.908361 
L 252.392727 209.679462 
L 268.625455 227.53369 
L 284.858182 206.096815 
L 301.090909 197.421716 
L 317.323636 171.608765 
L 333.556364 178.749578 
L 349.789091 230.181818 
L 366.021818 195.2388 
L 382.254545 214.086705 
L 398.487273 207.929655 
" clip-path="url(#p9bcb1c3b06)" style="fill: none; stroke: #31688e; stroke-opacity: 0.5; stroke-width: 1.5; stroke-linecap: square"/>
   </g>
   <g id="line2d_53">
    <path d="M 73.832727 238.287888 
L 90.065455 277.287683 
L 106.298182 281.682074 
L 122.530909 284.727759 
L 138.763636 267.937637 
L 154.996364 266.39522 
L 171.229091 262.335746 
L 187.461818 258.669 
L 203.694545 280.314759 
L 219.927273 276.297634 
L 236.16 258.289424 
L 252.392727 262.137597 
L 268.625455 268.393185 
L 284.858182 239.299551 
L 301.090909 249.801719 
L 317.323636 243.636122 
L 333.556364 254.177307 
L 349.789091 255.476132 
L 366.021818 258.558211 
L 382.254545 268.365922 
L 398.487273 276.479621 
" clip-path="url(#p9bcb1c3b06)" style="fill: none; stroke: #31688e; stroke-opacity: 0.5; stroke-width: 1.5; stroke-linecap: square"/>
   </g>
   <g id="line2d_54">
    <path d="M 73.832727 254.637119 
L 90.065455 234.999478 
L 106.298182 236.458093 
L 122.530909 233.812837 
L 138.763636 253.139614 
L 154.996364 234.831832 
L 171.229091 243.179048 
L 187.461818 224.932929 
L 203.694545 197.825912 
L 219.927273 210.827661 
L 236.16 241.286944 
L 252.392727 223.179622 
L 268.625455 219.677888 
L 284.858182 189.295859 
L 301.090909 210.358813 
L 317.323636 174.697236 
L 333.556364 204.193263 
L 349.789091 190.222035 
L 366.021818 154.418065 
L 382.254545 189.992291 
L 398.487273 194.312816 
" clip-path="url(#p9bcb1c3b06)" style="fill: none; stroke: #31688e; stroke-opacity: 0.5; stroke-width: 1.5; stroke-linecap: square"/>
   </g>
   <g id="line2d_55">
    <path d="M 73.832727 232.109681 
L 90.065455 255.87302 
L 106.298182 261.030008 
L 122.530909 271.223922 
L 138.763636 258.34077 
L 154.996364 255.247491 
L 171.229091 239.107446 
L 187.461818 243.695787 
L 203.694545 261.181913 
L 219.927273 231.522134 
L 236.16 217.736663 
L 252.392727 195.068195 
L 268.625455 201.963691 
L 284.858182 173.097255 
L 301.090909 162.550144 
L 317.323636 198.940618 
L 333.556364 205.256154 
L 349.789091 191.597679 
L 366.021818 212.271292 
L 382.254545 216.497879 
L 398.487273 215.923948 
" clip-path="url(#p9bcb1c3b06)" style="fill: none; stroke: #31688e; stroke-opacity: 0.5; stroke-width: 1.5; stroke-linecap: square"/>
   </g>
   <g id="line2d_56">
    <path d="M 73.832727 261.034786 
L 90.065455 280.454788 
L 106.298182 273.356805 
L 122.530909 275.817253 
L 138.763636 279.503209 
L 154.996364 272.708684 
L 171.229091 283.52184 
L 187.461818 259.057632 
L 203.694545 270.481541 
L 219.927273 268.723377 
L 236.16 278.060243 
L 252.392727 248.897703 
L 268.625455 257.224701 
L 284.858182 245.816428 
L 301.090909 245.510441 
L 317.323636 265.597606 
L 333.556364 272.620479 
L 349.789091 269.731817 
L 366.021818 268.768792 
L 382.254545 280.588882 
L 398.487273 264.56685 
" clip-path="url(#p9bcb1c3b06)" style="fill: none; stroke: #31688e; stroke-opacity: 0.5; stroke-width: 1.5; stroke-linecap: square"/>
   </g>
   <g id="line2d_57">
    <path d="M 73.832727 247.288595 
L 90.065455 253.19041 
L 106.298182 257.593033 
L 122.530909 236.896404 
L 138.763636 182.261687 
L 154.996364 203.483318 
L 171.229091 249.787871 
L 187.461818 233.036895 
L 203.694545 250.27069 
L 219.927273 224.620762 
L 236.16 259.309266 
L 252.392727 257.74035 
L 268.625455 279.219846 
L 284.858182 270.606325 
L 301.090909 256.444581 
L 317.323636 282.078847 
L 333.556364 292.793027 
L 349.789091 290.542509 
L 366.021818 276.256895 
L 382.254545 287.229663 
L 398.487273 295.238415 
" clip-path="url(#p9bcb1c3b06)" style="fill: none; stroke: #31688e; stroke-opacity: 0.5; stroke-width: 1.5; stroke-linecap: square"/>
   </g>
   <g id="line2d_58">
    <path d="M 73.832727 227.24163 
L 90.065455 235.842399 
L 106.298182 235.257714 
L 122.530909 230.07015 
L 138.763636 220.438603 
L 154.996364 215.417329 
L 171.229091 234.346215 
L 187.461818 202.941622 
L 203.694545 213.178955 
L 219.927273 211.930166 
L 236.16 201.604747 
L 252.392727 217.709357 
L 268.625455 194.40093 
L 284.858182 197.029697 
L 301.090909 212.221078 
L 317.323636 209.368157 
L 333.556364 198.626039 
L 349.789091 195.315412 
L 366.021818 222.595844 
L 382.254545 218.727977 
L 398.487273 206.658868 
" clip-path="url(#p9bcb1c3b06)" style="fill: none; stroke: #31688e; stroke-opacity: 0.5; stroke-width: 1.5; stroke-linecap: square"/>
   </g>
   <g id="line2d_59">
    <path d="M 73.832727 260.863191 
L 90.065455 265.332838 
L 106.298182 275.747745 
L 122.530909 283.822 
L 138.763636 260.072795 
L 154.996364 241.952584 
L 171.229091 276.610098 
L 187.461818 267.515358 
L 203.694545 269.428207 
L 219.927273 249.52972 
L 236.16 275.139988 
L 252.392727 277.008494 
L 268.625455 270.915141 
L 284.858182 263.368843 
L 301.090909 280.25126 
L 317.323636 282.462929 
L 333.556364 279.910995 
L 349.789091 289.115771 
L 366.021818 283.361161 
L 382.254545 276.601873 
L 398.487273 281.608598 
" clip-path="url(#p9bcb1c3b06)" style="fill: none; stroke: #31688e; stroke-opacity: 0.5; stroke-width: 1.5; stroke-linecap: square"/>
   </g>
   <g id="line2d_60">
    <path d="M 73.832727 245.179684 
L 90.065455 240.852683 
L 106.298182 263.776084 
L 122.530909 248.456242 
L 138.763636 260.700297 
L 154.996364 226.875371 
L 171.229091 240.61634 
L 187.461818 248.961074 
L 203.694545 235.164161 
L 219.927273 221.713381 
L 236.16 257.060518 
L 252.392727 215.306056 
L 268.625455 227.530212 
L 284.858182 248.409215 
L 301.090909 251.210619 
L 317.323636 229.159525 
L 333.556364 233.588989 
L 349.789091 208.902138 
L 366.021818 216.492706 
L 382.254545 224.02686 
L 398.487273 223.093847 
" clip-path="url(#p9bcb1c3b06)" style="fill: none; stroke: #31688e; stroke-opacity: 0.5; stroke-width: 1.5; stroke-linecap: square"/>
   </g>
   <g id="line2d_61">
    <path d="M 73.832727 225.279737 
L 90.065455 242.729831 
L 106.298182 232.752113 
L 122.530909 239.831779 
L 138.763636 237.524211 
L 154.996364 209.44363 
L 171.229091 213.63256 
L 187.461818 237.916992 
L 203.694545 203.474441 
L 219.927273 222.36174 
L 236.16 221.725097 
L 252.392727 202.228755 
L 268.625455 187.421822 
L 284.858182 210.930361 
L 301.090909 164.544477 
L 317.323636 203.936076 
L 333.556364 172.722592 
L 349.789091 188.467242 
L 366.021818 181.332044 
L 382.254545 197.537759 
L 398.487273 205.234241 
" clip-path="url(#p9bcb1c3b06)" style="fill: none; stroke: #31688e; stroke-opacity: 0.5; stroke-width: 1.5; stroke-linecap: square"/>
   </g>
   <g id="patch_3">
    <path d="M 57.6 307.584 
L 57.6 41.472 
" style="fill: none; stroke: #000000; stroke-width: 3; stroke-linejoin: miter; stroke-linecap: square"/>
   </g>
   <g id="patch_4">
    <path d="M 414.72 307.584 
L 414.72 41.472 
" style="fill: none; stroke: #000000; stroke-width: 3; stroke-linejoin: miter; stroke-linecap: square"/>
   </g>
   <g id="patch_5">
    <path d="M 57.6 307.584 
L 414.72 307.584 
" style="fill: none; stroke: #000000; stroke-width: 3; stroke-linejoin: miter; stroke-linecap: square"/>
   </g>
   <g id="patch_6">
    <path d="M 57.6 41.472 
L 414.72 41.472 
" style="fill: none; stroke: #000000; stroke-width: 3; stroke-linejoin: miter; stroke-linecap: square"/>
   </g>
   <g id="text_11">
    <!-- Atom Type C (n=51, mean Q=9.43) -->
    <g transform="translate(40.817187 35.472) scale(0.22 -0.22)">
     <defs>
      <path id="DejaVuSans-41" d="M 2188 4044 
L 1331 1722 
L 3047 1722 
L 2188 4044 
z
M 1831 4666 
L 2547 4666 
L 4325 0 
L 3669 0 
L 3244 1197 
L 1141 1197 
L 716 0 
L 50 0 
L 1831 4666 
z
" transform="scale(0.015625)"/>
      <path id="DejaVuSans-74" d="M 1172 4494 
L 1172 3500 
L 2356 3500 
L 2356 3053 
L 1172 3053 
L 1172 1153 
Q 1172 725 1289 603 
Q 1406 481 1766 481 
L 2356 481 
L 2356 0 
L 1766 0 
Q 1100 0 847 248 
Q 594 497 594 1153 
L 594 3053 
L 172 3053 
L 172 3500 
L 594 3500 
L 594 4494 
L 1172 4494 
z
" transform="scale(0.015625)"/>
      <path id="DejaVuSans-6f" d="M 1959 3097 
Q 1497 3097 1228 2736 
Q 959 2375 959 1747 
Q 959 1119 1226 758 
Q 1494 397 1959 397 
Q 2419 397 2687 759 
Q 2956 1122 2956 1747 
Q 2956 2369 2687 2733 
Q 2419 3097 1959 3097 
z
M 1959 3584 
Q 2709 3584 3137 3096 
Q 3566 2609 3566 1747 
Q 3566 888 3137 398 
Q 2709 -91 1959 -91 
Q 1206 -91 779 398 
Q 353 888 353 1747 
Q 353 2609 779 3096 
Q 1206 3584 1959 3584 
z
" transform="scale(0.015625)"/>
      <path id="DejaVuSans-6d" d="M 3328 2828 
Q 3544 3216 3844 3400 
Q 4144 3584 4550 3584 
Q 5097 3584 5394 3201 
Q 5691 2819 5691 2113 
L 5691 0 
L 5113 0 
L 5113 2094 
Q 5113 2597 4934 2840 
Q 4756 3084 4391 3084 
Q 3944 3084 3684 2787 
Q 3425 2491 3425 1978 
L 3425 0 
L 2847 0 
L 2847 2094 
Q 2847 2600 2669 2842 
Q 2491 3084 2119 3084 
Q 1678 3084 1418 2786 
Q 1159 2488 1159 1978 
L 1159 0 
L 581 0 
L 581 3500 
L 1159 3500 
L 1159 2956 
Q 1356 3278 1631 3431 
Q 1906 3584 2284 3584 
Q 2666 3584 2933 3390 
Q 3200 3197 3328 2828 
z
" transform="scale(0.015625)"/>
      <path id="DejaVuSans-20" transform="scale(0.015625)"/>
      <path id="DejaVuSans-54" d="M -19 4666 
L 3928 4666 
L 3928 4134 
L 2272 4134 
L 2272 0 
L 1638 0 
L 1638 4134 
L -19 4134 
L -19 4666 
z
" transform="scale(0.015625)"/>
      <path id="DejaVuSans-79" d="M 2059 -325 
Q 1816 -950 1584 -1140 
Q 1353 -1331 966 -1331 
L 506 -1331 
L 506 -850 
L 844 -850 
Q 1081 -850 1212 -737 
Q 1344 -625 1503 -206 
L 1606 56 
L 191 3500 
L 800 3500 
L 1894 763 
L 2988 3500 
L 3597 3500 
L 2059 -325 
z
" transform="scale(0.015625)"/>
      <path id="DejaVuSans-70" d="M 1159 525 
L 1159 -1331 
L 581 -1331 
L 581 3500 
L 1159 3500 
L 1159 2969 
Q 1341 3281 1617 3432 
Q 1894 3584 2278 3584 
Q 2916 3584 3314 3078 
Q 3713 2572 3713 1747 
Q 3713 922 3314 415 
Q 2916 -91 2278 -91 
Q 1894 -91 1617 61 
Q 1341 213 1159 525 
z
M 3116 1747 
Q 3116 2381 2855 2742 
Q 2594 3103 2138 3103 
Q 1681 3103 1420 2742 
Q 1159 2381 1159 1747 
Q 1159 1113 1420 752 
Q 1681 391 2138 391 
Q 2594 391 2855 752 
Q 3116 1113 3116 1747 
z
" transform="scale(0.015625)"/>
      <path id="DejaVuSans-65" d="M 3597 1894 
L 3597 1613 
L 953 1613 
Q 991 1019 1311 708 
Q 1631 397 2203 397 
Q 2534 397 2845 478 
Q 3156 559 3463 722 
L 3463 178 
Q 3153 47 2828 -22 
Q 2503 -91 2169 -91 
Q 1331 -91 842 396 
Q 353 884 353 1716 
Q 353 2575 817 3079 
Q 1281 3584 2069 3584 
Q 2775 3584 3186 3129 
Q 3597 2675 3597 1894 
z
M 3022 2063 
Q 3016 2534 2758 2815 
Q 2500 3097 2075 3097 
Q 1594 3097 1305 2825 
Q 1016 2553 972 2059 
L 3022 2063 
z
" transform="scale(0.015625)"/>
      <path id="DejaVuSans-43" d="M 4122 4306 
L 4122 3641 
Q 3803 3938 3442 4084 
Q 3081 4231 2675 4231 
Q 1875 4231 1450 3742 
Q 1025 3253 1025 2328 
Q 1025 1406 1450 917 
Q 1875 428 2675 428 
Q 3081 428 3442 575 
Q 3803 722 4122 1019 
L 4122 359 
Q 3791 134 3420 21 
Q 3050 -91 2638 -91 
Q 1578 -91 968 557 
Q 359 1206 359 2328 
Q 359 3453 968 4101 
Q 1578 4750 2638 4750 
Q 3056 4750 3426 4639 
Q 3797 4528 4122 4306 
z
" transform="scale(0.015625)"/>
      <path id="DejaVuSans-28" d="M 1984 4856 
Q 1566 4138 1362 3434 
Q 1159 2731 1159 2009 
Q 1159 1288 1364 580 
Q 1569 -128 1984 -844 
L 1484 -844 
Q 1016 -109 783 600 
Q 550 1309 550 2009 
Q 550 2706 781 3412 
Q 1013 4119 1484 4856 
L 1984 4856 
z
" transform="scale(0.015625)"/>
      <path id="DejaVuSans-6e" d="M 3513 2113 
L 3513 0 
L 2938 0 
L 2938 2094 
Q 2938 2591 2744 2837 
Q 2550 3084 2163 3084 
Q 1697 3084 1428 2787 
Q 1159 2491 1159 1978 
L 1159 0 
L 581 0 
L 581 3500 
L 1159 3500 
L 1159 2956 
Q 1366 3272 1645 3428 
Q 1925 3584 2291 3584 
Q 2894 3584 3203 3211 
Q 3513 2838 3513 2113 
z
" transform="scale(0.015625)"/>
      <path id="DejaVuSans-3d" d="M 678 2906 
L 4684 2906 
L 4684 2381 
L 678 2381 
L 678 2906 
z
M 678 1631 
L 4684 1631 
L 4684 1100 
L 678 1100 
L 678 1631 
z
" transform="scale(0.015625)"/>
      <path id="DejaVuSans-2c" d="M 750 794 
L 1409 794 
L 1409 256 
L 897 -744 
L 494 -744 
L 750 256 
L 750 794 
z
" transform="scale(0.015625)"/>
      <path id="DejaVuSans-61" d="M 2194 1759 
Q 1497 1759 1228 1600 
Q 959 1441 959 1056 
Q 959 750 1161 570 
Q 1363 391 1709 391 
Q 2188 391 2477 730 
Q 2766 1069 2766 1631 
L 2766 1759 
L 2194 1759 
z
M 3341 1997 
L 3341 0 
L 2766 0 
L 2766 531 
Q 2569 213 2275 61 
Q 1981 -91 1556 -91 
Q 1019 -91 701 211 
Q 384 513 384 1019 
Q 384 1609 779 1909 
Q 1175 2209 1959 2209 
L 2766 2209 
L 2766 2266 
Q 2766 2663 2505 2880 
Q 2244 3097 1772 3097 
Q 1472 3097 1187 3025 
Q 903 2953 641 2809 
L 641 3341 
Q 956 3463 1253 3523 
Q 1550 3584 1831 3584 
Q 2591 3584 2966 3190 
Q 3341 2797 3341 1997 
z
" transform="scale(0.015625)"/>
      <path id="DejaVuSans-51" d="M 2522 4238 
Q 1834 4238 1429 3725 
Q 1025 3213 1025 2328 
Q 1025 1447 1429 934 
Q 1834 422 2522 422 
Q 3209 422 3611 934 
Q 4013 1447 4013 2328 
Q 4013 3213 3611 3725 
Q 3209 4238 2522 4238 
z
M 3406 84 
L 4238 -825 
L 3475 -825 
L 2784 -78 
Q 2681 -84 2626 -87 
Q 2572 -91 2522 -91 
Q 1538 -91 948 567 
Q 359 1225 359 2328 
Q 359 3434 948 4092 
Q 1538 4750 2522 4750 
Q 3503 4750 4090 4092 
Q 4678 3434 4678 2328 
Q 4678 1516 4351 937 
Q 4025 359 3406 84 
z
" transform="scale(0.015625)"/>
      <path id="DejaVuSans-39" d="M 703 97 
L 703 672 
Q 941 559 1184 500 
Q 1428 441 1663 441 
Q 2288 441 2617 861 
Q 2947 1281 2994 2138 
Q 2813 1869 2534 1725 
Q 2256 1581 1919 1581 
Q 1219 1581 811 2004 
Q 403 2428 403 3163 
Q 403 3881 828 4315 
Q 1253 4750 1959 4750 
Q 2769 4750 3195 4129 
Q 3622 3509 3622 2328 
Q 3622 1225 3098 567 
Q 2575 -91 1691 -91 
Q 1453 -91 1209 -44 
Q 966 3 703 97 
z
M 1959 2075 
Q 2384 2075 2632 2365 
Q 2881 2656 2881 3163 
Q 2881 3666 2632 3958 
Q 2384 4250 1959 4250 
Q 1534 4250 1286 3958 
Q 1038 3666 1038 3163 
Q 1038 2656 1286 2365 
Q 1534 2075 1959 2075 
z
" transform="scale(0.015625)"/>
      <path id="DejaVuSans-2e" d="M 684 794 
L 1344 794 
L 1344 0 
L 684 0 
L 684 794 
z
" transform="scale(0.015625)"/>
      <path id="DejaVuSans-34" d="M 2419 4116 
L 825 1625 
L 2419 1625 
L 2419 4116 
z
M 2253 4666 
L 3047 4666 
L 3047 1625 
L 3713 1625 
L 3713 1100 
L 3047 1100 
L 3047 0 
L 2419 0 
L 2419 1100 
L 313 1100 
L 313 1709 
L 2253 4666 
z
" transform="scale(0.015625)"/>
      <path id="DejaVuSans-33" d="M 2597 2516 
Q 3050 2419 3304 2112 
Q 3559 1806 3559 1356 
Q 3559 666 3084 287 
Q 2609 -91 1734 -91 
Q 1441 -91 1130 -33 
Q 819 25 488 141 
L 488 750 
Q 750 597 1062 519 
Q 1375 441 1716 441 
Q 2309 441 2620 675 
Q 2931 909 2931 1356 
Q 2931 1769 2642 2001 
Q 2353 2234 1838 2234 
L 1294 2234 
L 1294 2753 
L 1863 2753 
Q 2328 2753 2575 2939 
Q 2822 3125 2822 3475 
Q 2822 3834 2567 4026 
Q 2313 4219 1838 4219 
Q 1578 4219 1281 4162 
Q 984 4106 628 3988 
L 628 4550 
Q 988 4650 1302 4700 
Q 1616 4750 1894 4750 
Q 2613 4750 3031 4423 
Q 3450 4097 3450 3541 
Q 3450 3153 3228 2886 
Q 3006 2619 2597 2516 
z
" transform="scale(0.015625)"/>
      <path id="DejaVuSans-29" d="M 513 4856 
L 1013 4856 
Q 1481 4119 1714 3412 
Q 1947 2706 1947 2009 
Q 1947 1309 1714 600 
Q 1481 -109 1013 -844 
L 513 -844 
Q 928 -128 1133 580 
Q 1338 1288 1338 2009 
Q 1338 2731 1133 3434 
Q 928 4138 513 4856 
z
" transform="scale(0.015625)"/>
     </defs>
     <use xlink:href="#DejaVuSans-41"/>
     <use xlink:href="#DejaVuSans-74" transform="translate(66.658203 0)"/>
     <use xlink:href="#DejaVuSans-6f" transform="translate(105.867188 0)"/>
     <use xlink:href="#DejaVuSans-6d" transform="translate(167.048828 0)"/>
     <use xlink:href="#DejaVuSans-20" transform="translate(264.460938 0)"/>
     <use xlink:href="#DejaVuSans-54" transform="translate(296.248047 0)"/>
     <use xlink:href="#DejaVuSans-79" transform="translate(341.707031 0)"/>
     <use xlink:href="#DejaVuSans-70" transform="translate(400.886719 0)"/>
     <use xlink:href="#DejaVuSans-65" transform="translate(464.363281 0)"/>
     <use xlink:href="#DejaVuSans-20" transform="translate(525.886719 0)"/>
     <use xlink:href="#DejaVuSans-43" transform="translate(557.673828 0)"/>
     <use xlink:href="#DejaVuSans-20" transform="translate(627.498047 0)"/>
     <use xlink:href="#DejaVuSans-28" transform="translate(659.285156 0)"/>
     <use xlink:href="#DejaVuSans-6e" transform="translate(698.298828 0)"/>
     <use xlink:href="#DejaVuSans-3d" transform="translate(761.677734 0)"/>
     <use xlink:href="#DejaVuSans-35" transform="translate(845.466797 0)"/>
     <use xlink:href="#DejaVuSans-31" transform="translate(909.089844 0)"/>
     <use xlink:href="#DejaVuSans-2c" transform="translate(972.712891 0)"/>
     <use xlink:href="#DejaVuSans-20" transform="translate(1004.5 0)"/>
     <use xlink:href="#DejaVuSans-6d" transform="translate(1036.287109 0)"/>
     <use xlink:href="#DejaVuSans-65" transform="translate(1133.699219 0)"/>
     <use xlink:href="#DejaVuSans-61" transform="translate(1195.222656 0)"/>
     <use xlink:href="#DejaVuSans-6e" transform="translate(1256.501953 0)"/>
     <use xlink:href="#DejaVuSans-20" transform="translate(1319.880859 0)"/>
     <use xlink:href="#DejaVuSans-51" transform="translate(1351.667969 0)"/>
     <use xlink:href="#DejaVuSans-3d" transform="translate(1430.378906 0)"/>
     <use xlink:href="#DejaVuSans-39" transform="translate(1514.167969 0)"/>
     <use xlink:href="#DejaVuSans-2e" transform="translate(1577.791016 0)"/>
     <use xlink:href="#DejaVuSans-34" transform="translate(1609.578125 0)"/>
     <use xlink:href="#DejaVuSans-33" transform="translate(1673.201172 0)"/>
     <use xlink:href="#DejaVuSans-29" transform="translate(1736.824219 0)"/>
    </g>
   </g>
  </g>
 </g>
 <defs>
  <clipPath id="p9bcb1c3b06">
   <rect x="57.6" y="41.472" width="357.12" height="266.112"/>
  </clipPath>
 </defs>
</svg>
