<?xml version="1.0" encoding="utf-8" standalone="no"?>
<!DOCTYPE svg PUBLIC "-//W3C//DTD SVG 1.1//EN"
  "http://www.w3.org/Graphics/SVG/1.1/DTD/svg11.dtd">
<svg xmlns:xlink="http://www.w3.org/1999/xlink" width="460.8pt" height="345.6pt" viewBox="0 0 460.8 345.6" xmlns="http://www.w3.org/2000/svg" version="1.1">
 <metadata>
  <rdf:RDF xmlns:dc="http://purl.org/dc/elements/1.1/" xmlns:cc="http://creativecommons.org/ns#" xmlns:rdf="http://www.w3.org/1999/02/22-rdf-syntax-ns#">
   <cc:Work>
    <dc:type rdf:resource="http://purl.org/dc/dcmitype/StillImage"/>
    <dc:date>2025-12-10T13:54:51.253832</dc:date>
    <dc:format>image/svg+xml</dc:format>
    <dc:creator>
     <cc:Agent>
      <dc:title>Matplotlib v3.10.3, https://matplotlib.org/</dc:title>
     </cc:Agent>
    </dc:creator>
   </cc:Work>
  </rdf:RDF>
 </metadata>
 <defs>
  <style type="text/css">*{stroke-linejoin: round; stroke-linecap: butt}</style>
 </defs>
 <g id="figure_1">
  <g id="patch_1">
   <path d="M 0 345.6 
L 460.8 345.6 
L 460.8 0 
L 0 0 
z
" style="fill: #ffffff"/>
  </g>
  <g id="axes_1">
   <g id="patch_2">
    <path d="M 57.6 307.584 
L 414.72 307.584 
L 414.72 41.472 
L 57.6 41.472 
z
" style="fill: #ffffff"/>
   </g>
   <g id="matplotlib.axis_1">
    <g id="xtick_1">
     <g id="line2d_1">
      <defs>
       <path id="m83b218df4d" d="M 0 0 
L 0 3.5 
" style="stroke: #000000; stroke-width: 0.8"/>
      </defs>
      <g>
       <use xlink:href="#m83b218df4d" x="73.832727" y="307.584" style="stroke: #000000; stroke-width: 0.8"/>
      </g>
     </g>
     <g id="text_1">
      <!-- 0 -->
      <g transform="translate(69.060852 325.981656) scale(0.15 -0.15)">
       <defs>
        <path id="DejaVuSans-30" d="M 2034 4250 
Q 1547 4250 1301 3770 
Q 1056 3291 1056 2328 
Q 1056 1369 1301 889 
Q 1547 409 2034 409 
Q 2525 409 2770 889 
Q 3016 1369 3016 2328 
Q 3016 3291 2770 3770 
Q 2525 4250 2034 4250 
z
M 2034 4750 
Q 2819 4750 3233 4129 
Q 3647 3509 3647 2328 
Q 3647 1150 3233 529 
Q 2819 -91 2034 -91 
Q 1250 -91 836 529 
Q 422 1150 422 2328 
Q 422 3509 836 4129 
Q 1250 4750 2034 4750 
z
" transform="scale(0.015625)"/>
       </defs>
       <use xlink:href="#DejaVuSans-30"/>
      </g>
     </g>
    </g>
    <g id="xtick_2">
     <g id="line2d_2">
      <g>
       <use xlink:href="#m83b218df4d" x="154.996364" y="307.584" style="stroke: #000000; stroke-width: 0.8"/>
      </g>
     </g>
     <g id="text_2">
      <!-- 5 -->
      <g transform="translate(150.224489 325.981656) scale(0.15 -0.15)">
       <defs>
        <path id="DejaVuSans-35" d="M 691 4666 
L 3169 4666 
L 3169 4134 
L 1269 4134 
L 1269 2991 
Q 1406 3038 1543 3061 
Q 1681 3084 1819 3084 
Q 2600 3084 3056 2656 
Q 3513 2228 3513 1497 
Q 3513 744 3044 326 
Q 2575 -91 1722 -91 
Q 1428 -91 1123 -41 
Q 819 9 494 109 
L 494 744 
Q 775 591 1075 516 
Q 1375 441 1709 441 
Q 2250 441 2565 725 
Q 2881 1009 2881 1497 
Q 2881 1984 2565 2268 
Q 2250 2553 1709 2553 
Q 1456 2553 1204 2497 
Q 953 2441 691 2322 
L 691 4666 
z
" transform="scale(0.015625)"/>
       </defs>
       <use xlink:href="#DejaVuSans-35"/>
      </g>
     </g>
    </g>
    <g id="xtick_3">
     <g id="line2d_3">
      <g>
       <use xlink:href="#m83b218df4d" x="236.16" y="307.584" style="stroke: #000000; stroke-width: 0.8"/>
      </g>
     </g>
     <g id="text_3">
      <!-- 10 -->
      <g transform="translate(226.61625 325.981656) scale(0.15 -0.15)">
       <defs>
        <path id="DejaVuSans-31" d="M 794 531 
L 1825 531 
L 1825 4091 
L 703 3866 
L 703 4441 
L 1819 4666 
L 2450 4666 
L 2450 531 
L 3481 531 
L 3481 0 
L 794 0 
L 794 531 
z
" transform="scale(0.015625)"/>
       </defs>
       <use xlink:href="#DejaVuSans-31"/>
       <use xlink:href="#DejaVuSans-30" transform="translate(63.623047 0)"/>
      </g>
     </g>
    </g>
    <g id="xtick_4">
     <g id="line2d_4">
      <g>
       <use xlink:href="#m83b218df4d" x="317.323636" y="307.584" style="stroke: #000000; stroke-width: 0.8"/>
      </g>
     </g>
     <g id="text_4">
      <!-- 15 -->
      <g transform="translate(307.779886 325.981656) scale(0.15 -0.15)">
       <use xlink:href="#DejaVuSans-31"/>
       <use xlink:href="#DejaVuSans-35" transform="translate(63.623047 0)"/>
      </g>
     </g>
    </g>
    <g id="xtick_5">
     <g id="line2d_5">
      <g>
       <use xlink:href="#m83b218df4d" x="398.487273" y="307.584" style="stroke: #000000; stroke-width: 0.8"/>
      </g>
     </g>
     <g id="text_5">
      <!-- 20 -->
      <g transform="translate(388.943523 325.981656) scale(0.15 -0.15)">
       <defs>
        <path id="DejaVuSans-32" d="M 1228 531 
L 3431 531 
L 3431 0 
L 469 0 
L 469 531 
Q 828 903 1448 1529 
Q 2069 2156 2228 2338 
Q 2531 2678 2651 2914 
Q 2772 3150 2772 3378 
Q 2772 3750 2511 3984 
Q 2250 4219 1831 4219 
Q 1534 4219 1204 4116 
Q 875 4013 500 3803 
L 500 4441 
Q 881 4594 1212 4672 
Q 1544 4750 1819 4750 
Q 2544 4750 2975 4387 
Q 3406 4025 3406 3419 
Q 3406 3131 3298 2873 
Q 3191 2616 2906 2266 
Q 2828 2175 2409 1742 
Q 1991 1309 1228 531 
z
" transform="scale(0.015625)"/>
       </defs>
       <use xlink:href="#DejaVuSans-32"/>
       <use xlink:href="#DejaVuSans-30" transform="translate(63.623047 0)"/>
      </g>
     </g>
    </g>
   </g>
   <g id="matplotlib.axis_2">
    <g id="ytick_1">
     <g id="line2d_6">
      <defs>
       <path id="m6118077389" d="M 0 0 
L -3.5 0 
" style="stroke: #000000; stroke-width: 0.8"/>
      </defs>
      <g>
       <use xlink:href="#m6118077389" x="57.6" y="273.600644" style="stroke: #000000; stroke-width: 0.8"/>
      </g>
     </g>
     <g id="text_6">
      <!-- 5 -->
      <g transform="translate(41.05625 279.299472) scale(0.15 -0.15)">
       <use xlink:href="#DejaVuSans-35"/>
      </g>
     </g>
    </g>
    <g id="ytick_2">
     <g id="line2d_7">
      <g>
       <use xlink:href="#m6118077389" x="57.6" y="224.18915" style="stroke: #000000; stroke-width: 0.8"/>
      </g>
     </g>
     <g id="text_7">
      <!-- 10 -->
      <g transform="translate(31.5125 229.887978) scale(0.15 -0.15)">
       <use xlink:href="#DejaVuSans-31"/>
       <use xlink:href="#DejaVuSans-30" transform="translate(63.623047 0)"/>
      </g>
     </g>
    </g>
    <g id="ytick_3">
     <g id="line2d_8">
      <g>
       <use xlink:href="#m6118077389" x="57.6" y="174.777656" style="stroke: #000000; stroke-width: 0.8"/>
      </g>
     </g>
     <g id="text_8">
      <!-- 15 -->
      <g transform="translate(31.5125 180.476484) scale(0.15 -0.15)">
       <use xlink:href="#DejaVuSans-31"/>
       <use xlink:href="#DejaVuSans-35" transform="translate(63.623047 0)"/>
      </g>
     </g>
    </g>
    <g id="ytick_4">
     <g id="line2d_9">
      <g>
       <use xlink:href="#m6118077389" x="57.6" y="125.366162" style="stroke: #000000; stroke-width: 0.8"/>
      </g>
     </g>
     <g id="text_9">
      <!-- 20 -->
      <g transform="translate(31.5125 131.06499) scale(0.15 -0.15)">
       <use xlink:href="#DejaVuSans-32"/>
       <use xlink:href="#DejaVuSans-30" transform="translate(63.623047 0)"/>
      </g>
     </g>
    </g>
    <g id="ytick_5">
     <g id="line2d_10">
      <g>
       <use xlink:href="#m6118077389" x="57.6" y="75.954668" style="stroke: #000000; stroke-width: 0.8"/>
      </g>
     </g>
     <g id="text_10">
      <!-- 25 -->
      <g transform="translate(31.5125 81.653496) scale(0.15 -0.15)">
       <use xlink:href="#DejaVuSans-32"/>
       <use xlink:href="#DejaVuSans-35" transform="translate(63.623047 0)"/>
      </g>
     </g>
    </g>
   </g>
   <g id="line2d_11">
    <path d="M 73.832727 240.314206 
L 90.065455 240.046329 
L 106.298182 229.720162 
L 122.530909 206.74158 
L 138.763636 269.108799 
L 154.996364 249.732114 
L 171.229091 219.938647 
L 187.461818 207.667931 
L 203.694545 257.058929 
L 219.927273 215.647734 
L 236.16 237.432373 
L 252.392727 139.706332 
L 268.625455 183.32266 
L 284.858182 187.079265 
L 301.090909 267.348579 
L 317.323636 249.105557 
L 333.556364 233.549972 
L 349.789091 220.564496 
L 366.021818 219.413224 
L 382.254545 232.528211 
L 398.487273 260.947757 
" clip-path="url(#pa89fda7af4)" style="fill: none; stroke: #440154; stroke-opacity: 0.5; stroke-width: 1.5; stroke-linecap: square"/>
   </g>
   <g id="line2d_12">
    <path d="M 73.832727 240.512678 
L 90.065455 213.763822 
L 106.298182 239.547804 
L 122.530909 250.218579 
L 138.763636 240.656501 
L 154.996364 277.922261 
L 171.229091 259.197082 
L 187.461818 263.892311 
L 203.694545 269.816568 
L 219.927273 214.925761 
L 236.16 245.403708 
L 252.392727 223.734148 
L 268.625455 199.504753 
L 284.858182 223.548541 
L 301.090909 265.305782 
L 317.323636 214.808711 
L 333.556364 201.736118 
L 349.789091 204.959297 
L 366.021818 215.952623 
L 382.254545 213.695963 
L 398.487273 198.137674 
" clip-path="url(#pa89fda7af4)" style="fill: none; stroke: #440154; stroke-opacity: 0.5; stroke-width: 1.5; stroke-linecap: square"/>
   </g>
   <g id="line2d_13">
    <path d="M 73.832727 238.323113 
L 90.065455 269.89871 
L 106.298182 263.492777 
L 122.530909 218.942218 
L 138.763636 249.529278 
L 154.996364 258.624045 
L 171.229091 237.652615 
L 187.461818 237.756321 
L 203.694545 264.688027 
L 219.927273 187.310362 
L 236.16 250.866856 
L 252.392727 209.657225 
L 268.625455 229.933788 
L 284.858182 135.502341 
L 301.090909 229.23663 
L 317.323636 254.043213 
L 333.556364 267.642488 
L 349.789091 213.565344 
L 366.021818 210.1563 
L 382.254545 230.088739 
L 398.487273 258.980274 
" clip-path="url(#pa89fda7af4)" style="fill: none; stroke: #440154; stroke-opacity: 0.5; stroke-width: 1.5; stroke-linecap: square"/>
   </g>
   <g id="line2d_14">
    <path d="M 73.832727 257.301644 
L 90.065455 230.077584 
L 106.298182 206.345509 
L 122.530909 221.983396 
L 138.763636 267.297864 
L 154.996364 255.483549 
L 171.229091 203.710699 
L 187.461818 220.75981 
L 203.694545 230.298261 
L 219.927273 239.184341 
L 236.16 170.884671 
L 252.392727 248.47322 
L 268.625455 249.551058 
L 284.858182 242.915476 
L 301.090909 232.847051 
L 317.323636 135.839366 
L 333.556364 228.190752 
L 349.789091 260.332045 
L 366.021818 172.108412 
L 382.254545 247.977757 
L 398.487273 176.294333 
" clip-path="url(#pa89fda7af4)" style="fill: none; stroke: #440154; stroke-opacity: 0.5; stroke-width: 1.5; stroke-linecap: square"/>
   </g>
   <g id="line2d_15">
    <path d="M 73.832727 219.79598 
L 90.065455 245.531398 
L 106.298182 265.554225 
L 122.530909 215.483273 
L 138.763636 251.563434 
L 154.996364 235.85499 
L 171.229091 177.432224 
L 187.461818 168.134853 
L 203.694545 217.679365 
L 219.927273 183.563333 
L 236.16 168.753363 
L 252.392727 251.983309 
L 268.625455 260.578439 
L 284.858182 251.559099 
L 301.090909 222.413908 
L 317.323636 225.520682 
L 333.556364 185.080486 
L 349.789091 239.356755 
L 366.021818 222.752547 
L 382.254545 222.377738 
L 398.487273 246.39503 
" clip-path="url(#pa89fda7af4)" style="fill: none; stroke: #440154; stroke-opacity: 0.5; stroke-width: 1.5; stroke-linecap: square"/>
   </g>
   <g id="line2d_16">
    <path d="M 73.832727 239.416235 
L 90.065455 238.502569 
L 106.298182 218.952814 
L 122.530909 231.126335 
L 138.763636 188.928575 
L 154.996364 235.005565 
L 171.229091 204.432635 
L 187.461818 224.068581 
L 203.694545 222.467577 
L 219.927273 251.575959 
L 236.16 215.391164 
L 252.392727 212.026621 
L 268.625455 255.465963 
L 284.858182 189.723595 
L 301.090909 166.459723 
L 317.323636 210.980087 
L 333.556364 123.588596 
L 349.789091 246.716045 
L 366.021818 235.887863 
L 382.254545 249.038223 
L 398.487273 175.341669 
" clip-path="url(#pa89fda7af4)" style="fill: none; stroke: #440154; stroke-opacity: 0.5; stroke-width: 1.5; stroke-linecap: square"/>
   </g>
   <g id="line2d_17">
    <path d="M 73.832727 233.473168 
L 90.065455 221.035437 
L 106.298182 205.566335 
L 122.530909 233.432684 
L 138.763636 225.982622 
L 154.996364 244.091129 
L 171.229091 226.608856 
L 187.461818 260.768377 
L 203.694545 247.037143 
L 219.927273 179.997398 
L 236.16 267.293646 
L 252.392727 216.675255 
L 268.625455 208.843124 
L 284.858182 192.488902 
L 301.090909 258.096995 
L 317.323636 243.653135 
L 333.556364 256.836818 
L 349.789091 242.796971 
L 366.021818 236.218637 
L 382.254545 231.178399 
L 398.487273 247.147814 
" clip-path="url(#pa89fda7af4)" style="fill: none; stroke: #440154; stroke-opacity: 0.5; stroke-width: 1.5; stroke-linecap: square"/>
   </g>
   <g id="line2d_18">
    <path d="M 73.832727 235.465087 
L 90.065455 179.346474 
L 106.298182 216.112556 
L 122.530909 260.287842 
L 138.763636 226.935598 
L 154.996364 275.310584 
L 171.229091 255.910915 
L 187.461818 259.929097 
L 203.694545 247.713159 
L 219.927273 210.693439 
L 236.16 222.563342 
L 252.392727 246.384587 
L 268.625455 166.422265 
L 284.858182 234.684127 
L 301.090909 233.985495 
L 317.323636 267.787564 
L 333.556364 222.64337 
L 349.789091 244.662065 
L 366.021818 229.618768 
L 382.254545 245.48868 
L 398.487273 224.65933 
" clip-path="url(#pa89fda7af4)" style="fill: none; stroke: #440154; stroke-opacity: 0.5; stroke-width: 1.5; stroke-linecap: square"/>
   </g>
   <g id="line2d_19">
    <path d="M 73.832727 183.324846 
L 90.065455 221.738863 
L 106.298182 225.222105 
L 122.530909 233.517322 
L 138.763636 199.328525 
L 154.996364 248.919412 
L 171.229091 216.473668 
L 187.461818 243.541069 
L 203.694545 236.660016 
L 219.927273 262.612562 
L 236.16 220.489819 
L 252.392727 164.236129 
L 268.625455 245.348515 
L 284.858182 227.299598 
L 301.090909 241.221168 
L 317.323636 265.183012 
L 333.556364 198.289536 
L 349.789091 172.525977 
L 366.021818 235.482929 
L 382.254545 251.700678 
L 398.487273 230.385383 
" clip-path="url(#pa89fda7af4)" style="fill: none; stroke: #440154; stroke-opacity: 0.5; stroke-width: 1.5; stroke-linecap: square"/>
   </g>
   <g id="line2d_20">
    <path d="M 73.832727 240.588198 
L 90.065455 255.004512 
L 106.298182 174.626112 
L 122.530909 232.803295 
L 138.763636 206.371097 
L 154.996364 205.827933 
L 171.229091 215.568418 
L 187.461818 236.707532 
L 203.694545 227.075308 
L 219.927273 234.33206 
L 236.16 184.70697 
L 252.392727 173.379986 
L 268.625455 174.652898 
L 284.858182 227.736699 
L 301.090909 259.935144 
L 317.323636 199.002545 
L 333.556364 207.842126 
L 349.789091 243.906498 
L 366.021818 235.225163 
L 382.254545 218.314389 
L 398.487273 230.556026 
" clip-path="url(#pa89fda7af4)" style="fill: none; stroke: #440154; stroke-opacity: 0.5; stroke-width: 1.5; stroke-linecap: square"/>
   </g>
   <g id="line2d_21">
    <path d="M 73.832727 253.831529 
L 90.065455 260.104469 
L 106.298182 252.307675 
L 122.530909 202.581125 
L 138.763636 222.617729 
L 154.996364 179.865718 
L 171.229091 220.727297 
L 187.461818 224.435275 
L 203.694545 192.888213 
L 219.927273 236.862701 
L 236.16 204.370433 
L 252.392727 234.623715 
L 268.625455 112.438095 
L 284.858182 212.82104 
L 301.090909 251.979311 
L 317.323636 238.516812 
L 333.556364 249.187209 
L 349.789091 256.868419 
L 366.021818 267.974448 
L 382.254545 252.195224 
L 398.487273 277.290935 
" clip-path="url(#pa89fda7af4)" style="fill: none; stroke: #440154; stroke-opacity: 0.5; stroke-width: 1.5; stroke-linecap: square"/>
   </g>
   <g id="line2d_22">
    <path d="M 73.832727 238.349147 
L 90.065455 197.584611 
L 106.298182 246.921822 
L 122.530909 247.836885 
L 138.763636 230.81232 
L 154.996364 218.915346 
L 171.229091 214.878132 
L 187.461818 221.829934 
L 203.694545 249.67865 
L 219.927273 220.847563 
L 236.16 244.492797 
L 252.392727 268.595808 
L 268.625455 227.23043 
L 284.858182 222.289878 
L 301.090909 252.193311 
L 317.323636 224.831392 
L 333.556364 235.512062 
L 349.789091 198.878866 
L 366.021818 129.87934 
L 382.254545 238.210582 
L 398.487273 255.464814 
" clip-path="url(#pa89fda7af4)" style="fill: none; stroke: #440154; stroke-opacity: 0.5; stroke-width: 1.5; stroke-linecap: square"/>
   </g>
   <g id="line2d_23">
    <path d="M 73.832727 255.988804 
L 90.065455 235.902676 
L 106.298182 256.470165 
L 122.530909 244.073766 
L 138.763636 229.688166 
L 154.996364 205.23891 
L 171.229091 234.776784 
L 187.461818 225.878864 
L 203.694545 233.717643 
L 219.927273 232.576603 
L 236.16 218.244004 
L 252.392727 228.393843 
L 268.625455 209.659145 
L 284.858182 251.111199 
L 301.090909 260.450115 
L 317.323636 192.288358 
L 333.556364 245.731224 
L 349.789091 247.325757 
L 366.021818 202.476313 
L 382.254545 223.776134 
L 398.487273 132.635391 
" clip-path="url(#pa89fda7af4)" style="fill: none; stroke: #440154; stroke-opacity: 0.5; stroke-width: 1.5; stroke-linecap: square"/>
   </g>
   <g id="line2d_24">
    <path d="M 73.832727 204.679706 
L 90.065455 253.863069 
L 106.298182 238.235753 
L 122.530909 223.844832 
L 138.763636 218.49965 
L 154.996364 205.889938 
L 171.229091 189.378573 
L 187.461818 192.362613 
L 203.694545 227.934269 
L 219.927273 217.915021 
L 236.16 145.135082 
L 252.392727 201.588375 
L 268.625455 249.137679 
L 284.858182 233.873016 
L 301.090909 247.414431 
L 317.323636 194.627624 
L 333.556364 168.380433 
L 349.789091 213.281183 
L 366.021818 205.455003 
L 382.254545 187.122052 
L 398.487273 209.853935 
" clip-path="url(#pa89fda7af4)" style="fill: none; stroke: #440154; stroke-opacity: 0.5; stroke-width: 1.5; stroke-linecap: square"/>
   </g>
   <g id="line2d_25">
    <path d="M 73.832727 271.376464 
L 90.065455 275.710192 
L 106.298182 265.726154 
L 122.530909 250.091966 
L 138.763636 268.332285 
L 154.996364 252.772049 
L 171.229091 233.956158 
L 187.461818 270.071291 
L 203.694545 255.970974 
L 219.927273 239.593649 
L 236.16 255.215287 
L 252.392727 219.681139 
L 268.625455 253.881551 
L 284.858182 232.454498 
L 301.090909 256.954942 
L 317.323636 251.544374 
L 333.556364 261.944259 
L 349.789091 266.021834 
L 366.021818 229.63561 
L 382.254545 239.913932 
L 398.487273 251.070398 
" clip-path="url(#pa89fda7af4)" style="fill: none; stroke: #440154; stroke-opacity: 0.5; stroke-width: 1.5; stroke-linecap: square"/>
   </g>
   <g id="line2d_26">
    <path d="M 73.832727 281.893168 
L 90.065455 269.500403 
L 106.298182 242.535386 
L 122.530909 263.56589 
L 138.763636 276.416253 
L 154.996364 259.034103 
L 171.229091 235.483421 
L 187.461818 262.373684 
L 203.694545 271.072498 
L 219.927273 272.292642 
L 236.16 220.327513 
L 252.392727 225.020113 
L 268.625455 217.327681 
L 284.858182 231.446414 
L 301.090909 266.777633 
L 317.323636 240.693303 
L 333.556364 223.128081 
L 349.789091 230.509816 
L 366.021818 256.446329 
L 382.254545 277.955939 
L 398.487273 275.608992 
" clip-path="url(#pa89fda7af4)" style="fill: none; stroke: #440154; stroke-opacity: 0.5; stroke-width: 1.5; stroke-linecap: square"/>
   </g>
   <g id="line2d_27">
    <path d="M 73.832727 268.89313 
L 90.065455 267.14092 
L 106.298182 249.207835 
L 122.530909 258.65123 
L 138.763636 269.350464 
L 154.996364 229.487072 
L 171.229091 237.614981 
L 187.461818 241.97949 
L 203.694545 264.769787 
L 219.927273 241.192532 
L 236.16 266.027404 
L 252.392727 219.753959 
L 268.625455 226.032263 
L 284.858182 238.220394 
L 301.090909 257.800285 
L 317.323636 219.640149 
L 333.556364 256.29561 
L 349.789091 267.449208 
L 366.021818 236.288095 
L 382.254545 237.867033 
L 398.487273 230.456451 
" clip-path="url(#pa89fda7af4)" style="fill: none; stroke: #440154; stroke-opacity: 0.5; stroke-width: 1.5; stroke-linecap: square"/>
   </g>
   <g id="line2d_28">
    <path d="M 73.832727 263.828625 
L 90.065455 268.580317 
L 106.298182 263.712908 
L 122.530909 281.375484 
L 138.763636 261.81167 
L 154.996364 261.80099 
L 171.229091 260.811763 
L 187.461818 258.318968 
L 203.694545 258.408194 
L 219.927273 255.971379 
L 236.16 238.870459 
L 252.392727 240.590254 
L 268.625455 267.612335 
L 284.858182 218.86721 
L 301.090909 257.223548 
L 317.323636 235.307946 
L 333.556364 259.248361 
L 349.789091 255.889971 
L 366.021818 245.175887 
L 382.254545 242.573204 
L 398.487273 252.776434 
" clip-path="url(#pa89fda7af4)" style="fill: none; stroke: #440154; stroke-opacity: 0.5; stroke-width: 1.5; stroke-linecap: square"/>
   </g>
   <g id="line2d_29">
    <path d="M 73.832727 245.550276 
L 90.065455 242.041835 
L 106.298182 229.326793 
L 122.530909 259.417758 
L 138.763636 224.998055 
L 154.996364 266.408482 
L 171.229091 251.568985 
L 187.461818 233.239857 
L 203.694545 255.92797 
L 219.927273 233.43856 
L 236.16 233.156788 
L 252.392727 251.049597 
L 268.625455 214.844447 
L 284.858182 225.890839 
L 301.090909 268.428389 
L 317.323636 273.039657 
L 333.556364 274.63488 
L 349.789091 262.19424 
L 366.021818 244.685472 
L 382.254545 256.597548 
L 398.487273 254.933171 
" clip-path="url(#pa89fda7af4)" style="fill: none; stroke: #440154; stroke-opacity: 0.5; stroke-width: 1.5; stroke-linecap: square"/>
   </g>
   <g id="line2d_30">
    <path d="M 73.832727 264.659345 
L 90.065455 256.562828 
L 106.298182 267.065258 
L 122.530909 250.05785 
L 138.763636 275.619863 
L 154.996364 264.133675 
L 171.229091 258.732159 
L 187.461818 253.242493 
L 203.694545 258.543941 
L 219.927273 232.328399 
L 236.16 250.19304 
L 252.392727 230.689103 
L 268.625455 181.612235 
L 284.858182 262.339907 
L 301.090909 243.694988 
L 317.323636 254.400408 
L 333.556364 272.982632 
L 349.789091 269.17547 
L 366.021818 258.507213 
L 382.254545 279.523041 
L 398.487273 282.222889 
" clip-path="url(#pa89fda7af4)" style="fill: none; stroke: #440154; stroke-opacity: 0.5; stroke-width: 1.5; stroke-linecap: square"/>
   </g>
   <g id="line2d_31">
    <path d="M 73.832727 261.710638 
L 90.065455 274.85082 
L 106.298182 286.952383 
L 122.530909 276.469254 
L 138.763636 261.989842 
L 154.996364 279.550291 
L 171.229091 256.574756 
L 187.461818 272.540944 
L 203.694545 239.686364 
L 219.927273 266.997628 
L 236.16 248.301665 
L 252.392727 241.695963 
L 268.625455 213.814525 
L 284.858182 253.705047 
L 301.090909 258.906262 
L 317.323636 184.285549 
L 333.556364 237.279313 
L 349.789091 249.181494 
L 366.021818 245.525258 
L 382.254545 260.062767 
L 398.487273 239.514925 
" clip-path="url(#pa89fda7af4)" style="fill: none; stroke: #440154; stroke-opacity: 0.5; stroke-width: 1.5; stroke-linecap: square"/>
   </g>
   <g id="line2d_32">
    <path d="M 73.832727 257.177748 
L 90.065455 261.854473 
L 106.298182 270.925077 
L 122.530909 249.9299 
L 138.763636 250.614 
L 154.996364 224.02294 
L 171.229091 233.027092 
L 187.461818 248.88146 
L 203.694545 237.909917 
L 219.927273 241.566609 
L 236.16 224.258318 
L 252.392727 229.526753 
L 268.625455 239.00367 
L 284.858182 215.014153 
L 301.090909 258.854511 
L 317.323636 264.260277 
L 333.556364 257.622464 
L 349.789091 277.563562 
L 366.021818 261.508965 
L 382.254545 271.74037 
L 398.487273 267.938351 
" clip-path="url(#pa89fda7af4)" style="fill: none; stroke: #440154; stroke-opacity: 0.5; stroke-width: 1.5; stroke-linecap: square"/>
   </g>
   <g id="line2d_33">
    <path d="M 73.832727 257.942429 
L 90.065455 257.134759 
L 106.298182 262.290076 
L 122.530909 258.188917 
L 138.763636 225.224056 
L 154.996364 244.271631 
L 171.229091 219.389834 
L 187.461818 268.130489 
L 203.694545 238.953908 
L 219.927273 242.702717 
L 236.16 251.057495 
L 252.392727 261.832698 
L 268.625455 225.414119 
L 284.858182 219.903825 
L 301.090909 256.457103 
L 317.323636 231.080293 
L 333.556364 248.129049 
L 349.789091 244.523402 
L 366.021818 252.159808 
L 382.254545 267.938951 
L 398.487273 248.971491 
" clip-path="url(#pa89fda7af4)" style="fill: none; stroke: #440154; stroke-opacity: 0.5; stroke-width: 1.5; stroke-linecap: square"/>
   </g>
   <g id="line2d_34">
    <path d="M 73.832727 265.519971 
L 90.065455 247.4983 
L 106.298182 227.053722 
L 122.530909 221.318737 
L 138.763636 270.759727 
L 154.996364 189.655134 
L 171.229091 224.668638 
L 187.461818 263.299281 
L 203.694545 265.61179 
L 219.927273 207.599983 
L 236.16 231.669943 
L 252.392727 270.475322 
L 268.625455 251.372621 
L 284.858182 249.808847 
L 301.090909 253.808223 
L 317.323636 230.314029 
L 333.556364 266.338738 
L 349.789091 264.168687 
L 366.021818 238.935701 
L 382.254545 250.252986 
L 398.487273 251.925386 
" clip-path="url(#pa89fda7af4)" style="fill: none; stroke: #440154; stroke-opacity: 0.5; stroke-width: 1.5; stroke-linecap: square"/>
   </g>
   <g id="line2d_35">
    <path d="M 73.832727 250.850008 
L 90.065455 262.387427 
L 106.298182 243.616104 
L 122.530909 249.67973 
L 138.763636 248.559016 
L 154.996364 264.040295 
L 171.229091 271.483911 
L 187.461818 231.855384 
L 203.694545 226.171299 
L 219.927273 255.440341 
L 236.16 244.863248 
L 252.392727 247.870351 
L 268.625455 227.186212 
L 284.858182 230.8036 
L 301.090909 244.577921 
L 317.323636 234.948526 
L 333.556364 255.584297 
L 349.789091 246.302579 
L 366.021818 225.293554 
L 382.254545 241.550402 
L 398.487273 241.792635 
" clip-path="url(#pa89fda7af4)" style="fill: none; stroke: #440154; stroke-opacity: 0.5; stroke-width: 1.5; stroke-linecap: square"/>
   </g>
   <g id="line2d_36">
    <path d="M 73.832727 224.166651 
L 90.065455 218.871479 
L 106.298182 227.220981 
L 122.530909 188.660931 
L 138.763636 237.037272 
L 154.996364 205.353271 
L 171.229091 243.926677 
L 187.461818 245.621444 
L 203.694545 231.395389 
L 219.927273 223.560532 
L 236.16 212.358722 
L 252.392727 189.173922 
L 268.625455 203.589181 
L 284.858182 221.428675 
L 301.090909 165.411498 
L 317.323636 245.476419 
L 333.556364 235.41253 
L 349.789091 218.491054 
L 366.021818 211.60963 
L 382.254545 214.515889 
L 398.487273 246.790442 
" clip-path="url(#pa89fda7af4)" style="fill: none; stroke: #440154; stroke-opacity: 0.5; stroke-width: 1.5; stroke-linecap: square"/>
   </g>
   <g id="line2d_37">
    <path d="M 73.832727 268.134719 
L 90.065455 271.718702 
L 106.298182 264.004991 
L 122.530909 269.088491 
L 138.763636 273.109894 
L 154.996364 262.938964 
L 171.229091 235.617452 
L 187.461818 215.015191 
L 203.694545 260.643167 
L 219.927273 244.877226 
L 236.16 246.721063 
L 252.392727 227.717923 
L 268.625455 258.175415 
L 284.858182 227.099013 
L 301.090909 221.313148 
L 317.323636 228.548453 
L 333.556364 238.1153 
L 349.789091 264.920732 
L 366.021818 232.229089 
L 382.254545 231.265976 
L 398.487273 198.074298 
" clip-path="url(#pa89fda7af4)" style="fill: none; stroke: #440154; stroke-opacity: 0.5; stroke-width: 1.5; stroke-linecap: square"/>
   </g>
   <g id="line2d_38">
    <path d="M 73.832727 241.82207 
L 90.065455 219.917134 
L 106.298182 218.577366 
L 122.530909 236.786672 
L 138.763636 232.073505 
L 154.996364 220.981929 
L 171.229091 218.518556 
L 187.461818 229.064196 
L 203.694545 249.485586 
L 219.927273 218.223987 
L 236.16 225.140385 
L 252.392727 177.140076 
L 268.625455 217.271445 
L 284.858182 193.403223 
L 301.090909 196.341255 
L 317.323636 221.027831 
L 333.556364 193.82902 
L 349.789091 189.55973 
L 366.021818 207.984977 
L 382.254545 210.225164 
L 398.487273 212.44204 
" clip-path="url(#pa89fda7af4)" style="fill: none; stroke: #440154; stroke-opacity: 0.5; stroke-width: 1.5; stroke-linecap: square"/>
   </g>
   <g id="line2d_39">
    <path d="M 73.832727 248.817052 
L 90.065455 239.378441 
L 106.298182 212.870403 
L 122.530909 235.727434 
L 138.763636 262.381056 
L 154.996364 256.945072 
L 171.229091 247.10118 
L 187.461818 265.306737 
L 203.694545 249.563834 
L 219.927273 245.213912 
L 236.16 263.316784 
L 252.392727 236.366023 
L 268.625455 247.661577 
L 284.858182 210.948538 
L 301.090909 200.276421 
L 317.323636 219.872678 
L 333.556364 192.660274 
L 349.789091 216.07321 
L 366.021818 221.401333 
L 382.254545 211.75782 
L 398.487273 259.413159 
" clip-path="url(#pa89fda7af4)" style="fill: none; stroke: #440154; stroke-opacity: 0.5; stroke-width: 1.5; stroke-linecap: square"/>
   </g>
   <g id="line2d_40">
    <path d="M 73.832727 221.18919 
L 90.065455 241.622307 
L 106.298182 260.751318 
L 122.530909 252.875111 
L 138.763636 245.168468 
L 154.996364 262.3864 
L 171.229091 233.96633 
L 187.461818 263.635576 
L 203.694545 256.530967 
L 219.927273 262.082706 
L 236.16 239.20535 
L 252.392727 219.895007 
L 268.625455 199.317435 
L 284.858182 264.224854 
L 301.090909 199.851349 
L 317.323636 145.187866 
L 333.556364 120.406828 
L 349.789091 137.2541 
L 366.021818 143.673722 
L 382.254545 141.150485 
L 398.487273 182.672504 
" clip-path="url(#pa89fda7af4)" style="fill: none; stroke: #440154; stroke-opacity: 0.5; stroke-width: 1.5; stroke-linecap: square"/>
   </g>
   <g id="line2d_41">
    <path d="M 73.832727 237.419246 
L 90.065455 266.350333 
L 106.298182 246.708155 
L 122.530909 262.774692 
L 138.763636 239.950389 
L 154.996364 244.085363 
L 171.229091 268.829684 
L 187.461818 259.440862 
L 203.694545 257.388238 
L 219.927273 203.90985 
L 236.16 250.963859 
L 252.392727 136.549183 
L 268.625455 179.77819 
L 284.858182 225.797768 
L 301.090909 242.153573 
L 317.323636 200.030407 
L 333.556364 170.466116 
L 349.789091 206.869331 
L 366.021818 209.670487 
L 382.254545 214.143762 
L 398.487273 234.168892 
" clip-path="url(#pa89fda7af4)" style="fill: none; stroke: #440154; stroke-opacity: 0.5; stroke-width: 1.5; stroke-linecap: square"/>
   </g>
   <g id="line2d_42">
    <path d="M 73.832727 285.459197 
L 90.065455 246.615406 
L 106.298182 236.6316 
L 122.530909 243.919032 
L 138.763636 182.215097 
L 154.996364 189.070507 
L 171.229091 246.955244 
L 187.461818 220.346001 
L 203.694545 211.238895 
L 219.927273 193.90133 
L 236.16 204.043081 
L 252.392727 226.898303 
L 268.625455 171.367894 
L 284.858182 150.555739 
L 301.090909 186.819489 
L 317.323636 225.280773 
L 333.556364 246.865979 
L 349.789091 135.661195 
L 366.021818 173.655538 
L 382.254545 130.696345 
L 398.487273 157.091072 
" clip-path="url(#pa89fda7af4)" style="fill: none; stroke: #440154; stroke-opacity: 0.5; stroke-width: 1.5; stroke-linecap: square"/>
   </g>
   <g id="line2d_43">
    <path d="M 73.832727 235.062256 
L 90.065455 277.301096 
L 106.298182 253.943402 
L 122.530909 259.170839 
L 138.763636 223.782007 
L 154.996364 253.580782 
L 171.229091 242.69069 
L 187.461818 202.394945 
L 203.694545 221.975938 
L 219.927273 245.706941 
L 236.16 222.751344 
L 252.392727 246.911798 
L 268.625455 226.026836 
L 284.858182 183.621712 
L 301.090909 106.656535 
L 317.323636 185.752478 
L 333.556364 199.717764 
L 349.789091 159.557772 
L 366.021818 178.285006 
L 382.254545 179.346294 
L 398.487273 217.624667 
" clip-path="url(#pa89fda7af4)" style="fill: none; stroke: #440154; stroke-opacity: 0.5; stroke-width: 1.5; stroke-linecap: square"/>
   </g>
   <g id="line2d_44">
    <path d="M 73.832727 253.360439 
L 90.065455 226.222141 
L 106.298182 256.821894 
L 122.530909 257.950968 
L 138.763636 256.095319 
L 154.996364 218.247483 
L 171.229091 251.591681 
L 187.461818 185.717613 
L 203.694545 201.715373 
L 219.927273 210.392782 
L 236.16 223.177218 
L 252.392727 195.325914 
L 268.625455 147.431155 
L 284.858182 181.3492 
L 301.090909 175.402341 
L 317.323636 199.396897 
L 333.556364 224.665527 
L 349.789091 228.120397 
L 366.021818 124.966833 
L 382.254545 155.12183 
L 398.487273 194.045182 
" clip-path="url(#pa89fda7af4)" style="fill: none; stroke: #440154; stroke-opacity: 0.5; stroke-width: 1.5; stroke-linecap: square"/>
   </g>
   <g id="line2d_45">
    <path d="M 73.832727 276.951486 
L 90.065455 235.565977 
L 106.298182 179.834909 
L 122.530909 195.852261 
L 138.763636 264.461814 
L 154.996364 259.964814 
L 171.229091 251.639888 
L 187.461818 229.917271 
L 203.694545 182.953834 
L 219.927273 167.731719 
L 236.16 200.210621 
L 252.392727 178.065994 
L 268.625455 218.280971 
L 284.858182 202.474863 
L 301.090909 193.420142 
L 317.323636 188.560449 
L 333.556364 189.308091 
L 349.789091 113.208124 
L 366.021818 179.35138 
L 382.254545 178.479084 
L 398.487273 241.055691 
" clip-path="url(#pa89fda7af4)" style="fill: none; stroke: #440154; stroke-opacity: 0.5; stroke-width: 1.5; stroke-linecap: square"/>
   </g>
   <g id="line2d_46">
    <path d="M 73.832727 220.169983 
L 90.065455 211.851257 
L 106.298182 217.806134 
L 122.530909 197.14253 
L 138.763636 256.454805 
L 154.996364 234.12653 
L 171.229091 266.993415 
L 187.461818 233.630253 
L 203.694545 163.449888 
L 219.927273 216.17429 
L 236.16 227.570357 
L 252.392727 197.881382 
L 268.625455 248.649807 
L 284.858182 169.344941 
L 301.090909 218.856224 
L 317.323636 198.692976 
L 333.556364 214.830724 
L 349.789091 215.506483 
L 366.021818 211.841206 
L 382.254545 222.015523 
L 398.487273 130.749915 
" clip-path="url(#pa89fda7af4)" style="fill: none; stroke: #440154; stroke-opacity: 0.5; stroke-width: 1.5; stroke-linecap: square"/>
   </g>
   <g id="line2d_47">
    <path d="M 73.832727 232.798672 
L 90.065455 229.676434 
L 106.298182 252.350332 
L 122.530909 256.981441 
L 138.763636 245.386875 
L 154.996364 268.679465 
L 171.229091 248.100675 
L 187.461818 232.584447 
L 203.694545 212.570669 
L 219.927273 225.222655 
L 236.16 199.434508 
L 252.392727 177.80014 
L 268.625455 264.422925 
L 284.858182 255.931335 
L 301.090909 229.146129 
L 317.323636 233.776924 
L 333.556364 228.854984 
L 349.789091 209.394812 
L 366.021818 250.530624 
L 382.254545 249.333503 
L 398.487273 185.61324 
" clip-path="url(#pa89fda7af4)" style="fill: none; stroke: #440154; stroke-opacity: 0.5; stroke-width: 1.5; stroke-linecap: square"/>
   </g>
   <g id="line2d_48">
    <path d="M 73.832727 245.371994 
L 90.065455 257.765861 
L 106.298182 250.843045 
L 122.530909 262.251157 
L 138.763636 186.213371 
L 154.996364 220.026341 
L 171.229091 226.022518 
L 187.461818 184.249161 
L 203.694545 217.726349 
L 219.927273 263.516831 
L 236.16 201.80087 
L 252.392727 229.248468 
L 268.625455 138.829884 
L 284.858182 231.554023 
L 301.090909 191.782967 
L 317.323636 192.050266 
L 333.556364 212.038061 
L 349.789091 184.875115 
L 366.021818 139.543126 
L 382.254545 159.983648 
L 398.487273 268.375834 
" clip-path="url(#pa89fda7af4)" style="fill: none; stroke: #440154; stroke-opacity: 0.5; stroke-width: 1.5; stroke-linecap: square"/>
   </g>
   <g id="line2d_49">
    <path d="M 73.832727 254.265612 
L 90.065455 222.051405 
L 106.298182 240.037712 
L 122.530909 263.111668 
L 138.763636 210.142142 
L 154.996364 231.768525 
L 171.229091 202.92727 
L 187.461818 225.538377 
L 203.694545 251.160098 
L 219.927273 218.348053 
L 236.16 177.537299 
L 252.392727 203.340434 
L 268.625455 197.357042 
L 284.858182 229.099052 
L 301.090909 212.319154 
L 317.323636 189.134781 
L 333.556364 204.723819 
L 349.789091 253.737898 
L 366.021818 220.001948 
L 382.254545 211.537855 
L 398.487273 275.804561 
" clip-path="url(#pa89fda7af4)" style="fill: none; stroke: #440154; stroke-opacity: 0.5; stroke-width: 1.5; stroke-linecap: square"/>
   </g>
   <g id="line2d_50">
    <path d="M 73.832727 205.448172 
L 90.065455 259.145868 
L 106.298182 266.391759 
L 122.530909 261.226405 
L 138.763636 254.896415 
L 154.996364 193.869471 
L 171.229091 212.677534 
L 187.461818 268.4351 
L 203.694545 242.904391 
L 219.927273 231.779861 
L 236.16 203.373029 
L 252.392727 232.901079 
L 268.625455 249.92867 
L 284.858182 237.238493 
L 301.090909 226.688833 
L 317.323636 229.148929 
L 333.556364 183.857353 
L 349.789091 205.81813 
L 366.021818 188.517239 
L 382.254545 203.977528 
L 398.487273 211.377924 
" clip-path="url(#pa89fda7af4)" style="fill: none; stroke: #440154; stroke-opacity: 0.5; stroke-width: 1.5; stroke-linecap: square"/>
   </g>
   <g id="line2d_51">
    <path d="M 73.832727 231.343076 
L 90.065455 195.822432 
L 106.298182 204.453297 
L 122.530909 205.096586 
L 138.763636 266.053005 
L 154.996364 179.966623 
L 171.229091 193.856656 
L 187.461818 221.103097 
L 203.694545 233.722058 
L 219.927273 250.298036 
L 236.16 199.709476 
L 252.392727 217.749134 
L 268.625455 194.206453 
L 284.858182 195.918522 
L 301.090909 226.111037 
L 317.323636 261.05686 
L 333.556364 271.655211 
L 349.789091 264.276183 
L 366.021818 275.657062 
L 382.254545 245.629095 
L 398.487273 217.230216 
" clip-path="url(#pa89fda7af4)" style="fill: none; stroke: #440154; stroke-opacity: 0.5; stroke-width: 1.5; stroke-linecap: square"/>
   </g>
   <g id="line2d_52">
    <path d="M 73.832727 193.583253 
L 90.065455 206.988688 
L 106.298182 241.67101 
L 122.530909 240.63667 
L 138.763636 168.167718 
L 154.996364 189.989249 
L 171.229091 213.852422 
L 187.461818 209.80942 
L 203.694545 226.972078 
L 219.927273 226.911815 
L 236.16 197.226245 
L 252.392727 192.130736 
L 268.625455 179.587683 
L 284.858182 205.110419 
L 301.090909 195.777346 
L 317.323636 235.622081 
L 333.556364 221.765912 
L 349.789091 191.934126 
L 366.021818 162.388375 
L 382.254545 199.157994 
L 398.487273 190.269842 
" clip-path="url(#pa89fda7af4)" style="fill: none; stroke: #440154; stroke-opacity: 0.5; stroke-width: 1.5; stroke-linecap: square"/>
   </g>
   <g id="line2d_53">
    <path d="M 73.832727 236.768385 
L 90.065455 260.665222 
L 106.298182 248.487731 
L 122.530909 236.936473 
L 138.763636 234.056783 
L 154.996364 237.42509 
L 171.229091 262.860368 
L 187.461818 271.266493 
L 203.694545 275.646969 
L 219.927273 236.546056 
L 236.16 264.480134 
L 252.392727 256.978147 
L 268.625455 276.81059 
L 284.858182 262.39567 
L 301.090909 255.680295 
L 317.323636 236.003751 
L 333.556364 178.988191 
L 349.789091 263.207398 
L 366.021818 263.152636 
L 382.254545 278.854187 
L 398.487273 264.061994 
" clip-path="url(#pa89fda7af4)" style="fill: none; stroke: #440154; stroke-opacity: 0.5; stroke-width: 1.5; stroke-linecap: square"/>
   </g>
   <g id="line2d_54">
    <path d="M 73.832727 224.448555 
L 90.065455 193.90464 
L 106.298182 143.97229 
L 122.530909 128.250997 
L 138.763636 220.581187 
L 154.996364 249.748147 
L 171.229091 228.423433 
L 187.461818 217.10803 
L 203.694545 220.124885 
L 219.927273 245.331624 
L 236.16 240.069242 
L 252.392727 226.767816 
L 268.625455 252.063585 
L 284.858182 257.480277 
L 301.090909 246.928405 
L 317.323636 226.519558 
L 333.556364 185.989298 
L 349.789091 228.381942 
L 366.021818 250.51219 
L 382.254545 271.247396 
L 398.487273 282.169946 
" clip-path="url(#pa89fda7af4)" style="fill: none; stroke: #440154; stroke-opacity: 0.5; stroke-width: 1.5; stroke-linecap: square"/>
   </g>
   <g id="line2d_55">
    <path d="M 73.832727 220.534348 
L 90.065455 230.475178 
L 106.298182 199.676219 
L 122.530909 209.927981 
L 138.763636 234.263717 
L 154.996364 223.331727 
L 171.229091 244.472168 
L 187.461818 230.286805 
L 203.694545 196.929728 
L 219.927273 213.295667 
L 236.16 235.197897 
L 252.392727 212.92723 
L 268.625455 232.279147 
L 284.858182 227.65192 
L 301.090909 226.695071 
L 317.323636 244.41351 
L 333.556364 198.665622 
L 349.789091 223.503999 
L 366.021818 232.37655 
L 382.254545 237.813251 
L 398.487273 237.580426 
" clip-path="url(#pa89fda7af4)" style="fill: none; stroke: #440154; stroke-opacity: 0.5; stroke-width: 1.5; stroke-linecap: square"/>
   </g>
   <g id="line2d_56">
    <path d="M 73.832727 238.931705 
L 90.065455 282.591537 
L 106.298182 279.357916 
L 122.530909 284.0581 
L 138.763636 277.861593 
L 154.996364 250.377875 
L 171.229091 273.89085 
L 187.461818 289.12024 
L 203.694545 285.238216 
L 219.927273 286.46189 
L 236.16 278.096135 
L 252.392727 284.527356 
L 268.625455 279.066835 
L 284.858182 277.997633 
L 301.090909 263.557144 
L 317.323636 275.93051 
L 333.556364 285.802093 
L 349.789091 290.011651 
L 366.021818 294.118603 
L 382.254545 285.028673 
L 398.487273 285.994399 
" clip-path="url(#pa89fda7af4)" style="fill: none; stroke: #440154; stroke-opacity: 0.5; stroke-width: 1.5; stroke-linecap: square"/>
   </g>
   <g id="line2d_57">
    <path d="M 73.832727 206.823403 
L 90.065455 267.574886 
L 106.298182 274.251287 
L 122.530909 278.731468 
L 138.763636 232.432185 
L 154.996364 282.292775 
L 171.229091 272.812149 
L 187.461818 271.655118 
L 203.694545 280.787611 
L 219.927273 268.068513 
L 236.16 266.689351 
L 252.392727 292.996874 
L 268.625455 281.003481 
L 284.858182 269.784642 
L 301.090909 284.421895 
L 317.323636 277.570609 
L 333.556364 281.863985 
L 349.789091 283.770325 
L 366.021818 274.25168 
L 382.254545 271.693803 
L 398.487273 277.093995 
" clip-path="url(#pa89fda7af4)" style="fill: none; stroke: #440154; stroke-opacity: 0.5; stroke-width: 1.5; stroke-linecap: square"/>
   </g>
   <g id="line2d_58">
    <path d="M 73.832727 230.470794 
L 90.065455 238.67702 
L 106.298182 223.484399 
L 122.530909 240.209245 
L 138.763636 223.738987 
L 154.996364 180.359378 
L 171.229091 218.852894 
L 187.461818 248.41604 
L 203.694545 207.136793 
L 219.927273 212.352482 
L 236.16 211.079016 
L 252.392727 195.791004 
L 268.625455 235.56343 
L 284.858182 185.904017 
L 301.090909 202.169478 
L 317.323636 197.03173 
L 333.556364 210.070239 
L 349.789091 182.224897 
L 366.021818 188.891665 
L 382.254545 195.432923 
L 398.487273 191.72435 
" clip-path="url(#pa89fda7af4)" style="fill: none; stroke: #440154; stroke-opacity: 0.5; stroke-width: 1.5; stroke-linecap: square"/>
   </g>
   <g id="line2d_59">
    <path d="M 73.832727 232.082524 
L 90.065455 203.796279 
L 106.298182 257.09931 
L 122.530909 254.560903 
L 138.763636 243.908048 
L 154.996364 258.651041 
L 171.229091 231.328792 
L 187.461818 161.064144 
L 203.694545 175.940877 
L 219.927273 172.00696 
L 236.16 198.956252 
L 252.392727 235.878463 
L 268.625455 154.284684 
L 284.858182 182.684118 
L 301.090909 191.893136 
L 317.323636 187.154262 
L 333.556364 176.033888 
L 349.789091 191.627611 
L 366.021818 182.926443 
L 382.254545 178.070432 
L 398.487273 201.772275 
" clip-path="url(#pa89fda7af4)" style="fill: none; stroke: #440154; stroke-opacity: 0.5; stroke-width: 1.5; stroke-linecap: square"/>
   </g>
   <g id="line2d_60">
    <path d="M 73.832727 173.648018 
L 90.065455 196.727562 
L 106.298182 148.632132 
L 122.530909 193.146347 
L 138.763636 211.303743 
L 154.996364 171.588202 
L 171.229091 201.824708 
L 187.461818 214.26609 
L 203.694545 205.91559 
L 219.927273 177.443562 
L 236.16 241.679527 
L 252.392727 240.848862 
L 268.625455 214.82208 
L 284.858182 203.197283 
L 301.090909 258.996169 
L 317.323636 195.6224 
L 333.556364 218.434269 
L 349.789091 215.126257 
L 366.021818 218.845574 
L 382.254545 227.977129 
L 398.487273 196.051142 
" clip-path="url(#pa89fda7af4)" style="fill: none; stroke: #440154; stroke-opacity: 0.5; stroke-width: 1.5; stroke-linecap: square"/>
   </g>
   <g id="line2d_61">
    <path d="M 73.832727 267.052736 
L 90.065455 201.542094 
L 106.298182 266.973674 
L 122.530909 270.900069 
L 138.763636 268.110096 
L 154.996364 279.450333 
L 171.229091 275.958606 
L 187.461818 277.939011 
L 203.694545 265.986756 
L 219.927273 276.679548 
L 236.16 251.961359 
L 252.392727 274.889708 
L 268.625455 271.82164 
L 284.858182 278.866031 
L 301.090909 276.992195 
L 317.323636 279.838247 
L 333.556364 281.274073 
L 349.789091 271.149532 
L 366.021818 268.41649 
L 382.254545 267.325964 
L 398.487273 280.2749 
" clip-path="url(#pa89fda7af4)" style="fill: none; stroke: #440154; stroke-opacity: 0.5; stroke-width: 1.5; stroke-linecap: square"/>
   </g>
   <g id="line2d_62">
    <path d="M 73.832727 261.796663 
L 90.065455 277.957528 
L 106.298182 255.55782 
L 122.530909 259.089052 
L 138.763636 269.212815 
L 154.996364 271.944386 
L 171.229091 270.447807 
L 187.461818 268.94997 
L 203.694545 274.329075 
L 219.927273 264.745073 
L 236.16 277.216005 
L 252.392727 258.681653 
L 268.625455 255.56207 
L 284.858182 275.144631 
L 301.090909 267.149529 
L 317.323636 263.524012 
L 333.556364 255.96697 
L 349.789091 272.925796 
L 366.021818 260.527771 
L 382.254545 256.346398 
L 398.487273 257.16906 
" clip-path="url(#pa89fda7af4)" style="fill: none; stroke: #440154; stroke-opacity: 0.5; stroke-width: 1.5; stroke-linecap: square"/>
   </g>
   <g id="line2d_63">
    <path d="M 73.832727 238.253001 
L 90.065455 188.998277 
L 106.298182 166.344771 
L 122.530909 206.991805 
L 138.763636 216.370935 
L 154.996364 215.778533 
L 171.229091 178.06303 
L 187.461818 197.462129 
L 203.694545 214.498713 
L 219.927273 194.835539 
L 236.16 230.425026 
L 252.392727 208.150444 
L 268.625455 221.505372 
L 284.858182 211.769569 
L 301.090909 211.764324 
L 317.323636 200.091371 
L 333.556364 207.369798 
L 349.789091 229.729263 
L 366.021818 212.689769 
L 382.254545 205.489243 
L 398.487273 215.971619 
" clip-path="url(#pa89fda7af4)" style="fill: none; stroke: #440154; stroke-opacity: 0.5; stroke-width: 1.5; stroke-linecap: square"/>
   </g>
   <g id="line2d_64">
    <path d="M 73.832727 264.338413 
L 90.065455 283.76772 
L 106.298182 277.756357 
L 122.530909 295.488 
L 138.763636 283.136715 
L 154.996364 291.741632 
L 171.229091 271.128249 
L 187.461818 276.887387 
L 203.694545 273.941809 
L 219.927273 274.576226 
L 236.16 259.626692 
L 252.392727 244.65914 
L 268.625455 258.87897 
L 284.858182 266.393554 
L 301.090909 257.770445 
L 317.323636 273.632888 
L 333.556364 262.563329 
L 349.789091 256.265641 
L 366.021818 277.385404 
L 382.254545 270.448726 
L 398.487273 269.312111 
" clip-path="url(#pa89fda7af4)" style="fill: none; stroke: #440154; stroke-opacity: 0.5; stroke-width: 1.5; stroke-linecap: square"/>
   </g>
   <g id="line2d_65">
    <path d="M 73.832727 262.527703 
L 90.065455 275.920571 
L 106.298182 224.429332 
L 122.530909 267.967828 
L 138.763636 284.386167 
L 154.996364 272.887612 
L 171.229091 279.825085 
L 187.461818 279.755755 
L 203.694545 274.956426 
L 219.927273 270.937865 
L 236.16 269.299661 
L 252.392727 280.014927 
L 268.625455 287.269273 
L 284.858182 283.936183 
L 301.090909 285.417379 
L 317.323636 292.809488 
L 333.556364 271.293578 
L 349.789091 284.496375 
L 366.021818 282.666247 
L 382.254545 289.827433 
L 398.487273 283.924075 
" clip-path="url(#pa89fda7af4)" style="fill: none; stroke: #440154; stroke-opacity: 0.5; stroke-width: 1.5; stroke-linecap: square"/>
   </g>
   <g id="line2d_66">
    <path d="M 73.832727 240.516017 
L 90.065455 221.935363 
L 106.298182 221.408162 
L 122.530909 223.367256 
L 138.763636 255.103581 
L 154.996364 232.658773 
L 171.229091 261.504633 
L 187.461818 223.987665 
L 203.694545 234.954409 
L 219.927273 249.501298 
L 236.16 216.12256 
L 252.392727 182.477525 
L 268.625455 194.454616 
L 284.858182 217.249525 
L 301.090909 220.460739 
L 317.323636 218.557528 
L 333.556364 202.750743 
L 349.789091 221.992168 
L 366.021818 219.721214 
L 382.254545 193.764119 
L 398.487273 213.602841 
" clip-path="url(#pa89fda7af4)" style="fill: none; stroke: #440154; stroke-opacity: 0.5; stroke-width: 1.5; stroke-linecap: square"/>
   </g>
   <g id="line2d_67">
    <path d="M 73.832727 202.393265 
L 90.065455 205.692891 
L 106.298182 236.081093 
L 122.530909 227.768521 
L 138.763636 235.997906 
L 154.996364 247.002615 
L 171.229091 237.85768 
L 187.461818 249.426514 
L 203.694545 240.263847 
L 219.927273 216.505408 
L 236.16 193.633091 
L 252.392727 229.52924 
L 268.625455 233.169005 
L 284.858182 209.166114 
L 301.090909 247.898383 
L 317.323636 224.019607 
L 333.556364 194.707844 
L 349.789091 228.272271 
L 366.021818 238.648691 
L 382.254545 223.002029 
L 398.487273 246.080452 
" clip-path="url(#pa89fda7af4)" style="fill: none; stroke: #440154; stroke-opacity: 0.5; stroke-width: 1.5; stroke-linecap: square"/>
   </g>
   <g id="line2d_68">
    <path d="M 73.832727 189.829785 
L 90.065455 162.544037 
L 106.298182 179.246933 
L 122.530909 174.394156 
L 138.763636 137.083137 
L 154.996364 123.74196 
L 171.229091 162.119957 
L 187.461818 205.604476 
L 203.694545 221.097496 
L 219.927273 218.056518 
L 236.16 220.396617 
L 252.392727 189.5471 
L 268.625455 222.02028 
L 284.858182 168.370434 
L 301.090909 217.823922 
L 317.323636 225.261306 
L 333.556364 192.891759 
L 349.789091 215.059022 
L 366.021818 170.280661 
L 382.254545 217.982871 
L 398.487273 206.676719 
" clip-path="url(#pa89fda7af4)" style="fill: none; stroke: #440154; stroke-opacity: 0.5; stroke-width: 1.5; stroke-linecap: square"/>
   </g>
   <g id="line2d_69">
    <path d="M 73.832727 273.88674 
L 90.065455 234.534656 
L 106.298182 261.607896 
L 122.530909 279.568515 
L 138.763636 257.684075 
L 154.996364 273.663998 
L 171.229091 277.922468 
L 187.461818 275.020847 
L 203.694545 276.829968 
L 219.927273 268.178986 
L 236.16 258.500326 
L 252.392727 269.375903 
L 268.625455 255.530111 
L 284.858182 264.693292 
L 301.090909 263.127931 
L 317.323636 260.902033 
L 333.556364 242.090478 
L 349.789091 144.572331 
L 366.021818 123.489263 
L 382.254545 241.781139 
L 398.487273 249.334391 
" clip-path="url(#pa89fda7af4)" style="fill: none; stroke: #440154; stroke-opacity: 0.5; stroke-width: 1.5; stroke-linecap: square"/>
   </g>
   <g id="line2d_70">
    <path d="M 73.832727 252.638811 
L 90.065455 218.488498 
L 106.298182 159.308049 
L 122.530909 196.308959 
L 138.763636 224.595163 
L 154.996364 270.327235 
L 171.229091 254.558683 
L 187.461818 251.467353 
L 203.694545 249.774728 
L 219.927273 222.346821 
L 236.16 240.762261 
L 252.392727 233.188544 
L 268.625455 267.074109 
L 284.858182 270.735183 
L 301.090909 276.180168 
L 317.323636 274.408211 
L 333.556364 283.759158 
L 349.789091 259.609521 
L 366.021818 257.274302 
L 382.254545 266.284803 
L 398.487273 252.196746 
" clip-path="url(#pa89fda7af4)" style="fill: none; stroke: #440154; stroke-opacity: 0.5; stroke-width: 1.5; stroke-linecap: square"/>
   </g>
   <g id="line2d_71">
    <path d="M 73.832727 200.366588 
L 90.065455 209.839089 
L 106.298182 221.584924 
L 122.530909 242.061166 
L 138.763636 229.334365 
L 154.996364 230.938879 
L 171.229091 254.962564 
L 187.461818 259.195519 
L 203.694545 213.883549 
L 219.927273 248.452013 
L 236.16 234.978838 
L 252.392727 248.732358 
L 268.625455 246.143951 
L 284.858182 243.901554 
L 301.090909 245.815934 
L 317.323636 215.609075 
L 333.556364 233.897464 
L 349.789091 219.290349 
L 366.021818 227.46743 
L 382.254545 217.724069 
L 398.487273 260.299636 
" clip-path="url(#pa89fda7af4)" style="fill: none; stroke: #440154; stroke-opacity: 0.5; stroke-width: 1.5; stroke-linecap: square"/>
   </g>
   <g id="line2d_72">
    <path d="M 73.832727 268.868533 
L 90.065455 284.948397 
L 106.298182 281.185936 
L 122.530909 275.83771 
L 138.763636 276.07791 
L 154.996364 282.569695 
L 171.229091 283.046135 
L 187.461818 262.351529 
L 203.694545 284.680027 
L 219.927273 282.192488 
L 236.16 272.739522 
L 252.392727 282.864109 
L 268.625455 283.901493 
L 284.858182 277.820709 
L 301.090909 252.885066 
L 317.323636 252.07445 
L 333.556364 243.033434 
L 349.789091 276.298339 
L 366.021818 278.384215 
L 382.254545 273.831263 
L 398.487273 273.923742 
" clip-path="url(#pa89fda7af4)" style="fill: none; stroke: #440154; stroke-opacity: 0.5; stroke-width: 1.5; stroke-linecap: square"/>
   </g>
   <g id="line2d_73">
    <path d="M 73.832727 268.559357 
L 90.065455 275.854837 
L 106.298182 279.371265 
L 122.530909 278.101288 
L 138.763636 274.466504 
L 154.996364 278.864563 
L 171.229091 279.878826 
L 187.461818 263.419465 
L 203.694545 281.146092 
L 219.927273 282.893527 
L 236.16 259.627635 
L 252.392727 261.681931 
L 268.625455 267.56015 
L 284.858182 259.547544 
L 301.090909 247.32412 
L 317.323636 241.630994 
L 333.556364 258.599944 
L 349.789091 248.82204 
L 366.021818 262.489248 
L 382.254545 256.003425 
L 398.487273 246.000353 
" clip-path="url(#pa89fda7af4)" style="fill: none; stroke: #440154; stroke-opacity: 0.5; stroke-width: 1.5; stroke-linecap: square"/>
   </g>
   <g id="line2d_74">
    <path d="M 73.832727 234.786253 
L 90.065455 228.832873 
L 106.298182 230.670916 
L 122.530909 232.655378 
L 138.763636 247.802775 
L 154.996364 184.405829 
L 171.229091 244.204798 
L 187.461818 241.560651 
L 203.694545 192.25769 
L 219.927273 268.410345 
L 236.16 164.673823 
L 252.392727 220.869746 
L 268.625455 194.846528 
L 284.858182 203.574961 
L 301.090909 187.251279 
L 317.323636 192.398236 
L 333.556364 181.688233 
L 349.789091 228.731808 
L 366.021818 200.227606 
L 382.254545 194.376245 
L 398.487273 212.632393 
" clip-path="url(#pa89fda7af4)" style="fill: none; stroke: #440154; stroke-opacity: 0.5; stroke-width: 1.5; stroke-linecap: square"/>
   </g>
   <g id="line2d_75">
    <path d="M 73.832727 171.492046 
L 90.065455 152.152604 
L 106.298182 248.837759 
L 122.530909 230.361206 
L 138.763636 230.421453 
L 154.996364 226.927088 
L 171.229091 254.940465 
L 187.461818 227.226295 
L 203.694545 237.436998 
L 219.927273 245.802824 
L 236.16 188.718779 
L 252.392727 239.040918 
L 268.625455 202.896166 
L 284.858182 268.857545 
L 301.090909 265.067419 
L 317.323636 241.791724 
L 333.556364 241.650703 
L 349.789091 235.431985 
L 366.021818 218.978431 
L 382.254545 197.151885 
L 398.487273 245.484183 
" clip-path="url(#pa89fda7af4)" style="fill: none; stroke: #440154; stroke-opacity: 0.5; stroke-width: 1.5; stroke-linecap: square"/>
   </g>
   <g id="line2d_76">
    <path d="M 73.832727 187.578003 
L 90.065455 196.281809 
L 106.298182 258.222431 
L 122.530909 252.749261 
L 138.763636 259.855338 
L 154.996364 205.062544 
L 171.229091 186.334409 
L 187.461818 253.603591 
L 203.694545 234.42332 
L 219.927273 261.071229 
L 236.16 175.74592 
L 252.392727 206.377614 
L 268.625455 245.495595 
L 284.858182 204.137228 
L 301.090909 179.605009 
L 317.323636 226.519353 
L 333.556364 235.624291 
L 349.789091 176.66623 
L 366.021818 197.446428 
L 382.254545 215.854598 
L 398.487273 226.243102 
" clip-path="url(#pa89fda7af4)" style="fill: none; stroke: #440154; stroke-opacity: 0.5; stroke-width: 1.5; stroke-linecap: square"/>
   </g>
   <g id="line2d_77">
    <path d="M 73.832727 213.37346 
L 90.065455 237.853756 
L 106.298182 211.444562 
L 122.530909 231.485056 
L 138.763636 243.465164 
L 154.996364 193.245426 
L 171.229091 247.944192 
L 187.461818 243.35776 
L 203.694545 243.345233 
L 219.927273 238.783222 
L 236.16 240.090557 
L 252.392727 237.788954 
L 268.625455 245.715996 
L 284.858182 229.85954 
L 301.090909 240.462125 
L 317.323636 285.686579 
L 333.556364 273.922421 
L 349.789091 270.904984 
L 366.021818 275.736592 
L 382.254545 265.022231 
L 398.487273 270.458034 
" clip-path="url(#pa89fda7af4)" style="fill: none; stroke: #440154; stroke-opacity: 0.5; stroke-width: 1.5; stroke-linecap: square"/>
   </g>
   <g id="line2d_78">
    <path d="M 73.832727 210.436207 
L 90.065455 198.299044 
L 106.298182 179.817522 
L 122.530909 173.32156 
L 138.763636 178.900295 
L 154.996364 219.686319 
L 171.229091 251.738786 
L 187.461818 251.909601 
L 203.694545 228.661957 
L 219.927273 197.881084 
L 236.16 178.3526 
L 252.392727 280.605245 
L 268.625455 242.275347 
L 284.858182 264.141108 
L 301.090909 268.963608 
L 317.323636 274.499723 
L 333.556364 250.437742 
L 349.789091 261.262136 
L 366.021818 258.949628 
L 382.254545 267.949691 
L 398.487273 232.406608 
" clip-path="url(#pa89fda7af4)" style="fill: none; stroke: #440154; stroke-opacity: 0.5; stroke-width: 1.5; stroke-linecap: square"/>
   </g>
   <g id="line2d_79">
    <path d="M 73.832727 164.955806 
L 90.065455 228.582405 
L 106.298182 187.501645 
L 122.530909 211.054134 
L 138.763636 205.160743 
L 154.996364 236.582579 
L 171.229091 202.204623 
L 187.461818 189.647933 
L 203.694545 219.217494 
L 219.927273 223.878726 
L 236.16 249.42643 
L 252.392727 230.496615 
L 268.625455 229.766489 
L 284.858182 213.399132 
L 301.090909 189.985274 
L 317.323636 258.283003 
L 333.556364 234.574662 
L 349.789091 259.363783 
L 366.021818 253.156737 
L 382.254545 239.336066 
L 398.487273 245.574151 
" clip-path="url(#pa89fda7af4)" style="fill: none; stroke: #440154; stroke-opacity: 0.5; stroke-width: 1.5; stroke-linecap: square"/>
   </g>
   <g id="line2d_80">
    <path d="M 73.832727 278.076502 
L 90.065455 253.816196 
L 106.298182 275.893227 
L 122.530909 284.461178 
L 138.763636 276.943546 
L 154.996364 280.577297 
L 171.229091 267.689066 
L 187.461818 272.858109 
L 203.694545 263.016967 
L 219.927273 268.986547 
L 236.16 271.958472 
L 252.392727 278.197725 
L 268.625455 257.049506 
L 284.858182 276.580314 
L 301.090909 263.077206 
L 317.323636 269.285895 
L 333.556364 288.305294 
L 349.789091 266.994531 
L 366.021818 271.807417 
L 382.254545 274.679979 
L 398.487273 263.538851 
" clip-path="url(#pa89fda7af4)" style="fill: none; stroke: #440154; stroke-opacity: 0.5; stroke-width: 1.5; stroke-linecap: square"/>
   </g>
   <g id="line2d_81">
    <path d="M 73.832727 258.63001 
L 90.065455 244.807667 
L 106.298182 287.085427 
L 122.530909 289.303249 
L 138.763636 280.366441 
L 154.996364 273.922525 
L 171.229091 263.473715 
L 187.461818 258.001297 
L 203.694545 255.241569 
L 219.927273 247.752928 
L 236.16 283.047912 
L 252.392727 279.910702 
L 268.625455 260.100255 
L 284.858182 285.910781 
L 301.090909 271.183987 
L 317.323636 280.652852 
L 333.556364 279.932695 
L 349.789091 237.453209 
L 366.021818 270.578621 
L 382.254545 258.016661 
L 398.487273 218.649523 
" clip-path="url(#pa89fda7af4)" style="fill: none; stroke: #440154; stroke-opacity: 0.5; stroke-width: 1.5; stroke-linecap: square"/>
   </g>
   <g id="line2d_82">
    <path d="M 73.832727 222.323734 
L 90.065455 197.909346 
L 106.298182 195.135693 
L 122.530909 175.417624 
L 138.763636 229.893357 
L 154.996364 209.306455 
L 171.229091 215.38481 
L 187.461818 215.403291 
L 203.694545 195.801774 
L 219.927273 194.681947 
L 236.16 229.290545 
L 252.392727 224.42757 
L 268.625455 251.152243 
L 284.858182 235.927379 
L 301.090909 236.947386 
L 317.323636 246.984855 
L 333.556364 223.711816 
L 349.789091 226.194898 
L 366.021818 228.065981 
L 382.254545 225.437106 
L 398.487273 194.354243 
" clip-path="url(#pa89fda7af4)" style="fill: none; stroke: #440154; stroke-opacity: 0.5; stroke-width: 1.5; stroke-linecap: square"/>
   </g>
   <g id="line2d_83">
    <path d="M 73.832727 207.426417 
L 90.065455 190.718223 
L 106.298182 186.271712 
L 122.530909 209.459897 
L 138.763636 176.616114 
L 154.996364 182.785848 
L 171.229091 245.192196 
L 187.461818 189.139893 
L 203.694545 203.749447 
L 219.927273 213.427733 
L 236.16 205.690746 
L 252.392727 221.115733 
L 268.625455 225.580566 
L 284.858182 244.736972 
L 301.090909 215.86455 
L 317.323636 232.910747 
L 333.556364 246.132147 
L 349.789091 237.284437 
L 366.021818 196.634129 
L 382.254545 213.979069 
L 398.487273 209.152084 
" clip-path="url(#pa89fda7af4)" style="fill: none; stroke: #440154; stroke-opacity: 0.5; stroke-width: 1.5; stroke-linecap: square"/>
   </g>
   <g id="line2d_84">
    <path d="M 73.832727 212.207177 
L 90.065455 182.543735 
L 106.298182 183.077667 
L 122.530909 205.384502 
L 138.763636 216.698235 
L 154.996364 219.807091 
L 171.229091 233.125325 
L 187.461818 206.538218 
L 203.694545 211.128377 
L 219.927273 205.278062 
L 236.16 226.06581 
L 252.392727 212.673807 
L 268.625455 214.2346 
L 284.858182 188.746264 
L 301.090909 234.578341 
L 317.323636 237.085896 
L 333.556364 210.297546 
L 349.789091 221.580894 
L 366.021818 214.445464 
L 382.254545 236.098932 
L 398.487273 223.590567 
" clip-path="url(#pa89fda7af4)" style="fill: none; stroke: #440154; stroke-opacity: 0.5; stroke-width: 1.5; stroke-linecap: square"/>
   </g>
   <g id="line2d_85">
    <path d="M 73.832727 214.859002 
L 90.065455 206.864386 
L 106.298182 236.967643 
L 122.530909 227.811148 
L 138.763636 231.776066 
L 154.996364 214.841261 
L 171.229091 246.215711 
L 187.461818 212.332472 
L 203.694545 221.524244 
L 219.927273 265.16729 
L 236.16 221.027966 
L 252.392727 266.528047 
L 268.625455 279.426374 
L 284.858182 271.201373 
L 301.090909 272.384359 
L 317.323636 256.607512 
L 333.556364 262.073165 
L 349.789091 243.955201 
L 366.021818 220.471214 
L 382.254545 254.042566 
L 398.487273 275.304538 
" clip-path="url(#pa89fda7af4)" style="fill: none; stroke: #440154; stroke-opacity: 0.5; stroke-width: 1.5; stroke-linecap: square"/>
   </g>
   <g id="line2d_86">
    <path d="M 73.832727 275.058964 
L 90.065455 248.617815 
L 106.298182 273.631653 
L 122.530909 258.8361 
L 138.763636 243.578027 
L 154.996364 280.461402 
L 171.229091 266.504669 
L 187.461818 280.739447 
L 203.694545 283.23663 
L 219.927273 271.645345 
L 236.16 278.704567 
L 252.392727 282.640002 
L 268.625455 260.110021 
L 284.858182 262.543046 
L 301.090909 274.748535 
L 317.323636 276.566989 
L 333.556364 289.422259 
L 349.789091 291.701543 
L 366.021818 267.825441 
L 382.254545 288.010925 
L 398.487273 285.770896 
" clip-path="url(#pa89fda7af4)" style="fill: none; stroke: #440154; stroke-opacity: 0.5; stroke-width: 1.5; stroke-linecap: square"/>
   </g>
   <g id="line2d_87">
    <path d="M 73.832727 228.727195 
L 90.065455 241.957568 
L 106.298182 243.785637 
L 122.530909 238.233232 
L 138.763636 238.712321 
L 154.996364 220.328392 
L 171.229091 230.661702 
L 187.461818 236.306799 
L 203.694545 218.816066 
L 219.927273 233.993339 
L 236.16 208.928943 
L 252.392727 221.926442 
L 268.625455 219.027203 
L 284.858182 188.858338 
L 301.090909 196.869917 
L 317.323636 204.814841 
L 333.556364 204.518173 
L 349.789091 221.777804 
L 366.021818 193.842228 
L 382.254545 182.070123 
L 398.487273 223.796466 
" clip-path="url(#pa89fda7af4)" style="fill: none; stroke: #440154; stroke-opacity: 0.5; stroke-width: 1.5; stroke-linecap: square"/>
   </g>
   <g id="line2d_88">
    <path d="M 73.832727 220.81522 
L 90.065455 267.240927 
L 106.298182 283.179487 
L 122.530909 283.490303 
L 138.763636 253.090361 
L 154.996364 264.541481 
L 171.229091 283.885619 
L 187.461818 285.887819 
L 203.694545 294.280892 
L 219.927273 286.951507 
L 236.16 269.083148 
L 252.392727 274.642243 
L 268.625455 261.954029 
L 284.858182 260.545335 
L 301.090909 267.161739 
L 317.323636 263.467548 
L 333.556364 253.002497 
L 349.789091 229.12605 
L 366.021818 216.965062 
L 382.254545 240.258889 
L 398.487273 265.1921 
" clip-path="url(#pa89fda7af4)" style="fill: none; stroke: #440154; stroke-opacity: 0.5; stroke-width: 1.5; stroke-linecap: square"/>
   </g>
   <g id="line2d_89">
    <path d="M 73.832727 195.669282 
L 90.065455 258.796536 
L 106.298182 277.618913 
L 122.530909 278.583494 
L 138.763636 294.055214 
L 154.996364 284.148469 
L 171.229091 277.290853 
L 187.461818 280.678077 
L 203.694545 267.838547 
L 219.927273 265.410566 
L 236.16 276.776386 
L 252.392727 275.031358 
L 268.625455 261.609887 
L 284.858182 248.386913 
L 301.090909 228.721706 
L 317.323636 257.852054 
L 333.556364 273.809206 
L 349.789091 282.251472 
L 366.021818 281.316454 
L 382.254545 269.456955 
L 398.487273 279.198341 
" clip-path="url(#pa89fda7af4)" style="fill: none; stroke: #440154; stroke-opacity: 0.5; stroke-width: 1.5; stroke-linecap: square"/>
   </g>
   <g id="line2d_90">
    <path d="M 73.832727 220.185268 
L 90.065455 252.41284 
L 106.298182 260.759487 
L 122.530909 260.900625 
L 138.763636 212.980099 
L 154.996364 240.688943 
L 171.229091 232.370111 
L 187.461818 237.824286 
L 203.694545 223.522812 
L 219.927273 216.85746 
L 236.16 207.001452 
L 252.392727 195.599481 
L 268.625455 223.301616 
L 284.858182 183.539226 
L 301.090909 164.828735 
L 317.323636 208.347079 
L 333.556364 175.130243 
L 349.789091 203.473402 
L 366.021818 187.503028 
L 382.254545 194.641873 
L 398.487273 175.957599 
" clip-path="url(#pa89fda7af4)" style="fill: none; stroke: #440154; stroke-opacity: 0.5; stroke-width: 1.5; stroke-linecap: square"/>
   </g>
   <g id="line2d_91">
    <path d="M 73.832727 233.656251 
L 90.065455 240.541976 
L 106.298182 239.452261 
L 122.530909 228.914844 
L 138.763636 202.772424 
L 154.996364 245.400977 
L 171.229091 175.844436 
L 187.461818 178.497739 
L 203.694545 242.995658 
L 219.927273 213.10853 
L 236.16 207.844367 
L 252.392727 201.642399 
L 268.625455 224.539854 
L 284.858182 223.582821 
L 301.090909 219.521118 
L 317.323636 219.45777 
L 333.556364 229.639743 
L 349.789091 266.80859 
L 366.021818 222.362325 
L 382.254545 198.597915 
L 398.487273 201.75873 
" clip-path="url(#pa89fda7af4)" style="fill: none; stroke: #440154; stroke-opacity: 0.5; stroke-width: 1.5; stroke-linecap: square"/>
   </g>
   <g id="line2d_92">
    <path d="M 73.832727 141.44617 
L 90.065455 77.340755 
L 106.298182 144.620529 
L 122.530909 184.561716 
L 138.763636 53.568 
L 154.996364 238.126358 
L 171.229091 157.387069 
L 187.461818 189.292179 
L 203.694545 94.699196 
L 219.927273 167.767691 
L 236.16 226.702426 
L 252.392727 239.036171 
L 268.625455 241.497883 
L 284.858182 245.856206 
L 301.090909 239.969192 
L 317.323636 227.540366 
L 333.556364 230.273065 
L 349.789091 205.062741 
L 366.021818 180.521492 
L 382.254545 234.582925 
L 398.487273 230.521908 
" clip-path="url(#pa89fda7af4)" style="fill: none; stroke: #440154; stroke-opacity: 0.5; stroke-width: 1.5; stroke-linecap: square"/>
   </g>
   <g id="line2d_93">
    <path d="M 73.832727 224.624917 
L 90.065455 276.721081 
L 106.298182 266.685303 
L 122.530909 270.444915 
L 138.763636 272.22984 
L 154.996364 275.405148 
L 171.229091 286.396627 
L 187.461818 285.936495 
L 203.694545 274.796859 
L 219.927273 286.024153 
L 236.16 274.096809 
L 252.392727 279.315586 
L 268.625455 263.078808 
L 284.858182 261.899486 
L 301.090909 248.288561 
L 317.323636 278.372603 
L 333.556364 275.72097 
L 349.789091 272.070854 
L 366.021818 258.036428 
L 382.254545 261.358929 
L 398.487273 280.398804 
" clip-path="url(#pa89fda7af4)" style="fill: none; stroke: #440154; stroke-opacity: 0.5; stroke-width: 1.5; stroke-linecap: square"/>
   </g>
   <g id="line2d_94">
    <path d="M 73.832727 247.753904 
L 90.065455 272.257037 
L 106.298182 275.321898 
L 122.530909 273.769931 
L 138.763636 257.391555 
L 154.996364 269.196668 
L 171.229091 279.425127 
L 187.461818 264.104776 
L 203.694545 290.021745 
L 219.927273 275.023289 
L 236.16 259.882904 
L 252.392727 247.627251 
L 268.625455 216.602283 
L 284.858182 223.388449 
L 301.090909 220.352248 
L 317.323636 244.796698 
L 333.556364 253.421451 
L 349.789091 223.067478 
L 366.021818 224.976185 
L 382.254545 223.546119 
L 398.487273 255.600414 
" clip-path="url(#pa89fda7af4)" style="fill: none; stroke: #440154; stroke-opacity: 0.5; stroke-width: 1.5; stroke-linecap: square"/>
   </g>
   <g id="line2d_95">
    <path d="M 73.832727 215.790637 
L 90.065455 223.710403 
L 106.298182 205.475778 
L 122.530909 210.898604 
L 138.763636 222.037883 
L 154.996364 231.843675 
L 171.229091 232.914895 
L 187.461818 182.420155 
L 203.694545 243.577249 
L 219.927273 213.599321 
L 236.16 204.299383 
L 252.392727 218.127692 
L 268.625455 221.44989 
L 284.858182 208.455607 
L 301.090909 221.707183 
L 317.323636 240.676029 
L 333.556364 245.334334 
L 349.789091 241.267592 
L 366.021818 240.22574 
L 382.254545 227.580497 
L 398.487273 251.045686 
" clip-path="url(#pa89fda7af4)" style="fill: none; stroke: #440154; stroke-opacity: 0.5; stroke-width: 1.5; stroke-linecap: square"/>
   </g>
   <g id="line2d_96">
    <path d="M 73.832727 265.056917 
L 90.065455 280.106206 
L 106.298182 283.647031 
L 122.530909 278.235026 
L 138.763636 255.48401 
L 154.996364 265.179022 
L 171.229091 271.824788 
L 187.461818 273.564408 
L 203.694545 277.822639 
L 219.927273 271.661528 
L 236.16 275.126455 
L 252.392727 282.236645 
L 268.625455 275.26174 
L 284.858182 279.828642 
L 301.090909 271.581674 
L 317.323636 278.269707 
L 333.556364 287.715049 
L 349.789091 278.158798 
L 366.021818 290.923719 
L 382.254545 262.253991 
L 398.487273 279.918508 
" clip-path="url(#pa89fda7af4)" style="fill: none; stroke: #440154; stroke-opacity: 0.5; stroke-width: 1.5; stroke-linecap: square"/>
   </g>
   <g id="line2d_97">
    <path d="M 73.832727 275.077662 
L 90.065455 271.930203 
L 106.298182 277.242859 
L 122.530909 276.211271 
L 138.763636 276.360871 
L 154.996364 263.948249 
L 171.229091 278.486119 
L 187.461818 275.989005 
L 203.694545 276.162458 
L 219.927273 265.853247 
L 236.16 277.065558 
L 252.392727 270.119268 
L 268.625455 282.77692 
L 284.858182 264.458706 
L 301.090909 284.908672 
L 317.323636 267.81031 
L 333.556364 281.60656 
L 349.789091 283.930201 
L 366.021818 280.794827 
L 382.254545 292.985648 
L 398.487273 275.909087 
" clip-path="url(#pa89fda7af4)" style="fill: none; stroke: #440154; stroke-opacity: 0.5; stroke-width: 1.5; stroke-linecap: square"/>
   </g>
   <g id="line2d_98">
    <path d="M 73.832727 210.438856 
L 90.065455 227.908849 
L 106.298182 240.66924 
L 122.530909 234.684852 
L 138.763636 235.425633 
L 154.996364 211.147451 
L 171.229091 232.322453 
L 187.461818 215.786236 
L 203.694545 207.399759 
L 219.927273 199.176468 
L 236.16 236.799266 
L 252.392727 214.416429 
L 268.625455 205.437184 
L 284.858182 225.222534 
L 301.090909 198.062489 
L 317.323636 202.704669 
L 333.556364 179.326384 
L 349.789091 195.288241 
L 366.021818 217.871142 
L 382.254545 214.537523 
L 398.487273 169.833964 
" clip-path="url(#pa89fda7af4)" style="fill: none; stroke: #440154; stroke-opacity: 0.5; stroke-width: 1.5; stroke-linecap: square"/>
   </g>
   <g id="line2d_99">
    <path d="M 73.832727 233.579092 
L 90.065455 239.017343 
L 106.298182 249.600197 
L 122.530909 236.585899 
L 138.763636 233.391567 
L 154.996364 217.502861 
L 171.229091 248.810934 
L 187.461818 252.581187 
L 203.694545 216.712618 
L 219.927273 243.385943 
L 236.16 246.554974 
L 252.392727 235.213705 
L 268.625455 241.278703 
L 284.858182 244.385059 
L 301.090909 235.531867 
L 317.323636 242.768221 
L 333.556364 250.955241 
L 349.789091 246.216006 
L 366.021818 219.026645 
L 382.254545 252.60761 
L 398.487273 260.949017 
" clip-path="url(#pa89fda7af4)" style="fill: none; stroke: #440154; stroke-opacity: 0.5; stroke-width: 1.5; stroke-linecap: square"/>
   </g>
   <g id="line2d_100">
    <path d="M 73.832727 211.919038 
L 90.065455 240.854145 
L 106.298182 222.964448 
L 122.530909 226.450296 
L 138.763636 214.628167 
L 154.996364 176.878304 
L 171.229091 206.385793 
L 187.461818 127.78142 
L 203.694545 173.320289 
L 219.927273 159.210268 
L 236.16 198.037333 
L 252.392727 215.629102 
L 268.625455 235.732438 
L 284.858182 194.091057 
L 301.090909 244.434361 
L 317.323636 246.340424 
L 333.556364 237.938268 
L 349.789091 230.886755 
L 366.021818 232.642695 
L 382.254545 206.438934 
L 398.487273 232.700932 
" clip-path="url(#pa89fda7af4)" style="fill: none; stroke: #440154; stroke-opacity: 0.5; stroke-width: 1.5; stroke-linecap: square"/>
   </g>
   <g id="patch_3">
    <path d="M 57.6 307.584 
L 57.6 41.472 
" style="fill: none; stroke: #000000; stroke-width: 3; stroke-linejoin: miter; stroke-linecap: square"/>
   </g>
   <g id="patch_4">
    <path d="M 414.72 307.584 
L 414.72 41.472 
" style="fill: none; stroke: #000000; stroke-width: 3; stroke-linejoin: miter; stroke-linecap: square"/>
   </g>
   <g id="patch_5">
    <path d="M 57.6 307.584 
L 414.72 307.584 
" style="fill: none; stroke: #000000; stroke-width: 3; stroke-linejoin: miter; stroke-linecap: square"/>
   </g>
   <g id="patch_6">
    <path d="M 57.6 41.472 
L 414.72 41.472 
" style="fill: none; stroke: #000000; stroke-width: 3; stroke-linejoin: miter; stroke-linecap: square"/>
   </g>
   <g id="text_11">
    <!-- Atom Type H (n=90, mean Q=8.96) -->
    <g transform="translate(40.225937 35.472) scale(0.22 -0.22)">
     <defs>
      <path id="DejaVuSans-41" d="M 2188 4044 
L 1331 1722 
L 3047 1722 
L 2188 4044 
z
M 1831 4666 
L 2547 4666 
L 4325 0 
L 3669 0 
L 3244 1197 
L 1141 1197 
L 716 0 
L 50 0 
L 1831 4666 
z
" transform="scale(0.015625)"/>
      <path id="DejaVuSans-74" d="M 1172 4494 
L 1172 3500 
L 2356 3500 
L 2356 3053 
L 1172 3053 
L 1172 1153 
Q 1172 725 1289 603 
Q 1406 481 1766 481 
L 2356 481 
L 2356 0 
L 1766 0 
Q 1100 0 847 248 
Q 594 497 594 1153 
L 594 3053 
L 172 3053 
L 172 3500 
L 594 3500 
L 594 4494 
L 1172 4494 
z
" transform="scale(0.015625)"/>
      <path id="DejaVuSans-6f" d="M 1959 3097 
Q 1497 3097 1228 2736 
Q 959 2375 959 1747 
Q 959 1119 1226 758 
Q 1494 397 1959 397 
Q 2419 397 2687 759 
Q 2956 1122 2956 1747 
Q 2956 2369 2687 2733 
Q 2419 3097 1959 3097 
z
M 1959 3584 
Q 2709 3584 3137 3096 
Q 3566 2609 3566 1747 
Q 3566 888 3137 398 
Q 2709 -91 1959 -91 
Q 1206 -91 779 398 
Q 353 888 353 1747 
Q 353 2609 779 3096 
Q 1206 3584 1959 3584 
z
" transform="scale(0.015625)"/>
      <path id="DejaVuSans-6d" d="M 3328 2828 
Q 3544 3216 3844 3400 
Q 4144 3584 4550 3584 
Q 5097 3584 5394 3201 
Q 5691 2819 5691 2113 
L 5691 0 
L 5113 0 
L 5113 2094 
Q 5113 2597 4934 2840 
Q 4756 3084 4391 3084 
Q 3944 3084 3684 2787 
Q 3425 2491 3425 1978 
L 3425 0 
L 2847 0 
L 2847 2094 
Q 2847 2600 2669 2842 
Q 2491 3084 2119 3084 
Q 1678 3084 1418 2786 
Q 1159 2488 1159 1978 
L 1159 0 
L 581 0 
L 581 3500 
L 1159 3500 
L 1159 2956 
Q 1356 3278 1631 3431 
Q 1906 3584 2284 3584 
Q 2666 3584 2933 3390 
Q 3200 3197 3328 2828 
z
" transform="scale(0.015625)"/>
      <path id="DejaVuSans-20" transform="scale(0.015625)"/>
      <path id="DejaVuSans-54" d="M -19 4666 
L 3928 4666 
L 3928 4134 
L 2272 4134 
L 2272 0 
L 1638 0 
L 1638 4134 
L -19 4134 
L -19 4666 
z
" transform="scale(0.015625)"/>
      <path id="DejaVuSans-79" d="M 2059 -325 
Q 1816 -950 1584 -1140 
Q 1353 -1331 966 -1331 
L 506 -1331 
L 506 -850 
L 844 -850 
Q 1081 -850 1212 -737 
Q 1344 -625 1503 -206 
L 1606 56 
L 191 3500 
L 800 3500 
L 1894 763 
L 2988 3500 
L 3597 3500 
L 2059 -325 
z
" transform="scale(0.015625)"/>
      <path id="DejaVuSans-70" d="M 1159 525 
L 1159 -1331 
L 581 -1331 
L 581 3500 
L 1159 3500 
L 1159 2969 
Q 1341 3281 1617 3432 
Q 1894 3584 2278 3584 
Q 2916 3584 3314 3078 
Q 3713 2572 3713 1747 
Q 3713 922 3314 415 
Q 2916 -91 2278 -91 
Q 1894 -91 1617 61 
Q 1341 213 1159 525 
z
M 3116 1747 
Q 3116 2381 2855 2742 
Q 2594 3103 2138 3103 
Q 1681 3103 1420 2742 
Q 1159 2381 1159 1747 
Q 1159 1113 1420 752 
Q 1681 391 2138 391 
Q 2594 391 2855 752 
Q 3116 1113 3116 1747 
z
" transform="scale(0.015625)"/>
      <path id="DejaVuSans-65" d="M 3597 1894 
L 3597 1613 
L 953 1613 
Q 991 1019 1311 708 
Q 1631 397 2203 397 
Q 2534 397 2845 478 
Q 3156 559 3463 722 
L 3463 178 
Q 3153 47 2828 -22 
Q 2503 -91 2169 -91 
Q 1331 -91 842 396 
Q 353 884 353 1716 
Q 353 2575 817 3079 
Q 1281 3584 2069 3584 
Q 2775 3584 3186 3129 
Q 3597 2675 3597 1894 
z
M 3022 2063 
Q 3016 2534 2758 2815 
Q 2500 3097 2075 3097 
Q 1594 3097 1305 2825 
Q 1016 2553 972 2059 
L 3022 2063 
z
" transform="scale(0.015625)"/>
      <path id="DejaVuSans-48" d="M 628 4666 
L 1259 4666 
L 1259 2753 
L 3553 2753 
L 3553 4666 
L 4184 4666 
L 4184 0 
L 3553 0 
L 3553 2222 
L 1259 2222 
L 1259 0 
L 628 0 
L 628 4666 
z
" transform="scale(0.015625)"/>
      <path id="DejaVuSans-28" d="M 1984 4856 
Q 1566 4138 1362 3434 
Q 1159 2731 1159 2009 
Q 1159 1288 1364 580 
Q 1569 -128 1984 -844 
L 1484 -844 
Q 1016 -109 783 600 
Q 550 1309 550 2009 
Q 550 2706 781 3412 
Q 1013 4119 1484 4856 
L 1984 4856 
z
" transform="scale(0.015625)"/>
      <path id="DejaVuSans-6e" d="M 3513 2113 
L 3513 0 
L 2938 0 
L 2938 2094 
Q 2938 2591 2744 2837 
Q 2550 3084 2163 3084 
Q 1697 3084 1428 2787 
Q 1159 2491 1159 1978 
L 1159 0 
L 581 0 
L 581 3500 
L 1159 3500 
L 1159 2956 
Q 1366 3272 1645 3428 
Q 1925 3584 2291 3584 
Q 2894 3584 3203 3211 
Q 3513 2838 3513 2113 
z
" transform="scale(0.015625)"/>
      <path id="DejaVuSans-3d" d="M 678 2906 
L 4684 2906 
L 4684 2381 
L 678 2381 
L 678 2906 
z
M 678 1631 
L 4684 1631 
L 4684 1100 
L 678 1100 
L 678 1631 
z
" transform="scale(0.015625)"/>
      <path id="DejaVuSans-39" d="M 703 97 
L 703 672 
Q 941 559 1184 500 
Q 1428 441 1663 441 
Q 2288 441 2617 861 
Q 2947 1281 2994 2138 
Q 2813 1869 2534 1725 
Q 2256 1581 1919 1581 
Q 1219 1581 811 2004 
Q 403 2428 403 3163 
Q 403 3881 828 4315 
Q 1253 4750 1959 4750 
Q 2769 4750 3195 4129 
Q 3622 3509 3622 2328 
Q 3622 1225 3098 567 
Q 2575 -91 1691 -91 
Q 1453 -91 1209 -44 
Q 966 3 703 97 
z
M 1959 2075 
Q 2384 2075 2632 2365 
Q 2881 2656 2881 3163 
Q 2881 3666 2632 3958 
Q 2384 4250 1959 4250 
Q 1534 4250 1286 3958 
Q 1038 3666 1038 3163 
Q 1038 2656 1286 2365 
Q 1534 2075 1959 2075 
z
" transform="scale(0.015625)"/>
      <path id="DejaVuSans-2c" d="M 750 794 
L 1409 794 
L 1409 256 
L 897 -744 
L 494 -744 
L 750 256 
L 750 794 
z
" transform="scale(0.015625)"/>
      <path id="DejaVuSans-61" d="M 2194 1759 
Q 1497 1759 1228 1600 
Q 959 1441 959 1056 
Q 959 750 1161 570 
Q 1363 391 1709 391 
Q 2188 391 2477 730 
Q 2766 1069 2766 1631 
L 2766 1759 
L 2194 1759 
z
M 3341 1997 
L 3341 0 
L 2766 0 
L 2766 531 
Q 2569 213 2275 61 
Q 1981 -91 1556 -91 
Q 1019 -91 701 211 
Q 384 513 384 1019 
Q 384 1609 779 1909 
Q 1175 2209 1959 2209 
L 2766 2209 
L 2766 2266 
Q 2766 2663 2505 2880 
Q 2244 3097 1772 3097 
Q 1472 3097 1187 3025 
Q 903 2953 641 2809 
L 641 3341 
Q 956 3463 1253 3523 
Q 1550 3584 1831 3584 
Q 2591 3584 2966 3190 
Q 3341 2797 3341 1997 
z
" transform="scale(0.015625)"/>
      <path id="DejaVuSans-51" d="M 2522 4238 
Q 1834 4238 1429 3725 
Q 1025 3213 1025 2328 
Q 1025 1447 1429 934 
Q 1834 422 2522 422 
Q 3209 422 3611 934 
Q 4013 1447 4013 2328 
Q 4013 3213 3611 3725 
Q 3209 4238 2522 4238 
z
M 3406 84 
L 4238 -825 
L 3475 -825 
L 2784 -78 
Q 2681 -84 2626 -87 
Q 2572 -91 2522 -91 
Q 1538 -91 948 567 
Q 359 1225 359 2328 
Q 359 3434 948 4092 
Q 1538 4750 2522 4750 
Q 3503 4750 4090 4092 
Q 4678 3434 4678 2328 
Q 4678 1516 4351 937 
Q 4025 359 3406 84 
z
" transform="scale(0.015625)"/>
      <path id="DejaVuSans-38" d="M 2034 2216 
Q 1584 2216 1326 1975 
Q 1069 1734 1069 1313 
Q 1069 891 1326 650 
Q 1584 409 2034 409 
Q 2484 409 2743 651 
Q 3003 894 3003 1313 
Q 3003 1734 2745 1975 
Q 2488 2216 2034 2216 
z
M 1403 2484 
Q 997 2584 770 2862 
Q 544 3141 544 3541 
Q 544 4100 942 4425 
Q 1341 4750 2034 4750 
Q 2731 4750 3128 4425 
Q 3525 4100 3525 3541 
Q 3525 3141 3298 2862 
Q 3072 2584 2669 2484 
Q 3125 2378 3379 2068 
Q 3634 1759 3634 1313 
Q 3634 634 3220 271 
Q 2806 -91 2034 -91 
Q 1263 -91 848 271 
Q 434 634 434 1313 
Q 434 1759 690 2068 
Q 947 2378 1403 2484 
z
M 1172 3481 
Q 1172 3119 1398 2916 
Q 1625 2713 2034 2713 
Q 2441 2713 2670 2916 
Q 2900 3119 2900 3481 
Q 2900 3844 2670 4047 
Q 2441 4250 2034 4250 
Q 1625 4250 1398 4047 
Q 1172 3844 1172 3481 
z
" transform="scale(0.015625)"/>
      <path id="DejaVuSans-2e" d="M 684 794 
L 1344 794 
L 1344 0 
L 684 0 
L 684 794 
z
" transform="scale(0.015625)"/>
      <path id="DejaVuSans-36" d="M 2113 2584 
Q 1688 2584 1439 2293 
Q 1191 2003 1191 1497 
Q 1191 994 1439 701 
Q 1688 409 2113 409 
Q 2538 409 2786 701 
Q 3034 994 3034 1497 
Q 3034 2003 2786 2293 
Q 2538 2584 2113 2584 
z
M 3366 4563 
L 3366 3988 
Q 3128 4100 2886 4159 
Q 2644 4219 2406 4219 
Q 1781 4219 1451 3797 
Q 1122 3375 1075 2522 
Q 1259 2794 1537 2939 
Q 1816 3084 2150 3084 
Q 2853 3084 3261 2657 
Q 3669 2231 3669 1497 
Q 3669 778 3244 343 
Q 2819 -91 2113 -91 
Q 1303 -91 875 529 
Q 447 1150 447 2328 
Q 447 3434 972 4092 
Q 1497 4750 2381 4750 
Q 2619 4750 2861 4703 
Q 3103 4656 3366 4563 
z
" transform="scale(0.015625)"/>
      <path id="DejaVuSans-29" d="M 513 4856 
L 1013 4856 
Q 1481 4119 1714 3412 
Q 1947 2706 1947 2009 
Q 1947 1309 1714 600 
Q 1481 -109 1013 -844 
L 513 -844 
Q 928 -128 1133 580 
Q 1338 1288 1338 2009 
Q 1338 2731 1133 3434 
Q 928 4138 513 4856 
z
" transform="scale(0.015625)"/>
     </defs>
     <use xlink:href="#DejaVuSans-41"/>
     <use xlink:href="#DejaVuSans-74" transform="translate(66.658203 0)"/>
     <use xlink:href="#DejaVuSans-6f" transform="translate(105.867188 0)"/>
     <use xlink:href="#DejaVuSans-6d" transform="translate(167.048828 0)"/>
     <use xlink:href="#DejaVuSans-20" transform="translate(264.460938 0)"/>
     <use xlink:href="#DejaVuSans-54" transform="translate(296.248047 0)"/>
     <use xlink:href="#DejaVuSans-79" transform="translate(341.707031 0)"/>
     <use xlink:href="#DejaVuSans-70" transform="translate(400.886719 0)"/>
     <use xlink:href="#DejaVuSans-65" transform="translate(464.363281 0)"/>
     <use xlink:href="#DejaVuSans-20" transform="translate(525.886719 0)"/>
     <use xlink:href="#DejaVuSans-48" transform="translate(557.673828 0)"/>
     <use xlink:href="#DejaVuSans-20" transform="translate(632.869141 0)"/>
     <use xlink:href="#DejaVuSans-28" transform="translate(664.65625 0)"/>
     <use xlink:href="#DejaVuSans-6e" transform="translate(703.669922 0)"/>
     <use xlink:href="#DejaVuSans-3d" transform="translate(767.048828 0)"/>
     <use xlink:href="#DejaVuSans-39" transform="translate(850.837891 0)"/>
     <use xlink:href="#DejaVuSans-30" transform="translate(914.460938 0)"/>
     <use xlink:href="#DejaVuSans-2c" transform="translate(978.083984 0)"/>
     <use xlink:href="#DejaVuSans-20" transform="translate(1009.871094 0)"/>
     <use xlink:href="#DejaVuSans-6d" transform="translate(1041.658203 0)"/>
     <use xlink:href="#DejaVuSans-65" transform="translate(1139.070312 0)"/>
     <use xlink:href="#DejaVuSans-61" transform="translate(1200.59375 0)"/>
     <use xlink:href="#DejaVuSans-6e" transform="translate(1261.873047 0)"/>
     <use xlink:href="#DejaVuSans-20" transform="translate(1325.251953 0)"/>
     <use xlink:href="#DejaVuSans-51" transform="translate(1357.039062 0)"/>
     <use xlink:href="#DejaVuSans-3d" transform="translate(1435.75 0)"/>
     <use xlink:href="#DejaVuSans-38" transform="translate(1519.539062 0)"/>
     <use xlink:href="#DejaVuSans-2e" transform="translate(1583.162109 0)"/>
     <use xlink:href="#DejaVuSans-39" transform="translate(1614.949219 0)"/>
     <use xlink:href="#DejaVuSans-36" transform="translate(1678.572266 0)"/>
     <use xlink:href="#DejaVuSans-29" transform="translate(1742.195312 0)"/>
    </g>
   </g>
  </g>
 </g>
 <defs>
  <clipPath id="pa89fda7af4">
   <rect x="57.6" y="41.472" width="357.12" height="266.112"/>
  </clipPath>
 </defs>
</svg>
