<?xml version="1.0" encoding="utf-8" standalone="no"?>
<!DOCTYPE svg PUBLIC "-//W3C//DTD SVG 1.1//EN"
  "http://www.w3.org/Graphics/SVG/1.1/DTD/svg11.dtd">
<svg xmlns:xlink="http://www.w3.org/1999/xlink" width="460.8pt" height="345.6pt" viewBox="0 0 460.8 345.6" xmlns="http://www.w3.org/2000/svg" version="1.1">
 <metadata>
  <rdf:RDF xmlns:dc="http://purl.org/dc/elements/1.1/" xmlns:cc="http://creativecommons.org/ns#" xmlns:rdf="http://www.w3.org/1999/02/22-rdf-syntax-ns#">
   <cc:Work>
    <dc:type rdf:resource="http://purl.org/dc/dcmitype/StillImage"/>
    <dc:date>2025-12-10T14:11:06.352184</dc:date>
    <dc:format>image/svg+xml</dc:format>
    <dc:creator>
     <cc:Agent>
      <dc:title>Matplotlib v3.10.3, https://matplotlib.org/</dc:title>
     </cc:Agent>
    </dc:creator>
   </cc:Work>
  </rdf:RDF>
 </metadata>
 <defs>
  <style type="text/css">*{stroke-linejoin: round; stroke-linecap: butt}</style>
 </defs>
 <g id="figure_1">
  <g id="patch_1">
   <path d="M 0 345.6 
L 460.8 345.6 
L 460.8 0 
L 0 0 
z
" style="fill: #ffffff"/>
  </g>
  <g id="axes_1">
   <g id="patch_2">
    <path d="M 57.6 307.584 
L 414.72 307.584 
L 414.72 41.472 
L 57.6 41.472 
z
" style="fill: #ffffff"/>
   </g>
   <g id="matplotlib.axis_1">
    <g id="xtick_1">
     <g id="line2d_1">
      <defs>
       <path id="m8a6a9d1571" d="M 0 0 
L 0 3.5 
" style="stroke: #000000; stroke-width: 0.8"/>
      </defs>
      <g>
       <use xlink:href="#m8a6a9d1571" x="73.832727" y="307.584" style="stroke: #000000; stroke-width: 0.8"/>
      </g>
     </g>
     <g id="text_1">
      <!-- 0 -->
      <g transform="translate(69.060852 325.981656) scale(0.15 -0.15)">
       <defs>
        <path id="DejaVuSans-30" d="M 2034 4250 
Q 1547 4250 1301 3770 
Q 1056 3291 1056 2328 
Q 1056 1369 1301 889 
Q 1547 409 2034 409 
Q 2525 409 2770 889 
Q 3016 1369 3016 2328 
Q 3016 3291 2770 3770 
Q 2525 4250 2034 4250 
z
M 2034 4750 
Q 2819 4750 3233 4129 
Q 3647 3509 3647 2328 
Q 3647 1150 3233 529 
Q 2819 -91 2034 -91 
Q 1250 -91 836 529 
Q 422 1150 422 2328 
Q 422 3509 836 4129 
Q 1250 4750 2034 4750 
z
" transform="scale(0.015625)"/>
       </defs>
       <use xlink:href="#DejaVuSans-30"/>
      </g>
     </g>
    </g>
    <g id="xtick_2">
     <g id="line2d_2">
      <g>
       <use xlink:href="#m8a6a9d1571" x="154.996364" y="307.584" style="stroke: #000000; stroke-width: 0.8"/>
      </g>
     </g>
     <g id="text_2">
      <!-- 5 -->
      <g transform="translate(150.224489 325.981656) scale(0.15 -0.15)">
       <defs>
        <path id="DejaVuSans-35" d="M 691 4666 
L 3169 4666 
L 3169 4134 
L 1269 4134 
L 1269 2991 
Q 1406 3038 1543 3061 
Q 1681 3084 1819 3084 
Q 2600 3084 3056 2656 
Q 3513 2228 3513 1497 
Q 3513 744 3044 326 
Q 2575 -91 1722 -91 
Q 1428 -91 1123 -41 
Q 819 9 494 109 
L 494 744 
Q 775 591 1075 516 
Q 1375 441 1709 441 
Q 2250 441 2565 725 
Q 2881 1009 2881 1497 
Q 2881 1984 2565 2268 
Q 2250 2553 1709 2553 
Q 1456 2553 1204 2497 
Q 953 2441 691 2322 
L 691 4666 
z
" transform="scale(0.015625)"/>
       </defs>
       <use xlink:href="#DejaVuSans-35"/>
      </g>
     </g>
    </g>
    <g id="xtick_3">
     <g id="line2d_3">
      <g>
       <use xlink:href="#m8a6a9d1571" x="236.16" y="307.584" style="stroke: #000000; stroke-width: 0.8"/>
      </g>
     </g>
     <g id="text_3">
      <!-- 10 -->
      <g transform="translate(226.61625 325.981656) scale(0.15 -0.15)">
       <defs>
        <path id="DejaVuSans-31" d="M 794 531 
L 1825 531 
L 1825 4091 
L 703 3866 
L 703 4441 
L 1819 4666 
L 2450 4666 
L 2450 531 
L 3481 531 
L 3481 0 
L 794 0 
L 794 531 
z
" transform="scale(0.015625)"/>
       </defs>
       <use xlink:href="#DejaVuSans-31"/>
       <use xlink:href="#DejaVuSans-30" transform="translate(63.623047 0)"/>
      </g>
     </g>
    </g>
    <g id="xtick_4">
     <g id="line2d_4">
      <g>
       <use xlink:href="#m8a6a9d1571" x="317.323636" y="307.584" style="stroke: #000000; stroke-width: 0.8"/>
      </g>
     </g>
     <g id="text_4">
      <!-- 15 -->
      <g transform="translate(307.779886 325.981656) scale(0.15 -0.15)">
       <use xlink:href="#DejaVuSans-31"/>
       <use xlink:href="#DejaVuSans-35" transform="translate(63.623047 0)"/>
      </g>
     </g>
    </g>
    <g id="xtick_5">
     <g id="line2d_5">
      <g>
       <use xlink:href="#m8a6a9d1571" x="398.487273" y="307.584" style="stroke: #000000; stroke-width: 0.8"/>
      </g>
     </g>
     <g id="text_5">
      <!-- 20 -->
      <g transform="translate(388.943523 325.981656) scale(0.15 -0.15)">
       <defs>
        <path id="DejaVuSans-32" d="M 1228 531 
L 3431 531 
L 3431 0 
L 469 0 
L 469 531 
Q 828 903 1448 1529 
Q 2069 2156 2228 2338 
Q 2531 2678 2651 2914 
Q 2772 3150 2772 3378 
Q 2772 3750 2511 3984 
Q 2250 4219 1831 4219 
Q 1534 4219 1204 4116 
Q 875 4013 500 3803 
L 500 4441 
Q 881 4594 1212 4672 
Q 1544 4750 1819 4750 
Q 2544 4750 2975 4387 
Q 3406 4025 3406 3419 
Q 3406 3131 3298 2873 
Q 3191 2616 2906 2266 
Q 2828 2175 2409 1742 
Q 1991 1309 1228 531 
z
" transform="scale(0.015625)"/>
       </defs>
       <use xlink:href="#DejaVuSans-32"/>
       <use xlink:href="#DejaVuSans-30" transform="translate(63.623047 0)"/>
      </g>
     </g>
    </g>
   </g>
   <g id="matplotlib.axis_2">
    <g id="ytick_1">
     <g id="line2d_6">
      <defs>
       <path id="m2789b3dd68" d="M 0 0 
L -3.5 0 
" style="stroke: #000000; stroke-width: 0.8"/>
      </defs>
      <g>
       <use xlink:href="#m2789b3dd68" x="57.6" y="269.340522" style="stroke: #000000; stroke-width: 0.8"/>
      </g>
     </g>
     <g id="text_6">
      <!-- 5 -->
      <g transform="translate(41.05625 275.03935) scale(0.15 -0.15)">
       <use xlink:href="#DejaVuSans-35"/>
      </g>
     </g>
    </g>
    <g id="ytick_2">
     <g id="line2d_7">
      <g>
       <use xlink:href="#m2789b3dd68" x="57.6" y="215.847867" style="stroke: #000000; stroke-width: 0.8"/>
      </g>
     </g>
     <g id="text_7">
      <!-- 10 -->
      <g transform="translate(31.5125 221.546695) scale(0.15 -0.15)">
       <use xlink:href="#DejaVuSans-31"/>
       <use xlink:href="#DejaVuSans-30" transform="translate(63.623047 0)"/>
      </g>
     </g>
    </g>
    <g id="ytick_3">
     <g id="line2d_8">
      <g>
       <use xlink:href="#m2789b3dd68" x="57.6" y="162.355211" style="stroke: #000000; stroke-width: 0.8"/>
      </g>
     </g>
     <g id="text_8">
      <!-- 15 -->
      <g transform="translate(31.5125 168.054039) scale(0.15 -0.15)">
       <use xlink:href="#DejaVuSans-31"/>
       <use xlink:href="#DejaVuSans-35" transform="translate(63.623047 0)"/>
      </g>
     </g>
    </g>
    <g id="ytick_4">
     <g id="line2d_9">
      <g>
       <use xlink:href="#m2789b3dd68" x="57.6" y="108.862555" style="stroke: #000000; stroke-width: 0.8"/>
      </g>
     </g>
     <g id="text_9">
      <!-- 20 -->
      <g transform="translate(31.5125 114.561384) scale(0.15 -0.15)">
       <use xlink:href="#DejaVuSans-32"/>
       <use xlink:href="#DejaVuSans-30" transform="translate(63.623047 0)"/>
      </g>
     </g>
    </g>
    <g id="ytick_5">
     <g id="line2d_10">
      <g>
       <use xlink:href="#m2789b3dd68" x="57.6" y="55.3699" style="stroke: #000000; stroke-width: 0.8"/>
      </g>
     </g>
     <g id="text_10">
      <!-- 25 -->
      <g transform="translate(31.5125 61.068728) scale(0.15 -0.15)">
       <use xlink:href="#DejaVuSans-32"/>
       <use xlink:href="#DejaVuSans-35" transform="translate(63.623047 0)"/>
      </g>
     </g>
    </g>
   </g>
   <g id="line2d_11">
    <path d="M 73.832727 234.486752 
L 90.065455 182.75094 
L 106.298182 111.27708 
L 122.530909 186.261976 
L 138.763636 216.748966 
L 154.996364 231.135738 
L 171.229091 184.098924 
L 187.461818 211.310274 
L 203.694545 252.926461 
L 219.927273 223.256312 
L 236.16 261.58621 
L 252.392727 213.251019 
L 268.625455 207.138446 
L 284.858182 219.774197 
L 301.090909 243.475316 
L 317.323636 210.059469 
L 333.556364 250.939137 
L 349.789091 228.907736 
L 366.021818 251.957766 
L 382.254545 228.621595 
L 398.487273 201.076345 
" clip-path="url(#pa46d05f89e)" style="fill: none; stroke: #35b779; stroke-opacity: 0.5; stroke-width: 1.5; stroke-linecap: square"/>
   </g>
   <g id="line2d_12">
    <path d="M 73.832727 227.3829 
L 90.065455 227.31316 
L 106.298182 235.783033 
L 122.530909 229.22875 
L 138.763636 257.880407 
L 154.996364 201.037184 
L 171.229091 249.597267 
L 187.461818 221.914613 
L 203.694545 228.919004 
L 219.927273 255.700997 
L 236.16 262.818731 
L 252.392727 228.878021 
L 268.625455 239.990034 
L 284.858182 238.243021 
L 301.090909 230.647199 
L 317.323636 245.36786 
L 333.556364 228.703666 
L 349.789091 240.690268 
L 366.021818 231.505003 
L 382.254545 257.258693 
L 398.487273 241.694266 
" clip-path="url(#pa46d05f89e)" style="fill: none; stroke: #35b779; stroke-opacity: 0.5; stroke-width: 1.5; stroke-linecap: square"/>
   </g>
   <g id="line2d_13">
    <path d="M 73.832727 231.117982 
L 90.065455 153.262729 
L 106.298182 207.698511 
L 122.530909 244.206517 
L 138.763636 222.104746 
L 154.996364 217.060953 
L 171.229091 232.10507 
L 187.461818 255.377853 
L 203.694545 162.175849 
L 219.927273 227.430986 
L 236.16 231.034231 
L 252.392727 244.308482 
L 268.625455 245.64184 
L 284.858182 197.910912 
L 301.090909 211.34933 
L 317.323636 246.019106 
L 333.556364 225.77337 
L 349.789091 218.39937 
L 366.021818 195.470557 
L 382.254545 216.67341 
L 398.487273 221.463992 
" clip-path="url(#pa46d05f89e)" style="fill: none; stroke: #35b779; stroke-opacity: 0.5; stroke-width: 1.5; stroke-linecap: square"/>
   </g>
   <g id="line2d_14">
    <path d="M 73.832727 221.324354 
L 90.065455 167.127276 
L 106.298182 190.317892 
L 122.530909 244.636165 
L 138.763636 226.308406 
L 154.996364 260.934671 
L 171.229091 264.93737 
L 187.461818 266.389739 
L 203.694545 259.088315 
L 219.927273 239.655452 
L 236.16 259.783864 
L 252.392727 277.25996 
L 268.625455 264.027851 
L 284.858182 228.816741 
L 301.090909 253.624226 
L 317.323636 201.344353 
L 333.556364 274.697975 
L 349.789091 255.953903 
L 366.021818 241.335817 
L 382.254545 245.382335 
L 398.487273 235.473216 
" clip-path="url(#pa46d05f89e)" style="fill: none; stroke: #35b779; stroke-opacity: 0.5; stroke-width: 1.5; stroke-linecap: square"/>
   </g>
   <g id="line2d_15">
    <path d="M 73.832727 249.079714 
L 90.065455 215.630657 
L 106.298182 263.703196 
L 122.530909 236.453529 
L 138.763636 269.22064 
L 154.996364 242.387592 
L 171.229091 260.013301 
L 187.461818 259.821481 
L 203.694545 279.954727 
L 219.927273 243.948461 
L 236.16 276.916862 
L 252.392727 277.523432 
L 268.625455 270.946416 
L 284.858182 285.962846 
L 301.090909 280.124878 
L 317.323636 278.189281 
L 333.556364 282.909421 
L 349.789091 260.505351 
L 366.021818 278.030466 
L 382.254545 271.848439 
L 398.487273 281.433248 
" clip-path="url(#pa46d05f89e)" style="fill: none; stroke: #35b779; stroke-opacity: 0.5; stroke-width: 1.5; stroke-linecap: square"/>
   </g>
   <g id="line2d_16">
    <path d="M 73.832727 211.112653 
L 90.065455 191.259788 
L 106.298182 226.34095 
L 122.530909 175.804653 
L 138.763636 168.939291 
L 154.996364 182.301429 
L 171.229091 228.219727 
L 187.461818 238.4523 
L 203.694545 253.385529 
L 219.927273 256.844142 
L 236.16 236.353211 
L 252.392727 227.622687 
L 268.625455 263.975031 
L 284.858182 245.905362 
L 301.090909 243.78559 
L 317.323636 213.136839 
L 333.556364 278.090384 
L 349.789091 257.391453 
L 366.021818 257.465556 
L 382.254545 248.198557 
L 398.487273 258.951679 
" clip-path="url(#pa46d05f89e)" style="fill: none; stroke: #35b779; stroke-opacity: 0.5; stroke-width: 1.5; stroke-linecap: square"/>
   </g>
   <g id="line2d_17">
    <path d="M 73.832727 242.257467 
L 90.065455 156.442179 
L 106.298182 186.074623 
L 122.530909 210.881007 
L 138.763636 226.607583 
L 154.996364 235.039134 
L 171.229091 261.272765 
L 187.461818 259.450957 
L 203.694545 265.29416 
L 219.927273 252.86784 
L 236.16 188.60117 
L 252.392727 213.665204 
L 268.625455 263.639846 
L 284.858182 237.430614 
L 301.090909 252.010223 
L 317.323636 234.927022 
L 333.556364 247.330462 
L 349.789091 233.783001 
L 366.021818 241.388125 
L 382.254545 225.844698 
L 398.487273 246.226318 
" clip-path="url(#pa46d05f89e)" style="fill: none; stroke: #35b779; stroke-opacity: 0.5; stroke-width: 1.5; stroke-linecap: square"/>
   </g>
   <g id="line2d_18">
    <path d="M 73.832727 248.728439 
L 90.065455 232.563239 
L 106.298182 192.086745 
L 122.530909 171.997181 
L 138.763636 228.589184 
L 154.996364 234.87358 
L 171.229091 276.298227 
L 187.461818 256.037953 
L 203.694545 282.093356 
L 219.927273 277.90161 
L 236.16 280.610494 
L 252.392727 248.761799 
L 268.625455 262.787421 
L 284.858182 248.323887 
L 301.090909 265.307026 
L 317.323636 256.951765 
L 333.556364 250.803906 
L 349.789091 260.888098 
L 366.021818 243.837095 
L 382.254545 260.891871 
L 398.487273 251.934684 
" clip-path="url(#pa46d05f89e)" style="fill: none; stroke: #35b779; stroke-opacity: 0.5; stroke-width: 1.5; stroke-linecap: square"/>
   </g>
   <g id="line2d_19">
    <path d="M 73.832727 229.793161 
L 90.065455 261.161002 
L 106.298182 239.558344 
L 122.530909 227.432089 
L 138.763636 250.89902 
L 154.996364 281.521134 
L 171.229091 284.840272 
L 187.461818 265.571189 
L 203.694545 287.432449 
L 219.927273 282.563807 
L 236.16 279.932503 
L 252.392727 274.614015 
L 268.625455 253.233579 
L 284.858182 267.965724 
L 301.090909 246.435592 
L 317.323636 273.365497 
L 333.556364 224.280864 
L 349.789091 273.788244 
L 366.021818 249.49298 
L 382.254545 238.713868 
L 398.487273 240.949347 
" clip-path="url(#pa46d05f89e)" style="fill: none; stroke: #35b779; stroke-opacity: 0.5; stroke-width: 1.5; stroke-linecap: square"/>
   </g>
   <g id="line2d_20">
    <path d="M 73.832727 220.087034 
L 90.065455 265.428381 
L 106.298182 260.302664 
L 122.530909 214.808922 
L 138.763636 228.658553 
L 154.996364 245.308884 
L 171.229091 237.847055 
L 187.461818 199.183252 
L 203.694545 226.603118 
L 219.927273 242.493158 
L 236.16 203.739493 
L 252.392727 209.729246 
L 268.625455 243.659897 
L 284.858182 227.927581 
L 301.090909 258.277072 
L 317.323636 249.457118 
L 333.556364 245.77486 
L 349.789091 240.431017 
L 366.021818 198.091506 
L 382.254545 252.237582 
L 398.487273 178.880326 
" clip-path="url(#pa46d05f89e)" style="fill: none; stroke: #35b779; stroke-opacity: 0.5; stroke-width: 1.5; stroke-linecap: square"/>
   </g>
   <g id="line2d_21">
    <path d="M 73.832727 215.21255 
L 90.065455 172.798222 
L 106.298182 232.860675 
L 122.530909 241.901832 
L 138.763636 270.093308 
L 154.996364 228.907718 
L 171.229091 171.073406 
L 187.461818 205.432442 
L 203.694545 183.612096 
L 219.927273 221.174453 
L 236.16 276.734636 
L 252.392727 284.02426 
L 268.625455 225.02612 
L 284.858182 243.672042 
L 301.090909 235.880007 
L 317.323636 268.868221 
L 333.556364 269.048222 
L 349.789091 275.00583 
L 366.021818 270.758609 
L 382.254545 271.586215 
L 398.487273 245.708886 
" clip-path="url(#pa46d05f89e)" style="fill: none; stroke: #35b779; stroke-opacity: 0.5; stroke-width: 1.5; stroke-linecap: square"/>
   </g>
   <g id="line2d_22">
    <path d="M 73.832727 261.197297 
L 90.065455 246.212096 
L 106.298182 266.747474 
L 122.530909 284.813735 
L 138.763636 283.383335 
L 154.996364 266.857385 
L 171.229091 249.465102 
L 187.461818 253.88585 
L 203.694545 278.301317 
L 219.927273 279.712227 
L 236.16 292.246679 
L 252.392727 283.750697 
L 268.625455 280.344462 
L 284.858182 290.91399 
L 301.090909 290.052814 
L 317.323636 292.652302 
L 333.556364 295.120988 
L 349.789091 290.109392 
L 366.021818 291.678072 
L 382.254545 289.583486 
L 398.487273 291.415405 
" clip-path="url(#pa46d05f89e)" style="fill: none; stroke: #35b779; stroke-opacity: 0.5; stroke-width: 1.5; stroke-linecap: square"/>
   </g>
   <g id="line2d_23">
    <path d="M 73.832727 209.719227 
L 90.065455 205.002325 
L 106.298182 208.219723 
L 122.530909 211.500808 
L 138.763636 235.885276 
L 154.996364 276.318095 
L 171.229091 282.01206 
L 187.461818 257.884972 
L 203.694545 269.137152 
L 219.927273 260.816942 
L 236.16 273.758358 
L 252.392727 258.131498 
L 268.625455 268.50798 
L 284.858182 261.379005 
L 301.090909 249.127206 
L 317.323636 278.49265 
L 333.556364 278.422394 
L 349.789091 280.441331 
L 366.021818 262.330728 
L 382.254545 276.492462 
L 398.487273 275.099726 
" clip-path="url(#pa46d05f89e)" style="fill: none; stroke: #35b779; stroke-opacity: 0.5; stroke-width: 1.5; stroke-linecap: square"/>
   </g>
   <g id="line2d_24">
    <path d="M 73.832727 204.709245 
L 90.065455 212.376463 
L 106.298182 262.667974 
L 122.530909 249.154167 
L 138.763636 270.508052 
L 154.996364 274.352218 
L 171.229091 274.638081 
L 187.461818 281.347381 
L 203.694545 280.57085 
L 219.927273 271.731086 
L 236.16 283.300706 
L 252.392727 285.042265 
L 268.625455 272.775637 
L 284.858182 293.968073 
L 301.090909 267.678197 
L 317.323636 262.959895 
L 333.556364 285.691791 
L 349.789091 282.455359 
L 366.021818 292.409924 
L 382.254545 290.289502 
L 398.487273 275.004633 
" clip-path="url(#pa46d05f89e)" style="fill: none; stroke: #35b779; stroke-opacity: 0.5; stroke-width: 1.5; stroke-linecap: square"/>
   </g>
   <g id="line2d_25">
    <path d="M 73.832727 195.916639 
L 90.065455 272.221117 
L 106.298182 257.001014 
L 122.530909 258.825353 
L 138.763636 260.434882 
L 154.996364 241.029391 
L 171.229091 253.80105 
L 187.461818 215.851681 
L 203.694545 261.462538 
L 219.927273 268.969122 
L 236.16 243.272955 
L 252.392727 193.075271 
L 268.625455 274.809717 
L 284.858182 240.153223 
L 301.090909 255.762427 
L 317.323636 273.523603 
L 333.556364 249.139215 
L 349.789091 272.058199 
L 366.021818 277.012487 
L 382.254545 262.986075 
L 398.487273 277.519085 
" clip-path="url(#pa46d05f89e)" style="fill: none; stroke: #35b779; stroke-opacity: 0.5; stroke-width: 1.5; stroke-linecap: square"/>
   </g>
   <g id="line2d_26">
    <path d="M 73.832727 234.479464 
L 90.065455 276.370125 
L 106.298182 276.764471 
L 122.530909 256.219815 
L 138.763636 272.425359 
L 154.996364 272.398445 
L 171.229091 271.874488 
L 187.461818 259.858247 
L 203.694545 263.84235 
L 219.927273 260.139376 
L 236.16 284.106276 
L 252.392727 269.73416 
L 268.625455 287.802762 
L 284.858182 279.192307 
L 301.090909 273.663368 
L 317.323636 272.810458 
L 333.556364 270.726777 
L 349.789091 273.958094 
L 366.021818 272.128356 
L 382.254545 270.853858 
L 398.487273 258.972021 
" clip-path="url(#pa46d05f89e)" style="fill: none; stroke: #35b779; stroke-opacity: 0.5; stroke-width: 1.5; stroke-linecap: square"/>
   </g>
   <g id="line2d_27">
    <path d="M 73.832727 165.192286 
L 90.065455 189.575196 
L 106.298182 201.341163 
L 122.530909 215.310553 
L 138.763636 209.092326 
L 154.996364 221.575325 
L 171.229091 198.57506 
L 187.461818 179.67693 
L 203.694545 193.834657 
L 219.927273 219.413936 
L 236.16 219.893312 
L 252.392727 222.856387 
L 268.625455 213.62589 
L 284.858182 230.532682 
L 301.090909 235.078999 
L 317.323636 235.025276 
L 333.556364 231.942283 
L 349.789091 241.191283 
L 366.021818 188.815144 
L 382.254545 219.745152 
L 398.487273 228.730188 
" clip-path="url(#pa46d05f89e)" style="fill: none; stroke: #35b779; stroke-opacity: 0.5; stroke-width: 1.5; stroke-linecap: square"/>
   </g>
   <g id="line2d_28">
    <path d="M 73.832727 157.048346 
L 90.065455 226.72316 
L 106.298182 225.110758 
L 122.530909 221.149331 
L 138.763636 218.61281 
L 154.996364 202.579001 
L 171.229091 233.189278 
L 187.461818 243.476087 
L 203.694545 249.024194 
L 219.927273 251.452265 
L 236.16 270.24008 
L 252.392727 281.064442 
L 268.625455 236.270667 
L 284.858182 270.259844 
L 301.090909 221.460701 
L 317.323636 268.153682 
L 333.556364 284.775065 
L 349.789091 274.857642 
L 366.021818 242.380165 
L 382.254545 233.2147 
L 398.487273 227.553523 
" clip-path="url(#pa46d05f89e)" style="fill: none; stroke: #35b779; stroke-opacity: 0.5; stroke-width: 1.5; stroke-linecap: square"/>
   </g>
   <g id="line2d_29">
    <path d="M 73.832727 236.523944 
L 90.065455 252.127376 
L 106.298182 259.287465 
L 122.530909 243.20631 
L 138.763636 279.864959 
L 154.996364 282.523079 
L 171.229091 264.465045 
L 187.461818 260.156835 
L 203.694545 259.427012 
L 219.927273 260.426366 
L 236.16 250.401403 
L 252.392727 256.00676 
L 268.625455 251.352507 
L 284.858182 267.228822 
L 301.090909 225.409645 
L 317.323636 267.183733 
L 333.556364 247.369034 
L 349.789091 266.322276 
L 366.021818 239.750658 
L 382.254545 244.821803 
L 398.487273 220.711189 
" clip-path="url(#pa46d05f89e)" style="fill: none; stroke: #35b779; stroke-opacity: 0.5; stroke-width: 1.5; stroke-linecap: square"/>
   </g>
   <g id="line2d_30">
    <path d="M 73.832727 191.586184 
L 90.065455 186.506812 
L 106.298182 179.503518 
L 122.530909 220.411792 
L 138.763636 166.262362 
L 154.996364 201.215593 
L 171.229091 228.633448 
L 187.461818 204.875401 
L 203.694545 226.058097 
L 219.927273 270.078091 
L 236.16 266.732857 
L 252.392727 280.565411 
L 268.625455 260.169394 
L 284.858182 261.101367 
L 301.090909 260.103769 
L 317.323636 288.225577 
L 333.556364 252.722251 
L 349.789091 262.234404 
L 366.021818 276.259702 
L 382.254545 203.46641 
L 398.487273 260.293527 
" clip-path="url(#pa46d05f89e)" style="fill: none; stroke: #35b779; stroke-opacity: 0.5; stroke-width: 1.5; stroke-linecap: square"/>
   </g>
   <g id="line2d_31">
    <path d="M 73.832727 277.183073 
L 90.065455 264.680191 
L 106.298182 235.849619 
L 122.530909 265.452302 
L 138.763636 251.142818 
L 154.996364 251.686702 
L 171.229091 277.688359 
L 187.461818 268.174229 
L 203.694545 261.805348 
L 219.927273 260.368015 
L 236.16 274.578757 
L 252.392727 285.544198 
L 268.625455 264.898447 
L 284.858182 259.251754 
L 301.090909 260.816321 
L 317.323636 267.981368 
L 333.556364 241.753197 
L 349.789091 274.173371 
L 366.021818 262.110163 
L 382.254545 264.584248 
L 398.487273 265.404273 
" clip-path="url(#pa46d05f89e)" style="fill: none; stroke: #35b779; stroke-opacity: 0.5; stroke-width: 1.5; stroke-linecap: square"/>
   </g>
   <g id="line2d_32">
    <path d="M 73.832727 231.62504 
L 90.065455 222.07744 
L 106.298182 220.872567 
L 122.530909 235.855357 
L 138.763636 240.482388 
L 154.996364 206.054945 
L 171.229091 265.044381 
L 187.461818 220.31372 
L 203.694545 224.464607 
L 219.927273 236.786365 
L 236.16 263.105732 
L 252.392727 227.242525 
L 268.625455 259.598686 
L 284.858182 264.216166 
L 301.090909 251.473875 
L 317.323636 232.483242 
L 333.556364 248.161361 
L 349.789091 239.535763 
L 366.021818 250.572661 
L 382.254545 264.12469 
L 398.487273 268.604315 
" clip-path="url(#pa46d05f89e)" style="fill: none; stroke: #35b779; stroke-opacity: 0.5; stroke-width: 1.5; stroke-linecap: square"/>
   </g>
   <g id="line2d_33">
    <path d="M 73.832727 264.763384 
L 90.065455 212.074187 
L 106.298182 252.229413 
L 122.530909 282.228912 
L 138.763636 283.701496 
L 154.996364 273.47921 
L 171.229091 270.210825 
L 187.461818 280.421602 
L 203.694545 289.004954 
L 219.927273 270.809787 
L 236.16 263.148317 
L 252.392727 274.211071 
L 268.625455 243.186124 
L 284.858182 272.368095 
L 301.090909 246.584363 
L 317.323636 266.668967 
L 333.556364 208.698369 
L 349.789091 234.125917 
L 366.021818 257.763747 
L 382.254545 256.882536 
L 398.487273 282.797382 
" clip-path="url(#pa46d05f89e)" style="fill: none; stroke: #35b779; stroke-opacity: 0.5; stroke-width: 1.5; stroke-linecap: square"/>
   </g>
   <g id="line2d_34">
    <path d="M 73.832727 224.98805 
L 90.065455 224.543703 
L 106.298182 223.126228 
L 122.530909 246.432173 
L 138.763636 226.438961 
L 154.996364 242.19632 
L 171.229091 238.52557 
L 187.461818 242.61666 
L 203.694545 260.212716 
L 219.927273 248.091432 
L 236.16 258.791356 
L 252.392727 259.327709 
L 268.625455 239.222012 
L 284.858182 263.938154 
L 301.090909 242.584423 
L 317.323636 245.984772 
L 333.556364 247.380388 
L 349.789091 260.607855 
L 366.021818 254.344374 
L 382.254545 245.534088 
L 398.487273 254.251739 
" clip-path="url(#pa46d05f89e)" style="fill: none; stroke: #35b779; stroke-opacity: 0.5; stroke-width: 1.5; stroke-linecap: square"/>
   </g>
   <g id="line2d_35">
    <path d="M 73.832727 269.230948 
L 90.065455 232.295023 
L 106.298182 211.99847 
L 122.530909 248.170236 
L 138.763636 241.754187 
L 154.996364 179.236635 
L 171.229091 266.159752 
L 187.461818 265.006638 
L 203.694545 259.980353 
L 219.927273 269.421787 
L 236.16 237.826372 
L 252.392727 235.603439 
L 268.625455 235.865735 
L 284.858182 265.730985 
L 301.090909 209.927616 
L 317.323636 230.387684 
L 333.556364 231.198239 
L 349.789091 238.221792 
L 366.021818 250.127468 
L 382.254545 227.395348 
L 398.487273 238.816842 
" clip-path="url(#pa46d05f89e)" style="fill: none; stroke: #35b779; stroke-opacity: 0.5; stroke-width: 1.5; stroke-linecap: square"/>
   </g>
   <g id="line2d_36">
    <path d="M 73.832727 221.087394 
L 90.065455 136.256502 
L 106.298182 102.802664 
L 122.530909 190.050694 
L 138.763636 208.075364 
L 154.996364 241.024316 
L 171.229091 247.175816 
L 187.461818 264.610871 
L 203.694545 252.236297 
L 219.927273 244.054369 
L 236.16 250.771204 
L 252.392727 248.820398 
L 268.625455 282.880031 
L 284.858182 262.539109 
L 301.090909 254.576784 
L 317.323636 271.12437 
L 333.556364 282.201069 
L 349.789091 264.135585 
L 366.021818 270.589946 
L 382.254545 265.139644 
L 398.487273 284.728038 
" clip-path="url(#pa46d05f89e)" style="fill: none; stroke: #35b779; stroke-opacity: 0.5; stroke-width: 1.5; stroke-linecap: square"/>
   </g>
   <g id="line2d_37">
    <path d="M 73.832727 53.568 
L 90.065455 154.455351 
L 106.298182 213.20736 
L 122.530909 254.640879 
L 138.763636 266.483102 
L 154.996364 272.15284 
L 171.229091 250.028193 
L 187.461818 224.196721 
L 203.694545 258.336931 
L 219.927273 283.686913 
L 236.16 260.962566 
L 252.392727 257.600098 
L 268.625455 260.4456 
L 284.858182 269.425117 
L 301.090909 276.602006 
L 317.323636 270.220037 
L 333.556364 261.076883 
L 349.789091 282.232187 
L 366.021818 268.139872 
L 382.254545 274.309188 
L 398.487273 244.719799 
" clip-path="url(#pa46d05f89e)" style="fill: none; stroke: #35b779; stroke-opacity: 0.5; stroke-width: 1.5; stroke-linecap: square"/>
   </g>
   <g id="line2d_38">
    <path d="M 73.832727 203.16284 
L 90.065455 235.166908 
L 106.298182 241.643227 
L 122.530909 269.518824 
L 138.763636 276.339101 
L 154.996364 285.468314 
L 171.229091 258.463143 
L 187.461818 272.652135 
L 203.694545 256.751143 
L 219.927273 275.009309 
L 236.16 287.598853 
L 252.392727 280.631833 
L 268.625455 268.177181 
L 284.858182 230.481495 
L 301.090909 263.091745 
L 317.323636 246.901548 
L 333.556364 275.444537 
L 349.789091 274.927563 
L 366.021818 244.216328 
L 382.254545 251.577837 
L 398.487273 257.02439 
" clip-path="url(#pa46d05f89e)" style="fill: none; stroke: #35b779; stroke-opacity: 0.5; stroke-width: 1.5; stroke-linecap: square"/>
   </g>
   <g id="line2d_39">
    <path d="M 73.832727 265.020714 
L 90.065455 238.996343 
L 106.298182 238.658928 
L 122.530909 228.51287 
L 138.763636 259.317837 
L 154.996364 270.261511 
L 171.229091 265.698989 
L 187.461818 267.470675 
L 203.694545 269.612467 
L 219.927273 266.826606 
L 236.16 272.703515 
L 252.392727 274.785088 
L 268.625455 251.570787 
L 284.858182 259.699227 
L 301.090909 266.635588 
L 317.323636 264.441271 
L 333.556364 247.833803 
L 349.789091 264.143342 
L 366.021818 255.043401 
L 382.254545 252.090668 
L 398.487273 259.5384 
" clip-path="url(#pa46d05f89e)" style="fill: none; stroke: #35b779; stroke-opacity: 0.5; stroke-width: 1.5; stroke-linecap: square"/>
   </g>
   <g id="line2d_40">
    <path d="M 73.832727 82.643183 
L 90.065455 265.974791 
L 106.298182 254.694124 
L 122.530909 247.901083 
L 138.763636 257.835141 
L 154.996364 257.963054 
L 171.229091 282.69388 
L 187.461818 269.048018 
L 203.694545 275.907713 
L 219.927273 281.204369 
L 236.16 260.818044 
L 252.392727 286.33566 
L 268.625455 229.303999 
L 284.858182 256.080675 
L 301.090909 234.357631 
L 317.323636 270.094875 
L 333.556364 223.314674 
L 349.789091 258.922122 
L 366.021818 238.69639 
L 382.254545 246.080925 
L 398.487273 236.340981 
" clip-path="url(#pa46d05f89e)" style="fill: none; stroke: #35b779; stroke-opacity: 0.5; stroke-width: 1.5; stroke-linecap: square"/>
   </g>
   <g id="line2d_41">
    <path d="M 73.832727 237.166657 
L 90.065455 245.598 
L 106.298182 238.988331 
L 122.530909 242.06073 
L 138.763636 248.964599 
L 154.996364 257.311073 
L 171.229091 196.076488 
L 187.461818 229.634557 
L 203.694545 231.081489 
L 219.927273 245.260629 
L 236.16 213.908643 
L 252.392727 246.013367 
L 268.625455 247.725853 
L 284.858182 235.326851 
L 301.090909 253.019875 
L 317.323636 234.469531 
L 333.556364 254.692427 
L 349.789091 249.649066 
L 366.021818 232.830294 
L 382.254545 251.95347 
L 398.487273 256.867837 
" clip-path="url(#pa46d05f89e)" style="fill: none; stroke: #35b779; stroke-opacity: 0.5; stroke-width: 1.5; stroke-linecap: square"/>
   </g>
   <g id="line2d_42">
    <path d="M 73.832727 221.489661 
L 90.065455 267.993316 
L 106.298182 262.341822 
L 122.530909 266.090425 
L 138.763636 265.074509 
L 154.996364 271.854426 
L 171.229091 273.14724 
L 187.461818 246.914497 
L 203.694545 288.528319 
L 219.927273 278.899169 
L 236.16 289.336468 
L 252.392727 285.527955 
L 268.625455 273.092605 
L 284.858182 264.080303 
L 301.090909 284.452413 
L 317.323636 281.966397 
L 333.556364 245.727138 
L 349.789091 283.414244 
L 366.021818 270.933237 
L 382.254545 276.07036 
L 398.487273 272.091564 
" clip-path="url(#pa46d05f89e)" style="fill: none; stroke: #35b779; stroke-opacity: 0.5; stroke-width: 1.5; stroke-linecap: square"/>
   </g>
   <g id="line2d_43">
    <path d="M 73.832727 266.181461 
L 90.065455 235.719923 
L 106.298182 237.5085 
L 122.530909 257.930711 
L 138.763636 279.716937 
L 154.996364 221.990806 
L 171.229091 254.333079 
L 187.461818 249.409646 
L 203.694545 239.808902 
L 219.927273 276.372822 
L 236.16 278.077183 
L 252.392727 267.811084 
L 268.625455 280.150685 
L 284.858182 234.366807 
L 301.090909 248.509064 
L 317.323636 252.078241 
L 333.556364 252.359333 
L 349.789091 263.27965 
L 366.021818 281.126594 
L 382.254545 272.322687 
L 398.487273 281.953248 
" clip-path="url(#pa46d05f89e)" style="fill: none; stroke: #35b779; stroke-opacity: 0.5; stroke-width: 1.5; stroke-linecap: square"/>
   </g>
   <g id="line2d_44">
    <path d="M 73.832727 245.970872 
L 90.065455 227.176442 
L 106.298182 230.768074 
L 122.530909 250.336317 
L 138.763636 260.277989 
L 154.996364 277.253295 
L 171.229091 216.87401 
L 187.461818 249.861305 
L 203.694545 274.240582 
L 219.927273 266.45363 
L 236.16 234.667198 
L 252.392727 261.742959 
L 268.625455 269.679287 
L 284.858182 266.831897 
L 301.090909 258.113524 
L 317.323636 238.384764 
L 333.556364 254.676304 
L 349.789091 282.597216 
L 366.021818 232.645154 
L 382.254545 257.177561 
L 398.487273 209.263494 
" clip-path="url(#pa46d05f89e)" style="fill: none; stroke: #35b779; stroke-opacity: 0.5; stroke-width: 1.5; stroke-linecap: square"/>
   </g>
   <g id="line2d_45">
    <path d="M 73.832727 272.632877 
L 90.065455 262.872609 
L 106.298182 281.34598 
L 122.530909 259.592018 
L 138.763636 277.470086 
L 154.996364 278.235797 
L 171.229091 276.321338 
L 187.461818 279.228493 
L 203.694545 280.589673 
L 219.927273 284.534245 
L 236.16 262.29792 
L 252.392727 257.199556 
L 268.625455 285.935315 
L 284.858182 269.595231 
L 301.090909 275.905862 
L 317.323636 283.067674 
L 333.556364 278.362583 
L 349.789091 274.777808 
L 366.021818 282.674132 
L 382.254545 269.158703 
L 398.487273 282.381359 
" clip-path="url(#pa46d05f89e)" style="fill: none; stroke: #35b779; stroke-opacity: 0.5; stroke-width: 1.5; stroke-linecap: square"/>
   </g>
   <g id="line2d_46">
    <path d="M 73.832727 160.477793 
L 90.065455 226.126187 
L 106.298182 229.686526 
L 122.530909 195.116332 
L 138.763636 218.544205 
L 154.996364 247.515072 
L 171.229091 257.903587 
L 187.461818 269.855481 
L 203.694545 260.784476 
L 219.927273 256.082119 
L 236.16 282.716165 
L 252.392727 268.846229 
L 268.625455 285.068172 
L 284.858182 281.763634 
L 301.090909 282.162499 
L 317.323636 278.175946 
L 333.556364 283.616539 
L 349.789091 274.921824 
L 366.021818 277.702173 
L 382.254545 279.29921 
L 398.487273 279.867352 
" clip-path="url(#pa46d05f89e)" style="fill: none; stroke: #35b779; stroke-opacity: 0.5; stroke-width: 1.5; stroke-linecap: square"/>
   </g>
   <g id="line2d_47">
    <path d="M 73.832727 244.12152 
L 90.065455 222.138327 
L 106.298182 206.995301 
L 122.530909 199.596629 
L 138.763636 245.534133 
L 154.996364 278.600669 
L 171.229091 278.125337 
L 187.461818 282.931307 
L 203.694545 279.941601 
L 219.927273 275.522813 
L 236.16 225.130788 
L 252.392727 245.197869 
L 268.625455 251.683673 
L 284.858182 255.818707 
L 301.090909 274.222684 
L 317.323636 264.605139 
L 333.556364 263.378646 
L 349.789091 276.766609 
L 366.021818 274.707012 
L 382.254545 239.25244 
L 398.487273 274.922412 
" clip-path="url(#pa46d05f89e)" style="fill: none; stroke: #35b779; stroke-opacity: 0.5; stroke-width: 1.5; stroke-linecap: square"/>
   </g>
   <g id="line2d_48">
    <path d="M 73.832727 210.025581 
L 90.065455 196.464397 
L 106.298182 226.242364 
L 122.530909 220.077093 
L 138.763636 243.903628 
L 154.996364 215.187397 
L 171.229091 241.63334 
L 187.461818 234.169016 
L 203.694545 228.696986 
L 219.927273 230.99454 
L 236.16 231.382998 
L 252.392727 204.644483 
L 268.625455 215.169806 
L 284.858182 218.795997 
L 301.090909 216.492658 
L 317.323636 224.769929 
L 333.556364 222.804976 
L 349.789091 191.360858 
L 366.021818 239.672912 
L 382.254545 193.677718 
L 398.487273 227.735346 
" clip-path="url(#pa46d05f89e)" style="fill: none; stroke: #35b779; stroke-opacity: 0.5; stroke-width: 1.5; stroke-linecap: square"/>
   </g>
   <g id="line2d_49">
    <path d="M 73.832727 268.85597 
L 90.065455 256.661237 
L 106.298182 246.989291 
L 122.530909 201.324027 
L 138.763636 237.303458 
L 154.996364 258.458649 
L 171.229091 181.839105 
L 187.461818 224.077455 
L 203.694545 150.364317 
L 219.927273 268.287672 
L 236.16 228.348379 
L 252.392727 259.10466 
L 268.625455 246.602707 
L 284.858182 242.334181 
L 301.090909 236.209162 
L 317.323636 256.192738 
L 333.556364 249.970741 
L 349.789091 224.153043 
L 366.021818 234.808115 
L 382.254545 212.08858 
L 398.487273 236.803803 
" clip-path="url(#pa46d05f89e)" style="fill: none; stroke: #35b779; stroke-opacity: 0.5; stroke-width: 1.5; stroke-linecap: square"/>
   </g>
   <g id="line2d_50">
    <path d="M 73.832727 283.828071 
L 90.065455 265.012898 
L 106.298182 264.313457 
L 122.530909 244.507114 
L 138.763636 256.644537 
L 154.996364 274.907429 
L 171.229091 289.845203 
L 187.461818 281.143626 
L 203.694545 274.03128 
L 219.927273 288.223181 
L 236.16 240.815205 
L 252.392727 284.750137 
L 268.625455 265.68476 
L 284.858182 279.351217 
L 301.090909 270.913287 
L 317.323636 274.161068 
L 333.556364 249.561207 
L 349.789091 281.182004 
L 366.021818 249.784644 
L 382.254545 266.439466 
L 398.487273 266.660592 
" clip-path="url(#pa46d05f89e)" style="fill: none; stroke: #35b779; stroke-opacity: 0.5; stroke-width: 1.5; stroke-linecap: square"/>
   </g>
   <g id="line2d_51">
    <path d="M 73.832727 264.924944 
L 90.065455 261.368468 
L 106.298182 275.688097 
L 122.530909 266.567264 
L 138.763636 275.451737 
L 154.996364 269.62668 
L 171.229091 279.482104 
L 187.461818 283.620844 
L 203.694545 265.782011 
L 219.927273 281.240213 
L 236.16 261.79838 
L 252.392727 264.580493 
L 268.625455 272.83758 
L 284.858182 277.090322 
L 301.090909 263.662766 
L 317.323636 275.240505 
L 333.556364 261.237789 
L 349.789091 266.651583 
L 366.021818 272.565207 
L 382.254545 267.595553 
L 398.487273 271.458173 
" clip-path="url(#pa46d05f89e)" style="fill: none; stroke: #35b779; stroke-opacity: 0.5; stroke-width: 1.5; stroke-linecap: square"/>
   </g>
   <g id="line2d_52">
    <path d="M 73.832727 252.416077 
L 90.065455 254.71972 
L 106.298182 268.660326 
L 122.530909 261.95487 
L 138.763636 269.443611 
L 154.996364 273.09537 
L 171.229091 270.693244 
L 187.461818 287.791933 
L 203.694545 292.37479 
L 219.927273 283.293984 
L 236.16 281.422357 
L 252.392727 278.521027 
L 268.625455 287.905681 
L 284.858182 278.16279 
L 301.090909 295.488 
L 317.323636 277.123879 
L 333.556364 285.811562 
L 349.789091 282.201249 
L 366.021818 291.453471 
L 382.254545 279.561426 
L 398.487273 293.002497 
" clip-path="url(#pa46d05f89e)" style="fill: none; stroke: #35b779; stroke-opacity: 0.5; stroke-width: 1.5; stroke-linecap: square"/>
   </g>
   <g id="line2d_53">
    <path d="M 73.832727 251.219391 
L 90.065455 169.693363 
L 106.298182 221.097683 
L 122.530909 224.655395 
L 138.763636 266.953002 
L 154.996364 256.50057 
L 171.229091 120.702179 
L 187.461818 226.983455 
L 203.694545 257.348683 
L 219.927273 189.881057 
L 236.16 241.661395 
L 252.392727 253.861224 
L 268.625455 265.333656 
L 284.858182 268.92544 
L 301.090909 264.874122 
L 317.323636 278.308177 
L 333.556364 277.244728 
L 349.789091 264.46317 
L 366.021818 272.682483 
L 382.254545 255.969609 
L 398.487273 263.624755 
" clip-path="url(#pa46d05f89e)" style="fill: none; stroke: #35b779; stroke-opacity: 0.5; stroke-width: 1.5; stroke-linecap: square"/>
   </g>
   <g id="line2d_54">
    <path d="M 73.832727 236.044055 
L 90.065455 188.790212 
L 106.298182 162.389912 
L 122.530909 214.87102 
L 138.763636 276.072426 
L 154.996364 216.72373 
L 171.229091 278.654636 
L 187.461818 264.710078 
L 203.694545 280.77085 
L 219.927273 274.381439 
L 236.16 236.161469 
L 252.392727 281.641607 
L 268.625455 278.331227 
L 284.858182 275.901721 
L 301.090909 274.297786 
L 317.323636 272.025971 
L 333.556364 276.289127 
L 349.789091 281.126794 
L 366.021818 247.204592 
L 382.254545 268.083089 
L 398.487273 278.171581 
" clip-path="url(#pa46d05f89e)" style="fill: none; stroke: #35b779; stroke-opacity: 0.5; stroke-width: 1.5; stroke-linecap: square"/>
   </g>
   <g id="line2d_55">
    <path d="M 73.832727 172.428873 
L 90.065455 216.887029 
L 106.298182 236.148494 
L 122.530909 234.539307 
L 138.763636 191.564441 
L 154.996364 225.838255 
L 171.229091 237.602464 
L 187.461818 233.920634 
L 203.694545 244.339714 
L 219.927273 240.368845 
L 236.16 232.004367 
L 252.392727 236.029971 
L 268.625455 235.647944 
L 284.858182 235.231413 
L 301.090909 244.672354 
L 317.323636 227.999317 
L 333.556364 237.785394 
L 349.789091 239.941127 
L 366.021818 246.340351 
L 382.254545 245.372826 
L 398.487273 215.077207 
" clip-path="url(#pa46d05f89e)" style="fill: none; stroke: #35b779; stroke-opacity: 0.5; stroke-width: 1.5; stroke-linecap: square"/>
   </g>
   <g id="patch_3">
    <path d="M 57.6 307.584 
L 57.6 41.472 
" style="fill: none; stroke: #000000; stroke-width: 3; stroke-linejoin: miter; stroke-linecap: square"/>
   </g>
   <g id="patch_4">
    <path d="M 414.72 307.584 
L 414.72 41.472 
" style="fill: none; stroke: #000000; stroke-width: 3; stroke-linejoin: miter; stroke-linecap: square"/>
   </g>
   <g id="patch_5">
    <path d="M 57.6 307.584 
L 414.72 307.584 
" style="fill: none; stroke: #000000; stroke-width: 3; stroke-linejoin: miter; stroke-linecap: square"/>
   </g>
   <g id="patch_6">
    <path d="M 57.6 41.472 
L 414.72 41.472 
" style="fill: none; stroke: #000000; stroke-width: 3; stroke-linejoin: miter; stroke-linecap: square"/>
   </g>
   <g id="text_11">
    <!-- Atom Type O (n=45, mean Q=6.91) -->
    <g transform="translate(39.839219 35.472) scale(0.22 -0.22)">
     <defs>
      <path id="DejaVuSans-41" d="M 2188 4044 
L 1331 1722 
L 3047 1722 
L 2188 4044 
z
M 1831 4666 
L 2547 4666 
L 4325 0 
L 3669 0 
L 3244 1197 
L 1141 1197 
L 716 0 
L 50 0 
L 1831 4666 
z
" transform="scale(0.015625)"/>
      <path id="DejaVuSans-74" d="M 1172 4494 
L 1172 3500 
L 2356 3500 
L 2356 3053 
L 1172 3053 
L 1172 1153 
Q 1172 725 1289 603 
Q 1406 481 1766 481 
L 2356 481 
L 2356 0 
L 1766 0 
Q 1100 0 847 248 
Q 594 497 594 1153 
L 594 3053 
L 172 3053 
L 172 3500 
L 594 3500 
L 594 4494 
L 1172 4494 
z
" transform="scale(0.015625)"/>
      <path id="DejaVuSans-6f" d="M 1959 3097 
Q 1497 3097 1228 2736 
Q 959 2375 959 1747 
Q 959 1119 1226 758 
Q 1494 397 1959 397 
Q 2419 397 2687 759 
Q 2956 1122 2956 1747 
Q 2956 2369 2687 2733 
Q 2419 3097 1959 3097 
z
M 1959 3584 
Q 2709 3584 3137 3096 
Q 3566 2609 3566 1747 
Q 3566 888 3137 398 
Q 2709 -91 1959 -91 
Q 1206 -91 779 398 
Q 353 888 353 1747 
Q 353 2609 779 3096 
Q 1206 3584 1959 3584 
z
" transform="scale(0.015625)"/>
      <path id="DejaVuSans-6d" d="M 3328 2828 
Q 3544 3216 3844 3400 
Q 4144 3584 4550 3584 
Q 5097 3584 5394 3201 
Q 5691 2819 5691 2113 
L 5691 0 
L 5113 0 
L 5113 2094 
Q 5113 2597 4934 2840 
Q 4756 3084 4391 3084 
Q 3944 3084 3684 2787 
Q 3425 2491 3425 1978 
L 3425 0 
L 2847 0 
L 2847 2094 
Q 2847 2600 2669 2842 
Q 2491 3084 2119 3084 
Q 1678 3084 1418 2786 
Q 1159 2488 1159 1978 
L 1159 0 
L 581 0 
L 581 3500 
L 1159 3500 
L 1159 2956 
Q 1356 3278 1631 3431 
Q 1906 3584 2284 3584 
Q 2666 3584 2933 3390 
Q 3200 3197 3328 2828 
z
" transform="scale(0.015625)"/>
      <path id="DejaVuSans-20" transform="scale(0.015625)"/>
      <path id="DejaVuSans-54" d="M -19 4666 
L 3928 4666 
L 3928 4134 
L 2272 4134 
L 2272 0 
L 1638 0 
L 1638 4134 
L -19 4134 
L -19 4666 
z
" transform="scale(0.015625)"/>
      <path id="DejaVuSans-79" d="M 2059 -325 
Q 1816 -950 1584 -1140 
Q 1353 -1331 966 -1331 
L 506 -1331 
L 506 -850 
L 844 -850 
Q 1081 -850 1212 -737 
Q 1344 -625 1503 -206 
L 1606 56 
L 191 3500 
L 800 3500 
L 1894 763 
L 2988 3500 
L 3597 3500 
L 2059 -325 
z
" transform="scale(0.015625)"/>
      <path id="DejaVuSans-70" d="M 1159 525 
L 1159 -1331 
L 581 -1331 
L 581 3500 
L 1159 3500 
L 1159 2969 
Q 1341 3281 1617 3432 
Q 1894 3584 2278 3584 
Q 2916 3584 3314 3078 
Q 3713 2572 3713 1747 
Q 3713 922 3314 415 
Q 2916 -91 2278 -91 
Q 1894 -91 1617 61 
Q 1341 213 1159 525 
z
M 3116 1747 
Q 3116 2381 2855 2742 
Q 2594 3103 2138 3103 
Q 1681 3103 1420 2742 
Q 1159 2381 1159 1747 
Q 1159 1113 1420 752 
Q 1681 391 2138 391 
Q 2594 391 2855 752 
Q 3116 1113 3116 1747 
z
" transform="scale(0.015625)"/>
      <path id="DejaVuSans-65" d="M 3597 1894 
L 3597 1613 
L 953 1613 
Q 991 1019 1311 708 
Q 1631 397 2203 397 
Q 2534 397 2845 478 
Q 3156 559 3463 722 
L 3463 178 
Q 3153 47 2828 -22 
Q 2503 -91 2169 -91 
Q 1331 -91 842 396 
Q 353 884 353 1716 
Q 353 2575 817 3079 
Q 1281 3584 2069 3584 
Q 2775 3584 3186 3129 
Q 3597 2675 3597 1894 
z
M 3022 2063 
Q 3016 2534 2758 2815 
Q 2500 3097 2075 3097 
Q 1594 3097 1305 2825 
Q 1016 2553 972 2059 
L 3022 2063 
z
" transform="scale(0.015625)"/>
      <path id="DejaVuSans-4f" d="M 2522 4238 
Q 1834 4238 1429 3725 
Q 1025 3213 1025 2328 
Q 1025 1447 1429 934 
Q 1834 422 2522 422 
Q 3209 422 3611 934 
Q 4013 1447 4013 2328 
Q 4013 3213 3611 3725 
Q 3209 4238 2522 4238 
z
M 2522 4750 
Q 3503 4750 4090 4092 
Q 4678 3434 4678 2328 
Q 4678 1225 4090 567 
Q 3503 -91 2522 -91 
Q 1538 -91 948 565 
Q 359 1222 359 2328 
Q 359 3434 948 4092 
Q 1538 4750 2522 4750 
z
" transform="scale(0.015625)"/>
      <path id="DejaVuSans-28" d="M 1984 4856 
Q 1566 4138 1362 3434 
Q 1159 2731 1159 2009 
Q 1159 1288 1364 580 
Q 1569 -128 1984 -844 
L 1484 -844 
Q 1016 -109 783 600 
Q 550 1309 550 2009 
Q 550 2706 781 3412 
Q 1013 4119 1484 4856 
L 1984 4856 
z
" transform="scale(0.015625)"/>
      <path id="DejaVuSans-6e" d="M 3513 2113 
L 3513 0 
L 2938 0 
L 2938 2094 
Q 2938 2591 2744 2837 
Q 2550 3084 2163 3084 
Q 1697 3084 1428 2787 
Q 1159 2491 1159 1978 
L 1159 0 
L 581 0 
L 581 3500 
L 1159 3500 
L 1159 2956 
Q 1366 3272 1645 3428 
Q 1925 3584 2291 3584 
Q 2894 3584 3203 3211 
Q 3513 2838 3513 2113 
z
" transform="scale(0.015625)"/>
      <path id="DejaVuSans-3d" d="M 678 2906 
L 4684 2906 
L 4684 2381 
L 678 2381 
L 678 2906 
z
M 678 1631 
L 4684 1631 
L 4684 1100 
L 678 1100 
L 678 1631 
z
" transform="scale(0.015625)"/>
      <path id="DejaVuSans-34" d="M 2419 4116 
L 825 1625 
L 2419 1625 
L 2419 4116 
z
M 2253 4666 
L 3047 4666 
L 3047 1625 
L 3713 1625 
L 3713 1100 
L 3047 1100 
L 3047 0 
L 2419 0 
L 2419 1100 
L 313 1100 
L 313 1709 
L 2253 4666 
z
" transform="scale(0.015625)"/>
      <path id="DejaVuSans-2c" d="M 750 794 
L 1409 794 
L 1409 256 
L 897 -744 
L 494 -744 
L 750 256 
L 750 794 
z
" transform="scale(0.015625)"/>
      <path id="DejaVuSans-61" d="M 2194 1759 
Q 1497 1759 1228 1600 
Q 959 1441 959 1056 
Q 959 750 1161 570 
Q 1363 391 1709 391 
Q 2188 391 2477 730 
Q 2766 1069 2766 1631 
L 2766 1759 
L 2194 1759 
z
M 3341 1997 
L 3341 0 
L 2766 0 
L 2766 531 
Q 2569 213 2275 61 
Q 1981 -91 1556 -91 
Q 1019 -91 701 211 
Q 384 513 384 1019 
Q 384 1609 779 1909 
Q 1175 2209 1959 2209 
L 2766 2209 
L 2766 2266 
Q 2766 2663 2505 2880 
Q 2244 3097 1772 3097 
Q 1472 3097 1187 3025 
Q 903 2953 641 2809 
L 641 3341 
Q 956 3463 1253 3523 
Q 1550 3584 1831 3584 
Q 2591 3584 2966 3190 
Q 3341 2797 3341 1997 
z
" transform="scale(0.015625)"/>
      <path id="DejaVuSans-51" d="M 2522 4238 
Q 1834 4238 1429 3725 
Q 1025 3213 1025 2328 
Q 1025 1447 1429 934 
Q 1834 422 2522 422 
Q 3209 422 3611 934 
Q 4013 1447 4013 2328 
Q 4013 3213 3611 3725 
Q 3209 4238 2522 4238 
z
M 3406 84 
L 4238 -825 
L 3475 -825 
L 2784 -78 
Q 2681 -84 2626 -87 
Q 2572 -91 2522 -91 
Q 1538 -91 948 567 
Q 359 1225 359 2328 
Q 359 3434 948 4092 
Q 1538 4750 2522 4750 
Q 3503 4750 4090 4092 
Q 4678 3434 4678 2328 
Q 4678 1516 4351 937 
Q 4025 359 3406 84 
z
" transform="scale(0.015625)"/>
      <path id="DejaVuSans-36" d="M 2113 2584 
Q 1688 2584 1439 2293 
Q 1191 2003 1191 1497 
Q 1191 994 1439 701 
Q 1688 409 2113 409 
Q 2538 409 2786 701 
Q 3034 994 3034 1497 
Q 3034 2003 2786 2293 
Q 2538 2584 2113 2584 
z
M 3366 4563 
L 3366 3988 
Q 3128 4100 2886 4159 
Q 2644 4219 2406 4219 
Q 1781 4219 1451 3797 
Q 1122 3375 1075 2522 
Q 1259 2794 1537 2939 
Q 1816 3084 2150 3084 
Q 2853 3084 3261 2657 
Q 3669 2231 3669 1497 
Q 3669 778 3244 343 
Q 2819 -91 2113 -91 
Q 1303 -91 875 529 
Q 447 1150 447 2328 
Q 447 3434 972 4092 
Q 1497 4750 2381 4750 
Q 2619 4750 2861 4703 
Q 3103 4656 3366 4563 
z
" transform="scale(0.015625)"/>
      <path id="DejaVuSans-2e" d="M 684 794 
L 1344 794 
L 1344 0 
L 684 0 
L 684 794 
z
" transform="scale(0.015625)"/>
      <path id="DejaVuSans-39" d="M 703 97 
L 703 672 
Q 941 559 1184 500 
Q 1428 441 1663 441 
Q 2288 441 2617 861 
Q 2947 1281 2994 2138 
Q 2813 1869 2534 1725 
Q 2256 1581 1919 1581 
Q 1219 1581 811 2004 
Q 403 2428 403 3163 
Q 403 3881 828 4315 
Q 1253 4750 1959 4750 
Q 2769 4750 3195 4129 
Q 3622 3509 3622 2328 
Q 3622 1225 3098 567 
Q 2575 -91 1691 -91 
Q 1453 -91 1209 -44 
Q 966 3 703 97 
z
M 1959 2075 
Q 2384 2075 2632 2365 
Q 2881 2656 2881 3163 
Q 2881 3666 2632 3958 
Q 2384 4250 1959 4250 
Q 1534 4250 1286 3958 
Q 1038 3666 1038 3163 
Q 1038 2656 1286 2365 
Q 1534 2075 1959 2075 
z
" transform="scale(0.015625)"/>
      <path id="DejaVuSans-29" d="M 513 4856 
L 1013 4856 
Q 1481 4119 1714 3412 
Q 1947 2706 1947 2009 
Q 1947 1309 1714 600 
Q 1481 -109 1013 -844 
L 513 -844 
Q 928 -128 1133 580 
Q 1338 1288 1338 2009 
Q 1338 2731 1133 3434 
Q 928 4138 513 4856 
z
" transform="scale(0.015625)"/>
     </defs>
     <use xlink:href="#DejaVuSans-41"/>
     <use xlink:href="#DejaVuSans-74" transform="translate(66.658203 0)"/>
     <use xlink:href="#DejaVuSans-6f" transform="translate(105.867188 0)"/>
     <use xlink:href="#DejaVuSans-6d" transform="translate(167.048828 0)"/>
     <use xlink:href="#DejaVuSans-20" transform="translate(264.460938 0)"/>
     <use xlink:href="#DejaVuSans-54" transform="translate(296.248047 0)"/>
     <use xlink:href="#DejaVuSans-79" transform="translate(341.707031 0)"/>
     <use xlink:href="#DejaVuSans-70" transform="translate(400.886719 0)"/>
     <use xlink:href="#DejaVuSans-65" transform="translate(464.363281 0)"/>
     <use xlink:href="#DejaVuSans-20" transform="translate(525.886719 0)"/>
     <use xlink:href="#DejaVuSans-4f" transform="translate(557.673828 0)"/>
     <use xlink:href="#DejaVuSans-20" transform="translate(636.384766 0)"/>
     <use xlink:href="#DejaVuSans-28" transform="translate(668.171875 0)"/>
     <use xlink:href="#DejaVuSans-6e" transform="translate(707.185547 0)"/>
     <use xlink:href="#DejaVuSans-3d" transform="translate(770.564453 0)"/>
     <use xlink:href="#DejaVuSans-34" transform="translate(854.353516 0)"/>
     <use xlink:href="#DejaVuSans-35" transform="translate(917.976562 0)"/>
     <use xlink:href="#DejaVuSans-2c" transform="translate(981.599609 0)"/>
     <use xlink:href="#DejaVuSans-20" transform="translate(1013.386719 0)"/>
     <use xlink:href="#DejaVuSans-6d" transform="translate(1045.173828 0)"/>
     <use xlink:href="#DejaVuSans-65" transform="translate(1142.585938 0)"/>
     <use xlink:href="#DejaVuSans-61" transform="translate(1204.109375 0)"/>
     <use xlink:href="#DejaVuSans-6e" transform="translate(1265.388672 0)"/>
     <use xlink:href="#DejaVuSans-20" transform="translate(1328.767578 0)"/>
     <use xlink:href="#DejaVuSans-51" transform="translate(1360.554688 0)"/>
     <use xlink:href="#DejaVuSans-3d" transform="translate(1439.265625 0)"/>
     <use xlink:href="#DejaVuSans-36" transform="translate(1523.054688 0)"/>
     <use xlink:href="#DejaVuSans-2e" transform="translate(1586.677734 0)"/>
     <use xlink:href="#DejaVuSans-39" transform="translate(1618.464844 0)"/>
     <use xlink:href="#DejaVuSans-31" transform="translate(1682.087891 0)"/>
     <use xlink:href="#DejaVuSans-29" transform="translate(1745.710938 0)"/>
    </g>
   </g>
  </g>
 </g>
 <defs>
  <clipPath id="pa46d05f89e">
   <rect x="57.6" y="41.472" width="357.12" height="266.112"/>
  </clipPath>
 </defs>
</svg>
