<?xml version="1.0" encoding="utf-8" standalone="no"?>
<!DOCTYPE svg PUBLIC "-//W3C//DTD SVG 1.1//EN"
  "http://www.w3.org/Graphics/SVG/1.1/DTD/svg11.dtd">
<svg xmlns:xlink="http://www.w3.org/1999/xlink" width="460.8pt" height="345.6pt" viewBox="0 0 460.8 345.6" xmlns="http://www.w3.org/2000/svg" version="1.1">
 <metadata>
  <rdf:RDF xmlns:dc="http://purl.org/dc/elements/1.1/" xmlns:cc="http://creativecommons.org/ns#" xmlns:rdf="http://www.w3.org/1999/02/22-rdf-syntax-ns#">
   <cc:Work>
    <dc:type rdf:resource="http://purl.org/dc/dcmitype/StillImage"/>
    <dc:date>2025-12-10T14:11:24.026479</dc:date>
    <dc:format>image/svg+xml</dc:format>
    <dc:creator>
     <cc:Agent>
      <dc:title>Matplotlib v3.10.3, https://matplotlib.org/</dc:title>
     </cc:Agent>
    </dc:creator>
   </cc:Work>
  </rdf:RDF>
 </metadata>
 <defs>
  <style type="text/css">*{stroke-linejoin: round; stroke-linecap: butt}</style>
 </defs>
 <g id="figure_1">
  <g id="patch_1">
   <path d="M 0 345.6 
L 460.8 345.6 
L 460.8 0 
L 0 0 
z
" style="fill: #ffffff"/>
  </g>
  <g id="axes_1">
   <g id="patch_2">
    <path d="M 57.6 307.584 
L 414.72 307.584 
L 414.72 41.472 
L 57.6 41.472 
z
" style="fill: #ffffff"/>
   </g>
   <g id="matplotlib.axis_1">
    <g id="xtick_1">
     <g id="line2d_1">
      <defs>
       <path id="m50481615b5" d="M 0 0 
L 0 3.5 
" style="stroke: #000000; stroke-width: 0.8"/>
      </defs>
      <g>
       <use xlink:href="#m50481615b5" x="73.832727" y="307.584" style="stroke: #000000; stroke-width: 0.8"/>
      </g>
     </g>
     <g id="text_1">
      <!-- 0 -->
      <g transform="translate(69.060852 325.981656) scale(0.15 -0.15)">
       <defs>
        <path id="DejaVuSans-30" d="M 2034 4250 
Q 1547 4250 1301 3770 
Q 1056 3291 1056 2328 
Q 1056 1369 1301 889 
Q 1547 409 2034 409 
Q 2525 409 2770 889 
Q 3016 1369 3016 2328 
Q 3016 3291 2770 3770 
Q 2525 4250 2034 4250 
z
M 2034 4750 
Q 2819 4750 3233 4129 
Q 3647 3509 3647 2328 
Q 3647 1150 3233 529 
Q 2819 -91 2034 -91 
Q 1250 -91 836 529 
Q 422 1150 422 2328 
Q 422 3509 836 4129 
Q 1250 4750 2034 4750 
z
" transform="scale(0.015625)"/>
       </defs>
       <use xlink:href="#DejaVuSans-30"/>
      </g>
     </g>
    </g>
    <g id="xtick_2">
     <g id="line2d_2">
      <g>
       <use xlink:href="#m50481615b5" x="154.996364" y="307.584" style="stroke: #000000; stroke-width: 0.8"/>
      </g>
     </g>
     <g id="text_2">
      <!-- 5 -->
      <g transform="translate(150.224489 325.981656) scale(0.15 -0.15)">
       <defs>
        <path id="DejaVuSans-35" d="M 691 4666 
L 3169 4666 
L 3169 4134 
L 1269 4134 
L 1269 2991 
Q 1406 3038 1543 3061 
Q 1681 3084 1819 3084 
Q 2600 3084 3056 2656 
Q 3513 2228 3513 1497 
Q 3513 744 3044 326 
Q 2575 -91 1722 -91 
Q 1428 -91 1123 -41 
Q 819 9 494 109 
L 494 744 
Q 775 591 1075 516 
Q 1375 441 1709 441 
Q 2250 441 2565 725 
Q 2881 1009 2881 1497 
Q 2881 1984 2565 2268 
Q 2250 2553 1709 2553 
Q 1456 2553 1204 2497 
Q 953 2441 691 2322 
L 691 4666 
z
" transform="scale(0.015625)"/>
       </defs>
       <use xlink:href="#DejaVuSans-35"/>
      </g>
     </g>
    </g>
    <g id="xtick_3">
     <g id="line2d_3">
      <g>
       <use xlink:href="#m50481615b5" x="236.16" y="307.584" style="stroke: #000000; stroke-width: 0.8"/>
      </g>
     </g>
     <g id="text_3">
      <!-- 10 -->
      <g transform="translate(226.61625 325.981656) scale(0.15 -0.15)">
       <defs>
        <path id="DejaVuSans-31" d="M 794 531 
L 1825 531 
L 1825 4091 
L 703 3866 
L 703 4441 
L 1819 4666 
L 2450 4666 
L 2450 531 
L 3481 531 
L 3481 0 
L 794 0 
L 794 531 
z
" transform="scale(0.015625)"/>
       </defs>
       <use xlink:href="#DejaVuSans-31"/>
       <use xlink:href="#DejaVuSans-30" transform="translate(63.623047 0)"/>
      </g>
     </g>
    </g>
    <g id="xtick_4">
     <g id="line2d_4">
      <g>
       <use xlink:href="#m50481615b5" x="317.323636" y="307.584" style="stroke: #000000; stroke-width: 0.8"/>
      </g>
     </g>
     <g id="text_4">
      <!-- 15 -->
      <g transform="translate(307.779886 325.981656) scale(0.15 -0.15)">
       <use xlink:href="#DejaVuSans-31"/>
       <use xlink:href="#DejaVuSans-35" transform="translate(63.623047 0)"/>
      </g>
     </g>
    </g>
    <g id="xtick_5">
     <g id="line2d_5">
      <g>
       <use xlink:href="#m50481615b5" x="398.487273" y="307.584" style="stroke: #000000; stroke-width: 0.8"/>
      </g>
     </g>
     <g id="text_5">
      <!-- 20 -->
      <g transform="translate(388.943523 325.981656) scale(0.15 -0.15)">
       <defs>
        <path id="DejaVuSans-32" d="M 1228 531 
L 3431 531 
L 3431 0 
L 469 0 
L 469 531 
Q 828 903 1448 1529 
Q 2069 2156 2228 2338 
Q 2531 2678 2651 2914 
Q 2772 3150 2772 3378 
Q 2772 3750 2511 3984 
Q 2250 4219 1831 4219 
Q 1534 4219 1204 4116 
Q 875 4013 500 3803 
L 500 4441 
Q 881 4594 1212 4672 
Q 1544 4750 1819 4750 
Q 2544 4750 2975 4387 
Q 3406 4025 3406 3419 
Q 3406 3131 3298 2873 
Q 3191 2616 2906 2266 
Q 2828 2175 2409 1742 
Q 1991 1309 1228 531 
z
" transform="scale(0.015625)"/>
       </defs>
       <use xlink:href="#DejaVuSans-32"/>
       <use xlink:href="#DejaVuSans-30" transform="translate(63.623047 0)"/>
      </g>
     </g>
    </g>
   </g>
   <g id="matplotlib.axis_2">
    <g id="ytick_1">
     <g id="line2d_6">
      <defs>
       <path id="m4c082192d8" d="M 0 0 
L -3.5 0 
" style="stroke: #000000; stroke-width: 0.8"/>
      </defs>
      <g>
       <use xlink:href="#m4c082192d8" x="57.6" y="298.881307" style="stroke: #000000; stroke-width: 0.8"/>
      </g>
     </g>
     <g id="text_6">
      <!-- 5 -->
      <g transform="translate(41.05625 304.580135) scale(0.15 -0.15)">
       <use xlink:href="#DejaVuSans-35"/>
      </g>
     </g>
    </g>
    <g id="ytick_2">
     <g id="line2d_7">
      <g>
       <use xlink:href="#m4c082192d8" x="57.6" y="250.543823" style="stroke: #000000; stroke-width: 0.8"/>
      </g>
     </g>
     <g id="text_7">
      <!-- 10 -->
      <g transform="translate(31.5125 256.242651) scale(0.15 -0.15)">
       <use xlink:href="#DejaVuSans-31"/>
       <use xlink:href="#DejaVuSans-30" transform="translate(63.623047 0)"/>
      </g>
     </g>
    </g>
    <g id="ytick_3">
     <g id="line2d_8">
      <g>
       <use xlink:href="#m4c082192d8" x="57.6" y="202.206339" style="stroke: #000000; stroke-width: 0.8"/>
      </g>
     </g>
     <g id="text_8">
      <!-- 15 -->
      <g transform="translate(31.5125 207.905168) scale(0.15 -0.15)">
       <use xlink:href="#DejaVuSans-31"/>
       <use xlink:href="#DejaVuSans-35" transform="translate(63.623047 0)"/>
      </g>
     </g>
    </g>
    <g id="ytick_4">
     <g id="line2d_9">
      <g>
       <use xlink:href="#m4c082192d8" x="57.6" y="153.868856" style="stroke: #000000; stroke-width: 0.8"/>
      </g>
     </g>
     <g id="text_9">
      <!-- 20 -->
      <g transform="translate(31.5125 159.567684) scale(0.15 -0.15)">
       <use xlink:href="#DejaVuSans-32"/>
       <use xlink:href="#DejaVuSans-30" transform="translate(63.623047 0)"/>
      </g>
     </g>
    </g>
    <g id="ytick_5">
     <g id="line2d_10">
      <g>
       <use xlink:href="#m4c082192d8" x="57.6" y="105.531372" style="stroke: #000000; stroke-width: 0.8"/>
      </g>
     </g>
     <g id="text_10">
      <!-- 25 -->
      <g transform="translate(31.5125 111.2302) scale(0.15 -0.15)">
       <use xlink:href="#DejaVuSans-32"/>
       <use xlink:href="#DejaVuSans-35" transform="translate(63.623047 0)"/>
      </g>
     </g>
    </g>
    <g id="ytick_6">
     <g id="line2d_11">
      <g>
       <use xlink:href="#m4c082192d8" x="57.6" y="57.193888" style="stroke: #000000; stroke-width: 0.8"/>
      </g>
     </g>
     <g id="text_11">
      <!-- 30 -->
      <g transform="translate(31.5125 62.892717) scale(0.15 -0.15)">
       <defs>
        <path id="DejaVuSans-33" d="M 2597 2516 
Q 3050 2419 3304 2112 
Q 3559 1806 3559 1356 
Q 3559 666 3084 287 
Q 2609 -91 1734 -91 
Q 1441 -91 1130 -33 
Q 819 25 488 141 
L 488 750 
Q 750 597 1062 519 
Q 1375 441 1716 441 
Q 2309 441 2620 675 
Q 2931 909 2931 1356 
Q 2931 1769 2642 2001 
Q 2353 2234 1838 2234 
L 1294 2234 
L 1294 2753 
L 1863 2753 
Q 2328 2753 2575 2939 
Q 2822 3125 2822 3475 
Q 2822 3834 2567 4026 
Q 2313 4219 1838 4219 
Q 1578 4219 1281 4162 
Q 984 4106 628 3988 
L 628 4550 
Q 988 4650 1302 4700 
Q 1616 4750 1894 4750 
Q 2613 4750 3031 4423 
Q 3450 4097 3450 3541 
Q 3450 3153 3228 2886 
Q 3006 2619 2597 2516 
z
" transform="scale(0.015625)"/>
       </defs>
       <use xlink:href="#DejaVuSans-33"/>
       <use xlink:href="#DejaVuSans-30" transform="translate(63.623047 0)"/>
      </g>
     </g>
    </g>
   </g>
   <g id="line2d_12">
    <path d="M 73.832727 234.964648 
L 90.065455 247.933569 
L 106.298182 192.703329 
L 122.530909 163.431066 
L 138.763636 253.476444 
L 154.996364 144.030552 
L 171.229091 218.607508 
L 187.461818 183.67734 
L 203.694545 258.058367 
L 219.927273 237.012873 
L 236.16 155.034348 
L 252.392727 83.371473 
L 268.625455 192.384528 
L 284.858182 121.598927 
L 301.090909 132.016013 
L 317.323636 91.82605 
L 333.556364 162.286759 
L 349.789091 226.969652 
L 366.021818 149.389747 
L 382.254545 165.735959 
L 398.487273 239.644749 
" clip-path="url(#pfad9cb1b16)" style="fill: none; stroke: #31688e; stroke-opacity: 0.5; stroke-width: 1.5; stroke-linecap: square"/>
   </g>
   <g id="line2d_13">
    <path d="M 73.832727 279.671939 
L 90.065455 234.971673 
L 106.298182 277.385073 
L 122.530909 190.464023 
L 138.763636 261.423912 
L 154.996364 247.113302 
L 171.229091 233.220395 
L 187.461818 154.280237 
L 203.694545 184.082604 
L 219.927273 180.377822 
L 236.16 92.874235 
L 252.392727 143.885664 
L 268.625455 175.019523 
L 284.858182 181.746531 
L 301.090909 210.78632 
L 317.323636 222.161472 
L 333.556364 163.003792 
L 349.789091 242.387661 
L 366.021818 204.908072 
L 382.254545 248.052916 
L 398.487273 157.504281 
" clip-path="url(#pfad9cb1b16)" style="fill: none; stroke: #31688e; stroke-opacity: 0.5; stroke-width: 1.5; stroke-linecap: square"/>
   </g>
   <g id="line2d_14">
    <path d="M 73.832727 237.945677 
L 90.065455 241.950991 
L 106.298182 242.86826 
L 122.530909 259.738237 
L 138.763636 153.626709 
L 154.996364 231.774378 
L 171.229091 217.853971 
L 187.461818 179.44809 
L 203.694545 157.616947 
L 219.927273 255.116283 
L 236.16 265.547106 
L 252.392727 166.64598 
L 268.625455 81.625742 
L 284.858182 126.67165 
L 301.090909 137.132977 
L 317.323636 214.724363 
L 333.556364 262.534273 
L 349.789091 179.885512 
L 366.021818 243.573803 
L 382.254545 171.123 
L 398.487273 251.209873 
" clip-path="url(#pfad9cb1b16)" style="fill: none; stroke: #31688e; stroke-opacity: 0.5; stroke-width: 1.5; stroke-linecap: square"/>
   </g>
   <g id="line2d_15">
    <path d="M 73.832727 249.187452 
L 90.065455 219.177077 
L 106.298182 190.788899 
L 122.530909 205.03886 
L 138.763636 172.930743 
L 154.996364 169.204091 
L 171.229091 114.403213 
L 187.461818 155.982151 
L 203.694545 180.069181 
L 219.927273 143.743604 
L 236.16 213.214581 
L 252.392727 154.019099 
L 268.625455 53.568 
L 284.858182 171.000193 
L 301.090909 204.197921 
L 317.323636 158.20041 
L 333.556364 155.197409 
L 349.789091 136.146203 
L 366.021818 192.228467 
L 382.254545 181.672793 
L 398.487273 155.293692 
" clip-path="url(#pfad9cb1b16)" style="fill: none; stroke: #31688e; stroke-opacity: 0.5; stroke-width: 1.5; stroke-linecap: square"/>
   </g>
   <g id="line2d_16">
    <path d="M 73.832727 257.649786 
L 90.065455 239.965933 
L 106.298182 256.48212 
L 122.530909 264.598359 
L 138.763636 219.914541 
L 154.996364 215.503015 
L 171.229091 210.802801 
L 187.461818 198.044325 
L 203.694545 184.709642 
L 219.927273 172.441334 
L 236.16 259.394353 
L 252.392727 203.524836 
L 268.625455 155.543524 
L 284.858182 202.485842 
L 301.090909 202.478761 
L 317.323636 223.667218 
L 333.556364 161.421704 
L 349.789091 207.024463 
L 366.021818 185.526979 
L 382.254545 221.978824 
L 398.487273 166.743326 
" clip-path="url(#pfad9cb1b16)" style="fill: none; stroke: #31688e; stroke-opacity: 0.5; stroke-width: 1.5; stroke-linecap: square"/>
   </g>
   <g id="line2d_17">
    <path d="M 73.832727 225.090786 
L 90.065455 244.281834 
L 106.298182 268.177639 
L 122.530909 228.810789 
L 138.763636 227.69302 
L 154.996364 193.16762 
L 171.229091 214.369187 
L 187.461818 242.343525 
L 203.694545 210.977784 
L 219.927273 157.850028 
L 236.16 201.090746 
L 252.392727 173.44628 
L 268.625455 187.221313 
L 284.858182 137.688217 
L 301.090909 162.38734 
L 317.323636 219.383694 
L 333.556364 258.810965 
L 349.789091 184.755091 
L 366.021818 229.989472 
L 382.254545 235.511324 
L 398.487273 237.199225 
" clip-path="url(#pfad9cb1b16)" style="fill: none; stroke: #31688e; stroke-opacity: 0.5; stroke-width: 1.5; stroke-linecap: square"/>
   </g>
   <g id="line2d_18">
    <path d="M 73.832727 260.166727 
L 90.065455 278.875914 
L 106.298182 228.526747 
L 122.530909 221.49765 
L 138.763636 252.105316 
L 154.996364 221.296955 
L 171.229091 238.087811 
L 187.461818 217.912938 
L 203.694545 224.245768 
L 219.927273 206.082462 
L 236.16 172.874986 
L 252.392727 189.846563 
L 268.625455 247.775937 
L 284.858182 223.613576 
L 301.090909 199.644321 
L 317.323636 184.047293 
L 333.556364 197.077142 
L 349.789091 261.667537 
L 366.021818 243.397513 
L 382.254545 225.860167 
L 398.487273 218.413112 
" clip-path="url(#pfad9cb1b16)" style="fill: none; stroke: #31688e; stroke-opacity: 0.5; stroke-width: 1.5; stroke-linecap: square"/>
   </g>
   <g id="line2d_19">
    <path d="M 73.832727 275.26318 
L 90.065455 235.620142 
L 106.298182 262.176464 
L 122.530909 247.185676 
L 138.763636 263.635326 
L 154.996364 252.990563 
L 171.229091 268.270743 
L 187.461818 256.093671 
L 203.694545 248.242557 
L 219.927273 228.437966 
L 236.16 208.42093 
L 252.392727 203.511599 
L 268.625455 236.681583 
L 284.858182 227.867029 
L 301.090909 173.711537 
L 317.323636 223.77092 
L 333.556364 203.728563 
L 349.789091 233.881476 
L 366.021818 231.400699 
L 382.254545 215.370912 
L 398.487273 213.394709 
" clip-path="url(#pfad9cb1b16)" style="fill: none; stroke: #31688e; stroke-opacity: 0.5; stroke-width: 1.5; stroke-linecap: square"/>
   </g>
   <g id="line2d_20">
    <path d="M 73.832727 234.39389 
L 90.065455 233.691724 
L 106.298182 250.903937 
L 122.530909 218.952785 
L 138.763636 205.504707 
L 154.996364 140.978786 
L 171.229091 231.896341 
L 187.461818 227.216029 
L 203.694545 181.159135 
L 219.927273 144.768149 
L 236.16 195.746337 
L 252.392727 191.054558 
L 268.625455 209.916223 
L 284.858182 193.166061 
L 301.090909 188.222092 
L 317.323636 182.528262 
L 333.556364 233.425513 
L 349.789091 210.744362 
L 366.021818 283.772524 
L 382.254545 201.186946 
L 398.487273 217.001873 
" clip-path="url(#pfad9cb1b16)" style="fill: none; stroke: #31688e; stroke-opacity: 0.5; stroke-width: 1.5; stroke-linecap: square"/>
   </g>
   <g id="line2d_21">
    <path d="M 73.832727 240.909253 
L 90.065455 245.223489 
L 106.298182 251.166005 
L 122.530909 221.124271 
L 138.763636 250.443182 
L 154.996364 226.546715 
L 171.229091 259.081237 
L 187.461818 253.309567 
L 203.694545 244.073215 
L 219.927273 245.339838 
L 236.16 232.267989 
L 252.392727 200.915163 
L 268.625455 224.517743 
L 284.858182 236.524524 
L 301.090909 217.348295 
L 317.323636 229.520952 
L 333.556364 245.667361 
L 349.789091 230.388664 
L 366.021818 256.16704 
L 382.254545 229.121857 
L 398.487273 252.343169 
" clip-path="url(#pfad9cb1b16)" style="fill: none; stroke: #31688e; stroke-opacity: 0.5; stroke-width: 1.5; stroke-linecap: square"/>
   </g>
   <g id="line2d_22">
    <path d="M 73.832727 253.652434 
L 90.065455 236.623021 
L 106.298182 252.677846 
L 122.530909 274.825451 
L 138.763636 164.233129 
L 154.996364 182.048538 
L 171.229091 108.069594 
L 187.461818 242.249697 
L 203.694545 247.151209 
L 219.927273 193.146202 
L 236.16 230.868868 
L 252.392727 189.430443 
L 268.625455 165.141995 
L 284.858182 210.51694 
L 301.090909 224.147827 
L 317.323636 233.823487 
L 333.556364 192.770373 
L 349.789091 236.332642 
L 366.021818 220.023167 
L 382.254545 221.515653 
L 398.487273 249.370528 
" clip-path="url(#pfad9cb1b16)" style="fill: none; stroke: #31688e; stroke-opacity: 0.5; stroke-width: 1.5; stroke-linecap: square"/>
   </g>
   <g id="line2d_23">
    <path d="M 73.832727 259.946485 
L 90.065455 230.892533 
L 106.298182 264.442208 
L 122.530909 246.640711 
L 138.763636 256.182636 
L 154.996364 227.726093 
L 171.229091 229.662895 
L 187.461818 208.27325 
L 203.694545 170.280079 
L 219.927273 236.384224 
L 236.16 197.978464 
L 252.392727 207.25536 
L 268.625455 227.435213 
L 284.858182 262.418386 
L 301.090909 247.505229 
L 317.323636 241.248103 
L 333.556364 262.498201 
L 349.789091 181.865235 
L 366.021818 225.665837 
L 382.254545 213.046066 
L 398.487273 254.588916 
" clip-path="url(#pfad9cb1b16)" style="fill: none; stroke: #31688e; stroke-opacity: 0.5; stroke-width: 1.5; stroke-linecap: square"/>
   </g>
   <g id="line2d_24">
    <path d="M 73.832727 224.064871 
L 90.065455 256.454792 
L 106.298182 266.005925 
L 122.530909 227.255496 
L 138.763636 186.389383 
L 154.996364 225.05659 
L 171.229091 219.848268 
L 187.461818 233.606608 
L 203.694545 229.392944 
L 219.927273 237.827814 
L 236.16 211.948683 
L 252.392727 223.055213 
L 268.625455 236.081654 
L 284.858182 214.397618 
L 301.090909 206.383848 
L 317.323636 183.038899 
L 333.556364 88.795529 
L 349.789091 215.435036 
L 366.021818 180.580201 
L 382.254545 176.674859 
L 398.487273 190.192841 
" clip-path="url(#pfad9cb1b16)" style="fill: none; stroke: #31688e; stroke-opacity: 0.5; stroke-width: 1.5; stroke-linecap: square"/>
   </g>
   <g id="line2d_25">
    <path d="M 73.832727 147.187052 
L 90.065455 236.456202 
L 106.298182 216.292851 
L 122.530909 192.753207 
L 138.763636 169.90534 
L 154.996364 123.372964 
L 171.229091 174.819458 
L 187.461818 155.724127 
L 203.694545 216.662545 
L 219.927273 170.559849 
L 236.16 148.528815 
L 252.392727 194.273976 
L 268.625455 175.062098 
L 284.858182 189.365121 
L 301.090909 171.221164 
L 317.323636 196.051223 
L 333.556364 163.594968 
L 349.789091 182.883002 
L 366.021818 145.276554 
L 382.254545 172.586827 
L 398.487273 206.625076 
" clip-path="url(#pfad9cb1b16)" style="fill: none; stroke: #31688e; stroke-opacity: 0.5; stroke-width: 1.5; stroke-linecap: square"/>
   </g>
   <g id="line2d_26">
    <path d="M 73.832727 221.210948 
L 90.065455 227.46339 
L 106.298182 253.548531 
L 122.530909 242.104119 
L 138.763636 205.133048 
L 154.996364 198.151896 
L 171.229091 253.911881 
L 187.461818 194.627694 
L 203.694545 221.997095 
L 219.927273 213.940794 
L 236.16 209.114502 
L 252.392727 231.583477 
L 268.625455 228.46259 
L 284.858182 225.754473 
L 301.090909 239.912309 
L 317.323636 237.718525 
L 333.556364 205.966821 
L 349.789091 217.079545 
L 366.021818 215.581901 
L 382.254545 200.333981 
L 398.487273 227.522921 
" clip-path="url(#pfad9cb1b16)" style="fill: none; stroke: #31688e; stroke-opacity: 0.5; stroke-width: 1.5; stroke-linecap: square"/>
   </g>
   <g id="line2d_27">
    <path d="M 73.832727 258.02949 
L 90.065455 273.079451 
L 106.298182 278.667671 
L 122.530909 273.872191 
L 138.763636 279.999964 
L 154.996364 275.833997 
L 171.229091 271.500678 
L 187.461818 278.703954 
L 203.694545 281.203007 
L 219.927273 275.365507 
L 236.16 269.56089 
L 252.392727 277.18161 
L 268.625455 276.046192 
L 284.858182 276.756826 
L 301.090909 269.579528 
L 317.323636 286.397603 
L 333.556364 281.290853 
L 349.789091 274.06555 
L 366.021818 276.653189 
L 382.254545 282.483039 
L 398.487273 280.795385 
" clip-path="url(#pfad9cb1b16)" style="fill: none; stroke: #31688e; stroke-opacity: 0.5; stroke-width: 1.5; stroke-linecap: square"/>
   </g>
   <g id="line2d_28">
    <path d="M 73.832727 229.851792 
L 90.065455 293.010916 
L 106.298182 290.767665 
L 122.530909 271.174275 
L 138.763636 283.09792 
L 154.996364 281.338308 
L 171.229091 278.460179 
L 187.461818 276.622142 
L 203.694545 273.922362 
L 219.927273 281.809513 
L 236.16 282.33061 
L 252.392727 245.865766 
L 268.625455 256.527711 
L 284.858182 245.759541 
L 301.090909 256.980184 
L 317.323636 268.929846 
L 333.556364 236.523554 
L 349.789091 246.503263 
L 366.021818 233.215388 
L 382.254545 260.343833 
L 398.487273 251.354723 
" clip-path="url(#pfad9cb1b16)" style="fill: none; stroke: #31688e; stroke-opacity: 0.5; stroke-width: 1.5; stroke-linecap: square"/>
   </g>
   <g id="line2d_29">
    <path d="M 73.832727 249.13082 
L 90.065455 236.175247 
L 106.298182 226.395053 
L 122.530909 245.198631 
L 138.763636 249.79888 
L 154.996364 255.526923 
L 171.229091 222.65809 
L 187.461818 244.397621 
L 203.694545 223.109999 
L 219.927273 223.133891 
L 236.16 244.295265 
L 252.392727 251.388425 
L 268.625455 239.201754 
L 284.858182 250.441973 
L 301.090909 226.650048 
L 317.323636 251.997516 
L 333.556364 258.038492 
L 349.789091 252.435767 
L 366.021818 255.535565 
L 382.254545 248.355355 
L 398.487273 262.968462 
" clip-path="url(#pfad9cb1b16)" style="fill: none; stroke: #31688e; stroke-opacity: 0.5; stroke-width: 1.5; stroke-linecap: square"/>
   </g>
   <g id="line2d_30">
    <path d="M 73.832727 262.671659 
L 90.065455 278.104521 
L 106.298182 280.020402 
L 122.530909 273.197381 
L 138.763636 281.374129 
L 154.996364 283.044072 
L 171.229091 261.02967 
L 187.461818 258.469008 
L 203.694545 257.595998 
L 219.927273 251.087411 
L 236.16 252.230779 
L 252.392727 267.601041 
L 268.625455 267.267961 
L 284.858182 261.124594 
L 301.090909 244.420356 
L 317.323636 256.769758 
L 333.556364 273.160008 
L 349.789091 280.627481 
L 366.021818 268.596779 
L 382.254545 275.271108 
L 398.487273 285.142695 
" clip-path="url(#pfad9cb1b16)" style="fill: none; stroke: #31688e; stroke-opacity: 0.5; stroke-width: 1.5; stroke-linecap: square"/>
   </g>
   <g id="line2d_31">
    <path d="M 73.832727 283.848114 
L 90.065455 269.932173 
L 106.298182 236.444197 
L 122.530909 275.419999 
L 138.763636 285.891406 
L 154.996364 291.703893 
L 171.229091 276.878614 
L 187.461818 267.954761 
L 203.694545 259.987248 
L 219.927273 258.437965 
L 236.16 264.327966 
L 252.392727 272.006103 
L 268.625455 264.0145 
L 284.858182 273.876408 
L 301.090909 266.774366 
L 317.323636 269.212982 
L 333.556364 281.02503 
L 349.789091 275.463833 
L 366.021818 280.820354 
L 382.254545 284.744953 
L 398.487273 285.375415 
" clip-path="url(#pfad9cb1b16)" style="fill: none; stroke: #31688e; stroke-opacity: 0.5; stroke-width: 1.5; stroke-linecap: square"/>
   </g>
   <g id="line2d_32">
    <path d="M 73.832727 272.080143 
L 90.065455 257.433551 
L 106.298182 271.070084 
L 122.530909 278.263549 
L 138.763636 280.535739 
L 154.996364 282.557594 
L 171.229091 269.541144 
L 187.461818 251.89293 
L 203.694545 232.357091 
L 219.927273 251.818138 
L 236.16 259.971338 
L 252.392727 258.470751 
L 268.625455 261.708502 
L 284.858182 260.371384 
L 301.090909 258.899061 
L 317.323636 270.010931 
L 333.556364 260.838871 
L 349.789091 256.988392 
L 366.021818 252.096509 
L 382.254545 253.922747 
L 398.487273 253.127489 
" clip-path="url(#pfad9cb1b16)" style="fill: none; stroke: #31688e; stroke-opacity: 0.5; stroke-width: 1.5; stroke-linecap: square"/>
   </g>
   <g id="line2d_33">
    <path d="M 73.832727 293.776054 
L 90.065455 288.812385 
L 106.298182 274.259243 
L 122.530909 276.326503 
L 138.763636 286.447747 
L 154.996364 273.921423 
L 171.229091 274.898873 
L 187.461818 261.382733 
L 203.694545 272.143067 
L 219.927273 259.40711 
L 236.16 275.723541 
L 252.392727 267.417784 
L 268.625455 255.278288 
L 284.858182 274.961586 
L 301.090909 266.033454 
L 317.323636 269.467459 
L 333.556364 259.342694 
L 349.789091 269.953698 
L 366.021818 270.783934 
L 382.254545 261.792248 
L 398.487273 272.840146 
" clip-path="url(#pfad9cb1b16)" style="fill: none; stroke: #31688e; stroke-opacity: 0.5; stroke-width: 1.5; stroke-linecap: square"/>
   </g>
   <g id="line2d_34">
    <path d="M 73.832727 293.126401 
L 90.065455 287.572845 
L 106.298182 256.117245 
L 122.530909 277.253099 
L 138.763636 284.189564 
L 154.996364 272.982164 
L 171.229091 251.051512 
L 187.461818 251.013404 
L 203.694545 278.142033 
L 219.927273 262.126648 
L 236.16 281.927122 
L 252.392727 282.950415 
L 268.625455 233.041014 
L 284.858182 276.13536 
L 301.090909 280.726382 
L 317.323636 277.813506 
L 333.556364 282.965293 
L 349.789091 275.2114 
L 366.021818 266.96841 
L 382.254545 277.636747 
L 398.487273 283.508125 
" clip-path="url(#pfad9cb1b16)" style="fill: none; stroke: #31688e; stroke-opacity: 0.5; stroke-width: 1.5; stroke-linecap: square"/>
   </g>
   <g id="line2d_35">
    <path d="M 73.832727 248.786418 
L 90.065455 253.103363 
L 106.298182 265.901044 
L 122.530909 256.362955 
L 138.763636 242.620922 
L 154.996364 241.142839 
L 171.229091 184.978946 
L 187.461818 206.445389 
L 203.694545 245.972583 
L 219.927273 228.834401 
L 236.16 243.510948 
L 252.392727 226.713087 
L 268.625455 217.616227 
L 284.858182 216.394154 
L 301.090909 225.989944 
L 317.323636 250.953739 
L 333.556364 242.394711 
L 349.789091 257.559759 
L 366.021818 259.652565 
L 382.254545 252.052235 
L 398.487273 252.449236 
" clip-path="url(#pfad9cb1b16)" style="fill: none; stroke: #31688e; stroke-opacity: 0.5; stroke-width: 1.5; stroke-linecap: square"/>
   </g>
   <g id="line2d_36">
    <path d="M 73.832727 267.894387 
L 90.065455 256.995039 
L 106.298182 280.098075 
L 122.530909 288.93898 
L 138.763636 284.843204 
L 154.996364 272.828354 
L 171.229091 283.786873 
L 187.461818 259.926018 
L 203.694545 275.593209 
L 219.927273 286.734033 
L 236.16 295.250346 
L 252.392727 288.483208 
L 268.625455 260.174963 
L 284.858182 257.50458 
L 301.090909 273.67213 
L 317.323636 282.30796 
L 333.556364 280.427141 
L 349.789091 269.384415 
L 366.021818 285.510057 
L 382.254545 260.146654 
L 398.487273 268.893612 
" clip-path="url(#pfad9cb1b16)" style="fill: none; stroke: #31688e; stroke-opacity: 0.5; stroke-width: 1.5; stroke-linecap: square"/>
   </g>
   <g id="line2d_37">
    <path d="M 73.832727 230.086566 
L 90.065455 252.986204 
L 106.298182 284.761069 
L 122.530909 270.140268 
L 138.763636 287.223841 
L 154.996364 279.547274 
L 171.229091 285.214651 
L 187.461818 267.750651 
L 203.694545 273.810437 
L 219.927273 274.61251 
L 236.16 243.331615 
L 252.392727 271.903581 
L 268.625455 265.984459 
L 284.858182 237.777671 
L 301.090909 252.904779 
L 317.323636 282.634171 
L 333.556364 268.209964 
L 349.789091 274.557678 
L 366.021818 274.102114 
L 382.254545 272.447835 
L 398.487273 261.834983 
" clip-path="url(#pfad9cb1b16)" style="fill: none; stroke: #31688e; stroke-opacity: 0.5; stroke-width: 1.5; stroke-linecap: square"/>
   </g>
   <g id="line2d_38">
    <path d="M 73.832727 261.116955 
L 90.065455 267.939617 
L 106.298182 273.465551 
L 122.530909 251.006535 
L 138.763636 272.879703 
L 154.996364 251.504006 
L 171.229091 233.388476 
L 187.461818 248.391475 
L 203.694545 273.017757 
L 219.927273 255.168705 
L 236.16 255.696185 
L 252.392727 270.848675 
L 268.625455 242.649647 
L 284.858182 244.719419 
L 301.090909 234.08917 
L 317.323636 264.584773 
L 333.556364 264.527569 
L 349.789091 268.820438 
L 366.021818 266.484381 
L 382.254545 250.781796 
L 398.487273 270.193105 
" clip-path="url(#pfad9cb1b16)" style="fill: none; stroke: #31688e; stroke-opacity: 0.5; stroke-width: 1.5; stroke-linecap: square"/>
   </g>
   <g id="line2d_39">
    <path d="M 73.832727 237.180484 
L 90.065455 260.303518 
L 106.298182 292.190039 
L 122.530909 230.245454 
L 138.763636 254.129989 
L 154.996364 266.611084 
L 171.229091 250.01378 
L 187.461818 259.587712 
L 203.694545 214.569047 
L 219.927273 251.893867 
L 236.16 226.810451 
L 252.392727 226.67854 
L 268.625455 234.271001 
L 284.858182 227.897445 
L 301.090909 240.324725 
L 317.323636 227.068654 
L 333.556364 238.058755 
L 349.789091 246.750435 
L 366.021818 214.459722 
L 382.254545 231.787303 
L 398.487273 240.717596 
" clip-path="url(#pfad9cb1b16)" style="fill: none; stroke: #31688e; stroke-opacity: 0.5; stroke-width: 1.5; stroke-linecap: square"/>
   </g>
   <g id="line2d_40">
    <path d="M 73.832727 239.115592 
L 90.065455 277.586242 
L 106.298182 278.939328 
L 122.530909 269.287428 
L 138.763636 268.729902 
L 154.996364 269.542956 
L 171.229091 275.567812 
L 187.461818 268.792471 
L 203.694545 226.110136 
L 219.927273 239.089455 
L 236.16 238.560699 
L 252.392727 259.227397 
L 268.625455 261.266503 
L 284.858182 242.391088 
L 301.090909 234.798441 
L 317.323636 235.971088 
L 333.556364 255.348119 
L 349.789091 248.89913 
L 366.021818 218.873637 
L 382.254545 235.67505 
L 398.487273 249.710299 
" clip-path="url(#pfad9cb1b16)" style="fill: none; stroke: #31688e; stroke-opacity: 0.5; stroke-width: 1.5; stroke-linecap: square"/>
   </g>
   <g id="line2d_41">
    <path d="M 73.832727 231.964538 
L 90.065455 244.5886 
L 106.298182 230.017753 
L 122.530909 245.483552 
L 138.763636 226.182652 
L 154.996364 219.209966 
L 171.229091 226.769644 
L 187.461818 231.037812 
L 203.694545 227.508508 
L 219.927273 247.721612 
L 236.16 234.10268 
L 252.392727 226.224849 
L 268.625455 226.019892 
L 284.858182 212.846181 
L 301.090909 231.338501 
L 317.323636 215.158473 
L 333.556364 232.172792 
L 349.789091 223.068758 
L 366.021818 230.110496 
L 382.254545 228.832945 
L 398.487273 227.43697 
" clip-path="url(#pfad9cb1b16)" style="fill: none; stroke: #31688e; stroke-opacity: 0.5; stroke-width: 1.5; stroke-linecap: square"/>
   </g>
   <g id="line2d_42">
    <path d="M 73.832727 275.93295 
L 90.065455 292.378236 
L 106.298182 288.548813 
L 122.530909 286.057793 
L 138.763636 257.456661 
L 154.996364 220.298601 
L 171.229091 269.515441 
L 187.461818 253.034686 
L 203.694545 262.311682 
L 219.927273 243.078603 
L 236.16 244.409256 
L 252.392727 233.370782 
L 268.625455 263.21696 
L 284.858182 246.040127 
L 301.090909 264.732605 
L 317.323636 260.251785 
L 333.556364 246.615169 
L 349.789091 232.407789 
L 366.021818 261.296822 
L 382.254545 271.613893 
L 398.487273 254.153336 
" clip-path="url(#pfad9cb1b16)" style="fill: none; stroke: #31688e; stroke-opacity: 0.5; stroke-width: 1.5; stroke-linecap: square"/>
   </g>
   <g id="line2d_43">
    <path d="M 73.832727 235.388826 
L 90.065455 266.078259 
L 106.298182 270.737184 
L 122.530909 265.274849 
L 138.763636 209.796916 
L 154.996364 208.80117 
L 171.229091 270.619707 
L 187.461818 259.293472 
L 203.694545 272.537524 
L 219.927273 265.238358 
L 236.16 271.552983 
L 252.392727 273.483733 
L 268.625455 260.904973 
L 284.858182 253.203109 
L 301.090909 261.414655 
L 317.323636 243.659361 
L 333.556364 224.181374 
L 349.789091 205.864999 
L 366.021818 189.067866 
L 382.254545 210.640075 
L 398.487273 197.404005 
" clip-path="url(#pfad9cb1b16)" style="fill: none; stroke: #31688e; stroke-opacity: 0.5; stroke-width: 1.5; stroke-linecap: square"/>
   </g>
   <g id="line2d_44">
    <path d="M 73.832727 241.530808 
L 90.065455 224.652494 
L 106.298182 184.569852 
L 122.530909 208.733654 
L 138.763636 280.449702 
L 154.996364 262.425254 
L 171.229091 204.903251 
L 187.461818 244.739025 
L 203.694545 268.227123 
L 219.927273 251.751865 
L 236.16 230.516042 
L 252.392727 225.192201 
L 268.625455 203.039146 
L 284.858182 208.187681 
L 301.090909 186.98655 
L 317.323636 180.881202 
L 333.556364 201.780171 
L 349.789091 191.035768 
L 366.021818 183.085729 
L 382.254545 199.749255 
L 398.487273 192.375536 
" clip-path="url(#pfad9cb1b16)" style="fill: none; stroke: #31688e; stroke-opacity: 0.5; stroke-width: 1.5; stroke-linecap: square"/>
   </g>
   <g id="line2d_45">
    <path d="M 73.832727 280.551568 
L 90.065455 281.078989 
L 106.298182 267.029329 
L 122.530909 258.574895 
L 138.763636 283.079542 
L 154.996364 286.557986 
L 171.229091 260.552664 
L 187.461818 266.71749 
L 203.694545 246.589051 
L 219.927273 256.288563 
L 236.16 278.858901 
L 252.392727 262.438784 
L 268.625455 272.828567 
L 284.858182 258.612212 
L 301.090909 274.599072 
L 317.323636 277.432752 
L 333.556364 266.748103 
L 349.789091 283.328312 
L 366.021818 281.182163 
L 382.254545 293.845253 
L 398.487273 287.225792 
" clip-path="url(#pfad9cb1b16)" style="fill: none; stroke: #31688e; stroke-opacity: 0.5; stroke-width: 1.5; stroke-linecap: square"/>
   </g>
   <g id="line2d_46">
    <path d="M 73.832727 264.15592 
L 90.065455 249.449203 
L 106.298182 243.979709 
L 122.530909 268.86384 
L 138.763636 282.985489 
L 154.996364 284.031861 
L 171.229091 280.028569 
L 187.461818 285.265828 
L 203.694545 283.185148 
L 219.927273 270.053884 
L 236.16 265.144307 
L 252.392727 271.352297 
L 268.625455 283.012715 
L 284.858182 278.308605 
L 301.090909 266.897497 
L 317.323636 282.404021 
L 333.556364 278.340707 
L 349.789091 269.174307 
L 366.021818 287.323227 
L 382.254545 252.09913 
L 398.487273 276.341157 
" clip-path="url(#pfad9cb1b16)" style="fill: none; stroke: #31688e; stroke-opacity: 0.5; stroke-width: 1.5; stroke-linecap: square"/>
   </g>
   <g id="line2d_47">
    <path d="M 73.832727 248.839849 
L 90.065455 262.690327 
L 106.298182 245.851578 
L 122.530909 245.628628 
L 138.763636 239.587122 
L 154.996364 238.514709 
L 171.229091 203.835992 
L 187.461818 218.567795 
L 203.694545 211.327271 
L 219.927273 218.747364 
L 236.16 238.293851 
L 252.392727 222.473523 
L 268.625455 226.928005 
L 284.858182 216.392707 
L 301.090909 248.696945 
L 317.323636 225.312794 
L 333.556364 229.444005 
L 349.789091 252.486279 
L 366.021818 227.345617 
L 382.254545 234.746009 
L 398.487273 248.225235 
" clip-path="url(#pfad9cb1b16)" style="fill: none; stroke: #31688e; stroke-opacity: 0.5; stroke-width: 1.5; stroke-linecap: square"/>
   </g>
   <g id="line2d_48">
    <path d="M 73.832727 248.187651 
L 90.065455 281.253681 
L 106.298182 291.984779 
L 122.530909 287.570869 
L 138.763636 242.819561 
L 154.996364 244.372205 
L 171.229091 258.48706 
L 187.461818 231.668723 
L 203.694545 244.379558 
L 219.927273 244.726994 
L 236.16 252.325604 
L 252.392727 251.200534 
L 268.625455 233.039262 
L 284.858182 218.328301 
L 301.090909 223.38357 
L 317.323636 235.755893 
L 333.556364 251.681842 
L 349.789091 242.31383 
L 366.021818 212.649457 
L 382.254545 231.192113 
L 398.487273 248.90167 
" clip-path="url(#pfad9cb1b16)" style="fill: none; stroke: #31688e; stroke-opacity: 0.5; stroke-width: 1.5; stroke-linecap: square"/>
   </g>
   <g id="line2d_49">
    <path d="M 73.832727 264.558271 
L 90.065455 279.108392 
L 106.298182 260.045922 
L 122.530909 256.526924 
L 138.763636 251.259017 
L 154.996364 252.950036 
L 171.229091 240.764819 
L 187.461818 227.119678 
L 203.694545 203.189852 
L 219.927273 233.511294 
L 236.16 258.580886 
L 252.392727 203.317389 
L 268.625455 244.833672 
L 284.858182 174.089531 
L 301.090909 192.409205 
L 317.323636 200.315289 
L 333.556364 201.29448 
L 349.789091 196.397385 
L 366.021818 185.609616 
L 382.254545 203.766501 
L 398.487273 221.853927 
" clip-path="url(#pfad9cb1b16)" style="fill: none; stroke: #31688e; stroke-opacity: 0.5; stroke-width: 1.5; stroke-linecap: square"/>
   </g>
   <g id="line2d_50">
    <path d="M 73.832727 252.216756 
L 90.065455 254.290573 
L 106.298182 262.910346 
L 122.530909 251.122341 
L 138.763636 275.124663 
L 154.996364 254.579182 
L 171.229091 261.769684 
L 187.461818 238.043449 
L 203.694545 244.383951 
L 219.927273 248.560701 
L 236.16 249.979904 
L 252.392727 276.327892 
L 268.625455 249.605053 
L 284.858182 243.245574 
L 301.090909 244.018878 
L 317.323636 259.902123 
L 333.556364 241.967251 
L 349.789091 257.597956 
L 366.021818 249.053599 
L 382.254545 249.606991 
L 398.487273 249.86268 
" clip-path="url(#pfad9cb1b16)" style="fill: none; stroke: #31688e; stroke-opacity: 0.5; stroke-width: 1.5; stroke-linecap: square"/>
   </g>
   <g id="line2d_51">
    <path d="M 73.832727 277.782814 
L 90.065455 279.304322 
L 106.298182 271.542583 
L 122.530909 280.956787 
L 138.763636 295.330477 
L 154.996364 277.966611 
L 171.229091 290.217106 
L 187.461818 284.03365 
L 203.694545 277.738098 
L 219.927273 254.063844 
L 236.16 245.028247 
L 252.392727 258.5308 
L 268.625455 264.135104 
L 284.858182 256.617726 
L 301.090909 263.222226 
L 317.323636 269.697548 
L 333.556364 260.860495 
L 349.789091 236.623136 
L 366.021818 260.195758 
L 382.254545 269.082411 
L 398.487273 254.981332 
" clip-path="url(#pfad9cb1b16)" style="fill: none; stroke: #31688e; stroke-opacity: 0.5; stroke-width: 1.5; stroke-linecap: square"/>
   </g>
   <g id="line2d_52">
    <path d="M 73.832727 270.423551 
L 90.065455 286.365793 
L 106.298182 284.922656 
L 122.530909 286.535709 
L 138.763636 285.616955 
L 154.996364 276.426293 
L 171.229091 275.716416 
L 187.461818 276.984952 
L 203.694545 283.693867 
L 219.927273 257.463376 
L 236.16 240.759247 
L 252.392727 262.710724 
L 268.625455 255.146574 
L 284.858182 275.317443 
L 301.090909 262.806301 
L 317.323636 256.655575 
L 333.556364 227.781239 
L 349.789091 246.718796 
L 366.021818 244.246193 
L 382.254545 256.249543 
L 398.487273 242.586743 
" clip-path="url(#pfad9cb1b16)" style="fill: none; stroke: #31688e; stroke-opacity: 0.5; stroke-width: 1.5; stroke-linecap: square"/>
   </g>
   <g id="line2d_53">
    <path d="M 73.832727 260.091043 
L 90.065455 243.443403 
L 106.298182 250.190277 
L 122.530909 246.810616 
L 138.763636 249.115456 
L 154.996364 206.506284 
L 171.229091 232.153918 
L 187.461818 245.368469 
L 203.694545 220.830846 
L 219.927273 184.152419 
L 236.16 195.058185 
L 252.392727 186.850208 
L 268.625455 172.068499 
L 284.858182 174.937314 
L 301.090909 182.175058 
L 317.323636 207.52425 
L 333.556364 203.846107 
L 349.789091 196.359621 
L 366.021818 215.938538 
L 382.254545 198.363768 
L 398.487273 206.755803 
" clip-path="url(#pfad9cb1b16)" style="fill: none; stroke: #31688e; stroke-opacity: 0.5; stroke-width: 1.5; stroke-linecap: square"/>
   </g>
   <g id="line2d_54">
    <path d="M 73.832727 295.488 
L 90.065455 286.942822 
L 106.298182 287.594272 
L 122.530909 293.927291 
L 138.763636 282.538629 
L 154.996364 255.765633 
L 171.229091 261.880907 
L 187.461818 291.232078 
L 203.694545 246.497395 
L 219.927273 231.778188 
L 236.16 253.440161 
L 252.392727 251.186019 
L 268.625455 233.727132 
L 284.858182 229.66666 
L 301.090909 219.355739 
L 317.323636 245.762119 
L 333.556364 254.642205 
L 349.789091 254.326785 
L 366.021818 253.227266 
L 382.254545 271.512845 
L 398.487273 262.057319 
" clip-path="url(#pfad9cb1b16)" style="fill: none; stroke: #31688e; stroke-opacity: 0.5; stroke-width: 1.5; stroke-linecap: square"/>
   </g>
   <g id="line2d_55">
    <path d="M 73.832727 279.524131 
L 90.065455 264.14351 
L 106.298182 258.745258 
L 122.530909 254.820698 
L 138.763636 254.379973 
L 154.996364 248.716514 
L 171.229091 262.632967 
L 187.461818 251.078313 
L 203.694545 218.243876 
L 219.927273 231.839961 
L 236.16 231.936255 
L 252.392727 249.378458 
L 268.625455 251.668285 
L 284.858182 257.865135 
L 301.090909 245.50646 
L 317.323636 250.459325 
L 333.556364 242.524065 
L 349.789091 251.808847 
L 366.021818 241.189751 
L 382.254545 273.640037 
L 398.487273 263.153154 
" clip-path="url(#pfad9cb1b16)" style="fill: none; stroke: #31688e; stroke-opacity: 0.5; stroke-width: 1.5; stroke-linecap: square"/>
   </g>
   <g id="line2d_56">
    <path d="M 73.832727 210.102694 
L 90.065455 259.587049 
L 106.298182 263.339058 
L 122.530909 277.196338 
L 138.763636 257.022364 
L 154.996364 228.659516 
L 171.229091 254.76568 
L 187.461818 222.912285 
L 203.694545 213.118195 
L 219.927273 194.556002 
L 236.16 213.688683 
L 252.392727 191.74635 
L 268.625455 216.073606 
L 284.858182 195.443641 
L 301.090909 209.058653 
L 317.323636 217.493859 
L 333.556364 236.209698 
L 349.789091 203.385947 
L 366.021818 215.169723 
L 382.254545 222.723178 
L 398.487273 231.342224 
" clip-path="url(#pfad9cb1b16)" style="fill: none; stroke: #31688e; stroke-opacity: 0.5; stroke-width: 1.5; stroke-linecap: square"/>
   </g>
   <g id="line2d_57">
    <path d="M 73.832727 230.553315 
L 90.065455 272.234313 
L 106.298182 284.858541 
L 122.530909 292.319111 
L 138.763636 284.255625 
L 154.996364 289.772671 
L 171.229091 279.162884 
L 187.461818 264.995647 
L 203.694545 270.52966 
L 219.927273 280.560639 
L 236.16 271.43901 
L 252.392727 275.645899 
L 268.625455 274.129949 
L 284.858182 274.588834 
L 301.090909 279.438944 
L 317.323636 244.462449 
L 333.556364 254.586575 
L 349.789091 257.458385 
L 366.021818 268.350943 
L 382.254545 274.922798 
L 398.487273 270.878051 
" clip-path="url(#pfad9cb1b16)" style="fill: none; stroke: #31688e; stroke-opacity: 0.5; stroke-width: 1.5; stroke-linecap: square"/>
   </g>
   <g id="line2d_58">
    <path d="M 73.832727 226.418957 
L 90.065455 249.079256 
L 106.298182 256.74023 
L 122.530909 262.540747 
L 138.763636 249.537079 
L 154.996364 261.768175 
L 171.229091 209.411949 
L 187.461818 262.757274 
L 203.694545 251.697114 
L 219.927273 259.058538 
L 236.16 234.639888 
L 252.392727 207.159139 
L 268.625455 248.33861 
L 284.858182 245.516875 
L 301.090909 258.812723 
L 317.323636 253.652965 
L 333.556364 276.19384 
L 349.789091 274.309816 
L 366.021818 282.669196 
L 382.254545 284.675336 
L 398.487273 291.135827 
" clip-path="url(#pfad9cb1b16)" style="fill: none; stroke: #31688e; stroke-opacity: 0.5; stroke-width: 1.5; stroke-linecap: square"/>
   </g>
   <g id="line2d_59">
    <path d="M 73.832727 246.028261 
L 90.065455 252.777386 
L 106.298182 253.989185 
L 122.530909 222.172856 
L 138.763636 234.541246 
L 154.996364 245.517267 
L 171.229091 221.403455 
L 187.461818 223.21575 
L 203.694545 206.190133 
L 219.927273 246.831585 
L 236.16 222.48169 
L 252.392727 216.263781 
L 268.625455 229.180498 
L 284.858182 244.852871 
L 301.090909 239.100325 
L 317.323636 217.70768 
L 333.556364 221.44347 
L 349.789091 226.500348 
L 366.021818 220.182731 
L 382.254545 232.723489 
L 398.487273 217.45236 
" clip-path="url(#pfad9cb1b16)" style="fill: none; stroke: #31688e; stroke-opacity: 0.5; stroke-width: 1.5; stroke-linecap: square"/>
   </g>
   <g id="line2d_60">
    <path d="M 73.832727 265.406812 
L 90.065455 279.776738 
L 106.298182 292.850837 
L 122.530909 294.942463 
L 138.763636 288.010251 
L 154.996364 287.51325 
L 171.229091 237.202493 
L 187.461818 230.195423 
L 203.694545 208.369675 
L 219.927273 261.811169 
L 236.16 232.214447 
L 252.392727 239.065989 
L 268.625455 238.071039 
L 284.858182 227.825776 
L 301.090909 229.668261 
L 317.323636 226.785792 
L 333.556364 225.206283 
L 349.789091 228.970981 
L 366.021818 237.660997 
L 382.254545 238.369952 
L 398.487273 241.15045 
" clip-path="url(#pfad9cb1b16)" style="fill: none; stroke: #31688e; stroke-opacity: 0.5; stroke-width: 1.5; stroke-linecap: square"/>
   </g>
   <g id="line2d_61">
    <path d="M 73.832727 266.70522 
L 90.065455 265.188419 
L 106.298182 270.277248 
L 122.530909 282.479372 
L 138.763636 282.330017 
L 154.996364 281.599815 
L 171.229091 247.141494 
L 187.461818 242.396507 
L 203.694545 232.65686 
L 219.927273 238.192672 
L 236.16 253.505227 
L 252.392727 228.409588 
L 268.625455 256.157161 
L 284.858182 234.225797 
L 301.090909 271.332185 
L 317.323636 248.839286 
L 333.556364 242.00946 
L 349.789091 247.105938 
L 366.021818 220.626995 
L 382.254545 233.378308 
L 398.487273 251.289708 
" clip-path="url(#pfad9cb1b16)" style="fill: none; stroke: #31688e; stroke-opacity: 0.5; stroke-width: 1.5; stroke-linecap: square"/>
   </g>
   <g id="line2d_62">
    <path d="M 73.832727 252.80422 
L 90.065455 242.433297 
L 106.298182 255.147514 
L 122.530909 242.267712 
L 138.763636 251.012816 
L 154.996364 248.371918 
L 171.229091 256.783513 
L 187.461818 242.870339 
L 203.694545 209.111344 
L 219.927273 244.967403 
L 236.16 196.461266 
L 252.392727 209.25844 
L 268.625455 207.912056 
L 284.858182 227.203648 
L 301.090909 214.131844 
L 317.323636 198.745509 
L 333.556364 215.261111 
L 349.789091 220.319549 
L 366.021818 243.091772 
L 382.254545 227.868166 
L 398.487273 236.127925 
" clip-path="url(#pfad9cb1b16)" style="fill: none; stroke: #31688e; stroke-opacity: 0.5; stroke-width: 1.5; stroke-linecap: square"/>
   </g>
   <g id="patch_3">
    <path d="M 57.6 307.584 
L 57.6 41.472 
" style="fill: none; stroke: #000000; stroke-width: 3; stroke-linejoin: miter; stroke-linecap: square"/>
   </g>
   <g id="patch_4">
    <path d="M 414.72 307.584 
L 414.72 41.472 
" style="fill: none; stroke: #000000; stroke-width: 3; stroke-linejoin: miter; stroke-linecap: square"/>
   </g>
   <g id="patch_5">
    <path d="M 57.6 307.584 
L 414.72 307.584 
" style="fill: none; stroke: #000000; stroke-width: 3; stroke-linejoin: miter; stroke-linecap: square"/>
   </g>
   <g id="patch_6">
    <path d="M 57.6 41.472 
L 414.72 41.472 
" style="fill: none; stroke: #000000; stroke-width: 3; stroke-linejoin: miter; stroke-linecap: square"/>
   </g>
   <g id="text_12">
    <!-- Atom Type C (n=51, mean Q=11.10) -->
    <g transform="translate(33.818437 35.472) scale(0.22 -0.22)">
     <defs>
      <path id="DejaVuSans-41" d="M 2188 4044 
L 1331 1722 
L 3047 1722 
L 2188 4044 
z
M 1831 4666 
L 2547 4666 
L 4325 0 
L 3669 0 
L 3244 1197 
L 1141 1197 
L 716 0 
L 50 0 
L 1831 4666 
z
" transform="scale(0.015625)"/>
      <path id="DejaVuSans-74" d="M 1172 4494 
L 1172 3500 
L 2356 3500 
L 2356 3053 
L 1172 3053 
L 1172 1153 
Q 1172 725 1289 603 
Q 1406 481 1766 481 
L 2356 481 
L 2356 0 
L 1766 0 
Q 1100 0 847 248 
Q 594 497 594 1153 
L 594 3053 
L 172 3053 
L 172 3500 
L 594 3500 
L 594 4494 
L 1172 4494 
z
" transform="scale(0.015625)"/>
      <path id="DejaVuSans-6f" d="M 1959 3097 
Q 1497 3097 1228 2736 
Q 959 2375 959 1747 
Q 959 1119 1226 758 
Q 1494 397 1959 397 
Q 2419 397 2687 759 
Q 2956 1122 2956 1747 
Q 2956 2369 2687 2733 
Q 2419 3097 1959 3097 
z
M 1959 3584 
Q 2709 3584 3137 3096 
Q 3566 2609 3566 1747 
Q 3566 888 3137 398 
Q 2709 -91 1959 -91 
Q 1206 -91 779 398 
Q 353 888 353 1747 
Q 353 2609 779 3096 
Q 1206 3584 1959 3584 
z
" transform="scale(0.015625)"/>
      <path id="DejaVuSans-6d" d="M 3328 2828 
Q 3544 3216 3844 3400 
Q 4144 3584 4550 3584 
Q 5097 3584 5394 3201 
Q 5691 2819 5691 2113 
L 5691 0 
L 5113 0 
L 5113 2094 
Q 5113 2597 4934 2840 
Q 4756 3084 4391 3084 
Q 3944 3084 3684 2787 
Q 3425 2491 3425 1978 
L 3425 0 
L 2847 0 
L 2847 2094 
Q 2847 2600 2669 2842 
Q 2491 3084 2119 3084 
Q 1678 3084 1418 2786 
Q 1159 2488 1159 1978 
L 1159 0 
L 581 0 
L 581 3500 
L 1159 3500 
L 1159 2956 
Q 1356 3278 1631 3431 
Q 1906 3584 2284 3584 
Q 2666 3584 2933 3390 
Q 3200 3197 3328 2828 
z
" transform="scale(0.015625)"/>
      <path id="DejaVuSans-20" transform="scale(0.015625)"/>
      <path id="DejaVuSans-54" d="M -19 4666 
L 3928 4666 
L 3928 4134 
L 2272 4134 
L 2272 0 
L 1638 0 
L 1638 4134 
L -19 4134 
L -19 4666 
z
" transform="scale(0.015625)"/>
      <path id="DejaVuSans-79" d="M 2059 -325 
Q 1816 -950 1584 -1140 
Q 1353 -1331 966 -1331 
L 506 -1331 
L 506 -850 
L 844 -850 
Q 1081 -850 1212 -737 
Q 1344 -625 1503 -206 
L 1606 56 
L 191 3500 
L 800 3500 
L 1894 763 
L 2988 3500 
L 3597 3500 
L 2059 -325 
z
" transform="scale(0.015625)"/>
      <path id="DejaVuSans-70" d="M 1159 525 
L 1159 -1331 
L 581 -1331 
L 581 3500 
L 1159 3500 
L 1159 2969 
Q 1341 3281 1617 3432 
Q 1894 3584 2278 3584 
Q 2916 3584 3314 3078 
Q 3713 2572 3713 1747 
Q 3713 922 3314 415 
Q 2916 -91 2278 -91 
Q 1894 -91 1617 61 
Q 1341 213 1159 525 
z
M 3116 1747 
Q 3116 2381 2855 2742 
Q 2594 3103 2138 3103 
Q 1681 3103 1420 2742 
Q 1159 2381 1159 1747 
Q 1159 1113 1420 752 
Q 1681 391 2138 391 
Q 2594 391 2855 752 
Q 3116 1113 3116 1747 
z
" transform="scale(0.015625)"/>
      <path id="DejaVuSans-65" d="M 3597 1894 
L 3597 1613 
L 953 1613 
Q 991 1019 1311 708 
Q 1631 397 2203 397 
Q 2534 397 2845 478 
Q 3156 559 3463 722 
L 3463 178 
Q 3153 47 2828 -22 
Q 2503 -91 2169 -91 
Q 1331 -91 842 396 
Q 353 884 353 1716 
Q 353 2575 817 3079 
Q 1281 3584 2069 3584 
Q 2775 3584 3186 3129 
Q 3597 2675 3597 1894 
z
M 3022 2063 
Q 3016 2534 2758 2815 
Q 2500 3097 2075 3097 
Q 1594 3097 1305 2825 
Q 1016 2553 972 2059 
L 3022 2063 
z
" transform="scale(0.015625)"/>
      <path id="DejaVuSans-43" d="M 4122 4306 
L 4122 3641 
Q 3803 3938 3442 4084 
Q 3081 4231 2675 4231 
Q 1875 4231 1450 3742 
Q 1025 3253 1025 2328 
Q 1025 1406 1450 917 
Q 1875 428 2675 428 
Q 3081 428 3442 575 
Q 3803 722 4122 1019 
L 4122 359 
Q 3791 134 3420 21 
Q 3050 -91 2638 -91 
Q 1578 -91 968 557 
Q 359 1206 359 2328 
Q 359 3453 968 4101 
Q 1578 4750 2638 4750 
Q 3056 4750 3426 4639 
Q 3797 4528 4122 4306 
z
" transform="scale(0.015625)"/>
      <path id="DejaVuSans-28" d="M 1984 4856 
Q 1566 4138 1362 3434 
Q 1159 2731 1159 2009 
Q 1159 1288 1364 580 
Q 1569 -128 1984 -844 
L 1484 -844 
Q 1016 -109 783 600 
Q 550 1309 550 2009 
Q 550 2706 781 3412 
Q 1013 4119 1484 4856 
L 1984 4856 
z
" transform="scale(0.015625)"/>
      <path id="DejaVuSans-6e" d="M 3513 2113 
L 3513 0 
L 2938 0 
L 2938 2094 
Q 2938 2591 2744 2837 
Q 2550 3084 2163 3084 
Q 1697 3084 1428 2787 
Q 1159 2491 1159 1978 
L 1159 0 
L 581 0 
L 581 3500 
L 1159 3500 
L 1159 2956 
Q 1366 3272 1645 3428 
Q 1925 3584 2291 3584 
Q 2894 3584 3203 3211 
Q 3513 2838 3513 2113 
z
" transform="scale(0.015625)"/>
      <path id="DejaVuSans-3d" d="M 678 2906 
L 4684 2906 
L 4684 2381 
L 678 2381 
L 678 2906 
z
M 678 1631 
L 4684 1631 
L 4684 1100 
L 678 1100 
L 678 1631 
z
" transform="scale(0.015625)"/>
      <path id="DejaVuSans-2c" d="M 750 794 
L 1409 794 
L 1409 256 
L 897 -744 
L 494 -744 
L 750 256 
L 750 794 
z
" transform="scale(0.015625)"/>
      <path id="DejaVuSans-61" d="M 2194 1759 
Q 1497 1759 1228 1600 
Q 959 1441 959 1056 
Q 959 750 1161 570 
Q 1363 391 1709 391 
Q 2188 391 2477 730 
Q 2766 1069 2766 1631 
L 2766 1759 
L 2194 1759 
z
M 3341 1997 
L 3341 0 
L 2766 0 
L 2766 531 
Q 2569 213 2275 61 
Q 1981 -91 1556 -91 
Q 1019 -91 701 211 
Q 384 513 384 1019 
Q 384 1609 779 1909 
Q 1175 2209 1959 2209 
L 2766 2209 
L 2766 2266 
Q 2766 2663 2505 2880 
Q 2244 3097 1772 3097 
Q 1472 3097 1187 3025 
Q 903 2953 641 2809 
L 641 3341 
Q 956 3463 1253 3523 
Q 1550 3584 1831 3584 
Q 2591 3584 2966 3190 
Q 3341 2797 3341 1997 
z
" transform="scale(0.015625)"/>
      <path id="DejaVuSans-51" d="M 2522 4238 
Q 1834 4238 1429 3725 
Q 1025 3213 1025 2328 
Q 1025 1447 1429 934 
Q 1834 422 2522 422 
Q 3209 422 3611 934 
Q 4013 1447 4013 2328 
Q 4013 3213 3611 3725 
Q 3209 4238 2522 4238 
z
M 3406 84 
L 4238 -825 
L 3475 -825 
L 2784 -78 
Q 2681 -84 2626 -87 
Q 2572 -91 2522 -91 
Q 1538 -91 948 567 
Q 359 1225 359 2328 
Q 359 3434 948 4092 
Q 1538 4750 2522 4750 
Q 3503 4750 4090 4092 
Q 4678 3434 4678 2328 
Q 4678 1516 4351 937 
Q 4025 359 3406 84 
z
" transform="scale(0.015625)"/>
      <path id="DejaVuSans-2e" d="M 684 794 
L 1344 794 
L 1344 0 
L 684 0 
L 684 794 
z
" transform="scale(0.015625)"/>
      <path id="DejaVuSans-29" d="M 513 4856 
L 1013 4856 
Q 1481 4119 1714 3412 
Q 1947 2706 1947 2009 
Q 1947 1309 1714 600 
Q 1481 -109 1013 -844 
L 513 -844 
Q 928 -128 1133 580 
Q 1338 1288 1338 2009 
Q 1338 2731 1133 3434 
Q 928 4138 513 4856 
z
" transform="scale(0.015625)"/>
     </defs>
     <use xlink:href="#DejaVuSans-41"/>
     <use xlink:href="#DejaVuSans-74" transform="translate(66.658203 0)"/>
     <use xlink:href="#DejaVuSans-6f" transform="translate(105.867188 0)"/>
     <use xlink:href="#DejaVuSans-6d" transform="translate(167.048828 0)"/>
     <use xlink:href="#DejaVuSans-20" transform="translate(264.460938 0)"/>
     <use xlink:href="#DejaVuSans-54" transform="translate(296.248047 0)"/>
     <use xlink:href="#DejaVuSans-79" transform="translate(341.707031 0)"/>
     <use xlink:href="#DejaVuSans-70" transform="translate(400.886719 0)"/>
     <use xlink:href="#DejaVuSans-65" transform="translate(464.363281 0)"/>
     <use xlink:href="#DejaVuSans-20" transform="translate(525.886719 0)"/>
     <use xlink:href="#DejaVuSans-43" transform="translate(557.673828 0)"/>
     <use xlink:href="#DejaVuSans-20" transform="translate(627.498047 0)"/>
     <use xlink:href="#DejaVuSans-28" transform="translate(659.285156 0)"/>
     <use xlink:href="#DejaVuSans-6e" transform="translate(698.298828 0)"/>
     <use xlink:href="#DejaVuSans-3d" transform="translate(761.677734 0)"/>
     <use xlink:href="#DejaVuSans-35" transform="translate(845.466797 0)"/>
     <use xlink:href="#DejaVuSans-31" transform="translate(909.089844 0)"/>
     <use xlink:href="#DejaVuSans-2c" transform="translate(972.712891 0)"/>
     <use xlink:href="#DejaVuSans-20" transform="translate(1004.5 0)"/>
     <use xlink:href="#DejaVuSans-6d" transform="translate(1036.287109 0)"/>
     <use xlink:href="#DejaVuSans-65" transform="translate(1133.699219 0)"/>
     <use xlink:href="#DejaVuSans-61" transform="translate(1195.222656 0)"/>
     <use xlink:href="#DejaVuSans-6e" transform="translate(1256.501953 0)"/>
     <use xlink:href="#DejaVuSans-20" transform="translate(1319.880859 0)"/>
     <use xlink:href="#DejaVuSans-51" transform="translate(1351.667969 0)"/>
     <use xlink:href="#DejaVuSans-3d" transform="translate(1430.378906 0)"/>
     <use xlink:href="#DejaVuSans-31" transform="translate(1514.167969 0)"/>
     <use xlink:href="#DejaVuSans-31" transform="translate(1577.791016 0)"/>
     <use xlink:href="#DejaVuSans-2e" transform="translate(1641.414062 0)"/>
     <use xlink:href="#DejaVuSans-31" transform="translate(1673.201172 0)"/>
     <use xlink:href="#DejaVuSans-30" transform="translate(1736.824219 0)"/>
     <use xlink:href="#DejaVuSans-29" transform="translate(1800.447266 0)"/>
    </g>
   </g>
  </g>
 </g>
 <defs>
  <clipPath id="pfad9cb1b16">
   <rect x="57.6" y="41.472" width="357.12" height="266.112"/>
  </clipPath>
 </defs>
</svg>
