<?xml version="1.0" encoding="utf-8" standalone="no"?>
<!DOCTYPE svg PUBLIC "-//W3C//DTD SVG 1.1//EN"
  "http://www.w3.org/Graphics/SVG/1.1/DTD/svg11.dtd">
<svg xmlns:xlink="http://www.w3.org/1999/xlink" width="460.8pt" height="345.6pt" viewBox="0 0 460.8 345.6" xmlns="http://www.w3.org/2000/svg" version="1.1">
 <metadata>
  <rdf:RDF xmlns:dc="http://purl.org/dc/elements/1.1/" xmlns:cc="http://creativecommons.org/ns#" xmlns:rdf="http://www.w3.org/1999/02/22-rdf-syntax-ns#">
   <cc:Work>
    <dc:type rdf:resource="http://purl.org/dc/dcmitype/StillImage"/>
    <dc:date>2025-12-10T13:53:15.666607</dc:date>
    <dc:format>image/svg+xml</dc:format>
    <dc:creator>
     <cc:Agent>
      <dc:title>Matplotlib v3.10.3, https://matplotlib.org/</dc:title>
     </cc:Agent>
    </dc:creator>
   </cc:Work>
  </rdf:RDF>
 </metadata>
 <defs>
  <style type="text/css">*{stroke-linejoin: round; stroke-linecap: butt}</style>
 </defs>
 <g id="figure_1">
  <g id="patch_1">
   <path d="M 0 345.6 
L 460.8 345.6 
L 460.8 0 
L 0 0 
z
" style="fill: #ffffff"/>
  </g>
  <g id="axes_1">
   <g id="patch_2">
    <path d="M 57.6 307.584 
L 414.72 307.584 
L 414.72 41.472 
L 57.6 41.472 
z
" style="fill: #ffffff"/>
   </g>
   <g id="matplotlib.axis_1">
    <g id="xtick_1">
     <g id="line2d_1">
      <defs>
       <path id="ma5a4c7fe28" d="M 0 0 
L 0 3.5 
" style="stroke: #000000; stroke-width: 0.8"/>
      </defs>
      <g>
       <use xlink:href="#ma5a4c7fe28" x="73.832727" y="307.584" style="stroke: #000000; stroke-width: 0.8"/>
      </g>
     </g>
     <g id="text_1">
      <!-- 0 -->
      <g transform="translate(69.060852 325.981656) scale(0.15 -0.15)">
       <defs>
        <path id="DejaVuSans-30" d="M 2034 4250 
Q 1547 4250 1301 3770 
Q 1056 3291 1056 2328 
Q 1056 1369 1301 889 
Q 1547 409 2034 409 
Q 2525 409 2770 889 
Q 3016 1369 3016 2328 
Q 3016 3291 2770 3770 
Q 2525 4250 2034 4250 
z
M 2034 4750 
Q 2819 4750 3233 4129 
Q 3647 3509 3647 2328 
Q 3647 1150 3233 529 
Q 2819 -91 2034 -91 
Q 1250 -91 836 529 
Q 422 1150 422 2328 
Q 422 3509 836 4129 
Q 1250 4750 2034 4750 
z
" transform="scale(0.015625)"/>
       </defs>
       <use xlink:href="#DejaVuSans-30"/>
      </g>
     </g>
    </g>
    <g id="xtick_2">
     <g id="line2d_2">
      <g>
       <use xlink:href="#ma5a4c7fe28" x="154.996364" y="307.584" style="stroke: #000000; stroke-width: 0.8"/>
      </g>
     </g>
     <g id="text_2">
      <!-- 5 -->
      <g transform="translate(150.224489 325.981656) scale(0.15 -0.15)">
       <defs>
        <path id="DejaVuSans-35" d="M 691 4666 
L 3169 4666 
L 3169 4134 
L 1269 4134 
L 1269 2991 
Q 1406 3038 1543 3061 
Q 1681 3084 1819 3084 
Q 2600 3084 3056 2656 
Q 3513 2228 3513 1497 
Q 3513 744 3044 326 
Q 2575 -91 1722 -91 
Q 1428 -91 1123 -41 
Q 819 9 494 109 
L 494 744 
Q 775 591 1075 516 
Q 1375 441 1709 441 
Q 2250 441 2565 725 
Q 2881 1009 2881 1497 
Q 2881 1984 2565 2268 
Q 2250 2553 1709 2553 
Q 1456 2553 1204 2497 
Q 953 2441 691 2322 
L 691 4666 
z
" transform="scale(0.015625)"/>
       </defs>
       <use xlink:href="#DejaVuSans-35"/>
      </g>
     </g>
    </g>
    <g id="xtick_3">
     <g id="line2d_3">
      <g>
       <use xlink:href="#ma5a4c7fe28" x="236.16" y="307.584" style="stroke: #000000; stroke-width: 0.8"/>
      </g>
     </g>
     <g id="text_3">
      <!-- 10 -->
      <g transform="translate(226.61625 325.981656) scale(0.15 -0.15)">
       <defs>
        <path id="DejaVuSans-31" d="M 794 531 
L 1825 531 
L 1825 4091 
L 703 3866 
L 703 4441 
L 1819 4666 
L 2450 4666 
L 2450 531 
L 3481 531 
L 3481 0 
L 794 0 
L 794 531 
z
" transform="scale(0.015625)"/>
       </defs>
       <use xlink:href="#DejaVuSans-31"/>
       <use xlink:href="#DejaVuSans-30" transform="translate(63.623047 0)"/>
      </g>
     </g>
    </g>
    <g id="xtick_4">
     <g id="line2d_4">
      <g>
       <use xlink:href="#ma5a4c7fe28" x="317.323636" y="307.584" style="stroke: #000000; stroke-width: 0.8"/>
      </g>
     </g>
     <g id="text_4">
      <!-- 15 -->
      <g transform="translate(307.779886 325.981656) scale(0.15 -0.15)">
       <use xlink:href="#DejaVuSans-31"/>
       <use xlink:href="#DejaVuSans-35" transform="translate(63.623047 0)"/>
      </g>
     </g>
    </g>
    <g id="xtick_5">
     <g id="line2d_5">
      <g>
       <use xlink:href="#ma5a4c7fe28" x="398.487273" y="307.584" style="stroke: #000000; stroke-width: 0.8"/>
      </g>
     </g>
     <g id="text_5">
      <!-- 20 -->
      <g transform="translate(388.943523 325.981656) scale(0.15 -0.15)">
       <defs>
        <path id="DejaVuSans-32" d="M 1228 531 
L 3431 531 
L 3431 0 
L 469 0 
L 469 531 
Q 828 903 1448 1529 
Q 2069 2156 2228 2338 
Q 2531 2678 2651 2914 
Q 2772 3150 2772 3378 
Q 2772 3750 2511 3984 
Q 2250 4219 1831 4219 
Q 1534 4219 1204 4116 
Q 875 4013 500 3803 
L 500 4441 
Q 881 4594 1212 4672 
Q 1544 4750 1819 4750 
Q 2544 4750 2975 4387 
Q 3406 4025 3406 3419 
Q 3406 3131 3298 2873 
Q 3191 2616 2906 2266 
Q 2828 2175 2409 1742 
Q 1991 1309 1228 531 
z
" transform="scale(0.015625)"/>
       </defs>
       <use xlink:href="#DejaVuSans-32"/>
       <use xlink:href="#DejaVuSans-30" transform="translate(63.623047 0)"/>
      </g>
     </g>
    </g>
   </g>
   <g id="matplotlib.axis_2">
    <g id="ytick_1">
     <g id="line2d_6">
      <defs>
       <path id="mc8adbf0ced" d="M 0 0 
L -3.5 0 
" style="stroke: #000000; stroke-width: 0.8"/>
      </defs>
      <g>
       <use xlink:href="#mc8adbf0ced" x="57.6" y="275.579196" style="stroke: #000000; stroke-width: 0.8"/>
      </g>
     </g>
     <g id="text_6">
      <!-- 5 -->
      <g transform="translate(41.05625 281.278024) scale(0.15 -0.15)">
       <use xlink:href="#DejaVuSans-35"/>
      </g>
     </g>
    </g>
    <g id="ytick_2">
     <g id="line2d_7">
      <g>
       <use xlink:href="#mc8adbf0ced" x="57.6" y="225.927187" style="stroke: #000000; stroke-width: 0.8"/>
      </g>
     </g>
     <g id="text_7">
      <!-- 10 -->
      <g transform="translate(31.5125 231.626015) scale(0.15 -0.15)">
       <use xlink:href="#DejaVuSans-31"/>
       <use xlink:href="#DejaVuSans-30" transform="translate(63.623047 0)"/>
      </g>
     </g>
    </g>
    <g id="ytick_3">
     <g id="line2d_8">
      <g>
       <use xlink:href="#mc8adbf0ced" x="57.6" y="176.275178" style="stroke: #000000; stroke-width: 0.8"/>
      </g>
     </g>
     <g id="text_8">
      <!-- 15 -->
      <g transform="translate(31.5125 181.974006) scale(0.15 -0.15)">
       <use xlink:href="#DejaVuSans-31"/>
       <use xlink:href="#DejaVuSans-35" transform="translate(63.623047 0)"/>
      </g>
     </g>
    </g>
    <g id="ytick_4">
     <g id="line2d_9">
      <g>
       <use xlink:href="#mc8adbf0ced" x="57.6" y="126.623169" style="stroke: #000000; stroke-width: 0.8"/>
      </g>
     </g>
     <g id="text_9">
      <!-- 20 -->
      <g transform="translate(31.5125 132.321997) scale(0.15 -0.15)">
       <use xlink:href="#DejaVuSans-32"/>
       <use xlink:href="#DejaVuSans-30" transform="translate(63.623047 0)"/>
      </g>
     </g>
    </g>
    <g id="ytick_5">
     <g id="line2d_10">
      <g>
       <use xlink:href="#mc8adbf0ced" x="57.6" y="76.971159" style="stroke: #000000; stroke-width: 0.8"/>
      </g>
     </g>
     <g id="text_10">
      <!-- 25 -->
      <g transform="translate(31.5125 82.669988) scale(0.15 -0.15)">
       <use xlink:href="#DejaVuSans-32"/>
       <use xlink:href="#DejaVuSans-35" transform="translate(63.623047 0)"/>
      </g>
     </g>
    </g>
   </g>
   <g id="line2d_11">
    <path d="M 73.832727 265.55303 
L 90.065455 255.130087 
L 106.298182 223.113235 
L 122.530909 206.248353 
L 138.763636 258.773428 
L 154.996364 180.186473 
L 171.229091 245.881984 
L 187.461818 214.112143 
L 203.694545 252.933713 
L 219.927273 195.592271 
L 236.16 103.591458 
L 252.392727 114.851322 
L 268.625455 196.718747 
L 284.858182 182.972902 
L 301.090909 190.253116 
L 317.323636 178.547038 
L 333.556364 133.59125 
L 349.789091 206.444244 
L 366.021818 154.499397 
L 382.254545 169.006168 
L 398.487273 255.813587 
" clip-path="url(#p984e75e04b)" style="fill: none; stroke: #440154; stroke-opacity: 0.5; stroke-width: 1.5; stroke-linecap: square"/>
   </g>
   <g id="line2d_12">
    <path d="M 73.832727 231.230017 
L 90.065455 220.30321 
L 106.298182 138.709965 
L 122.530909 214.380615 
L 138.763636 214.36407 
L 154.996364 117.27152 
L 171.229091 198.340955 
L 187.461818 199.512732 
L 203.694545 236.578336 
L 219.927273 237.686181 
L 236.16 171.865034 
L 252.392727 88.049165 
L 268.625455 204.367153 
L 284.858182 113.948609 
L 301.090909 159.963523 
L 317.323636 115.35806 
L 333.556364 225.932129 
L 349.789091 236.592166 
L 366.021818 162.164835 
L 382.254545 161.854769 
L 398.487273 261.155856 
" clip-path="url(#p984e75e04b)" style="fill: none; stroke: #440154; stroke-opacity: 0.5; stroke-width: 1.5; stroke-linecap: square"/>
   </g>
   <g id="line2d_13">
    <path d="M 73.832727 265.691438 
L 90.065455 266.11978 
L 106.298182 243.072436 
L 122.530909 101.505544 
L 138.763636 267.337006 
L 154.996364 197.555918 
L 171.229091 249.924866 
L 187.461818 197.756234 
L 203.694545 260.464376 
L 219.927273 247.329271 
L 236.16 202.900011 
L 252.392727 132.797333 
L 268.625455 224.137352 
L 284.858182 157.063414 
L 301.090909 144.686414 
L 317.323636 89.694767 
L 333.556364 192.573519 
L 349.789091 178.002433 
L 366.021818 185.428242 
L 382.254545 213.090832 
L 398.487273 242.94352 
" clip-path="url(#p984e75e04b)" style="fill: none; stroke: #440154; stroke-opacity: 0.5; stroke-width: 1.5; stroke-linecap: square"/>
   </g>
   <g id="line2d_14">
    <path d="M 73.832727 259.659759 
L 90.065455 235.228192 
L 106.298182 280.911497 
L 122.530909 233.061755 
L 138.763636 260.844011 
L 154.996364 242.970699 
L 171.229091 238.693718 
L 187.461818 160.868362 
L 203.694545 183.408521 
L 219.927273 137.783846 
L 236.16 87.85338 
L 252.392727 160.869192 
L 268.625455 204.611805 
L 284.858182 148.755094 
L 301.090909 137.100425 
L 317.323636 206.504306 
L 333.556364 182.959637 
L 349.789091 264.254118 
L 366.021818 216.337039 
L 382.254545 254.564869 
L 398.487273 210.827154 
" clip-path="url(#p984e75e04b)" style="fill: none; stroke: #440154; stroke-opacity: 0.5; stroke-width: 1.5; stroke-linecap: square"/>
   </g>
   <g id="line2d_15">
    <path d="M 73.832727 263.83632 
L 90.065455 252.014702 
L 106.298182 260.225696 
L 122.530909 169.785215 
L 138.763636 265.568823 
L 154.996364 262.523787 
L 171.229091 239.309932 
L 187.461818 167.73609 
L 203.694545 231.637383 
L 219.927273 164.142277 
L 236.16 176.799802 
L 252.392727 217.018033 
L 268.625455 160.832519 
L 284.858182 235.057283 
L 301.090909 193.215029 
L 317.323636 220.157191 
L 333.556364 132.585554 
L 349.789091 219.743513 
L 366.021818 207.786966 
L 382.254545 226.621531 
L 398.487273 136.632888 
" clip-path="url(#p984e75e04b)" style="fill: none; stroke: #440154; stroke-opacity: 0.5; stroke-width: 1.5; stroke-linecap: square"/>
   </g>
   <g id="line2d_16">
    <path d="M 73.832727 272.311946 
L 90.065455 243.1623 
L 106.298182 237.044041 
L 122.530909 203.601856 
L 138.763636 247.053089 
L 154.996364 241.35781 
L 171.229091 245.800189 
L 187.461818 217.179098 
L 203.694545 244.411511 
L 219.927273 203.081394 
L 236.16 140.730715 
L 252.392727 114.156198 
L 268.625455 174.602682 
L 284.858182 144.00654 
L 301.090909 238.286224 
L 317.323636 246.467158 
L 333.556364 228.736543 
L 349.789091 264.991236 
L 366.021818 236.590472 
L 382.254545 258.174932 
L 398.487273 154.362449 
" clip-path="url(#p984e75e04b)" style="fill: none; stroke: #440154; stroke-opacity: 0.5; stroke-width: 1.5; stroke-linecap: square"/>
   </g>
   <g id="line2d_17">
    <path d="M 73.832727 247.454766 
L 90.065455 254.025783 
L 106.298182 250.526316 
L 122.530909 283.246265 
L 138.763636 201.508057 
L 154.996364 241.958344 
L 171.229091 242.259474 
L 187.461818 193.087734 
L 203.694545 181.694852 
L 219.927273 218.407501 
L 236.16 234.819891 
L 252.392727 204.460759 
L 268.625455 71.192053 
L 284.858182 146.463612 
L 301.090909 160.439882 
L 317.323636 201.254959 
L 333.556364 251.551581 
L 349.789091 141.840462 
L 366.021818 238.626851 
L 382.254545 172.705714 
L 398.487273 186.117653 
" clip-path="url(#p984e75e04b)" style="fill: none; stroke: #440154; stroke-opacity: 0.5; stroke-width: 1.5; stroke-linecap: square"/>
   </g>
   <g id="line2d_18">
    <path d="M 73.832727 222.971396 
L 90.065455 215.247733 
L 106.298182 233.551259 
L 122.530909 218.073008 
L 138.763636 100.242035 
L 154.996364 198.158937 
L 171.229091 171.669903 
L 187.461818 146.394721 
L 203.694545 204.875286 
L 219.927273 253.825271 
L 236.16 252.153366 
L 252.392727 190.744716 
L 268.625455 113.939193 
L 284.858182 129.93255 
L 301.090909 99.745843 
L 317.323636 215.818488 
L 333.556364 274.193505 
L 349.789091 176.65179 
L 366.021818 242.341652 
L 382.254545 130.824002 
L 398.487273 234.592593 
" clip-path="url(#p984e75e04b)" style="fill: none; stroke: #440154; stroke-opacity: 0.5; stroke-width: 1.5; stroke-linecap: square"/>
   </g>
   <g id="line2d_19">
    <path d="M 73.832727 206.741339 
L 90.065455 181.831837 
L 106.298182 178.631711 
L 122.530909 223.571278 
L 138.763636 206.726172 
L 154.996364 212.601116 
L 171.229091 228.466945 
L 187.461818 194.851613 
L 203.694545 113.391519 
L 219.927273 264.929528 
L 236.16 220.309659 
L 252.392727 144.711416 
L 268.625455 105.3918 
L 284.858182 191.562028 
L 301.090909 187.622101 
L 317.323636 228.867833 
L 333.556364 273.556781 
L 349.789091 221.057516 
L 366.021818 263.25361 
L 382.254545 143.857499 
L 398.487273 250.358568 
" clip-path="url(#p984e75e04b)" style="fill: none; stroke: #440154; stroke-opacity: 0.5; stroke-width: 1.5; stroke-linecap: square"/>
   </g>
   <g id="line2d_20">
    <path d="M 73.832727 252.077653 
L 90.065455 242.264352 
L 106.298182 220.124209 
L 122.530909 194.418841 
L 138.763636 231.549547 
L 154.996364 206.386197 
L 171.229091 173.519248 
L 187.461818 226.935914 
L 203.694545 206.138536 
L 219.927273 190.387303 
L 236.16 197.642075 
L 252.392727 205.623258 
L 268.625455 107.498909 
L 284.858182 189.909458 
L 301.090909 219.697222 
L 317.323636 190.988292 
L 333.556364 199.966418 
L 349.789091 118.174528 
L 366.021818 228.194793 
L 382.254545 211.650772 
L 398.487273 208.485651 
" clip-path="url(#p984e75e04b)" style="fill: none; stroke: #440154; stroke-opacity: 0.5; stroke-width: 1.5; stroke-linecap: square"/>
   </g>
   <g id="line2d_21">
    <path d="M 73.832727 251.639401 
L 90.065455 154.855349 
L 106.298182 181.67274 
L 122.530909 227.839301 
L 138.763636 208.072205 
L 154.996364 122.954505 
L 171.229091 97.694261 
L 187.461818 197.862169 
L 203.694545 224.934405 
L 219.927273 210.646342 
L 236.16 160.481132 
L 252.392727 218.813365 
L 268.625455 90.362321 
L 284.858182 229.320724 
L 301.090909 237.188839 
L 317.323636 203.565657 
L 333.556364 218.116819 
L 349.789091 202.394311 
L 366.021818 217.753978 
L 382.254545 184.804683 
L 398.487273 211.968383 
" clip-path="url(#p984e75e04b)" style="fill: none; stroke: #440154; stroke-opacity: 0.5; stroke-width: 1.5; stroke-linecap: square"/>
   </g>
   <g id="line2d_22">
    <path d="M 73.832727 241.719543 
L 90.065455 237.097246 
L 106.298182 240.403972 
L 122.530909 240.544064 
L 138.763636 182.201292 
L 154.996364 234.014447 
L 171.229091 236.401003 
L 187.461818 245.095398 
L 203.694545 164.958236 
L 219.927273 123.583211 
L 236.16 241.149361 
L 252.392727 176.504424 
L 268.625455 194.374869 
L 284.858182 219.61199 
L 301.090909 249.068703 
L 317.323636 205.581128 
L 333.556364 192.846577 
L 349.789091 176.339532 
L 366.021818 176.012515 
L 382.254545 212.999034 
L 398.487273 148.806703 
" clip-path="url(#p984e75e04b)" style="fill: none; stroke: #440154; stroke-opacity: 0.5; stroke-width: 1.5; stroke-linecap: square"/>
   </g>
   <g id="line2d_23">
    <path d="M 73.832727 233.757636 
L 90.065455 238.460627 
L 106.298182 225.154209 
L 122.530909 242.515348 
L 138.763636 232.038928 
L 154.996364 199.192255 
L 171.229091 169.414864 
L 187.461818 169.516531 
L 203.694545 153.361539 
L 219.927273 158.9164 
L 236.16 220.06934 
L 252.392727 199.93536 
L 268.625455 134.406036 
L 284.858182 187.810146 
L 301.090909 180.873037 
L 317.323636 224.649225 
L 333.556364 110.51494 
L 349.789091 229.665108 
L 366.021818 188.3691 
L 382.254545 231.294124 
L 398.487273 176.823139 
" clip-path="url(#p984e75e04b)" style="fill: none; stroke: #440154; stroke-opacity: 0.5; stroke-width: 1.5; stroke-linecap: square"/>
   </g>
   <g id="line2d_24">
    <path d="M 73.832727 194.587749 
L 90.065455 201.636163 
L 106.298182 243.927755 
L 122.530909 204.28016 
L 138.763636 199.515756 
L 154.996364 231.145611 
L 171.229091 158.328517 
L 187.461818 179.488223 
L 203.694545 179.532128 
L 219.927273 159.689039 
L 236.16 211.446274 
L 252.392727 148.907449 
L 268.625455 162.443811 
L 284.858182 172.605761 
L 301.090909 181.792123 
L 317.323636 173.902587 
L 333.556364 170.950568 
L 349.789091 172.395927 
L 366.021818 189.766672 
L 382.254545 193.888875 
L 398.487273 156.124832 
" clip-path="url(#p984e75e04b)" style="fill: none; stroke: #440154; stroke-opacity: 0.5; stroke-width: 1.5; stroke-linecap: square"/>
   </g>
   <g id="line2d_25">
    <path d="M 73.832727 280.25171 
L 90.065455 276.755931 
L 106.298182 262.05502 
L 122.530909 231.35722 
L 138.763636 248.620473 
L 154.996364 206.580433 
L 171.229091 191.77516 
L 187.461818 223.701381 
L 203.694545 228.721856 
L 219.927273 190.952941 
L 236.16 141.529033 
L 252.392727 158.394648 
L 268.625455 201.467087 
L 284.858182 95.334001 
L 301.090909 102.164875 
L 317.323636 139.03783 
L 333.556364 223.445097 
L 349.789091 123.272228 
L 366.021818 146.541612 
L 382.254545 170.817071 
L 398.487273 196.988887 
" clip-path="url(#p984e75e04b)" style="fill: none; stroke: #440154; stroke-opacity: 0.5; stroke-width: 1.5; stroke-linecap: square"/>
   </g>
   <g id="line2d_26">
    <path d="M 73.832727 267.878037 
L 90.065455 257.772633 
L 106.298182 274.426961 
L 122.530909 222.894614 
L 138.763636 232.028255 
L 154.996364 205.147126 
L 171.229091 201.088397 
L 187.461818 254.125075 
L 203.694545 213.12004 
L 219.927273 166.921109 
L 236.16 238.610374 
L 252.392727 187.698124 
L 268.625455 222.26452 
L 284.858182 203.784832 
L 301.090909 200.664515 
L 317.323636 247.93619 
L 333.556364 253.366748 
L 349.789091 210.01218 
L 366.021818 240.80754 
L 382.254545 250.740926 
L 398.487273 252.230917 
" clip-path="url(#p984e75e04b)" style="fill: none; stroke: #440154; stroke-opacity: 0.5; stroke-width: 1.5; stroke-linecap: square"/>
   </g>
   <g id="line2d_27">
    <path d="M 73.832727 268.178433 
L 90.065455 265.740935 
L 106.298182 281.153275 
L 122.530909 244.333472 
L 138.763636 249.771843 
L 154.996364 177.286923 
L 171.229091 233.494733 
L 187.461818 234.713991 
L 203.694545 237.872504 
L 219.927273 184.855615 
L 236.16 232.402748 
L 252.392727 211.579047 
L 268.625455 217.90335 
L 284.858182 199.31283 
L 301.090909 216.481835 
L 317.323636 254.167937 
L 333.556364 276.951134 
L 349.789091 216.288253 
L 366.021818 237.547861 
L 382.254545 256.719789 
L 398.487273 254.885328 
" clip-path="url(#p984e75e04b)" style="fill: none; stroke: #440154; stroke-opacity: 0.5; stroke-width: 1.5; stroke-linecap: square"/>
   </g>
   <g id="line2d_28">
    <path d="M 73.832727 273.352586 
L 90.065455 235.264634 
L 106.298182 251.888462 
L 122.530909 251.245793 
L 138.763636 258.554341 
L 154.996364 247.397355 
L 171.229091 239.782152 
L 187.461818 250.162336 
L 203.694545 215.969345 
L 219.927273 221.389575 
L 236.16 181.868018 
L 252.392727 225.335921 
L 268.625455 246.947975 
L 284.858182 235.197467 
L 301.090909 176.465757 
L 317.323636 218.67998 
L 333.556364 178.342158 
L 349.789091 258.636396 
L 366.021818 195.669086 
L 382.254545 190.786399 
L 398.487273 162.545547 
" clip-path="url(#p984e75e04b)" style="fill: none; stroke: #440154; stroke-opacity: 0.5; stroke-width: 1.5; stroke-linecap: square"/>
   </g>
   <g id="line2d_29">
    <path d="M 73.832727 256.493407 
L 90.065455 245.733276 
L 106.298182 241.476006 
L 122.530909 257.709628 
L 138.763636 229.654685 
L 154.996364 229.410823 
L 171.229091 251.861584 
L 187.461818 252.457356 
L 203.694545 232.902121 
L 219.927273 237.872985 
L 236.16 193.797403 
L 252.392727 203.955311 
L 268.625455 253.808001 
L 284.858182 216.351643 
L 301.090909 143.484257 
L 317.323636 163.298674 
L 333.556364 243.934425 
L 349.789091 240.84014 
L 366.021818 248.35396 
L 382.254545 231.465925 
L 398.487273 229.447467 
" clip-path="url(#p984e75e04b)" style="fill: none; stroke: #440154; stroke-opacity: 0.5; stroke-width: 1.5; stroke-linecap: square"/>
   </g>
   <g id="line2d_30">
    <path d="M 73.832727 269.502538 
L 90.065455 274.00076 
L 106.298182 255.655314 
L 122.530909 250.343898 
L 138.763636 261.46852 
L 154.996364 231.014558 
L 171.229091 254.904381 
L 187.461818 220.952018 
L 203.694545 209.3487 
L 219.927273 250.103963 
L 236.16 160.499552 
L 252.392727 188.756498 
L 268.625455 254.890752 
L 284.858182 181.531878 
L 301.090909 242.561599 
L 317.323636 229.953236 
L 333.556364 173.073042 
L 349.789091 256.18902 
L 366.021818 222.537462 
L 382.254545 232.639555 
L 398.487273 240.260123 
" clip-path="url(#p984e75e04b)" style="fill: none; stroke: #440154; stroke-opacity: 0.5; stroke-width: 1.5; stroke-linecap: square"/>
   </g>
   <g id="line2d_31">
    <path d="M 73.832727 278.730623 
L 90.065455 249.127656 
L 106.298182 220.027761 
L 122.530909 237.962411 
L 138.763636 270.677612 
L 154.996364 252.607156 
L 171.229091 268.790817 
L 187.461818 201.881508 
L 203.694545 236.446712 
L 219.927273 220.151655 
L 236.16 227.180583 
L 252.392727 234.422136 
L 268.625455 218.015645 
L 284.858182 241.391875 
L 301.090909 211.511608 
L 317.323636 214.802811 
L 333.556364 216.763794 
L 349.789091 195.127425 
L 366.021818 164.062883 
L 382.254545 159.327313 
L 398.487273 180.934648 
" clip-path="url(#p984e75e04b)" style="fill: none; stroke: #440154; stroke-opacity: 0.5; stroke-width: 1.5; stroke-linecap: square"/>
   </g>
   <g id="line2d_32">
    <path d="M 73.832727 275.555099 
L 90.065455 261.211993 
L 106.298182 252.164305 
L 122.530909 261.698132 
L 138.763636 218.116206 
L 154.996364 262.175392 
L 171.229091 248.82161 
L 187.461818 254.60454 
L 203.694545 205.425588 
L 219.927273 225.251463 
L 236.16 225.039651 
L 252.392727 180.141797 
L 268.625455 181.274485 
L 284.858182 208.40989 
L 301.090909 172.291974 
L 317.323636 193.23365 
L 333.556364 153.550749 
L 349.789091 221.401456 
L 366.021818 205.260637 
L 382.254545 227.612096 
L 398.487273 235.690773 
" clip-path="url(#p984e75e04b)" style="fill: none; stroke: #440154; stroke-opacity: 0.5; stroke-width: 1.5; stroke-linecap: square"/>
   </g>
   <g id="line2d_33">
    <path d="M 73.832727 272.8274 
L 90.065455 248.607394 
L 106.298182 208.313687 
L 122.530909 235.72583 
L 138.763636 256.635441 
L 154.996364 236.041525 
L 171.229091 221.612461 
L 187.461818 252.196122 
L 203.694545 248.666331 
L 219.927273 200.753532 
L 236.16 126.552123 
L 252.392727 182.693399 
L 268.625455 227.314145 
L 284.858182 229.13497 
L 301.090909 210.09775 
L 317.323636 252.604774 
L 333.556364 247.805213 
L 349.789091 220.443568 
L 366.021818 217.130073 
L 382.254545 234.533411 
L 398.487273 231.236605 
" clip-path="url(#p984e75e04b)" style="fill: none; stroke: #440154; stroke-opacity: 0.5; stroke-width: 1.5; stroke-linecap: square"/>
   </g>
   <g id="line2d_34">
    <path d="M 73.832727 239.920841 
L 90.065455 250.016708 
L 106.298182 280.318634 
L 122.530909 167.355905 
L 138.763636 233.771884 
L 154.996364 197.968029 
L 171.229091 240.093515 
L 187.461818 229.90684 
L 203.694545 167.759527 
L 219.927273 152.758422 
L 236.16 219.531847 
L 252.392727 230.475377 
L 268.625455 250.440364 
L 284.858182 199.277169 
L 301.090909 217.492067 
L 317.323636 201.853287 
L 333.556364 217.442276 
L 349.789091 243.160492 
L 366.021818 235.832443 
L 382.254545 197.261909 
L 398.487273 203.549522 
" clip-path="url(#p984e75e04b)" style="fill: none; stroke: #440154; stroke-opacity: 0.5; stroke-width: 1.5; stroke-linecap: square"/>
   </g>
   <g id="line2d_35">
    <path d="M 73.832727 245.471288 
L 90.065455 204.659356 
L 106.298182 231.219537 
L 122.530909 223.588281 
L 138.763636 209.056621 
L 154.996364 160.94909 
L 171.229091 179.79114 
L 187.461818 224.877249 
L 203.694545 235.541483 
L 219.927273 180.685204 
L 236.16 258.556816 
L 252.392727 240.597082 
L 268.625455 179.377364 
L 284.858182 225.88045 
L 301.090909 213.44913 
L 317.323636 257.527074 
L 333.556364 232.585653 
L 349.789091 170.186228 
L 366.021818 248.972392 
L 382.254545 273.569391 
L 398.487273 241.033353 
" clip-path="url(#p984e75e04b)" style="fill: none; stroke: #440154; stroke-opacity: 0.5; stroke-width: 1.5; stroke-linecap: square"/>
   </g>
   <g id="line2d_36">
    <path d="M 73.832727 182.362393 
L 90.065455 166.912675 
L 106.298182 253.515294 
L 122.530909 257.584142 
L 138.763636 216.15754 
L 154.996364 206.885081 
L 171.229091 221.918673 
L 187.461818 234.413373 
L 203.694545 248.783272 
L 219.927273 230.862158 
L 236.16 236.621191 
L 252.392727 187.126942 
L 268.625455 219.121298 
L 284.858182 177.689632 
L 301.090909 150.38318 
L 317.323636 197.841974 
L 333.556364 206.451661 
L 349.789091 192.15299 
L 366.021818 215.079148 
L 382.254545 183.8933 
L 398.487273 192.458672 
" clip-path="url(#p984e75e04b)" style="fill: none; stroke: #440154; stroke-opacity: 0.5; stroke-width: 1.5; stroke-linecap: square"/>
   </g>
   <g id="line2d_37">
    <path d="M 73.832727 267.59475 
L 90.065455 227.859809 
L 106.298182 222.960492 
L 122.530909 249.244592 
L 138.763636 240.742744 
L 154.996364 249.055967 
L 171.229091 246.542766 
L 187.461818 235.094579 
L 203.694545 218.987277 
L 219.927273 225.209984 
L 236.16 256.628744 
L 252.392727 190.991134 
L 268.625455 194.478345 
L 284.858182 208.131058 
L 301.090909 206.113342 
L 317.323636 224.873755 
L 333.556364 207.440228 
L 349.789091 173.14249 
L 366.021818 243.110012 
L 382.254545 219.269397 
L 398.487273 218.272072 
" clip-path="url(#p984e75e04b)" style="fill: none; stroke: #440154; stroke-opacity: 0.5; stroke-width: 1.5; stroke-linecap: square"/>
   </g>
   <g id="line2d_38">
    <path d="M 73.832727 232.395993 
L 90.065455 211.447833 
L 106.298182 221.107275 
L 122.530909 237.464648 
L 138.763636 208.481701 
L 154.996364 193.433806 
L 171.229091 203.234337 
L 187.461818 196.493808 
L 203.694545 197.599771 
L 219.927273 206.527693 
L 236.16 199.054649 
L 252.392727 210.394998 
L 268.625455 205.680299 
L 284.858182 216.105841 
L 301.090909 195.523769 
L 317.323636 208.39955 
L 333.556364 225.298873 
L 349.789091 171.498099 
L 366.021818 204.245569 
L 382.254545 186.706869 
L 398.487273 197.012804 
" clip-path="url(#p984e75e04b)" style="fill: none; stroke: #440154; stroke-opacity: 0.5; stroke-width: 1.5; stroke-linecap: square"/>
   </g>
   <g id="line2d_39">
    <path d="M 73.832727 285.532985 
L 90.065455 257.883317 
L 106.298182 234.108429 
L 122.530909 229.064354 
L 138.763636 226.813474 
L 154.996364 242.00093 
L 171.229091 53.568 
L 187.461818 251.388308 
L 203.694545 257.438638 
L 219.927273 226.404183 
L 236.16 227.425883 
L 252.392727 232.891749 
L 268.625455 207.186049 
L 284.858182 239.011061 
L 301.090909 243.630307 
L 317.323636 242.81451 
L 333.556364 236.353407 
L 349.789091 219.42098 
L 366.021818 213.005018 
L 382.254545 196.008189 
L 398.487273 228.50917 
" clip-path="url(#p984e75e04b)" style="fill: none; stroke: #440154; stroke-opacity: 0.5; stroke-width: 1.5; stroke-linecap: square"/>
   </g>
   <g id="line2d_40">
    <path d="M 73.832727 252.588685 
L 90.065455 251.034858 
L 106.298182 265.914697 
L 122.530909 266.230564 
L 138.763636 165.327728 
L 154.996364 227.234314 
L 171.229091 137.646422 
L 187.461818 239.805057 
L 203.694545 223.751158 
L 219.927273 176.638984 
L 236.16 229.5086 
L 252.392727 153.193622 
L 268.625455 127.880896 
L 284.858182 246.019265 
L 301.090909 247.918687 
L 317.323636 240.46031 
L 333.556364 227.617383 
L 349.789091 220.728418 
L 366.021818 212.917365 
L 382.254545 241.424001 
L 398.487273 271.522777 
" clip-path="url(#p984e75e04b)" style="fill: none; stroke: #440154; stroke-opacity: 0.5; stroke-width: 1.5; stroke-linecap: square"/>
   </g>
   <g id="line2d_41">
    <path d="M 73.832727 232.909401 
L 90.065455 251.038498 
L 106.298182 275.742983 
L 122.530909 280.337759 
L 138.763636 220.971985 
L 154.996364 240.820044 
L 171.229091 129.87867 
L 187.461818 242.273163 
L 203.694545 259.104165 
L 219.927273 204.768026 
L 236.16 221.362786 
L 252.392727 212.360746 
L 268.625455 160.850185 
L 284.858182 244.352043 
L 301.090909 254.727561 
L 317.323636 232.90343 
L 333.556364 208.989089 
L 349.789091 241.182568 
L 366.021818 209.624579 
L 382.254545 192.333401 
L 398.487273 232.173432 
" clip-path="url(#p984e75e04b)" style="fill: none; stroke: #440154; stroke-opacity: 0.5; stroke-width: 1.5; stroke-linecap: square"/>
   </g>
   <g id="line2d_42">
    <path d="M 73.832727 273.086624 
L 90.065455 249.894374 
L 106.298182 260.898193 
L 122.530909 273.138452 
L 138.763636 238.214885 
L 154.996364 251.193905 
L 171.229091 223.161707 
L 187.461818 216.880811 
L 203.694545 120.379455 
L 219.927273 215.179533 
L 236.16 224.523144 
L 252.392727 191.169558 
L 268.625455 236.859525 
L 284.858182 260.925469 
L 301.090909 242.780492 
L 317.323636 238.103275 
L 333.556364 250.797535 
L 349.789091 230.233279 
L 366.021818 249.690453 
L 382.254545 241.304636 
L 398.487273 242.804559 
" clip-path="url(#p984e75e04b)" style="fill: none; stroke: #440154; stroke-opacity: 0.5; stroke-width: 1.5; stroke-linecap: square"/>
   </g>
   <g id="line2d_43">
    <path d="M 73.832727 241.099166 
L 90.065455 268.227209 
L 106.298182 267.804621 
L 122.530909 230.934541 
L 138.763636 220.15878 
L 154.996364 247.460483 
L 171.229091 224.667761 
L 187.461818 192.866234 
L 203.694545 165.904131 
L 219.927273 223.278263 
L 236.16 220.529628 
L 252.392727 247.086851 
L 268.625455 233.989336 
L 284.858182 266.990349 
L 301.090909 259.013436 
L 317.323636 214.664524 
L 333.556364 195.312976 
L 349.789091 162.725684 
L 366.021818 202.417557 
L 382.254545 213.955827 
L 398.487273 211.726482 
" clip-path="url(#p984e75e04b)" style="fill: none; stroke: #440154; stroke-opacity: 0.5; stroke-width: 1.5; stroke-linecap: square"/>
   </g>
   <g id="line2d_44">
    <path d="M 73.832727 242.339906 
L 90.065455 232.081454 
L 106.298182 209.36772 
L 122.530909 225.303215 
L 138.763636 262.882963 
L 154.996364 247.305788 
L 171.229091 219.571629 
L 187.461818 241.623136 
L 203.694545 199.049218 
L 219.927273 254.989258 
L 236.16 240.753738 
L 252.392727 188.838793 
L 268.625455 206.141555 
L 284.858182 251.184183 
L 301.090909 251.808857 
L 317.323636 241.868553 
L 333.556364 263.373794 
L 349.789091 250.605576 
L 366.021818 196.69646 
L 382.254545 231.366936 
L 398.487273 279.276561 
" clip-path="url(#p984e75e04b)" style="fill: none; stroke: #440154; stroke-opacity: 0.5; stroke-width: 1.5; stroke-linecap: square"/>
   </g>
   <g id="line2d_45">
    <path d="M 73.832727 277.268777 
L 90.065455 222.199226 
L 106.298182 225.861431 
L 122.530909 257.871929 
L 138.763636 235.045043 
L 154.996364 243.577704 
L 171.229091 219.334729 
L 187.461818 246.377592 
L 203.694545 235.606669 
L 219.927273 237.672056 
L 236.16 178.292767 
L 252.392727 255.119576 
L 268.625455 247.690466 
L 284.858182 232.476879 
L 301.090909 242.989812 
L 317.323636 147.870066 
L 333.556364 182.314405 
L 349.789091 210.114834 
L 366.021818 252.784938 
L 382.254545 220.308089 
L 398.487273 150.251748 
" clip-path="url(#p984e75e04b)" style="fill: none; stroke: #440154; stroke-opacity: 0.5; stroke-width: 1.5; stroke-linecap: square"/>
   </g>
   <g id="line2d_46">
    <path d="M 73.832727 251.689727 
L 90.065455 226.510446 
L 106.298182 244.061411 
L 122.530909 234.89729 
L 138.763636 222.006939 
L 154.996364 206.149342 
L 171.229091 227.939622 
L 187.461818 230.208796 
L 203.694545 184.666554 
L 219.927273 227.729802 
L 236.16 244.411187 
L 252.392727 179.169607 
L 268.625455 252.845044 
L 284.858182 172.802402 
L 301.090909 224.392469 
L 317.323636 220.065684 
L 333.556364 127.441198 
L 349.789091 215.957241 
L 366.021818 209.701877 
L 382.254545 183.468246 
L 398.487273 220.396716 
" clip-path="url(#p984e75e04b)" style="fill: none; stroke: #440154; stroke-opacity: 0.5; stroke-width: 1.5; stroke-linecap: square"/>
   </g>
   <g id="line2d_47">
    <path d="M 73.832727 224.108322 
L 90.065455 240.615158 
L 106.298182 259.870513 
L 122.530909 202.353205 
L 138.763636 145.72814 
L 154.996364 172.704993 
L 171.229091 148.840285 
L 187.461818 199.670265 
L 203.694545 253.794905 
L 219.927273 207.293181 
L 236.16 237.607145 
L 252.392727 250.477987 
L 268.625455 244.95886 
L 284.858182 256.742107 
L 301.090909 189.847424 
L 317.323636 197.404347 
L 333.556364 127.601888 
L 349.789091 225.717902 
L 366.021818 181.155297 
L 382.254545 253.133612 
L 398.487273 200.196616 
" clip-path="url(#p984e75e04b)" style="fill: none; stroke: #440154; stroke-opacity: 0.5; stroke-width: 1.5; stroke-linecap: square"/>
   </g>
   <g id="line2d_48">
    <path d="M 73.832727 212.158914 
L 90.065455 245.686866 
L 106.298182 255.287047 
L 122.530909 233.163659 
L 138.763636 232.858448 
L 154.996364 212.110384 
L 171.229091 215.783252 
L 187.461818 175.937269 
L 203.694545 200.989423 
L 219.927273 152.438612 
L 236.16 147.843064 
L 252.392727 188.264684 
L 268.625455 187.411628 
L 284.858182 223.757825 
L 301.090909 203.116909 
L 317.323636 198.487937 
L 333.556364 203.070846 
L 349.789091 202.053827 
L 366.021818 179.07691 
L 382.254545 232.290111 
L 398.487273 244.398842 
" clip-path="url(#p984e75e04b)" style="fill: none; stroke: #440154; stroke-opacity: 0.5; stroke-width: 1.5; stroke-linecap: square"/>
   </g>
   <g id="line2d_49">
    <path d="M 73.832727 209.334897 
L 90.065455 251.42891 
L 106.298182 246.144247 
L 122.530909 235.899161 
L 138.763636 165.321253 
L 154.996364 122.591358 
L 171.229091 192.819028 
L 187.461818 219.701294 
L 203.694545 210.284044 
L 219.927273 204.262057 
L 236.16 177.656604 
L 252.392727 196.400097 
L 268.625455 237.327833 
L 284.858182 220.47523 
L 301.090909 214.313444 
L 317.323636 230.108291 
L 333.556364 209.131136 
L 349.789091 220.042497 
L 366.021818 206.356679 
L 382.254545 174.909547 
L 398.487273 231.215538 
" clip-path="url(#p984e75e04b)" style="fill: none; stroke: #440154; stroke-opacity: 0.5; stroke-width: 1.5; stroke-linecap: square"/>
   </g>
   <g id="line2d_50">
    <path d="M 73.832727 209.338933 
L 90.065455 233.728236 
L 106.298182 257.256088 
L 122.530909 231.082247 
L 138.763636 199.356961 
L 154.996364 224.607358 
L 171.229091 253.919982 
L 187.461818 143.297195 
L 203.694545 200.29926 
L 219.927273 184.370611 
L 236.16 210.062646 
L 252.392727 202.090671 
L 268.625455 190.473334 
L 284.858182 207.435197 
L 301.090909 219.820442 
L 317.323636 211.630959 
L 333.556364 192.161733 
L 349.789091 170.805138 
L 366.021818 182.955749 
L 382.254545 188.125691 
L 398.487273 158.166785 
" clip-path="url(#p984e75e04b)" style="fill: none; stroke: #440154; stroke-opacity: 0.5; stroke-width: 1.5; stroke-linecap: square"/>
   </g>
   <g id="line2d_51">
    <path d="M 73.832727 238.045278 
L 90.065455 184.713501 
L 106.298182 167.501176 
L 122.530909 231.001437 
L 138.763636 185.263523 
L 154.996364 131.690979 
L 171.229091 222.946731 
L 187.461818 203.167359 
L 203.694545 214.701925 
L 219.927273 211.842863 
L 236.16 208.016622 
L 252.392727 204.271112 
L 268.625455 227.262966 
L 284.858182 201.550035 
L 301.090909 211.453878 
L 317.323636 225.87352 
L 333.556364 210.429072 
L 349.789091 208.470106 
L 366.021818 242.365538 
L 382.254545 183.76411 
L 398.487273 212.627761 
" clip-path="url(#p984e75e04b)" style="fill: none; stroke: #440154; stroke-opacity: 0.5; stroke-width: 1.5; stroke-linecap: square"/>
   </g>
   <g id="line2d_52">
    <path d="M 73.832727 211.76141 
L 90.065455 197.968654 
L 106.298182 98.720075 
L 122.530909 213.516261 
L 138.763636 180.953777 
L 154.996364 207.090021 
L 171.229091 173.244568 
L 187.461818 166.127177 
L 203.694545 176.582294 
L 219.927273 194.468668 
L 236.16 179.754198 
L 252.392727 196.125851 
L 268.625455 202.119199 
L 284.858182 191.113646 
L 301.090909 203.124347 
L 317.323636 200.914638 
L 333.556364 211.16607 
L 349.789091 197.134383 
L 366.021818 156.593846 
L 382.254545 183.601596 
L 398.487273 195.848963 
" clip-path="url(#p984e75e04b)" style="fill: none; stroke: #440154; stroke-opacity: 0.5; stroke-width: 1.5; stroke-linecap: square"/>
   </g>
   <g id="line2d_53">
    <path d="M 73.832727 237.661788 
L 90.065455 230.810033 
L 106.298182 259.330355 
L 122.530909 261.718333 
L 138.763636 242.732921 
L 154.996364 255.088048 
L 171.229091 261.911835 
L 187.461818 244.591732 
L 203.694545 248.531436 
L 219.927273 221.393566 
L 236.16 243.007026 
L 252.392727 235.205659 
L 268.625455 234.388058 
L 284.858182 269.749531 
L 301.090909 247.185482 
L 317.323636 255.649881 
L 333.556364 260.426797 
L 349.789091 244.311609 
L 366.021818 259.525446 
L 382.254545 262.949206 
L 398.487273 237.883082 
" clip-path="url(#p984e75e04b)" style="fill: none; stroke: #440154; stroke-opacity: 0.5; stroke-width: 1.5; stroke-linecap: square"/>
   </g>
   <g id="line2d_54">
    <path d="M 73.832727 255.485252 
L 90.065455 267.365615 
L 106.298182 272.057373 
L 122.530909 249.519944 
L 138.763636 275.446921 
L 154.996364 277.464754 
L 171.229091 277.378223 
L 187.461818 275.88805 
L 203.694545 272.899947 
L 219.927273 278.35386 
L 236.16 258.896317 
L 252.392727 254.134525 
L 268.625455 280.386126 
L 284.858182 261.688817 
L 301.090909 267.271182 
L 317.323636 271.501741 
L 333.556364 276.957438 
L 349.789091 281.308188 
L 366.021818 273.453911 
L 382.254545 275.564428 
L 398.487273 270.381665 
" clip-path="url(#p984e75e04b)" style="fill: none; stroke: #440154; stroke-opacity: 0.5; stroke-width: 1.5; stroke-linecap: square"/>
   </g>
   <g id="line2d_55">
    <path d="M 73.832727 249.949359 
L 90.065455 196.699025 
L 106.298182 232.141979 
L 122.530909 219.123646 
L 138.763636 241.367355 
L 154.996364 233.205992 
L 171.229091 240.881635 
L 187.461818 223.173503 
L 203.694545 227.557317 
L 219.927273 214.279318 
L 236.16 239.363833 
L 252.392727 233.174354 
L 268.625455 219.922292 
L 284.858182 204.51613 
L 301.090909 209.751795 
L 317.323636 245.375741 
L 333.556364 191.680949 
L 349.789091 184.878914 
L 366.021818 200.021657 
L 382.254545 190.291479 
L 398.487273 201.883456 
" clip-path="url(#p984e75e04b)" style="fill: none; stroke: #440154; stroke-opacity: 0.5; stroke-width: 1.5; stroke-linecap: square"/>
   </g>
   <g id="line2d_56">
    <path d="M 73.832727 273.527596 
L 90.065455 260.483186 
L 106.298182 280.24103 
L 122.530909 268.971387 
L 138.763636 254.053789 
L 154.996364 282.201756 
L 171.229091 264.8749 
L 187.461818 247.408111 
L 203.694545 222.25785 
L 219.927273 229.06357 
L 236.16 250.0018 
L 252.392727 245.941775 
L 268.625455 261.117673 
L 284.858182 262.712732 
L 301.090909 241.585234 
L 317.323636 241.701061 
L 333.556364 267.968132 
L 349.789091 269.197362 
L 366.021818 255.138443 
L 382.254545 271.58401 
L 398.487273 267.523183 
" clip-path="url(#p984e75e04b)" style="fill: none; stroke: #440154; stroke-opacity: 0.5; stroke-width: 1.5; stroke-linecap: square"/>
   </g>
   <g id="line2d_57">
    <path d="M 73.832727 257.919736 
L 90.065455 267.324738 
L 106.298182 256.250987 
L 122.530909 265.849528 
L 138.763636 263.128925 
L 154.996364 277.90192 
L 171.229091 264.697765 
L 187.461818 256.335031 
L 203.694545 252.387256 
L 219.927273 243.029078 
L 236.16 243.628935 
L 252.392727 244.96067 
L 268.625455 256.869122 
L 284.858182 228.719146 
L 301.090909 236.471773 
L 317.323636 249.6646 
L 333.556364 266.010597 
L 349.789091 271.925014 
L 366.021818 249.628791 
L 382.254545 270.566492 
L 398.487273 258.902565 
" clip-path="url(#p984e75e04b)" style="fill: none; stroke: #440154; stroke-opacity: 0.5; stroke-width: 1.5; stroke-linecap: square"/>
   </g>
   <g id="line2d_58">
    <path d="M 73.832727 241.891872 
L 90.065455 235.268931 
L 106.298182 235.618594 
L 122.530909 215.373666 
L 138.763636 239.607686 
L 154.996364 226.268008 
L 171.229091 208.152034 
L 187.461818 213.10711 
L 203.694545 209.375121 
L 219.927273 200.106584 
L 236.16 217.76797 
L 252.392727 214.308221 
L 268.625455 210.498742 
L 284.858182 216.385018 
L 301.090909 204.154341 
L 317.323636 206.519363 
L 333.556364 206.735457 
L 349.789091 208.434344 
L 366.021818 224.450717 
L 382.254545 199.914797 
L 398.487273 219.674914 
" clip-path="url(#p984e75e04b)" style="fill: none; stroke: #440154; stroke-opacity: 0.5; stroke-width: 1.5; stroke-linecap: square"/>
   </g>
   <g id="line2d_59">
    <path d="M 73.832727 238.096475 
L 90.065455 179.307525 
L 106.298182 202.770712 
L 122.530909 207.493405 
L 138.763636 202.75865 
L 154.996364 208.385517 
L 171.229091 218.625449 
L 187.461818 225.860762 
L 203.694545 189.904519 
L 219.927273 237.436574 
L 236.16 219.928487 
L 252.392727 226.127698 
L 268.625455 240.952175 
L 284.858182 190.711464 
L 301.090909 188.247982 
L 317.323636 207.985177 
L 333.556364 226.544546 
L 349.789091 224.444622 
L 366.021818 204.493075 
L 382.254545 182.25948 
L 398.487273 197.606443 
" clip-path="url(#p984e75e04b)" style="fill: none; stroke: #440154; stroke-opacity: 0.5; stroke-width: 1.5; stroke-linecap: square"/>
   </g>
   <g id="line2d_60">
    <path d="M 73.832727 152.373065 
L 90.065455 182.419512 
L 106.298182 237.503062 
L 122.530909 188.127414 
L 138.763636 118.710833 
L 154.996364 129.111601 
L 171.229091 128.078256 
L 187.461818 195.130026 
L 203.694545 146.279482 
L 219.927273 164.754532 
L 236.16 184.877826 
L 252.392727 240.466107 
L 268.625455 216.073248 
L 284.858182 219.779321 
L 301.090909 234.338177 
L 317.323636 240.31405 
L 333.556364 229.822385 
L 349.789091 211.78897 
L 366.021818 198.820801 
L 382.254545 198.334896 
L 398.487273 211.352986 
" clip-path="url(#p984e75e04b)" style="fill: none; stroke: #440154; stroke-opacity: 0.5; stroke-width: 1.5; stroke-linecap: square"/>
   </g>
   <g id="line2d_61">
    <path d="M 73.832727 266.479936 
L 90.065455 271.592718 
L 106.298182 218.83314 
L 122.530909 271.431694 
L 138.763636 276.713204 
L 154.996364 257.367185 
L 171.229091 277.376787 
L 187.461818 254.205873 
L 203.694545 258.366757 
L 219.927273 244.647064 
L 236.16 279.624834 
L 252.392727 256.96058 
L 268.625455 243.374679 
L 284.858182 259.963411 
L 301.090909 258.96992 
L 317.323636 263.110333 
L 333.556364 259.295667 
L 349.789091 262.978491 
L 366.021818 246.35305 
L 382.254545 262.765295 
L 398.487273 272.484667 
" clip-path="url(#p984e75e04b)" style="fill: none; stroke: #440154; stroke-opacity: 0.5; stroke-width: 1.5; stroke-linecap: square"/>
   </g>
   <g id="line2d_62">
    <path d="M 73.832727 270.764951 
L 90.065455 260.830692 
L 106.298182 286.526387 
L 122.530909 271.241588 
L 138.763636 221.862526 
L 154.996364 247.96131 
L 171.229091 218.553548 
L 187.461818 192.922561 
L 203.694545 224.289972 
L 219.927273 206.756714 
L 236.16 236.477331 
L 252.392727 229.040094 
L 268.625455 205.700196 
L 284.858182 225.265239 
L 301.090909 242.919894 
L 317.323636 260.363621 
L 333.556364 272.27539 
L 349.789091 263.05937 
L 366.021818 243.569179 
L 382.254545 265.201359 
L 398.487273 258.384201 
" clip-path="url(#p984e75e04b)" style="fill: none; stroke: #440154; stroke-opacity: 0.5; stroke-width: 1.5; stroke-linecap: square"/>
   </g>
   <g id="line2d_63">
    <path d="M 73.832727 235.86693 
L 90.065455 248.752829 
L 106.298182 215.186634 
L 122.530909 228.956489 
L 138.763636 235.954837 
L 154.996364 217.749188 
L 171.229091 215.887087 
L 187.461818 216.758151 
L 203.694545 224.049471 
L 219.927273 221.931496 
L 236.16 217.634548 
L 252.392727 225.72859 
L 268.625455 193.727106 
L 284.858182 223.826401 
L 301.090909 226.221394 
L 317.323636 202.557469 
L 333.556364 212.09193 
L 349.789091 222.057767 
L 366.021818 227.797604 
L 382.254545 231.568948 
L 398.487273 211.754784 
" clip-path="url(#p984e75e04b)" style="fill: none; stroke: #440154; stroke-opacity: 0.5; stroke-width: 1.5; stroke-linecap: square"/>
   </g>
   <g id="line2d_64">
    <path d="M 73.832727 263.494612 
L 90.065455 275.56438 
L 106.298182 284.289273 
L 122.530909 260.410674 
L 138.763636 277.288015 
L 154.996364 259.243477 
L 171.229091 272.00506 
L 187.461818 245.02956 
L 203.694545 258.512954 
L 219.927273 257.209977 
L 236.16 288.240504 
L 252.392727 272.747383 
L 268.625455 236.509679 
L 284.858182 234.774446 
L 301.090909 260.802427 
L 317.323636 273.561522 
L 333.556364 265.009653 
L 349.789091 259.677931 
L 366.021818 273.104437 
L 382.254545 259.030491 
L 398.487273 253.381918 
" clip-path="url(#p984e75e04b)" style="fill: none; stroke: #440154; stroke-opacity: 0.5; stroke-width: 1.5; stroke-linecap: square"/>
   </g>
   <g id="line2d_65">
    <path d="M 73.832727 282.649081 
L 90.065455 222.019921 
L 106.298182 278.42903 
L 122.530909 262.315283 
L 138.763636 248.811948 
L 154.996364 244.883136 
L 171.229091 271.123029 
L 187.461818 270.703593 
L 203.694545 267.614063 
L 219.927273 262.069545 
L 236.16 284.000311 
L 252.392727 283.571057 
L 268.625455 260.990363 
L 284.858182 258.438177 
L 301.090909 256.883573 
L 317.323636 269.031923 
L 333.556364 244.50122 
L 349.789091 250.646788 
L 366.021818 267.104959 
L 382.254545 249.370193 
L 398.487273 243.089936 
" clip-path="url(#p984e75e04b)" style="fill: none; stroke: #440154; stroke-opacity: 0.5; stroke-width: 1.5; stroke-linecap: square"/>
   </g>
   <g id="line2d_66">
    <path d="M 73.832727 234.222787 
L 90.065455 173.140305 
L 106.298182 218.789319 
L 122.530909 110.531503 
L 138.763636 224.630825 
L 154.996364 260.2217 
L 171.229091 202.765803 
L 187.461818 259.438475 
L 203.694545 265.16559 
L 219.927273 240.165166 
L 236.16 239.669489 
L 252.392727 250.88012 
L 268.625455 254.066973 
L 284.858182 229.387645 
L 301.090909 209.58338 
L 317.323636 224.445267 
L 333.556364 225.314868 
L 349.789091 242.804826 
L 366.021818 251.538195 
L 382.254545 202.646464 
L 398.487273 222.071186 
" clip-path="url(#p984e75e04b)" style="fill: none; stroke: #440154; stroke-opacity: 0.5; stroke-width: 1.5; stroke-linecap: square"/>
   </g>
   <g id="line2d_67">
    <path d="M 73.832727 253.027072 
L 90.065455 192.574876 
L 106.298182 167.978661 
L 122.530909 178.831578 
L 138.763636 225.148027 
L 154.996364 222.940088 
L 171.229091 222.294148 
L 187.461818 218.827018 
L 203.694545 202.06437 
L 219.927273 236.750671 
L 236.16 236.384855 
L 252.392727 217.685531 
L 268.625455 215.344142 
L 284.858182 235.924044 
L 301.090909 214.461696 
L 317.323636 192.461108 
L 333.556364 154.351737 
L 349.789091 195.186584 
L 366.021818 188.011804 
L 382.254545 198.779637 
L 398.487273 211.029812 
" clip-path="url(#p984e75e04b)" style="fill: none; stroke: #440154; stroke-opacity: 0.5; stroke-width: 1.5; stroke-linecap: square"/>
   </g>
   <g id="line2d_68">
    <path d="M 73.832727 188.574475 
L 90.065455 250.814349 
L 106.298182 239.651917 
L 122.530909 246.228776 
L 138.763636 228.887256 
L 154.996364 255.262502 
L 171.229091 238.141489 
L 187.461818 241.839534 
L 203.694545 209.011547 
L 219.927273 243.015311 
L 236.16 217.463165 
L 252.392727 183.57517 
L 268.625455 238.100233 
L 284.858182 227.890061 
L 301.090909 243.094236 
L 317.323636 230.633453 
L 333.556364 224.480524 
L 349.789091 219.112267 
L 366.021818 234.832404 
L 382.254545 221.722598 
L 398.487273 235.626613 
" clip-path="url(#p984e75e04b)" style="fill: none; stroke: #440154; stroke-opacity: 0.5; stroke-width: 1.5; stroke-linecap: square"/>
   </g>
   <g id="line2d_69">
    <path d="M 73.832727 263.567796 
L 90.065455 245.903029 
L 106.298182 281.361747 
L 122.530909 201.506917 
L 138.763636 233.485834 
L 154.996364 246.842244 
L 171.229091 239.677308 
L 187.461818 251.204402 
L 203.694545 221.215457 
L 219.927273 251.571513 
L 236.16 202.137938 
L 252.392727 184.234874 
L 268.625455 192.424507 
L 284.858182 199.89943 
L 301.090909 192.53433 
L 317.323636 225.180352 
L 333.556364 250.894099 
L 349.789091 225.530668 
L 366.021818 206.765041 
L 382.254545 239.441548 
L 398.487273 225.09808 
" clip-path="url(#p984e75e04b)" style="fill: none; stroke: #440154; stroke-opacity: 0.5; stroke-width: 1.5; stroke-linecap: square"/>
   </g>
   <g id="line2d_70">
    <path d="M 73.832727 254.592628 
L 90.065455 244.755822 
L 106.298182 278.521567 
L 122.530909 256.785622 
L 138.763636 270.75938 
L 154.996364 281.956868 
L 171.229091 246.589495 
L 187.461818 232.458564 
L 203.694545 189.741355 
L 219.927273 235.698427 
L 236.16 221.182804 
L 252.392727 242.832008 
L 268.625455 242.619032 
L 284.858182 223.243582 
L 301.090909 254.614289 
L 317.323636 223.269152 
L 333.556364 195.280399 
L 349.789091 215.035487 
L 366.021818 201.973766 
L 382.254545 184.728108 
L 398.487273 201.291654 
" clip-path="url(#p984e75e04b)" style="fill: none; stroke: #440154; stroke-opacity: 0.5; stroke-width: 1.5; stroke-linecap: square"/>
   </g>
   <g id="line2d_71">
    <path d="M 73.832727 217.575133 
L 90.065455 208.18751 
L 106.298182 243.561631 
L 122.530909 222.970197 
L 138.763636 241.534616 
L 154.996364 215.019311 
L 171.229091 223.685209 
L 187.461818 230.06227 
L 203.694545 192.372669 
L 219.927273 173.084937 
L 236.16 175.645306 
L 252.392727 195.918242 
L 268.625455 174.60961 
L 284.858182 151.545355 
L 301.090909 153.412427 
L 317.323636 185.505963 
L 333.556364 166.071127 
L 349.789091 191.941062 
L 366.021818 176.425903 
L 382.254545 179.251219 
L 398.487273 201.675317 
" clip-path="url(#p984e75e04b)" style="fill: none; stroke: #440154; stroke-opacity: 0.5; stroke-width: 1.5; stroke-linecap: square"/>
   </g>
   <g id="line2d_72">
    <path d="M 73.832727 286.668822 
L 90.065455 295.488 
L 106.298182 273.165258 
L 122.530909 271.434025 
L 138.763636 268.168495 
L 154.996364 218.321716 
L 171.229091 206.933414 
L 187.461818 260.979577 
L 203.694545 253.211055 
L 219.927273 238.119386 
L 236.16 245.818396 
L 252.392727 239.358785 
L 268.625455 271.815339 
L 284.858182 257.074056 
L 301.090909 266.731319 
L 317.323636 271.345655 
L 333.556364 264.604324 
L 349.789091 257.260691 
L 366.021818 276.634177 
L 382.254545 283.876227 
L 398.487273 247.193477 
" clip-path="url(#p984e75e04b)" style="fill: none; stroke: #440154; stroke-opacity: 0.5; stroke-width: 1.5; stroke-linecap: square"/>
   </g>
   <g id="line2d_73">
    <path d="M 73.832727 249.606428 
L 90.065455 288.309052 
L 106.298182 264.750725 
L 122.530909 250.642128 
L 138.763636 233.989542 
L 154.996364 204.944942 
L 171.229091 237.468668 
L 187.461818 258.938883 
L 203.694545 274.4235 
L 219.927273 201.209739 
L 236.16 234.96303 
L 252.392727 240.164683 
L 268.625455 244.792888 
L 284.858182 232.288597 
L 301.090909 224.270032 
L 317.323636 237.689997 
L 333.556364 240.516685 
L 349.789091 238.423376 
L 366.021818 229.701882 
L 382.254545 241.68178 
L 398.487273 237.253095 
" clip-path="url(#p984e75e04b)" style="fill: none; stroke: #440154; stroke-opacity: 0.5; stroke-width: 1.5; stroke-linecap: square"/>
   </g>
   <g id="line2d_74">
    <path d="M 73.832727 192.625634 
L 90.065455 236.769047 
L 106.298182 271.408736 
L 122.530909 265.077644 
L 138.763636 206.467903 
L 154.996364 213.639679 
L 171.229091 252.116666 
L 187.461818 232.976398 
L 203.694545 195.659895 
L 219.927273 167.36399 
L 236.16 196.006169 
L 252.392727 211.916635 
L 268.625455 206.314186 
L 284.858182 220.089159 
L 301.090909 226.879186 
L 317.323636 161.488279 
L 333.556364 195.655966 
L 349.789091 189.354015 
L 366.021818 178.562243 
L 382.254545 146.676742 
L 398.487273 190.915645 
" clip-path="url(#p984e75e04b)" style="fill: none; stroke: #440154; stroke-opacity: 0.5; stroke-width: 1.5; stroke-linecap: square"/>
   </g>
   <g id="line2d_75">
    <path d="M 73.832727 258.036321 
L 90.065455 231.771289 
L 106.298182 162.489899 
L 122.530909 180.398981 
L 138.763636 191.047111 
L 154.996364 172.627522 
L 171.229091 188.713969 
L 187.461818 175.956919 
L 203.694545 209.861061 
L 219.927273 176.791769 
L 236.16 198.82055 
L 252.392727 213.978712 
L 268.625455 175.692306 
L 284.858182 158.438489 
L 301.090909 169.704747 
L 317.323636 153.482802 
L 333.556364 160.835575 
L 349.789091 115.355142 
L 366.021818 87.367049 
L 382.254545 145.947366 
L 398.487273 89.305322 
" clip-path="url(#p984e75e04b)" style="fill: none; stroke: #440154; stroke-opacity: 0.5; stroke-width: 1.5; stroke-linecap: square"/>
   </g>
   <g id="line2d_76">
    <path d="M 73.832727 244.181632 
L 90.065455 216.4585 
L 106.298182 189.962272 
L 122.530909 180.037499 
L 138.763636 174.079361 
L 154.996364 234.686515 
L 171.229091 114.837336 
L 187.461818 197.710482 
L 203.694545 239.65229 
L 219.927273 216.851405 
L 236.16 204.931852 
L 252.392727 197.786076 
L 268.625455 188.596918 
L 284.858182 181.55989 
L 301.090909 201.806509 
L 317.323636 238.630871 
L 333.556364 211.385332 
L 349.789091 265.661257 
L 366.021818 222.928872 
L 382.254545 238.175871 
L 398.487273 212.382724 
" clip-path="url(#p984e75e04b)" style="fill: none; stroke: #440154; stroke-opacity: 0.5; stroke-width: 1.5; stroke-linecap: square"/>
   </g>
   <g id="line2d_77">
    <path d="M 73.832727 259.065392 
L 90.065455 264.364766 
L 106.298182 257.589203 
L 122.530909 267.923282 
L 138.763636 258.745431 
L 154.996364 266.563558 
L 171.229091 263.363916 
L 187.461818 248.126911 
L 203.694545 257.770299 
L 219.927273 256.809224 
L 236.16 273.977593 
L 252.392727 253.751278 
L 268.625455 272.38586 
L 284.858182 246.339865 
L 301.090909 262.69088 
L 317.323636 270.508928 
L 333.556364 285.437758 
L 349.789091 268.964678 
L 366.021818 283.935113 
L 382.254545 280.415562 
L 398.487273 280.725107 
" clip-path="url(#p984e75e04b)" style="fill: none; stroke: #440154; stroke-opacity: 0.5; stroke-width: 1.5; stroke-linecap: square"/>
   </g>
   <g id="line2d_78">
    <path d="M 73.832727 253.74379 
L 90.065455 271.976237 
L 106.298182 278.957702 
L 122.530909 247.671517 
L 138.763636 263.528616 
L 154.996364 254.149022 
L 171.229091 267.797257 
L 187.461818 244.897763 
L 203.694545 232.990203 
L 219.927273 235.630955 
L 236.16 263.486256 
L 252.392727 261.720997 
L 268.625455 237.756054 
L 284.858182 263.035484 
L 301.090909 253.103644 
L 317.323636 247.702275 
L 333.556364 244.440534 
L 349.789091 252.957126 
L 366.021818 270.890477 
L 382.254545 276.542528 
L 398.487273 254.524193 
" clip-path="url(#p984e75e04b)" style="fill: none; stroke: #440154; stroke-opacity: 0.5; stroke-width: 1.5; stroke-linecap: square"/>
   </g>
   <g id="line2d_79">
    <path d="M 73.832727 209.758132 
L 90.065455 186.785958 
L 106.298182 208.453628 
L 122.530909 200.396064 
L 138.763636 178.799337 
L 154.996364 192.338351 
L 171.229091 172.49475 
L 187.461818 174.495807 
L 203.694545 184.202901 
L 219.927273 189.333782 
L 236.16 192.977522 
L 252.392727 129.672376 
L 268.625455 208.105654 
L 284.858182 172.194833 
L 301.090909 186.621479 
L 317.323636 220.41671 
L 333.556364 168.834357 
L 349.789091 170.167043 
L 366.021818 221.105242 
L 382.254545 240.191478 
L 398.487273 199.478572 
" clip-path="url(#p984e75e04b)" style="fill: none; stroke: #440154; stroke-opacity: 0.5; stroke-width: 1.5; stroke-linecap: square"/>
   </g>
   <g id="line2d_80">
    <path d="M 73.832727 231.879883 
L 90.065455 283.336406 
L 106.298182 281.323201 
L 122.530909 272.518418 
L 138.763636 238.919233 
L 154.996364 214.801599 
L 171.229091 232.105796 
L 187.461818 232.850323 
L 203.694545 237.182993 
L 219.927273 245.023614 
L 236.16 260.624996 
L 252.392727 251.554661 
L 268.625455 225.736358 
L 284.858182 230.084321 
L 301.090909 249.772485 
L 317.323636 249.423612 
L 333.556364 265.400379 
L 349.789091 246.97257 
L 366.021818 226.279217 
L 382.254545 223.723598 
L 398.487273 239.636367 
" clip-path="url(#p984e75e04b)" style="fill: none; stroke: #440154; stroke-opacity: 0.5; stroke-width: 1.5; stroke-linecap: square"/>
   </g>
   <g id="line2d_81">
    <path d="M 73.832727 268.983397 
L 90.065455 251.971577 
L 106.298182 243.743989 
L 122.530909 251.86179 
L 138.763636 248.864524 
L 154.996364 248.722808 
L 171.229091 257.486529 
L 187.461818 224.748323 
L 203.694545 236.323852 
L 219.927273 218.959946 
L 236.16 217.431863 
L 252.392727 230.093161 
L 268.625455 223.126994 
L 284.858182 187.628498 
L 301.090909 206.385027 
L 317.323636 194.672744 
L 333.556364 239.034996 
L 349.789091 178.85963 
L 366.021818 155.492442 
L 382.254545 186.715329 
L 398.487273 218.946811 
" clip-path="url(#p984e75e04b)" style="fill: none; stroke: #440154; stroke-opacity: 0.5; stroke-width: 1.5; stroke-linecap: square"/>
   </g>
   <g id="line2d_82">
    <path d="M 73.832727 191.270038 
L 90.065455 226.74585 
L 106.298182 203.833292 
L 122.530909 225.176287 
L 138.763636 213.779647 
L 154.996364 211.514205 
L 171.229091 170.579983 
L 187.461818 192.448 
L 203.694545 170.539743 
L 219.927273 205.27914 
L 236.16 185.166499 
L 252.392727 158.113625 
L 268.625455 166.272414 
L 284.858182 149.0281 
L 301.090909 136.068073 
L 317.323636 191.890584 
L 333.556364 158.482847 
L 349.789091 177.535328 
L 366.021818 163.446979 
L 382.254545 186.579266 
L 398.487273 185.269795 
" clip-path="url(#p984e75e04b)" style="fill: none; stroke: #440154; stroke-opacity: 0.5; stroke-width: 1.5; stroke-linecap: square"/>
   </g>
   <g id="line2d_83">
    <path d="M 73.832727 186.828655 
L 90.065455 195.345204 
L 106.298182 221.752278 
L 122.530909 190.929777 
L 138.763636 187.035012 
L 154.996364 188.796718 
L 171.229091 204.906001 
L 187.461818 198.702238 
L 203.694545 167.212351 
L 219.927273 174.808243 
L 236.16 179.722374 
L 252.392727 175.408337 
L 268.625455 212.691882 
L 284.858182 181.041369 
L 301.090909 191.3095 
L 317.323636 178.801389 
L 333.556364 164.636684 
L 349.789091 166.507332 
L 366.021818 181.009581 
L 382.254545 142.352963 
L 398.487273 179.76497 
" clip-path="url(#p984e75e04b)" style="fill: none; stroke: #440154; stroke-opacity: 0.5; stroke-width: 1.5; stroke-linecap: square"/>
   </g>
   <g id="line2d_84">
    <path d="M 73.832727 184.825112 
L 90.065455 221.462019 
L 106.298182 218.346839 
L 122.530909 162.326806 
L 138.763636 239.477537 
L 154.996364 226.50833 
L 171.229091 249.763678 
L 187.461818 209.097247 
L 203.694545 217.321052 
L 219.927273 228.543041 
L 236.16 227.695758 
L 252.392727 235.276449 
L 268.625455 242.051041 
L 284.858182 243.075813 
L 301.090909 228.200764 
L 317.323636 235.279834 
L 333.556364 241.23213 
L 349.789091 237.070449 
L 366.021818 198.714208 
L 382.254545 234.899786 
L 398.487273 237.602605 
" clip-path="url(#p984e75e04b)" style="fill: none; stroke: #440154; stroke-opacity: 0.5; stroke-width: 1.5; stroke-linecap: square"/>
   </g>
   <g id="line2d_85">
    <path d="M 73.832727 270.939814 
L 90.065455 255.023562 
L 106.298182 265.174972 
L 122.530909 255.187851 
L 138.763636 271.615372 
L 154.996364 267.345216 
L 171.229091 258.920575 
L 187.461818 277.789862 
L 203.694545 266.098688 
L 219.927273 247.434406 
L 236.16 228.085339 
L 252.392727 245.739324 
L 268.625455 238.600544 
L 284.858182 228.67184 
L 301.090909 238.037745 
L 317.323636 258.772645 
L 333.556364 259.523754 
L 349.789091 228.794389 
L 366.021818 242.332723 
L 382.254545 247.613307 
L 398.487273 240.679291 
" clip-path="url(#p984e75e04b)" style="fill: none; stroke: #440154; stroke-opacity: 0.5; stroke-width: 1.5; stroke-linecap: square"/>
   </g>
   <g id="line2d_86">
    <path d="M 73.832727 282.766792 
L 90.065455 218.320608 
L 106.298182 203.125668 
L 122.530909 238.785287 
L 138.763636 264.99221 
L 154.996364 236.25214 
L 171.229091 246.504314 
L 187.461818 231.211274 
L 203.694545 255.420932 
L 219.927273 256.00919 
L 236.16 238.076636 
L 252.392727 236.838368 
L 268.625455 219.080353 
L 284.858182 244.83783 
L 301.090909 253.994765 
L 317.323636 239.493677 
L 333.556364 243.738883 
L 349.789091 224.675631 
L 366.021818 256.276096 
L 382.254545 241.977062 
L 398.487273 221.541162 
" clip-path="url(#p984e75e04b)" style="fill: none; stroke: #440154; stroke-opacity: 0.5; stroke-width: 1.5; stroke-linecap: square"/>
   </g>
   <g id="line2d_87">
    <path d="M 73.832727 221.145976 
L 90.065455 208.750735 
L 106.298182 210.065203 
L 122.530909 217.501189 
L 138.763636 244.324378 
L 154.996364 249.541819 
L 171.229091 241.337206 
L 187.461818 208.559608 
L 203.694545 196.358874 
L 219.927273 177.760669 
L 236.16 146.546584 
L 252.392727 209.170198 
L 268.625455 196.785687 
L 284.858182 205.663725 
L 301.090909 201.809193 
L 317.323636 210.079566 
L 333.556364 190.395444 
L 349.789091 190.852114 
L 366.021818 191.436251 
L 382.254545 216.692715 
L 398.487273 182.968765 
" clip-path="url(#p984e75e04b)" style="fill: none; stroke: #440154; stroke-opacity: 0.5; stroke-width: 1.5; stroke-linecap: square"/>
   </g>
   <g id="line2d_88">
    <path d="M 73.832727 290.651618 
L 90.065455 284.168519 
L 106.298182 264.280462 
L 122.530909 266.102075 
L 138.763636 272.981096 
L 154.996364 243.636556 
L 171.229091 258.266013 
L 187.461818 287.616893 
L 203.694545 267.152006 
L 219.927273 238.946725 
L 236.16 246.328488 
L 252.392727 266.892364 
L 268.625455 242.622284 
L 284.858182 235.553802 
L 301.090909 216.378283 
L 317.323636 222.899156 
L 333.556364 240.810045 
L 349.789091 261.813088 
L 366.021818 258.761544 
L 382.254545 280.708153 
L 398.487273 266.331879 
" clip-path="url(#p984e75e04b)" style="fill: none; stroke: #440154; stroke-opacity: 0.5; stroke-width: 1.5; stroke-linecap: square"/>
   </g>
   <g id="line2d_89">
    <path d="M 73.832727 275.57698 
L 90.065455 266.796612 
L 106.298182 278.934497 
L 122.530909 269.723205 
L 138.763636 261.557859 
L 154.996364 246.794971 
L 171.229091 248.787813 
L 187.461818 266.384123 
L 203.694545 229.619276 
L 219.927273 193.41428 
L 236.16 238.97909 
L 252.392727 202.355353 
L 268.625455 197.154805 
L 284.858182 181.153246 
L 301.090909 201.480561 
L 317.323636 228.868425 
L 333.556364 254.747531 
L 349.789091 256.289905 
L 366.021818 249.890831 
L 382.254545 274.648212 
L 398.487273 280.601052 
" clip-path="url(#p984e75e04b)" style="fill: none; stroke: #440154; stroke-opacity: 0.5; stroke-width: 1.5; stroke-linecap: square"/>
   </g>
   <g id="line2d_90">
    <path d="M 73.832727 251.051764 
L 90.065455 226.53218 
L 106.298182 232.146238 
L 122.530909 211.993403 
L 138.763636 216.891377 
L 154.996364 204.317335 
L 171.229091 180.18776 
L 187.461818 199.718551 
L 203.694545 201.611718 
L 219.927273 194.975225 
L 236.16 208.963398 
L 252.392727 183.416413 
L 268.625455 166.141636 
L 284.858182 157.623774 
L 301.090909 169.950735 
L 317.323636 212.738911 
L 333.556364 202.253186 
L 349.789091 217.688732 
L 366.021818 198.321286 
L 382.254545 209.56088 
L 398.487273 225.520995 
" clip-path="url(#p984e75e04b)" style="fill: none; stroke: #440154; stroke-opacity: 0.5; stroke-width: 1.5; stroke-linecap: square"/>
   </g>
   <g id="line2d_91">
    <path d="M 73.832727 238.662865 
L 90.065455 207.301056 
L 106.298182 231.930171 
L 122.530909 263.738276 
L 138.763636 220.381079 
L 154.996364 211.57522 
L 171.229091 251.509575 
L 187.461818 273.051872 
L 203.694545 216.215204 
L 219.927273 206.373177 
L 236.16 196.724352 
L 252.392727 225.539163 
L 268.625455 212.720238 
L 284.858182 204.495434 
L 301.090909 171.484395 
L 317.323636 191.778603 
L 333.556364 205.320079 
L 349.789091 187.738986 
L 366.021818 186.923798 
L 382.254545 188.91951 
L 398.487273 182.43699 
" clip-path="url(#p984e75e04b)" style="fill: none; stroke: #440154; stroke-opacity: 0.5; stroke-width: 1.5; stroke-linecap: square"/>
   </g>
   <g id="line2d_92">
    <path d="M 73.832727 196.080923 
L 90.065455 112.310123 
L 106.298182 187.816744 
L 122.530909 118.102064 
L 138.763636 177.878625 
L 154.996364 183.254669 
L 171.229091 206.732411 
L 187.461818 135.571198 
L 203.694545 189.009786 
L 219.927273 150.877403 
L 236.16 162.783057 
L 252.392727 145.340001 
L 268.625455 103.777527 
L 284.858182 125.096944 
L 301.090909 166.162711 
L 317.323636 145.748358 
L 333.556364 127.427372 
L 349.789091 168.917754 
L 366.021818 230.276538 
L 382.254545 181.047764 
L 398.487273 156.226071 
" clip-path="url(#p984e75e04b)" style="fill: none; stroke: #440154; stroke-opacity: 0.5; stroke-width: 1.5; stroke-linecap: square"/>
   </g>
   <g id="line2d_93">
    <path d="M 73.832727 170.781763 
L 90.065455 245.157188 
L 106.298182 276.17668 
L 122.530909 291.150093 
L 138.763636 269.327437 
L 154.996364 280.481514 
L 171.229091 280.479128 
L 187.461818 244.522236 
L 203.694545 241.465943 
L 219.927273 267.198519 
L 236.16 282.277591 
L 252.392727 278.168446 
L 268.625455 227.256247 
L 284.858182 274.11317 
L 301.090909 259.520631 
L 317.323636 213.945816 
L 333.556364 232.06754 
L 349.789091 243.569949 
L 366.021818 272.81036 
L 382.254545 272.682504 
L 398.487273 272.004797 
" clip-path="url(#p984e75e04b)" style="fill: none; stroke: #440154; stroke-opacity: 0.5; stroke-width: 1.5; stroke-linecap: square"/>
   </g>
   <g id="line2d_94">
    <path d="M 73.832727 247.938011 
L 90.065455 262.662078 
L 106.298182 286.076101 
L 122.530909 258.618561 
L 138.763636 272.761495 
L 154.996364 287.825355 
L 171.229091 263.675863 
L 187.461818 248.848772 
L 203.694545 258.562794 
L 219.927273 257.00458 
L 236.16 253.993287 
L 252.392727 230.651576 
L 268.625455 246.810063 
L 284.858182 253.31679 
L 301.090909 261.443335 
L 317.323636 237.250872 
L 333.556364 268.862836 
L 349.789091 264.258771 
L 366.021818 261.052248 
L 382.254545 287.211671 
L 398.487273 279.534243 
" clip-path="url(#p984e75e04b)" style="fill: none; stroke: #440154; stroke-opacity: 0.5; stroke-width: 1.5; stroke-linecap: square"/>
   </g>
   <g id="line2d_95">
    <path d="M 73.832727 222.494797 
L 90.065455 202.081706 
L 106.298182 262.368538 
L 122.530909 239.098054 
L 138.763636 231.529985 
L 154.996364 231.707231 
L 171.229091 221.78917 
L 187.461818 229.336861 
L 203.694545 242.229047 
L 219.927273 220.661484 
L 236.16 224.566686 
L 252.392727 209.908839 
L 268.625455 221.501194 
L 284.858182 230.840792 
L 301.090909 212.695547 
L 317.323636 229.853436 
L 333.556364 221.565997 
L 349.789091 238.42487 
L 366.021818 201.230242 
L 382.254545 169.594755 
L 398.487273 226.997208 
" clip-path="url(#p984e75e04b)" style="fill: none; stroke: #440154; stroke-opacity: 0.5; stroke-width: 1.5; stroke-linecap: square"/>
   </g>
   <g id="line2d_96">
    <path d="M 73.832727 267.264977 
L 90.065455 270.666129 
L 106.298182 265.630335 
L 122.530909 262.925434 
L 138.763636 266.686342 
L 154.996364 261.654133 
L 171.229091 196.284347 
L 187.461818 222.456433 
L 203.694545 203.18718 
L 219.927273 254.386743 
L 236.16 223.100131 
L 252.392727 210.254724 
L 268.625455 223.283756 
L 284.858182 221.392966 
L 301.090909 231.778233 
L 317.323636 241.637115 
L 333.556364 224.235608 
L 349.789091 230.355394 
L 366.021818 210.370896 
L 382.254545 223.257259 
L 398.487273 223.354664 
" clip-path="url(#p984e75e04b)" style="fill: none; stroke: #440154; stroke-opacity: 0.5; stroke-width: 1.5; stroke-linecap: square"/>
   </g>
   <g id="line2d_97">
    <path d="M 73.832727 227.225622 
L 90.065455 283.270652 
L 106.298182 271.702418 
L 122.530909 259.573806 
L 138.763636 237.651449 
L 154.996364 232.536529 
L 171.229091 271.492391 
L 187.461818 237.27827 
L 203.694545 221.92439 
L 219.927273 221.814874 
L 236.16 222.894658 
L 252.392727 242.446964 
L 268.625455 216.936748 
L 284.858182 185.824528 
L 301.090909 195.735626 
L 317.323636 202.407297 
L 333.556364 198.26457 
L 349.789091 184.94334 
L 366.021818 229.385821 
L 382.254545 234.298684 
L 398.487273 252.192155 
" clip-path="url(#p984e75e04b)" style="fill: none; stroke: #440154; stroke-opacity: 0.5; stroke-width: 1.5; stroke-linecap: square"/>
   </g>
   <g id="line2d_98">
    <path d="M 73.832727 217.955758 
L 90.065455 223.318303 
L 106.298182 214.347289 
L 122.530909 218.253218 
L 138.763636 235.675032 
L 154.996364 223.877985 
L 171.229091 171.529949 
L 187.461818 171.009972 
L 203.694545 175.153039 
L 219.927273 176.071227 
L 236.16 136.445523 
L 252.392727 177.283635 
L 268.625455 218.676432 
L 284.858182 197.378589 
L 301.090909 202.753399 
L 317.323636 213.042851 
L 333.556364 193.267635 
L 349.789091 182.416103 
L 366.021818 174.738078 
L 382.254545 174.289558 
L 398.487273 202.945235 
" clip-path="url(#p984e75e04b)" style="fill: none; stroke: #440154; stroke-opacity: 0.5; stroke-width: 1.5; stroke-linecap: square"/>
   </g>
   <g id="line2d_99">
    <path d="M 73.832727 235.461197 
L 90.065455 210.99049 
L 106.298182 230.177841 
L 122.530909 254.760196 
L 138.763636 238.579895 
L 154.996364 211.539028 
L 171.229091 161.322156 
L 187.461818 219.754745 
L 203.694545 174.095678 
L 219.927273 178.092299 
L 236.16 139.404265 
L 252.392727 181.258504 
L 268.625455 178.098276 
L 284.858182 196.302469 
L 301.090909 178.534709 
L 317.323636 201.854405 
L 333.556364 196.904951 
L 349.789091 188.312786 
L 366.021818 220.824271 
L 382.254545 197.50974 
L 398.487273 183.219703 
" clip-path="url(#p984e75e04b)" style="fill: none; stroke: #440154; stroke-opacity: 0.5; stroke-width: 1.5; stroke-linecap: square"/>
   </g>
   <g id="line2d_100">
    <path d="M 73.832727 171.229015 
L 90.065455 142.489205 
L 106.298182 189.583555 
L 122.530909 179.711901 
L 138.763636 199.114368 
L 154.996364 189.368327 
L 171.229091 191.697538 
L 187.461818 216.973145 
L 203.694545 199.105778 
L 219.927273 219.897063 
L 236.16 158.680569 
L 252.392727 121.28222 
L 268.625455 225.970095 
L 284.858182 222.174232 
L 301.090909 222.462161 
L 317.323636 187.652006 
L 333.556364 178.500612 
L 349.789091 195.447059 
L 366.021818 172.779236 
L 382.254545 195.661264 
L 398.487273 183.227595 
" clip-path="url(#p984e75e04b)" style="fill: none; stroke: #440154; stroke-opacity: 0.5; stroke-width: 1.5; stroke-linecap: square"/>
   </g>
   <g id="patch_3">
    <path d="M 57.6 307.584 
L 57.6 41.472 
" style="fill: none; stroke: #000000; stroke-width: 3; stroke-linejoin: miter; stroke-linecap: square"/>
   </g>
   <g id="patch_4">
    <path d="M 414.72 307.584 
L 414.72 41.472 
" style="fill: none; stroke: #000000; stroke-width: 3; stroke-linejoin: miter; stroke-linecap: square"/>
   </g>
   <g id="patch_5">
    <path d="M 57.6 307.584 
L 414.72 307.584 
" style="fill: none; stroke: #000000; stroke-width: 3; stroke-linejoin: miter; stroke-linecap: square"/>
   </g>
   <g id="patch_6">
    <path d="M 57.6 41.472 
L 414.72 41.472 
" style="fill: none; stroke: #000000; stroke-width: 3; stroke-linejoin: miter; stroke-linecap: square"/>
   </g>
   <g id="text_11">
    <!-- Atom Type H (n=90, mean Q=10.61) -->
    <g transform="translate(33.227187 35.472) scale(0.22 -0.22)">
     <defs>
      <path id="DejaVuSans-41" d="M 2188 4044 
L 1331 1722 
L 3047 1722 
L 2188 4044 
z
M 1831 4666 
L 2547 4666 
L 4325 0 
L 3669 0 
L 3244 1197 
L 1141 1197 
L 716 0 
L 50 0 
L 1831 4666 
z
" transform="scale(0.015625)"/>
      <path id="DejaVuSans-74" d="M 1172 4494 
L 1172 3500 
L 2356 3500 
L 2356 3053 
L 1172 3053 
L 1172 1153 
Q 1172 725 1289 603 
Q 1406 481 1766 481 
L 2356 481 
L 2356 0 
L 1766 0 
Q 1100 0 847 248 
Q 594 497 594 1153 
L 594 3053 
L 172 3053 
L 172 3500 
L 594 3500 
L 594 4494 
L 1172 4494 
z
" transform="scale(0.015625)"/>
      <path id="DejaVuSans-6f" d="M 1959 3097 
Q 1497 3097 1228 2736 
Q 959 2375 959 1747 
Q 959 1119 1226 758 
Q 1494 397 1959 397 
Q 2419 397 2687 759 
Q 2956 1122 2956 1747 
Q 2956 2369 2687 2733 
Q 2419 3097 1959 3097 
z
M 1959 3584 
Q 2709 3584 3137 3096 
Q 3566 2609 3566 1747 
Q 3566 888 3137 398 
Q 2709 -91 1959 -91 
Q 1206 -91 779 398 
Q 353 888 353 1747 
Q 353 2609 779 3096 
Q 1206 3584 1959 3584 
z
" transform="scale(0.015625)"/>
      <path id="DejaVuSans-6d" d="M 3328 2828 
Q 3544 3216 3844 3400 
Q 4144 3584 4550 3584 
Q 5097 3584 5394 3201 
Q 5691 2819 5691 2113 
L 5691 0 
L 5113 0 
L 5113 2094 
Q 5113 2597 4934 2840 
Q 4756 3084 4391 3084 
Q 3944 3084 3684 2787 
Q 3425 2491 3425 1978 
L 3425 0 
L 2847 0 
L 2847 2094 
Q 2847 2600 2669 2842 
Q 2491 3084 2119 3084 
Q 1678 3084 1418 2786 
Q 1159 2488 1159 1978 
L 1159 0 
L 581 0 
L 581 3500 
L 1159 3500 
L 1159 2956 
Q 1356 3278 1631 3431 
Q 1906 3584 2284 3584 
Q 2666 3584 2933 3390 
Q 3200 3197 3328 2828 
z
" transform="scale(0.015625)"/>
      <path id="DejaVuSans-20" transform="scale(0.015625)"/>
      <path id="DejaVuSans-54" d="M -19 4666 
L 3928 4666 
L 3928 4134 
L 2272 4134 
L 2272 0 
L 1638 0 
L 1638 4134 
L -19 4134 
L -19 4666 
z
" transform="scale(0.015625)"/>
      <path id="DejaVuSans-79" d="M 2059 -325 
Q 1816 -950 1584 -1140 
Q 1353 -1331 966 -1331 
L 506 -1331 
L 506 -850 
L 844 -850 
Q 1081 -850 1212 -737 
Q 1344 -625 1503 -206 
L 1606 56 
L 191 3500 
L 800 3500 
L 1894 763 
L 2988 3500 
L 3597 3500 
L 2059 -325 
z
" transform="scale(0.015625)"/>
      <path id="DejaVuSans-70" d="M 1159 525 
L 1159 -1331 
L 581 -1331 
L 581 3500 
L 1159 3500 
L 1159 2969 
Q 1341 3281 1617 3432 
Q 1894 3584 2278 3584 
Q 2916 3584 3314 3078 
Q 3713 2572 3713 1747 
Q 3713 922 3314 415 
Q 2916 -91 2278 -91 
Q 1894 -91 1617 61 
Q 1341 213 1159 525 
z
M 3116 1747 
Q 3116 2381 2855 2742 
Q 2594 3103 2138 3103 
Q 1681 3103 1420 2742 
Q 1159 2381 1159 1747 
Q 1159 1113 1420 752 
Q 1681 391 2138 391 
Q 2594 391 2855 752 
Q 3116 1113 3116 1747 
z
" transform="scale(0.015625)"/>
      <path id="DejaVuSans-65" d="M 3597 1894 
L 3597 1613 
L 953 1613 
Q 991 1019 1311 708 
Q 1631 397 2203 397 
Q 2534 397 2845 478 
Q 3156 559 3463 722 
L 3463 178 
Q 3153 47 2828 -22 
Q 2503 -91 2169 -91 
Q 1331 -91 842 396 
Q 353 884 353 1716 
Q 353 2575 817 3079 
Q 1281 3584 2069 3584 
Q 2775 3584 3186 3129 
Q 3597 2675 3597 1894 
z
M 3022 2063 
Q 3016 2534 2758 2815 
Q 2500 3097 2075 3097 
Q 1594 3097 1305 2825 
Q 1016 2553 972 2059 
L 3022 2063 
z
" transform="scale(0.015625)"/>
      <path id="DejaVuSans-48" d="M 628 4666 
L 1259 4666 
L 1259 2753 
L 3553 2753 
L 3553 4666 
L 4184 4666 
L 4184 0 
L 3553 0 
L 3553 2222 
L 1259 2222 
L 1259 0 
L 628 0 
L 628 4666 
z
" transform="scale(0.015625)"/>
      <path id="DejaVuSans-28" d="M 1984 4856 
Q 1566 4138 1362 3434 
Q 1159 2731 1159 2009 
Q 1159 1288 1364 580 
Q 1569 -128 1984 -844 
L 1484 -844 
Q 1016 -109 783 600 
Q 550 1309 550 2009 
Q 550 2706 781 3412 
Q 1013 4119 1484 4856 
L 1984 4856 
z
" transform="scale(0.015625)"/>
      <path id="DejaVuSans-6e" d="M 3513 2113 
L 3513 0 
L 2938 0 
L 2938 2094 
Q 2938 2591 2744 2837 
Q 2550 3084 2163 3084 
Q 1697 3084 1428 2787 
Q 1159 2491 1159 1978 
L 1159 0 
L 581 0 
L 581 3500 
L 1159 3500 
L 1159 2956 
Q 1366 3272 1645 3428 
Q 1925 3584 2291 3584 
Q 2894 3584 3203 3211 
Q 3513 2838 3513 2113 
z
" transform="scale(0.015625)"/>
      <path id="DejaVuSans-3d" d="M 678 2906 
L 4684 2906 
L 4684 2381 
L 678 2381 
L 678 2906 
z
M 678 1631 
L 4684 1631 
L 4684 1100 
L 678 1100 
L 678 1631 
z
" transform="scale(0.015625)"/>
      <path id="DejaVuSans-39" d="M 703 97 
L 703 672 
Q 941 559 1184 500 
Q 1428 441 1663 441 
Q 2288 441 2617 861 
Q 2947 1281 2994 2138 
Q 2813 1869 2534 1725 
Q 2256 1581 1919 1581 
Q 1219 1581 811 2004 
Q 403 2428 403 3163 
Q 403 3881 828 4315 
Q 1253 4750 1959 4750 
Q 2769 4750 3195 4129 
Q 3622 3509 3622 2328 
Q 3622 1225 3098 567 
Q 2575 -91 1691 -91 
Q 1453 -91 1209 -44 
Q 966 3 703 97 
z
M 1959 2075 
Q 2384 2075 2632 2365 
Q 2881 2656 2881 3163 
Q 2881 3666 2632 3958 
Q 2384 4250 1959 4250 
Q 1534 4250 1286 3958 
Q 1038 3666 1038 3163 
Q 1038 2656 1286 2365 
Q 1534 2075 1959 2075 
z
" transform="scale(0.015625)"/>
      <path id="DejaVuSans-2c" d="M 750 794 
L 1409 794 
L 1409 256 
L 897 -744 
L 494 -744 
L 750 256 
L 750 794 
z
" transform="scale(0.015625)"/>
      <path id="DejaVuSans-61" d="M 2194 1759 
Q 1497 1759 1228 1600 
Q 959 1441 959 1056 
Q 959 750 1161 570 
Q 1363 391 1709 391 
Q 2188 391 2477 730 
Q 2766 1069 2766 1631 
L 2766 1759 
L 2194 1759 
z
M 3341 1997 
L 3341 0 
L 2766 0 
L 2766 531 
Q 2569 213 2275 61 
Q 1981 -91 1556 -91 
Q 1019 -91 701 211 
Q 384 513 384 1019 
Q 384 1609 779 1909 
Q 1175 2209 1959 2209 
L 2766 2209 
L 2766 2266 
Q 2766 2663 2505 2880 
Q 2244 3097 1772 3097 
Q 1472 3097 1187 3025 
Q 903 2953 641 2809 
L 641 3341 
Q 956 3463 1253 3523 
Q 1550 3584 1831 3584 
Q 2591 3584 2966 3190 
Q 3341 2797 3341 1997 
z
" transform="scale(0.015625)"/>
      <path id="DejaVuSans-51" d="M 2522 4238 
Q 1834 4238 1429 3725 
Q 1025 3213 1025 2328 
Q 1025 1447 1429 934 
Q 1834 422 2522 422 
Q 3209 422 3611 934 
Q 4013 1447 4013 2328 
Q 4013 3213 3611 3725 
Q 3209 4238 2522 4238 
z
M 3406 84 
L 4238 -825 
L 3475 -825 
L 2784 -78 
Q 2681 -84 2626 -87 
Q 2572 -91 2522 -91 
Q 1538 -91 948 567 
Q 359 1225 359 2328 
Q 359 3434 948 4092 
Q 1538 4750 2522 4750 
Q 3503 4750 4090 4092 
Q 4678 3434 4678 2328 
Q 4678 1516 4351 937 
Q 4025 359 3406 84 
z
" transform="scale(0.015625)"/>
      <path id="DejaVuSans-2e" d="M 684 794 
L 1344 794 
L 1344 0 
L 684 0 
L 684 794 
z
" transform="scale(0.015625)"/>
      <path id="DejaVuSans-36" d="M 2113 2584 
Q 1688 2584 1439 2293 
Q 1191 2003 1191 1497 
Q 1191 994 1439 701 
Q 1688 409 2113 409 
Q 2538 409 2786 701 
Q 3034 994 3034 1497 
Q 3034 2003 2786 2293 
Q 2538 2584 2113 2584 
z
M 3366 4563 
L 3366 3988 
Q 3128 4100 2886 4159 
Q 2644 4219 2406 4219 
Q 1781 4219 1451 3797 
Q 1122 3375 1075 2522 
Q 1259 2794 1537 2939 
Q 1816 3084 2150 3084 
Q 2853 3084 3261 2657 
Q 3669 2231 3669 1497 
Q 3669 778 3244 343 
Q 2819 -91 2113 -91 
Q 1303 -91 875 529 
Q 447 1150 447 2328 
Q 447 3434 972 4092 
Q 1497 4750 2381 4750 
Q 2619 4750 2861 4703 
Q 3103 4656 3366 4563 
z
" transform="scale(0.015625)"/>
      <path id="DejaVuSans-29" d="M 513 4856 
L 1013 4856 
Q 1481 4119 1714 3412 
Q 1947 2706 1947 2009 
Q 1947 1309 1714 600 
Q 1481 -109 1013 -844 
L 513 -844 
Q 928 -128 1133 580 
Q 1338 1288 1338 2009 
Q 1338 2731 1133 3434 
Q 928 4138 513 4856 
z
" transform="scale(0.015625)"/>
     </defs>
     <use xlink:href="#DejaVuSans-41"/>
     <use xlink:href="#DejaVuSans-74" transform="translate(66.658203 0)"/>
     <use xlink:href="#DejaVuSans-6f" transform="translate(105.867188 0)"/>
     <use xlink:href="#DejaVuSans-6d" transform="translate(167.048828 0)"/>
     <use xlink:href="#DejaVuSans-20" transform="translate(264.460938 0)"/>
     <use xlink:href="#DejaVuSans-54" transform="translate(296.248047 0)"/>
     <use xlink:href="#DejaVuSans-79" transform="translate(341.707031 0)"/>
     <use xlink:href="#DejaVuSans-70" transform="translate(400.886719 0)"/>
     <use xlink:href="#DejaVuSans-65" transform="translate(464.363281 0)"/>
     <use xlink:href="#DejaVuSans-20" transform="translate(525.886719 0)"/>
     <use xlink:href="#DejaVuSans-48" transform="translate(557.673828 0)"/>
     <use xlink:href="#DejaVuSans-20" transform="translate(632.869141 0)"/>
     <use xlink:href="#DejaVuSans-28" transform="translate(664.65625 0)"/>
     <use xlink:href="#DejaVuSans-6e" transform="translate(703.669922 0)"/>
     <use xlink:href="#DejaVuSans-3d" transform="translate(767.048828 0)"/>
     <use xlink:href="#DejaVuSans-39" transform="translate(850.837891 0)"/>
     <use xlink:href="#DejaVuSans-30" transform="translate(914.460938 0)"/>
     <use xlink:href="#DejaVuSans-2c" transform="translate(978.083984 0)"/>
     <use xlink:href="#DejaVuSans-20" transform="translate(1009.871094 0)"/>
     <use xlink:href="#DejaVuSans-6d" transform="translate(1041.658203 0)"/>
     <use xlink:href="#DejaVuSans-65" transform="translate(1139.070312 0)"/>
     <use xlink:href="#DejaVuSans-61" transform="translate(1200.59375 0)"/>
     <use xlink:href="#DejaVuSans-6e" transform="translate(1261.873047 0)"/>
     <use xlink:href="#DejaVuSans-20" transform="translate(1325.251953 0)"/>
     <use xlink:href="#DejaVuSans-51" transform="translate(1357.039062 0)"/>
     <use xlink:href="#DejaVuSans-3d" transform="translate(1435.75 0)"/>
     <use xlink:href="#DejaVuSans-31" transform="translate(1519.539062 0)"/>
     <use xlink:href="#DejaVuSans-30" transform="translate(1583.162109 0)"/>
     <use xlink:href="#DejaVuSans-2e" transform="translate(1646.785156 0)"/>
     <use xlink:href="#DejaVuSans-36" transform="translate(1678.572266 0)"/>
     <use xlink:href="#DejaVuSans-31" transform="translate(1742.195312 0)"/>
     <use xlink:href="#DejaVuSans-29" transform="translate(1805.818359 0)"/>
    </g>
   </g>
  </g>
 </g>
 <defs>
  <clipPath id="p984e75e04b">
   <rect x="57.6" y="41.472" width="357.12" height="266.112"/>
  </clipPath>
 </defs>
</svg>
