<?xml version="1.0" encoding="utf-8" standalone="no"?>
<!DOCTYPE svg PUBLIC "-//W3C//DTD SVG 1.1//EN"
  "http://www.w3.org/Graphics/SVG/1.1/DTD/svg11.dtd">
<svg xmlns:xlink="http://www.w3.org/1999/xlink" width="460.8pt" height="345.6pt" viewBox="0 0 460.8 345.6" xmlns="http://www.w3.org/2000/svg" version="1.1">
 <metadata>
  <rdf:RDF xmlns:dc="http://purl.org/dc/elements/1.1/" xmlns:cc="http://creativecommons.org/ns#" xmlns:rdf="http://www.w3.org/1999/02/22-rdf-syntax-ns#">
   <cc:Work>
    <dc:type rdf:resource="http://purl.org/dc/dcmitype/StillImage"/>
    <dc:date>2025-12-10T13:53:16.000149</dc:date>
    <dc:format>image/svg+xml</dc:format>
    <dc:creator>
     <cc:Agent>
      <dc:title>Matplotlib v3.10.3, https://matplotlib.org/</dc:title>
     </cc:Agent>
    </dc:creator>
   </cc:Work>
  </rdf:RDF>
 </metadata>
 <defs>
  <style type="text/css">*{stroke-linejoin: round; stroke-linecap: butt}</style>
 </defs>
 <g id="figure_1">
  <g id="patch_1">
   <path d="M 0 345.6 
L 460.8 345.6 
L 460.8 0 
L 0 0 
z
" style="fill: #ffffff"/>
  </g>
  <g id="axes_1">
   <g id="patch_2">
    <path d="M 57.6 307.584 
L 414.72 307.584 
L 414.72 41.472 
L 57.6 41.472 
z
" style="fill: #ffffff"/>
   </g>
   <g id="matplotlib.axis_1">
    <g id="xtick_1">
     <g id="line2d_1">
      <defs>
       <path id="m37bf1dd852" d="M 0 0 
L 0 3.5 
" style="stroke: #000000; stroke-width: 0.8"/>
      </defs>
      <g>
       <use xlink:href="#m37bf1dd852" x="73.832727" y="307.584" style="stroke: #000000; stroke-width: 0.8"/>
      </g>
     </g>
     <g id="text_1">
      <!-- 0 -->
      <g transform="translate(69.060852 325.981656) scale(0.15 -0.15)">
       <defs>
        <path id="DejaVuSans-30" d="M 2034 4250 
Q 1547 4250 1301 3770 
Q 1056 3291 1056 2328 
Q 1056 1369 1301 889 
Q 1547 409 2034 409 
Q 2525 409 2770 889 
Q 3016 1369 3016 2328 
Q 3016 3291 2770 3770 
Q 2525 4250 2034 4250 
z
M 2034 4750 
Q 2819 4750 3233 4129 
Q 3647 3509 3647 2328 
Q 3647 1150 3233 529 
Q 2819 -91 2034 -91 
Q 1250 -91 836 529 
Q 422 1150 422 2328 
Q 422 3509 836 4129 
Q 1250 4750 2034 4750 
z
" transform="scale(0.015625)"/>
       </defs>
       <use xlink:href="#DejaVuSans-30"/>
      </g>
     </g>
    </g>
    <g id="xtick_2">
     <g id="line2d_2">
      <g>
       <use xlink:href="#m37bf1dd852" x="154.996364" y="307.584" style="stroke: #000000; stroke-width: 0.8"/>
      </g>
     </g>
     <g id="text_2">
      <!-- 5 -->
      <g transform="translate(150.224489 325.981656) scale(0.15 -0.15)">
       <defs>
        <path id="DejaVuSans-35" d="M 691 4666 
L 3169 4666 
L 3169 4134 
L 1269 4134 
L 1269 2991 
Q 1406 3038 1543 3061 
Q 1681 3084 1819 3084 
Q 2600 3084 3056 2656 
Q 3513 2228 3513 1497 
Q 3513 744 3044 326 
Q 2575 -91 1722 -91 
Q 1428 -91 1123 -41 
Q 819 9 494 109 
L 494 744 
Q 775 591 1075 516 
Q 1375 441 1709 441 
Q 2250 441 2565 725 
Q 2881 1009 2881 1497 
Q 2881 1984 2565 2268 
Q 2250 2553 1709 2553 
Q 1456 2553 1204 2497 
Q 953 2441 691 2322 
L 691 4666 
z
" transform="scale(0.015625)"/>
       </defs>
       <use xlink:href="#DejaVuSans-35"/>
      </g>
     </g>
    </g>
    <g id="xtick_3">
     <g id="line2d_3">
      <g>
       <use xlink:href="#m37bf1dd852" x="236.16" y="307.584" style="stroke: #000000; stroke-width: 0.8"/>
      </g>
     </g>
     <g id="text_3">
      <!-- 10 -->
      <g transform="translate(226.61625 325.981656) scale(0.15 -0.15)">
       <defs>
        <path id="DejaVuSans-31" d="M 794 531 
L 1825 531 
L 1825 4091 
L 703 3866 
L 703 4441 
L 1819 4666 
L 2450 4666 
L 2450 531 
L 3481 531 
L 3481 0 
L 794 0 
L 794 531 
z
" transform="scale(0.015625)"/>
       </defs>
       <use xlink:href="#DejaVuSans-31"/>
       <use xlink:href="#DejaVuSans-30" transform="translate(63.623047 0)"/>
      </g>
     </g>
    </g>
    <g id="xtick_4">
     <g id="line2d_4">
      <g>
       <use xlink:href="#m37bf1dd852" x="317.323636" y="307.584" style="stroke: #000000; stroke-width: 0.8"/>
      </g>
     </g>
     <g id="text_4">
      <!-- 15 -->
      <g transform="translate(307.779886 325.981656) scale(0.15 -0.15)">
       <use xlink:href="#DejaVuSans-31"/>
       <use xlink:href="#DejaVuSans-35" transform="translate(63.623047 0)"/>
      </g>
     </g>
    </g>
    <g id="xtick_5">
     <g id="line2d_5">
      <g>
       <use xlink:href="#m37bf1dd852" x="398.487273" y="307.584" style="stroke: #000000; stroke-width: 0.8"/>
      </g>
     </g>
     <g id="text_5">
      <!-- 20 -->
      <g transform="translate(388.943523 325.981656) scale(0.15 -0.15)">
       <defs>
        <path id="DejaVuSans-32" d="M 1228 531 
L 3431 531 
L 3431 0 
L 469 0 
L 469 531 
Q 828 903 1448 1529 
Q 2069 2156 2228 2338 
Q 2531 2678 2651 2914 
Q 2772 3150 2772 3378 
Q 2772 3750 2511 3984 
Q 2250 4219 1831 4219 
Q 1534 4219 1204 4116 
Q 875 4013 500 3803 
L 500 4441 
Q 881 4594 1212 4672 
Q 1544 4750 1819 4750 
Q 2544 4750 2975 4387 
Q 3406 4025 3406 3419 
Q 3406 3131 3298 2873 
Q 3191 2616 2906 2266 
Q 2828 2175 2409 1742 
Q 1991 1309 1228 531 
z
" transform="scale(0.015625)"/>
       </defs>
       <use xlink:href="#DejaVuSans-32"/>
       <use xlink:href="#DejaVuSans-30" transform="translate(63.623047 0)"/>
      </g>
     </g>
    </g>
   </g>
   <g id="matplotlib.axis_2">
    <g id="ytick_1">
     <g id="line2d_6">
      <defs>
       <path id="mf5f545e327" d="M 0 0 
L -3.5 0 
" style="stroke: #000000; stroke-width: 0.8"/>
      </defs>
      <g>
       <use xlink:href="#mf5f545e327" x="57.6" y="298.881307" style="stroke: #000000; stroke-width: 0.8"/>
      </g>
     </g>
     <g id="text_6">
      <!-- 5 -->
      <g transform="translate(41.05625 304.580135) scale(0.15 -0.15)">
       <use xlink:href="#DejaVuSans-35"/>
      </g>
     </g>
    </g>
    <g id="ytick_2">
     <g id="line2d_7">
      <g>
       <use xlink:href="#mf5f545e327" x="57.6" y="250.543823" style="stroke: #000000; stroke-width: 0.8"/>
      </g>
     </g>
     <g id="text_7">
      <!-- 10 -->
      <g transform="translate(31.5125 256.242651) scale(0.15 -0.15)">
       <use xlink:href="#DejaVuSans-31"/>
       <use xlink:href="#DejaVuSans-30" transform="translate(63.623047 0)"/>
      </g>
     </g>
    </g>
    <g id="ytick_3">
     <g id="line2d_8">
      <g>
       <use xlink:href="#mf5f545e327" x="57.6" y="202.206339" style="stroke: #000000; stroke-width: 0.8"/>
      </g>
     </g>
     <g id="text_8">
      <!-- 15 -->
      <g transform="translate(31.5125 207.905167) scale(0.15 -0.15)">
       <use xlink:href="#DejaVuSans-31"/>
       <use xlink:href="#DejaVuSans-35" transform="translate(63.623047 0)"/>
      </g>
     </g>
    </g>
    <g id="ytick_4">
     <g id="line2d_9">
      <g>
       <use xlink:href="#mf5f545e327" x="57.6" y="153.868855" style="stroke: #000000; stroke-width: 0.8"/>
      </g>
     </g>
     <g id="text_9">
      <!-- 20 -->
      <g transform="translate(31.5125 159.567683) scale(0.15 -0.15)">
       <use xlink:href="#DejaVuSans-32"/>
       <use xlink:href="#DejaVuSans-30" transform="translate(63.623047 0)"/>
      </g>
     </g>
    </g>
    <g id="ytick_5">
     <g id="line2d_10">
      <g>
       <use xlink:href="#mf5f545e327" x="57.6" y="105.531371" style="stroke: #000000; stroke-width: 0.8"/>
      </g>
     </g>
     <g id="text_10">
      <!-- 25 -->
      <g transform="translate(31.5125 111.230199) scale(0.15 -0.15)">
       <use xlink:href="#DejaVuSans-32"/>
       <use xlink:href="#DejaVuSans-35" transform="translate(63.623047 0)"/>
      </g>
     </g>
    </g>
    <g id="ytick_6">
     <g id="line2d_11">
      <g>
       <use xlink:href="#mf5f545e327" x="57.6" y="57.193887" style="stroke: #000000; stroke-width: 0.8"/>
      </g>
     </g>
     <g id="text_11">
      <!-- 30 -->
      <g transform="translate(31.5125 62.892715) scale(0.15 -0.15)">
       <defs>
        <path id="DejaVuSans-33" d="M 2597 2516 
Q 3050 2419 3304 2112 
Q 3559 1806 3559 1356 
Q 3559 666 3084 287 
Q 2609 -91 1734 -91 
Q 1441 -91 1130 -33 
Q 819 25 488 141 
L 488 750 
Q 750 597 1062 519 
Q 1375 441 1716 441 
Q 2309 441 2620 675 
Q 2931 909 2931 1356 
Q 2931 1769 2642 2001 
Q 2353 2234 1838 2234 
L 1294 2234 
L 1294 2753 
L 1863 2753 
Q 2328 2753 2575 2939 
Q 2822 3125 2822 3475 
Q 2822 3834 2567 4026 
Q 2313 4219 1838 4219 
Q 1578 4219 1281 4162 
Q 984 4106 628 3988 
L 628 4550 
Q 988 4650 1302 4700 
Q 1616 4750 1894 4750 
Q 2613 4750 3031 4423 
Q 3450 4097 3450 3541 
Q 3450 3153 3228 2886 
Q 3006 2619 2597 2516 
z
" transform="scale(0.015625)"/>
       </defs>
       <use xlink:href="#DejaVuSans-33"/>
       <use xlink:href="#DejaVuSans-30" transform="translate(63.623047 0)"/>
      </g>
     </g>
    </g>
   </g>
   <g id="line2d_12">
    <path d="M 73.832727 234.964649 
L 90.065455 247.933569 
L 106.298182 192.703329 
L 122.530909 163.431066 
L 138.763636 253.476445 
L 154.996364 144.030552 
L 171.229091 218.607509 
L 187.461818 183.67734 
L 203.694545 258.058368 
L 219.927273 237.012874 
L 236.16 155.034349 
L 252.392727 83.371473 
L 268.625455 192.384528 
L 284.858182 121.598927 
L 301.090909 132.016014 
L 317.323636 91.826049 
L 333.556364 162.286759 
L 349.789091 226.969652 
L 366.021818 149.389747 
L 382.254545 165.735959 
L 398.487273 239.644749 
" clip-path="url(#p21adbfd7dd)" style="fill: none; stroke: #31688e; stroke-opacity: 0.5; stroke-width: 1.5; stroke-linecap: square"/>
   </g>
   <g id="line2d_13">
    <path d="M 73.832727 279.67194 
L 90.065455 234.971673 
L 106.298182 277.385074 
L 122.530909 190.464024 
L 138.763636 261.423913 
L 154.996364 247.113303 
L 171.229091 233.220396 
L 187.461818 154.280238 
L 203.694545 184.082605 
L 219.927273 180.377822 
L 236.16 92.874235 
L 252.392727 143.885664 
L 268.625455 175.019523 
L 284.858182 181.746531 
L 301.090909 210.78632 
L 317.323636 222.161472 
L 333.556364 163.003792 
L 349.789091 242.387662 
L 366.021818 204.908072 
L 382.254545 248.052916 
L 398.487273 157.504281 
" clip-path="url(#p21adbfd7dd)" style="fill: none; stroke: #31688e; stroke-opacity: 0.5; stroke-width: 1.5; stroke-linecap: square"/>
   </g>
   <g id="line2d_14">
    <path d="M 73.832727 237.945678 
L 90.065455 241.950991 
L 106.298182 242.86826 
L 122.530909 259.738237 
L 138.763636 153.626709 
L 154.996364 231.774378 
L 171.229091 217.853972 
L 187.461818 179.44809 
L 203.694545 157.616947 
L 219.927273 255.116284 
L 236.16 265.547107 
L 252.392727 166.64598 
L 268.625455 81.625741 
L 284.858182 126.67165 
L 301.090909 137.132977 
L 317.323636 214.724364 
L 333.556364 262.534274 
L 349.789091 179.885512 
L 366.021818 243.573803 
L 382.254545 171.123001 
L 398.487273 251.209873 
" clip-path="url(#p21adbfd7dd)" style="fill: none; stroke: #31688e; stroke-opacity: 0.5; stroke-width: 1.5; stroke-linecap: square"/>
   </g>
   <g id="line2d_15">
    <path d="M 73.832727 249.187452 
L 90.065455 219.177078 
L 106.298182 190.7889 
L 122.530909 205.03886 
L 138.763636 172.930743 
L 154.996364 169.204092 
L 171.229091 114.403213 
L 187.461818 155.982151 
L 203.694545 180.069182 
L 219.927273 143.743605 
L 236.16 213.214581 
L 252.392727 154.0191 
L 268.625455 53.568 
L 284.858182 171.000194 
L 301.090909 204.197922 
L 317.323636 158.20041 
L 333.556364 155.197409 
L 349.789091 136.146204 
L 366.021818 192.228467 
L 382.254545 181.672794 
L 398.487273 155.293693 
" clip-path="url(#p21adbfd7dd)" style="fill: none; stroke: #31688e; stroke-opacity: 0.5; stroke-width: 1.5; stroke-linecap: square"/>
   </g>
   <g id="line2d_16">
    <path d="M 73.832727 257.649787 
L 90.065455 239.965933 
L 106.298182 256.482121 
L 122.530909 264.598359 
L 138.763636 219.914541 
L 154.996364 215.503015 
L 171.229091 210.802801 
L 187.461818 198.044324 
L 203.694545 184.709641 
L 219.927273 172.441334 
L 236.16 259.394353 
L 252.392727 203.524836 
L 268.625455 155.543523 
L 284.858182 202.485841 
L 301.090909 202.478761 
L 317.323636 223.667218 
L 333.556364 161.421703 
L 349.789091 207.024463 
L 366.021818 185.526978 
L 382.254545 221.978824 
L 398.487273 166.743325 
" clip-path="url(#p21adbfd7dd)" style="fill: none; stroke: #31688e; stroke-opacity: 0.5; stroke-width: 1.5; stroke-linecap: square"/>
   </g>
   <g id="line2d_17">
    <path d="M 73.832727 225.090786 
L 90.065455 244.281834 
L 106.298182 268.177639 
L 122.530909 228.810789 
L 138.763636 227.69302 
L 154.996364 193.16762 
L 171.229091 214.369188 
L 187.461818 242.343525 
L 203.694545 210.977784 
L 219.927273 157.850028 
L 236.16 201.090746 
L 252.392727 173.44628 
L 268.625455 187.221313 
L 284.858182 137.688217 
L 301.090909 162.38734 
L 317.323636 219.383694 
L 333.556364 258.810965 
L 349.789091 184.755091 
L 366.021818 229.989473 
L 382.254545 235.511324 
L 398.487273 237.199225 
" clip-path="url(#p21adbfd7dd)" style="fill: none; stroke: #31688e; stroke-opacity: 0.5; stroke-width: 1.5; stroke-linecap: square"/>
   </g>
   <g id="line2d_18">
    <path d="M 73.832727 260.166727 
L 90.065455 278.875915 
L 106.298182 228.526748 
L 122.530909 221.497651 
L 138.763636 252.105316 
L 154.996364 221.296955 
L 171.229091 238.087812 
L 187.461818 217.912938 
L 203.694545 224.245769 
L 219.927273 206.082463 
L 236.16 172.874986 
L 252.392727 189.846563 
L 268.625455 247.775938 
L 284.858182 223.613576 
L 301.090909 199.644322 
L 317.323636 184.047294 
L 333.556364 197.077143 
L 349.789091 261.667537 
L 366.021818 243.397513 
L 382.254545 225.860167 
L 398.487273 218.413113 
" clip-path="url(#p21adbfd7dd)" style="fill: none; stroke: #31688e; stroke-opacity: 0.5; stroke-width: 1.5; stroke-linecap: square"/>
   </g>
   <g id="line2d_19">
    <path d="M 73.832727 275.263181 
L 90.065455 235.620142 
L 106.298182 262.176465 
L 122.530909 247.185676 
L 138.763636 263.635327 
L 154.996364 252.990564 
L 171.229091 268.270744 
L 187.461818 256.093672 
L 203.694545 248.242558 
L 219.927273 228.437966 
L 236.16 208.42093 
L 252.392727 203.511599 
L 268.625455 236.681584 
L 284.858182 227.86703 
L 301.090909 173.711537 
L 317.323636 223.77092 
L 333.556364 203.728563 
L 349.789091 233.881476 
L 366.021818 231.400699 
L 382.254545 215.370913 
L 398.487273 213.39471 
" clip-path="url(#p21adbfd7dd)" style="fill: none; stroke: #31688e; stroke-opacity: 0.5; stroke-width: 1.5; stroke-linecap: square"/>
   </g>
   <g id="line2d_20">
    <path d="M 73.832727 234.39389 
L 90.065455 233.691724 
L 106.298182 250.903938 
L 122.530909 218.952785 
L 138.763636 205.504707 
L 154.996364 140.978786 
L 171.229091 231.896342 
L 187.461818 227.21603 
L 203.694545 181.159135 
L 219.927273 144.768149 
L 236.16 195.746337 
L 252.392727 191.054558 
L 268.625455 209.916223 
L 284.858182 193.166061 
L 301.090909 188.222092 
L 317.323636 182.528262 
L 333.556364 233.425514 
L 349.789091 210.744363 
L 366.021818 283.772525 
L 382.254545 201.186947 
L 398.487273 217.001874 
" clip-path="url(#p21adbfd7dd)" style="fill: none; stroke: #31688e; stroke-opacity: 0.5; stroke-width: 1.5; stroke-linecap: square"/>
   </g>
   <g id="line2d_21">
    <path d="M 73.832727 240.909253 
L 90.065455 245.22349 
L 106.298182 251.166005 
L 122.530909 221.124271 
L 138.763636 250.443182 
L 154.996364 226.546715 
L 171.229091 259.081237 
L 187.461818 253.309568 
L 203.694545 244.073216 
L 219.927273 245.339838 
L 236.16 232.267989 
L 252.392727 200.915163 
L 268.625455 224.517743 
L 284.858182 236.524524 
L 301.090909 217.348295 
L 317.323636 229.520952 
L 333.556364 245.667362 
L 349.789091 230.388664 
L 366.021818 256.16704 
L 382.254545 229.121857 
L 398.487273 252.343169 
" clip-path="url(#p21adbfd7dd)" style="fill: none; stroke: #31688e; stroke-opacity: 0.5; stroke-width: 1.5; stroke-linecap: square"/>
   </g>
   <g id="line2d_22">
    <path d="M 73.832727 253.652434 
L 90.065455 236.623021 
L 106.298182 252.677847 
L 122.530909 274.825452 
L 138.763636 164.233129 
L 154.996364 182.048538 
L 171.229091 108.069593 
L 187.461818 242.249698 
L 203.694545 247.15121 
L 219.927273 193.146202 
L 236.16 230.868869 
L 252.392727 189.430444 
L 268.625455 165.141995 
L 284.858182 210.51694 
L 301.090909 224.147827 
L 317.323636 233.823488 
L 333.556364 192.770373 
L 349.789091 236.332643 
L 366.021818 220.023167 
L 382.254545 221.515653 
L 398.487273 249.370528 
" clip-path="url(#p21adbfd7dd)" style="fill: none; stroke: #31688e; stroke-opacity: 0.5; stroke-width: 1.5; stroke-linecap: square"/>
   </g>
   <g id="line2d_23">
    <path d="M 73.832727 259.946486 
L 90.065455 230.892533 
L 106.298182 264.442209 
L 122.530909 246.640712 
L 138.763636 256.182637 
L 154.996364 227.726094 
L 171.229091 229.662896 
L 187.461818 208.273251 
L 203.694545 170.28008 
L 219.927273 236.384225 
L 236.16 197.978465 
L 252.392727 207.25536 
L 268.625455 227.435214 
L 284.858182 262.418387 
L 301.090909 247.505229 
L 317.323636 241.248104 
L 333.556364 262.498202 
L 349.789091 181.865235 
L 366.021818 225.665837 
L 382.254545 213.046067 
L 398.487273 254.588916 
" clip-path="url(#p21adbfd7dd)" style="fill: none; stroke: #31688e; stroke-opacity: 0.5; stroke-width: 1.5; stroke-linecap: square"/>
   </g>
   <g id="line2d_24">
    <path d="M 73.832727 224.064871 
L 90.065455 256.454793 
L 106.298182 266.005926 
L 122.530909 227.255496 
L 138.763636 186.389384 
L 154.996364 225.056591 
L 171.229091 219.848269 
L 187.461818 233.606608 
L 203.694545 229.392944 
L 219.927273 237.827815 
L 236.16 211.948684 
L 252.392727 223.055214 
L 268.625455 236.081655 
L 284.858182 214.397618 
L 301.090909 206.383849 
L 317.323636 183.038899 
L 333.556364 88.795528 
L 349.789091 215.435037 
L 366.021818 180.580202 
L 382.254545 176.674859 
L 398.487273 190.192841 
" clip-path="url(#p21adbfd7dd)" style="fill: none; stroke: #31688e; stroke-opacity: 0.5; stroke-width: 1.5; stroke-linecap: square"/>
   </g>
   <g id="line2d_25">
    <path d="M 73.832727 147.187052 
L 90.065455 236.456203 
L 106.298182 216.292852 
L 122.530909 192.753207 
L 138.763636 169.905341 
L 154.996364 123.372965 
L 171.229091 174.819458 
L 187.461818 155.724128 
L 203.694545 216.662545 
L 219.927273 170.559849 
L 236.16 148.528815 
L 252.392727 194.273977 
L 268.625455 175.062099 
L 284.858182 189.365122 
L 301.090909 171.221164 
L 317.323636 196.051223 
L 333.556364 163.594969 
L 349.789091 182.883002 
L 366.021818 145.276554 
L 382.254545 172.586827 
L 398.487273 206.625077 
" clip-path="url(#p21adbfd7dd)" style="fill: none; stroke: #31688e; stroke-opacity: 0.5; stroke-width: 1.5; stroke-linecap: square"/>
   </g>
   <g id="line2d_26">
    <path d="M 73.832727 221.210948 
L 90.065455 227.46339 
L 106.298182 253.548531 
L 122.530909 242.104119 
L 138.763636 205.133048 
L 154.996364 198.151896 
L 171.229091 253.911881 
L 187.461818 194.627693 
L 203.694545 221.997095 
L 219.927273 213.940793 
L 236.16 209.114502 
L 252.392727 231.583477 
L 268.625455 228.46259 
L 284.858182 225.754472 
L 301.090909 239.912309 
L 317.323636 237.718525 
L 333.556364 205.96682 
L 349.789091 217.079544 
L 366.021818 215.581901 
L 382.254545 200.33398 
L 398.487273 227.522921 
" clip-path="url(#p21adbfd7dd)" style="fill: none; stroke: #31688e; stroke-opacity: 0.5; stroke-width: 1.5; stroke-linecap: square"/>
   </g>
   <g id="line2d_27">
    <path d="M 73.832727 258.02949 
L 90.065455 273.079451 
L 106.298182 278.667671 
L 122.530909 273.872191 
L 138.763636 279.999963 
L 154.996364 275.833997 
L 171.229091 271.500678 
L 187.461818 278.703954 
L 203.694545 281.203007 
L 219.927273 275.365507 
L 236.16 269.56089 
L 252.392727 277.18161 
L 268.625455 276.046191 
L 284.858182 276.756825 
L 301.090909 269.579528 
L 317.323636 286.397603 
L 333.556364 281.290853 
L 349.789091 274.065549 
L 366.021818 276.653189 
L 382.254545 282.483039 
L 398.487273 280.795385 
" clip-path="url(#p21adbfd7dd)" style="fill: none; stroke: #31688e; stroke-opacity: 0.5; stroke-width: 1.5; stroke-linecap: square"/>
   </g>
   <g id="line2d_28">
    <path d="M 73.832727 229.851792 
L 90.065455 293.010917 
L 106.298182 290.767665 
L 122.530909 271.174276 
L 138.763636 283.09792 
L 154.996364 281.338308 
L 171.229091 278.46018 
L 187.461818 276.622142 
L 203.694545 273.922362 
L 219.927273 281.809514 
L 236.16 282.33061 
L 252.392727 245.865766 
L 268.625455 256.527711 
L 284.858182 245.759541 
L 301.090909 256.980184 
L 317.323636 268.929846 
L 333.556364 236.523554 
L 349.789091 246.503263 
L 366.021818 233.215388 
L 382.254545 260.343834 
L 398.487273 251.354723 
" clip-path="url(#p21adbfd7dd)" style="fill: none; stroke: #31688e; stroke-opacity: 0.5; stroke-width: 1.5; stroke-linecap: square"/>
   </g>
   <g id="line2d_29">
    <path d="M 73.832727 249.13082 
L 90.065455 236.175246 
L 106.298182 226.395053 
L 122.530909 245.198632 
L 138.763636 249.79888 
L 154.996364 255.526923 
L 171.229091 222.658091 
L 187.461818 244.397622 
L 203.694545 223.109999 
L 219.927273 223.133891 
L 236.16 244.295265 
L 252.392727 251.388426 
L 268.625455 239.201754 
L 284.858182 250.441974 
L 301.090909 226.650049 
L 317.323636 251.997516 
L 333.556364 258.038492 
L 349.789091 252.435767 
L 366.021818 255.535566 
L 382.254545 248.355356 
L 398.487273 262.968463 
" clip-path="url(#p21adbfd7dd)" style="fill: none; stroke: #31688e; stroke-opacity: 0.5; stroke-width: 1.5; stroke-linecap: square"/>
   </g>
   <g id="line2d_30">
    <path d="M 73.832727 262.671658 
L 90.065455 278.104521 
L 106.298182 280.020402 
L 122.530909 273.197381 
L 138.763636 281.374129 
L 154.996364 283.044071 
L 171.229091 261.029669 
L 187.461818 258.469007 
L 203.694545 257.595998 
L 219.927273 251.08741 
L 236.16 252.230778 
L 252.392727 267.601041 
L 268.625455 267.26796 
L 284.858182 261.124593 
L 301.090909 244.420356 
L 317.323636 256.769758 
L 333.556364 273.160007 
L 349.789091 280.627481 
L 366.021818 268.596779 
L 382.254545 275.271108 
L 398.487273 285.142695 
" clip-path="url(#p21adbfd7dd)" style="fill: none; stroke: #31688e; stroke-opacity: 0.5; stroke-width: 1.5; stroke-linecap: square"/>
   </g>
   <g id="line2d_31">
    <path d="M 73.832727 283.848115 
L 90.065455 269.932174 
L 106.298182 236.444198 
L 122.530909 275.42 
L 138.763636 285.891407 
L 154.996364 291.703894 
L 171.229091 276.878615 
L 187.461818 267.954761 
L 203.694545 259.987249 
L 219.927273 258.437966 
L 236.16 264.327966 
L 252.392727 272.006103 
L 268.625455 264.0145 
L 284.858182 273.876408 
L 301.090909 266.774366 
L 317.323636 269.212983 
L 333.556364 281.025031 
L 349.789091 275.463834 
L 366.021818 280.820355 
L 382.254545 284.744954 
L 398.487273 285.375416 
" clip-path="url(#p21adbfd7dd)" style="fill: none; stroke: #31688e; stroke-opacity: 0.5; stroke-width: 1.5; stroke-linecap: square"/>
   </g>
   <g id="line2d_32">
    <path d="M 73.832727 272.080144 
L 90.065455 257.433552 
L 106.298182 271.070085 
L 122.530909 278.26355 
L 138.763636 280.53574 
L 154.996364 282.557595 
L 171.229091 269.541145 
L 187.461818 251.89293 
L 203.694545 232.357091 
L 219.927273 251.818138 
L 236.16 259.971338 
L 252.392727 258.470751 
L 268.625455 261.708503 
L 284.858182 260.371384 
L 301.090909 258.899062 
L 317.323636 270.010931 
L 333.556364 260.838872 
L 349.789091 256.988392 
L 366.021818 252.09651 
L 382.254545 253.922748 
L 398.487273 253.127489 
" clip-path="url(#p21adbfd7dd)" style="fill: none; stroke: #31688e; stroke-opacity: 0.5; stroke-width: 1.5; stroke-linecap: square"/>
   </g>
   <g id="line2d_33">
    <path d="M 73.832727 293.776053 
L 90.065455 288.812385 
L 106.298182 274.259242 
L 122.530909 276.326502 
L 138.763636 286.447747 
L 154.996364 273.921423 
L 171.229091 274.898872 
L 187.461818 261.382732 
L 203.694545 272.143066 
L 219.927273 259.40711 
L 236.16 275.72354 
L 252.392727 267.417783 
L 268.625455 255.278287 
L 284.858182 274.961586 
L 301.090909 266.033454 
L 317.323636 269.467459 
L 333.556364 259.342693 
L 349.789091 269.953697 
L 366.021818 270.783934 
L 382.254545 261.792247 
L 398.487273 272.840146 
" clip-path="url(#p21adbfd7dd)" style="fill: none; stroke: #31688e; stroke-opacity: 0.5; stroke-width: 1.5; stroke-linecap: square"/>
   </g>
   <g id="line2d_34">
    <path d="M 73.832727 293.126402 
L 90.065455 287.572847 
L 106.298182 256.117246 
L 122.530909 277.2531 
L 138.763636 284.189565 
L 154.996364 272.982164 
L 171.229091 251.051512 
L 187.461818 251.013405 
L 203.694545 278.142033 
L 219.927273 262.126649 
L 236.16 281.927122 
L 252.392727 282.950416 
L 268.625455 233.041014 
L 284.858182 276.135361 
L 301.090909 280.726383 
L 317.323636 277.813507 
L 333.556364 282.965294 
L 349.789091 275.211401 
L 366.021818 266.968411 
L 382.254545 277.636748 
L 398.487273 283.508126 
" clip-path="url(#p21adbfd7dd)" style="fill: none; stroke: #31688e; stroke-opacity: 0.5; stroke-width: 1.5; stroke-linecap: square"/>
   </g>
   <g id="line2d_35">
    <path d="M 73.832727 248.786419 
L 90.065455 253.103363 
L 106.298182 265.901044 
L 122.530909 256.362955 
L 138.763636 242.620923 
L 154.996364 241.14284 
L 171.229091 184.978946 
L 187.461818 206.44539 
L 203.694545 245.972584 
L 219.927273 228.834402 
L 236.16 243.510948 
L 252.392727 226.713087 
L 268.625455 217.616227 
L 284.858182 216.394154 
L 301.090909 225.989944 
L 317.323636 250.95374 
L 333.556364 242.394711 
L 349.789091 257.559759 
L 366.021818 259.652566 
L 382.254545 252.052235 
L 398.487273 252.449237 
" clip-path="url(#p21adbfd7dd)" style="fill: none; stroke: #31688e; stroke-opacity: 0.5; stroke-width: 1.5; stroke-linecap: square"/>
   </g>
   <g id="line2d_36">
    <path d="M 73.832727 267.894387 
L 90.065455 256.995039 
L 106.298182 280.098075 
L 122.530909 288.93898 
L 138.763636 284.843204 
L 154.996364 272.828354 
L 171.229091 283.786873 
L 187.461818 259.926019 
L 203.694545 275.593209 
L 219.927273 286.734033 
L 236.16 295.250346 
L 252.392727 288.483208 
L 268.625455 260.174963 
L 284.858182 257.504581 
L 301.090909 273.67213 
L 317.323636 282.30796 
L 333.556364 280.427141 
L 349.789091 269.384415 
L 366.021818 285.510057 
L 382.254545 260.146654 
L 398.487273 268.893612 
" clip-path="url(#p21adbfd7dd)" style="fill: none; stroke: #31688e; stroke-opacity: 0.5; stroke-width: 1.5; stroke-linecap: square"/>
   </g>
   <g id="line2d_37">
    <path d="M 73.832727 230.086565 
L 90.065455 252.986203 
L 106.298182 284.761069 
L 122.530909 270.140269 
L 138.763636 287.223841 
L 154.996364 279.547275 
L 171.229091 285.214652 
L 187.461818 267.750652 
L 203.694545 273.810437 
L 219.927273 274.612511 
L 236.16 243.331615 
L 252.392727 271.903581 
L 268.625455 265.984459 
L 284.858182 237.777671 
L 301.090909 252.904779 
L 317.323636 282.634171 
L 333.556364 268.209965 
L 349.789091 274.557678 
L 366.021818 274.102114 
L 382.254545 272.447836 
L 398.487273 261.834984 
" clip-path="url(#p21adbfd7dd)" style="fill: none; stroke: #31688e; stroke-opacity: 0.5; stroke-width: 1.5; stroke-linecap: square"/>
   </g>
   <g id="line2d_38">
    <path d="M 73.832727 261.116956 
L 90.065455 267.939617 
L 106.298182 273.465552 
L 122.530909 251.006536 
L 138.763636 272.879704 
L 154.996364 251.504006 
L 171.229091 233.388476 
L 187.461818 248.391475 
L 203.694545 273.017757 
L 219.927273 255.168705 
L 236.16 255.696185 
L 252.392727 270.848676 
L 268.625455 242.649647 
L 284.858182 244.719419 
L 301.090909 234.08917 
L 317.323636 264.584774 
L 333.556364 264.527569 
L 349.789091 268.820439 
L 366.021818 266.484381 
L 382.254545 250.781796 
L 398.487273 270.193105 
" clip-path="url(#p21adbfd7dd)" style="fill: none; stroke: #31688e; stroke-opacity: 0.5; stroke-width: 1.5; stroke-linecap: square"/>
   </g>
   <g id="line2d_39">
    <path d="M 73.832727 237.180484 
L 90.065455 260.303518 
L 106.298182 292.190039 
L 122.530909 230.245453 
L 138.763636 254.129989 
L 154.996364 266.611084 
L 171.229091 250.013779 
L 187.461818 259.587711 
L 203.694545 214.569046 
L 219.927273 251.893866 
L 236.16 226.810451 
L 252.392727 226.67854 
L 268.625455 234.271 
L 284.858182 227.897445 
L 301.090909 240.324724 
L 317.323636 227.068653 
L 333.556364 238.058754 
L 349.789091 246.750435 
L 366.021818 214.459722 
L 382.254545 231.787303 
L 398.487273 240.717596 
" clip-path="url(#p21adbfd7dd)" style="fill: none; stroke: #31688e; stroke-opacity: 0.5; stroke-width: 1.5; stroke-linecap: square"/>
   </g>
   <g id="line2d_40">
    <path d="M 73.832727 239.115593 
L 90.065455 277.586243 
L 106.298182 278.939329 
L 122.530909 269.287428 
L 138.763636 268.729903 
L 154.996364 269.542957 
L 171.229091 275.567813 
L 187.461818 268.792471 
L 203.694545 226.110136 
L 219.927273 239.089456 
L 236.16 238.560699 
L 252.392727 259.227398 
L 268.625455 261.266503 
L 284.858182 242.391088 
L 301.090909 234.798441 
L 317.323636 235.971088 
L 333.556364 255.348119 
L 349.789091 248.89913 
L 366.021818 218.873637 
L 382.254545 235.67505 
L 398.487273 249.710299 
" clip-path="url(#p21adbfd7dd)" style="fill: none; stroke: #31688e; stroke-opacity: 0.5; stroke-width: 1.5; stroke-linecap: square"/>
   </g>
   <g id="line2d_41">
    <path d="M 73.832727 231.964538 
L 90.065455 244.5886 
L 106.298182 230.017753 
L 122.530909 245.483552 
L 138.763636 226.182652 
L 154.996364 219.209967 
L 171.229091 226.769644 
L 187.461818 231.037812 
L 203.694545 227.508509 
L 219.927273 247.721612 
L 236.16 234.102681 
L 252.392727 226.22485 
L 268.625455 226.019892 
L 284.858182 212.846182 
L 301.090909 231.338502 
L 317.323636 215.158474 
L 333.556364 232.172793 
L 349.789091 223.068759 
L 366.021818 230.110496 
L 382.254545 228.832946 
L 398.487273 227.436971 
" clip-path="url(#p21adbfd7dd)" style="fill: none; stroke: #31688e; stroke-opacity: 0.5; stroke-width: 1.5; stroke-linecap: square"/>
   </g>
   <g id="line2d_42">
    <path d="M 73.832727 275.93295 
L 90.065455 292.378236 
L 106.298182 288.548813 
L 122.530909 286.057793 
L 138.763636 257.456661 
L 154.996364 220.298601 
L 171.229091 269.515441 
L 187.461818 253.034686 
L 203.694545 262.311682 
L 219.927273 243.078603 
L 236.16 244.409256 
L 252.392727 233.370782 
L 268.625455 263.21696 
L 284.858182 246.040127 
L 301.090909 264.732605 
L 317.323636 260.251785 
L 333.556364 246.615169 
L 349.789091 232.407789 
L 366.021818 261.296821 
L 382.254545 271.613892 
L 398.487273 254.153336 
" clip-path="url(#p21adbfd7dd)" style="fill: none; stroke: #31688e; stroke-opacity: 0.5; stroke-width: 1.5; stroke-linecap: square"/>
   </g>
   <g id="line2d_43">
    <path d="M 73.832727 235.388826 
L 90.065455 266.07826 
L 106.298182 270.737185 
L 122.530909 265.274849 
L 138.763636 209.796915 
L 154.996364 208.801169 
L 171.229091 270.619708 
L 187.461818 259.293473 
L 203.694545 272.537525 
L 219.927273 265.238358 
L 236.16 271.552983 
L 252.392727 273.483734 
L 268.625455 260.904973 
L 284.858182 253.203109 
L 301.090909 261.414656 
L 317.323636 243.659361 
L 333.556364 224.181373 
L 349.789091 205.864999 
L 366.021818 189.067865 
L 382.254545 210.640075 
L 398.487273 197.404005 
" clip-path="url(#p21adbfd7dd)" style="fill: none; stroke: #31688e; stroke-opacity: 0.5; stroke-width: 1.5; stroke-linecap: square"/>
   </g>
   <g id="line2d_44">
    <path d="M 73.832727 241.530808 
L 90.065455 224.652494 
L 106.298182 184.569852 
L 122.530909 208.733654 
L 138.763636 280.449703 
L 154.996364 262.425254 
L 171.229091 204.90325 
L 187.461818 244.739025 
L 203.694545 268.227124 
L 219.927273 251.751865 
L 236.16 230.516041 
L 252.392727 225.1922 
L 268.625455 203.039146 
L 284.858182 208.187681 
L 301.090909 186.986549 
L 317.323636 180.881202 
L 333.556364 201.780171 
L 349.789091 191.035767 
L 366.021818 183.085728 
L 382.254545 199.749255 
L 398.487273 192.375536 
" clip-path="url(#p21adbfd7dd)" style="fill: none; stroke: #31688e; stroke-opacity: 0.5; stroke-width: 1.5; stroke-linecap: square"/>
   </g>
   <g id="line2d_45">
    <path d="M 73.832727 280.551568 
L 90.065455 281.078989 
L 106.298182 267.029329 
L 122.530909 258.574895 
L 138.763636 283.079542 
L 154.996364 286.557986 
L 171.229091 260.552664 
L 187.461818 266.71749 
L 203.694545 246.589051 
L 219.927273 256.288562 
L 236.16 278.858901 
L 252.392727 262.438784 
L 268.625455 272.828567 
L 284.858182 258.612211 
L 301.090909 274.599072 
L 317.323636 277.432752 
L 333.556364 266.748103 
L 349.789091 283.328312 
L 366.021818 281.182163 
L 382.254545 293.845253 
L 398.487273 287.225792 
" clip-path="url(#p21adbfd7dd)" style="fill: none; stroke: #31688e; stroke-opacity: 0.5; stroke-width: 1.5; stroke-linecap: square"/>
   </g>
   <g id="line2d_46">
    <path d="M 73.832727 264.15592 
L 90.065455 249.449203 
L 106.298182 243.979709 
L 122.530909 268.863841 
L 138.763636 282.985489 
L 154.996364 284.031862 
L 171.229091 280.028569 
L 187.461818 285.265829 
L 203.694545 283.185148 
L 219.927273 270.053884 
L 236.16 265.144308 
L 252.392727 271.352297 
L 268.625455 283.012715 
L 284.858182 278.308605 
L 301.090909 266.897497 
L 317.323636 282.404022 
L 333.556364 278.340707 
L 349.789091 269.174307 
L 366.021818 287.323228 
L 382.254545 252.09913 
L 398.487273 276.341158 
" clip-path="url(#p21adbfd7dd)" style="fill: none; stroke: #31688e; stroke-opacity: 0.5; stroke-width: 1.5; stroke-linecap: square"/>
   </g>
   <g id="line2d_47">
    <path d="M 73.832727 248.83985 
L 90.065455 262.690328 
L 106.298182 245.851578 
L 122.530909 245.628628 
L 138.763636 239.587123 
L 154.996364 238.51471 
L 171.229091 203.835993 
L 187.461818 218.567795 
L 203.694545 211.327272 
L 219.927273 218.747365 
L 236.16 238.293852 
L 252.392727 222.473523 
L 268.625455 226.928005 
L 284.858182 216.392708 
L 301.090909 248.696946 
L 317.323636 225.312795 
L 333.556364 229.444006 
L 349.789091 252.48628 
L 366.021818 227.345617 
L 382.254545 234.746009 
L 398.487273 248.225236 
" clip-path="url(#p21adbfd7dd)" style="fill: none; stroke: #31688e; stroke-opacity: 0.5; stroke-width: 1.5; stroke-linecap: square"/>
   </g>
   <g id="line2d_48">
    <path d="M 73.832727 248.187651 
L 90.065455 281.253681 
L 106.298182 291.984779 
L 122.530909 287.570869 
L 138.763636 242.819561 
L 154.996364 244.372205 
L 171.229091 258.48706 
L 187.461818 231.668723 
L 203.694545 244.379558 
L 219.927273 244.726994 
L 236.16 252.325603 
L 252.392727 251.200534 
L 268.625455 233.039261 
L 284.858182 218.328301 
L 301.090909 223.383569 
L 317.323636 235.755893 
L 333.556364 251.681842 
L 349.789091 242.313829 
L 366.021818 212.649457 
L 382.254545 231.192113 
L 398.487273 248.90167 
" clip-path="url(#p21adbfd7dd)" style="fill: none; stroke: #31688e; stroke-opacity: 0.5; stroke-width: 1.5; stroke-linecap: square"/>
   </g>
   <g id="line2d_49">
    <path d="M 73.832727 264.558272 
L 90.065455 279.108393 
L 106.298182 260.045923 
L 122.530909 256.526925 
L 138.763636 251.259017 
L 154.996364 252.950037 
L 171.229091 240.76482 
L 187.461818 227.119678 
L 203.694545 203.189851 
L 219.927273 233.511293 
L 236.16 258.580887 
L 252.392727 203.317389 
L 268.625455 244.833672 
L 284.858182 174.08953 
L 301.090909 192.409205 
L 317.323636 200.315289 
L 333.556364 201.294479 
L 349.789091 196.397385 
L 366.021818 185.609615 
L 382.254545 203.766501 
L 398.487273 221.853927 
" clip-path="url(#p21adbfd7dd)" style="fill: none; stroke: #31688e; stroke-opacity: 0.5; stroke-width: 1.5; stroke-linecap: square"/>
   </g>
   <g id="line2d_50">
    <path d="M 73.832727 252.216756 
L 90.065455 254.290573 
L 106.298182 262.910346 
L 122.530909 251.122341 
L 138.763636 275.124664 
L 154.996364 254.579183 
L 171.229091 261.769685 
L 187.461818 238.043449 
L 203.694545 244.383951 
L 219.927273 248.560701 
L 236.16 249.979904 
L 252.392727 276.327893 
L 268.625455 249.605054 
L 284.858182 243.245574 
L 301.090909 244.018878 
L 317.323636 259.902123 
L 333.556364 241.967251 
L 349.789091 257.597956 
L 366.021818 249.053599 
L 382.254545 249.606992 
L 398.487273 249.86268 
" clip-path="url(#p21adbfd7dd)" style="fill: none; stroke: #31688e; stroke-opacity: 0.5; stroke-width: 1.5; stroke-linecap: square"/>
   </g>
   <g id="line2d_51">
    <path d="M 73.832727 277.782813 
L 90.065455 279.304322 
L 106.298182 271.542583 
L 122.530909 280.956787 
L 138.763636 295.330477 
L 154.996364 277.966611 
L 171.229091 290.217106 
L 187.461818 284.03365 
L 203.694545 277.738098 
L 219.927273 254.063844 
L 236.16 245.028246 
L 252.392727 258.5308 
L 268.625455 264.135104 
L 284.858182 256.617725 
L 301.090909 263.222225 
L 317.323636 269.697548 
L 333.556364 260.860495 
L 349.789091 236.623136 
L 366.021818 260.195758 
L 382.254545 269.082411 
L 398.487273 254.981332 
" clip-path="url(#p21adbfd7dd)" style="fill: none; stroke: #31688e; stroke-opacity: 0.5; stroke-width: 1.5; stroke-linecap: square"/>
   </g>
   <g id="line2d_52">
    <path d="M 73.832727 270.423553 
L 90.065455 286.365794 
L 106.298182 284.922656 
L 122.530909 286.53571 
L 138.763636 285.616956 
L 154.996364 276.426294 
L 171.229091 275.716417 
L 187.461818 276.984952 
L 203.694545 283.693867 
L 219.927273 257.463376 
L 236.16 240.759247 
L 252.392727 262.710724 
L 268.625455 255.146574 
L 284.858182 275.317444 
L 301.090909 262.806302 
L 317.323636 256.655575 
L 333.556364 227.781239 
L 349.789091 246.718796 
L 366.021818 244.246193 
L 382.254545 256.249543 
L 398.487273 242.586742 
" clip-path="url(#p21adbfd7dd)" style="fill: none; stroke: #31688e; stroke-opacity: 0.5; stroke-width: 1.5; stroke-linecap: square"/>
   </g>
   <g id="line2d_53">
    <path d="M 73.832727 260.091044 
L 90.065455 243.443403 
L 106.298182 250.190277 
L 122.530909 246.810616 
L 138.763636 249.115456 
L 154.996364 206.506284 
L 171.229091 232.153918 
L 187.461818 245.36847 
L 203.694545 220.830847 
L 219.927273 184.15242 
L 236.16 195.058186 
L 252.392727 186.850209 
L 268.625455 172.068499 
L 284.858182 174.937315 
L 301.090909 182.175058 
L 317.323636 207.52425 
L 333.556364 203.846108 
L 349.789091 196.359621 
L 366.021818 215.938538 
L 382.254545 198.363769 
L 398.487273 206.755803 
" clip-path="url(#p21adbfd7dd)" style="fill: none; stroke: #31688e; stroke-opacity: 0.5; stroke-width: 1.5; stroke-linecap: square"/>
   </g>
   <g id="line2d_54">
    <path d="M 73.832727 295.488 
L 90.065455 286.942821 
L 106.298182 287.594272 
L 122.530909 293.927291 
L 138.763636 282.538629 
L 154.996364 255.765632 
L 171.229091 261.880907 
L 187.461818 291.232078 
L 203.694545 246.497395 
L 219.927273 231.778188 
L 236.16 253.440161 
L 252.392727 251.186018 
L 268.625455 233.727131 
L 284.858182 229.666659 
L 301.090909 219.355739 
L 317.323636 245.762119 
L 333.556364 254.642204 
L 349.789091 254.326784 
L 366.021818 253.227266 
L 382.254545 271.512845 
L 398.487273 262.057319 
" clip-path="url(#p21adbfd7dd)" style="fill: none; stroke: #31688e; stroke-opacity: 0.5; stroke-width: 1.5; stroke-linecap: square"/>
   </g>
   <g id="line2d_55">
    <path d="M 73.832727 279.524132 
L 90.065455 264.14351 
L 106.298182 258.745259 
L 122.530909 254.820698 
L 138.763636 254.379974 
L 154.996364 248.716514 
L 171.229091 262.632967 
L 187.461818 251.078313 
L 203.694545 218.243876 
L 219.927273 231.83996 
L 236.16 231.936255 
L 252.392727 249.378459 
L 268.625455 251.668286 
L 284.858182 257.865135 
L 301.090909 245.50646 
L 317.323636 250.459325 
L 333.556364 242.524065 
L 349.789091 251.808847 
L 366.021818 241.189751 
L 382.254545 273.640038 
L 398.487273 263.153154 
" clip-path="url(#p21adbfd7dd)" style="fill: none; stroke: #31688e; stroke-opacity: 0.5; stroke-width: 1.5; stroke-linecap: square"/>
   </g>
   <g id="line2d_56">
    <path d="M 73.832727 210.102695 
L 90.065455 259.58705 
L 106.298182 263.339059 
L 122.530909 277.196338 
L 138.763636 257.022365 
L 154.996364 228.659516 
L 171.229091 254.76568 
L 187.461818 222.912285 
L 203.694545 213.118195 
L 219.927273 194.556001 
L 236.16 213.688682 
L 252.392727 191.74635 
L 268.625455 216.073606 
L 284.858182 195.44364 
L 301.090909 209.058652 
L 317.323636 217.493859 
L 333.556364 236.209698 
L 349.789091 203.385947 
L 366.021818 215.169722 
L 382.254545 222.723178 
L 398.487273 231.342224 
" clip-path="url(#p21adbfd7dd)" style="fill: none; stroke: #31688e; stroke-opacity: 0.5; stroke-width: 1.5; stroke-linecap: square"/>
   </g>
   <g id="line2d_57">
    <path d="M 73.832727 230.553315 
L 90.065455 272.234313 
L 106.298182 284.85854 
L 122.530909 292.319112 
L 138.763636 284.255625 
L 154.996364 289.772671 
L 171.229091 279.162884 
L 187.461818 264.995647 
L 203.694545 270.52966 
L 219.927273 280.560639 
L 236.16 271.43901 
L 252.392727 275.645899 
L 268.625455 274.129949 
L 284.858182 274.588834 
L 301.090909 279.438943 
L 317.323636 244.462449 
L 333.556364 254.586575 
L 349.789091 257.458385 
L 366.021818 268.350942 
L 382.254545 274.922798 
L 398.487273 270.878051 
" clip-path="url(#p21adbfd7dd)" style="fill: none; stroke: #31688e; stroke-opacity: 0.5; stroke-width: 1.5; stroke-linecap: square"/>
   </g>
   <g id="line2d_58">
    <path d="M 73.832727 226.418957 
L 90.065455 249.079255 
L 106.298182 256.740231 
L 122.530909 262.540747 
L 138.763636 249.537079 
L 154.996364 261.768175 
L 171.229091 209.411948 
L 187.461818 262.757274 
L 203.694545 251.697114 
L 219.927273 259.058538 
L 236.16 234.639888 
L 252.392727 207.159139 
L 268.625455 248.33861 
L 284.858182 245.516875 
L 301.090909 258.812723 
L 317.323636 253.652965 
L 333.556364 276.19384 
L 349.789091 274.309816 
L 366.021818 282.669196 
L 382.254545 284.675337 
L 398.487273 291.135827 
" clip-path="url(#p21adbfd7dd)" style="fill: none; stroke: #31688e; stroke-opacity: 0.5; stroke-width: 1.5; stroke-linecap: square"/>
   </g>
   <g id="line2d_59">
    <path d="M 73.832727 246.028261 
L 90.065455 252.777386 
L 106.298182 253.989185 
L 122.530909 222.172856 
L 138.763636 234.541247 
L 154.996364 245.517268 
L 171.229091 221.403455 
L 187.461818 223.215751 
L 203.694545 206.190134 
L 219.927273 246.831585 
L 236.16 222.48169 
L 252.392727 216.263782 
L 268.625455 229.180499 
L 284.858182 244.852871 
L 301.090909 239.100326 
L 317.323636 217.707681 
L 333.556364 221.443471 
L 349.789091 226.500349 
L 366.021818 220.182732 
L 382.254545 232.723489 
L 398.487273 217.452361 
" clip-path="url(#p21adbfd7dd)" style="fill: none; stroke: #31688e; stroke-opacity: 0.5; stroke-width: 1.5; stroke-linecap: square"/>
   </g>
   <g id="line2d_60">
    <path d="M 73.832727 265.406812 
L 90.065455 279.776738 
L 106.298182 292.850837 
L 122.530909 294.942463 
L 138.763636 288.010251 
L 154.996364 287.51325 
L 171.229091 237.202493 
L 187.461818 230.195422 
L 203.694545 208.369674 
L 219.927273 261.811169 
L 236.16 232.214447 
L 252.392727 239.065988 
L 268.625455 238.071039 
L 284.858182 227.825775 
L 301.090909 229.66826 
L 317.323636 226.785792 
L 333.556364 225.206282 
L 349.789091 228.97098 
L 366.021818 237.660996 
L 382.254545 238.369952 
L 398.487273 241.15045 
" clip-path="url(#p21adbfd7dd)" style="fill: none; stroke: #31688e; stroke-opacity: 0.5; stroke-width: 1.5; stroke-linecap: square"/>
   </g>
   <g id="line2d_61">
    <path d="M 73.832727 266.705221 
L 90.065455 265.188419 
L 106.298182 270.277248 
L 122.530909 282.479373 
L 138.763636 282.330017 
L 154.996364 281.599815 
L 171.229091 247.141494 
L 187.461818 242.396508 
L 203.694545 232.65686 
L 219.927273 238.192672 
L 236.16 253.505227 
L 252.392727 228.409588 
L 268.625455 256.157162 
L 284.858182 234.225797 
L 301.090909 271.332186 
L 317.323636 248.839286 
L 333.556364 242.00946 
L 349.789091 247.105938 
L 366.021818 220.626995 
L 382.254545 233.378307 
L 398.487273 251.289708 
" clip-path="url(#p21adbfd7dd)" style="fill: none; stroke: #31688e; stroke-opacity: 0.5; stroke-width: 1.5; stroke-linecap: square"/>
   </g>
   <g id="line2d_62">
    <path d="M 73.832727 252.80422 
L 90.065455 242.433297 
L 106.298182 255.147515 
L 122.530909 242.267713 
L 138.763636 251.012816 
L 154.996364 248.371919 
L 171.229091 256.783513 
L 187.461818 242.870339 
L 203.694545 209.111344 
L 219.927273 244.967403 
L 236.16 196.461265 
L 252.392727 209.25844 
L 268.625455 207.912055 
L 284.858182 227.203648 
L 301.090909 214.131844 
L 317.323636 198.745509 
L 333.556364 215.261111 
L 349.789091 220.319548 
L 366.021818 243.091773 
L 382.254545 227.868166 
L 398.487273 236.127926 
" clip-path="url(#p21adbfd7dd)" style="fill: none; stroke: #31688e; stroke-opacity: 0.5; stroke-width: 1.5; stroke-linecap: square"/>
   </g>
   <g id="patch_3">
    <path d="M 57.6 307.584 
L 57.6 41.472 
" style="fill: none; stroke: #000000; stroke-width: 3; stroke-linejoin: miter; stroke-linecap: square"/>
   </g>
   <g id="patch_4">
    <path d="M 414.72 307.584 
L 414.72 41.472 
" style="fill: none; stroke: #000000; stroke-width: 3; stroke-linejoin: miter; stroke-linecap: square"/>
   </g>
   <g id="patch_5">
    <path d="M 57.6 307.584 
L 414.72 307.584 
" style="fill: none; stroke: #000000; stroke-width: 3; stroke-linejoin: miter; stroke-linecap: square"/>
   </g>
   <g id="patch_6">
    <path d="M 57.6 41.472 
L 414.72 41.472 
" style="fill: none; stroke: #000000; stroke-width: 3; stroke-linejoin: miter; stroke-linecap: square"/>
   </g>
   <g id="text_12">
    <!-- Atom Type C (n=51, mean Q=11.10) -->
    <g transform="translate(33.818437 35.472) scale(0.22 -0.22)">
     <defs>
      <path id="DejaVuSans-41" d="M 2188 4044 
L 1331 1722 
L 3047 1722 
L 2188 4044 
z
M 1831 4666 
L 2547 4666 
L 4325 0 
L 3669 0 
L 3244 1197 
L 1141 1197 
L 716 0 
L 50 0 
L 1831 4666 
z
" transform="scale(0.015625)"/>
      <path id="DejaVuSans-74" d="M 1172 4494 
L 1172 3500 
L 2356 3500 
L 2356 3053 
L 1172 3053 
L 1172 1153 
Q 1172 725 1289 603 
Q 1406 481 1766 481 
L 2356 481 
L 2356 0 
L 1766 0 
Q 1100 0 847 248 
Q 594 497 594 1153 
L 594 3053 
L 172 3053 
L 172 3500 
L 594 3500 
L 594 4494 
L 1172 4494 
z
" transform="scale(0.015625)"/>
      <path id="DejaVuSans-6f" d="M 1959 3097 
Q 1497 3097 1228 2736 
Q 959 2375 959 1747 
Q 959 1119 1226 758 
Q 1494 397 1959 397 
Q 2419 397 2687 759 
Q 2956 1122 2956 1747 
Q 2956 2369 2687 2733 
Q 2419 3097 1959 3097 
z
M 1959 3584 
Q 2709 3584 3137 3096 
Q 3566 2609 3566 1747 
Q 3566 888 3137 398 
Q 2709 -91 1959 -91 
Q 1206 -91 779 398 
Q 353 888 353 1747 
Q 353 2609 779 3096 
Q 1206 3584 1959 3584 
z
" transform="scale(0.015625)"/>
      <path id="DejaVuSans-6d" d="M 3328 2828 
Q 3544 3216 3844 3400 
Q 4144 3584 4550 3584 
Q 5097 3584 5394 3201 
Q 5691 2819 5691 2113 
L 5691 0 
L 5113 0 
L 5113 2094 
Q 5113 2597 4934 2840 
Q 4756 3084 4391 3084 
Q 3944 3084 3684 2787 
Q 3425 2491 3425 1978 
L 3425 0 
L 2847 0 
L 2847 2094 
Q 2847 2600 2669 2842 
Q 2491 3084 2119 3084 
Q 1678 3084 1418 2786 
Q 1159 2488 1159 1978 
L 1159 0 
L 581 0 
L 581 3500 
L 1159 3500 
L 1159 2956 
Q 1356 3278 1631 3431 
Q 1906 3584 2284 3584 
Q 2666 3584 2933 3390 
Q 3200 3197 3328 2828 
z
" transform="scale(0.015625)"/>
      <path id="DejaVuSans-20" transform="scale(0.015625)"/>
      <path id="DejaVuSans-54" d="M -19 4666 
L 3928 4666 
L 3928 4134 
L 2272 4134 
L 2272 0 
L 1638 0 
L 1638 4134 
L -19 4134 
L -19 4666 
z
" transform="scale(0.015625)"/>
      <path id="DejaVuSans-79" d="M 2059 -325 
Q 1816 -950 1584 -1140 
Q 1353 -1331 966 -1331 
L 506 -1331 
L 506 -850 
L 844 -850 
Q 1081 -850 1212 -737 
Q 1344 -625 1503 -206 
L 1606 56 
L 191 3500 
L 800 3500 
L 1894 763 
L 2988 3500 
L 3597 3500 
L 2059 -325 
z
" transform="scale(0.015625)"/>
      <path id="DejaVuSans-70" d="M 1159 525 
L 1159 -1331 
L 581 -1331 
L 581 3500 
L 1159 3500 
L 1159 2969 
Q 1341 3281 1617 3432 
Q 1894 3584 2278 3584 
Q 2916 3584 3314 3078 
Q 3713 2572 3713 1747 
Q 3713 922 3314 415 
Q 2916 -91 2278 -91 
Q 1894 -91 1617 61 
Q 1341 213 1159 525 
z
M 3116 1747 
Q 3116 2381 2855 2742 
Q 2594 3103 2138 3103 
Q 1681 3103 1420 2742 
Q 1159 2381 1159 1747 
Q 1159 1113 1420 752 
Q 1681 391 2138 391 
Q 2594 391 2855 752 
Q 3116 1113 3116 1747 
z
" transform="scale(0.015625)"/>
      <path id="DejaVuSans-65" d="M 3597 1894 
L 3597 1613 
L 953 1613 
Q 991 1019 1311 708 
Q 1631 397 2203 397 
Q 2534 397 2845 478 
Q 3156 559 3463 722 
L 3463 178 
Q 3153 47 2828 -22 
Q 2503 -91 2169 -91 
Q 1331 -91 842 396 
Q 353 884 353 1716 
Q 353 2575 817 3079 
Q 1281 3584 2069 3584 
Q 2775 3584 3186 3129 
Q 3597 2675 3597 1894 
z
M 3022 2063 
Q 3016 2534 2758 2815 
Q 2500 3097 2075 3097 
Q 1594 3097 1305 2825 
Q 1016 2553 972 2059 
L 3022 2063 
z
" transform="scale(0.015625)"/>
      <path id="DejaVuSans-43" d="M 4122 4306 
L 4122 3641 
Q 3803 3938 3442 4084 
Q 3081 4231 2675 4231 
Q 1875 4231 1450 3742 
Q 1025 3253 1025 2328 
Q 1025 1406 1450 917 
Q 1875 428 2675 428 
Q 3081 428 3442 575 
Q 3803 722 4122 1019 
L 4122 359 
Q 3791 134 3420 21 
Q 3050 -91 2638 -91 
Q 1578 -91 968 557 
Q 359 1206 359 2328 
Q 359 3453 968 4101 
Q 1578 4750 2638 4750 
Q 3056 4750 3426 4639 
Q 3797 4528 4122 4306 
z
" transform="scale(0.015625)"/>
      <path id="DejaVuSans-28" d="M 1984 4856 
Q 1566 4138 1362 3434 
Q 1159 2731 1159 2009 
Q 1159 1288 1364 580 
Q 1569 -128 1984 -844 
L 1484 -844 
Q 1016 -109 783 600 
Q 550 1309 550 2009 
Q 550 2706 781 3412 
Q 1013 4119 1484 4856 
L 1984 4856 
z
" transform="scale(0.015625)"/>
      <path id="DejaVuSans-6e" d="M 3513 2113 
L 3513 0 
L 2938 0 
L 2938 2094 
Q 2938 2591 2744 2837 
Q 2550 3084 2163 3084 
Q 1697 3084 1428 2787 
Q 1159 2491 1159 1978 
L 1159 0 
L 581 0 
L 581 3500 
L 1159 3500 
L 1159 2956 
Q 1366 3272 1645 3428 
Q 1925 3584 2291 3584 
Q 2894 3584 3203 3211 
Q 3513 2838 3513 2113 
z
" transform="scale(0.015625)"/>
      <path id="DejaVuSans-3d" d="M 678 2906 
L 4684 2906 
L 4684 2381 
L 678 2381 
L 678 2906 
z
M 678 1631 
L 4684 1631 
L 4684 1100 
L 678 1100 
L 678 1631 
z
" transform="scale(0.015625)"/>
      <path id="DejaVuSans-2c" d="M 750 794 
L 1409 794 
L 1409 256 
L 897 -744 
L 494 -744 
L 750 256 
L 750 794 
z
" transform="scale(0.015625)"/>
      <path id="DejaVuSans-61" d="M 2194 1759 
Q 1497 1759 1228 1600 
Q 959 1441 959 1056 
Q 959 750 1161 570 
Q 1363 391 1709 391 
Q 2188 391 2477 730 
Q 2766 1069 2766 1631 
L 2766 1759 
L 2194 1759 
z
M 3341 1997 
L 3341 0 
L 2766 0 
L 2766 531 
Q 2569 213 2275 61 
Q 1981 -91 1556 -91 
Q 1019 -91 701 211 
Q 384 513 384 1019 
Q 384 1609 779 1909 
Q 1175 2209 1959 2209 
L 2766 2209 
L 2766 2266 
Q 2766 2663 2505 2880 
Q 2244 3097 1772 3097 
Q 1472 3097 1187 3025 
Q 903 2953 641 2809 
L 641 3341 
Q 956 3463 1253 3523 
Q 1550 3584 1831 3584 
Q 2591 3584 2966 3190 
Q 3341 2797 3341 1997 
z
" transform="scale(0.015625)"/>
      <path id="DejaVuSans-51" d="M 2522 4238 
Q 1834 4238 1429 3725 
Q 1025 3213 1025 2328 
Q 1025 1447 1429 934 
Q 1834 422 2522 422 
Q 3209 422 3611 934 
Q 4013 1447 4013 2328 
Q 4013 3213 3611 3725 
Q 3209 4238 2522 4238 
z
M 3406 84 
L 4238 -825 
L 3475 -825 
L 2784 -78 
Q 2681 -84 2626 -87 
Q 2572 -91 2522 -91 
Q 1538 -91 948 567 
Q 359 1225 359 2328 
Q 359 3434 948 4092 
Q 1538 4750 2522 4750 
Q 3503 4750 4090 4092 
Q 4678 3434 4678 2328 
Q 4678 1516 4351 937 
Q 4025 359 3406 84 
z
" transform="scale(0.015625)"/>
      <path id="DejaVuSans-2e" d="M 684 794 
L 1344 794 
L 1344 0 
L 684 0 
L 684 794 
z
" transform="scale(0.015625)"/>
      <path id="DejaVuSans-29" d="M 513 4856 
L 1013 4856 
Q 1481 4119 1714 3412 
Q 1947 2706 1947 2009 
Q 1947 1309 1714 600 
Q 1481 -109 1013 -844 
L 513 -844 
Q 928 -128 1133 580 
Q 1338 1288 1338 2009 
Q 1338 2731 1133 3434 
Q 928 4138 513 4856 
z
" transform="scale(0.015625)"/>
     </defs>
     <use xlink:href="#DejaVuSans-41"/>
     <use xlink:href="#DejaVuSans-74" transform="translate(66.658203 0)"/>
     <use xlink:href="#DejaVuSans-6f" transform="translate(105.867188 0)"/>
     <use xlink:href="#DejaVuSans-6d" transform="translate(167.048828 0)"/>
     <use xlink:href="#DejaVuSans-20" transform="translate(264.460938 0)"/>
     <use xlink:href="#DejaVuSans-54" transform="translate(296.248047 0)"/>
     <use xlink:href="#DejaVuSans-79" transform="translate(341.707031 0)"/>
     <use xlink:href="#DejaVuSans-70" transform="translate(400.886719 0)"/>
     <use xlink:href="#DejaVuSans-65" transform="translate(464.363281 0)"/>
     <use xlink:href="#DejaVuSans-20" transform="translate(525.886719 0)"/>
     <use xlink:href="#DejaVuSans-43" transform="translate(557.673828 0)"/>
     <use xlink:href="#DejaVuSans-20" transform="translate(627.498047 0)"/>
     <use xlink:href="#DejaVuSans-28" transform="translate(659.285156 0)"/>
     <use xlink:href="#DejaVuSans-6e" transform="translate(698.298828 0)"/>
     <use xlink:href="#DejaVuSans-3d" transform="translate(761.677734 0)"/>
     <use xlink:href="#DejaVuSans-35" transform="translate(845.466797 0)"/>
     <use xlink:href="#DejaVuSans-31" transform="translate(909.089844 0)"/>
     <use xlink:href="#DejaVuSans-2c" transform="translate(972.712891 0)"/>
     <use xlink:href="#DejaVuSans-20" transform="translate(1004.5 0)"/>
     <use xlink:href="#DejaVuSans-6d" transform="translate(1036.287109 0)"/>
     <use xlink:href="#DejaVuSans-65" transform="translate(1133.699219 0)"/>
     <use xlink:href="#DejaVuSans-61" transform="translate(1195.222656 0)"/>
     <use xlink:href="#DejaVuSans-6e" transform="translate(1256.501953 0)"/>
     <use xlink:href="#DejaVuSans-20" transform="translate(1319.880859 0)"/>
     <use xlink:href="#DejaVuSans-51" transform="translate(1351.667969 0)"/>
     <use xlink:href="#DejaVuSans-3d" transform="translate(1430.378906 0)"/>
     <use xlink:href="#DejaVuSans-31" transform="translate(1514.167969 0)"/>
     <use xlink:href="#DejaVuSans-31" transform="translate(1577.791016 0)"/>
     <use xlink:href="#DejaVuSans-2e" transform="translate(1641.414062 0)"/>
     <use xlink:href="#DejaVuSans-31" transform="translate(1673.201172 0)"/>
     <use xlink:href="#DejaVuSans-30" transform="translate(1736.824219 0)"/>
     <use xlink:href="#DejaVuSans-29" transform="translate(1800.447266 0)"/>
    </g>
   </g>
  </g>
 </g>
 <defs>
  <clipPath id="p21adbfd7dd">
   <rect x="57.6" y="41.472" width="357.12" height="266.112"/>
  </clipPath>
 </defs>
</svg>
