<?xml version="1.0" encoding="utf-8" standalone="no"?>
<!DOCTYPE svg PUBLIC "-//W3C//DTD SVG 1.1//EN"
  "http://www.w3.org/Graphics/SVG/1.1/DTD/svg11.dtd">
<svg xmlns:xlink="http://www.w3.org/1999/xlink" width="460.8pt" height="345.6pt" viewBox="0 0 460.8 345.6" xmlns="http://www.w3.org/2000/svg" version="1.1">
 <metadata>
  <rdf:RDF xmlns:dc="http://purl.org/dc/elements/1.1/" xmlns:cc="http://creativecommons.org/ns#" xmlns:rdf="http://www.w3.org/1999/02/22-rdf-syntax-ns#">
   <cc:Work>
    <dc:type rdf:resource="http://purl.org/dc/dcmitype/StillImage"/>
    <dc:date>2025-12-10T13:51:28.836680</dc:date>
    <dc:format>image/svg+xml</dc:format>
    <dc:creator>
     <cc:Agent>
      <dc:title>Matplotlib v3.10.3, https://matplotlib.org/</dc:title>
     </cc:Agent>
    </dc:creator>
   </cc:Work>
  </rdf:RDF>
 </metadata>
 <defs>
  <style type="text/css">*{stroke-linejoin: round; stroke-linecap: butt}</style>
 </defs>
 <g id="figure_1">
  <g id="patch_1">
   <path d="M 0 345.6 
L 460.8 345.6 
L 460.8 0 
L 0 0 
z
" style="fill: #ffffff"/>
  </g>
  <g id="axes_1">
   <g id="patch_2">
    <path d="M 57.6 307.584 
L 414.72 307.584 
L 414.72 41.472 
L 57.6 41.472 
z
" style="fill: #ffffff"/>
   </g>
   <g id="matplotlib.axis_1">
    <g id="xtick_1">
     <g id="line2d_1">
      <defs>
       <path id="m94992c7c5a" d="M 0 0 
L 0 3.5 
" style="stroke: #000000; stroke-width: 0.8"/>
      </defs>
      <g>
       <use xlink:href="#m94992c7c5a" x="73.832727" y="307.584" style="stroke: #000000; stroke-width: 0.8"/>
      </g>
     </g>
     <g id="text_1">
      <!-- 0 -->
      <g transform="translate(69.060852 325.981656) scale(0.15 -0.15)">
       <defs>
        <path id="DejaVuSans-30" d="M 2034 4250 
Q 1547 4250 1301 3770 
Q 1056 3291 1056 2328 
Q 1056 1369 1301 889 
Q 1547 409 2034 409 
Q 2525 409 2770 889 
Q 3016 1369 3016 2328 
Q 3016 3291 2770 3770 
Q 2525 4250 2034 4250 
z
M 2034 4750 
Q 2819 4750 3233 4129 
Q 3647 3509 3647 2328 
Q 3647 1150 3233 529 
Q 2819 -91 2034 -91 
Q 1250 -91 836 529 
Q 422 1150 422 2328 
Q 422 3509 836 4129 
Q 1250 4750 2034 4750 
z
" transform="scale(0.015625)"/>
       </defs>
       <use xlink:href="#DejaVuSans-30"/>
      </g>
     </g>
    </g>
    <g id="xtick_2">
     <g id="line2d_2">
      <g>
       <use xlink:href="#m94992c7c5a" x="154.996364" y="307.584" style="stroke: #000000; stroke-width: 0.8"/>
      </g>
     </g>
     <g id="text_2">
      <!-- 5 -->
      <g transform="translate(150.224489 325.981656) scale(0.15 -0.15)">
       <defs>
        <path id="DejaVuSans-35" d="M 691 4666 
L 3169 4666 
L 3169 4134 
L 1269 4134 
L 1269 2991 
Q 1406 3038 1543 3061 
Q 1681 3084 1819 3084 
Q 2600 3084 3056 2656 
Q 3513 2228 3513 1497 
Q 3513 744 3044 326 
Q 2575 -91 1722 -91 
Q 1428 -91 1123 -41 
Q 819 9 494 109 
L 494 744 
Q 775 591 1075 516 
Q 1375 441 1709 441 
Q 2250 441 2565 725 
Q 2881 1009 2881 1497 
Q 2881 1984 2565 2268 
Q 2250 2553 1709 2553 
Q 1456 2553 1204 2497 
Q 953 2441 691 2322 
L 691 4666 
z
" transform="scale(0.015625)"/>
       </defs>
       <use xlink:href="#DejaVuSans-35"/>
      </g>
     </g>
    </g>
    <g id="xtick_3">
     <g id="line2d_3">
      <g>
       <use xlink:href="#m94992c7c5a" x="236.16" y="307.584" style="stroke: #000000; stroke-width: 0.8"/>
      </g>
     </g>
     <g id="text_3">
      <!-- 10 -->
      <g transform="translate(226.61625 325.981656) scale(0.15 -0.15)">
       <defs>
        <path id="DejaVuSans-31" d="M 794 531 
L 1825 531 
L 1825 4091 
L 703 3866 
L 703 4441 
L 1819 4666 
L 2450 4666 
L 2450 531 
L 3481 531 
L 3481 0 
L 794 0 
L 794 531 
z
" transform="scale(0.015625)"/>
       </defs>
       <use xlink:href="#DejaVuSans-31"/>
       <use xlink:href="#DejaVuSans-30" transform="translate(63.623047 0)"/>
      </g>
     </g>
    </g>
    <g id="xtick_4">
     <g id="line2d_4">
      <g>
       <use xlink:href="#m94992c7c5a" x="317.323636" y="307.584" style="stroke: #000000; stroke-width: 0.8"/>
      </g>
     </g>
     <g id="text_4">
      <!-- 15 -->
      <g transform="translate(307.779886 325.981656) scale(0.15 -0.15)">
       <use xlink:href="#DejaVuSans-31"/>
       <use xlink:href="#DejaVuSans-35" transform="translate(63.623047 0)"/>
      </g>
     </g>
    </g>
    <g id="xtick_5">
     <g id="line2d_5">
      <g>
       <use xlink:href="#m94992c7c5a" x="398.487273" y="307.584" style="stroke: #000000; stroke-width: 0.8"/>
      </g>
     </g>
     <g id="text_5">
      <!-- 20 -->
      <g transform="translate(388.943523 325.981656) scale(0.15 -0.15)">
       <defs>
        <path id="DejaVuSans-32" d="M 1228 531 
L 3431 531 
L 3431 0 
L 469 0 
L 469 531 
Q 828 903 1448 1529 
Q 2069 2156 2228 2338 
Q 2531 2678 2651 2914 
Q 2772 3150 2772 3378 
Q 2772 3750 2511 3984 
Q 2250 4219 1831 4219 
Q 1534 4219 1204 4116 
Q 875 4013 500 3803 
L 500 4441 
Q 881 4594 1212 4672 
Q 1544 4750 1819 4750 
Q 2544 4750 2975 4387 
Q 3406 4025 3406 3419 
Q 3406 3131 3298 2873 
Q 3191 2616 2906 2266 
Q 2828 2175 2409 1742 
Q 1991 1309 1228 531 
z
" transform="scale(0.015625)"/>
       </defs>
       <use xlink:href="#DejaVuSans-32"/>
       <use xlink:href="#DejaVuSans-30" transform="translate(63.623047 0)"/>
      </g>
     </g>
    </g>
   </g>
   <g id="matplotlib.axis_2">
    <g id="ytick_1">
     <g id="line2d_6">
      <defs>
       <path id="mbc0701898a" d="M 0 0 
L -3.5 0 
" style="stroke: #000000; stroke-width: 0.8"/>
      </defs>
      <g>
       <use xlink:href="#mbc0701898a" x="57.6" y="267.453726" style="stroke: #000000; stroke-width: 0.8"/>
      </g>
     </g>
     <g id="text_6">
      <!-- 5 -->
      <g transform="translate(41.05625 273.152554) scale(0.15 -0.15)">
       <use xlink:href="#DejaVuSans-35"/>
      </g>
     </g>
    </g>
    <g id="ytick_2">
     <g id="line2d_7">
      <g>
       <use xlink:href="#mbc0701898a" x="57.6" y="211.393534" style="stroke: #000000; stroke-width: 0.8"/>
      </g>
     </g>
     <g id="text_7">
      <!-- 10 -->
      <g transform="translate(31.5125 217.092362) scale(0.15 -0.15)">
       <use xlink:href="#DejaVuSans-31"/>
       <use xlink:href="#DejaVuSans-30" transform="translate(63.623047 0)"/>
      </g>
     </g>
    </g>
    <g id="ytick_3">
     <g id="line2d_8">
      <g>
       <use xlink:href="#mbc0701898a" x="57.6" y="155.333341" style="stroke: #000000; stroke-width: 0.8"/>
      </g>
     </g>
     <g id="text_8">
      <!-- 15 -->
      <g transform="translate(31.5125 161.032169) scale(0.15 -0.15)">
       <use xlink:href="#DejaVuSans-31"/>
       <use xlink:href="#DejaVuSans-35" transform="translate(63.623047 0)"/>
      </g>
     </g>
    </g>
    <g id="ytick_4">
     <g id="line2d_9">
      <g>
       <use xlink:href="#mbc0701898a" x="57.6" y="99.273149" style="stroke: #000000; stroke-width: 0.8"/>
      </g>
     </g>
     <g id="text_9">
      <!-- 20 -->
      <g transform="translate(31.5125 104.971977) scale(0.15 -0.15)">
       <use xlink:href="#DejaVuSans-32"/>
       <use xlink:href="#DejaVuSans-30" transform="translate(63.623047 0)"/>
      </g>
     </g>
    </g>
    <g id="ytick_5">
     <g id="line2d_10">
      <g>
       <use xlink:href="#mbc0701898a" x="57.6" y="43.212957" style="stroke: #000000; stroke-width: 0.8"/>
      </g>
     </g>
     <g id="text_10">
      <!-- 25 -->
      <g transform="translate(31.5125 48.911785) scale(0.15 -0.15)">
       <use xlink:href="#DejaVuSans-32"/>
       <use xlink:href="#DejaVuSans-35" transform="translate(63.623047 0)"/>
      </g>
     </g>
    </g>
   </g>
   <g id="line2d_11">
    <path d="M 73.832727 277.236858 
L 90.065455 243.837363 
L 106.298182 271.185504 
L 122.530909 287.670604 
L 138.763636 254.50856 
L 154.996364 278.939963 
L 171.229091 242.719788 
L 187.461818 240.300034 
L 203.694545 262.716649 
L 219.927273 260.626913 
L 236.16 258.166131 
L 252.392727 269.707562 
L 268.625455 266.050416 
L 284.858182 275.850053 
L 301.090909 270.100474 
L 317.323636 264.361309 
L 333.556364 267.161026 
L 349.789091 265.549304 
L 366.021818 281.311979 
L 382.254545 266.770746 
L 398.487273 278.859233 
" clip-path="url(#pa0a68192ce)" style="fill: none; stroke: #440154; stroke-opacity: 0.5; stroke-width: 1.5; stroke-linecap: square"/>
   </g>
   <g id="line2d_12">
    <path d="M 73.832727 275.446029 
L 90.065455 272.855074 
L 106.298182 286.84478 
L 122.530909 269.090601 
L 138.763636 250.408828 
L 154.996364 284.152854 
L 171.229091 247.953386 
L 187.461818 248.829577 
L 203.694545 252.707061 
L 219.927273 269.570158 
L 236.16 275.313201 
L 252.392727 268.663173 
L 268.625455 268.554235 
L 284.858182 279.369934 
L 301.090909 267.723229 
L 317.323636 235.288688 
L 333.556364 258.984941 
L 349.789091 273.362216 
L 366.021818 277.167528 
L 382.254545 276.519297 
L 398.487273 276.835977 
" clip-path="url(#pa0a68192ce)" style="fill: none; stroke: #440154; stroke-opacity: 0.5; stroke-width: 1.5; stroke-linecap: square"/>
   </g>
   <g id="line2d_13">
    <path d="M 73.832727 273.973633 
L 90.065455 264.137388 
L 106.298182 283.265446 
L 122.530909 271.934818 
L 138.763636 277.493788 
L 154.996364 283.578027 
L 171.229091 230.552149 
L 187.461818 233.612555 
L 203.694545 267.043946 
L 219.927273 277.451853 
L 236.16 274.991854 
L 252.392727 257.564696 
L 268.625455 270.171513 
L 284.858182 266.67824 
L 301.090909 278.643999 
L 317.323636 280.413753 
L 333.556364 274.486806 
L 349.789091 285.237083 
L 366.021818 256.211335 
L 382.254545 261.57225 
L 398.487273 273.087641 
" clip-path="url(#pa0a68192ce)" style="fill: none; stroke: #440154; stroke-opacity: 0.5; stroke-width: 1.5; stroke-linecap: square"/>
   </g>
   <g id="line2d_14">
    <path d="M 73.832727 270.515508 
L 90.065455 271.422578 
L 106.298182 232.475237 
L 122.530909 268.529081 
L 138.763636 249.340117 
L 154.996364 247.884373 
L 171.229091 219.897607 
L 187.461818 247.324388 
L 203.694545 272.769939 
L 219.927273 282.220951 
L 236.16 267.762511 
L 252.392727 280.084759 
L 268.625455 274.427489 
L 284.858182 271.96554 
L 301.090909 278.097183 
L 317.323636 282.905856 
L 333.556364 286.494723 
L 349.789091 281.377343 
L 366.021818 267.406478 
L 382.254545 288.009942 
L 398.487273 274.186337 
" clip-path="url(#pa0a68192ce)" style="fill: none; stroke: #440154; stroke-opacity: 0.5; stroke-width: 1.5; stroke-linecap: square"/>
   </g>
   <g id="line2d_15">
    <path d="M 73.832727 239.143539 
L 90.065455 281.545664 
L 106.298182 252.453989 
L 122.530909 279.087805 
L 138.763636 193.102391 
L 154.996364 250.906104 
L 171.229091 262.422806 
L 187.461818 263.107983 
L 203.694545 278.330496 
L 219.927273 253.765221 
L 236.16 253.388539 
L 252.392727 243.058134 
L 268.625455 268.109078 
L 284.858182 246.708712 
L 301.090909 265.210214 
L 317.323636 255.983205 
L 333.556364 250.855511 
L 349.789091 276.796085 
L 366.021818 273.987499 
L 382.254545 272.243757 
L 398.487273 281.713538 
" clip-path="url(#pa0a68192ce)" style="fill: none; stroke: #440154; stroke-opacity: 0.5; stroke-width: 1.5; stroke-linecap: square"/>
   </g>
   <g id="line2d_16">
    <path d="M 73.832727 247.121996 
L 90.065455 256.697458 
L 106.298182 224.586208 
L 122.530909 268.927509 
L 138.763636 249.952063 
L 154.996364 225.913 
L 171.229091 243.910666 
L 187.461818 254.65949 
L 203.694545 250.69422 
L 219.927273 282.330112 
L 236.16 262.448954 
L 252.392727 270.828532 
L 268.625455 267.087208 
L 284.858182 244.705853 
L 301.090909 239.59697 
L 317.323636 262.926241 
L 333.556364 238.792439 
L 349.789091 221.846808 
L 366.021818 265.592589 
L 382.254545 262.407131 
L 398.487273 262.675122 
" clip-path="url(#pa0a68192ce)" style="fill: none; stroke: #440154; stroke-opacity: 0.5; stroke-width: 1.5; stroke-linecap: square"/>
   </g>
   <g id="line2d_17">
    <path d="M 73.832727 272.678825 
L 90.065455 261.646431 
L 106.298182 278.339533 
L 122.530909 272.600324 
L 138.763636 241.407574 
L 154.996364 275.497451 
L 171.229091 280.383787 
L 187.461818 270.320067 
L 203.694545 273.064406 
L 219.927273 267.363393 
L 236.16 259.489064 
L 252.392727 263.479978 
L 268.625455 256.215377 
L 284.858182 255.578565 
L 301.090909 277.315458 
L 317.323636 268.689373 
L 333.556364 262.159013 
L 349.789091 269.720709 
L 366.021818 261.843633 
L 382.254545 278.774933 
L 398.487273 284.258698 
" clip-path="url(#pa0a68192ce)" style="fill: none; stroke: #440154; stroke-opacity: 0.5; stroke-width: 1.5; stroke-linecap: square"/>
   </g>
   <g id="line2d_18">
    <path d="M 73.832727 256.045368 
L 90.065455 247.266571 
L 106.298182 282.070026 
L 122.530909 228.554721 
L 138.763636 265.284249 
L 154.996364 266.226893 
L 171.229091 264.035259 
L 187.461818 266.963076 
L 203.694545 268.186248 
L 219.927273 230.326338 
L 236.16 262.925501 
L 252.392727 274.827587 
L 268.625455 262.94022 
L 284.858182 266.375278 
L 301.090909 267.382303 
L 317.323636 263.207356 
L 333.556364 236.266087 
L 349.789091 248.437015 
L 366.021818 264.199673 
L 382.254545 182.902867 
L 398.487273 268.926117 
" clip-path="url(#pa0a68192ce)" style="fill: none; stroke: #440154; stroke-opacity: 0.5; stroke-width: 1.5; stroke-linecap: square"/>
   </g>
   <g id="line2d_19">
    <path d="M 73.832727 245.103242 
L 90.065455 275.046219 
L 106.298182 274.134813 
L 122.530909 270.124738 
L 138.763636 269.976305 
L 154.996364 270.110764 
L 171.229091 241.759206 
L 187.461818 275.240063 
L 203.694545 255.490026 
L 219.927273 276.079095 
L 236.16 260.384 
L 252.392727 258.317972 
L 268.625455 272.96868 
L 284.858182 246.10913 
L 301.090909 253.476924 
L 317.323636 273.729718 
L 333.556364 262.743275 
L 349.789091 245.548912 
L 366.021818 241.278094 
L 382.254545 278.088855 
L 398.487273 251.445278 
" clip-path="url(#pa0a68192ce)" style="fill: none; stroke: #440154; stroke-opacity: 0.5; stroke-width: 1.5; stroke-linecap: square"/>
   </g>
   <g id="line2d_20">
    <path d="M 73.832727 238.464087 
L 90.065455 237.767625 
L 106.298182 235.559748 
L 122.530909 242.752181 
L 138.763636 249.422916 
L 154.996364 266.62399 
L 171.229091 251.323307 
L 187.461818 269.211201 
L 203.694545 241.48986 
L 219.927273 255.494904 
L 236.16 252.599339 
L 252.392727 264.894514 
L 268.625455 216.504394 
L 284.858182 274.681595 
L 301.090909 268.726564 
L 317.323636 267.323406 
L 333.556364 258.207649 
L 349.789091 264.036059 
L 366.021818 265.040836 
L 382.254545 258.49483 
L 398.487273 253.624162 
" clip-path="url(#pa0a68192ce)" style="fill: none; stroke: #440154; stroke-opacity: 0.5; stroke-width: 1.5; stroke-linecap: square"/>
   </g>
   <g id="line2d_21">
    <path d="M 73.832727 261.69909 
L 90.065455 207.328193 
L 106.298182 224.274767 
L 122.530909 224.695556 
L 138.763636 271.872955 
L 154.996364 279.829023 
L 171.229091 268.56266 
L 187.461818 276.05834 
L 203.694545 275.78765 
L 219.927273 269.300749 
L 236.16 267.764489 
L 252.392727 259.651419 
L 268.625455 203.943544 
L 284.858182 262.476251 
L 301.090909 266.38286 
L 317.323636 262.841172 
L 333.556364 256.682425 
L 349.789091 261.118637 
L 366.021818 269.153568 
L 382.254545 244.974251 
L 398.487273 195.032172 
" clip-path="url(#pa0a68192ce)" style="fill: none; stroke: #440154; stroke-opacity: 0.5; stroke-width: 1.5; stroke-linecap: square"/>
   </g>
   <g id="line2d_22">
    <path d="M 73.832727 160.415451 
L 90.065455 217.030146 
L 106.298182 233.394642 
L 122.530909 238.42954 
L 138.763636 242.374174 
L 154.996364 239.207234 
L 171.229091 220.365187 
L 187.461818 204.04687 
L 203.694545 262.828508 
L 219.927273 262.368265 
L 236.16 178.720415 
L 252.392727 247.040995 
L 268.625455 270.719403 
L 284.858182 255.761233 
L 301.090909 245.389285 
L 317.323636 239.724334 
L 333.556364 226.082674 
L 349.789091 226.606619 
L 366.021818 250.255826 
L 382.254545 273.432345 
L 398.487273 269.594814 
" clip-path="url(#pa0a68192ce)" style="fill: none; stroke: #440154; stroke-opacity: 0.5; stroke-width: 1.5; stroke-linecap: square"/>
   </g>
   <g id="line2d_23">
    <path d="M 73.832727 255.883131 
L 90.065455 264.617233 
L 106.298182 252.798933 
L 122.530909 259.94888 
L 138.763636 268.608294 
L 154.996364 274.953076 
L 171.229091 249.284761 
L 187.461818 257.15753 
L 203.694545 231.77812 
L 219.927273 210.932671 
L 236.16 270.139345 
L 252.392727 262.706396 
L 268.625455 257.776046 
L 284.858182 257.78769 
L 301.090909 280.267369 
L 317.323636 248.551466 
L 333.556364 266.183835 
L 349.789091 236.802099 
L 366.021818 257.490531 
L 382.254545 184.031917 
L 398.487273 201.922654 
" clip-path="url(#pa0a68192ce)" style="fill: none; stroke: #440154; stroke-opacity: 0.5; stroke-width: 1.5; stroke-linecap: square"/>
   </g>
   <g id="line2d_24">
    <path d="M 73.832727 193.509762 
L 90.065455 151.934346 
L 106.298182 197.470808 
L 122.530909 213.866235 
L 138.763636 214.617683 
L 154.996364 212.86601 
L 171.229091 143.778313 
L 187.461818 200.306955 
L 203.694545 249.80777 
L 219.927273 232.787081 
L 236.16 246.274183 
L 252.392727 243.182177 
L 268.625455 186.92459 
L 284.858182 196.615633 
L 301.090909 238.620437 
L 317.323636 196.328859 
L 333.556364 215.770395 
L 349.789091 220.476523 
L 366.021818 217.830372 
L 382.254545 225.26821 
L 398.487273 164.765264 
" clip-path="url(#pa0a68192ce)" style="fill: none; stroke: #440154; stroke-opacity: 0.5; stroke-width: 1.5; stroke-linecap: square"/>
   </g>
   <g id="line2d_25">
    <path d="M 73.832727 265.93236 
L 90.065455 256.173305 
L 106.298182 249.133939 
L 122.530909 271.489186 
L 138.763636 244.313462 
L 154.996364 285.672173 
L 171.229091 269.174751 
L 187.461818 236.722779 
L 203.694545 275.638513 
L 219.927273 265.889665 
L 236.16 266.270207 
L 252.392727 261.103729 
L 268.625455 272.895107 
L 284.858182 270.846474 
L 301.090909 256.474426 
L 317.323636 253.016463 
L 333.556364 253.195057 
L 349.789091 229.804334 
L 366.021818 254.830499 
L 382.254545 254.974088 
L 398.487273 262.64568 
" clip-path="url(#pa0a68192ce)" style="fill: none; stroke: #440154; stroke-opacity: 0.5; stroke-width: 1.5; stroke-linecap: square"/>
   </g>
   <g id="line2d_26">
    <path d="M 73.832727 260.6084 
L 90.065455 279.348607 
L 106.298182 280.319621 
L 122.530909 247.326086 
L 138.763636 272.762134 
L 154.996364 241.268758 
L 171.229091 259.324935 
L 187.461818 239.077113 
L 203.694545 280.780718 
L 219.927273 280.334287 
L 236.16 260.370498 
L 252.392727 255.868023 
L 268.625455 264.755417 
L 284.858182 235.693424 
L 301.090909 234.46452 
L 317.323636 257.725243 
L 333.556364 255.933181 
L 349.789091 210.555529 
L 366.021818 269.964856 
L 382.254545 261.930469 
L 398.487273 247.500264 
" clip-path="url(#pa0a68192ce)" style="fill: none; stroke: #440154; stroke-opacity: 0.5; stroke-width: 1.5; stroke-linecap: square"/>
   </g>
   <g id="line2d_27">
    <path d="M 73.832727 256.124242 
L 90.065455 270.862654 
L 106.298182 250.035057 
L 122.530909 267.976358 
L 138.763636 280.015661 
L 154.996364 258.511362 
L 171.229091 273.40084 
L 187.461818 190.420548 
L 203.694545 277.260558 
L 219.927273 275.159408 
L 236.16 247.25905 
L 252.392727 283.952836 
L 268.625455 272.378546 
L 284.858182 272.405072 
L 301.090909 263.719812 
L 317.323636 246.593866 
L 333.556364 258.578953 
L 349.789091 235.914377 
L 366.021818 268.956771 
L 382.254545 247.648229 
L 398.487273 267.098148 
" clip-path="url(#pa0a68192ce)" style="fill: none; stroke: #440154; stroke-opacity: 0.5; stroke-width: 1.5; stroke-linecap: square"/>
   </g>
   <g id="line2d_28">
    <path d="M 73.832727 283.038625 
L 90.065455 271.080653 
L 106.298182 251.419211 
L 122.530909 256.90745 
L 138.763636 246.377839 
L 154.996364 267.881888 
L 171.229091 282.4982 
L 187.461818 277.208007 
L 203.694545 271.319884 
L 219.927273 268.199291 
L 236.16 255.338569 
L 252.392727 253.740146 
L 268.625455 245.199635 
L 284.858182 270.140177 
L 301.090909 256.081796 
L 317.323636 278.75738 
L 333.556364 249.580902 
L 349.789091 273.567906 
L 366.021818 271.925275 
L 382.254545 239.066774 
L 398.487273 270.994659 
" clip-path="url(#pa0a68192ce)" style="fill: none; stroke: #440154; stroke-opacity: 0.5; stroke-width: 1.5; stroke-linecap: square"/>
   </g>
   <g id="line2d_29">
    <path d="M 73.832727 246.917968 
L 90.065455 220.122536 
L 106.298182 249.7495 
L 122.530909 272.056655 
L 138.763636 269.722912 
L 154.996364 256.70197 
L 171.229091 245.750621 
L 187.461818 281.561977 
L 203.694545 281.388693 
L 219.927273 261.457658 
L 236.16 267.25301 
L 252.392727 282.410686 
L 268.625455 274.529325 
L 284.858182 263.08364 
L 301.090909 268.711427 
L 317.323636 251.788231 
L 333.556364 281.09426 
L 349.789091 264.478282 
L 366.021818 268.501747 
L 382.254545 270.498642 
L 398.487273 255.989483 
" clip-path="url(#pa0a68192ce)" style="fill: none; stroke: #440154; stroke-opacity: 0.5; stroke-width: 1.5; stroke-linecap: square"/>
   </g>
   <g id="line2d_30">
    <path d="M 73.832727 253.873685 
L 90.065455 246.776421 
L 106.298182 247.126868 
L 122.530909 259.75049 
L 138.763636 271.726852 
L 154.996364 263.697045 
L 171.229091 269.03747 
L 187.461818 266.062875 
L 203.694545 258.535721 
L 219.927273 273.376453 
L 236.16 285.37682 
L 252.392727 262.413013 
L 268.625455 274.457981 
L 284.858182 266.559032 
L 301.090909 276.773788 
L 317.323636 247.640473 
L 333.556364 266.911513 
L 349.789091 216.525255 
L 366.021818 265.693696 
L 382.254545 282.89878 
L 398.487273 236.266326 
" clip-path="url(#pa0a68192ce)" style="fill: none; stroke: #440154; stroke-opacity: 0.5; stroke-width: 1.5; stroke-linecap: square"/>
   </g>
   <g id="line2d_31">
    <path d="M 73.832727 271.456468 
L 90.065455 229.263186 
L 106.298182 272.529563 
L 122.530909 265.808156 
L 138.763636 279.927241 
L 154.996364 263.500156 
L 171.229091 273.735497 
L 187.461818 230.347456 
L 203.694545 264.908598 
L 219.927273 276.914894 
L 236.16 255.8081 
L 252.392727 245.841149 
L 268.625455 252.125194 
L 284.858182 262.193865 
L 301.090909 232.723368 
L 317.323636 249.462735 
L 333.556364 240.213323 
L 349.789091 259.063512 
L 366.021818 264.301628 
L 382.254545 238.365739 
L 398.487273 263.735597 
" clip-path="url(#pa0a68192ce)" style="fill: none; stroke: #440154; stroke-opacity: 0.5; stroke-width: 1.5; stroke-linecap: square"/>
   </g>
   <g id="line2d_32">
    <path d="M 73.832727 264.712216 
L 90.065455 242.344753 
L 106.298182 234.1593 
L 122.530909 252.923877 
L 138.763636 273.488754 
L 154.996364 278.595756 
L 171.229091 241.362158 
L 187.461818 268.226784 
L 203.694545 274.092293 
L 219.927273 268.316189 
L 236.16 266.041913 
L 252.392727 256.092353 
L 268.625455 246.499344 
L 284.858182 275.54004 
L 301.090909 227.172074 
L 317.323636 263.869763 
L 333.556364 272.129387 
L 349.789091 230.59079 
L 366.021818 258.477786 
L 382.254545 269.153662 
L 398.487273 242.776822 
" clip-path="url(#pa0a68192ce)" style="fill: none; stroke: #440154; stroke-opacity: 0.5; stroke-width: 1.5; stroke-linecap: square"/>
   </g>
   <g id="line2d_33">
    <path d="M 73.832727 260.545888 
L 90.065455 254.776425 
L 106.298182 243.244065 
L 122.530909 239.62558 
L 138.763636 258.683685 
L 154.996364 266.742675 
L 171.229091 253.961131 
L 187.461818 246.849584 
L 203.694545 283.88391 
L 219.927273 278.511791 
L 236.16 270.739733 
L 252.392727 258.497523 
L 268.625455 260.989203 
L 284.858182 258.4323 
L 301.090909 170.077859 
L 317.323636 264.874837 
L 333.556364 253.369148 
L 349.789091 250.732475 
L 366.021818 259.73463 
L 382.254545 259.683949 
L 398.487273 241.125838 
" clip-path="url(#pa0a68192ce)" style="fill: none; stroke: #440154; stroke-opacity: 0.5; stroke-width: 1.5; stroke-linecap: square"/>
   </g>
   <g id="line2d_34">
    <path d="M 73.832727 172.574274 
L 90.065455 272.616043 
L 106.298182 265.828794 
L 122.530909 267.756842 
L 138.763636 244.74134 
L 154.996364 273.820683 
L 171.229091 250.346824 
L 187.461818 270.451976 
L 203.694545 266.729256 
L 219.927273 284.015327 
L 236.16 234.376393 
L 252.392727 265.239212 
L 268.625455 262.123986 
L 284.858182 245.846746 
L 301.090909 267.895077 
L 317.323636 263.109435 
L 333.556364 257.63994 
L 349.789091 238.538109 
L 366.021818 268.020465 
L 382.254545 248.353323 
L 398.487273 259.964465 
" clip-path="url(#pa0a68192ce)" style="fill: none; stroke: #440154; stroke-opacity: 0.5; stroke-width: 1.5; stroke-linecap: square"/>
   </g>
   <g id="line2d_35">
    <path d="M 73.832727 221.847104 
L 90.065455 255.934425 
L 106.298182 263.313803 
L 122.530909 251.166798 
L 138.763636 274.582225 
L 154.996364 249.914906 
L 171.229091 247.04876 
L 187.461818 262.207158 
L 203.694545 256.128689 
L 219.927273 255.089447 
L 236.16 182.5557 
L 252.392727 264.943106 
L 268.625455 205.577096 
L 284.858182 257.314938 
L 301.090909 234.11785 
L 317.323636 214.559026 
L 333.556364 213.955436 
L 349.789091 188.246187 
L 366.021818 224.245855 
L 382.254545 231.463847 
L 398.487273 201.310235 
" clip-path="url(#pa0a68192ce)" style="fill: none; stroke: #440154; stroke-opacity: 0.5; stroke-width: 1.5; stroke-linecap: square"/>
   </g>
   <g id="line2d_36">
    <path d="M 73.832727 116.47024 
L 90.065455 78.644196 
L 106.298182 154.634009 
L 122.530909 164.327808 
L 138.763636 244.272462 
L 154.996364 249.695899 
L 171.229091 228.749184 
L 187.461818 222.093367 
L 203.694545 181.764351 
L 219.927273 212.7314 
L 236.16 215.348895 
L 252.392727 272.72009 
L 268.625455 267.289076 
L 284.858182 266.886365 
L 301.090909 272.433309 
L 317.323636 251.926888 
L 333.556364 253.832471 
L 349.789091 267.890268 
L 366.021818 259.460514 
L 382.254545 256.693987 
L 398.487273 283.391623 
" clip-path="url(#pa0a68192ce)" style="fill: none; stroke: #440154; stroke-opacity: 0.5; stroke-width: 1.5; stroke-linecap: square"/>
   </g>
   <g id="line2d_37">
    <path d="M 73.832727 252.584508 
L 90.065455 206.276374 
L 106.298182 170.235916 
L 122.530909 211.047447 
L 138.763636 273.589109 
L 154.996364 264.870556 
L 171.229091 247.816752 
L 187.461818 259.150384 
L 203.694545 258.837075 
L 219.927273 244.928545 
L 236.16 271.62013 
L 252.392727 207.762953 
L 268.625455 241.613068 
L 284.858182 218.926934 
L 301.090909 183.365543 
L 317.323636 214.749856 
L 333.556364 246.657217 
L 349.789091 217.436437 
L 366.021818 216.561101 
L 382.254545 211.598383 
L 398.487273 216.625235 
" clip-path="url(#pa0a68192ce)" style="fill: none; stroke: #440154; stroke-opacity: 0.5; stroke-width: 1.5; stroke-linecap: square"/>
   </g>
   <g id="line2d_38">
    <path d="M 73.832727 175.218362 
L 90.065455 177.450119 
L 106.298182 229.327413 
L 122.530909 252.641911 
L 138.763636 233.391531 
L 154.996364 207.737685 
L 171.229091 223.157633 
L 187.461818 211.461611 
L 203.694545 231.550317 
L 219.927273 242.148201 
L 236.16 246.479519 
L 252.392727 212.898295 
L 268.625455 177.889105 
L 284.858182 223.035388 
L 301.090909 201.391027 
L 317.323636 238.491438 
L 333.556364 223.672843 
L 349.789091 205.546434 
L 366.021818 240.086454 
L 382.254545 177.568478 
L 398.487273 240.517555 
" clip-path="url(#pa0a68192ce)" style="fill: none; stroke: #440154; stroke-opacity: 0.5; stroke-width: 1.5; stroke-linecap: square"/>
   </g>
   <g id="line2d_39">
    <path d="M 73.832727 287.243114 
L 90.065455 269.227901 
L 106.298182 258.207872 
L 122.530909 265.666782 
L 138.763636 230.396427 
L 154.996364 269.090902 
L 171.229091 269.487286 
L 187.461818 270.959326 
L 203.694545 285.472476 
L 219.927273 268.457459 
L 236.16 277.627982 
L 252.392727 252.692181 
L 268.625455 263.442965 
L 284.858182 261.042382 
L 301.090909 272.492248 
L 317.323636 267.18395 
L 333.556364 277.77755 
L 349.789091 263.656136 
L 366.021818 265.628899 
L 382.254545 253.725988 
L 398.487273 257.079172 
" clip-path="url(#pa0a68192ce)" style="fill: none; stroke: #440154; stroke-opacity: 0.5; stroke-width: 1.5; stroke-linecap: square"/>
   </g>
   <g id="line2d_40">
    <path d="M 73.832727 277.440643 
L 90.065455 284.825154 
L 106.298182 276.173502 
L 122.530909 272.672629 
L 138.763636 266.855293 
L 154.996364 275.135008 
L 171.229091 244.185062 
L 187.461818 258.749006 
L 203.694545 279.908158 
L 219.927273 261.415652 
L 236.16 263.283346 
L 252.392727 249.751835 
L 268.625455 268.18587 
L 284.858182 256.437615 
L 301.090909 260.843503 
L 317.323636 269.855594 
L 333.556364 248.829862 
L 349.789091 237.35701 
L 366.021818 255.371303 
L 382.254545 262.01525 
L 398.487273 262.108249 
" clip-path="url(#pa0a68192ce)" style="fill: none; stroke: #440154; stroke-opacity: 0.5; stroke-width: 1.5; stroke-linecap: square"/>
   </g>
   <g id="line2d_41">
    <path d="M 73.832727 254.553307 
L 90.065455 252.901469 
L 106.298182 241.027188 
L 122.530909 268.50288 
L 138.763636 273.730651 
L 154.996364 274.858238 
L 171.229091 261.809054 
L 187.461818 266.683554 
L 203.694545 261.477447 
L 219.927273 263.934364 
L 236.16 255.921192 
L 252.392727 252.79988 
L 268.625455 251.806613 
L 284.858182 268.803195 
L 301.090909 279.809626 
L 317.323636 257.753019 
L 333.556364 270.405661 
L 349.789091 241.346631 
L 366.021818 246.428656 
L 382.254545 283.206052 
L 398.487273 270.134111 
" clip-path="url(#pa0a68192ce)" style="fill: none; stroke: #440154; stroke-opacity: 0.5; stroke-width: 1.5; stroke-linecap: square"/>
   </g>
   <g id="line2d_42">
    <path d="M 73.832727 214.854391 
L 90.065455 260.711967 
L 106.298182 250.488016 
L 122.530909 273.935666 
L 138.763636 264.233194 
L 154.996364 245.060491 
L 171.229091 277.464222 
L 187.461818 268.548933 
L 203.694545 245.814619 
L 219.927273 260.948883 
L 236.16 262.225009 
L 252.392727 255.018701 
L 268.625455 264.762054 
L 284.858182 219.994911 
L 301.090909 271.579625 
L 317.323636 271.730861 
L 333.556364 252.445098 
L 349.789091 260.40697 
L 366.021818 280.250907 
L 382.254545 255.194389 
L 398.487273 255.721015 
" clip-path="url(#pa0a68192ce)" style="fill: none; stroke: #440154; stroke-opacity: 0.5; stroke-width: 1.5; stroke-linecap: square"/>
   </g>
   <g id="line2d_43">
    <path d="M 73.832727 157.293494 
L 90.065455 255.140025 
L 106.298182 241.953341 
L 122.530909 248.643856 
L 138.763636 241.047038 
L 154.996364 225.119967 
L 171.229091 237.363616 
L 187.461818 222.557383 
L 203.694545 276.072537 
L 219.927273 275.937162 
L 236.16 260.893592 
L 252.392727 254.465045 
L 268.625455 261.099077 
L 284.858182 274.289407 
L 301.090909 247.721279 
L 317.323636 245.445213 
L 333.556364 244.495826 
L 349.789091 250.75087 
L 366.021818 275.041034 
L 382.254545 235.793387 
L 398.487273 237.355867 
" clip-path="url(#pa0a68192ce)" style="fill: none; stroke: #440154; stroke-opacity: 0.5; stroke-width: 1.5; stroke-linecap: square"/>
   </g>
   <g id="line2d_44">
    <path d="M 73.832727 183.015903 
L 90.065455 262.27433 
L 106.298182 259.232459 
L 122.530909 217.133119 
L 138.763636 217.344578 
L 154.996364 276.015705 
L 171.229091 274.608166 
L 187.461818 259.494547 
L 203.694545 253.44082 
L 219.927273 280.94986 
L 236.16 266.944121 
L 252.392727 272.161121 
L 268.625455 266.479698 
L 284.858182 269.626383 
L 301.090909 262.525973 
L 317.323636 261.336288 
L 333.556364 273.202966 
L 349.789091 249.701781 
L 366.021818 268.732859 
L 382.254545 243.370594 
L 398.487273 255.649591 
" clip-path="url(#pa0a68192ce)" style="fill: none; stroke: #440154; stroke-opacity: 0.5; stroke-width: 1.5; stroke-linecap: square"/>
   </g>
   <g id="line2d_45">
    <path d="M 73.832727 260.159281 
L 90.065455 241.330072 
L 106.298182 260.893778 
L 122.530909 226.415654 
L 138.763636 230.499398 
L 154.996364 257.914581 
L 171.229091 263.652606 
L 187.461818 270.595763 
L 203.694545 253.179107 
L 219.927273 266.294698 
L 236.16 258.672305 
L 252.392727 246.02113 
L 268.625455 272.652313 
L 284.858182 260.434919 
L 301.090909 271.084603 
L 317.323636 264.28511 
L 333.556364 255.200303 
L 349.789091 267.199655 
L 366.021818 251.383243 
L 382.254545 268.579993 
L 398.487273 260.359018 
" clip-path="url(#pa0a68192ce)" style="fill: none; stroke: #440154; stroke-opacity: 0.5; stroke-width: 1.5; stroke-linecap: square"/>
   </g>
   <g id="line2d_46">
    <path d="M 73.832727 253.570749 
L 90.065455 220.712803 
L 106.298182 237.7065 
L 122.530909 241.819746 
L 138.763636 250.804633 
L 154.996364 251.376562 
L 171.229091 266.142832 
L 187.461818 277.805208 
L 203.694545 263.95495 
L 219.927273 278.415018 
L 236.16 264.362214 
L 252.392727 284.47887 
L 268.625455 261.078009 
L 284.858182 250.042622 
L 301.090909 260.786451 
L 317.323636 273.878228 
L 333.556364 255.565551 
L 349.789091 263.359975 
L 366.021818 248.50712 
L 382.254545 261.297426 
L 398.487273 262.048498 
" clip-path="url(#pa0a68192ce)" style="fill: none; stroke: #440154; stroke-opacity: 0.5; stroke-width: 1.5; stroke-linecap: square"/>
   </g>
   <g id="line2d_47">
    <path d="M 73.832727 246.927105 
L 90.065455 252.032365 
L 106.298182 261.163965 
L 122.530909 280.265607 
L 138.763636 281.571658 
L 154.996364 257.478725 
L 171.229091 277.695439 
L 187.461818 241.501917 
L 203.694545 259.904464 
L 219.927273 261.742839 
L 236.16 272.927265 
L 252.392727 272.642971 
L 268.625455 266.995316 
L 284.858182 274.143281 
L 301.090909 221.235949 
L 317.323636 245.744042 
L 333.556364 257.41131 
L 349.789091 277.450107 
L 366.021818 280.696123 
L 382.254545 279.16172 
L 398.487273 271.564726 
" clip-path="url(#pa0a68192ce)" style="fill: none; stroke: #440154; stroke-opacity: 0.5; stroke-width: 1.5; stroke-linecap: square"/>
   </g>
   <g id="line2d_48">
    <path d="M 73.832727 255.571871 
L 90.065455 236.49407 
L 106.298182 229.199297 
L 122.530909 253.578812 
L 138.763636 263.826374 
L 154.996364 255.024547 
L 171.229091 250.045105 
L 187.461818 257.220348 
L 203.694545 232.606033 
L 219.927273 273.635794 
L 236.16 244.416427 
L 252.392727 243.126757 
L 268.625455 256.622545 
L 284.858182 235.250572 
L 301.090909 259.075148 
L 317.323636 261.158117 
L 333.556364 247.996712 
L 349.789091 277.528104 
L 366.021818 192.154377 
L 382.254545 252.879979 
L 398.487273 258.362817 
" clip-path="url(#pa0a68192ce)" style="fill: none; stroke: #440154; stroke-opacity: 0.5; stroke-width: 1.5; stroke-linecap: square"/>
   </g>
   <g id="line2d_49">
    <path d="M 73.832727 268.404459 
L 90.065455 265.185001 
L 106.298182 251.385043 
L 122.530909 268.02685 
L 138.763636 275.30266 
L 154.996364 249.616597 
L 171.229091 263.720577 
L 187.461818 266.885538 
L 203.694545 245.684369 
L 219.927273 245.984399 
L 236.16 277.462759 
L 252.392727 276.028706 
L 268.625455 247.645213 
L 284.858182 264.940086 
L 301.090909 272.12962 
L 317.323636 254.072483 
L 333.556364 260.704326 
L 349.789091 255.434151 
L 366.021818 262.771956 
L 382.254545 280.282838 
L 398.487273 257.035412 
" clip-path="url(#pa0a68192ce)" style="fill: none; stroke: #440154; stroke-opacity: 0.5; stroke-width: 1.5; stroke-linecap: square"/>
   </g>
   <g id="line2d_50">
    <path d="M 73.832727 136.231791 
L 90.065455 126.508952 
L 106.298182 143.663597 
L 122.530909 204.766434 
L 138.763636 153.862266 
L 154.996364 245.387697 
L 171.229091 183.92395 
L 187.461818 203.697113 
L 203.694545 267.225604 
L 219.927273 235.121575 
L 236.16 259.736504 
L 252.392727 272.773649 
L 268.625455 267.497081 
L 284.858182 250.062718 
L 301.090909 237.356534 
L 317.323636 266.375994 
L 333.556364 274.898273 
L 349.789091 263.877076 
L 366.021818 265.462731 
L 382.254545 263.097521 
L 398.487273 259.777614 
" clip-path="url(#pa0a68192ce)" style="fill: none; stroke: #440154; stroke-opacity: 0.5; stroke-width: 1.5; stroke-linecap: square"/>
   </g>
   <g id="line2d_51">
    <path d="M 73.832727 256.279411 
L 90.065455 251.132131 
L 106.298182 242.377319 
L 122.530909 256.07763 
L 138.763636 263.365972 
L 154.996364 194.447418 
L 171.229091 268.021502 
L 187.461818 263.889474 
L 203.694545 277.091883 
L 219.927273 266.467678 
L 236.16 275.660473 
L 252.392727 222.464441 
L 268.625455 227.313384 
L 284.858182 260.619516 
L 301.090909 260.750619 
L 317.323636 264.824679 
L 333.556364 241.045179 
L 349.789091 245.357266 
L 366.021818 267.785345 
L 382.254545 218.62001 
L 398.487273 271.670962 
" clip-path="url(#pa0a68192ce)" style="fill: none; stroke: #440154; stroke-opacity: 0.5; stroke-width: 1.5; stroke-linecap: square"/>
   </g>
   <g id="line2d_52">
    <path d="M 73.832727 218.362146 
L 90.065455 159.10971 
L 106.298182 173.269161 
L 122.530909 206.066621 
L 138.763636 190.441304 
L 154.996364 215.239042 
L 171.229091 211.914384 
L 187.461818 237.14416 
L 203.694545 215.849175 
L 219.927273 241.654344 
L 236.16 249.705966 
L 252.392727 221.625223 
L 268.625455 224.12541 
L 284.858182 201.887248 
L 301.090909 197.078708 
L 317.323636 236.571938 
L 333.556364 217.516972 
L 349.789091 190.785149 
L 366.021818 242.638967 
L 382.254545 197.748375 
L 398.487273 215.493061 
" clip-path="url(#pa0a68192ce)" style="fill: none; stroke: #440154; stroke-opacity: 0.5; stroke-width: 1.5; stroke-linecap: square"/>
   </g>
   <g id="line2d_53">
    <path d="M 73.832727 166.700317 
L 90.065455 166.285644 
L 106.298182 116.267057 
L 122.530909 122.514932 
L 138.763636 145.688407 
L 154.996364 167.295678 
L 171.229091 180.135604 
L 187.461818 129.568684 
L 203.694545 162.3977 
L 219.927273 161.697877 
L 236.16 215.648284 
L 252.392727 242.760619 
L 268.625455 270.76356 
L 284.858182 268.565204 
L 301.090909 240.540477 
L 317.323636 285.84115 
L 333.556364 253.561463 
L 349.789091 266.062882 
L 366.021818 243.133396 
L 382.254545 255.89027 
L 398.487273 252.388882 
" clip-path="url(#pa0a68192ce)" style="fill: none; stroke: #440154; stroke-opacity: 0.5; stroke-width: 1.5; stroke-linecap: square"/>
   </g>
   <g id="line2d_54">
    <path d="M 73.832727 228.895921 
L 90.065455 160.483212 
L 106.298182 151.27688 
L 122.530909 130.385514 
L 138.763636 157.034607 
L 154.996364 122.482764 
L 171.229091 118.554389 
L 187.461818 92.806603 
L 203.694545 162.872902 
L 219.927273 160.844342 
L 236.16 222.213079 
L 252.392727 192.800593 
L 268.625455 228.014827 
L 284.858182 214.60242 
L 301.090909 177.253926 
L 317.323636 214.492085 
L 333.556364 202.253673 
L 349.789091 240.184284 
L 366.021818 217.530949 
L 382.254545 201.677311 
L 398.487273 190.012357 
" clip-path="url(#pa0a68192ce)" style="fill: none; stroke: #440154; stroke-opacity: 0.5; stroke-width: 1.5; stroke-linecap: square"/>
   </g>
   <g id="line2d_55">
    <path d="M 73.832727 189.239952 
L 90.065455 183.818455 
L 106.298182 196.791838 
L 122.530909 191.958571 
L 138.763636 199.7618 
L 154.996364 157.878641 
L 171.229091 205.476746 
L 187.461818 213.656 
L 203.694545 221.202423 
L 219.927273 188.479654 
L 236.16 235.305304 
L 252.392727 249.503339 
L 268.625455 256.401738 
L 284.858182 205.242162 
L 301.090909 207.812181 
L 317.323636 222.801677 
L 333.556364 247.979727 
L 349.789091 214.066152 
L 366.021818 223.915108 
L 382.254545 211.158248 
L 398.487273 224.011323 
" clip-path="url(#pa0a68192ce)" style="fill: none; stroke: #440154; stroke-opacity: 0.5; stroke-width: 1.5; stroke-linecap: square"/>
   </g>
   <g id="line2d_56">
    <path d="M 73.832727 264.989458 
L 90.065455 211.080288 
L 106.298182 219.654132 
L 122.530909 175.687353 
L 138.763636 194.885511 
L 154.996364 209.471859 
L 171.229091 233.977839 
L 187.461818 238.962045 
L 203.694545 239.285167 
L 219.927273 233.265115 
L 236.16 217.431746 
L 252.392727 239.752576 
L 268.625455 255.40302 
L 284.858182 245.289124 
L 301.090909 263.935323 
L 317.323636 252.988268 
L 333.556364 243.450671 
L 349.789091 255.263358 
L 366.021818 228.866318 
L 382.254545 261.3317 
L 398.487273 192.227114 
" clip-path="url(#pa0a68192ce)" style="fill: none; stroke: #440154; stroke-opacity: 0.5; stroke-width: 1.5; stroke-linecap: square"/>
   </g>
   <g id="line2d_57">
    <path d="M 73.832727 190.018864 
L 90.065455 216.767483 
L 106.298182 218.143697 
L 122.530909 221.155105 
L 138.763636 232.352075 
L 154.996364 234.727693 
L 171.229091 278.342649 
L 187.461818 270.325866 
L 203.694545 266.986256 
L 219.927273 267.072091 
L 236.16 242.79278 
L 252.392727 258.903644 
L 268.625455 269.377583 
L 284.858182 260.154894 
L 301.090909 279.52599 
L 317.323636 255.711186 
L 333.556364 283.579109 
L 349.789091 272.584641 
L 366.021818 245.590146 
L 382.254545 270.537344 
L 398.487273 253.4171 
" clip-path="url(#pa0a68192ce)" style="fill: none; stroke: #440154; stroke-opacity: 0.5; stroke-width: 1.5; stroke-linecap: square"/>
   </g>
   <g id="line2d_58">
    <path d="M 73.832727 209.919334 
L 90.065455 155.997935 
L 106.298182 201.659429 
L 122.530909 176.344382 
L 138.763636 197.316881 
L 154.996364 189.859309 
L 171.229091 209.47186 
L 187.461818 226.360126 
L 203.694545 206.173025 
L 219.927273 199.752954 
L 236.16 189.85858 
L 252.392727 188.295012 
L 268.625455 199.253505 
L 284.858182 219.732833 
L 301.090909 215.413772 
L 317.323636 220.417036 
L 333.556364 214.310027 
L 349.789091 199.916672 
L 366.021818 224.663993 
L 382.254545 204.675811 
L 398.487273 227.329136 
" clip-path="url(#pa0a68192ce)" style="fill: none; stroke: #440154; stroke-opacity: 0.5; stroke-width: 1.5; stroke-linecap: square"/>
   </g>
   <g id="line2d_59">
    <path d="M 73.832727 204.60004 
L 90.065455 258.461246 
L 106.298182 263.679468 
L 122.530909 203.874715 
L 138.763636 215.398457 
L 154.996364 257.260639 
L 171.229091 238.806119 
L 187.461818 206.546712 
L 203.694545 239.700366 
L 219.927273 233.240283 
L 236.16 234.085885 
L 252.392727 226.311184 
L 268.625455 209.29723 
L 284.858182 212.358925 
L 301.090909 224.816185 
L 317.323636 219.563326 
L 333.556364 198.98067 
L 349.789091 226.76792 
L 366.021818 219.540449 
L 382.254545 213.568672 
L 398.487273 177.438082 
" clip-path="url(#pa0a68192ce)" style="fill: none; stroke: #440154; stroke-opacity: 0.5; stroke-width: 1.5; stroke-linecap: square"/>
   </g>
   <g id="line2d_60">
    <path d="M 73.832727 193.193481 
L 90.065455 219.191754 
L 106.298182 193.245211 
L 122.530909 179.304376 
L 138.763636 196.143912 
L 154.996364 206.069537 
L 171.229091 205.628781 
L 187.461818 156.761949 
L 203.694545 178.067493 
L 219.927273 220.983576 
L 236.16 133.192498 
L 252.392727 202.247607 
L 268.625455 210.218804 
L 284.858182 186.557802 
L 301.090909 233.844328 
L 317.323636 235.523046 
L 333.556364 202.526054 
L 349.789091 216.701742 
L 366.021818 188.908787 
L 382.254545 229.28951 
L 398.487273 192.249844 
" clip-path="url(#pa0a68192ce)" style="fill: none; stroke: #440154; stroke-opacity: 0.5; stroke-width: 1.5; stroke-linecap: square"/>
   </g>
   <g id="line2d_61">
    <path d="M 73.832727 108.280344 
L 90.065455 60.460235 
L 106.298182 125.78915 
L 122.530909 211.129893 
L 138.763636 194.292608 
L 154.996364 158.613402 
L 171.229091 120.218859 
L 187.461818 100.796652 
L 203.694545 131.445065 
L 219.927273 214.456144 
L 236.16 242.450163 
L 252.392727 213.988059 
L 268.625455 242.50085 
L 284.858182 217.084592 
L 301.090909 193.576458 
L 317.323636 266.388511 
L 333.556364 240.635307 
L 349.789091 243.169683 
L 366.021818 216.460165 
L 382.254545 217.192191 
L 398.487273 229.381457 
" clip-path="url(#pa0a68192ce)" style="fill: none; stroke: #440154; stroke-opacity: 0.5; stroke-width: 1.5; stroke-linecap: square"/>
   </g>
   <g id="line2d_62">
    <path d="M 73.832727 154.022881 
L 90.065455 104.854112 
L 106.298182 130.668434 
L 122.530909 211.636375 
L 138.763636 193.268224 
L 154.996364 201.543931 
L 171.229091 136.418898 
L 187.461818 104.999041 
L 203.694545 136.799706 
L 219.927273 180.980561 
L 236.16 146.316362 
L 252.392727 154.719953 
L 268.625455 226.202755 
L 284.858182 182.970277 
L 301.090909 199.291544 
L 317.323636 234.800781 
L 333.556364 208.159059 
L 349.789091 231.734039 
L 366.021818 191.472552 
L 382.254545 180.328814 
L 398.487273 234.141448 
" clip-path="url(#pa0a68192ce)" style="fill: none; stroke: #440154; stroke-opacity: 0.5; stroke-width: 1.5; stroke-linecap: square"/>
   </g>
   <g id="line2d_63">
    <path d="M 73.832727 197.509726 
L 90.065455 164.141586 
L 106.298182 212.862044 
L 122.530909 215.758153 
L 138.763636 239.29881 
L 154.996364 188.021265 
L 171.229091 202.594377 
L 187.461818 156.792431 
L 203.694545 195.001564 
L 219.927273 190.599203 
L 236.16 226.700826 
L 252.392727 189.403721 
L 268.625455 243.425992 
L 284.858182 221.249841 
L 301.090909 242.28269 
L 317.323636 204.188704 
L 333.556364 238.388029 
L 349.789091 219.307797 
L 366.021818 229.272969 
L 382.254545 227.479272 
L 398.487273 244.365292 
" clip-path="url(#pa0a68192ce)" style="fill: none; stroke: #440154; stroke-opacity: 0.5; stroke-width: 1.5; stroke-linecap: square"/>
   </g>
   <g id="line2d_64">
    <path d="M 73.832727 172.970953 
L 90.065455 174.881694 
L 106.298182 205.14123 
L 122.530909 224.290496 
L 138.763636 233.261938 
L 154.996364 264.245502 
L 171.229091 199.451989 
L 187.461818 224.775509 
L 203.694545 249.071471 
L 219.927273 275.327989 
L 236.16 276.732752 
L 252.392727 282.049476 
L 268.625455 272.375895 
L 284.858182 270.624339 
L 301.090909 277.409208 
L 317.323636 274.281416 
L 333.556364 276.5982 
L 349.789091 280.960747 
L 366.021818 276.030478 
L 382.254545 274.21014 
L 398.487273 277.268346 
" clip-path="url(#pa0a68192ce)" style="fill: none; stroke: #440154; stroke-opacity: 0.5; stroke-width: 1.5; stroke-linecap: square"/>
   </g>
   <g id="line2d_65">
    <path d="M 73.832727 186.839487 
L 90.065455 233.329196 
L 106.298182 252.983023 
L 122.530909 261.448242 
L 138.763636 259.687114 
L 154.996364 277.493972 
L 171.229091 253.647775 
L 187.461818 267.536423 
L 203.694545 270.159779 
L 219.927273 275.871327 
L 236.16 281.632955 
L 252.392727 282.990866 
L 268.625455 281.233219 
L 284.858182 276.875246 
L 301.090909 288.991724 
L 317.323636 284.303656 
L 333.556364 270.714189 
L 349.789091 273.017975 
L 366.021818 278.655263 
L 382.254545 276.519467 
L 398.487273 277.028249 
" clip-path="url(#pa0a68192ce)" style="fill: none; stroke: #440154; stroke-opacity: 0.5; stroke-width: 1.5; stroke-linecap: square"/>
   </g>
   <g id="line2d_66">
    <path d="M 73.832727 191.655747 
L 90.065455 103.769826 
L 106.298182 189.531358 
L 122.530909 185.240159 
L 138.763636 202.690578 
L 154.996364 227.272904 
L 171.229091 213.370221 
L 187.461818 203.63935 
L 203.694545 229.185359 
L 219.927273 188.759604 
L 236.16 185.103706 
L 252.392727 209.879526 
L 268.625455 177.079429 
L 284.858182 210.396442 
L 301.090909 190.260187 
L 317.323636 175.913183 
L 333.556364 212.076195 
L 349.789091 184.492006 
L 366.021818 231.103492 
L 382.254545 233.298609 
L 398.487273 206.300455 
" clip-path="url(#pa0a68192ce)" style="fill: none; stroke: #440154; stroke-opacity: 0.5; stroke-width: 1.5; stroke-linecap: square"/>
   </g>
   <g id="line2d_67">
    <path d="M 73.832727 208.704909 
L 90.065455 255.763291 
L 106.298182 248.646812 
L 122.530909 227.169899 
L 138.763636 243.69305 
L 154.996364 245.685155 
L 171.229091 245.931162 
L 187.461818 236.479909 
L 203.694545 246.167414 
L 219.927273 251.395478 
L 236.16 239.501716 
L 252.392727 257.500347 
L 268.625455 243.376363 
L 284.858182 258.037335 
L 301.090909 248.814434 
L 317.323636 247.023678 
L 333.556364 252.972699 
L 349.789091 245.831859 
L 366.021818 247.192845 
L 382.254545 237.39874 
L 398.487273 247.472669 
" clip-path="url(#pa0a68192ce)" style="fill: none; stroke: #440154; stroke-opacity: 0.5; stroke-width: 1.5; stroke-linecap: square"/>
   </g>
   <g id="line2d_68">
    <path d="M 73.832727 127.057774 
L 90.065455 179.739279 
L 106.298182 181.970732 
L 122.530909 212.412506 
L 138.763636 215.348744 
L 154.996364 224.92679 
L 171.229091 192.637784 
L 187.461818 167.074416 
L 203.694545 167.066541 
L 219.927273 246.628439 
L 236.16 228.70118 
L 252.392727 201.014333 
L 268.625455 216.629793 
L 284.858182 236.480434 
L 301.090909 245.352725 
L 317.323636 241.841703 
L 333.556364 253.381864 
L 349.789091 240.791277 
L 366.021818 230.541555 
L 382.254545 229.753016 
L 398.487273 251.123757 
" clip-path="url(#pa0a68192ce)" style="fill: none; stroke: #440154; stroke-opacity: 0.5; stroke-width: 1.5; stroke-linecap: square"/>
   </g>
   <g id="line2d_69">
    <path d="M 73.832727 209.910277 
L 90.065455 180.451046 
L 106.298182 187.555722 
L 122.530909 240.323113 
L 138.763636 216.43055 
L 154.996364 254.265768 
L 171.229091 229.750604 
L 187.461818 242.977777 
L 203.694545 231.36529 
L 219.927273 244.097921 
L 236.16 285.243733 
L 252.392727 257.915814 
L 268.625455 177.237338 
L 284.858182 214.695867 
L 301.090909 176.197169 
L 317.323636 265.123601 
L 333.556364 240.834988 
L 349.789091 234.241593 
L 366.021818 194.041659 
L 382.254545 217.12054 
L 398.487273 228.510936 
" clip-path="url(#pa0a68192ce)" style="fill: none; stroke: #440154; stroke-opacity: 0.5; stroke-width: 1.5; stroke-linecap: square"/>
   </g>
   <g id="line2d_70">
    <path d="M 73.832727 111.897273 
L 90.065455 111.018933 
L 106.298182 106.230621 
L 122.530909 184.800818 
L 138.763636 177.026972 
L 154.996364 186.984355 
L 171.229091 177.773252 
L 187.461818 175.138852 
L 203.694545 184.114166 
L 219.927273 225.564712 
L 236.16 247.027423 
L 252.392727 111.07268 
L 268.625455 191.51849 
L 284.858182 174.634874 
L 301.090909 191.97486 
L 317.323636 221.544318 
L 333.556364 143.683118 
L 349.789091 194.141795 
L 366.021818 163.143796 
L 382.254545 182.853924 
L 398.487273 190.187401 
" clip-path="url(#pa0a68192ce)" style="fill: none; stroke: #440154; stroke-opacity: 0.5; stroke-width: 1.5; stroke-linecap: square"/>
   </g>
   <g id="line2d_71">
    <path d="M 73.832727 149.879446 
L 90.065455 179.334273 
L 106.298182 152.821816 
L 122.530909 163.027867 
L 138.763636 203.910901 
L 154.996364 189.637486 
L 171.229091 152.249032 
L 187.461818 197.888998 
L 203.694545 177.165854 
L 219.927273 189.26202 
L 236.16 198.039731 
L 252.392727 201.139545 
L 268.625455 182.759703 
L 284.858182 242.215055 
L 301.090909 211.920361 
L 317.323636 238.003758 
L 333.556364 216.487694 
L 349.789091 216.749828 
L 366.021818 201.505616 
L 382.254545 197.215313 
L 398.487273 190.759783 
" clip-path="url(#pa0a68192ce)" style="fill: none; stroke: #440154; stroke-opacity: 0.5; stroke-width: 1.5; stroke-linecap: square"/>
   </g>
   <g id="line2d_72">
    <path d="M 73.832727 236.032235 
L 90.065455 252.524434 
L 106.298182 248.927222 
L 122.530909 227.342275 
L 138.763636 227.262136 
L 154.996364 258.068743 
L 171.229091 267.617146 
L 187.461818 275.099217 
L 203.694545 289.530413 
L 219.927273 289.058395 
L 236.16 293.136106 
L 252.392727 285.965902 
L 268.625455 269.320652 
L 284.858182 266.950951 
L 301.090909 286.304886 
L 317.323636 289.49064 
L 333.556364 291.426333 
L 349.789091 278.839962 
L 366.021818 282.640238 
L 382.254545 287.85189 
L 398.487273 291.42831 
" clip-path="url(#pa0a68192ce)" style="fill: none; stroke: #440154; stroke-opacity: 0.5; stroke-width: 1.5; stroke-linecap: square"/>
   </g>
   <g id="line2d_73">
    <path d="M 73.832727 263.647536 
L 90.065455 256.973356 
L 106.298182 268.117474 
L 122.530909 277.471413 
L 138.763636 254.365739 
L 154.996364 261.515396 
L 171.229091 266.235754 
L 187.461818 261.074617 
L 203.694545 280.149013 
L 219.927273 277.172855 
L 236.16 247.643691 
L 252.392727 261.202618 
L 268.625455 262.996306 
L 284.858182 251.021289 
L 301.090909 271.824406 
L 317.323636 258.845074 
L 333.556364 253.203232 
L 349.789091 236.219685 
L 366.021818 286.912337 
L 382.254545 265.134093 
L 398.487273 268.32175 
" clip-path="url(#pa0a68192ce)" style="fill: none; stroke: #440154; stroke-opacity: 0.5; stroke-width: 1.5; stroke-linecap: square"/>
   </g>
   <g id="line2d_74">
    <path d="M 73.832727 244.494934 
L 90.065455 204.988772 
L 106.298182 207.755415 
L 122.530909 254.351427 
L 138.763636 252.85179 
L 154.996364 245.348609 
L 171.229091 242.672451 
L 187.461818 243.761687 
L 203.694545 242.090272 
L 219.927273 247.076981 
L 236.16 251.295747 
L 252.392727 247.57893 
L 268.625455 224.841747 
L 284.858182 234.86051 
L 301.090909 239.543735 
L 317.323636 249.750612 
L 333.556364 211.056611 
L 349.789091 236.054446 
L 366.021818 239.693549 
L 382.254545 234.751492 
L 398.487273 247.359871 
" clip-path="url(#pa0a68192ce)" style="fill: none; stroke: #440154; stroke-opacity: 0.5; stroke-width: 1.5; stroke-linecap: square"/>
   </g>
   <g id="line2d_75">
    <path d="M 73.832727 238.646497 
L 90.065455 214.582536 
L 106.298182 233.973962 
L 122.530909 254.149349 
L 138.763636 250.758195 
L 154.996364 228.086973 
L 171.229091 230.24426 
L 187.461818 252.092617 
L 203.694545 249.25022 
L 219.927273 237.938288 
L 236.16 224.536254 
L 252.392727 240.285245 
L 268.625455 213.5965 
L 284.858182 233.2888 
L 301.090909 212.22478 
L 317.323636 225.318217 
L 333.556364 249.465289 
L 349.789091 235.108804 
L 366.021818 209.925852 
L 382.254545 243.337333 
L 398.487273 260.770593 
" clip-path="url(#pa0a68192ce)" style="fill: none; stroke: #440154; stroke-opacity: 0.5; stroke-width: 1.5; stroke-linecap: square"/>
   </g>
   <g id="line2d_76">
    <path d="M 73.832727 229.447753 
L 90.065455 223.732587 
L 106.298182 206.783531 
L 122.530909 250.161559 
L 138.763636 254.912024 
L 154.996364 254.520104 
L 171.229091 246.9646 
L 187.461818 255.976592 
L 203.694545 250.119686 
L 219.927273 251.813914 
L 236.16 255.393108 
L 252.392727 254.422469 
L 268.625455 238.404139 
L 284.858182 256.750312 
L 301.090909 238.659524 
L 317.323636 250.327974 
L 333.556364 245.064891 
L 349.789091 249.28323 
L 366.021818 255.335095 
L 382.254545 248.810059 
L 398.487273 246.608849 
" clip-path="url(#pa0a68192ce)" style="fill: none; stroke: #440154; stroke-opacity: 0.5; stroke-width: 1.5; stroke-linecap: square"/>
   </g>
   <g id="line2d_77">
    <path d="M 73.832727 234.153588 
L 90.065455 212.911332 
L 106.298182 192.763254 
L 122.530909 88.003918 
L 138.763636 187.860345 
L 154.996364 292.097734 
L 171.229091 242.737691 
L 187.461818 247.173051 
L 203.694545 272.70754 
L 219.927273 286.177635 
L 236.16 289.677623 
L 252.392727 248.172767 
L 268.625455 291.133654 
L 284.858182 275.864152 
L 301.090909 290.100407 
L 317.323636 276.333543 
L 333.556364 286.499812 
L 349.789091 289.040055 
L 366.021818 295.488 
L 382.254545 290.86479 
L 398.487273 295.184249 
" clip-path="url(#pa0a68192ce)" style="fill: none; stroke: #440154; stroke-opacity: 0.5; stroke-width: 1.5; stroke-linecap: square"/>
   </g>
   <g id="line2d_78">
    <path d="M 73.832727 155.210149 
L 90.065455 53.568 
L 106.298182 76.915581 
L 122.530909 128.21165 
L 138.763636 157.78977 
L 154.996364 263.928854 
L 171.229091 273.018197 
L 187.461818 285.251573 
L 203.694545 290.61789 
L 219.927273 291.35176 
L 236.16 273.706228 
L 252.392727 279.952025 
L 268.625455 269.167753 
L 284.858182 266.502895 
L 301.090909 277.00551 
L 317.323636 244.857349 
L 333.556364 270.761195 
L 349.789091 272.773212 
L 366.021818 282.076054 
L 382.254545 274.16687 
L 398.487273 277.441612 
" clip-path="url(#pa0a68192ce)" style="fill: none; stroke: #440154; stroke-opacity: 0.5; stroke-width: 1.5; stroke-linecap: square"/>
   </g>
   <g id="line2d_79">
    <path d="M 73.832727 183.653938 
L 90.065455 122.317415 
L 106.298182 96.072942 
L 122.530909 134.223456 
L 138.763636 157.623575 
L 154.996364 203.902513 
L 171.229091 190.523208 
L 187.461818 215.774562 
L 203.694545 244.133948 
L 219.927273 236.174787 
L 236.16 231.410604 
L 252.392727 217.293525 
L 268.625455 234.500701 
L 284.858182 249.650886 
L 301.090909 256.022812 
L 317.323636 248.551277 
L 333.556364 252.658173 
L 349.789091 254.635906 
L 366.021818 258.473255 
L 382.254545 243.4512 
L 398.487273 255.874287 
" clip-path="url(#pa0a68192ce)" style="fill: none; stroke: #440154; stroke-opacity: 0.5; stroke-width: 1.5; stroke-linecap: square"/>
   </g>
   <g id="line2d_80">
    <path d="M 73.832727 223.768881 
L 90.065455 209.50392 
L 106.298182 225.749708 
L 122.530909 262.200913 
L 138.763636 269.54996 
L 154.996364 220.110713 
L 171.229091 226.287183 
L 187.461818 190.972773 
L 203.694545 224.962108 
L 219.927273 240.417382 
L 236.16 215.84559 
L 252.392727 232.848111 
L 268.625455 234.725556 
L 284.858182 232.094874 
L 301.090909 259.711147 
L 317.323636 263.058537 
L 333.556364 214.618461 
L 349.789091 221.682816 
L 366.021818 185.432063 
L 382.254545 250.52336 
L 398.487273 206.391592 
" clip-path="url(#pa0a68192ce)" style="fill: none; stroke: #440154; stroke-opacity: 0.5; stroke-width: 1.5; stroke-linecap: square"/>
   </g>
   <g id="line2d_81">
    <path d="M 73.832727 164.603208 
L 90.065455 228.522673 
L 106.298182 210.393696 
L 122.530909 259.696911 
L 138.763636 241.745385 
L 154.996364 166.280975 
L 171.229091 262.159963 
L 187.461818 197.997263 
L 203.694545 198.221499 
L 219.927273 239.352876 
L 236.16 173.199892 
L 252.392727 258.185526 
L 268.625455 186.381282 
L 284.858182 136.698417 
L 301.090909 252.036961 
L 317.323636 222.60101 
L 333.556364 102.192343 
L 349.789091 190.828235 
L 366.021818 133.295973 
L 382.254545 201.726617 
L 398.487273 136.884206 
" clip-path="url(#pa0a68192ce)" style="fill: none; stroke: #440154; stroke-opacity: 0.5; stroke-width: 1.5; stroke-linecap: square"/>
   </g>
   <g id="line2d_82">
    <path d="M 73.832727 170.813736 
L 90.065455 137.486034 
L 106.298182 181.51916 
L 122.530909 237.120583 
L 138.763636 238.259506 
L 154.996364 245.605409 
L 171.229091 145.959026 
L 187.461818 212.476096 
L 203.694545 180.602893 
L 219.927273 226.25177 
L 236.16 237.09525 
L 252.392727 236.246819 
L 268.625455 164.900058 
L 284.858182 141.102543 
L 301.090909 238.653608 
L 317.323636 208.966921 
L 333.556364 220.463436 
L 349.789091 186.235524 
L 366.021818 189.247433 
L 382.254545 188.506785 
L 398.487273 193.697268 
" clip-path="url(#pa0a68192ce)" style="fill: none; stroke: #440154; stroke-opacity: 0.5; stroke-width: 1.5; stroke-linecap: square"/>
   </g>
   <g id="line2d_83">
    <path d="M 73.832727 84.8254 
L 90.065455 205.998873 
L 106.298182 209.397403 
L 122.530909 209.239983 
L 138.763636 188.54762 
L 154.996364 179.556533 
L 171.229091 204.653631 
L 187.461818 201.988251 
L 203.694545 195.621167 
L 219.927273 214.827375 
L 236.16 221.051039 
L 252.392727 215.630305 
L 268.625455 178.367193 
L 284.858182 194.203082 
L 301.090909 205.172288 
L 317.323636 234.485946 
L 333.556364 192.090604 
L 349.789091 205.393346 
L 366.021818 197.101817 
L 382.254545 203.39872 
L 398.487273 183.15372 
" clip-path="url(#pa0a68192ce)" style="fill: none; stroke: #440154; stroke-opacity: 0.5; stroke-width: 1.5; stroke-linecap: square"/>
   </g>
   <g id="line2d_84">
    <path d="M 73.832727 184.031949 
L 90.065455 209.843075 
L 106.298182 222.890783 
L 122.530909 212.89485 
L 138.763636 209.740598 
L 154.996364 253.736615 
L 171.229091 100.947429 
L 187.461818 120.285905 
L 203.694545 133.901629 
L 219.927273 242.013472 
L 236.16 204.190804 
L 252.392727 226.157369 
L 268.625455 224.548683 
L 284.858182 212.580751 
L 301.090909 250.894951 
L 317.323636 222.492659 
L 333.556364 250.032304 
L 349.789091 234.038399 
L 366.021818 203.493277 
L 382.254545 241.105957 
L 398.487273 229.003452 
" clip-path="url(#pa0a68192ce)" style="fill: none; stroke: #440154; stroke-opacity: 0.5; stroke-width: 1.5; stroke-linecap: square"/>
   </g>
   <g id="line2d_85">
    <path d="M 73.832727 167.315038 
L 90.065455 115.491878 
L 106.298182 171.299098 
L 122.530909 249.421233 
L 138.763636 192.961598 
L 154.996364 281.092648 
L 171.229091 255.163179 
L 187.461818 277.677568 
L 203.694545 275.805106 
L 219.927273 262.422487 
L 236.16 281.684436 
L 252.392727 278.01988 
L 268.625455 284.021191 
L 284.858182 284.420264 
L 301.090909 282.32458 
L 317.323636 290.355906 
L 333.556364 277.726939 
L 349.789091 283.960314 
L 366.021818 282.636667 
L 382.254545 284.468719 
L 398.487273 285.667438 
" clip-path="url(#pa0a68192ce)" style="fill: none; stroke: #440154; stroke-opacity: 0.5; stroke-width: 1.5; stroke-linecap: square"/>
   </g>
   <g id="line2d_86">
    <path d="M 73.832727 212.269493 
L 90.065455 58.84024 
L 106.298182 113.614386 
L 122.530909 160.859525 
L 138.763636 128.699906 
L 154.996364 232.884605 
L 171.229091 245.125365 
L 187.461818 242.570941 
L 203.694545 231.951705 
L 219.927273 245.586986 
L 236.16 211.862081 
L 252.392727 230.293059 
L 268.625455 241.613769 
L 284.858182 262.013356 
L 301.090909 236.850014 
L 317.323636 260.632318 
L 333.556364 243.132065 
L 349.789091 253.788736 
L 366.021818 228.349379 
L 382.254545 253.281056 
L 398.487273 244.547376 
" clip-path="url(#pa0a68192ce)" style="fill: none; stroke: #440154; stroke-opacity: 0.5; stroke-width: 1.5; stroke-linecap: square"/>
   </g>
   <g id="line2d_87">
    <path d="M 73.832727 238.030521 
L 90.065455 208.437007 
L 106.298182 225.965384 
L 122.530909 248.990891 
L 138.763636 247.066315 
L 154.996364 201.94783 
L 171.229091 208.198436 
L 187.461818 200.374449 
L 203.694545 158.417073 
L 219.927273 251.605643 
L 236.16 226.544741 
L 252.392727 243.623813 
L 268.625455 235.97396 
L 284.858182 215.380822 
L 301.090909 234.142398 
L 317.323636 228.803304 
L 333.556364 222.340759 
L 349.789091 228.101933 
L 366.021818 247.56442 
L 382.254545 237.61401 
L 398.487273 245.291263 
" clip-path="url(#pa0a68192ce)" style="fill: none; stroke: #440154; stroke-opacity: 0.5; stroke-width: 1.5; stroke-linecap: square"/>
   </g>
   <g id="line2d_88">
    <path d="M 73.832727 190.757899 
L 90.065455 241.228419 
L 106.298182 224.543338 
L 122.530909 204.199876 
L 138.763636 226.717097 
L 154.996364 236.509695 
L 171.229091 266.719238 
L 187.461818 169.857392 
L 203.694545 251.045529 
L 219.927273 237.479032 
L 236.16 242.494813 
L 252.392727 226.178072 
L 268.625455 243.978772 
L 284.858182 256.178053 
L 301.090909 260.693823 
L 317.323636 275.925997 
L 333.556364 252.345119 
L 349.789091 254.686574 
L 366.021818 240.941982 
L 382.254545 230.768397 
L 398.487273 250.286077 
" clip-path="url(#pa0a68192ce)" style="fill: none; stroke: #440154; stroke-opacity: 0.5; stroke-width: 1.5; stroke-linecap: square"/>
   </g>
   <g id="line2d_89">
    <path d="M 73.832727 150.130831 
L 90.065455 251.434845 
L 106.298182 238.673029 
L 122.530909 229.155132 
L 138.763636 239.591193 
L 154.996364 272.536761 
L 171.229091 255.660388 
L 187.461818 243.817522 
L 203.694545 277.263157 
L 219.927273 262.238513 
L 236.16 250.459259 
L 252.392727 200.749592 
L 268.625455 239.547089 
L 284.858182 227.141992 
L 301.090909 250.841758 
L 317.323636 248.019882 
L 333.556364 229.802675 
L 349.789091 224.446234 
L 366.021818 239.696607 
L 382.254545 225.833331 
L 398.487273 259.46238 
" clip-path="url(#pa0a68192ce)" style="fill: none; stroke: #440154; stroke-opacity: 0.5; stroke-width: 1.5; stroke-linecap: square"/>
   </g>
   <g id="line2d_90">
    <path d="M 73.832727 218.266402 
L 90.065455 209.497245 
L 106.298182 223.329942 
L 122.530909 180.110022 
L 138.763636 180.524068 
L 154.996364 223.434159 
L 171.229091 231.048752 
L 187.461818 237.966885 
L 203.694545 234.178761 
L 219.927273 211.32251 
L 236.16 213.400845 
L 252.392727 203.852625 
L 268.625455 273.922614 
L 284.858182 241.428728 
L 301.090909 247.032907 
L 317.323636 238.976572 
L 333.556364 236.606856 
L 349.789091 210.964559 
L 366.021818 256.920824 
L 382.254545 239.077885 
L 398.487273 249.391991 
" clip-path="url(#pa0a68192ce)" style="fill: none; stroke: #440154; stroke-opacity: 0.5; stroke-width: 1.5; stroke-linecap: square"/>
   </g>
   <g id="line2d_91">
    <path d="M 73.832727 165.444034 
L 90.065455 187.928484 
L 106.298182 216.450479 
L 122.530909 211.105636 
L 138.763636 232.868423 
L 154.996364 264.309435 
L 171.229091 260.981159 
L 187.461818 267.410405 
L 203.694545 262.627194 
L 219.927273 261.943088 
L 236.16 248.31631 
L 252.392727 239.002894 
L 268.625455 254.73813 
L 284.858182 259.389035 
L 301.090909 258.696912 
L 317.323636 260.570215 
L 333.556364 255.050908 
L 349.789091 256.566454 
L 366.021818 262.556466 
L 382.254545 253.934873 
L 398.487273 270.478811 
" clip-path="url(#pa0a68192ce)" style="fill: none; stroke: #440154; stroke-opacity: 0.5; stroke-width: 1.5; stroke-linecap: square"/>
   </g>
   <g id="line2d_92">
    <path d="M 73.832727 173.131586 
L 90.065455 207.014972 
L 106.298182 194.015003 
L 122.530909 222.829612 
L 138.763636 226.622195 
L 154.996364 215.957915 
L 171.229091 227.740759 
L 187.461818 197.499755 
L 203.694545 189.013479 
L 219.927273 200.901627 
L 236.16 225.778419 
L 252.392727 193.141311 
L 268.625455 209.371079 
L 284.858182 221.598049 
L 301.090909 204.595348 
L 317.323636 210.811237 
L 333.556364 214.891458 
L 349.789091 207.019226 
L 366.021818 214.955799 
L 382.254545 184.764682 
L 398.487273 226.793646 
" clip-path="url(#pa0a68192ce)" style="fill: none; stroke: #440154; stroke-opacity: 0.5; stroke-width: 1.5; stroke-linecap: square"/>
   </g>
   <g id="line2d_93">
    <path d="M 73.832727 122.499205 
L 90.065455 184.493136 
L 106.298182 249.114013 
L 122.530909 235.82545 
L 138.763636 233.000958 
L 154.996364 249.030963 
L 171.229091 240.793964 
L 187.461818 279.516795 
L 203.694545 261.867377 
L 219.927273 274.938454 
L 236.16 264.927402 
L 252.392727 288.22866 
L 268.625455 288.090686 
L 284.858182 273.711453 
L 301.090909 276.670866 
L 317.323636 238.493625 
L 333.556364 277.921678 
L 349.789091 284.858429 
L 366.021818 271.781447 
L 382.254545 272.762855 
L 398.487273 255.743557 
" clip-path="url(#pa0a68192ce)" style="fill: none; stroke: #440154; stroke-opacity: 0.5; stroke-width: 1.5; stroke-linecap: square"/>
   </g>
   <g id="line2d_94">
    <path d="M 73.832727 191.073174 
L 90.065455 213.488227 
L 106.298182 214.898875 
L 122.530909 229.008688 
L 138.763636 260.080096 
L 154.996364 267.744877 
L 171.229091 262.269954 
L 187.461818 261.718208 
L 203.694545 249.954542 
L 219.927273 259.976971 
L 236.16 253.772498 
L 252.392727 260.440044 
L 268.625455 252.414673 
L 284.858182 263.12701 
L 301.090909 240.560194 
L 317.323636 260.419157 
L 333.556364 257.639396 
L 349.789091 268.870957 
L 366.021818 237.543568 
L 382.254545 274.355461 
L 398.487273 246.144945 
" clip-path="url(#pa0a68192ce)" style="fill: none; stroke: #440154; stroke-opacity: 0.5; stroke-width: 1.5; stroke-linecap: square"/>
   </g>
   <g id="line2d_95">
    <path d="M 73.832727 221.068652 
L 90.065455 223.62495 
L 106.298182 216.001704 
L 122.530909 237.127475 
L 138.763636 242.533574 
L 154.996364 254.347423 
L 171.229091 241.704251 
L 187.461818 241.520926 
L 203.694545 244.830782 
L 219.927273 241.635704 
L 236.16 240.133542 
L 252.392727 232.200336 
L 268.625455 231.921729 
L 284.858182 238.633278 
L 301.090909 212.370229 
L 317.323636 233.454917 
L 333.556364 198.571708 
L 349.789091 253.08716 
L 366.021818 222.263873 
L 382.254545 240.619304 
L 398.487273 263.356074 
" clip-path="url(#pa0a68192ce)" style="fill: none; stroke: #440154; stroke-opacity: 0.5; stroke-width: 1.5; stroke-linecap: square"/>
   </g>
   <g id="line2d_96">
    <path d="M 73.832727 260.2605 
L 90.065455 164.308825 
L 106.298182 202.533107 
L 122.530909 209.706675 
L 138.763636 241.907452 
L 154.996364 262.490428 
L 171.229091 206.676839 
L 187.461818 269.709187 
L 203.694545 230.692996 
L 219.927273 254.690704 
L 236.16 231.357372 
L 252.392727 205.290215 
L 268.625455 256.307201 
L 284.858182 243.260221 
L 301.090909 255.29291 
L 317.323636 258.192334 
L 333.556364 237.208354 
L 349.789091 244.480703 
L 366.021818 242.758451 
L 382.254545 212.437522 
L 398.487273 265.616858 
" clip-path="url(#pa0a68192ce)" style="fill: none; stroke: #440154; stroke-opacity: 0.5; stroke-width: 1.5; stroke-linecap: square"/>
   </g>
   <g id="line2d_97">
    <path d="M 73.832727 240.023216 
L 90.065455 241.644916 
L 106.298182 245.050337 
L 122.530909 275.651693 
L 138.763636 267.973365 
L 154.996364 282.812183 
L 171.229091 271.927078 
L 187.461818 278.513664 
L 203.694545 272.375523 
L 219.927273 276.86673 
L 236.16 276.647395 
L 252.392727 266.960804 
L 268.625455 281.855938 
L 284.858182 289.006613 
L 301.090909 292.77191 
L 317.323636 287.455759 
L 333.556364 283.948267 
L 349.789091 281.887436 
L 366.021818 295.224875 
L 382.254545 266.252788 
L 398.487273 292.444676 
" clip-path="url(#pa0a68192ce)" style="fill: none; stroke: #440154; stroke-opacity: 0.5; stroke-width: 1.5; stroke-linecap: square"/>
   </g>
   <g id="line2d_98">
    <path d="M 73.832727 217.471253 
L 90.065455 226.127047 
L 106.298182 231.613144 
L 122.530909 244.107198 
L 138.763636 235.329445 
L 154.996364 254.157882 
L 171.229091 256.396139 
L 187.461818 256.690374 
L 203.694545 259.643583 
L 219.927273 251.116629 
L 236.16 240.466391 
L 252.392727 240.502256 
L 268.625455 245.75325 
L 284.858182 257.769674 
L 301.090909 256.152063 
L 317.323636 249.177804 
L 333.556364 257.27692 
L 349.789091 248.165195 
L 366.021818 252.36815 
L 382.254545 245.836392 
L 398.487273 259.666984 
" clip-path="url(#pa0a68192ce)" style="fill: none; stroke: #440154; stroke-opacity: 0.5; stroke-width: 1.5; stroke-linecap: square"/>
   </g>
   <g id="line2d_99">
    <path d="M 73.832727 245.909831 
L 90.065455 228.517975 
L 106.298182 237.96999 
L 122.530909 208.899305 
L 138.763636 237.478795 
L 154.996364 223.291531 
L 171.229091 252.414714 
L 187.461818 260.458574 
L 203.694545 254.933092 
L 219.927273 260.208413 
L 236.16 248.207324 
L 252.392727 269.13816 
L 268.625455 270.075128 
L 284.858182 271.403465 
L 301.090909 260.53629 
L 317.323636 265.624127 
L 333.556364 263.510993 
L 349.789091 261.076821 
L 366.021818 262.931943 
L 382.254545 261.082402 
L 398.487273 269.656083 
" clip-path="url(#pa0a68192ce)" style="fill: none; stroke: #440154; stroke-opacity: 0.5; stroke-width: 1.5; stroke-linecap: square"/>
   </g>
   <g id="line2d_100">
    <path d="M 73.832727 134.816635 
L 90.065455 200.214799 
L 106.298182 181.693898 
L 122.530909 191.03256 
L 138.763636 194.435079 
L 154.996364 208.098372 
L 171.229091 257.474547 
L 187.461818 254.347207 
L 203.694545 251.962826 
L 219.927273 220.083371 
L 236.16 247.463177 
L 252.392727 249.540991 
L 268.625455 244.467981 
L 284.858182 250.325415 
L 301.090909 251.497189 
L 317.323636 236.689135 
L 333.556364 249.460556 
L 349.789091 247.868519 
L 366.021818 251.167517 
L 382.254545 244.521394 
L 398.487273 232.711635 
" clip-path="url(#pa0a68192ce)" style="fill: none; stroke: #440154; stroke-opacity: 0.5; stroke-width: 1.5; stroke-linecap: square"/>
   </g>
   <g id="patch_3">
    <path d="M 57.6 307.584 
L 57.6 41.472 
" style="fill: none; stroke: #000000; stroke-width: 3; stroke-linejoin: miter; stroke-linecap: square"/>
   </g>
   <g id="patch_4">
    <path d="M 414.72 307.584 
L 414.72 41.472 
" style="fill: none; stroke: #000000; stroke-width: 3; stroke-linejoin: miter; stroke-linecap: square"/>
   </g>
   <g id="patch_5">
    <path d="M 57.6 307.584 
L 414.72 307.584 
" style="fill: none; stroke: #000000; stroke-width: 3; stroke-linejoin: miter; stroke-linecap: square"/>
   </g>
   <g id="patch_6">
    <path d="M 57.6 41.472 
L 414.72 41.472 
" style="fill: none; stroke: #000000; stroke-width: 3; stroke-linejoin: miter; stroke-linecap: square"/>
   </g>
   <g id="text_11">
    <!-- Atom Type H (n=90, mean Q=7.57) -->
    <g transform="translate(40.225937 35.472) scale(0.22 -0.22)">
     <defs>
      <path id="DejaVuSans-41" d="M 2188 4044 
L 1331 1722 
L 3047 1722 
L 2188 4044 
z
M 1831 4666 
L 2547 4666 
L 4325 0 
L 3669 0 
L 3244 1197 
L 1141 1197 
L 716 0 
L 50 0 
L 1831 4666 
z
" transform="scale(0.015625)"/>
      <path id="DejaVuSans-74" d="M 1172 4494 
L 1172 3500 
L 2356 3500 
L 2356 3053 
L 1172 3053 
L 1172 1153 
Q 1172 725 1289 603 
Q 1406 481 1766 481 
L 2356 481 
L 2356 0 
L 1766 0 
Q 1100 0 847 248 
Q 594 497 594 1153 
L 594 3053 
L 172 3053 
L 172 3500 
L 594 3500 
L 594 4494 
L 1172 4494 
z
" transform="scale(0.015625)"/>
      <path id="DejaVuSans-6f" d="M 1959 3097 
Q 1497 3097 1228 2736 
Q 959 2375 959 1747 
Q 959 1119 1226 758 
Q 1494 397 1959 397 
Q 2419 397 2687 759 
Q 2956 1122 2956 1747 
Q 2956 2369 2687 2733 
Q 2419 3097 1959 3097 
z
M 1959 3584 
Q 2709 3584 3137 3096 
Q 3566 2609 3566 1747 
Q 3566 888 3137 398 
Q 2709 -91 1959 -91 
Q 1206 -91 779 398 
Q 353 888 353 1747 
Q 353 2609 779 3096 
Q 1206 3584 1959 3584 
z
" transform="scale(0.015625)"/>
      <path id="DejaVuSans-6d" d="M 3328 2828 
Q 3544 3216 3844 3400 
Q 4144 3584 4550 3584 
Q 5097 3584 5394 3201 
Q 5691 2819 5691 2113 
L 5691 0 
L 5113 0 
L 5113 2094 
Q 5113 2597 4934 2840 
Q 4756 3084 4391 3084 
Q 3944 3084 3684 2787 
Q 3425 2491 3425 1978 
L 3425 0 
L 2847 0 
L 2847 2094 
Q 2847 2600 2669 2842 
Q 2491 3084 2119 3084 
Q 1678 3084 1418 2786 
Q 1159 2488 1159 1978 
L 1159 0 
L 581 0 
L 581 3500 
L 1159 3500 
L 1159 2956 
Q 1356 3278 1631 3431 
Q 1906 3584 2284 3584 
Q 2666 3584 2933 3390 
Q 3200 3197 3328 2828 
z
" transform="scale(0.015625)"/>
      <path id="DejaVuSans-20" transform="scale(0.015625)"/>
      <path id="DejaVuSans-54" d="M -19 4666 
L 3928 4666 
L 3928 4134 
L 2272 4134 
L 2272 0 
L 1638 0 
L 1638 4134 
L -19 4134 
L -19 4666 
z
" transform="scale(0.015625)"/>
      <path id="DejaVuSans-79" d="M 2059 -325 
Q 1816 -950 1584 -1140 
Q 1353 -1331 966 -1331 
L 506 -1331 
L 506 -850 
L 844 -850 
Q 1081 -850 1212 -737 
Q 1344 -625 1503 -206 
L 1606 56 
L 191 3500 
L 800 3500 
L 1894 763 
L 2988 3500 
L 3597 3500 
L 2059 -325 
z
" transform="scale(0.015625)"/>
      <path id="DejaVuSans-70" d="M 1159 525 
L 1159 -1331 
L 581 -1331 
L 581 3500 
L 1159 3500 
L 1159 2969 
Q 1341 3281 1617 3432 
Q 1894 3584 2278 3584 
Q 2916 3584 3314 3078 
Q 3713 2572 3713 1747 
Q 3713 922 3314 415 
Q 2916 -91 2278 -91 
Q 1894 -91 1617 61 
Q 1341 213 1159 525 
z
M 3116 1747 
Q 3116 2381 2855 2742 
Q 2594 3103 2138 3103 
Q 1681 3103 1420 2742 
Q 1159 2381 1159 1747 
Q 1159 1113 1420 752 
Q 1681 391 2138 391 
Q 2594 391 2855 752 
Q 3116 1113 3116 1747 
z
" transform="scale(0.015625)"/>
      <path id="DejaVuSans-65" d="M 3597 1894 
L 3597 1613 
L 953 1613 
Q 991 1019 1311 708 
Q 1631 397 2203 397 
Q 2534 397 2845 478 
Q 3156 559 3463 722 
L 3463 178 
Q 3153 47 2828 -22 
Q 2503 -91 2169 -91 
Q 1331 -91 842 396 
Q 353 884 353 1716 
Q 353 2575 817 3079 
Q 1281 3584 2069 3584 
Q 2775 3584 3186 3129 
Q 3597 2675 3597 1894 
z
M 3022 2063 
Q 3016 2534 2758 2815 
Q 2500 3097 2075 3097 
Q 1594 3097 1305 2825 
Q 1016 2553 972 2059 
L 3022 2063 
z
" transform="scale(0.015625)"/>
      <path id="DejaVuSans-48" d="M 628 4666 
L 1259 4666 
L 1259 2753 
L 3553 2753 
L 3553 4666 
L 4184 4666 
L 4184 0 
L 3553 0 
L 3553 2222 
L 1259 2222 
L 1259 0 
L 628 0 
L 628 4666 
z
" transform="scale(0.015625)"/>
      <path id="DejaVuSans-28" d="M 1984 4856 
Q 1566 4138 1362 3434 
Q 1159 2731 1159 2009 
Q 1159 1288 1364 580 
Q 1569 -128 1984 -844 
L 1484 -844 
Q 1016 -109 783 600 
Q 550 1309 550 2009 
Q 550 2706 781 3412 
Q 1013 4119 1484 4856 
L 1984 4856 
z
" transform="scale(0.015625)"/>
      <path id="DejaVuSans-6e" d="M 3513 2113 
L 3513 0 
L 2938 0 
L 2938 2094 
Q 2938 2591 2744 2837 
Q 2550 3084 2163 3084 
Q 1697 3084 1428 2787 
Q 1159 2491 1159 1978 
L 1159 0 
L 581 0 
L 581 3500 
L 1159 3500 
L 1159 2956 
Q 1366 3272 1645 3428 
Q 1925 3584 2291 3584 
Q 2894 3584 3203 3211 
Q 3513 2838 3513 2113 
z
" transform="scale(0.015625)"/>
      <path id="DejaVuSans-3d" d="M 678 2906 
L 4684 2906 
L 4684 2381 
L 678 2381 
L 678 2906 
z
M 678 1631 
L 4684 1631 
L 4684 1100 
L 678 1100 
L 678 1631 
z
" transform="scale(0.015625)"/>
      <path id="DejaVuSans-39" d="M 703 97 
L 703 672 
Q 941 559 1184 500 
Q 1428 441 1663 441 
Q 2288 441 2617 861 
Q 2947 1281 2994 2138 
Q 2813 1869 2534 1725 
Q 2256 1581 1919 1581 
Q 1219 1581 811 2004 
Q 403 2428 403 3163 
Q 403 3881 828 4315 
Q 1253 4750 1959 4750 
Q 2769 4750 3195 4129 
Q 3622 3509 3622 2328 
Q 3622 1225 3098 567 
Q 2575 -91 1691 -91 
Q 1453 -91 1209 -44 
Q 966 3 703 97 
z
M 1959 2075 
Q 2384 2075 2632 2365 
Q 2881 2656 2881 3163 
Q 2881 3666 2632 3958 
Q 2384 4250 1959 4250 
Q 1534 4250 1286 3958 
Q 1038 3666 1038 3163 
Q 1038 2656 1286 2365 
Q 1534 2075 1959 2075 
z
" transform="scale(0.015625)"/>
      <path id="DejaVuSans-2c" d="M 750 794 
L 1409 794 
L 1409 256 
L 897 -744 
L 494 -744 
L 750 256 
L 750 794 
z
" transform="scale(0.015625)"/>
      <path id="DejaVuSans-61" d="M 2194 1759 
Q 1497 1759 1228 1600 
Q 959 1441 959 1056 
Q 959 750 1161 570 
Q 1363 391 1709 391 
Q 2188 391 2477 730 
Q 2766 1069 2766 1631 
L 2766 1759 
L 2194 1759 
z
M 3341 1997 
L 3341 0 
L 2766 0 
L 2766 531 
Q 2569 213 2275 61 
Q 1981 -91 1556 -91 
Q 1019 -91 701 211 
Q 384 513 384 1019 
Q 384 1609 779 1909 
Q 1175 2209 1959 2209 
L 2766 2209 
L 2766 2266 
Q 2766 2663 2505 2880 
Q 2244 3097 1772 3097 
Q 1472 3097 1187 3025 
Q 903 2953 641 2809 
L 641 3341 
Q 956 3463 1253 3523 
Q 1550 3584 1831 3584 
Q 2591 3584 2966 3190 
Q 3341 2797 3341 1997 
z
" transform="scale(0.015625)"/>
      <path id="DejaVuSans-51" d="M 2522 4238 
Q 1834 4238 1429 3725 
Q 1025 3213 1025 2328 
Q 1025 1447 1429 934 
Q 1834 422 2522 422 
Q 3209 422 3611 934 
Q 4013 1447 4013 2328 
Q 4013 3213 3611 3725 
Q 3209 4238 2522 4238 
z
M 3406 84 
L 4238 -825 
L 3475 -825 
L 2784 -78 
Q 2681 -84 2626 -87 
Q 2572 -91 2522 -91 
Q 1538 -91 948 567 
Q 359 1225 359 2328 
Q 359 3434 948 4092 
Q 1538 4750 2522 4750 
Q 3503 4750 4090 4092 
Q 4678 3434 4678 2328 
Q 4678 1516 4351 937 
Q 4025 359 3406 84 
z
" transform="scale(0.015625)"/>
      <path id="DejaVuSans-37" d="M 525 4666 
L 3525 4666 
L 3525 4397 
L 1831 0 
L 1172 0 
L 2766 4134 
L 525 4134 
L 525 4666 
z
" transform="scale(0.015625)"/>
      <path id="DejaVuSans-2e" d="M 684 794 
L 1344 794 
L 1344 0 
L 684 0 
L 684 794 
z
" transform="scale(0.015625)"/>
      <path id="DejaVuSans-29" d="M 513 4856 
L 1013 4856 
Q 1481 4119 1714 3412 
Q 1947 2706 1947 2009 
Q 1947 1309 1714 600 
Q 1481 -109 1013 -844 
L 513 -844 
Q 928 -128 1133 580 
Q 1338 1288 1338 2009 
Q 1338 2731 1133 3434 
Q 928 4138 513 4856 
z
" transform="scale(0.015625)"/>
     </defs>
     <use xlink:href="#DejaVuSans-41"/>
     <use xlink:href="#DejaVuSans-74" transform="translate(66.658203 0)"/>
     <use xlink:href="#DejaVuSans-6f" transform="translate(105.867188 0)"/>
     <use xlink:href="#DejaVuSans-6d" transform="translate(167.048828 0)"/>
     <use xlink:href="#DejaVuSans-20" transform="translate(264.460938 0)"/>
     <use xlink:href="#DejaVuSans-54" transform="translate(296.248047 0)"/>
     <use xlink:href="#DejaVuSans-79" transform="translate(341.707031 0)"/>
     <use xlink:href="#DejaVuSans-70" transform="translate(400.886719 0)"/>
     <use xlink:href="#DejaVuSans-65" transform="translate(464.363281 0)"/>
     <use xlink:href="#DejaVuSans-20" transform="translate(525.886719 0)"/>
     <use xlink:href="#DejaVuSans-48" transform="translate(557.673828 0)"/>
     <use xlink:href="#DejaVuSans-20" transform="translate(632.869141 0)"/>
     <use xlink:href="#DejaVuSans-28" transform="translate(664.65625 0)"/>
     <use xlink:href="#DejaVuSans-6e" transform="translate(703.669922 0)"/>
     <use xlink:href="#DejaVuSans-3d" transform="translate(767.048828 0)"/>
     <use xlink:href="#DejaVuSans-39" transform="translate(850.837891 0)"/>
     <use xlink:href="#DejaVuSans-30" transform="translate(914.460938 0)"/>
     <use xlink:href="#DejaVuSans-2c" transform="translate(978.083984 0)"/>
     <use xlink:href="#DejaVuSans-20" transform="translate(1009.871094 0)"/>
     <use xlink:href="#DejaVuSans-6d" transform="translate(1041.658203 0)"/>
     <use xlink:href="#DejaVuSans-65" transform="translate(1139.070312 0)"/>
     <use xlink:href="#DejaVuSans-61" transform="translate(1200.59375 0)"/>
     <use xlink:href="#DejaVuSans-6e" transform="translate(1261.873047 0)"/>
     <use xlink:href="#DejaVuSans-20" transform="translate(1325.251953 0)"/>
     <use xlink:href="#DejaVuSans-51" transform="translate(1357.039062 0)"/>
     <use xlink:href="#DejaVuSans-3d" transform="translate(1435.75 0)"/>
     <use xlink:href="#DejaVuSans-37" transform="translate(1519.539062 0)"/>
     <use xlink:href="#DejaVuSans-2e" transform="translate(1583.162109 0)"/>
     <use xlink:href="#DejaVuSans-35" transform="translate(1614.949219 0)"/>
     <use xlink:href="#DejaVuSans-37" transform="translate(1678.572266 0)"/>
     <use xlink:href="#DejaVuSans-29" transform="translate(1742.195312 0)"/>
    </g>
   </g>
  </g>
 </g>
 <defs>
  <clipPath id="pa0a68192ce">
   <rect x="57.6" y="41.472" width="357.12" height="266.112"/>
  </clipPath>
 </defs>
</svg>
