<?xml version="1.0" encoding="utf-8" standalone="no"?>
<!DOCTYPE svg PUBLIC "-//W3C//DTD SVG 1.1//EN"
  "http://www.w3.org/Graphics/SVG/1.1/DTD/svg11.dtd">
<svg xmlns:xlink="http://www.w3.org/1999/xlink" width="460.8pt" height="345.6pt" viewBox="0 0 460.8 345.6" xmlns="http://www.w3.org/2000/svg" version="1.1">
 <metadata>
  <rdf:RDF xmlns:dc="http://purl.org/dc/elements/1.1/" xmlns:cc="http://creativecommons.org/ns#" xmlns:rdf="http://www.w3.org/1999/02/22-rdf-syntax-ns#">
   <cc:Work>
    <dc:type rdf:resource="http://purl.org/dc/dcmitype/StillImage"/>
    <dc:date>2025-12-10T13:51:29.176466</dc:date>
    <dc:format>image/svg+xml</dc:format>
    <dc:creator>
     <cc:Agent>
      <dc:title>Matplotlib v3.10.3, https://matplotlib.org/</dc:title>
     </cc:Agent>
    </dc:creator>
   </cc:Work>
  </rdf:RDF>
 </metadata>
 <defs>
  <style type="text/css">*{stroke-linejoin: round; stroke-linecap: butt}</style>
 </defs>
 <g id="figure_1">
  <g id="patch_1">
   <path d="M 0 345.6 
L 460.8 345.6 
L 460.8 0 
L 0 0 
z
" style="fill: #ffffff"/>
  </g>
  <g id="axes_1">
   <g id="patch_2">
    <path d="M 57.6 307.584 
L 414.72 307.584 
L 414.72 41.472 
L 57.6 41.472 
z
" style="fill: #ffffff"/>
   </g>
   <g id="matplotlib.axis_1">
    <g id="xtick_1">
     <g id="line2d_1">
      <defs>
       <path id="me49259cfd6" d="M 0 0 
L 0 3.5 
" style="stroke: #000000; stroke-width: 0.8"/>
      </defs>
      <g>
       <use xlink:href="#me49259cfd6" x="73.832727" y="307.584" style="stroke: #000000; stroke-width: 0.8"/>
      </g>
     </g>
     <g id="text_1">
      <!-- 0 -->
      <g transform="translate(69.060852 325.981656) scale(0.15 -0.15)">
       <defs>
        <path id="DejaVuSans-30" d="M 2034 4250 
Q 1547 4250 1301 3770 
Q 1056 3291 1056 2328 
Q 1056 1369 1301 889 
Q 1547 409 2034 409 
Q 2525 409 2770 889 
Q 3016 1369 3016 2328 
Q 3016 3291 2770 3770 
Q 2525 4250 2034 4250 
z
M 2034 4750 
Q 2819 4750 3233 4129 
Q 3647 3509 3647 2328 
Q 3647 1150 3233 529 
Q 2819 -91 2034 -91 
Q 1250 -91 836 529 
Q 422 1150 422 2328 
Q 422 3509 836 4129 
Q 1250 4750 2034 4750 
z
" transform="scale(0.015625)"/>
       </defs>
       <use xlink:href="#DejaVuSans-30"/>
      </g>
     </g>
    </g>
    <g id="xtick_2">
     <g id="line2d_2">
      <g>
       <use xlink:href="#me49259cfd6" x="154.996364" y="307.584" style="stroke: #000000; stroke-width: 0.8"/>
      </g>
     </g>
     <g id="text_2">
      <!-- 5 -->
      <g transform="translate(150.224489 325.981656) scale(0.15 -0.15)">
       <defs>
        <path id="DejaVuSans-35" d="M 691 4666 
L 3169 4666 
L 3169 4134 
L 1269 4134 
L 1269 2991 
Q 1406 3038 1543 3061 
Q 1681 3084 1819 3084 
Q 2600 3084 3056 2656 
Q 3513 2228 3513 1497 
Q 3513 744 3044 326 
Q 2575 -91 1722 -91 
Q 1428 -91 1123 -41 
Q 819 9 494 109 
L 494 744 
Q 775 591 1075 516 
Q 1375 441 1709 441 
Q 2250 441 2565 725 
Q 2881 1009 2881 1497 
Q 2881 1984 2565 2268 
Q 2250 2553 1709 2553 
Q 1456 2553 1204 2497 
Q 953 2441 691 2322 
L 691 4666 
z
" transform="scale(0.015625)"/>
       </defs>
       <use xlink:href="#DejaVuSans-35"/>
      </g>
     </g>
    </g>
    <g id="xtick_3">
     <g id="line2d_3">
      <g>
       <use xlink:href="#me49259cfd6" x="236.16" y="307.584" style="stroke: #000000; stroke-width: 0.8"/>
      </g>
     </g>
     <g id="text_3">
      <!-- 10 -->
      <g transform="translate(226.61625 325.981656) scale(0.15 -0.15)">
       <defs>
        <path id="DejaVuSans-31" d="M 794 531 
L 1825 531 
L 1825 4091 
L 703 3866 
L 703 4441 
L 1819 4666 
L 2450 4666 
L 2450 531 
L 3481 531 
L 3481 0 
L 794 0 
L 794 531 
z
" transform="scale(0.015625)"/>
       </defs>
       <use xlink:href="#DejaVuSans-31"/>
       <use xlink:href="#DejaVuSans-30" transform="translate(63.623047 0)"/>
      </g>
     </g>
    </g>
    <g id="xtick_4">
     <g id="line2d_4">
      <g>
       <use xlink:href="#me49259cfd6" x="317.323636" y="307.584" style="stroke: #000000; stroke-width: 0.8"/>
      </g>
     </g>
     <g id="text_4">
      <!-- 15 -->
      <g transform="translate(307.779886 325.981656) scale(0.15 -0.15)">
       <use xlink:href="#DejaVuSans-31"/>
       <use xlink:href="#DejaVuSans-35" transform="translate(63.623047 0)"/>
      </g>
     </g>
    </g>
    <g id="xtick_5">
     <g id="line2d_5">
      <g>
       <use xlink:href="#me49259cfd6" x="398.487273" y="307.584" style="stroke: #000000; stroke-width: 0.8"/>
      </g>
     </g>
     <g id="text_5">
      <!-- 20 -->
      <g transform="translate(388.943523 325.981656) scale(0.15 -0.15)">
       <defs>
        <path id="DejaVuSans-32" d="M 1228 531 
L 3431 531 
L 3431 0 
L 469 0 
L 469 531 
Q 828 903 1448 1529 
Q 2069 2156 2228 2338 
Q 2531 2678 2651 2914 
Q 2772 3150 2772 3378 
Q 2772 3750 2511 3984 
Q 2250 4219 1831 4219 
Q 1534 4219 1204 4116 
Q 875 4013 500 3803 
L 500 4441 
Q 881 4594 1212 4672 
Q 1544 4750 1819 4750 
Q 2544 4750 2975 4387 
Q 3406 4025 3406 3419 
Q 3406 3131 3298 2873 
Q 3191 2616 2906 2266 
Q 2828 2175 2409 1742 
Q 1991 1309 1228 531 
z
" transform="scale(0.015625)"/>
       </defs>
       <use xlink:href="#DejaVuSans-32"/>
       <use xlink:href="#DejaVuSans-30" transform="translate(63.623047 0)"/>
      </g>
     </g>
    </g>
   </g>
   <g id="matplotlib.axis_2">
    <g id="ytick_1">
     <g id="line2d_6">
      <defs>
       <path id="m36007cd520" d="M 0 0 
L -3.5 0 
" style="stroke: #000000; stroke-width: 0.8"/>
      </defs>
      <g>
       <use xlink:href="#m36007cd520" x="57.6" y="283.137429" style="stroke: #000000; stroke-width: 0.8"/>
      </g>
     </g>
     <g id="text_6">
      <!-- 5 -->
      <g transform="translate(41.05625 288.836257) scale(0.15 -0.15)">
       <use xlink:href="#DejaVuSans-35"/>
      </g>
     </g>
    </g>
    <g id="ytick_2">
     <g id="line2d_7">
      <g>
       <use xlink:href="#m36007cd520" x="57.6" y="219.03256" style="stroke: #000000; stroke-width: 0.8"/>
      </g>
     </g>
     <g id="text_7">
      <!-- 10 -->
      <g transform="translate(31.5125 224.731388) scale(0.15 -0.15)">
       <use xlink:href="#DejaVuSans-31"/>
       <use xlink:href="#DejaVuSans-30" transform="translate(63.623047 0)"/>
      </g>
     </g>
    </g>
    <g id="ytick_3">
     <g id="line2d_8">
      <g>
       <use xlink:href="#m36007cd520" x="57.6" y="154.927691" style="stroke: #000000; stroke-width: 0.8"/>
      </g>
     </g>
     <g id="text_8">
      <!-- 15 -->
      <g transform="translate(31.5125 160.626519) scale(0.15 -0.15)">
       <use xlink:href="#DejaVuSans-31"/>
       <use xlink:href="#DejaVuSans-35" transform="translate(63.623047 0)"/>
      </g>
     </g>
    </g>
    <g id="ytick_4">
     <g id="line2d_9">
      <g>
       <use xlink:href="#m36007cd520" x="57.6" y="90.822822" style="stroke: #000000; stroke-width: 0.8"/>
      </g>
     </g>
     <g id="text_9">
      <!-- 20 -->
      <g transform="translate(31.5125 96.521651) scale(0.15 -0.15)">
       <use xlink:href="#DejaVuSans-32"/>
       <use xlink:href="#DejaVuSans-30" transform="translate(63.623047 0)"/>
      </g>
     </g>
    </g>
   </g>
   <g id="line2d_10">
    <path d="M 73.832727 254.363945 
L 90.065455 236.269421 
L 106.298182 264.601208 
L 122.530909 251.33526 
L 138.763636 229.084917 
L 154.996364 253.654059 
L 171.229091 218.031659 
L 187.461818 207.60388 
L 203.694545 236.184127 
L 219.927273 228.26083 
L 236.16 245.104499 
L 252.392727 257.101731 
L 268.625455 250.4849 
L 284.858182 256.667002 
L 301.090909 272.328538 
L 317.323636 240.177125 
L 333.556364 254.875942 
L 349.789091 250.046923 
L 366.021818 274.795121 
L 382.254545 260.770634 
L 398.487273 273.341781 
" clip-path="url(#p6bcbadc6d9)" style="fill: none; stroke: #31688e; stroke-opacity: 0.5; stroke-width: 1.5; stroke-linecap: square"/>
   </g>
   <g id="line2d_11">
    <path d="M 73.832727 217.092723 
L 90.065455 268.985216 
L 106.298182 237.301148 
L 122.530909 266.83513 
L 138.763636 206.132732 
L 154.996364 250.59661 
L 171.229091 249.242784 
L 187.461818 266.196065 
L 203.694545 276.629651 
L 219.927273 269.878821 
L 236.16 285.708586 
L 252.392727 269.752044 
L 268.625455 265.174699 
L 284.858182 270.474301 
L 301.090909 268.653789 
L 317.323636 279.04493 
L 333.556364 278.107726 
L 349.789091 253.861584 
L 366.021818 271.46439 
L 382.254545 271.235029 
L 398.487273 271.300427 
" clip-path="url(#p6bcbadc6d9)" style="fill: none; stroke: #31688e; stroke-opacity: 0.5; stroke-width: 1.5; stroke-linecap: square"/>
   </g>
   <g id="line2d_12">
    <path d="M 73.832727 266.810451 
L 90.065455 250.204152 
L 106.298182 277.994049 
L 122.530909 251.038588 
L 138.763636 253.561559 
L 154.996364 271.493974 
L 171.229091 268.314652 
L 187.461818 261.905952 
L 203.694545 264.094069 
L 219.927273 279.009727 
L 236.16 274.131223 
L 252.392727 262.808397 
L 268.625455 262.838663 
L 284.858182 251.430179 
L 301.090909 260.067753 
L 317.323636 272.609055 
L 333.556364 251.655446 
L 349.789091 249.788653 
L 366.021818 257.343156 
L 382.254545 263.041514 
L 398.487273 281.561913 
" clip-path="url(#p6bcbadc6d9)" style="fill: none; stroke: #31688e; stroke-opacity: 0.5; stroke-width: 1.5; stroke-linecap: square"/>
   </g>
   <g id="line2d_13">
    <path d="M 73.832727 246.127664 
L 90.065455 231.49562 
L 106.298182 220.776026 
L 122.530909 218.459197 
L 138.763636 234.005247 
L 154.996364 258.995282 
L 171.229091 265.949924 
L 187.461818 239.144567 
L 203.694545 258.256451 
L 219.927273 236.279748 
L 236.16 221.09899 
L 252.392727 265.03095 
L 268.625455 200.525018 
L 284.858182 223.311696 
L 301.090909 272.076559 
L 317.323636 257.545928 
L 333.556364 256.982534 
L 349.789091 263.236775 
L 366.021818 249.656221 
L 382.254545 256.592406 
L 398.487273 213.117012 
" clip-path="url(#p6bcbadc6d9)" style="fill: none; stroke: #31688e; stroke-opacity: 0.5; stroke-width: 1.5; stroke-linecap: square"/>
   </g>
   <g id="line2d_14">
    <path d="M 73.832727 165.637162 
L 90.065455 194.54985 
L 106.298182 235.832674 
L 122.530909 220.957719 
L 138.763636 250.255005 
L 154.996364 243.373911 
L 171.229091 218.246818 
L 187.461818 207.526188 
L 203.694545 257.570134 
L 219.927273 208.290013 
L 236.16 209.323118 
L 252.392727 193.73316 
L 268.625455 216.474229 
L 284.858182 228.881108 
L 301.090909 213.427649 
L 317.323636 229.552347 
L 333.556364 228.415546 
L 349.789091 214.263403 
L 366.021818 224.096997 
L 382.254545 204.086119 
L 398.487273 202.045793 
" clip-path="url(#p6bcbadc6d9)" style="fill: none; stroke: #31688e; stroke-opacity: 0.5; stroke-width: 1.5; stroke-linecap: square"/>
   </g>
   <g id="line2d_15">
    <path d="M 73.832727 177.910683 
L 90.065455 236.880189 
L 106.298182 227.315398 
L 122.530909 209.280788 
L 138.763636 221.99588 
L 154.996364 210.209981 
L 171.229091 216.025402 
L 187.461818 171.421183 
L 203.694545 254.106351 
L 219.927273 255.939605 
L 236.16 233.357645 
L 252.392727 230.796059 
L 268.625455 197.072041 
L 284.858182 189.791133 
L 301.090909 159.807722 
L 317.323636 201.113132 
L 333.556364 225.701283 
L 349.789091 198.881684 
L 366.021818 218.87272 
L 382.254545 226.748442 
L 398.487273 149.838028 
" clip-path="url(#p6bcbadc6d9)" style="fill: none; stroke: #31688e; stroke-opacity: 0.5; stroke-width: 1.5; stroke-linecap: square"/>
   </g>
   <g id="line2d_16">
    <path d="M 73.832727 244.005717 
L 90.065455 224.769325 
L 106.298182 262.702924 
L 122.530909 249.470569 
L 138.763636 276.740481 
L 154.996364 243.252466 
L 171.229091 271.512281 
L 187.461818 281.421458 
L 203.694545 260.500593 
L 219.927273 260.661204 
L 236.16 277.192616 
L 252.392727 260.171822 
L 268.625455 270.950835 
L 284.858182 263.60056 
L 301.090909 250.197795 
L 317.323636 273.313429 
L 333.556364 244.332624 
L 349.789091 242.888014 
L 366.021818 266.084143 
L 382.254545 256.50206 
L 398.487273 263.938902 
" clip-path="url(#p6bcbadc6d9)" style="fill: none; stroke: #31688e; stroke-opacity: 0.5; stroke-width: 1.5; stroke-linecap: square"/>
   </g>
   <g id="line2d_17">
    <path d="M 73.832727 253.305337 
L 90.065455 229.762674 
L 106.298182 238.211179 
L 122.530909 187.786377 
L 138.763636 269.959518 
L 154.996364 267.346426 
L 171.229091 256.341661 
L 187.461818 238.760501 
L 203.694545 266.39941 
L 219.927273 279.481363 
L 236.16 258.713123 
L 252.392727 268.68916 
L 268.625455 241.486574 
L 284.858182 270.137465 
L 301.090909 215.093747 
L 317.323636 224.895274 
L 333.556364 252.20071 
L 349.789091 224.969417 
L 366.021818 240.044046 
L 382.254545 214.600895 
L 398.487273 254.083934 
" clip-path="url(#p6bcbadc6d9)" style="fill: none; stroke: #31688e; stroke-opacity: 0.5; stroke-width: 1.5; stroke-linecap: square"/>
   </g>
   <g id="line2d_18">
    <path d="M 73.832727 217.838103 
L 90.065455 242.146523 
L 106.298182 256.601328 
L 122.530909 260.454572 
L 138.763636 258.13111 
L 154.996364 232.227934 
L 171.229091 265.583735 
L 187.461818 261.442196 
L 203.694545 244.941016 
L 219.927273 249.422474 
L 236.16 191.765412 
L 252.392727 214.222736 
L 268.625455 231.199398 
L 284.858182 216.304933 
L 301.090909 248.373572 
L 317.323636 215.652339 
L 333.556364 220.707773 
L 349.789091 217.468834 
L 366.021818 222.786002 
L 382.254545 240.892519 
L 398.487273 209.198968 
" clip-path="url(#p6bcbadc6d9)" style="fill: none; stroke: #31688e; stroke-opacity: 0.5; stroke-width: 1.5; stroke-linecap: square"/>
   </g>
   <g id="line2d_19">
    <path d="M 73.832727 150.335481 
L 90.065455 184.379468 
L 106.298182 188.282428 
L 122.530909 213.425952 
L 138.763636 231.645326 
L 154.996364 211.752988 
L 171.229091 201.6987 
L 187.461818 183.075063 
L 203.694545 218.975297 
L 219.927273 232.696776 
L 236.16 222.906229 
L 252.392727 203.536379 
L 268.625455 225.167782 
L 284.858182 223.560294 
L 301.090909 216.556739 
L 317.323636 227.586701 
L 333.556364 224.268106 
L 349.789091 225.656893 
L 366.021818 242.93927 
L 382.254545 206.115371 
L 398.487273 208.29536 
" clip-path="url(#p6bcbadc6d9)" style="fill: none; stroke: #31688e; stroke-opacity: 0.5; stroke-width: 1.5; stroke-linecap: square"/>
   </g>
   <g id="line2d_20">
    <path d="M 73.832727 240.333624 
L 90.065455 260.565122 
L 106.298182 253.439894 
L 122.530909 246.496637 
L 138.763636 243.510781 
L 154.996364 252.260046 
L 171.229091 223.177794 
L 187.461818 261.177005 
L 203.694545 251.588947 
L 219.927273 258.199499 
L 236.16 247.016944 
L 252.392727 271.443589 
L 268.625455 253.363319 
L 284.858182 241.817826 
L 301.090909 263.017611 
L 317.323636 256.302408 
L 333.556364 256.63437 
L 349.789091 279.388148 
L 366.021818 218.413827 
L 382.254545 246.505102 
L 398.487273 269.364786 
" clip-path="url(#p6bcbadc6d9)" style="fill: none; stroke: #31688e; stroke-opacity: 0.5; stroke-width: 1.5; stroke-linecap: square"/>
   </g>
   <g id="line2d_21">
    <path d="M 73.832727 180.067596 
L 90.065455 243.421365 
L 106.298182 236.716088 
L 122.530909 264.293029 
L 138.763636 267.907284 
L 154.996364 263.907641 
L 171.229091 265.754314 
L 187.461818 272.946189 
L 203.694545 251.641569 
L 219.927273 268.96768 
L 236.16 240.381205 
L 252.392727 271.233526 
L 268.625455 257.847851 
L 284.858182 200.912349 
L 301.090909 216.98702 
L 317.323636 257.776747 
L 333.556364 218.858387 
L 349.789091 195.846967 
L 366.021818 247.060556 
L 382.254545 173.760269 
L 398.487273 206.555073 
" clip-path="url(#p6bcbadc6d9)" style="fill: none; stroke: #31688e; stroke-opacity: 0.5; stroke-width: 1.5; stroke-linecap: square"/>
   </g>
   <g id="line2d_22">
    <path d="M 73.832727 266.161644 
L 90.065455 226.914612 
L 106.298182 256.64149 
L 122.530909 272.451969 
L 138.763636 276.769933 
L 154.996364 253.694492 
L 171.229091 270.868293 
L 187.461818 274.691219 
L 203.694545 250.796977 
L 219.927273 253.955199 
L 236.16 251.426128 
L 252.392727 264.3017 
L 268.625455 251.092583 
L 284.858182 253.810774 
L 301.090909 269.08469 
L 317.323636 250.934099 
L 333.556364 279.488168 
L 349.789091 273.139081 
L 366.021818 247.720421 
L 382.254545 260.335201 
L 398.487273 241.713819 
" clip-path="url(#p6bcbadc6d9)" style="fill: none; stroke: #31688e; stroke-opacity: 0.5; stroke-width: 1.5; stroke-linecap: square"/>
   </g>
   <g id="line2d_23">
    <path d="M 73.832727 225.32539 
L 90.065455 252.765853 
L 106.298182 227.193301 
L 122.530909 250.499554 
L 138.763636 257.65058 
L 154.996364 234.536413 
L 171.229091 229.641429 
L 187.461818 229.190054 
L 203.694545 215.346391 
L 219.927273 238.473653 
L 236.16 234.484054 
L 252.392727 218.711222 
L 268.625455 234.049829 
L 284.858182 201.064931 
L 301.090909 247.312134 
L 317.323636 241.821327 
L 333.556364 224.69404 
L 349.789091 233.683136 
L 366.021818 220.764864 
L 382.254545 247.947399 
L 398.487273 226.76787 
" clip-path="url(#p6bcbadc6d9)" style="fill: none; stroke: #31688e; stroke-opacity: 0.5; stroke-width: 1.5; stroke-linecap: square"/>
   </g>
   <g id="line2d_24">
    <path d="M 73.832727 195.530304 
L 90.065455 62.133018 
L 106.298182 66.041328 
L 122.530909 91.967412 
L 138.763636 170.552447 
L 154.996364 208.482508 
L 171.229091 166.878703 
L 187.461818 196.09233 
L 203.694545 201.333289 
L 219.927273 214.507241 
L 236.16 214.658561 
L 252.392727 192.950678 
L 268.625455 238.114593 
L 284.858182 192.173196 
L 301.090909 217.625607 
L 317.323636 234.97396 
L 333.556364 214.154025 
L 349.789091 217.177944 
L 366.021818 218.949885 
L 382.254545 220.548186 
L 398.487273 204.265956 
" clip-path="url(#p6bcbadc6d9)" style="fill: none; stroke: #31688e; stroke-opacity: 0.5; stroke-width: 1.5; stroke-linecap: square"/>
   </g>
   <g id="line2d_25">
    <path d="M 73.832727 181.705414 
L 90.065455 162.430137 
L 106.298182 165.087545 
L 122.530909 130.41542 
L 138.763636 145.322279 
L 154.996364 144.279782 
L 171.229091 154.837975 
L 187.461818 140.045923 
L 203.694545 190.051775 
L 219.927273 187.529532 
L 236.16 207.625979 
L 252.392727 216.149599 
L 268.625455 232.93155 
L 284.858182 204.265284 
L 301.090909 188.928707 
L 317.323636 234.993643 
L 333.556364 226.776336 
L 349.789091 241.110811 
L 366.021818 205.098426 
L 382.254545 213.614358 
L 398.487273 194.817396 
" clip-path="url(#p6bcbadc6d9)" style="fill: none; stroke: #31688e; stroke-opacity: 0.5; stroke-width: 1.5; stroke-linecap: square"/>
   </g>
   <g id="line2d_26">
    <path d="M 73.832727 256.28075 
L 90.065455 233.582571 
L 106.298182 231.428543 
L 122.530909 276.232731 
L 138.763636 262.465015 
L 154.996364 249.679889 
L 171.229091 238.808106 
L 187.461818 255.986645 
L 203.694545 271.936073 
L 219.927273 266.478798 
L 236.16 260.025828 
L 252.392727 255.322986 
L 268.625455 251.979472 
L 284.858182 247.532346 
L 301.090909 248.235248 
L 317.323636 251.894855 
L 333.556364 271.12371 
L 349.789091 249.280677 
L 366.021818 247.668237 
L 382.254545 263.276481 
L 398.487273 260.158469 
" clip-path="url(#p6bcbadc6d9)" style="fill: none; stroke: #31688e; stroke-opacity: 0.5; stroke-width: 1.5; stroke-linecap: square"/>
   </g>
   <g id="line2d_27">
    <path d="M 73.832727 198.990802 
L 90.065455 194.214138 
L 106.298182 176.465476 
L 122.530909 132.501645 
L 138.763636 170.774761 
L 154.996364 174.92067 
L 171.229091 207.897936 
L 187.461818 168.866682 
L 203.694545 219.947273 
L 219.927273 199.034113 
L 236.16 192.888575 
L 252.392727 188.683348 
L 268.625455 212.630923 
L 284.858182 177.534948 
L 301.090909 197.321216 
L 317.323636 202.194019 
L 333.556364 193.816051 
L 349.789091 219.586574 
L 366.021818 157.864986 
L 382.254545 205.493268 
L 398.487273 160.370246 
" clip-path="url(#p6bcbadc6d9)" style="fill: none; stroke: #31688e; stroke-opacity: 0.5; stroke-width: 1.5; stroke-linecap: square"/>
   </g>
   <g id="line2d_28">
    <path d="M 73.832727 207.379376 
L 90.065455 166.733163 
L 106.298182 183.035915 
L 122.530909 121.474279 
L 138.763636 106.847309 
L 154.996364 158.035789 
L 171.229091 224.503788 
L 187.461818 219.469715 
L 203.694545 236.179458 
L 219.927273 212.496438 
L 236.16 212.367728 
L 252.392727 211.60474 
L 268.625455 248.820798 
L 284.858182 210.868795 
L 301.090909 247.281869 
L 317.323636 216.532686 
L 333.556364 238.702959 
L 349.789091 242.549857 
L 366.021818 211.060812 
L 382.254545 245.524219 
L 398.487273 163.698625 
" clip-path="url(#p6bcbadc6d9)" style="fill: none; stroke: #31688e; stroke-opacity: 0.5; stroke-width: 1.5; stroke-linecap: square"/>
   </g>
   <g id="line2d_29">
    <path d="M 73.832727 276.512581 
L 90.065455 162.098531 
L 106.298182 224.344198 
L 122.530909 214.70901 
L 138.763636 200.410141 
L 154.996364 252.59269 
L 171.229091 228.322648 
L 187.461818 249.828764 
L 203.694545 256.357179 
L 219.927273 241.985466 
L 236.16 217.807785 
L 252.392727 252.28546 
L 268.625455 257.274914 
L 284.858182 251.609954 
L 301.090909 246.253437 
L 317.323636 240.578034 
L 333.556364 270.415195 
L 349.789091 265.03954 
L 366.021818 259.471411 
L 382.254545 254.545506 
L 398.487273 246.609697 
" clip-path="url(#p6bcbadc6d9)" style="fill: none; stroke: #31688e; stroke-opacity: 0.5; stroke-width: 1.5; stroke-linecap: square"/>
   </g>
   <g id="line2d_30">
    <path d="M 73.832727 256.567705 
L 90.065455 253.625298 
L 106.298182 234.072563 
L 122.530909 223.028952 
L 138.763636 241.924717 
L 154.996364 254.563325 
L 171.229091 270.184993 
L 187.461818 273.34773 
L 203.694545 257.533139 
L 219.927273 258.998017 
L 236.16 249.521083 
L 252.392727 249.413845 
L 268.625455 237.893438 
L 284.858182 245.269431 
L 301.090909 254.208491 
L 317.323636 233.312854 
L 333.556364 234.970631 
L 349.789091 248.035881 
L 366.021818 251.455322 
L 382.254545 241.216236 
L 398.487273 211.910297 
" clip-path="url(#p6bcbadc6d9)" style="fill: none; stroke: #31688e; stroke-opacity: 0.5; stroke-width: 1.5; stroke-linecap: square"/>
   </g>
   <g id="line2d_31">
    <path d="M 73.832727 107.225657 
L 90.065455 53.568 
L 106.298182 107.204175 
L 122.530909 197.078075 
L 138.763636 210.23722 
L 154.996364 178.736463 
L 171.229091 82.863704 
L 187.461818 81.303664 
L 203.694545 72.967585 
L 219.927273 191.177668 
L 236.16 212.825536 
L 252.392727 205.459538 
L 268.625455 225.37155 
L 284.858182 195.362151 
L 301.090909 172.023063 
L 317.323636 244.103511 
L 333.556364 224.766988 
L 349.789091 234.748493 
L 366.021818 197.372982 
L 382.254545 178.60477 
L 398.487273 243.664849 
" clip-path="url(#p6bcbadc6d9)" style="fill: none; stroke: #31688e; stroke-opacity: 0.5; stroke-width: 1.5; stroke-linecap: square"/>
   </g>
   <g id="line2d_32">
    <path d="M 73.832727 260.723656 
L 90.065455 243.798223 
L 106.298182 263.808581 
L 122.530909 264.861832 
L 138.763636 277.388088 
L 154.996364 270.358603 
L 171.229091 252.22727 
L 187.461818 261.258489 
L 203.694545 245.355951 
L 219.927273 285.945582 
L 236.16 275.16917 
L 252.392727 283.255884 
L 268.625455 242.938878 
L 284.858182 288.65526 
L 301.090909 281.172823 
L 317.323636 275.544076 
L 333.556364 286.755769 
L 349.789091 282.971955 
L 366.021818 291.922457 
L 382.254545 291.548201 
L 398.487273 281.016597 
" clip-path="url(#p6bcbadc6d9)" style="fill: none; stroke: #31688e; stroke-opacity: 0.5; stroke-width: 1.5; stroke-linecap: square"/>
   </g>
   <g id="line2d_33">
    <path d="M 73.832727 127.917112 
L 90.065455 155.829875 
L 106.298182 173.122473 
L 122.530909 201.048469 
L 138.763636 199.673494 
L 154.996364 204.780923 
L 171.229091 164.8414 
L 187.461818 160.130008 
L 203.694545 177.626626 
L 219.927273 217.243769 
L 236.16 213.497051 
L 252.392727 214.306376 
L 268.625455 217.797917 
L 284.858182 211.873516 
L 301.090909 219.934685 
L 317.323636 211.468138 
L 333.556364 215.347558 
L 349.789091 216.788634 
L 366.021818 224.733849 
L 382.254545 234.402656 
L 398.487273 228.025003 
" clip-path="url(#p6bcbadc6d9)" style="fill: none; stroke: #31688e; stroke-opacity: 0.5; stroke-width: 1.5; stroke-linecap: square"/>
   </g>
   <g id="line2d_34">
    <path d="M 73.832727 132.474517 
L 90.065455 169.044751 
L 106.298182 191.172357 
L 122.530909 213.257302 
L 138.763636 193.963486 
L 154.996364 246.814362 
L 171.229091 205.059175 
L 187.461818 221.171466 
L 203.694545 230.525183 
L 219.927273 265.684364 
L 236.16 268.061911 
L 252.392727 260.402453 
L 268.625455 250.485434 
L 284.858182 243.950309 
L 301.090909 269.040794 
L 317.323636 260.807693 
L 333.556364 251.981135 
L 349.789091 261.937129 
L 366.021818 260.957253 
L 382.254545 257.643592 
L 398.487273 266.281203 
" clip-path="url(#p6bcbadc6d9)" style="fill: none; stroke: #31688e; stroke-opacity: 0.5; stroke-width: 1.5; stroke-linecap: square"/>
   </g>
   <g id="line2d_35">
    <path d="M 73.832727 188.72493 
L 90.065455 216.109818 
L 106.298182 255.471398 
L 122.530909 226.483747 
L 138.763636 235.079446 
L 154.996364 268.707588 
L 171.229091 250.883733 
L 187.461818 267.28861 
L 203.694545 251.703396 
L 219.927273 264.016154 
L 236.16 278.926085 
L 252.392727 281.728846 
L 268.625455 258.741671 
L 284.858182 262.821359 
L 301.090909 263.536872 
L 317.323636 269.661521 
L 333.556364 273.44209 
L 349.789091 272.343165 
L 366.021818 266.644592 
L 382.254545 273.785096 
L 398.487273 270.92291 
" clip-path="url(#p6bcbadc6d9)" style="fill: none; stroke: #31688e; stroke-opacity: 0.5; stroke-width: 1.5; stroke-linecap: square"/>
   </g>
   <g id="line2d_36">
    <path d="M 73.832727 202.865385 
L 90.065455 246.297091 
L 106.298182 225.383667 
L 122.530909 236.921042 
L 138.763636 249.744196 
L 154.996364 261.883317 
L 171.229091 247.541735 
L 187.461818 240.692725 
L 203.694545 253.017113 
L 219.927273 255.12572 
L 236.16 234.849414 
L 252.392727 206.525253 
L 268.625455 244.779298 
L 284.858182 244.225666 
L 301.090909 257.377212 
L 317.323636 245.850178 
L 333.556364 255.591651 
L 349.789091 250.723815 
L 366.021818 248.67487 
L 382.254545 253.201015 
L 398.487273 264.748033 
" clip-path="url(#p6bcbadc6d9)" style="fill: none; stroke: #31688e; stroke-opacity: 0.5; stroke-width: 1.5; stroke-linecap: square"/>
   </g>
   <g id="line2d_37">
    <path d="M 73.832727 132.920263 
L 90.065455 200.760365 
L 106.298182 196.267128 
L 122.530909 204.223765 
L 138.763636 190.493952 
L 154.996364 225.717895 
L 171.229091 202.241321 
L 187.461818 218.646463 
L 203.694545 185.393963 
L 219.927273 238.416696 
L 236.16 268.972191 
L 252.392727 218.965019 
L 268.625455 153.809142 
L 284.858182 166.401113 
L 301.090909 141.600823 
L 317.323636 236.042385 
L 333.556364 184.240677 
L 349.789091 167.726384 
L 366.021818 134.698118 
L 382.254545 138.769826 
L 398.487273 179.111534 
" clip-path="url(#p6bcbadc6d9)" style="fill: none; stroke: #31688e; stroke-opacity: 0.5; stroke-width: 1.5; stroke-linecap: square"/>
   </g>
   <g id="line2d_38">
    <path d="M 73.832727 184.447299 
L 90.065455 276.831552 
L 106.298182 272.092081 
L 122.530909 282.443588 
L 138.763636 268.363597 
L 154.996364 260.49732 
L 171.229091 261.380019 
L 187.461818 254.341069 
L 203.694545 263.744296 
L 219.927273 273.902766 
L 236.16 273.482213 
L 252.392727 251.664377 
L 268.625455 267.059132 
L 284.858182 263.978578 
L 301.090909 275.507425 
L 317.323636 282.98982 
L 333.556364 265.857847 
L 349.789091 264.738233 
L 366.021818 240.762361 
L 382.254545 272.290983 
L 398.487273 253.501214 
" clip-path="url(#p6bcbadc6d9)" style="fill: none; stroke: #31688e; stroke-opacity: 0.5; stroke-width: 1.5; stroke-linecap: square"/>
   </g>
   <g id="line2d_39">
    <path d="M 73.832727 197.859383 
L 90.065455 212.047473 
L 106.298182 205.06702 
L 122.530909 233.688802 
L 138.763636 226.154884 
L 154.996364 228.111106 
L 171.229091 184.84427 
L 187.461818 217.867142 
L 203.694545 220.76592 
L 219.927273 216.859297 
L 236.16 226.647631 
L 252.392727 188.984916 
L 268.625455 202.340033 
L 284.858182 219.982435 
L 301.090909 194.940899 
L 317.323636 217.760546 
L 333.556364 193.078143 
L 349.789091 210.122006 
L 366.021818 222.139842 
L 382.254545 207.01877 
L 398.487273 231.963534 
" clip-path="url(#p6bcbadc6d9)" style="fill: none; stroke: #31688e; stroke-opacity: 0.5; stroke-width: 1.5; stroke-linecap: square"/>
   </g>
   <g id="line2d_40">
    <path d="M 73.832727 245.659857 
L 90.065455 236.069208 
L 106.298182 243.77515 
L 122.530909 250.624311 
L 138.763636 230.807986 
L 154.996364 247.483158 
L 171.229091 240.066651 
L 187.461818 237.260552 
L 203.694545 258.164084 
L 219.927273 264.145341 
L 236.16 255.771529 
L 252.392727 256.376326 
L 268.625455 253.558402 
L 284.858182 255.142988 
L 301.090909 251.853312 
L 317.323636 265.427535 
L 333.556364 256.466445 
L 349.789091 240.703348 
L 366.021818 268.291255 
L 382.254545 264.752194 
L 398.487273 267.758736 
" clip-path="url(#p6bcbadc6d9)" style="fill: none; stroke: #31688e; stroke-opacity: 0.5; stroke-width: 1.5; stroke-linecap: square"/>
   </g>
   <g id="line2d_41">
    <path d="M 73.832727 249.943394 
L 90.065455 233.646979 
L 106.298182 238.048879 
L 122.530909 275.313233 
L 138.763636 233.250728 
L 154.996364 263.933896 
L 171.229091 272.674845 
L 187.461818 267.711357 
L 203.694545 263.96832 
L 219.927273 275.154552 
L 236.16 272.516076 
L 252.392727 266.561247 
L 268.625455 254.606196 
L 284.858182 247.505494 
L 301.090909 250.4753 
L 317.323636 261.135929 
L 333.556364 249.023173 
L 349.789091 246.172343 
L 366.021818 261.917004 
L 382.254545 200.28036 
L 398.487273 249.73295 
" clip-path="url(#p6bcbadc6d9)" style="fill: none; stroke: #31688e; stroke-opacity: 0.5; stroke-width: 1.5; stroke-linecap: square"/>
   </g>
   <g id="line2d_42">
    <path d="M 73.832727 238.122768 
L 90.065455 235.58164 
L 106.298182 247.776173 
L 122.530909 235.987651 
L 138.763636 229.471343 
L 154.996364 252.414075 
L 171.229091 236.059122 
L 187.461818 251.117475 
L 203.694545 256.545782 
L 219.927273 257.740433 
L 236.16 239.749655 
L 252.392727 227.261438 
L 268.625455 245.013529 
L 284.858182 252.472486 
L 301.090909 243.324731 
L 317.323636 250.107642 
L 333.556364 231.15606 
L 349.789091 212.932238 
L 366.021818 246.440787 
L 382.254545 243.045166 
L 398.487273 252.446588 
" clip-path="url(#p6bcbadc6d9)" style="fill: none; stroke: #31688e; stroke-opacity: 0.5; stroke-width: 1.5; stroke-linecap: square"/>
   </g>
   <g id="line2d_43">
    <path d="M 73.832727 206.810165 
L 90.065455 114.101746 
L 106.298182 118.532544 
L 122.530909 85.365069 
L 138.763636 186.482008 
L 154.996364 271.526968 
L 171.229091 250.686973 
L 187.461818 267.176218 
L 203.694545 267.960092 
L 219.927273 272.972918 
L 236.16 261.356321 
L 252.392727 263.61773 
L 268.625455 272.553464 
L 284.858182 256.225929 
L 301.090909 275.998255 
L 317.323636 259.568232 
L 333.556364 264.532186 
L 349.789091 263.957592 
L 366.021818 275.934424 
L 382.254545 266.330631 
L 398.487273 273.819196 
" clip-path="url(#p6bcbadc6d9)" style="fill: none; stroke: #31688e; stroke-opacity: 0.5; stroke-width: 1.5; stroke-linecap: square"/>
   </g>
   <g id="line2d_44">
    <path d="M 73.832727 227.89703 
L 90.065455 262.043334 
L 106.298182 243.75776 
L 122.530909 165.891454 
L 138.763636 201.112231 
L 154.996364 205.818319 
L 171.229091 257.354573 
L 187.461818 258.639307 
L 203.694545 260.022871 
L 219.927273 270.869266 
L 236.16 252.290398 
L 252.392727 245.64917 
L 268.625455 259.173108 
L 284.858182 251.980342 
L 301.090909 273.043898 
L 317.323636 265.509347 
L 333.556364 255.518933 
L 349.789091 257.423801 
L 366.021818 254.672292 
L 382.254545 253.741663 
L 398.487273 246.664556 
" clip-path="url(#p6bcbadc6d9)" style="fill: none; stroke: #31688e; stroke-opacity: 0.5; stroke-width: 1.5; stroke-linecap: square"/>
   </g>
   <g id="line2d_45">
    <path d="M 73.832727 193.328944 
L 90.065455 176.994495 
L 106.298182 189.260568 
L 122.530909 207.328069 
L 138.763636 241.749382 
L 154.996364 214.426527 
L 171.229091 195.395977 
L 187.461818 208.600688 
L 203.694545 207.131474 
L 219.927273 238.362556 
L 236.16 199.684409 
L 252.392727 218.362269 
L 268.625455 200.278998 
L 284.858182 181.006324 
L 301.090909 213.723209 
L 317.323636 202.757353 
L 333.556364 200.177141 
L 349.789091 190.696723 
L 366.021818 186.113725 
L 382.254545 184.269227 
L 398.487273 203.281414 
" clip-path="url(#p6bcbadc6d9)" style="fill: none; stroke: #31688e; stroke-opacity: 0.5; stroke-width: 1.5; stroke-linecap: square"/>
   </g>
   <g id="line2d_46">
    <path d="M 73.832727 162.888209 
L 90.065455 170.82004 
L 106.298182 158.900407 
L 122.530909 223.517779 
L 138.763636 251.048003 
L 154.996364 190.55124 
L 171.229091 216.34964 
L 187.461818 190.330369 
L 203.694545 180.596049 
L 219.927273 223.872526 
L 236.16 192.341537 
L 252.392727 231.327425 
L 268.625455 236.546821 
L 284.858182 193.948674 
L 301.090909 249.215101 
L 317.323636 231.982663 
L 333.556364 174.786599 
L 349.789091 216.910197 
L 366.021818 171.010735 
L 382.254545 235.814922 
L 398.487273 176.466499 
" clip-path="url(#p6bcbadc6d9)" style="fill: none; stroke: #31688e; stroke-opacity: 0.5; stroke-width: 1.5; stroke-linecap: square"/>
   </g>
   <g id="line2d_47">
    <path d="M 73.832727 214.611425 
L 90.065455 214.802837 
L 106.298182 246.281809 
L 122.530909 254.875483 
L 138.763636 261.078949 
L 154.996364 279.889017 
L 171.229091 260.193189 
L 187.461818 256.218119 
L 203.694545 271.150126 
L 219.927273 295.488 
L 236.16 272.259391 
L 252.392727 270.363792 
L 268.625455 271.024568 
L 284.858182 268.76173 
L 301.090909 279.345019 
L 317.323636 278.119259 
L 333.556364 259.611609 
L 349.789091 271.289519 
L 366.021818 277.116371 
L 382.254545 272.143383 
L 398.487273 260.050616 
" clip-path="url(#p6bcbadc6d9)" style="fill: none; stroke: #31688e; stroke-opacity: 0.5; stroke-width: 1.5; stroke-linecap: square"/>
   </g>
   <g id="line2d_48">
    <path d="M 73.832727 223.781072 
L 90.065455 245.9796 
L 106.298182 251.128799 
L 122.530909 238.627868 
L 138.763636 211.408093 
L 154.996364 213.266318 
L 171.229091 262.405195 
L 187.461818 263.897123 
L 203.694545 261.099554 
L 219.927273 265.409834 
L 236.16 269.211129 
L 252.392727 274.628095 
L 268.625455 228.975506 
L 284.858182 217.3685 
L 301.090909 221.278916 
L 317.323636 238.730809 
L 333.556364 221.058969 
L 349.789091 218.189102 
L 366.021818 232.865405 
L 382.254545 203.811488 
L 398.487273 223.179113 
" clip-path="url(#p6bcbadc6d9)" style="fill: none; stroke: #31688e; stroke-opacity: 0.5; stroke-width: 1.5; stroke-linecap: square"/>
   </g>
   <g id="line2d_49">
    <path d="M 73.832727 188.693652 
L 90.065455 156.772861 
L 106.298182 195.361342 
L 122.530909 167.553089 
L 138.763636 124.874678 
L 154.996364 253.277383 
L 171.229091 256.119417 
L 187.461818 262.054898 
L 203.694545 250.736759 
L 219.927273 247.91509 
L 236.16 269.985752 
L 252.392727 228.551355 
L 268.625455 248.6938 
L 284.858182 237.878969 
L 301.090909 234.553076 
L 317.323636 241.962723 
L 333.556364 226.289282 
L 349.789091 233.111461 
L 366.021818 234.984024 
L 382.254545 240.47076 
L 398.487273 229.892188 
" clip-path="url(#p6bcbadc6d9)" style="fill: none; stroke: #31688e; stroke-opacity: 0.5; stroke-width: 1.5; stroke-linecap: square"/>
   </g>
   <g id="line2d_50">
    <path d="M 73.832727 250.168307 
L 90.065455 251.894031 
L 106.298182 272.279195 
L 122.530909 267.326433 
L 138.763636 260.872381 
L 154.996364 280.515712 
L 171.229091 272.533441 
L 187.461818 269.024972 
L 203.694545 276.899287 
L 219.927273 268.935968 
L 236.16 279.726901 
L 252.392727 276.460657 
L 268.625455 274.654759 
L 284.858182 268.162261 
L 301.090909 276.836643 
L 317.323636 270.954917 
L 333.556364 269.381531 
L 349.789091 270.692491 
L 366.021818 277.650205 
L 382.254545 270.306536 
L 398.487273 277.737264 
" clip-path="url(#p6bcbadc6d9)" style="fill: none; stroke: #31688e; stroke-opacity: 0.5; stroke-width: 1.5; stroke-linecap: square"/>
   </g>
   <g id="line2d_51">
    <path d="M 73.832727 152.587692 
L 90.065455 174.938113 
L 106.298182 194.796548 
L 122.530909 152.828775 
L 138.763636 169.55519 
L 154.996364 121.692371 
L 171.229091 149.404336 
L 187.461818 168.142428 
L 203.694545 155.207356 
L 219.927273 151.90396 
L 236.16 143.211253 
L 252.392727 199.02101 
L 268.625455 197.793743 
L 284.858182 206.528132 
L 301.090909 181.885303 
L 317.323636 207.731365 
L 333.556364 203.333748 
L 349.789091 190.338041 
L 366.021818 193.630046 
L 382.254545 174.742651 
L 398.487273 198.115041 
" clip-path="url(#p6bcbadc6d9)" style="fill: none; stroke: #31688e; stroke-opacity: 0.5; stroke-width: 1.5; stroke-linecap: square"/>
   </g>
   <g id="line2d_52">
    <path d="M 73.832727 186.722203 
L 90.065455 217.185431 
L 106.298182 222.469061 
L 122.530909 182.358775 
L 138.763636 200.550968 
L 154.996364 253.236829 
L 171.229091 262.396572 
L 187.461818 241.986685 
L 203.694545 266.882901 
L 219.927273 266.273534 
L 236.16 251.891799 
L 252.392727 193.082614 
L 268.625455 243.690049 
L 284.858182 231.520701 
L 301.090909 242.590282 
L 317.323636 251.432814 
L 333.556364 228.368765 
L 349.789091 234.954368 
L 366.021818 233.418837 
L 382.254545 214.668859 
L 398.487273 248.65813 
" clip-path="url(#p6bcbadc6d9)" style="fill: none; stroke: #31688e; stroke-opacity: 0.5; stroke-width: 1.5; stroke-linecap: square"/>
   </g>
   <g id="line2d_53">
    <path d="M 73.832727 267.56957 
L 90.065455 262.868756 
L 106.298182 261.716676 
L 122.530909 257.953864 
L 138.763636 272.951029 
L 154.996364 268.467871 
L 171.229091 265.124192 
L 187.461818 270.069106 
L 203.694545 274.693514 
L 219.927273 276.991576 
L 236.16 264.432975 
L 252.392727 257.140316 
L 268.625455 257.2978 
L 284.858182 263.948869 
L 301.090909 265.722368 
L 317.323636 264.284057 
L 333.556364 260.739911 
L 349.789091 262.071561 
L 366.021818 250.954206 
L 382.254545 258.565476 
L 398.487273 258.90142 
" clip-path="url(#p6bcbadc6d9)" style="fill: none; stroke: #31688e; stroke-opacity: 0.5; stroke-width: 1.5; stroke-linecap: square"/>
   </g>
   <g id="line2d_54">
    <path d="M 73.832727 226.993373 
L 90.065455 193.821984 
L 106.298182 229.425145 
L 122.530909 233.793887 
L 138.763636 242.069002 
L 154.996364 235.807173 
L 171.229091 233.992688 
L 187.461818 226.986754 
L 203.694545 234.862347 
L 219.927273 251.583924 
L 236.16 231.387262 
L 252.392727 247.668722 
L 268.625455 246.452579 
L 284.858182 240.524405 
L 301.090909 244.235463 
L 317.323636 256.502916 
L 333.556364 249.356486 
L 349.789091 254.399428 
L 366.021818 244.228845 
L 382.254545 236.66475 
L 398.487273 250.596696 
" clip-path="url(#p6bcbadc6d9)" style="fill: none; stroke: #31688e; stroke-opacity: 0.5; stroke-width: 1.5; stroke-linecap: square"/>
   </g>
   <g id="line2d_55">
    <path d="M 73.832727 184.355843 
L 90.065455 187.405585 
L 106.298182 204.694541 
L 122.530909 215.698162 
L 138.763636 240.076004 
L 154.996364 251.400505 
L 171.229091 242.229355 
L 187.461818 257.715809 
L 203.694545 255.248494 
L 219.927273 272.804984 
L 236.16 273.859593 
L 252.392727 273.349611 
L 268.625455 267.554303 
L 284.858182 266.307001 
L 301.090909 265.640349 
L 317.323636 245.372675 
L 333.556364 268.985026 
L 349.789091 272.10126 
L 366.021818 263.865354 
L 382.254545 261.755007 
L 398.487273 254.10052 
" clip-path="url(#p6bcbadc6d9)" style="fill: none; stroke: #31688e; stroke-opacity: 0.5; stroke-width: 1.5; stroke-linecap: square"/>
   </g>
   <g id="line2d_56">
    <path d="M 73.832727 253.177225 
L 90.065455 254.578507 
L 106.298182 264.103208 
L 122.530909 267.686116 
L 138.763636 273.114331 
L 154.996364 273.556847 
L 171.229091 278.467942 
L 187.461818 268.454252 
L 203.694545 215.523322 
L 219.927273 276.933795 
L 236.16 251.712891 
L 252.392727 273.463152 
L 268.625455 260.723415 
L 284.858182 252.166782 
L 301.090909 256.070033 
L 317.323636 271.762671 
L 333.556364 277.69881 
L 349.789091 246.576471 
L 366.021818 251.514694 
L 382.254545 255.679918 
L 398.487273 247.090227 
" clip-path="url(#p6bcbadc6d9)" style="fill: none; stroke: #31688e; stroke-opacity: 0.5; stroke-width: 1.5; stroke-linecap: square"/>
   </g>
   <g id="line2d_57">
    <path d="M 73.832727 185.567737 
L 90.065455 197.113666 
L 106.298182 198.943829 
L 122.530909 209.078786 
L 138.763636 198.257154 
L 154.996364 222.1825 
L 171.229091 175.175165 
L 187.461818 205.971106 
L 203.694545 204.650983 
L 219.927273 181.402167 
L 236.16 179.882563 
L 252.392727 189.657941 
L 268.625455 181.174437 
L 284.858182 191.066358 
L 301.090909 201.855343 
L 317.323636 191.188209 
L 333.556364 196.493626 
L 349.789091 192.505331 
L 366.021818 200.078723 
L 382.254545 189.209064 
L 398.487273 171.542331 
" clip-path="url(#p6bcbadc6d9)" style="fill: none; stroke: #31688e; stroke-opacity: 0.5; stroke-width: 1.5; stroke-linecap: square"/>
   </g>
   <g id="line2d_58">
    <path d="M 73.832727 229.260741 
L 90.065455 223.731662 
L 106.298182 238.998093 
L 122.530909 247.417564 
L 138.763636 251.904163 
L 154.996364 261.550598 
L 171.229091 236.586218 
L 187.461818 257.117356 
L 203.694545 263.758948 
L 219.927273 259.946227 
L 236.16 248.793186 
L 252.392727 238.612452 
L 268.625455 249.100291 
L 284.858182 252.979011 
L 301.090909 248.335349 
L 317.323636 252.407291 
L 333.556364 248.30569 
L 349.789091 254.01233 
L 366.021818 270.77165 
L 382.254545 235.108694 
L 398.487273 269.449695 
" clip-path="url(#p6bcbadc6d9)" style="fill: none; stroke: #31688e; stroke-opacity: 0.5; stroke-width: 1.5; stroke-linecap: square"/>
   </g>
   <g id="line2d_59">
    <path d="M 73.832727 244.910116 
L 90.065455 229.289309 
L 106.298182 244.281904 
L 122.530909 262.04805 
L 138.763636 279.92744 
L 154.996364 258.676681 
L 171.229091 258.891688 
L 187.461818 273.253829 
L 203.694545 283.196887 
L 219.927273 264.463517 
L 236.16 284.982143 
L 252.392727 276.440418 
L 268.625455 278.672725 
L 284.858182 275.655797 
L 301.090909 283.726149 
L 317.323636 276.914279 
L 333.556364 283.740563 
L 349.789091 280.980403 
L 366.021818 285.065064 
L 382.254545 280.985834 
L 398.487273 284.916427 
" clip-path="url(#p6bcbadc6d9)" style="fill: none; stroke: #31688e; stroke-opacity: 0.5; stroke-width: 1.5; stroke-linecap: square"/>
   </g>
   <g id="line2d_60">
    <path d="M 73.832727 195.665932 
L 90.065455 185.860558 
L 106.298182 215.199882 
L 122.530909 242.442597 
L 138.763636 233.142934 
L 154.996364 227.516066 
L 171.229091 188.441008 
L 187.461818 213.911947 
L 203.694545 248.041872 
L 219.927273 226.943202 
L 236.16 199.061534 
L 252.392727 212.977666 
L 268.625455 221.599369 
L 284.858182 237.649867 
L 301.090909 238.062595 
L 317.323636 233.878114 
L 333.556364 219.497314 
L 349.789091 222.099493 
L 366.021818 200.531466 
L 382.254545 218.068748 
L 398.487273 229.039573 
" clip-path="url(#p6bcbadc6d9)" style="fill: none; stroke: #31688e; stroke-opacity: 0.5; stroke-width: 1.5; stroke-linecap: square"/>
   </g>
   <g id="patch_3">
    <path d="M 57.6 307.584 
L 57.6 41.472 
" style="fill: none; stroke: #000000; stroke-width: 3; stroke-linejoin: miter; stroke-linecap: square"/>
   </g>
   <g id="patch_4">
    <path d="M 414.72 307.584 
L 414.72 41.472 
" style="fill: none; stroke: #000000; stroke-width: 3; stroke-linejoin: miter; stroke-linecap: square"/>
   </g>
   <g id="patch_5">
    <path d="M 57.6 307.584 
L 414.72 307.584 
" style="fill: none; stroke: #000000; stroke-width: 3; stroke-linejoin: miter; stroke-linecap: square"/>
   </g>
   <g id="patch_6">
    <path d="M 57.6 41.472 
L 414.72 41.472 
" style="fill: none; stroke: #000000; stroke-width: 3; stroke-linejoin: miter; stroke-linecap: square"/>
   </g>
   <g id="text_10">
    <!-- Atom Type C (n=51, mean Q=8.86) -->
    <g transform="translate(40.817187 35.472) scale(0.22 -0.22)">
     <defs>
      <path id="DejaVuSans-41" d="M 2188 4044 
L 1331 1722 
L 3047 1722 
L 2188 4044 
z
M 1831 4666 
L 2547 4666 
L 4325 0 
L 3669 0 
L 3244 1197 
L 1141 1197 
L 716 0 
L 50 0 
L 1831 4666 
z
" transform="scale(0.015625)"/>
      <path id="DejaVuSans-74" d="M 1172 4494 
L 1172 3500 
L 2356 3500 
L 2356 3053 
L 1172 3053 
L 1172 1153 
Q 1172 725 1289 603 
Q 1406 481 1766 481 
L 2356 481 
L 2356 0 
L 1766 0 
Q 1100 0 847 248 
Q 594 497 594 1153 
L 594 3053 
L 172 3053 
L 172 3500 
L 594 3500 
L 594 4494 
L 1172 4494 
z
" transform="scale(0.015625)"/>
      <path id="DejaVuSans-6f" d="M 1959 3097 
Q 1497 3097 1228 2736 
Q 959 2375 959 1747 
Q 959 1119 1226 758 
Q 1494 397 1959 397 
Q 2419 397 2687 759 
Q 2956 1122 2956 1747 
Q 2956 2369 2687 2733 
Q 2419 3097 1959 3097 
z
M 1959 3584 
Q 2709 3584 3137 3096 
Q 3566 2609 3566 1747 
Q 3566 888 3137 398 
Q 2709 -91 1959 -91 
Q 1206 -91 779 398 
Q 353 888 353 1747 
Q 353 2609 779 3096 
Q 1206 3584 1959 3584 
z
" transform="scale(0.015625)"/>
      <path id="DejaVuSans-6d" d="M 3328 2828 
Q 3544 3216 3844 3400 
Q 4144 3584 4550 3584 
Q 5097 3584 5394 3201 
Q 5691 2819 5691 2113 
L 5691 0 
L 5113 0 
L 5113 2094 
Q 5113 2597 4934 2840 
Q 4756 3084 4391 3084 
Q 3944 3084 3684 2787 
Q 3425 2491 3425 1978 
L 3425 0 
L 2847 0 
L 2847 2094 
Q 2847 2600 2669 2842 
Q 2491 3084 2119 3084 
Q 1678 3084 1418 2786 
Q 1159 2488 1159 1978 
L 1159 0 
L 581 0 
L 581 3500 
L 1159 3500 
L 1159 2956 
Q 1356 3278 1631 3431 
Q 1906 3584 2284 3584 
Q 2666 3584 2933 3390 
Q 3200 3197 3328 2828 
z
" transform="scale(0.015625)"/>
      <path id="DejaVuSans-20" transform="scale(0.015625)"/>
      <path id="DejaVuSans-54" d="M -19 4666 
L 3928 4666 
L 3928 4134 
L 2272 4134 
L 2272 0 
L 1638 0 
L 1638 4134 
L -19 4134 
L -19 4666 
z
" transform="scale(0.015625)"/>
      <path id="DejaVuSans-79" d="M 2059 -325 
Q 1816 -950 1584 -1140 
Q 1353 -1331 966 -1331 
L 506 -1331 
L 506 -850 
L 844 -850 
Q 1081 -850 1212 -737 
Q 1344 -625 1503 -206 
L 1606 56 
L 191 3500 
L 800 3500 
L 1894 763 
L 2988 3500 
L 3597 3500 
L 2059 -325 
z
" transform="scale(0.015625)"/>
      <path id="DejaVuSans-70" d="M 1159 525 
L 1159 -1331 
L 581 -1331 
L 581 3500 
L 1159 3500 
L 1159 2969 
Q 1341 3281 1617 3432 
Q 1894 3584 2278 3584 
Q 2916 3584 3314 3078 
Q 3713 2572 3713 1747 
Q 3713 922 3314 415 
Q 2916 -91 2278 -91 
Q 1894 -91 1617 61 
Q 1341 213 1159 525 
z
M 3116 1747 
Q 3116 2381 2855 2742 
Q 2594 3103 2138 3103 
Q 1681 3103 1420 2742 
Q 1159 2381 1159 1747 
Q 1159 1113 1420 752 
Q 1681 391 2138 391 
Q 2594 391 2855 752 
Q 3116 1113 3116 1747 
z
" transform="scale(0.015625)"/>
      <path id="DejaVuSans-65" d="M 3597 1894 
L 3597 1613 
L 953 1613 
Q 991 1019 1311 708 
Q 1631 397 2203 397 
Q 2534 397 2845 478 
Q 3156 559 3463 722 
L 3463 178 
Q 3153 47 2828 -22 
Q 2503 -91 2169 -91 
Q 1331 -91 842 396 
Q 353 884 353 1716 
Q 353 2575 817 3079 
Q 1281 3584 2069 3584 
Q 2775 3584 3186 3129 
Q 3597 2675 3597 1894 
z
M 3022 2063 
Q 3016 2534 2758 2815 
Q 2500 3097 2075 3097 
Q 1594 3097 1305 2825 
Q 1016 2553 972 2059 
L 3022 2063 
z
" transform="scale(0.015625)"/>
      <path id="DejaVuSans-43" d="M 4122 4306 
L 4122 3641 
Q 3803 3938 3442 4084 
Q 3081 4231 2675 4231 
Q 1875 4231 1450 3742 
Q 1025 3253 1025 2328 
Q 1025 1406 1450 917 
Q 1875 428 2675 428 
Q 3081 428 3442 575 
Q 3803 722 4122 1019 
L 4122 359 
Q 3791 134 3420 21 
Q 3050 -91 2638 -91 
Q 1578 -91 968 557 
Q 359 1206 359 2328 
Q 359 3453 968 4101 
Q 1578 4750 2638 4750 
Q 3056 4750 3426 4639 
Q 3797 4528 4122 4306 
z
" transform="scale(0.015625)"/>
      <path id="DejaVuSans-28" d="M 1984 4856 
Q 1566 4138 1362 3434 
Q 1159 2731 1159 2009 
Q 1159 1288 1364 580 
Q 1569 -128 1984 -844 
L 1484 -844 
Q 1016 -109 783 600 
Q 550 1309 550 2009 
Q 550 2706 781 3412 
Q 1013 4119 1484 4856 
L 1984 4856 
z
" transform="scale(0.015625)"/>
      <path id="DejaVuSans-6e" d="M 3513 2113 
L 3513 0 
L 2938 0 
L 2938 2094 
Q 2938 2591 2744 2837 
Q 2550 3084 2163 3084 
Q 1697 3084 1428 2787 
Q 1159 2491 1159 1978 
L 1159 0 
L 581 0 
L 581 3500 
L 1159 3500 
L 1159 2956 
Q 1366 3272 1645 3428 
Q 1925 3584 2291 3584 
Q 2894 3584 3203 3211 
Q 3513 2838 3513 2113 
z
" transform="scale(0.015625)"/>
      <path id="DejaVuSans-3d" d="M 678 2906 
L 4684 2906 
L 4684 2381 
L 678 2381 
L 678 2906 
z
M 678 1631 
L 4684 1631 
L 4684 1100 
L 678 1100 
L 678 1631 
z
" transform="scale(0.015625)"/>
      <path id="DejaVuSans-2c" d="M 750 794 
L 1409 794 
L 1409 256 
L 897 -744 
L 494 -744 
L 750 256 
L 750 794 
z
" transform="scale(0.015625)"/>
      <path id="DejaVuSans-61" d="M 2194 1759 
Q 1497 1759 1228 1600 
Q 959 1441 959 1056 
Q 959 750 1161 570 
Q 1363 391 1709 391 
Q 2188 391 2477 730 
Q 2766 1069 2766 1631 
L 2766 1759 
L 2194 1759 
z
M 3341 1997 
L 3341 0 
L 2766 0 
L 2766 531 
Q 2569 213 2275 61 
Q 1981 -91 1556 -91 
Q 1019 -91 701 211 
Q 384 513 384 1019 
Q 384 1609 779 1909 
Q 1175 2209 1959 2209 
L 2766 2209 
L 2766 2266 
Q 2766 2663 2505 2880 
Q 2244 3097 1772 3097 
Q 1472 3097 1187 3025 
Q 903 2953 641 2809 
L 641 3341 
Q 956 3463 1253 3523 
Q 1550 3584 1831 3584 
Q 2591 3584 2966 3190 
Q 3341 2797 3341 1997 
z
" transform="scale(0.015625)"/>
      <path id="DejaVuSans-51" d="M 2522 4238 
Q 1834 4238 1429 3725 
Q 1025 3213 1025 2328 
Q 1025 1447 1429 934 
Q 1834 422 2522 422 
Q 3209 422 3611 934 
Q 4013 1447 4013 2328 
Q 4013 3213 3611 3725 
Q 3209 4238 2522 4238 
z
M 3406 84 
L 4238 -825 
L 3475 -825 
L 2784 -78 
Q 2681 -84 2626 -87 
Q 2572 -91 2522 -91 
Q 1538 -91 948 567 
Q 359 1225 359 2328 
Q 359 3434 948 4092 
Q 1538 4750 2522 4750 
Q 3503 4750 4090 4092 
Q 4678 3434 4678 2328 
Q 4678 1516 4351 937 
Q 4025 359 3406 84 
z
" transform="scale(0.015625)"/>
      <path id="DejaVuSans-38" d="M 2034 2216 
Q 1584 2216 1326 1975 
Q 1069 1734 1069 1313 
Q 1069 891 1326 650 
Q 1584 409 2034 409 
Q 2484 409 2743 651 
Q 3003 894 3003 1313 
Q 3003 1734 2745 1975 
Q 2488 2216 2034 2216 
z
M 1403 2484 
Q 997 2584 770 2862 
Q 544 3141 544 3541 
Q 544 4100 942 4425 
Q 1341 4750 2034 4750 
Q 2731 4750 3128 4425 
Q 3525 4100 3525 3541 
Q 3525 3141 3298 2862 
Q 3072 2584 2669 2484 
Q 3125 2378 3379 2068 
Q 3634 1759 3634 1313 
Q 3634 634 3220 271 
Q 2806 -91 2034 -91 
Q 1263 -91 848 271 
Q 434 634 434 1313 
Q 434 1759 690 2068 
Q 947 2378 1403 2484 
z
M 1172 3481 
Q 1172 3119 1398 2916 
Q 1625 2713 2034 2713 
Q 2441 2713 2670 2916 
Q 2900 3119 2900 3481 
Q 2900 3844 2670 4047 
Q 2441 4250 2034 4250 
Q 1625 4250 1398 4047 
Q 1172 3844 1172 3481 
z
" transform="scale(0.015625)"/>
      <path id="DejaVuSans-2e" d="M 684 794 
L 1344 794 
L 1344 0 
L 684 0 
L 684 794 
z
" transform="scale(0.015625)"/>
      <path id="DejaVuSans-36" d="M 2113 2584 
Q 1688 2584 1439 2293 
Q 1191 2003 1191 1497 
Q 1191 994 1439 701 
Q 1688 409 2113 409 
Q 2538 409 2786 701 
Q 3034 994 3034 1497 
Q 3034 2003 2786 2293 
Q 2538 2584 2113 2584 
z
M 3366 4563 
L 3366 3988 
Q 3128 4100 2886 4159 
Q 2644 4219 2406 4219 
Q 1781 4219 1451 3797 
Q 1122 3375 1075 2522 
Q 1259 2794 1537 2939 
Q 1816 3084 2150 3084 
Q 2853 3084 3261 2657 
Q 3669 2231 3669 1497 
Q 3669 778 3244 343 
Q 2819 -91 2113 -91 
Q 1303 -91 875 529 
Q 447 1150 447 2328 
Q 447 3434 972 4092 
Q 1497 4750 2381 4750 
Q 2619 4750 2861 4703 
Q 3103 4656 3366 4563 
z
" transform="scale(0.015625)"/>
      <path id="DejaVuSans-29" d="M 513 4856 
L 1013 4856 
Q 1481 4119 1714 3412 
Q 1947 2706 1947 2009 
Q 1947 1309 1714 600 
Q 1481 -109 1013 -844 
L 513 -844 
Q 928 -128 1133 580 
Q 1338 1288 1338 2009 
Q 1338 2731 1133 3434 
Q 928 4138 513 4856 
z
" transform="scale(0.015625)"/>
     </defs>
     <use xlink:href="#DejaVuSans-41"/>
     <use xlink:href="#DejaVuSans-74" transform="translate(66.658203 0)"/>
     <use xlink:href="#DejaVuSans-6f" transform="translate(105.867188 0)"/>
     <use xlink:href="#DejaVuSans-6d" transform="translate(167.048828 0)"/>
     <use xlink:href="#DejaVuSans-20" transform="translate(264.460938 0)"/>
     <use xlink:href="#DejaVuSans-54" transform="translate(296.248047 0)"/>
     <use xlink:href="#DejaVuSans-79" transform="translate(341.707031 0)"/>
     <use xlink:href="#DejaVuSans-70" transform="translate(400.886719 0)"/>
     <use xlink:href="#DejaVuSans-65" transform="translate(464.363281 0)"/>
     <use xlink:href="#DejaVuSans-20" transform="translate(525.886719 0)"/>
     <use xlink:href="#DejaVuSans-43" transform="translate(557.673828 0)"/>
     <use xlink:href="#DejaVuSans-20" transform="translate(627.498047 0)"/>
     <use xlink:href="#DejaVuSans-28" transform="translate(659.285156 0)"/>
     <use xlink:href="#DejaVuSans-6e" transform="translate(698.298828 0)"/>
     <use xlink:href="#DejaVuSans-3d" transform="translate(761.677734 0)"/>
     <use xlink:href="#DejaVuSans-35" transform="translate(845.466797 0)"/>
     <use xlink:href="#DejaVuSans-31" transform="translate(909.089844 0)"/>
     <use xlink:href="#DejaVuSans-2c" transform="translate(972.712891 0)"/>
     <use xlink:href="#DejaVuSans-20" transform="translate(1004.5 0)"/>
     <use xlink:href="#DejaVuSans-6d" transform="translate(1036.287109 0)"/>
     <use xlink:href="#DejaVuSans-65" transform="translate(1133.699219 0)"/>
     <use xlink:href="#DejaVuSans-61" transform="translate(1195.222656 0)"/>
     <use xlink:href="#DejaVuSans-6e" transform="translate(1256.501953 0)"/>
     <use xlink:href="#DejaVuSans-20" transform="translate(1319.880859 0)"/>
     <use xlink:href="#DejaVuSans-51" transform="translate(1351.667969 0)"/>
     <use xlink:href="#DejaVuSans-3d" transform="translate(1430.378906 0)"/>
     <use xlink:href="#DejaVuSans-38" transform="translate(1514.167969 0)"/>
     <use xlink:href="#DejaVuSans-2e" transform="translate(1577.791016 0)"/>
     <use xlink:href="#DejaVuSans-38" transform="translate(1609.578125 0)"/>
     <use xlink:href="#DejaVuSans-36" transform="translate(1673.201172 0)"/>
     <use xlink:href="#DejaVuSans-29" transform="translate(1736.824219 0)"/>
    </g>
   </g>
  </g>
 </g>
 <defs>
  <clipPath id="p6bcbadc6d9">
   <rect x="57.6" y="41.472" width="357.12" height="266.112"/>
  </clipPath>
 </defs>
</svg>
