<?xml version="1.0" encoding="utf-8" standalone="no"?>
<!DOCTYPE svg PUBLIC "-//W3C//DTD SVG 1.1//EN"
  "http://www.w3.org/Graphics/SVG/1.1/DTD/svg11.dtd">
<svg xmlns:xlink="http://www.w3.org/1999/xlink" width="460.8pt" height="345.6pt" viewBox="0 0 460.8 345.6" xmlns="http://www.w3.org/2000/svg" version="1.1">
 <metadata>
  <rdf:RDF xmlns:dc="http://purl.org/dc/elements/1.1/" xmlns:cc="http://creativecommons.org/ns#" xmlns:rdf="http://www.w3.org/1999/02/22-rdf-syntax-ns#">
   <cc:Work>
    <dc:type rdf:resource="http://purl.org/dc/dcmitype/StillImage"/>
    <dc:date>2025-12-10T13:50:10.166216</dc:date>
    <dc:format>image/svg+xml</dc:format>
    <dc:creator>
     <cc:Agent>
      <dc:title>Matplotlib v3.10.3, https://matplotlib.org/</dc:title>
     </cc:Agent>
    </dc:creator>
   </cc:Work>
  </rdf:RDF>
 </metadata>
 <defs>
  <style type="text/css">*{stroke-linejoin: round; stroke-linecap: butt}</style>
 </defs>
 <g id="figure_1">
  <g id="patch_1">
   <path d="M 0 345.6 
L 460.8 345.6 
L 460.8 0 
L 0 0 
z
" style="fill: #ffffff"/>
  </g>
  <g id="axes_1">
   <g id="patch_2">
    <path d="M 57.6 307.584 
L 414.72 307.584 
L 414.72 41.472 
L 57.6 41.472 
z
" style="fill: #ffffff"/>
   </g>
   <g id="matplotlib.axis_1">
    <g id="xtick_1">
     <g id="line2d_1">
      <defs>
       <path id="md1d57842ee" d="M 0 0 
L 0 3.5 
" style="stroke: #000000; stroke-width: 0.8"/>
      </defs>
      <g>
       <use xlink:href="#md1d57842ee" x="73.832727" y="307.584" style="stroke: #000000; stroke-width: 0.8"/>
      </g>
     </g>
     <g id="text_1">
      <!-- 0 -->
      <g transform="translate(69.060852 325.981656) scale(0.15 -0.15)">
       <defs>
        <path id="DejaVuSans-30" d="M 2034 4250 
Q 1547 4250 1301 3770 
Q 1056 3291 1056 2328 
Q 1056 1369 1301 889 
Q 1547 409 2034 409 
Q 2525 409 2770 889 
Q 3016 1369 3016 2328 
Q 3016 3291 2770 3770 
Q 2525 4250 2034 4250 
z
M 2034 4750 
Q 2819 4750 3233 4129 
Q 3647 3509 3647 2328 
Q 3647 1150 3233 529 
Q 2819 -91 2034 -91 
Q 1250 -91 836 529 
Q 422 1150 422 2328 
Q 422 3509 836 4129 
Q 1250 4750 2034 4750 
z
" transform="scale(0.015625)"/>
       </defs>
       <use xlink:href="#DejaVuSans-30"/>
      </g>
     </g>
    </g>
    <g id="xtick_2">
     <g id="line2d_2">
      <g>
       <use xlink:href="#md1d57842ee" x="154.996364" y="307.584" style="stroke: #000000; stroke-width: 0.8"/>
      </g>
     </g>
     <g id="text_2">
      <!-- 5 -->
      <g transform="translate(150.224489 325.981656) scale(0.15 -0.15)">
       <defs>
        <path id="DejaVuSans-35" d="M 691 4666 
L 3169 4666 
L 3169 4134 
L 1269 4134 
L 1269 2991 
Q 1406 3038 1543 3061 
Q 1681 3084 1819 3084 
Q 2600 3084 3056 2656 
Q 3513 2228 3513 1497 
Q 3513 744 3044 326 
Q 2575 -91 1722 -91 
Q 1428 -91 1123 -41 
Q 819 9 494 109 
L 494 744 
Q 775 591 1075 516 
Q 1375 441 1709 441 
Q 2250 441 2565 725 
Q 2881 1009 2881 1497 
Q 2881 1984 2565 2268 
Q 2250 2553 1709 2553 
Q 1456 2553 1204 2497 
Q 953 2441 691 2322 
L 691 4666 
z
" transform="scale(0.015625)"/>
       </defs>
       <use xlink:href="#DejaVuSans-35"/>
      </g>
     </g>
    </g>
    <g id="xtick_3">
     <g id="line2d_3">
      <g>
       <use xlink:href="#md1d57842ee" x="236.16" y="307.584" style="stroke: #000000; stroke-width: 0.8"/>
      </g>
     </g>
     <g id="text_3">
      <!-- 10 -->
      <g transform="translate(226.61625 325.981656) scale(0.15 -0.15)">
       <defs>
        <path id="DejaVuSans-31" d="M 794 531 
L 1825 531 
L 1825 4091 
L 703 3866 
L 703 4441 
L 1819 4666 
L 2450 4666 
L 2450 531 
L 3481 531 
L 3481 0 
L 794 0 
L 794 531 
z
" transform="scale(0.015625)"/>
       </defs>
       <use xlink:href="#DejaVuSans-31"/>
       <use xlink:href="#DejaVuSans-30" transform="translate(63.623047 0)"/>
      </g>
     </g>
    </g>
    <g id="xtick_4">
     <g id="line2d_4">
      <g>
       <use xlink:href="#md1d57842ee" x="317.323636" y="307.584" style="stroke: #000000; stroke-width: 0.8"/>
      </g>
     </g>
     <g id="text_4">
      <!-- 15 -->
      <g transform="translate(307.779886 325.981656) scale(0.15 -0.15)">
       <use xlink:href="#DejaVuSans-31"/>
       <use xlink:href="#DejaVuSans-35" transform="translate(63.623047 0)"/>
      </g>
     </g>
    </g>
    <g id="xtick_5">
     <g id="line2d_5">
      <g>
       <use xlink:href="#md1d57842ee" x="398.487273" y="307.584" style="stroke: #000000; stroke-width: 0.8"/>
      </g>
     </g>
     <g id="text_5">
      <!-- 20 -->
      <g transform="translate(388.943523 325.981656) scale(0.15 -0.15)">
       <defs>
        <path id="DejaVuSans-32" d="M 1228 531 
L 3431 531 
L 3431 0 
L 469 0 
L 469 531 
Q 828 903 1448 1529 
Q 2069 2156 2228 2338 
Q 2531 2678 2651 2914 
Q 2772 3150 2772 3378 
Q 2772 3750 2511 3984 
Q 2250 4219 1831 4219 
Q 1534 4219 1204 4116 
Q 875 4013 500 3803 
L 500 4441 
Q 881 4594 1212 4672 
Q 1544 4750 1819 4750 
Q 2544 4750 2975 4387 
Q 3406 4025 3406 3419 
Q 3406 3131 3298 2873 
Q 3191 2616 2906 2266 
Q 2828 2175 2409 1742 
Q 1991 1309 1228 531 
z
" transform="scale(0.015625)"/>
       </defs>
       <use xlink:href="#DejaVuSans-32"/>
       <use xlink:href="#DejaVuSans-30" transform="translate(63.623047 0)"/>
      </g>
     </g>
    </g>
   </g>
   <g id="matplotlib.axis_2">
    <g id="ytick_1">
     <g id="line2d_6">
      <defs>
       <path id="m4eb074be6a" d="M 0 0 
L -3.5 0 
" style="stroke: #000000; stroke-width: 0.8"/>
      </defs>
      <g>
       <use xlink:href="#m4eb074be6a" x="57.6" y="306.464307" style="stroke: #000000; stroke-width: 0.8"/>
      </g>
     </g>
     <g id="text_6">
      <!-- 4 -->
      <g transform="translate(41.05625 312.163135) scale(0.15 -0.15)">
       <defs>
        <path id="DejaVuSans-34" d="M 2419 4116 
L 825 1625 
L 2419 1625 
L 2419 4116 
z
M 2253 4666 
L 3047 4666 
L 3047 1625 
L 3713 1625 
L 3713 1100 
L 3047 1100 
L 3047 0 
L 2419 0 
L 2419 1100 
L 313 1100 
L 313 1709 
L 2253 4666 
z
" transform="scale(0.015625)"/>
       </defs>
       <use xlink:href="#DejaVuSans-34"/>
      </g>
     </g>
    </g>
    <g id="ytick_2">
     <g id="line2d_7">
      <g>
       <use xlink:href="#m4eb074be6a" x="57.6" y="272.31766" style="stroke: #000000; stroke-width: 0.8"/>
      </g>
     </g>
     <g id="text_7">
      <!-- 6 -->
      <g transform="translate(41.05625 278.016488) scale(0.15 -0.15)">
       <defs>
        <path id="DejaVuSans-36" d="M 2113 2584 
Q 1688 2584 1439 2293 
Q 1191 2003 1191 1497 
Q 1191 994 1439 701 
Q 1688 409 2113 409 
Q 2538 409 2786 701 
Q 3034 994 3034 1497 
Q 3034 2003 2786 2293 
Q 2538 2584 2113 2584 
z
M 3366 4563 
L 3366 3988 
Q 3128 4100 2886 4159 
Q 2644 4219 2406 4219 
Q 1781 4219 1451 3797 
Q 1122 3375 1075 2522 
Q 1259 2794 1537 2939 
Q 1816 3084 2150 3084 
Q 2853 3084 3261 2657 
Q 3669 2231 3669 1497 
Q 3669 778 3244 343 
Q 2819 -91 2113 -91 
Q 1303 -91 875 529 
Q 447 1150 447 2328 
Q 447 3434 972 4092 
Q 1497 4750 2381 4750 
Q 2619 4750 2861 4703 
Q 3103 4656 3366 4563 
z
" transform="scale(0.015625)"/>
       </defs>
       <use xlink:href="#DejaVuSans-36"/>
      </g>
     </g>
    </g>
    <g id="ytick_3">
     <g id="line2d_8">
      <g>
       <use xlink:href="#m4eb074be6a" x="57.6" y="238.171013" style="stroke: #000000; stroke-width: 0.8"/>
      </g>
     </g>
     <g id="text_8">
      <!-- 8 -->
      <g transform="translate(41.05625 243.869841) scale(0.15 -0.15)">
       <defs>
        <path id="DejaVuSans-38" d="M 2034 2216 
Q 1584 2216 1326 1975 
Q 1069 1734 1069 1313 
Q 1069 891 1326 650 
Q 1584 409 2034 409 
Q 2484 409 2743 651 
Q 3003 894 3003 1313 
Q 3003 1734 2745 1975 
Q 2488 2216 2034 2216 
z
M 1403 2484 
Q 997 2584 770 2862 
Q 544 3141 544 3541 
Q 544 4100 942 4425 
Q 1341 4750 2034 4750 
Q 2731 4750 3128 4425 
Q 3525 4100 3525 3541 
Q 3525 3141 3298 2862 
Q 3072 2584 2669 2484 
Q 3125 2378 3379 2068 
Q 3634 1759 3634 1313 
Q 3634 634 3220 271 
Q 2806 -91 2034 -91 
Q 1263 -91 848 271 
Q 434 634 434 1313 
Q 434 1759 690 2068 
Q 947 2378 1403 2484 
z
M 1172 3481 
Q 1172 3119 1398 2916 
Q 1625 2713 2034 2713 
Q 2441 2713 2670 2916 
Q 2900 3119 2900 3481 
Q 2900 3844 2670 4047 
Q 2441 4250 2034 4250 
Q 1625 4250 1398 4047 
Q 1172 3844 1172 3481 
z
" transform="scale(0.015625)"/>
       </defs>
       <use xlink:href="#DejaVuSans-38"/>
      </g>
     </g>
    </g>
    <g id="ytick_4">
     <g id="line2d_9">
      <g>
       <use xlink:href="#m4eb074be6a" x="57.6" y="204.024366" style="stroke: #000000; stroke-width: 0.8"/>
      </g>
     </g>
     <g id="text_9">
      <!-- 10 -->
      <g transform="translate(31.5125 209.723194) scale(0.15 -0.15)">
       <use xlink:href="#DejaVuSans-31"/>
       <use xlink:href="#DejaVuSans-30" transform="translate(63.623047 0)"/>
      </g>
     </g>
    </g>
    <g id="ytick_5">
     <g id="line2d_10">
      <g>
       <use xlink:href="#m4eb074be6a" x="57.6" y="169.877719" style="stroke: #000000; stroke-width: 0.8"/>
      </g>
     </g>
     <g id="text_10">
      <!-- 12 -->
      <g transform="translate(31.5125 175.576547) scale(0.15 -0.15)">
       <use xlink:href="#DejaVuSans-31"/>
       <use xlink:href="#DejaVuSans-32" transform="translate(63.623047 0)"/>
      </g>
     </g>
    </g>
    <g id="ytick_6">
     <g id="line2d_11">
      <g>
       <use xlink:href="#m4eb074be6a" x="57.6" y="135.731072" style="stroke: #000000; stroke-width: 0.8"/>
      </g>
     </g>
     <g id="text_11">
      <!-- 14 -->
      <g transform="translate(31.5125 141.4299) scale(0.15 -0.15)">
       <use xlink:href="#DejaVuSans-31"/>
       <use xlink:href="#DejaVuSans-34" transform="translate(63.623047 0)"/>
      </g>
     </g>
    </g>
    <g id="ytick_7">
     <g id="line2d_12">
      <g>
       <use xlink:href="#m4eb074be6a" x="57.6" y="101.584425" style="stroke: #000000; stroke-width: 0.8"/>
      </g>
     </g>
     <g id="text_12">
      <!-- 16 -->
      <g transform="translate(31.5125 107.283253) scale(0.15 -0.15)">
       <use xlink:href="#DejaVuSans-31"/>
       <use xlink:href="#DejaVuSans-36" transform="translate(63.623047 0)"/>
      </g>
     </g>
    </g>
    <g id="ytick_8">
     <g id="line2d_13">
      <g>
       <use xlink:href="#m4eb074be6a" x="57.6" y="67.437778" style="stroke: #000000; stroke-width: 0.8"/>
      </g>
     </g>
     <g id="text_13">
      <!-- 18 -->
      <g transform="translate(31.5125 73.136606) scale(0.15 -0.15)">
       <use xlink:href="#DejaVuSans-31"/>
       <use xlink:href="#DejaVuSans-38" transform="translate(63.623047 0)"/>
      </g>
     </g>
    </g>
   </g>
   <g id="line2d_14">
    <path d="M 73.832727 250.576306 
L 90.065455 244.563644 
L 106.298182 271.446935 
L 122.530909 255.001028 
L 138.763636 264.10075 
L 154.996364 253.742297 
L 171.229091 237.085624 
L 187.461818 233.756596 
L 203.694545 243.791899 
L 219.927273 231.422368 
L 236.16 220.459 
L 252.392727 185.186523 
L 268.625455 271.791128 
L 284.858182 289.632693 
L 301.090909 178.687642 
L 317.323636 257.910509 
L 333.556364 290.11451 
L 349.789091 251.154032 
L 366.021818 266.153038 
L 382.254545 234.013906 
L 398.487273 258.395568 
" clip-path="url(#p96c8071c70)" style="fill: none; stroke: #31688e; stroke-opacity: 0.5; stroke-width: 1.5; stroke-linecap: square"/>
   </g>
   <g id="line2d_15">
    <path d="M 73.832727 189.653708 
L 90.065455 257.242307 
L 106.298182 261.455583 
L 122.530909 257.723079 
L 138.763636 275.146011 
L 154.996364 277.136541 
L 171.229091 266.14683 
L 187.461818 267.161767 
L 203.694545 227.26236 
L 219.927273 232.383874 
L 236.16 239.121557 
L 252.392727 230.437331 
L 268.625455 258.507037 
L 284.858182 249.071367 
L 301.090909 247.585645 
L 317.323636 234.035292 
L 333.556364 227.936565 
L 349.789091 244.869679 
L 366.021818 243.199234 
L 382.254545 226.507963 
L 398.487273 253.647498 
" clip-path="url(#p96c8071c70)" style="fill: none; stroke: #31688e; stroke-opacity: 0.5; stroke-width: 1.5; stroke-linecap: square"/>
   </g>
   <g id="line2d_16">
    <path d="M 73.832727 262.855484 
L 90.065455 281.248572 
L 106.298182 261.846276 
L 122.530909 279.110209 
L 138.763636 254.085856 
L 154.996364 266.121812 
L 171.229091 259.209198 
L 187.461818 206.363814 
L 203.694545 282.892719 
L 219.927273 264.20967 
L 236.16 228.42539 
L 252.392727 279.16986 
L 268.625455 235.748135 
L 284.858182 229.665134 
L 301.090909 284.637651 
L 317.323636 273.880628 
L 333.556364 224.661148 
L 349.789091 263.315179 
L 366.021818 273.434849 
L 382.254545 228.856027 
L 398.487273 257.443773 
" clip-path="url(#p96c8071c70)" style="fill: none; stroke: #31688e; stroke-opacity: 0.5; stroke-width: 1.5; stroke-linecap: square"/>
   </g>
   <g id="line2d_17">
    <path d="M 73.832727 239.861473 
L 90.065455 207.089581 
L 106.298182 258.312225 
L 122.530909 242.975581 
L 138.763636 245.135334 
L 154.996364 246.576045 
L 171.229091 251.143251 
L 187.461818 181.644565 
L 203.694545 232.331724 
L 219.927273 188.951478 
L 236.16 175.361075 
L 252.392727 222.882771 
L 268.625455 211.70805 
L 284.858182 226.561798 
L 301.090909 205.781226 
L 317.323636 212.770952 
L 333.556364 189.216496 
L 349.789091 218.997511 
L 366.021818 209.799659 
L 382.254545 196.514188 
L 398.487273 230.159507 
" clip-path="url(#p96c8071c70)" style="fill: none; stroke: #31688e; stroke-opacity: 0.5; stroke-width: 1.5; stroke-linecap: square"/>
   </g>
   <g id="line2d_18">
    <path d="M 73.832727 203.801775 
L 90.065455 200.81615 
L 106.298182 200.898683 
L 122.530909 198.84177 
L 138.763636 190.148345 
L 154.996364 228.620343 
L 171.229091 148.476951 
L 187.461818 217.235648 
L 203.694545 232.516372 
L 219.927273 217.841775 
L 236.16 146.698606 
L 252.392727 206.32779 
L 268.625455 169.374916 
L 284.858182 172.623683 
L 301.090909 192.426483 
L 317.323636 222.617782 
L 333.556364 198.024484 
L 349.789091 225.720328 
L 366.021818 169.759133 
L 382.254545 193.287655 
L 398.487273 216.014221 
" clip-path="url(#p96c8071c70)" style="fill: none; stroke: #31688e; stroke-opacity: 0.5; stroke-width: 1.5; stroke-linecap: square"/>
   </g>
   <g id="line2d_19">
    <path d="M 73.832727 105.576127 
L 90.065455 210.094881 
L 106.298182 215.227835 
L 122.530909 237.086847 
L 138.763636 244.891873 
L 154.996364 238.956568 
L 171.229091 254.55962 
L 187.461818 259.664832 
L 203.694545 241.021644 
L 219.927273 249.318226 
L 236.16 218.633348 
L 252.392727 217.094462 
L 268.625455 220.914214 
L 284.858182 243.090283 
L 301.090909 248.269303 
L 317.323636 261.473684 
L 333.556364 221.718963 
L 349.789091 242.502064 
L 366.021818 193.884145 
L 382.254545 248.089109 
L 398.487273 230.426589 
" clip-path="url(#p96c8071c70)" style="fill: none; stroke: #31688e; stroke-opacity: 0.5; stroke-width: 1.5; stroke-linecap: square"/>
   </g>
   <g id="line2d_20">
    <path d="M 73.832727 200.430963 
L 90.065455 210.488327 
L 106.298182 229.114653 
L 122.530909 209.053832 
L 138.763636 268.182267 
L 154.996364 258.136512 
L 171.229091 233.743879 
L 187.461818 279.530371 
L 203.694545 270.288741 
L 219.927273 259.679023 
L 236.16 274.48758 
L 252.392727 271.163171 
L 268.625455 259.935502 
L 284.858182 205.302277 
L 301.090909 199.32453 
L 317.323636 237.61398 
L 333.556364 249.941619 
L 349.789091 258.541399 
L 366.021818 255.529886 
L 382.254545 245.697151 
L 398.487273 225.410712 
" clip-path="url(#p96c8071c70)" style="fill: none; stroke: #31688e; stroke-opacity: 0.5; stroke-width: 1.5; stroke-linecap: square"/>
   </g>
   <g id="line2d_21">
    <path d="M 73.832727 243.936563 
L 90.065455 245.140309 
L 106.298182 239.212875 
L 122.530909 237.865268 
L 138.763636 277.421799 
L 154.996364 224.507577 
L 171.229091 249.389493 
L 187.461818 228.341723 
L 203.694545 167.804645 
L 219.927273 267.03194 
L 236.16 228.684841 
L 252.392727 225.659714 
L 268.625455 251.974955 
L 284.858182 225.174325 
L 301.090909 264.525939 
L 317.323636 257.437108 
L 333.556364 226.980062 
L 349.789091 220.121842 
L 366.021818 208.228007 
L 382.254545 255.72069 
L 398.487273 262.586427 
" clip-path="url(#p96c8071c70)" style="fill: none; stroke: #31688e; stroke-opacity: 0.5; stroke-width: 1.5; stroke-linecap: square"/>
   </g>
   <g id="line2d_22">
    <path d="M 73.832727 158.85625 
L 90.065455 184.535638 
L 106.298182 183.334215 
L 122.530909 209.696275 
L 138.763636 224.115667 
L 154.996364 260.267034 
L 171.229091 227.914644 
L 187.461818 258.647305 
L 203.694545 230.593214 
L 219.927273 220.308836 
L 236.16 251.193842 
L 252.392727 196.989963 
L 268.625455 177.684715 
L 284.858182 266.095969 
L 301.090909 218.876929 
L 317.323636 256.269296 
L 333.556364 223.559287 
L 349.789091 205.889258 
L 366.021818 227.369009 
L 382.254545 230.609481 
L 398.487273 192.846601 
" clip-path="url(#p96c8071c70)" style="fill: none; stroke: #31688e; stroke-opacity: 0.5; stroke-width: 1.5; stroke-linecap: square"/>
   </g>
   <g id="line2d_23">
    <path d="M 73.832727 130.001236 
L 90.065455 183.652878 
L 106.298182 168.311567 
L 122.530909 161.143805 
L 138.763636 164.20287 
L 154.996364 218.283404 
L 171.229091 173.406342 
L 187.461818 120.333094 
L 203.694545 167.510021 
L 219.927273 151.587726 
L 236.16 196.015405 
L 252.392727 152.706468 
L 268.625455 216.984702 
L 284.858182 197.519433 
L 301.090909 200.850042 
L 317.323636 159.752386 
L 333.556364 172.714268 
L 349.789091 187.926718 
L 366.021818 210.373325 
L 382.254545 170.485032 
L 398.487273 175.720694 
" clip-path="url(#p96c8071c70)" style="fill: none; stroke: #31688e; stroke-opacity: 0.5; stroke-width: 1.5; stroke-linecap: square"/>
   </g>
   <g id="line2d_24">
    <path d="M 73.832727 226.648121 
L 90.065455 227.87644 
L 106.298182 223.80672 
L 122.530909 214.934626 
L 138.763636 196.284543 
L 154.996364 238.058706 
L 171.229091 226.42534 
L 187.461818 263.484938 
L 203.694545 248.346772 
L 219.927273 258.631489 
L 236.16 255.948428 
L 252.392727 246.648062 
L 268.625455 256.235496 
L 284.858182 272.940547 
L 301.090909 225.056754 
L 317.323636 250.730604 
L 333.556364 227.791978 
L 349.789091 248.631049 
L 366.021818 233.890061 
L 382.254545 243.46818 
L 398.487273 234.115682 
" clip-path="url(#p96c8071c70)" style="fill: none; stroke: #31688e; stroke-opacity: 0.5; stroke-width: 1.5; stroke-linecap: square"/>
   </g>
   <g id="line2d_25">
    <path d="M 73.832727 144.223503 
L 90.065455 245.539723 
L 106.298182 268.183745 
L 122.530909 258.560992 
L 138.763636 282.503533 
L 154.996364 255.403407 
L 171.229091 265.509664 
L 187.461818 225.766742 
L 203.694545 264.621377 
L 219.927273 281.862955 
L 236.16 259.01907 
L 252.392727 265.953034 
L 268.625455 133.773887 
L 284.858182 259.593098 
L 301.090909 257.285931 
L 317.323636 249.140813 
L 333.556364 229.665145 
L 349.789091 257.469212 
L 366.021818 256.214655 
L 382.254545 256.978271 
L 398.487273 274.921314 
" clip-path="url(#p96c8071c70)" style="fill: none; stroke: #31688e; stroke-opacity: 0.5; stroke-width: 1.5; stroke-linecap: square"/>
   </g>
   <g id="line2d_26">
    <path d="M 73.832727 239.167035 
L 90.065455 283.029725 
L 106.298182 266.522732 
L 122.530909 283.763719 
L 138.763636 276.896369 
L 154.996364 271.39857 
L 171.229091 277.877323 
L 187.461818 208.94894 
L 203.694545 274.809621 
L 219.927273 247.461831 
L 236.16 245.806202 
L 252.392727 270.613222 
L 268.625455 268.78842 
L 284.858182 236.14255 
L 301.090909 274.63129 
L 317.323636 203.594918 
L 333.556364 255.515207 
L 349.789091 233.058542 
L 366.021818 241.836134 
L 382.254545 230.778016 
L 398.487273 220.00023 
" clip-path="url(#p96c8071c70)" style="fill: none; stroke: #31688e; stroke-opacity: 0.5; stroke-width: 1.5; stroke-linecap: square"/>
   </g>
   <g id="line2d_27">
    <path d="M 73.832727 233.701314 
L 90.065455 229.8812 
L 106.298182 241.923397 
L 122.530909 255.871155 
L 138.763636 211.922821 
L 154.996364 222.092366 
L 171.229091 247.388487 
L 187.461818 247.958636 
L 203.694545 217.835359 
L 219.927273 224.222843 
L 236.16 242.346349 
L 252.392727 223.905267 
L 268.625455 194.344746 
L 284.858182 192.908533 
L 301.090909 246.624772 
L 317.323636 194.061123 
L 333.556364 236.03831 
L 349.789091 221.268261 
L 366.021818 202.560351 
L 382.254545 199.353682 
L 398.487273 225.329735 
" clip-path="url(#p96c8071c70)" style="fill: none; stroke: #31688e; stroke-opacity: 0.5; stroke-width: 1.5; stroke-linecap: square"/>
   </g>
   <g id="line2d_28">
    <path d="M 73.832727 174.42428 
L 90.065455 174.314019 
L 106.298182 128.377911 
L 122.530909 187.392145 
L 138.763636 191.489 
L 154.996364 105.976152 
L 171.229091 170.837663 
L 187.461818 211.557634 
L 203.694545 199.883633 
L 219.927273 180.584374 
L 236.16 251.488731 
L 252.392727 215.757191 
L 268.625455 231.827501 
L 284.858182 209.636979 
L 301.090909 225.523142 
L 317.323636 212.214126 
L 333.556364 241.81919 
L 349.789091 212.245397 
L 366.021818 221.823706 
L 382.254545 222.937295 
L 398.487273 162.070909 
" clip-path="url(#p96c8071c70)" style="fill: none; stroke: #31688e; stroke-opacity: 0.5; stroke-width: 1.5; stroke-linecap: square"/>
   </g>
   <g id="line2d_29">
    <path d="M 73.832727 131.648923 
L 90.065455 139.529817 
L 106.298182 139.851853 
L 122.530909 157.549336 
L 138.763636 161.584978 
L 154.996364 214.603888 
L 171.229091 243.349616 
L 187.461818 228.980241 
L 203.694545 210.79552 
L 219.927273 274.444101 
L 236.16 266.120444 
L 252.392727 251.779253 
L 268.625455 259.058751 
L 284.858182 259.759106 
L 301.090909 248.668584 
L 317.323636 267.226462 
L 333.556364 201.856071 
L 349.789091 248.700985 
L 366.021818 250.284249 
L 382.254545 224.787756 
L 398.487273 217.615568 
" clip-path="url(#p96c8071c70)" style="fill: none; stroke: #31688e; stroke-opacity: 0.5; stroke-width: 1.5; stroke-linecap: square"/>
   </g>
   <g id="line2d_30">
    <path d="M 73.832727 231.710427 
L 90.065455 240.560731 
L 106.298182 241.024324 
L 122.530909 249.959345 
L 138.763636 238.754743 
L 154.996364 277.579996 
L 171.229091 257.188609 
L 187.461818 250.813046 
L 203.694545 248.381576 
L 219.927273 270.378264 
L 236.16 264.418016 
L 252.392727 245.225833 
L 268.625455 263.09757 
L 284.858182 247.876588 
L 301.090909 260.00862 
L 317.323636 237.716337 
L 333.556364 261.000784 
L 349.789091 216.778007 
L 366.021818 237.671399 
L 382.254545 255.026591 
L 398.487273 217.33578 
" clip-path="url(#p96c8071c70)" style="fill: none; stroke: #31688e; stroke-opacity: 0.5; stroke-width: 1.5; stroke-linecap: square"/>
   </g>
   <g id="line2d_31">
    <path d="M 73.832727 136.611968 
L 90.065455 145.406589 
L 106.298182 140.582507 
L 122.530909 173.017958 
L 138.763636 158.441568 
L 154.996364 175.317873 
L 171.229091 179.068984 
L 187.461818 204.953144 
L 203.694545 179.772064 
L 219.927273 176.284983 
L 236.16 195.999832 
L 252.392727 187.648553 
L 268.625455 170.980566 
L 284.858182 183.66337 
L 301.090909 194.853506 
L 317.323636 190.36014 
L 333.556364 195.985678 
L 349.789091 198.276789 
L 366.021818 183.546959 
L 382.254545 190.464843 
L 398.487273 160.621284 
" clip-path="url(#p96c8071c70)" style="fill: none; stroke: #31688e; stroke-opacity: 0.5; stroke-width: 1.5; stroke-linecap: square"/>
   </g>
   <g id="line2d_32">
    <path d="M 73.832727 119.386937 
L 90.065455 151.810503 
L 106.298182 129.84057 
L 122.530909 181.637135 
L 138.763636 171.835107 
L 154.996364 182.512034 
L 171.229091 177.212701 
L 187.461818 199.367748 
L 203.694545 224.325188 
L 219.927273 220.088028 
L 236.16 229.846477 
L 252.392727 231.781695 
L 268.625455 245.210761 
L 284.858182 264.688642 
L 301.090909 166.566438 
L 317.323636 273.557209 
L 333.556364 249.954322 
L 349.789091 257.816952 
L 366.021818 269.815083 
L 382.254545 264.102044 
L 398.487273 262.107983 
" clip-path="url(#p96c8071c70)" style="fill: none; stroke: #31688e; stroke-opacity: 0.5; stroke-width: 1.5; stroke-linecap: square"/>
   </g>
   <g id="line2d_33">
    <path d="M 73.832727 269.076573 
L 90.065455 227.183499 
L 106.298182 265.630038 
L 122.530909 262.207819 
L 138.763636 179.693309 
L 154.996364 251.178018 
L 171.229091 224.02701 
L 187.461818 252.501838 
L 203.694545 264.758919 
L 219.927273 255.67081 
L 236.16 270.187011 
L 252.392727 237.728881 
L 268.625455 262.460768 
L 284.858182 226.094885 
L 301.090909 221.582882 
L 317.323636 239.201248 
L 333.556364 232.458576 
L 349.789091 252.840299 
L 366.021818 246.186137 
L 382.254545 218.077539 
L 398.487273 225.329208 
" clip-path="url(#p96c8071c70)" style="fill: none; stroke: #31688e; stroke-opacity: 0.5; stroke-width: 1.5; stroke-linecap: square"/>
   </g>
   <g id="line2d_34">
    <path d="M 73.832727 202.859562 
L 90.065455 224.999398 
L 106.298182 200.129585 
L 122.530909 225.956146 
L 138.763636 233.588836 
L 154.996364 226.233032 
L 171.229091 223.167333 
L 187.461818 228.668765 
L 203.694545 241.482234 
L 219.927273 230.245714 
L 236.16 244.26895 
L 252.392727 196.106932 
L 268.625455 213.582127 
L 284.858182 247.937727 
L 301.090909 222.714746 
L 317.323636 228.410811 
L 333.556364 217.820449 
L 349.789091 215.268399 
L 366.021818 242.558487 
L 382.254545 260.940627 
L 398.487273 246.683058 
" clip-path="url(#p96c8071c70)" style="fill: none; stroke: #31688e; stroke-opacity: 0.5; stroke-width: 1.5; stroke-linecap: square"/>
   </g>
   <g id="line2d_35">
    <path d="M 73.832727 86.438229 
L 90.065455 55.352482 
L 106.298182 144.480157 
L 122.530909 53.568 
L 138.763636 158.271239 
L 154.996364 166.905701 
L 171.229091 199.267525 
L 187.461818 155.76142 
L 203.694545 162.044791 
L 219.927273 158.311592 
L 236.16 167.307253 
L 252.392727 160.141013 
L 268.625455 209.527524 
L 284.858182 215.353834 
L 301.090909 212.292455 
L 317.323636 206.256248 
L 333.556364 158.967644 
L 349.789091 190.885965 
L 366.021818 121.198616 
L 382.254545 208.515034 
L 398.487273 170.939416 
" clip-path="url(#p96c8071c70)" style="fill: none; stroke: #31688e; stroke-opacity: 0.5; stroke-width: 1.5; stroke-linecap: square"/>
   </g>
   <g id="line2d_36">
    <path d="M 73.832727 245.5012 
L 90.065455 207.912155 
L 106.298182 263.973167 
L 122.530909 226.083784 
L 138.763636 257.115827 
L 154.996364 264.786096 
L 171.229091 286.047201 
L 187.461818 287.33453 
L 203.694545 274.826945 
L 219.927273 272.641598 
L 236.16 285.748648 
L 252.392727 286.855227 
L 268.625455 276.896328 
L 284.858182 270.184892 
L 301.090909 277.012289 
L 317.323636 280.112456 
L 333.556364 264.883281 
L 349.789091 283.148554 
L 366.021818 269.20813 
L 382.254545 294.905279 
L 398.487273 287.566012 
" clip-path="url(#p96c8071c70)" style="fill: none; stroke: #31688e; stroke-opacity: 0.5; stroke-width: 1.5; stroke-linecap: square"/>
   </g>
   <g id="line2d_37">
    <path d="M 73.832727 110.684973 
L 90.065455 112.970249 
L 106.298182 211.054035 
L 122.530909 137.63298 
L 138.763636 178.122044 
L 154.996364 195.293164 
L 171.229091 197.074691 
L 187.461818 182.944185 
L 203.694545 176.950354 
L 219.927273 191.148769 
L 236.16 180.28986 
L 252.392727 159.283852 
L 268.625455 191.459366 
L 284.858182 193.438054 
L 301.090909 187.825322 
L 317.323636 201.449989 
L 333.556364 183.688551 
L 349.789091 175.354022 
L 366.021818 194.802234 
L 382.254545 177.200519 
L 398.487273 180.353202 
" clip-path="url(#p96c8071c70)" style="fill: none; stroke: #31688e; stroke-opacity: 0.5; stroke-width: 1.5; stroke-linecap: square"/>
   </g>
   <g id="line2d_38">
    <path d="M 73.832727 103.659312 
L 90.065455 99.01726 
L 106.298182 201.469967 
L 122.530909 173.280963 
L 138.763636 200.952543 
L 154.996364 240.80788 
L 171.229091 239.294259 
L 187.461818 262.914359 
L 203.694545 241.104483 
L 219.927273 254.379009 
L 236.16 256.84712 
L 252.392727 226.071499 
L 268.625455 230.907401 
L 284.858182 263.779126 
L 301.090909 241.54345 
L 317.323636 251.531367 
L 333.556364 246.728033 
L 349.789091 233.587187 
L 366.021818 234.165375 
L 382.254545 243.9802 
L 398.487273 235.256311 
" clip-path="url(#p96c8071c70)" style="fill: none; stroke: #31688e; stroke-opacity: 0.5; stroke-width: 1.5; stroke-linecap: square"/>
   </g>
   <g id="line2d_39">
    <path d="M 73.832727 205.959228 
L 90.065455 185.341218 
L 106.298182 198.857817 
L 122.530909 207.834247 
L 138.763636 239.909573 
L 154.996364 220.923195 
L 171.229091 239.886674 
L 187.461818 256.902794 
L 203.694545 249.764972 
L 219.927273 238.696361 
L 236.16 246.902593 
L 252.392727 247.442876 
L 268.625455 252.472014 
L 284.858182 249.463264 
L 301.090909 243.60457 
L 317.323636 244.735407 
L 333.556364 244.175157 
L 349.789091 259.180458 
L 366.021818 221.483587 
L 382.254545 252.233635 
L 398.487273 258.865454 
" clip-path="url(#p96c8071c70)" style="fill: none; stroke: #31688e; stroke-opacity: 0.5; stroke-width: 1.5; stroke-linecap: square"/>
   </g>
   <g id="line2d_40">
    <path d="M 73.832727 180.023486 
L 90.065455 195.657341 
L 106.298182 225.976896 
L 122.530909 192.413498 
L 138.763636 228.462985 
L 154.996364 250.56203 
L 171.229091 197.269457 
L 187.461818 242.112971 
L 203.694545 227.17419 
L 219.927273 233.038158 
L 236.16 217.556232 
L 252.392727 228.737245 
L 268.625455 211.099012 
L 284.858182 246.468039 
L 301.090909 221.762653 
L 317.323636 239.253175 
L 333.556364 231.84555 
L 349.789091 209.857615 
L 366.021818 245.976007 
L 382.254545 222.636489 
L 398.487273 233.348897 
" clip-path="url(#p96c8071c70)" style="fill: none; stroke: #31688e; stroke-opacity: 0.5; stroke-width: 1.5; stroke-linecap: square"/>
   </g>
   <g id="line2d_41">
    <path d="M 73.832727 98.826118 
L 90.065455 225.633254 
L 106.298182 224.778892 
L 122.530909 216.29505 
L 138.763636 260.703977 
L 154.996364 185.839334 
L 171.229091 270.781746 
L 187.461818 251.809904 
L 203.694545 257.746929 
L 219.927273 212.564454 
L 236.16 268.395704 
L 252.392727 224.554823 
L 268.625455 235.325943 
L 284.858182 250.782268 
L 301.090909 248.820088 
L 317.323636 234.337351 
L 333.556364 227.239359 
L 349.789091 219.425031 
L 366.021818 215.937432 
L 382.254545 228.471042 
L 398.487273 221.241746 
" clip-path="url(#p96c8071c70)" style="fill: none; stroke: #31688e; stroke-opacity: 0.5; stroke-width: 1.5; stroke-linecap: square"/>
   </g>
   <g id="line2d_42">
    <path d="M 73.832727 141.838567 
L 90.065455 191.141615 
L 106.298182 227.680574 
L 122.530909 244.506861 
L 138.763636 212.394391 
L 154.996364 252.133869 
L 171.229091 261.310855 
L 187.461818 269.249848 
L 203.694545 269.72508 
L 219.927273 257.694786 
L 236.16 271.892696 
L 252.392727 276.584885 
L 268.625455 256.52949 
L 284.858182 266.773301 
L 301.090909 268.181339 
L 317.323636 269.744003 
L 333.556364 258.993282 
L 349.789091 259.879783 
L 366.021818 273.149374 
L 382.254545 242.882813 
L 398.487273 240.922768 
" clip-path="url(#p96c8071c70)" style="fill: none; stroke: #31688e; stroke-opacity: 0.5; stroke-width: 1.5; stroke-linecap: square"/>
   </g>
   <g id="line2d_43">
    <path d="M 73.832727 172.314229 
L 90.065455 203.596955 
L 106.298182 197.235201 
L 122.530909 196.301749 
L 138.763636 195.337938 
L 154.996364 198.912968 
L 171.229091 181.768554 
L 187.461818 187.270561 
L 203.694545 176.260544 
L 219.927273 175.643491 
L 236.16 179.99004 
L 252.392727 166.982779 
L 268.625455 197.705132 
L 284.858182 176.037244 
L 301.090909 194.960251 
L 317.323636 184.639417 
L 333.556364 172.858766 
L 349.789091 191.19888 
L 366.021818 182.10718 
L 382.254545 193.742956 
L 398.487273 184.153107 
" clip-path="url(#p96c8071c70)" style="fill: none; stroke: #31688e; stroke-opacity: 0.5; stroke-width: 1.5; stroke-linecap: square"/>
   </g>
   <g id="line2d_44">
    <path d="M 73.832727 230.07717 
L 90.065455 214.026274 
L 106.298182 223.520537 
L 122.530909 209.156933 
L 138.763636 253.76626 
L 154.996364 253.951347 
L 171.229091 193.93873 
L 187.461818 263.800659 
L 203.694545 261.294574 
L 219.927273 235.796707 
L 236.16 285.41487 
L 252.392727 285.071677 
L 268.625455 285.570231 
L 284.858182 267.610653 
L 301.090909 249.174926 
L 317.323636 241.212593 
L 333.556364 229.835426 
L 349.789091 227.221094 
L 366.021818 206.50898 
L 382.254545 232.168666 
L 398.487273 263.296455 
" clip-path="url(#p96c8071c70)" style="fill: none; stroke: #31688e; stroke-opacity: 0.5; stroke-width: 1.5; stroke-linecap: square"/>
   </g>
   <g id="line2d_45">
    <path d="M 73.832727 266.869643 
L 90.065455 254.684294 
L 106.298182 259.664645 
L 122.530909 238.091628 
L 138.763636 232.737485 
L 154.996364 258.955125 
L 171.229091 240.286572 
L 187.461818 229.517268 
L 203.694545 232.342139 
L 219.927273 239.654132 
L 236.16 233.175309 
L 252.392727 217.690309 
L 268.625455 231.546746 
L 284.858182 229.486617 
L 301.090909 244.062491 
L 317.323636 239.383156 
L 333.556364 236.092506 
L 349.789091 252.918785 
L 366.021818 231.139213 
L 382.254545 238.657848 
L 398.487273 218.867948 
" clip-path="url(#p96c8071c70)" style="fill: none; stroke: #31688e; stroke-opacity: 0.5; stroke-width: 1.5; stroke-linecap: square"/>
   </g>
   <g id="line2d_46">
    <path d="M 73.832727 236.103112 
L 90.065455 232.615935 
L 106.298182 207.264382 
L 122.530909 217.351314 
L 138.763636 229.100246 
L 154.996364 266.97429 
L 171.229091 228.217635 
L 187.461818 215.568712 
L 203.694545 221.555749 
L 219.927273 239.104054 
L 236.16 221.864548 
L 252.392727 239.504536 
L 268.625455 242.049847 
L 284.858182 214.24723 
L 301.090909 238.089493 
L 317.323636 230.609707 
L 333.556364 249.218089 
L 349.789091 226.929452 
L 366.021818 238.947094 
L 382.254545 247.022043 
L 398.487273 234.694104 
" clip-path="url(#p96c8071c70)" style="fill: none; stroke: #31688e; stroke-opacity: 0.5; stroke-width: 1.5; stroke-linecap: square"/>
   </g>
   <g id="line2d_47">
    <path d="M 73.832727 167.636911 
L 90.065455 211.276173 
L 106.298182 181.722054 
L 122.530909 210.638201 
L 138.763636 234.183507 
L 154.996364 231.065379 
L 171.229091 266.935281 
L 187.461818 234.927761 
L 203.694545 259.272698 
L 219.927273 250.817945 
L 236.16 247.648056 
L 252.392727 227.776291 
L 268.625455 222.104721 
L 284.858182 242.999484 
L 301.090909 219.925463 
L 317.323636 243.239779 
L 333.556364 259.365137 
L 349.789091 237.500008 
L 366.021818 246.412763 
L 382.254545 239.231977 
L 398.487273 247.234052 
" clip-path="url(#p96c8071c70)" style="fill: none; stroke: #31688e; stroke-opacity: 0.5; stroke-width: 1.5; stroke-linecap: square"/>
   </g>
   <g id="line2d_48">
    <path d="M 73.832727 248.401942 
L 90.065455 245.97 
L 106.298182 272.258774 
L 122.530909 241.808613 
L 138.763636 258.417499 
L 154.996364 259.506421 
L 171.229091 259.946821 
L 187.461818 240.040744 
L 203.694545 257.88886 
L 219.927273 250.318336 
L 236.16 246.870044 
L 252.392727 233.683595 
L 268.625455 251.827671 
L 284.858182 262.660342 
L 301.090909 257.869654 
L 317.323636 268.925111 
L 333.556364 263.912775 
L 349.789091 265.530945 
L 366.021818 286.593714 
L 382.254545 265.462387 
L 398.487273 270.340784 
" clip-path="url(#p96c8071c70)" style="fill: none; stroke: #31688e; stroke-opacity: 0.5; stroke-width: 1.5; stroke-linecap: square"/>
   </g>
   <g id="line2d_49">
    <path d="M 73.832727 181.567397 
L 90.065455 193.533848 
L 106.298182 180.01063 
L 122.530909 203.8831 
L 138.763636 182.723114 
L 154.996364 179.73019 
L 171.229091 202.116055 
L 187.461818 191.333809 
L 203.694545 198.112623 
L 219.927273 211.164332 
L 236.16 209.828786 
L 252.392727 188.21729 
L 268.625455 214.589053 
L 284.858182 202.31329 
L 301.090909 195.122605 
L 317.323636 190.774145 
L 333.556364 195.240515 
L 349.789091 181.512895 
L 366.021818 210.025055 
L 382.254545 199.351209 
L 398.487273 197.941547 
" clip-path="url(#p96c8071c70)" style="fill: none; stroke: #31688e; stroke-opacity: 0.5; stroke-width: 1.5; stroke-linecap: square"/>
   </g>
   <g id="line2d_50">
    <path d="M 73.832727 159.73692 
L 90.065455 215.70462 
L 106.298182 229.365181 
L 122.530909 223.119378 
L 138.763636 242.312289 
L 154.996364 183.799446 
L 171.229091 214.802244 
L 187.461818 220.091331 
L 203.694545 202.503174 
L 219.927273 214.241199 
L 236.16 248.998533 
L 252.392727 223.056426 
L 268.625455 225.207379 
L 284.858182 223.053684 
L 301.090909 256.795971 
L 317.323636 202.758092 
L 333.556364 244.784003 
L 349.789091 216.370674 
L 366.021818 208.963912 
L 382.254545 237.080732 
L 398.487273 164.457116 
" clip-path="url(#p96c8071c70)" style="fill: none; stroke: #31688e; stroke-opacity: 0.5; stroke-width: 1.5; stroke-linecap: square"/>
   </g>
   <g id="line2d_51">
    <path d="M 73.832727 230.652609 
L 90.065455 237.738375 
L 106.298182 235.732524 
L 122.530909 256.234098 
L 138.763636 247.352896 
L 154.996364 230.013881 
L 171.229091 253.88388 
L 187.461818 227.207899 
L 203.694545 200.42219 
L 219.927273 232.713753 
L 236.16 237.831919 
L 252.392727 235.422929 
L 268.625455 230.236726 
L 284.858182 226.856371 
L 301.090909 234.519742 
L 317.323636 206.723712 
L 333.556364 237.898673 
L 349.789091 225.639101 
L 366.021818 221.727564 
L 382.254545 219.033514 
L 398.487273 201.50192 
" clip-path="url(#p96c8071c70)" style="fill: none; stroke: #31688e; stroke-opacity: 0.5; stroke-width: 1.5; stroke-linecap: square"/>
   </g>
   <g id="line2d_52">
    <path d="M 73.832727 251.558951 
L 90.065455 205.303461 
L 106.298182 229.691479 
L 122.530909 207.026993 
L 138.763636 236.691865 
L 154.996364 254.190227 
L 171.229091 233.86596 
L 187.461818 225.35187 
L 203.694545 233.34951 
L 219.927273 238.938723 
L 236.16 225.850118 
L 252.392727 228.918246 
L 268.625455 227.063863 
L 284.858182 242.422737 
L 301.090909 261.725169 
L 317.323636 247.355625 
L 333.556364 238.801324 
L 349.789091 240.315089 
L 366.021818 249.399313 
L 382.254545 248.839559 
L 398.487273 247.032727 
" clip-path="url(#p96c8071c70)" style="fill: none; stroke: #31688e; stroke-opacity: 0.5; stroke-width: 1.5; stroke-linecap: square"/>
   </g>
   <g id="line2d_53">
    <path d="M 73.832727 177.881303 
L 90.065455 144.281356 
L 106.298182 168.721517 
L 122.530909 209.850185 
L 138.763636 181.406864 
L 154.996364 261.466312 
L 171.229091 224.257473 
L 187.461818 200.661313 
L 203.694545 183.721084 
L 219.927273 253.37162 
L 236.16 224.426016 
L 252.392727 226.86337 
L 268.625455 229.115035 
L 284.858182 239.202999 
L 301.090909 254.892073 
L 317.323636 161.778107 
L 333.556364 183.102862 
L 349.789091 165.228848 
L 366.021818 193.590384 
L 382.254545 164.515643 
L 398.487273 149.021784 
" clip-path="url(#p96c8071c70)" style="fill: none; stroke: #31688e; stroke-opacity: 0.5; stroke-width: 1.5; stroke-linecap: square"/>
   </g>
   <g id="line2d_54">
    <path d="M 73.832727 231.918978 
L 90.065455 231.609936 
L 106.298182 262.47735 
L 122.530909 228.743675 
L 138.763636 259.533921 
L 154.996364 257.191571 
L 171.229091 280.542286 
L 187.461818 251.378726 
L 203.694545 241.895734 
L 219.927273 255.763226 
L 236.16 269.462754 
L 252.392727 266.318266 
L 268.625455 284.903168 
L 284.858182 276.313913 
L 301.090909 281.593026 
L 317.323636 273.616961 
L 333.556364 258.087888 
L 349.789091 268.059961 
L 366.021818 255.866478 
L 382.254545 271.289753 
L 398.487273 268.361742 
" clip-path="url(#p96c8071c70)" style="fill: none; stroke: #31688e; stroke-opacity: 0.5; stroke-width: 1.5; stroke-linecap: square"/>
   </g>
   <g id="line2d_55">
    <path d="M 73.832727 196.681689 
L 90.065455 200.899408 
L 106.298182 194.893789 
L 122.530909 194.386433 
L 138.763636 201.755991 
L 154.996364 219.050731 
L 171.229091 224.549072 
L 187.461818 229.647147 
L 203.694545 219.082104 
L 219.927273 225.702751 
L 236.16 216.690507 
L 252.392727 219.044623 
L 268.625455 204.120904 
L 284.858182 234.117783 
L 301.090909 225.744134 
L 317.323636 190.568376 
L 333.556364 195.82912 
L 349.789091 197.414237 
L 366.021818 226.530213 
L 382.254545 176.237585 
L 398.487273 156.416058 
" clip-path="url(#p96c8071c70)" style="fill: none; stroke: #31688e; stroke-opacity: 0.5; stroke-width: 1.5; stroke-linecap: square"/>
   </g>
   <g id="line2d_56">
    <path d="M 73.832727 186.758649 
L 90.065455 206.476699 
L 106.298182 213.711033 
L 122.530909 229.744583 
L 138.763636 245.202996 
L 154.996364 254.997656 
L 171.229091 232.398884 
L 187.461818 258.702043 
L 203.694545 241.878164 
L 219.927273 280.358715 
L 236.16 286.414515 
L 252.392727 284.092357 
L 268.625455 275.980779 
L 284.858182 289.371691 
L 301.090909 295.488 
L 317.323636 244.299401 
L 333.556364 223.662291 
L 349.789091 222.884718 
L 366.021818 264.141785 
L 382.254545 238.627717 
L 398.487273 195.45569 
" clip-path="url(#p96c8071c70)" style="fill: none; stroke: #31688e; stroke-opacity: 0.5; stroke-width: 1.5; stroke-linecap: square"/>
   </g>
   <g id="line2d_57">
    <path d="M 73.832727 244.079887 
L 90.065455 256.093967 
L 106.298182 248.856838 
L 122.530909 269.642555 
L 138.763636 266.045622 
L 154.996364 278.982322 
L 171.229091 206.807577 
L 187.461818 241.968455 
L 203.694545 228.822217 
L 219.927273 252.387272 
L 236.16 220.406052 
L 252.392727 209.508109 
L 268.625455 253.835164 
L 284.858182 260.694171 
L 301.090909 250.719686 
L 317.323636 269.367368 
L 333.556364 235.196016 
L 349.789091 259.43155 
L 366.021818 240.169296 
L 382.254545 219.788244 
L 398.487273 253.498466 
" clip-path="url(#p96c8071c70)" style="fill: none; stroke: #31688e; stroke-opacity: 0.5; stroke-width: 1.5; stroke-linecap: square"/>
   </g>
   <g id="line2d_58">
    <path d="M 73.832727 178.864813 
L 90.065455 135.261349 
L 106.298182 204.638773 
L 122.530909 234.411368 
L 138.763636 212.379716 
L 154.996364 237.64278 
L 171.229091 247.640694 
L 187.461818 235.863769 
L 203.694545 241.328781 
L 219.927273 234.812324 
L 236.16 247.228491 
L 252.392727 236.76708 
L 268.625455 241.470828 
L 284.858182 243.275611 
L 301.090909 232.138528 
L 317.323636 229.431304 
L 333.556364 231.064804 
L 349.789091 242.634595 
L 366.021818 258.37419 
L 382.254545 233.950503 
L 398.487273 234.313576 
" clip-path="url(#p96c8071c70)" style="fill: none; stroke: #31688e; stroke-opacity: 0.5; stroke-width: 1.5; stroke-linecap: square"/>
   </g>
   <g id="line2d_59">
    <path d="M 73.832727 145.266033 
L 90.065455 173.894237 
L 106.298182 209.121963 
L 122.530909 184.151914 
L 138.763636 220.925794 
L 154.996364 214.860066 
L 171.229091 197.957629 
L 187.461818 199.229946 
L 203.694545 196.790341 
L 219.927273 187.181169 
L 236.16 125.105424 
L 252.392727 221.271528 
L 268.625455 254.303431 
L 284.858182 238.090689 
L 301.090909 235.639097 
L 317.323636 190.738523 
L 333.556364 216.299876 
L 349.789091 193.256786 
L 366.021818 222.970956 
L 382.254545 181.717 
L 398.487273 245.787198 
" clip-path="url(#p96c8071c70)" style="fill: none; stroke: #31688e; stroke-opacity: 0.5; stroke-width: 1.5; stroke-linecap: square"/>
   </g>
   <g id="line2d_60">
    <path d="M 73.832727 224.244008 
L 90.065455 232.576204 
L 106.298182 257.033647 
L 122.530909 252.451673 
L 138.763636 250.81103 
L 154.996364 239.185533 
L 171.229091 250.473919 
L 187.461818 256.186933 
L 203.694545 272.095286 
L 219.927273 261.181198 
L 236.16 264.931466 
L 252.392727 248.297792 
L 268.625455 259.263346 
L 284.858182 269.08995 
L 301.090909 246.52837 
L 317.323636 260.714286 
L 333.556364 245.087264 
L 349.789091 234.33948 
L 366.021818 231.646984 
L 382.254545 240.04438 
L 398.487273 276.830839 
" clip-path="url(#p96c8071c70)" style="fill: none; stroke: #31688e; stroke-opacity: 0.5; stroke-width: 1.5; stroke-linecap: square"/>
   </g>
   <g id="line2d_61">
    <path d="M 73.832727 166.615021 
L 90.065455 167.717877 
L 106.298182 173.145371 
L 122.530909 180.12222 
L 138.763636 189.02979 
L 154.996364 203.83835 
L 171.229091 193.702353 
L 187.461818 154.788921 
L 203.694545 155.767968 
L 219.927273 190.908676 
L 236.16 154.430789 
L 252.392727 222.154889 
L 268.625455 192.571983 
L 284.858182 207.276487 
L 301.090909 222.319153 
L 317.323636 168.228527 
L 333.556364 207.465929 
L 349.789091 203.657944 
L 366.021818 202.648264 
L 382.254545 218.884788 
L 398.487273 200.240364 
" clip-path="url(#p96c8071c70)" style="fill: none; stroke: #31688e; stroke-opacity: 0.5; stroke-width: 1.5; stroke-linecap: square"/>
   </g>
   <g id="line2d_62">
    <path d="M 73.832727 227.204192 
L 90.065455 203.516399 
L 106.298182 169.236315 
L 122.530909 228.712081 
L 138.763636 194.772451 
L 154.996364 250.882565 
L 171.229091 261.463407 
L 187.461818 224.020497 
L 203.694545 188.778273 
L 219.927273 254.346241 
L 236.16 258.45149 
L 252.392727 263.525786 
L 268.625455 250.52263 
L 284.858182 275.047292 
L 301.090909 277.731628 
L 317.323636 276.181642 
L 333.556364 271.610406 
L 349.789091 269.830494 
L 366.021818 272.185673 
L 382.254545 274.675899 
L 398.487273 264.524249 
" clip-path="url(#p96c8071c70)" style="fill: none; stroke: #31688e; stroke-opacity: 0.5; stroke-width: 1.5; stroke-linecap: square"/>
   </g>
   <g id="line2d_63">
    <path d="M 73.832727 214.044378 
L 90.065455 209.330898 
L 106.298182 211.323111 
L 122.530909 216.379838 
L 138.763636 204.14136 
L 154.996364 233.774182 
L 171.229091 259.460197 
L 187.461818 245.672405 
L 203.694545 250.20606 
L 219.927273 242.290833 
L 236.16 253.973757 
L 252.392727 237.739245 
L 268.625455 247.146781 
L 284.858182 261.226936 
L 301.090909 252.99244 
L 317.323636 234.291528 
L 333.556364 249.43755 
L 349.789091 249.846177 
L 366.021818 253.949123 
L 382.254545 257.219392 
L 398.487273 227.542812 
" clip-path="url(#p96c8071c70)" style="fill: none; stroke: #31688e; stroke-opacity: 0.5; stroke-width: 1.5; stroke-linecap: square"/>
   </g>
   <g id="line2d_64">
    <path d="M 73.832727 155.464677 
L 90.065455 238.033728 
L 106.298182 178.186051 
L 122.530909 233.099805 
L 138.763636 245.020085 
L 154.996364 230.111242 
L 171.229091 230.770254 
L 187.461818 125.021756 
L 203.694545 94.895856 
L 219.927273 194.08878 
L 236.16 128.607759 
L 252.392727 198.062323 
L 268.625455 267.201662 
L 284.858182 215.050784 
L 301.090909 260.686437 
L 317.323636 211.570953 
L 333.556364 255.988622 
L 349.789091 240.541056 
L 366.021818 248.820108 
L 382.254545 256.829873 
L 398.487273 223.356512 
" clip-path="url(#p96c8071c70)" style="fill: none; stroke: #31688e; stroke-opacity: 0.5; stroke-width: 1.5; stroke-linecap: square"/>
   </g>
   <g id="patch_3">
    <path d="M 57.6 307.584 
L 57.6 41.472 
" style="fill: none; stroke: #000000; stroke-width: 3; stroke-linejoin: miter; stroke-linecap: square"/>
   </g>
   <g id="patch_4">
    <path d="M 414.72 307.584 
L 414.72 41.472 
" style="fill: none; stroke: #000000; stroke-width: 3; stroke-linejoin: miter; stroke-linecap: square"/>
   </g>
   <g id="patch_5">
    <path d="M 57.6 307.584 
L 414.72 307.584 
" style="fill: none; stroke: #000000; stroke-width: 3; stroke-linejoin: miter; stroke-linecap: square"/>
   </g>
   <g id="patch_6">
    <path d="M 57.6 41.472 
L 414.72 41.472 
" style="fill: none; stroke: #000000; stroke-width: 3; stroke-linejoin: miter; stroke-linecap: square"/>
   </g>
   <g id="text_14">
    <!-- Atom Type C (n=51, mean Q=8.72) -->
    <g transform="translate(40.817187 35.472) scale(0.22 -0.22)">
     <defs>
      <path id="DejaVuSans-41" d="M 2188 4044 
L 1331 1722 
L 3047 1722 
L 2188 4044 
z
M 1831 4666 
L 2547 4666 
L 4325 0 
L 3669 0 
L 3244 1197 
L 1141 1197 
L 716 0 
L 50 0 
L 1831 4666 
z
" transform="scale(0.015625)"/>
      <path id="DejaVuSans-74" d="M 1172 4494 
L 1172 3500 
L 2356 3500 
L 2356 3053 
L 1172 3053 
L 1172 1153 
Q 1172 725 1289 603 
Q 1406 481 1766 481 
L 2356 481 
L 2356 0 
L 1766 0 
Q 1100 0 847 248 
Q 594 497 594 1153 
L 594 3053 
L 172 3053 
L 172 3500 
L 594 3500 
L 594 4494 
L 1172 4494 
z
" transform="scale(0.015625)"/>
      <path id="DejaVuSans-6f" d="M 1959 3097 
Q 1497 3097 1228 2736 
Q 959 2375 959 1747 
Q 959 1119 1226 758 
Q 1494 397 1959 397 
Q 2419 397 2687 759 
Q 2956 1122 2956 1747 
Q 2956 2369 2687 2733 
Q 2419 3097 1959 3097 
z
M 1959 3584 
Q 2709 3584 3137 3096 
Q 3566 2609 3566 1747 
Q 3566 888 3137 398 
Q 2709 -91 1959 -91 
Q 1206 -91 779 398 
Q 353 888 353 1747 
Q 353 2609 779 3096 
Q 1206 3584 1959 3584 
z
" transform="scale(0.015625)"/>
      <path id="DejaVuSans-6d" d="M 3328 2828 
Q 3544 3216 3844 3400 
Q 4144 3584 4550 3584 
Q 5097 3584 5394 3201 
Q 5691 2819 5691 2113 
L 5691 0 
L 5113 0 
L 5113 2094 
Q 5113 2597 4934 2840 
Q 4756 3084 4391 3084 
Q 3944 3084 3684 2787 
Q 3425 2491 3425 1978 
L 3425 0 
L 2847 0 
L 2847 2094 
Q 2847 2600 2669 2842 
Q 2491 3084 2119 3084 
Q 1678 3084 1418 2786 
Q 1159 2488 1159 1978 
L 1159 0 
L 581 0 
L 581 3500 
L 1159 3500 
L 1159 2956 
Q 1356 3278 1631 3431 
Q 1906 3584 2284 3584 
Q 2666 3584 2933 3390 
Q 3200 3197 3328 2828 
z
" transform="scale(0.015625)"/>
      <path id="DejaVuSans-20" transform="scale(0.015625)"/>
      <path id="DejaVuSans-54" d="M -19 4666 
L 3928 4666 
L 3928 4134 
L 2272 4134 
L 2272 0 
L 1638 0 
L 1638 4134 
L -19 4134 
L -19 4666 
z
" transform="scale(0.015625)"/>
      <path id="DejaVuSans-79" d="M 2059 -325 
Q 1816 -950 1584 -1140 
Q 1353 -1331 966 -1331 
L 506 -1331 
L 506 -850 
L 844 -850 
Q 1081 -850 1212 -737 
Q 1344 -625 1503 -206 
L 1606 56 
L 191 3500 
L 800 3500 
L 1894 763 
L 2988 3500 
L 3597 3500 
L 2059 -325 
z
" transform="scale(0.015625)"/>
      <path id="DejaVuSans-70" d="M 1159 525 
L 1159 -1331 
L 581 -1331 
L 581 3500 
L 1159 3500 
L 1159 2969 
Q 1341 3281 1617 3432 
Q 1894 3584 2278 3584 
Q 2916 3584 3314 3078 
Q 3713 2572 3713 1747 
Q 3713 922 3314 415 
Q 2916 -91 2278 -91 
Q 1894 -91 1617 61 
Q 1341 213 1159 525 
z
M 3116 1747 
Q 3116 2381 2855 2742 
Q 2594 3103 2138 3103 
Q 1681 3103 1420 2742 
Q 1159 2381 1159 1747 
Q 1159 1113 1420 752 
Q 1681 391 2138 391 
Q 2594 391 2855 752 
Q 3116 1113 3116 1747 
z
" transform="scale(0.015625)"/>
      <path id="DejaVuSans-65" d="M 3597 1894 
L 3597 1613 
L 953 1613 
Q 991 1019 1311 708 
Q 1631 397 2203 397 
Q 2534 397 2845 478 
Q 3156 559 3463 722 
L 3463 178 
Q 3153 47 2828 -22 
Q 2503 -91 2169 -91 
Q 1331 -91 842 396 
Q 353 884 353 1716 
Q 353 2575 817 3079 
Q 1281 3584 2069 3584 
Q 2775 3584 3186 3129 
Q 3597 2675 3597 1894 
z
M 3022 2063 
Q 3016 2534 2758 2815 
Q 2500 3097 2075 3097 
Q 1594 3097 1305 2825 
Q 1016 2553 972 2059 
L 3022 2063 
z
" transform="scale(0.015625)"/>
      <path id="DejaVuSans-43" d="M 4122 4306 
L 4122 3641 
Q 3803 3938 3442 4084 
Q 3081 4231 2675 4231 
Q 1875 4231 1450 3742 
Q 1025 3253 1025 2328 
Q 1025 1406 1450 917 
Q 1875 428 2675 428 
Q 3081 428 3442 575 
Q 3803 722 4122 1019 
L 4122 359 
Q 3791 134 3420 21 
Q 3050 -91 2638 -91 
Q 1578 -91 968 557 
Q 359 1206 359 2328 
Q 359 3453 968 4101 
Q 1578 4750 2638 4750 
Q 3056 4750 3426 4639 
Q 3797 4528 4122 4306 
z
" transform="scale(0.015625)"/>
      <path id="DejaVuSans-28" d="M 1984 4856 
Q 1566 4138 1362 3434 
Q 1159 2731 1159 2009 
Q 1159 1288 1364 580 
Q 1569 -128 1984 -844 
L 1484 -844 
Q 1016 -109 783 600 
Q 550 1309 550 2009 
Q 550 2706 781 3412 
Q 1013 4119 1484 4856 
L 1984 4856 
z
" transform="scale(0.015625)"/>
      <path id="DejaVuSans-6e" d="M 3513 2113 
L 3513 0 
L 2938 0 
L 2938 2094 
Q 2938 2591 2744 2837 
Q 2550 3084 2163 3084 
Q 1697 3084 1428 2787 
Q 1159 2491 1159 1978 
L 1159 0 
L 581 0 
L 581 3500 
L 1159 3500 
L 1159 2956 
Q 1366 3272 1645 3428 
Q 1925 3584 2291 3584 
Q 2894 3584 3203 3211 
Q 3513 2838 3513 2113 
z
" transform="scale(0.015625)"/>
      <path id="DejaVuSans-3d" d="M 678 2906 
L 4684 2906 
L 4684 2381 
L 678 2381 
L 678 2906 
z
M 678 1631 
L 4684 1631 
L 4684 1100 
L 678 1100 
L 678 1631 
z
" transform="scale(0.015625)"/>
      <path id="DejaVuSans-2c" d="M 750 794 
L 1409 794 
L 1409 256 
L 897 -744 
L 494 -744 
L 750 256 
L 750 794 
z
" transform="scale(0.015625)"/>
      <path id="DejaVuSans-61" d="M 2194 1759 
Q 1497 1759 1228 1600 
Q 959 1441 959 1056 
Q 959 750 1161 570 
Q 1363 391 1709 391 
Q 2188 391 2477 730 
Q 2766 1069 2766 1631 
L 2766 1759 
L 2194 1759 
z
M 3341 1997 
L 3341 0 
L 2766 0 
L 2766 531 
Q 2569 213 2275 61 
Q 1981 -91 1556 -91 
Q 1019 -91 701 211 
Q 384 513 384 1019 
Q 384 1609 779 1909 
Q 1175 2209 1959 2209 
L 2766 2209 
L 2766 2266 
Q 2766 2663 2505 2880 
Q 2244 3097 1772 3097 
Q 1472 3097 1187 3025 
Q 903 2953 641 2809 
L 641 3341 
Q 956 3463 1253 3523 
Q 1550 3584 1831 3584 
Q 2591 3584 2966 3190 
Q 3341 2797 3341 1997 
z
" transform="scale(0.015625)"/>
      <path id="DejaVuSans-51" d="M 2522 4238 
Q 1834 4238 1429 3725 
Q 1025 3213 1025 2328 
Q 1025 1447 1429 934 
Q 1834 422 2522 422 
Q 3209 422 3611 934 
Q 4013 1447 4013 2328 
Q 4013 3213 3611 3725 
Q 3209 4238 2522 4238 
z
M 3406 84 
L 4238 -825 
L 3475 -825 
L 2784 -78 
Q 2681 -84 2626 -87 
Q 2572 -91 2522 -91 
Q 1538 -91 948 567 
Q 359 1225 359 2328 
Q 359 3434 948 4092 
Q 1538 4750 2522 4750 
Q 3503 4750 4090 4092 
Q 4678 3434 4678 2328 
Q 4678 1516 4351 937 
Q 4025 359 3406 84 
z
" transform="scale(0.015625)"/>
      <path id="DejaVuSans-2e" d="M 684 794 
L 1344 794 
L 1344 0 
L 684 0 
L 684 794 
z
" transform="scale(0.015625)"/>
      <path id="DejaVuSans-37" d="M 525 4666 
L 3525 4666 
L 3525 4397 
L 1831 0 
L 1172 0 
L 2766 4134 
L 525 4134 
L 525 4666 
z
" transform="scale(0.015625)"/>
      <path id="DejaVuSans-29" d="M 513 4856 
L 1013 4856 
Q 1481 4119 1714 3412 
Q 1947 2706 1947 2009 
Q 1947 1309 1714 600 
Q 1481 -109 1013 -844 
L 513 -844 
Q 928 -128 1133 580 
Q 1338 1288 1338 2009 
Q 1338 2731 1133 3434 
Q 928 4138 513 4856 
z
" transform="scale(0.015625)"/>
     </defs>
     <use xlink:href="#DejaVuSans-41"/>
     <use xlink:href="#DejaVuSans-74" transform="translate(66.658203 0)"/>
     <use xlink:href="#DejaVuSans-6f" transform="translate(105.867188 0)"/>
     <use xlink:href="#DejaVuSans-6d" transform="translate(167.048828 0)"/>
     <use xlink:href="#DejaVuSans-20" transform="translate(264.460938 0)"/>
     <use xlink:href="#DejaVuSans-54" transform="translate(296.248047 0)"/>
     <use xlink:href="#DejaVuSans-79" transform="translate(341.707031 0)"/>
     <use xlink:href="#DejaVuSans-70" transform="translate(400.886719 0)"/>
     <use xlink:href="#DejaVuSans-65" transform="translate(464.363281 0)"/>
     <use xlink:href="#DejaVuSans-20" transform="translate(525.886719 0)"/>
     <use xlink:href="#DejaVuSans-43" transform="translate(557.673828 0)"/>
     <use xlink:href="#DejaVuSans-20" transform="translate(627.498047 0)"/>
     <use xlink:href="#DejaVuSans-28" transform="translate(659.285156 0)"/>
     <use xlink:href="#DejaVuSans-6e" transform="translate(698.298828 0)"/>
     <use xlink:href="#DejaVuSans-3d" transform="translate(761.677734 0)"/>
     <use xlink:href="#DejaVuSans-35" transform="translate(845.466797 0)"/>
     <use xlink:href="#DejaVuSans-31" transform="translate(909.089844 0)"/>
     <use xlink:href="#DejaVuSans-2c" transform="translate(972.712891 0)"/>
     <use xlink:href="#DejaVuSans-20" transform="translate(1004.5 0)"/>
     <use xlink:href="#DejaVuSans-6d" transform="translate(1036.287109 0)"/>
     <use xlink:href="#DejaVuSans-65" transform="translate(1133.699219 0)"/>
     <use xlink:href="#DejaVuSans-61" transform="translate(1195.222656 0)"/>
     <use xlink:href="#DejaVuSans-6e" transform="translate(1256.501953 0)"/>
     <use xlink:href="#DejaVuSans-20" transform="translate(1319.880859 0)"/>
     <use xlink:href="#DejaVuSans-51" transform="translate(1351.667969 0)"/>
     <use xlink:href="#DejaVuSans-3d" transform="translate(1430.378906 0)"/>
     <use xlink:href="#DejaVuSans-38" transform="translate(1514.167969 0)"/>
     <use xlink:href="#DejaVuSans-2e" transform="translate(1577.791016 0)"/>
     <use xlink:href="#DejaVuSans-37" transform="translate(1609.578125 0)"/>
     <use xlink:href="#DejaVuSans-32" transform="translate(1673.201172 0)"/>
     <use xlink:href="#DejaVuSans-29" transform="translate(1736.824219 0)"/>
    </g>
   </g>
  </g>
 </g>
 <defs>
  <clipPath id="p96c8071c70">
   <rect x="57.6" y="41.472" width="357.12" height="266.112"/>
  </clipPath>
 </defs>
</svg>
