<?xml version="1.0" encoding="utf-8" standalone="no"?>
<!DOCTYPE svg PUBLIC "-//W3C//DTD SVG 1.1//EN"
  "http://www.w3.org/Graphics/SVG/1.1/DTD/svg11.dtd">
<svg xmlns:xlink="http://www.w3.org/1999/xlink" width="460.8pt" height="345.6pt" viewBox="0 0 460.8 345.6" xmlns="http://www.w3.org/2000/svg" version="1.1">
 <metadata>
  <rdf:RDF xmlns:dc="http://purl.org/dc/elements/1.1/" xmlns:cc="http://creativecommons.org/ns#" xmlns:rdf="http://www.w3.org/1999/02/22-rdf-syntax-ns#">
   <cc:Work>
    <dc:type rdf:resource="http://purl.org/dc/dcmitype/StillImage"/>
    <dc:date>2025-12-10T13:50:10.480616</dc:date>
    <dc:format>image/svg+xml</dc:format>
    <dc:creator>
     <cc:Agent>
      <dc:title>Matplotlib v3.10.3, https://matplotlib.org/</dc:title>
     </cc:Agent>
    </dc:creator>
   </cc:Work>
  </rdf:RDF>
 </metadata>
 <defs>
  <style type="text/css">*{stroke-linejoin: round; stroke-linecap: butt}</style>
 </defs>
 <g id="figure_1">
  <g id="patch_1">
   <path d="M 0 345.6 
L 460.8 345.6 
L 460.8 0 
L 0 0 
z
" style="fill: #ffffff"/>
  </g>
  <g id="axes_1">
   <g id="patch_2">
    <path d="M 57.6 307.584 
L 414.72 307.584 
L 414.72 41.472 
L 57.6 41.472 
z
" style="fill: #ffffff"/>
   </g>
   <g id="matplotlib.axis_1">
    <g id="xtick_1">
     <g id="line2d_1">
      <defs>
       <path id="mbe1fcc9abd" d="M 0 0 
L 0 3.5 
" style="stroke: #000000; stroke-width: 0.8"/>
      </defs>
      <g>
       <use xlink:href="#mbe1fcc9abd" x="73.832727" y="307.584" style="stroke: #000000; stroke-width: 0.8"/>
      </g>
     </g>
     <g id="text_1">
      <!-- 0 -->
      <g transform="translate(69.060852 325.981656) scale(0.15 -0.15)">
       <defs>
        <path id="DejaVuSans-30" d="M 2034 4250 
Q 1547 4250 1301 3770 
Q 1056 3291 1056 2328 
Q 1056 1369 1301 889 
Q 1547 409 2034 409 
Q 2525 409 2770 889 
Q 3016 1369 3016 2328 
Q 3016 3291 2770 3770 
Q 2525 4250 2034 4250 
z
M 2034 4750 
Q 2819 4750 3233 4129 
Q 3647 3509 3647 2328 
Q 3647 1150 3233 529 
Q 2819 -91 2034 -91 
Q 1250 -91 836 529 
Q 422 1150 422 2328 
Q 422 3509 836 4129 
Q 1250 4750 2034 4750 
z
" transform="scale(0.015625)"/>
       </defs>
       <use xlink:href="#DejaVuSans-30"/>
      </g>
     </g>
    </g>
    <g id="xtick_2">
     <g id="line2d_2">
      <g>
       <use xlink:href="#mbe1fcc9abd" x="154.996364" y="307.584" style="stroke: #000000; stroke-width: 0.8"/>
      </g>
     </g>
     <g id="text_2">
      <!-- 5 -->
      <g transform="translate(150.224489 325.981656) scale(0.15 -0.15)">
       <defs>
        <path id="DejaVuSans-35" d="M 691 4666 
L 3169 4666 
L 3169 4134 
L 1269 4134 
L 1269 2991 
Q 1406 3038 1543 3061 
Q 1681 3084 1819 3084 
Q 2600 3084 3056 2656 
Q 3513 2228 3513 1497 
Q 3513 744 3044 326 
Q 2575 -91 1722 -91 
Q 1428 -91 1123 -41 
Q 819 9 494 109 
L 494 744 
Q 775 591 1075 516 
Q 1375 441 1709 441 
Q 2250 441 2565 725 
Q 2881 1009 2881 1497 
Q 2881 1984 2565 2268 
Q 2250 2553 1709 2553 
Q 1456 2553 1204 2497 
Q 953 2441 691 2322 
L 691 4666 
z
" transform="scale(0.015625)"/>
       </defs>
       <use xlink:href="#DejaVuSans-35"/>
      </g>
     </g>
    </g>
    <g id="xtick_3">
     <g id="line2d_3">
      <g>
       <use xlink:href="#mbe1fcc9abd" x="236.16" y="307.584" style="stroke: #000000; stroke-width: 0.8"/>
      </g>
     </g>
     <g id="text_3">
      <!-- 10 -->
      <g transform="translate(226.61625 325.981656) scale(0.15 -0.15)">
       <defs>
        <path id="DejaVuSans-31" d="M 794 531 
L 1825 531 
L 1825 4091 
L 703 3866 
L 703 4441 
L 1819 4666 
L 2450 4666 
L 2450 531 
L 3481 531 
L 3481 0 
L 794 0 
L 794 531 
z
" transform="scale(0.015625)"/>
       </defs>
       <use xlink:href="#DejaVuSans-31"/>
       <use xlink:href="#DejaVuSans-30" transform="translate(63.623047 0)"/>
      </g>
     </g>
    </g>
    <g id="xtick_4">
     <g id="line2d_4">
      <g>
       <use xlink:href="#mbe1fcc9abd" x="317.323636" y="307.584" style="stroke: #000000; stroke-width: 0.8"/>
      </g>
     </g>
     <g id="text_4">
      <!-- 15 -->
      <g transform="translate(307.779886 325.981656) scale(0.15 -0.15)">
       <use xlink:href="#DejaVuSans-31"/>
       <use xlink:href="#DejaVuSans-35" transform="translate(63.623047 0)"/>
      </g>
     </g>
    </g>
    <g id="xtick_5">
     <g id="line2d_5">
      <g>
       <use xlink:href="#mbe1fcc9abd" x="398.487273" y="307.584" style="stroke: #000000; stroke-width: 0.8"/>
      </g>
     </g>
     <g id="text_5">
      <!-- 20 -->
      <g transform="translate(388.943523 325.981656) scale(0.15 -0.15)">
       <defs>
        <path id="DejaVuSans-32" d="M 1228 531 
L 3431 531 
L 3431 0 
L 469 0 
L 469 531 
Q 828 903 1448 1529 
Q 2069 2156 2228 2338 
Q 2531 2678 2651 2914 
Q 2772 3150 2772 3378 
Q 2772 3750 2511 3984 
Q 2250 4219 1831 4219 
Q 1534 4219 1204 4116 
Q 875 4013 500 3803 
L 500 4441 
Q 881 4594 1212 4672 
Q 1544 4750 1819 4750 
Q 2544 4750 2975 4387 
Q 3406 4025 3406 3419 
Q 3406 3131 3298 2873 
Q 3191 2616 2906 2266 
Q 2828 2175 2409 1742 
Q 1991 1309 1228 531 
z
" transform="scale(0.015625)"/>
       </defs>
       <use xlink:href="#DejaVuSans-32"/>
       <use xlink:href="#DejaVuSans-30" transform="translate(63.623047 0)"/>
      </g>
     </g>
    </g>
   </g>
   <g id="matplotlib.axis_2">
    <g id="ytick_1">
     <g id="line2d_6">
      <defs>
       <path id="ma14311edcf" d="M 0 0 
L -3.5 0 
" style="stroke: #000000; stroke-width: 0.8"/>
      </defs>
      <g>
       <use xlink:href="#ma14311edcf" x="57.6" y="300.344263" style="stroke: #000000; stroke-width: 0.8"/>
      </g>
     </g>
     <g id="text_6">
      <!-- 2.5 -->
      <g transform="translate(26.745313 306.043091) scale(0.15 -0.15)">
       <defs>
        <path id="DejaVuSans-2e" d="M 684 794 
L 1344 794 
L 1344 0 
L 684 0 
L 684 794 
z
" transform="scale(0.015625)"/>
       </defs>
       <use xlink:href="#DejaVuSans-32"/>
       <use xlink:href="#DejaVuSans-2e" transform="translate(63.623047 0)"/>
       <use xlink:href="#DejaVuSans-35" transform="translate(95.410156 0)"/>
      </g>
     </g>
    </g>
    <g id="ytick_2">
     <g id="line2d_7">
      <g>
       <use xlink:href="#ma14311edcf" x="57.6" y="264.826917" style="stroke: #000000; stroke-width: 0.8"/>
      </g>
     </g>
     <g id="text_7">
      <!-- 5.0 -->
      <g transform="translate(26.745313 270.525745) scale(0.15 -0.15)">
       <use xlink:href="#DejaVuSans-35"/>
       <use xlink:href="#DejaVuSans-2e" transform="translate(63.623047 0)"/>
       <use xlink:href="#DejaVuSans-30" transform="translate(95.410156 0)"/>
      </g>
     </g>
    </g>
    <g id="ytick_3">
     <g id="line2d_8">
      <g>
       <use xlink:href="#ma14311edcf" x="57.6" y="229.309572" style="stroke: #000000; stroke-width: 0.8"/>
      </g>
     </g>
     <g id="text_8">
      <!-- 7.5 -->
      <g transform="translate(26.745313 235.0084) scale(0.15 -0.15)">
       <defs>
        <path id="DejaVuSans-37" d="M 525 4666 
L 3525 4666 
L 3525 4397 
L 1831 0 
L 1172 0 
L 2766 4134 
L 525 4134 
L 525 4666 
z
" transform="scale(0.015625)"/>
       </defs>
       <use xlink:href="#DejaVuSans-37"/>
       <use xlink:href="#DejaVuSans-2e" transform="translate(63.623047 0)"/>
       <use xlink:href="#DejaVuSans-35" transform="translate(95.410156 0)"/>
      </g>
     </g>
    </g>
    <g id="ytick_4">
     <g id="line2d_9">
      <g>
       <use xlink:href="#ma14311edcf" x="57.6" y="193.792226" style="stroke: #000000; stroke-width: 0.8"/>
      </g>
     </g>
     <g id="text_9">
      <!-- 10.0 -->
      <g transform="translate(17.201563 199.491054) scale(0.15 -0.15)">
       <use xlink:href="#DejaVuSans-31"/>
       <use xlink:href="#DejaVuSans-30" transform="translate(63.623047 0)"/>
       <use xlink:href="#DejaVuSans-2e" transform="translate(127.246094 0)"/>
       <use xlink:href="#DejaVuSans-30" transform="translate(159.033203 0)"/>
      </g>
     </g>
    </g>
    <g id="ytick_5">
     <g id="line2d_10">
      <g>
       <use xlink:href="#ma14311edcf" x="57.6" y="158.274881" style="stroke: #000000; stroke-width: 0.8"/>
      </g>
     </g>
     <g id="text_10">
      <!-- 12.5 -->
      <g transform="translate(17.201563 163.973709) scale(0.15 -0.15)">
       <use xlink:href="#DejaVuSans-31"/>
       <use xlink:href="#DejaVuSans-32" transform="translate(63.623047 0)"/>
       <use xlink:href="#DejaVuSans-2e" transform="translate(127.246094 0)"/>
       <use xlink:href="#DejaVuSans-35" transform="translate(159.033203 0)"/>
      </g>
     </g>
    </g>
    <g id="ytick_6">
     <g id="line2d_11">
      <g>
       <use xlink:href="#ma14311edcf" x="57.6" y="122.757535" style="stroke: #000000; stroke-width: 0.8"/>
      </g>
     </g>
     <g id="text_11">
      <!-- 15.0 -->
      <g transform="translate(17.201563 128.456363) scale(0.15 -0.15)">
       <use xlink:href="#DejaVuSans-31"/>
       <use xlink:href="#DejaVuSans-35" transform="translate(63.623047 0)"/>
       <use xlink:href="#DejaVuSans-2e" transform="translate(127.246094 0)"/>
       <use xlink:href="#DejaVuSans-30" transform="translate(159.033203 0)"/>
      </g>
     </g>
    </g>
    <g id="ytick_7">
     <g id="line2d_12">
      <g>
       <use xlink:href="#ma14311edcf" x="57.6" y="87.240189" style="stroke: #000000; stroke-width: 0.8"/>
      </g>
     </g>
     <g id="text_12">
      <!-- 17.5 -->
      <g transform="translate(17.201563 92.939018) scale(0.15 -0.15)">
       <use xlink:href="#DejaVuSans-31"/>
       <use xlink:href="#DejaVuSans-37" transform="translate(63.623047 0)"/>
       <use xlink:href="#DejaVuSans-2e" transform="translate(127.246094 0)"/>
       <use xlink:href="#DejaVuSans-35" transform="translate(159.033203 0)"/>
      </g>
     </g>
    </g>
    <g id="ytick_8">
     <g id="line2d_13">
      <g>
       <use xlink:href="#ma14311edcf" x="57.6" y="51.722844" style="stroke: #000000; stroke-width: 0.8"/>
      </g>
     </g>
     <g id="text_13">
      <!-- 20.0 -->
      <g transform="translate(17.201563 57.421672) scale(0.15 -0.15)">
       <use xlink:href="#DejaVuSans-32"/>
       <use xlink:href="#DejaVuSans-30" transform="translate(63.623047 0)"/>
       <use xlink:href="#DejaVuSans-2e" transform="translate(127.246094 0)"/>
       <use xlink:href="#DejaVuSans-30" transform="translate(159.033203 0)"/>
      </g>
     </g>
    </g>
   </g>
   <g id="line2d_14">
    <path d="M 73.832727 217.058901 
L 90.065455 154.378409 
L 106.298182 198.478963 
L 122.530909 118.115291 
L 138.763636 206.325185 
L 154.996364 219.733716 
L 171.229091 197.557173 
L 187.461818 222.941585 
L 203.694545 185.042966 
L 219.927273 170.967767 
L 236.16 182.20778 
L 252.392727 199.143887 
L 268.625455 173.382128 
L 284.858182 196.73575 
L 301.090909 177.163876 
L 317.323636 226.055991 
L 333.556364 247.321601 
L 349.789091 217.600429 
L 366.021818 224.536763 
L 382.254545 220.326972 
L 398.487273 191.296889 
" clip-path="url(#p5ccacf3af0)" style="fill: none; stroke: #35b779; stroke-opacity: 0.5; stroke-width: 1.5; stroke-linecap: square"/>
   </g>
   <g id="line2d_15">
    <path d="M 73.832727 180.032798 
L 90.065455 207.909714 
L 106.298182 243.063932 
L 122.530909 214.474178 
L 138.763636 241.504119 
L 154.996364 203.505801 
L 171.229091 192.722559 
L 187.461818 209.439751 
L 203.694545 211.822672 
L 219.927273 231.177578 
L 236.16 196.894077 
L 252.392727 192.038055 
L 268.625455 245.910033 
L 284.858182 110.686841 
L 301.090909 163.707947 
L 317.323636 218.536849 
L 333.556364 216.458471 
L 349.789091 167.687872 
L 366.021818 214.030429 
L 382.254545 124.963613 
L 398.487273 157.998851 
" clip-path="url(#p5ccacf3af0)" style="fill: none; stroke: #35b779; stroke-opacity: 0.5; stroke-width: 1.5; stroke-linecap: square"/>
   </g>
   <g id="line2d_16">
    <path d="M 73.832727 225.151215 
L 90.065455 53.955851 
L 106.298182 176.364468 
L 122.530909 168.812331 
L 138.763636 145.65293 
L 154.996364 154.290977 
L 171.229091 214.302223 
L 187.461818 181.985388 
L 203.694545 212.715242 
L 219.927273 203.337906 
L 236.16 203.904223 
L 252.392727 187.040699 
L 268.625455 199.401504 
L 284.858182 203.807508 
L 301.090909 212.823481 
L 317.323636 174.167256 
L 333.556364 166.796523 
L 349.789091 164.234188 
L 366.021818 207.016791 
L 382.254545 210.995011 
L 398.487273 165.540491 
" clip-path="url(#p5ccacf3af0)" style="fill: none; stroke: #35b779; stroke-opacity: 0.5; stroke-width: 1.5; stroke-linecap: square"/>
   </g>
   <g id="line2d_17">
    <path d="M 73.832727 191.766884 
L 90.065455 248.046246 
L 106.298182 195.664126 
L 122.530909 218.284098 
L 138.763636 215.427547 
L 154.996364 285.028178 
L 171.229091 250.319807 
L 187.461818 283.495547 
L 203.694545 219.747614 
L 219.927273 272.825895 
L 236.16 291.103848 
L 252.392727 267.620027 
L 268.625455 289.375731 
L 284.858182 266.450698 
L 301.090909 258.16091 
L 317.323636 240.030397 
L 333.556364 242.485528 
L 349.789091 256.215247 
L 366.021818 275.120594 
L 382.254545 256.184765 
L 398.487273 249.949139 
" clip-path="url(#p5ccacf3af0)" style="fill: none; stroke: #35b779; stroke-opacity: 0.5; stroke-width: 1.5; stroke-linecap: square"/>
   </g>
   <g id="line2d_18">
    <path d="M 73.832727 239.993285 
L 90.065455 245.399829 
L 106.298182 255.037954 
L 122.530909 260.296481 
L 138.763636 263.422971 
L 154.996364 276.346973 
L 171.229091 274.843959 
L 187.461818 284.377689 
L 203.694545 252.460821 
L 219.927273 251.439807 
L 236.16 263.814282 
L 252.392727 273.869586 
L 268.625455 260.170856 
L 284.858182 273.166029 
L 301.090909 273.167187 
L 317.323636 246.866626 
L 333.556364 227.602585 
L 349.789091 248.764074 
L 366.021818 238.198226 
L 382.254545 247.47908 
L 398.487273 238.628583 
" clip-path="url(#p5ccacf3af0)" style="fill: none; stroke: #35b779; stroke-opacity: 0.5; stroke-width: 1.5; stroke-linecap: square"/>
   </g>
   <g id="line2d_19">
    <path d="M 73.832727 191.017359 
L 90.065455 206.732032 
L 106.298182 231.104072 
L 122.530909 213.25984 
L 138.763636 219.072044 
L 154.996364 218.345751 
L 171.229091 174.902816 
L 187.461818 230.47206 
L 203.694545 261.312523 
L 219.927273 188.933764 
L 236.16 247.823786 
L 252.392727 199.907438 
L 268.625455 241.501142 
L 284.858182 179.458462 
L 301.090909 132.393799 
L 317.323636 236.462444 
L 333.556364 223.928625 
L 349.789091 213.010993 
L 366.021818 227.894627 
L 382.254545 156.78142 
L 398.487273 193.043981 
" clip-path="url(#p5ccacf3af0)" style="fill: none; stroke: #35b779; stroke-opacity: 0.5; stroke-width: 1.5; stroke-linecap: square"/>
   </g>
   <g id="line2d_20">
    <path d="M 73.832727 229.063239 
L 90.065455 249.068585 
L 106.298182 278.732691 
L 122.530909 269.468405 
L 138.763636 257.820439 
L 154.996364 271.301611 
L 171.229091 246.768228 
L 187.461818 275.086979 
L 203.694545 289.130113 
L 219.927273 285.128866 
L 236.16 271.616574 
L 252.392727 281.131741 
L 268.625455 277.906112 
L 284.858182 260.765284 
L 301.090909 277.972145 
L 317.323636 223.973828 
L 333.556364 228.680389 
L 349.789091 285.020752 
L 366.021818 269.697978 
L 382.254545 280.182009 
L 398.487273 247.047239 
" clip-path="url(#p5ccacf3af0)" style="fill: none; stroke: #35b779; stroke-opacity: 0.5; stroke-width: 1.5; stroke-linecap: square"/>
   </g>
   <g id="line2d_21">
    <path d="M 73.832727 186.349312 
L 90.065455 190.584484 
L 106.298182 274.289622 
L 122.530909 220.851402 
L 138.763636 270.674806 
L 154.996364 253.231206 
L 171.229091 277.826304 
L 187.461818 268.463047 
L 203.694545 285.311009 
L 219.927273 279.478419 
L 236.16 258.352562 
L 252.392727 240.824855 
L 268.625455 282.053581 
L 284.858182 284.08043 
L 301.090909 272.134813 
L 317.323636 258.477272 
L 333.556364 250.815908 
L 349.789091 251.067813 
L 366.021818 269.715107 
L 382.254545 257.081839 
L 398.487273 259.313693 
" clip-path="url(#p5ccacf3af0)" style="fill: none; stroke: #35b779; stroke-opacity: 0.5; stroke-width: 1.5; stroke-linecap: square"/>
   </g>
   <g id="line2d_22">
    <path d="M 73.832727 219.908071 
L 90.065455 233.4078 
L 106.298182 269.408756 
L 122.530909 244.113496 
L 138.763636 233.083221 
L 154.996364 275.943877 
L 171.229091 252.29476 
L 187.461818 250.198297 
L 203.694545 276.164059 
L 219.927273 253.685854 
L 236.16 284.838507 
L 252.392727 224.895401 
L 268.625455 254.177145 
L 284.858182 274.620977 
L 301.090909 279.358605 
L 317.323636 247.050277 
L 333.556364 219.566064 
L 349.789091 240.26151 
L 366.021818 219.080564 
L 382.254545 179.991593 
L 398.487273 202.410725 
" clip-path="url(#p5ccacf3af0)" style="fill: none; stroke: #35b779; stroke-opacity: 0.5; stroke-width: 1.5; stroke-linecap: square"/>
   </g>
   <g id="line2d_23">
    <path d="M 73.832727 169.940979 
L 90.065455 205.931581 
L 106.298182 189.418135 
L 122.530909 192.200402 
L 138.763636 119.10518 
L 154.996364 219.174108 
L 171.229091 233.020587 
L 187.461818 250.567047 
L 203.694545 232.470066 
L 219.927273 242.532155 
L 236.16 249.045319 
L 252.392727 232.599674 
L 268.625455 195.025035 
L 284.858182 265.879159 
L 301.090909 216.4606 
L 317.323636 256.370502 
L 333.556364 217.553385 
L 349.789091 238.533167 
L 366.021818 238.002972 
L 382.254545 232.370702 
L 398.487273 213.110873 
" clip-path="url(#p5ccacf3af0)" style="fill: none; stroke: #35b779; stroke-opacity: 0.5; stroke-width: 1.5; stroke-linecap: square"/>
   </g>
   <g id="line2d_24">
    <path d="M 73.832727 209.862241 
L 90.065455 113.977901 
L 106.298182 142.805685 
L 122.530909 180.822865 
L 138.763636 168.387092 
L 154.996364 210.468961 
L 171.229091 263.180831 
L 187.461818 261.506221 
L 203.694545 220.714261 
L 219.927273 228.083775 
L 236.16 229.872802 
L 252.392727 258.201426 
L 268.625455 252.471249 
L 284.858182 260.126895 
L 301.090909 269.883185 
L 317.323636 261.039455 
L 333.556364 199.875953 
L 349.789091 250.296576 
L 366.021818 204.197533 
L 382.254545 238.917521 
L 398.487273 195.971957 
" clip-path="url(#p5ccacf3af0)" style="fill: none; stroke: #35b779; stroke-opacity: 0.5; stroke-width: 1.5; stroke-linecap: square"/>
   </g>
   <g id="line2d_25">
    <path d="M 73.832727 273.271193 
L 90.065455 211.882445 
L 106.298182 272.0923 
L 122.530909 200.260298 
L 138.763636 235.521012 
L 154.996364 249.431859 
L 171.229091 266.88743 
L 187.461818 212.600431 
L 203.694545 205.16138 
L 219.927273 234.915666 
L 236.16 262.13135 
L 252.392727 243.914599 
L 268.625455 230.157111 
L 284.858182 242.577568 
L 301.090909 267.25624 
L 317.323636 278.557411 
L 333.556364 272.674762 
L 349.789091 275.818392 
L 366.021818 260.478855 
L 382.254545 275.569435 
L 398.487273 274.7624 
" clip-path="url(#p5ccacf3af0)" style="fill: none; stroke: #35b779; stroke-opacity: 0.5; stroke-width: 1.5; stroke-linecap: square"/>
   </g>
   <g id="line2d_26">
    <path d="M 73.832727 230.351997 
L 90.065455 232.64422 
L 106.298182 224.065083 
L 122.530909 264.810524 
L 138.763636 262.713022 
L 154.996364 266.559945 
L 171.229091 278.276282 
L 187.461818 273.655098 
L 203.694545 257.323027 
L 219.927273 260.960628 
L 236.16 273.605661 
L 252.392727 227.665355 
L 268.625455 282.785706 
L 284.858182 249.248904 
L 301.090909 247.987399 
L 317.323636 277.337933 
L 333.556364 260.72275 
L 349.789091 267.854724 
L 366.021818 248.211885 
L 382.254545 270.899627 
L 398.487273 259.180513 
" clip-path="url(#p5ccacf3af0)" style="fill: none; stroke: #35b779; stroke-opacity: 0.5; stroke-width: 1.5; stroke-linecap: square"/>
   </g>
   <g id="line2d_27">
    <path d="M 73.832727 240.738734 
L 90.065455 205.678891 
L 106.298182 207.677152 
L 122.530909 208.096433 
L 138.763636 239.133711 
L 154.996364 286.392666 
L 171.229091 295.488 
L 187.461818 283.685956 
L 203.694545 282.066976 
L 219.927273 283.450874 
L 236.16 276.176733 
L 252.392727 286.989949 
L 268.625455 280.653271 
L 284.858182 265.980265 
L 301.090909 285.209916 
L 317.323636 281.100767 
L 333.556364 274.387794 
L 349.789091 284.810149 
L 366.021818 267.312123 
L 382.254545 282.748309 
L 398.487273 272.994602 
" clip-path="url(#p5ccacf3af0)" style="fill: none; stroke: #35b779; stroke-opacity: 0.5; stroke-width: 1.5; stroke-linecap: square"/>
   </g>
   <g id="line2d_28">
    <path d="M 73.832727 166.206178 
L 90.065455 241.348373 
L 106.298182 249.313993 
L 122.530909 261.314896 
L 138.763636 234.626146 
L 154.996364 248.164847 
L 171.229091 226.860471 
L 187.461818 253.380591 
L 203.694545 285.457275 
L 219.927273 287.249425 
L 236.16 270.461166 
L 252.392727 272.571287 
L 268.625455 228.64844 
L 284.858182 283.379741 
L 301.090909 224.873828 
L 317.323636 253.151312 
L 333.556364 211.561243 
L 349.789091 224.880366 
L 366.021818 238.212588 
L 382.254545 220.857883 
L 398.487273 201.788212 
" clip-path="url(#p5ccacf3af0)" style="fill: none; stroke: #35b779; stroke-opacity: 0.5; stroke-width: 1.5; stroke-linecap: square"/>
   </g>
   <g id="line2d_29">
    <path d="M 73.832727 247.283899 
L 90.065455 227.445495 
L 106.298182 266.794668 
L 122.530909 269.43087 
L 138.763636 279.704941 
L 154.996364 276.293138 
L 171.229091 277.678006 
L 187.461818 286.40645 
L 203.694545 289.453501 
L 219.927273 277.043888 
L 236.16 272.698656 
L 252.392727 289.218171 
L 268.625455 278.647304 
L 284.858182 281.051825 
L 301.090909 278.414982 
L 317.323636 258.90377 
L 333.556364 258.205138 
L 349.789091 287.559351 
L 366.021818 271.769937 
L 382.254545 276.850841 
L 398.487273 259.365776 
" clip-path="url(#p5ccacf3af0)" style="fill: none; stroke: #35b779; stroke-opacity: 0.5; stroke-width: 1.5; stroke-linecap: square"/>
   </g>
   <g id="line2d_30">
    <path d="M 73.832727 124.078247 
L 90.065455 141.54251 
L 106.298182 209.056857 
L 122.530909 150.413061 
L 138.763636 190.176219 
L 154.996364 211.497658 
L 171.229091 181.625607 
L 187.461818 186.232135 
L 203.694545 189.264577 
L 219.927273 186.08913 
L 236.16 190.674239 
L 252.392727 183.067051 
L 268.625455 200.827479 
L 284.858182 181.462337 
L 301.090909 205.590905 
L 317.323636 183.893367 
L 333.556364 191.847051 
L 349.789091 194.478881 
L 366.021818 182.348936 
L 382.254545 175.00853 
L 398.487273 194.360992 
" clip-path="url(#p5ccacf3af0)" style="fill: none; stroke: #35b779; stroke-opacity: 0.5; stroke-width: 1.5; stroke-linecap: square"/>
   </g>
   <g id="line2d_31">
    <path d="M 73.832727 75.273335 
L 90.065455 129.313133 
L 106.298182 170.836526 
L 122.530909 170.830343 
L 138.763636 169.970831 
L 154.996364 246.423685 
L 171.229091 269.384869 
L 187.461818 213.108542 
L 203.694545 247.077716 
L 219.927273 238.237764 
L 236.16 250.943973 
L 252.392727 264.506189 
L 268.625455 271.585681 
L 284.858182 241.218738 
L 301.090909 270.686475 
L 317.323636 236.315267 
L 333.556364 210.102464 
L 349.789091 221.111047 
L 366.021818 242.634932 
L 382.254545 195.292866 
L 398.487273 225.39465 
" clip-path="url(#p5ccacf3af0)" style="fill: none; stroke: #35b779; stroke-opacity: 0.5; stroke-width: 1.5; stroke-linecap: square"/>
   </g>
   <g id="line2d_32">
    <path d="M 73.832727 215.5871 
L 90.065455 253.571652 
L 106.298182 255.771395 
L 122.530909 261.610551 
L 138.763636 288.201773 
L 154.996364 288.053258 
L 171.229091 263.270991 
L 187.461818 236.62201 
L 203.694545 253.847844 
L 219.927273 222.420769 
L 236.16 256.923751 
L 252.392727 264.68717 
L 268.625455 238.939381 
L 284.858182 284.82577 
L 301.090909 229.645904 
L 317.323636 221.26019 
L 333.556364 227.847159 
L 349.789091 183.769567 
L 366.021818 229.620725 
L 382.254545 257.325256 
L 398.487273 191.427002 
" clip-path="url(#p5ccacf3af0)" style="fill: none; stroke: #35b779; stroke-opacity: 0.5; stroke-width: 1.5; stroke-linecap: square"/>
   </g>
   <g id="line2d_33">
    <path d="M 73.832727 199.464933 
L 90.065455 210.16844 
L 106.298182 237.518552 
L 122.530909 174.82807 
L 138.763636 181.821256 
L 154.996364 238.138244 
L 171.229091 233.861873 
L 187.461818 263.279131 
L 203.694545 231.650637 
L 219.927273 254.691133 
L 236.16 188.190769 
L 252.392727 225.635071 
L 268.625455 251.737356 
L 284.858182 241.276662 
L 301.090909 211.060567 
L 317.323636 252.733097 
L 333.556364 245.49051 
L 349.789091 249.32218 
L 366.021818 239.444729 
L 382.254545 235.614571 
L 398.487273 244.872968 
" clip-path="url(#p5ccacf3af0)" style="fill: none; stroke: #35b779; stroke-opacity: 0.5; stroke-width: 1.5; stroke-linecap: square"/>
   </g>
   <g id="line2d_34">
    <path d="M 73.832727 207.518471 
L 90.065455 205.252778 
L 106.298182 238.5667 
L 122.530909 234.365275 
L 138.763636 273.721458 
L 154.996364 266.193559 
L 171.229091 266.242763 
L 187.461818 273.000399 
L 203.694545 260.138 
L 219.927273 274.841012 
L 236.16 270.198224 
L 252.392727 249.686688 
L 268.625455 277.102618 
L 284.858182 236.903753 
L 301.090909 280.572877 
L 317.323636 291.26242 
L 333.556364 264.517951 
L 349.789091 273.776168 
L 366.021818 272.728155 
L 382.254545 266.011567 
L 398.487273 271.920059 
" clip-path="url(#p5ccacf3af0)" style="fill: none; stroke: #35b779; stroke-opacity: 0.5; stroke-width: 1.5; stroke-linecap: square"/>
   </g>
   <g id="line2d_35">
    <path d="M 73.832727 207.871721 
L 90.065455 228.958887 
L 106.298182 156.770145 
L 122.530909 169.454002 
L 138.763636 231.191832 
L 154.996364 277.538229 
L 171.229091 271.853302 
L 187.461818 282.823073 
L 203.694545 270.586279 
L 219.927273 276.955957 
L 236.16 271.787445 
L 252.392727 279.5795 
L 268.625455 279.348523 
L 284.858182 267.313402 
L 301.090909 275.773238 
L 317.323636 270.631399 
L 333.556364 272.636454 
L 349.789091 280.943755 
L 366.021818 261.954707 
L 382.254545 255.44626 
L 398.487273 266.413054 
" clip-path="url(#p5ccacf3af0)" style="fill: none; stroke: #35b779; stroke-opacity: 0.5; stroke-width: 1.5; stroke-linecap: square"/>
   </g>
   <g id="line2d_36">
    <path d="M 73.832727 268.879994 
L 90.065455 275.754413 
L 106.298182 275.593104 
L 122.530909 284.722423 
L 138.763636 263.379309 
L 154.996364 261.326007 
L 171.229091 279.112995 
L 187.461818 282.039366 
L 203.694545 273.280517 
L 219.927273 259.635103 
L 236.16 276.098227 
L 252.392727 269.792979 
L 268.625455 256.980928 
L 284.858182 273.964492 
L 301.090909 257.088196 
L 317.323636 276.050602 
L 333.556364 278.382835 
L 349.789091 274.461973 
L 366.021818 271.969183 
L 382.254545 276.037651 
L 398.487273 280.168264 
" clip-path="url(#p5ccacf3af0)" style="fill: none; stroke: #35b779; stroke-opacity: 0.5; stroke-width: 1.5; stroke-linecap: square"/>
   </g>
   <g id="line2d_37">
    <path d="M 73.832727 214.269569 
L 90.065455 231.890293 
L 106.298182 220.947994 
L 122.530909 229.313431 
L 138.763636 242.959728 
L 154.996364 230.260655 
L 171.229091 225.555366 
L 187.461818 232.458711 
L 203.694545 262.425353 
L 219.927273 231.829935 
L 236.16 255.81381 
L 252.392727 248.321855 
L 268.625455 255.364443 
L 284.858182 237.41608 
L 301.090909 248.053616 
L 317.323636 219.033803 
L 333.556364 195.129857 
L 349.789091 220.71068 
L 366.021818 223.08793 
L 382.254545 240.475242 
L 398.487273 236.896012 
" clip-path="url(#p5ccacf3af0)" style="fill: none; stroke: #35b779; stroke-opacity: 0.5; stroke-width: 1.5; stroke-linecap: square"/>
   </g>
   <g id="line2d_38">
    <path d="M 73.832727 271.403215 
L 90.065455 273.756351 
L 106.298182 277.670086 
L 122.530909 284.517455 
L 138.763636 277.98948 
L 154.996364 256.522236 
L 171.229091 264.700232 
L 187.461818 269.347539 
L 203.694545 276.709691 
L 219.927273 268.427385 
L 236.16 276.472769 
L 252.392727 266.147159 
L 268.625455 292.982659 
L 284.858182 278.812289 
L 301.090909 277.791527 
L 317.323636 287.470999 
L 333.556364 267.518531 
L 349.789091 278.489766 
L 366.021818 286.067875 
L 382.254545 264.458323 
L 398.487273 286.364916 
" clip-path="url(#p5ccacf3af0)" style="fill: none; stroke: #35b779; stroke-opacity: 0.5; stroke-width: 1.5; stroke-linecap: square"/>
   </g>
   <g id="line2d_39">
    <path d="M 73.832727 220.040718 
L 90.065455 230.305833 
L 106.298182 266.245798 
L 122.530909 244.235041 
L 138.763636 242.818098 
L 154.996364 247.891474 
L 171.229091 243.116334 
L 187.461818 247.434341 
L 203.694545 270.100612 
L 219.927273 254.792489 
L 236.16 252.599032 
L 252.392727 239.657997 
L 268.625455 216.733207 
L 284.858182 271.157677 
L 301.090909 252.037132 
L 317.323636 271.164542 
L 333.556364 277.996412 
L 349.789091 267.684763 
L 366.021818 268.929669 
L 382.254545 255.514064 
L 398.487273 266.076193 
" clip-path="url(#p5ccacf3af0)" style="fill: none; stroke: #35b779; stroke-opacity: 0.5; stroke-width: 1.5; stroke-linecap: square"/>
   </g>
   <g id="line2d_40">
    <path d="M 73.832727 124.80144 
L 90.065455 228.00207 
L 106.298182 216.486961 
L 122.530909 247.96232 
L 138.763636 239.854387 
L 154.996364 253.531049 
L 171.229091 261.593294 
L 187.461818 211.929095 
L 203.694545 265.222675 
L 219.927273 252.486653 
L 236.16 218.305448 
L 252.392727 258.028684 
L 268.625455 266.250923 
L 284.858182 208.696921 
L 301.090909 230.050725 
L 317.323636 149.634554 
L 333.556364 249.112887 
L 349.789091 203.972453 
L 366.021818 231.549528 
L 382.254545 231.488037 
L 398.487273 188.109351 
" clip-path="url(#p5ccacf3af0)" style="fill: none; stroke: #35b779; stroke-opacity: 0.5; stroke-width: 1.5; stroke-linecap: square"/>
   </g>
   <g id="line2d_41">
    <path d="M 73.832727 221.798518 
L 90.065455 204.148662 
L 106.298182 205.914564 
L 122.530909 226.762779 
L 138.763636 238.881944 
L 154.996364 215.583568 
L 171.229091 263.707272 
L 187.461818 229.468135 
L 203.694545 239.917942 
L 219.927273 241.748576 
L 236.16 236.024083 
L 252.392727 221.241066 
L 268.625455 213.91361 
L 284.858182 243.472927 
L 301.090909 249.284935 
L 317.323636 214.514225 
L 333.556364 217.758462 
L 349.789091 202.108413 
L 366.021818 194.013186 
L 382.254545 250.098863 
L 398.487273 216.251831 
" clip-path="url(#p5ccacf3af0)" style="fill: none; stroke: #35b779; stroke-opacity: 0.5; stroke-width: 1.5; stroke-linecap: square"/>
   </g>
   <g id="line2d_42">
    <path d="M 73.832727 241.764629 
L 90.065455 226.717305 
L 106.298182 217.24588 
L 122.530909 221.095062 
L 138.763636 255.237619 
L 154.996364 259.49411 
L 171.229091 240.911095 
L 187.461818 230.418263 
L 203.694545 246.224542 
L 219.927273 215.368752 
L 236.16 226.209936 
L 252.392727 225.924957 
L 268.625455 248.31591 
L 284.858182 273.701506 
L 301.090909 246.841195 
L 317.323636 266.306407 
L 333.556364 240.725521 
L 349.789091 245.196206 
L 366.021818 255.92055 
L 382.254545 226.005375 
L 398.487273 230.528703 
" clip-path="url(#p5ccacf3af0)" style="fill: none; stroke: #35b779; stroke-opacity: 0.5; stroke-width: 1.5; stroke-linecap: square"/>
   </g>
   <g id="line2d_43">
    <path d="M 73.832727 84.867297 
L 90.065455 260.182793 
L 106.298182 236.187824 
L 122.530909 250.009631 
L 138.763636 291.056243 
L 154.996364 262.789872 
L 171.229091 238.645313 
L 187.461818 252.815984 
L 203.694545 249.850544 
L 219.927273 281.167169 
L 236.16 254.084174 
L 252.392727 240.657582 
L 268.625455 260.423735 
L 284.858182 284.06527 
L 301.090909 293.543538 
L 317.323636 263.020557 
L 333.556364 271.840978 
L 349.789091 285.070249 
L 366.021818 288.012713 
L 382.254545 283.81271 
L 398.487273 249.996322 
" clip-path="url(#p5ccacf3af0)" style="fill: none; stroke: #35b779; stroke-opacity: 0.5; stroke-width: 1.5; stroke-linecap: square"/>
   </g>
   <g id="line2d_44">
    <path d="M 73.832727 211.445093 
L 90.065455 239.509365 
L 106.298182 220.857601 
L 122.530909 238.561536 
L 138.763636 230.203032 
L 154.996364 229.826245 
L 171.229091 223.235907 
L 187.461818 244.075177 
L 203.694545 255.387541 
L 219.927273 236.946494 
L 236.16 250.32059 
L 252.392727 216.261374 
L 268.625455 252.66995 
L 284.858182 252.143995 
L 301.090909 245.342292 
L 317.323636 260.724992 
L 333.556364 247.864996 
L 349.789091 252.248346 
L 366.021818 263.585567 
L 382.254545 231.932173 
L 398.487273 266.108103 
" clip-path="url(#p5ccacf3af0)" style="fill: none; stroke: #35b779; stroke-opacity: 0.5; stroke-width: 1.5; stroke-linecap: square"/>
   </g>
   <g id="line2d_45">
    <path d="M 73.832727 226.34886 
L 90.065455 195.581325 
L 106.298182 231.444419 
L 122.530909 237.626214 
L 138.763636 257.124827 
L 154.996364 228.863046 
L 171.229091 250.644442 
L 187.461818 283.440248 
L 203.694545 226.197877 
L 219.927273 259.106543 
L 236.16 280.368654 
L 252.392727 281.479204 
L 268.625455 294.244135 
L 284.858182 241.144699 
L 301.090909 285.218905 
L 317.323636 280.756108 
L 333.556364 283.846464 
L 349.789091 278.944895 
L 366.021818 281.358816 
L 382.254545 278.526541 
L 398.487273 281.512411 
" clip-path="url(#p5ccacf3af0)" style="fill: none; stroke: #35b779; stroke-opacity: 0.5; stroke-width: 1.5; stroke-linecap: square"/>
   </g>
   <g id="line2d_46">
    <path d="M 73.832727 262.762773 
L 90.065455 241.710634 
L 106.298182 278.102056 
L 122.530909 260.791082 
L 138.763636 252.897316 
L 154.996364 277.072837 
L 171.229091 236.351484 
L 187.461818 237.391815 
L 203.694545 237.772545 
L 219.927273 256.584477 
L 236.16 273.379258 
L 252.392727 289.427733 
L 268.625455 276.627683 
L 284.858182 272.605027 
L 301.090909 272.296339 
L 317.323636 276.855592 
L 333.556364 279.53448 
L 349.789091 241.029674 
L 366.021818 278.65264 
L 382.254545 281.613772 
L 398.487273 276.767311 
" clip-path="url(#p5ccacf3af0)" style="fill: none; stroke: #35b779; stroke-opacity: 0.5; stroke-width: 1.5; stroke-linecap: square"/>
   </g>
   <g id="line2d_47">
    <path d="M 73.832727 218.427491 
L 90.065455 242.137857 
L 106.298182 257.941976 
L 122.530909 239.284369 
L 138.763636 243.957374 
L 154.996364 261.512235 
L 171.229091 158.704759 
L 187.461818 195.065368 
L 203.694545 221.328997 
L 219.927273 224.694209 
L 236.16 220.513924 
L 252.392727 202.334363 
L 268.625455 246.842692 
L 284.858182 251.802087 
L 301.090909 253.797972 
L 317.323636 252.21814 
L 333.556364 257.141951 
L 349.789091 264.751107 
L 366.021818 258.040861 
L 382.254545 240.31618 
L 398.487273 245.632058 
" clip-path="url(#p5ccacf3af0)" style="fill: none; stroke: #35b779; stroke-opacity: 0.5; stroke-width: 1.5; stroke-linecap: square"/>
   </g>
   <g id="line2d_48">
    <path d="M 73.832727 247.527119 
L 90.065455 229.92924 
L 106.298182 241.342313 
L 122.530909 254.632068 
L 138.763636 245.297721 
L 154.996364 258.976258 
L 171.229091 204.606783 
L 187.461818 237.573243 
L 203.694545 267.941186 
L 219.927273 276.918454 
L 236.16 216.156236 
L 252.392727 255.608549 
L 268.625455 276.890213 
L 284.858182 265.364748 
L 301.090909 265.21101 
L 317.323636 285.557439 
L 333.556364 250.91656 
L 349.789091 289.374231 
L 366.021818 280.373855 
L 382.254545 255.061602 
L 398.487273 270.939036 
" clip-path="url(#p5ccacf3af0)" style="fill: none; stroke: #35b779; stroke-opacity: 0.5; stroke-width: 1.5; stroke-linecap: square"/>
   </g>
   <g id="line2d_49">
    <path d="M 73.832727 167.401548 
L 90.065455 134.84521 
L 106.298182 115.957892 
L 122.530909 188.815729 
L 138.763636 214.973293 
L 154.996364 274.120104 
L 171.229091 288.96753 
L 187.461818 267.313883 
L 203.694545 269.616381 
L 219.927273 284.945111 
L 236.16 259.914543 
L 252.392727 262.463442 
L 268.625455 267.123466 
L 284.858182 207.366117 
L 301.090909 223.844461 
L 317.323636 209.366359 
L 333.556364 256.001871 
L 349.789091 255.377779 
L 366.021818 230.99412 
L 382.254545 220.572314 
L 398.487273 251.9705 
" clip-path="url(#p5ccacf3af0)" style="fill: none; stroke: #35b779; stroke-opacity: 0.5; stroke-width: 1.5; stroke-linecap: square"/>
   </g>
   <g id="line2d_50">
    <path d="M 73.832727 261.065589 
L 90.065455 265.851013 
L 106.298182 253.785722 
L 122.530909 260.627813 
L 138.763636 277.816662 
L 154.996364 268.271864 
L 171.229091 287.995019 
L 187.461818 250.045065 
L 203.694545 284.821713 
L 219.927273 286.623029 
L 236.16 284.445738 
L 252.392727 276.673636 
L 268.625455 270.836113 
L 284.858182 279.219498 
L 301.090909 288.051127 
L 317.323636 274.344044 
L 333.556364 267.141684 
L 349.789091 267.556862 
L 366.021818 245.720284 
L 382.254545 262.771869 
L 398.487273 274.923952 
" clip-path="url(#p5ccacf3af0)" style="fill: none; stroke: #35b779; stroke-opacity: 0.5; stroke-width: 1.5; stroke-linecap: square"/>
   </g>
   <g id="line2d_51">
    <path d="M 73.832727 212.07251 
L 90.065455 220.505224 
L 106.298182 205.296561 
L 122.530909 197.171328 
L 138.763636 242.193577 
L 154.996364 248.626258 
L 171.229091 233.598245 
L 187.461818 238.309597 
L 203.694545 231.983321 
L 219.927273 275.713003 
L 236.16 250.644183 
L 252.392727 263.553489 
L 268.625455 260.840697 
L 284.858182 253.029404 
L 301.090909 263.002006 
L 317.323636 246.385143 
L 333.556364 249.746285 
L 349.789091 226.329531 
L 366.021818 256.892318 
L 382.254545 249.059912 
L 398.487273 241.530715 
" clip-path="url(#p5ccacf3af0)" style="fill: none; stroke: #35b779; stroke-opacity: 0.5; stroke-width: 1.5; stroke-linecap: square"/>
   </g>
   <g id="line2d_52">
    <path d="M 73.832727 247.847201 
L 90.065455 192.922138 
L 106.298182 223.133343 
L 122.530909 181.032825 
L 138.763636 203.337521 
L 154.996364 223.177462 
L 171.229091 243.404125 
L 187.461818 248.527121 
L 203.694545 266.528262 
L 219.927273 274.48792 
L 236.16 239.393185 
L 252.392727 284.803162 
L 268.625455 233.282067 
L 284.858182 270.041569 
L 301.090909 236.376273 
L 317.323636 233.296726 
L 333.556364 245.226793 
L 349.789091 201.895695 
L 366.021818 206.458924 
L 382.254545 211.583727 
L 398.487273 256.375514 
" clip-path="url(#p5ccacf3af0)" style="fill: none; stroke: #35b779; stroke-opacity: 0.5; stroke-width: 1.5; stroke-linecap: square"/>
   </g>
   <g id="line2d_53">
    <path d="M 73.832727 261.265235 
L 90.065455 244.80486 
L 106.298182 255.555913 
L 122.530909 256.81885 
L 138.763636 257.641679 
L 154.996364 220.472105 
L 171.229091 223.24653 
L 187.461818 242.336782 
L 203.694545 275.758686 
L 219.927273 266.171486 
L 236.16 258.359896 
L 252.392727 238.531667 
L 268.625455 294.616801 
L 284.858182 277.719912 
L 301.090909 277.080398 
L 317.323636 291.319608 
L 333.556364 275.94499 
L 349.789091 272.368214 
L 366.021818 252.473174 
L 382.254545 278.062746 
L 398.487273 282.903007 
" clip-path="url(#p5ccacf3af0)" style="fill: none; stroke: #35b779; stroke-opacity: 0.5; stroke-width: 1.5; stroke-linecap: square"/>
   </g>
   <g id="line2d_54">
    <path d="M 73.832727 248.600708 
L 90.065455 220.600306 
L 106.298182 208.499184 
L 122.530909 231.617045 
L 138.763636 209.904719 
L 154.996364 269.301888 
L 171.229091 262.252245 
L 187.461818 288.960015 
L 203.694545 277.08494 
L 219.927273 265.678449 
L 236.16 270.105409 
L 252.392727 255.79328 
L 268.625455 256.197721 
L 284.858182 272.073568 
L 301.090909 216.102141 
L 317.323636 265.333603 
L 333.556364 267.993159 
L 349.789091 269.445221 
L 366.021818 269.868702 
L 382.254545 273.325915 
L 398.487273 264.662392 
" clip-path="url(#p5ccacf3af0)" style="fill: none; stroke: #35b779; stroke-opacity: 0.5; stroke-width: 1.5; stroke-linecap: square"/>
   </g>
   <g id="line2d_55">
    <path d="M 73.832727 241.133665 
L 90.065455 225.842948 
L 106.298182 211.895244 
L 122.530909 237.530195 
L 138.763636 235.624923 
L 154.996364 257.248919 
L 171.229091 256.046954 
L 187.461818 231.121848 
L 203.694545 235.203011 
L 219.927273 252.366239 
L 236.16 264.135974 
L 252.392727 236.593228 
L 268.625455 198.907403 
L 284.858182 258.027022 
L 301.090909 235.472828 
L 317.323636 268.608228 
L 333.556364 247.073894 
L 349.789091 277.420515 
L 366.021818 267.794728 
L 382.254545 276.522208 
L 398.487273 256.479677 
" clip-path="url(#p5ccacf3af0)" style="fill: none; stroke: #35b779; stroke-opacity: 0.5; stroke-width: 1.5; stroke-linecap: square"/>
   </g>
   <g id="line2d_56">
    <path d="M 73.832727 258.967403 
L 90.065455 240.906363 
L 106.298182 221.606878 
L 122.530909 255.074712 
L 138.763636 259.101713 
L 154.996364 233.149972 
L 171.229091 157.04502 
L 187.461818 74.848976 
L 203.694545 53.568 
L 219.927273 164.421123 
L 236.16 112.354171 
L 252.392727 127.893972 
L 268.625455 258.495128 
L 284.858182 212.895998 
L 301.090909 243.160086 
L 317.323636 136.109348 
L 333.556364 272.400942 
L 349.789091 244.676236 
L 366.021818 236.100054 
L 382.254545 264.996574 
L 398.487273 250.208226 
" clip-path="url(#p5ccacf3af0)" style="fill: none; stroke: #35b779; stroke-opacity: 0.5; stroke-width: 1.5; stroke-linecap: square"/>
   </g>
   <g id="line2d_57">
    <path d="M 73.832727 248.610653 
L 90.065455 225.085597 
L 106.298182 231.451946 
L 122.530909 223.59759 
L 138.763636 245.514033 
L 154.996364 267.093456 
L 171.229091 231.960965 
L 187.461818 211.874735 
L 203.694545 196.626521 
L 219.927273 266.341572 
L 236.16 228.08495 
L 252.392727 282.188033 
L 268.625455 210.384216 
L 284.858182 275.354731 
L 301.090909 270.093798 
L 317.323636 274.267426 
L 333.556364 285.384169 
L 349.789091 279.471505 
L 366.021818 281.695532 
L 382.254545 286.64629 
L 398.487273 278.17207 
" clip-path="url(#p5ccacf3af0)" style="fill: none; stroke: #35b779; stroke-opacity: 0.5; stroke-width: 1.5; stroke-linecap: square"/>
   </g>
   <g id="line2d_58">
    <path d="M 73.832727 160.626347 
L 90.065455 159.684434 
L 106.298182 191.192337 
L 122.530909 186.185227 
L 138.763636 233.705513 
L 154.996364 236.327178 
L 171.229091 152.042694 
L 187.461818 218.261482 
L 203.694545 188.10322 
L 219.927273 199.183859 
L 236.16 228.476554 
L 252.392727 263.691268 
L 268.625455 219.659512 
L 284.858182 242.045274 
L 301.090909 251.921142 
L 317.323636 200.256019 
L 333.556364 227.306538 
L 349.789091 255.481506 
L 366.021818 248.727272 
L 382.254545 262.285963 
L 398.487273 235.445985 
" clip-path="url(#p5ccacf3af0)" style="fill: none; stroke: #35b779; stroke-opacity: 0.5; stroke-width: 1.5; stroke-linecap: square"/>
   </g>
   <g id="patch_3">
    <path d="M 57.6 307.584 
L 57.6 41.472 
" style="fill: none; stroke: #000000; stroke-width: 3; stroke-linejoin: miter; stroke-linecap: square"/>
   </g>
   <g id="patch_4">
    <path d="M 414.72 307.584 
L 414.72 41.472 
" style="fill: none; stroke: #000000; stroke-width: 3; stroke-linejoin: miter; stroke-linecap: square"/>
   </g>
   <g id="patch_5">
    <path d="M 57.6 307.584 
L 414.72 307.584 
" style="fill: none; stroke: #000000; stroke-width: 3; stroke-linejoin: miter; stroke-linecap: square"/>
   </g>
   <g id="patch_6">
    <path d="M 57.6 41.472 
L 414.72 41.472 
" style="fill: none; stroke: #000000; stroke-width: 3; stroke-linejoin: miter; stroke-linecap: square"/>
   </g>
   <g id="text_14">
    <!-- Atom Type O (n=45, mean Q=6.70) -->
    <g transform="translate(39.839219 35.472) scale(0.22 -0.22)">
     <defs>
      <path id="DejaVuSans-41" d="M 2188 4044 
L 1331 1722 
L 3047 1722 
L 2188 4044 
z
M 1831 4666 
L 2547 4666 
L 4325 0 
L 3669 0 
L 3244 1197 
L 1141 1197 
L 716 0 
L 50 0 
L 1831 4666 
z
" transform="scale(0.015625)"/>
      <path id="DejaVuSans-74" d="M 1172 4494 
L 1172 3500 
L 2356 3500 
L 2356 3053 
L 1172 3053 
L 1172 1153 
Q 1172 725 1289 603 
Q 1406 481 1766 481 
L 2356 481 
L 2356 0 
L 1766 0 
Q 1100 0 847 248 
Q 594 497 594 1153 
L 594 3053 
L 172 3053 
L 172 3500 
L 594 3500 
L 594 4494 
L 1172 4494 
z
" transform="scale(0.015625)"/>
      <path id="DejaVuSans-6f" d="M 1959 3097 
Q 1497 3097 1228 2736 
Q 959 2375 959 1747 
Q 959 1119 1226 758 
Q 1494 397 1959 397 
Q 2419 397 2687 759 
Q 2956 1122 2956 1747 
Q 2956 2369 2687 2733 
Q 2419 3097 1959 3097 
z
M 1959 3584 
Q 2709 3584 3137 3096 
Q 3566 2609 3566 1747 
Q 3566 888 3137 398 
Q 2709 -91 1959 -91 
Q 1206 -91 779 398 
Q 353 888 353 1747 
Q 353 2609 779 3096 
Q 1206 3584 1959 3584 
z
" transform="scale(0.015625)"/>
      <path id="DejaVuSans-6d" d="M 3328 2828 
Q 3544 3216 3844 3400 
Q 4144 3584 4550 3584 
Q 5097 3584 5394 3201 
Q 5691 2819 5691 2113 
L 5691 0 
L 5113 0 
L 5113 2094 
Q 5113 2597 4934 2840 
Q 4756 3084 4391 3084 
Q 3944 3084 3684 2787 
Q 3425 2491 3425 1978 
L 3425 0 
L 2847 0 
L 2847 2094 
Q 2847 2600 2669 2842 
Q 2491 3084 2119 3084 
Q 1678 3084 1418 2786 
Q 1159 2488 1159 1978 
L 1159 0 
L 581 0 
L 581 3500 
L 1159 3500 
L 1159 2956 
Q 1356 3278 1631 3431 
Q 1906 3584 2284 3584 
Q 2666 3584 2933 3390 
Q 3200 3197 3328 2828 
z
" transform="scale(0.015625)"/>
      <path id="DejaVuSans-20" transform="scale(0.015625)"/>
      <path id="DejaVuSans-54" d="M -19 4666 
L 3928 4666 
L 3928 4134 
L 2272 4134 
L 2272 0 
L 1638 0 
L 1638 4134 
L -19 4134 
L -19 4666 
z
" transform="scale(0.015625)"/>
      <path id="DejaVuSans-79" d="M 2059 -325 
Q 1816 -950 1584 -1140 
Q 1353 -1331 966 -1331 
L 506 -1331 
L 506 -850 
L 844 -850 
Q 1081 -850 1212 -737 
Q 1344 -625 1503 -206 
L 1606 56 
L 191 3500 
L 800 3500 
L 1894 763 
L 2988 3500 
L 3597 3500 
L 2059 -325 
z
" transform="scale(0.015625)"/>
      <path id="DejaVuSans-70" d="M 1159 525 
L 1159 -1331 
L 581 -1331 
L 581 3500 
L 1159 3500 
L 1159 2969 
Q 1341 3281 1617 3432 
Q 1894 3584 2278 3584 
Q 2916 3584 3314 3078 
Q 3713 2572 3713 1747 
Q 3713 922 3314 415 
Q 2916 -91 2278 -91 
Q 1894 -91 1617 61 
Q 1341 213 1159 525 
z
M 3116 1747 
Q 3116 2381 2855 2742 
Q 2594 3103 2138 3103 
Q 1681 3103 1420 2742 
Q 1159 2381 1159 1747 
Q 1159 1113 1420 752 
Q 1681 391 2138 391 
Q 2594 391 2855 752 
Q 3116 1113 3116 1747 
z
" transform="scale(0.015625)"/>
      <path id="DejaVuSans-65" d="M 3597 1894 
L 3597 1613 
L 953 1613 
Q 991 1019 1311 708 
Q 1631 397 2203 397 
Q 2534 397 2845 478 
Q 3156 559 3463 722 
L 3463 178 
Q 3153 47 2828 -22 
Q 2503 -91 2169 -91 
Q 1331 -91 842 396 
Q 353 884 353 1716 
Q 353 2575 817 3079 
Q 1281 3584 2069 3584 
Q 2775 3584 3186 3129 
Q 3597 2675 3597 1894 
z
M 3022 2063 
Q 3016 2534 2758 2815 
Q 2500 3097 2075 3097 
Q 1594 3097 1305 2825 
Q 1016 2553 972 2059 
L 3022 2063 
z
" transform="scale(0.015625)"/>
      <path id="DejaVuSans-4f" d="M 2522 4238 
Q 1834 4238 1429 3725 
Q 1025 3213 1025 2328 
Q 1025 1447 1429 934 
Q 1834 422 2522 422 
Q 3209 422 3611 934 
Q 4013 1447 4013 2328 
Q 4013 3213 3611 3725 
Q 3209 4238 2522 4238 
z
M 2522 4750 
Q 3503 4750 4090 4092 
Q 4678 3434 4678 2328 
Q 4678 1225 4090 567 
Q 3503 -91 2522 -91 
Q 1538 -91 948 565 
Q 359 1222 359 2328 
Q 359 3434 948 4092 
Q 1538 4750 2522 4750 
z
" transform="scale(0.015625)"/>
      <path id="DejaVuSans-28" d="M 1984 4856 
Q 1566 4138 1362 3434 
Q 1159 2731 1159 2009 
Q 1159 1288 1364 580 
Q 1569 -128 1984 -844 
L 1484 -844 
Q 1016 -109 783 600 
Q 550 1309 550 2009 
Q 550 2706 781 3412 
Q 1013 4119 1484 4856 
L 1984 4856 
z
" transform="scale(0.015625)"/>
      <path id="DejaVuSans-6e" d="M 3513 2113 
L 3513 0 
L 2938 0 
L 2938 2094 
Q 2938 2591 2744 2837 
Q 2550 3084 2163 3084 
Q 1697 3084 1428 2787 
Q 1159 2491 1159 1978 
L 1159 0 
L 581 0 
L 581 3500 
L 1159 3500 
L 1159 2956 
Q 1366 3272 1645 3428 
Q 1925 3584 2291 3584 
Q 2894 3584 3203 3211 
Q 3513 2838 3513 2113 
z
" transform="scale(0.015625)"/>
      <path id="DejaVuSans-3d" d="M 678 2906 
L 4684 2906 
L 4684 2381 
L 678 2381 
L 678 2906 
z
M 678 1631 
L 4684 1631 
L 4684 1100 
L 678 1100 
L 678 1631 
z
" transform="scale(0.015625)"/>
      <path id="DejaVuSans-34" d="M 2419 4116 
L 825 1625 
L 2419 1625 
L 2419 4116 
z
M 2253 4666 
L 3047 4666 
L 3047 1625 
L 3713 1625 
L 3713 1100 
L 3047 1100 
L 3047 0 
L 2419 0 
L 2419 1100 
L 313 1100 
L 313 1709 
L 2253 4666 
z
" transform="scale(0.015625)"/>
      <path id="DejaVuSans-2c" d="M 750 794 
L 1409 794 
L 1409 256 
L 897 -744 
L 494 -744 
L 750 256 
L 750 794 
z
" transform="scale(0.015625)"/>
      <path id="DejaVuSans-61" d="M 2194 1759 
Q 1497 1759 1228 1600 
Q 959 1441 959 1056 
Q 959 750 1161 570 
Q 1363 391 1709 391 
Q 2188 391 2477 730 
Q 2766 1069 2766 1631 
L 2766 1759 
L 2194 1759 
z
M 3341 1997 
L 3341 0 
L 2766 0 
L 2766 531 
Q 2569 213 2275 61 
Q 1981 -91 1556 -91 
Q 1019 -91 701 211 
Q 384 513 384 1019 
Q 384 1609 779 1909 
Q 1175 2209 1959 2209 
L 2766 2209 
L 2766 2266 
Q 2766 2663 2505 2880 
Q 2244 3097 1772 3097 
Q 1472 3097 1187 3025 
Q 903 2953 641 2809 
L 641 3341 
Q 956 3463 1253 3523 
Q 1550 3584 1831 3584 
Q 2591 3584 2966 3190 
Q 3341 2797 3341 1997 
z
" transform="scale(0.015625)"/>
      <path id="DejaVuSans-51" d="M 2522 4238 
Q 1834 4238 1429 3725 
Q 1025 3213 1025 2328 
Q 1025 1447 1429 934 
Q 1834 422 2522 422 
Q 3209 422 3611 934 
Q 4013 1447 4013 2328 
Q 4013 3213 3611 3725 
Q 3209 4238 2522 4238 
z
M 3406 84 
L 4238 -825 
L 3475 -825 
L 2784 -78 
Q 2681 -84 2626 -87 
Q 2572 -91 2522 -91 
Q 1538 -91 948 567 
Q 359 1225 359 2328 
Q 359 3434 948 4092 
Q 1538 4750 2522 4750 
Q 3503 4750 4090 4092 
Q 4678 3434 4678 2328 
Q 4678 1516 4351 937 
Q 4025 359 3406 84 
z
" transform="scale(0.015625)"/>
      <path id="DejaVuSans-36" d="M 2113 2584 
Q 1688 2584 1439 2293 
Q 1191 2003 1191 1497 
Q 1191 994 1439 701 
Q 1688 409 2113 409 
Q 2538 409 2786 701 
Q 3034 994 3034 1497 
Q 3034 2003 2786 2293 
Q 2538 2584 2113 2584 
z
M 3366 4563 
L 3366 3988 
Q 3128 4100 2886 4159 
Q 2644 4219 2406 4219 
Q 1781 4219 1451 3797 
Q 1122 3375 1075 2522 
Q 1259 2794 1537 2939 
Q 1816 3084 2150 3084 
Q 2853 3084 3261 2657 
Q 3669 2231 3669 1497 
Q 3669 778 3244 343 
Q 2819 -91 2113 -91 
Q 1303 -91 875 529 
Q 447 1150 447 2328 
Q 447 3434 972 4092 
Q 1497 4750 2381 4750 
Q 2619 4750 2861 4703 
Q 3103 4656 3366 4563 
z
" transform="scale(0.015625)"/>
      <path id="DejaVuSans-29" d="M 513 4856 
L 1013 4856 
Q 1481 4119 1714 3412 
Q 1947 2706 1947 2009 
Q 1947 1309 1714 600 
Q 1481 -109 1013 -844 
L 513 -844 
Q 928 -128 1133 580 
Q 1338 1288 1338 2009 
Q 1338 2731 1133 3434 
Q 928 4138 513 4856 
z
" transform="scale(0.015625)"/>
     </defs>
     <use xlink:href="#DejaVuSans-41"/>
     <use xlink:href="#DejaVuSans-74" transform="translate(66.658203 0)"/>
     <use xlink:href="#DejaVuSans-6f" transform="translate(105.867188 0)"/>
     <use xlink:href="#DejaVuSans-6d" transform="translate(167.048828 0)"/>
     <use xlink:href="#DejaVuSans-20" transform="translate(264.460938 0)"/>
     <use xlink:href="#DejaVuSans-54" transform="translate(296.248047 0)"/>
     <use xlink:href="#DejaVuSans-79" transform="translate(341.707031 0)"/>
     <use xlink:href="#DejaVuSans-70" transform="translate(400.886719 0)"/>
     <use xlink:href="#DejaVuSans-65" transform="translate(464.363281 0)"/>
     <use xlink:href="#DejaVuSans-20" transform="translate(525.886719 0)"/>
     <use xlink:href="#DejaVuSans-4f" transform="translate(557.673828 0)"/>
     <use xlink:href="#DejaVuSans-20" transform="translate(636.384766 0)"/>
     <use xlink:href="#DejaVuSans-28" transform="translate(668.171875 0)"/>
     <use xlink:href="#DejaVuSans-6e" transform="translate(707.185547 0)"/>
     <use xlink:href="#DejaVuSans-3d" transform="translate(770.564453 0)"/>
     <use xlink:href="#DejaVuSans-34" transform="translate(854.353516 0)"/>
     <use xlink:href="#DejaVuSans-35" transform="translate(917.976562 0)"/>
     <use xlink:href="#DejaVuSans-2c" transform="translate(981.599609 0)"/>
     <use xlink:href="#DejaVuSans-20" transform="translate(1013.386719 0)"/>
     <use xlink:href="#DejaVuSans-6d" transform="translate(1045.173828 0)"/>
     <use xlink:href="#DejaVuSans-65" transform="translate(1142.585938 0)"/>
     <use xlink:href="#DejaVuSans-61" transform="translate(1204.109375 0)"/>
     <use xlink:href="#DejaVuSans-6e" transform="translate(1265.388672 0)"/>
     <use xlink:href="#DejaVuSans-20" transform="translate(1328.767578 0)"/>
     <use xlink:href="#DejaVuSans-51" transform="translate(1360.554688 0)"/>
     <use xlink:href="#DejaVuSans-3d" transform="translate(1439.265625 0)"/>
     <use xlink:href="#DejaVuSans-36" transform="translate(1523.054688 0)"/>
     <use xlink:href="#DejaVuSans-2e" transform="translate(1586.677734 0)"/>
     <use xlink:href="#DejaVuSans-37" transform="translate(1618.464844 0)"/>
     <use xlink:href="#DejaVuSans-30" transform="translate(1682.087891 0)"/>
     <use xlink:href="#DejaVuSans-29" transform="translate(1745.710938 0)"/>
    </g>
   </g>
  </g>
 </g>
 <defs>
  <clipPath id="p5ccacf3af0">
   <rect x="57.6" y="41.472" width="357.12" height="266.112"/>
  </clipPath>
 </defs>
</svg>
