<?xml version="1.0" encoding="utf-8" standalone="no"?>
<!DOCTYPE svg PUBLIC "-//W3C//DTD SVG 1.1//EN"
  "http://www.w3.org/Graphics/SVG/1.1/DTD/svg11.dtd">
<svg xmlns:xlink="http://www.w3.org/1999/xlink" width="460.8pt" height="345.6pt" viewBox="0 0 460.8 345.6" xmlns="http://www.w3.org/2000/svg" version="1.1">
 <metadata>
  <rdf:RDF xmlns:dc="http://purl.org/dc/elements/1.1/" xmlns:cc="http://creativecommons.org/ns#" xmlns:rdf="http://www.w3.org/1999/02/22-rdf-syntax-ns#">
   <cc:Work>
    <dc:type rdf:resource="http://purl.org/dc/dcmitype/StillImage"/>
    <dc:date>2025-12-10T13:50:09.812393</dc:date>
    <dc:format>image/svg+xml</dc:format>
    <dc:creator>
     <cc:Agent>
      <dc:title>Matplotlib v3.10.3, https://matplotlib.org/</dc:title>
     </cc:Agent>
    </dc:creator>
   </cc:Work>
  </rdf:RDF>
 </metadata>
 <defs>
  <style type="text/css">*{stroke-linejoin: round; stroke-linecap: butt}</style>
 </defs>
 <g id="figure_1">
  <g id="patch_1">
   <path d="M 0 345.6 
L 460.8 345.6 
L 460.8 0 
L 0 0 
z
" style="fill: #ffffff"/>
  </g>
  <g id="axes_1">
   <g id="patch_2">
    <path d="M 57.6 307.584 
L 414.72 307.584 
L 414.72 41.472 
L 57.6 41.472 
z
" style="fill: #ffffff"/>
   </g>
   <g id="matplotlib.axis_1">
    <g id="xtick_1">
     <g id="line2d_1">
      <defs>
       <path id="m989d42a173" d="M 0 0 
L 0 3.5 
" style="stroke: #000000; stroke-width: 0.8"/>
      </defs>
      <g>
       <use xlink:href="#m989d42a173" x="73.832727" y="307.584" style="stroke: #000000; stroke-width: 0.8"/>
      </g>
     </g>
     <g id="text_1">
      <!-- 0 -->
      <g transform="translate(69.060852 325.981656) scale(0.15 -0.15)">
       <defs>
        <path id="DejaVuSans-30" d="M 2034 4250 
Q 1547 4250 1301 3770 
Q 1056 3291 1056 2328 
Q 1056 1369 1301 889 
Q 1547 409 2034 409 
Q 2525 409 2770 889 
Q 3016 1369 3016 2328 
Q 3016 3291 2770 3770 
Q 2525 4250 2034 4250 
z
M 2034 4750 
Q 2819 4750 3233 4129 
Q 3647 3509 3647 2328 
Q 3647 1150 3233 529 
Q 2819 -91 2034 -91 
Q 1250 -91 836 529 
Q 422 1150 422 2328 
Q 422 3509 836 4129 
Q 1250 4750 2034 4750 
z
" transform="scale(0.015625)"/>
       </defs>
       <use xlink:href="#DejaVuSans-30"/>
      </g>
     </g>
    </g>
    <g id="xtick_2">
     <g id="line2d_2">
      <g>
       <use xlink:href="#m989d42a173" x="154.996364" y="307.584" style="stroke: #000000; stroke-width: 0.8"/>
      </g>
     </g>
     <g id="text_2">
      <!-- 5 -->
      <g transform="translate(150.224489 325.981656) scale(0.15 -0.15)">
       <defs>
        <path id="DejaVuSans-35" d="M 691 4666 
L 3169 4666 
L 3169 4134 
L 1269 4134 
L 1269 2991 
Q 1406 3038 1543 3061 
Q 1681 3084 1819 3084 
Q 2600 3084 3056 2656 
Q 3513 2228 3513 1497 
Q 3513 744 3044 326 
Q 2575 -91 1722 -91 
Q 1428 -91 1123 -41 
Q 819 9 494 109 
L 494 744 
Q 775 591 1075 516 
Q 1375 441 1709 441 
Q 2250 441 2565 725 
Q 2881 1009 2881 1497 
Q 2881 1984 2565 2268 
Q 2250 2553 1709 2553 
Q 1456 2553 1204 2497 
Q 953 2441 691 2322 
L 691 4666 
z
" transform="scale(0.015625)"/>
       </defs>
       <use xlink:href="#DejaVuSans-35"/>
      </g>
     </g>
    </g>
    <g id="xtick_3">
     <g id="line2d_3">
      <g>
       <use xlink:href="#m989d42a173" x="236.16" y="307.584" style="stroke: #000000; stroke-width: 0.8"/>
      </g>
     </g>
     <g id="text_3">
      <!-- 10 -->
      <g transform="translate(226.61625 325.981656) scale(0.15 -0.15)">
       <defs>
        <path id="DejaVuSans-31" d="M 794 531 
L 1825 531 
L 1825 4091 
L 703 3866 
L 703 4441 
L 1819 4666 
L 2450 4666 
L 2450 531 
L 3481 531 
L 3481 0 
L 794 0 
L 794 531 
z
" transform="scale(0.015625)"/>
       </defs>
       <use xlink:href="#DejaVuSans-31"/>
       <use xlink:href="#DejaVuSans-30" transform="translate(63.623047 0)"/>
      </g>
     </g>
    </g>
    <g id="xtick_4">
     <g id="line2d_4">
      <g>
       <use xlink:href="#m989d42a173" x="317.323636" y="307.584" style="stroke: #000000; stroke-width: 0.8"/>
      </g>
     </g>
     <g id="text_4">
      <!-- 15 -->
      <g transform="translate(307.779886 325.981656) scale(0.15 -0.15)">
       <use xlink:href="#DejaVuSans-31"/>
       <use xlink:href="#DejaVuSans-35" transform="translate(63.623047 0)"/>
      </g>
     </g>
    </g>
    <g id="xtick_5">
     <g id="line2d_5">
      <g>
       <use xlink:href="#m989d42a173" x="398.487273" y="307.584" style="stroke: #000000; stroke-width: 0.8"/>
      </g>
     </g>
     <g id="text_5">
      <!-- 20 -->
      <g transform="translate(388.943523 325.981656) scale(0.15 -0.15)">
       <defs>
        <path id="DejaVuSans-32" d="M 1228 531 
L 3431 531 
L 3431 0 
L 469 0 
L 469 531 
Q 828 903 1448 1529 
Q 2069 2156 2228 2338 
Q 2531 2678 2651 2914 
Q 2772 3150 2772 3378 
Q 2772 3750 2511 3984 
Q 2250 4219 1831 4219 
Q 1534 4219 1204 4116 
Q 875 4013 500 3803 
L 500 4441 
Q 881 4594 1212 4672 
Q 1544 4750 1819 4750 
Q 2544 4750 2975 4387 
Q 3406 4025 3406 3419 
Q 3406 3131 3298 2873 
Q 3191 2616 2906 2266 
Q 2828 2175 2409 1742 
Q 1991 1309 1228 531 
z
" transform="scale(0.015625)"/>
       </defs>
       <use xlink:href="#DejaVuSans-32"/>
       <use xlink:href="#DejaVuSans-30" transform="translate(63.623047 0)"/>
      </g>
     </g>
    </g>
   </g>
   <g id="matplotlib.axis_2">
    <g id="ytick_1">
     <g id="line2d_6">
      <defs>
       <path id="m685d497340" d="M 0 0 
L -3.5 0 
" style="stroke: #000000; stroke-width: 0.8"/>
      </defs>
      <g>
       <use xlink:href="#m685d497340" x="57.6" y="260.571683" style="stroke: #000000; stroke-width: 0.8"/>
      </g>
     </g>
     <g id="text_6">
      <!-- 5 -->
      <g transform="translate(41.05625 266.270511) scale(0.15 -0.15)">
       <use xlink:href="#DejaVuSans-35"/>
      </g>
     </g>
    </g>
    <g id="ytick_2">
     <g id="line2d_7">
      <g>
       <use xlink:href="#m685d497340" x="57.6" y="198.424367" style="stroke: #000000; stroke-width: 0.8"/>
      </g>
     </g>
     <g id="text_7">
      <!-- 10 -->
      <g transform="translate(31.5125 204.123195) scale(0.15 -0.15)">
       <use xlink:href="#DejaVuSans-31"/>
       <use xlink:href="#DejaVuSans-30" transform="translate(63.623047 0)"/>
      </g>
     </g>
    </g>
    <g id="ytick_3">
     <g id="line2d_8">
      <g>
       <use xlink:href="#m685d497340" x="57.6" y="136.277051" style="stroke: #000000; stroke-width: 0.8"/>
      </g>
     </g>
     <g id="text_8">
      <!-- 15 -->
      <g transform="translate(31.5125 141.975879) scale(0.15 -0.15)">
       <use xlink:href="#DejaVuSans-31"/>
       <use xlink:href="#DejaVuSans-35" transform="translate(63.623047 0)"/>
      </g>
     </g>
    </g>
    <g id="ytick_4">
     <g id="line2d_9">
      <g>
       <use xlink:href="#m685d497340" x="57.6" y="74.129735" style="stroke: #000000; stroke-width: 0.8"/>
      </g>
     </g>
     <g id="text_9">
      <!-- 20 -->
      <g transform="translate(31.5125 79.828563) scale(0.15 -0.15)">
       <use xlink:href="#DejaVuSans-32"/>
       <use xlink:href="#DejaVuSans-30" transform="translate(63.623047 0)"/>
      </g>
     </g>
    </g>
   </g>
   <g id="line2d_10">
    <path d="M 73.832727 270.979963 
L 90.065455 251.804412 
L 106.298182 247.242506 
L 122.530909 259.84371 
L 138.763636 267.672132 
L 154.996364 255.960424 
L 171.229091 245.440913 
L 187.461818 264.546019 
L 203.694545 265.155673 
L 219.927273 253.492953 
L 236.16 254.398814 
L 252.392727 262.412492 
L 268.625455 259.639121 
L 284.858182 250.071815 
L 301.090909 237.501331 
L 317.323636 204.440518 
L 333.556364 269.714742 
L 349.789091 242.360272 
L 366.021818 273.241088 
L 382.254545 249.007108 
L 398.487273 245.857589 
" clip-path="url(#pb583f47f24)" style="fill: none; stroke: #440154; stroke-opacity: 0.5; stroke-width: 1.5; stroke-linecap: square"/>
   </g>
   <g id="line2d_11">
    <path d="M 73.832727 260.937377 
L 90.065455 237.385875 
L 106.298182 268.338648 
L 122.530909 266.562701 
L 138.763636 261.696304 
L 154.996364 270.410291 
L 171.229091 257.04221 
L 187.461818 254.664335 
L 203.694545 272.233886 
L 219.927273 240.727281 
L 236.16 249.980915 
L 252.392727 238.025152 
L 268.625455 247.776405 
L 284.858182 257.324364 
L 301.090909 225.401114 
L 317.323636 238.743584 
L 333.556364 266.665427 
L 349.789091 254.249166 
L 366.021818 255.864709 
L 382.254545 265.848458 
L 398.487273 258.9964 
" clip-path="url(#pb583f47f24)" style="fill: none; stroke: #440154; stroke-opacity: 0.5; stroke-width: 1.5; stroke-linecap: square"/>
   </g>
   <g id="line2d_12">
    <path d="M 73.832727 244.71532 
L 90.065455 259.162069 
L 106.298182 236.428263 
L 122.530909 234.133872 
L 138.763636 211.994053 
L 154.996364 271.218379 
L 171.229091 249.263361 
L 187.461818 246.157846 
L 203.694545 255.079768 
L 219.927273 250.678759 
L 236.16 261.868879 
L 252.392727 221.414856 
L 268.625455 234.627567 
L 284.858182 267.945965 
L 301.090909 245.34177 
L 317.323636 264.230503 
L 333.556364 261.545387 
L 349.789091 266.699007 
L 366.021818 246.326436 
L 382.254545 243.402256 
L 398.487273 237.682415 
" clip-path="url(#pb583f47f24)" style="fill: none; stroke: #440154; stroke-opacity: 0.5; stroke-width: 1.5; stroke-linecap: square"/>
   </g>
   <g id="line2d_13">
    <path d="M 73.832727 272.846452 
L 90.065455 261.272427 
L 106.298182 268.6247 
L 122.530909 263.338994 
L 138.763636 255.862512 
L 154.996364 240.325036 
L 171.229091 241.153261 
L 187.461818 264.912129 
L 203.694545 259.54594 
L 219.927273 223.564125 
L 236.16 264.055731 
L 252.392727 269.048248 
L 268.625455 270.014764 
L 284.858182 269.513204 
L 301.090909 276.035281 
L 317.323636 232.2663 
L 333.556364 248.569136 
L 349.789091 240.717945 
L 366.021818 259.768838 
L 382.254545 276.132499 
L 398.487273 251.411684 
" clip-path="url(#pb583f47f24)" style="fill: none; stroke: #440154; stroke-opacity: 0.5; stroke-width: 1.5; stroke-linecap: square"/>
   </g>
   <g id="line2d_14">
    <path d="M 73.832727 237.988344 
L 90.065455 232.696712 
L 106.298182 249.584406 
L 122.530909 249.931589 
L 138.763636 251.534074 
L 154.996364 281.139861 
L 171.229091 259.146203 
L 187.461818 243.085685 
L 203.694545 250.903407 
L 219.927273 248.485953 
L 236.16 258.842802 
L 252.392727 242.289099 
L 268.625455 266.747301 
L 284.858182 257.146365 
L 301.090909 273.944121 
L 317.323636 245.120506 
L 333.556364 266.21916 
L 349.789091 259.075167 
L 366.021818 266.763744 
L 382.254545 274.00475 
L 398.487273 273.082693 
" clip-path="url(#pb583f47f24)" style="fill: none; stroke: #440154; stroke-opacity: 0.5; stroke-width: 1.5; stroke-linecap: square"/>
   </g>
   <g id="line2d_15">
    <path d="M 73.832727 239.730115 
L 90.065455 209.909111 
L 106.298182 257.082809 
L 122.530909 254.076887 
L 138.763636 265.680775 
L 154.996364 251.385401 
L 171.229091 243.18198 
L 187.461818 239.551592 
L 203.694545 252.503615 
L 219.927273 185.308448 
L 236.16 258.830917 
L 252.392727 270.071096 
L 268.625455 264.076841 
L 284.858182 284.643522 
L 301.090909 274.279418 
L 317.323636 235.469067 
L 333.556364 278.003457 
L 349.789091 244.837925 
L 366.021818 256.231387 
L 382.254545 255.059274 
L 398.487273 259.738138 
" clip-path="url(#pb583f47f24)" style="fill: none; stroke: #440154; stroke-opacity: 0.5; stroke-width: 1.5; stroke-linecap: square"/>
   </g>
   <g id="line2d_16">
    <path d="M 73.832727 269.524895 
L 90.065455 251.560101 
L 106.298182 255.592595 
L 122.530909 259.770384 
L 138.763636 263.716311 
L 154.996364 219.029891 
L 171.229091 264.285259 
L 187.461818 228.654073 
L 203.694545 267.837648 
L 219.927273 254.656775 
L 236.16 255.593791 
L 252.392727 275.982514 
L 268.625455 239.547391 
L 284.858182 232.75949 
L 301.090909 274.119236 
L 317.323636 255.572018 
L 333.556364 167.224804 
L 349.789091 251.268913 
L 366.021818 264.926669 
L 382.254545 226.248163 
L 398.487273 261.608849 
" clip-path="url(#pb583f47f24)" style="fill: none; stroke: #440154; stroke-opacity: 0.5; stroke-width: 1.5; stroke-linecap: square"/>
   </g>
   <g id="line2d_17">
    <path d="M 73.832727 249.645927 
L 90.065455 241.581881 
L 106.298182 229.019651 
L 122.530909 231.534916 
L 138.763636 270.449624 
L 154.996364 259.387923 
L 171.229091 235.719954 
L 187.461818 237.682105 
L 203.694545 253.631306 
L 219.927273 259.775957 
L 236.16 266.639127 
L 252.392727 252.823088 
L 268.625455 274.337249 
L 284.858182 248.572074 
L 301.090909 253.52855 
L 317.323636 259.086665 
L 333.556364 259.543503 
L 349.789091 265.082493 
L 366.021818 256.772257 
L 382.254545 237.701034 
L 398.487273 214.275884 
" clip-path="url(#pb583f47f24)" style="fill: none; stroke: #440154; stroke-opacity: 0.5; stroke-width: 1.5; stroke-linecap: square"/>
   </g>
   <g id="line2d_18">
    <path d="M 73.832727 259.209468 
L 90.065455 242.889246 
L 106.298182 236.056084 
L 122.530909 252.517555 
L 138.763636 249.676069 
L 154.996364 253.963471 
L 171.229091 270.153309 
L 187.461818 203.609024 
L 203.694545 206.628628 
L 219.927273 249.088555 
L 236.16 235.207993 
L 252.392727 249.139573 
L 268.625455 249.816264 
L 284.858182 254.342077 
L 301.090909 279.04897 
L 317.323636 243.992829 
L 333.556364 262.222227 
L 349.789091 271.139035 
L 366.021818 265.301093 
L 382.254545 248.426533 
L 398.487273 243.628799 
" clip-path="url(#pb583f47f24)" style="fill: none; stroke: #440154; stroke-opacity: 0.5; stroke-width: 1.5; stroke-linecap: square"/>
   </g>
   <g id="line2d_19">
    <path d="M 73.832727 201.999352 
L 90.065455 192.412325 
L 106.298182 263.219206 
L 122.530909 231.908639 
L 138.763636 231.300287 
L 154.996364 239.997189 
L 171.229091 246.41732 
L 187.461818 240.255995 
L 203.694545 251.420173 
L 219.927273 224.407562 
L 236.16 218.637212 
L 252.392727 250.526534 
L 268.625455 258.455 
L 284.858182 230.08123 
L 301.090909 247.283471 
L 317.323636 237.964693 
L 333.556364 243.670969 
L 349.789091 254.743652 
L 366.021818 260.637636 
L 382.254545 238.046749 
L 398.487273 251.367282 
" clip-path="url(#pb583f47f24)" style="fill: none; stroke: #440154; stroke-opacity: 0.5; stroke-width: 1.5; stroke-linecap: square"/>
   </g>
   <g id="line2d_20">
    <path d="M 73.832727 263.84667 
L 90.065455 229.147249 
L 106.298182 249.496442 
L 122.530909 247.080944 
L 138.763636 251.894888 
L 154.996364 260.610486 
L 171.229091 235.93721 
L 187.461818 254.744664 
L 203.694545 252.492374 
L 219.927273 248.514785 
L 236.16 189.599945 
L 252.392727 263.16528 
L 268.625455 253.990554 
L 284.858182 243.643207 
L 301.090909 181.737614 
L 317.323636 247.835791 
L 333.556364 226.061401 
L 349.789091 240.836825 
L 366.021818 214.353843 
L 382.254545 238.159003 
L 398.487273 256.913164 
" clip-path="url(#pb583f47f24)" style="fill: none; stroke: #440154; stroke-opacity: 0.5; stroke-width: 1.5; stroke-linecap: square"/>
   </g>
   <g id="line2d_21">
    <path d="M 73.832727 168.444883 
L 90.065455 222.526168 
L 106.298182 242.339389 
L 122.530909 232.766194 
L 138.763636 267.121086 
L 154.996364 254.317575 
L 171.229091 261.874682 
L 187.461818 261.440808 
L 203.694545 271.992286 
L 219.927273 217.2615 
L 236.16 252.125683 
L 252.392727 257.722283 
L 268.625455 257.613595 
L 284.858182 260.079093 
L 301.090909 265.03237 
L 317.323636 230.455312 
L 333.556364 251.251875 
L 349.789091 211.364543 
L 366.021818 197.146772 
L 382.254545 174.426572 
L 398.487273 173.378744 
" clip-path="url(#pb583f47f24)" style="fill: none; stroke: #440154; stroke-opacity: 0.5; stroke-width: 1.5; stroke-linecap: square"/>
   </g>
   <g id="line2d_22">
    <path d="M 73.832727 264.977114 
L 90.065455 150.116083 
L 106.298182 179.793908 
L 122.530909 176.600174 
L 138.763636 208.159559 
L 154.996364 190.944524 
L 171.229091 252.459692 
L 187.461818 253.655422 
L 203.694545 244.506651 
L 219.927273 217.372236 
L 236.16 271.444851 
L 252.392727 261.443941 
L 268.625455 253.040869 
L 284.858182 243.586639 
L 301.090909 264.27964 
L 317.323636 226.496351 
L 333.556364 216.301622 
L 349.789091 226.293319 
L 366.021818 263.920986 
L 382.254545 232.932559 
L 398.487273 267.060565 
" clip-path="url(#pb583f47f24)" style="fill: none; stroke: #440154; stroke-opacity: 0.5; stroke-width: 1.5; stroke-linecap: square"/>
   </g>
   <g id="line2d_23">
    <path d="M 73.832727 178.967915 
L 90.065455 184.227757 
L 106.298182 169.237937 
L 122.530909 188.212386 
L 138.763636 213.143773 
L 154.996364 202.837839 
L 171.229091 204.170974 
L 187.461818 216.745716 
L 203.694545 186.792754 
L 219.927273 154.32047 
L 236.16 177.129782 
L 252.392727 206.226701 
L 268.625455 201.385901 
L 284.858182 202.590908 
L 301.090909 202.841534 
L 317.323636 204.239082 
L 333.556364 206.967043 
L 349.789091 246.253602 
L 366.021818 210.96782 
L 382.254545 208.603294 
L 398.487273 184.225456 
" clip-path="url(#pb583f47f24)" style="fill: none; stroke: #440154; stroke-opacity: 0.5; stroke-width: 1.5; stroke-linecap: square"/>
   </g>
   <g id="line2d_24">
    <path d="M 73.832727 273.162948 
L 90.065455 245.158565 
L 106.298182 241.20344 
L 122.530909 274.530838 
L 138.763636 267.153968 
L 154.996364 270.19588 
L 171.229091 260.490919 
L 187.461818 247.789893 
L 203.694545 248.595943 
L 219.927273 252.942037 
L 236.16 256.523065 
L 252.392727 244.317605 
L 268.625455 259.926406 
L 284.858182 264.506446 
L 301.090909 257.608391 
L 317.323636 270.821096 
L 333.556364 267.860761 
L 349.789091 276.468093 
L 366.021818 269.848131 
L 382.254545 253.793473 
L 398.487273 245.872374 
" clip-path="url(#pb583f47f24)" style="fill: none; stroke: #440154; stroke-opacity: 0.5; stroke-width: 1.5; stroke-linecap: square"/>
   </g>
   <g id="line2d_25">
    <path d="M 73.832727 229.881383 
L 90.065455 239.635138 
L 106.298182 251.158164 
L 122.530909 250.48946 
L 138.763636 282.399224 
L 154.996364 265.825936 
L 171.229091 248.918199 
L 187.461818 275.343696 
L 203.694545 274.858087 
L 219.927273 263.884182 
L 236.16 257.24149 
L 252.392727 269.567661 
L 268.625455 272.151736 
L 284.858182 264.560976 
L 301.090909 285.159062 
L 317.323636 280.907754 
L 333.556364 264.014535 
L 349.789091 238.163948 
L 366.021818 246.418644 
L 382.254545 274.872474 
L 398.487273 261.083161 
" clip-path="url(#pb583f47f24)" style="fill: none; stroke: #440154; stroke-opacity: 0.5; stroke-width: 1.5; stroke-linecap: square"/>
   </g>
   <g id="line2d_26">
    <path d="M 73.832727 239.501966 
L 90.065455 255.186814 
L 106.298182 249.658834 
L 122.530909 268.980009 
L 138.763636 263.898107 
L 154.996364 275.691059 
L 171.229091 255.393057 
L 187.461818 263.78107 
L 203.694545 244.081799 
L 219.927273 271.342039 
L 236.16 268.810521 
L 252.392727 272.048949 
L 268.625455 268.444372 
L 284.858182 265.080593 
L 301.090909 267.935204 
L 317.323636 266.069688 
L 333.556364 268.683783 
L 349.789091 265.117291 
L 366.021818 274.902536 
L 382.254545 265.001185 
L 398.487273 260.284449 
" clip-path="url(#pb583f47f24)" style="fill: none; stroke: #440154; stroke-opacity: 0.5; stroke-width: 1.5; stroke-linecap: square"/>
   </g>
   <g id="line2d_27">
    <path d="M 73.832727 264.863408 
L 90.065455 242.12931 
L 106.298182 251.475507 
L 122.530909 250.953906 
L 138.763636 274.285519 
L 154.996364 242.162503 
L 171.229091 269.040576 
L 187.461818 231.922713 
L 203.694545 240.706552 
L 219.927273 254.054258 
L 236.16 265.784917 
L 252.392727 273.494881 
L 268.625455 267.090544 
L 284.858182 265.924354 
L 301.090909 259.010995 
L 317.323636 217.480789 
L 333.556364 233.830313 
L 349.789091 258.985309 
L 366.021818 215.6091 
L 382.254545 251.379099 
L 398.487273 243.435065 
" clip-path="url(#pb583f47f24)" style="fill: none; stroke: #440154; stroke-opacity: 0.5; stroke-width: 1.5; stroke-linecap: square"/>
   </g>
   <g id="line2d_28">
    <path d="M 73.832727 221.960951 
L 90.065455 233.745696 
L 106.298182 245.887669 
L 122.530909 262.60667 
L 138.763636 254.66733 
L 154.996364 275.966651 
L 171.229091 259.023635 
L 187.461818 275.223004 
L 203.694545 281.415166 
L 219.927273 244.44935 
L 236.16 242.978316 
L 252.392727 253.277383 
L 268.625455 253.841268 
L 284.858182 243.472901 
L 301.090909 235.891773 
L 317.323636 264.162176 
L 333.556364 254.965973 
L 349.789091 270.431822 
L 366.021818 266.260942 
L 382.254545 228.213537 
L 398.487273 241.32007 
" clip-path="url(#pb583f47f24)" style="fill: none; stroke: #440154; stroke-opacity: 0.5; stroke-width: 1.5; stroke-linecap: square"/>
   </g>
   <g id="line2d_29">
    <path d="M 73.832727 218.984696 
L 90.065455 185.921645 
L 106.298182 202.427042 
L 122.530909 175.434344 
L 138.763636 223.745195 
L 154.996364 245.36595 
L 171.229091 264.030367 
L 187.461818 272.43812 
L 203.694545 259.574713 
L 219.927273 262.349027 
L 236.16 245.273677 
L 252.392727 245.678736 
L 268.625455 261.420198 
L 284.858182 241.425792 
L 301.090909 231.922491 
L 317.323636 264.282671 
L 333.556364 232.595299 
L 349.789091 230.567177 
L 366.021818 256.181718 
L 382.254545 262.35003 
L 398.487273 268.401739 
" clip-path="url(#pb583f47f24)" style="fill: none; stroke: #440154; stroke-opacity: 0.5; stroke-width: 1.5; stroke-linecap: square"/>
   </g>
   <g id="line2d_30">
    <path d="M 73.832727 256.082036 
L 90.065455 266.231694 
L 106.298182 240.733058 
L 122.530909 248.686948 
L 138.763636 262.125664 
L 154.996364 253.022181 
L 171.229091 255.842774 
L 187.461818 202.608461 
L 203.694545 209.273253 
L 219.927273 237.426149 
L 236.16 251.132731 
L 252.392727 262.794183 
L 268.625455 243.471021 
L 284.858182 256.534131 
L 301.090909 270.542173 
L 317.323636 254.186859 
L 333.556364 241.866817 
L 349.789091 237.644143 
L 366.021818 254.504747 
L 382.254545 245.971557 
L 398.487273 242.600104 
" clip-path="url(#pb583f47f24)" style="fill: none; stroke: #440154; stroke-opacity: 0.5; stroke-width: 1.5; stroke-linecap: square"/>
   </g>
   <g id="line2d_31">
    <path d="M 73.832727 253.084618 
L 90.065455 219.887314 
L 106.298182 229.436135 
L 122.530909 248.463606 
L 138.763636 259.262203 
L 154.996364 233.274948 
L 171.229091 258.619417 
L 187.461818 266.043174 
L 203.694545 257.124919 
L 219.927273 257.437353 
L 236.16 270.97877 
L 252.392727 270.027534 
L 268.625455 276.405674 
L 284.858182 263.326939 
L 301.090909 269.716559 
L 317.323636 260.652604 
L 333.556364 261.565423 
L 349.789091 260.741146 
L 366.021818 259.743282 
L 382.254545 257.584188 
L 398.487273 249.622833 
" clip-path="url(#pb583f47f24)" style="fill: none; stroke: #440154; stroke-opacity: 0.5; stroke-width: 1.5; stroke-linecap: square"/>
   </g>
   <g id="line2d_32">
    <path d="M 73.832727 245.01618 
L 90.065455 227.138206 
L 106.298182 261.473653 
L 122.530909 274.382375 
L 138.763636 243.617746 
L 154.996364 261.776492 
L 171.229091 257.156588 
L 187.461818 249.866988 
L 203.694545 237.686367 
L 219.927273 227.497444 
L 236.16 226.316025 
L 252.392727 247.166144 
L 268.625455 250.424029 
L 284.858182 224.488477 
L 301.090909 250.216804 
L 317.323636 256.52381 
L 333.556364 274.04314 
L 349.789091 257.004424 
L 366.021818 203.089988 
L 382.254545 264.158536 
L 398.487273 264.996147 
" clip-path="url(#pb583f47f24)" style="fill: none; stroke: #440154; stroke-opacity: 0.5; stroke-width: 1.5; stroke-linecap: square"/>
   </g>
   <g id="line2d_33">
    <path d="M 73.832727 112.564542 
L 90.065455 231.789562 
L 106.298182 249.150791 
L 122.530909 252.587876 
L 138.763636 212.230048 
L 154.996364 257.692544 
L 171.229091 253.726039 
L 187.461818 278.973705 
L 203.694545 266.717044 
L 219.927273 238.853525 
L 236.16 248.977762 
L 252.392727 258.97331 
L 268.625455 235.703726 
L 284.858182 237.344792 
L 301.090909 225.820986 
L 317.323636 197.892551 
L 333.556364 187.832942 
L 349.789091 206.841923 
L 366.021818 228.035661 
L 382.254545 196.538505 
L 398.487273 205.785543 
" clip-path="url(#pb583f47f24)" style="fill: none; stroke: #440154; stroke-opacity: 0.5; stroke-width: 1.5; stroke-linecap: square"/>
   </g>
   <g id="line2d_34">
    <path d="M 73.832727 165.621048 
L 90.065455 223.346937 
L 106.298182 241.682957 
L 122.530909 231.550978 
L 138.763636 219.506524 
L 154.996364 274.741655 
L 171.229091 259.856211 
L 187.461818 202.202568 
L 203.694545 249.12041 
L 219.927273 208.336378 
L 236.16 229.57614 
L 252.392727 250.809957 
L 268.625455 259.903192 
L 284.858182 252.199058 
L 301.090909 235.85928 
L 317.323636 209.157711 
L 333.556364 252.853142 
L 349.789091 203.474247 
L 366.021818 209.370214 
L 382.254545 226.610211 
L 398.487273 129.823513 
" clip-path="url(#pb583f47f24)" style="fill: none; stroke: #440154; stroke-opacity: 0.5; stroke-width: 1.5; stroke-linecap: square"/>
   </g>
   <g id="line2d_35">
    <path d="M 73.832727 192.131299 
L 90.065455 167.086594 
L 106.298182 154.113391 
L 122.530909 167.814018 
L 138.763636 216.547134 
L 154.996364 248.624016 
L 171.229091 247.331648 
L 187.461818 266.828912 
L 203.694545 271.90052 
L 219.927273 245.637398 
L 236.16 227.531507 
L 252.392727 251.552772 
L 268.625455 214.1639 
L 284.858182 268.427176 
L 301.090909 261.501095 
L 317.323636 259.680371 
L 333.556364 249.145447 
L 349.789091 249.168591 
L 366.021818 260.099387 
L 382.254545 253.865438 
L 398.487273 254.673188 
" clip-path="url(#pb583f47f24)" style="fill: none; stroke: #440154; stroke-opacity: 0.5; stroke-width: 1.5; stroke-linecap: square"/>
   </g>
   <g id="line2d_36">
    <path d="M 73.832727 257.958517 
L 90.065455 211.554311 
L 106.298182 207.435642 
L 122.530909 224.210036 
L 138.763636 228.771561 
L 154.996364 238.22388 
L 171.229091 246.327143 
L 187.461818 210.320177 
L 203.694545 256.812391 
L 219.927273 171.601327 
L 236.16 270.905089 
L 252.392727 252.612332 
L 268.625455 260.117191 
L 284.858182 260.683857 
L 301.090909 246.539977 
L 317.323636 267.090155 
L 333.556364 243.60615 
L 349.789091 253.939587 
L 366.021818 260.112201 
L 382.254545 254.651854 
L 398.487273 243.354316 
" clip-path="url(#pb583f47f24)" style="fill: none; stroke: #440154; stroke-opacity: 0.5; stroke-width: 1.5; stroke-linecap: square"/>
   </g>
   <g id="line2d_37">
    <path d="M 73.832727 240.464963 
L 90.065455 202.882933 
L 106.298182 231.746607 
L 122.530909 228.672194 
L 138.763636 235.731933 
L 154.996364 238.347886 
L 171.229091 190.545677 
L 187.461818 176.191393 
L 203.694545 207.02225 
L 219.927273 158.086368 
L 236.16 216.761205 
L 252.392727 240.34094 
L 268.625455 226.547771 
L 284.858182 178.059706 
L 301.090909 241.013558 
L 317.323636 236.15176 
L 333.556364 236.817403 
L 349.789091 224.813924 
L 366.021818 223.649997 
L 382.254545 239.217837 
L 398.487273 226.081522 
" clip-path="url(#pb583f47f24)" style="fill: none; stroke: #440154; stroke-opacity: 0.5; stroke-width: 1.5; stroke-linecap: square"/>
   </g>
   <g id="line2d_38">
    <path d="M 73.832727 281.174767 
L 90.065455 258.349312 
L 106.298182 249.930418 
L 122.530909 269.295979 
L 138.763636 260.416989 
L 154.996364 267.649878 
L 171.229091 253.00039 
L 187.461818 275.617314 
L 203.694545 258.198117 
L 219.927273 251.39591 
L 236.16 252.383192 
L 252.392727 257.138776 
L 268.625455 253.764175 
L 284.858182 261.526224 
L 301.090909 273.028653 
L 317.323636 264.332197 
L 333.556364 250.453173 
L 349.789091 261.018872 
L 366.021818 257.260957 
L 382.254545 264.48319 
L 398.487273 258.84062 
" clip-path="url(#pb583f47f24)" style="fill: none; stroke: #440154; stroke-opacity: 0.5; stroke-width: 1.5; stroke-linecap: square"/>
   </g>
   <g id="line2d_39">
    <path d="M 73.832727 274.914219 
L 90.065455 253.862901 
L 106.298182 260.076502 
L 122.530909 259.678114 
L 138.763636 259.137796 
L 154.996364 259.031269 
L 171.229091 267.470437 
L 187.461818 265.954276 
L 203.694545 183.003766 
L 219.927273 264.252575 
L 236.16 218.894943 
L 252.392727 259.191994 
L 268.625455 264.136854 
L 284.858182 273.396694 
L 301.090909 263.50507 
L 317.323636 226.770178 
L 333.556364 262.207366 
L 349.789091 251.08191 
L 366.021818 254.644832 
L 382.254545 258.921897 
L 398.487273 251.957891 
" clip-path="url(#pb583f47f24)" style="fill: none; stroke: #440154; stroke-opacity: 0.5; stroke-width: 1.5; stroke-linecap: square"/>
   </g>
   <g id="line2d_40">
    <path d="M 73.832727 247.891455 
L 90.065455 273.560339 
L 106.298182 279.164499 
L 122.530909 258.027308 
L 138.763636 256.909133 
L 154.996364 255.482134 
L 171.229091 268.421052 
L 187.461818 209.671209 
L 203.694545 267.630756 
L 219.927273 251.521992 
L 236.16 241.633414 
L 252.392727 265.266105 
L 268.625455 248.179332 
L 284.858182 274.474583 
L 301.090909 275.035134 
L 317.323636 228.920094 
L 333.556364 242.329075 
L 349.789091 250.647878 
L 366.021818 277.774246 
L 382.254545 241.211469 
L 398.487273 240.878594 
" clip-path="url(#pb583f47f24)" style="fill: none; stroke: #440154; stroke-opacity: 0.5; stroke-width: 1.5; stroke-linecap: square"/>
   </g>
   <g id="line2d_41">
    <path d="M 73.832727 211.906513 
L 90.065455 273.699415 
L 106.298182 256.71876 
L 122.530909 252.447761 
L 138.763636 239.09327 
L 154.996364 264.412311 
L 171.229091 261.465668 
L 187.461818 229.805304 
L 203.694545 257.177325 
L 219.927273 267.962809 
L 236.16 234.159895 
L 252.392727 214.145726 
L 268.625455 235.783333 
L 284.858182 254.386965 
L 301.090909 252.090065 
L 317.323636 260.935426 
L 333.556364 240.282911 
L 349.789091 278.833337 
L 366.021818 256.390326 
L 382.254545 267.393433 
L 398.487273 268.890986 
" clip-path="url(#pb583f47f24)" style="fill: none; stroke: #440154; stroke-opacity: 0.5; stroke-width: 1.5; stroke-linecap: square"/>
   </g>
   <g id="line2d_42">
    <path d="M 73.832727 193.707694 
L 90.065455 262.80779 
L 106.298182 241.080891 
L 122.530909 249.318848 
L 138.763636 254.937647 
L 154.996364 244.608346 
L 171.229091 259.014876 
L 187.461818 241.924112 
L 203.694545 239.658852 
L 219.927273 259.852024 
L 236.16 224.341977 
L 252.392727 271.347974 
L 268.625455 241.26892 
L 284.858182 261.509344 
L 301.090909 220.93684 
L 317.323636 271.702028 
L 333.556364 241.294213 
L 349.789091 264.752507 
L 366.021818 253.986631 
L 382.254545 181.303685 
L 398.487273 256.982983 
" clip-path="url(#pb583f47f24)" style="fill: none; stroke: #440154; stroke-opacity: 0.5; stroke-width: 1.5; stroke-linecap: square"/>
   </g>
   <g id="line2d_43">
    <path d="M 73.832727 170.743016 
L 90.065455 203.725322 
L 106.298182 216.969124 
L 122.530909 194.642121 
L 138.763636 244.828177 
L 154.996364 274.071301 
L 171.229091 247.837827 
L 187.461818 256.527641 
L 203.694545 253.676618 
L 219.927273 259.235582 
L 236.16 256.14508 
L 252.392727 269.54572 
L 268.625455 193.942798 
L 284.858182 263.999761 
L 301.090909 269.599663 
L 317.323636 256.398418 
L 333.556364 262.944083 
L 349.789091 257.461107 
L 366.021818 261.070046 
L 382.254545 261.641585 
L 398.487273 274.465894 
" clip-path="url(#pb583f47f24)" style="fill: none; stroke: #440154; stroke-opacity: 0.5; stroke-width: 1.5; stroke-linecap: square"/>
   </g>
   <g id="line2d_44">
    <path d="M 73.832727 255.438765 
L 90.065455 259.527092 
L 106.298182 274.096368 
L 122.530909 271.009587 
L 138.763636 273.237468 
L 154.996364 243.253201 
L 171.229091 265.056064 
L 187.461818 249.574924 
L 203.694545 259.473208 
L 219.927273 255.583139 
L 236.16 277.867447 
L 252.392727 273.726658 
L 268.625455 268.88072 
L 284.858182 268.461514 
L 301.090909 254.56743 
L 317.323636 255.276281 
L 333.556364 261.70153 
L 349.789091 243.633411 
L 366.021818 262.137271 
L 382.254545 250.859134 
L 398.487273 246.958209 
" clip-path="url(#pb583f47f24)" style="fill: none; stroke: #440154; stroke-opacity: 0.5; stroke-width: 1.5; stroke-linecap: square"/>
   </g>
   <g id="line2d_45">
    <path d="M 73.832727 266.064796 
L 90.065455 249.364413 
L 106.298182 255.516629 
L 122.530909 232.044573 
L 138.763636 251.501543 
L 154.996364 247.678206 
L 171.229091 261.870249 
L 187.461818 218.286961 
L 203.694545 260.69635 
L 219.927273 223.583092 
L 236.16 236.595703 
L 252.392727 255.281873 
L 268.625455 254.227078 
L 284.858182 255.016438 
L 301.090909 262.1976 
L 317.323636 253.657135 
L 333.556364 260.667304 
L 349.789091 252.581529 
L 366.021818 251.375218 
L 382.254545 260.706352 
L 398.487273 256.773198 
" clip-path="url(#pb583f47f24)" style="fill: none; stroke: #440154; stroke-opacity: 0.5; stroke-width: 1.5; stroke-linecap: square"/>
   </g>
   <g id="line2d_46">
    <path d="M 73.832727 234.692924 
L 90.065455 261.038558 
L 106.298182 267.449557 
L 122.530909 255.650678 
L 138.763636 250.123299 
L 154.996364 274.358617 
L 171.229091 217.059996 
L 187.461818 223.19589 
L 203.694545 242.145763 
L 219.927273 257.357834 
L 236.16 231.179248 
L 252.392727 262.181927 
L 268.625455 271.158251 
L 284.858182 204.604652 
L 301.090909 265.982511 
L 317.323636 243.195613 
L 333.556364 263.364753 
L 349.789091 248.894683 
L 366.021818 254.939322 
L 382.254545 238.303128 
L 398.487273 247.795478 
" clip-path="url(#pb583f47f24)" style="fill: none; stroke: #440154; stroke-opacity: 0.5; stroke-width: 1.5; stroke-linecap: square"/>
   </g>
   <g id="line2d_47">
    <path d="M 73.832727 246.943893 
L 90.065455 258.685686 
L 106.298182 261.287329 
L 122.530909 247.460428 
L 138.763636 258.594372 
L 154.996364 249.299232 
L 171.229091 258.29302 
L 187.461818 238.702498 
L 203.694545 259.153252 
L 219.927273 242.857092 
L 236.16 243.908334 
L 252.392727 265.22862 
L 268.625455 241.291317 
L 284.858182 248.460296 
L 301.090909 246.173406 
L 317.323636 197.347919 
L 333.556364 255.412407 
L 349.789091 241.426985 
L 366.021818 239.008856 
L 382.254545 261.180133 
L 398.487273 256.236852 
" clip-path="url(#pb583f47f24)" style="fill: none; stroke: #440154; stroke-opacity: 0.5; stroke-width: 1.5; stroke-linecap: square"/>
   </g>
   <g id="line2d_48">
    <path d="M 73.832727 256.230798 
L 90.065455 257.6107 
L 106.298182 259.761872 
L 122.530909 266.255123 
L 138.763636 263.048471 
L 154.996364 248.731816 
L 171.229091 159.87574 
L 187.461818 251.369794 
L 203.694545 221.732238 
L 219.927273 245.27986 
L 236.16 213.756949 
L 252.392727 194.792706 
L 268.625455 245.633555 
L 284.858182 197.26976 
L 301.090909 222.472534 
L 317.323636 260.158501 
L 333.556364 236.458741 
L 349.789091 258.290254 
L 366.021818 253.164726 
L 382.254545 259.393401 
L 398.487273 245.620077 
" clip-path="url(#pb583f47f24)" style="fill: none; stroke: #440154; stroke-opacity: 0.5; stroke-width: 1.5; stroke-linecap: square"/>
   </g>
   <g id="line2d_49">
    <path d="M 73.832727 129.696843 
L 90.065455 149.386885 
L 106.298182 169.362129 
L 122.530909 209.464188 
L 138.763636 145.414837 
L 154.996364 198.663615 
L 171.229091 224.536803 
L 187.461818 243.595808 
L 203.694545 207.644686 
L 219.927273 199.615601 
L 236.16 218.836452 
L 252.392727 223.340126 
L 268.625455 266.134475 
L 284.858182 255.088808 
L 301.090909 223.42506 
L 317.323636 240.456118 
L 333.556364 204.385626 
L 349.789091 239.039197 
L 366.021818 232.739054 
L 382.254545 207.601076 
L 398.487273 167.037617 
" clip-path="url(#pb583f47f24)" style="fill: none; stroke: #440154; stroke-opacity: 0.5; stroke-width: 1.5; stroke-linecap: square"/>
   </g>
   <g id="line2d_50">
    <path d="M 73.832727 253.209266 
L 90.065455 228.306746 
L 106.298182 238.16567 
L 122.530909 258.503256 
L 138.763636 248.364856 
L 154.996364 241.401395 
L 171.229091 206.665863 
L 187.461818 230.93763 
L 203.694545 197.909962 
L 219.927273 231.114834 
L 236.16 262.717782 
L 252.392727 262.512006 
L 268.625455 260.203419 
L 284.858182 259.677458 
L 301.090909 250.806027 
L 317.323636 237.705214 
L 333.556364 248.664798 
L 349.789091 206.501793 
L 366.021818 205.647575 
L 382.254545 245.268428 
L 398.487273 199.965492 
" clip-path="url(#pb583f47f24)" style="fill: none; stroke: #440154; stroke-opacity: 0.5; stroke-width: 1.5; stroke-linecap: square"/>
   </g>
   <g id="line2d_51">
    <path d="M 73.832727 222.464559 
L 90.065455 53.568 
L 106.298182 110.273111 
L 122.530909 92.316697 
L 138.763636 102.070762 
L 154.996364 135.561872 
L 171.229091 157.176435 
L 187.461818 224.813421 
L 203.694545 193.017928 
L 219.927273 214.182811 
L 236.16 220.993651 
L 252.392727 221.253349 
L 268.625455 184.242099 
L 284.858182 219.472881 
L 301.090909 213.694167 
L 317.323636 208.431749 
L 333.556364 184.501576 
L 349.789091 228.01193 
L 366.021818 228.628054 
L 382.254545 177.744037 
L 398.487273 168.391653 
" clip-path="url(#pb583f47f24)" style="fill: none; stroke: #440154; stroke-opacity: 0.5; stroke-width: 1.5; stroke-linecap: square"/>
   </g>
   <g id="line2d_52">
    <path d="M 73.832727 160.582232 
L 90.065455 176.97535 
L 106.298182 154.910769 
L 122.530909 160.203379 
L 138.763636 149.018342 
L 154.996364 235.90867 
L 171.229091 250.871529 
L 187.461818 196.564422 
L 203.694545 195.885203 
L 219.927273 269.609494 
L 236.16 230.417988 
L 252.392727 183.386852 
L 268.625455 205.366455 
L 284.858182 243.280761 
L 301.090909 240.801973 
L 317.323636 251.795147 
L 333.556364 222.460374 
L 349.789091 241.985045 
L 366.021818 244.811029 
L 382.254545 217.530239 
L 398.487273 226.35371 
" clip-path="url(#pb583f47f24)" style="fill: none; stroke: #440154; stroke-opacity: 0.5; stroke-width: 1.5; stroke-linecap: square"/>
   </g>
   <g id="line2d_53">
    <path d="M 73.832727 169.533745 
L 90.065455 118.831195 
L 106.298182 123.562222 
L 122.530909 166.457175 
L 138.763636 127.559995 
L 154.996364 168.464212 
L 171.229091 211.947579 
L 187.461818 201.204352 
L 203.694545 220.081562 
L 219.927273 211.978709 
L 236.16 277.694727 
L 252.392727 223.32978 
L 268.625455 228.790902 
L 284.858182 226.187194 
L 301.090909 200.37746 
L 317.323636 248.325475 
L 333.556364 187.111049 
L 349.789091 224.432343 
L 366.021818 231.616534 
L 382.254545 224.652342 
L 398.487273 235.05594 
" clip-path="url(#pb583f47f24)" style="fill: none; stroke: #440154; stroke-opacity: 0.5; stroke-width: 1.5; stroke-linecap: square"/>
   </g>
   <g id="line2d_54">
    <path d="M 73.832727 212.281134 
L 90.065455 166.775597 
L 106.298182 200.459351 
L 122.530909 183.264171 
L 138.763636 175.196711 
L 154.996364 198.897091 
L 171.229091 232.793292 
L 187.461818 218.736608 
L 203.694545 234.326733 
L 219.927273 213.908538 
L 236.16 230.705744 
L 252.392727 239.584718 
L 268.625455 224.513687 
L 284.858182 246.317814 
L 301.090909 225.55728 
L 317.323636 206.973741 
L 333.556364 220.167178 
L 349.789091 211.687626 
L 366.021818 232.041409 
L 382.254545 227.80791 
L 398.487273 207.311919 
" clip-path="url(#pb583f47f24)" style="fill: none; stroke: #440154; stroke-opacity: 0.5; stroke-width: 1.5; stroke-linecap: square"/>
   </g>
   <g id="line2d_55">
    <path d="M 73.832727 239.482429 
L 90.065455 162.009847 
L 106.298182 175.750256 
L 122.530909 213.46386 
L 138.763636 225.267171 
L 154.996364 218.209039 
L 171.229091 211.848319 
L 187.461818 230.071454 
L 203.694545 262.34246 
L 219.927273 231.811142 
L 236.16 232.817449 
L 252.392727 267.376229 
L 268.625455 255.721922 
L 284.858182 271.321426 
L 301.090909 198.693819 
L 317.323636 278.642889 
L 333.556364 269.723899 
L 349.789091 260.851407 
L 366.021818 272.467038 
L 382.254545 274.48169 
L 398.487273 268.640176 
" clip-path="url(#pb583f47f24)" style="fill: none; stroke: #440154; stroke-opacity: 0.5; stroke-width: 1.5; stroke-linecap: square"/>
   </g>
   <g id="line2d_56">
    <path d="M 73.832727 191.966918 
L 90.065455 189.44059 
L 106.298182 189.802853 
L 122.530909 183.638589 
L 138.763636 192.216934 
L 154.996364 215.61842 
L 171.229091 150.120149 
L 187.461818 229.592888 
L 203.694545 231.562091 
L 219.927273 216.288504 
L 236.16 215.322873 
L 252.392727 171.462605 
L 268.625455 224.641654 
L 284.858182 243.809743 
L 301.090909 174.962991 
L 317.323636 285.803434 
L 333.556364 238.556396 
L 349.789091 267.911609 
L 366.021818 261.92947 
L 382.254545 262.744086 
L 398.487273 276.790767 
" clip-path="url(#pb583f47f24)" style="fill: none; stroke: #440154; stroke-opacity: 0.5; stroke-width: 1.5; stroke-linecap: square"/>
   </g>
   <g id="line2d_57">
    <path d="M 73.832727 213.799181 
L 90.065455 246.100372 
L 106.298182 232.067407 
L 122.530909 232.188732 
L 138.763636 200.835363 
L 154.996364 157.337938 
L 171.229091 216.349516 
L 187.461818 219.110426 
L 203.694545 203.474925 
L 219.927273 220.516084 
L 236.16 215.171211 
L 252.392727 226.814599 
L 268.625455 185.412022 
L 284.858182 220.761646 
L 301.090909 254.643972 
L 317.323636 210.849804 
L 333.556364 223.261335 
L 349.789091 229.689522 
L 366.021818 214.467481 
L 382.254545 217.940015 
L 398.487273 203.631241 
" clip-path="url(#pb583f47f24)" style="fill: none; stroke: #440154; stroke-opacity: 0.5; stroke-width: 1.5; stroke-linecap: square"/>
   </g>
   <g id="line2d_58">
    <path d="M 73.832727 190.270152 
L 90.065455 200.856944 
L 106.298182 199.809868 
L 122.530909 225.400645 
L 138.763636 166.488086 
L 154.996364 257.797764 
L 171.229091 224.78157 
L 187.461818 251.259031 
L 203.694545 254.982237 
L 219.927273 233.477397 
L 236.16 250.815215 
L 252.392727 241.899279 
L 268.625455 208.459106 
L 284.858182 242.497169 
L 301.090909 244.491891 
L 317.323636 221.02735 
L 333.556364 218.310697 
L 349.789091 245.554984 
L 366.021818 217.424416 
L 382.254545 221.586198 
L 398.487273 221.344615 
" clip-path="url(#pb583f47f24)" style="fill: none; stroke: #440154; stroke-opacity: 0.5; stroke-width: 1.5; stroke-linecap: square"/>
   </g>
   <g id="line2d_59">
    <path d="M 73.832727 157.997135 
L 90.065455 139.683314 
L 106.298182 88.05574 
L 122.530909 128.549324 
L 138.763636 65.149648 
L 154.996364 187.916784 
L 171.229091 205.937316 
L 187.461818 200.20327 
L 203.694545 179.877745 
L 219.927273 226.915035 
L 236.16 213.47648 
L 252.392727 203.529414 
L 268.625455 171.287319 
L 284.858182 216.184656 
L 301.090909 165.846738 
L 317.323636 219.143905 
L 333.556364 187.697467 
L 349.789091 194.349784 
L 366.021818 214.004994 
L 382.254545 210.525434 
L 398.487273 189.10098 
" clip-path="url(#pb583f47f24)" style="fill: none; stroke: #440154; stroke-opacity: 0.5; stroke-width: 1.5; stroke-linecap: square"/>
   </g>
   <g id="line2d_60">
    <path d="M 73.832727 126.033786 
L 90.065455 143.496999 
L 106.298182 196.184069 
L 122.530909 132.156932 
L 138.763636 166.651053 
L 154.996364 237.748598 
L 171.229091 243.468872 
L 187.461818 189.265647 
L 203.694545 204.0017 
L 219.927273 218.74665 
L 236.16 211.643626 
L 252.392727 192.45162 
L 268.625455 242.345797 
L 284.858182 217.472431 
L 301.090909 230.994051 
L 317.323636 227.757306 
L 333.556364 201.935992 
L 349.789091 200.251473 
L 366.021818 209.127303 
L 382.254545 232.848047 
L 398.487273 215.114815 
" clip-path="url(#pb583f47f24)" style="fill: none; stroke: #440154; stroke-opacity: 0.5; stroke-width: 1.5; stroke-linecap: square"/>
   </g>
   <g id="line2d_61">
    <path d="M 73.832727 126.259637 
L 90.065455 92.665293 
L 106.298182 141.05932 
L 122.530909 100.446124 
L 138.763636 195.838081 
L 154.996364 188.269629 
L 171.229091 218.436818 
L 187.461818 201.405908 
L 203.694545 199.225611 
L 219.927273 181.538084 
L 236.16 229.903035 
L 252.392727 173.43554 
L 268.625455 239.689657 
L 284.858182 227.304099 
L 301.090909 222.93407 
L 317.323636 234.115438 
L 333.556364 211.46564 
L 349.789091 226.739752 
L 366.021818 174.08816 
L 382.254545 246.352236 
L 398.487273 221.798303 
" clip-path="url(#pb583f47f24)" style="fill: none; stroke: #440154; stroke-opacity: 0.5; stroke-width: 1.5; stroke-linecap: square"/>
   </g>
   <g id="line2d_62">
    <path d="M 73.832727 190.152132 
L 90.065455 127.650654 
L 106.298182 167.951773 
L 122.530909 148.921568 
L 138.763636 133.196575 
L 154.996364 178.194297 
L 171.229091 173.65924 
L 187.461818 183.432533 
L 203.694545 207.347659 
L 219.927273 151.390868 
L 236.16 154.238092 
L 252.392727 184.595166 
L 268.625455 168.989399 
L 284.858182 181.068321 
L 301.090909 190.622309 
L 317.323636 182.600778 
L 333.556364 204.07375 
L 349.789091 216.437921 
L 366.021818 187.377567 
L 382.254545 197.115544 
L 398.487273 212.121295 
" clip-path="url(#pb583f47f24)" style="fill: none; stroke: #440154; stroke-opacity: 0.5; stroke-width: 1.5; stroke-linecap: square"/>
   </g>
   <g id="line2d_63">
    <path d="M 73.832727 134.462438 
L 90.065455 183.992943 
L 106.298182 209.925848 
L 122.530909 202.711351 
L 138.763636 224.039545 
L 154.996364 229.704076 
L 171.229091 230.996065 
L 187.461818 271.108126 
L 203.694545 245.371018 
L 219.927273 239.199902 
L 236.16 264.328601 
L 252.392727 226.076478 
L 268.625455 235.024755 
L 284.858182 259.752589 
L 301.090909 240.686333 
L 317.323636 272.988105 
L 333.556364 270.493212 
L 349.789091 261.356714 
L 366.021818 254.897099 
L 382.254545 251.57084 
L 398.487273 264.184985 
" clip-path="url(#pb583f47f24)" style="fill: none; stroke: #440154; stroke-opacity: 0.5; stroke-width: 1.5; stroke-linecap: square"/>
   </g>
   <g id="line2d_64">
    <path d="M 73.832727 152.120717 
L 90.065455 140.102037 
L 106.298182 244.735092 
L 122.530909 210.60216 
L 138.763636 242.092534 
L 154.996364 270.667517 
L 171.229091 268.808767 
L 187.461818 286.296924 
L 203.694545 277.355591 
L 219.927273 276.40206 
L 236.16 280.92058 
L 252.392727 270.873736 
L 268.625455 276.913336 
L 284.858182 289.385533 
L 301.090909 273.900695 
L 317.323636 268.159297 
L 333.556364 255.663524 
L 349.789091 253.203895 
L 366.021818 236.822193 
L 382.254545 241.978324 
L 398.487273 260.603273 
" clip-path="url(#pb583f47f24)" style="fill: none; stroke: #440154; stroke-opacity: 0.5; stroke-width: 1.5; stroke-linecap: square"/>
   </g>
   <g id="line2d_65">
    <path d="M 73.832727 206.593236 
L 90.065455 178.525936 
L 106.298182 194.640321 
L 122.530909 181.70992 
L 138.763636 203.867828 
L 154.996364 202.591393 
L 171.229091 204.972359 
L 187.461818 237.831887 
L 203.694545 241.813774 
L 219.927273 173.154865 
L 236.16 238.514189 
L 252.392727 226.771708 
L 268.625455 231.506374 
L 284.858182 225.892438 
L 301.090909 231.497264 
L 317.323636 238.194062 
L 333.556364 229.300249 
L 349.789091 230.216635 
L 366.021818 212.810368 
L 382.254545 245.718333 
L 398.487273 233.409656 
" clip-path="url(#pb583f47f24)" style="fill: none; stroke: #440154; stroke-opacity: 0.5; stroke-width: 1.5; stroke-linecap: square"/>
   </g>
   <g id="line2d_66">
    <path d="M 73.832727 223.123278 
L 90.065455 199.556408 
L 106.298182 238.138824 
L 122.530909 221.25721 
L 138.763636 242.477509 
L 154.996364 241.865996 
L 171.229091 253.772563 
L 187.461818 250.828376 
L 203.694545 256.076737 
L 219.927273 235.891964 
L 236.16 225.866098 
L 252.392727 253.409381 
L 268.625455 249.56695 
L 284.858182 256.585986 
L 301.090909 248.178192 
L 317.323636 241.113757 
L 333.556364 227.251709 
L 349.789091 243.794887 
L 366.021818 237.197825 
L 382.254545 249.916171 
L 398.487273 226.2248 
" clip-path="url(#pb583f47f24)" style="fill: none; stroke: #440154; stroke-opacity: 0.5; stroke-width: 1.5; stroke-linecap: square"/>
   </g>
   <g id="line2d_67">
    <path d="M 73.832727 126.522072 
L 90.065455 171.348598 
L 106.298182 212.664606 
L 122.530909 159.225734 
L 138.763636 212.634781 
L 154.996364 221.527211 
L 171.229091 195.012911 
L 187.461818 210.011576 
L 203.694545 205.92564 
L 219.927273 210.642524 
L 236.16 205.728569 
L 252.392727 177.796248 
L 268.625455 211.979509 
L 284.858182 232.984591 
L 301.090909 228.032388 
L 317.323636 231.761472 
L 333.556364 209.85522 
L 349.789091 198.500188 
L 366.021818 221.065413 
L 382.254545 227.878591 
L 398.487273 200.729047 
" clip-path="url(#pb583f47f24)" style="fill: none; stroke: #440154; stroke-opacity: 0.5; stroke-width: 1.5; stroke-linecap: square"/>
   </g>
   <g id="line2d_68">
    <path d="M 73.832727 195.245367 
L 90.065455 243.709147 
L 106.298182 254.653829 
L 122.530909 238.689317 
L 138.763636 263.89213 
L 154.996364 212.781276 
L 171.229091 284.150418 
L 187.461818 260.582387 
L 203.694545 288.862825 
L 219.927273 253.706268 
L 236.16 258.986476 
L 252.392727 248.055197 
L 268.625455 241.788084 
L 284.858182 282.22801 
L 301.090909 278.112632 
L 317.323636 257.44359 
L 333.556364 246.479682 
L 349.789091 219.143718 
L 366.021818 191.16053 
L 382.254545 250.105356 
L 398.487273 260.942413 
" clip-path="url(#pb583f47f24)" style="fill: none; stroke: #440154; stroke-opacity: 0.5; stroke-width: 1.5; stroke-linecap: square"/>
   </g>
   <g id="line2d_69">
    <path d="M 73.832727 133.824306 
L 90.065455 175.431069 
L 106.298182 196.080012 
L 122.530909 190.840905 
L 138.763636 214.519892 
L 154.996364 182.757064 
L 171.229091 255.151622 
L 187.461818 235.008954 
L 203.694545 185.174107 
L 219.927273 142.997988 
L 236.16 197.197597 
L 252.392727 202.924806 
L 268.625455 153.594967 
L 284.858182 227.927376 
L 301.090909 220.61463 
L 317.323636 173.757995 
L 333.556364 189.70875 
L 349.789091 165.855823 
L 366.021818 194.004655 
L 382.254545 179.735409 
L 398.487273 124.902538 
" clip-path="url(#pb583f47f24)" style="fill: none; stroke: #440154; stroke-opacity: 0.5; stroke-width: 1.5; stroke-linecap: square"/>
   </g>
   <g id="line2d_70">
    <path d="M 73.832727 162.868762 
L 90.065455 156.810241 
L 106.298182 185.233931 
L 122.530909 166.431295 
L 138.763636 227.195192 
L 154.996364 226.250756 
L 171.229091 203.170731 
L 187.461818 233.580407 
L 203.694545 227.353083 
L 219.927273 196.854535 
L 236.16 239.023612 
L 252.392727 195.259906 
L 268.625455 186.900928 
L 284.858182 203.570462 
L 301.090909 225.365462 
L 317.323636 214.626755 
L 333.556364 201.746904 
L 349.789091 196.50178 
L 366.021818 187.65364 
L 382.254545 216.019555 
L 398.487273 174.995999 
" clip-path="url(#pb583f47f24)" style="fill: none; stroke: #440154; stroke-opacity: 0.5; stroke-width: 1.5; stroke-linecap: square"/>
   </g>
   <g id="line2d_71">
    <path d="M 73.832727 245.66472 
L 90.065455 235.367825 
L 106.298182 220.311026 
L 122.530909 208.429864 
L 138.763636 252.554047 
L 154.996364 272.080839 
L 171.229091 206.089782 
L 187.461818 262.546457 
L 203.694545 274.734655 
L 219.927273 231.667412 
L 236.16 285.461797 
L 252.392727 280.814567 
L 268.625455 285.333484 
L 284.858182 253.415513 
L 301.090909 251.863317 
L 317.323636 252.672533 
L 333.556364 237.811496 
L 349.789091 238.040738 
L 366.021818 228.157007 
L 382.254545 235.274405 
L 398.487273 236.156537 
" clip-path="url(#pb583f47f24)" style="fill: none; stroke: #440154; stroke-opacity: 0.5; stroke-width: 1.5; stroke-linecap: square"/>
   </g>
   <g id="line2d_72">
    <path d="M 73.832727 240.803899 
L 90.065455 209.316181 
L 106.298182 208.866431 
L 122.530909 203.696527 
L 138.763636 245.192156 
L 154.996364 265.458495 
L 171.229091 245.484663 
L 187.461818 285.102038 
L 203.694545 279.107924 
L 219.927273 253.294147 
L 236.16 281.257727 
L 252.392727 293.048078 
L 268.625455 288.094155 
L 284.858182 263.594988 
L 301.090909 266.314585 
L 317.323636 215.675794 
L 333.556364 213.154158 
L 349.789091 241.52074 
L 366.021818 215.158619 
L 382.254545 229.729417 
L 398.487273 258.840432 
" clip-path="url(#pb583f47f24)" style="fill: none; stroke: #440154; stroke-opacity: 0.5; stroke-width: 1.5; stroke-linecap: square"/>
   </g>
   <g id="line2d_73">
    <path d="M 73.832727 201.400828 
L 90.065455 197.033108 
L 106.298182 217.208167 
L 122.530909 201.505811 
L 138.763636 210.730536 
L 154.996364 219.99041 
L 171.229091 213.078921 
L 187.461818 243.248801 
L 203.694545 227.57485 
L 219.927273 237.925888 
L 236.16 242.930092 
L 252.392727 212.161911 
L 268.625455 240.627981 
L 284.858182 212.087243 
L 301.090909 209.458231 
L 317.323636 236.682575 
L 333.556364 219.867879 
L 349.789091 219.569772 
L 366.021818 214.603351 
L 382.254545 202.147119 
L 398.487273 218.597836 
" clip-path="url(#pb583f47f24)" style="fill: none; stroke: #440154; stroke-opacity: 0.5; stroke-width: 1.5; stroke-linecap: square"/>
   </g>
   <g id="line2d_74">
    <path d="M 73.832727 222.203233 
L 90.065455 237.674084 
L 106.298182 245.655733 
L 122.530909 254.322897 
L 138.763636 259.405079 
L 154.996364 250.355492 
L 171.229091 255.970348 
L 187.461818 261.354645 
L 203.694545 257.735936 
L 219.927273 231.213853 
L 236.16 252.606389 
L 252.392727 248.134175 
L 268.625455 253.567997 
L 284.858182 264.0456 
L 301.090909 243.573541 
L 317.323636 253.446677 
L 333.556364 244.506129 
L 349.789091 250.226774 
L 366.021818 244.16447 
L 382.254545 238.011823 
L 398.487273 257.976201 
" clip-path="url(#pb583f47f24)" style="fill: none; stroke: #440154; stroke-opacity: 0.5; stroke-width: 1.5; stroke-linecap: square"/>
   </g>
   <g id="line2d_75">
    <path d="M 73.832727 221.910749 
L 90.065455 207.805673 
L 106.298182 229.83724 
L 122.530909 202.971712 
L 138.763636 237.816914 
L 154.996364 227.84622 
L 171.229091 238.970914 
L 187.461818 132.311295 
L 203.694545 229.632085 
L 219.927273 102.662139 
L 236.16 186.607763 
L 252.392727 187.962651 
L 268.625455 190.81133 
L 284.858182 146.711092 
L 301.090909 138.931288 
L 317.323636 89.253086 
L 333.556364 66.675732 
L 349.789091 78.50866 
L 366.021818 136.485388 
L 382.254545 82.073879 
L 398.487273 96.452081 
" clip-path="url(#pb583f47f24)" style="fill: none; stroke: #440154; stroke-opacity: 0.5; stroke-width: 1.5; stroke-linecap: square"/>
   </g>
   <g id="line2d_76">
    <path d="M 73.832727 213.936212 
L 90.065455 250.595921 
L 106.298182 163.151194 
L 122.530909 237.611815 
L 138.763636 233.401529 
L 154.996364 207.969731 
L 171.229091 260.508929 
L 187.461818 241.514418 
L 203.694545 276.62695 
L 219.927273 227.836615 
L 236.16 227.902732 
L 252.392727 212.865144 
L 268.625455 167.160623 
L 284.858182 232.240626 
L 301.090909 192.961183 
L 317.323636 254.393254 
L 333.556364 247.714545 
L 349.789091 270.161578 
L 366.021818 258.507137 
L 382.254545 241.020176 
L 398.487273 219.999638 
" clip-path="url(#pb583f47f24)" style="fill: none; stroke: #440154; stroke-opacity: 0.5; stroke-width: 1.5; stroke-linecap: square"/>
   </g>
   <g id="line2d_77">
    <path d="M 73.832727 149.515402 
L 90.065455 134.217625 
L 106.298182 133.934521 
L 122.530909 146.850261 
L 138.763636 189.960044 
L 154.996364 216.427391 
L 171.229091 247.149481 
L 187.461818 229.343376 
L 203.694545 237.594007 
L 219.927273 235.112624 
L 236.16 232.362582 
L 252.392727 219.981873 
L 268.625455 219.724773 
L 284.858182 217.48833 
L 301.090909 222.036733 
L 317.323636 224.752545 
L 333.556364 237.674829 
L 349.789091 225.3007 
L 366.021818 214.011977 
L 382.254545 186.464307 
L 398.487273 199.854553 
" clip-path="url(#pb583f47f24)" style="fill: none; stroke: #440154; stroke-opacity: 0.5; stroke-width: 1.5; stroke-linecap: square"/>
   </g>
   <g id="line2d_78">
    <path d="M 73.832727 173.873965 
L 90.065455 221.020687 
L 106.298182 229.668007 
L 122.530909 206.566201 
L 138.763636 225.012415 
L 154.996364 199.550332 
L 171.229091 206.485249 
L 187.461818 223.79879 
L 203.694545 227.988416 
L 219.927273 236.610811 
L 236.16 248.452921 
L 252.392727 239.393646 
L 268.625455 209.39637 
L 284.858182 238.296089 
L 301.090909 207.772283 
L 317.323636 259.789203 
L 333.556364 253.160987 
L 349.789091 252.153952 
L 366.021818 250.895262 
L 382.254545 255.457017 
L 398.487273 253.587361 
" clip-path="url(#pb583f47f24)" style="fill: none; stroke: #440154; stroke-opacity: 0.5; stroke-width: 1.5; stroke-linecap: square"/>
   </g>
   <g id="line2d_79">
    <path d="M 73.832727 206.625584 
L 90.065455 217.367904 
L 106.298182 259.10219 
L 122.530909 233.255468 
L 138.763636 255.559408 
L 154.996364 207.139645 
L 171.229091 245.080558 
L 187.461818 229.052386 
L 203.694545 226.880052 
L 219.927273 223.446401 
L 236.16 257.180669 
L 252.392727 237.977611 
L 268.625455 221.166633 
L 284.858182 236.054899 
L 301.090909 247.119322 
L 317.323636 245.652616 
L 333.556364 264.999079 
L 349.789091 237.837412 
L 366.021818 250.705824 
L 382.254545 255.532433 
L 398.487273 212.086974 
" clip-path="url(#pb583f47f24)" style="fill: none; stroke: #440154; stroke-opacity: 0.5; stroke-width: 1.5; stroke-linecap: square"/>
   </g>
   <g id="line2d_80">
    <path d="M 73.832727 139.577487 
L 90.065455 219.73952 
L 106.298182 229.260115 
L 122.530909 194.365442 
L 138.763636 235.511163 
L 154.996364 222.085668 
L 171.229091 174.466587 
L 187.461818 183.266446 
L 203.694545 107.844202 
L 219.927273 197.774751 
L 236.16 219.880104 
L 252.392727 193.532279 
L 268.625455 179.745415 
L 284.858182 218.337837 
L 301.090909 240.535343 
L 317.323636 201.504208 
L 333.556364 224.8047 
L 349.789091 156.639124 
L 366.021818 197.964884 
L 382.254545 211.610299 
L 398.487273 78.391969 
" clip-path="url(#pb583f47f24)" style="fill: none; stroke: #440154; stroke-opacity: 0.5; stroke-width: 1.5; stroke-linecap: square"/>
   </g>
   <g id="line2d_81">
    <path d="M 73.832727 159.644447 
L 90.065455 174.455575 
L 106.298182 191.965639 
L 122.530909 222.622291 
L 138.763636 213.515711 
L 154.996364 163.369268 
L 171.229091 222.483836 
L 187.461818 171.24925 
L 203.694545 222.904322 
L 219.927273 203.2944 
L 236.16 168.254951 
L 252.392727 209.576819 
L 268.625455 201.253601 
L 284.858182 187.029857 
L 301.090909 204.464402 
L 317.323636 193.284256 
L 333.556364 199.285748 
L 349.789091 174.530072 
L 366.021818 193.684578 
L 382.254545 198.532471 
L 398.487273 207.552463 
" clip-path="url(#pb583f47f24)" style="fill: none; stroke: #440154; stroke-opacity: 0.5; stroke-width: 1.5; stroke-linecap: square"/>
   </g>
   <g id="line2d_82">
    <path d="M 73.832727 55.991101 
L 90.065455 158.691106 
L 106.298182 166.669544 
L 122.530909 162.481617 
L 138.763636 209.598401 
L 154.996364 199.257082 
L 171.229091 202.021773 
L 187.461818 198.210835 
L 203.694545 157.767081 
L 219.927273 182.756059 
L 236.16 213.453441 
L 252.392727 170.256292 
L 268.625455 175.983534 
L 284.858182 189.436439 
L 301.090909 213.697805 
L 317.323636 168.014707 
L 333.556364 192.557564 
L 349.789091 185.06808 
L 366.021818 180.66871 
L 382.254545 191.517377 
L 398.487273 157.888927 
" clip-path="url(#pb583f47f24)" style="fill: none; stroke: #440154; stroke-opacity: 0.5; stroke-width: 1.5; stroke-linecap: square"/>
   </g>
   <g id="line2d_83">
    <path d="M 73.832727 157.157953 
L 90.065455 208.606637 
L 106.298182 218.731348 
L 122.530909 222.721769 
L 138.763636 190.204835 
L 154.996364 149.347246 
L 171.229091 161.424064 
L 187.461818 199.146556 
L 203.694545 219.271687 
L 219.927273 211.145657 
L 236.16 200.103467 
L 252.392727 152.554038 
L 268.625455 206.11465 
L 284.858182 216.847867 
L 301.090909 182.429577 
L 317.323636 226.364852 
L 333.556364 193.780917 
L 349.789091 211.152153 
L 366.021818 215.071784 
L 382.254545 200.568933 
L 398.487273 223.832385 
" clip-path="url(#pb583f47f24)" style="fill: none; stroke: #440154; stroke-opacity: 0.5; stroke-width: 1.5; stroke-linecap: square"/>
   </g>
   <g id="line2d_84">
    <path d="M 73.832727 220.082978 
L 90.065455 237.632437 
L 106.298182 204.613947 
L 122.530909 251.016709 
L 138.763636 225.556414 
L 154.996364 264.538842 
L 171.229091 263.509747 
L 187.461818 213.992433 
L 203.694545 241.814338 
L 219.927273 280.698764 
L 236.16 212.568462 
L 252.392727 203.609817 
L 268.625455 220.413056 
L 284.858182 193.84834 
L 301.090909 192.706882 
L 317.323636 117.910735 
L 333.556364 173.0708 
L 349.789091 170.708403 
L 366.021818 183.742561 
L 382.254545 127.258338 
L 398.487273 139.227473 
" clip-path="url(#pb583f47f24)" style="fill: none; stroke: #440154; stroke-opacity: 0.5; stroke-width: 1.5; stroke-linecap: square"/>
   </g>
   <g id="line2d_85">
    <path d="M 73.832727 225.981179 
L 90.065455 132.478716 
L 106.298182 162.371843 
L 122.530909 161.680048 
L 138.763636 180.317606 
L 154.996364 234.592012 
L 171.229091 198.549774 
L 187.461818 196.014352 
L 203.694545 176.115621 
L 219.927273 189.042302 
L 236.16 244.800168 
L 252.392727 220.5186 
L 268.625455 249.43535 
L 284.858182 256.376623 
L 301.090909 277.426426 
L 317.323636 212.546942 
L 333.556364 221.986533 
L 349.789091 221.038006 
L 366.021818 182.183565 
L 382.254545 196.014304 
L 398.487273 194.855686 
" clip-path="url(#pb583f47f24)" style="fill: none; stroke: #440154; stroke-opacity: 0.5; stroke-width: 1.5; stroke-linecap: square"/>
   </g>
   <g id="line2d_86">
    <path d="M 73.832727 222.72976 
L 90.065455 153.529805 
L 106.298182 200.172761 
L 122.530909 127.723262 
L 138.763636 170.310439 
L 154.996364 235.753455 
L 171.229091 174.548287 
L 187.461818 221.781251 
L 203.694545 222.148183 
L 219.927273 234.494728 
L 236.16 252.124366 
L 252.392727 228.276548 
L 268.625455 232.224883 
L 284.858182 238.614525 
L 301.090909 247.180657 
L 317.323636 227.352339 
L 333.556364 226.383632 
L 349.789091 196.627052 
L 366.021818 217.591329 
L 382.254545 204.469205 
L 398.487273 211.415501 
" clip-path="url(#pb583f47f24)" style="fill: none; stroke: #440154; stroke-opacity: 0.5; stroke-width: 1.5; stroke-linecap: square"/>
   </g>
   <g id="line2d_87">
    <path d="M 73.832727 160.704493 
L 90.065455 202.618611 
L 106.298182 205.538111 
L 122.530909 214.356973 
L 138.763636 228.921442 
L 154.996364 260.581539 
L 171.229091 248.129451 
L 187.461818 260.299115 
L 203.694545 217.291205 
L 219.927273 266.309358 
L 236.16 291.011811 
L 252.392727 287.345925 
L 268.625455 288.595522 
L 284.858182 279.794519 
L 301.090909 286.157305 
L 317.323636 253.918106 
L 333.556364 261.180076 
L 349.789091 252.695297 
L 366.021818 286.145523 
L 382.254545 269.44549 
L 398.487273 240.995497 
" clip-path="url(#pb583f47f24)" style="fill: none; stroke: #440154; stroke-opacity: 0.5; stroke-width: 1.5; stroke-linecap: square"/>
   </g>
   <g id="line2d_88">
    <path d="M 73.832727 176.404555 
L 90.065455 199.223866 
L 106.298182 215.719241 
L 122.530909 217.346482 
L 138.763636 257.145268 
L 154.996364 241.144537 
L 171.229091 254.342593 
L 187.461818 282.809599 
L 203.694545 280.746753 
L 219.927273 289.226661 
L 236.16 295.488 
L 252.392727 280.741901 
L 268.625455 279.37645 
L 284.858182 287.386911 
L 301.090909 290.200961 
L 317.323636 226.231059 
L 333.556364 255.2504 
L 349.789091 241.620001 
L 366.021818 252.482436 
L 382.254545 218.551392 
L 398.487273 224.282005 
" clip-path="url(#pb583f47f24)" style="fill: none; stroke: #440154; stroke-opacity: 0.5; stroke-width: 1.5; stroke-linecap: square"/>
   </g>
   <g id="line2d_89">
    <path d="M 73.832727 249.10346 
L 90.065455 227.350372 
L 106.298182 231.783053 
L 122.530909 237.435888 
L 138.763636 226.345625 
L 154.996364 236.314143 
L 171.229091 217.399974 
L 187.461818 223.823061 
L 203.694545 255.281428 
L 219.927273 261.503102 
L 236.16 199.176868 
L 252.392727 131.638292 
L 268.625455 219.308314 
L 284.858182 198.803206 
L 301.090909 254.32127 
L 317.323636 161.732606 
L 333.556364 145.750926 
L 349.789091 197.086851 
L 366.021818 186.984446 
L 382.254545 185.367977 
L 398.487273 189.186124 
" clip-path="url(#pb583f47f24)" style="fill: none; stroke: #440154; stroke-opacity: 0.5; stroke-width: 1.5; stroke-linecap: square"/>
   </g>
   <g id="line2d_90">
    <path d="M 73.832727 195.474049 
L 90.065455 207.69786 
L 106.298182 213.274329 
L 122.530909 219.390299 
L 138.763636 217.104867 
L 154.996364 236.086052 
L 171.229091 226.58267 
L 187.461818 230.213388 
L 203.694545 238.98927 
L 219.927273 239.565677 
L 236.16 241.92538 
L 252.392727 232.028283 
L 268.625455 226.97709 
L 284.858182 237.754779 
L 301.090909 234.868811 
L 317.323636 230.804928 
L 333.556364 231.075711 
L 349.789091 235.653205 
L 366.021818 231.058398 
L 382.254545 234.742598 
L 398.487273 234.351415 
" clip-path="url(#pb583f47f24)" style="fill: none; stroke: #440154; stroke-opacity: 0.5; stroke-width: 1.5; stroke-linecap: square"/>
   </g>
   <g id="line2d_91">
    <path d="M 73.832727 156.649154 
L 90.065455 212.797902 
L 106.298182 227.64586 
L 122.530909 220.816227 
L 138.763636 219.333181 
L 154.996364 237.233562 
L 171.229091 223.971873 
L 187.461818 181.430517 
L 203.694545 159.400259 
L 219.927273 235.817398 
L 236.16 212.791683 
L 252.392727 221.583934 
L 268.625455 240.642566 
L 284.858182 254.446062 
L 301.090909 241.812678 
L 317.323636 236.274423 
L 333.556364 228.91997 
L 349.789091 216.400062 
L 366.021818 231.285535 
L 382.254545 225.168116 
L 398.487273 229.362638 
" clip-path="url(#pb583f47f24)" style="fill: none; stroke: #440154; stroke-opacity: 0.5; stroke-width: 1.5; stroke-linecap: square"/>
   </g>
   <g id="line2d_92">
    <path d="M 73.832727 120.771034 
L 90.065455 161.068221 
L 106.298182 203.787446 
L 122.530909 161.202299 
L 138.763636 240.781919 
L 154.996364 224.396306 
L 171.229091 184.1465 
L 187.461818 211.432458 
L 203.694545 196.576027 
L 219.927273 164.571334 
L 236.16 170.523088 
L 252.392727 244.150875 
L 268.625455 271.002075 
L 284.858182 206.975909 
L 301.090909 207.676233 
L 317.323636 204.792466 
L 333.556364 168.690565 
L 349.789091 186.307239 
L 366.021818 195.707935 
L 382.254545 197.91994 
L 398.487273 189.333667 
" clip-path="url(#pb583f47f24)" style="fill: none; stroke: #440154; stroke-opacity: 0.5; stroke-width: 1.5; stroke-linecap: square"/>
   </g>
   <g id="line2d_93">
    <path d="M 73.832727 190.206208 
L 90.065455 222.496081 
L 106.298182 223.321341 
L 122.530909 210.551262 
L 138.763636 231.881875 
L 154.996364 217.14951 
L 171.229091 190.634616 
L 187.461818 150.856672 
L 203.694545 173.822085 
L 219.927273 210.539809 
L 236.16 159.898197 
L 252.392727 160.832292 
L 268.625455 269.073472 
L 284.858182 267.9246 
L 301.090909 275.311687 
L 317.323636 253.07548 
L 333.556364 271.441302 
L 349.789091 248.624348 
L 366.021818 263.604878 
L 382.254545 256.981117 
L 398.487273 283.620461 
" clip-path="url(#pb583f47f24)" style="fill: none; stroke: #440154; stroke-opacity: 0.5; stroke-width: 1.5; stroke-linecap: square"/>
   </g>
   <g id="line2d_94">
    <path d="M 73.832727 215.729752 
L 90.065455 204.395921 
L 106.298182 232.838548 
L 122.530909 221.476111 
L 138.763636 226.786246 
L 154.996364 184.871198 
L 171.229091 170.790279 
L 187.461818 176.136115 
L 203.694545 235.63759 
L 219.927273 201.121444 
L 236.16 186.698617 
L 252.392727 212.700202 
L 268.625455 210.644938 
L 284.858182 253.816427 
L 301.090909 243.309771 
L 317.323636 230.413299 
L 333.556364 246.40164 
L 349.789091 238.366348 
L 366.021818 184.938631 
L 382.254545 210.768602 
L 398.487273 225.465627 
" clip-path="url(#pb583f47f24)" style="fill: none; stroke: #440154; stroke-opacity: 0.5; stroke-width: 1.5; stroke-linecap: square"/>
   </g>
   <g id="line2d_95">
    <path d="M 73.832727 258.017291 
L 90.065455 232.384644 
L 106.298182 184.661932 
L 122.530909 249.110258 
L 138.763636 191.402241 
L 154.996364 239.644995 
L 171.229091 278.775187 
L 187.461818 247.510962 
L 203.694545 234.595864 
L 219.927273 277.196136 
L 236.16 258.485444 
L 252.392727 272.407209 
L 268.625455 269.070107 
L 284.858182 274.782891 
L 301.090909 248.964127 
L 317.323636 283.517542 
L 333.556364 281.454954 
L 349.789091 291.631094 
L 366.021818 287.388341 
L 382.254545 284.559288 
L 398.487273 293.673 
" clip-path="url(#pb583f47f24)" style="fill: none; stroke: #440154; stroke-opacity: 0.5; stroke-width: 1.5; stroke-linecap: square"/>
   </g>
   <g id="line2d_96">
    <path d="M 73.832727 246.950846 
L 90.065455 250.448611 
L 106.298182 220.177281 
L 122.530909 258.562837 
L 138.763636 246.350728 
L 154.996364 231.72866 
L 171.229091 283.653168 
L 187.461818 264.014359 
L 203.694545 200.812871 
L 219.927273 284.167608 
L 236.16 277.078123 
L 252.392727 285.691315 
L 268.625455 231.92026 
L 284.858182 231.138431 
L 301.090909 289.83752 
L 317.323636 280.84254 
L 333.556364 275.27905 
L 349.789091 278.321477 
L 366.021818 264.979893 
L 382.254545 291.297461 
L 398.487273 292.355894 
" clip-path="url(#pb583f47f24)" style="fill: none; stroke: #440154; stroke-opacity: 0.5; stroke-width: 1.5; stroke-linecap: square"/>
   </g>
   <g id="line2d_97">
    <path d="M 73.832727 194.216216 
L 90.065455 224.579737 
L 106.298182 225.868893 
L 122.530909 234.218064 
L 138.763636 238.65466 
L 154.996364 212.719599 
L 171.229091 230.200889 
L 187.461818 195.708345 
L 203.694545 193.311086 
L 219.927273 219.759483 
L 236.16 216.647313 
L 252.392727 217.993698 
L 268.625455 187.444644 
L 284.858182 219.230889 
L 301.090909 185.977655 
L 317.323636 232.293941 
L 333.556364 211.699007 
L 349.789091 225.133782 
L 366.021818 211.392186 
L 382.254545 214.438332 
L 398.487273 223.880535 
" clip-path="url(#pb583f47f24)" style="fill: none; stroke: #440154; stroke-opacity: 0.5; stroke-width: 1.5; stroke-linecap: square"/>
   </g>
   <g id="line2d_98">
    <path d="M 73.832727 248.678041 
L 90.065455 166.941893 
L 106.298182 184.5227 
L 122.530909 172.776801 
L 138.763636 221.763641 
L 154.996364 203.407845 
L 171.229091 185.73614 
L 187.461818 206.023618 
L 203.694545 186.709432 
L 219.927273 206.573938 
L 236.16 212.278161 
L 252.392727 216.509159 
L 268.625455 122.065715 
L 284.858182 212.71557 
L 301.090909 233.615521 
L 317.323636 208.016942 
L 333.556364 223.588085 
L 349.789091 237.179055 
L 366.021818 224.073739 
L 382.254545 220.672415 
L 398.487273 189.964373 
" clip-path="url(#pb583f47f24)" style="fill: none; stroke: #440154; stroke-opacity: 0.5; stroke-width: 1.5; stroke-linecap: square"/>
   </g>
   <g id="line2d_99">
    <path d="M 73.832727 159.211588 
L 90.065455 82.839359 
L 106.298182 121.100156 
L 122.530909 155.072992 
L 138.763636 167.698386 
L 154.996364 224.254252 
L 171.229091 180.723062 
L 187.461818 199.209633 
L 203.694545 173.477582 
L 219.927273 212.713447 
L 236.16 153.271698 
L 252.392727 237.039641 
L 268.625455 216.81103 
L 284.858182 155.595776 
L 301.090909 187.398856 
L 317.323636 115.122866 
L 333.556364 201.267457 
L 349.789091 200.012636 
L 366.021818 217.537523 
L 382.254545 195.063305 
L 398.487273 191.760603 
" clip-path="url(#pb583f47f24)" style="fill: none; stroke: #440154; stroke-opacity: 0.5; stroke-width: 1.5; stroke-linecap: square"/>
   </g>
   <g id="patch_3">
    <path d="M 57.6 307.584 
L 57.6 41.472 
" style="fill: none; stroke: #000000; stroke-width: 3; stroke-linejoin: miter; stroke-linecap: square"/>
   </g>
   <g id="patch_4">
    <path d="M 414.72 307.584 
L 414.72 41.472 
" style="fill: none; stroke: #000000; stroke-width: 3; stroke-linejoin: miter; stroke-linecap: square"/>
   </g>
   <g id="patch_5">
    <path d="M 57.6 307.584 
L 414.72 307.584 
" style="fill: none; stroke: #000000; stroke-width: 3; stroke-linejoin: miter; stroke-linecap: square"/>
   </g>
   <g id="patch_6">
    <path d="M 57.6 41.472 
L 414.72 41.472 
" style="fill: none; stroke: #000000; stroke-width: 3; stroke-linejoin: miter; stroke-linecap: square"/>
   </g>
   <g id="text_10">
    <!-- Atom Type H (n=90, mean Q=7.53) -->
    <g transform="translate(40.225937 35.472) scale(0.22 -0.22)">
     <defs>
      <path id="DejaVuSans-41" d="M 2188 4044 
L 1331 1722 
L 3047 1722 
L 2188 4044 
z
M 1831 4666 
L 2547 4666 
L 4325 0 
L 3669 0 
L 3244 1197 
L 1141 1197 
L 716 0 
L 50 0 
L 1831 4666 
z
" transform="scale(0.015625)"/>
      <path id="DejaVuSans-74" d="M 1172 4494 
L 1172 3500 
L 2356 3500 
L 2356 3053 
L 1172 3053 
L 1172 1153 
Q 1172 725 1289 603 
Q 1406 481 1766 481 
L 2356 481 
L 2356 0 
L 1766 0 
Q 1100 0 847 248 
Q 594 497 594 1153 
L 594 3053 
L 172 3053 
L 172 3500 
L 594 3500 
L 594 4494 
L 1172 4494 
z
" transform="scale(0.015625)"/>
      <path id="DejaVuSans-6f" d="M 1959 3097 
Q 1497 3097 1228 2736 
Q 959 2375 959 1747 
Q 959 1119 1226 758 
Q 1494 397 1959 397 
Q 2419 397 2687 759 
Q 2956 1122 2956 1747 
Q 2956 2369 2687 2733 
Q 2419 3097 1959 3097 
z
M 1959 3584 
Q 2709 3584 3137 3096 
Q 3566 2609 3566 1747 
Q 3566 888 3137 398 
Q 2709 -91 1959 -91 
Q 1206 -91 779 398 
Q 353 888 353 1747 
Q 353 2609 779 3096 
Q 1206 3584 1959 3584 
z
" transform="scale(0.015625)"/>
      <path id="DejaVuSans-6d" d="M 3328 2828 
Q 3544 3216 3844 3400 
Q 4144 3584 4550 3584 
Q 5097 3584 5394 3201 
Q 5691 2819 5691 2113 
L 5691 0 
L 5113 0 
L 5113 2094 
Q 5113 2597 4934 2840 
Q 4756 3084 4391 3084 
Q 3944 3084 3684 2787 
Q 3425 2491 3425 1978 
L 3425 0 
L 2847 0 
L 2847 2094 
Q 2847 2600 2669 2842 
Q 2491 3084 2119 3084 
Q 1678 3084 1418 2786 
Q 1159 2488 1159 1978 
L 1159 0 
L 581 0 
L 581 3500 
L 1159 3500 
L 1159 2956 
Q 1356 3278 1631 3431 
Q 1906 3584 2284 3584 
Q 2666 3584 2933 3390 
Q 3200 3197 3328 2828 
z
" transform="scale(0.015625)"/>
      <path id="DejaVuSans-20" transform="scale(0.015625)"/>
      <path id="DejaVuSans-54" d="M -19 4666 
L 3928 4666 
L 3928 4134 
L 2272 4134 
L 2272 0 
L 1638 0 
L 1638 4134 
L -19 4134 
L -19 4666 
z
" transform="scale(0.015625)"/>
      <path id="DejaVuSans-79" d="M 2059 -325 
Q 1816 -950 1584 -1140 
Q 1353 -1331 966 -1331 
L 506 -1331 
L 506 -850 
L 844 -850 
Q 1081 -850 1212 -737 
Q 1344 -625 1503 -206 
L 1606 56 
L 191 3500 
L 800 3500 
L 1894 763 
L 2988 3500 
L 3597 3500 
L 2059 -325 
z
" transform="scale(0.015625)"/>
      <path id="DejaVuSans-70" d="M 1159 525 
L 1159 -1331 
L 581 -1331 
L 581 3500 
L 1159 3500 
L 1159 2969 
Q 1341 3281 1617 3432 
Q 1894 3584 2278 3584 
Q 2916 3584 3314 3078 
Q 3713 2572 3713 1747 
Q 3713 922 3314 415 
Q 2916 -91 2278 -91 
Q 1894 -91 1617 61 
Q 1341 213 1159 525 
z
M 3116 1747 
Q 3116 2381 2855 2742 
Q 2594 3103 2138 3103 
Q 1681 3103 1420 2742 
Q 1159 2381 1159 1747 
Q 1159 1113 1420 752 
Q 1681 391 2138 391 
Q 2594 391 2855 752 
Q 3116 1113 3116 1747 
z
" transform="scale(0.015625)"/>
      <path id="DejaVuSans-65" d="M 3597 1894 
L 3597 1613 
L 953 1613 
Q 991 1019 1311 708 
Q 1631 397 2203 397 
Q 2534 397 2845 478 
Q 3156 559 3463 722 
L 3463 178 
Q 3153 47 2828 -22 
Q 2503 -91 2169 -91 
Q 1331 -91 842 396 
Q 353 884 353 1716 
Q 353 2575 817 3079 
Q 1281 3584 2069 3584 
Q 2775 3584 3186 3129 
Q 3597 2675 3597 1894 
z
M 3022 2063 
Q 3016 2534 2758 2815 
Q 2500 3097 2075 3097 
Q 1594 3097 1305 2825 
Q 1016 2553 972 2059 
L 3022 2063 
z
" transform="scale(0.015625)"/>
      <path id="DejaVuSans-48" d="M 628 4666 
L 1259 4666 
L 1259 2753 
L 3553 2753 
L 3553 4666 
L 4184 4666 
L 4184 0 
L 3553 0 
L 3553 2222 
L 1259 2222 
L 1259 0 
L 628 0 
L 628 4666 
z
" transform="scale(0.015625)"/>
      <path id="DejaVuSans-28" d="M 1984 4856 
Q 1566 4138 1362 3434 
Q 1159 2731 1159 2009 
Q 1159 1288 1364 580 
Q 1569 -128 1984 -844 
L 1484 -844 
Q 1016 -109 783 600 
Q 550 1309 550 2009 
Q 550 2706 781 3412 
Q 1013 4119 1484 4856 
L 1984 4856 
z
" transform="scale(0.015625)"/>
      <path id="DejaVuSans-6e" d="M 3513 2113 
L 3513 0 
L 2938 0 
L 2938 2094 
Q 2938 2591 2744 2837 
Q 2550 3084 2163 3084 
Q 1697 3084 1428 2787 
Q 1159 2491 1159 1978 
L 1159 0 
L 581 0 
L 581 3500 
L 1159 3500 
L 1159 2956 
Q 1366 3272 1645 3428 
Q 1925 3584 2291 3584 
Q 2894 3584 3203 3211 
Q 3513 2838 3513 2113 
z
" transform="scale(0.015625)"/>
      <path id="DejaVuSans-3d" d="M 678 2906 
L 4684 2906 
L 4684 2381 
L 678 2381 
L 678 2906 
z
M 678 1631 
L 4684 1631 
L 4684 1100 
L 678 1100 
L 678 1631 
z
" transform="scale(0.015625)"/>
      <path id="DejaVuSans-39" d="M 703 97 
L 703 672 
Q 941 559 1184 500 
Q 1428 441 1663 441 
Q 2288 441 2617 861 
Q 2947 1281 2994 2138 
Q 2813 1869 2534 1725 
Q 2256 1581 1919 1581 
Q 1219 1581 811 2004 
Q 403 2428 403 3163 
Q 403 3881 828 4315 
Q 1253 4750 1959 4750 
Q 2769 4750 3195 4129 
Q 3622 3509 3622 2328 
Q 3622 1225 3098 567 
Q 2575 -91 1691 -91 
Q 1453 -91 1209 -44 
Q 966 3 703 97 
z
M 1959 2075 
Q 2384 2075 2632 2365 
Q 2881 2656 2881 3163 
Q 2881 3666 2632 3958 
Q 2384 4250 1959 4250 
Q 1534 4250 1286 3958 
Q 1038 3666 1038 3163 
Q 1038 2656 1286 2365 
Q 1534 2075 1959 2075 
z
" transform="scale(0.015625)"/>
      <path id="DejaVuSans-2c" d="M 750 794 
L 1409 794 
L 1409 256 
L 897 -744 
L 494 -744 
L 750 256 
L 750 794 
z
" transform="scale(0.015625)"/>
      <path id="DejaVuSans-61" d="M 2194 1759 
Q 1497 1759 1228 1600 
Q 959 1441 959 1056 
Q 959 750 1161 570 
Q 1363 391 1709 391 
Q 2188 391 2477 730 
Q 2766 1069 2766 1631 
L 2766 1759 
L 2194 1759 
z
M 3341 1997 
L 3341 0 
L 2766 0 
L 2766 531 
Q 2569 213 2275 61 
Q 1981 -91 1556 -91 
Q 1019 -91 701 211 
Q 384 513 384 1019 
Q 384 1609 779 1909 
Q 1175 2209 1959 2209 
L 2766 2209 
L 2766 2266 
Q 2766 2663 2505 2880 
Q 2244 3097 1772 3097 
Q 1472 3097 1187 3025 
Q 903 2953 641 2809 
L 641 3341 
Q 956 3463 1253 3523 
Q 1550 3584 1831 3584 
Q 2591 3584 2966 3190 
Q 3341 2797 3341 1997 
z
" transform="scale(0.015625)"/>
      <path id="DejaVuSans-51" d="M 2522 4238 
Q 1834 4238 1429 3725 
Q 1025 3213 1025 2328 
Q 1025 1447 1429 934 
Q 1834 422 2522 422 
Q 3209 422 3611 934 
Q 4013 1447 4013 2328 
Q 4013 3213 3611 3725 
Q 3209 4238 2522 4238 
z
M 3406 84 
L 4238 -825 
L 3475 -825 
L 2784 -78 
Q 2681 -84 2626 -87 
Q 2572 -91 2522 -91 
Q 1538 -91 948 567 
Q 359 1225 359 2328 
Q 359 3434 948 4092 
Q 1538 4750 2522 4750 
Q 3503 4750 4090 4092 
Q 4678 3434 4678 2328 
Q 4678 1516 4351 937 
Q 4025 359 3406 84 
z
" transform="scale(0.015625)"/>
      <path id="DejaVuSans-37" d="M 525 4666 
L 3525 4666 
L 3525 4397 
L 1831 0 
L 1172 0 
L 2766 4134 
L 525 4134 
L 525 4666 
z
" transform="scale(0.015625)"/>
      <path id="DejaVuSans-2e" d="M 684 794 
L 1344 794 
L 1344 0 
L 684 0 
L 684 794 
z
" transform="scale(0.015625)"/>
      <path id="DejaVuSans-33" d="M 2597 2516 
Q 3050 2419 3304 2112 
Q 3559 1806 3559 1356 
Q 3559 666 3084 287 
Q 2609 -91 1734 -91 
Q 1441 -91 1130 -33 
Q 819 25 488 141 
L 488 750 
Q 750 597 1062 519 
Q 1375 441 1716 441 
Q 2309 441 2620 675 
Q 2931 909 2931 1356 
Q 2931 1769 2642 2001 
Q 2353 2234 1838 2234 
L 1294 2234 
L 1294 2753 
L 1863 2753 
Q 2328 2753 2575 2939 
Q 2822 3125 2822 3475 
Q 2822 3834 2567 4026 
Q 2313 4219 1838 4219 
Q 1578 4219 1281 4162 
Q 984 4106 628 3988 
L 628 4550 
Q 988 4650 1302 4700 
Q 1616 4750 1894 4750 
Q 2613 4750 3031 4423 
Q 3450 4097 3450 3541 
Q 3450 3153 3228 2886 
Q 3006 2619 2597 2516 
z
" transform="scale(0.015625)"/>
      <path id="DejaVuSans-29" d="M 513 4856 
L 1013 4856 
Q 1481 4119 1714 3412 
Q 1947 2706 1947 2009 
Q 1947 1309 1714 600 
Q 1481 -109 1013 -844 
L 513 -844 
Q 928 -128 1133 580 
Q 1338 1288 1338 2009 
Q 1338 2731 1133 3434 
Q 928 4138 513 4856 
z
" transform="scale(0.015625)"/>
     </defs>
     <use xlink:href="#DejaVuSans-41"/>
     <use xlink:href="#DejaVuSans-74" transform="translate(66.658203 0)"/>
     <use xlink:href="#DejaVuSans-6f" transform="translate(105.867188 0)"/>
     <use xlink:href="#DejaVuSans-6d" transform="translate(167.048828 0)"/>
     <use xlink:href="#DejaVuSans-20" transform="translate(264.460938 0)"/>
     <use xlink:href="#DejaVuSans-54" transform="translate(296.248047 0)"/>
     <use xlink:href="#DejaVuSans-79" transform="translate(341.707031 0)"/>
     <use xlink:href="#DejaVuSans-70" transform="translate(400.886719 0)"/>
     <use xlink:href="#DejaVuSans-65" transform="translate(464.363281 0)"/>
     <use xlink:href="#DejaVuSans-20" transform="translate(525.886719 0)"/>
     <use xlink:href="#DejaVuSans-48" transform="translate(557.673828 0)"/>
     <use xlink:href="#DejaVuSans-20" transform="translate(632.869141 0)"/>
     <use xlink:href="#DejaVuSans-28" transform="translate(664.65625 0)"/>
     <use xlink:href="#DejaVuSans-6e" transform="translate(703.669922 0)"/>
     <use xlink:href="#DejaVuSans-3d" transform="translate(767.048828 0)"/>
     <use xlink:href="#DejaVuSans-39" transform="translate(850.837891 0)"/>
     <use xlink:href="#DejaVuSans-30" transform="translate(914.460938 0)"/>
     <use xlink:href="#DejaVuSans-2c" transform="translate(978.083984 0)"/>
     <use xlink:href="#DejaVuSans-20" transform="translate(1009.871094 0)"/>
     <use xlink:href="#DejaVuSans-6d" transform="translate(1041.658203 0)"/>
     <use xlink:href="#DejaVuSans-65" transform="translate(1139.070312 0)"/>
     <use xlink:href="#DejaVuSans-61" transform="translate(1200.59375 0)"/>
     <use xlink:href="#DejaVuSans-6e" transform="translate(1261.873047 0)"/>
     <use xlink:href="#DejaVuSans-20" transform="translate(1325.251953 0)"/>
     <use xlink:href="#DejaVuSans-51" transform="translate(1357.039062 0)"/>
     <use xlink:href="#DejaVuSans-3d" transform="translate(1435.75 0)"/>
     <use xlink:href="#DejaVuSans-37" transform="translate(1519.539062 0)"/>
     <use xlink:href="#DejaVuSans-2e" transform="translate(1583.162109 0)"/>
     <use xlink:href="#DejaVuSans-35" transform="translate(1614.949219 0)"/>
     <use xlink:href="#DejaVuSans-33" transform="translate(1678.572266 0)"/>
     <use xlink:href="#DejaVuSans-29" transform="translate(1742.195312 0)"/>
    </g>
   </g>
  </g>
 </g>
 <defs>
  <clipPath id="pb583f47f24">
   <rect x="57.6" y="41.472" width="357.12" height="266.112"/>
  </clipPath>
 </defs>
</svg>
