<?xml version="1.0" encoding="utf-8" standalone="no"?>
<!DOCTYPE svg PUBLIC "-//W3C//DTD SVG 1.1//EN"
  "http://www.w3.org/Graphics/SVG/1.1/DTD/svg11.dtd">
<svg xmlns:xlink="http://www.w3.org/1999/xlink" width="460.8pt" height="345.6pt" viewBox="0 0 460.8 345.6" xmlns="http://www.w3.org/2000/svg" version="1.1">
 <metadata>
  <rdf:RDF xmlns:dc="http://purl.org/dc/elements/1.1/" xmlns:cc="http://creativecommons.org/ns#" xmlns:rdf="http://www.w3.org/1999/02/22-rdf-syntax-ns#">
   <cc:Work>
    <dc:type rdf:resource="http://purl.org/dc/dcmitype/StillImage"/>
    <dc:date>2025-12-10T15:23:36.148652</dc:date>
    <dc:format>image/svg+xml</dc:format>
    <dc:creator>
     <cc:Agent>
      <dc:title>Matplotlib v3.10.3, https://matplotlib.org/</dc:title>
     </cc:Agent>
    </dc:creator>
   </cc:Work>
  </rdf:RDF>
 </metadata>
 <defs>
  <style type="text/css">*{stroke-linejoin: round; stroke-linecap: butt}</style>
 </defs>
 <g id="figure_1">
  <g id="patch_1">
   <path d="M 0 345.6 
L 460.8 345.6 
L 460.8 0 
L 0 0 
z
" style="fill: #ffffff"/>
  </g>
  <g id="axes_1">
   <g id="patch_2">
    <path d="M 57.6 307.584 
L 414.72 307.584 
L 414.72 41.472 
L 57.6 41.472 
z
" style="fill: #ffffff"/>
   </g>
   <g id="matplotlib.axis_1">
    <g id="xtick_1">
     <g id="line2d_1">
      <defs>
       <path id="mc1e18e06b9" d="M 0 0 
L 0 3.5 
" style="stroke: #000000; stroke-width: 0.8"/>
      </defs>
      <g>
       <use xlink:href="#mc1e18e06b9" x="73.832727" y="307.584" style="stroke: #000000; stroke-width: 0.8"/>
      </g>
     </g>
     <g id="text_1">
      <!-- 0 -->
      <g transform="translate(69.060852 325.981656) scale(0.15 -0.15)">
       <defs>
        <path id="DejaVuSans-30" d="M 2034 4250 
Q 1547 4250 1301 3770 
Q 1056 3291 1056 2328 
Q 1056 1369 1301 889 
Q 1547 409 2034 409 
Q 2525 409 2770 889 
Q 3016 1369 3016 2328 
Q 3016 3291 2770 3770 
Q 2525 4250 2034 4250 
z
M 2034 4750 
Q 2819 4750 3233 4129 
Q 3647 3509 3647 2328 
Q 3647 1150 3233 529 
Q 2819 -91 2034 -91 
Q 1250 -91 836 529 
Q 422 1150 422 2328 
Q 422 3509 836 4129 
Q 1250 4750 2034 4750 
z
" transform="scale(0.015625)"/>
       </defs>
       <use xlink:href="#DejaVuSans-30"/>
      </g>
     </g>
    </g>
    <g id="xtick_2">
     <g id="line2d_2">
      <g>
       <use xlink:href="#mc1e18e06b9" x="164.014545" y="307.584" style="stroke: #000000; stroke-width: 0.8"/>
      </g>
     </g>
     <g id="text_2">
      <!-- 50 -->
      <g transform="translate(154.470795 325.981656) scale(0.15 -0.15)">
       <defs>
        <path id="DejaVuSans-35" d="M 691 4666 
L 3169 4666 
L 3169 4134 
L 1269 4134 
L 1269 2991 
Q 1406 3038 1543 3061 
Q 1681 3084 1819 3084 
Q 2600 3084 3056 2656 
Q 3513 2228 3513 1497 
Q 3513 744 3044 326 
Q 2575 -91 1722 -91 
Q 1428 -91 1123 -41 
Q 819 9 494 109 
L 494 744 
Q 775 591 1075 516 
Q 1375 441 1709 441 
Q 2250 441 2565 725 
Q 2881 1009 2881 1497 
Q 2881 1984 2565 2268 
Q 2250 2553 1709 2553 
Q 1456 2553 1204 2497 
Q 953 2441 691 2322 
L 691 4666 
z
" transform="scale(0.015625)"/>
       </defs>
       <use xlink:href="#DejaVuSans-35"/>
       <use xlink:href="#DejaVuSans-30" transform="translate(63.623047 0)"/>
      </g>
     </g>
    </g>
    <g id="xtick_3">
     <g id="line2d_3">
      <g>
       <use xlink:href="#mc1e18e06b9" x="254.196364" y="307.584" style="stroke: #000000; stroke-width: 0.8"/>
      </g>
     </g>
     <g id="text_3">
      <!-- 100 -->
      <g transform="translate(239.880739 325.981656) scale(0.15 -0.15)">
       <defs>
        <path id="DejaVuSans-31" d="M 794 531 
L 1825 531 
L 1825 4091 
L 703 3866 
L 703 4441 
L 1819 4666 
L 2450 4666 
L 2450 531 
L 3481 531 
L 3481 0 
L 794 0 
L 794 531 
z
" transform="scale(0.015625)"/>
       </defs>
       <use xlink:href="#DejaVuSans-31"/>
       <use xlink:href="#DejaVuSans-30" transform="translate(63.623047 0)"/>
       <use xlink:href="#DejaVuSans-30" transform="translate(127.246094 0)"/>
      </g>
     </g>
    </g>
    <g id="xtick_4">
     <g id="line2d_4">
      <g>
       <use xlink:href="#mc1e18e06b9" x="344.378182" y="307.584" style="stroke: #000000; stroke-width: 0.8"/>
      </g>
     </g>
     <g id="text_4">
      <!-- 150 -->
      <g transform="translate(330.062557 325.981656) scale(0.15 -0.15)">
       <use xlink:href="#DejaVuSans-31"/>
       <use xlink:href="#DejaVuSans-35" transform="translate(63.623047 0)"/>
       <use xlink:href="#DejaVuSans-30" transform="translate(127.246094 0)"/>
      </g>
     </g>
    </g>
   </g>
   <g id="matplotlib.axis_2">
    <g id="ytick_1">
     <g id="line2d_5">
      <defs>
       <path id="mf09e55c10f" d="M 0 0 
L -3.5 0 
" style="stroke: #000000; stroke-width: 0.8"/>
      </defs>
      <g>
       <use xlink:href="#mf09e55c10f" x="57.6" y="286.26956" style="stroke: #000000; stroke-width: 0.8"/>
      </g>
     </g>
     <g id="text_5">
      <!-- 14 -->
      <g transform="translate(31.5125 291.968388) scale(0.15 -0.15)">
       <defs>
        <path id="DejaVuSans-34" d="M 2419 4116 
L 825 1625 
L 2419 1625 
L 2419 4116 
z
M 2253 4666 
L 3047 4666 
L 3047 1625 
L 3713 1625 
L 3713 1100 
L 3047 1100 
L 3047 0 
L 2419 0 
L 2419 1100 
L 313 1100 
L 313 1709 
L 2253 4666 
z
" transform="scale(0.015625)"/>
       </defs>
       <use xlink:href="#DejaVuSans-31"/>
       <use xlink:href="#DejaVuSans-34" transform="translate(63.623047 0)"/>
      </g>
     </g>
    </g>
    <g id="ytick_2">
     <g id="line2d_6">
      <g>
       <use xlink:href="#mf09e55c10f" x="57.6" y="237.355629" style="stroke: #000000; stroke-width: 0.8"/>
      </g>
     </g>
     <g id="text_6">
      <!-- 16 -->
      <g transform="translate(31.5125 243.054457) scale(0.15 -0.15)">
       <defs>
        <path id="DejaVuSans-36" d="M 2113 2584 
Q 1688 2584 1439 2293 
Q 1191 2003 1191 1497 
Q 1191 994 1439 701 
Q 1688 409 2113 409 
Q 2538 409 2786 701 
Q 3034 994 3034 1497 
Q 3034 2003 2786 2293 
Q 2538 2584 2113 2584 
z
M 3366 4563 
L 3366 3988 
Q 3128 4100 2886 4159 
Q 2644 4219 2406 4219 
Q 1781 4219 1451 3797 
Q 1122 3375 1075 2522 
Q 1259 2794 1537 2939 
Q 1816 3084 2150 3084 
Q 2853 3084 3261 2657 
Q 3669 2231 3669 1497 
Q 3669 778 3244 343 
Q 2819 -91 2113 -91 
Q 1303 -91 875 529 
Q 447 1150 447 2328 
Q 447 3434 972 4092 
Q 1497 4750 2381 4750 
Q 2619 4750 2861 4703 
Q 3103 4656 3366 4563 
z
" transform="scale(0.015625)"/>
       </defs>
       <use xlink:href="#DejaVuSans-31"/>
       <use xlink:href="#DejaVuSans-36" transform="translate(63.623047 0)"/>
      </g>
     </g>
    </g>
    <g id="ytick_3">
     <g id="line2d_7">
      <g>
       <use xlink:href="#mf09e55c10f" x="57.6" y="188.441698" style="stroke: #000000; stroke-width: 0.8"/>
      </g>
     </g>
     <g id="text_7">
      <!-- 18 -->
      <g transform="translate(31.5125 194.140526) scale(0.15 -0.15)">
       <defs>
        <path id="DejaVuSans-38" d="M 2034 2216 
Q 1584 2216 1326 1975 
Q 1069 1734 1069 1313 
Q 1069 891 1326 650 
Q 1584 409 2034 409 
Q 2484 409 2743 651 
Q 3003 894 3003 1313 
Q 3003 1734 2745 1975 
Q 2488 2216 2034 2216 
z
M 1403 2484 
Q 997 2584 770 2862 
Q 544 3141 544 3541 
Q 544 4100 942 4425 
Q 1341 4750 2034 4750 
Q 2731 4750 3128 4425 
Q 3525 4100 3525 3541 
Q 3525 3141 3298 2862 
Q 3072 2584 2669 2484 
Q 3125 2378 3379 2068 
Q 3634 1759 3634 1313 
Q 3634 634 3220 271 
Q 2806 -91 2034 -91 
Q 1263 -91 848 271 
Q 434 634 434 1313 
Q 434 1759 690 2068 
Q 947 2378 1403 2484 
z
M 1172 3481 
Q 1172 3119 1398 2916 
Q 1625 2713 2034 2713 
Q 2441 2713 2670 2916 
Q 2900 3119 2900 3481 
Q 2900 3844 2670 4047 
Q 2441 4250 2034 4250 
Q 1625 4250 1398 4047 
Q 1172 3844 1172 3481 
z
" transform="scale(0.015625)"/>
       </defs>
       <use xlink:href="#DejaVuSans-31"/>
       <use xlink:href="#DejaVuSans-38" transform="translate(63.623047 0)"/>
      </g>
     </g>
    </g>
    <g id="ytick_4">
     <g id="line2d_8">
      <g>
       <use xlink:href="#mf09e55c10f" x="57.6" y="139.527766" style="stroke: #000000; stroke-width: 0.8"/>
      </g>
     </g>
     <g id="text_8">
      <!-- 20 -->
      <g transform="translate(31.5125 145.226595) scale(0.15 -0.15)">
       <defs>
        <path id="DejaVuSans-32" d="M 1228 531 
L 3431 531 
L 3431 0 
L 469 0 
L 469 531 
Q 828 903 1448 1529 
Q 2069 2156 2228 2338 
Q 2531 2678 2651 2914 
Q 2772 3150 2772 3378 
Q 2772 3750 2511 3984 
Q 2250 4219 1831 4219 
Q 1534 4219 1204 4116 
Q 875 4013 500 3803 
L 500 4441 
Q 881 4594 1212 4672 
Q 1544 4750 1819 4750 
Q 2544 4750 2975 4387 
Q 3406 4025 3406 3419 
Q 3406 3131 3298 2873 
Q 3191 2616 2906 2266 
Q 2828 2175 2409 1742 
Q 1991 1309 1228 531 
z
" transform="scale(0.015625)"/>
       </defs>
       <use xlink:href="#DejaVuSans-32"/>
       <use xlink:href="#DejaVuSans-30" transform="translate(63.623047 0)"/>
      </g>
     </g>
    </g>
    <g id="ytick_5">
     <g id="line2d_9">
      <g>
       <use xlink:href="#mf09e55c10f" x="57.6" y="90.613835" style="stroke: #000000; stroke-width: 0.8"/>
      </g>
     </g>
     <g id="text_9">
      <!-- 22 -->
      <g transform="translate(31.5125 96.312663) scale(0.15 -0.15)">
       <use xlink:href="#DejaVuSans-32"/>
       <use xlink:href="#DejaVuSans-32" transform="translate(63.623047 0)"/>
      </g>
     </g>
    </g>
    <g id="ytick_6">
     <g id="line2d_10">
      <g>
       <use xlink:href="#mf09e55c10f" x="57.6" y="41.699904" style="stroke: #000000; stroke-width: 0.8"/>
      </g>
     </g>
     <g id="text_10">
      <!-- 24 -->
      <g transform="translate(31.5125 47.398732) scale(0.15 -0.15)">
       <use xlink:href="#DejaVuSans-32"/>
       <use xlink:href="#DejaVuSans-34" transform="translate(63.623047 0)"/>
      </g>
     </g>
    </g>
   </g>
   <g id="line2d_11">
    <path d="M 73.832727 269.661419 
L 75.636364 270.667656 
L 77.44 267.058519 
L 79.243636 213.50595 
L 81.047273 191.699272 
L 82.850909 276.135671 
L 84.654545 270.193045 
L 86.458182 256.689538 
L 88.261818 221.91662 
L 90.065455 287.132139 
L 91.869091 228.235248 
L 93.672727 216.106328 
L 95.476364 114.782643 
L 97.28 247.962985 
L 99.083636 271.443644 
L 100.887273 267.994219 
L 102.690909 203.890691 
L 104.494545 278.23815 
L 106.298182 189.016025 
L 108.101818 277.467889 
L 111.709091 219.967283 
L 113.512727 209.346112 
L 115.316364 268.931475 
L 117.12 255.716966 
L 118.923636 206.417953 
L 120.727273 290.751096 
L 122.530909 271.62171 
L 124.334545 283.603891 
L 126.138182 250.375102 
L 127.941818 235.929805 
L 129.745455 283.574187 
L 131.549091 221.030665 
L 133.352727 238.663373 
L 135.156364 247.987749 
L 136.96 224.048337 
L 138.763636 286.873887 
L 140.567273 268.899223 
L 142.370909 294.746557 
L 144.174545 230.100006 
L 145.978182 188.736341 
L 147.781818 229.33837 
L 151.389091 196.719165 
L 153.192727 260.80038 
L 154.996364 130.105506 
L 156.8 267.574009 
L 158.603636 193.973702 
L 160.407273 92.612946 
L 162.210909 153.614224 
L 164.014545 137.378941 
L 165.818182 236.607463 
L 167.621818 154.602294 
L 169.425455 144.722095 
L 171.229091 139.059239 
L 173.032727 93.781838 
L 174.836364 117.151683 
L 176.64 163.974869 
L 178.443636 75.947808 
L 180.247273 163.562952 
L 182.050909 141.08347 
L 183.854545 175.870198 
L 185.658182 161.623605 
L 187.461818 177.177121 
L 189.265455 163.905001 
L 191.069091 118.218265 
L 192.872727 163.281488 
L 194.676364 174.372897 
L 196.48 109.492617 
L 198.283636 143.483556 
L 200.087273 137.879324 
L 201.890909 125.55335 
L 203.694545 123.4736 
L 205.498182 117.856606 
L 207.301818 169.133235 
L 209.105455 135.713228 
L 210.909091 184.958064 
L 212.712727 131.056295 
L 214.516364 95.2314 
L 216.32 199.528687 
L 218.123636 167.065136 
L 219.927273 147.653501 
L 221.730909 185.002534 
L 223.534545 191.958819 
L 225.338182 141.074223 
L 227.141818 154.249464 
L 228.945455 153.543904 
L 230.749091 181.000888 
L 232.552727 138.230396 
L 234.356364 160.904689 
L 236.16 117.615411 
L 237.963636 247.541371 
L 239.767273 53.568 
L 241.570909 74.699234 
L 243.374545 138.044229 
L 245.178182 163.218274 
L 246.981818 134.797512 
L 248.785455 165.837952 
L 250.589091 113.353853 
L 252.392727 72.879383 
L 254.196364 135.632774 
L 256 154.087511 
L 257.803636 204.044507 
L 259.607273 115.121773 
L 261.410909 111.678323 
L 263.214545 205.523092 
L 265.018182 127.485297 
L 266.821818 198.072147 
L 268.625455 145.376211 
L 270.429091 163.734096 
L 272.232727 250.59793 
L 274.036364 160.945325 
L 275.84 140.239289 
L 277.643636 138.543695 
L 279.447273 118.57769 
L 281.250909 143.836436 
L 283.054545 194.088878 
L 284.858182 74.820975 
L 286.661818 115.049692 
L 288.465455 170.862218 
L 290.269091 144.645353 
L 292.072727 54.607401 
L 293.876364 161.302721 
L 295.68 167.020834 
L 297.483636 169.796495 
L 299.287273 180.683694 
L 301.090909 139.505903 
L 302.894545 103.529942 
L 304.698182 110.211651 
L 306.501818 121.624944 
L 308.305455 139.602966 
L 310.109091 134.909999 
L 311.912727 143.330404 
L 313.716364 213.141621 
L 315.52 112.468024 
L 317.323636 205.276478 
L 319.127273 188.250565 
L 320.930909 211.205049 
L 322.734545 144.503508 
L 324.538182 85.529483 
L 326.341818 89.169358 
L 328.145455 117.690158 
L 329.949091 155.984191 
L 331.752727 281.452501 
L 333.556364 123.724828 
L 335.36 205.30846 
L 337.163636 212.606155 
L 338.967273 181.865086 
L 340.770909 196.131392 
L 342.574545 159.028048 
L 344.378182 255.407444 
L 346.181818 228.570981 
L 347.985455 185.962219 
L 349.789091 194.849473 
L 351.592727 232.335304 
L 353.396364 239.059841 
L 355.2 163.312527 
L 357.003636 287.920946 
L 358.807273 251.019153 
L 360.610909 134.959385 
L 362.414545 177.915333 
L 364.218182 268.805991 
L 366.021818 230.94509 
L 367.825455 224.449817 
L 369.629091 188.197931 
L 371.432727 218.91023 
L 373.236364 138.066233 
L 375.04 207.596812 
L 376.843636 145.678619 
L 378.647273 160.967735 
L 380.450909 266.298222 
L 382.254545 279.746587 
L 384.058182 233.949636 
L 385.861818 224.387175 
L 387.665455 190.101685 
L 389.469091 207.244807 
L 391.272727 242.399355 
L 393.076364 197.171003 
L 394.88 196.834663 
L 396.683636 270.234218 
L 398.487273 228.860641 
L 398.487273 228.860641 
" clip-path="url(#p80b2621755)" style="fill: none; stroke: #21918c; stroke-opacity: 0.5; stroke-width: 1.5; stroke-linecap: square"/>
   </g>
   <g id="line2d_12">
    <path d="M 73.832727 135.24958 
L 75.636364 129.118983 
L 77.44 204.742156 
L 79.243636 240.629217 
L 81.047273 241.644312 
L 82.850909 242.973856 
L 84.654545 264.295069 
L 86.458182 227.746556 
L 90.065455 251.807114 
L 91.869091 222.091919 
L 93.672727 165.898129 
L 95.476364 256.63572 
L 97.28 175.551864 
L 99.083636 276.867468 
L 100.887273 180.088515 
L 102.690909 112.833724 
L 104.494545 274.543123 
L 106.298182 256.088437 
L 108.101818 263.269283 
L 109.905455 221.658707 
L 111.709091 223.729637 
L 113.512727 226.812233 
L 115.316364 252.855025 
L 117.12 248.677042 
L 118.923636 246.245559 
L 120.727273 230.832096 
L 122.530909 210.242127 
L 124.334545 94.06334 
L 126.138182 244.075695 
L 127.941818 259.822267 
L 129.745455 238.698826 
L 131.549091 241.799851 
L 133.352727 253.575737 
L 135.156364 261.321422 
L 136.96 271.988627 
L 138.763636 259.959132 
L 140.567273 203.957189 
L 142.370909 228.54282 
L 144.174545 223.434935 
L 145.978182 184.653069 
L 147.781818 218.898781 
L 149.585455 186.59687 
L 151.389091 72.511175 
L 153.192727 253.232439 
L 154.996364 241.158068 
L 156.8 78.568826 
L 158.603636 254.368413 
L 160.407273 166.35564 
L 162.210909 200.208439 
L 164.014545 213.900398 
L 165.818182 235.390835 
L 167.621818 210.596674 
L 169.425455 241.400135 
L 173.032727 175.502729 
L 174.836364 200.723098 
L 176.64 230.86003 
L 178.443636 181.891551 
L 180.247273 178.596226 
L 182.050909 162.175764 
L 183.854545 132.57611 
L 185.658182 123.174484 
L 187.461818 205.624909 
L 189.265455 165.112142 
L 191.069091 170.055309 
L 192.872727 181.559478 
L 194.676364 167.829942 
L 196.48 207.516002 
L 198.283636 230.710856 
L 200.087273 218.41068 
L 201.890909 125.809117 
L 203.694545 167.173732 
L 205.498182 201.630115 
L 207.301818 247.652371 
L 209.105455 245.44655 
L 210.909091 198.122667 
L 212.712727 260.119465 
L 214.516364 211.161524 
L 216.32 191.118251 
L 218.123636 238.266289 
L 219.927273 210.372996 
L 221.730909 264.492647 
L 223.534545 232.045832 
L 225.338182 247.411265 
L 227.141818 195.883079 
L 228.945455 194.008114 
L 230.749091 270.001122 
L 232.552727 214.958251 
L 234.356364 276.268243 
L 236.16 204.328111 
L 237.963636 256.850864 
L 239.767273 233.795251 
L 241.570909 148.041407 
L 243.374545 211.316854 
L 245.178182 213.707711 
L 246.981818 212.669238 
L 248.785455 189.852906 
L 250.589091 211.299688 
L 252.392727 188.915693 
L 254.196364 225.803337 
L 256 237.840957 
L 257.803636 146.200943 
L 259.607273 179.968394 
L 261.410909 125.921198 
L 263.214545 215.101921 
L 265.018182 276.714933 
L 266.821818 210.830232 
L 268.625455 204.613678 
L 270.429091 265.827947 
L 272.232727 201.076052 
L 274.036364 280.889832 
L 275.84 259.696503 
L 277.643636 195.69588 
L 279.447273 234.391355 
L 281.250909 221.221891 
L 283.054545 92.468505 
L 284.858182 240.935617 
L 286.661818 184.185615 
L 288.465455 249.990562 
L 290.269091 271.333905 
L 292.072727 184.934353 
L 293.876364 271.215206 
L 295.68 215.982897 
L 297.483636 281.18598 
L 299.287273 253.116192 
L 301.090909 274.860837 
L 302.894545 254.352881 
L 304.698182 230.269001 
L 306.501818 223.156749 
L 308.305455 198.745167 
L 310.109091 278.319235 
L 311.912727 235.716466 
L 313.716364 198.909728 
L 315.52 218.967765 
L 317.323636 195.856767 
L 319.127273 226.776204 
L 320.930909 254.321244 
L 322.734545 228.820883 
L 324.538182 240.23475 
L 326.341818 261.757214 
L 328.145455 270.569687 
L 329.949091 223.074045 
L 331.752727 239.650432 
L 333.556364 231.138915 
L 335.36 228.802882 
L 337.163636 277.20843 
L 338.967273 197.530114 
L 340.770909 223.427307 
L 342.574545 182.576353 
L 344.378182 137.879678 
L 346.181818 71.709213 
L 347.985455 257.543469 
L 349.789091 156.469403 
L 351.592727 252.841691 
L 353.396364 252.235437 
L 355.2 148.808004 
L 357.003636 265.164208 
L 358.807273 256.558764 
L 360.610909 267.674091 
L 362.414545 191.669306 
L 364.218182 255.06479 
L 366.021818 255.060794 
L 367.825455 238.744726 
L 369.629091 250.349142 
L 371.432727 265.828325 
L 373.236364 228.633881 
L 375.04 213.653568 
L 376.843636 192.486453 
L 378.647273 220.645824 
L 380.450909 246.694455 
L 382.254545 245.638541 
L 384.058182 188.300789 
L 385.861818 249.309287 
L 387.665455 243.558275 
L 389.469091 225.925958 
L 391.272727 247.230596 
L 393.076364 237.918289 
L 394.88 269.137295 
L 396.683636 163.657462 
L 398.487273 242.92758 
L 398.487273 242.92758 
" clip-path="url(#p80b2621755)" style="fill: none; stroke: #21918c; stroke-opacity: 0.5; stroke-width: 1.5; stroke-linecap: square"/>
   </g>
   <g id="line2d_13">
    <path d="M 73.832727 252.413566 
L 75.636364 247.518222 
L 77.44 234.915421 
L 79.243636 281.579004 
L 81.047273 222.575126 
L 82.850909 210.698779 
L 84.654545 184.56477 
L 86.458182 110.371131 
L 88.261818 170.947655 
L 90.065455 245.603305 
L 91.869091 141.118327 
L 93.672727 117.269782 
L 95.476364 188.270014 
L 97.28 264.697597 
L 99.083636 128.558276 
L 100.887273 215.266454 
L 102.690909 187.095803 
L 104.494545 106.522383 
L 106.298182 153.348059 
L 108.101818 186.935758 
L 109.905455 224.030068 
L 111.709091 234.15111 
L 113.512727 249.264271 
L 115.316364 72.692634 
L 117.12 190.634331 
L 118.923636 185.263148 
L 120.727273 149.838578 
L 122.530909 94.865418 
L 124.334545 194.203692 
L 126.138182 120.263929 
L 127.941818 203.000096 
L 129.745455 150.585836 
L 131.549091 208.070043 
L 133.352727 245.100902 
L 135.156364 241.70084 
L 136.96 292.506192 
L 138.763636 295.488 
L 140.567273 257.507613 
L 142.370909 233.794292 
L 144.174545 215.551415 
L 145.978182 196.09896 
L 147.781818 245.929057 
L 149.585455 239.397012 
L 151.389091 226.807067 
L 153.192727 191.399417 
L 154.996364 231.480585 
L 156.8 234.207933 
L 158.603636 281.975826 
L 160.407273 186.155928 
L 162.210909 261.601367 
L 164.014545 254.968833 
L 165.818182 253.417913 
L 167.621818 207.238051 
L 169.425455 231.842035 
L 171.229091 189.159847 
L 173.032727 235.713831 
L 174.836364 262.348802 
L 176.64 140.162533 
L 178.443636 210.747475 
L 180.247273 143.030595 
L 182.050909 160.995588 
L 185.658182 214.245342 
L 187.461818 247.157943 
L 189.265455 113.779628 
L 191.069091 220.869674 
L 192.872727 141.078096 
L 194.676364 144.175868 
L 196.48 202.871564 
L 198.283636 68.981051 
L 200.087273 68.655579 
L 201.890909 257.844899 
L 203.694545 173.710906 
L 205.498182 255.84543 
L 207.301818 242.086606 
L 209.105455 275.023523 
L 210.909091 270.256337 
L 212.712727 278.920707 
L 214.516364 217.733801 
L 216.32 204.324164 
L 218.123636 279.716424 
L 219.927273 210.847737 
L 221.730909 288.75598 
L 223.534545 267.869905 
L 225.338182 244.177688 
L 227.141818 175.698236 
L 228.945455 144.056935 
L 230.749091 220.758259 
L 232.552727 102.088844 
L 234.356364 233.474135 
L 236.16 275.851755 
L 237.963636 231.804103 
L 239.767273 202.475476 
L 241.570909 287.460373 
L 243.374545 261.691497 
L 245.178182 239.924288 
L 246.981818 252.624877 
L 250.589091 167.6298 
L 252.392727 227.557266 
L 254.196364 182.386976 
L 256 246.877575 
L 257.803636 238.801349 
L 259.607273 251.60426 
L 261.410909 211.352695 
L 263.214545 235.410743 
L 265.018182 180.693738 
L 266.821818 235.88029 
L 268.625455 237.267153 
L 270.429091 212.689232 
L 272.232727 241.232297 
L 274.036364 199.429328 
L 275.84 186.656163 
L 277.643636 178.298286 
L 279.447273 254.824926 
L 281.250909 238.067601 
L 283.054545 142.415859 
L 284.858182 269.6396 
L 286.661818 229.43785 
L 288.465455 266.36696 
L 290.269091 148.522347 
L 292.072727 132.282227 
L 293.876364 267.678669 
L 295.68 272.705798 
L 297.483636 205.610245 
L 299.287273 243.583997 
L 301.090909 242.696043 
L 302.894545 236.158404 
L 304.698182 248.789523 
L 306.501818 241.5609 
L 308.305455 274.726543 
L 310.109091 219.087245 
L 311.912727 204.856474 
L 313.716364 256.734359 
L 315.52 250.66733 
L 317.323636 252.021152 
L 319.127273 138.064935 
L 320.930909 185.766145 
L 322.734545 284.780374 
L 324.538182 171.57223 
L 326.341818 281.156409 
L 328.145455 254.227288 
L 329.949091 265.165057 
L 331.752727 230.98153 
L 333.556364 212.125113 
L 335.36 236.021947 
L 337.163636 233.686487 
L 338.967273 192.529773 
L 340.770909 241.750798 
L 342.574545 154.098132 
L 344.378182 183.606677 
L 346.181818 241.334005 
L 347.985455 233.430155 
L 349.789091 231.309092 
L 351.592727 252.14839 
L 353.396364 255.212477 
L 355.2 263.982067 
L 357.003636 170.037137 
L 358.807273 244.041597 
L 360.610909 194.713487 
L 362.414545 112.809665 
L 364.218182 252.725152 
L 366.021818 231.285152 
L 367.825455 231.838457 
L 369.629091 248.102572 
L 371.432727 217.298161 
L 373.236364 228.495752 
L 375.04 218.507063 
L 376.843636 221.370947 
L 378.647273 233.324721 
L 380.450909 247.519777 
L 382.254545 168.964437 
L 384.058182 249.54053 
L 385.861818 277.560881 
L 387.665455 145.782772 
L 389.469091 234.969125 
L 391.272727 214.45947 
L 393.076364 224.257494 
L 394.88 277.316645 
L 396.683636 276.807724 
L 398.487273 250.630932 
L 398.487273 250.630932 
" clip-path="url(#p80b2621755)" style="fill: none; stroke: #21918c; stroke-opacity: 0.5; stroke-width: 1.5; stroke-linecap: square"/>
   </g>
   <g id="patch_3">
    <path d="M 57.6 307.584 
L 57.6 41.472 
" style="fill: none; stroke: #000000; stroke-width: 3; stroke-linejoin: miter; stroke-linecap: square"/>
   </g>
   <g id="patch_4">
    <path d="M 414.72 307.584 
L 414.72 41.472 
" style="fill: none; stroke: #000000; stroke-width: 3; stroke-linejoin: miter; stroke-linecap: square"/>
   </g>
   <g id="patch_5">
    <path d="M 57.6 307.584 
L 414.72 307.584 
" style="fill: none; stroke: #000000; stroke-width: 3; stroke-linejoin: miter; stroke-linecap: square"/>
   </g>
   <g id="patch_6">
    <path d="M 57.6 41.472 
L 414.72 41.472 
" style="fill: none; stroke: #000000; stroke-width: 3; stroke-linejoin: miter; stroke-linecap: square"/>
   </g>
   <g id="text_11">
    <!-- Atom Type N (n=3, mean Q=17.28) -->
    <g transform="translate(40.268906 35.472) scale(0.22 -0.22)">
     <defs>
      <path id="DejaVuSans-41" d="M 2188 4044 
L 1331 1722 
L 3047 1722 
L 2188 4044 
z
M 1831 4666 
L 2547 4666 
L 4325 0 
L 3669 0 
L 3244 1197 
L 1141 1197 
L 716 0 
L 50 0 
L 1831 4666 
z
" transform="scale(0.015625)"/>
      <path id="DejaVuSans-74" d="M 1172 4494 
L 1172 3500 
L 2356 3500 
L 2356 3053 
L 1172 3053 
L 1172 1153 
Q 1172 725 1289 603 
Q 1406 481 1766 481 
L 2356 481 
L 2356 0 
L 1766 0 
Q 1100 0 847 248 
Q 594 497 594 1153 
L 594 3053 
L 172 3053 
L 172 3500 
L 594 3500 
L 594 4494 
L 1172 4494 
z
" transform="scale(0.015625)"/>
      <path id="DejaVuSans-6f" d="M 1959 3097 
Q 1497 3097 1228 2736 
Q 959 2375 959 1747 
Q 959 1119 1226 758 
Q 1494 397 1959 397 
Q 2419 397 2687 759 
Q 2956 1122 2956 1747 
Q 2956 2369 2687 2733 
Q 2419 3097 1959 3097 
z
M 1959 3584 
Q 2709 3584 3137 3096 
Q 3566 2609 3566 1747 
Q 3566 888 3137 398 
Q 2709 -91 1959 -91 
Q 1206 -91 779 398 
Q 353 888 353 1747 
Q 353 2609 779 3096 
Q 1206 3584 1959 3584 
z
" transform="scale(0.015625)"/>
      <path id="DejaVuSans-6d" d="M 3328 2828 
Q 3544 3216 3844 3400 
Q 4144 3584 4550 3584 
Q 5097 3584 5394 3201 
Q 5691 2819 5691 2113 
L 5691 0 
L 5113 0 
L 5113 2094 
Q 5113 2597 4934 2840 
Q 4756 3084 4391 3084 
Q 3944 3084 3684 2787 
Q 3425 2491 3425 1978 
L 3425 0 
L 2847 0 
L 2847 2094 
Q 2847 2600 2669 2842 
Q 2491 3084 2119 3084 
Q 1678 3084 1418 2786 
Q 1159 2488 1159 1978 
L 1159 0 
L 581 0 
L 581 3500 
L 1159 3500 
L 1159 2956 
Q 1356 3278 1631 3431 
Q 1906 3584 2284 3584 
Q 2666 3584 2933 3390 
Q 3200 3197 3328 2828 
z
" transform="scale(0.015625)"/>
      <path id="DejaVuSans-20" transform="scale(0.015625)"/>
      <path id="DejaVuSans-54" d="M -19 4666 
L 3928 4666 
L 3928 4134 
L 2272 4134 
L 2272 0 
L 1638 0 
L 1638 4134 
L -19 4134 
L -19 4666 
z
" transform="scale(0.015625)"/>
      <path id="DejaVuSans-79" d="M 2059 -325 
Q 1816 -950 1584 -1140 
Q 1353 -1331 966 -1331 
L 506 -1331 
L 506 -850 
L 844 -850 
Q 1081 -850 1212 -737 
Q 1344 -625 1503 -206 
L 1606 56 
L 191 3500 
L 800 3500 
L 1894 763 
L 2988 3500 
L 3597 3500 
L 2059 -325 
z
" transform="scale(0.015625)"/>
      <path id="DejaVuSans-70" d="M 1159 525 
L 1159 -1331 
L 581 -1331 
L 581 3500 
L 1159 3500 
L 1159 2969 
Q 1341 3281 1617 3432 
Q 1894 3584 2278 3584 
Q 2916 3584 3314 3078 
Q 3713 2572 3713 1747 
Q 3713 922 3314 415 
Q 2916 -91 2278 -91 
Q 1894 -91 1617 61 
Q 1341 213 1159 525 
z
M 3116 1747 
Q 3116 2381 2855 2742 
Q 2594 3103 2138 3103 
Q 1681 3103 1420 2742 
Q 1159 2381 1159 1747 
Q 1159 1113 1420 752 
Q 1681 391 2138 391 
Q 2594 391 2855 752 
Q 3116 1113 3116 1747 
z
" transform="scale(0.015625)"/>
      <path id="DejaVuSans-65" d="M 3597 1894 
L 3597 1613 
L 953 1613 
Q 991 1019 1311 708 
Q 1631 397 2203 397 
Q 2534 397 2845 478 
Q 3156 559 3463 722 
L 3463 178 
Q 3153 47 2828 -22 
Q 2503 -91 2169 -91 
Q 1331 -91 842 396 
Q 353 884 353 1716 
Q 353 2575 817 3079 
Q 1281 3584 2069 3584 
Q 2775 3584 3186 3129 
Q 3597 2675 3597 1894 
z
M 3022 2063 
Q 3016 2534 2758 2815 
Q 2500 3097 2075 3097 
Q 1594 3097 1305 2825 
Q 1016 2553 972 2059 
L 3022 2063 
z
" transform="scale(0.015625)"/>
      <path id="DejaVuSans-4e" d="M 628 4666 
L 1478 4666 
L 3547 763 
L 3547 4666 
L 4159 4666 
L 4159 0 
L 3309 0 
L 1241 3903 
L 1241 0 
L 628 0 
L 628 4666 
z
" transform="scale(0.015625)"/>
      <path id="DejaVuSans-28" d="M 1984 4856 
Q 1566 4138 1362 3434 
Q 1159 2731 1159 2009 
Q 1159 1288 1364 580 
Q 1569 -128 1984 -844 
L 1484 -844 
Q 1016 -109 783 600 
Q 550 1309 550 2009 
Q 550 2706 781 3412 
Q 1013 4119 1484 4856 
L 1984 4856 
z
" transform="scale(0.015625)"/>
      <path id="DejaVuSans-6e" d="M 3513 2113 
L 3513 0 
L 2938 0 
L 2938 2094 
Q 2938 2591 2744 2837 
Q 2550 3084 2163 3084 
Q 1697 3084 1428 2787 
Q 1159 2491 1159 1978 
L 1159 0 
L 581 0 
L 581 3500 
L 1159 3500 
L 1159 2956 
Q 1366 3272 1645 3428 
Q 1925 3584 2291 3584 
Q 2894 3584 3203 3211 
Q 3513 2838 3513 2113 
z
" transform="scale(0.015625)"/>
      <path id="DejaVuSans-3d" d="M 678 2906 
L 4684 2906 
L 4684 2381 
L 678 2381 
L 678 2906 
z
M 678 1631 
L 4684 1631 
L 4684 1100 
L 678 1100 
L 678 1631 
z
" transform="scale(0.015625)"/>
      <path id="DejaVuSans-33" d="M 2597 2516 
Q 3050 2419 3304 2112 
Q 3559 1806 3559 1356 
Q 3559 666 3084 287 
Q 2609 -91 1734 -91 
Q 1441 -91 1130 -33 
Q 819 25 488 141 
L 488 750 
Q 750 597 1062 519 
Q 1375 441 1716 441 
Q 2309 441 2620 675 
Q 2931 909 2931 1356 
Q 2931 1769 2642 2001 
Q 2353 2234 1838 2234 
L 1294 2234 
L 1294 2753 
L 1863 2753 
Q 2328 2753 2575 2939 
Q 2822 3125 2822 3475 
Q 2822 3834 2567 4026 
Q 2313 4219 1838 4219 
Q 1578 4219 1281 4162 
Q 984 4106 628 3988 
L 628 4550 
Q 988 4650 1302 4700 
Q 1616 4750 1894 4750 
Q 2613 4750 3031 4423 
Q 3450 4097 3450 3541 
Q 3450 3153 3228 2886 
Q 3006 2619 2597 2516 
z
" transform="scale(0.015625)"/>
      <path id="DejaVuSans-2c" d="M 750 794 
L 1409 794 
L 1409 256 
L 897 -744 
L 494 -744 
L 750 256 
L 750 794 
z
" transform="scale(0.015625)"/>
      <path id="DejaVuSans-61" d="M 2194 1759 
Q 1497 1759 1228 1600 
Q 959 1441 959 1056 
Q 959 750 1161 570 
Q 1363 391 1709 391 
Q 2188 391 2477 730 
Q 2766 1069 2766 1631 
L 2766 1759 
L 2194 1759 
z
M 3341 1997 
L 3341 0 
L 2766 0 
L 2766 531 
Q 2569 213 2275 61 
Q 1981 -91 1556 -91 
Q 1019 -91 701 211 
Q 384 513 384 1019 
Q 384 1609 779 1909 
Q 1175 2209 1959 2209 
L 2766 2209 
L 2766 2266 
Q 2766 2663 2505 2880 
Q 2244 3097 1772 3097 
Q 1472 3097 1187 3025 
Q 903 2953 641 2809 
L 641 3341 
Q 956 3463 1253 3523 
Q 1550 3584 1831 3584 
Q 2591 3584 2966 3190 
Q 3341 2797 3341 1997 
z
" transform="scale(0.015625)"/>
      <path id="DejaVuSans-51" d="M 2522 4238 
Q 1834 4238 1429 3725 
Q 1025 3213 1025 2328 
Q 1025 1447 1429 934 
Q 1834 422 2522 422 
Q 3209 422 3611 934 
Q 4013 1447 4013 2328 
Q 4013 3213 3611 3725 
Q 3209 4238 2522 4238 
z
M 3406 84 
L 4238 -825 
L 3475 -825 
L 2784 -78 
Q 2681 -84 2626 -87 
Q 2572 -91 2522 -91 
Q 1538 -91 948 567 
Q 359 1225 359 2328 
Q 359 3434 948 4092 
Q 1538 4750 2522 4750 
Q 3503 4750 4090 4092 
Q 4678 3434 4678 2328 
Q 4678 1516 4351 937 
Q 4025 359 3406 84 
z
" transform="scale(0.015625)"/>
      <path id="DejaVuSans-37" d="M 525 4666 
L 3525 4666 
L 3525 4397 
L 1831 0 
L 1172 0 
L 2766 4134 
L 525 4134 
L 525 4666 
z
" transform="scale(0.015625)"/>
      <path id="DejaVuSans-2e" d="M 684 794 
L 1344 794 
L 1344 0 
L 684 0 
L 684 794 
z
" transform="scale(0.015625)"/>
      <path id="DejaVuSans-29" d="M 513 4856 
L 1013 4856 
Q 1481 4119 1714 3412 
Q 1947 2706 1947 2009 
Q 1947 1309 1714 600 
Q 1481 -109 1013 -844 
L 513 -844 
Q 928 -128 1133 580 
Q 1338 1288 1338 2009 
Q 1338 2731 1133 3434 
Q 928 4138 513 4856 
z
" transform="scale(0.015625)"/>
     </defs>
     <use xlink:href="#DejaVuSans-41"/>
     <use xlink:href="#DejaVuSans-74" transform="translate(66.658203 0)"/>
     <use xlink:href="#DejaVuSans-6f" transform="translate(105.867188 0)"/>
     <use xlink:href="#DejaVuSans-6d" transform="translate(167.048828 0)"/>
     <use xlink:href="#DejaVuSans-20" transform="translate(264.460938 0)"/>
     <use xlink:href="#DejaVuSans-54" transform="translate(296.248047 0)"/>
     <use xlink:href="#DejaVuSans-79" transform="translate(341.707031 0)"/>
     <use xlink:href="#DejaVuSans-70" transform="translate(400.886719 0)"/>
     <use xlink:href="#DejaVuSans-65" transform="translate(464.363281 0)"/>
     <use xlink:href="#DejaVuSans-20" transform="translate(525.886719 0)"/>
     <use xlink:href="#DejaVuSans-4e" transform="translate(557.673828 0)"/>
     <use xlink:href="#DejaVuSans-20" transform="translate(632.478516 0)"/>
     <use xlink:href="#DejaVuSans-28" transform="translate(664.265625 0)"/>
     <use xlink:href="#DejaVuSans-6e" transform="translate(703.279297 0)"/>
     <use xlink:href="#DejaVuSans-3d" transform="translate(766.658203 0)"/>
     <use xlink:href="#DejaVuSans-33" transform="translate(850.447266 0)"/>
     <use xlink:href="#DejaVuSans-2c" transform="translate(914.070312 0)"/>
     <use xlink:href="#DejaVuSans-20" transform="translate(945.857422 0)"/>
     <use xlink:href="#DejaVuSans-6d" transform="translate(977.644531 0)"/>
     <use xlink:href="#DejaVuSans-65" transform="translate(1075.056641 0)"/>
     <use xlink:href="#DejaVuSans-61" transform="translate(1136.580078 0)"/>
     <use xlink:href="#DejaVuSans-6e" transform="translate(1197.859375 0)"/>
     <use xlink:href="#DejaVuSans-20" transform="translate(1261.238281 0)"/>
     <use xlink:href="#DejaVuSans-51" transform="translate(1293.025391 0)"/>
     <use xlink:href="#DejaVuSans-3d" transform="translate(1371.736328 0)"/>
     <use xlink:href="#DejaVuSans-31" transform="translate(1455.525391 0)"/>
     <use xlink:href="#DejaVuSans-37" transform="translate(1519.148438 0)"/>
     <use xlink:href="#DejaVuSans-2e" transform="translate(1582.771484 0)"/>
     <use xlink:href="#DejaVuSans-32" transform="translate(1614.558594 0)"/>
     <use xlink:href="#DejaVuSans-38" transform="translate(1678.181641 0)"/>
     <use xlink:href="#DejaVuSans-29" transform="translate(1741.804688 0)"/>
    </g>
   </g>
  </g>
 </g>
 <defs>
  <clipPath id="p80b2621755">
   <rect x="57.6" y="41.472" width="357.12" height="266.112"/>
  </clipPath>
 </defs>
</svg>
