<?xml version="1.0" encoding="utf-8" standalone="no"?>
<!DOCTYPE svg PUBLIC "-//W3C//DTD SVG 1.1//EN"
  "http://www.w3.org/Graphics/SVG/1.1/DTD/svg11.dtd">
<svg xmlns:xlink="http://www.w3.org/1999/xlink" width="460.8pt" height="345.6pt" viewBox="0 0 460.8 345.6" xmlns="http://www.w3.org/2000/svg" version="1.1">
 <metadata>
  <rdf:RDF xmlns:dc="http://purl.org/dc/elements/1.1/" xmlns:cc="http://creativecommons.org/ns#" xmlns:rdf="http://www.w3.org/1999/02/22-rdf-syntax-ns#">
   <cc:Work>
    <dc:type rdf:resource="http://purl.org/dc/dcmitype/StillImage"/>
    <dc:date>2025-12-10T15:23:37.120780</dc:date>
    <dc:format>image/svg+xml</dc:format>
    <dc:creator>
     <cc:Agent>
      <dc:title>Matplotlib v3.10.3, https://matplotlib.org/</dc:title>
     </cc:Agent>
    </dc:creator>
   </cc:Work>
  </rdf:RDF>
 </metadata>
 <defs>
  <style type="text/css">*{stroke-linejoin: round; stroke-linecap: butt}</style>
 </defs>
 <g id="figure_1">
  <g id="patch_1">
   <path d="M 0 345.6 
L 460.8 345.6 
L 460.8 0 
L 0 0 
z
" style="fill: #ffffff"/>
  </g>
  <g id="axes_1">
   <g id="patch_2">
    <path d="M 57.6 307.584 
L 414.72 307.584 
L 414.72 41.472 
L 57.6 41.472 
z
" style="fill: #ffffff"/>
   </g>
   <g id="matplotlib.axis_1">
    <g id="xtick_1">
     <g id="line2d_1">
      <defs>
       <path id="mf3bd5ba274" d="M 0 0 
L 0 3.5 
" style="stroke: #000000; stroke-width: 0.8"/>
      </defs>
      <g>
       <use xlink:href="#mf3bd5ba274" x="73.832727" y="307.584" style="stroke: #000000; stroke-width: 0.8"/>
      </g>
     </g>
     <g id="text_1">
      <!-- 0 -->
      <g transform="translate(69.060852 325.981656) scale(0.15 -0.15)">
       <defs>
        <path id="DejaVuSans-30" d="M 2034 4250 
Q 1547 4250 1301 3770 
Q 1056 3291 1056 2328 
Q 1056 1369 1301 889 
Q 1547 409 2034 409 
Q 2525 409 2770 889 
Q 3016 1369 3016 2328 
Q 3016 3291 2770 3770 
Q 2525 4250 2034 4250 
z
M 2034 4750 
Q 2819 4750 3233 4129 
Q 3647 3509 3647 2328 
Q 3647 1150 3233 529 
Q 2819 -91 2034 -91 
Q 1250 -91 836 529 
Q 422 1150 422 2328 
Q 422 3509 836 4129 
Q 1250 4750 2034 4750 
z
" transform="scale(0.015625)"/>
       </defs>
       <use xlink:href="#DejaVuSans-30"/>
      </g>
     </g>
    </g>
    <g id="xtick_2">
     <g id="line2d_2">
      <g>
       <use xlink:href="#mf3bd5ba274" x="164.014545" y="307.584" style="stroke: #000000; stroke-width: 0.8"/>
      </g>
     </g>
     <g id="text_2">
      <!-- 50 -->
      <g transform="translate(154.470795 325.981656) scale(0.15 -0.15)">
       <defs>
        <path id="DejaVuSans-35" d="M 691 4666 
L 3169 4666 
L 3169 4134 
L 1269 4134 
L 1269 2991 
Q 1406 3038 1543 3061 
Q 1681 3084 1819 3084 
Q 2600 3084 3056 2656 
Q 3513 2228 3513 1497 
Q 3513 744 3044 326 
Q 2575 -91 1722 -91 
Q 1428 -91 1123 -41 
Q 819 9 494 109 
L 494 744 
Q 775 591 1075 516 
Q 1375 441 1709 441 
Q 2250 441 2565 725 
Q 2881 1009 2881 1497 
Q 2881 1984 2565 2268 
Q 2250 2553 1709 2553 
Q 1456 2553 1204 2497 
Q 953 2441 691 2322 
L 691 4666 
z
" transform="scale(0.015625)"/>
       </defs>
       <use xlink:href="#DejaVuSans-35"/>
       <use xlink:href="#DejaVuSans-30" transform="translate(63.623047 0)"/>
      </g>
     </g>
    </g>
    <g id="xtick_3">
     <g id="line2d_3">
      <g>
       <use xlink:href="#mf3bd5ba274" x="254.196364" y="307.584" style="stroke: #000000; stroke-width: 0.8"/>
      </g>
     </g>
     <g id="text_3">
      <!-- 100 -->
      <g transform="translate(239.880739 325.981656) scale(0.15 -0.15)">
       <defs>
        <path id="DejaVuSans-31" d="M 794 531 
L 1825 531 
L 1825 4091 
L 703 3866 
L 703 4441 
L 1819 4666 
L 2450 4666 
L 2450 531 
L 3481 531 
L 3481 0 
L 794 0 
L 794 531 
z
" transform="scale(0.015625)"/>
       </defs>
       <use xlink:href="#DejaVuSans-31"/>
       <use xlink:href="#DejaVuSans-30" transform="translate(63.623047 0)"/>
       <use xlink:href="#DejaVuSans-30" transform="translate(127.246094 0)"/>
      </g>
     </g>
    </g>
    <g id="xtick_4">
     <g id="line2d_4">
      <g>
       <use xlink:href="#mf3bd5ba274" x="344.378182" y="307.584" style="stroke: #000000; stroke-width: 0.8"/>
      </g>
     </g>
     <g id="text_4">
      <!-- 150 -->
      <g transform="translate(330.062557 325.981656) scale(0.15 -0.15)">
       <use xlink:href="#DejaVuSans-31"/>
       <use xlink:href="#DejaVuSans-35" transform="translate(63.623047 0)"/>
       <use xlink:href="#DejaVuSans-30" transform="translate(127.246094 0)"/>
      </g>
     </g>
    </g>
   </g>
   <g id="matplotlib.axis_2">
    <g id="ytick_1">
     <g id="line2d_5">
      <defs>
       <path id="m550907d2af" d="M 0 0 
L -3.5 0 
" style="stroke: #000000; stroke-width: 0.8"/>
      </defs>
      <g>
       <use xlink:href="#m550907d2af" x="57.6" y="286.385919" style="stroke: #000000; stroke-width: 0.8"/>
      </g>
     </g>
     <g id="text_5">
      <!-- 20 -->
      <g transform="translate(31.5125 292.084748) scale(0.15 -0.15)">
       <defs>
        <path id="DejaVuSans-32" d="M 1228 531 
L 3431 531 
L 3431 0 
L 469 0 
L 469 531 
Q 828 903 1448 1529 
Q 2069 2156 2228 2338 
Q 2531 2678 2651 2914 
Q 2772 3150 2772 3378 
Q 2772 3750 2511 3984 
Q 2250 4219 1831 4219 
Q 1534 4219 1204 4116 
Q 875 4013 500 3803 
L 500 4441 
Q 881 4594 1212 4672 
Q 1544 4750 1819 4750 
Q 2544 4750 2975 4387 
Q 3406 4025 3406 3419 
Q 3406 3131 3298 2873 
Q 3191 2616 2906 2266 
Q 2828 2175 2409 1742 
Q 1991 1309 1228 531 
z
" transform="scale(0.015625)"/>
       </defs>
       <use xlink:href="#DejaVuSans-32"/>
       <use xlink:href="#DejaVuSans-30" transform="translate(63.623047 0)"/>
      </g>
     </g>
    </g>
    <g id="ytick_2">
     <g id="line2d_6">
      <g>
       <use xlink:href="#m550907d2af" x="57.6" y="252.654338" style="stroke: #000000; stroke-width: 0.8"/>
      </g>
     </g>
     <g id="text_6">
      <!-- 25 -->
      <g transform="translate(31.5125 258.353166) scale(0.15 -0.15)">
       <use xlink:href="#DejaVuSans-32"/>
       <use xlink:href="#DejaVuSans-35" transform="translate(63.623047 0)"/>
      </g>
     </g>
    </g>
    <g id="ytick_3">
     <g id="line2d_7">
      <g>
       <use xlink:href="#m550907d2af" x="57.6" y="218.922756" style="stroke: #000000; stroke-width: 0.8"/>
      </g>
     </g>
     <g id="text_7">
      <!-- 30 -->
      <g transform="translate(31.5125 224.621584) scale(0.15 -0.15)">
       <defs>
        <path id="DejaVuSans-33" d="M 2597 2516 
Q 3050 2419 3304 2112 
Q 3559 1806 3559 1356 
Q 3559 666 3084 287 
Q 2609 -91 1734 -91 
Q 1441 -91 1130 -33 
Q 819 25 488 141 
L 488 750 
Q 750 597 1062 519 
Q 1375 441 1716 441 
Q 2309 441 2620 675 
Q 2931 909 2931 1356 
Q 2931 1769 2642 2001 
Q 2353 2234 1838 2234 
L 1294 2234 
L 1294 2753 
L 1863 2753 
Q 2328 2753 2575 2939 
Q 2822 3125 2822 3475 
Q 2822 3834 2567 4026 
Q 2313 4219 1838 4219 
Q 1578 4219 1281 4162 
Q 984 4106 628 3988 
L 628 4550 
Q 988 4650 1302 4700 
Q 1616 4750 1894 4750 
Q 2613 4750 3031 4423 
Q 3450 4097 3450 3541 
Q 3450 3153 3228 2886 
Q 3006 2619 2597 2516 
z
" transform="scale(0.015625)"/>
       </defs>
       <use xlink:href="#DejaVuSans-33"/>
       <use xlink:href="#DejaVuSans-30" transform="translate(63.623047 0)"/>
      </g>
     </g>
    </g>
    <g id="ytick_4">
     <g id="line2d_8">
      <g>
       <use xlink:href="#m550907d2af" x="57.6" y="185.191174" style="stroke: #000000; stroke-width: 0.8"/>
      </g>
     </g>
     <g id="text_8">
      <!-- 35 -->
      <g transform="translate(31.5125 190.890002) scale(0.15 -0.15)">
       <use xlink:href="#DejaVuSans-33"/>
       <use xlink:href="#DejaVuSans-35" transform="translate(63.623047 0)"/>
      </g>
     </g>
    </g>
    <g id="ytick_5">
     <g id="line2d_9">
      <g>
       <use xlink:href="#m550907d2af" x="57.6" y="151.459592" style="stroke: #000000; stroke-width: 0.8"/>
      </g>
     </g>
     <g id="text_9">
      <!-- 40 -->
      <g transform="translate(31.5125 157.15842) scale(0.15 -0.15)">
       <defs>
        <path id="DejaVuSans-34" d="M 2419 4116 
L 825 1625 
L 2419 1625 
L 2419 4116 
z
M 2253 4666 
L 3047 4666 
L 3047 1625 
L 3713 1625 
L 3713 1100 
L 3047 1100 
L 3047 0 
L 2419 0 
L 2419 1100 
L 313 1100 
L 313 1709 
L 2253 4666 
z
" transform="scale(0.015625)"/>
       </defs>
       <use xlink:href="#DejaVuSans-34"/>
       <use xlink:href="#DejaVuSans-30" transform="translate(63.623047 0)"/>
      </g>
     </g>
    </g>
    <g id="ytick_6">
     <g id="line2d_10">
      <g>
       <use xlink:href="#m550907d2af" x="57.6" y="117.72801" style="stroke: #000000; stroke-width: 0.8"/>
      </g>
     </g>
     <g id="text_10">
      <!-- 45 -->
      <g transform="translate(31.5125 123.426838) scale(0.15 -0.15)">
       <use xlink:href="#DejaVuSans-34"/>
       <use xlink:href="#DejaVuSans-35" transform="translate(63.623047 0)"/>
      </g>
     </g>
    </g>
    <g id="ytick_7">
     <g id="line2d_11">
      <g>
       <use xlink:href="#m550907d2af" x="57.6" y="83.996428" style="stroke: #000000; stroke-width: 0.8"/>
      </g>
     </g>
     <g id="text_11">
      <!-- 50 -->
      <g transform="translate(31.5125 89.695256) scale(0.15 -0.15)">
       <use xlink:href="#DejaVuSans-35"/>
       <use xlink:href="#DejaVuSans-30" transform="translate(63.623047 0)"/>
      </g>
     </g>
    </g>
    <g id="ytick_8">
     <g id="line2d_12">
      <g>
       <use xlink:href="#m550907d2af" x="57.6" y="50.264846" style="stroke: #000000; stroke-width: 0.8"/>
      </g>
     </g>
     <g id="text_12">
      <!-- 55 -->
      <g transform="translate(31.5125 55.963674) scale(0.15 -0.15)">
       <use xlink:href="#DejaVuSans-35"/>
       <use xlink:href="#DejaVuSans-35" transform="translate(63.623047 0)"/>
      </g>
     </g>
    </g>
   </g>
   <g id="line2d_13">
    <path d="M 73.832727 118.784335 
L 75.636364 87.825994 
L 77.44 53.568 
L 79.243636 120.674859 
L 81.047273 129.44808 
L 82.850909 133.824826 
L 84.654545 170.190723 
L 86.458182 188.618072 
L 88.261818 223.048333 
L 90.065455 225.479253 
L 91.869091 202.833143 
L 93.672727 183.888713 
L 95.476364 243.427312 
L 97.28 203.597691 
L 99.083636 194.393974 
L 100.887273 231.870494 
L 102.690909 200.880575 
L 104.494545 242.576968 
L 106.298182 236.955612 
L 108.101818 203.281884 
L 109.905455 236.565764 
L 111.709091 198.490521 
L 113.512727 186.655627 
L 115.316364 173.134863 
L 117.12 164.30721 
L 118.923636 136.133871 
L 120.727273 156.541734 
L 122.530909 180.06337 
L 124.334545 170.702562 
L 126.138182 146.173561 
L 127.941818 175.985413 
L 129.745455 189.704274 
L 131.549091 194.574668 
L 133.352727 109.740385 
L 135.156364 192.517567 
L 136.96 135.109857 
L 138.763636 131.787689 
L 140.567273 132.90608 
L 142.370909 138.207005 
L 144.174545 199.474944 
L 145.978182 182.772642 
L 147.781818 163.041997 
L 149.585455 194.401837 
L 151.389091 146.535402 
L 153.192727 173.888861 
L 154.996364 211.69214 
L 156.8 219.787409 
L 158.603636 133.432212 
L 160.407273 181.81394 
L 162.210909 208.259325 
L 164.014545 148.369989 
L 165.818182 161.741999 
L 167.621818 208.807934 
L 169.425455 165.843802 
L 171.229091 190.825461 
L 173.032727 130.490134 
L 174.836364 157.818885 
L 176.64 173.683771 
L 178.443636 137.577102 
L 180.247273 189.459346 
L 182.050909 202.86672 
L 183.854545 157.670715 
L 185.658182 180.518954 
L 187.461818 183.248259 
L 189.265455 179.46487 
L 191.069091 200.701076 
L 192.872727 183.573971 
L 194.676364 160.286412 
L 196.48 161.523923 
L 198.283636 188.918804 
L 200.087273 181.559614 
L 201.890909 179.162698 
L 203.694545 149.766141 
L 205.498182 184.494621 
L 207.301818 188.944135 
L 209.105455 144.13065 
L 210.909091 215.772483 
L 212.712727 165.078245 
L 214.516364 216.423654 
L 216.32 205.324305 
L 218.123636 119.638327 
L 221.730909 155.143324 
L 223.534545 177.4306 
L 225.338182 163.654021 
L 227.141818 175.172571 
L 228.945455 131.020645 
L 230.749091 118.642505 
L 232.552727 246.717992 
L 234.356364 189.518222 
L 236.16 166.306952 
L 237.963636 160.098629 
L 239.767273 198.426533 
L 241.570909 186.836777 
L 243.374545 160.54502 
L 245.178182 168.551885 
L 246.981818 195.744964 
L 248.785455 200.302138 
L 250.589091 219.238136 
L 252.392727 201.537469 
L 254.196364 130.722816 
L 256 152.15621 
L 257.803636 180.182628 
L 259.607273 129.562155 
L 261.410909 160.618455 
L 263.214545 187.822754 
L 265.018182 163.415827 
L 266.821818 124.217819 
L 268.625455 137.962351 
L 270.429091 119.01218 
L 272.232727 242.382705 
L 274.036364 126.424916 
L 275.84 175.998609 
L 277.643636 232.009557 
L 279.447273 168.082033 
L 281.250909 185.012809 
L 283.054545 175.105828 
L 284.858182 182.276311 
L 286.661818 178.830952 
L 288.465455 143.883544 
L 290.269091 194.696442 
L 292.072727 207.610173 
L 293.876364 169.289836 
L 295.68 197.746735 
L 297.483636 166.808604 
L 299.287273 197.920125 
L 301.090909 189.451556 
L 302.894545 122.830808 
L 304.698182 184.34046 
L 306.501818 141.840345 
L 308.305455 200.023311 
L 310.109091 160.976716 
L 311.912727 138.472215 
L 313.716364 142.123037 
L 315.52 163.041281 
L 317.323636 204.404835 
L 319.127273 169.022519 
L 320.930909 160.82067 
L 322.734545 166.877241 
L 324.538182 212.861372 
L 326.341818 176.469317 
L 328.145455 186.3904 
L 329.949091 164.796405 
L 331.752727 144.820417 
L 333.556364 175.529574 
L 335.36 144.305354 
L 337.163636 144.377633 
L 338.967273 146.400093 
L 340.770909 161.148856 
L 342.574545 164.129788 
L 344.378182 179.019369 
L 346.181818 199.913621 
L 347.985455 183.692252 
L 349.789091 182.615478 
L 351.592727 125.287648 
L 353.396364 103.351594 
L 355.2 156.143707 
L 357.003636 184.042854 
L 358.807273 168.258546 
L 360.610909 184.205642 
L 362.414545 128.088123 
L 364.218182 149.029367 
L 366.021818 216.107828 
L 367.825455 230.870199 
L 369.629091 217.192446 
L 371.432727 130.25087 
L 373.236364 200.771679 
L 375.04 183.056896 
L 376.843636 179.779642 
L 378.647273 223.211856 
L 380.450909 198.149271 
L 382.254545 210.955781 
L 384.058182 102.362056 
L 385.861818 117.103622 
L 387.665455 200.514163 
L 389.469091 196.163882 
L 391.272727 187.054918 
L 393.076364 195.564002 
L 394.88 205.948386 
L 396.683636 193.70675 
L 398.487273 67.391052 
L 398.487273 67.391052 
" clip-path="url(#p546f7e732e)" style="fill: none; stroke: #90d743; stroke-opacity: 0.5; stroke-width: 1.5; stroke-linecap: square"/>
   </g>
   <g id="line2d_14">
    <path d="M 73.832727 204.021622 
L 75.636364 210.329619 
L 77.44 222.336219 
L 79.243636 221.311026 
L 81.047273 204.220044 
L 82.850909 221.889795 
L 84.654545 212.346749 
L 86.458182 242.470953 
L 88.261818 248.500575 
L 90.065455 264.544482 
L 91.869091 262.737718 
L 93.672727 282.86091 
L 95.476364 246.321165 
L 97.28 112.913065 
L 99.083636 205.152542 
L 100.887273 165.716785 
L 102.690909 153.201109 
L 104.494545 196.664 
L 106.298182 177.488829 
L 108.101818 221.193765 
L 109.905455 156.200353 
L 111.709091 104.065757 
L 113.512727 192.80338 
L 115.316364 201.252783 
L 117.12 222.041442 
L 118.923636 234.679463 
L 120.727273 227.092932 
L 122.530909 221.522547 
L 124.334545 201.540329 
L 126.138182 190.527766 
L 127.941818 181.05428 
L 129.745455 228.509959 
L 131.549091 200.450604 
L 133.352727 205.251106 
L 135.156364 254.774715 
L 136.96 246.445499 
L 138.763636 240.097444 
L 140.567273 266.761196 
L 142.370909 225.746558 
L 144.174545 211.339925 
L 145.978182 228.029824 
L 147.781818 248.987045 
L 149.585455 218.993157 
L 151.389091 229.189167 
L 153.192727 250.301214 
L 154.996364 229.788801 
L 156.8 224.438705 
L 158.603636 255.187295 
L 160.407273 210.393034 
L 162.210909 238.663027 
L 164.014545 240.428651 
L 165.818182 237.831981 
L 167.621818 222.319106 
L 169.425455 251.681486 
L 171.229091 217.599206 
L 173.032727 244.341609 
L 174.836364 255.318585 
L 176.64 223.525015 
L 178.443636 237.77868 
L 180.247273 216.640067 
L 182.050909 200.375912 
L 183.854545 237.036825 
L 185.658182 250.284712 
L 187.461818 204.633458 
L 189.265455 243.814918 
L 191.069091 203.942452 
L 192.872727 219.889486 
L 194.676364 230.876344 
L 196.48 233.833734 
L 198.283636 202.247225 
L 200.087273 223.249688 
L 201.890909 235.599494 
L 203.694545 208.28133 
L 205.498182 240.659494 
L 207.301818 229.368382 
L 209.105455 238.604572 
L 210.909091 191.808459 
L 212.712727 222.772398 
L 214.516364 202.382248 
L 216.32 215.228654 
L 218.123636 240.030324 
L 219.927273 215.297993 
L 221.730909 230.087044 
L 223.534545 224.132011 
L 225.338182 220.100133 
L 228.945455 232.123004 
L 230.749091 257.093841 
L 232.552727 242.553459 
L 234.356364 234.661388 
L 236.16 227.884771 
L 237.963636 224.400406 
L 239.767273 259.622759 
L 241.570909 210.950072 
L 243.374545 258.319128 
L 245.178182 201.16879 
L 246.981818 127.94587 
L 248.785455 142.141491 
L 250.589091 118.648563 
L 252.392727 166.181192 
L 254.196364 129.171472 
L 256 134.458766 
L 257.803636 115.051351 
L 259.607273 157.45212 
L 261.410909 147.111083 
L 263.214545 80.759352 
L 265.018182 199.711223 
L 266.821818 142.578496 
L 268.625455 146.734545 
L 270.429091 148.459554 
L 272.232727 180.167597 
L 274.036364 192.324179 
L 275.84 128.114388 
L 277.643636 157.541906 
L 279.447273 133.487715 
L 281.250909 160.377294 
L 283.054545 132.779357 
L 284.858182 180.670522 
L 286.661818 164.023575 
L 288.465455 94.444544 
L 290.269091 162.826011 
L 292.072727 165.634589 
L 293.876364 157.499569 
L 295.68 166.172472 
L 297.483636 108.743943 
L 299.287273 178.427605 
L 301.090909 172.546933 
L 302.894545 140.228741 
L 304.698182 134.159931 
L 306.501818 165.418147 
L 308.305455 123.205244 
L 310.109091 112.152755 
L 313.716364 176.0443 
L 315.52 180.170223 
L 317.323636 172.030806 
L 319.127273 145.207914 
L 320.930909 154.676376 
L 322.734545 216.860003 
L 324.538182 190.424322 
L 326.341818 185.062852 
L 328.145455 180.059499 
L 329.949091 194.492353 
L 331.752727 217.32913 
L 333.556364 236.127202 
L 335.36 233.760459 
L 337.163636 267.571527 
L 338.967273 264.685592 
L 340.770909 245.11771 
L 342.574545 198.411238 
L 344.378182 225.745077 
L 346.181818 227.209934 
L 347.985455 204.217088 
L 349.789091 208.702512 
L 351.592727 227.068807 
L 353.396364 232.9304 
L 355.2 237.57188 
L 357.003636 263.867664 
L 358.807273 243.265901 
L 360.610909 241.529109 
L 362.414545 253.315376 
L 367.825455 189.031445 
L 369.629091 217.421398 
L 371.432727 238.439507 
L 373.236364 255.484686 
L 375.04 260.111759 
L 376.843636 224.261224 
L 378.647273 200.277871 
L 380.450909 197.133356 
L 382.254545 227.371129 
L 384.058182 245.188456 
L 385.861818 215.545504 
L 387.665455 216.144069 
L 389.469091 209.037195 
L 391.272727 237.425413 
L 393.076364 228.275899 
L 394.88 206.221133 
L 396.683636 219.244834 
L 398.487273 230.029038 
L 398.487273 230.029038 
" clip-path="url(#p546f7e732e)" style="fill: none; stroke: #90d743; stroke-opacity: 0.5; stroke-width: 1.5; stroke-linecap: square"/>
   </g>
   <g id="line2d_15">
    <path d="M 73.832727 109.665623 
L 75.636364 77.294362 
L 77.44 160.179654 
L 79.243636 135.175196 
L 81.047273 169.250344 
L 82.850909 160.183416 
L 84.654545 172.967644 
L 86.458182 194.538235 
L 88.261818 222.023374 
L 90.065455 157.96233 
L 91.869091 192.482244 
L 93.672727 220.662478 
L 95.476364 196.457697 
L 97.28 165.289912 
L 99.083636 173.83912 
L 100.887273 214.928094 
L 102.690909 179.608029 
L 104.494545 185.455646 
L 106.298182 208.822634 
L 108.101818 187.017836 
L 109.905455 189.391473 
L 111.709091 209.454736 
L 113.512727 195.43356 
L 115.316364 156.289011 
L 117.12 186.064244 
L 118.923636 204.636567 
L 120.727273 172.574951 
L 122.530909 228.992428 
L 124.334545 220.59267 
L 126.138182 219.666515 
L 127.941818 174.978528 
L 129.745455 223.780044 
L 131.549091 196.224097 
L 133.352727 204.592168 
L 135.156364 186.225614 
L 136.96 156.197859 
L 138.763636 195.292491 
L 140.567273 169.586386 
L 142.370909 201.366134 
L 144.174545 150.532122 
L 145.978182 233.04708 
L 147.781818 191.052221 
L 149.585455 211.579763 
L 151.389091 167.746841 
L 153.192727 198.436039 
L 154.996364 203.128498 
L 156.8 218.835069 
L 158.603636 145.870494 
L 160.407273 184.128259 
L 162.210909 225.871177 
L 164.014545 191.067452 
L 165.818182 183.186749 
L 167.621818 213.729826 
L 169.425455 182.068421 
L 171.229091 191.106808 
L 173.032727 189.662066 
L 174.836364 202.539264 
L 176.64 221.427102 
L 178.443636 198.143312 
L 180.247273 209.175954 
L 182.050909 176.731495 
L 183.854545 190.831569 
L 185.658182 172.004246 
L 187.461818 199.23425 
L 189.265455 182.294334 
L 192.872727 208.038464 
L 196.48 183.266756 
L 198.283636 169.391039 
L 200.087273 250.816715 
L 201.890909 214.54759 
L 203.694545 241.830817 
L 205.498182 230.899812 
L 207.301818 236.163739 
L 209.105455 222.84993 
L 210.909091 208.162172 
L 212.712727 199.652182 
L 214.516364 186.151219 
L 216.32 208.137171 
L 218.123636 198.004178 
L 219.927273 238.245236 
L 221.730909 228.285675 
L 223.534545 203.182618 
L 225.338182 244.896385 
L 227.141818 224.960096 
L 228.945455 166.364005 
L 230.749091 198.874653 
L 232.552727 224.280952 
L 234.356364 187.450673 
L 236.16 201.157654 
L 237.963636 131.314456 
L 239.767273 250.18126 
L 241.570909 244.750695 
L 243.374545 251.042 
L 245.178182 221.074253 
L 246.981818 181.578125 
L 248.785455 267.741321 
L 250.589091 219.985391 
L 252.392727 226.665207 
L 254.196364 223.228738 
L 256 214.341619 
L 257.803636 240.150249 
L 259.607273 207.574751 
L 261.410909 216.284396 
L 263.214545 180.972609 
L 265.018182 205.867702 
L 266.821818 193.843855 
L 268.625455 213.214671 
L 270.429091 210.475399 
L 272.232727 197.634422 
L 274.036364 206.762649 
L 275.84 239.684593 
L 277.643636 235.152582 
L 279.447273 197.116771 
L 281.250909 245.250121 
L 283.054545 203.439907 
L 284.858182 234.944575 
L 286.661818 235.862092 
L 288.465455 209.440391 
L 290.269091 249.936615 
L 292.072727 258.735837 
L 293.876364 173.333483 
L 295.68 159.461161 
L 297.483636 186.474206 
L 299.287273 206.875866 
L 301.090909 237.811758 
L 302.894545 204.017375 
L 304.698182 222.716735 
L 306.501818 210.340213 
L 308.305455 194.948204 
L 310.109091 175.570918 
L 311.912727 234.825461 
L 313.716364 225.917651 
L 315.52 233.672536 
L 317.323636 219.943898 
L 319.127273 152.471174 
L 320.930909 235.848736 
L 322.734545 260.694428 
L 324.538182 196.243403 
L 326.341818 213.839968 
L 328.145455 214.630945 
L 331.752727 174.494789 
L 333.556364 249.878498 
L 335.36 259.202652 
L 337.163636 219.586958 
L 338.967273 216.403595 
L 340.770909 203.42052 
L 342.574545 184.296549 
L 344.378182 188.968792 
L 346.181818 157.560746 
L 347.985455 171.863479 
L 349.789091 135.971034 
L 351.592727 204.849039 
L 353.396364 211.387172 
L 355.2 204.152921 
L 357.003636 174.773307 
L 358.807273 234.205538 
L 360.610909 234.856854 
L 362.414545 211.9791 
L 364.218182 260.015443 
L 366.021818 188.41813 
L 367.825455 242.514652 
L 369.629091 233.821164 
L 371.432727 204.667987 
L 373.236364 246.963031 
L 375.04 202.226673 
L 378.647273 234.300079 
L 380.450909 155.602203 
L 382.254545 216.473537 
L 384.058182 232.236749 
L 385.861818 192.909481 
L 387.665455 185.293866 
L 389.469091 169.182364 
L 391.272727 233.91707 
L 393.076364 233.645395 
L 394.88 238.865319 
L 396.683636 240.225029 
L 398.487273 263.840051 
L 398.487273 263.840051 
" clip-path="url(#p546f7e732e)" style="fill: none; stroke: #90d743; stroke-opacity: 0.5; stroke-width: 1.5; stroke-linecap: square"/>
   </g>
   <g id="line2d_16">
    <path d="M 73.832727 244.935964 
L 75.636364 200.049421 
L 77.44 96.946361 
L 79.243636 109.542029 
L 81.047273 163.318785 
L 82.850909 136.349273 
L 84.654545 99.790691 
L 86.458182 167.523423 
L 88.261818 108.004836 
L 90.065455 192.093397 
L 91.869091 184.483723 
L 93.672727 214.023208 
L 95.476364 240.005674 
L 97.28 258.937369 
L 99.083636 226.306144 
L 100.887273 201.460895 
L 102.690909 235.078644 
L 104.494545 256.66206 
L 106.298182 225.781941 
L 108.101818 222.542381 
L 109.905455 220.564098 
L 111.709091 230.686088 
L 113.512727 229.99907 
L 115.316364 218.941529 
L 117.12 179.81726 
L 118.923636 181.754149 
L 120.727273 184.228706 
L 122.530909 240.391619 
L 124.334545 147.159073 
L 126.138182 151.402328 
L 127.941818 146.897751 
L 129.745455 193.529147 
L 131.549091 114.768629 
L 133.352727 128.97591 
L 135.156364 189.342359 
L 136.96 163.077442 
L 138.763636 196.59228 
L 140.567273 174.019349 
L 142.370909 161.332553 
L 144.174545 150.462754 
L 145.978182 160.117361 
L 147.781818 157.60191 
L 149.585455 156.940546 
L 151.389091 184.600184 
L 153.192727 182.254212 
L 154.996364 237.516694 
L 156.8 268.576686 
L 158.603636 253.026282 
L 160.407273 224.894443 
L 162.210909 250.712947 
L 164.014545 249.267544 
L 165.818182 260.217831 
L 167.621818 229.854808 
L 169.425455 246.014172 
L 171.229091 231.194618 
L 173.032727 228.08574 
L 174.836364 251.442293 
L 176.64 221.843684 
L 178.443636 243.857131 
L 180.247273 223.266894 
L 182.050909 208.435713 
L 183.854545 201.772958 
L 185.658182 225.614246 
L 187.461818 226.739555 
L 189.265455 219.830961 
L 191.069091 226.323806 
L 192.872727 201.603067 
L 194.676364 171.378389 
L 196.48 245.106967 
L 198.283636 251.063017 
L 200.087273 188.051444 
L 201.890909 238.0427 
L 203.694545 223.335188 
L 205.498182 235.285817 
L 207.301818 225.057297 
L 209.105455 255.316997 
L 210.909091 239.737675 
L 212.712727 222.61263 
L 214.516364 254.491893 
L 216.32 226.935592 
L 218.123636 254.383358 
L 219.927273 237.554978 
L 221.730909 247.57637 
L 223.534545 221.091591 
L 225.338182 206.197776 
L 227.141818 227.006146 
L 228.945455 238.138784 
L 230.749091 225.778832 
L 232.552727 203.008464 
L 234.356364 247.902232 
L 236.16 234.101003 
L 237.963636 253.522785 
L 239.767273 215.595144 
L 241.570909 226.711933 
L 243.374545 258.10149 
L 245.178182 236.880544 
L 246.981818 230.754688 
L 248.785455 233.589178 
L 250.589091 249.765381 
L 252.392727 250.504429 
L 254.196364 226.463641 
L 256 215.022603 
L 257.803636 240.061453 
L 259.607273 195.191094 
L 261.410909 222.721028 
L 263.214545 216.630737 
L 265.018182 227.639942 
L 266.821818 239.385842 
L 268.625455 225.241834 
L 270.429091 223.673105 
L 272.232727 263.389221 
L 274.036364 234.186496 
L 275.84 224.015182 
L 277.643636 231.81821 
L 279.447273 237.195384 
L 281.250909 231.895863 
L 283.054545 242.866952 
L 284.858182 238.820938 
L 286.661818 239.473287 
L 288.465455 217.094681 
L 290.269091 220.555904 
L 292.072727 232.53927 
L 293.876364 246.014686 
L 295.68 250.437225 
L 297.483636 254.03664 
L 299.287273 225.412995 
L 301.090909 231.194028 
L 302.894545 206.16787 
L 304.698182 232.625146 
L 306.501818 238.482085 
L 308.305455 198.400148 
L 310.109091 236.461003 
L 311.912727 208.171437 
L 313.716364 245.276978 
L 315.52 232.006242 
L 317.323636 215.539845 
L 319.127273 249.113269 
L 320.930909 251.235042 
L 322.734545 261.869893 
L 324.538182 262.30723 
L 326.341818 264.831978 
L 328.145455 250.133923 
L 329.949091 261.991885 
L 331.752727 254.405167 
L 333.556364 212.164934 
L 335.36 213.307203 
L 337.163636 232.773678 
L 338.967273 187.785296 
L 340.770909 228.701106 
L 342.574545 240.457785 
L 344.378182 194.757294 
L 346.181818 211.90677 
L 349.789091 223.442572 
L 351.592727 213.962727 
L 353.396364 221.004691 
L 355.2 204.509465 
L 357.003636 214.374908 
L 358.807273 191.800519 
L 360.610909 218.371588 
L 362.414545 252.816205 
L 364.218182 148.401198 
L 366.021818 247.673403 
L 367.825455 259.815968 
L 369.629091 255.893781 
L 371.432727 249.180958 
L 373.236364 168.955229 
L 375.04 215.548828 
L 376.843636 157.150736 
L 378.647273 246.736388 
L 380.450909 258.864393 
L 382.254545 244.818697 
L 384.058182 263.208904 
L 385.861818 157.518215 
L 387.665455 168.226883 
L 389.469091 183.902272 
L 391.272727 189.62984 
L 393.076364 235.459587 
L 394.88 239.318616 
L 396.683636 259.606659 
L 398.487273 257.151273 
L 398.487273 257.151273 
" clip-path="url(#p546f7e732e)" style="fill: none; stroke: #90d743; stroke-opacity: 0.5; stroke-width: 1.5; stroke-linecap: square"/>
   </g>
   <g id="line2d_17">
    <path d="M 73.832727 140.532761 
L 75.636364 159.544606 
L 77.44 218.02539 
L 79.243636 229.260419 
L 81.047273 197.939322 
L 82.850909 219.820828 
L 84.654545 240.203164 
L 86.458182 236.112727 
L 88.261818 219.222847 
L 90.065455 230.739049 
L 91.869091 253.574444 
L 93.672727 286.417205 
L 95.476364 253.682376 
L 97.28 272.70179 
L 99.083636 277.858173 
L 100.887273 277.999377 
L 102.690909 260.198106 
L 104.494545 255.776793 
L 106.298182 241.432005 
L 108.101818 270.807888 
L 109.905455 256.352424 
L 111.709091 253.03335 
L 113.512727 222.735605 
L 115.316364 260.618213 
L 117.12 282.061346 
L 118.923636 257.279215 
L 120.727273 295.488 
L 122.530909 281.142294 
L 124.334545 277.943905 
L 126.138182 253.194256 
L 127.941818 267.369337 
L 129.745455 270.398342 
L 131.549091 265.157751 
L 133.352727 267.491054 
L 135.156364 260.721076 
L 136.96 253.286956 
L 138.763636 257.144255 
L 140.567273 291.033674 
L 142.370909 239.506117 
L 144.174545 286.474242 
L 145.978182 258.172826 
L 147.781818 265.222407 
L 149.585455 276.960163 
L 151.389091 269.548716 
L 153.192727 281.498903 
L 154.996364 271.193677 
L 156.8 254.284021 
L 158.603636 282.576393 
L 160.407273 238.333553 
L 162.210909 247.312757 
L 164.014545 261.341748 
L 167.621818 246.36125 
L 169.425455 259.309905 
L 171.229091 273.065042 
L 173.032727 238.107616 
L 174.836364 266.731895 
L 176.64 236.922283 
L 178.443636 227.628005 
L 180.247273 250.928099 
L 182.050909 223.445633 
L 183.854545 258.491957 
L 185.658182 230.533774 
L 187.461818 232.625049 
L 189.265455 226.870539 
L 191.069091 263.958654 
L 192.872727 239.832363 
L 194.676364 241.725525 
L 196.48 260.881221 
L 198.283636 260.627513 
L 200.087273 225.879731 
L 201.890909 215.252309 
L 203.694545 243.832821 
L 205.498182 249.161523 
L 207.301818 246.997887 
L 209.105455 257.204263 
L 210.909091 217.894753 
L 212.712727 222.987248 
L 214.516364 265.638244 
L 216.32 258.117458 
L 218.123636 243.352992 
L 219.927273 214.648706 
L 221.730909 273.64857 
L 223.534545 243.545473 
L 225.338182 248.2424 
L 227.141818 245.360264 
L 228.945455 239.548309 
L 230.749091 253.645861 
L 232.552727 256.482312 
L 234.356364 262.896671 
L 236.16 248.020753 
L 237.963636 248.907146 
L 239.767273 253.435822 
L 241.570909 239.132082 
L 243.374545 268.209893 
L 245.178182 235.597931 
L 246.981818 245.040385 
L 248.785455 259.144138 
L 250.589091 250.41649 
L 252.392727 227.532251 
L 254.196364 231.973513 
L 256 244.093024 
L 257.803636 240.121143 
L 259.607273 234.087252 
L 261.410909 226.794546 
L 265.018182 235.10417 
L 266.821818 250.926055 
L 268.625455 205.527594 
L 270.429091 229.779902 
L 272.232727 218.072782 
L 274.036364 258.906356 
L 275.84 187.558221 
L 277.643636 235.738155 
L 279.447273 262.10201 
L 281.250909 258.677552 
L 283.054545 229.04946 
L 284.858182 249.417979 
L 286.661818 233.734039 
L 288.465455 253.099297 
L 290.269091 242.083704 
L 292.072727 253.676655 
L 293.876364 242.087905 
L 295.68 251.107975 
L 297.483636 215.918658 
L 299.287273 224.474225 
L 301.090909 236.451584 
L 302.894545 242.409501 
L 304.698182 235.044063 
L 306.501818 212.109181 
L 308.305455 228.117998 
L 310.109091 230.121948 
L 311.912727 213.936051 
L 313.716364 245.443105 
L 315.52 227.795252 
L 317.323636 217.360485 
L 319.127273 249.885947 
L 320.930909 244.996339 
L 322.734545 246.105348 
L 324.538182 248.613853 
L 326.341818 187.389243 
L 328.145455 221.108877 
L 329.949091 259.665372 
L 331.752727 250.625129 
L 333.556364 267.166411 
L 335.36 264.873595 
L 337.163636 266.630019 
L 340.770909 216.80056 
L 342.574545 226.982833 
L 344.378182 236.36072 
L 346.181818 231.596414 
L 347.985455 241.118845 
L 349.789091 256.412164 
L 351.592727 219.218406 
L 353.396364 222.385673 
L 355.2 234.462469 
L 357.003636 241.838886 
L 358.807273 251.729648 
L 360.610909 241.700852 
L 362.414545 239.398055 
L 364.218182 221.064804 
L 366.021818 260.382546 
L 367.825455 269.457237 
L 369.629091 237.54172 
L 371.432727 272.731694 
L 373.236364 288.796732 
L 375.04 248.358789 
L 376.843636 255.44984 
L 378.647273 248.531337 
L 380.450909 246.76878 
L 382.254545 223.177951 
L 384.058182 223.068406 
L 385.861818 266.19766 
L 387.665455 245.631182 
L 389.469091 222.037531 
L 391.272727 256.202953 
L 393.076364 257.044896 
L 394.88 224.969499 
L 396.683636 244.214434 
L 398.487273 268.324794 
L 398.487273 268.324794 
" clip-path="url(#p546f7e732e)" style="fill: none; stroke: #90d743; stroke-opacity: 0.5; stroke-width: 1.5; stroke-linecap: square"/>
   </g>
   <g id="line2d_18">
    <path d="M 73.832727 206.956345 
L 75.636364 176.363288 
L 77.44 130.911827 
L 79.243636 134.54897 
L 81.047273 166.46633 
L 82.850909 192.162992 
L 84.654545 161.442816 
L 86.458182 198.097441 
L 88.261818 256.17606 
L 90.065455 222.263017 
L 91.869091 238.642751 
L 93.672727 247.656887 
L 95.476364 236.341136 
L 97.28 206.912229 
L 99.083636 227.407873 
L 100.887273 218.163788 
L 102.690909 227.478943 
L 104.494545 227.669306 
L 106.298182 182.269487 
L 108.101818 244.324535 
L 109.905455 252.661788 
L 111.709091 248.700514 
L 113.512727 253.963744 
L 115.316364 253.117657 
L 117.12 246.465194 
L 118.923636 210.666033 
L 120.727273 204.372039 
L 122.530909 222.073393 
L 124.334545 248.082398 
L 126.138182 235.476741 
L 127.941818 209.92637 
L 129.745455 217.973318 
L 131.549091 194.276831 
L 133.352727 194.407451 
L 136.96 265.984675 
L 138.763636 220.057358 
L 140.567273 262.413505 
L 142.370909 220.255326 
L 144.174545 246.712341 
L 145.978182 247.883095 
L 147.781818 235.330856 
L 149.585455 226.84179 
L 151.389091 232.774831 
L 153.192727 247.907123 
L 154.996364 238.278444 
L 156.8 225.652354 
L 158.603636 245.658791 
L 160.407273 230.39607 
L 162.210909 235.429178 
L 164.014545 206.386693 
L 165.818182 203.391831 
L 167.621818 235.505467 
L 169.425455 228.013451 
L 171.229091 240.848543 
L 173.032727 260.061272 
L 174.836364 241.655655 
L 176.64 240.676788 
L 178.443636 232.031553 
L 180.247273 231.648871 
L 182.050909 256.479411 
L 183.854545 202.828061 
L 185.658182 238.754517 
L 187.461818 250.720703 
L 189.265455 251.548738 
L 191.069091 236.375313 
L 192.872727 234.408162 
L 194.676364 230.832608 
L 196.48 251.899796 
L 198.283636 253.787038 
L 200.087273 220.962235 
L 201.890909 242.140482 
L 203.694545 239.240145 
L 205.498182 207.539493 
L 207.301818 196.656662 
L 209.105455 202.88542 
L 210.909091 254.826369 
L 212.712727 207.373717 
L 214.516364 225.437425 
L 216.32 208.679222 
L 218.123636 226.991005 
L 219.927273 229.492856 
L 221.730909 173.015189 
L 223.534545 254.810014 
L 225.338182 219.901536 
L 227.141818 242.896913 
L 228.945455 228.017559 
L 230.749091 228.351754 
L 232.552727 217.347092 
L 234.356364 217.701703 
L 236.16 213.459049 
L 237.963636 221.065952 
L 239.767273 238.604051 
L 241.570909 229.705058 
L 243.374545 223.250963 
L 245.178182 207.665146 
L 246.981818 210.331168 
L 248.785455 212.777708 
L 250.589091 260.602019 
L 252.392727 253.158164 
L 254.196364 212.906015 
L 256 214.598327 
L 257.803636 226.319059 
L 259.607273 211.450933 
L 261.410909 212.517634 
L 263.214545 254.100275 
L 265.018182 202.703004 
L 266.821818 252.187985 
L 268.625455 191.268998 
L 270.429091 245.025245 
L 272.232727 225.074557 
L 274.036364 229.571487 
L 275.84 223.692189 
L 277.643636 250.077161 
L 279.447273 220.403884 
L 281.250909 231.294565 
L 283.054545 228.933906 
L 284.858182 265.43119 
L 286.661818 228.894322 
L 288.465455 222.553617 
L 290.269091 246.124262 
L 292.072727 219.09704 
L 293.876364 230.445527 
L 295.68 223.657742 
L 297.483636 239.21609 
L 299.287273 202.34416 
L 301.090909 233.302652 
L 302.894545 229.820513 
L 304.698182 229.978725 
L 306.501818 220.337518 
L 308.305455 207.684723 
L 310.109091 178.522516 
L 311.912727 204.621818 
L 313.716364 187.031448 
L 315.52 240.887638 
L 317.323636 211.807361 
L 319.127273 233.184451 
L 320.930909 215.774929 
L 322.734545 206.701721 
L 324.538182 228.745315 
L 326.341818 230.497288 
L 328.145455 238.180869 
L 329.949091 244.943201 
L 331.752727 214.437139 
L 333.556364 222.027784 
L 335.36 161.632507 
L 337.163636 224.73471 
L 338.967273 236.962154 
L 340.770909 233.937934 
L 342.574545 263.188122 
L 344.378182 188.182849 
L 346.181818 210.485468 
L 347.985455 234.992336 
L 349.789091 219.32797 
L 351.592727 234.368071 
L 353.396364 176.888608 
L 355.2 168.989463 
L 357.003636 229.080006 
L 358.807273 188.916516 
L 360.610909 219.154422 
L 362.414545 228.372175 
L 364.218182 182.994501 
L 366.021818 213.896614 
L 367.825455 182.363957 
L 369.629091 192.641199 
L 371.432727 204.750382 
L 373.236364 213.020192 
L 375.04 151.726125 
L 376.843636 151.293446 
L 378.647273 207.95873 
L 380.450909 191.041339 
L 382.254545 213.201955 
L 384.058182 172.65071 
L 385.861818 233.067796 
L 387.665455 199.996722 
L 389.469091 200.156602 
L 391.272727 165.387439 
L 393.076364 186.910215 
L 394.88 202.100711 
L 396.683636 207.063835 
L 398.487273 185.705164 
L 398.487273 185.705164 
" clip-path="url(#p546f7e732e)" style="fill: none; stroke: #90d743; stroke-opacity: 0.5; stroke-width: 1.5; stroke-linecap: square"/>
   </g>
   <g id="patch_3">
    <path d="M 57.6 307.584 
L 57.6 41.472 
" style="fill: none; stroke: #000000; stroke-width: 3; stroke-linejoin: miter; stroke-linecap: square"/>
   </g>
   <g id="patch_4">
    <path d="M 414.72 307.584 
L 414.72 41.472 
" style="fill: none; stroke: #000000; stroke-width: 3; stroke-linejoin: miter; stroke-linecap: square"/>
   </g>
   <g id="patch_5">
    <path d="M 57.6 307.584 
L 414.72 307.584 
" style="fill: none; stroke: #000000; stroke-width: 3; stroke-linejoin: miter; stroke-linecap: square"/>
   </g>
   <g id="patch_6">
    <path d="M 57.6 41.472 
L 414.72 41.472 
" style="fill: none; stroke: #000000; stroke-width: 3; stroke-linejoin: miter; stroke-linecap: square"/>
   </g>
   <g id="text_13">
    <!-- Atom Type Cl (n=6, mean Q=31.17) -->
    <g transform="translate(37.76125 35.472) scale(0.22 -0.22)">
     <defs>
      <path id="DejaVuSans-41" d="M 2188 4044 
L 1331 1722 
L 3047 1722 
L 2188 4044 
z
M 1831 4666 
L 2547 4666 
L 4325 0 
L 3669 0 
L 3244 1197 
L 1141 1197 
L 716 0 
L 50 0 
L 1831 4666 
z
" transform="scale(0.015625)"/>
      <path id="DejaVuSans-74" d="M 1172 4494 
L 1172 3500 
L 2356 3500 
L 2356 3053 
L 1172 3053 
L 1172 1153 
Q 1172 725 1289 603 
Q 1406 481 1766 481 
L 2356 481 
L 2356 0 
L 1766 0 
Q 1100 0 847 248 
Q 594 497 594 1153 
L 594 3053 
L 172 3053 
L 172 3500 
L 594 3500 
L 594 4494 
L 1172 4494 
z
" transform="scale(0.015625)"/>
      <path id="DejaVuSans-6f" d="M 1959 3097 
Q 1497 3097 1228 2736 
Q 959 2375 959 1747 
Q 959 1119 1226 758 
Q 1494 397 1959 397 
Q 2419 397 2687 759 
Q 2956 1122 2956 1747 
Q 2956 2369 2687 2733 
Q 2419 3097 1959 3097 
z
M 1959 3584 
Q 2709 3584 3137 3096 
Q 3566 2609 3566 1747 
Q 3566 888 3137 398 
Q 2709 -91 1959 -91 
Q 1206 -91 779 398 
Q 353 888 353 1747 
Q 353 2609 779 3096 
Q 1206 3584 1959 3584 
z
" transform="scale(0.015625)"/>
      <path id="DejaVuSans-6d" d="M 3328 2828 
Q 3544 3216 3844 3400 
Q 4144 3584 4550 3584 
Q 5097 3584 5394 3201 
Q 5691 2819 5691 2113 
L 5691 0 
L 5113 0 
L 5113 2094 
Q 5113 2597 4934 2840 
Q 4756 3084 4391 3084 
Q 3944 3084 3684 2787 
Q 3425 2491 3425 1978 
L 3425 0 
L 2847 0 
L 2847 2094 
Q 2847 2600 2669 2842 
Q 2491 3084 2119 3084 
Q 1678 3084 1418 2786 
Q 1159 2488 1159 1978 
L 1159 0 
L 581 0 
L 581 3500 
L 1159 3500 
L 1159 2956 
Q 1356 3278 1631 3431 
Q 1906 3584 2284 3584 
Q 2666 3584 2933 3390 
Q 3200 3197 3328 2828 
z
" transform="scale(0.015625)"/>
      <path id="DejaVuSans-20" transform="scale(0.015625)"/>
      <path id="DejaVuSans-54" d="M -19 4666 
L 3928 4666 
L 3928 4134 
L 2272 4134 
L 2272 0 
L 1638 0 
L 1638 4134 
L -19 4134 
L -19 4666 
z
" transform="scale(0.015625)"/>
      <path id="DejaVuSans-79" d="M 2059 -325 
Q 1816 -950 1584 -1140 
Q 1353 -1331 966 -1331 
L 506 -1331 
L 506 -850 
L 844 -850 
Q 1081 -850 1212 -737 
Q 1344 -625 1503 -206 
L 1606 56 
L 191 3500 
L 800 3500 
L 1894 763 
L 2988 3500 
L 3597 3500 
L 2059 -325 
z
" transform="scale(0.015625)"/>
      <path id="DejaVuSans-70" d="M 1159 525 
L 1159 -1331 
L 581 -1331 
L 581 3500 
L 1159 3500 
L 1159 2969 
Q 1341 3281 1617 3432 
Q 1894 3584 2278 3584 
Q 2916 3584 3314 3078 
Q 3713 2572 3713 1747 
Q 3713 922 3314 415 
Q 2916 -91 2278 -91 
Q 1894 -91 1617 61 
Q 1341 213 1159 525 
z
M 3116 1747 
Q 3116 2381 2855 2742 
Q 2594 3103 2138 3103 
Q 1681 3103 1420 2742 
Q 1159 2381 1159 1747 
Q 1159 1113 1420 752 
Q 1681 391 2138 391 
Q 2594 391 2855 752 
Q 3116 1113 3116 1747 
z
" transform="scale(0.015625)"/>
      <path id="DejaVuSans-65" d="M 3597 1894 
L 3597 1613 
L 953 1613 
Q 991 1019 1311 708 
Q 1631 397 2203 397 
Q 2534 397 2845 478 
Q 3156 559 3463 722 
L 3463 178 
Q 3153 47 2828 -22 
Q 2503 -91 2169 -91 
Q 1331 -91 842 396 
Q 353 884 353 1716 
Q 353 2575 817 3079 
Q 1281 3584 2069 3584 
Q 2775 3584 3186 3129 
Q 3597 2675 3597 1894 
z
M 3022 2063 
Q 3016 2534 2758 2815 
Q 2500 3097 2075 3097 
Q 1594 3097 1305 2825 
Q 1016 2553 972 2059 
L 3022 2063 
z
" transform="scale(0.015625)"/>
      <path id="DejaVuSans-43" d="M 4122 4306 
L 4122 3641 
Q 3803 3938 3442 4084 
Q 3081 4231 2675 4231 
Q 1875 4231 1450 3742 
Q 1025 3253 1025 2328 
Q 1025 1406 1450 917 
Q 1875 428 2675 428 
Q 3081 428 3442 575 
Q 3803 722 4122 1019 
L 4122 359 
Q 3791 134 3420 21 
Q 3050 -91 2638 -91 
Q 1578 -91 968 557 
Q 359 1206 359 2328 
Q 359 3453 968 4101 
Q 1578 4750 2638 4750 
Q 3056 4750 3426 4639 
Q 3797 4528 4122 4306 
z
" transform="scale(0.015625)"/>
      <path id="DejaVuSans-6c" d="M 603 4863 
L 1178 4863 
L 1178 0 
L 603 0 
L 603 4863 
z
" transform="scale(0.015625)"/>
      <path id="DejaVuSans-28" d="M 1984 4856 
Q 1566 4138 1362 3434 
Q 1159 2731 1159 2009 
Q 1159 1288 1364 580 
Q 1569 -128 1984 -844 
L 1484 -844 
Q 1016 -109 783 600 
Q 550 1309 550 2009 
Q 550 2706 781 3412 
Q 1013 4119 1484 4856 
L 1984 4856 
z
" transform="scale(0.015625)"/>
      <path id="DejaVuSans-6e" d="M 3513 2113 
L 3513 0 
L 2938 0 
L 2938 2094 
Q 2938 2591 2744 2837 
Q 2550 3084 2163 3084 
Q 1697 3084 1428 2787 
Q 1159 2491 1159 1978 
L 1159 0 
L 581 0 
L 581 3500 
L 1159 3500 
L 1159 2956 
Q 1366 3272 1645 3428 
Q 1925 3584 2291 3584 
Q 2894 3584 3203 3211 
Q 3513 2838 3513 2113 
z
" transform="scale(0.015625)"/>
      <path id="DejaVuSans-3d" d="M 678 2906 
L 4684 2906 
L 4684 2381 
L 678 2381 
L 678 2906 
z
M 678 1631 
L 4684 1631 
L 4684 1100 
L 678 1100 
L 678 1631 
z
" transform="scale(0.015625)"/>
      <path id="DejaVuSans-36" d="M 2113 2584 
Q 1688 2584 1439 2293 
Q 1191 2003 1191 1497 
Q 1191 994 1439 701 
Q 1688 409 2113 409 
Q 2538 409 2786 701 
Q 3034 994 3034 1497 
Q 3034 2003 2786 2293 
Q 2538 2584 2113 2584 
z
M 3366 4563 
L 3366 3988 
Q 3128 4100 2886 4159 
Q 2644 4219 2406 4219 
Q 1781 4219 1451 3797 
Q 1122 3375 1075 2522 
Q 1259 2794 1537 2939 
Q 1816 3084 2150 3084 
Q 2853 3084 3261 2657 
Q 3669 2231 3669 1497 
Q 3669 778 3244 343 
Q 2819 -91 2113 -91 
Q 1303 -91 875 529 
Q 447 1150 447 2328 
Q 447 3434 972 4092 
Q 1497 4750 2381 4750 
Q 2619 4750 2861 4703 
Q 3103 4656 3366 4563 
z
" transform="scale(0.015625)"/>
      <path id="DejaVuSans-2c" d="M 750 794 
L 1409 794 
L 1409 256 
L 897 -744 
L 494 -744 
L 750 256 
L 750 794 
z
" transform="scale(0.015625)"/>
      <path id="DejaVuSans-61" d="M 2194 1759 
Q 1497 1759 1228 1600 
Q 959 1441 959 1056 
Q 959 750 1161 570 
Q 1363 391 1709 391 
Q 2188 391 2477 730 
Q 2766 1069 2766 1631 
L 2766 1759 
L 2194 1759 
z
M 3341 1997 
L 3341 0 
L 2766 0 
L 2766 531 
Q 2569 213 2275 61 
Q 1981 -91 1556 -91 
Q 1019 -91 701 211 
Q 384 513 384 1019 
Q 384 1609 779 1909 
Q 1175 2209 1959 2209 
L 2766 2209 
L 2766 2266 
Q 2766 2663 2505 2880 
Q 2244 3097 1772 3097 
Q 1472 3097 1187 3025 
Q 903 2953 641 2809 
L 641 3341 
Q 956 3463 1253 3523 
Q 1550 3584 1831 3584 
Q 2591 3584 2966 3190 
Q 3341 2797 3341 1997 
z
" transform="scale(0.015625)"/>
      <path id="DejaVuSans-51" d="M 2522 4238 
Q 1834 4238 1429 3725 
Q 1025 3213 1025 2328 
Q 1025 1447 1429 934 
Q 1834 422 2522 422 
Q 3209 422 3611 934 
Q 4013 1447 4013 2328 
Q 4013 3213 3611 3725 
Q 3209 4238 2522 4238 
z
M 3406 84 
L 4238 -825 
L 3475 -825 
L 2784 -78 
Q 2681 -84 2626 -87 
Q 2572 -91 2522 -91 
Q 1538 -91 948 567 
Q 359 1225 359 2328 
Q 359 3434 948 4092 
Q 1538 4750 2522 4750 
Q 3503 4750 4090 4092 
Q 4678 3434 4678 2328 
Q 4678 1516 4351 937 
Q 4025 359 3406 84 
z
" transform="scale(0.015625)"/>
      <path id="DejaVuSans-2e" d="M 684 794 
L 1344 794 
L 1344 0 
L 684 0 
L 684 794 
z
" transform="scale(0.015625)"/>
      <path id="DejaVuSans-37" d="M 525 4666 
L 3525 4666 
L 3525 4397 
L 1831 0 
L 1172 0 
L 2766 4134 
L 525 4134 
L 525 4666 
z
" transform="scale(0.015625)"/>
      <path id="DejaVuSans-29" d="M 513 4856 
L 1013 4856 
Q 1481 4119 1714 3412 
Q 1947 2706 1947 2009 
Q 1947 1309 1714 600 
Q 1481 -109 1013 -844 
L 513 -844 
Q 928 -128 1133 580 
Q 1338 1288 1338 2009 
Q 1338 2731 1133 3434 
Q 928 4138 513 4856 
z
" transform="scale(0.015625)"/>
     </defs>
     <use xlink:href="#DejaVuSans-41"/>
     <use xlink:href="#DejaVuSans-74" transform="translate(66.658203 0)"/>
     <use xlink:href="#DejaVuSans-6f" transform="translate(105.867188 0)"/>
     <use xlink:href="#DejaVuSans-6d" transform="translate(167.048828 0)"/>
     <use xlink:href="#DejaVuSans-20" transform="translate(264.460938 0)"/>
     <use xlink:href="#DejaVuSans-54" transform="translate(296.248047 0)"/>
     <use xlink:href="#DejaVuSans-79" transform="translate(341.707031 0)"/>
     <use xlink:href="#DejaVuSans-70" transform="translate(400.886719 0)"/>
     <use xlink:href="#DejaVuSans-65" transform="translate(464.363281 0)"/>
     <use xlink:href="#DejaVuSans-20" transform="translate(525.886719 0)"/>
     <use xlink:href="#DejaVuSans-43" transform="translate(557.673828 0)"/>
     <use xlink:href="#DejaVuSans-6c" transform="translate(627.498047 0)"/>
     <use xlink:href="#DejaVuSans-20" transform="translate(655.28125 0)"/>
     <use xlink:href="#DejaVuSans-28" transform="translate(687.068359 0)"/>
     <use xlink:href="#DejaVuSans-6e" transform="translate(726.082031 0)"/>
     <use xlink:href="#DejaVuSans-3d" transform="translate(789.460938 0)"/>
     <use xlink:href="#DejaVuSans-36" transform="translate(873.25 0)"/>
     <use xlink:href="#DejaVuSans-2c" transform="translate(936.873047 0)"/>
     <use xlink:href="#DejaVuSans-20" transform="translate(968.660156 0)"/>
     <use xlink:href="#DejaVuSans-6d" transform="translate(1000.447266 0)"/>
     <use xlink:href="#DejaVuSans-65" transform="translate(1097.859375 0)"/>
     <use xlink:href="#DejaVuSans-61" transform="translate(1159.382812 0)"/>
     <use xlink:href="#DejaVuSans-6e" transform="translate(1220.662109 0)"/>
     <use xlink:href="#DejaVuSans-20" transform="translate(1284.041016 0)"/>
     <use xlink:href="#DejaVuSans-51" transform="translate(1315.828125 0)"/>
     <use xlink:href="#DejaVuSans-3d" transform="translate(1394.539062 0)"/>
     <use xlink:href="#DejaVuSans-33" transform="translate(1478.328125 0)"/>
     <use xlink:href="#DejaVuSans-31" transform="translate(1541.951172 0)"/>
     <use xlink:href="#DejaVuSans-2e" transform="translate(1605.574219 0)"/>
     <use xlink:href="#DejaVuSans-31" transform="translate(1637.361328 0)"/>
     <use xlink:href="#DejaVuSans-37" transform="translate(1700.984375 0)"/>
     <use xlink:href="#DejaVuSans-29" transform="translate(1764.607422 0)"/>
    </g>
   </g>
  </g>
 </g>
 <defs>
  <clipPath id="p546f7e732e">
   <rect x="57.6" y="41.472" width="357.12" height="266.112"/>
  </clipPath>
 </defs>
</svg>
