<?xml version="1.0" encoding="utf-8" standalone="no"?>
<!DOCTYPE svg PUBLIC "-//W3C//DTD SVG 1.1//EN"
  "http://www.w3.org/Graphics/SVG/1.1/DTD/svg11.dtd">
<svg xmlns:xlink="http://www.w3.org/1999/xlink" width="460.8pt" height="345.6pt" viewBox="0 0 460.8 345.6" xmlns="http://www.w3.org/2000/svg" version="1.1">
 <metadata>
  <rdf:RDF xmlns:dc="http://purl.org/dc/elements/1.1/" xmlns:cc="http://creativecommons.org/ns#" xmlns:rdf="http://www.w3.org/1999/02/22-rdf-syntax-ns#">
   <cc:Work>
    <dc:type rdf:resource="http://purl.org/dc/dcmitype/StillImage"/>
    <dc:date>2025-12-10T13:57:09.597573</dc:date>
    <dc:format>image/svg+xml</dc:format>
    <dc:creator>
     <cc:Agent>
      <dc:title>Matplotlib v3.10.3, https://matplotlib.org/</dc:title>
     </cc:Agent>
    </dc:creator>
   </cc:Work>
  </rdf:RDF>
 </metadata>
 <defs>
  <style type="text/css">*{stroke-linejoin: round; stroke-linecap: butt}</style>
 </defs>
 <g id="figure_1">
  <g id="patch_1">
   <path d="M 0 345.6 
L 460.8 345.6 
L 460.8 0 
L 0 0 
z
" style="fill: #ffffff"/>
  </g>
  <g id="axes_1">
   <g id="patch_2">
    <path d="M 57.6 307.584 
L 414.72 307.584 
L 414.72 41.472 
L 57.6 41.472 
z
" style="fill: #ffffff"/>
   </g>
   <g id="matplotlib.axis_1">
    <g id="xtick_1">
     <g id="line2d_1">
      <defs>
       <path id="mfb8e176ae7" d="M 0 0 
L 0 3.5 
" style="stroke: #000000; stroke-width: 0.8"/>
      </defs>
      <g>
       <use xlink:href="#mfb8e176ae7" x="73.832727" y="307.584" style="stroke: #000000; stroke-width: 0.8"/>
      </g>
     </g>
     <g id="text_1">
      <!-- 0 -->
      <g transform="translate(69.060852 325.981656) scale(0.15 -0.15)">
       <defs>
        <path id="DejaVuSans-30" d="M 2034 4250 
Q 1547 4250 1301 3770 
Q 1056 3291 1056 2328 
Q 1056 1369 1301 889 
Q 1547 409 2034 409 
Q 2525 409 2770 889 
Q 3016 1369 3016 2328 
Q 3016 3291 2770 3770 
Q 2525 4250 2034 4250 
z
M 2034 4750 
Q 2819 4750 3233 4129 
Q 3647 3509 3647 2328 
Q 3647 1150 3233 529 
Q 2819 -91 2034 -91 
Q 1250 -91 836 529 
Q 422 1150 422 2328 
Q 422 3509 836 4129 
Q 1250 4750 2034 4750 
z
" transform="scale(0.015625)"/>
       </defs>
       <use xlink:href="#DejaVuSans-30"/>
      </g>
     </g>
    </g>
    <g id="xtick_2">
     <g id="line2d_2">
      <g>
       <use xlink:href="#mfb8e176ae7" x="154.996364" y="307.584" style="stroke: #000000; stroke-width: 0.8"/>
      </g>
     </g>
     <g id="text_2">
      <!-- 5 -->
      <g transform="translate(150.224489 325.981656) scale(0.15 -0.15)">
       <defs>
        <path id="DejaVuSans-35" d="M 691 4666 
L 3169 4666 
L 3169 4134 
L 1269 4134 
L 1269 2991 
Q 1406 3038 1543 3061 
Q 1681 3084 1819 3084 
Q 2600 3084 3056 2656 
Q 3513 2228 3513 1497 
Q 3513 744 3044 326 
Q 2575 -91 1722 -91 
Q 1428 -91 1123 -41 
Q 819 9 494 109 
L 494 744 
Q 775 591 1075 516 
Q 1375 441 1709 441 
Q 2250 441 2565 725 
Q 2881 1009 2881 1497 
Q 2881 1984 2565 2268 
Q 2250 2553 1709 2553 
Q 1456 2553 1204 2497 
Q 953 2441 691 2322 
L 691 4666 
z
" transform="scale(0.015625)"/>
       </defs>
       <use xlink:href="#DejaVuSans-35"/>
      </g>
     </g>
    </g>
    <g id="xtick_3">
     <g id="line2d_3">
      <g>
       <use xlink:href="#mfb8e176ae7" x="236.16" y="307.584" style="stroke: #000000; stroke-width: 0.8"/>
      </g>
     </g>
     <g id="text_3">
      <!-- 10 -->
      <g transform="translate(226.61625 325.981656) scale(0.15 -0.15)">
       <defs>
        <path id="DejaVuSans-31" d="M 794 531 
L 1825 531 
L 1825 4091 
L 703 3866 
L 703 4441 
L 1819 4666 
L 2450 4666 
L 2450 531 
L 3481 531 
L 3481 0 
L 794 0 
L 794 531 
z
" transform="scale(0.015625)"/>
       </defs>
       <use xlink:href="#DejaVuSans-31"/>
       <use xlink:href="#DejaVuSans-30" transform="translate(63.623047 0)"/>
      </g>
     </g>
    </g>
    <g id="xtick_4">
     <g id="line2d_4">
      <g>
       <use xlink:href="#mfb8e176ae7" x="317.323636" y="307.584" style="stroke: #000000; stroke-width: 0.8"/>
      </g>
     </g>
     <g id="text_4">
      <!-- 15 -->
      <g transform="translate(307.779886 325.981656) scale(0.15 -0.15)">
       <use xlink:href="#DejaVuSans-31"/>
       <use xlink:href="#DejaVuSans-35" transform="translate(63.623047 0)"/>
      </g>
     </g>
    </g>
    <g id="xtick_5">
     <g id="line2d_5">
      <g>
       <use xlink:href="#mfb8e176ae7" x="398.487273" y="307.584" style="stroke: #000000; stroke-width: 0.8"/>
      </g>
     </g>
     <g id="text_5">
      <!-- 20 -->
      <g transform="translate(388.943523 325.981656) scale(0.15 -0.15)">
       <defs>
        <path id="DejaVuSans-32" d="M 1228 531 
L 3431 531 
L 3431 0 
L 469 0 
L 469 531 
Q 828 903 1448 1529 
Q 2069 2156 2228 2338 
Q 2531 2678 2651 2914 
Q 2772 3150 2772 3378 
Q 2772 3750 2511 3984 
Q 2250 4219 1831 4219 
Q 1534 4219 1204 4116 
Q 875 4013 500 3803 
L 500 4441 
Q 881 4594 1212 4672 
Q 1544 4750 1819 4750 
Q 2544 4750 2975 4387 
Q 3406 4025 3406 3419 
Q 3406 3131 3298 2873 
Q 3191 2616 2906 2266 
Q 2828 2175 2409 1742 
Q 1991 1309 1228 531 
z
" transform="scale(0.015625)"/>
       </defs>
       <use xlink:href="#DejaVuSans-32"/>
       <use xlink:href="#DejaVuSans-30" transform="translate(63.623047 0)"/>
      </g>
     </g>
    </g>
   </g>
   <g id="matplotlib.axis_2">
    <g id="ytick_1">
     <g id="line2d_6">
      <defs>
       <path id="m9bf54a4ef3" d="M 0 0 
L -3.5 0 
" style="stroke: #000000; stroke-width: 0.8"/>
      </defs>
      <g>
       <use xlink:href="#m9bf54a4ef3" x="57.6" y="270.235951" style="stroke: #000000; stroke-width: 0.8"/>
      </g>
     </g>
     <g id="text_6">
      <!-- 5 -->
      <g transform="translate(41.05625 275.934779) scale(0.15 -0.15)">
       <use xlink:href="#DejaVuSans-35"/>
      </g>
     </g>
    </g>
    <g id="ytick_2">
     <g id="line2d_7">
      <g>
       <use xlink:href="#m9bf54a4ef3" x="57.6" y="204.688854" style="stroke: #000000; stroke-width: 0.8"/>
      </g>
     </g>
     <g id="text_7">
      <!-- 10 -->
      <g transform="translate(31.5125 210.387682) scale(0.15 -0.15)">
       <use xlink:href="#DejaVuSans-31"/>
       <use xlink:href="#DejaVuSans-30" transform="translate(63.623047 0)"/>
      </g>
     </g>
    </g>
    <g id="ytick_3">
     <g id="line2d_8">
      <g>
       <use xlink:href="#m9bf54a4ef3" x="57.6" y="139.141758" style="stroke: #000000; stroke-width: 0.8"/>
      </g>
     </g>
     <g id="text_8">
      <!-- 15 -->
      <g transform="translate(31.5125 144.840586) scale(0.15 -0.15)">
       <use xlink:href="#DejaVuSans-31"/>
       <use xlink:href="#DejaVuSans-35" transform="translate(63.623047 0)"/>
      </g>
     </g>
    </g>
    <g id="ytick_4">
     <g id="line2d_9">
      <g>
       <use xlink:href="#m9bf54a4ef3" x="57.6" y="73.594661" style="stroke: #000000; stroke-width: 0.8"/>
      </g>
     </g>
     <g id="text_9">
      <!-- 20 -->
      <g transform="translate(31.5125 79.293489) scale(0.15 -0.15)">
       <use xlink:href="#DejaVuSans-32"/>
       <use xlink:href="#DejaVuSans-30" transform="translate(63.623047 0)"/>
      </g>
     </g>
    </g>
   </g>
   <g id="line2d_10">
    <path d="M 73.832727 242.227156 
L 90.065455 211.271069 
L 106.298182 219.722164 
L 122.530909 205.647948 
L 138.763636 205.904506 
L 154.996364 234.827207 
L 171.229091 222.36519 
L 187.461818 214.853647 
L 203.694545 200.558655 
L 219.927273 231.267743 
L 236.16 68.689166 
L 252.392727 64.697075 
L 268.625455 67.855663 
L 284.858182 92.34874 
L 301.090909 61.312882 
L 317.323636 58.507203 
L 333.556364 53.568 
L 349.789091 187.408605 
L 366.021818 91.812502 
L 382.254545 233.726744 
L 398.487273 227.38715 
" clip-path="url(#pf6c3c8d7a7)" style="fill: none; stroke: #440154; stroke-opacity: 0.5; stroke-width: 1.5; stroke-linecap: square"/>
   </g>
   <g id="line2d_11">
    <path d="M 73.832727 238.050439 
L 90.065455 263.05269 
L 106.298182 266.34265 
L 122.530909 246.834677 
L 138.763636 246.010377 
L 154.996364 170.79869 
L 171.229091 162.122278 
L 187.461818 147.105121 
L 203.694545 107.880361 
L 219.927273 218.425599 
L 236.16 109.757169 
L 252.392727 140.71909 
L 268.625455 141.390095 
L 284.858182 109.190043 
L 301.090909 115.700849 
L 317.323636 139.690451 
L 333.556364 113.160138 
L 349.789091 55.044967 
L 366.021818 150.451698 
L 382.254545 95.47832 
L 398.487273 171.49632 
" clip-path="url(#pf6c3c8d7a7)" style="fill: none; stroke: #440154; stroke-opacity: 0.5; stroke-width: 1.5; stroke-linecap: square"/>
   </g>
   <g id="line2d_12">
    <path d="M 73.832727 249.783813 
L 90.065455 241.330215 
L 106.298182 217.666329 
L 122.530909 268.605797 
L 138.763636 220.205444 
L 154.996364 255.132118 
L 171.229091 259.169679 
L 187.461818 244.848816 
L 203.694545 234.426346 
L 219.927273 193.621688 
L 236.16 172.841366 
L 252.392727 179.156249 
L 268.625455 191.013602 
L 284.858182 215.970898 
L 301.090909 205.888693 
L 317.323636 144.764932 
L 333.556364 173.745014 
L 349.789091 172.295284 
L 366.021818 187.403214 
L 382.254545 255.650664 
L 398.487273 236.157163 
" clip-path="url(#pf6c3c8d7a7)" style="fill: none; stroke: #440154; stroke-opacity: 0.5; stroke-width: 1.5; stroke-linecap: square"/>
   </g>
   <g id="line2d_13">
    <path d="M 73.832727 223.855556 
L 90.065455 224.961108 
L 106.298182 224.550227 
L 122.530909 222.925094 
L 138.763636 201.08241 
L 154.996364 241.907387 
L 171.229091 225.484531 
L 187.461818 170.046272 
L 203.694545 181.859569 
L 219.927273 145.184936 
L 236.16 206.998831 
L 252.392727 216.345045 
L 268.625455 166.133168 
L 284.858182 243.664427 
L 301.090909 175.485277 
L 317.323636 220.594414 
L 333.556364 228.059614 
L 349.789091 148.607324 
L 366.021818 195.657694 
L 382.254545 204.658127 
L 398.487273 155.333063 
" clip-path="url(#pf6c3c8d7a7)" style="fill: none; stroke: #440154; stroke-opacity: 0.5; stroke-width: 1.5; stroke-linecap: square"/>
   </g>
   <g id="line2d_14">
    <path d="M 73.832727 241.164018 
L 90.065455 253.471177 
L 106.298182 252.324903 
L 122.530909 273.128273 
L 138.763636 249.374505 
L 154.996364 202.02684 
L 171.229091 191.328805 
L 187.461818 218.592836 
L 203.694545 177.608364 
L 219.927273 159.466133 
L 236.16 162.768166 
L 252.392727 204.284336 
L 268.625455 207.655464 
L 284.858182 180.805074 
L 301.090909 145.842232 
L 317.323636 207.473604 
L 333.556364 163.253312 
L 349.789091 191.485369 
L 366.021818 221.799374 
L 382.254545 160.218515 
L 398.487273 191.179996 
" clip-path="url(#pf6c3c8d7a7)" style="fill: none; stroke: #440154; stroke-opacity: 0.5; stroke-width: 1.5; stroke-linecap: square"/>
   </g>
   <g id="line2d_15">
    <path d="M 73.832727 196.459897 
L 90.065455 192.346573 
L 106.298182 201.430774 
L 122.530909 188.303055 
L 138.763636 180.99474 
L 154.996364 178.710947 
L 171.229091 185.968216 
L 187.461818 130.186107 
L 203.694545 157.755964 
L 219.927273 54.379189 
L 236.16 220.565587 
L 252.392727 207.16438 
L 268.625455 214.000248 
L 284.858182 190.737739 
L 301.090909 220.560827 
L 317.323636 168.13882 
L 333.556364 252.515134 
L 349.789091 213.955723 
L 366.021818 232.782055 
L 382.254545 240.035447 
L 398.487273 57.499283 
" clip-path="url(#pf6c3c8d7a7)" style="fill: none; stroke: #440154; stroke-opacity: 0.5; stroke-width: 1.5; stroke-linecap: square"/>
   </g>
   <g id="line2d_16">
    <path d="M 73.832727 252.344357 
L 90.065455 139.631997 
L 106.298182 128.096994 
L 122.530909 131.18567 
L 138.763636 119.612494 
L 154.996364 97.61038 
L 171.229091 125.574263 
L 187.461818 126.72978 
L 203.694545 195.675614 
L 219.927273 250.290723 
L 236.16 251.943112 
L 252.392727 213.931594 
L 268.625455 234.676542 
L 284.858182 271.186223 
L 301.090909 182.147788 
L 317.323636 243.837958 
L 333.556364 267.066951 
L 349.789091 182.154582 
L 366.021818 252.839367 
L 382.254545 181.07108 
L 398.487273 213.011319 
" clip-path="url(#pf6c3c8d7a7)" style="fill: none; stroke: #440154; stroke-opacity: 0.5; stroke-width: 1.5; stroke-linecap: square"/>
   </g>
   <g id="line2d_17">
    <path d="M 73.832727 233.577407 
L 90.065455 183.561007 
L 106.298182 186.048126 
L 122.530909 194.214829 
L 138.763636 175.945023 
L 154.996364 164.839468 
L 171.229091 172.314363 
L 187.461818 206.545011 
L 203.694545 209.304087 
L 219.927273 245.890907 
L 236.16 221.602376 
L 252.392727 255.642337 
L 268.625455 246.152618 
L 284.858182 244.936112 
L 301.090909 232.736501 
L 317.323636 257.853489 
L 333.556364 263.237084 
L 349.789091 243.198661 
L 366.021818 275.028996 
L 382.254545 193.496984 
L 398.487273 230.358852 
" clip-path="url(#pf6c3c8d7a7)" style="fill: none; stroke: #440154; stroke-opacity: 0.5; stroke-width: 1.5; stroke-linecap: square"/>
   </g>
   <g id="line2d_18">
    <path d="M 73.832727 136.947773 
L 90.065455 194.724631 
L 106.298182 234.990277 
L 122.530909 225.88454 
L 138.763636 220.794386 
L 154.996364 217.298737 
L 171.229091 190.246636 
L 187.461818 195.654759 
L 203.694545 194.397065 
L 219.927273 217.776613 
L 236.16 228.126083 
L 252.392727 234.024943 
L 268.625455 249.147063 
L 284.858182 211.377367 
L 301.090909 250.282322 
L 317.323636 241.323979 
L 333.556364 243.934936 
L 349.789091 225.37967 
L 366.021818 161.351333 
L 382.254545 225.391021 
L 398.487273 245.500899 
" clip-path="url(#pf6c3c8d7a7)" style="fill: none; stroke: #440154; stroke-opacity: 0.5; stroke-width: 1.5; stroke-linecap: square"/>
   </g>
   <g id="line2d_19">
    <path d="M 73.832727 167.017855 
L 90.065455 191.026943 
L 106.298182 183.035843 
L 122.530909 211.103028 
L 138.763636 228.950834 
L 154.996364 209.062643 
L 171.229091 216.867284 
L 187.461818 192.309956 
L 203.694545 252.472076 
L 219.927273 272.910773 
L 236.16 207.422905 
L 252.392727 194.259039 
L 268.625455 188.591515 
L 284.858182 192.560477 
L 301.090909 209.871302 
L 317.323636 201.274743 
L 333.556364 203.322867 
L 349.789091 157.394647 
L 366.021818 203.331453 
L 382.254545 274.019344 
L 398.487273 226.418453 
" clip-path="url(#pf6c3c8d7a7)" style="fill: none; stroke: #440154; stroke-opacity: 0.5; stroke-width: 1.5; stroke-linecap: square"/>
   </g>
   <g id="line2d_20">
    <path d="M 73.832727 255.482253 
L 90.065455 224.276792 
L 106.298182 236.86102 
L 122.530909 231.079047 
L 138.763636 225.039351 
L 154.996364 257.765582 
L 171.229091 256.161461 
L 187.461818 227.467868 
L 203.694545 265.209557 
L 219.927273 245.629296 
L 236.16 150.742447 
L 252.392727 176.259751 
L 268.625455 99.380484 
L 284.858182 219.029362 
L 301.090909 142.173895 
L 317.323636 208.811897 
L 333.556364 115.125199 
L 349.789091 208.878913 
L 366.021818 85.733668 
L 382.254545 200.83649 
L 398.487273 220.988203 
" clip-path="url(#pf6c3c8d7a7)" style="fill: none; stroke: #440154; stroke-opacity: 0.5; stroke-width: 1.5; stroke-linecap: square"/>
   </g>
   <g id="line2d_21">
    <path d="M 73.832727 174.674477 
L 90.065455 190.134833 
L 106.298182 187.659156 
L 122.530909 133.092659 
L 138.763636 223.163256 
L 154.996364 216.550407 
L 171.229091 191.548352 
L 187.461818 231.092823 
L 203.694545 171.724556 
L 219.927273 225.392641 
L 236.16 225.138142 
L 252.392727 261.921555 
L 268.625455 245.886989 
L 284.858182 244.137176 
L 301.090909 254.812139 
L 317.323636 227.065549 
L 333.556364 264.794707 
L 349.789091 258.423314 
L 366.021818 260.699912 
L 382.254545 271.400425 
L 398.487273 243.263271 
" clip-path="url(#pf6c3c8d7a7)" style="fill: none; stroke: #440154; stroke-opacity: 0.5; stroke-width: 1.5; stroke-linecap: square"/>
   </g>
   <g id="line2d_22">
    <path d="M 73.832727 246.687987 
L 90.065455 254.642467 
L 106.298182 225.743656 
L 122.530909 228.052564 
L 138.763636 260.545875 
L 154.996364 220.646738 
L 171.229091 232.684687 
L 187.461818 226.651485 
L 203.694545 249.839843 
L 219.927273 199.486029 
L 236.16 203.786633 
L 252.392727 227.422026 
L 268.625455 227.872666 
L 284.858182 205.080964 
L 301.090909 209.912311 
L 317.323636 258.749281 
L 333.556364 231.795451 
L 349.789091 248.514435 
L 366.021818 234.387201 
L 382.254545 215.972998 
L 398.487273 222.616763 
" clip-path="url(#pf6c3c8d7a7)" style="fill: none; stroke: #440154; stroke-opacity: 0.5; stroke-width: 1.5; stroke-linecap: square"/>
   </g>
   <g id="line2d_23">
    <path d="M 73.832727 147.540909 
L 90.065455 177.234751 
L 106.298182 156.572632 
L 122.530909 151.065198 
L 138.763636 183.846026 
L 154.996364 225.863701 
L 171.229091 192.463287 
L 187.461818 175.119337 
L 203.694545 203.822708 
L 219.927273 246.377663 
L 236.16 198.743599 
L 252.392727 208.136762 
L 268.625455 209.095696 
L 284.858182 164.114649 
L 301.090909 188.619464 
L 317.323636 201.661051 
L 333.556364 221.63182 
L 349.789091 213.009804 
L 366.021818 233.851327 
L 382.254545 183.788841 
L 398.487273 229.679931 
" clip-path="url(#pf6c3c8d7a7)" style="fill: none; stroke: #440154; stroke-opacity: 0.5; stroke-width: 1.5; stroke-linecap: square"/>
   </g>
   <g id="line2d_24">
    <path d="M 73.832727 271.217671 
L 90.065455 275.762094 
L 106.298182 255.864896 
L 122.530909 284.345646 
L 138.763636 228.401496 
L 154.996364 251.848082 
L 171.229091 276.628508 
L 187.461818 248.573007 
L 203.694545 256.606803 
L 219.927273 264.105403 
L 236.16 273.053812 
L 252.392727 265.877538 
L 268.625455 247.865675 
L 284.858182 251.015051 
L 301.090909 278.13045 
L 317.323636 223.236956 
L 333.556364 253.322133 
L 349.789091 254.68238 
L 366.021818 256.509847 
L 382.254545 235.762733 
L 398.487273 258.038217 
" clip-path="url(#pf6c3c8d7a7)" style="fill: none; stroke: #440154; stroke-opacity: 0.5; stroke-width: 1.5; stroke-linecap: square"/>
   </g>
   <g id="line2d_25">
    <path d="M 73.832727 283.191036 
L 90.065455 256.52938 
L 106.298182 233.862904 
L 122.530909 279.563302 
L 138.763636 256.262196 
L 154.996364 267.455543 
L 171.229091 234.521086 
L 187.461818 188.359996 
L 203.694545 248.191269 
L 219.927273 260.841782 
L 236.16 264.247364 
L 252.392727 283.1645 
L 268.625455 232.742912 
L 284.858182 223.607417 
L 301.090909 272.088535 
L 317.323636 214.321341 
L 333.556364 238.452236 
L 349.789091 241.563355 
L 366.021818 256.078089 
L 382.254545 239.421214 
L 398.487273 204.195215 
" clip-path="url(#pf6c3c8d7a7)" style="fill: none; stroke: #440154; stroke-opacity: 0.5; stroke-width: 1.5; stroke-linecap: square"/>
   </g>
   <g id="line2d_26">
    <path d="M 73.832727 241.881446 
L 90.065455 269.734546 
L 106.298182 275.786064 
L 122.530909 256.811639 
L 138.763636 275.965899 
L 154.996364 246.0447 
L 171.229091 261.495594 
L 187.461818 243.269187 
L 203.694545 258.274156 
L 219.927273 228.762888 
L 236.16 276.704517 
L 252.392727 243.76534 
L 268.625455 247.349396 
L 284.858182 218.670148 
L 301.090909 269.395773 
L 317.323636 217.576321 
L 333.556364 235.499138 
L 349.789091 189.899628 
L 366.021818 216.623373 
L 382.254545 189.326095 
L 398.487273 227.42994 
" clip-path="url(#pf6c3c8d7a7)" style="fill: none; stroke: #440154; stroke-opacity: 0.5; stroke-width: 1.5; stroke-linecap: square"/>
   </g>
   <g id="line2d_27">
    <path d="M 73.832727 236.55156 
L 90.065455 248.590666 
L 106.298182 276.659412 
L 122.530909 257.182052 
L 138.763636 247.8546 
L 154.996364 238.326921 
L 171.229091 271.355533 
L 187.461818 233.006875 
L 203.694545 237.048564 
L 219.927273 249.879062 
L 236.16 244.57393 
L 252.392727 191.644963 
L 268.625455 260.889859 
L 284.858182 258.159077 
L 301.090909 235.300539 
L 317.323636 218.958751 
L 333.556364 183.285564 
L 349.789091 243.010814 
L 366.021818 245.140348 
L 382.254545 212.271036 
L 398.487273 260.42803 
" clip-path="url(#pf6c3c8d7a7)" style="fill: none; stroke: #440154; stroke-opacity: 0.5; stroke-width: 1.5; stroke-linecap: square"/>
   </g>
   <g id="line2d_28">
    <path d="M 73.832727 267.908299 
L 90.065455 249.054794 
L 106.298182 240.530023 
L 122.530909 272.125218 
L 138.763636 274.57615 
L 154.996364 256.457249 
L 171.229091 263.890948 
L 187.461818 254.737085 
L 203.694545 254.115684 
L 219.927273 254.856636 
L 236.16 255.205907 
L 252.392727 184.79911 
L 268.625455 244.284376 
L 284.858182 262.971407 
L 301.090909 230.702951 
L 317.323636 256.734889 
L 333.556364 254.754449 
L 349.789091 257.692529 
L 366.021818 201.705224 
L 382.254545 271.180504 
L 398.487273 271.511114 
" clip-path="url(#pf6c3c8d7a7)" style="fill: none; stroke: #440154; stroke-opacity: 0.5; stroke-width: 1.5; stroke-linecap: square"/>
   </g>
   <g id="line2d_29">
    <path d="M 73.832727 266.658297 
L 90.065455 262.318589 
L 106.298182 263.298444 
L 122.530909 280.971974 
L 138.763636 268.035666 
L 154.996364 272.404682 
L 171.229091 246.098134 
L 187.461818 234.951016 
L 203.694545 244.145795 
L 219.927273 277.727378 
L 236.16 258.90282 
L 252.392727 222.213848 
L 268.625455 243.777443 
L 284.858182 212.846921 
L 301.090909 247.486201 
L 317.323636 263.865577 
L 333.556364 231.970884 
L 349.789091 245.593091 
L 366.021818 239.101418 
L 382.254545 259.468359 
L 398.487273 263.246599 
" clip-path="url(#pf6c3c8d7a7)" style="fill: none; stroke: #440154; stroke-opacity: 0.5; stroke-width: 1.5; stroke-linecap: square"/>
   </g>
   <g id="line2d_30">
    <path d="M 73.832727 278.334472 
L 90.065455 268.716787 
L 106.298182 269.847565 
L 122.530909 275.475173 
L 138.763636 258.95436 
L 154.996364 202.668112 
L 171.229091 262.380172 
L 187.461818 269.568666 
L 203.694545 281.929995 
L 219.927273 258.001786 
L 236.16 254.857969 
L 252.392727 250.546105 
L 268.625455 272.851941 
L 284.858182 264.707728 
L 301.090909 278.699311 
L 317.323636 205.971477 
L 333.556364 260.13053 
L 349.789091 236.475273 
L 366.021818 214.042823 
L 382.254545 225.665147 
L 398.487273 261.009387 
" clip-path="url(#pf6c3c8d7a7)" style="fill: none; stroke: #440154; stroke-opacity: 0.5; stroke-width: 1.5; stroke-linecap: square"/>
   </g>
   <g id="line2d_31">
    <path d="M 73.832727 198.528676 
L 90.065455 282.912072 
L 106.298182 240.298756 
L 122.530909 215.028925 
L 138.763636 275.824833 
L 154.996364 188.730775 
L 171.229091 219.188234 
L 187.461818 248.197358 
L 203.694545 145.648728 
L 219.927273 266.060651 
L 236.16 253.991686 
L 252.392727 267.802436 
L 268.625455 253.951199 
L 284.858182 241.570695 
L 301.090909 257.494985 
L 317.323636 211.543205 
L 333.556364 251.244338 
L 349.789091 264.675365 
L 366.021818 236.156659 
L 382.254545 194.457687 
L 398.487273 228.505722 
" clip-path="url(#pf6c3c8d7a7)" style="fill: none; stroke: #440154; stroke-opacity: 0.5; stroke-width: 1.5; stroke-linecap: square"/>
   </g>
   <g id="line2d_32">
    <path d="M 73.832727 223.82669 
L 90.065455 254.784304 
L 106.298182 229.599427 
L 122.530909 240.367507 
L 138.763636 239.088547 
L 154.996364 215.138584 
L 171.229091 263.950482 
L 187.461818 218.489482 
L 203.694545 280.764999 
L 219.927273 242.218144 
L 236.16 269.033176 
L 252.392727 257.704741 
L 268.625455 255.006414 
L 284.858182 228.567875 
L 301.090909 268.67141 
L 317.323636 250.893313 
L 333.556364 237.584632 
L 349.789091 234.910646 
L 366.021818 249.633131 
L 382.254545 241.601897 
L 398.487273 252.061109 
" clip-path="url(#pf6c3c8d7a7)" style="fill: none; stroke: #440154; stroke-opacity: 0.5; stroke-width: 1.5; stroke-linecap: square"/>
   </g>
   <g id="line2d_33">
    <path d="M 73.832727 177.175701 
L 90.065455 243.776401 
L 106.298182 231.420572 
L 122.530909 221.808031 
L 138.763636 233.429409 
L 154.996364 241.152697 
L 171.229091 220.872589 
L 187.461818 246.072099 
L 203.694545 213.245057 
L 219.927273 232.344966 
L 236.16 241.088008 
L 252.392727 218.554599 
L 268.625455 176.18725 
L 284.858182 242.344354 
L 301.090909 209.577564 
L 317.323636 228.699404 
L 333.556364 218.142156 
L 349.789091 193.913448 
L 366.021818 162.236711 
L 382.254545 255.791041 
L 398.487273 258.969331 
" clip-path="url(#pf6c3c8d7a7)" style="fill: none; stroke: #440154; stroke-opacity: 0.5; stroke-width: 1.5; stroke-linecap: square"/>
   </g>
   <g id="line2d_34">
    <path d="M 73.832727 239.214969 
L 90.065455 249.671457 
L 106.298182 209.767506 
L 122.530909 184.588811 
L 138.763636 242.260368 
L 154.996364 269.062403 
L 171.229091 203.611715 
L 187.461818 111.9578 
L 203.694545 263.945952 
L 219.927273 233.964547 
L 236.16 233.196555 
L 252.392727 194.569552 
L 268.625455 242.223377 
L 284.858182 217.012817 
L 301.090909 247.881128 
L 317.323636 260.175297 
L 333.556364 266.420971 
L 349.789091 197.290503 
L 366.021818 255.693132 
L 382.254545 236.120068 
L 398.487273 251.100092 
" clip-path="url(#pf6c3c8d7a7)" style="fill: none; stroke: #440154; stroke-opacity: 0.5; stroke-width: 1.5; stroke-linecap: square"/>
   </g>
   <g id="line2d_35">
    <path d="M 73.832727 194.107496 
L 90.065455 179.260846 
L 106.298182 191.834535 
L 122.530909 206.224656 
L 138.763636 152.683959 
L 154.996364 159.208644 
L 171.229091 200.410424 
L 187.461818 249.763707 
L 203.694545 131.03471 
L 219.927273 241.264995 
L 236.16 275.437644 
L 252.392727 219.856485 
L 268.625455 255.329137 
L 284.858182 167.959818 
L 301.090909 158.942265 
L 317.323636 173.084605 
L 333.556364 230.515037 
L 349.789091 174.496898 
L 366.021818 203.154727 
L 382.254545 254.595341 
L 398.487273 180.368221 
" clip-path="url(#pf6c3c8d7a7)" style="fill: none; stroke: #440154; stroke-opacity: 0.5; stroke-width: 1.5; stroke-linecap: square"/>
   </g>
   <g id="line2d_36">
    <path d="M 73.832727 274.068136 
L 90.065455 246.144841 
L 106.298182 255.237042 
L 122.530909 260.678172 
L 138.763636 257.036862 
L 154.996364 266.20115 
L 171.229091 240.061587 
L 187.461818 230.254678 
L 203.694545 218.040548 
L 219.927273 187.68542 
L 236.16 259.831019 
L 252.392727 232.004065 
L 268.625455 228.561868 
L 284.858182 156.597684 
L 301.090909 225.959178 
L 317.323636 253.137705 
L 333.556364 276.276636 
L 349.789091 269.650459 
L 366.021818 194.433563 
L 382.254545 153.42088 
L 398.487273 178.893224 
" clip-path="url(#pf6c3c8d7a7)" style="fill: none; stroke: #440154; stroke-opacity: 0.5; stroke-width: 1.5; stroke-linecap: square"/>
   </g>
   <g id="line2d_37">
    <path d="M 73.832727 234.214423 
L 90.065455 152.016908 
L 106.298182 195.740157 
L 122.530909 225.534822 
L 138.763636 202.371677 
L 154.996364 154.685929 
L 171.229091 207.786397 
L 187.461818 182.804541 
L 203.694545 179.79214 
L 219.927273 130.973089 
L 236.16 184.320218 
L 252.392727 209.272085 
L 268.625455 194.614524 
L 284.858182 146.546254 
L 301.090909 184.467378 
L 317.323636 204.728528 
L 333.556364 204.332337 
L 349.789091 202.803689 
L 366.021818 214.407598 
L 382.254545 201.055927 
L 398.487273 216.632606 
" clip-path="url(#pf6c3c8d7a7)" style="fill: none; stroke: #440154; stroke-opacity: 0.5; stroke-width: 1.5; stroke-linecap: square"/>
   </g>
   <g id="line2d_38">
    <path d="M 73.832727 278.785664 
L 90.065455 227.625668 
L 106.298182 223.106626 
L 122.530909 233.294299 
L 138.763636 222.804081 
L 154.996364 239.09263 
L 171.229091 136.678756 
L 187.461818 177.526146 
L 203.694545 251.153678 
L 219.927273 181.622833 
L 236.16 171.847135 
L 252.392727 224.06163 
L 268.625455 135.309399 
L 284.858182 117.698218 
L 301.090909 250.164725 
L 317.323636 194.413914 
L 333.556364 246.971547 
L 349.789091 216.581687 
L 366.021818 221.977489 
L 382.254545 253.616484 
L 398.487273 157.237683 
" clip-path="url(#pf6c3c8d7a7)" style="fill: none; stroke: #440154; stroke-opacity: 0.5; stroke-width: 1.5; stroke-linecap: square"/>
   </g>
   <g id="line2d_39">
    <path d="M 73.832727 249.279674 
L 90.065455 187.926923 
L 106.298182 208.146601 
L 122.530909 179.231995 
L 138.763636 166.922534 
L 154.996364 221.544454 
L 171.229091 194.223751 
L 187.461818 213.876839 
L 203.694545 238.881796 
L 219.927273 236.441991 
L 236.16 108.311277 
L 252.392727 187.592015 
L 268.625455 168.927192 
L 284.858182 219.468888 
L 301.090909 248.545695 
L 317.323636 158.221941 
L 333.556364 196.201151 
L 349.789091 217.815928 
L 366.021818 173.944828 
L 382.254545 193.720997 
L 398.487273 216.854637 
" clip-path="url(#pf6c3c8d7a7)" style="fill: none; stroke: #440154; stroke-opacity: 0.5; stroke-width: 1.5; stroke-linecap: square"/>
   </g>
   <g id="line2d_40">
    <path d="M 73.832727 252.122558 
L 90.065455 172.373111 
L 106.298182 193.705031 
L 122.530909 217.314705 
L 138.763636 192.507071 
L 154.996364 199.074705 
L 171.229091 201.006443 
L 187.461818 159.455339 
L 203.694545 267.892691 
L 219.927273 232.749449 
L 236.16 199.791629 
L 252.392727 90.805509 
L 268.625455 222.39774 
L 284.858182 134.229116 
L 301.090909 193.015714 
L 317.323636 65.315165 
L 333.556364 151.517035 
L 349.789091 124.052194 
L 366.021818 142.32942 
L 382.254545 193.173036 
L 398.487273 176.082229 
" clip-path="url(#pf6c3c8d7a7)" style="fill: none; stroke: #440154; stroke-opacity: 0.5; stroke-width: 1.5; stroke-linecap: square"/>
   </g>
   <g id="line2d_41">
    <path d="M 73.832727 290.864799 
L 90.065455 274.398604 
L 106.298182 249.750384 
L 122.530909 218.41018 
L 138.763636 253.872109 
L 154.996364 262.342631 
L 171.229091 227.811156 
L 187.461818 252.522314 
L 203.694545 217.513354 
L 219.927273 228.716023 
L 236.16 260.654119 
L 252.392727 213.368289 
L 268.625455 230.945472 
L 284.858182 235.210295 
L 301.090909 222.974348 
L 317.323636 181.178787 
L 333.556364 188.161842 
L 349.789091 190.171096 
L 366.021818 218.792377 
L 382.254545 248.483971 
L 398.487273 250.252552 
" clip-path="url(#pf6c3c8d7a7)" style="fill: none; stroke: #440154; stroke-opacity: 0.5; stroke-width: 1.5; stroke-linecap: square"/>
   </g>
   <g id="line2d_42">
    <path d="M 73.832727 206.958082 
L 90.065455 256.66511 
L 106.298182 260.0964 
L 122.530909 227.397047 
L 138.763636 247.299032 
L 154.996364 226.179923 
L 171.229091 225.602781 
L 187.461818 196.894296 
L 203.694545 222.368614 
L 219.927273 124.665953 
L 236.16 186.513346 
L 252.392727 143.489556 
L 268.625455 257.560893 
L 284.858182 235.633861 
L 301.090909 237.8305 
L 317.323636 225.650621 
L 333.556364 203.957173 
L 349.789091 239.419323 
L 366.021818 227.460399 
L 382.254545 172.002434 
L 398.487273 225.231725 
" clip-path="url(#pf6c3c8d7a7)" style="fill: none; stroke: #440154; stroke-opacity: 0.5; stroke-width: 1.5; stroke-linecap: square"/>
   </g>
   <g id="line2d_43">
    <path d="M 73.832727 259.830768 
L 90.065455 272.091999 
L 106.298182 242.575225 
L 122.530909 252.052591 
L 138.763636 248.744609 
L 154.996364 257.77494 
L 171.229091 244.529226 
L 187.461818 263.428162 
L 203.694545 235.430175 
L 219.927273 221.758549 
L 236.16 257.004949 
L 252.392727 199.720565 
L 268.625455 219.794322 
L 284.858182 215.926891 
L 301.090909 149.097654 
L 317.323636 139.050349 
L 333.556364 142.61609 
L 349.789091 177.187639 
L 366.021818 176.609691 
L 382.254545 206.338896 
L 398.487273 245.272549 
" clip-path="url(#pf6c3c8d7a7)" style="fill: none; stroke: #440154; stroke-opacity: 0.5; stroke-width: 1.5; stroke-linecap: square"/>
   </g>
   <g id="line2d_44">
    <path d="M 73.832727 260.395353 
L 90.065455 248.6433 
L 106.298182 241.666021 
L 122.530909 243.227635 
L 138.763636 243.408357 
L 154.996364 221.424257 
L 171.229091 225.557058 
L 187.461818 236.59796 
L 203.694545 269.633874 
L 219.927273 238.434703 
L 236.16 264.51029 
L 252.392727 166.677194 
L 268.625455 166.325151 
L 284.858182 192.572153 
L 301.090909 249.90492 
L 317.323636 251.208744 
L 333.556364 248.182227 
L 349.789091 238.552969 
L 366.021818 257.550558 
L 382.254545 255.783523 
L 398.487273 259.382669 
" clip-path="url(#pf6c3c8d7a7)" style="fill: none; stroke: #440154; stroke-opacity: 0.5; stroke-width: 1.5; stroke-linecap: square"/>
   </g>
   <g id="line2d_45">
    <path d="M 73.832727 227.548533 
L 90.065455 263.740182 
L 106.298182 244.953586 
L 122.530909 240.692242 
L 138.763636 210.391375 
L 154.996364 241.276953 
L 171.229091 236.045521 
L 187.461818 249.579804 
L 203.694545 249.831442 
L 219.927273 224.807901 
L 236.16 271.278196 
L 252.392727 241.700636 
L 268.625455 140.977592 
L 284.858182 145.925944 
L 301.090909 235.29317 
L 317.323636 187.093876 
L 333.556364 191.255947 
L 349.789091 220.673266 
L 366.021818 209.848298 
L 382.254545 257.75357 
L 398.487273 245.368629 
" clip-path="url(#pf6c3c8d7a7)" style="fill: none; stroke: #440154; stroke-opacity: 0.5; stroke-width: 1.5; stroke-linecap: square"/>
   </g>
   <g id="line2d_46">
    <path d="M 73.832727 209.491759 
L 90.065455 247.923947 
L 106.298182 247.152463 
L 122.530909 222.127087 
L 138.763636 226.753505 
L 154.996364 234.621689 
L 171.229091 249.993373 
L 187.461818 241.741935 
L 203.694545 278.820566 
L 219.927273 236.761488 
L 236.16 231.534024 
L 252.392727 236.954166 
L 268.625455 150.522743 
L 284.858182 154.46769 
L 301.090909 146.485606 
L 317.323636 243.314793 
L 333.556364 246.743037 
L 349.789091 249.585455 
L 366.021818 258.870146 
L 382.254545 204.351377 
L 398.487273 247.561873 
" clip-path="url(#pf6c3c8d7a7)" style="fill: none; stroke: #440154; stroke-opacity: 0.5; stroke-width: 1.5; stroke-linecap: square"/>
   </g>
   <g id="line2d_47">
    <path d="M 73.832727 224.876484 
L 90.065455 200.589213 
L 106.298182 192.785828 
L 122.530909 195.140666 
L 138.763636 223.478217 
L 154.996364 152.366137 
L 171.229091 162.214852 
L 187.461818 154.165917 
L 203.694545 147.705968 
L 219.927273 172.572966 
L 236.16 151.180416 
L 252.392727 232.125362 
L 268.625455 248.955199 
L 284.858182 250.814101 
L 301.090909 238.695245 
L 317.323636 248.016018 
L 333.556364 216.898285 
L 349.789091 224.063659 
L 366.021818 164.695537 
L 382.254545 189.346495 
L 398.487273 73.400687 
" clip-path="url(#pf6c3c8d7a7)" style="fill: none; stroke: #440154; stroke-opacity: 0.5; stroke-width: 1.5; stroke-linecap: square"/>
   </g>
   <g id="line2d_48">
    <path d="M 73.832727 222.084135 
L 90.065455 193.256015 
L 106.298182 187.461658 
L 122.530909 172.791422 
L 138.763636 185.693367 
L 154.996364 218.391297 
L 171.229091 207.146967 
L 187.461818 203.028808 
L 203.694545 148.910097 
L 219.927273 116.648361 
L 236.16 188.103485 
L 252.392727 267.342914 
L 268.625455 264.736401 
L 284.858182 195.921414 
L 301.090909 258.383124 
L 317.323636 248.018472 
L 333.556364 248.732928 
L 349.789091 254.641406 
L 366.021818 246.778492 
L 382.254545 245.850255 
L 398.487273 251.579052 
" clip-path="url(#pf6c3c8d7a7)" style="fill: none; stroke: #440154; stroke-opacity: 0.5; stroke-width: 1.5; stroke-linecap: square"/>
   </g>
   <g id="line2d_49">
    <path d="M 73.832727 103.378113 
L 90.065455 220.846786 
L 106.298182 202.176365 
L 122.530909 214.404584 
L 138.763636 260.607376 
L 154.996364 207.783871 
L 171.229091 250.12444 
L 187.461818 182.165835 
L 203.694545 249.527581 
L 219.927273 179.129229 
L 236.16 252.220995 
L 252.392727 88.968149 
L 268.625455 278.030538 
L 284.858182 262.72978 
L 301.090909 194.808994 
L 317.323636 118.175423 
L 333.556364 212.666952 
L 349.789091 222.99773 
L 366.021818 182.805001 
L 382.254545 227.949189 
L 398.487273 204.73966 
" clip-path="url(#pf6c3c8d7a7)" style="fill: none; stroke: #440154; stroke-opacity: 0.5; stroke-width: 1.5; stroke-linecap: square"/>
   </g>
   <g id="line2d_50">
    <path d="M 73.832727 204.046981 
L 90.065455 240.152477 
L 106.298182 229.140785 
L 122.530909 255.556185 
L 138.763636 147.824475 
L 154.996364 161.261324 
L 171.229091 119.191518 
L 187.461818 230.043765 
L 203.694545 241.185044 
L 219.927273 160.234472 
L 236.16 166.05977 
L 252.392727 247.05875 
L 268.625455 227.299127 
L 284.858182 213.974827 
L 301.090909 263.168401 
L 317.323636 251.079807 
L 333.556364 276.959403 
L 349.789091 269.485696 
L 366.021818 209.822536 
L 382.254545 261.397705 
L 398.487273 255.518198 
" clip-path="url(#pf6c3c8d7a7)" style="fill: none; stroke: #440154; stroke-opacity: 0.5; stroke-width: 1.5; stroke-linecap: square"/>
   </g>
   <g id="line2d_51">
    <path d="M 73.832727 198.473813 
L 90.065455 179.29574 
L 106.298182 127.970797 
L 122.530909 188.657214 
L 138.763636 195.829868 
L 154.996364 218.939896 
L 171.229091 160.017823 
L 187.461818 230.424694 
L 203.694545 221.166904 
L 219.927273 191.883921 
L 236.16 143.97366 
L 252.392727 192.424495 
L 268.625455 146.209801 
L 284.858182 226.156725 
L 301.090909 135.363441 
L 317.323636 181.456259 
L 333.556364 227.844825 
L 349.789091 173.755327 
L 366.021818 169.356854 
L 382.254545 195.06998 
L 398.487273 209.98154 
" clip-path="url(#pf6c3c8d7a7)" style="fill: none; stroke: #440154; stroke-opacity: 0.5; stroke-width: 1.5; stroke-linecap: square"/>
   </g>
   <g id="line2d_52">
    <path d="M 73.832727 205.878862 
L 90.065455 218.817508 
L 106.298182 179.887932 
L 122.530909 197.597964 
L 138.763636 152.548929 
L 154.996364 209.677575 
L 171.229091 224.706405 
L 187.461818 171.177954 
L 203.694545 238.190621 
L 219.927273 205.607432 
L 236.16 118.643418 
L 252.392727 152.101871 
L 268.625455 231.218322 
L 284.858182 137.143247 
L 301.090909 149.216265 
L 317.323636 187.132027 
L 333.556364 217.543284 
L 349.789091 221.338023 
L 366.021818 231.863747 
L 382.254545 223.586693 
L 398.487273 220.363239 
" clip-path="url(#pf6c3c8d7a7)" style="fill: none; stroke: #440154; stroke-opacity: 0.5; stroke-width: 1.5; stroke-linecap: square"/>
   </g>
   <g id="line2d_53">
    <path d="M 73.832727 200.157128 
L 90.065455 239.434676 
L 106.298182 233.29713 
L 122.530909 239.788428 
L 138.763636 238.123011 
L 154.996364 239.594133 
L 171.229091 245.270899 
L 187.461818 259.274188 
L 203.694545 181.353053 
L 219.927273 226.80401 
L 236.16 243.659963 
L 252.392727 246.615433 
L 268.625455 230.982141 
L 284.858182 248.541897 
L 301.090909 264.44532 
L 317.323636 249.638354 
L 333.556364 251.774356 
L 349.789091 237.81739 
L 366.021818 278.688475 
L 382.254545 225.498799 
L 398.487273 289.371287 
" clip-path="url(#pf6c3c8d7a7)" style="fill: none; stroke: #440154; stroke-opacity: 0.5; stroke-width: 1.5; stroke-linecap: square"/>
   </g>
   <g id="line2d_54">
    <path d="M 73.832727 233.345378 
L 90.065455 203.027627 
L 106.298182 240.028742 
L 122.530909 199.715966 
L 138.763636 231.300223 
L 154.996364 175.171757 
L 171.229091 193.560617 
L 187.461818 175.910904 
L 203.694545 202.347316 
L 219.927273 177.326673 
L 236.16 225.403659 
L 252.392727 208.532627 
L 268.625455 203.463138 
L 284.858182 200.954782 
L 301.090909 224.663772 
L 317.323636 194.517443 
L 333.556364 226.570312 
L 349.789091 180.890241 
L 366.021818 214.784883 
L 382.254545 203.411091 
L 398.487273 247.364665 
" clip-path="url(#pf6c3c8d7a7)" style="fill: none; stroke: #440154; stroke-opacity: 0.5; stroke-width: 1.5; stroke-linecap: square"/>
   </g>
   <g id="line2d_55">
    <path d="M 73.832727 263.916721 
L 90.065455 270.481977 
L 106.298182 285.410588 
L 122.530909 292.916419 
L 138.763636 288.615671 
L 154.996364 294.341744 
L 171.229091 291.889947 
L 187.461818 280.202378 
L 203.694545 269.280558 
L 219.927273 274.973118 
L 236.16 287.420061 
L 252.392727 285.095593 
L 268.625455 280.06424 
L 284.858182 271.264948 
L 301.090909 283.48813 
L 317.323636 266.358354 
L 333.556364 276.273177 
L 349.789091 283.198251 
L 366.021818 285.115939 
L 382.254545 272.387577 
L 398.487273 283.203031 
" clip-path="url(#pf6c3c8d7a7)" style="fill: none; stroke: #440154; stroke-opacity: 0.5; stroke-width: 1.5; stroke-linecap: square"/>
   </g>
   <g id="line2d_56">
    <path d="M 73.832727 206.932653 
L 90.065455 247.302316 
L 106.298182 206.526887 
L 122.530909 222.331048 
L 138.763636 268.595505 
L 154.996364 241.705987 
L 171.229091 278.620015 
L 187.461818 285.559045 
L 203.694545 255.025016 
L 219.927273 280.735245 
L 236.16 275.386358 
L 252.392727 269.45185 
L 268.625455 286.393056 
L 284.858182 281.794172 
L 301.090909 272.191693 
L 317.323636 295.488 
L 333.556364 267.71643 
L 349.789091 216.64818 
L 366.021818 200.56693 
L 382.254545 262.577807 
L 398.487273 249.006991 
" clip-path="url(#pf6c3c8d7a7)" style="fill: none; stroke: #440154; stroke-opacity: 0.5; stroke-width: 1.5; stroke-linecap: square"/>
   </g>
   <g id="line2d_57">
    <path d="M 73.832727 203.609573 
L 90.065455 217.609691 
L 106.298182 220.52391 
L 122.530909 215.020845 
L 138.763636 237.02946 
L 154.996364 228.278468 
L 171.229091 221.339826 
L 187.461818 212.974588 
L 203.694545 184.152904 
L 219.927273 232.567158 
L 236.16 236.161075 
L 252.392727 215.208093 
L 268.625455 222.752999 
L 284.858182 211.774908 
L 301.090909 207.580501 
L 317.323636 248.589449 
L 333.556364 209.102604 
L 349.789091 193.20751 
L 366.021818 198.448315 
L 382.254545 130.075314 
L 398.487273 206.046425 
" clip-path="url(#pf6c3c8d7a7)" style="fill: none; stroke: #440154; stroke-opacity: 0.5; stroke-width: 1.5; stroke-linecap: square"/>
   </g>
   <g id="line2d_58">
    <path d="M 73.832727 228.204971 
L 90.065455 229.929855 
L 106.298182 239.391482 
L 122.530909 227.80622 
L 138.763636 225.944731 
L 154.996364 231.078373 
L 171.229091 239.096609 
L 187.461818 200.474053 
L 203.694545 179.781178 
L 219.927273 189.00263 
L 236.16 200.334949 
L 252.392727 213.256552 
L 268.625455 200.275019 
L 284.858182 174.150616 
L 301.090909 213.006744 
L 317.323636 173.641142 
L 333.556364 169.522422 
L 349.789091 169.987568 
L 366.021818 187.873018 
L 382.254545 193.584293 
L 398.487273 202.731133 
" clip-path="url(#pf6c3c8d7a7)" style="fill: none; stroke: #440154; stroke-opacity: 0.5; stroke-width: 1.5; stroke-linecap: square"/>
   </g>
   <g id="line2d_59">
    <path d="M 73.832727 171.574259 
L 90.065455 134.520154 
L 106.298182 104.018449 
L 122.530909 136.462974 
L 138.763636 122.122646 
L 154.996364 142.759031 
L 171.229091 152.916678 
L 187.461818 184.204224 
L 203.694545 167.613423 
L 219.927273 156.868527 
L 236.16 222.920905 
L 252.392727 202.504672 
L 268.625455 199.152567 
L 284.858182 171.197226 
L 301.090909 223.631358 
L 317.323636 224.597579 
L 333.556364 160.380202 
L 349.789091 217.290085 
L 366.021818 191.675731 
L 382.254545 146.567393 
L 398.487273 205.700804 
" clip-path="url(#pf6c3c8d7a7)" style="fill: none; stroke: #440154; stroke-opacity: 0.5; stroke-width: 1.5; stroke-linecap: square"/>
   </g>
   <g id="line2d_60">
    <path d="M 73.832727 262.890757 
L 90.065455 221.594265 
L 106.298182 243.977087 
L 122.530909 270.669155 
L 138.763636 250.870983 
L 154.996364 266.665923 
L 171.229091 278.319881 
L 187.461818 273.362435 
L 203.694545 275.449941 
L 219.927273 268.237163 
L 236.16 247.779831 
L 252.392727 257.795381 
L 268.625455 258.011629 
L 284.858182 252.550608 
L 301.090909 181.180692 
L 317.323636 260.88892 
L 333.556364 259.574731 
L 349.789091 202.505358 
L 366.021818 265.03084 
L 382.254545 277.825828 
L 398.487273 242.016565 
" clip-path="url(#pf6c3c8d7a7)" style="fill: none; stroke: #440154; stroke-opacity: 0.5; stroke-width: 1.5; stroke-linecap: square"/>
   </g>
   <g id="line2d_61">
    <path d="M 73.832727 220.874398 
L 90.065455 209.585554 
L 106.298182 206.047908 
L 122.530909 232.583834 
L 138.763636 226.147794 
L 154.996364 258.579719 
L 171.229091 273.968288 
L 187.461818 272.70884 
L 203.694545 262.413933 
L 219.927273 251.221546 
L 236.16 237.240417 
L 252.392727 261.275399 
L 268.625455 264.108095 
L 284.858182 181.126961 
L 301.090909 146.099305 
L 317.323636 218.857968 
L 333.556364 250.621213 
L 349.789091 218.413913 
L 366.021818 280.723222 
L 382.254545 258.176309 
L 398.487273 226.419848 
" clip-path="url(#pf6c3c8d7a7)" style="fill: none; stroke: #440154; stroke-opacity: 0.5; stroke-width: 1.5; stroke-linecap: square"/>
   </g>
   <g id="line2d_62">
    <path d="M 73.832727 194.342355 
L 90.065455 176.60186 
L 106.298182 189.777412 
L 122.530909 197.767123 
L 138.763636 196.17045 
L 154.996364 224.579721 
L 171.229091 192.376974 
L 187.461818 205.828442 
L 203.694545 188.105967 
L 219.927273 192.068663 
L 236.16 162.045811 
L 252.392727 198.629353 
L 268.625455 183.691437 
L 284.858182 226.443902 
L 301.090909 187.764954 
L 317.323636 185.948254 
L 333.556364 169.851018 
L 349.789091 197.47484 
L 366.021818 188.44856 
L 382.254545 165.177084 
L 398.487273 218.09049 
" clip-path="url(#pf6c3c8d7a7)" style="fill: none; stroke: #440154; stroke-opacity: 0.5; stroke-width: 1.5; stroke-linecap: square"/>
   </g>
   <g id="line2d_63">
    <path d="M 73.832727 265.222195 
L 90.065455 263.255383 
L 106.298182 270.692886 
L 122.530909 271.340694 
L 138.763636 251.8883 
L 154.996364 258.571081 
L 171.229091 251.05692 
L 187.461818 252.922771 
L 203.694545 262.021444 
L 219.927273 280.606108 
L 236.16 238.644732 
L 252.392727 245.286184 
L 268.625455 237.66701 
L 284.858182 253.205197 
L 301.090909 233.92699 
L 317.323636 266.861961 
L 333.556364 272.794279 
L 349.789091 263.090795 
L 366.021818 274.299128 
L 382.254545 240.910704 
L 398.487273 288.995099 
" clip-path="url(#pf6c3c8d7a7)" style="fill: none; stroke: #440154; stroke-opacity: 0.5; stroke-width: 1.5; stroke-linecap: square"/>
   </g>
   <g id="line2d_64">
    <path d="M 73.832727 277.566615 
L 90.065455 240.080468 
L 106.298182 227.52779 
L 122.530909 250.343208 
L 138.763636 273.523962 
L 154.996364 234.745631 
L 171.229091 250.964564 
L 187.461818 249.170632 
L 203.694545 257.355762 
L 219.927273 243.680091 
L 236.16 238.60727 
L 252.392727 235.461914 
L 268.625455 260.765533 
L 284.858182 242.4385 
L 301.090909 261.537246 
L 317.323636 253.144165 
L 333.556364 257.061595 
L 349.789091 257.807596 
L 366.021818 254.904856 
L 382.254545 246.409023 
L 398.487273 259.689938 
" clip-path="url(#pf6c3c8d7a7)" style="fill: none; stroke: #440154; stroke-opacity: 0.5; stroke-width: 1.5; stroke-linecap: square"/>
   </g>
   <g id="line2d_65">
    <path d="M 73.832727 212.363475 
L 90.065455 233.202924 
L 106.298182 227.406449 
L 122.530909 244.377356 
L 138.763636 239.800913 
L 154.996364 222.967855 
L 171.229091 234.348963 
L 187.461818 231.342477 
L 203.694545 218.275366 
L 219.927273 238.488127 
L 236.16 238.646016 
L 252.392727 242.867784 
L 268.625455 197.900971 
L 284.858182 232.654118 
L 301.090909 218.424992 
L 317.323636 199.178732 
L 333.556364 210.107478 
L 349.789091 187.738116 
L 366.021818 226.557697 
L 382.254545 232.728928 
L 398.487273 228.233387 
" clip-path="url(#pf6c3c8d7a7)" style="fill: none; stroke: #440154; stroke-opacity: 0.5; stroke-width: 1.5; stroke-linecap: square"/>
   </g>
   <g id="line2d_66">
    <path d="M 73.832727 222.026305 
L 90.065455 246.731802 
L 106.298182 231.261625 
L 122.530909 237.254197 
L 138.763636 224.525985 
L 154.996364 210.88877 
L 171.229091 220.639842 
L 187.461818 222.444914 
L 203.694545 216.244136 
L 219.927273 235.644731 
L 236.16 204.459422 
L 252.392727 215.555622 
L 268.625455 212.635795 
L 284.858182 208.008071 
L 301.090909 215.640378 
L 317.323636 221.47171 
L 333.556364 206.47838 
L 349.789091 218.244424 
L 366.021818 215.959312 
L 382.254545 201.379233 
L 398.487273 227.007934 
" clip-path="url(#pf6c3c8d7a7)" style="fill: none; stroke: #440154; stroke-opacity: 0.5; stroke-width: 1.5; stroke-linecap: square"/>
   </g>
   <g id="line2d_67">
    <path d="M 73.832727 242.669992 
L 90.065455 214.771813 
L 106.298182 195.772734 
L 122.530909 176.185894 
L 138.763636 174.316834 
L 154.996364 195.148143 
L 171.229091 209.682765 
L 187.461818 155.501004 
L 203.694545 203.37246 
L 219.927273 196.940715 
L 236.16 154.304007 
L 252.392727 196.549794 
L 268.625455 182.151206 
L 284.858182 224.95017 
L 301.090909 201.200137 
L 317.323636 215.552387 
L 333.556364 177.182758 
L 349.789091 211.097 
L 366.021818 193.435392 
L 382.254545 161.872948 
L 398.487273 186.080563 
" clip-path="url(#pf6c3c8d7a7)" style="fill: none; stroke: #440154; stroke-opacity: 0.5; stroke-width: 1.5; stroke-linecap: square"/>
   </g>
   <g id="line2d_68">
    <path d="M 73.832727 255.625385 
L 90.065455 250.701051 
L 106.298182 230.821241 
L 122.530909 251.722511 
L 138.763636 202.429542 
L 154.996364 246.876764 
L 171.229091 252.256554 
L 187.461818 264.566362 
L 203.694545 243.042688 
L 219.927273 253.443407 
L 236.16 249.149557 
L 252.392727 239.735197 
L 268.625455 276.631916 
L 284.858182 265.936677 
L 301.090909 229.395254 
L 317.323636 282.294213 
L 333.556364 259.504639 
L 349.789091 225.343663 
L 366.021818 237.07726 
L 382.254545 268.215426 
L 398.487273 279.801484 
" clip-path="url(#pf6c3c8d7a7)" style="fill: none; stroke: #440154; stroke-opacity: 0.5; stroke-width: 1.5; stroke-linecap: square"/>
   </g>
   <g id="line2d_69">
    <path d="M 73.832727 177.793114 
L 90.065455 161.780663 
L 106.298182 189.43491 
L 122.530909 204.718516 
L 138.763636 88.550238 
L 154.996364 278.663501 
L 171.229091 231.689892 
L 187.461818 243.99495 
L 203.694545 205.803188 
L 219.927273 237.271127 
L 236.16 286.091853 
L 252.392727 276.126035 
L 268.625455 200.524768 
L 284.858182 236.482333 
L 301.090909 237.01932 
L 317.323636 229.121625 
L 333.556364 274.181375 
L 349.789091 272.385614 
L 366.021818 258.280535 
L 382.254545 229.151745 
L 398.487273 286.744867 
" clip-path="url(#pf6c3c8d7a7)" style="fill: none; stroke: #440154; stroke-opacity: 0.5; stroke-width: 1.5; stroke-linecap: square"/>
   </g>
   <g id="line2d_70">
    <path d="M 73.832727 193.251124 
L 90.065455 205.021378 
L 106.298182 204.914075 
L 122.530909 218.789735 
L 138.763636 180.703591 
L 154.996364 219.716437 
L 171.229091 208.724037 
L 187.461818 239.937382 
L 203.694545 221.19507 
L 219.927273 203.354622 
L 236.16 265.414649 
L 252.392727 235.755921 
L 268.625455 226.293121 
L 284.858182 244.401155 
L 301.090909 238.884626 
L 317.323636 187.708543 
L 333.556364 240.845049 
L 349.789091 226.662139 
L 366.021818 207.20187 
L 382.254545 250.971469 
L 398.487273 225.406356 
" clip-path="url(#pf6c3c8d7a7)" style="fill: none; stroke: #440154; stroke-opacity: 0.5; stroke-width: 1.5; stroke-linecap: square"/>
   </g>
   <g id="line2d_71">
    <path d="M 73.832727 274.012399 
L 90.065455 284.963375 
L 106.298182 269.788977 
L 122.530909 284.755544 
L 138.763636 269.386704 
L 154.996364 266.852044 
L 171.229091 273.91619 
L 187.461818 295.450878 
L 203.694545 248.998451 
L 219.927273 227.010051 
L 236.16 230.633604 
L 252.392727 256.22783 
L 268.625455 265.323086 
L 284.858182 237.569394 
L 301.090909 244.731717 
L 317.323636 217.990706 
L 333.556364 237.538626 
L 349.789091 235.193218 
L 366.021818 244.071892 
L 382.254545 262.384472 
L 398.487273 266.379038 
" clip-path="url(#pf6c3c8d7a7)" style="fill: none; stroke: #440154; stroke-opacity: 0.5; stroke-width: 1.5; stroke-linecap: square"/>
   </g>
   <g id="line2d_72">
    <path d="M 73.832727 256.198387 
L 90.065455 251.890232 
L 106.298182 270.907655 
L 122.530909 252.32532 
L 138.763636 246.631957 
L 154.996364 271.162075 
L 171.229091 262.828665 
L 187.461818 268.987481 
L 203.694545 241.913403 
L 219.927273 240.619904 
L 236.16 235.121718 
L 252.392727 253.181547 
L 268.625455 277.194291 
L 284.858182 273.993387 
L 301.090909 276.072033 
L 317.323636 262.306381 
L 333.556364 263.648024 
L 349.789091 240.266101 
L 366.021818 271.260544 
L 382.254545 273.753559 
L 398.487273 265.979894 
" clip-path="url(#pf6c3c8d7a7)" style="fill: none; stroke: #440154; stroke-opacity: 0.5; stroke-width: 1.5; stroke-linecap: square"/>
   </g>
   <g id="line2d_73">
    <path d="M 73.832727 198.913948 
L 90.065455 202.979099 
L 106.298182 200.512468 
L 122.530909 218.894872 
L 138.763636 162.642019 
L 154.996364 219.267658 
L 171.229091 189.191034 
L 187.461818 187.625713 
L 203.694545 210.427301 
L 219.927273 172.995372 
L 236.16 223.400263 
L 252.392727 231.788752 
L 268.625455 236.862792 
L 284.858182 216.202848 
L 301.090909 215.005157 
L 317.323636 200.793918 
L 333.556364 217.090673 
L 349.789091 202.477017 
L 366.021818 209.930819 
L 382.254545 241.707847 
L 398.487273 221.605331 
" clip-path="url(#pf6c3c8d7a7)" style="fill: none; stroke: #440154; stroke-opacity: 0.5; stroke-width: 1.5; stroke-linecap: square"/>
   </g>
   <g id="line2d_74">
    <path d="M 73.832727 245.844301 
L 90.065455 238.565536 
L 106.298182 217.167754 
L 122.530909 235.545974 
L 138.763636 225.045305 
L 154.996364 218.148353 
L 171.229091 211.118246 
L 187.461818 224.183246 
L 203.694545 205.153346 
L 219.927273 238.437435 
L 236.16 186.217945 
L 252.392727 200.971785 
L 268.625455 190.280525 
L 284.858182 164.278645 
L 301.090909 190.116672 
L 317.323636 185.839572 
L 333.556364 213.449756 
L 349.789091 217.910574 
L 366.021818 204.493729 
L 382.254545 233.736325 
L 398.487273 227.040712 
" clip-path="url(#pf6c3c8d7a7)" style="fill: none; stroke: #440154; stroke-opacity: 0.5; stroke-width: 1.5; stroke-linecap: square"/>
   </g>
   <g id="line2d_75">
    <path d="M 73.832727 194.293021 
L 90.065455 226.762154 
L 106.298182 239.648608 
L 122.530909 223.771363 
L 138.763636 228.665736 
L 154.996364 214.021678 
L 171.229091 216.551786 
L 187.461818 222.046485 
L 203.694545 194.815175 
L 219.927273 178.39608 
L 236.16 227.109067 
L 252.392727 158.993249 
L 268.625455 162.920944 
L 284.858182 153.444322 
L 301.090909 182.124566 
L 317.323636 158.282373 
L 333.556364 175.790678 
L 349.789091 124.615032 
L 366.021818 161.479949 
L 382.254545 129.47282 
L 398.487273 221.627136 
" clip-path="url(#pf6c3c8d7a7)" style="fill: none; stroke: #440154; stroke-opacity: 0.5; stroke-width: 1.5; stroke-linecap: square"/>
   </g>
   <g id="line2d_76">
    <path d="M 73.832727 181.28495 
L 90.065455 151.366924 
L 106.298182 169.305239 
L 122.530909 191.570822 
L 138.763636 193.011077 
L 154.996364 179.54926 
L 171.229091 272.267795 
L 187.461818 241.055153 
L 203.694545 286.585834 
L 219.927273 222.871805 
L 236.16 248.410906 
L 252.392727 266.648431 
L 268.625455 260.757716 
L 284.858182 259.396325 
L 301.090909 261.967039 
L 317.323636 204.921098 
L 333.556364 260.375589 
L 349.789091 273.083606 
L 366.021818 204.307623 
L 382.254545 270.420572 
L 398.487273 277.055717 
" clip-path="url(#pf6c3c8d7a7)" style="fill: none; stroke: #440154; stroke-opacity: 0.5; stroke-width: 1.5; stroke-linecap: square"/>
   </g>
   <g id="line2d_77">
    <path d="M 73.832727 174.233552 
L 90.065455 163.420566 
L 106.298182 250.332435 
L 122.530909 220.657945 
L 138.763636 245.585248 
L 154.996364 232.311441 
L 171.229091 271.123516 
L 187.461818 247.565685 
L 203.694545 256.169356 
L 219.927273 239.456025 
L 236.16 262.17834 
L 252.392727 256.272342 
L 268.625455 233.687848 
L 284.858182 239.836958 
L 301.090909 271.053709 
L 317.323636 268.344422 
L 333.556364 255.317425 
L 349.789091 252.98055 
L 366.021818 212.565649 
L 382.254545 238.127857 
L 398.487273 266.079422 
" clip-path="url(#pf6c3c8d7a7)" style="fill: none; stroke: #440154; stroke-opacity: 0.5; stroke-width: 1.5; stroke-linecap: square"/>
   </g>
   <g id="line2d_78">
    <path d="M 73.832727 113.364283 
L 90.065455 189.276804 
L 106.298182 196.275587 
L 122.530909 209.024816 
L 138.763636 223.084479 
L 154.996364 210.934662 
L 171.229091 174.538853 
L 187.461818 112.910425 
L 203.694545 213.339247 
L 219.927273 154.4348 
L 236.16 186.561307 
L 252.392727 208.933483 
L 268.625455 224.632139 
L 284.858182 182.58973 
L 301.090909 210.264701 
L 317.323636 182.964969 
L 333.556364 194.257472 
L 349.789091 207.215129 
L 366.021818 176.144466 
L 382.254545 181.79905 
L 398.487273 208.052528 
" clip-path="url(#pf6c3c8d7a7)" style="fill: none; stroke: #440154; stroke-opacity: 0.5; stroke-width: 1.5; stroke-linecap: square"/>
   </g>
   <g id="line2d_79">
    <path d="M 73.832727 241.477365 
L 90.065455 222.757908 
L 106.298182 252.085878 
L 122.530909 205.813004 
L 138.763636 214.586261 
L 154.996364 237.567503 
L 171.229091 258.116613 
L 187.461818 226.221863 
L 203.694545 231.604048 
L 219.927273 246.758275 
L 236.16 221.442489 
L 252.392727 245.359807 
L 268.625455 251.219176 
L 284.858182 232.491823 
L 301.090909 224.484417 
L 317.323636 241.885351 
L 333.556364 247.005696 
L 349.789091 245.692199 
L 366.021818 237.10764 
L 382.254545 255.286624 
L 398.487273 243.028451 
" clip-path="url(#pf6c3c8d7a7)" style="fill: none; stroke: #440154; stroke-opacity: 0.5; stroke-width: 1.5; stroke-linecap: square"/>
   </g>
   <g id="line2d_80">
    <path d="M 73.832727 222.967049 
L 90.065455 276.83506 
L 106.298182 278.233754 
L 122.530909 273.002066 
L 138.763636 255.652419 
L 154.996364 273.432148 
L 171.229091 237.652499 
L 187.461818 251.547085 
L 203.694545 255.479325 
L 219.927273 267.389346 
L 236.16 245.485762 
L 252.392727 249.645485 
L 268.625455 257.774774 
L 284.858182 253.286622 
L 301.090909 216.449452 
L 317.323636 259.000304 
L 333.556364 232.494913 
L 349.789091 240.098571 
L 366.021818 253.07196 
L 382.254545 246.940005 
L 398.487273 215.799357 
" clip-path="url(#pf6c3c8d7a7)" style="fill: none; stroke: #440154; stroke-opacity: 0.5; stroke-width: 1.5; stroke-linecap: square"/>
   </g>
   <g id="line2d_81">
    <path d="M 73.832727 207.529346 
L 90.065455 153.795884 
L 106.298182 215.524176 
L 122.530909 215.440223 
L 138.763636 206.063612 
L 154.996364 206.543975 
L 171.229091 195.327148 
L 187.461818 212.972747 
L 203.694545 204.90276 
L 219.927273 205.856227 
L 236.16 208.966348 
L 252.392727 221.381853 
L 268.625455 230.766801 
L 284.858182 212.394387 
L 301.090909 229.693442 
L 317.323636 225.742632 
L 333.556364 221.352743 
L 349.789091 226.629667 
L 366.021818 223.092602 
L 382.254545 187.274931 
L 398.487273 215.965644 
" clip-path="url(#pf6c3c8d7a7)" style="fill: none; stroke: #440154; stroke-opacity: 0.5; stroke-width: 1.5; stroke-linecap: square"/>
   </g>
   <g id="line2d_82">
    <path d="M 73.832727 207.683591 
L 90.065455 190.911291 
L 106.298182 190.851094 
L 122.530909 183.311916 
L 138.763636 184.102601 
L 154.996364 154.79956 
L 171.229091 230.564207 
L 187.461818 156.322537 
L 203.694545 198.212195 
L 219.927273 202.581543 
L 236.16 181.155476 
L 252.392727 194.692782 
L 268.625455 154.766214 
L 284.858182 197.4434 
L 301.090909 168.563483 
L 317.323636 229.378745 
L 333.556364 151.542145 
L 349.789091 184.252571 
L 366.021818 177.12562 
L 382.254545 192.355166 
L 398.487273 176.88352 
" clip-path="url(#pf6c3c8d7a7)" style="fill: none; stroke: #440154; stroke-opacity: 0.5; stroke-width: 1.5; stroke-linecap: square"/>
   </g>
   <g id="line2d_83">
    <path d="M 73.832727 206.470586 
L 90.065455 170.810465 
L 106.298182 162.234109 
L 122.530909 173.371022 
L 138.763636 173.760573 
L 154.996364 157.6373 
L 171.229091 151.920443 
L 187.461818 166.611142 
L 203.694545 160.953324 
L 219.927273 173.405655 
L 236.16 134.08013 
L 252.392727 137.2148 
L 268.625455 153.620881 
L 284.858182 167.643555 
L 301.090909 144.289898 
L 317.323636 154.803107 
L 333.556364 143.581426 
L 349.789091 159.239838 
L 366.021818 164.148444 
L 382.254545 167.678579 
L 398.487273 158.516901 
" clip-path="url(#pf6c3c8d7a7)" style="fill: none; stroke: #440154; stroke-opacity: 0.5; stroke-width: 1.5; stroke-linecap: square"/>
   </g>
   <g id="line2d_84">
    <path d="M 73.832727 260.808704 
L 90.065455 272.730483 
L 106.298182 263.690275 
L 122.530909 285.007909 
L 138.763636 287.885232 
L 154.996364 269.965222 
L 171.229091 279.940839 
L 187.461818 263.502229 
L 203.694545 257.685293 
L 219.927273 277.432154 
L 236.16 274.097119 
L 252.392727 280.232958 
L 268.625455 274.514373 
L 284.858182 274.041407 
L 301.090909 262.313723 
L 317.323636 265.380906 
L 333.556364 294.424283 
L 349.789091 292.36276 
L 366.021818 280.50658 
L 382.254545 277.96735 
L 398.487273 281.768642 
" clip-path="url(#pf6c3c8d7a7)" style="fill: none; stroke: #440154; stroke-opacity: 0.5; stroke-width: 1.5; stroke-linecap: square"/>
   </g>
   <g id="line2d_85">
    <path d="M 73.832727 270.613707 
L 90.065455 263.086052 
L 106.298182 258.546774 
L 122.530909 261.273445 
L 138.763636 274.502713 
L 154.996364 267.802777 
L 171.229091 273.203333 
L 187.461818 267.516879 
L 203.694545 276.050838 
L 219.927273 242.484171 
L 236.16 260.216976 
L 252.392727 265.033846 
L 268.625455 253.519376 
L 284.858182 249.909448 
L 301.090909 249.516055 
L 317.323636 290.607538 
L 333.556364 280.346204 
L 349.789091 263.33823 
L 366.021818 273.732712 
L 382.254545 270.677224 
L 398.487273 268.10396 
" clip-path="url(#pf6c3c8d7a7)" style="fill: none; stroke: #440154; stroke-opacity: 0.5; stroke-width: 1.5; stroke-linecap: square"/>
   </g>
   <g id="line2d_86">
    <path d="M 73.832727 210.949027 
L 90.065455 186.140761 
L 106.298182 222.947527 
L 122.530909 188.549252 
L 138.763636 194.523699 
L 154.996364 200.72111 
L 171.229091 176.186582 
L 187.461818 191.145741 
L 203.694545 169.266699 
L 219.927273 165.117887 
L 236.16 176.488196 
L 252.392727 187.486802 
L 268.625455 185.692554 
L 284.858182 185.451575 
L 301.090909 202.160908 
L 317.323636 179.453254 
L 333.556364 247.083011 
L 349.789091 237.797876 
L 366.021818 194.220447 
L 382.254545 232.729785 
L 398.487273 191.881841 
" clip-path="url(#pf6c3c8d7a7)" style="fill: none; stroke: #440154; stroke-opacity: 0.5; stroke-width: 1.5; stroke-linecap: square"/>
   </g>
   <g id="line2d_87">
    <path d="M 73.832727 255.042799 
L 90.065455 285.47551 
L 106.298182 280.412262 
L 122.530909 276.488615 
L 138.763636 290.330237 
L 154.996364 287.011697 
L 171.229091 280.897441 
L 187.461818 271.280127 
L 203.694545 261.293195 
L 219.927273 271.802496 
L 236.16 255.685603 
L 252.392727 252.236517 
L 268.625455 265.778596 
L 284.858182 255.38148 
L 301.090909 245.243398 
L 317.323636 276.324926 
L 333.556364 246.040877 
L 349.789091 235.138898 
L 366.021818 242.414622 
L 382.254545 271.991458 
L 398.487273 266.924273 
" clip-path="url(#pf6c3c8d7a7)" style="fill: none; stroke: #440154; stroke-opacity: 0.5; stroke-width: 1.5; stroke-linecap: square"/>
   </g>
   <g id="line2d_88">
    <path d="M 73.832727 241.902027 
L 90.065455 233.638582 
L 106.298182 217.244591 
L 122.530909 246.096511 
L 138.763636 215.763156 
L 154.996364 271.113018 
L 171.229091 279.380072 
L 187.461818 211.771034 
L 203.694545 282.736272 
L 219.927273 258.559438 
L 236.16 212.748783 
L 252.392727 221.839771 
L 268.625455 261.214776 
L 284.858182 262.095261 
L 301.090909 233.200855 
L 317.323636 243.891119 
L 333.556364 230.120213 
L 349.789091 241.866634 
L 366.021818 229.331819 
L 382.254545 259.475625 
L 398.487273 255.09255 
" clip-path="url(#pf6c3c8d7a7)" style="fill: none; stroke: #440154; stroke-opacity: 0.5; stroke-width: 1.5; stroke-linecap: square"/>
   </g>
   <g id="line2d_89">
    <path d="M 73.832727 217.557388 
L 90.065455 203.298765 
L 106.298182 214.437341 
L 122.530909 197.154813 
L 138.763636 202.6088 
L 154.996364 214.70143 
L 171.229091 214.74785 
L 187.461818 187.778201 
L 203.694545 229.339429 
L 219.927273 218.650105 
L 236.16 215.373613 
L 252.392727 223.585781 
L 268.625455 209.546195 
L 284.858182 216.535917 
L 301.090909 185.345518 
L 317.323636 198.977378 
L 333.556364 228.544651 
L 349.789091 226.951652 
L 366.021818 210.012664 
L 382.254545 221.362445 
L 398.487273 213.493982 
" clip-path="url(#pf6c3c8d7a7)" style="fill: none; stroke: #440154; stroke-opacity: 0.5; stroke-width: 1.5; stroke-linecap: square"/>
   </g>
   <g id="line2d_90">
    <path d="M 73.832727 227.575966 
L 90.065455 248.644877 
L 106.298182 231.512511 
L 122.530909 208.012134 
L 138.763636 239.443719 
L 154.996364 244.155554 
L 171.229091 227.784889 
L 187.461818 259.994119 
L 203.694545 216.810032 
L 219.927273 217.340769 
L 236.16 185.329295 
L 252.392727 222.993569 
L 268.625455 201.650688 
L 284.858182 235.368581 
L 301.090909 226.540687 
L 317.323636 239.160114 
L 333.556364 216.169504 
L 349.789091 154.414376 
L 366.021818 186.205013 
L 382.254545 210.389203 
L 398.487273 235.587444 
" clip-path="url(#pf6c3c8d7a7)" style="fill: none; stroke: #440154; stroke-opacity: 0.5; stroke-width: 1.5; stroke-linecap: square"/>
   </g>
   <g id="line2d_91">
    <path d="M 73.832727 93.285564 
L 90.065455 138.43538 
L 106.298182 105.318695 
L 122.530909 138.207993 
L 138.763636 179.86584 
L 154.996364 143.153153 
L 171.229091 151.345629 
L 187.461818 145.299543 
L 203.694545 260.005962 
L 219.927273 176.318536 
L 236.16 205.368191 
L 252.392727 226.315485 
L 268.625455 187.655156 
L 284.858182 159.453407 
L 301.090909 161.725794 
L 317.323636 150.758171 
L 333.556364 213.546935 
L 349.789091 199.275734 
L 366.021818 185.555896 
L 382.254545 153.889007 
L 398.487273 195.908198 
" clip-path="url(#pf6c3c8d7a7)" style="fill: none; stroke: #440154; stroke-opacity: 0.5; stroke-width: 1.5; stroke-linecap: square"/>
   </g>
   <g id="line2d_92">
    <path d="M 73.832727 205.723649 
L 90.065455 245.620434 
L 106.298182 242.25018 
L 122.530909 233.651978 
L 138.763636 230.732164 
L 154.996364 274.379526 
L 171.229091 270.269689 
L 187.461818 226.50645 
L 203.694545 239.19179 
L 219.927273 244.351135 
L 236.16 254.59756 
L 252.392727 285.518993 
L 268.625455 260.201281 
L 284.858182 261.241623 
L 301.090909 219.497865 
L 317.323636 239.972625 
L 333.556364 256.829491 
L 349.789091 246.404447 
L 366.021818 207.521145 
L 382.254545 250.025453 
L 398.487273 231.171622 
" clip-path="url(#pf6c3c8d7a7)" style="fill: none; stroke: #440154; stroke-opacity: 0.5; stroke-width: 1.5; stroke-linecap: square"/>
   </g>
   <g id="line2d_93">
    <path d="M 73.832727 225.833244 
L 90.065455 210.895613 
L 106.298182 235.080755 
L 122.530909 238.533176 
L 138.763636 244.846316 
L 154.996364 252.085963 
L 171.229091 252.740832 
L 187.461818 223.498604 
L 203.694545 205.701622 
L 219.927273 220.704976 
L 236.16 222.442171 
L 252.392727 201.499926 
L 268.625455 175.323842 
L 284.858182 221.896069 
L 301.090909 236.853332 
L 317.323636 258.157439 
L 333.556364 222.294943 
L 349.789091 221.648298 
L 366.021818 254.371994 
L 382.254545 222.767962 
L 398.487273 231.4801 
" clip-path="url(#pf6c3c8d7a7)" style="fill: none; stroke: #440154; stroke-opacity: 0.5; stroke-width: 1.5; stroke-linecap: square"/>
   </g>
   <g id="line2d_94">
    <path d="M 73.832727 197.95343 
L 90.065455 175.237956 
L 106.298182 182.496637 
L 122.530909 217.30188 
L 138.763636 176.85498 
L 154.996364 215.30713 
L 171.229091 227.371872 
L 187.461818 243.342298 
L 203.694545 192.449401 
L 219.927273 204.659923 
L 236.16 224.964527 
L 252.392727 190.8128 
L 268.625455 223.675542 
L 284.858182 186.735223 
L 301.090909 204.526639 
L 317.323636 199.589573 
L 333.556364 225.913533 
L 349.789091 208.421624 
L 366.021818 203.811254 
L 382.254545 221.071554 
L 398.487273 227.270697 
" clip-path="url(#pf6c3c8d7a7)" style="fill: none; stroke: #440154; stroke-opacity: 0.5; stroke-width: 1.5; stroke-linecap: square"/>
   </g>
   <g id="line2d_95">
    <path d="M 73.832727 283.165543 
L 90.065455 281.104798 
L 106.298182 272.177009 
L 122.530909 262.906481 
L 138.763636 282.629148 
L 154.996364 262.954334 
L 171.229091 259.102754 
L 187.461818 222.690676 
L 203.694545 259.312008 
L 219.927273 212.762479 
L 236.16 238.78762 
L 252.392727 258.001366 
L 268.625455 232.972211 
L 284.858182 246.703427 
L 301.090909 229.055717 
L 317.323636 247.695879 
L 333.556364 277.583064 
L 349.789091 270.514264 
L 366.021818 271.619033 
L 382.254545 276.575233 
L 398.487273 254.045324 
" clip-path="url(#pf6c3c8d7a7)" style="fill: none; stroke: #440154; stroke-opacity: 0.5; stroke-width: 1.5; stroke-linecap: square"/>
   </g>
   <g id="line2d_96">
    <path d="M 73.832727 267.082716 
L 90.065455 258.139892 
L 106.298182 270.370215 
L 122.530909 262.461963 
L 138.763636 231.726842 
L 154.996364 276.116271 
L 171.229091 277.964692 
L 187.461818 259.965582 
L 203.694545 264.709102 
L 219.927273 280.290806 
L 236.16 260.93273 
L 252.392727 278.515151 
L 268.625455 278.147022 
L 284.858182 266.934103 
L 301.090909 240.762995 
L 317.323636 277.069719 
L 333.556364 286.653817 
L 349.789091 289.505629 
L 366.021818 289.68778 
L 382.254545 276.350241 
L 398.487273 271.980133 
" clip-path="url(#pf6c3c8d7a7)" style="fill: none; stroke: #440154; stroke-opacity: 0.5; stroke-width: 1.5; stroke-linecap: square"/>
   </g>
   <g id="line2d_97">
    <path d="M 73.832727 208.472249 
L 90.065455 198.785449 
L 106.298182 195.403475 
L 122.530909 190.697114 
L 138.763636 217.364419 
L 154.996364 187.338571 
L 171.229091 203.617202 
L 187.461818 219.095478 
L 203.694545 233.150337 
L 219.927273 245.998389 
L 236.16 214.103849 
L 252.392727 207.823123 
L 268.625455 218.237481 
L 284.858182 214.406889 
L 301.090909 198.458415 
L 317.323636 223.781081 
L 333.556364 184.41662 
L 349.789091 197.544004 
L 366.021818 214.687826 
L 382.254545 212.584255 
L 398.487273 226.340525 
" clip-path="url(#pf6c3c8d7a7)" style="fill: none; stroke: #440154; stroke-opacity: 0.5; stroke-width: 1.5; stroke-linecap: square"/>
   </g>
   <g id="line2d_98">
    <path d="M 73.832727 206.796731 
L 90.065455 188.514375 
L 106.298182 212.008731 
L 122.530909 210.726808 
L 138.763636 201.618786 
L 154.996364 172.899526 
L 171.229091 237.406286 
L 187.461818 219.102737 
L 203.694545 247.80623 
L 219.927273 230.652743 
L 236.16 201.064886 
L 252.392727 214.143258 
L 268.625455 231.218391 
L 284.858182 231.877322 
L 301.090909 224.318021 
L 317.323636 220.98013 
L 333.556364 208.936454 
L 349.789091 198.961283 
L 366.021818 196.006092 
L 382.254545 213.289978 
L 398.487273 207.685751 
" clip-path="url(#pf6c3c8d7a7)" style="fill: none; stroke: #440154; stroke-opacity: 0.5; stroke-width: 1.5; stroke-linecap: square"/>
   </g>
   <g id="line2d_99">
    <path d="M 73.832727 175.611502 
L 90.065455 171.298819 
L 106.298182 171.624662 
L 122.530909 167.32221 
L 138.763636 196.069041 
L 154.996364 197.875001 
L 171.229091 143.163341 
L 187.461818 128.437747 
L 203.694545 150.202988 
L 219.927273 241.988115 
L 236.16 246.455954 
L 252.392727 193.378621 
L 268.625455 194.471683 
L 284.858182 196.887303 
L 301.090909 216.99457 
L 317.323636 230.334457 
L 333.556364 184.927434 
L 349.789091 183.736731 
L 366.021818 234.144453 
L 382.254545 212.514281 
L 398.487273 174.397499 
" clip-path="url(#pf6c3c8d7a7)" style="fill: none; stroke: #440154; stroke-opacity: 0.5; stroke-width: 1.5; stroke-linecap: square"/>
   </g>
   <g id="patch_3">
    <path d="M 57.6 307.584 
L 57.6 41.472 
" style="fill: none; stroke: #000000; stroke-width: 3; stroke-linejoin: miter; stroke-linecap: square"/>
   </g>
   <g id="patch_4">
    <path d="M 414.72 307.584 
L 414.72 41.472 
" style="fill: none; stroke: #000000; stroke-width: 3; stroke-linejoin: miter; stroke-linecap: square"/>
   </g>
   <g id="patch_5">
    <path d="M 57.6 307.584 
L 414.72 307.584 
" style="fill: none; stroke: #000000; stroke-width: 3; stroke-linejoin: miter; stroke-linecap: square"/>
   </g>
   <g id="patch_6">
    <path d="M 57.6 41.472 
L 414.72 41.472 
" style="fill: none; stroke: #000000; stroke-width: 3; stroke-linejoin: miter; stroke-linecap: square"/>
   </g>
   <g id="text_10">
    <!-- Atom Type H (n=90, mean Q=8.75) -->
    <g transform="translate(40.225937 35.472) scale(0.22 -0.22)">
     <defs>
      <path id="DejaVuSans-41" d="M 2188 4044 
L 1331 1722 
L 3047 1722 
L 2188 4044 
z
M 1831 4666 
L 2547 4666 
L 4325 0 
L 3669 0 
L 3244 1197 
L 1141 1197 
L 716 0 
L 50 0 
L 1831 4666 
z
" transform="scale(0.015625)"/>
      <path id="DejaVuSans-74" d="M 1172 4494 
L 1172 3500 
L 2356 3500 
L 2356 3053 
L 1172 3053 
L 1172 1153 
Q 1172 725 1289 603 
Q 1406 481 1766 481 
L 2356 481 
L 2356 0 
L 1766 0 
Q 1100 0 847 248 
Q 594 497 594 1153 
L 594 3053 
L 172 3053 
L 172 3500 
L 594 3500 
L 594 4494 
L 1172 4494 
z
" transform="scale(0.015625)"/>
      <path id="DejaVuSans-6f" d="M 1959 3097 
Q 1497 3097 1228 2736 
Q 959 2375 959 1747 
Q 959 1119 1226 758 
Q 1494 397 1959 397 
Q 2419 397 2687 759 
Q 2956 1122 2956 1747 
Q 2956 2369 2687 2733 
Q 2419 3097 1959 3097 
z
M 1959 3584 
Q 2709 3584 3137 3096 
Q 3566 2609 3566 1747 
Q 3566 888 3137 398 
Q 2709 -91 1959 -91 
Q 1206 -91 779 398 
Q 353 888 353 1747 
Q 353 2609 779 3096 
Q 1206 3584 1959 3584 
z
" transform="scale(0.015625)"/>
      <path id="DejaVuSans-6d" d="M 3328 2828 
Q 3544 3216 3844 3400 
Q 4144 3584 4550 3584 
Q 5097 3584 5394 3201 
Q 5691 2819 5691 2113 
L 5691 0 
L 5113 0 
L 5113 2094 
Q 5113 2597 4934 2840 
Q 4756 3084 4391 3084 
Q 3944 3084 3684 2787 
Q 3425 2491 3425 1978 
L 3425 0 
L 2847 0 
L 2847 2094 
Q 2847 2600 2669 2842 
Q 2491 3084 2119 3084 
Q 1678 3084 1418 2786 
Q 1159 2488 1159 1978 
L 1159 0 
L 581 0 
L 581 3500 
L 1159 3500 
L 1159 2956 
Q 1356 3278 1631 3431 
Q 1906 3584 2284 3584 
Q 2666 3584 2933 3390 
Q 3200 3197 3328 2828 
z
" transform="scale(0.015625)"/>
      <path id="DejaVuSans-20" transform="scale(0.015625)"/>
      <path id="DejaVuSans-54" d="M -19 4666 
L 3928 4666 
L 3928 4134 
L 2272 4134 
L 2272 0 
L 1638 0 
L 1638 4134 
L -19 4134 
L -19 4666 
z
" transform="scale(0.015625)"/>
      <path id="DejaVuSans-79" d="M 2059 -325 
Q 1816 -950 1584 -1140 
Q 1353 -1331 966 -1331 
L 506 -1331 
L 506 -850 
L 844 -850 
Q 1081 -850 1212 -737 
Q 1344 -625 1503 -206 
L 1606 56 
L 191 3500 
L 800 3500 
L 1894 763 
L 2988 3500 
L 3597 3500 
L 2059 -325 
z
" transform="scale(0.015625)"/>
      <path id="DejaVuSans-70" d="M 1159 525 
L 1159 -1331 
L 581 -1331 
L 581 3500 
L 1159 3500 
L 1159 2969 
Q 1341 3281 1617 3432 
Q 1894 3584 2278 3584 
Q 2916 3584 3314 3078 
Q 3713 2572 3713 1747 
Q 3713 922 3314 415 
Q 2916 -91 2278 -91 
Q 1894 -91 1617 61 
Q 1341 213 1159 525 
z
M 3116 1747 
Q 3116 2381 2855 2742 
Q 2594 3103 2138 3103 
Q 1681 3103 1420 2742 
Q 1159 2381 1159 1747 
Q 1159 1113 1420 752 
Q 1681 391 2138 391 
Q 2594 391 2855 752 
Q 3116 1113 3116 1747 
z
" transform="scale(0.015625)"/>
      <path id="DejaVuSans-65" d="M 3597 1894 
L 3597 1613 
L 953 1613 
Q 991 1019 1311 708 
Q 1631 397 2203 397 
Q 2534 397 2845 478 
Q 3156 559 3463 722 
L 3463 178 
Q 3153 47 2828 -22 
Q 2503 -91 2169 -91 
Q 1331 -91 842 396 
Q 353 884 353 1716 
Q 353 2575 817 3079 
Q 1281 3584 2069 3584 
Q 2775 3584 3186 3129 
Q 3597 2675 3597 1894 
z
M 3022 2063 
Q 3016 2534 2758 2815 
Q 2500 3097 2075 3097 
Q 1594 3097 1305 2825 
Q 1016 2553 972 2059 
L 3022 2063 
z
" transform="scale(0.015625)"/>
      <path id="DejaVuSans-48" d="M 628 4666 
L 1259 4666 
L 1259 2753 
L 3553 2753 
L 3553 4666 
L 4184 4666 
L 4184 0 
L 3553 0 
L 3553 2222 
L 1259 2222 
L 1259 0 
L 628 0 
L 628 4666 
z
" transform="scale(0.015625)"/>
      <path id="DejaVuSans-28" d="M 1984 4856 
Q 1566 4138 1362 3434 
Q 1159 2731 1159 2009 
Q 1159 1288 1364 580 
Q 1569 -128 1984 -844 
L 1484 -844 
Q 1016 -109 783 600 
Q 550 1309 550 2009 
Q 550 2706 781 3412 
Q 1013 4119 1484 4856 
L 1984 4856 
z
" transform="scale(0.015625)"/>
      <path id="DejaVuSans-6e" d="M 3513 2113 
L 3513 0 
L 2938 0 
L 2938 2094 
Q 2938 2591 2744 2837 
Q 2550 3084 2163 3084 
Q 1697 3084 1428 2787 
Q 1159 2491 1159 1978 
L 1159 0 
L 581 0 
L 581 3500 
L 1159 3500 
L 1159 2956 
Q 1366 3272 1645 3428 
Q 1925 3584 2291 3584 
Q 2894 3584 3203 3211 
Q 3513 2838 3513 2113 
z
" transform="scale(0.015625)"/>
      <path id="DejaVuSans-3d" d="M 678 2906 
L 4684 2906 
L 4684 2381 
L 678 2381 
L 678 2906 
z
M 678 1631 
L 4684 1631 
L 4684 1100 
L 678 1100 
L 678 1631 
z
" transform="scale(0.015625)"/>
      <path id="DejaVuSans-39" d="M 703 97 
L 703 672 
Q 941 559 1184 500 
Q 1428 441 1663 441 
Q 2288 441 2617 861 
Q 2947 1281 2994 2138 
Q 2813 1869 2534 1725 
Q 2256 1581 1919 1581 
Q 1219 1581 811 2004 
Q 403 2428 403 3163 
Q 403 3881 828 4315 
Q 1253 4750 1959 4750 
Q 2769 4750 3195 4129 
Q 3622 3509 3622 2328 
Q 3622 1225 3098 567 
Q 2575 -91 1691 -91 
Q 1453 -91 1209 -44 
Q 966 3 703 97 
z
M 1959 2075 
Q 2384 2075 2632 2365 
Q 2881 2656 2881 3163 
Q 2881 3666 2632 3958 
Q 2384 4250 1959 4250 
Q 1534 4250 1286 3958 
Q 1038 3666 1038 3163 
Q 1038 2656 1286 2365 
Q 1534 2075 1959 2075 
z
" transform="scale(0.015625)"/>
      <path id="DejaVuSans-2c" d="M 750 794 
L 1409 794 
L 1409 256 
L 897 -744 
L 494 -744 
L 750 256 
L 750 794 
z
" transform="scale(0.015625)"/>
      <path id="DejaVuSans-61" d="M 2194 1759 
Q 1497 1759 1228 1600 
Q 959 1441 959 1056 
Q 959 750 1161 570 
Q 1363 391 1709 391 
Q 2188 391 2477 730 
Q 2766 1069 2766 1631 
L 2766 1759 
L 2194 1759 
z
M 3341 1997 
L 3341 0 
L 2766 0 
L 2766 531 
Q 2569 213 2275 61 
Q 1981 -91 1556 -91 
Q 1019 -91 701 211 
Q 384 513 384 1019 
Q 384 1609 779 1909 
Q 1175 2209 1959 2209 
L 2766 2209 
L 2766 2266 
Q 2766 2663 2505 2880 
Q 2244 3097 1772 3097 
Q 1472 3097 1187 3025 
Q 903 2953 641 2809 
L 641 3341 
Q 956 3463 1253 3523 
Q 1550 3584 1831 3584 
Q 2591 3584 2966 3190 
Q 3341 2797 3341 1997 
z
" transform="scale(0.015625)"/>
      <path id="DejaVuSans-51" d="M 2522 4238 
Q 1834 4238 1429 3725 
Q 1025 3213 1025 2328 
Q 1025 1447 1429 934 
Q 1834 422 2522 422 
Q 3209 422 3611 934 
Q 4013 1447 4013 2328 
Q 4013 3213 3611 3725 
Q 3209 4238 2522 4238 
z
M 3406 84 
L 4238 -825 
L 3475 -825 
L 2784 -78 
Q 2681 -84 2626 -87 
Q 2572 -91 2522 -91 
Q 1538 -91 948 567 
Q 359 1225 359 2328 
Q 359 3434 948 4092 
Q 1538 4750 2522 4750 
Q 3503 4750 4090 4092 
Q 4678 3434 4678 2328 
Q 4678 1516 4351 937 
Q 4025 359 3406 84 
z
" transform="scale(0.015625)"/>
      <path id="DejaVuSans-38" d="M 2034 2216 
Q 1584 2216 1326 1975 
Q 1069 1734 1069 1313 
Q 1069 891 1326 650 
Q 1584 409 2034 409 
Q 2484 409 2743 651 
Q 3003 894 3003 1313 
Q 3003 1734 2745 1975 
Q 2488 2216 2034 2216 
z
M 1403 2484 
Q 997 2584 770 2862 
Q 544 3141 544 3541 
Q 544 4100 942 4425 
Q 1341 4750 2034 4750 
Q 2731 4750 3128 4425 
Q 3525 4100 3525 3541 
Q 3525 3141 3298 2862 
Q 3072 2584 2669 2484 
Q 3125 2378 3379 2068 
Q 3634 1759 3634 1313 
Q 3634 634 3220 271 
Q 2806 -91 2034 -91 
Q 1263 -91 848 271 
Q 434 634 434 1313 
Q 434 1759 690 2068 
Q 947 2378 1403 2484 
z
M 1172 3481 
Q 1172 3119 1398 2916 
Q 1625 2713 2034 2713 
Q 2441 2713 2670 2916 
Q 2900 3119 2900 3481 
Q 2900 3844 2670 4047 
Q 2441 4250 2034 4250 
Q 1625 4250 1398 4047 
Q 1172 3844 1172 3481 
z
" transform="scale(0.015625)"/>
      <path id="DejaVuSans-2e" d="M 684 794 
L 1344 794 
L 1344 0 
L 684 0 
L 684 794 
z
" transform="scale(0.015625)"/>
      <path id="DejaVuSans-37" d="M 525 4666 
L 3525 4666 
L 3525 4397 
L 1831 0 
L 1172 0 
L 2766 4134 
L 525 4134 
L 525 4666 
z
" transform="scale(0.015625)"/>
      <path id="DejaVuSans-29" d="M 513 4856 
L 1013 4856 
Q 1481 4119 1714 3412 
Q 1947 2706 1947 2009 
Q 1947 1309 1714 600 
Q 1481 -109 1013 -844 
L 513 -844 
Q 928 -128 1133 580 
Q 1338 1288 1338 2009 
Q 1338 2731 1133 3434 
Q 928 4138 513 4856 
z
" transform="scale(0.015625)"/>
     </defs>
     <use xlink:href="#DejaVuSans-41"/>
     <use xlink:href="#DejaVuSans-74" transform="translate(66.658203 0)"/>
     <use xlink:href="#DejaVuSans-6f" transform="translate(105.867188 0)"/>
     <use xlink:href="#DejaVuSans-6d" transform="translate(167.048828 0)"/>
     <use xlink:href="#DejaVuSans-20" transform="translate(264.460938 0)"/>
     <use xlink:href="#DejaVuSans-54" transform="translate(296.248047 0)"/>
     <use xlink:href="#DejaVuSans-79" transform="translate(341.707031 0)"/>
     <use xlink:href="#DejaVuSans-70" transform="translate(400.886719 0)"/>
     <use xlink:href="#DejaVuSans-65" transform="translate(464.363281 0)"/>
     <use xlink:href="#DejaVuSans-20" transform="translate(525.886719 0)"/>
     <use xlink:href="#DejaVuSans-48" transform="translate(557.673828 0)"/>
     <use xlink:href="#DejaVuSans-20" transform="translate(632.869141 0)"/>
     <use xlink:href="#DejaVuSans-28" transform="translate(664.65625 0)"/>
     <use xlink:href="#DejaVuSans-6e" transform="translate(703.669922 0)"/>
     <use xlink:href="#DejaVuSans-3d" transform="translate(767.048828 0)"/>
     <use xlink:href="#DejaVuSans-39" transform="translate(850.837891 0)"/>
     <use xlink:href="#DejaVuSans-30" transform="translate(914.460938 0)"/>
     <use xlink:href="#DejaVuSans-2c" transform="translate(978.083984 0)"/>
     <use xlink:href="#DejaVuSans-20" transform="translate(1009.871094 0)"/>
     <use xlink:href="#DejaVuSans-6d" transform="translate(1041.658203 0)"/>
     <use xlink:href="#DejaVuSans-65" transform="translate(1139.070312 0)"/>
     <use xlink:href="#DejaVuSans-61" transform="translate(1200.59375 0)"/>
     <use xlink:href="#DejaVuSans-6e" transform="translate(1261.873047 0)"/>
     <use xlink:href="#DejaVuSans-20" transform="translate(1325.251953 0)"/>
     <use xlink:href="#DejaVuSans-51" transform="translate(1357.039062 0)"/>
     <use xlink:href="#DejaVuSans-3d" transform="translate(1435.75 0)"/>
     <use xlink:href="#DejaVuSans-38" transform="translate(1519.539062 0)"/>
     <use xlink:href="#DejaVuSans-2e" transform="translate(1583.162109 0)"/>
     <use xlink:href="#DejaVuSans-37" transform="translate(1614.949219 0)"/>
     <use xlink:href="#DejaVuSans-35" transform="translate(1678.572266 0)"/>
     <use xlink:href="#DejaVuSans-29" transform="translate(1742.195312 0)"/>
    </g>
   </g>
  </g>
 </g>
 <defs>
  <clipPath id="pf6c3c8d7a7">
   <rect x="57.6" y="41.472" width="357.12" height="266.112"/>
  </clipPath>
 </defs>
</svg>
