<?xml version="1.0" encoding="utf-8" standalone="no"?>
<!DOCTYPE svg PUBLIC "-//W3C//DTD SVG 1.1//EN"
  "http://www.w3.org/Graphics/SVG/1.1/DTD/svg11.dtd">
<svg xmlns:xlink="http://www.w3.org/1999/xlink" width="460.8pt" height="345.6pt" viewBox="0 0 460.8 345.6" xmlns="http://www.w3.org/2000/svg" version="1.1">
 <metadata>
  <rdf:RDF xmlns:dc="http://purl.org/dc/elements/1.1/" xmlns:cc="http://creativecommons.org/ns#" xmlns:rdf="http://www.w3.org/1999/02/22-rdf-syntax-ns#">
   <cc:Work>
    <dc:type rdf:resource="http://purl.org/dc/dcmitype/StillImage"/>
    <dc:date>2025-12-10T13:57:09.920278</dc:date>
    <dc:format>image/svg+xml</dc:format>
    <dc:creator>
     <cc:Agent>
      <dc:title>Matplotlib v3.10.3, https://matplotlib.org/</dc:title>
     </cc:Agent>
    </dc:creator>
   </cc:Work>
  </rdf:RDF>
 </metadata>
 <defs>
  <style type="text/css">*{stroke-linejoin: round; stroke-linecap: butt}</style>
 </defs>
 <g id="figure_1">
  <g id="patch_1">
   <path d="M 0 345.6 
L 460.8 345.6 
L 460.8 0 
L 0 0 
z
" style="fill: #ffffff"/>
  </g>
  <g id="axes_1">
   <g id="patch_2">
    <path d="M 57.6 307.584 
L 414.72 307.584 
L 414.72 41.472 
L 57.6 41.472 
z
" style="fill: #ffffff"/>
   </g>
   <g id="matplotlib.axis_1">
    <g id="xtick_1">
     <g id="line2d_1">
      <defs>
       <path id="med43b2eb17" d="M 0 0 
L 0 3.5 
" style="stroke: #000000; stroke-width: 0.8"/>
      </defs>
      <g>
       <use xlink:href="#med43b2eb17" x="73.832727" y="307.584" style="stroke: #000000; stroke-width: 0.8"/>
      </g>
     </g>
     <g id="text_1">
      <!-- 0 -->
      <g transform="translate(69.060852 325.981656) scale(0.15 -0.15)">
       <defs>
        <path id="DejaVuSans-30" d="M 2034 4250 
Q 1547 4250 1301 3770 
Q 1056 3291 1056 2328 
Q 1056 1369 1301 889 
Q 1547 409 2034 409 
Q 2525 409 2770 889 
Q 3016 1369 3016 2328 
Q 3016 3291 2770 3770 
Q 2525 4250 2034 4250 
z
M 2034 4750 
Q 2819 4750 3233 4129 
Q 3647 3509 3647 2328 
Q 3647 1150 3233 529 
Q 2819 -91 2034 -91 
Q 1250 -91 836 529 
Q 422 1150 422 2328 
Q 422 3509 836 4129 
Q 1250 4750 2034 4750 
z
" transform="scale(0.015625)"/>
       </defs>
       <use xlink:href="#DejaVuSans-30"/>
      </g>
     </g>
    </g>
    <g id="xtick_2">
     <g id="line2d_2">
      <g>
       <use xlink:href="#med43b2eb17" x="154.996364" y="307.584" style="stroke: #000000; stroke-width: 0.8"/>
      </g>
     </g>
     <g id="text_2">
      <!-- 5 -->
      <g transform="translate(150.224489 325.981656) scale(0.15 -0.15)">
       <defs>
        <path id="DejaVuSans-35" d="M 691 4666 
L 3169 4666 
L 3169 4134 
L 1269 4134 
L 1269 2991 
Q 1406 3038 1543 3061 
Q 1681 3084 1819 3084 
Q 2600 3084 3056 2656 
Q 3513 2228 3513 1497 
Q 3513 744 3044 326 
Q 2575 -91 1722 -91 
Q 1428 -91 1123 -41 
Q 819 9 494 109 
L 494 744 
Q 775 591 1075 516 
Q 1375 441 1709 441 
Q 2250 441 2565 725 
Q 2881 1009 2881 1497 
Q 2881 1984 2565 2268 
Q 2250 2553 1709 2553 
Q 1456 2553 1204 2497 
Q 953 2441 691 2322 
L 691 4666 
z
" transform="scale(0.015625)"/>
       </defs>
       <use xlink:href="#DejaVuSans-35"/>
      </g>
     </g>
    </g>
    <g id="xtick_3">
     <g id="line2d_3">
      <g>
       <use xlink:href="#med43b2eb17" x="236.16" y="307.584" style="stroke: #000000; stroke-width: 0.8"/>
      </g>
     </g>
     <g id="text_3">
      <!-- 10 -->
      <g transform="translate(226.61625 325.981656) scale(0.15 -0.15)">
       <defs>
        <path id="DejaVuSans-31" d="M 794 531 
L 1825 531 
L 1825 4091 
L 703 3866 
L 703 4441 
L 1819 4666 
L 2450 4666 
L 2450 531 
L 3481 531 
L 3481 0 
L 794 0 
L 794 531 
z
" transform="scale(0.015625)"/>
       </defs>
       <use xlink:href="#DejaVuSans-31"/>
       <use xlink:href="#DejaVuSans-30" transform="translate(63.623047 0)"/>
      </g>
     </g>
    </g>
    <g id="xtick_4">
     <g id="line2d_4">
      <g>
       <use xlink:href="#med43b2eb17" x="317.323636" y="307.584" style="stroke: #000000; stroke-width: 0.8"/>
      </g>
     </g>
     <g id="text_4">
      <!-- 15 -->
      <g transform="translate(307.779886 325.981656) scale(0.15 -0.15)">
       <use xlink:href="#DejaVuSans-31"/>
       <use xlink:href="#DejaVuSans-35" transform="translate(63.623047 0)"/>
      </g>
     </g>
    </g>
    <g id="xtick_5">
     <g id="line2d_5">
      <g>
       <use xlink:href="#med43b2eb17" x="398.487273" y="307.584" style="stroke: #000000; stroke-width: 0.8"/>
      </g>
     </g>
     <g id="text_5">
      <!-- 20 -->
      <g transform="translate(388.943523 325.981656) scale(0.15 -0.15)">
       <defs>
        <path id="DejaVuSans-32" d="M 1228 531 
L 3431 531 
L 3431 0 
L 469 0 
L 469 531 
Q 828 903 1448 1529 
Q 2069 2156 2228 2338 
Q 2531 2678 2651 2914 
Q 2772 3150 2772 3378 
Q 2772 3750 2511 3984 
Q 2250 4219 1831 4219 
Q 1534 4219 1204 4116 
Q 875 4013 500 3803 
L 500 4441 
Q 881 4594 1212 4672 
Q 1544 4750 1819 4750 
Q 2544 4750 2975 4387 
Q 3406 4025 3406 3419 
Q 3406 3131 3298 2873 
Q 3191 2616 2906 2266 
Q 2828 2175 2409 1742 
Q 1991 1309 1228 531 
z
" transform="scale(0.015625)"/>
       </defs>
       <use xlink:href="#DejaVuSans-32"/>
       <use xlink:href="#DejaVuSans-30" transform="translate(63.623047 0)"/>
      </g>
     </g>
    </g>
   </g>
   <g id="matplotlib.axis_2">
    <g id="ytick_1">
     <g id="line2d_6">
      <defs>
       <path id="m78567dc4c8" d="M 0 0 
L -3.5 0 
" style="stroke: #000000; stroke-width: 0.8"/>
      </defs>
      <g>
       <use xlink:href="#m78567dc4c8" x="57.6" y="287.890017" style="stroke: #000000; stroke-width: 0.8"/>
      </g>
     </g>
     <g id="text_6">
      <!-- 5.0 -->
      <g transform="translate(26.745313 293.588845) scale(0.15 -0.15)">
       <defs>
        <path id="DejaVuSans-2e" d="M 684 794 
L 1344 794 
L 1344 0 
L 684 0 
L 684 794 
z
" transform="scale(0.015625)"/>
       </defs>
       <use xlink:href="#DejaVuSans-35"/>
       <use xlink:href="#DejaVuSans-2e" transform="translate(63.623047 0)"/>
       <use xlink:href="#DejaVuSans-30" transform="translate(95.410156 0)"/>
      </g>
     </g>
    </g>
    <g id="ytick_2">
     <g id="line2d_7">
      <g>
       <use xlink:href="#m78567dc4c8" x="57.6" y="252.102536" style="stroke: #000000; stroke-width: 0.8"/>
      </g>
     </g>
     <g id="text_7">
      <!-- 7.5 -->
      <g transform="translate(26.745313 257.801364) scale(0.15 -0.15)">
       <defs>
        <path id="DejaVuSans-37" d="M 525 4666 
L 3525 4666 
L 3525 4397 
L 1831 0 
L 1172 0 
L 2766 4134 
L 525 4134 
L 525 4666 
z
" transform="scale(0.015625)"/>
       </defs>
       <use xlink:href="#DejaVuSans-37"/>
       <use xlink:href="#DejaVuSans-2e" transform="translate(63.623047 0)"/>
       <use xlink:href="#DejaVuSans-35" transform="translate(95.410156 0)"/>
      </g>
     </g>
    </g>
    <g id="ytick_3">
     <g id="line2d_8">
      <g>
       <use xlink:href="#m78567dc4c8" x="57.6" y="216.315056" style="stroke: #000000; stroke-width: 0.8"/>
      </g>
     </g>
     <g id="text_8">
      <!-- 10.0 -->
      <g transform="translate(17.201563 222.013884) scale(0.15 -0.15)">
       <use xlink:href="#DejaVuSans-31"/>
       <use xlink:href="#DejaVuSans-30" transform="translate(63.623047 0)"/>
       <use xlink:href="#DejaVuSans-2e" transform="translate(127.246094 0)"/>
       <use xlink:href="#DejaVuSans-30" transform="translate(159.033203 0)"/>
      </g>
     </g>
    </g>
    <g id="ytick_4">
     <g id="line2d_9">
      <g>
       <use xlink:href="#m78567dc4c8" x="57.6" y="180.527575" style="stroke: #000000; stroke-width: 0.8"/>
      </g>
     </g>
     <g id="text_9">
      <!-- 12.5 -->
      <g transform="translate(17.201563 186.226403) scale(0.15 -0.15)">
       <use xlink:href="#DejaVuSans-31"/>
       <use xlink:href="#DejaVuSans-32" transform="translate(63.623047 0)"/>
       <use xlink:href="#DejaVuSans-2e" transform="translate(127.246094 0)"/>
       <use xlink:href="#DejaVuSans-35" transform="translate(159.033203 0)"/>
      </g>
     </g>
    </g>
    <g id="ytick_5">
     <g id="line2d_10">
      <g>
       <use xlink:href="#m78567dc4c8" x="57.6" y="144.740095" style="stroke: #000000; stroke-width: 0.8"/>
      </g>
     </g>
     <g id="text_10">
      <!-- 15.0 -->
      <g transform="translate(17.201563 150.438923) scale(0.15 -0.15)">
       <use xlink:href="#DejaVuSans-31"/>
       <use xlink:href="#DejaVuSans-35" transform="translate(63.623047 0)"/>
       <use xlink:href="#DejaVuSans-2e" transform="translate(127.246094 0)"/>
       <use xlink:href="#DejaVuSans-30" transform="translate(159.033203 0)"/>
      </g>
     </g>
    </g>
    <g id="ytick_6">
     <g id="line2d_11">
      <g>
       <use xlink:href="#m78567dc4c8" x="57.6" y="108.952614" style="stroke: #000000; stroke-width: 0.8"/>
      </g>
     </g>
     <g id="text_11">
      <!-- 17.5 -->
      <g transform="translate(17.201563 114.651442) scale(0.15 -0.15)">
       <use xlink:href="#DejaVuSans-31"/>
       <use xlink:href="#DejaVuSans-37" transform="translate(63.623047 0)"/>
       <use xlink:href="#DejaVuSans-2e" transform="translate(127.246094 0)"/>
       <use xlink:href="#DejaVuSans-35" transform="translate(159.033203 0)"/>
      </g>
     </g>
    </g>
    <g id="ytick_7">
     <g id="line2d_12">
      <g>
       <use xlink:href="#m78567dc4c8" x="57.6" y="73.165134" style="stroke: #000000; stroke-width: 0.8"/>
      </g>
     </g>
     <g id="text_12">
      <!-- 20.0 -->
      <g transform="translate(17.201563 78.863962) scale(0.15 -0.15)">
       <use xlink:href="#DejaVuSans-32"/>
       <use xlink:href="#DejaVuSans-30" transform="translate(63.623047 0)"/>
       <use xlink:href="#DejaVuSans-2e" transform="translate(127.246094 0)"/>
       <use xlink:href="#DejaVuSans-30" transform="translate(159.033203 0)"/>
      </g>
     </g>
    </g>
   </g>
   <g id="line2d_13">
    <path d="M 73.832727 224.068334 
L 90.065455 205.037773 
L 106.298182 204.114444 
L 122.530909 208.684901 
L 138.763636 185.89314 
L 154.996364 179.184855 
L 171.229091 196.611158 
L 187.461818 177.535294 
L 203.694545 156.789471 
L 219.927273 224.109286 
L 236.16 60.059863 
L 252.392727 87.017966 
L 268.625455 97.304774 
L 284.858182 104.684964 
L 301.090909 104.844006 
L 317.323636 68.133028 
L 333.556364 53.568 
L 349.789091 90.687027 
L 366.021818 125.888398 
L 382.254545 183.319076 
L 398.487273 143.399433 
" clip-path="url(#p3f0583d64e)" style="fill: none; stroke: #31688e; stroke-opacity: 0.5; stroke-width: 1.5; stroke-linecap: square"/>
   </g>
   <g id="line2d_14">
    <path d="M 73.832727 198.181145 
L 90.065455 225.293123 
L 106.298182 217.823386 
L 122.530909 250.107975 
L 138.763636 202.475381 
L 154.996364 191.162256 
L 171.229091 185.985124 
L 187.461818 110.023054 
L 203.694545 132.342334 
L 219.927273 63.357155 
L 236.16 197.493235 
L 252.392727 207.528254 
L 268.625455 188.451376 
L 284.858182 231.111639 
L 301.090909 158.12883 
L 317.323636 165.152118 
L 333.556364 143.345928 
L 349.789091 131.730638 
L 366.021818 196.453455 
L 382.254545 186.390246 
L 398.487273 98.497495 
" clip-path="url(#p3f0583d64e)" style="fill: none; stroke: #31688e; stroke-opacity: 0.5; stroke-width: 1.5; stroke-linecap: square"/>
   </g>
   <g id="line2d_15">
    <path d="M 73.832727 184.995939 
L 90.065455 191.022265 
L 106.298182 192.254682 
L 122.530909 168.968675 
L 138.763636 181.35538 
L 154.996364 109.774292 
L 171.229091 163.917319 
L 187.461818 192.694026 
L 203.694545 224.243107 
L 219.927273 239.198698 
L 236.16 235.229183 
L 252.392727 217.099131 
L 268.625455 237.701233 
L 284.858182 229.246929 
L 301.090909 229.878918 
L 317.323636 230.617029 
L 333.556364 256.683521 
L 349.789091 104.697275 
L 366.021818 243.625655 
L 382.254545 151.186686 
L 398.487273 230.031735 
" clip-path="url(#p3f0583d64e)" style="fill: none; stroke: #31688e; stroke-opacity: 0.5; stroke-width: 1.5; stroke-linecap: square"/>
   </g>
   <g id="line2d_16">
    <path d="M 73.832727 184.710418 
L 90.065455 191.312625 
L 106.298182 216.383712 
L 122.530909 203.283465 
L 138.763636 212.118901 
L 154.996364 199.80349 
L 171.229091 192.00583 
L 187.461818 186.990335 
L 203.694545 233.023931 
L 219.927273 242.145367 
L 236.16 180.414226 
L 252.392727 105.882656 
L 268.625455 81.291375 
L 284.858182 223.804973 
L 301.090909 134.397215 
L 317.323636 150.402657 
L 333.556364 150.14546 
L 349.789091 172.007381 
L 366.021818 67.124295 
L 382.254545 275.176252 
L 398.487273 233.506013 
" clip-path="url(#p3f0583d64e)" style="fill: none; stroke: #31688e; stroke-opacity: 0.5; stroke-width: 1.5; stroke-linecap: square"/>
   </g>
   <g id="line2d_17">
    <path d="M 73.832727 227.721826 
L 90.065455 197.548607 
L 106.298182 221.621313 
L 122.530909 214.32248 
L 138.763636 241.144777 
L 154.996364 214.167973 
L 171.229091 145.624466 
L 187.461818 247.079523 
L 203.694545 216.620692 
L 219.927273 219.529536 
L 236.16 211.578681 
L 252.392727 228.277146 
L 268.625455 227.304931 
L 284.858182 239.410253 
L 301.090909 226.379951 
L 317.323636 218.36619 
L 333.556364 235.770363 
L 349.789091 215.066643 
L 366.021818 226.555895 
L 382.254545 236.131839 
L 398.487273 165.00796 
" clip-path="url(#p3f0583d64e)" style="fill: none; stroke: #31688e; stroke-opacity: 0.5; stroke-width: 1.5; stroke-linecap: square"/>
   </g>
   <g id="line2d_18">
    <path d="M 73.832727 206.097944 
L 90.065455 204.203096 
L 106.298182 241.939002 
L 122.530909 230.487306 
L 138.763636 220.375633 
L 154.996364 241.295174 
L 171.229091 155.166997 
L 187.461818 209.250457 
L 203.694545 209.407482 
L 219.927273 215.536607 
L 236.16 206.267296 
L 252.392727 222.984662 
L 268.625455 215.70392 
L 284.858182 184.585823 
L 301.090909 183.985156 
L 317.323636 208.190128 
L 333.556364 218.000348 
L 349.789091 195.402239 
L 366.021818 209.881602 
L 382.254545 175.018045 
L 398.487273 208.245186 
" clip-path="url(#p3f0583d64e)" style="fill: none; stroke: #31688e; stroke-opacity: 0.5; stroke-width: 1.5; stroke-linecap: square"/>
   </g>
   <g id="line2d_19">
    <path d="M 73.832727 256.327954 
L 90.065455 257.237769 
L 106.298182 270.26704 
L 122.530909 252.11672 
L 138.763636 264.880493 
L 154.996364 243.26528 
L 171.229091 215.224965 
L 187.461818 211.755588 
L 203.694545 213.673689 
L 219.927273 188.863402 
L 236.16 242.438366 
L 252.392727 122.593832 
L 268.625455 213.876115 
L 284.858182 196.792312 
L 301.090909 228.822163 
L 317.323636 248.859903 
L 333.556364 231.704448 
L 349.789091 227.400676 
L 366.021818 196.903289 
L 382.254545 230.466826 
L 398.487273 236.223739 
" clip-path="url(#p3f0583d64e)" style="fill: none; stroke: #31688e; stroke-opacity: 0.5; stroke-width: 1.5; stroke-linecap: square"/>
   </g>
   <g id="line2d_20">
    <path d="M 73.832727 259.481868 
L 90.065455 252.80371 
L 106.298182 235.750092 
L 122.530909 234.853385 
L 138.763636 216.553895 
L 154.996364 194.022116 
L 171.229091 234.745119 
L 187.461818 246.993147 
L 203.694545 245.634775 
L 219.927273 240.291465 
L 236.16 179.536713 
L 252.392727 207.264088 
L 268.625455 159.014117 
L 284.858182 255.367623 
L 301.090909 234.763498 
L 317.323636 202.439939 
L 333.556364 188.664123 
L 349.789091 208.719382 
L 366.021818 235.619867 
L 382.254545 202.462009 
L 398.487273 246.185741 
" clip-path="url(#p3f0583d64e)" style="fill: none; stroke: #31688e; stroke-opacity: 0.5; stroke-width: 1.5; stroke-linecap: square"/>
   </g>
   <g id="line2d_21">
    <path d="M 73.832727 242.088501 
L 90.065455 229.926219 
L 106.298182 240.148402 
L 122.530909 222.091864 
L 138.763636 232.082246 
L 154.996364 243.405531 
L 171.229091 230.507685 
L 187.461818 157.375964 
L 203.694545 226.744741 
L 219.927273 173.231275 
L 236.16 207.993439 
L 252.392727 115.810186 
L 268.625455 221.155909 
L 284.858182 188.596375 
L 301.090909 200.414474 
L 317.323636 195.133442 
L 333.556364 175.8456 
L 349.789091 130.609521 
L 366.021818 160.499044 
L 382.254545 151.216066 
L 398.487273 245.080674 
" clip-path="url(#p3f0583d64e)" style="fill: none; stroke: #31688e; stroke-opacity: 0.5; stroke-width: 1.5; stroke-linecap: square"/>
   </g>
   <g id="line2d_22">
    <path d="M 73.832727 186.418421 
L 90.065455 142.445444 
L 106.298182 201.568194 
L 122.530909 202.117523 
L 138.763636 184.368996 
L 154.996364 199.378715 
L 171.229091 181.37709 
L 187.461818 212.873926 
L 203.694545 161.776639 
L 219.927273 222.098631 
L 236.16 193.546824 
L 252.392727 189.250899 
L 268.625455 211.56993 
L 284.858182 156.27199 
L 301.090909 176.333503 
L 317.323636 206.225858 
L 333.556364 236.954659 
L 349.789091 223.657021 
L 366.021818 194.663932 
L 382.254545 215.308268 
L 398.487273 196.641218 
" clip-path="url(#p3f0583d64e)" style="fill: none; stroke: #31688e; stroke-opacity: 0.5; stroke-width: 1.5; stroke-linecap: square"/>
   </g>
   <g id="line2d_23">
    <path d="M 73.832727 228.42086 
L 90.065455 137.795247 
L 106.298182 151.440391 
L 122.530909 150.451811 
L 138.763636 158.143147 
L 154.996364 177.40786 
L 171.229091 134.497758 
L 187.461818 150.898394 
L 203.694545 206.714574 
L 219.927273 174.716496 
L 236.16 109.984968 
L 252.392727 124.228531 
L 268.625455 117.24007 
L 284.858182 104.037285 
L 301.090909 211.416553 
L 317.323636 84.009025 
L 333.556364 175.959541 
L 349.789091 151.981994 
L 366.021818 153.05122 
L 382.254545 193.727654 
L 398.487273 166.856971 
" clip-path="url(#p3f0583d64e)" style="fill: none; stroke: #31688e; stroke-opacity: 0.5; stroke-width: 1.5; stroke-linecap: square"/>
   </g>
   <g id="line2d_24">
    <path d="M 73.832727 249.54646 
L 90.065455 238.835183 
L 106.298182 192.653941 
L 122.530909 213.88258 
L 138.763636 214.167061 
L 154.996364 233.573395 
L 171.229091 212.821984 
L 187.461818 213.535687 
L 203.694545 218.518543 
L 219.927273 170.414952 
L 236.16 204.144133 
L 252.392727 183.063129 
L 268.625455 215.818221 
L 284.858182 160.073249 
L 301.090909 190.539774 
L 317.323636 170.855904 
L 333.556364 161.027027 
L 349.789091 186.800618 
L 366.021818 198.667124 
L 382.254545 194.041682 
L 398.487273 228.152929 
" clip-path="url(#p3f0583d64e)" style="fill: none; stroke: #31688e; stroke-opacity: 0.5; stroke-width: 1.5; stroke-linecap: square"/>
   </g>
   <g id="line2d_25">
    <path d="M 73.832727 188.013385 
L 90.065455 229.873022 
L 106.298182 208.19789 
L 122.530909 202.316472 
L 138.763636 266.089922 
L 154.996364 224.319464 
L 171.229091 246.007097 
L 187.461818 244.079232 
L 203.694545 240.872169 
L 219.927273 218.114745 
L 236.16 240.565311 
L 252.392727 201.801376 
L 268.625455 118.987718 
L 284.858182 128.090995 
L 301.090909 184.139982 
L 317.323636 204.46819 
L 333.556364 222.135622 
L 349.789091 206.632565 
L 366.021818 257.06842 
L 382.254545 247.296215 
L 398.487273 244.783384 
" clip-path="url(#p3f0583d64e)" style="fill: none; stroke: #31688e; stroke-opacity: 0.5; stroke-width: 1.5; stroke-linecap: square"/>
   </g>
   <g id="line2d_26">
    <path d="M 73.832727 147.009734 
L 90.065455 147.691371 
L 106.298182 164.752034 
L 122.530909 141.548158 
L 138.763636 174.651294 
L 154.996364 114.292881 
L 171.229091 145.339114 
L 187.461818 172.014731 
L 203.694545 161.5243 
L 219.927273 150.646535 
L 236.16 128.894696 
L 252.392727 248.607252 
L 268.625455 220.419089 
L 284.858182 124.278184 
L 301.090909 262.198794 
L 317.323636 226.545076 
L 333.556364 204.460477 
L 349.789091 232.79707 
L 366.021818 236.790861 
L 382.254545 211.901269 
L 398.487273 239.789906 
" clip-path="url(#p3f0583d64e)" style="fill: none; stroke: #31688e; stroke-opacity: 0.5; stroke-width: 1.5; stroke-linecap: square"/>
   </g>
   <g id="line2d_27">
    <path d="M 73.832727 124.496339 
L 90.065455 161.411901 
L 106.298182 188.949087 
L 122.530909 189.62378 
L 138.763636 160.25648 
L 154.996364 175.591268 
L 171.229091 146.583431 
L 187.461818 144.729067 
L 203.694545 171.85559 
L 219.927273 162.03259 
L 236.16 178.392426 
L 252.392727 141.050157 
L 268.625455 189.882015 
L 284.858182 214.123303 
L 301.090909 228.759547 
L 317.323636 177.158058 
L 333.556364 172.388694 
L 349.789091 226.719713 
L 366.021818 184.908938 
L 382.254545 207.30825 
L 398.487273 162.995908 
" clip-path="url(#p3f0583d64e)" style="fill: none; stroke: #31688e; stroke-opacity: 0.5; stroke-width: 1.5; stroke-linecap: square"/>
   </g>
   <g id="line2d_28">
    <path d="M 73.832727 172.074131 
L 90.065455 195.409411 
L 106.298182 206.662401 
L 122.530909 240.262245 
L 138.763636 211.927354 
L 154.996364 219.152046 
L 171.229091 231.291504 
L 187.461818 239.781672 
L 203.694545 244.217308 
L 219.927273 196.461436 
L 236.16 240.372785 
L 252.392727 200.0138 
L 268.625455 227.233183 
L 284.858182 230.141625 
L 301.090909 240.439056 
L 317.323636 231.109188 
L 333.556364 251.854813 
L 349.789091 213.338513 
L 366.021818 264.356531 
L 382.254545 256.283256 
L 398.487273 271.608752 
" clip-path="url(#p3f0583d64e)" style="fill: none; stroke: #31688e; stroke-opacity: 0.5; stroke-width: 1.5; stroke-linecap: square"/>
   </g>
   <g id="line2d_29">
    <path d="M 73.832727 221.564877 
L 90.065455 231.817707 
L 106.298182 267.76912 
L 122.530909 260.350865 
L 138.763636 228.467758 
L 154.996364 244.099638 
L 171.229091 243.495659 
L 187.461818 234.270412 
L 203.694545 238.307378 
L 219.927273 211.585839 
L 236.16 231.894171 
L 252.392727 255.758717 
L 268.625455 231.38661 
L 284.858182 262.902918 
L 301.090909 239.708457 
L 317.323636 225.347155 
L 333.556364 244.099987 
L 349.789091 255.83475 
L 366.021818 263.691776 
L 382.254545 251.492248 
L 398.487273 260.683672 
" clip-path="url(#p3f0583d64e)" style="fill: none; stroke: #31688e; stroke-opacity: 0.5; stroke-width: 1.5; stroke-linecap: square"/>
   </g>
   <g id="line2d_30">
    <path d="M 73.832727 192.136701 
L 90.065455 214.74636 
L 106.298182 190.587932 
L 122.530909 218.725791 
L 138.763636 213.903436 
L 154.996364 215.559362 
L 171.229091 205.447109 
L 187.461818 181.871366 
L 203.694545 214.665343 
L 219.927273 197.640153 
L 236.16 206.611748 
L 252.392727 221.855998 
L 268.625455 190.650077 
L 284.858182 195.375697 
L 301.090909 192.906125 
L 317.323636 195.720438 
L 333.556364 189.48582 
L 349.789091 185.854936 
L 366.021818 203.648719 
L 382.254545 210.725259 
L 398.487273 197.775113 
" clip-path="url(#p3f0583d64e)" style="fill: none; stroke: #31688e; stroke-opacity: 0.5; stroke-width: 1.5; stroke-linecap: square"/>
   </g>
   <g id="line2d_31">
    <path d="M 73.832727 200.343845 
L 90.065455 268.239936 
L 106.298182 238.436292 
L 122.530909 256.962754 
L 138.763636 261.589042 
L 154.996364 248.391058 
L 171.229091 264.334199 
L 187.461818 274.135417 
L 203.694545 274.264142 
L 219.927273 273.854075 
L 236.16 264.156379 
L 252.392727 263.863568 
L 268.625455 275.043948 
L 284.858182 266.560226 
L 301.090909 258.02213 
L 317.323636 273.617512 
L 333.556364 265.505895 
L 349.789091 271.066321 
L 366.021818 236.776703 
L 382.254545 238.459583 
L 398.487273 258.732338 
" clip-path="url(#p3f0583d64e)" style="fill: none; stroke: #31688e; stroke-opacity: 0.5; stroke-width: 1.5; stroke-linecap: square"/>
   </g>
   <g id="line2d_32">
    <path d="M 73.832727 251.982011 
L 90.065455 270.510975 
L 106.298182 264.257086 
L 122.530909 260.168659 
L 138.763636 237.039846 
L 154.996364 257.528129 
L 171.229091 270.647458 
L 187.461818 255.912857 
L 203.694545 245.086024 
L 219.927273 260.368759 
L 236.16 238.75432 
L 252.392727 258.712044 
L 268.625455 262.664977 
L 284.858182 249.757292 
L 301.090909 242.787617 
L 317.323636 250.737568 
L 333.556364 258.589531 
L 349.789091 254.278158 
L 366.021818 261.898641 
L 382.254545 269.799109 
L 398.487273 282.068856 
" clip-path="url(#p3f0583d64e)" style="fill: none; stroke: #31688e; stroke-opacity: 0.5; stroke-width: 1.5; stroke-linecap: square"/>
   </g>
   <g id="line2d_33">
    <path d="M 73.832727 260.01355 
L 90.065455 236.618367 
L 106.298182 226.833309 
L 122.530909 254.712523 
L 138.763636 214.866907 
L 154.996364 238.910872 
L 171.229091 226.876725 
L 187.461818 215.234517 
L 203.694545 211.908485 
L 219.927273 202.817575 
L 236.16 211.945853 
L 252.392727 176.881037 
L 268.625455 109.566601 
L 284.858182 188.476282 
L 301.090909 210.288786 
L 317.323636 195.724192 
L 333.556364 155.952151 
L 349.789091 176.606497 
L 366.021818 224.150025 
L 382.254545 226.397551 
L 398.487273 210.786786 
" clip-path="url(#p3f0583d64e)" style="fill: none; stroke: #31688e; stroke-opacity: 0.5; stroke-width: 1.5; stroke-linecap: square"/>
   </g>
   <g id="line2d_34">
    <path d="M 73.832727 234.287243 
L 90.065455 184.32272 
L 106.298182 247.371487 
L 122.530909 257.463142 
L 138.763636 232.788358 
L 154.996364 256.8502 
L 171.229091 271.830258 
L 187.461818 266.240067 
L 203.694545 270.256546 
L 219.927273 260.231713 
L 236.16 214.501996 
L 252.392727 266.131381 
L 268.625455 258.740653 
L 284.858182 177.503397 
L 301.090909 176.132512 
L 317.323636 195.941881 
L 333.556364 259.401095 
L 349.789091 184.500645 
L 366.021818 251.452891 
L 382.254545 269.402049 
L 398.487273 235.818907 
" clip-path="url(#p3f0583d64e)" style="fill: none; stroke: #31688e; stroke-opacity: 0.5; stroke-width: 1.5; stroke-linecap: square"/>
   </g>
   <g id="line2d_35">
    <path d="M 73.832727 262.295821 
L 90.065455 268.929042 
L 106.298182 272.507651 
L 122.530909 295.488 
L 138.763636 295.306421 
L 154.996364 274.498584 
L 171.229091 276.379013 
L 187.461818 268.607269 
L 203.694545 240.765195 
L 219.927273 286.092886 
L 236.16 283.378095 
L 252.392727 260.806815 
L 268.625455 277.756805 
L 284.858182 283.509449 
L 301.090909 275.50157 
L 317.323636 285.679311 
L 333.556364 291.95049 
L 349.789091 275.384331 
L 366.021818 266.339429 
L 382.254545 291.29418 
L 398.487273 284.061025 
" clip-path="url(#p3f0583d64e)" style="fill: none; stroke: #31688e; stroke-opacity: 0.5; stroke-width: 1.5; stroke-linecap: square"/>
   </g>
   <g id="line2d_36">
    <path d="M 73.832727 219.184246 
L 90.065455 218.205932 
L 106.298182 213.218471 
L 122.530909 212.874919 
L 138.763636 214.824465 
L 154.996364 195.514443 
L 171.229091 204.576368 
L 187.461818 199.15063 
L 203.694545 179.660891 
L 219.927273 208.356588 
L 236.16 203.429757 
L 252.392727 207.576027 
L 268.625455 228.567765 
L 284.858182 196.933667 
L 301.090909 223.158077 
L 317.323636 219.807944 
L 333.556364 198.70491 
L 349.789091 226.887163 
L 366.021818 206.18849 
L 382.254545 207.025687 
L 398.487273 207.174659 
" clip-path="url(#p3f0583d64e)" style="fill: none; stroke: #31688e; stroke-opacity: 0.5; stroke-width: 1.5; stroke-linecap: square"/>
   </g>
   <g id="line2d_37">
    <path d="M 73.832727 255.713565 
L 90.065455 248.807142 
L 106.298182 238.495801 
L 122.530909 241.617561 
L 138.763636 250.06332 
L 154.996364 234.927653 
L 171.229091 241.668355 
L 187.461818 230.313494 
L 203.694545 248.48511 
L 219.927273 242.97765 
L 236.16 238.169375 
L 252.392727 228.758265 
L 268.625455 250.993144 
L 284.858182 252.429633 
L 301.090909 254.210194 
L 317.323636 257.953354 
L 333.556364 250.545645 
L 349.789091 235.629782 
L 366.021818 258.363276 
L 382.254545 228.932395 
L 398.487273 265.864873 
" clip-path="url(#p3f0583d64e)" style="fill: none; stroke: #31688e; stroke-opacity: 0.5; stroke-width: 1.5; stroke-linecap: square"/>
   </g>
   <g id="line2d_38">
    <path d="M 73.832727 206.52853 
L 90.065455 206.034807 
L 106.298182 207.357702 
L 122.530909 230.97447 
L 138.763636 228.691886 
L 154.996364 187.684426 
L 171.229091 262.433075 
L 187.461818 198.549188 
L 203.694545 261.053983 
L 219.927273 276.410917 
L 236.16 267.098494 
L 252.392727 268.098367 
L 268.625455 248.17543 
L 284.858182 255.193058 
L 301.090909 253.715707 
L 317.323636 244.033994 
L 333.556364 262.366275 
L 349.789091 266.268739 
L 366.021818 260.755106 
L 382.254545 247.15757 
L 398.487273 241.750188 
" clip-path="url(#p3f0583d64e)" style="fill: none; stroke: #31688e; stroke-opacity: 0.5; stroke-width: 1.5; stroke-linecap: square"/>
   </g>
   <g id="line2d_39">
    <path d="M 73.832727 165.344446 
L 90.065455 239.337985 
L 106.298182 226.839474 
L 122.530909 227.615765 
L 138.763636 226.759125 
L 154.996364 217.228412 
L 171.229091 219.033974 
L 187.461818 229.34918 
L 203.694545 159.306424 
L 219.927273 239.544498 
L 236.16 233.359775 
L 252.392727 230.71287 
L 268.625455 261.60394 
L 284.858182 177.414549 
L 301.090909 250.124283 
L 317.323636 234.633154 
L 333.556364 215.402878 
L 349.789091 241.395398 
L 366.021818 214.17941 
L 382.254545 179.529238 
L 398.487273 205.10051 
" clip-path="url(#p3f0583d64e)" style="fill: none; stroke: #31688e; stroke-opacity: 0.5; stroke-width: 1.5; stroke-linecap: square"/>
   </g>
   <g id="line2d_40">
    <path d="M 73.832727 180.971965 
L 90.065455 157.871952 
L 106.298182 159.650654 
L 122.530909 161.464454 
L 138.763636 131.906076 
L 154.996364 252.97258 
L 171.229091 243.997219 
L 187.461818 256.968464 
L 203.694545 214.922291 
L 219.927273 230.936337 
L 236.16 274.501832 
L 252.392727 275.252872 
L 268.625455 274.359473 
L 284.858182 273.758634 
L 301.090909 258.4806 
L 317.323636 282.693133 
L 333.556364 261.943735 
L 349.789091 265.4499 
L 366.021818 237.608066 
L 382.254545 258.122782 
L 398.487273 272.611682 
" clip-path="url(#p3f0583d64e)" style="fill: none; stroke: #31688e; stroke-opacity: 0.5; stroke-width: 1.5; stroke-linecap: square"/>
   </g>
   <g id="line2d_41">
    <path d="M 73.832727 194.817814 
L 90.065455 208.811903 
L 106.298182 196.024816 
L 122.530909 159.466845 
L 138.763636 166.014822 
L 154.996364 260.782924 
L 171.229091 250.855665 
L 187.461818 241.183272 
L 203.694545 246.118075 
L 219.927273 226.525685 
L 236.16 254.06982 
L 252.392727 274.715855 
L 268.625455 247.712767 
L 284.858182 275.229351 
L 301.090909 274.681372 
L 317.323636 268.203312 
L 333.556364 260.216601 
L 349.789091 266.103236 
L 366.021818 238.330961 
L 382.254545 264.922497 
L 398.487273 276.230187 
" clip-path="url(#p3f0583d64e)" style="fill: none; stroke: #31688e; stroke-opacity: 0.5; stroke-width: 1.5; stroke-linecap: square"/>
   </g>
   <g id="line2d_42">
    <path d="M 73.832727 213.071647 
L 90.065455 172.605997 
L 106.298182 159.126977 
L 122.530909 194.410626 
L 138.763636 161.204283 
L 154.996364 152.83243 
L 171.229091 145.182942 
L 187.461818 171.63806 
L 203.694545 160.816308 
L 219.927273 177.288836 
L 236.16 160.916614 
L 252.392727 213.025055 
L 268.625455 194.085144 
L 284.858182 176.220467 
L 301.090909 186.469102 
L 317.323636 168.092666 
L 333.556364 207.068659 
L 349.789091 209.947024 
L 366.021818 201.150666 
L 382.254545 188.656715 
L 398.487273 171.225783 
" clip-path="url(#p3f0583d64e)" style="fill: none; stroke: #31688e; stroke-opacity: 0.5; stroke-width: 1.5; stroke-linecap: square"/>
   </g>
   <g id="line2d_43">
    <path d="M 73.832727 259.426094 
L 90.065455 264.023154 
L 106.298182 270.495556 
L 122.530909 267.126498 
L 138.763636 253.609055 
L 154.996364 264.497252 
L 171.229091 241.585064 
L 187.461818 271.530064 
L 203.694545 223.884134 
L 219.927273 225.067614 
L 236.16 210.821755 
L 252.392727 240.170165 
L 268.625455 267.162573 
L 284.858182 239.444106 
L 301.090909 275.641464 
L 317.323636 234.233031 
L 333.556364 245.202298 
L 349.789091 235.329312 
L 366.021818 255.74343 
L 382.254545 273.478802 
L 398.487273 249.331444 
" clip-path="url(#p3f0583d64e)" style="fill: none; stroke: #31688e; stroke-opacity: 0.5; stroke-width: 1.5; stroke-linecap: square"/>
   </g>
   <g id="line2d_44">
    <path d="M 73.832727 265.341877 
L 90.065455 269.194789 
L 106.298182 257.482496 
L 122.530909 261.088423 
L 138.763636 245.098901 
L 154.996364 246.85458 
L 171.229091 203.991533 
L 187.461818 234.188518 
L 203.694545 229.949776 
L 219.927273 252.481052 
L 236.16 252.702588 
L 252.392727 256.122368 
L 268.625455 241.860137 
L 284.858182 262.032884 
L 301.090909 270.194307 
L 317.323636 258.367407 
L 333.556364 267.759794 
L 349.789091 238.18278 
L 366.021818 246.100358 
L 382.254545 258.657194 
L 398.487273 272.904195 
" clip-path="url(#p3f0583d64e)" style="fill: none; stroke: #31688e; stroke-opacity: 0.5; stroke-width: 1.5; stroke-linecap: square"/>
   </g>
   <g id="line2d_45">
    <path d="M 73.832727 223.105501 
L 90.065455 185.118547 
L 106.298182 193.499449 
L 122.530909 233.71813 
L 138.763636 204.375289 
L 154.996364 208.60535 
L 171.229091 192.14543 
L 187.461818 210.449022 
L 203.694545 192.33555 
L 219.927273 217.58905 
L 236.16 162.544613 
L 252.392727 207.138454 
L 268.625455 155.159743 
L 284.858182 207.841442 
L 301.090909 179.202223 
L 317.323636 155.335688 
L 333.556364 129.482979 
L 349.789091 140.358602 
L 366.021818 167.844773 
L 382.254545 192.273395 
L 398.487273 201.891402 
" clip-path="url(#p3f0583d64e)" style="fill: none; stroke: #31688e; stroke-opacity: 0.5; stroke-width: 1.5; stroke-linecap: square"/>
   </g>
   <g id="line2d_46">
    <path d="M 73.832727 236.789361 
L 90.065455 173.429758 
L 106.298182 232.955012 
L 122.530909 218.447762 
L 138.763636 252.788865 
L 154.996364 226.097654 
L 171.229091 283.723595 
L 187.461818 279.344431 
L 203.694545 292.299984 
L 219.927273 267.730649 
L 236.16 279.227419 
L 252.392727 281.339884 
L 268.625455 282.107336 
L 284.858182 287.629346 
L 301.090909 279.143342 
L 317.323636 282.992726 
L 333.556364 286.713644 
L 349.789091 280.403703 
L 366.021818 253.071817 
L 382.254545 280.640938 
L 398.487273 272.320317 
" clip-path="url(#p3f0583d64e)" style="fill: none; stroke: #31688e; stroke-opacity: 0.5; stroke-width: 1.5; stroke-linecap: square"/>
   </g>
   <g id="line2d_47">
    <path d="M 73.832727 219.144525 
L 90.065455 166.479687 
L 106.298182 220.867777 
L 122.530909 218.934941 
L 138.763636 232.081027 
L 154.996364 219.506618 
L 171.229091 241.879659 
L 187.461818 235.757659 
L 203.694545 235.069473 
L 219.927273 257.397501 
L 236.16 236.963391 
L 252.392727 273.217455 
L 268.625455 227.923405 
L 284.858182 267.522106 
L 301.090909 263.995293 
L 317.323636 268.334699 
L 333.556364 282.18012 
L 349.789091 245.94019 
L 366.021818 250.742288 
L 382.254545 275.641259 
L 398.487273 293.092735 
" clip-path="url(#p3f0583d64e)" style="fill: none; stroke: #31688e; stroke-opacity: 0.5; stroke-width: 1.5; stroke-linecap: square"/>
   </g>
   <g id="line2d_48">
    <path d="M 73.832727 197.606541 
L 90.065455 211.482134 
L 106.298182 210.191618 
L 122.530909 213.410476 
L 138.763636 213.451206 
L 154.996364 213.817053 
L 171.229091 197.759982 
L 187.461818 207.824471 
L 203.694545 180.995625 
L 219.927273 211.26465 
L 236.16 188.186758 
L 252.392727 179.656262 
L 268.625455 161.772017 
L 284.858182 184.43193 
L 301.090909 173.635417 
L 317.323636 199.301847 
L 333.556364 169.410121 
L 349.789091 175.661304 
L 366.021818 198.790107 
L 382.254545 173.77435 
L 398.487273 194.934612 
" clip-path="url(#p3f0583d64e)" style="fill: none; stroke: #31688e; stroke-opacity: 0.5; stroke-width: 1.5; stroke-linecap: square"/>
   </g>
   <g id="line2d_49">
    <path d="M 73.832727 233.896309 
L 90.065455 243.204901 
L 106.298182 260.317144 
L 122.530909 261.062132 
L 138.763636 251.543739 
L 154.996364 257.722677 
L 171.229091 247.491132 
L 187.461818 251.837461 
L 203.694545 239.629537 
L 219.927273 263.368549 
L 236.16 221.259404 
L 252.392727 239.657217 
L 268.625455 227.382463 
L 284.858182 219.294448 
L 301.090909 220.867323 
L 317.323636 253.945029 
L 333.556364 225.471568 
L 349.789091 228.716831 
L 366.021818 247.300759 
L 382.254545 217.062034 
L 398.487273 236.679748 
" clip-path="url(#p3f0583d64e)" style="fill: none; stroke: #31688e; stroke-opacity: 0.5; stroke-width: 1.5; stroke-linecap: square"/>
   </g>
   <g id="line2d_50">
    <path d="M 73.832727 244.14568 
L 90.065455 258.720144 
L 106.298182 274.734413 
L 122.530909 285.184462 
L 138.763636 265.32359 
L 154.996364 277.661781 
L 171.229091 246.98277 
L 187.461818 258.955421 
L 203.694545 243.45652 
L 219.927273 258.275937 
L 236.16 226.247281 
L 252.392727 256.329885 
L 268.625455 229.44602 
L 284.858182 209.698955 
L 301.090909 243.338867 
L 317.323636 257.555581 
L 333.556364 242.395055 
L 349.789091 217.831726 
L 366.021818 252.737122 
L 382.254545 200.095285 
L 398.487273 220.148829 
" clip-path="url(#p3f0583d64e)" style="fill: none; stroke: #31688e; stroke-opacity: 0.5; stroke-width: 1.5; stroke-linecap: square"/>
   </g>
   <g id="line2d_51">
    <path d="M 73.832727 227.762694 
L 90.065455 199.383386 
L 106.298182 216.283906 
L 122.530909 220.74914 
L 138.763636 206.150266 
L 154.996364 209.487388 
L 171.229091 237.251823 
L 187.461818 240.433562 
L 203.694545 196.402679 
L 219.927273 203.586115 
L 236.16 236.568464 
L 252.392727 216.363983 
L 268.625455 194.082701 
L 284.858182 177.379702 
L 301.090909 214.265344 
L 317.323636 203.123056 
L 333.556364 223.881183 
L 349.789091 231.229721 
L 366.021818 247.598552 
L 382.254545 221.230126 
L 398.487273 200.037524 
" clip-path="url(#p3f0583d64e)" style="fill: none; stroke: #31688e; stroke-opacity: 0.5; stroke-width: 1.5; stroke-linecap: square"/>
   </g>
   <g id="line2d_52">
    <path d="M 73.832727 262.477326 
L 90.065455 205.589119 
L 106.298182 230.190362 
L 122.530909 224.778703 
L 138.763636 250.647914 
L 154.996364 247.820437 
L 171.229091 240.638741 
L 187.461818 266.1847 
L 203.694545 266.607414 
L 219.927273 247.50711 
L 236.16 256.44982 
L 252.392727 255.812625 
L 268.625455 251.031806 
L 284.858182 243.039559 
L 301.090909 253.566936 
L 317.323636 274.778641 
L 333.556364 285.321997 
L 349.789091 273.169038 
L 366.021818 278.62135 
L 382.254545 272.839766 
L 398.487273 275.415152 
" clip-path="url(#p3f0583d64e)" style="fill: none; stroke: #31688e; stroke-opacity: 0.5; stroke-width: 1.5; stroke-linecap: square"/>
   </g>
   <g id="line2d_53">
    <path d="M 73.832727 269.704482 
L 90.065455 199.978613 
L 106.298182 255.43769 
L 122.530909 255.967573 
L 138.763636 258.960286 
L 154.996364 278.130692 
L 171.229091 276.953261 
L 187.461818 265.902426 
L 203.694545 269.70197 
L 219.927273 256.419605 
L 236.16 259.955942 
L 252.392727 265.188095 
L 268.625455 255.892389 
L 284.858182 276.416309 
L 301.090909 264.653334 
L 317.323636 259.861173 
L 333.556364 293.439424 
L 349.789091 272.367347 
L 366.021818 293.996201 
L 382.254545 277.859229 
L 398.487273 267.181273 
" clip-path="url(#p3f0583d64e)" style="fill: none; stroke: #31688e; stroke-opacity: 0.5; stroke-width: 1.5; stroke-linecap: square"/>
   </g>
   <g id="line2d_54">
    <path d="M 73.832727 224.386401 
L 90.065455 188.994111 
L 106.298182 170.298253 
L 122.530909 191.760174 
L 138.763636 223.2001 
L 154.996364 217.53827 
L 171.229091 214.160773 
L 187.461818 201.498984 
L 203.694545 227.485299 
L 219.927273 210.125381 
L 236.16 170.501609 
L 252.392727 226.234777 
L 268.625455 226.607683 
L 284.858182 194.793969 
L 301.090909 217.737649 
L 317.323636 208.494121 
L 333.556364 209.023624 
L 349.789091 214.768496 
L 366.021818 233.469726 
L 382.254545 215.260477 
L 398.487273 209.581702 
" clip-path="url(#p3f0583d64e)" style="fill: none; stroke: #31688e; stroke-opacity: 0.5; stroke-width: 1.5; stroke-linecap: square"/>
   </g>
   <g id="line2d_55">
    <path d="M 73.832727 270.308711 
L 90.065455 269.253962 
L 106.298182 259.05992 
L 122.530909 266.978756 
L 138.763636 251.313549 
L 154.996364 272.864189 
L 171.229091 261.247592 
L 187.461818 244.655083 
L 203.694545 262.401381 
L 219.927273 251.104185 
L 236.16 225.523728 
L 252.392727 259.000907 
L 268.625455 270.152052 
L 284.858182 270.076283 
L 301.090909 267.048291 
L 317.323636 272.464196 
L 333.556364 254.837021 
L 349.789091 273.133804 
L 366.021818 260.60701 
L 382.254545 279.651831 
L 398.487273 275.397312 
" clip-path="url(#p3f0583d64e)" style="fill: none; stroke: #31688e; stroke-opacity: 0.5; stroke-width: 1.5; stroke-linecap: square"/>
   </g>
   <g id="line2d_56">
    <path d="M 73.832727 251.870054 
L 90.065455 225.76757 
L 106.298182 214.935259 
L 122.530909 211.737547 
L 138.763636 211.841558 
L 154.996364 177.023513 
L 171.229091 172.45771 
L 187.461818 209.481536 
L 203.694545 234.053645 
L 219.927273 217.204925 
L 236.16 229.191993 
L 252.392727 243.528774 
L 268.625455 193.412531 
L 284.858182 246.893074 
L 301.090909 236.409003 
L 317.323636 238.145447 
L 333.556364 174.512146 
L 349.789091 186.723636 
L 366.021818 163.144604 
L 382.254545 207.140319 
L 398.487273 208.916145 
" clip-path="url(#p3f0583d64e)" style="fill: none; stroke: #31688e; stroke-opacity: 0.5; stroke-width: 1.5; stroke-linecap: square"/>
   </g>
   <g id="line2d_57">
    <path d="M 73.832727 230.326794 
L 90.065455 250.437218 
L 106.298182 253.979251 
L 122.530909 259.473898 
L 138.763636 259.871675 
L 154.996364 226.38371 
L 171.229091 225.536357 
L 187.461818 254.432276 
L 203.694545 207.044213 
L 219.927273 251.892799 
L 236.16 233.335985 
L 252.392727 238.066044 
L 268.625455 210.25895 
L 284.858182 249.750885 
L 301.090909 198.732262 
L 317.323636 243.670781 
L 333.556364 268.318842 
L 349.789091 223.768359 
L 366.021818 262.358034 
L 382.254545 198.819771 
L 398.487273 196.611296 
" clip-path="url(#p3f0583d64e)" style="fill: none; stroke: #31688e; stroke-opacity: 0.5; stroke-width: 1.5; stroke-linecap: square"/>
   </g>
   <g id="line2d_58">
    <path d="M 73.832727 250.719698 
L 90.065455 223.128969 
L 106.298182 259.198651 
L 122.530909 256.430589 
L 138.763636 249.364295 
L 154.996364 266.911843 
L 171.229091 266.365932 
L 187.461818 209.289006 
L 203.694545 248.411526 
L 219.927273 252.627337 
L 236.16 220.116411 
L 252.392727 254.542699 
L 268.625455 214.531576 
L 284.858182 246.950047 
L 301.090909 215.32155 
L 317.323636 221.598488 
L 333.556364 248.939365 
L 349.789091 237.778659 
L 366.021818 197.380677 
L 382.254545 257.904455 
L 398.487273 245.546681 
" clip-path="url(#p3f0583d64e)" style="fill: none; stroke: #31688e; stroke-opacity: 0.5; stroke-width: 1.5; stroke-linecap: square"/>
   </g>
   <g id="line2d_59">
    <path d="M 73.832727 181.604258 
L 90.065455 180.731548 
L 106.298182 162.87262 
L 122.530909 218.246153 
L 138.763636 193.444417 
L 154.996364 196.091622 
L 171.229091 232.988778 
L 187.461818 266.065283 
L 203.694545 274.566889 
L 219.927273 267.543139 
L 236.16 247.838544 
L 252.392727 243.469353 
L 268.625455 246.220398 
L 284.858182 257.105357 
L 301.090909 257.772264 
L 317.323636 262.504002 
L 333.556364 267.893548 
L 349.789091 246.85206 
L 366.021818 258.788672 
L 382.254545 265.319512 
L 398.487273 281.4399 
" clip-path="url(#p3f0583d64e)" style="fill: none; stroke: #31688e; stroke-opacity: 0.5; stroke-width: 1.5; stroke-linecap: square"/>
   </g>
   <g id="line2d_60">
    <path d="M 73.832727 229.603943 
L 90.065455 203.604454 
L 106.298182 230.15631 
L 122.530909 237.757361 
L 138.763636 228.549354 
L 154.996364 222.538573 
L 171.229091 222.084353 
L 187.461818 200.551281 
L 203.694545 212.479746 
L 219.927273 223.5828 
L 236.16 232.085238 
L 252.392727 225.006901 
L 268.625455 228.030836 
L 284.858182 230.415467 
L 301.090909 191.644093 
L 317.323636 231.392931 
L 333.556364 230.41577 
L 349.789091 218.674368 
L 366.021818 230.041955 
L 382.254545 215.568568 
L 398.487273 227.503794 
" clip-path="url(#p3f0583d64e)" style="fill: none; stroke: #31688e; stroke-opacity: 0.5; stroke-width: 1.5; stroke-linecap: square"/>
   </g>
   <g id="line2d_61">
    <path d="M 73.832727 261.599519 
L 90.065455 246.955485 
L 106.298182 257.720129 
L 122.530909 247.652137 
L 138.763636 259.09329 
L 154.996364 261.848906 
L 171.229091 264.601106 
L 187.461818 266.829757 
L 203.694545 251.008401 
L 219.927273 251.696919 
L 236.16 252.480094 
L 252.392727 271.404444 
L 268.625455 242.43461 
L 284.858182 247.950553 
L 301.090909 250.174679 
L 317.323636 278.578982 
L 333.556364 273.116151 
L 349.789091 286.480991 
L 366.021818 282.078101 
L 382.254545 273.578829 
L 398.487273 270.293386 
" clip-path="url(#p3f0583d64e)" style="fill: none; stroke: #31688e; stroke-opacity: 0.5; stroke-width: 1.5; stroke-linecap: square"/>
   </g>
   <g id="line2d_62">
    <path d="M 73.832727 239.277196 
L 90.065455 248.243688 
L 106.298182 247.157505 
L 122.530909 237.277054 
L 138.763636 225.358594 
L 154.996364 237.062095 
L 171.229091 236.761674 
L 187.461818 252.444973 
L 203.694545 240.946484 
L 219.927273 226.108179 
L 236.16 210.578873 
L 252.392727 227.055487 
L 268.625455 228.966362 
L 284.858182 222.490684 
L 301.090909 261.242079 
L 317.323636 244.938434 
L 333.556364 244.654956 
L 349.789091 255.567082 
L 366.021818 249.264491 
L 382.254545 243.942932 
L 398.487273 229.213613 
" clip-path="url(#p3f0583d64e)" style="fill: none; stroke: #31688e; stroke-opacity: 0.5; stroke-width: 1.5; stroke-linecap: square"/>
   </g>
   <g id="line2d_63">
    <path d="M 73.832727 251.051996 
L 90.065455 231.035058 
L 106.298182 256.180484 
L 122.530909 255.924509 
L 138.763636 234.864564 
L 154.996364 257.452136 
L 171.229091 226.01162 
L 187.461818 214.204711 
L 203.694545 232.761166 
L 219.927273 208.505115 
L 236.16 210.548861 
L 252.392727 235.219152 
L 268.625455 244.033442 
L 284.858182 238.310198 
L 301.090909 187.461052 
L 317.323636 211.044752 
L 333.556364 205.446708 
L 349.789091 191.547362 
L 366.021818 185.169764 
L 382.254545 227.711805 
L 398.487273 218.212954 
" clip-path="url(#p3f0583d64e)" style="fill: none; stroke: #31688e; stroke-opacity: 0.5; stroke-width: 1.5; stroke-linecap: square"/>
   </g>
   <g id="patch_3">
    <path d="M 57.6 307.584 
L 57.6 41.472 
" style="fill: none; stroke: #000000; stroke-width: 3; stroke-linejoin: miter; stroke-linecap: square"/>
   </g>
   <g id="patch_4">
    <path d="M 414.72 307.584 
L 414.72 41.472 
" style="fill: none; stroke: #000000; stroke-width: 3; stroke-linejoin: miter; stroke-linecap: square"/>
   </g>
   <g id="patch_5">
    <path d="M 57.6 307.584 
L 414.72 307.584 
" style="fill: none; stroke: #000000; stroke-width: 3; stroke-linejoin: miter; stroke-linecap: square"/>
   </g>
   <g id="patch_6">
    <path d="M 57.6 41.472 
L 414.72 41.472 
" style="fill: none; stroke: #000000; stroke-width: 3; stroke-linejoin: miter; stroke-linecap: square"/>
   </g>
   <g id="text_13">
    <!-- Atom Type C (n=51, mean Q=9.56) -->
    <g transform="translate(40.817187 35.472) scale(0.22 -0.22)">
     <defs>
      <path id="DejaVuSans-41" d="M 2188 4044 
L 1331 1722 
L 3047 1722 
L 2188 4044 
z
M 1831 4666 
L 2547 4666 
L 4325 0 
L 3669 0 
L 3244 1197 
L 1141 1197 
L 716 0 
L 50 0 
L 1831 4666 
z
" transform="scale(0.015625)"/>
      <path id="DejaVuSans-74" d="M 1172 4494 
L 1172 3500 
L 2356 3500 
L 2356 3053 
L 1172 3053 
L 1172 1153 
Q 1172 725 1289 603 
Q 1406 481 1766 481 
L 2356 481 
L 2356 0 
L 1766 0 
Q 1100 0 847 248 
Q 594 497 594 1153 
L 594 3053 
L 172 3053 
L 172 3500 
L 594 3500 
L 594 4494 
L 1172 4494 
z
" transform="scale(0.015625)"/>
      <path id="DejaVuSans-6f" d="M 1959 3097 
Q 1497 3097 1228 2736 
Q 959 2375 959 1747 
Q 959 1119 1226 758 
Q 1494 397 1959 397 
Q 2419 397 2687 759 
Q 2956 1122 2956 1747 
Q 2956 2369 2687 2733 
Q 2419 3097 1959 3097 
z
M 1959 3584 
Q 2709 3584 3137 3096 
Q 3566 2609 3566 1747 
Q 3566 888 3137 398 
Q 2709 -91 1959 -91 
Q 1206 -91 779 398 
Q 353 888 353 1747 
Q 353 2609 779 3096 
Q 1206 3584 1959 3584 
z
" transform="scale(0.015625)"/>
      <path id="DejaVuSans-6d" d="M 3328 2828 
Q 3544 3216 3844 3400 
Q 4144 3584 4550 3584 
Q 5097 3584 5394 3201 
Q 5691 2819 5691 2113 
L 5691 0 
L 5113 0 
L 5113 2094 
Q 5113 2597 4934 2840 
Q 4756 3084 4391 3084 
Q 3944 3084 3684 2787 
Q 3425 2491 3425 1978 
L 3425 0 
L 2847 0 
L 2847 2094 
Q 2847 2600 2669 2842 
Q 2491 3084 2119 3084 
Q 1678 3084 1418 2786 
Q 1159 2488 1159 1978 
L 1159 0 
L 581 0 
L 581 3500 
L 1159 3500 
L 1159 2956 
Q 1356 3278 1631 3431 
Q 1906 3584 2284 3584 
Q 2666 3584 2933 3390 
Q 3200 3197 3328 2828 
z
" transform="scale(0.015625)"/>
      <path id="DejaVuSans-20" transform="scale(0.015625)"/>
      <path id="DejaVuSans-54" d="M -19 4666 
L 3928 4666 
L 3928 4134 
L 2272 4134 
L 2272 0 
L 1638 0 
L 1638 4134 
L -19 4134 
L -19 4666 
z
" transform="scale(0.015625)"/>
      <path id="DejaVuSans-79" d="M 2059 -325 
Q 1816 -950 1584 -1140 
Q 1353 -1331 966 -1331 
L 506 -1331 
L 506 -850 
L 844 -850 
Q 1081 -850 1212 -737 
Q 1344 -625 1503 -206 
L 1606 56 
L 191 3500 
L 800 3500 
L 1894 763 
L 2988 3500 
L 3597 3500 
L 2059 -325 
z
" transform="scale(0.015625)"/>
      <path id="DejaVuSans-70" d="M 1159 525 
L 1159 -1331 
L 581 -1331 
L 581 3500 
L 1159 3500 
L 1159 2969 
Q 1341 3281 1617 3432 
Q 1894 3584 2278 3584 
Q 2916 3584 3314 3078 
Q 3713 2572 3713 1747 
Q 3713 922 3314 415 
Q 2916 -91 2278 -91 
Q 1894 -91 1617 61 
Q 1341 213 1159 525 
z
M 3116 1747 
Q 3116 2381 2855 2742 
Q 2594 3103 2138 3103 
Q 1681 3103 1420 2742 
Q 1159 2381 1159 1747 
Q 1159 1113 1420 752 
Q 1681 391 2138 391 
Q 2594 391 2855 752 
Q 3116 1113 3116 1747 
z
" transform="scale(0.015625)"/>
      <path id="DejaVuSans-65" d="M 3597 1894 
L 3597 1613 
L 953 1613 
Q 991 1019 1311 708 
Q 1631 397 2203 397 
Q 2534 397 2845 478 
Q 3156 559 3463 722 
L 3463 178 
Q 3153 47 2828 -22 
Q 2503 -91 2169 -91 
Q 1331 -91 842 396 
Q 353 884 353 1716 
Q 353 2575 817 3079 
Q 1281 3584 2069 3584 
Q 2775 3584 3186 3129 
Q 3597 2675 3597 1894 
z
M 3022 2063 
Q 3016 2534 2758 2815 
Q 2500 3097 2075 3097 
Q 1594 3097 1305 2825 
Q 1016 2553 972 2059 
L 3022 2063 
z
" transform="scale(0.015625)"/>
      <path id="DejaVuSans-43" d="M 4122 4306 
L 4122 3641 
Q 3803 3938 3442 4084 
Q 3081 4231 2675 4231 
Q 1875 4231 1450 3742 
Q 1025 3253 1025 2328 
Q 1025 1406 1450 917 
Q 1875 428 2675 428 
Q 3081 428 3442 575 
Q 3803 722 4122 1019 
L 4122 359 
Q 3791 134 3420 21 
Q 3050 -91 2638 -91 
Q 1578 -91 968 557 
Q 359 1206 359 2328 
Q 359 3453 968 4101 
Q 1578 4750 2638 4750 
Q 3056 4750 3426 4639 
Q 3797 4528 4122 4306 
z
" transform="scale(0.015625)"/>
      <path id="DejaVuSans-28" d="M 1984 4856 
Q 1566 4138 1362 3434 
Q 1159 2731 1159 2009 
Q 1159 1288 1364 580 
Q 1569 -128 1984 -844 
L 1484 -844 
Q 1016 -109 783 600 
Q 550 1309 550 2009 
Q 550 2706 781 3412 
Q 1013 4119 1484 4856 
L 1984 4856 
z
" transform="scale(0.015625)"/>
      <path id="DejaVuSans-6e" d="M 3513 2113 
L 3513 0 
L 2938 0 
L 2938 2094 
Q 2938 2591 2744 2837 
Q 2550 3084 2163 3084 
Q 1697 3084 1428 2787 
Q 1159 2491 1159 1978 
L 1159 0 
L 581 0 
L 581 3500 
L 1159 3500 
L 1159 2956 
Q 1366 3272 1645 3428 
Q 1925 3584 2291 3584 
Q 2894 3584 3203 3211 
Q 3513 2838 3513 2113 
z
" transform="scale(0.015625)"/>
      <path id="DejaVuSans-3d" d="M 678 2906 
L 4684 2906 
L 4684 2381 
L 678 2381 
L 678 2906 
z
M 678 1631 
L 4684 1631 
L 4684 1100 
L 678 1100 
L 678 1631 
z
" transform="scale(0.015625)"/>
      <path id="DejaVuSans-2c" d="M 750 794 
L 1409 794 
L 1409 256 
L 897 -744 
L 494 -744 
L 750 256 
L 750 794 
z
" transform="scale(0.015625)"/>
      <path id="DejaVuSans-61" d="M 2194 1759 
Q 1497 1759 1228 1600 
Q 959 1441 959 1056 
Q 959 750 1161 570 
Q 1363 391 1709 391 
Q 2188 391 2477 730 
Q 2766 1069 2766 1631 
L 2766 1759 
L 2194 1759 
z
M 3341 1997 
L 3341 0 
L 2766 0 
L 2766 531 
Q 2569 213 2275 61 
Q 1981 -91 1556 -91 
Q 1019 -91 701 211 
Q 384 513 384 1019 
Q 384 1609 779 1909 
Q 1175 2209 1959 2209 
L 2766 2209 
L 2766 2266 
Q 2766 2663 2505 2880 
Q 2244 3097 1772 3097 
Q 1472 3097 1187 3025 
Q 903 2953 641 2809 
L 641 3341 
Q 956 3463 1253 3523 
Q 1550 3584 1831 3584 
Q 2591 3584 2966 3190 
Q 3341 2797 3341 1997 
z
" transform="scale(0.015625)"/>
      <path id="DejaVuSans-51" d="M 2522 4238 
Q 1834 4238 1429 3725 
Q 1025 3213 1025 2328 
Q 1025 1447 1429 934 
Q 1834 422 2522 422 
Q 3209 422 3611 934 
Q 4013 1447 4013 2328 
Q 4013 3213 3611 3725 
Q 3209 4238 2522 4238 
z
M 3406 84 
L 4238 -825 
L 3475 -825 
L 2784 -78 
Q 2681 -84 2626 -87 
Q 2572 -91 2522 -91 
Q 1538 -91 948 567 
Q 359 1225 359 2328 
Q 359 3434 948 4092 
Q 1538 4750 2522 4750 
Q 3503 4750 4090 4092 
Q 4678 3434 4678 2328 
Q 4678 1516 4351 937 
Q 4025 359 3406 84 
z
" transform="scale(0.015625)"/>
      <path id="DejaVuSans-39" d="M 703 97 
L 703 672 
Q 941 559 1184 500 
Q 1428 441 1663 441 
Q 2288 441 2617 861 
Q 2947 1281 2994 2138 
Q 2813 1869 2534 1725 
Q 2256 1581 1919 1581 
Q 1219 1581 811 2004 
Q 403 2428 403 3163 
Q 403 3881 828 4315 
Q 1253 4750 1959 4750 
Q 2769 4750 3195 4129 
Q 3622 3509 3622 2328 
Q 3622 1225 3098 567 
Q 2575 -91 1691 -91 
Q 1453 -91 1209 -44 
Q 966 3 703 97 
z
M 1959 2075 
Q 2384 2075 2632 2365 
Q 2881 2656 2881 3163 
Q 2881 3666 2632 3958 
Q 2384 4250 1959 4250 
Q 1534 4250 1286 3958 
Q 1038 3666 1038 3163 
Q 1038 2656 1286 2365 
Q 1534 2075 1959 2075 
z
" transform="scale(0.015625)"/>
      <path id="DejaVuSans-36" d="M 2113 2584 
Q 1688 2584 1439 2293 
Q 1191 2003 1191 1497 
Q 1191 994 1439 701 
Q 1688 409 2113 409 
Q 2538 409 2786 701 
Q 3034 994 3034 1497 
Q 3034 2003 2786 2293 
Q 2538 2584 2113 2584 
z
M 3366 4563 
L 3366 3988 
Q 3128 4100 2886 4159 
Q 2644 4219 2406 4219 
Q 1781 4219 1451 3797 
Q 1122 3375 1075 2522 
Q 1259 2794 1537 2939 
Q 1816 3084 2150 3084 
Q 2853 3084 3261 2657 
Q 3669 2231 3669 1497 
Q 3669 778 3244 343 
Q 2819 -91 2113 -91 
Q 1303 -91 875 529 
Q 447 1150 447 2328 
Q 447 3434 972 4092 
Q 1497 4750 2381 4750 
Q 2619 4750 2861 4703 
Q 3103 4656 3366 4563 
z
" transform="scale(0.015625)"/>
      <path id="DejaVuSans-29" d="M 513 4856 
L 1013 4856 
Q 1481 4119 1714 3412 
Q 1947 2706 1947 2009 
Q 1947 1309 1714 600 
Q 1481 -109 1013 -844 
L 513 -844 
Q 928 -128 1133 580 
Q 1338 1288 1338 2009 
Q 1338 2731 1133 3434 
Q 928 4138 513 4856 
z
" transform="scale(0.015625)"/>
     </defs>
     <use xlink:href="#DejaVuSans-41"/>
     <use xlink:href="#DejaVuSans-74" transform="translate(66.658203 0)"/>
     <use xlink:href="#DejaVuSans-6f" transform="translate(105.867188 0)"/>
     <use xlink:href="#DejaVuSans-6d" transform="translate(167.048828 0)"/>
     <use xlink:href="#DejaVuSans-20" transform="translate(264.460938 0)"/>
     <use xlink:href="#DejaVuSans-54" transform="translate(296.248047 0)"/>
     <use xlink:href="#DejaVuSans-79" transform="translate(341.707031 0)"/>
     <use xlink:href="#DejaVuSans-70" transform="translate(400.886719 0)"/>
     <use xlink:href="#DejaVuSans-65" transform="translate(464.363281 0)"/>
     <use xlink:href="#DejaVuSans-20" transform="translate(525.886719 0)"/>
     <use xlink:href="#DejaVuSans-43" transform="translate(557.673828 0)"/>
     <use xlink:href="#DejaVuSans-20" transform="translate(627.498047 0)"/>
     <use xlink:href="#DejaVuSans-28" transform="translate(659.285156 0)"/>
     <use xlink:href="#DejaVuSans-6e" transform="translate(698.298828 0)"/>
     <use xlink:href="#DejaVuSans-3d" transform="translate(761.677734 0)"/>
     <use xlink:href="#DejaVuSans-35" transform="translate(845.466797 0)"/>
     <use xlink:href="#DejaVuSans-31" transform="translate(909.089844 0)"/>
     <use xlink:href="#DejaVuSans-2c" transform="translate(972.712891 0)"/>
     <use xlink:href="#DejaVuSans-20" transform="translate(1004.5 0)"/>
     <use xlink:href="#DejaVuSans-6d" transform="translate(1036.287109 0)"/>
     <use xlink:href="#DejaVuSans-65" transform="translate(1133.699219 0)"/>
     <use xlink:href="#DejaVuSans-61" transform="translate(1195.222656 0)"/>
     <use xlink:href="#DejaVuSans-6e" transform="translate(1256.501953 0)"/>
     <use xlink:href="#DejaVuSans-20" transform="translate(1319.880859 0)"/>
     <use xlink:href="#DejaVuSans-51" transform="translate(1351.667969 0)"/>
     <use xlink:href="#DejaVuSans-3d" transform="translate(1430.378906 0)"/>
     <use xlink:href="#DejaVuSans-39" transform="translate(1514.167969 0)"/>
     <use xlink:href="#DejaVuSans-2e" transform="translate(1577.791016 0)"/>
     <use xlink:href="#DejaVuSans-35" transform="translate(1609.578125 0)"/>
     <use xlink:href="#DejaVuSans-36" transform="translate(1673.201172 0)"/>
     <use xlink:href="#DejaVuSans-29" transform="translate(1736.824219 0)"/>
    </g>
   </g>
  </g>
 </g>
 <defs>
  <clipPath id="p3f0583d64e">
   <rect x="57.6" y="41.472" width="357.12" height="266.112"/>
  </clipPath>
 </defs>
</svg>
