<?xml version="1.0" encoding="utf-8" standalone="no"?>
<!DOCTYPE svg PUBLIC "-//W3C//DTD SVG 1.1//EN"
  "http://www.w3.org/Graphics/SVG/1.1/DTD/svg11.dtd">
<svg xmlns:xlink="http://www.w3.org/1999/xlink" width="460.8pt" height="345.6pt" viewBox="0 0 460.8 345.6" xmlns="http://www.w3.org/2000/svg" version="1.1">
 <metadata>
  <rdf:RDF xmlns:dc="http://purl.org/dc/elements/1.1/" xmlns:cc="http://creativecommons.org/ns#" xmlns:rdf="http://www.w3.org/1999/02/22-rdf-syntax-ns#">
   <cc:Work>
    <dc:type rdf:resource="http://purl.org/dc/dcmitype/StillImage"/>
    <dc:date>2025-12-10T14:10:17.933193</dc:date>
    <dc:format>image/svg+xml</dc:format>
    <dc:creator>
     <cc:Agent>
      <dc:title>Matplotlib v3.10.3, https://matplotlib.org/</dc:title>
     </cc:Agent>
    </dc:creator>
   </cc:Work>
  </rdf:RDF>
 </metadata>
 <defs>
  <style type="text/css">*{stroke-linejoin: round; stroke-linecap: butt}</style>
 </defs>
 <g id="figure_1">
  <g id="patch_1">
   <path d="M 0 345.6 
L 460.8 345.6 
L 460.8 0 
L 0 0 
z
" style="fill: #ffffff"/>
  </g>
  <g id="axes_1">
   <g id="patch_2">
    <path d="M 57.6 307.584 
L 414.72 307.584 
L 414.72 41.472 
L 57.6 41.472 
z
" style="fill: #ffffff"/>
   </g>
   <g id="matplotlib.axis_1">
    <g id="xtick_1">
     <g id="line2d_1">
      <defs>
       <path id="m1eb9a5888e" d="M 0 0 
L 0 3.5 
" style="stroke: #000000; stroke-width: 0.8"/>
      </defs>
      <g>
       <use xlink:href="#m1eb9a5888e" x="73.832727" y="307.584" style="stroke: #000000; stroke-width: 0.8"/>
      </g>
     </g>
     <g id="text_1">
      <!-- 0 -->
      <g transform="translate(69.060852 325.981656) scale(0.15 -0.15)">
       <defs>
        <path id="DejaVuSans-30" d="M 2034 4250 
Q 1547 4250 1301 3770 
Q 1056 3291 1056 2328 
Q 1056 1369 1301 889 
Q 1547 409 2034 409 
Q 2525 409 2770 889 
Q 3016 1369 3016 2328 
Q 3016 3291 2770 3770 
Q 2525 4250 2034 4250 
z
M 2034 4750 
Q 2819 4750 3233 4129 
Q 3647 3509 3647 2328 
Q 3647 1150 3233 529 
Q 2819 -91 2034 -91 
Q 1250 -91 836 529 
Q 422 1150 422 2328 
Q 422 3509 836 4129 
Q 1250 4750 2034 4750 
z
" transform="scale(0.015625)"/>
       </defs>
       <use xlink:href="#DejaVuSans-30"/>
      </g>
     </g>
    </g>
    <g id="xtick_2">
     <g id="line2d_2">
      <g>
       <use xlink:href="#m1eb9a5888e" x="154.996364" y="307.584" style="stroke: #000000; stroke-width: 0.8"/>
      </g>
     </g>
     <g id="text_2">
      <!-- 5 -->
      <g transform="translate(150.224489 325.981656) scale(0.15 -0.15)">
       <defs>
        <path id="DejaVuSans-35" d="M 691 4666 
L 3169 4666 
L 3169 4134 
L 1269 4134 
L 1269 2991 
Q 1406 3038 1543 3061 
Q 1681 3084 1819 3084 
Q 2600 3084 3056 2656 
Q 3513 2228 3513 1497 
Q 3513 744 3044 326 
Q 2575 -91 1722 -91 
Q 1428 -91 1123 -41 
Q 819 9 494 109 
L 494 744 
Q 775 591 1075 516 
Q 1375 441 1709 441 
Q 2250 441 2565 725 
Q 2881 1009 2881 1497 
Q 2881 1984 2565 2268 
Q 2250 2553 1709 2553 
Q 1456 2553 1204 2497 
Q 953 2441 691 2322 
L 691 4666 
z
" transform="scale(0.015625)"/>
       </defs>
       <use xlink:href="#DejaVuSans-35"/>
      </g>
     </g>
    </g>
    <g id="xtick_3">
     <g id="line2d_3">
      <g>
       <use xlink:href="#m1eb9a5888e" x="236.16" y="307.584" style="stroke: #000000; stroke-width: 0.8"/>
      </g>
     </g>
     <g id="text_3">
      <!-- 10 -->
      <g transform="translate(226.61625 325.981656) scale(0.15 -0.15)">
       <defs>
        <path id="DejaVuSans-31" d="M 794 531 
L 1825 531 
L 1825 4091 
L 703 3866 
L 703 4441 
L 1819 4666 
L 2450 4666 
L 2450 531 
L 3481 531 
L 3481 0 
L 794 0 
L 794 531 
z
" transform="scale(0.015625)"/>
       </defs>
       <use xlink:href="#DejaVuSans-31"/>
       <use xlink:href="#DejaVuSans-30" transform="translate(63.623047 0)"/>
      </g>
     </g>
    </g>
    <g id="xtick_4">
     <g id="line2d_4">
      <g>
       <use xlink:href="#m1eb9a5888e" x="317.323636" y="307.584" style="stroke: #000000; stroke-width: 0.8"/>
      </g>
     </g>
     <g id="text_4">
      <!-- 15 -->
      <g transform="translate(307.779886 325.981656) scale(0.15 -0.15)">
       <use xlink:href="#DejaVuSans-31"/>
       <use xlink:href="#DejaVuSans-35" transform="translate(63.623047 0)"/>
      </g>
     </g>
    </g>
    <g id="xtick_5">
     <g id="line2d_5">
      <g>
       <use xlink:href="#m1eb9a5888e" x="398.487273" y="307.584" style="stroke: #000000; stroke-width: 0.8"/>
      </g>
     </g>
     <g id="text_5">
      <!-- 20 -->
      <g transform="translate(388.943523 325.981656) scale(0.15 -0.15)">
       <defs>
        <path id="DejaVuSans-32" d="M 1228 531 
L 3431 531 
L 3431 0 
L 469 0 
L 469 531 
Q 828 903 1448 1529 
Q 2069 2156 2228 2338 
Q 2531 2678 2651 2914 
Q 2772 3150 2772 3378 
Q 2772 3750 2511 3984 
Q 2250 4219 1831 4219 
Q 1534 4219 1204 4116 
Q 875 4013 500 3803 
L 500 4441 
Q 881 4594 1212 4672 
Q 1544 4750 1819 4750 
Q 2544 4750 2975 4387 
Q 3406 4025 3406 3419 
Q 3406 3131 3298 2873 
Q 3191 2616 2906 2266 
Q 2828 2175 2409 1742 
Q 1991 1309 1228 531 
z
" transform="scale(0.015625)"/>
       </defs>
       <use xlink:href="#DejaVuSans-32"/>
       <use xlink:href="#DejaVuSans-30" transform="translate(63.623047 0)"/>
      </g>
     </g>
    </g>
   </g>
   <g id="matplotlib.axis_2">
    <g id="ytick_1">
     <g id="line2d_6">
      <defs>
       <path id="m6e64a24956" d="M 0 0 
L -3.5 0 
" style="stroke: #000000; stroke-width: 0.8"/>
      </defs>
      <g>
       <use xlink:href="#m6e64a24956" x="57.6" y="294.274575" style="stroke: #000000; stroke-width: 0.8"/>
      </g>
     </g>
     <g id="text_6">
      <!-- 5.0 -->
      <g transform="translate(26.745313 299.973403) scale(0.15 -0.15)">
       <defs>
        <path id="DejaVuSans-2e" d="M 684 794 
L 1344 794 
L 1344 0 
L 684 0 
L 684 794 
z
" transform="scale(0.015625)"/>
       </defs>
       <use xlink:href="#DejaVuSans-35"/>
       <use xlink:href="#DejaVuSans-2e" transform="translate(63.623047 0)"/>
       <use xlink:href="#DejaVuSans-30" transform="translate(95.410156 0)"/>
      </g>
     </g>
    </g>
    <g id="ytick_2">
     <g id="line2d_7">
      <g>
       <use xlink:href="#m6e64a24956" x="57.6" y="256.352642" style="stroke: #000000; stroke-width: 0.8"/>
      </g>
     </g>
     <g id="text_7">
      <!-- 7.5 -->
      <g transform="translate(26.745313 262.05147) scale(0.15 -0.15)">
       <defs>
        <path id="DejaVuSans-37" d="M 525 4666 
L 3525 4666 
L 3525 4397 
L 1831 0 
L 1172 0 
L 2766 4134 
L 525 4134 
L 525 4666 
z
" transform="scale(0.015625)"/>
       </defs>
       <use xlink:href="#DejaVuSans-37"/>
       <use xlink:href="#DejaVuSans-2e" transform="translate(63.623047 0)"/>
       <use xlink:href="#DejaVuSans-35" transform="translate(95.410156 0)"/>
      </g>
     </g>
    </g>
    <g id="ytick_3">
     <g id="line2d_8">
      <g>
       <use xlink:href="#m6e64a24956" x="57.6" y="218.430709" style="stroke: #000000; stroke-width: 0.8"/>
      </g>
     </g>
     <g id="text_8">
      <!-- 10.0 -->
      <g transform="translate(17.201563 224.129537) scale(0.15 -0.15)">
       <use xlink:href="#DejaVuSans-31"/>
       <use xlink:href="#DejaVuSans-30" transform="translate(63.623047 0)"/>
       <use xlink:href="#DejaVuSans-2e" transform="translate(127.246094 0)"/>
       <use xlink:href="#DejaVuSans-30" transform="translate(159.033203 0)"/>
      </g>
     </g>
    </g>
    <g id="ytick_4">
     <g id="line2d_9">
      <g>
       <use xlink:href="#m6e64a24956" x="57.6" y="180.508776" style="stroke: #000000; stroke-width: 0.8"/>
      </g>
     </g>
     <g id="text_9">
      <!-- 12.5 -->
      <g transform="translate(17.201563 186.207605) scale(0.15 -0.15)">
       <use xlink:href="#DejaVuSans-31"/>
       <use xlink:href="#DejaVuSans-32" transform="translate(63.623047 0)"/>
       <use xlink:href="#DejaVuSans-2e" transform="translate(127.246094 0)"/>
       <use xlink:href="#DejaVuSans-35" transform="translate(159.033203 0)"/>
      </g>
     </g>
    </g>
    <g id="ytick_5">
     <g id="line2d_10">
      <g>
       <use xlink:href="#m6e64a24956" x="57.6" y="142.586844" style="stroke: #000000; stroke-width: 0.8"/>
      </g>
     </g>
     <g id="text_10">
      <!-- 15.0 -->
      <g transform="translate(17.201563 148.285672) scale(0.15 -0.15)">
       <use xlink:href="#DejaVuSans-31"/>
       <use xlink:href="#DejaVuSans-35" transform="translate(63.623047 0)"/>
       <use xlink:href="#DejaVuSans-2e" transform="translate(127.246094 0)"/>
       <use xlink:href="#DejaVuSans-30" transform="translate(159.033203 0)"/>
      </g>
     </g>
    </g>
    <g id="ytick_6">
     <g id="line2d_11">
      <g>
       <use xlink:href="#m6e64a24956" x="57.6" y="104.664911" style="stroke: #000000; stroke-width: 0.8"/>
      </g>
     </g>
     <g id="text_11">
      <!-- 17.5 -->
      <g transform="translate(17.201563 110.363739) scale(0.15 -0.15)">
       <use xlink:href="#DejaVuSans-31"/>
       <use xlink:href="#DejaVuSans-37" transform="translate(63.623047 0)"/>
       <use xlink:href="#DejaVuSans-2e" transform="translate(127.246094 0)"/>
       <use xlink:href="#DejaVuSans-35" transform="translate(159.033203 0)"/>
      </g>
     </g>
    </g>
    <g id="ytick_7">
     <g id="line2d_12">
      <g>
       <use xlink:href="#m6e64a24956" x="57.6" y="66.742978" style="stroke: #000000; stroke-width: 0.8"/>
      </g>
     </g>
     <g id="text_12">
      <!-- 20.0 -->
      <g transform="translate(17.201563 72.441806) scale(0.15 -0.15)">
       <use xlink:href="#DejaVuSans-32"/>
       <use xlink:href="#DejaVuSans-30" transform="translate(63.623047 0)"/>
       <use xlink:href="#DejaVuSans-2e" transform="translate(127.246094 0)"/>
       <use xlink:href="#DejaVuSans-30" transform="translate(159.033203 0)"/>
      </g>
     </g>
    </g>
   </g>
   <g id="line2d_13">
    <path d="M 73.832727 247.689819 
L 90.065455 225.364893 
L 106.298182 195.103153 
L 122.530909 229.480257 
L 138.763636 251.008351 
L 154.996364 253.666702 
L 171.229091 260.959505 
L 187.461818 261.652972 
L 203.694545 268.230097 
L 219.927273 237.834167 
L 236.16 205.348343 
L 252.392727 250.253947 
L 268.625455 245.391619 
L 284.858182 225.099361 
L 301.090909 251.817057 
L 317.323636 246.251947 
L 333.556364 254.480448 
L 349.789091 268.901715 
L 366.021818 283.216037 
L 382.254545 281.379061 
L 398.487273 284.311136 
" clip-path="url(#p02fe58328f)" style="fill: none; stroke: #31688e; stroke-opacity: 0.5; stroke-width: 1.5; stroke-linecap: square"/>
   </g>
   <g id="line2d_14">
    <path d="M 73.832727 237.672127 
L 90.065455 254.403783 
L 106.298182 258.10835 
L 122.530909 272.486306 
L 138.763636 253.257244 
L 154.996364 277.859691 
L 171.229091 273.649618 
L 187.461818 273.362293 
L 203.694545 265.36894 
L 219.927273 248.029117 
L 236.16 269.549524 
L 252.392727 256.02024 
L 268.625455 254.901227 
L 284.858182 287.060248 
L 301.090909 246.780977 
L 317.323636 261.372248 
L 333.556364 260.831678 
L 349.789091 221.424322 
L 366.021818 239.243777 
L 382.254545 228.376392 
L 398.487273 252.360138 
" clip-path="url(#p02fe58328f)" style="fill: none; stroke: #31688e; stroke-opacity: 0.5; stroke-width: 1.5; stroke-linecap: square"/>
   </g>
   <g id="line2d_15">
    <path d="M 73.832727 247.707288 
L 90.065455 250.970056 
L 106.298182 254.590742 
L 122.530909 279.91056 
L 138.763636 278.826831 
L 154.996364 272.941006 
L 171.229091 286.853286 
L 187.461818 282.526048 
L 203.694545 266.642659 
L 219.927273 269.089171 
L 236.16 284.533094 
L 252.392727 261.867039 
L 268.625455 238.692192 
L 284.858182 268.975114 
L 301.090909 277.087619 
L 317.323636 275.820727 
L 333.556364 294.335517 
L 349.789091 271.428067 
L 366.021818 251.913112 
L 382.254545 254.334461 
L 398.487273 250.10358 
" clip-path="url(#p02fe58328f)" style="fill: none; stroke: #31688e; stroke-opacity: 0.5; stroke-width: 1.5; stroke-linecap: square"/>
   </g>
   <g id="line2d_16">
    <path d="M 73.832727 249.685055 
L 90.065455 226.302386 
L 106.298182 254.155305 
L 122.530909 267.998927 
L 138.763636 256.840783 
L 154.996364 268.768664 
L 171.229091 212.286505 
L 187.461818 220.433038 
L 203.694545 208.794863 
L 219.927273 252.154065 
L 236.16 226.108988 
L 252.392727 223.52238 
L 268.625455 173.344368 
L 284.858182 214.346209 
L 301.090909 175.482681 
L 317.323636 245.919727 
L 333.556364 231.80161 
L 349.789091 229.936446 
L 366.021818 236.176053 
L 382.254545 232.228056 
L 398.487273 209.78282 
" clip-path="url(#p02fe58328f)" style="fill: none; stroke: #31688e; stroke-opacity: 0.5; stroke-width: 1.5; stroke-linecap: square"/>
   </g>
   <g id="line2d_17">
    <path d="M 73.832727 163.505477 
L 90.065455 175.74163 
L 106.298182 163.760939 
L 122.530909 157.132536 
L 138.763636 196.064531 
L 154.996364 192.643524 
L 171.229091 222.525335 
L 187.461818 187.03795 
L 203.694545 172.372949 
L 219.927273 219.544682 
L 236.16 173.362881 
L 252.392727 227.474547 
L 268.625455 225.276933 
L 284.858182 207.821238 
L 301.090909 218.401815 
L 317.323636 218.198495 
L 333.556364 233.753617 
L 349.789091 223.600932 
L 366.021818 229.05425 
L 382.254545 204.770197 
L 398.487273 201.4194 
" clip-path="url(#p02fe58328f)" style="fill: none; stroke: #31688e; stroke-opacity: 0.5; stroke-width: 1.5; stroke-linecap: square"/>
   </g>
   <g id="line2d_18">
    <path d="M 73.832727 195.264202 
L 90.065455 211.449069 
L 106.298182 182.854023 
L 122.530909 243.601056 
L 138.763636 223.770616 
L 154.996364 243.873069 
L 171.229091 268.098642 
L 187.461818 245.821962 
L 203.694545 222.373711 
L 219.927273 260.649836 
L 236.16 249.341991 
L 252.392727 260.877958 
L 268.625455 253.924379 
L 284.858182 256.10027 
L 301.090909 269.77322 
L 317.323636 280.64572 
L 333.556364 285.393424 
L 349.789091 268.164777 
L 366.021818 275.093041 
L 382.254545 236.085187 
L 398.487273 278.332339 
" clip-path="url(#p02fe58328f)" style="fill: none; stroke: #31688e; stroke-opacity: 0.5; stroke-width: 1.5; stroke-linecap: square"/>
   </g>
   <g id="line2d_19">
    <path d="M 73.832727 283.720806 
L 90.065455 280.410238 
L 106.298182 274.960699 
L 122.530909 271.07234 
L 138.763636 256.364709 
L 154.996364 279.340379 
L 171.229091 288.750401 
L 187.461818 282.407 
L 203.694545 230.185612 
L 219.927273 281.700901 
L 236.16 284.201176 
L 252.392727 252.866979 
L 268.625455 271.324928 
L 284.858182 251.032959 
L 301.090909 236.76562 
L 317.323636 247.677462 
L 333.556364 251.908132 
L 349.789091 254.392224 
L 366.021818 193.713677 
L 382.254545 266.124603 
L 398.487273 213.975017 
" clip-path="url(#p02fe58328f)" style="fill: none; stroke: #31688e; stroke-opacity: 0.5; stroke-width: 1.5; stroke-linecap: square"/>
   </g>
   <g id="line2d_20">
    <path d="M 73.832727 253.639503 
L 90.065455 278.387368 
L 106.298182 265.673248 
L 122.530909 234.076273 
L 138.763636 269.044212 
L 154.996364 247.223221 
L 171.229091 245.626477 
L 187.461818 248.589729 
L 203.694545 253.078523 
L 219.927273 239.883891 
L 236.16 277.878694 
L 252.392727 266.61838 
L 268.625455 272.785994 
L 284.858182 269.34976 
L 301.090909 295.488 
L 317.323636 249.377154 
L 333.556364 265.0074 
L 349.789091 276.296458 
L 366.021818 272.286954 
L 382.254545 254.295131 
L 398.487273 280.339987 
" clip-path="url(#p02fe58328f)" style="fill: none; stroke: #31688e; stroke-opacity: 0.5; stroke-width: 1.5; stroke-linecap: square"/>
   </g>
   <g id="line2d_21">
    <path d="M 73.832727 219.921591 
L 90.065455 288.584677 
L 106.298182 270.119253 
L 122.530909 292.093322 
L 138.763636 233.510172 
L 154.996364 230.37016 
L 171.229091 263.083139 
L 187.461818 229.078304 
L 203.694545 194.804698 
L 219.927273 264.026303 
L 236.16 229.162783 
L 252.392727 253.46577 
L 268.625455 233.717793 
L 284.858182 266.823513 
L 301.090909 205.199639 
L 317.323636 244.580065 
L 333.556364 252.574661 
L 349.789091 242.827792 
L 366.021818 263.57042 
L 382.254545 258.817814 
L 398.487273 244.511838 
" clip-path="url(#p02fe58328f)" style="fill: none; stroke: #31688e; stroke-opacity: 0.5; stroke-width: 1.5; stroke-linecap: square"/>
   </g>
   <g id="line2d_22">
    <path d="M 73.832727 163.866813 
L 90.065455 131.22665 
L 106.298182 192.10228 
L 122.530909 206.382307 
L 138.763636 213.697179 
L 154.996364 183.391823 
L 171.229091 219.108787 
L 187.461818 228.567212 
L 203.694545 235.292877 
L 219.927273 238.44185 
L 236.16 212.2875 
L 252.392727 216.940993 
L 268.625455 220.976133 
L 284.858182 248.462527 
L 301.090909 238.053167 
L 317.323636 173.16679 
L 333.556364 187.50678 
L 349.789091 236.096579 
L 366.021818 161.738628 
L 382.254545 223.976435 
L 398.487273 195.113777 
" clip-path="url(#p02fe58328f)" style="fill: none; stroke: #31688e; stroke-opacity: 0.5; stroke-width: 1.5; stroke-linecap: square"/>
   </g>
   <g id="line2d_23">
    <path d="M 73.832727 230.169525 
L 90.065455 229.946973 
L 106.298182 256.760677 
L 122.530909 233.379703 
L 138.763636 222.82055 
L 154.996364 252.110086 
L 171.229091 273.454288 
L 187.461818 270.602326 
L 203.694545 259.468874 
L 219.927273 246.696035 
L 236.16 260.607476 
L 252.392727 256.788934 
L 268.625455 266.926041 
L 284.858182 263.68513 
L 301.090909 233.256408 
L 317.323636 259.592467 
L 333.556364 227.078522 
L 349.789091 209.304416 
L 366.021818 282.764032 
L 382.254545 227.147882 
L 398.487273 249.908733 
" clip-path="url(#p02fe58328f)" style="fill: none; stroke: #31688e; stroke-opacity: 0.5; stroke-width: 1.5; stroke-linecap: square"/>
   </g>
   <g id="line2d_24">
    <path d="M 73.832727 197.571866 
L 90.065455 246.547726 
L 106.298182 263.248894 
L 122.530909 266.996362 
L 138.763636 271.097739 
L 154.996364 252.108973 
L 171.229091 264.179247 
L 187.461818 241.163685 
L 203.694545 274.549594 
L 219.927273 267.040775 
L 236.16 283.143779 
L 252.392727 239.932395 
L 268.625455 271.240711 
L 284.858182 254.458274 
L 301.090909 275.576203 
L 317.323636 236.523408 
L 333.556364 242.09519 
L 349.789091 277.811439 
L 366.021818 204.956976 
L 382.254545 256.606913 
L 398.487273 197.56019 
" clip-path="url(#p02fe58328f)" style="fill: none; stroke: #31688e; stroke-opacity: 0.5; stroke-width: 1.5; stroke-linecap: square"/>
   </g>
   <g id="line2d_25">
    <path d="M 73.832727 257.564313 
L 90.065455 257.526459 
L 106.298182 276.674412 
L 122.530909 281.224782 
L 138.763636 255.250822 
L 154.996364 287.54641 
L 171.229091 254.335384 
L 187.461818 287.083113 
L 203.694545 266.394827 
L 219.927273 270.315027 
L 236.16 242.270007 
L 252.392727 245.254336 
L 268.625455 208.563259 
L 284.858182 180.8984 
L 301.090909 240.537363 
L 317.323636 267.79911 
L 333.556364 241.333313 
L 349.789091 255.904569 
L 366.021818 211.056794 
L 382.254545 253.412643 
L 398.487273 204.206288 
" clip-path="url(#p02fe58328f)" style="fill: none; stroke: #31688e; stroke-opacity: 0.5; stroke-width: 1.5; stroke-linecap: square"/>
   </g>
   <g id="line2d_26">
    <path d="M 73.832727 240.331206 
L 90.065455 243.939876 
L 106.298182 243.545589 
L 122.530909 216.486273 
L 138.763636 260.072806 
L 154.996364 230.825505 
L 171.229091 228.026696 
L 187.461818 227.618671 
L 203.694545 217.220621 
L 219.927273 234.732469 
L 236.16 227.938933 
L 252.392727 197.852915 
L 268.625455 179.061927 
L 284.858182 214.535175 
L 301.090909 184.752488 
L 317.323636 212.488431 
L 333.556364 202.151733 
L 349.789091 241.939958 
L 366.021818 201.863538 
L 382.254545 245.119807 
L 398.487273 224.397421 
" clip-path="url(#p02fe58328f)" style="fill: none; stroke: #31688e; stroke-opacity: 0.5; stroke-width: 1.5; stroke-linecap: square"/>
   </g>
   <g id="line2d_27">
    <path d="M 73.832727 180.655314 
L 90.065455 178.563751 
L 106.298182 228.563022 
L 122.530909 232.97503 
L 138.763636 190.136467 
L 154.996364 221.744584 
L 171.229091 228.837973 
L 187.461818 210.974376 
L 203.694545 248.755254 
L 219.927273 204.805304 
L 236.16 210.666952 
L 252.392727 209.888776 
L 268.625455 226.260108 
L 284.858182 194.294343 
L 301.090909 217.819824 
L 317.323636 203.805331 
L 333.556364 195.901233 
L 349.789091 202.259884 
L 366.021818 235.56858 
L 382.254545 215.634538 
L 398.487273 228.838733 
" clip-path="url(#p02fe58328f)" style="fill: none; stroke: #31688e; stroke-opacity: 0.5; stroke-width: 1.5; stroke-linecap: square"/>
   </g>
   <g id="line2d_28">
    <path d="M 73.832727 185.600227 
L 90.065455 155.885909 
L 106.298182 215.395398 
L 122.530909 236.76512 
L 138.763636 208.114333 
L 154.996364 244.023178 
L 171.229091 240.30779 
L 187.461818 266.740491 
L 203.694545 230.522003 
L 219.927273 234.78802 
L 236.16 230.622643 
L 252.392727 226.421819 
L 268.625455 246.743271 
L 284.858182 265.229922 
L 301.090909 232.639945 
L 317.323636 246.954108 
L 333.556364 263.251061 
L 349.789091 249.875809 
L 366.021818 254.230887 
L 382.254545 253.686831 
L 398.487273 239.276256 
" clip-path="url(#p02fe58328f)" style="fill: none; stroke: #31688e; stroke-opacity: 0.5; stroke-width: 1.5; stroke-linecap: square"/>
   </g>
   <g id="line2d_29">
    <path d="M 73.832727 213.671526 
L 90.065455 250.396958 
L 106.298182 256.57623 
L 122.530909 260.01831 
L 138.763636 250.408071 
L 154.996364 249.70363 
L 171.229091 264.202018 
L 187.461818 258.693568 
L 203.694545 264.760458 
L 219.927273 268.49734 
L 236.16 270.411016 
L 252.392727 254.150553 
L 268.625455 273.97009 
L 284.858182 251.834113 
L 301.090909 261.327215 
L 317.323636 267.942449 
L 333.556364 263.381173 
L 349.789091 264.542631 
L 366.021818 250.307258 
L 382.254545 257.585725 
L 398.487273 267.552872 
" clip-path="url(#p02fe58328f)" style="fill: none; stroke: #31688e; stroke-opacity: 0.5; stroke-width: 1.5; stroke-linecap: square"/>
   </g>
   <g id="line2d_30">
    <path d="M 73.832727 193.847011 
L 90.065455 191.0528 
L 106.298182 192.809724 
L 122.530909 215.921898 
L 138.763636 210.962477 
L 154.996364 217.429231 
L 171.229091 192.356546 
L 187.461818 201.306434 
L 203.694545 187.254601 
L 219.927273 187.292849 
L 236.16 186.351138 
L 252.392727 187.726792 
L 268.625455 198.883368 
L 284.858182 202.365695 
L 301.090909 191.072344 
L 317.323636 206.228401 
L 333.556364 224.810032 
L 349.789091 222.62825 
L 366.021818 227.371194 
L 382.254545 206.977227 
L 398.487273 224.564365 
" clip-path="url(#p02fe58328f)" style="fill: none; stroke: #31688e; stroke-opacity: 0.5; stroke-width: 1.5; stroke-linecap: square"/>
   </g>
   <g id="line2d_31">
    <path d="M 73.832727 186.835988 
L 90.065455 220.476762 
L 106.298182 240.903685 
L 122.530909 233.428196 
L 138.763636 224.569718 
L 154.996364 254.302131 
L 171.229091 245.280984 
L 187.461818 272.699317 
L 203.694545 274.37499 
L 219.927273 278.963117 
L 236.16 273.139785 
L 252.392727 285.582418 
L 268.625455 286.050718 
L 284.858182 273.014472 
L 301.090909 283.365505 
L 317.323636 276.782631 
L 333.556364 269.103229 
L 349.789091 251.388571 
L 366.021818 279.785197 
L 382.254545 265.10211 
L 398.487273 276.753105 
" clip-path="url(#p02fe58328f)" style="fill: none; stroke: #31688e; stroke-opacity: 0.5; stroke-width: 1.5; stroke-linecap: square"/>
   </g>
   <g id="line2d_32">
    <path d="M 73.832727 242.942401 
L 90.065455 242.601023 
L 106.298182 258.398282 
L 122.530909 269.547092 
L 138.763636 258.904927 
L 154.996364 251.812374 
L 171.229091 246.710049 
L 187.461818 249.460719 
L 203.694545 256.750105 
L 219.927273 260.651064 
L 236.16 248.322209 
L 252.392727 258.234416 
L 268.625455 261.748253 
L 284.858182 261.489605 
L 301.090909 253.739188 
L 317.323636 255.171481 
L 333.556364 251.997832 
L 349.789091 251.997169 
L 366.021818 263.800273 
L 382.254545 260.685785 
L 398.487273 243.098951 
" clip-path="url(#p02fe58328f)" style="fill: none; stroke: #31688e; stroke-opacity: 0.5; stroke-width: 1.5; stroke-linecap: square"/>
   </g>
   <g id="line2d_33">
    <path d="M 73.832727 247.796554 
L 90.065455 233.697187 
L 106.298182 246.406723 
L 122.530909 252.577695 
L 138.763636 243.347767 
L 154.996364 251.529348 
L 171.229091 238.517098 
L 187.461818 244.606819 
L 203.694545 257.971647 
L 219.927273 240.394981 
L 236.16 233.573463 
L 252.392727 242.710673 
L 268.625455 248.881567 
L 284.858182 230.255451 
L 301.090909 245.319174 
L 317.323636 245.980822 
L 333.556364 229.555129 
L 349.789091 243.153077 
L 366.021818 250.226165 
L 382.254545 249.070728 
L 398.487273 253.236804 
" clip-path="url(#p02fe58328f)" style="fill: none; stroke: #31688e; stroke-opacity: 0.5; stroke-width: 1.5; stroke-linecap: square"/>
   </g>
   <g id="line2d_34">
    <path d="M 73.832727 168.685619 
L 90.065455 218.230005 
L 106.298182 168.655176 
L 122.530909 196.482207 
L 138.763636 210.038502 
L 154.996364 263.319517 
L 171.229091 232.396946 
L 187.461818 255.085861 
L 203.694545 248.817144 
L 219.927273 260.285679 
L 236.16 246.017143 
L 252.392727 278.189091 
L 268.625455 265.497081 
L 284.858182 206.423121 
L 301.090909 227.57691 
L 317.323636 232.513431 
L 333.556364 225.751361 
L 349.789091 239.909164 
L 366.021818 239.136053 
L 382.254545 242.273995 
L 398.487273 224.974139 
" clip-path="url(#p02fe58328f)" style="fill: none; stroke: #31688e; stroke-opacity: 0.5; stroke-width: 1.5; stroke-linecap: square"/>
   </g>
   <g id="line2d_35">
    <path d="M 73.832727 235.187828 
L 90.065455 233.381323 
L 106.298182 275.834208 
L 122.530909 249.722889 
L 138.763636 226.305684 
L 154.996364 276.230318 
L 171.229091 266.445724 
L 187.461818 276.775835 
L 203.694545 281.452249 
L 219.927273 276.59752 
L 236.16 251.022565 
L 252.392727 270.621311 
L 268.625455 269.793276 
L 284.858182 253.88634 
L 301.090909 265.772917 
L 317.323636 247.603842 
L 333.556364 253.01905 
L 349.789091 276.090358 
L 366.021818 271.680595 
L 382.254545 257.206053 
L 398.487273 248.813848 
" clip-path="url(#p02fe58328f)" style="fill: none; stroke: #31688e; stroke-opacity: 0.5; stroke-width: 1.5; stroke-linecap: square"/>
   </g>
   <g id="line2d_36">
    <path d="M 73.832727 138.433132 
L 90.065455 188.049281 
L 106.298182 178.594603 
L 122.530909 180.247799 
L 138.763636 192.752247 
L 154.996364 219.041808 
L 171.229091 198.858123 
L 187.461818 203.911196 
L 203.694545 216.972045 
L 219.927273 212.1082 
L 236.16 215.448643 
L 252.392727 155.54279 
L 268.625455 171.329926 
L 284.858182 212.812386 
L 301.090909 194.501544 
L 317.323636 220.558761 
L 333.556364 233.156645 
L 349.789091 213.807614 
L 366.021818 204.646755 
L 382.254545 209.468128 
L 398.487273 237.946842 
" clip-path="url(#p02fe58328f)" style="fill: none; stroke: #31688e; stroke-opacity: 0.5; stroke-width: 1.5; stroke-linecap: square"/>
   </g>
   <g id="line2d_37">
    <path d="M 73.832727 130.383146 
L 90.065455 192.424311 
L 106.298182 191.77668 
L 122.530909 207.20688 
L 138.763636 218.076642 
L 154.996364 263.240913 
L 171.229091 235.257087 
L 187.461818 276.43335 
L 203.694545 284.12371 
L 219.927273 255.540848 
L 236.16 254.235991 
L 252.392727 278.530023 
L 268.625455 263.004615 
L 284.858182 265.291623 
L 301.090909 253.447599 
L 317.323636 269.387555 
L 333.556364 279.945896 
L 349.789091 274.352508 
L 366.021818 279.663091 
L 382.254545 266.460046 
L 398.487273 277.209156 
" clip-path="url(#p02fe58328f)" style="fill: none; stroke: #31688e; stroke-opacity: 0.5; stroke-width: 1.5; stroke-linecap: square"/>
   </g>
   <g id="line2d_38">
    <path d="M 73.832727 226.729436 
L 90.065455 253.094881 
L 106.298182 200.480057 
L 122.530909 229.741216 
L 138.763636 235.943387 
L 154.996364 255.39724 
L 171.229091 277.54423 
L 187.461818 271.102011 
L 203.694545 270.592183 
L 219.927273 276.219697 
L 236.16 270.552158 
L 252.392727 254.83827 
L 268.625455 265.707928 
L 284.858182 267.198173 
L 301.090909 274.892983 
L 317.323636 282.985033 
L 333.556364 278.063993 
L 349.789091 285.944521 
L 366.021818 276.538944 
L 382.254545 267.58516 
L 398.487273 269.752783 
" clip-path="url(#p02fe58328f)" style="fill: none; stroke: #31688e; stroke-opacity: 0.5; stroke-width: 1.5; stroke-linecap: square"/>
   </g>
   <g id="line2d_39">
    <path d="M 73.832727 196.351812 
L 90.065455 245.299697 
L 106.298182 259.147863 
L 122.530909 253.891675 
L 138.763636 236.331262 
L 154.996364 251.3046 
L 171.229091 234.183728 
L 187.461818 184.332686 
L 203.694545 218.678852 
L 219.927273 202.133167 
L 236.16 235.840223 
L 252.392727 208.059655 
L 268.625455 212.992588 
L 284.858182 260.178529 
L 301.090909 247.734333 
L 317.323636 251.243324 
L 333.556364 232.228488 
L 349.789091 239.653262 
L 366.021818 247.170617 
L 382.254545 236.099501 
L 398.487273 237.149381 
" clip-path="url(#p02fe58328f)" style="fill: none; stroke: #31688e; stroke-opacity: 0.5; stroke-width: 1.5; stroke-linecap: square"/>
   </g>
   <g id="line2d_40">
    <path d="M 73.832727 77.295037 
L 90.065455 53.568 
L 106.298182 198.254599 
L 122.530909 243.079234 
L 138.763636 163.966553 
L 154.996364 220.040712 
L 171.229091 213.381547 
L 187.461818 221.021369 
L 203.694545 212.465916 
L 219.927273 253.800197 
L 236.16 230.880948 
L 252.392727 236.584391 
L 268.625455 250.248814 
L 284.858182 246.199081 
L 301.090909 223.17963 
L 317.323636 231.847523 
L 333.556364 254.045416 
L 349.789091 234.872128 
L 366.021818 240.970513 
L 382.254545 235.758821 
L 398.487273 199.670134 
" clip-path="url(#p02fe58328f)" style="fill: none; stroke: #31688e; stroke-opacity: 0.5; stroke-width: 1.5; stroke-linecap: square"/>
   </g>
   <g id="line2d_41">
    <path d="M 73.832727 119.922446 
L 90.065455 169.812343 
L 106.298182 255.904565 
L 122.530909 251.384239 
L 138.763636 240.649933 
L 154.996364 265.988106 
L 171.229091 250.108824 
L 187.461818 240.409671 
L 203.694545 240.820806 
L 219.927273 266.616016 
L 236.16 264.767483 
L 252.392727 233.218867 
L 268.625455 254.579565 
L 284.858182 228.841545 
L 301.090909 232.520276 
L 317.323636 259.438964 
L 333.556364 239.180725 
L 349.789091 245.717295 
L 366.021818 223.965222 
L 382.254545 228.128984 
L 398.487273 203.127657 
" clip-path="url(#p02fe58328f)" style="fill: none; stroke: #31688e; stroke-opacity: 0.5; stroke-width: 1.5; stroke-linecap: square"/>
   </g>
   <g id="line2d_42">
    <path d="M 73.832727 166.365904 
L 90.065455 166.173249 
L 106.298182 200.685041 
L 122.530909 209.715495 
L 138.763636 194.940076 
L 154.996364 187.054465 
L 171.229091 177.829053 
L 187.461818 186.345531 
L 203.694545 188.072621 
L 219.927273 215.670172 
L 236.16 213.278273 
L 252.392727 188.435662 
L 268.625455 177.024359 
L 284.858182 227.464046 
L 301.090909 225.006812 
L 317.323636 210.042783 
L 333.556364 220.629328 
L 349.789091 202.813391 
L 366.021818 205.165588 
L 382.254545 208.441751 
L 398.487273 205.853799 
" clip-path="url(#p02fe58328f)" style="fill: none; stroke: #31688e; stroke-opacity: 0.5; stroke-width: 1.5; stroke-linecap: square"/>
   </g>
   <g id="line2d_43">
    <path d="M 73.832727 232.525571 
L 90.065455 228.808472 
L 106.298182 248.971003 
L 122.530909 232.959983 
L 138.763636 252.754727 
L 154.996364 252.264402 
L 171.229091 230.199682 
L 187.461818 251.30209 
L 203.694545 247.150642 
L 219.927273 256.954023 
L 236.16 236.167367 
L 252.392727 246.312839 
L 268.625455 266.019882 
L 284.858182 261.118305 
L 301.090909 237.992008 
L 317.323636 237.328138 
L 333.556364 259.419337 
L 349.789091 256.248595 
L 366.021818 220.01891 
L 382.254545 240.491587 
L 398.487273 236.63119 
" clip-path="url(#p02fe58328f)" style="fill: none; stroke: #31688e; stroke-opacity: 0.5; stroke-width: 1.5; stroke-linecap: square"/>
   </g>
   <g id="line2d_44">
    <path d="M 73.832727 244.513622 
L 90.065455 244.014491 
L 106.298182 248.926592 
L 122.530909 266.741921 
L 138.763636 263.928282 
L 154.996364 234.235198 
L 171.229091 191.097039 
L 187.461818 215.668479 
L 203.694545 180.428849 
L 219.927273 246.568751 
L 236.16 233.631998 
L 252.392727 234.19074 
L 268.625455 212.047054 
L 284.858182 246.144999 
L 301.090909 253.242699 
L 317.323636 253.603055 
L 333.556364 247.980434 
L 349.789091 244.153772 
L 366.021818 267.474305 
L 382.254545 246.598729 
L 398.487273 243.741631 
" clip-path="url(#p02fe58328f)" style="fill: none; stroke: #31688e; stroke-opacity: 0.5; stroke-width: 1.5; stroke-linecap: square"/>
   </g>
   <g id="line2d_45">
    <path d="M 73.832727 216.925495 
L 90.065455 153.332235 
L 106.298182 240.878783 
L 122.530909 251.315345 
L 138.763636 245.981226 
L 154.996364 245.01912 
L 171.229091 237.107657 
L 187.461818 242.762951 
L 203.694545 238.305779 
L 219.927273 263.076189 
L 236.16 242.703776 
L 252.392727 213.179948 
L 268.625455 224.205715 
L 284.858182 248.124166 
L 301.090909 250.619706 
L 317.323636 250.798182 
L 333.556364 239.166124 
L 349.789091 250.921342 
L 366.021818 250.24489 
L 382.254545 246.946414 
L 398.487273 255.838946 
" clip-path="url(#p02fe58328f)" style="fill: none; stroke: #31688e; stroke-opacity: 0.5; stroke-width: 1.5; stroke-linecap: square"/>
   </g>
   <g id="line2d_46">
    <path d="M 73.832727 191.95709 
L 90.065455 206.532746 
L 106.298182 214.050012 
L 122.530909 234.110754 
L 138.763636 236.988836 
L 154.996364 265.954493 
L 171.229091 245.269611 
L 187.461818 261.607976 
L 203.694545 258.099863 
L 219.927273 279.948228 
L 236.16 266.161667 
L 252.392727 281.211304 
L 268.625455 260.649603 
L 284.858182 268.319603 
L 301.090909 261.851514 
L 317.323636 233.325111 
L 333.556364 264.685431 
L 349.789091 265.986763 
L 366.021818 259.35002 
L 382.254545 278.693378 
L 398.487273 240.247455 
" clip-path="url(#p02fe58328f)" style="fill: none; stroke: #31688e; stroke-opacity: 0.5; stroke-width: 1.5; stroke-linecap: square"/>
   </g>
   <g id="line2d_47">
    <path d="M 73.832727 245.400588 
L 90.065455 235.121726 
L 106.298182 236.554171 
L 122.530909 250.096043 
L 138.763636 258.207347 
L 154.996364 251.65882 
L 171.229091 252.762915 
L 187.461818 261.611433 
L 203.694545 244.957139 
L 219.927273 245.71517 
L 236.16 262.005062 
L 252.392727 265.356595 
L 268.625455 264.522332 
L 284.858182 267.399839 
L 301.090909 276.082844 
L 317.323636 276.612938 
L 333.556364 259.311873 
L 349.789091 262.70336 
L 366.021818 265.325597 
L 382.254545 269.689403 
L 398.487273 271.917208 
" clip-path="url(#p02fe58328f)" style="fill: none; stroke: #31688e; stroke-opacity: 0.5; stroke-width: 1.5; stroke-linecap: square"/>
   </g>
   <g id="line2d_48">
    <path d="M 73.832727 198.649581 
L 90.065455 170.173359 
L 106.298182 189.847713 
L 122.530909 182.034117 
L 138.763636 193.374568 
L 154.996364 187.706496 
L 171.229091 175.426508 
L 187.461818 206.18069 
L 203.694545 179.801767 
L 219.927273 190.716956 
L 236.16 165.795033 
L 252.392727 182.012531 
L 268.625455 192.110991 
L 284.858182 185.15882 
L 301.090909 164.333528 
L 317.323636 174.257693 
L 333.556364 178.36639 
L 349.789091 160.141142 
L 366.021818 171.226155 
L 382.254545 188.869118 
L 398.487273 174.361883 
" clip-path="url(#p02fe58328f)" style="fill: none; stroke: #31688e; stroke-opacity: 0.5; stroke-width: 1.5; stroke-linecap: square"/>
   </g>
   <g id="line2d_49">
    <path d="M 73.832727 186.561003 
L 90.065455 107.050163 
L 106.298182 202.476298 
L 122.530909 154.340942 
L 138.763636 216.577973 
L 154.996364 229.717128 
L 171.229091 246.573483 
L 187.461818 241.713939 
L 203.694545 248.635956 
L 219.927273 252.917384 
L 236.16 239.18206 
L 252.392727 258.712879 
L 268.625455 255.708545 
L 284.858182 274.728148 
L 301.090909 277.633807 
L 317.323636 262.263721 
L 333.556364 261.953714 
L 349.789091 253.753128 
L 366.021818 243.141337 
L 382.254545 248.717844 
L 398.487273 259.324254 
" clip-path="url(#p02fe58328f)" style="fill: none; stroke: #31688e; stroke-opacity: 0.5; stroke-width: 1.5; stroke-linecap: square"/>
   </g>
   <g id="line2d_50">
    <path d="M 73.832727 227.505364 
L 90.065455 237.33847 
L 106.298182 234.685011 
L 122.530909 231.620492 
L 138.763636 230.977045 
L 154.996364 224.204934 
L 171.229091 248.16812 
L 187.461818 238.640404 
L 203.694545 225.514264 
L 219.927273 229.333371 
L 236.16 240.386808 
L 252.392727 211.416684 
L 268.625455 201.132563 
L 284.858182 249.676084 
L 301.090909 236.493852 
L 317.323636 229.10209 
L 333.556364 234.770466 
L 349.789091 218.876209 
L 366.021818 237.487893 
L 382.254545 244.500012 
L 398.487273 223.832068 
" clip-path="url(#p02fe58328f)" style="fill: none; stroke: #31688e; stroke-opacity: 0.5; stroke-width: 1.5; stroke-linecap: square"/>
   </g>
   <g id="line2d_51">
    <path d="M 73.832727 246.389379 
L 90.065455 199.247989 
L 106.298182 210.394553 
L 122.530909 213.31147 
L 138.763636 236.198366 
L 154.996364 234.418732 
L 171.229091 227.443258 
L 187.461818 254.763104 
L 203.694545 230.567285 
L 219.927273 198.361615 
L 236.16 188.894757 
L 252.392727 256.134987 
L 268.625455 204.747655 
L 284.858182 215.068862 
L 301.090909 210.576794 
L 317.323636 243.47338 
L 333.556364 194.796216 
L 349.789091 222.705963 
L 366.021818 209.49116 
L 382.254545 223.283919 
L 398.487273 233.026534 
" clip-path="url(#p02fe58328f)" style="fill: none; stroke: #31688e; stroke-opacity: 0.5; stroke-width: 1.5; stroke-linecap: square"/>
   </g>
   <g id="line2d_52">
    <path d="M 73.832727 190.946058 
L 90.065455 207.839702 
L 106.298182 210.883129 
L 122.530909 234.854911 
L 138.763636 233.030885 
L 154.996364 237.867369 
L 171.229091 266.292554 
L 187.461818 237.035817 
L 203.694545 262.995152 
L 219.927273 253.866801 
L 236.16 254.962688 
L 252.392727 266.904563 
L 268.625455 262.269825 
L 284.858182 231.707198 
L 301.090909 264.136943 
L 317.323636 269.834979 
L 333.556364 231.326852 
L 349.789091 266.396194 
L 366.021818 240.440253 
L 382.254545 266.713578 
L 398.487273 258.902644 
" clip-path="url(#p02fe58328f)" style="fill: none; stroke: #31688e; stroke-opacity: 0.5; stroke-width: 1.5; stroke-linecap: square"/>
   </g>
   <g id="line2d_53">
    <path d="M 73.832727 231.597869 
L 90.065455 249.8987 
L 106.298182 242.666273 
L 122.530909 261.944626 
L 138.763636 272.424153 
L 154.996364 262.827382 
L 171.229091 238.701112 
L 187.461818 260.680897 
L 203.694545 269.428564 
L 219.927273 256.616374 
L 236.16 273.776716 
L 252.392727 264.616314 
L 268.625455 242.16994 
L 284.858182 255.221093 
L 301.090909 237.0182 
L 317.323636 252.721212 
L 333.556364 251.451738 
L 349.789091 249.38344 
L 366.021818 245.990547 
L 382.254545 234.500572 
L 398.487273 258.750401 
" clip-path="url(#p02fe58328f)" style="fill: none; stroke: #31688e; stroke-opacity: 0.5; stroke-width: 1.5; stroke-linecap: square"/>
   </g>
   <g id="line2d_54">
    <path d="M 73.832727 206.62329 
L 90.065455 154.970033 
L 106.298182 133.657418 
L 122.530909 173.5054 
L 138.763636 157.689778 
L 154.996364 224.44213 
L 171.229091 215.763299 
L 187.461818 206.680031 
L 203.694545 222.193819 
L 219.927273 153.43506 
L 236.16 166.679022 
L 252.392727 162.830919 
L 268.625455 185.223274 
L 284.858182 179.377549 
L 301.090909 183.591583 
L 317.323636 162.904418 
L 333.556364 168.427226 
L 349.789091 186.658554 
L 366.021818 136.463736 
L 382.254545 151.459892 
L 398.487273 163.787254 
" clip-path="url(#p02fe58328f)" style="fill: none; stroke: #31688e; stroke-opacity: 0.5; stroke-width: 1.5; stroke-linecap: square"/>
   </g>
   <g id="line2d_55">
    <path d="M 73.832727 161.222173 
L 90.065455 235.122067 
L 106.298182 157.253511 
L 122.530909 224.524174 
L 138.763636 231.933427 
L 154.996364 278.843758 
L 171.229091 283.440019 
L 187.461818 272.454472 
L 203.694545 285.969839 
L 219.927273 265.943623 
L 236.16 277.43814 
L 252.392727 276.011485 
L 268.625455 284.051584 
L 284.858182 272.208598 
L 301.090909 273.689173 
L 317.323636 274.875813 
L 333.556364 280.008737 
L 349.789091 272.480088 
L 366.021818 262.24614 
L 382.254545 279.049866 
L 398.487273 277.11833 
" clip-path="url(#p02fe58328f)" style="fill: none; stroke: #31688e; stroke-opacity: 0.5; stroke-width: 1.5; stroke-linecap: square"/>
   </g>
   <g id="line2d_56">
    <path d="M 73.832727 270.246606 
L 90.065455 245.220927 
L 106.298182 249.86797 
L 122.530909 248.844576 
L 138.763636 270.204694 
L 154.996364 229.258761 
L 171.229091 262.557751 
L 187.461818 219.705714 
L 203.694545 245.344847 
L 219.927273 244.055514 
L 236.16 237.24749 
L 252.392727 237.799563 
L 268.625455 249.343545 
L 284.858182 268.180919 
L 301.090909 268.079019 
L 317.323636 252.511381 
L 333.556364 268.606623 
L 349.789091 264.661703 
L 366.021818 264.243031 
L 382.254545 266.435586 
L 398.487273 261.657446 
" clip-path="url(#p02fe58328f)" style="fill: none; stroke: #31688e; stroke-opacity: 0.5; stroke-width: 1.5; stroke-linecap: square"/>
   </g>
   <g id="line2d_57">
    <path d="M 73.832727 184.691771 
L 90.065455 230.094888 
L 106.298182 192.372413 
L 122.530909 252.624895 
L 138.763636 253.676709 
L 154.996364 263.338802 
L 171.229091 262.577261 
L 187.461818 244.920377 
L 203.694545 264.114988 
L 219.927273 232.633993 
L 236.16 230.218361 
L 252.392727 243.976426 
L 268.625455 266.618859 
L 284.858182 258.376766 
L 301.090909 248.209184 
L 317.323636 254.664118 
L 333.556364 233.754239 
L 349.789091 255.466681 
L 366.021818 251.234968 
L 382.254545 254.657394 
L 398.487273 256.817298 
" clip-path="url(#p02fe58328f)" style="fill: none; stroke: #31688e; stroke-opacity: 0.5; stroke-width: 1.5; stroke-linecap: square"/>
   </g>
   <g id="line2d_58">
    <path d="M 73.832727 157.92716 
L 90.065455 210.832942 
L 106.298182 237.921228 
L 122.530909 219.895578 
L 138.763636 236.102959 
L 154.996364 254.101497 
L 171.229091 242.520462 
L 187.461818 245.843072 
L 203.694545 275.171101 
L 219.927273 260.784373 
L 236.16 272.694702 
L 252.392727 261.224173 
L 268.625455 278.2462 
L 284.858182 262.253815 
L 301.090909 270.287533 
L 317.323636 254.757544 
L 333.556364 246.310174 
L 349.789091 259.658596 
L 366.021818 228.760614 
L 382.254545 234.365786 
L 398.487273 265.883125 
" clip-path="url(#p02fe58328f)" style="fill: none; stroke: #31688e; stroke-opacity: 0.5; stroke-width: 1.5; stroke-linecap: square"/>
   </g>
   <g id="line2d_59">
    <path d="M 73.832727 226.550329 
L 90.065455 207.037017 
L 106.298182 195.910891 
L 122.530909 270.230812 
L 138.763636 271.516855 
L 154.996364 282.172908 
L 171.229091 262.524082 
L 187.461818 243.733372 
L 203.694545 261.575287 
L 219.927273 250.664046 
L 236.16 257.690081 
L 252.392727 219.197445 
L 268.625455 238.422868 
L 284.858182 271.228401 
L 301.090909 266.507751 
L 317.323636 284.104717 
L 333.556364 254.499129 
L 349.789091 257.918641 
L 366.021818 285.742535 
L 382.254545 249.080309 
L 398.487273 271.925004 
" clip-path="url(#p02fe58328f)" style="fill: none; stroke: #31688e; stroke-opacity: 0.5; stroke-width: 1.5; stroke-linecap: square"/>
   </g>
   <g id="line2d_60">
    <path d="M 73.832727 176.485723 
L 90.065455 168.288683 
L 106.298182 229.294946 
L 122.530909 224.307688 
L 138.763636 220.41902 
L 154.996364 203.790418 
L 171.229091 224.508253 
L 187.461818 217.585118 
L 203.694545 217.411545 
L 219.927273 209.643857 
L 236.16 196.145423 
L 252.392727 203.875507 
L 268.625455 211.205215 
L 284.858182 169.378651 
L 301.090909 198.462837 
L 317.323636 209.318565 
L 333.556364 208.669134 
L 349.789091 203.061289 
L 366.021818 198.144774 
L 382.254545 217.761398 
L 398.487273 199.573622 
" clip-path="url(#p02fe58328f)" style="fill: none; stroke: #31688e; stroke-opacity: 0.5; stroke-width: 1.5; stroke-linecap: square"/>
   </g>
   <g id="line2d_61">
    <path d="M 73.832727 208.908783 
L 90.065455 225.774408 
L 106.298182 262.307114 
L 122.530909 247.0351 
L 138.763636 235.309924 
L 154.996364 233.032694 
L 171.229091 265.592108 
L 187.461818 277.266614 
L 203.694545 262.716259 
L 219.927273 246.858399 
L 236.16 243.459361 
L 252.392727 254.960422 
L 268.625455 249.013792 
L 284.858182 248.184662 
L 301.090909 247.577846 
L 317.323636 265.275023 
L 333.556364 269.391678 
L 349.789091 260.168554 
L 366.021818 262.473651 
L 382.254545 276.243059 
L 398.487273 272.895457 
" clip-path="url(#p02fe58328f)" style="fill: none; stroke: #31688e; stroke-opacity: 0.5; stroke-width: 1.5; stroke-linecap: square"/>
   </g>
   <g id="line2d_62">
    <path d="M 73.832727 209.669907 
L 90.065455 242.475988 
L 106.298182 241.670829 
L 122.530909 209.648537 
L 138.763636 234.325827 
L 154.996364 254.591219 
L 171.229091 257.438958 
L 187.461818 239.691352 
L 203.694545 254.207569 
L 219.927273 217.792334 
L 236.16 209.127561 
L 252.392727 274.617088 
L 268.625455 279.505396 
L 284.858182 268.332837 
L 301.090909 273.927107 
L 317.323636 275.839738 
L 333.556364 272.880567 
L 349.789091 263.126426 
L 366.021818 255.940482 
L 382.254545 267.201954 
L 398.487273 255.834519 
" clip-path="url(#p02fe58328f)" style="fill: none; stroke: #31688e; stroke-opacity: 0.5; stroke-width: 1.5; stroke-linecap: square"/>
   </g>
   <g id="line2d_63">
    <path d="M 73.832727 201.576317 
L 90.065455 191.160017 
L 106.298182 218.57656 
L 122.530909 251.640349 
L 138.763636 248.9389 
L 154.996364 253.303106 
L 171.229091 253.003395 
L 187.461818 258.767898 
L 203.694545 223.916606 
L 219.927273 261.812703 
L 236.16 246.537908 
L 252.392727 249.481183 
L 268.625455 245.277529 
L 284.858182 215.782144 
L 301.090909 231.590898 
L 317.323636 210.953378 
L 333.556364 213.152845 
L 349.789091 217.453369 
L 366.021818 244.383846 
L 382.254545 221.991941 
L 398.487273 207.99634 
" clip-path="url(#p02fe58328f)" style="fill: none; stroke: #31688e; stroke-opacity: 0.5; stroke-width: 1.5; stroke-linecap: square"/>
   </g>
   <g id="patch_3">
    <path d="M 57.6 307.584 
L 57.6 41.472 
" style="fill: none; stroke: #000000; stroke-width: 3; stroke-linejoin: miter; stroke-linecap: square"/>
   </g>
   <g id="patch_4">
    <path d="M 414.72 307.584 
L 414.72 41.472 
" style="fill: none; stroke: #000000; stroke-width: 3; stroke-linejoin: miter; stroke-linecap: square"/>
   </g>
   <g id="patch_5">
    <path d="M 57.6 307.584 
L 414.72 307.584 
" style="fill: none; stroke: #000000; stroke-width: 3; stroke-linejoin: miter; stroke-linecap: square"/>
   </g>
   <g id="patch_6">
    <path d="M 57.6 41.472 
L 414.72 41.472 
" style="fill: none; stroke: #000000; stroke-width: 3; stroke-linejoin: miter; stroke-linecap: square"/>
   </g>
   <g id="text_13">
    <!-- Atom Type C (n=51, mean Q=8.74) -->
    <g transform="translate(40.817187 35.472) scale(0.22 -0.22)">
     <defs>
      <path id="DejaVuSans-41" d="M 2188 4044 
L 1331 1722 
L 3047 1722 
L 2188 4044 
z
M 1831 4666 
L 2547 4666 
L 4325 0 
L 3669 0 
L 3244 1197 
L 1141 1197 
L 716 0 
L 50 0 
L 1831 4666 
z
" transform="scale(0.015625)"/>
      <path id="DejaVuSans-74" d="M 1172 4494 
L 1172 3500 
L 2356 3500 
L 2356 3053 
L 1172 3053 
L 1172 1153 
Q 1172 725 1289 603 
Q 1406 481 1766 481 
L 2356 481 
L 2356 0 
L 1766 0 
Q 1100 0 847 248 
Q 594 497 594 1153 
L 594 3053 
L 172 3053 
L 172 3500 
L 594 3500 
L 594 4494 
L 1172 4494 
z
" transform="scale(0.015625)"/>
      <path id="DejaVuSans-6f" d="M 1959 3097 
Q 1497 3097 1228 2736 
Q 959 2375 959 1747 
Q 959 1119 1226 758 
Q 1494 397 1959 397 
Q 2419 397 2687 759 
Q 2956 1122 2956 1747 
Q 2956 2369 2687 2733 
Q 2419 3097 1959 3097 
z
M 1959 3584 
Q 2709 3584 3137 3096 
Q 3566 2609 3566 1747 
Q 3566 888 3137 398 
Q 2709 -91 1959 -91 
Q 1206 -91 779 398 
Q 353 888 353 1747 
Q 353 2609 779 3096 
Q 1206 3584 1959 3584 
z
" transform="scale(0.015625)"/>
      <path id="DejaVuSans-6d" d="M 3328 2828 
Q 3544 3216 3844 3400 
Q 4144 3584 4550 3584 
Q 5097 3584 5394 3201 
Q 5691 2819 5691 2113 
L 5691 0 
L 5113 0 
L 5113 2094 
Q 5113 2597 4934 2840 
Q 4756 3084 4391 3084 
Q 3944 3084 3684 2787 
Q 3425 2491 3425 1978 
L 3425 0 
L 2847 0 
L 2847 2094 
Q 2847 2600 2669 2842 
Q 2491 3084 2119 3084 
Q 1678 3084 1418 2786 
Q 1159 2488 1159 1978 
L 1159 0 
L 581 0 
L 581 3500 
L 1159 3500 
L 1159 2956 
Q 1356 3278 1631 3431 
Q 1906 3584 2284 3584 
Q 2666 3584 2933 3390 
Q 3200 3197 3328 2828 
z
" transform="scale(0.015625)"/>
      <path id="DejaVuSans-20" transform="scale(0.015625)"/>
      <path id="DejaVuSans-54" d="M -19 4666 
L 3928 4666 
L 3928 4134 
L 2272 4134 
L 2272 0 
L 1638 0 
L 1638 4134 
L -19 4134 
L -19 4666 
z
" transform="scale(0.015625)"/>
      <path id="DejaVuSans-79" d="M 2059 -325 
Q 1816 -950 1584 -1140 
Q 1353 -1331 966 -1331 
L 506 -1331 
L 506 -850 
L 844 -850 
Q 1081 -850 1212 -737 
Q 1344 -625 1503 -206 
L 1606 56 
L 191 3500 
L 800 3500 
L 1894 763 
L 2988 3500 
L 3597 3500 
L 2059 -325 
z
" transform="scale(0.015625)"/>
      <path id="DejaVuSans-70" d="M 1159 525 
L 1159 -1331 
L 581 -1331 
L 581 3500 
L 1159 3500 
L 1159 2969 
Q 1341 3281 1617 3432 
Q 1894 3584 2278 3584 
Q 2916 3584 3314 3078 
Q 3713 2572 3713 1747 
Q 3713 922 3314 415 
Q 2916 -91 2278 -91 
Q 1894 -91 1617 61 
Q 1341 213 1159 525 
z
M 3116 1747 
Q 3116 2381 2855 2742 
Q 2594 3103 2138 3103 
Q 1681 3103 1420 2742 
Q 1159 2381 1159 1747 
Q 1159 1113 1420 752 
Q 1681 391 2138 391 
Q 2594 391 2855 752 
Q 3116 1113 3116 1747 
z
" transform="scale(0.015625)"/>
      <path id="DejaVuSans-65" d="M 3597 1894 
L 3597 1613 
L 953 1613 
Q 991 1019 1311 708 
Q 1631 397 2203 397 
Q 2534 397 2845 478 
Q 3156 559 3463 722 
L 3463 178 
Q 3153 47 2828 -22 
Q 2503 -91 2169 -91 
Q 1331 -91 842 396 
Q 353 884 353 1716 
Q 353 2575 817 3079 
Q 1281 3584 2069 3584 
Q 2775 3584 3186 3129 
Q 3597 2675 3597 1894 
z
M 3022 2063 
Q 3016 2534 2758 2815 
Q 2500 3097 2075 3097 
Q 1594 3097 1305 2825 
Q 1016 2553 972 2059 
L 3022 2063 
z
" transform="scale(0.015625)"/>
      <path id="DejaVuSans-43" d="M 4122 4306 
L 4122 3641 
Q 3803 3938 3442 4084 
Q 3081 4231 2675 4231 
Q 1875 4231 1450 3742 
Q 1025 3253 1025 2328 
Q 1025 1406 1450 917 
Q 1875 428 2675 428 
Q 3081 428 3442 575 
Q 3803 722 4122 1019 
L 4122 359 
Q 3791 134 3420 21 
Q 3050 -91 2638 -91 
Q 1578 -91 968 557 
Q 359 1206 359 2328 
Q 359 3453 968 4101 
Q 1578 4750 2638 4750 
Q 3056 4750 3426 4639 
Q 3797 4528 4122 4306 
z
" transform="scale(0.015625)"/>
      <path id="DejaVuSans-28" d="M 1984 4856 
Q 1566 4138 1362 3434 
Q 1159 2731 1159 2009 
Q 1159 1288 1364 580 
Q 1569 -128 1984 -844 
L 1484 -844 
Q 1016 -109 783 600 
Q 550 1309 550 2009 
Q 550 2706 781 3412 
Q 1013 4119 1484 4856 
L 1984 4856 
z
" transform="scale(0.015625)"/>
      <path id="DejaVuSans-6e" d="M 3513 2113 
L 3513 0 
L 2938 0 
L 2938 2094 
Q 2938 2591 2744 2837 
Q 2550 3084 2163 3084 
Q 1697 3084 1428 2787 
Q 1159 2491 1159 1978 
L 1159 0 
L 581 0 
L 581 3500 
L 1159 3500 
L 1159 2956 
Q 1366 3272 1645 3428 
Q 1925 3584 2291 3584 
Q 2894 3584 3203 3211 
Q 3513 2838 3513 2113 
z
" transform="scale(0.015625)"/>
      <path id="DejaVuSans-3d" d="M 678 2906 
L 4684 2906 
L 4684 2381 
L 678 2381 
L 678 2906 
z
M 678 1631 
L 4684 1631 
L 4684 1100 
L 678 1100 
L 678 1631 
z
" transform="scale(0.015625)"/>
      <path id="DejaVuSans-2c" d="M 750 794 
L 1409 794 
L 1409 256 
L 897 -744 
L 494 -744 
L 750 256 
L 750 794 
z
" transform="scale(0.015625)"/>
      <path id="DejaVuSans-61" d="M 2194 1759 
Q 1497 1759 1228 1600 
Q 959 1441 959 1056 
Q 959 750 1161 570 
Q 1363 391 1709 391 
Q 2188 391 2477 730 
Q 2766 1069 2766 1631 
L 2766 1759 
L 2194 1759 
z
M 3341 1997 
L 3341 0 
L 2766 0 
L 2766 531 
Q 2569 213 2275 61 
Q 1981 -91 1556 -91 
Q 1019 -91 701 211 
Q 384 513 384 1019 
Q 384 1609 779 1909 
Q 1175 2209 1959 2209 
L 2766 2209 
L 2766 2266 
Q 2766 2663 2505 2880 
Q 2244 3097 1772 3097 
Q 1472 3097 1187 3025 
Q 903 2953 641 2809 
L 641 3341 
Q 956 3463 1253 3523 
Q 1550 3584 1831 3584 
Q 2591 3584 2966 3190 
Q 3341 2797 3341 1997 
z
" transform="scale(0.015625)"/>
      <path id="DejaVuSans-51" d="M 2522 4238 
Q 1834 4238 1429 3725 
Q 1025 3213 1025 2328 
Q 1025 1447 1429 934 
Q 1834 422 2522 422 
Q 3209 422 3611 934 
Q 4013 1447 4013 2328 
Q 4013 3213 3611 3725 
Q 3209 4238 2522 4238 
z
M 3406 84 
L 4238 -825 
L 3475 -825 
L 2784 -78 
Q 2681 -84 2626 -87 
Q 2572 -91 2522 -91 
Q 1538 -91 948 567 
Q 359 1225 359 2328 
Q 359 3434 948 4092 
Q 1538 4750 2522 4750 
Q 3503 4750 4090 4092 
Q 4678 3434 4678 2328 
Q 4678 1516 4351 937 
Q 4025 359 3406 84 
z
" transform="scale(0.015625)"/>
      <path id="DejaVuSans-38" d="M 2034 2216 
Q 1584 2216 1326 1975 
Q 1069 1734 1069 1313 
Q 1069 891 1326 650 
Q 1584 409 2034 409 
Q 2484 409 2743 651 
Q 3003 894 3003 1313 
Q 3003 1734 2745 1975 
Q 2488 2216 2034 2216 
z
M 1403 2484 
Q 997 2584 770 2862 
Q 544 3141 544 3541 
Q 544 4100 942 4425 
Q 1341 4750 2034 4750 
Q 2731 4750 3128 4425 
Q 3525 4100 3525 3541 
Q 3525 3141 3298 2862 
Q 3072 2584 2669 2484 
Q 3125 2378 3379 2068 
Q 3634 1759 3634 1313 
Q 3634 634 3220 271 
Q 2806 -91 2034 -91 
Q 1263 -91 848 271 
Q 434 634 434 1313 
Q 434 1759 690 2068 
Q 947 2378 1403 2484 
z
M 1172 3481 
Q 1172 3119 1398 2916 
Q 1625 2713 2034 2713 
Q 2441 2713 2670 2916 
Q 2900 3119 2900 3481 
Q 2900 3844 2670 4047 
Q 2441 4250 2034 4250 
Q 1625 4250 1398 4047 
Q 1172 3844 1172 3481 
z
" transform="scale(0.015625)"/>
      <path id="DejaVuSans-34" d="M 2419 4116 
L 825 1625 
L 2419 1625 
L 2419 4116 
z
M 2253 4666 
L 3047 4666 
L 3047 1625 
L 3713 1625 
L 3713 1100 
L 3047 1100 
L 3047 0 
L 2419 0 
L 2419 1100 
L 313 1100 
L 313 1709 
L 2253 4666 
z
" transform="scale(0.015625)"/>
      <path id="DejaVuSans-29" d="M 513 4856 
L 1013 4856 
Q 1481 4119 1714 3412 
Q 1947 2706 1947 2009 
Q 1947 1309 1714 600 
Q 1481 -109 1013 -844 
L 513 -844 
Q 928 -128 1133 580 
Q 1338 1288 1338 2009 
Q 1338 2731 1133 3434 
Q 928 4138 513 4856 
z
" transform="scale(0.015625)"/>
     </defs>
     <use xlink:href="#DejaVuSans-41"/>
     <use xlink:href="#DejaVuSans-74" transform="translate(66.658203 0)"/>
     <use xlink:href="#DejaVuSans-6f" transform="translate(105.867188 0)"/>
     <use xlink:href="#DejaVuSans-6d" transform="translate(167.048828 0)"/>
     <use xlink:href="#DejaVuSans-20" transform="translate(264.460938 0)"/>
     <use xlink:href="#DejaVuSans-54" transform="translate(296.248047 0)"/>
     <use xlink:href="#DejaVuSans-79" transform="translate(341.707031 0)"/>
     <use xlink:href="#DejaVuSans-70" transform="translate(400.886719 0)"/>
     <use xlink:href="#DejaVuSans-65" transform="translate(464.363281 0)"/>
     <use xlink:href="#DejaVuSans-20" transform="translate(525.886719 0)"/>
     <use xlink:href="#DejaVuSans-43" transform="translate(557.673828 0)"/>
     <use xlink:href="#DejaVuSans-20" transform="translate(627.498047 0)"/>
     <use xlink:href="#DejaVuSans-28" transform="translate(659.285156 0)"/>
     <use xlink:href="#DejaVuSans-6e" transform="translate(698.298828 0)"/>
     <use xlink:href="#DejaVuSans-3d" transform="translate(761.677734 0)"/>
     <use xlink:href="#DejaVuSans-35" transform="translate(845.466797 0)"/>
     <use xlink:href="#DejaVuSans-31" transform="translate(909.089844 0)"/>
     <use xlink:href="#DejaVuSans-2c" transform="translate(972.712891 0)"/>
     <use xlink:href="#DejaVuSans-20" transform="translate(1004.5 0)"/>
     <use xlink:href="#DejaVuSans-6d" transform="translate(1036.287109 0)"/>
     <use xlink:href="#DejaVuSans-65" transform="translate(1133.699219 0)"/>
     <use xlink:href="#DejaVuSans-61" transform="translate(1195.222656 0)"/>
     <use xlink:href="#DejaVuSans-6e" transform="translate(1256.501953 0)"/>
     <use xlink:href="#DejaVuSans-20" transform="translate(1319.880859 0)"/>
     <use xlink:href="#DejaVuSans-51" transform="translate(1351.667969 0)"/>
     <use xlink:href="#DejaVuSans-3d" transform="translate(1430.378906 0)"/>
     <use xlink:href="#DejaVuSans-38" transform="translate(1514.167969 0)"/>
     <use xlink:href="#DejaVuSans-2e" transform="translate(1577.791016 0)"/>
     <use xlink:href="#DejaVuSans-37" transform="translate(1609.578125 0)"/>
     <use xlink:href="#DejaVuSans-34" transform="translate(1673.201172 0)"/>
     <use xlink:href="#DejaVuSans-29" transform="translate(1736.824219 0)"/>
    </g>
   </g>
  </g>
 </g>
 <defs>
  <clipPath id="p02fe58328f">
   <rect x="57.6" y="41.472" width="357.12" height="266.112"/>
  </clipPath>
 </defs>
</svg>
