<?xml version="1.0" encoding="utf-8" standalone="no"?>
<!DOCTYPE svg PUBLIC "-//W3C//DTD SVG 1.1//EN"
  "http://www.w3.org/Graphics/SVG/1.1/DTD/svg11.dtd">
<svg xmlns:xlink="http://www.w3.org/1999/xlink" width="460.8pt" height="345.6pt" viewBox="0 0 460.8 345.6" xmlns="http://www.w3.org/2000/svg" version="1.1">
 <metadata>
  <rdf:RDF xmlns:dc="http://purl.org/dc/elements/1.1/" xmlns:cc="http://creativecommons.org/ns#" xmlns:rdf="http://www.w3.org/1999/02/22-rdf-syntax-ns#">
   <cc:Work>
    <dc:type rdf:resource="http://purl.org/dc/dcmitype/StillImage"/>
    <dc:date>2025-12-10T14:10:49.182671</dc:date>
    <dc:format>image/svg+xml</dc:format>
    <dc:creator>
     <cc:Agent>
      <dc:title>Matplotlib v3.10.3, https://matplotlib.org/</dc:title>
     </cc:Agent>
    </dc:creator>
   </cc:Work>
  </rdf:RDF>
 </metadata>
 <defs>
  <style type="text/css">*{stroke-linejoin: round; stroke-linecap: butt}</style>
 </defs>
 <g id="figure_1">
  <g id="patch_1">
   <path d="M 0 345.6 
L 460.8 345.6 
L 460.8 0 
L 0 0 
z
" style="fill: #ffffff"/>
  </g>
  <g id="axes_1">
   <g id="patch_2">
    <path d="M 57.6 307.584 
L 414.72 307.584 
L 414.72 41.472 
L 57.6 41.472 
z
" style="fill: #ffffff"/>
   </g>
   <g id="matplotlib.axis_1">
    <g id="xtick_1">
     <g id="line2d_1">
      <defs>
       <path id="m31b17daae1" d="M 0 0 
L 0 3.5 
" style="stroke: #000000; stroke-width: 0.8"/>
      </defs>
      <g>
       <use xlink:href="#m31b17daae1" x="73.832727" y="307.584" style="stroke: #000000; stroke-width: 0.8"/>
      </g>
     </g>
     <g id="text_1">
      <!-- 0 -->
      <g transform="translate(69.060852 325.981656) scale(0.15 -0.15)">
       <defs>
        <path id="DejaVuSans-30" d="M 2034 4250 
Q 1547 4250 1301 3770 
Q 1056 3291 1056 2328 
Q 1056 1369 1301 889 
Q 1547 409 2034 409 
Q 2525 409 2770 889 
Q 3016 1369 3016 2328 
Q 3016 3291 2770 3770 
Q 2525 4250 2034 4250 
z
M 2034 4750 
Q 2819 4750 3233 4129 
Q 3647 3509 3647 2328 
Q 3647 1150 3233 529 
Q 2819 -91 2034 -91 
Q 1250 -91 836 529 
Q 422 1150 422 2328 
Q 422 3509 836 4129 
Q 1250 4750 2034 4750 
z
" transform="scale(0.015625)"/>
       </defs>
       <use xlink:href="#DejaVuSans-30"/>
      </g>
     </g>
    </g>
    <g id="xtick_2">
     <g id="line2d_2">
      <g>
       <use xlink:href="#m31b17daae1" x="154.996364" y="307.584" style="stroke: #000000; stroke-width: 0.8"/>
      </g>
     </g>
     <g id="text_2">
      <!-- 5 -->
      <g transform="translate(150.224489 325.981656) scale(0.15 -0.15)">
       <defs>
        <path id="DejaVuSans-35" d="M 691 4666 
L 3169 4666 
L 3169 4134 
L 1269 4134 
L 1269 2991 
Q 1406 3038 1543 3061 
Q 1681 3084 1819 3084 
Q 2600 3084 3056 2656 
Q 3513 2228 3513 1497 
Q 3513 744 3044 326 
Q 2575 -91 1722 -91 
Q 1428 -91 1123 -41 
Q 819 9 494 109 
L 494 744 
Q 775 591 1075 516 
Q 1375 441 1709 441 
Q 2250 441 2565 725 
Q 2881 1009 2881 1497 
Q 2881 1984 2565 2268 
Q 2250 2553 1709 2553 
Q 1456 2553 1204 2497 
Q 953 2441 691 2322 
L 691 4666 
z
" transform="scale(0.015625)"/>
       </defs>
       <use xlink:href="#DejaVuSans-35"/>
      </g>
     </g>
    </g>
    <g id="xtick_3">
     <g id="line2d_3">
      <g>
       <use xlink:href="#m31b17daae1" x="236.16" y="307.584" style="stroke: #000000; stroke-width: 0.8"/>
      </g>
     </g>
     <g id="text_3">
      <!-- 10 -->
      <g transform="translate(226.61625 325.981656) scale(0.15 -0.15)">
       <defs>
        <path id="DejaVuSans-31" d="M 794 531 
L 1825 531 
L 1825 4091 
L 703 3866 
L 703 4441 
L 1819 4666 
L 2450 4666 
L 2450 531 
L 3481 531 
L 3481 0 
L 794 0 
L 794 531 
z
" transform="scale(0.015625)"/>
       </defs>
       <use xlink:href="#DejaVuSans-31"/>
       <use xlink:href="#DejaVuSans-30" transform="translate(63.623047 0)"/>
      </g>
     </g>
    </g>
    <g id="xtick_4">
     <g id="line2d_4">
      <g>
       <use xlink:href="#m31b17daae1" x="317.323636" y="307.584" style="stroke: #000000; stroke-width: 0.8"/>
      </g>
     </g>
     <g id="text_4">
      <!-- 15 -->
      <g transform="translate(307.779886 325.981656) scale(0.15 -0.15)">
       <use xlink:href="#DejaVuSans-31"/>
       <use xlink:href="#DejaVuSans-35" transform="translate(63.623047 0)"/>
      </g>
     </g>
    </g>
    <g id="xtick_5">
     <g id="line2d_5">
      <g>
       <use xlink:href="#m31b17daae1" x="398.487273" y="307.584" style="stroke: #000000; stroke-width: 0.8"/>
      </g>
     </g>
     <g id="text_5">
      <!-- 20 -->
      <g transform="translate(388.943523 325.981656) scale(0.15 -0.15)">
       <defs>
        <path id="DejaVuSans-32" d="M 1228 531 
L 3431 531 
L 3431 0 
L 469 0 
L 469 531 
Q 828 903 1448 1529 
Q 2069 2156 2228 2338 
Q 2531 2678 2651 2914 
Q 2772 3150 2772 3378 
Q 2772 3750 2511 3984 
Q 2250 4219 1831 4219 
Q 1534 4219 1204 4116 
Q 875 4013 500 3803 
L 500 4441 
Q 881 4594 1212 4672 
Q 1544 4750 1819 4750 
Q 2544 4750 2975 4387 
Q 3406 4025 3406 3419 
Q 3406 3131 3298 2873 
Q 3191 2616 2906 2266 
Q 2828 2175 2409 1742 
Q 1991 1309 1228 531 
z
" transform="scale(0.015625)"/>
       </defs>
       <use xlink:href="#DejaVuSans-32"/>
       <use xlink:href="#DejaVuSans-30" transform="translate(63.623047 0)"/>
      </g>
     </g>
    </g>
   </g>
   <g id="matplotlib.axis_2">
    <g id="ytick_1">
     <g id="line2d_6">
      <defs>
       <path id="mc20c1a691b" d="M 0 0 
L -3.5 0 
" style="stroke: #000000; stroke-width: 0.8"/>
      </defs>
      <g>
       <use xlink:href="#mc20c1a691b" x="57.6" y="275.657126" style="stroke: #000000; stroke-width: 0.8"/>
      </g>
     </g>
     <g id="text_6">
      <!-- 6 -->
      <g transform="translate(41.05625 281.355954) scale(0.15 -0.15)">
       <defs>
        <path id="DejaVuSans-36" d="M 2113 2584 
Q 1688 2584 1439 2293 
Q 1191 2003 1191 1497 
Q 1191 994 1439 701 
Q 1688 409 2113 409 
Q 2538 409 2786 701 
Q 3034 994 3034 1497 
Q 3034 2003 2786 2293 
Q 2538 2584 2113 2584 
z
M 3366 4563 
L 3366 3988 
Q 3128 4100 2886 4159 
Q 2644 4219 2406 4219 
Q 1781 4219 1451 3797 
Q 1122 3375 1075 2522 
Q 1259 2794 1537 2939 
Q 1816 3084 2150 3084 
Q 2853 3084 3261 2657 
Q 3669 2231 3669 1497 
Q 3669 778 3244 343 
Q 2819 -91 2113 -91 
Q 1303 -91 875 529 
Q 447 1150 447 2328 
Q 447 3434 972 4092 
Q 1497 4750 2381 4750 
Q 2619 4750 2861 4703 
Q 3103 4656 3366 4563 
z
" transform="scale(0.015625)"/>
       </defs>
       <use xlink:href="#DejaVuSans-36"/>
      </g>
     </g>
    </g>
    <g id="ytick_2">
     <g id="line2d_7">
      <g>
       <use xlink:href="#mc20c1a691b" x="57.6" y="238.077371" style="stroke: #000000; stroke-width: 0.8"/>
      </g>
     </g>
     <g id="text_7">
      <!-- 8 -->
      <g transform="translate(41.05625 243.7762) scale(0.15 -0.15)">
       <defs>
        <path id="DejaVuSans-38" d="M 2034 2216 
Q 1584 2216 1326 1975 
Q 1069 1734 1069 1313 
Q 1069 891 1326 650 
Q 1584 409 2034 409 
Q 2484 409 2743 651 
Q 3003 894 3003 1313 
Q 3003 1734 2745 1975 
Q 2488 2216 2034 2216 
z
M 1403 2484 
Q 997 2584 770 2862 
Q 544 3141 544 3541 
Q 544 4100 942 4425 
Q 1341 4750 2034 4750 
Q 2731 4750 3128 4425 
Q 3525 4100 3525 3541 
Q 3525 3141 3298 2862 
Q 3072 2584 2669 2484 
Q 3125 2378 3379 2068 
Q 3634 1759 3634 1313 
Q 3634 634 3220 271 
Q 2806 -91 2034 -91 
Q 1263 -91 848 271 
Q 434 634 434 1313 
Q 434 1759 690 2068 
Q 947 2378 1403 2484 
z
M 1172 3481 
Q 1172 3119 1398 2916 
Q 1625 2713 2034 2713 
Q 2441 2713 2670 2916 
Q 2900 3119 2900 3481 
Q 2900 3844 2670 4047 
Q 2441 4250 2034 4250 
Q 1625 4250 1398 4047 
Q 1172 3844 1172 3481 
z
" transform="scale(0.015625)"/>
       </defs>
       <use xlink:href="#DejaVuSans-38"/>
      </g>
     </g>
    </g>
    <g id="ytick_3">
     <g id="line2d_8">
      <g>
       <use xlink:href="#mc20c1a691b" x="57.6" y="200.497617" style="stroke: #000000; stroke-width: 0.8"/>
      </g>
     </g>
     <g id="text_8">
      <!-- 10 -->
      <g transform="translate(31.5125 206.196445) scale(0.15 -0.15)">
       <use xlink:href="#DejaVuSans-31"/>
       <use xlink:href="#DejaVuSans-30" transform="translate(63.623047 0)"/>
      </g>
     </g>
    </g>
    <g id="ytick_4">
     <g id="line2d_9">
      <g>
       <use xlink:href="#mc20c1a691b" x="57.6" y="162.917863" style="stroke: #000000; stroke-width: 0.8"/>
      </g>
     </g>
     <g id="text_9">
      <!-- 12 -->
      <g transform="translate(31.5125 168.616691) scale(0.15 -0.15)">
       <use xlink:href="#DejaVuSans-31"/>
       <use xlink:href="#DejaVuSans-32" transform="translate(63.623047 0)"/>
      </g>
     </g>
    </g>
    <g id="ytick_5">
     <g id="line2d_10">
      <g>
       <use xlink:href="#mc20c1a691b" x="57.6" y="125.338109" style="stroke: #000000; stroke-width: 0.8"/>
      </g>
     </g>
     <g id="text_10">
      <!-- 14 -->
      <g transform="translate(31.5125 131.036937) scale(0.15 -0.15)">
       <defs>
        <path id="DejaVuSans-34" d="M 2419 4116 
L 825 1625 
L 2419 1625 
L 2419 4116 
z
M 2253 4666 
L 3047 4666 
L 3047 1625 
L 3713 1625 
L 3713 1100 
L 3047 1100 
L 3047 0 
L 2419 0 
L 2419 1100 
L 313 1100 
L 313 1709 
L 2253 4666 
z
" transform="scale(0.015625)"/>
       </defs>
       <use xlink:href="#DejaVuSans-31"/>
       <use xlink:href="#DejaVuSans-34" transform="translate(63.623047 0)"/>
      </g>
     </g>
    </g>
    <g id="ytick_6">
     <g id="line2d_11">
      <g>
       <use xlink:href="#mc20c1a691b" x="57.6" y="87.758354" style="stroke: #000000; stroke-width: 0.8"/>
      </g>
     </g>
     <g id="text_11">
      <!-- 16 -->
      <g transform="translate(31.5125 93.457182) scale(0.15 -0.15)">
       <use xlink:href="#DejaVuSans-31"/>
       <use xlink:href="#DejaVuSans-36" transform="translate(63.623047 0)"/>
      </g>
     </g>
    </g>
    <g id="ytick_7">
     <g id="line2d_12">
      <g>
       <use xlink:href="#mc20c1a691b" x="57.6" y="50.1786" style="stroke: #000000; stroke-width: 0.8"/>
      </g>
     </g>
     <g id="text_12">
      <!-- 18 -->
      <g transform="translate(31.5125 55.877428) scale(0.15 -0.15)">
       <use xlink:href="#DejaVuSans-31"/>
       <use xlink:href="#DejaVuSans-38" transform="translate(63.623047 0)"/>
      </g>
     </g>
    </g>
   </g>
   <g id="line2d_13">
    <path d="M 73.832727 242.450945 
L 90.065455 228.260505 
L 106.298182 240.600148 
L 122.530909 261.525485 
L 138.763636 291.189541 
L 154.996364 269.69516 
L 171.229091 224.398768 
L 187.461818 267.313112 
L 203.694545 224.958044 
L 219.927273 241.4586 
L 236.16 214.285551 
L 252.392727 219.443134 
L 268.625455 223.463423 
L 284.858182 193.84624 
L 301.090909 265.8566 
L 317.323636 277.850161 
L 333.556364 251.870686 
L 349.789091 205.678432 
L 366.021818 240.55761 
L 382.254545 233.947948 
L 398.487273 249.882192 
" clip-path="url(#p2103d12f45)" style="fill: none; stroke: #31688e; stroke-opacity: 0.5; stroke-width: 1.5; stroke-linecap: square"/>
   </g>
   <g id="line2d_14">
    <path d="M 73.832727 206.665832 
L 90.065455 233.052922 
L 106.298182 148.281839 
L 122.530909 247.729274 
L 138.763636 248.298853 
L 154.996364 257.568122 
L 171.229091 217.761497 
L 187.461818 200.795231 
L 203.694545 277.725837 
L 219.927273 227.698467 
L 236.16 258.198767 
L 252.392727 250.534526 
L 268.625455 278.665853 
L 284.858182 274.327609 
L 301.090909 252.862441 
L 317.323636 283.084884 
L 333.556364 248.886839 
L 349.789091 252.240558 
L 366.021818 257.559069 
L 382.254545 237.208389 
L 398.487273 277.772552 
" clip-path="url(#p2103d12f45)" style="fill: none; stroke: #31688e; stroke-opacity: 0.5; stroke-width: 1.5; stroke-linecap: square"/>
   </g>
   <g id="line2d_15">
    <path d="M 73.832727 262.560338 
L 90.065455 238.877514 
L 106.298182 265.702575 
L 122.530909 259.591491 
L 138.763636 270.682053 
L 154.996364 259.004592 
L 171.229091 249.481042 
L 187.461818 279.712147 
L 203.694545 254.285765 
L 219.927273 246.858201 
L 236.16 241.46338 
L 252.392727 268.550005 
L 268.625455 256.886309 
L 284.858182 243.070006 
L 301.090909 255.761435 
L 317.323636 264.168034 
L 333.556364 280.265749 
L 349.789091 246.574356 
L 366.021818 287.389029 
L 382.254545 248.060848 
L 398.487273 243.386557 
" clip-path="url(#p2103d12f45)" style="fill: none; stroke: #31688e; stroke-opacity: 0.5; stroke-width: 1.5; stroke-linecap: square"/>
   </g>
   <g id="line2d_16">
    <path d="M 73.832727 253.681132 
L 90.065455 251.184966 
L 106.298182 255.414729 
L 122.530909 245.192589 
L 138.763636 261.849058 
L 154.996364 253.832636 
L 171.229091 231.708022 
L 187.461818 207.709094 
L 203.694545 275.577992 
L 219.927273 239.460558 
L 236.16 218.451691 
L 252.392727 136.942878 
L 268.625455 241.424307 
L 284.858182 208.26782 
L 301.090909 144.253642 
L 317.323636 206.236447 
L 333.556364 131.716544 
L 349.789091 184.03616 
L 366.021818 146.372924 
L 382.254545 127.04873 
L 398.487273 209.621534 
" clip-path="url(#p2103d12f45)" style="fill: none; stroke: #31688e; stroke-opacity: 0.5; stroke-width: 1.5; stroke-linecap: square"/>
   </g>
   <g id="line2d_17">
    <path d="M 73.832727 188.494296 
L 90.065455 142.884516 
L 106.298182 143.499086 
L 122.530909 140.86768 
L 138.763636 169.193719 
L 154.996364 150.549346 
L 171.229091 175.612252 
L 187.461818 75.318095 
L 203.694545 176.957303 
L 219.927273 218.110373 
L 236.16 217.692714 
L 252.392727 197.46609 
L 268.625455 211.689354 
L 284.858182 238.670604 
L 301.090909 214.868862 
L 317.323636 209.07933 
L 333.556364 220.464048 
L 349.789091 201.550143 
L 366.021818 221.073362 
L 382.254545 215.893157 
L 398.487273 218.781543 
" clip-path="url(#p2103d12f45)" style="fill: none; stroke: #31688e; stroke-opacity: 0.5; stroke-width: 1.5; stroke-linecap: square"/>
   </g>
   <g id="line2d_18">
    <path d="M 73.832727 139.270087 
L 90.065455 57.945917 
L 106.298182 132.125292 
L 122.530909 132.428818 
L 138.763636 146.718599 
L 154.996364 164.419644 
L 171.229091 174.143716 
L 187.461818 231.412063 
L 203.694545 176.908947 
L 219.927273 196.261663 
L 236.16 262.185784 
L 252.392727 249.33533 
L 268.625455 278.323154 
L 284.858182 254.975989 
L 301.090909 291.07077 
L 317.323636 237.195738 
L 333.556364 229.196451 
L 349.789091 218.501585 
L 366.021818 275.719397 
L 382.254545 276.664588 
L 398.487273 209.133076 
" clip-path="url(#p2103d12f45)" style="fill: none; stroke: #31688e; stroke-opacity: 0.5; stroke-width: 1.5; stroke-linecap: square"/>
   </g>
   <g id="line2d_19">
    <path d="M 73.832727 209.983029 
L 90.065455 217.249097 
L 106.298182 237.361376 
L 122.530909 248.949354 
L 138.763636 246.441566 
L 154.996364 283.297813 
L 171.229091 212.558213 
L 187.461818 291.563919 
L 203.694545 233.011721 
L 219.927273 242.378742 
L 236.16 278.549732 
L 252.392727 259.206053 
L 268.625455 267.767456 
L 284.858182 251.978816 
L 301.090909 284.10412 
L 317.323636 266.944268 
L 333.556364 190.789949 
L 349.789091 236.387696 
L 366.021818 260.221694 
L 382.254545 221.055685 
L 398.487273 256.472473 
" clip-path="url(#p2103d12f45)" style="fill: none; stroke: #31688e; stroke-opacity: 0.5; stroke-width: 1.5; stroke-linecap: square"/>
   </g>
   <g id="line2d_20">
    <path d="M 73.832727 243.075249 
L 90.065455 206.578632 
L 106.298182 240.374095 
L 122.530909 265.467909 
L 138.763636 224.2399 
L 154.996364 271.215485 
L 171.229091 252.195685 
L 187.461818 256.546585 
L 203.694545 140.055305 
L 219.927273 241.667871 
L 236.16 198.392432 
L 252.392727 247.697875 
L 268.625455 193.16842 
L 284.858182 245.806112 
L 301.090909 241.274862 
L 317.323636 233.907412 
L 333.556364 224.810469 
L 349.789091 235.559315 
L 366.021818 242.818079 
L 382.254545 243.089549 
L 398.487273 228.034965 
" clip-path="url(#p2103d12f45)" style="fill: none; stroke: #31688e; stroke-opacity: 0.5; stroke-width: 1.5; stroke-linecap: square"/>
   </g>
   <g id="line2d_21">
    <path d="M 73.832727 158.736262 
L 90.065455 183.547813 
L 106.298182 216.204535 
L 122.530909 233.175446 
L 138.763636 225.493735 
L 154.996364 261.393596 
L 171.229091 252.372526 
L 187.461818 244.27405 
L 203.694545 260.053694 
L 219.927273 280.395276 
L 236.16 241.826058 
L 252.392727 259.805165 
L 268.625455 277.153424 
L 284.858182 234.298055 
L 301.090909 216.342032 
L 317.323636 265.177234 
L 333.556364 294.601139 
L 349.789091 283.814487 
L 366.021818 244.994731 
L 382.254545 255.658167 
L 398.487273 165.679531 
" clip-path="url(#p2103d12f45)" style="fill: none; stroke: #31688e; stroke-opacity: 0.5; stroke-width: 1.5; stroke-linecap: square"/>
   </g>
   <g id="line2d_22">
    <path d="M 73.832727 88.634273 
L 90.065455 158.947888 
L 106.298182 166.499989 
L 122.530909 184.800941 
L 138.763636 139.303579 
L 154.996364 210.918909 
L 171.229091 213.486244 
L 187.461818 174.210407 
L 203.694545 173.573878 
L 219.927273 149.741 
L 236.16 177.09711 
L 252.392727 171.650458 
L 268.625455 141.411908 
L 284.858182 159.264897 
L 301.090909 165.088042 
L 317.323636 133.831977 
L 333.556364 148.025551 
L 349.789091 179.702868 
L 366.021818 191.093595 
L 382.254545 190.054461 
L 398.487273 155.465328 
" clip-path="url(#p2103d12f45)" style="fill: none; stroke: #31688e; stroke-opacity: 0.5; stroke-width: 1.5; stroke-linecap: square"/>
   </g>
   <g id="line2d_23">
    <path d="M 73.832727 232.868756 
L 90.065455 242.642694 
L 106.298182 243.435759 
L 122.530909 240.329669 
L 138.763636 257.962481 
L 154.996364 204.300284 
L 171.229091 255.760779 
L 187.461818 254.646983 
L 203.694545 228.806314 
L 219.927273 252.832757 
L 236.16 242.428269 
L 252.392727 222.691795 
L 268.625455 259.774107 
L 284.858182 233.09803 
L 301.090909 267.547043 
L 317.323636 232.558033 
L 333.556364 264.78988 
L 349.789091 237.39114 
L 366.021818 219.30757 
L 382.254545 219.710463 
L 398.487273 233.093795 
" clip-path="url(#p2103d12f45)" style="fill: none; stroke: #31688e; stroke-opacity: 0.5; stroke-width: 1.5; stroke-linecap: square"/>
   </g>
   <g id="line2d_24">
    <path d="M 73.832727 158.696565 
L 90.065455 247.120504 
L 106.298182 260.358333 
L 122.530909 269.767248 
L 138.763636 276.070124 
L 154.996364 265.025633 
L 171.229091 263.637348 
L 187.461818 269.822044 
L 203.694545 258.532958 
L 219.927273 282.403631 
L 236.16 256.448034 
L 252.392727 281.658432 
L 268.625455 231.724776 
L 284.858182 258.70292 
L 301.090909 199.273725 
L 317.323636 235.645989 
L 333.556364 235.460419 
L 349.789091 233.521136 
L 366.021818 258.532651 
L 382.254545 173.498195 
L 398.487273 255.572733 
" clip-path="url(#p2103d12f45)" style="fill: none; stroke: #31688e; stroke-opacity: 0.5; stroke-width: 1.5; stroke-linecap: square"/>
   </g>
   <g id="line2d_25">
    <path d="M 73.832727 259.425866 
L 90.065455 227.4684 
L 106.298182 240.922916 
L 122.530909 196.609267 
L 138.763636 286.410188 
L 154.996364 237.461302 
L 171.229091 241.956914 
L 187.461818 261.481968 
L 203.694545 290.334299 
L 219.927273 253.941695 
L 236.16 284.037515 
L 252.392727 243.906627 
L 268.625455 202.840356 
L 284.858182 257.10156 
L 301.090909 259.458258 
L 317.323636 155.742305 
L 333.556364 249.055555 
L 349.789091 215.37481 
L 366.021818 275.691267 
L 382.254545 278.869527 
L 398.487273 264.243344 
" clip-path="url(#p2103d12f45)" style="fill: none; stroke: #31688e; stroke-opacity: 0.5; stroke-width: 1.5; stroke-linecap: square"/>
   </g>
   <g id="line2d_26">
    <path d="M 73.832727 239.136116 
L 90.065455 209.761464 
L 106.298182 257.253149 
L 122.530909 221.492196 
L 138.763636 268.595116 
L 154.996364 252.1593 
L 171.229091 212.828383 
L 187.461818 232.37845 
L 203.694545 198.861084 
L 219.927273 224.696151 
L 236.16 254.11559 
L 252.392727 228.883971 
L 268.625455 239.68516 
L 284.858182 237.250041 
L 301.090909 208.027393 
L 317.323636 205.409287 
L 333.556364 200.930853 
L 349.789091 249.693212 
L 366.021818 206.933118 
L 382.254545 251.642849 
L 398.487273 150.666091 
" clip-path="url(#p2103d12f45)" style="fill: none; stroke: #31688e; stroke-opacity: 0.5; stroke-width: 1.5; stroke-linecap: square"/>
   </g>
   <g id="line2d_27">
    <path d="M 73.832727 183.572336 
L 90.065455 181.219511 
L 106.298182 203.441785 
L 122.530909 223.944853 
L 138.763636 152.107756 
L 154.996364 156.12328 
L 171.229091 108.064837 
L 187.461818 156.872366 
L 203.694545 220.419909 
L 219.927273 183.00323 
L 236.16 163.532046 
L 252.392727 165.806315 
L 268.625455 191.913998 
L 284.858182 181.590777 
L 301.090909 192.927533 
L 317.323636 181.940977 
L 333.556364 189.80273 
L 349.789091 160.473882 
L 366.021818 217.232586 
L 382.254545 200.622749 
L 398.487273 227.892954 
" clip-path="url(#p2103d12f45)" style="fill: none; stroke: #31688e; stroke-opacity: 0.5; stroke-width: 1.5; stroke-linecap: square"/>
   </g>
   <g id="line2d_28">
    <path d="M 73.832727 138.022177 
L 90.065455 110.807496 
L 106.298182 148.286353 
L 122.530909 156.478879 
L 138.763636 134.03768 
L 154.996364 186.991685 
L 171.229091 166.754473 
L 187.461818 227.515965 
L 203.694545 250.462091 
L 219.927273 243.285709 
L 236.16 226.585019 
L 252.392727 223.732579 
L 268.625455 223.248422 
L 284.858182 228.17734 
L 301.090909 232.624253 
L 317.323636 242.485224 
L 333.556364 245.563207 
L 349.789091 265.171204 
L 366.021818 265.928129 
L 382.254545 244.764405 
L 398.487273 255.084946 
" clip-path="url(#p2103d12f45)" style="fill: none; stroke: #31688e; stroke-opacity: 0.5; stroke-width: 1.5; stroke-linecap: square"/>
   </g>
   <g id="line2d_29">
    <path d="M 73.832727 225.180289 
L 90.065455 249.253617 
L 106.298182 253.634471 
L 122.530909 272.821558 
L 138.763636 212.029592 
L 154.996364 264.435198 
L 171.229091 259.349489 
L 187.461818 271.272995 
L 203.694545 272.690693 
L 219.927273 274.13219 
L 236.16 270.783788 
L 252.392727 262.321241 
L 268.625455 276.907578 
L 284.858182 267.47855 
L 301.090909 259.437934 
L 317.323636 279.570517 
L 333.556364 268.477604 
L 349.789091 263.421323 
L 366.021818 263.342906 
L 382.254545 262.405029 
L 398.487273 274.675598 
" clip-path="url(#p2103d12f45)" style="fill: none; stroke: #31688e; stroke-opacity: 0.5; stroke-width: 1.5; stroke-linecap: square"/>
   </g>
   <g id="line2d_30">
    <path d="M 73.832727 143.065627 
L 90.065455 164.662657 
L 106.298182 153.188399 
L 122.530909 183.329253 
L 138.763636 135.900896 
L 154.996364 186.13568 
L 171.229091 190.645537 
L 187.461818 148.861227 
L 203.694545 191.947703 
L 219.927273 210.935477 
L 236.16 212.185047 
L 252.392727 180.583874 
L 268.625455 204.805402 
L 284.858182 207.91189 
L 301.090909 196.120061 
L 317.323636 204.936725 
L 333.556364 230.669354 
L 349.789091 207.970532 
L 366.021818 210.277536 
L 382.254545 213.127788 
L 398.487273 209.652717 
" clip-path="url(#p2103d12f45)" style="fill: none; stroke: #31688e; stroke-opacity: 0.5; stroke-width: 1.5; stroke-linecap: square"/>
   </g>
   <g id="line2d_31">
    <path d="M 73.832727 137.382471 
L 90.065455 162.606891 
L 106.298182 157.851759 
L 122.530909 201.871303 
L 138.763636 196.701222 
L 154.996364 234.876428 
L 171.229091 206.309752 
L 187.461818 155.309041 
L 203.694545 254.790083 
L 219.927273 265.163885 
L 236.16 229.950434 
L 252.392727 227.009998 
L 268.625455 257.666029 
L 284.858182 280.266171 
L 301.090909 269.233945 
L 317.323636 260.976185 
L 333.556364 274.272239 
L 349.789091 270.927417 
L 366.021818 261.97668 
L 382.254545 242.351385 
L 398.487273 264.851622 
" clip-path="url(#p2103d12f45)" style="fill: none; stroke: #31688e; stroke-opacity: 0.5; stroke-width: 1.5; stroke-linecap: square"/>
   </g>
   <g id="line2d_32">
    <path d="M 73.832727 268.401312 
L 90.065455 249.191276 
L 106.298182 253.580905 
L 122.530909 258.581562 
L 138.763636 233.216684 
L 154.996364 272.289782 
L 171.229091 238.967757 
L 187.461818 245.422488 
L 203.694545 267.503524 
L 219.927273 247.987478 
L 236.16 214.906477 
L 252.392727 248.013356 
L 268.625455 243.753835 
L 284.858182 259.512825 
L 301.090909 265.825405 
L 317.323636 261.61207 
L 333.556364 239.549854 
L 349.789091 240.470527 
L 366.021818 227.411114 
L 382.254545 240.68245 
L 398.487273 239.927498 
" clip-path="url(#p2103d12f45)" style="fill: none; stroke: #31688e; stroke-opacity: 0.5; stroke-width: 1.5; stroke-linecap: square"/>
   </g>
   <g id="line2d_33">
    <path d="M 73.832727 192.606451 
L 90.065455 217.362398 
L 106.298182 258.076731 
L 122.530909 205.125892 
L 138.763636 248.418634 
L 154.996364 229.854384 
L 171.229091 191.933435 
L 187.461818 231.341034 
L 203.694545 236.725715 
L 219.927273 265.256744 
L 236.16 257.447326 
L 252.392727 251.096342 
L 268.625455 253.498691 
L 284.858182 245.179115 
L 301.090909 247.827811 
L 317.323636 275.636183 
L 333.556364 212.540454 
L 349.789091 227.257851 
L 366.021818 243.037251 
L 382.254545 253.817385 
L 398.487273 255.62392 
" clip-path="url(#p2103d12f45)" style="fill: none; stroke: #31688e; stroke-opacity: 0.5; stroke-width: 1.5; stroke-linecap: square"/>
   </g>
   <g id="line2d_34">
    <path d="M 73.832727 140.445243 
L 90.065455 154.824232 
L 106.298182 157.073857 
L 122.530909 158.966685 
L 138.763636 112.691862 
L 154.996364 198.207527 
L 171.229091 129.473732 
L 187.461818 148.178189 
L 203.694545 72.569481 
L 219.927273 167.897026 
L 236.16 216.398264 
L 252.392727 178.800593 
L 268.625455 173.001529 
L 284.858182 162.631796 
L 301.090909 141.147262 
L 317.323636 214.189523 
L 333.556364 190.049365 
L 349.789091 199.943139 
L 366.021818 178.798773 
L 382.254545 254.354107 
L 398.487273 196.686155 
" clip-path="url(#p2103d12f45)" style="fill: none; stroke: #31688e; stroke-opacity: 0.5; stroke-width: 1.5; stroke-linecap: square"/>
   </g>
   <g id="line2d_35">
    <path d="M 73.832727 253.122221 
L 90.065455 218.438323 
L 106.298182 264.690991 
L 122.530909 255.011478 
L 138.763636 206.718605 
L 154.996364 262.824424 
L 171.229091 283.961127 
L 187.461818 269.544693 
L 203.694545 238.396183 
L 219.927273 282.399009 
L 236.16 243.221009 
L 252.392727 270.531008 
L 268.625455 282.683929 
L 284.858182 259.497608 
L 301.090909 274.568626 
L 317.323636 280.48285 
L 333.556364 275.445609 
L 349.789091 255.607938 
L 366.021818 268.177987 
L 382.254545 273.955174 
L 398.487273 258.775247 
" clip-path="url(#p2103d12f45)" style="fill: none; stroke: #31688e; stroke-opacity: 0.5; stroke-width: 1.5; stroke-linecap: square"/>
   </g>
   <g id="line2d_36">
    <path d="M 73.832727 100.64025 
L 90.065455 178.355913 
L 106.298182 165.12998 
L 122.530909 184.333784 
L 138.763636 198.348688 
L 154.996364 192.809476 
L 171.229091 185.792416 
L 187.461818 207.065306 
L 203.694545 165.896076 
L 219.927273 177.092386 
L 236.16 180.350372 
L 252.392727 191.559677 
L 268.625455 161.923873 
L 284.858182 169.2783 
L 301.090909 170.463445 
L 317.323636 184.308098 
L 333.556364 200.162795 
L 349.789091 198.772653 
L 366.021818 182.189789 
L 382.254545 188.855389 
L 398.487273 184.773157 
" clip-path="url(#p2103d12f45)" style="fill: none; stroke: #31688e; stroke-opacity: 0.5; stroke-width: 1.5; stroke-linecap: square"/>
   </g>
   <g id="line2d_37">
    <path d="M 73.832727 104.648511 
L 90.065455 183.452914 
L 106.298182 173.533776 
L 122.530909 166.043314 
L 138.763636 239.416887 
L 154.996364 213.863416 
L 171.229091 258.666648 
L 187.461818 238.493982 
L 203.694545 200.593796 
L 219.927273 227.135007 
L 236.16 212.541723 
L 252.392727 236.052049 
L 268.625455 230.186261 
L 284.858182 216.855525 
L 301.090909 224.146657 
L 317.323636 262.257637 
L 333.556364 262.967306 
L 349.789091 269.883788 
L 366.021818 221.343627 
L 382.254545 267.953256 
L 398.487273 231.865208 
" clip-path="url(#p2103d12f45)" style="fill: none; stroke: #31688e; stroke-opacity: 0.5; stroke-width: 1.5; stroke-linecap: square"/>
   </g>
   <g id="line2d_38">
    <path d="M 73.832727 215.7259 
L 90.065455 167.466298 
L 106.298182 202.097529 
L 122.530909 201.068877 
L 138.763636 253.707946 
L 154.996364 238.368823 
L 171.229091 203.060745 
L 187.461818 164.184764 
L 203.694545 274.945431 
L 219.927273 246.787594 
L 236.16 259.257383 
L 252.392727 267.336643 
L 268.625455 272.295005 
L 284.858182 239.114638 
L 301.090909 273.245878 
L 317.323636 269.959902 
L 333.556364 254.11819 
L 349.789091 244.658556 
L 366.021818 258.066658 
L 382.254545 263.746543 
L 398.487273 249.88179 
" clip-path="url(#p2103d12f45)" style="fill: none; stroke: #31688e; stroke-opacity: 0.5; stroke-width: 1.5; stroke-linecap: square"/>
   </g>
   <g id="line2d_39">
    <path d="M 73.832727 185.688952 
L 90.065455 239.414072 
L 106.298182 247.224297 
L 122.530909 250.711411 
L 138.763636 225.317881 
L 154.996364 238.604289 
L 171.229091 242.349087 
L 187.461818 225.384262 
L 203.694545 169.562683 
L 219.927273 233.882329 
L 236.16 188.346769 
L 252.392727 203.985797 
L 268.625455 178.216699 
L 284.858182 157.617455 
L 301.090909 195.25223 
L 317.323636 140.436699 
L 333.556364 155.855849 
L 349.789091 171.555778 
L 366.021818 178.016379 
L 382.254545 174.478108 
L 398.487273 145.441632 
" clip-path="url(#p2103d12f45)" style="fill: none; stroke: #31688e; stroke-opacity: 0.5; stroke-width: 1.5; stroke-linecap: square"/>
   </g>
   <g id="line2d_40">
    <path d="M 73.832727 88.656273 
L 90.065455 53.568 
L 106.298182 128.214899 
L 122.530909 96.74515 
L 138.763636 101.30409 
L 154.996364 166.423545 
L 171.229091 150.326968 
L 187.461818 175.487597 
L 203.694545 170.146495 
L 219.927273 225.02795 
L 236.16 163.916597 
L 252.392727 167.96246 
L 268.625455 214.819896 
L 284.858182 234.510172 
L 301.090909 233.028148 
L 317.323636 220.955763 
L 333.556364 211.803442 
L 349.789091 157.922126 
L 366.021818 224.782448 
L 382.254545 234.992188 
L 398.487273 207.431026 
" clip-path="url(#p2103d12f45)" style="fill: none; stroke: #31688e; stroke-opacity: 0.5; stroke-width: 1.5; stroke-linecap: square"/>
   </g>
   <g id="line2d_41">
    <path d="M 73.832727 96.780267 
L 90.065455 190.089943 
L 106.298182 215.165652 
L 122.530909 201.096333 
L 138.763636 187.57922 
L 154.996364 209.960562 
L 171.229091 216.145401 
L 187.461818 230.474449 
L 203.694545 242.253427 
L 219.927273 229.261475 
L 236.16 217.081325 
L 252.392727 229.191247 
L 268.625455 263.630593 
L 284.858182 234.174745 
L 301.090909 261.838062 
L 317.323636 229.6744 
L 333.556364 249.117629 
L 349.789091 227.769543 
L 366.021818 203.582246 
L 382.254545 218.642085 
L 398.487273 223.978776 
" clip-path="url(#p2103d12f45)" style="fill: none; stroke: #31688e; stroke-opacity: 0.5; stroke-width: 1.5; stroke-linecap: square"/>
   </g>
   <g id="line2d_42">
    <path d="M 73.832727 157.266785 
L 90.065455 178.711251 
L 106.298182 202.977897 
L 122.530909 178.104738 
L 138.763636 202.322745 
L 154.996364 172.360705 
L 171.229091 181.648919 
L 187.461818 197.310135 
L 203.694545 174.616017 
L 219.927273 191.79283 
L 236.16 182.684048 
L 252.392727 168.240266 
L 268.625455 189.742366 
L 284.858182 201.721616 
L 301.090909 170.751056 
L 317.323636 191.388806 
L 333.556364 159.384973 
L 349.789091 170.826428 
L 366.021818 214.341674 
L 382.254545 213.58026 
L 398.487273 165.252243 
" clip-path="url(#p2103d12f45)" style="fill: none; stroke: #31688e; stroke-opacity: 0.5; stroke-width: 1.5; stroke-linecap: square"/>
   </g>
   <g id="line2d_43">
    <path d="M 73.832727 215.612112 
L 90.065455 217.014797 
L 106.298182 228.562597 
L 122.530909 239.358015 
L 138.763636 252.986026 
L 154.996364 254.082998 
L 171.229091 260.618784 
L 187.461818 257.239664 
L 203.694545 247.736321 
L 219.927273 241.686036 
L 236.16 242.369879 
L 252.392727 226.303177 
L 268.625455 234.406297 
L 284.858182 226.171914 
L 301.090909 262.251551 
L 317.323636 202.310811 
L 333.556364 199.438951 
L 349.789091 203.591406 
L 366.021818 238.205262 
L 382.254545 205.018531 
L 398.487273 214.193421 
" clip-path="url(#p2103d12f45)" style="fill: none; stroke: #31688e; stroke-opacity: 0.5; stroke-width: 1.5; stroke-linecap: square"/>
   </g>
   <g id="line2d_44">
    <path d="M 73.832727 255.607266 
L 90.065455 249.080289 
L 106.298182 244.436744 
L 122.530909 262.506546 
L 138.763636 259.988834 
L 154.996364 266.828454 
L 171.229091 244.690726 
L 187.461818 238.297099 
L 203.694545 221.582663 
L 219.927273 219.480386 
L 236.16 236.316475 
L 252.392727 242.688772 
L 268.625455 194.521808 
L 284.858182 228.678193 
L 301.090909 228.036894 
L 317.323636 257.645205 
L 333.556364 240.279242 
L 349.789091 250.350771 
L 366.021818 233.377928 
L 382.254545 201.559844 
L 398.487273 249.499279 
" clip-path="url(#p2103d12f45)" style="fill: none; stroke: #31688e; stroke-opacity: 0.5; stroke-width: 1.5; stroke-linecap: square"/>
   </g>
   <g id="line2d_45">
    <path d="M 73.832727 229.19487 
L 90.065455 240.619021 
L 106.298182 253.131286 
L 122.530909 251.542124 
L 138.763636 240.788083 
L 154.996364 258.186687 
L 171.229091 201.508982 
L 187.461818 193.726622 
L 203.694545 216.458482 
L 219.927273 218.840667 
L 236.16 183.099646 
L 252.392727 205.410372 
L 268.625455 230.251819 
L 284.858182 164.906761 
L 301.090909 206.806782 
L 317.323636 215.877496 
L 333.556364 206.004337 
L 349.789091 207.248273 
L 366.021818 207.266721 
L 382.254545 191.716891 
L 398.487273 215.631094 
" clip-path="url(#p2103d12f45)" style="fill: none; stroke: #31688e; stroke-opacity: 0.5; stroke-width: 1.5; stroke-linecap: square"/>
   </g>
   <g id="line2d_46">
    <path d="M 73.832727 141.856497 
L 90.065455 129.823479 
L 106.298182 136.98201 
L 122.530909 113.473698 
L 138.763636 171.316208 
L 154.996364 182.992777 
L 171.229091 184.95532 
L 187.461818 151.77355 
L 203.694545 243.898536 
L 219.927273 215.830209 
L 236.16 238.776863 
L 252.392727 246.41553 
L 268.625455 262.516527 
L 284.858182 271.995121 
L 301.090909 264.431269 
L 317.323636 268.59354 
L 333.556364 227.866518 
L 349.789091 250.174849 
L 366.021818 256.936496 
L 382.254545 261.385933 
L 398.487273 273.664322 
" clip-path="url(#p2103d12f45)" style="fill: none; stroke: #31688e; stroke-opacity: 0.5; stroke-width: 1.5; stroke-linecap: square"/>
   </g>
   <g id="line2d_47">
    <path d="M 73.832727 233.738338 
L 90.065455 244.362346 
L 106.298182 237.880257 
L 122.530909 225.121622 
L 138.763636 248.696146 
L 154.996364 228.332704 
L 171.229091 201.795104 
L 187.461818 202.243853 
L 203.694545 216.073782 
L 219.927273 249.570177 
L 236.16 261.03336 
L 252.392727 245.906888 
L 268.625455 261.512748 
L 284.858182 275.137158 
L 301.090909 238.638447 
L 317.323636 272.236936 
L 333.556364 269.424129 
L 349.789091 260.389149 
L 366.021818 236.675518 
L 382.254545 249.965335 
L 398.487273 272.687376 
" clip-path="url(#p2103d12f45)" style="fill: none; stroke: #31688e; stroke-opacity: 0.5; stroke-width: 1.5; stroke-linecap: square"/>
   </g>
   <g id="line2d_48">
    <path d="M 73.832727 176.994183 
L 90.065455 153.855459 
L 106.298182 160.461314 
L 122.530909 177.529151 
L 138.763636 175.70075 
L 154.996364 192.55097 
L 171.229091 180.044446 
L 187.461818 188.322408 
L 203.694545 176.772721 
L 219.927273 165.229457 
L 236.16 194.779379 
L 252.392727 191.058928 
L 268.625455 186.285638 
L 284.858182 221.221917 
L 301.090909 188.802465 
L 317.323636 183.384346 
L 333.556364 181.43261 
L 349.789091 202.398172 
L 366.021818 201.146823 
L 382.254545 191.411407 
L 398.487273 187.516387 
" clip-path="url(#p2103d12f45)" style="fill: none; stroke: #31688e; stroke-opacity: 0.5; stroke-width: 1.5; stroke-linecap: square"/>
   </g>
   <g id="line2d_49">
    <path d="M 73.832727 162.03799 
L 90.065455 162.089739 
L 106.298182 151.207738 
L 122.530909 171.731517 
L 138.763636 190.467624 
L 154.996364 195.520513 
L 171.229091 188.591219 
L 187.461818 231.333834 
L 203.694545 236.101739 
L 219.927273 212.05621 
L 236.16 222.681755 
L 252.392727 248.302489 
L 268.625455 226.626137 
L 284.858182 229.254534 
L 301.090909 258.17203 
L 317.323636 233.504394 
L 333.556364 201.890166 
L 349.789091 259.785312 
L 366.021818 252.758878 
L 382.254545 254.178677 
L 398.487273 212.597775 
" clip-path="url(#p2103d12f45)" style="fill: none; stroke: #31688e; stroke-opacity: 0.5; stroke-width: 1.5; stroke-linecap: square"/>
   </g>
   <g id="line2d_50">
    <path d="M 73.832727 228.782901 
L 90.065455 201.887922 
L 106.298182 240.944952 
L 122.530909 236.810687 
L 138.763636 211.581837 
L 154.996364 225.151377 
L 171.229091 191.284238 
L 187.461818 224.53834 
L 203.694545 235.642702 
L 219.927273 223.422169 
L 236.16 237.434804 
L 252.392727 224.218499 
L 268.625455 237.516057 
L 284.858182 222.594983 
L 301.090909 228.84278 
L 317.323636 233.300668 
L 333.556364 214.229604 
L 349.789091 235.968412 
L 366.021818 227.558359 
L 382.254545 240.467572 
L 398.487273 228.062566 
" clip-path="url(#p2103d12f45)" style="fill: none; stroke: #31688e; stroke-opacity: 0.5; stroke-width: 1.5; stroke-linecap: square"/>
   </g>
   <g id="line2d_51">
    <path d="M 73.832727 231.088199 
L 90.065455 232.903798 
L 106.298182 245.257058 
L 122.530909 252.51471 
L 138.763636 229.652854 
L 154.996364 253.894792 
L 171.229091 239.390156 
L 187.461818 234.594747 
L 203.694545 226.899788 
L 219.927273 217.755283 
L 236.16 255.690128 
L 252.392727 221.001774 
L 268.625455 225.274412 
L 284.858182 218.230387 
L 301.090909 223.287339 
L 317.323636 218.455942 
L 333.556364 204.657508 
L 349.789091 228.487106 
L 366.021818 247.098983 
L 382.254545 206.590483 
L 398.487273 218.160363 
" clip-path="url(#p2103d12f45)" style="fill: none; stroke: #31688e; stroke-opacity: 0.5; stroke-width: 1.5; stroke-linecap: square"/>
   </g>
   <g id="line2d_52">
    <path d="M 73.832727 159.793891 
L 90.065455 221.25758 
L 106.298182 198.187936 
L 122.530909 185.761556 
L 138.763636 220.815841 
L 154.996364 223.880027 
L 171.229091 239.359317 
L 187.461818 221.403128 
L 203.694545 139.116262 
L 219.927273 192.350026 
L 236.16 209.94492 
L 252.392727 251.916483 
L 268.625455 213.182854 
L 284.858182 200.958922 
L 301.090909 235.376237 
L 317.323636 244.311616 
L 333.556364 258.954127 
L 349.789091 245.351061 
L 366.021818 209.708517 
L 382.254545 226.054887 
L 398.487273 241.930917 
" clip-path="url(#p2103d12f45)" style="fill: none; stroke: #31688e; stroke-opacity: 0.5; stroke-width: 1.5; stroke-linecap: square"/>
   </g>
   <g id="line2d_53">
    <path d="M 73.832727 206.231197 
L 90.065455 234.659866 
L 106.298182 248.732776 
L 122.530909 263.256438 
L 138.763636 247.970222 
L 154.996364 251.779591 
L 171.229091 264.611313 
L 187.461818 267.664186 
L 203.694545 212.930872 
L 219.927273 214.331878 
L 236.16 216.297102 
L 252.392727 210.632404 
L 268.625455 208.818714 
L 284.858182 230.291998 
L 301.090909 230.65403 
L 317.323636 255.949786 
L 333.556364 246.811365 
L 349.789091 255.110437 
L 366.021818 249.584504 
L 382.254545 260.067034 
L 398.487273 207.508423 
" clip-path="url(#p2103d12f45)" style="fill: none; stroke: #31688e; stroke-opacity: 0.5; stroke-width: 1.5; stroke-linecap: square"/>
   </g>
   <g id="line2d_54">
    <path d="M 73.832727 190.513557 
L 90.065455 192.138962 
L 106.298182 184.138891 
L 122.530909 182.550806 
L 138.763636 192.075458 
L 154.996364 191.387603 
L 171.229091 185.159192 
L 187.461818 169.504284 
L 203.694545 190.806744 
L 219.927273 192.203367 
L 236.16 191.840897 
L 252.392727 189.491544 
L 268.625455 182.4577 
L 284.858182 172.798076 
L 301.090909 189.603499 
L 317.323636 198.962825 
L 333.556364 153.119968 
L 349.789091 177.736351 
L 366.021818 182.986134 
L 382.254545 161.321428 
L 398.487273 195.640091 
" clip-path="url(#p2103d12f45)" style="fill: none; stroke: #31688e; stroke-opacity: 0.5; stroke-width: 1.5; stroke-linecap: square"/>
   </g>
   <g id="line2d_55">
    <path d="M 73.832727 166.342237 
L 90.065455 206.223361 
L 106.298182 216.970776 
L 122.530909 218.524425 
L 138.763636 234.82018 
L 154.996364 253.608711 
L 171.229091 215.619798 
L 187.461818 261.985185 
L 203.694545 271.520294 
L 219.927273 277.743871 
L 236.16 295.488 
L 252.392727 290.064959 
L 268.625455 272.1245 
L 284.858182 283.049878 
L 301.090909 255.841698 
L 317.323636 280.646178 
L 333.556364 255.42598 
L 349.789091 274.120243 
L 366.021818 257.235384 
L 382.254545 272.517824 
L 398.487273 265.364472 
" clip-path="url(#p2103d12f45)" style="fill: none; stroke: #31688e; stroke-opacity: 0.5; stroke-width: 1.5; stroke-linecap: square"/>
   </g>
   <g id="line2d_56">
    <path d="M 73.832727 249.75329 
L 90.065455 245.600205 
L 106.298182 230.641949 
L 122.530909 248.344726 
L 138.763636 241.784523 
L 154.996364 250.314178 
L 171.229091 231.045148 
L 187.461818 264.367756 
L 203.694545 277.825251 
L 219.927273 251.94801 
L 236.16 243.023003 
L 252.392727 245.304778 
L 268.625455 235.362814 
L 284.858182 257.632779 
L 301.090909 238.764414 
L 317.323636 242.245624 
L 333.556364 214.232592 
L 349.789091 228.718639 
L 366.021818 245.006034 
L 382.254545 237.462262 
L 398.487273 242.514662 
" clip-path="url(#p2103d12f45)" style="fill: none; stroke: #31688e; stroke-opacity: 0.5; stroke-width: 1.5; stroke-linecap: square"/>
   </g>
   <g id="line2d_57">
    <path d="M 73.832727 175.116863 
L 90.065455 254.24073 
L 106.298182 252.652901 
L 122.530909 233.631526 
L 138.763636 236.366928 
L 154.996364 242.518184 
L 171.229091 222.73516 
L 187.461818 235.180263 
L 203.694545 233.053918 
L 219.927273 242.440315 
L 236.16 239.998993 
L 252.392727 239.282215 
L 268.625455 230.821927 
L 284.858182 263.666155 
L 301.090909 213.451354 
L 317.323636 235.780499 
L 333.556364 221.384636 
L 349.789091 237.659128 
L 366.021818 204.574627 
L 382.254545 234.885622 
L 398.487273 243.444651 
" clip-path="url(#p2103d12f45)" style="fill: none; stroke: #31688e; stroke-opacity: 0.5; stroke-width: 1.5; stroke-linecap: square"/>
   </g>
   <g id="line2d_58">
    <path d="M 73.832727 177.062141 
L 90.065455 111.818024 
L 106.298182 117.143604 
L 122.530909 193.270471 
L 138.763636 180.735482 
L 154.996364 227.257154 
L 171.229091 190.938192 
L 187.461818 233.12892 
L 203.694545 138.184051 
L 219.927273 198.759958 
L 236.16 258.170266 
L 252.392727 246.770324 
L 268.625455 231.880446 
L 284.858182 239.270612 
L 301.090909 230.411588 
L 317.323636 228.83728 
L 333.556364 177.963645 
L 349.789091 169.596636 
L 366.021818 253.294014 
L 382.254545 259.600785 
L 398.487273 197.39077 
" clip-path="url(#p2103d12f45)" style="fill: none; stroke: #31688e; stroke-opacity: 0.5; stroke-width: 1.5; stroke-linecap: square"/>
   </g>
   <g id="line2d_59">
    <path d="M 73.832727 221.535421 
L 90.065455 203.422331 
L 106.298182 224.011254 
L 122.530909 195.573922 
L 138.763636 230.420492 
L 154.996364 270.817923 
L 171.229091 279.896406 
L 187.461818 213.093069 
L 203.694545 185.558335 
L 219.927273 270.964473 
L 236.16 242.310639 
L 252.392727 260.960809 
L 268.625455 259.311553 
L 284.858182 255.909852 
L 301.090909 250.248915 
L 317.323636 271.204392 
L 333.556364 254.659359 
L 349.789091 269.438055 
L 366.021818 258.20516 
L 382.254545 279.492659 
L 398.487273 261.268654 
" clip-path="url(#p2103d12f45)" style="fill: none; stroke: #31688e; stroke-opacity: 0.5; stroke-width: 1.5; stroke-linecap: square"/>
   </g>
   <g id="line2d_60">
    <path d="M 73.832727 157.801301 
L 90.065455 154.290077 
L 106.298182 131.050532 
L 122.530909 173.006749 
L 138.763636 205.03464 
L 154.996364 169.905324 
L 171.229091 210.606802 
L 187.461818 206.205757 
L 203.694545 167.457048 
L 219.927273 161.192745 
L 236.16 197.075545 
L 252.392727 164.173403 
L 268.625455 178.328595 
L 284.858182 162.494226 
L 301.090909 191.730668 
L 317.323636 175.285581 
L 333.556364 182.517461 
L 349.789091 169.399334 
L 366.021818 214.780991 
L 382.254545 177.565225 
L 398.487273 200.487498 
" clip-path="url(#p2103d12f45)" style="fill: none; stroke: #31688e; stroke-opacity: 0.5; stroke-width: 1.5; stroke-linecap: square"/>
   </g>
   <g id="line2d_61">
    <path d="M 73.832727 195.414484 
L 90.065455 172.901679 
L 106.298182 214.129786 
L 122.530909 175.735946 
L 138.763636 185.584899 
L 154.996364 205.311436 
L 171.229091 256.985724 
L 187.461818 253.552457 
L 203.694545 229.831158 
L 219.927273 251.895644 
L 236.16 238.081409 
L 252.392727 256.198145 
L 268.625455 237.730343 
L 284.858182 234.266046 
L 301.090909 262.322948 
L 317.323636 254.143397 
L 333.556364 235.266998 
L 349.789091 247.039166 
L 366.021818 246.119788 
L 382.254545 271.114679 
L 398.487273 244.472507 
" clip-path="url(#p2103d12f45)" style="fill: none; stroke: #31688e; stroke-opacity: 0.5; stroke-width: 1.5; stroke-linecap: square"/>
   </g>
   <g id="line2d_62">
    <path d="M 73.832727 225.314239 
L 90.065455 186.175839 
L 106.298182 194.999072 
L 122.530909 188.571518 
L 138.763636 217.192624 
L 154.996364 232.038559 
L 171.229091 252.464878 
L 187.461818 256.27672 
L 203.694545 222.740897 
L 219.927273 165.025601 
L 236.16 231.310442 
L 252.392727 202.805683 
L 268.625455 219.2607 
L 284.858182 232.425702 
L 301.090909 219.299711 
L 317.323636 228.336746 
L 333.556364 198.531102 
L 349.789091 223.068812 
L 366.021818 220.634308 
L 382.254545 239.041335 
L 398.487273 226.199587 
" clip-path="url(#p2103d12f45)" style="fill: none; stroke: #31688e; stroke-opacity: 0.5; stroke-width: 1.5; stroke-linecap: square"/>
   </g>
   <g id="line2d_63">
    <path d="M 73.832727 139.160002 
L 90.065455 238.203666 
L 106.298182 212.437849 
L 122.530909 248.588954 
L 138.763636 230.191046 
L 154.996364 252.37087 
L 171.229091 232.312006 
L 187.461818 257.542918 
L 203.694545 231.557526 
L 219.927273 161.576768 
L 236.16 222.268105 
L 252.392727 210.709208 
L 268.625455 184.646192 
L 284.858182 209.7644 
L 301.090909 190.177421 
L 317.323636 243.166106 
L 333.556364 214.964231 
L 349.789091 234.030537 
L 366.021818 254.445254 
L 382.254545 162.828693 
L 398.487273 245.717599 
" clip-path="url(#p2103d12f45)" style="fill: none; stroke: #31688e; stroke-opacity: 0.5; stroke-width: 1.5; stroke-linecap: square"/>
   </g>
   <g id="patch_3">
    <path d="M 57.6 307.584 
L 57.6 41.472 
" style="fill: none; stroke: #000000; stroke-width: 3; stroke-linejoin: miter; stroke-linecap: square"/>
   </g>
   <g id="patch_4">
    <path d="M 414.72 307.584 
L 414.72 41.472 
" style="fill: none; stroke: #000000; stroke-width: 3; stroke-linejoin: miter; stroke-linecap: square"/>
   </g>
   <g id="patch_5">
    <path d="M 57.6 307.584 
L 414.72 307.584 
" style="fill: none; stroke: #000000; stroke-width: 3; stroke-linejoin: miter; stroke-linecap: square"/>
   </g>
   <g id="patch_6">
    <path d="M 57.6 41.472 
L 414.72 41.472 
" style="fill: none; stroke: #000000; stroke-width: 3; stroke-linejoin: miter; stroke-linecap: square"/>
   </g>
   <g id="text_13">
    <!-- Atom Type C (n=51, mean Q=8.92) -->
    <g transform="translate(40.817187 35.472) scale(0.22 -0.22)">
     <defs>
      <path id="DejaVuSans-41" d="M 2188 4044 
L 1331 1722 
L 3047 1722 
L 2188 4044 
z
M 1831 4666 
L 2547 4666 
L 4325 0 
L 3669 0 
L 3244 1197 
L 1141 1197 
L 716 0 
L 50 0 
L 1831 4666 
z
" transform="scale(0.015625)"/>
      <path id="DejaVuSans-74" d="M 1172 4494 
L 1172 3500 
L 2356 3500 
L 2356 3053 
L 1172 3053 
L 1172 1153 
Q 1172 725 1289 603 
Q 1406 481 1766 481 
L 2356 481 
L 2356 0 
L 1766 0 
Q 1100 0 847 248 
Q 594 497 594 1153 
L 594 3053 
L 172 3053 
L 172 3500 
L 594 3500 
L 594 4494 
L 1172 4494 
z
" transform="scale(0.015625)"/>
      <path id="DejaVuSans-6f" d="M 1959 3097 
Q 1497 3097 1228 2736 
Q 959 2375 959 1747 
Q 959 1119 1226 758 
Q 1494 397 1959 397 
Q 2419 397 2687 759 
Q 2956 1122 2956 1747 
Q 2956 2369 2687 2733 
Q 2419 3097 1959 3097 
z
M 1959 3584 
Q 2709 3584 3137 3096 
Q 3566 2609 3566 1747 
Q 3566 888 3137 398 
Q 2709 -91 1959 -91 
Q 1206 -91 779 398 
Q 353 888 353 1747 
Q 353 2609 779 3096 
Q 1206 3584 1959 3584 
z
" transform="scale(0.015625)"/>
      <path id="DejaVuSans-6d" d="M 3328 2828 
Q 3544 3216 3844 3400 
Q 4144 3584 4550 3584 
Q 5097 3584 5394 3201 
Q 5691 2819 5691 2113 
L 5691 0 
L 5113 0 
L 5113 2094 
Q 5113 2597 4934 2840 
Q 4756 3084 4391 3084 
Q 3944 3084 3684 2787 
Q 3425 2491 3425 1978 
L 3425 0 
L 2847 0 
L 2847 2094 
Q 2847 2600 2669 2842 
Q 2491 3084 2119 3084 
Q 1678 3084 1418 2786 
Q 1159 2488 1159 1978 
L 1159 0 
L 581 0 
L 581 3500 
L 1159 3500 
L 1159 2956 
Q 1356 3278 1631 3431 
Q 1906 3584 2284 3584 
Q 2666 3584 2933 3390 
Q 3200 3197 3328 2828 
z
" transform="scale(0.015625)"/>
      <path id="DejaVuSans-20" transform="scale(0.015625)"/>
      <path id="DejaVuSans-54" d="M -19 4666 
L 3928 4666 
L 3928 4134 
L 2272 4134 
L 2272 0 
L 1638 0 
L 1638 4134 
L -19 4134 
L -19 4666 
z
" transform="scale(0.015625)"/>
      <path id="DejaVuSans-79" d="M 2059 -325 
Q 1816 -950 1584 -1140 
Q 1353 -1331 966 -1331 
L 506 -1331 
L 506 -850 
L 844 -850 
Q 1081 -850 1212 -737 
Q 1344 -625 1503 -206 
L 1606 56 
L 191 3500 
L 800 3500 
L 1894 763 
L 2988 3500 
L 3597 3500 
L 2059 -325 
z
" transform="scale(0.015625)"/>
      <path id="DejaVuSans-70" d="M 1159 525 
L 1159 -1331 
L 581 -1331 
L 581 3500 
L 1159 3500 
L 1159 2969 
Q 1341 3281 1617 3432 
Q 1894 3584 2278 3584 
Q 2916 3584 3314 3078 
Q 3713 2572 3713 1747 
Q 3713 922 3314 415 
Q 2916 -91 2278 -91 
Q 1894 -91 1617 61 
Q 1341 213 1159 525 
z
M 3116 1747 
Q 3116 2381 2855 2742 
Q 2594 3103 2138 3103 
Q 1681 3103 1420 2742 
Q 1159 2381 1159 1747 
Q 1159 1113 1420 752 
Q 1681 391 2138 391 
Q 2594 391 2855 752 
Q 3116 1113 3116 1747 
z
" transform="scale(0.015625)"/>
      <path id="DejaVuSans-65" d="M 3597 1894 
L 3597 1613 
L 953 1613 
Q 991 1019 1311 708 
Q 1631 397 2203 397 
Q 2534 397 2845 478 
Q 3156 559 3463 722 
L 3463 178 
Q 3153 47 2828 -22 
Q 2503 -91 2169 -91 
Q 1331 -91 842 396 
Q 353 884 353 1716 
Q 353 2575 817 3079 
Q 1281 3584 2069 3584 
Q 2775 3584 3186 3129 
Q 3597 2675 3597 1894 
z
M 3022 2063 
Q 3016 2534 2758 2815 
Q 2500 3097 2075 3097 
Q 1594 3097 1305 2825 
Q 1016 2553 972 2059 
L 3022 2063 
z
" transform="scale(0.015625)"/>
      <path id="DejaVuSans-43" d="M 4122 4306 
L 4122 3641 
Q 3803 3938 3442 4084 
Q 3081 4231 2675 4231 
Q 1875 4231 1450 3742 
Q 1025 3253 1025 2328 
Q 1025 1406 1450 917 
Q 1875 428 2675 428 
Q 3081 428 3442 575 
Q 3803 722 4122 1019 
L 4122 359 
Q 3791 134 3420 21 
Q 3050 -91 2638 -91 
Q 1578 -91 968 557 
Q 359 1206 359 2328 
Q 359 3453 968 4101 
Q 1578 4750 2638 4750 
Q 3056 4750 3426 4639 
Q 3797 4528 4122 4306 
z
" transform="scale(0.015625)"/>
      <path id="DejaVuSans-28" d="M 1984 4856 
Q 1566 4138 1362 3434 
Q 1159 2731 1159 2009 
Q 1159 1288 1364 580 
Q 1569 -128 1984 -844 
L 1484 -844 
Q 1016 -109 783 600 
Q 550 1309 550 2009 
Q 550 2706 781 3412 
Q 1013 4119 1484 4856 
L 1984 4856 
z
" transform="scale(0.015625)"/>
      <path id="DejaVuSans-6e" d="M 3513 2113 
L 3513 0 
L 2938 0 
L 2938 2094 
Q 2938 2591 2744 2837 
Q 2550 3084 2163 3084 
Q 1697 3084 1428 2787 
Q 1159 2491 1159 1978 
L 1159 0 
L 581 0 
L 581 3500 
L 1159 3500 
L 1159 2956 
Q 1366 3272 1645 3428 
Q 1925 3584 2291 3584 
Q 2894 3584 3203 3211 
Q 3513 2838 3513 2113 
z
" transform="scale(0.015625)"/>
      <path id="DejaVuSans-3d" d="M 678 2906 
L 4684 2906 
L 4684 2381 
L 678 2381 
L 678 2906 
z
M 678 1631 
L 4684 1631 
L 4684 1100 
L 678 1100 
L 678 1631 
z
" transform="scale(0.015625)"/>
      <path id="DejaVuSans-2c" d="M 750 794 
L 1409 794 
L 1409 256 
L 897 -744 
L 494 -744 
L 750 256 
L 750 794 
z
" transform="scale(0.015625)"/>
      <path id="DejaVuSans-61" d="M 2194 1759 
Q 1497 1759 1228 1600 
Q 959 1441 959 1056 
Q 959 750 1161 570 
Q 1363 391 1709 391 
Q 2188 391 2477 730 
Q 2766 1069 2766 1631 
L 2766 1759 
L 2194 1759 
z
M 3341 1997 
L 3341 0 
L 2766 0 
L 2766 531 
Q 2569 213 2275 61 
Q 1981 -91 1556 -91 
Q 1019 -91 701 211 
Q 384 513 384 1019 
Q 384 1609 779 1909 
Q 1175 2209 1959 2209 
L 2766 2209 
L 2766 2266 
Q 2766 2663 2505 2880 
Q 2244 3097 1772 3097 
Q 1472 3097 1187 3025 
Q 903 2953 641 2809 
L 641 3341 
Q 956 3463 1253 3523 
Q 1550 3584 1831 3584 
Q 2591 3584 2966 3190 
Q 3341 2797 3341 1997 
z
" transform="scale(0.015625)"/>
      <path id="DejaVuSans-51" d="M 2522 4238 
Q 1834 4238 1429 3725 
Q 1025 3213 1025 2328 
Q 1025 1447 1429 934 
Q 1834 422 2522 422 
Q 3209 422 3611 934 
Q 4013 1447 4013 2328 
Q 4013 3213 3611 3725 
Q 3209 4238 2522 4238 
z
M 3406 84 
L 4238 -825 
L 3475 -825 
L 2784 -78 
Q 2681 -84 2626 -87 
Q 2572 -91 2522 -91 
Q 1538 -91 948 567 
Q 359 1225 359 2328 
Q 359 3434 948 4092 
Q 1538 4750 2522 4750 
Q 3503 4750 4090 4092 
Q 4678 3434 4678 2328 
Q 4678 1516 4351 937 
Q 4025 359 3406 84 
z
" transform="scale(0.015625)"/>
      <path id="DejaVuSans-2e" d="M 684 794 
L 1344 794 
L 1344 0 
L 684 0 
L 684 794 
z
" transform="scale(0.015625)"/>
      <path id="DejaVuSans-39" d="M 703 97 
L 703 672 
Q 941 559 1184 500 
Q 1428 441 1663 441 
Q 2288 441 2617 861 
Q 2947 1281 2994 2138 
Q 2813 1869 2534 1725 
Q 2256 1581 1919 1581 
Q 1219 1581 811 2004 
Q 403 2428 403 3163 
Q 403 3881 828 4315 
Q 1253 4750 1959 4750 
Q 2769 4750 3195 4129 
Q 3622 3509 3622 2328 
Q 3622 1225 3098 567 
Q 2575 -91 1691 -91 
Q 1453 -91 1209 -44 
Q 966 3 703 97 
z
M 1959 2075 
Q 2384 2075 2632 2365 
Q 2881 2656 2881 3163 
Q 2881 3666 2632 3958 
Q 2384 4250 1959 4250 
Q 1534 4250 1286 3958 
Q 1038 3666 1038 3163 
Q 1038 2656 1286 2365 
Q 1534 2075 1959 2075 
z
" transform="scale(0.015625)"/>
      <path id="DejaVuSans-29" d="M 513 4856 
L 1013 4856 
Q 1481 4119 1714 3412 
Q 1947 2706 1947 2009 
Q 1947 1309 1714 600 
Q 1481 -109 1013 -844 
L 513 -844 
Q 928 -128 1133 580 
Q 1338 1288 1338 2009 
Q 1338 2731 1133 3434 
Q 928 4138 513 4856 
z
" transform="scale(0.015625)"/>
     </defs>
     <use xlink:href="#DejaVuSans-41"/>
     <use xlink:href="#DejaVuSans-74" transform="translate(66.658203 0)"/>
     <use xlink:href="#DejaVuSans-6f" transform="translate(105.867188 0)"/>
     <use xlink:href="#DejaVuSans-6d" transform="translate(167.048828 0)"/>
     <use xlink:href="#DejaVuSans-20" transform="translate(264.460938 0)"/>
     <use xlink:href="#DejaVuSans-54" transform="translate(296.248047 0)"/>
     <use xlink:href="#DejaVuSans-79" transform="translate(341.707031 0)"/>
     <use xlink:href="#DejaVuSans-70" transform="translate(400.886719 0)"/>
     <use xlink:href="#DejaVuSans-65" transform="translate(464.363281 0)"/>
     <use xlink:href="#DejaVuSans-20" transform="translate(525.886719 0)"/>
     <use xlink:href="#DejaVuSans-43" transform="translate(557.673828 0)"/>
     <use xlink:href="#DejaVuSans-20" transform="translate(627.498047 0)"/>
     <use xlink:href="#DejaVuSans-28" transform="translate(659.285156 0)"/>
     <use xlink:href="#DejaVuSans-6e" transform="translate(698.298828 0)"/>
     <use xlink:href="#DejaVuSans-3d" transform="translate(761.677734 0)"/>
     <use xlink:href="#DejaVuSans-35" transform="translate(845.466797 0)"/>
     <use xlink:href="#DejaVuSans-31" transform="translate(909.089844 0)"/>
     <use xlink:href="#DejaVuSans-2c" transform="translate(972.712891 0)"/>
     <use xlink:href="#DejaVuSans-20" transform="translate(1004.5 0)"/>
     <use xlink:href="#DejaVuSans-6d" transform="translate(1036.287109 0)"/>
     <use xlink:href="#DejaVuSans-65" transform="translate(1133.699219 0)"/>
     <use xlink:href="#DejaVuSans-61" transform="translate(1195.222656 0)"/>
     <use xlink:href="#DejaVuSans-6e" transform="translate(1256.501953 0)"/>
     <use xlink:href="#DejaVuSans-20" transform="translate(1319.880859 0)"/>
     <use xlink:href="#DejaVuSans-51" transform="translate(1351.667969 0)"/>
     <use xlink:href="#DejaVuSans-3d" transform="translate(1430.378906 0)"/>
     <use xlink:href="#DejaVuSans-38" transform="translate(1514.167969 0)"/>
     <use xlink:href="#DejaVuSans-2e" transform="translate(1577.791016 0)"/>
     <use xlink:href="#DejaVuSans-39" transform="translate(1609.578125 0)"/>
     <use xlink:href="#DejaVuSans-32" transform="translate(1673.201172 0)"/>
     <use xlink:href="#DejaVuSans-29" transform="translate(1736.824219 0)"/>
    </g>
   </g>
  </g>
 </g>
 <defs>
  <clipPath id="p2103d12f45">
   <rect x="57.6" y="41.472" width="357.12" height="266.112"/>
  </clipPath>
 </defs>
</svg>
