<?xml version="1.0" encoding="utf-8" standalone="no"?>
<!DOCTYPE svg PUBLIC "-//W3C//DTD SVG 1.1//EN"
  "http://www.w3.org/Graphics/SVG/1.1/DTD/svg11.dtd">
<svg xmlns:xlink="http://www.w3.org/1999/xlink" width="460.8pt" height="345.6pt" viewBox="0 0 460.8 345.6" xmlns="http://www.w3.org/2000/svg" version="1.1">
 <metadata>
  <rdf:RDF xmlns:dc="http://purl.org/dc/elements/1.1/" xmlns:cc="http://creativecommons.org/ns#" xmlns:rdf="http://www.w3.org/1999/02/22-rdf-syntax-ns#">
   <cc:Work>
    <dc:type rdf:resource="http://purl.org/dc/dcmitype/StillImage"/>
    <dc:date>2025-12-10T14:10:48.842570</dc:date>
    <dc:format>image/svg+xml</dc:format>
    <dc:creator>
     <cc:Agent>
      <dc:title>Matplotlib v3.10.3, https://matplotlib.org/</dc:title>
     </cc:Agent>
    </dc:creator>
   </cc:Work>
  </rdf:RDF>
 </metadata>
 <defs>
  <style type="text/css">*{stroke-linejoin: round; stroke-linecap: butt}</style>
 </defs>
 <g id="figure_1">
  <g id="patch_1">
   <path d="M 0 345.6 
L 460.8 345.6 
L 460.8 0 
L 0 0 
z
" style="fill: #ffffff"/>
  </g>
  <g id="axes_1">
   <g id="patch_2">
    <path d="M 57.6 307.584 
L 414.72 307.584 
L 414.72 41.472 
L 57.6 41.472 
z
" style="fill: #ffffff"/>
   </g>
   <g id="matplotlib.axis_1">
    <g id="xtick_1">
     <g id="line2d_1">
      <defs>
       <path id="mf446878f6a" d="M 0 0 
L 0 3.5 
" style="stroke: #000000; stroke-width: 0.8"/>
      </defs>
      <g>
       <use xlink:href="#mf446878f6a" x="73.832727" y="307.584" style="stroke: #000000; stroke-width: 0.8"/>
      </g>
     </g>
     <g id="text_1">
      <!-- 0 -->
      <g transform="translate(69.060852 325.981656) scale(0.15 -0.15)">
       <defs>
        <path id="DejaVuSans-30" d="M 2034 4250 
Q 1547 4250 1301 3770 
Q 1056 3291 1056 2328 
Q 1056 1369 1301 889 
Q 1547 409 2034 409 
Q 2525 409 2770 889 
Q 3016 1369 3016 2328 
Q 3016 3291 2770 3770 
Q 2525 4250 2034 4250 
z
M 2034 4750 
Q 2819 4750 3233 4129 
Q 3647 3509 3647 2328 
Q 3647 1150 3233 529 
Q 2819 -91 2034 -91 
Q 1250 -91 836 529 
Q 422 1150 422 2328 
Q 422 3509 836 4129 
Q 1250 4750 2034 4750 
z
" transform="scale(0.015625)"/>
       </defs>
       <use xlink:href="#DejaVuSans-30"/>
      </g>
     </g>
    </g>
    <g id="xtick_2">
     <g id="line2d_2">
      <g>
       <use xlink:href="#mf446878f6a" x="154.996364" y="307.584" style="stroke: #000000; stroke-width: 0.8"/>
      </g>
     </g>
     <g id="text_2">
      <!-- 5 -->
      <g transform="translate(150.224489 325.981656) scale(0.15 -0.15)">
       <defs>
        <path id="DejaVuSans-35" d="M 691 4666 
L 3169 4666 
L 3169 4134 
L 1269 4134 
L 1269 2991 
Q 1406 3038 1543 3061 
Q 1681 3084 1819 3084 
Q 2600 3084 3056 2656 
Q 3513 2228 3513 1497 
Q 3513 744 3044 326 
Q 2575 -91 1722 -91 
Q 1428 -91 1123 -41 
Q 819 9 494 109 
L 494 744 
Q 775 591 1075 516 
Q 1375 441 1709 441 
Q 2250 441 2565 725 
Q 2881 1009 2881 1497 
Q 2881 1984 2565 2268 
Q 2250 2553 1709 2553 
Q 1456 2553 1204 2497 
Q 953 2441 691 2322 
L 691 4666 
z
" transform="scale(0.015625)"/>
       </defs>
       <use xlink:href="#DejaVuSans-35"/>
      </g>
     </g>
    </g>
    <g id="xtick_3">
     <g id="line2d_3">
      <g>
       <use xlink:href="#mf446878f6a" x="236.16" y="307.584" style="stroke: #000000; stroke-width: 0.8"/>
      </g>
     </g>
     <g id="text_3">
      <!-- 10 -->
      <g transform="translate(226.61625 325.981656) scale(0.15 -0.15)">
       <defs>
        <path id="DejaVuSans-31" d="M 794 531 
L 1825 531 
L 1825 4091 
L 703 3866 
L 703 4441 
L 1819 4666 
L 2450 4666 
L 2450 531 
L 3481 531 
L 3481 0 
L 794 0 
L 794 531 
z
" transform="scale(0.015625)"/>
       </defs>
       <use xlink:href="#DejaVuSans-31"/>
       <use xlink:href="#DejaVuSans-30" transform="translate(63.623047 0)"/>
      </g>
     </g>
    </g>
    <g id="xtick_4">
     <g id="line2d_4">
      <g>
       <use xlink:href="#mf446878f6a" x="317.323636" y="307.584" style="stroke: #000000; stroke-width: 0.8"/>
      </g>
     </g>
     <g id="text_4">
      <!-- 15 -->
      <g transform="translate(307.779886 325.981656) scale(0.15 -0.15)">
       <use xlink:href="#DejaVuSans-31"/>
       <use xlink:href="#DejaVuSans-35" transform="translate(63.623047 0)"/>
      </g>
     </g>
    </g>
    <g id="xtick_5">
     <g id="line2d_5">
      <g>
       <use xlink:href="#mf446878f6a" x="398.487273" y="307.584" style="stroke: #000000; stroke-width: 0.8"/>
      </g>
     </g>
     <g id="text_5">
      <!-- 20 -->
      <g transform="translate(388.943523 325.981656) scale(0.15 -0.15)">
       <defs>
        <path id="DejaVuSans-32" d="M 1228 531 
L 3431 531 
L 3431 0 
L 469 0 
L 469 531 
Q 828 903 1448 1529 
Q 2069 2156 2228 2338 
Q 2531 2678 2651 2914 
Q 2772 3150 2772 3378 
Q 2772 3750 2511 3984 
Q 2250 4219 1831 4219 
Q 1534 4219 1204 4116 
Q 875 4013 500 3803 
L 500 4441 
Q 881 4594 1212 4672 
Q 1544 4750 1819 4750 
Q 2544 4750 2975 4387 
Q 3406 4025 3406 3419 
Q 3406 3131 3298 2873 
Q 3191 2616 2906 2266 
Q 2828 2175 2409 1742 
Q 1991 1309 1228 531 
z
" transform="scale(0.015625)"/>
       </defs>
       <use xlink:href="#DejaVuSans-32"/>
       <use xlink:href="#DejaVuSans-30" transform="translate(63.623047 0)"/>
      </g>
     </g>
    </g>
   </g>
   <g id="matplotlib.axis_2">
    <g id="ytick_1">
     <g id="line2d_6">
      <defs>
       <path id="ma7a24cc7cf" d="M 0 0 
L -3.5 0 
" style="stroke: #000000; stroke-width: 0.8"/>
      </defs>
      <g>
       <use xlink:href="#ma7a24cc7cf" x="57.6" y="264.856643" style="stroke: #000000; stroke-width: 0.8"/>
      </g>
     </g>
     <g id="text_6">
      <!-- 5 -->
      <g transform="translate(41.05625 270.555472) scale(0.15 -0.15)">
       <use xlink:href="#DejaVuSans-35"/>
      </g>
     </g>
    </g>
    <g id="ytick_2">
     <g id="line2d_7">
      <g>
       <use xlink:href="#ma7a24cc7cf" x="57.6" y="208.111107" style="stroke: #000000; stroke-width: 0.8"/>
      </g>
     </g>
     <g id="text_7">
      <!-- 10 -->
      <g transform="translate(31.5125 213.809935) scale(0.15 -0.15)">
       <use xlink:href="#DejaVuSans-31"/>
       <use xlink:href="#DejaVuSans-30" transform="translate(63.623047 0)"/>
      </g>
     </g>
    </g>
    <g id="ytick_3">
     <g id="line2d_8">
      <g>
       <use xlink:href="#ma7a24cc7cf" x="57.6" y="151.365571" style="stroke: #000000; stroke-width: 0.8"/>
      </g>
     </g>
     <g id="text_8">
      <!-- 15 -->
      <g transform="translate(31.5125 157.064399) scale(0.15 -0.15)">
       <use xlink:href="#DejaVuSans-31"/>
       <use xlink:href="#DejaVuSans-35" transform="translate(63.623047 0)"/>
      </g>
     </g>
    </g>
    <g id="ytick_4">
     <g id="line2d_9">
      <g>
       <use xlink:href="#ma7a24cc7cf" x="57.6" y="94.620035" style="stroke: #000000; stroke-width: 0.8"/>
      </g>
     </g>
     <g id="text_9">
      <!-- 20 -->
      <g transform="translate(31.5125 100.318863) scale(0.15 -0.15)">
       <use xlink:href="#DejaVuSans-32"/>
       <use xlink:href="#DejaVuSans-30" transform="translate(63.623047 0)"/>
      </g>
     </g>
    </g>
   </g>
   <g id="line2d_10">
    <path d="M 73.832727 269.412908 
L 90.065455 262.084943 
L 106.298182 249.772471 
L 122.530909 276.850757 
L 138.763636 279.024305 
L 154.996364 274.510318 
L 171.229091 266.283085 
L 187.461818 263.245192 
L 203.694545 278.434465 
L 219.927273 280.618406 
L 236.16 282.622609 
L 252.392727 277.244715 
L 268.625455 277.544324 
L 284.858182 280.276546 
L 301.090909 280.644409 
L 317.323636 274.506103 
L 333.556364 258.90083 
L 349.789091 270.396634 
L 366.021818 265.814468 
L 382.254545 274.78616 
L 398.487273 255.554724 
" clip-path="url(#pce69387860)" style="fill: none; stroke: #440154; stroke-opacity: 0.5; stroke-width: 1.5; stroke-linecap: square"/>
   </g>
   <g id="line2d_11">
    <path d="M 73.832727 257.488508 
L 90.065455 273.698365 
L 106.298182 249.160039 
L 122.530909 263.416338 
L 138.763636 263.153494 
L 154.996364 269.475072 
L 171.229091 277.614001 
L 187.461818 283.318085 
L 203.694545 280.66604 
L 219.927273 261.647694 
L 236.16 268.917226 
L 252.392727 274.242413 
L 268.625455 269.949535 
L 284.858182 223.328173 
L 301.090909 265.70701 
L 317.323636 270.190947 
L 333.556364 275.824749 
L 349.789091 257.653464 
L 366.021818 262.090573 
L 382.254545 258.710291 
L 398.487273 283.404888 
" clip-path="url(#pce69387860)" style="fill: none; stroke: #440154; stroke-opacity: 0.5; stroke-width: 1.5; stroke-linecap: square"/>
   </g>
   <g id="line2d_12">
    <path d="M 73.832727 265.450442 
L 90.065455 251.581147 
L 106.298182 276.221326 
L 122.530909 260.817178 
L 138.763636 250.904109 
L 154.996364 281.164441 
L 171.229091 237.337055 
L 187.461818 281.358209 
L 203.694545 267.798754 
L 219.927273 246.878598 
L 236.16 262.119227 
L 252.392727 249.932894 
L 268.625455 262.563776 
L 284.858182 264.274493 
L 301.090909 285.87794 
L 317.323636 279.118046 
L 333.556364 272.809989 
L 349.789091 257.541081 
L 366.021818 273.73197 
L 382.254545 251.374717 
L 398.487273 261.396909 
" clip-path="url(#pce69387860)" style="fill: none; stroke: #440154; stroke-opacity: 0.5; stroke-width: 1.5; stroke-linecap: square"/>
   </g>
   <g id="line2d_13">
    <path d="M 73.832727 273.184816 
L 90.065455 273.24074 
L 106.298182 250.953757 
L 122.530909 277.253554 
L 138.763636 279.686869 
L 154.996364 264.95772 
L 171.229091 218.523714 
L 187.461818 248.778425 
L 203.694545 259.082764 
L 219.927273 242.521507 
L 236.16 250.540149 
L 252.392727 266.809642 
L 268.625455 290.124197 
L 284.858182 276.038898 
L 301.090909 253.35956 
L 317.323636 233.831521 
L 333.556364 275.124567 
L 349.789091 271.909972 
L 366.021818 275.531215 
L 382.254545 262.777076 
L 398.487273 249.602878 
" clip-path="url(#pce69387860)" style="fill: none; stroke: #440154; stroke-opacity: 0.5; stroke-width: 1.5; stroke-linecap: square"/>
   </g>
   <g id="line2d_14">
    <path d="M 73.832727 264.273554 
L 90.065455 261.088252 
L 106.298182 133.070896 
L 122.530909 266.080883 
L 138.763636 249.632321 
L 154.996364 264.789977 
L 171.229091 264.533793 
L 187.461818 230.083019 
L 203.694545 258.977838 
L 219.927273 229.995271 
L 236.16 266.544343 
L 252.392727 262.726761 
L 268.625455 262.115769 
L 284.858182 255.114899 
L 301.090909 259.311249 
L 317.323636 242.40468 
L 333.556364 259.199067 
L 349.789091 270.606863 
L 366.021818 259.533126 
L 382.254545 256.24307 
L 398.487273 267.012905 
" clip-path="url(#pce69387860)" style="fill: none; stroke: #440154; stroke-opacity: 0.5; stroke-width: 1.5; stroke-linecap: square"/>
   </g>
   <g id="line2d_15">
    <path d="M 73.832727 250.886407 
L 90.065455 266.286171 
L 106.298182 259.151962 
L 122.530909 269.053266 
L 138.763636 265.479296 
L 154.996364 251.111849 
L 171.229091 257.017202 
L 187.461818 268.512683 
L 203.694545 275.930227 
L 219.927273 270.362282 
L 236.16 255.575802 
L 252.392727 267.891435 
L 268.625455 274.976445 
L 284.858182 279.849517 
L 301.090909 251.333394 
L 317.323636 265.684698 
L 333.556364 254.734979 
L 349.789091 254.444089 
L 366.021818 247.856972 
L 382.254545 252.152763 
L 398.487273 266.790339 
" clip-path="url(#pce69387860)" style="fill: none; stroke: #440154; stroke-opacity: 0.5; stroke-width: 1.5; stroke-linecap: square"/>
   </g>
   <g id="line2d_16">
    <path d="M 73.832727 264.647771 
L 90.065455 240.013876 
L 106.298182 256.443765 
L 122.530909 243.459067 
L 138.763636 254.138824 
L 154.996364 237.243673 
L 171.229091 245.240449 
L 187.461818 263.316152 
L 203.694545 256.817547 
L 219.927273 288.073997 
L 236.16 266.8813 
L 252.392727 275.1471 
L 268.625455 254.586624 
L 284.858182 263.353705 
L 301.090909 277.728252 
L 317.323636 244.940467 
L 333.556364 258.362573 
L 349.789091 261.031708 
L 366.021818 251.066481 
L 382.254545 233.85373 
L 398.487273 263.01359 
" clip-path="url(#pce69387860)" style="fill: none; stroke: #440154; stroke-opacity: 0.5; stroke-width: 1.5; stroke-linecap: square"/>
   </g>
   <g id="line2d_17">
    <path d="M 73.832727 258.576094 
L 90.065455 245.87628 
L 106.298182 253.970454 
L 122.530909 240.862986 
L 138.763636 267.326752 
L 154.996364 265.116532 
L 171.229091 218.50892 
L 187.461818 258.44084 
L 203.694545 205.999544 
L 219.927273 255.361632 
L 236.16 283.202837 
L 252.392727 278.474265 
L 268.625455 250.657192 
L 284.858182 240.837005 
L 301.090909 269.725549 
L 317.323636 282.477652 
L 333.556364 282.729719 
L 349.789091 262.877585 
L 366.021818 261.39667 
L 382.254545 256.916881 
L 398.487273 278.285244 
" clip-path="url(#pce69387860)" style="fill: none; stroke: #440154; stroke-opacity: 0.5; stroke-width: 1.5; stroke-linecap: square"/>
   </g>
   <g id="line2d_18">
    <path d="M 73.832727 268.715505 
L 90.065455 230.179618 
L 106.298182 279.167478 
L 122.530909 263.372932 
L 138.763636 269.18689 
L 154.996364 268.144282 
L 171.229091 259.572637 
L 187.461818 262.260195 
L 203.694545 279.612832 
L 219.927273 266.736576 
L 236.16 255.696355 
L 252.392727 261.94537 
L 268.625455 255.950101 
L 284.858182 246.907014 
L 301.090909 272.023658 
L 317.323636 248.234223 
L 333.556364 261.909961 
L 349.789091 177.853406 
L 366.021818 272.746996 
L 382.254545 266.51838 
L 398.487273 268.291884 
" clip-path="url(#pce69387860)" style="fill: none; stroke: #440154; stroke-opacity: 0.5; stroke-width: 1.5; stroke-linecap: square"/>
   </g>
   <g id="line2d_19">
    <path d="M 73.832727 233.502937 
L 90.065455 251.312783 
L 106.298182 257.756377 
L 122.530909 264.412124 
L 138.763636 247.082506 
L 154.996364 222.907751 
L 171.229091 275.485981 
L 187.461818 239.175491 
L 203.694545 259.38429 
L 219.927273 233.719297 
L 236.16 240.038991 
L 252.392727 259.234986 
L 268.625455 272.204147 
L 284.858182 267.231293 
L 301.090909 222.693124 
L 317.323636 254.998968 
L 333.556364 207.976279 
L 349.789091 263.977469 
L 366.021818 268.300564 
L 382.254545 252.291329 
L 398.487273 270.342657 
" clip-path="url(#pce69387860)" style="fill: none; stroke: #440154; stroke-opacity: 0.5; stroke-width: 1.5; stroke-linecap: square"/>
   </g>
   <g id="line2d_20">
    <path d="M 73.832727 264.34067 
L 90.065455 238.597461 
L 106.298182 266.304945 
L 122.530909 233.430628 
L 138.763636 263.344552 
L 154.996364 238.721792 
L 171.229091 251.451666 
L 187.461818 168.449457 
L 203.694545 245.59638 
L 219.927273 256.324265 
L 236.16 275.173054 
L 252.392727 259.099161 
L 268.625455 220.235555 
L 284.858182 255.733765 
L 301.090909 246.293347 
L 317.323636 282.91059 
L 333.556364 204.413416 
L 349.789091 248.042282 
L 366.021818 233.263154 
L 382.254545 229.026876 
L 398.487273 246.067009 
" clip-path="url(#pce69387860)" style="fill: none; stroke: #440154; stroke-opacity: 0.5; stroke-width: 1.5; stroke-linecap: square"/>
   </g>
   <g id="line2d_21">
    <path d="M 73.832727 204.92697 
L 90.065455 243.003239 
L 106.298182 245.136625 
L 122.530909 261.415797 
L 138.763636 215.71052 
L 154.996364 218.139582 
L 171.229091 264.216706 
L 187.461818 227.235264 
L 203.694545 268.372098 
L 219.927273 216.611215 
L 236.16 248.795369 
L 252.392727 266.380573 
L 268.625455 265.149207 
L 284.858182 274.074187 
L 301.090909 256.208999 
L 317.323636 231.661551 
L 333.556364 262.152561 
L 349.789091 265.515829 
L 366.021818 261.640103 
L 382.254545 270.303583 
L 398.487273 275.067539 
" clip-path="url(#pce69387860)" style="fill: none; stroke: #440154; stroke-opacity: 0.5; stroke-width: 1.5; stroke-linecap: square"/>
   </g>
   <g id="line2d_22">
    <path d="M 73.832727 267.079824 
L 90.065455 259.357035 
L 106.298182 248.626701 
L 122.530909 244.980043 
L 138.763636 259.256024 
L 154.996364 248.784886 
L 171.229091 158.521137 
L 187.461818 243.261165 
L 203.694545 174.340285 
L 219.927273 261.463849 
L 236.16 269.087447 
L 252.392727 249.924248 
L 268.625455 256.510307 
L 284.858182 253.744914 
L 301.090909 277.278058 
L 317.323636 253.972707 
L 333.556364 260.660151 
L 349.789091 236.618007 
L 366.021818 248.117724 
L 382.254545 235.735057 
L 398.487273 209.142376 
" clip-path="url(#pce69387860)" style="fill: none; stroke: #440154; stroke-opacity: 0.5; stroke-width: 1.5; stroke-linecap: square"/>
   </g>
   <g id="line2d_23">
    <path d="M 73.832727 183.5833 
L 90.065455 207.869864 
L 106.298182 199.142303 
L 122.530909 187.559133 
L 138.763636 163.677407 
L 154.996364 210.633464 
L 171.229091 193.604248 
L 187.461818 217.966715 
L 203.694545 204.294123 
L 219.927273 218.230224 
L 236.16 229.509011 
L 252.392727 242.540012 
L 268.625455 224.518296 
L 284.858182 223.496795 
L 301.090909 226.026801 
L 317.323636 225.77371 
L 333.556364 228.278239 
L 349.789091 226.924274 
L 366.021818 199.251113 
L 382.254545 197.214849 
L 398.487273 202.196521 
" clip-path="url(#pce69387860)" style="fill: none; stroke: #440154; stroke-opacity: 0.5; stroke-width: 1.5; stroke-linecap: square"/>
   </g>
   <g id="line2d_24">
    <path d="M 73.832727 259.066174 
L 90.065455 254.138635 
L 106.298182 243.456368 
L 122.530909 269.607113 
L 138.763636 251.658194 
L 154.996364 254.427024 
L 171.229091 271.948857 
L 187.461818 260.983632 
L 203.694545 250.677978 
L 219.927273 229.200966 
L 236.16 238.183019 
L 252.392727 271.151844 
L 268.625455 267.188131 
L 284.858182 288.422343 
L 301.090909 260.688222 
L 317.323636 259.807874 
L 333.556364 240.248733 
L 349.789091 251.672947 
L 366.021818 270.414423 
L 382.254545 281.118993 
L 398.487273 200.086913 
" clip-path="url(#pce69387860)" style="fill: none; stroke: #440154; stroke-opacity: 0.5; stroke-width: 1.5; stroke-linecap: square"/>
   </g>
   <g id="line2d_25">
    <path d="M 73.832727 254.936324 
L 90.065455 187.531398 
L 106.298182 199.876484 
L 122.530909 247.57406 
L 138.763636 199.90334 
L 154.996364 262.040928 
L 171.229091 257.611939 
L 187.461818 262.366758 
L 203.694545 246.87647 
L 219.927273 235.419181 
L 236.16 270.889711 
L 252.392727 256.760152 
L 268.625455 269.541273 
L 284.858182 250.203878 
L 301.090909 262.046731 
L 317.323636 236.501991 
L 333.556364 229.496072 
L 349.789091 249.697226 
L 366.021818 215.197078 
L 382.254545 281.216868 
L 398.487273 268.588612 
" clip-path="url(#pce69387860)" style="fill: none; stroke: #440154; stroke-opacity: 0.5; stroke-width: 1.5; stroke-linecap: square"/>
   </g>
   <g id="line2d_26">
    <path d="M 73.832727 249.059211 
L 90.065455 207.606584 
L 106.298182 202.108774 
L 122.530909 262.363027 
L 138.763636 258.194902 
L 154.996364 272.124996 
L 171.229091 268.601151 
L 187.461818 276.258539 
L 203.694545 258.436342 
L 219.927273 237.88162 
L 236.16 232.708623 
L 252.392727 235.643078 
L 268.625455 251.897882 
L 284.858182 272.336644 
L 301.090909 279.686068 
L 317.323636 260.507865 
L 333.556364 276.354443 
L 349.789091 253.764481 
L 366.021818 266.100528 
L 382.254545 267.189509 
L 398.487273 260.197906 
" clip-path="url(#pce69387860)" style="fill: none; stroke: #440154; stroke-opacity: 0.5; stroke-width: 1.5; stroke-linecap: square"/>
   </g>
   <g id="line2d_27">
    <path d="M 73.832727 271.122388 
L 90.065455 272.970484 
L 106.298182 274.524768 
L 122.530909 274.868607 
L 138.763636 272.636692 
L 154.996364 268.570985 
L 171.229091 279.744467 
L 187.461818 281.904588 
L 203.694545 243.562273 
L 219.927273 231.104915 
L 236.16 265.835885 
L 252.392727 268.080791 
L 268.625455 271.88864 
L 284.858182 238.354993 
L 301.090909 274.746629 
L 317.323636 249.36033 
L 333.556364 249.685244 
L 349.789091 253.166171 
L 366.021818 271.945467 
L 382.254545 205.561554 
L 398.487273 265.129705 
" clip-path="url(#pce69387860)" style="fill: none; stroke: #440154; stroke-opacity: 0.5; stroke-width: 1.5; stroke-linecap: square"/>
   </g>
   <g id="line2d_28">
    <path d="M 73.832727 224.222202 
L 90.065455 227.049203 
L 106.298182 257.399156 
L 122.530909 261.335168 
L 138.763636 265.501653 
L 154.996364 259.966298 
L 171.229091 219.410647 
L 187.461818 253.101182 
L 203.694545 241.031238 
L 219.927273 263.850231 
L 236.16 262.089509 
L 252.392727 245.277724 
L 268.625455 259.32131 
L 284.858182 276.166997 
L 301.090909 265.778686 
L 317.323636 272.128659 
L 333.556364 222.818151 
L 349.789091 212.195315 
L 366.021818 243.876232 
L 382.254545 258.904059 
L 398.487273 252.254776 
" clip-path="url(#pce69387860)" style="fill: none; stroke: #440154; stroke-opacity: 0.5; stroke-width: 1.5; stroke-linecap: square"/>
   </g>
   <g id="line2d_29">
    <path d="M 73.832727 251.431839 
L 90.065455 195.372814 
L 106.298182 247.152527 
L 122.530909 242.966911 
L 138.763636 245.281288 
L 154.996364 266.128851 
L 171.229091 250.105375 
L 187.461818 254.748294 
L 203.694545 250.778732 
L 219.927273 239.498478 
L 236.16 272.613206 
L 252.392727 243.970755 
L 268.625455 242.498361 
L 284.858182 283.227488 
L 301.090909 281.68667 
L 317.323636 264.093088 
L 333.556364 248.199383 
L 349.789091 269.423197 
L 366.021818 276.660025 
L 382.254545 221.091949 
L 398.487273 240.067293 
" clip-path="url(#pce69387860)" style="fill: none; stroke: #440154; stroke-opacity: 0.5; stroke-width: 1.5; stroke-linecap: square"/>
   </g>
   <g id="line2d_30">
    <path d="M 73.832727 266.57627 
L 90.065455 269.765741 
L 106.298182 269.753244 
L 122.530909 281.552905 
L 138.763636 277.008768 
L 154.996364 279.064367 
L 171.229091 270.96377 
L 187.461818 252.865697 
L 203.694545 233.183584 
L 219.927273 272.898643 
L 236.16 273.415339 
L 252.392727 274.789095 
L 268.625455 277.853269 
L 284.858182 277.086507 
L 301.090909 274.481542 
L 317.323636 278.943657 
L 333.556364 272.885853 
L 349.789091 263.958205 
L 366.021818 277.52208 
L 382.254545 278.756947 
L 398.487273 268.375506 
" clip-path="url(#pce69387860)" style="fill: none; stroke: #440154; stroke-opacity: 0.5; stroke-width: 1.5; stroke-linecap: square"/>
   </g>
   <g id="line2d_31">
    <path d="M 73.832727 249.045368 
L 90.065455 238.474839 
L 106.298182 267.794413 
L 122.530909 262.771332 
L 138.763636 243.689962 
L 154.996364 254.901436 
L 171.229091 256.660643 
L 187.461818 273.507623 
L 203.694545 201.833117 
L 219.927273 258.072324 
L 236.16 250.663344 
L 252.392727 237.49868 
L 268.625455 254.710715 
L 284.858182 243.797279 
L 301.090909 233.405132 
L 317.323636 234.389345 
L 333.556364 262.607576 
L 349.789091 195.078859 
L 366.021818 231.815395 
L 382.254545 277.93882 
L 398.487273 250.608963 
" clip-path="url(#pce69387860)" style="fill: none; stroke: #440154; stroke-opacity: 0.5; stroke-width: 1.5; stroke-linecap: square"/>
   </g>
   <g id="line2d_32">
    <path d="M 73.832727 269.374125 
L 90.065455 250.204504 
L 106.298182 276.514226 
L 122.530909 275.42155 
L 138.763636 237.97713 
L 154.996364 254.53742 
L 171.229091 269.323386 
L 187.461818 222.464753 
L 203.694545 249.591196 
L 219.927273 272.622134 
L 236.16 264.570434 
L 252.392727 269.6266 
L 268.625455 252.595617 
L 284.858182 283.79511 
L 301.090909 264.385819 
L 317.323636 278.551126 
L 333.556364 273.462713 
L 349.789091 259.238834 
L 366.021818 279.989915 
L 382.254545 274.26747 
L 398.487273 242.321283 
" clip-path="url(#pce69387860)" style="fill: none; stroke: #440154; stroke-opacity: 0.5; stroke-width: 1.5; stroke-linecap: square"/>
   </g>
   <g id="line2d_33">
    <path d="M 73.832727 185.843443 
L 90.065455 185.358463 
L 106.298182 218.014581 
L 122.530909 177.214972 
L 138.763636 171.478958 
L 154.996364 216.62181 
L 171.229091 256.860628 
L 187.461818 258.215559 
L 203.694545 222.149375 
L 219.927273 262.756241 
L 236.16 256.356279 
L 252.392727 230.425454 
L 268.625455 266.137396 
L 284.858182 221.763914 
L 301.090909 242.890268 
L 317.323636 208.725263 
L 333.556364 227.754216 
L 349.789091 277.595662 
L 366.021818 270.682508 
L 382.254545 273.151285 
L 398.487273 202.151806 
" clip-path="url(#pce69387860)" style="fill: none; stroke: #440154; stroke-opacity: 0.5; stroke-width: 1.5; stroke-linecap: square"/>
   </g>
   <g id="line2d_34">
    <path d="M 73.832727 162.430766 
L 90.065455 220.815567 
L 106.298182 237.928233 
L 122.530909 244.493548 
L 138.763636 190.236955 
L 154.996364 253.479296 
L 171.229091 267.784564 
L 187.461818 266.036254 
L 203.694545 253.876808 
L 219.927273 259.573389 
L 236.16 247.409704 
L 252.392727 259.218443 
L 268.625455 248.505502 
L 284.858182 254.378462 
L 301.090909 243.100324 
L 317.323636 261.63835 
L 333.556364 273.313098 
L 349.789091 262.377641 
L 366.021818 268.002525 
L 382.254545 269.986668 
L 398.487273 259.328992 
" clip-path="url(#pce69387860)" style="fill: none; stroke: #440154; stroke-opacity: 0.5; stroke-width: 1.5; stroke-linecap: square"/>
   </g>
   <g id="line2d_35">
    <path d="M 73.832727 201.849393 
L 90.065455 158.007576 
L 106.298182 124.624553 
L 122.530909 218.12939 
L 138.763636 167.189407 
L 154.996364 202.529951 
L 171.229091 200.245237 
L 187.461818 230.108541 
L 203.694545 222.379218 
L 219.927273 262.762833 
L 236.16 143.889675 
L 252.392727 254.09581 
L 268.625455 258.074962 
L 284.858182 242.148477 
L 301.090909 183.284119 
L 317.323636 187.385138 
L 333.556364 227.558288 
L 349.789091 262.293429 
L 366.021818 214.440405 
L 382.254545 261.831104 
L 398.487273 178.629233 
" clip-path="url(#pce69387860)" style="fill: none; stroke: #440154; stroke-opacity: 0.5; stroke-width: 1.5; stroke-linecap: square"/>
   </g>
   <g id="line2d_36">
    <path d="M 73.832727 253.370051 
L 90.065455 240.52776 
L 106.298182 262.164548 
L 122.530909 267.494532 
L 138.763636 236.885384 
L 154.996364 270.470452 
L 171.229091 268.304152 
L 187.461818 263.375058 
L 203.694545 224.158988 
L 219.927273 206.753623 
L 236.16 261.012424 
L 252.392727 188.646609 
L 268.625455 166.794386 
L 284.858182 247.254689 
L 301.090909 269.742873 
L 317.323636 279.321267 
L 333.556364 194.035581 
L 349.789091 216.795254 
L 366.021818 258.005796 
L 382.254545 227.36327 
L 398.487273 268.592566 
" clip-path="url(#pce69387860)" style="fill: none; stroke: #440154; stroke-opacity: 0.5; stroke-width: 1.5; stroke-linecap: square"/>
   </g>
   <g id="line2d_37">
    <path d="M 73.832727 231.226617 
L 90.065455 172.994912 
L 106.298182 187.62544 
L 122.530909 188.269903 
L 138.763636 219.976225 
L 154.996364 185.180525 
L 171.229091 181.677051 
L 187.461818 221.214764 
L 203.694545 199.8822 
L 219.927273 178.616506 
L 236.16 228.995073 
L 252.392727 232.756229 
L 268.625455 233.685577 
L 284.858182 242.585758 
L 301.090909 218.769433 
L 317.323636 238.64197 
L 333.556364 193.972185 
L 349.789091 233.658017 
L 366.021818 239.389862 
L 382.254545 214.312857 
L 398.487273 188.114997 
" clip-path="url(#pce69387860)" style="fill: none; stroke: #440154; stroke-opacity: 0.5; stroke-width: 1.5; stroke-linecap: square"/>
   </g>
   <g id="line2d_38">
    <path d="M 73.832727 286.201353 
L 90.065455 280.412967 
L 106.298182 274.006556 
L 122.530909 277.554469 
L 138.763636 273.184643 
L 154.996364 252.549923 
L 171.229091 276.131403 
L 187.461818 275.293455 
L 203.694545 264.13188 
L 219.927273 274.602314 
L 236.16 275.810699 
L 252.392727 269.665869 
L 268.625455 265.337289 
L 284.858182 265.352944 
L 301.090909 280.482281 
L 317.323636 268.632034 
L 333.556364 280.701125 
L 349.789091 269.043451 
L 366.021818 248.619148 
L 382.254545 252.526956 
L 398.487273 252.35154 
" clip-path="url(#pce69387860)" style="fill: none; stroke: #440154; stroke-opacity: 0.5; stroke-width: 1.5; stroke-linecap: square"/>
   </g>
   <g id="line2d_39">
    <path d="M 73.832727 275.093399 
L 90.065455 263.23413 
L 106.298182 275.067256 
L 122.530909 267.506928 
L 138.763636 261.761624 
L 154.996364 280.923411 
L 171.229091 264.49836 
L 187.461818 267.8907 
L 203.694545 253.337778 
L 219.927273 263.69288 
L 236.16 268.795739 
L 252.392727 264.827135 
L 268.625455 258.842815 
L 284.858182 278.477606 
L 301.090909 270.380253 
L 317.323636 278.486704 
L 333.556364 274.541186 
L 349.789091 280.835619 
L 366.021818 267.081354 
L 382.254545 275.401783 
L 398.487273 263.894227 
" clip-path="url(#pce69387860)" style="fill: none; stroke: #440154; stroke-opacity: 0.5; stroke-width: 1.5; stroke-linecap: square"/>
   </g>
   <g id="line2d_40">
    <path d="M 73.832727 235.256735 
L 90.065455 256.654747 
L 106.298182 257.422424 
L 122.530909 260.115286 
L 138.763636 290.419356 
L 154.996364 268.114706 
L 171.229091 270.079381 
L 187.461818 260.837099 
L 203.694545 282.460641 
L 219.927273 274.665037 
L 236.16 226.252492 
L 252.392727 246.787953 
L 268.625455 257.153241 
L 284.858182 250.261202 
L 301.090909 259.995019 
L 317.323636 250.218468 
L 333.556364 268.263212 
L 349.789091 253.498872 
L 366.021818 272.393263 
L 382.254545 276.302448 
L 398.487273 273.188465 
" clip-path="url(#pce69387860)" style="fill: none; stroke: #440154; stroke-opacity: 0.5; stroke-width: 1.5; stroke-linecap: square"/>
   </g>
   <g id="line2d_41">
    <path d="M 73.832727 231.924722 
L 90.065455 262.811152 
L 106.298182 256.377802 
L 122.530909 252.743708 
L 138.763636 267.998824 
L 154.996364 213.855188 
L 171.229091 260.386313 
L 187.461818 268.586825 
L 203.694545 277.058251 
L 219.927273 263.56654 
L 236.16 285.174925 
L 252.392727 259.973095 
L 268.625455 275.030189 
L 284.858182 235.875446 
L 301.090909 268.197016 
L 317.323636 261.970907 
L 333.556364 251.355642 
L 349.789091 266.681782 
L 366.021818 251.996864 
L 382.254545 272.191343 
L 398.487273 259.495548 
" clip-path="url(#pce69387860)" style="fill: none; stroke: #440154; stroke-opacity: 0.5; stroke-width: 1.5; stroke-linecap: square"/>
   </g>
   <g id="line2d_42">
    <path d="M 73.832727 236.909129 
L 90.065455 255.827195 
L 106.298182 252.830201 
L 122.530909 241.435728 
L 138.763636 256.964592 
L 154.996364 265.110567 
L 171.229091 274.536115 
L 187.461818 275.686885 
L 203.694545 269.320703 
L 219.927273 264.704864 
L 236.16 238.189071 
L 252.392727 266.4062 
L 268.625455 256.459063 
L 284.858182 256.18029 
L 301.090909 225.952386 
L 317.323636 268.60099 
L 333.556364 250.512091 
L 349.789091 247.180886 
L 366.021818 281.76485 
L 382.254545 229.518626 
L 398.487273 256.542165 
" clip-path="url(#pce69387860)" style="fill: none; stroke: #440154; stroke-opacity: 0.5; stroke-width: 1.5; stroke-linecap: square"/>
   </g>
   <g id="line2d_43">
    <path d="M 73.832727 231.259147 
L 90.065455 249.838248 
L 106.298182 248.732876 
L 122.530909 253.159583 
L 138.763636 269.364996 
L 154.996364 265.278679 
L 171.229091 263.888488 
L 187.461818 261.771564 
L 203.694545 265.553839 
L 219.927273 275.609415 
L 236.16 268.775384 
L 252.392727 275.128091 
L 268.625455 244.03019 
L 284.858182 272.642801 
L 301.090909 240.105064 
L 317.323636 252.083661 
L 333.556364 248.552495 
L 349.789091 249.646729 
L 366.021818 242.40356 
L 382.254545 230.977007 
L 398.487273 276.896225 
" clip-path="url(#pce69387860)" style="fill: none; stroke: #440154; stroke-opacity: 0.5; stroke-width: 1.5; stroke-linecap: square"/>
   </g>
   <g id="line2d_44">
    <path d="M 73.832727 275.496721 
L 90.065455 254.11806 
L 106.298182 255.013234 
L 122.530909 253.567303 
L 138.763636 277.135302 
L 154.996364 254.615291 
L 171.229091 259.531462 
L 187.461818 279.270673 
L 203.694545 264.951162 
L 219.927273 272.025075 
L 236.16 267.137806 
L 252.392727 266.694519 
L 268.625455 266.057459 
L 284.858182 267.087163 
L 301.090909 270.073529 
L 317.323636 253.132778 
L 333.556364 270.743509 
L 349.789091 265.482232 
L 366.021818 275.569303 
L 382.254545 280.592252 
L 398.487273 267.071677 
" clip-path="url(#pce69387860)" style="fill: none; stroke: #440154; stroke-opacity: 0.5; stroke-width: 1.5; stroke-linecap: square"/>
   </g>
   <g id="line2d_45">
    <path d="M 73.832727 273.348589 
L 90.065455 253.843651 
L 106.298182 250.920481 
L 122.530909 244.302204 
L 138.763636 255.804479 
L 154.996364 269.44643 
L 171.229091 252.462401 
L 187.461818 258.204706 
L 203.694545 282.460769 
L 219.927273 273.13796 
L 236.16 244.344272 
L 252.392727 263.866476 
L 268.625455 262.362175 
L 284.858182 267.673961 
L 301.090909 267.342857 
L 317.323636 270.926823 
L 333.556364 237.291813 
L 349.789091 260.839792 
L 366.021818 265.814683 
L 382.254545 269.578184 
L 398.487273 234.090384 
" clip-path="url(#pce69387860)" style="fill: none; stroke: #440154; stroke-opacity: 0.5; stroke-width: 1.5; stroke-linecap: square"/>
   </g>
   <g id="line2d_46">
    <path d="M 73.832727 237.378262 
L 90.065455 240.769117 
L 106.298182 251.465291 
L 122.530909 218.140765 
L 138.763636 248.415111 
L 154.996364 273.269474 
L 171.229091 265.864131 
L 187.461818 256.552033 
L 203.694545 278.473648 
L 219.927273 253.008262 
L 236.16 266.259991 
L 252.392727 270.914247 
L 268.625455 262.233935 
L 284.858182 267.090836 
L 301.090909 263.170821 
L 317.323636 248.766835 
L 333.556364 258.564151 
L 349.789091 258.883629 
L 366.021818 267.494563 
L 382.254545 265.963253 
L 398.487273 261.6086 
" clip-path="url(#pce69387860)" style="fill: none; stroke: #440154; stroke-opacity: 0.5; stroke-width: 1.5; stroke-linecap: square"/>
   </g>
   <g id="line2d_47">
    <path d="M 73.832727 269.832717 
L 90.065455 268.469632 
L 106.298182 275.404668 
L 122.530909 267.313254 
L 138.763636 268.806093 
L 154.996364 268.752371 
L 171.229091 178.634415 
L 187.461818 254.92255 
L 203.694545 256.487714 
L 219.927273 254.683555 
L 236.16 264.125233 
L 252.392727 278.458849 
L 268.625455 207.217573 
L 284.858182 258.797763 
L 301.090909 261.552523 
L 317.323636 248.575908 
L 333.556364 242.100019 
L 349.789091 243.94134 
L 366.021818 257.876338 
L 382.254545 258.53051 
L 398.487273 263.262847 
" clip-path="url(#pce69387860)" style="fill: none; stroke: #440154; stroke-opacity: 0.5; stroke-width: 1.5; stroke-linecap: square"/>
   </g>
   <g id="line2d_48">
    <path d="M 73.832727 261.609483 
L 90.065455 246.251106 
L 106.298182 262.242168 
L 122.530909 243.623073 
L 138.763636 229.238975 
L 154.996364 270.011337 
L 171.229091 224.108924 
L 187.461818 267.146221 
L 203.694545 266.293956 
L 219.927273 257.020659 
L 236.16 255.08283 
L 252.392727 221.601453 
L 268.625455 247.222241 
L 284.858182 273.838452 
L 301.090909 192.199936 
L 317.323636 239.785646 
L 333.556364 243.938297 
L 349.789091 258.512833 
L 366.021818 261.897143 
L 382.254545 244.037265 
L 398.487273 258.214988 
" clip-path="url(#pce69387860)" style="fill: none; stroke: #440154; stroke-opacity: 0.5; stroke-width: 1.5; stroke-linecap: square"/>
   </g>
   <g id="line2d_49">
    <path d="M 73.832727 195.774384 
L 90.065455 230.008663 
L 106.298182 215.543923 
L 122.530909 234.616947 
L 138.763636 251.344615 
L 154.996364 189.862343 
L 171.229091 258.969422 
L 187.461818 266.935372 
L 203.694545 270.92975 
L 219.927273 250.658951 
L 236.16 266.64165 
L 252.392727 271.484233 
L 268.625455 264.929125 
L 284.858182 219.374822 
L 301.090909 276.595074 
L 317.323636 267.096629 
L 333.556364 249.526891 
L 349.789091 276.472611 
L 366.021818 256.619187 
L 382.254545 252.263944 
L 398.487273 254.901598 
" clip-path="url(#pce69387860)" style="fill: none; stroke: #440154; stroke-opacity: 0.5; stroke-width: 1.5; stroke-linecap: square"/>
   </g>
   <g id="line2d_50">
    <path d="M 73.832727 244.600687 
L 90.065455 256.997509 
L 106.298182 257.543933 
L 122.530909 274.691565 
L 138.763636 192.473797 
L 154.996364 269.025459 
L 171.229091 263.583633 
L 187.461818 195.355579 
L 203.694545 236.608833 
L 219.927273 211.622589 
L 236.16 219.78756 
L 252.392727 256.655491 
L 268.625455 273.718035 
L 284.858182 237.516794 
L 301.090909 267.857573 
L 317.323636 276.258707 
L 333.556364 269.038377 
L 349.789091 272.530336 
L 366.021818 261.064532 
L 382.254545 225.989164 
L 398.487273 269.382025 
" clip-path="url(#pce69387860)" style="fill: none; stroke: #440154; stroke-opacity: 0.5; stroke-width: 1.5; stroke-linecap: square"/>
   </g>
   <g id="line2d_51">
    <path d="M 73.832727 192.659817 
L 90.065455 239.844005 
L 106.298182 237.011213 
L 122.530909 253.332723 
L 138.763636 215.292812 
L 154.996364 228.61174 
L 171.229091 160.839842 
L 187.461818 198.670975 
L 203.694545 209.08077 
L 219.927273 204.3995 
L 236.16 208.90589 
L 252.392727 170.922074 
L 268.625455 207.135738 
L 284.858182 154.395235 
L 301.090909 194.23851 
L 317.323636 150.48638 
L 333.556364 215.663523 
L 349.789091 176.982265 
L 366.021818 231.242656 
L 382.254545 220.938609 
L 398.487273 213.740572 
" clip-path="url(#pce69387860)" style="fill: none; stroke: #440154; stroke-opacity: 0.5; stroke-width: 1.5; stroke-linecap: square"/>
   </g>
   <g id="line2d_52">
    <path d="M 73.832727 167.282663 
L 90.065455 110.322764 
L 106.298182 92.65788 
L 122.530909 138.769025 
L 138.763636 127.652074 
L 154.996364 179.66507 
L 171.229091 195.035959 
L 187.461818 252.300496 
L 203.694545 247.086049 
L 219.927273 221.072511 
L 236.16 226.705842 
L 252.392727 220.578585 
L 268.625455 216.6666 
L 284.858182 217.061867 
L 301.090909 190.469671 
L 317.323636 243.209636 
L 333.556364 260.037638 
L 349.789091 272.067178 
L 366.021818 284.673805 
L 382.254545 271.070402 
L 398.487273 268.414767 
" clip-path="url(#pce69387860)" style="fill: none; stroke: #440154; stroke-opacity: 0.5; stroke-width: 1.5; stroke-linecap: square"/>
   </g>
   <g id="line2d_53">
    <path d="M 73.832727 185.054796 
L 90.065455 112.546051 
L 106.298182 157.177418 
L 122.530909 142.390926 
L 138.763636 162.698874 
L 154.996364 163.648852 
L 171.229091 136.332988 
L 187.461818 248.5201 
L 203.694545 251.742308 
L 219.927273 254.674257 
L 236.16 243.161905 
L 252.392727 269.111154 
L 268.625455 249.483225 
L 284.858182 246.80215 
L 301.090909 222.681461 
L 317.323636 246.459528 
L 333.556364 216.017398 
L 349.789091 255.375546 
L 366.021818 254.588005 
L 382.254545 259.779899 
L 398.487273 246.636289 
" clip-path="url(#pce69387860)" style="fill: none; stroke: #440154; stroke-opacity: 0.5; stroke-width: 1.5; stroke-linecap: square"/>
   </g>
   <g id="line2d_54">
    <path d="M 73.832727 215.269426 
L 90.065455 214.470265 
L 106.298182 156.406395 
L 122.530909 190.738909 
L 138.763636 192.898056 
L 154.996364 213.998047 
L 171.229091 194.056305 
L 187.461818 200.876112 
L 203.694545 217.483936 
L 219.927273 226.10758 
L 236.16 227.908131 
L 252.392727 234.15849 
L 268.625455 238.120895 
L 284.858182 227.247629 
L 301.090909 217.132109 
L 317.323636 217.51766 
L 333.556364 232.953884 
L 349.789091 222.315344 
L 366.021818 222.894251 
L 382.254545 232.978056 
L 398.487273 212.129848 
" clip-path="url(#pce69387860)" style="fill: none; stroke: #440154; stroke-opacity: 0.5; stroke-width: 1.5; stroke-linecap: square"/>
   </g>
   <g id="line2d_55">
    <path d="M 73.832727 248.542868 
L 90.065455 202.993968 
L 106.298182 186.029175 
L 122.530909 219.545505 
L 138.763636 204.810638 
L 154.996364 259.97737 
L 171.229091 230.839586 
L 187.461818 218.6442 
L 203.694545 268.390772 
L 219.927273 280.24067 
L 236.16 241.912748 
L 252.392727 263.745244 
L 268.625455 284.430111 
L 284.858182 272.904458 
L 301.090909 275.473653 
L 317.323636 278.7525 
L 333.556364 284.698543 
L 349.789091 276.521084 
L 366.021818 271.405564 
L 382.254545 258.978674 
L 398.487273 270.059922 
" clip-path="url(#pce69387860)" style="fill: none; stroke: #440154; stroke-opacity: 0.5; stroke-width: 1.5; stroke-linecap: square"/>
   </g>
   <g id="line2d_56">
    <path d="M 73.832727 196.667377 
L 90.065455 220.131663 
L 106.298182 193.259114 
L 122.530909 249.086871 
L 138.763636 267.464641 
L 154.996364 260.180927 
L 171.229091 216.322378 
L 187.461818 208.552141 
L 203.694545 243.648048 
L 219.927273 261.835416 
L 236.16 267.419678 
L 252.392727 263.740095 
L 268.625455 272.941519 
L 284.858182 270.607877 
L 301.090909 282.075013 
L 317.323636 285.221397 
L 333.556364 285.899529 
L 349.789091 289.953466 
L 366.021818 260.869159 
L 382.254545 250.412308 
L 398.487273 295.488 
" clip-path="url(#pce69387860)" style="fill: none; stroke: #440154; stroke-opacity: 0.5; stroke-width: 1.5; stroke-linecap: square"/>
   </g>
   <g id="line2d_57">
    <path d="M 73.832727 220.720335 
L 90.065455 229.080699 
L 106.298182 210.677256 
L 122.530909 252.20569 
L 138.763636 241.383829 
L 154.996364 212.53664 
L 171.229091 227.006514 
L 187.461818 206.168082 
L 203.694545 215.155927 
L 219.927273 177.826227 
L 236.16 174.181937 
L 252.392727 188.011385 
L 268.625455 203.081115 
L 284.858182 173.285591 
L 301.090909 202.807586 
L 317.323636 209.849277 
L 333.556364 178.174701 
L 349.789091 187.486665 
L 366.021818 211.602562 
L 382.254545 234.798927 
L 398.487273 198.868521 
" clip-path="url(#pce69387860)" style="fill: none; stroke: #440154; stroke-opacity: 0.5; stroke-width: 1.5; stroke-linecap: square"/>
   </g>
   <g id="line2d_58">
    <path d="M 73.832727 193.694788 
L 90.065455 144.128164 
L 106.298182 170.618644 
L 122.530909 171.900436 
L 138.763636 182.654631 
L 154.996364 164.416779 
L 171.229091 247.203629 
L 187.461818 195.963395 
L 203.694545 227.597238 
L 219.927273 227.206675 
L 236.16 253.238614 
L 252.392727 243.382218 
L 268.625455 232.304235 
L 284.858182 249.360482 
L 301.090909 236.609182 
L 317.323636 242.456606 
L 333.556364 246.137292 
L 349.789091 241.701007 
L 366.021818 247.512317 
L 382.254545 239.686437 
L 398.487273 243.596987 
" clip-path="url(#pce69387860)" style="fill: none; stroke: #440154; stroke-opacity: 0.5; stroke-width: 1.5; stroke-linecap: square"/>
   </g>
   <g id="line2d_59">
    <path d="M 73.832727 169.407788 
L 90.065455 167.556829 
L 106.298182 176.415367 
L 122.530909 191.487538 
L 138.763636 194.729715 
L 154.996364 207.253314 
L 171.229091 198.277382 
L 187.461818 184.234341 
L 203.694545 258.219675 
L 219.927273 255.629375 
L 236.16 219.772719 
L 252.392727 246.661957 
L 268.625455 240.195937 
L 284.858182 265.204589 
L 301.090909 254.207105 
L 317.323636 202.57204 
L 333.556364 232.200717 
L 349.789091 261.064138 
L 366.021818 238.085729 
L 382.254545 238.44219 
L 398.487273 234.45647 
" clip-path="url(#pce69387860)" style="fill: none; stroke: #440154; stroke-opacity: 0.5; stroke-width: 1.5; stroke-linecap: square"/>
   </g>
   <g id="line2d_60">
    <path d="M 73.832727 150.692445 
L 90.065455 214.992452 
L 106.298182 209.006766 
L 122.530909 231.12779 
L 138.763636 215.566781 
L 154.996364 252.840296 
L 171.229091 164.578536 
L 187.461818 198.301909 
L 203.694545 151.849991 
L 219.927273 194.112205 
L 236.16 237.137736 
L 252.392727 179.668353 
L 268.625455 203.527303 
L 284.858182 214.435096 
L 301.090909 194.335098 
L 317.323636 226.758436 
L 333.556364 210.678204 
L 349.789091 231.721511 
L 366.021818 237.157482 
L 382.254545 266.530625 
L 398.487273 224.027412 
" clip-path="url(#pce69387860)" style="fill: none; stroke: #440154; stroke-opacity: 0.5; stroke-width: 1.5; stroke-linecap: square"/>
   </g>
   <g id="line2d_61">
    <path d="M 73.832727 177.655476 
L 90.065455 160.98625 
L 106.298182 243.131438 
L 122.530909 210.775265 
L 138.763636 205.14943 
L 154.996364 217.379204 
L 171.229091 152.096317 
L 187.461818 174.092814 
L 203.694545 175.268121 
L 219.927273 197.392925 
L 236.16 217.6288 
L 252.392727 195.553294 
L 268.625455 186.960153 
L 284.858182 210.423175 
L 301.090909 172.867818 
L 317.323636 194.569869 
L 333.556364 182.136689 
L 349.789091 194.202186 
L 366.021818 204.353488 
L 382.254545 238.64876 
L 398.487273 220.689675 
" clip-path="url(#pce69387860)" style="fill: none; stroke: #440154; stroke-opacity: 0.5; stroke-width: 1.5; stroke-linecap: square"/>
   </g>
   <g id="line2d_62">
    <path d="M 73.832727 219.970039 
L 90.065455 192.219005 
L 106.298182 192.866818 
L 122.530909 215.040328 
L 138.763636 210.273575 
L 154.996364 200.124455 
L 171.229091 185.376371 
L 187.461818 211.50988 
L 203.694545 215.589397 
L 219.927273 201.90673 
L 236.16 186.815927 
L 252.392727 190.498004 
L 268.625455 220.577323 
L 284.858182 207.35909 
L 301.090909 208.806155 
L 317.323636 206.569844 
L 333.556364 217.854632 
L 349.789091 208.545028 
L 366.021818 213.673159 
L 382.254545 240.228758 
L 398.487273 191.395731 
" clip-path="url(#pce69387860)" style="fill: none; stroke: #440154; stroke-opacity: 0.5; stroke-width: 1.5; stroke-linecap: square"/>
   </g>
   <g id="line2d_63">
    <path d="M 73.832727 158.672204 
L 90.065455 228.352154 
L 106.298182 214.888117 
L 122.530909 224.026544 
L 138.763636 250.318818 
L 154.996364 240.72872 
L 171.229091 273.808631 
L 187.461818 271.045467 
L 203.694545 246.448398 
L 219.927273 248.866103 
L 236.16 247.150383 
L 252.392727 238.730506 
L 268.625455 251.643772 
L 284.858182 250.135715 
L 301.090909 266.878813 
L 317.323636 281.037602 
L 333.556364 286.839035 
L 349.789091 288.810554 
L 366.021818 271.041126 
L 382.254545 264.292643 
L 398.487273 266.811566 
" clip-path="url(#pce69387860)" style="fill: none; stroke: #440154; stroke-opacity: 0.5; stroke-width: 1.5; stroke-linecap: square"/>
   </g>
   <g id="line2d_64">
    <path d="M 73.832727 182.032294 
L 90.065455 189.993636 
L 106.298182 165.533921 
L 122.530909 173.708656 
L 138.763636 224.557824 
L 154.996364 208.266513 
L 171.229091 261.61839 
L 187.461818 261.035135 
L 203.694545 220.260162 
L 219.927273 255.264367 
L 236.16 226.896617 
L 252.392727 235.92256 
L 268.625455 223.662828 
L 284.858182 241.357686 
L 301.090909 230.347476 
L 317.323636 264.972457 
L 333.556364 282.569087 
L 349.789091 268.870985 
L 366.021818 225.813697 
L 382.254545 280.661458 
L 398.487273 253.53014 
" clip-path="url(#pce69387860)" style="fill: none; stroke: #440154; stroke-opacity: 0.5; stroke-width: 1.5; stroke-linecap: square"/>
   </g>
   <g id="line2d_65">
    <path d="M 73.832727 220.571496 
L 90.065455 204.020497 
L 106.298182 213.412753 
L 122.530909 213.769423 
L 138.763636 200.051646 
L 154.996364 211.447767 
L 171.229091 218.758774 
L 187.461818 194.274314 
L 203.694545 216.976226 
L 219.927273 220.397985 
L 236.16 176.000692 
L 252.392727 206.572851 
L 268.625455 221.444124 
L 284.858182 233.837824 
L 301.090909 237.02931 
L 317.323636 214.00873 
L 333.556364 228.601582 
L 349.789091 206.023283 
L 366.021818 196.287972 
L 382.254545 196.497074 
L 398.487273 206.377909 
" clip-path="url(#pce69387860)" style="fill: none; stroke: #440154; stroke-opacity: 0.5; stroke-width: 1.5; stroke-linecap: square"/>
   </g>
   <g id="line2d_66">
    <path d="M 73.832727 225.150657 
L 90.065455 227.650222 
L 106.298182 237.206384 
L 122.530909 252.416624 
L 138.763636 245.508369 
L 154.996364 251.765666 
L 171.229091 223.088451 
L 187.461818 232.40606 
L 203.694545 254.315939 
L 219.927273 266.394138 
L 236.16 257.786038 
L 252.392727 234.35333 
L 268.625455 250.835858 
L 284.858182 257.567111 
L 301.090909 241.741006 
L 317.323636 250.921177 
L 333.556364 242.670112 
L 349.789091 251.031788 
L 366.021818 267.82683 
L 382.254545 255.21798 
L 398.487273 233.37158 
" clip-path="url(#pce69387860)" style="fill: none; stroke: #440154; stroke-opacity: 0.5; stroke-width: 1.5; stroke-linecap: square"/>
   </g>
   <g id="line2d_67">
    <path d="M 73.832727 144.901488 
L 90.065455 186.006894 
L 106.298182 176.281998 
L 122.530909 196.164611 
L 138.763636 221.687148 
L 154.996364 228.370554 
L 171.229091 231.031665 
L 187.461818 216.461295 
L 203.694545 179.521774 
L 219.927273 207.177382 
L 236.16 214.392224 
L 252.392727 201.490975 
L 268.625455 169.119555 
L 284.858182 227.781126 
L 301.090909 188.226928 
L 317.323636 239.464607 
L 333.556364 219.199006 
L 349.789091 244.678869 
L 366.021818 230.843481 
L 382.254545 220.443965 
L 398.487273 233.731133 
" clip-path="url(#pce69387860)" style="fill: none; stroke: #440154; stroke-opacity: 0.5; stroke-width: 1.5; stroke-linecap: square"/>
   </g>
   <g id="line2d_68">
    <path d="M 73.832727 194.692105 
L 90.065455 191.479025 
L 106.298182 183.107191 
L 122.530909 216.622734 
L 138.763636 233.683058 
L 154.996364 230.192013 
L 171.229091 209.822564 
L 187.461818 239.409232 
L 203.694545 233.521271 
L 219.927273 258.216508 
L 236.16 256.281379 
L 252.392727 234.025057 
L 268.625455 260.078112 
L 284.858182 270.323927 
L 301.090909 279.294844 
L 317.323636 247.218399 
L 333.556364 257.422141 
L 349.789091 235.714417 
L 366.021818 249.669389 
L 382.254545 244.676288 
L 398.487273 221.570738 
" clip-path="url(#pce69387860)" style="fill: none; stroke: #440154; stroke-opacity: 0.5; stroke-width: 1.5; stroke-linecap: square"/>
   </g>
   <g id="line2d_69">
    <path d="M 73.832727 157.699199 
L 90.065455 172.562763 
L 106.298182 152.156819 
L 122.530909 172.771255 
L 138.763636 209.242816 
L 154.996364 217.966599 
L 171.229091 167.52949 
L 187.461818 102.783253 
L 203.694545 94.383348 
L 219.927273 203.240362 
L 236.16 176.320387 
L 252.392727 165.927736 
L 268.625455 198.812747 
L 284.858182 206.193379 
L 301.090909 201.937652 
L 317.323636 170.675116 
L 333.556364 181.044114 
L 349.789091 160.494704 
L 366.021818 202.680253 
L 382.254545 203.881587 
L 398.487273 179.23348 
" clip-path="url(#pce69387860)" style="fill: none; stroke: #440154; stroke-opacity: 0.5; stroke-width: 1.5; stroke-linecap: square"/>
   </g>
   <g id="line2d_70">
    <path d="M 73.832727 183.594541 
L 90.065455 173.549882 
L 106.298182 183.446655 
L 122.530909 230.922502 
L 138.763636 243.746905 
L 154.996364 204.955362 
L 171.229091 239.944358 
L 187.461818 227.940908 
L 203.694545 212.102954 
L 219.927273 234.943827 
L 236.16 229.308914 
L 252.392727 232.059364 
L 268.625455 243.556385 
L 284.858182 257.136417 
L 301.090909 258.391636 
L 317.323636 228.62966 
L 333.556364 257.349583 
L 349.789091 239.683469 
L 366.021818 202.362047 
L 382.254545 198.684413 
L 398.487273 225.1741 
" clip-path="url(#pce69387860)" style="fill: none; stroke: #440154; stroke-opacity: 0.5; stroke-width: 1.5; stroke-linecap: square"/>
   </g>
   <g id="line2d_71">
    <path d="M 73.832727 239.322108 
L 90.065455 252.490935 
L 106.298182 261.265942 
L 122.530909 266.939323 
L 138.763636 254.389379 
L 154.996364 277.664418 
L 171.229091 285.68226 
L 187.461818 285.081834 
L 203.694545 264.733941 
L 219.927273 284.610184 
L 236.16 255.228333 
L 252.392727 261.145388 
L 268.625455 260.828971 
L 284.858182 273.323616 
L 301.090909 269.860747 
L 317.323636 216.722876 
L 333.556364 228.940748 
L 349.789091 266.964442 
L 366.021818 273.193272 
L 382.254545 237.662434 
L 398.487273 223.227856 
" clip-path="url(#pce69387860)" style="fill: none; stroke: #440154; stroke-opacity: 0.5; stroke-width: 1.5; stroke-linecap: square"/>
   </g>
   <g id="line2d_72">
    <path d="M 73.832727 236.982288 
L 90.065455 241.26463 
L 106.298182 243.145254 
L 122.530909 242.664409 
L 138.763636 267.619454 
L 154.996364 263.627402 
L 171.229091 259.062236 
L 187.461818 264.331197 
L 203.694545 268.263758 
L 219.927273 281.064874 
L 236.16 277.631933 
L 252.392727 258.690351 
L 268.625455 276.710396 
L 284.858182 270.211566 
L 301.090909 280.912275 
L 317.323636 289.765952 
L 333.556364 269.633002 
L 349.789091 265.845091 
L 366.021818 273.74002 
L 382.254545 257.641693 
L 398.487273 278.026173 
" clip-path="url(#pce69387860)" style="fill: none; stroke: #440154; stroke-opacity: 0.5; stroke-width: 1.5; stroke-linecap: square"/>
   </g>
   <g id="line2d_73">
    <path d="M 73.832727 199.819585 
L 90.065455 234.261061 
L 106.298182 237.613582 
L 122.530909 238.169135 
L 138.763636 235.262548 
L 154.996364 247.16045 
L 171.229091 239.104761 
L 187.461818 228.413015 
L 203.694545 232.995156 
L 219.927273 204.909173 
L 236.16 249.19602 
L 252.392727 225.004062 
L 268.625455 209.4282 
L 284.858182 254.4004 
L 301.090909 225.316853 
L 317.323636 223.151562 
L 333.556364 249.559424 
L 349.789091 206.231552 
L 366.021818 251.022554 
L 382.254545 243.017168 
L 398.487273 237.804087 
" clip-path="url(#pce69387860)" style="fill: none; stroke: #440154; stroke-opacity: 0.5; stroke-width: 1.5; stroke-linecap: square"/>
   </g>
   <g id="line2d_74">
    <path d="M 73.832727 225.070518 
L 90.065455 236.800937 
L 106.298182 245.851261 
L 122.530909 224.053958 
L 138.763636 187.84807 
L 154.996364 234.014478 
L 171.229091 251.986376 
L 187.461818 262.381757 
L 203.694545 255.210715 
L 219.927273 240.073326 
L 236.16 248.632831 
L 252.392727 243.583048 
L 268.625455 237.794442 
L 284.858182 249.355529 
L 301.090909 245.412811 
L 317.323636 239.683258 
L 333.556364 216.215661 
L 349.789091 234.201576 
L 366.021818 250.191698 
L 382.254545 265.976031 
L 398.487273 231.321754 
" clip-path="url(#pce69387860)" style="fill: none; stroke: #440154; stroke-opacity: 0.5; stroke-width: 1.5; stroke-linecap: square"/>
   </g>
   <g id="line2d_75">
    <path d="M 73.832727 226.777645 
L 90.065455 235.328535 
L 106.298182 202.417592 
L 122.530909 224.916299 
L 138.763636 189.245058 
L 154.996364 214.378513 
L 171.229091 127.893963 
L 187.461818 239.71433 
L 203.694545 225.89998 
L 219.927273 220.672392 
L 236.16 241.999913 
L 252.392727 195.186417 
L 268.625455 226.140607 
L 284.858182 234.227649 
L 301.090909 185.840799 
L 317.323636 240.461812 
L 333.556364 235.133272 
L 349.789091 253.927876 
L 366.021818 243.401645 
L 382.254545 257.233083 
L 398.487273 157.926991 
" clip-path="url(#pce69387860)" style="fill: none; stroke: #440154; stroke-opacity: 0.5; stroke-width: 1.5; stroke-linecap: square"/>
   </g>
   <g id="line2d_76">
    <path d="M 73.832727 226.243912 
L 90.065455 213.282494 
L 106.298182 217.623717 
L 122.530909 189.745149 
L 138.763636 227.003507 
L 154.996364 226.827394 
L 171.229091 183.072294 
L 187.461818 189.14173 
L 203.694545 231.87609 
L 219.927273 275.309945 
L 236.16 284.592755 
L 252.392727 272.534728 
L 268.625455 277.017928 
L 284.858182 287.525092 
L 301.090909 273.004885 
L 317.323636 271.698556 
L 333.556364 265.683668 
L 349.789091 276.486659 
L 366.021818 273.800999 
L 382.254545 254.483778 
L 398.487273 289.089684 
" clip-path="url(#pce69387860)" style="fill: none; stroke: #440154; stroke-opacity: 0.5; stroke-width: 1.5; stroke-linecap: square"/>
   </g>
   <g id="line2d_77">
    <path d="M 73.832727 159.327101 
L 90.065455 130.846608 
L 106.298182 138.482716 
L 122.530909 133.201258 
L 138.763636 147.635827 
L 154.996364 151.913579 
L 171.229091 166.520736 
L 187.461818 148.255204 
L 203.694545 208.277411 
L 219.927273 227.55217 
L 236.16 223.419879 
L 252.392727 215.524903 
L 268.625455 223.956464 
L 284.858182 267.506523 
L 301.090909 263.93758 
L 317.323636 247.957215 
L 333.556364 208.389166 
L 349.789091 230.808458 
L 366.021818 240.071936 
L 382.254545 264.134834 
L 398.487273 242.030313 
" clip-path="url(#pce69387860)" style="fill: none; stroke: #440154; stroke-opacity: 0.5; stroke-width: 1.5; stroke-linecap: square"/>
   </g>
   <g id="line2d_78">
    <path d="M 73.832727 196.970784 
L 90.065455 245.857853 
L 106.298182 230.421359 
L 122.530909 237.138162 
L 138.763636 234.919872 
L 154.996364 250.228048 
L 171.229091 232.928064 
L 187.461818 158.774953 
L 203.694545 198.033982 
L 219.927273 152.053291 
L 236.16 190.447732 
L 252.392727 187.572643 
L 268.625455 227.527044 
L 284.858182 179.470295 
L 301.090909 164.471711 
L 317.323636 174.134105 
L 333.556364 169.343876 
L 349.789091 201.42857 
L 366.021818 179.159979 
L 382.254545 225.782581 
L 398.487273 220.306496 
" clip-path="url(#pce69387860)" style="fill: none; stroke: #440154; stroke-opacity: 0.5; stroke-width: 1.5; stroke-linecap: square"/>
   </g>
   <g id="line2d_79">
    <path d="M 73.832727 211.417426 
L 90.065455 219.962352 
L 106.298182 207.702181 
L 122.530909 202.581642 
L 138.763636 210.771621 
L 154.996364 216.873057 
L 171.229091 221.453684 
L 187.461818 224.643095 
L 203.694545 246.43039 
L 219.927273 237.028577 
L 236.16 239.893066 
L 252.392727 258.759658 
L 268.625455 247.373242 
L 284.858182 237.550522 
L 301.090909 263.793254 
L 317.323636 259.840518 
L 333.556364 253.555637 
L 349.789091 255.444477 
L 366.021818 274.460844 
L 382.254545 273.293134 
L 398.487273 250.078253 
" clip-path="url(#pce69387860)" style="fill: none; stroke: #440154; stroke-opacity: 0.5; stroke-width: 1.5; stroke-linecap: square"/>
   </g>
   <g id="line2d_80">
    <path d="M 73.832727 171.012882 
L 90.065455 168.28928 
L 106.298182 162.132628 
L 122.530909 160.140229 
L 138.763636 187.237827 
L 154.996364 199.887956 
L 171.229091 197.367503 
L 187.461818 242.327789 
L 203.694545 225.698492 
L 219.927273 228.789704 
L 236.16 234.942935 
L 252.392727 244.512328 
L 268.625455 239.621384 
L 284.858182 238.59767 
L 301.090909 249.596026 
L 317.323636 249.505586 
L 333.556364 252.033048 
L 349.789091 243.801211 
L 366.021818 240.350125 
L 382.254545 280.968876 
L 398.487273 227.793313 
" clip-path="url(#pce69387860)" style="fill: none; stroke: #440154; stroke-opacity: 0.5; stroke-width: 1.5; stroke-linecap: square"/>
   </g>
   <g id="line2d_81">
    <path d="M 73.832727 176.814319 
L 90.065455 195.874296 
L 106.298182 208.227772 
L 122.530909 179.362226 
L 138.763636 198.358304 
L 154.996364 171.516319 
L 171.229091 218.426734 
L 187.461818 231.118928 
L 203.694545 238.013817 
L 219.927273 231.026844 
L 236.16 235.502086 
L 252.392727 227.855049 
L 268.625455 243.324873 
L 284.858182 234.658041 
L 301.090909 228.531807 
L 317.323636 240.284734 
L 333.556364 222.409753 
L 349.789091 225.415161 
L 366.021818 240.025674 
L 382.254545 237.953021 
L 398.487273 238.449548 
" clip-path="url(#pce69387860)" style="fill: none; stroke: #440154; stroke-opacity: 0.5; stroke-width: 1.5; stroke-linecap: square"/>
   </g>
   <g id="line2d_82">
    <path d="M 73.832727 92.280013 
L 90.065455 138.770126 
L 106.298182 118.61652 
L 122.530909 187.751308 
L 138.763636 205.409686 
L 154.996364 196.637941 
L 171.229091 196.116153 
L 187.461818 178.014356 
L 203.694545 190.395873 
L 219.927273 192.801335 
L 236.16 195.464133 
L 252.392727 235.80369 
L 268.625455 183.683325 
L 284.858182 208.00104 
L 301.090909 230.500163 
L 317.323636 194.85178 
L 333.556364 205.220512 
L 349.789091 204.658844 
L 366.021818 197.045499 
L 382.254545 209.635925 
L 398.487273 192.213127 
" clip-path="url(#pce69387860)" style="fill: none; stroke: #440154; stroke-opacity: 0.5; stroke-width: 1.5; stroke-linecap: square"/>
   </g>
   <g id="line2d_83">
    <path d="M 73.832727 173.262032 
L 90.065455 203.663718 
L 106.298182 232.528882 
L 122.530909 210.91575 
L 138.763636 237.897028 
L 154.996364 233.733776 
L 171.229091 172.625278 
L 187.461818 262.474054 
L 203.694545 225.981251 
L 219.927273 229.362545 
L 236.16 223.070171 
L 252.392727 245.815711 
L 268.625455 235.792321 
L 284.858182 240.102709 
L 301.090909 216.737856 
L 317.323636 230.061987 
L 333.556364 226.919133 
L 349.789091 236.291212 
L 366.021818 218.132187 
L 382.254545 226.196476 
L 398.487273 222.776914 
" clip-path="url(#pce69387860)" style="fill: none; stroke: #440154; stroke-opacity: 0.5; stroke-width: 1.5; stroke-linecap: square"/>
   </g>
   <g id="line2d_84">
    <path d="M 73.832727 223.188601 
L 90.065455 212.015226 
L 106.298182 162.135918 
L 122.530909 181.889565 
L 138.763636 233.922244 
L 154.996364 198.079336 
L 171.229091 171.284765 
L 187.461818 185.312664 
L 203.694545 188.414776 
L 219.927273 180.453353 
L 236.16 203.007484 
L 252.392727 231.962641 
L 268.625455 207.265347 
L 284.858182 200.308173 
L 301.090909 187.4371 
L 317.323636 234.938816 
L 333.556364 270.067176 
L 349.789091 259.213682 
L 366.021818 251.58113 
L 382.254545 251.598503 
L 398.487273 217.035343 
" clip-path="url(#pce69387860)" style="fill: none; stroke: #440154; stroke-opacity: 0.5; stroke-width: 1.5; stroke-linecap: square"/>
   </g>
   <g id="line2d_85">
    <path d="M 73.832727 230.264427 
L 90.065455 188.748544 
L 106.298182 167.820065 
L 122.530909 158.493908 
L 138.763636 224.307858 
L 154.996364 237.274744 
L 171.229091 265.092774 
L 187.461818 271.165495 
L 203.694545 202.366515 
L 219.927273 233.267077 
L 236.16 247.037912 
L 252.392727 272.725533 
L 268.625455 251.109075 
L 284.858182 262.119188 
L 301.090909 249.462432 
L 317.323636 198.897978 
L 333.556364 254.673817 
L 349.789091 191.324963 
L 366.021818 164.424469 
L 382.254545 205.887491 
L 398.487273 238.85585 
" clip-path="url(#pce69387860)" style="fill: none; stroke: #440154; stroke-opacity: 0.5; stroke-width: 1.5; stroke-linecap: square"/>
   </g>
   <g id="line2d_86">
    <path d="M 73.832727 229.616726 
L 90.065455 238.102038 
L 106.298182 205.941163 
L 122.530909 224.763405 
L 138.763636 187.98575 
L 154.996364 210.667352 
L 171.229091 235.294163 
L 187.461818 228.603791 
L 203.694545 203.74906 
L 219.927273 167.072165 
L 236.16 194.603237 
L 252.392727 240.100663 
L 268.625455 224.371284 
L 284.858182 184.387099 
L 301.090909 211.754477 
L 317.323636 248.097063 
L 333.556364 247.947575 
L 349.789091 258.036297 
L 366.021818 248.090173 
L 382.254545 240.516204 
L 398.487273 225.213001 
" clip-path="url(#pce69387860)" style="fill: none; stroke: #440154; stroke-opacity: 0.5; stroke-width: 1.5; stroke-linecap: square"/>
   </g>
   <g id="line2d_87">
    <path d="M 73.832727 182.071626 
L 90.065455 224.071132 
L 106.298182 243.916083 
L 122.530909 238.936332 
L 138.763636 235.145917 
L 154.996364 264.828277 
L 171.229091 240.872357 
L 187.461818 266.727319 
L 203.694545 269.299666 
L 219.927273 287.825942 
L 236.16 289.524567 
L 252.392727 289.638037 
L 268.625455 286.411482 
L 284.858182 292.309172 
L 301.090909 289.74121 
L 317.323636 277.729207 
L 333.556364 263.992918 
L 349.789091 272.314934 
L 366.021818 268.457819 
L 382.254545 282.336199 
L 398.487273 267.455191 
" clip-path="url(#pce69387860)" style="fill: none; stroke: #440154; stroke-opacity: 0.5; stroke-width: 1.5; stroke-linecap: square"/>
   </g>
   <g id="line2d_88">
    <path d="M 73.832727 166.367365 
L 90.065455 214.092042 
L 106.298182 230.122416 
L 122.530909 205.997124 
L 138.763636 235.89669 
L 154.996364 231.574814 
L 171.229091 241.867487 
L 187.461818 269.870033 
L 203.694545 271.311229 
L 219.927273 285.147763 
L 236.16 284.949825 
L 252.392727 275.685145 
L 268.625455 276.929637 
L 284.858182 269.615396 
L 301.090909 276.974141 
L 317.323636 272.8382 
L 333.556364 283.356228 
L 349.789091 290.102953 
L 366.021818 269.012302 
L 382.254545 276.1025 
L 398.487273 272.489318 
" clip-path="url(#pce69387860)" style="fill: none; stroke: #440154; stroke-opacity: 0.5; stroke-width: 1.5; stroke-linecap: square"/>
   </g>
   <g id="line2d_89">
    <path d="M 73.832727 257.694269 
L 90.065455 192.607265 
L 106.298182 191.18051 
L 122.530909 204.672081 
L 138.763636 231.987466 
L 154.996364 227.680055 
L 171.229091 194.358018 
L 187.461818 199.308433 
L 203.694545 212.465405 
L 219.927273 221.704909 
L 236.16 211.818796 
L 252.392727 220.805787 
L 268.625455 244.803552 
L 284.858182 156.352824 
L 301.090909 196.759507 
L 317.323636 243.024379 
L 333.556364 200.577862 
L 349.789091 227.875145 
L 366.021818 210.604893 
L 382.254545 226.233729 
L 398.487273 230.726235 
" clip-path="url(#pce69387860)" style="fill: none; stroke: #440154; stroke-opacity: 0.5; stroke-width: 1.5; stroke-linecap: square"/>
   </g>
   <g id="line2d_90">
    <path d="M 73.832727 218.182136 
L 90.065455 189.936084 
L 106.298182 175.866654 
L 122.530909 152.905865 
L 138.763636 199.600972 
L 154.996364 227.370071 
L 171.229091 245.739947 
L 187.461818 238.867313 
L 203.694545 234.226683 
L 219.927273 231.45795 
L 236.16 244.466692 
L 252.392727 246.635379 
L 268.625455 246.453263 
L 284.858182 247.155726 
L 301.090909 247.600541 
L 317.323636 235.387591 
L 333.556364 261.664338 
L 349.789091 238.009946 
L 366.021818 253.725257 
L 382.254545 234.333831 
L 398.487273 249.557192 
" clip-path="url(#pce69387860)" style="fill: none; stroke: #440154; stroke-opacity: 0.5; stroke-width: 1.5; stroke-linecap: square"/>
   </g>
   <g id="line2d_91">
    <path d="M 73.832727 168.028117 
L 90.065455 207.393299 
L 106.298182 221.241282 
L 122.530909 223.240289 
L 138.763636 236.166935 
L 154.996364 234.239438 
L 171.229091 219.977575 
L 187.461818 247.352163 
L 203.694545 182.364259 
L 219.927273 215.18215 
L 236.16 208.168914 
L 252.392727 225.086161 
L 268.625455 227.280281 
L 284.858182 214.207782 
L 301.090909 253.172164 
L 317.323636 216.618933 
L 333.556364 225.65819 
L 349.789091 211.794073 
L 366.021818 220.25832 
L 382.254545 237.673828 
L 398.487273 210.258212 
" clip-path="url(#pce69387860)" style="fill: none; stroke: #440154; stroke-opacity: 0.5; stroke-width: 1.5; stroke-linecap: square"/>
   </g>
   <g id="line2d_92">
    <path d="M 73.832727 179.021333 
L 90.065455 188.969807 
L 106.298182 129.759592 
L 122.530909 224.978349 
L 138.763636 203.462781 
L 154.996364 240.252214 
L 171.229091 278.760001 
L 187.461818 278.035518 
L 203.694545 234.475473 
L 219.927273 211.758728 
L 236.16 210.513361 
L 252.392727 240.24461 
L 268.625455 207.624681 
L 284.858182 229.969464 
L 301.090909 236.614234 
L 317.323636 192.485263 
L 333.556364 192.443189 
L 349.789091 206.816551 
L 366.021818 229.299678 
L 382.254545 251.53927 
L 398.487273 228.845837 
" clip-path="url(#pce69387860)" style="fill: none; stroke: #440154; stroke-opacity: 0.5; stroke-width: 1.5; stroke-linecap: square"/>
   </g>
   <g id="line2d_93">
    <path d="M 73.832727 209.002327 
L 90.065455 188.3857 
L 106.298182 208.617395 
L 122.530909 228.888344 
L 138.763636 192.275947 
L 154.996364 221.753819 
L 171.229091 131.722033 
L 187.461818 236.005422 
L 203.694545 236.948294 
L 219.927273 253.830516 
L 236.16 272.407725 
L 252.392727 287.57301 
L 268.625455 268.926197 
L 284.858182 282.402525 
L 301.090909 285.849379 
L 317.323636 262.062189 
L 333.556364 258.178646 
L 349.789091 256.494057 
L 366.021818 288.902509 
L 382.254545 279.966961 
L 398.487273 248.767736 
" clip-path="url(#pce69387860)" style="fill: none; stroke: #440154; stroke-opacity: 0.5; stroke-width: 1.5; stroke-linecap: square"/>
   </g>
   <g id="line2d_94">
    <path d="M 73.832727 215.4858 
L 90.065455 238.876141 
L 106.298182 226.933094 
L 122.530909 233.107679 
L 138.763636 233.213638 
L 154.996364 203.259698 
L 171.229091 249.578936 
L 187.461818 243.899474 
L 203.694545 230.788583 
L 219.927273 224.256499 
L 236.16 218.722411 
L 252.392727 226.379041 
L 268.625455 232.827063 
L 284.858182 227.661712 
L 301.090909 219.59918 
L 317.323636 235.15326 
L 333.556364 225.377453 
L 349.789091 236.04144 
L 366.021818 238.750884 
L 382.254545 230.421918 
L 398.487273 237.668797 
" clip-path="url(#pce69387860)" style="fill: none; stroke: #440154; stroke-opacity: 0.5; stroke-width: 1.5; stroke-linecap: square"/>
   </g>
   <g id="line2d_95">
    <path d="M 73.832727 240.465575 
L 90.065455 184.343621 
L 106.298182 217.506344 
L 122.530909 171.119301 
L 138.763636 191.683221 
L 154.996364 222.665585 
L 171.229091 278.675187 
L 187.461818 253.51266 
L 203.694545 286.179535 
L 219.927273 272.346484 
L 236.16 275.594011 
L 252.392727 281.086584 
L 268.625455 282.107943 
L 284.858182 278.139982 
L 301.090909 277.6282 
L 317.323636 282.45917 
L 333.556364 279.902555 
L 349.789091 280.503873 
L 366.021818 262.249738 
L 382.254545 269.883232 
L 398.487273 279.400061 
" clip-path="url(#pce69387860)" style="fill: none; stroke: #440154; stroke-opacity: 0.5; stroke-width: 1.5; stroke-linecap: square"/>
   </g>
   <g id="line2d_96">
    <path d="M 73.832727 239.561364 
L 90.065455 207.300035 
L 106.298182 227.276195 
L 122.530909 234.866508 
L 138.763636 186.337831 
L 154.996364 226.463733 
L 171.229091 280.867936 
L 187.461818 271.623428 
L 203.694545 258.689939 
L 219.927273 262.512443 
L 236.16 258.719084 
L 252.392727 256.897507 
L 268.625455 265.209014 
L 284.858182 263.778211 
L 301.090909 260.174431 
L 317.323636 268.232709 
L 333.556364 258.675401 
L 349.789091 262.214966 
L 366.021818 278.268633 
L 382.254545 284.134547 
L 398.487273 270.70027 
" clip-path="url(#pce69387860)" style="fill: none; stroke: #440154; stroke-opacity: 0.5; stroke-width: 1.5; stroke-linecap: square"/>
   </g>
   <g id="line2d_97">
    <path d="M 73.832727 203.85147 
L 90.065455 228.100737 
L 106.298182 228.420421 
L 122.530909 234.507759 
L 138.763636 240.346198 
L 154.996364 226.356355 
L 171.229091 213.315607 
L 187.461818 202.701448 
L 203.694545 179.919688 
L 219.927273 135.565631 
L 236.16 177.754414 
L 252.392727 159.200408 
L 268.625455 170.253675 
L 284.858182 153.622028 
L 301.090909 154.871133 
L 317.323636 159.831978 
L 333.556364 156.77448 
L 349.789091 182.943314 
L 366.021818 182.898902 
L 382.254545 108.700572 
L 398.487273 217.151745 
" clip-path="url(#pce69387860)" style="fill: none; stroke: #440154; stroke-opacity: 0.5; stroke-width: 1.5; stroke-linecap: square"/>
   </g>
   <g id="line2d_98">
    <path d="M 73.832727 250.925487 
L 90.065455 229.584735 
L 106.298182 199.155557 
L 122.530909 239.023313 
L 138.763636 235.44489 
L 154.996364 218.047098 
L 171.229091 212.221459 
L 187.461818 207.696034 
L 203.694545 200.35017 
L 219.927273 214.090066 
L 236.16 215.828968 
L 252.392727 179.802025 
L 268.625455 196.5321 
L 284.858182 186.405489 
L 301.090909 213.076053 
L 317.323636 245.255372 
L 333.556364 231.836481 
L 349.789091 243.776857 
L 366.021818 228.645571 
L 382.254545 234.306264 
L 398.487273 223.1004 
" clip-path="url(#pce69387860)" style="fill: none; stroke: #440154; stroke-opacity: 0.5; stroke-width: 1.5; stroke-linecap: square"/>
   </g>
   <g id="line2d_99">
    <path d="M 73.832727 180.523091 
L 90.065455 138.569694 
L 106.298182 53.568 
L 122.530909 179.009263 
L 138.763636 244.663167 
L 154.996364 237.616725 
L 171.229091 258.144882 
L 187.461818 252.444962 
L 203.694545 219.330765 
L 219.927273 256.533085 
L 236.16 252.425645 
L 252.392727 224.277122 
L 268.625455 234.579863 
L 284.858182 257.532712 
L 301.090909 249.229329 
L 317.323636 251.232594 
L 333.556364 253.987295 
L 349.789091 251.806477 
L 366.021818 225.957588 
L 382.254545 220.848129 
L 398.487273 256.441779 
" clip-path="url(#pce69387860)" style="fill: none; stroke: #440154; stroke-opacity: 0.5; stroke-width: 1.5; stroke-linecap: square"/>
   </g>
   <g id="patch_3">
    <path d="M 57.6 307.584 
L 57.6 41.472 
" style="fill: none; stroke: #000000; stroke-width: 3; stroke-linejoin: miter; stroke-linecap: square"/>
   </g>
   <g id="patch_4">
    <path d="M 414.72 307.584 
L 414.72 41.472 
" style="fill: none; stroke: #000000; stroke-width: 3; stroke-linejoin: miter; stroke-linecap: square"/>
   </g>
   <g id="patch_5">
    <path d="M 57.6 307.584 
L 414.72 307.584 
" style="fill: none; stroke: #000000; stroke-width: 3; stroke-linejoin: miter; stroke-linecap: square"/>
   </g>
   <g id="patch_6">
    <path d="M 57.6 41.472 
L 414.72 41.472 
" style="fill: none; stroke: #000000; stroke-width: 3; stroke-linejoin: miter; stroke-linecap: square"/>
   </g>
   <g id="text_10">
    <!-- Atom Type H (n=90, mean Q=7.41) -->
    <g transform="translate(40.225937 35.472) scale(0.22 -0.22)">
     <defs>
      <path id="DejaVuSans-41" d="M 2188 4044 
L 1331 1722 
L 3047 1722 
L 2188 4044 
z
M 1831 4666 
L 2547 4666 
L 4325 0 
L 3669 0 
L 3244 1197 
L 1141 1197 
L 716 0 
L 50 0 
L 1831 4666 
z
" transform="scale(0.015625)"/>
      <path id="DejaVuSans-74" d="M 1172 4494 
L 1172 3500 
L 2356 3500 
L 2356 3053 
L 1172 3053 
L 1172 1153 
Q 1172 725 1289 603 
Q 1406 481 1766 481 
L 2356 481 
L 2356 0 
L 1766 0 
Q 1100 0 847 248 
Q 594 497 594 1153 
L 594 3053 
L 172 3053 
L 172 3500 
L 594 3500 
L 594 4494 
L 1172 4494 
z
" transform="scale(0.015625)"/>
      <path id="DejaVuSans-6f" d="M 1959 3097 
Q 1497 3097 1228 2736 
Q 959 2375 959 1747 
Q 959 1119 1226 758 
Q 1494 397 1959 397 
Q 2419 397 2687 759 
Q 2956 1122 2956 1747 
Q 2956 2369 2687 2733 
Q 2419 3097 1959 3097 
z
M 1959 3584 
Q 2709 3584 3137 3096 
Q 3566 2609 3566 1747 
Q 3566 888 3137 398 
Q 2709 -91 1959 -91 
Q 1206 -91 779 398 
Q 353 888 353 1747 
Q 353 2609 779 3096 
Q 1206 3584 1959 3584 
z
" transform="scale(0.015625)"/>
      <path id="DejaVuSans-6d" d="M 3328 2828 
Q 3544 3216 3844 3400 
Q 4144 3584 4550 3584 
Q 5097 3584 5394 3201 
Q 5691 2819 5691 2113 
L 5691 0 
L 5113 0 
L 5113 2094 
Q 5113 2597 4934 2840 
Q 4756 3084 4391 3084 
Q 3944 3084 3684 2787 
Q 3425 2491 3425 1978 
L 3425 0 
L 2847 0 
L 2847 2094 
Q 2847 2600 2669 2842 
Q 2491 3084 2119 3084 
Q 1678 3084 1418 2786 
Q 1159 2488 1159 1978 
L 1159 0 
L 581 0 
L 581 3500 
L 1159 3500 
L 1159 2956 
Q 1356 3278 1631 3431 
Q 1906 3584 2284 3584 
Q 2666 3584 2933 3390 
Q 3200 3197 3328 2828 
z
" transform="scale(0.015625)"/>
      <path id="DejaVuSans-20" transform="scale(0.015625)"/>
      <path id="DejaVuSans-54" d="M -19 4666 
L 3928 4666 
L 3928 4134 
L 2272 4134 
L 2272 0 
L 1638 0 
L 1638 4134 
L -19 4134 
L -19 4666 
z
" transform="scale(0.015625)"/>
      <path id="DejaVuSans-79" d="M 2059 -325 
Q 1816 -950 1584 -1140 
Q 1353 -1331 966 -1331 
L 506 -1331 
L 506 -850 
L 844 -850 
Q 1081 -850 1212 -737 
Q 1344 -625 1503 -206 
L 1606 56 
L 191 3500 
L 800 3500 
L 1894 763 
L 2988 3500 
L 3597 3500 
L 2059 -325 
z
" transform="scale(0.015625)"/>
      <path id="DejaVuSans-70" d="M 1159 525 
L 1159 -1331 
L 581 -1331 
L 581 3500 
L 1159 3500 
L 1159 2969 
Q 1341 3281 1617 3432 
Q 1894 3584 2278 3584 
Q 2916 3584 3314 3078 
Q 3713 2572 3713 1747 
Q 3713 922 3314 415 
Q 2916 -91 2278 -91 
Q 1894 -91 1617 61 
Q 1341 213 1159 525 
z
M 3116 1747 
Q 3116 2381 2855 2742 
Q 2594 3103 2138 3103 
Q 1681 3103 1420 2742 
Q 1159 2381 1159 1747 
Q 1159 1113 1420 752 
Q 1681 391 2138 391 
Q 2594 391 2855 752 
Q 3116 1113 3116 1747 
z
" transform="scale(0.015625)"/>
      <path id="DejaVuSans-65" d="M 3597 1894 
L 3597 1613 
L 953 1613 
Q 991 1019 1311 708 
Q 1631 397 2203 397 
Q 2534 397 2845 478 
Q 3156 559 3463 722 
L 3463 178 
Q 3153 47 2828 -22 
Q 2503 -91 2169 -91 
Q 1331 -91 842 396 
Q 353 884 353 1716 
Q 353 2575 817 3079 
Q 1281 3584 2069 3584 
Q 2775 3584 3186 3129 
Q 3597 2675 3597 1894 
z
M 3022 2063 
Q 3016 2534 2758 2815 
Q 2500 3097 2075 3097 
Q 1594 3097 1305 2825 
Q 1016 2553 972 2059 
L 3022 2063 
z
" transform="scale(0.015625)"/>
      <path id="DejaVuSans-48" d="M 628 4666 
L 1259 4666 
L 1259 2753 
L 3553 2753 
L 3553 4666 
L 4184 4666 
L 4184 0 
L 3553 0 
L 3553 2222 
L 1259 2222 
L 1259 0 
L 628 0 
L 628 4666 
z
" transform="scale(0.015625)"/>
      <path id="DejaVuSans-28" d="M 1984 4856 
Q 1566 4138 1362 3434 
Q 1159 2731 1159 2009 
Q 1159 1288 1364 580 
Q 1569 -128 1984 -844 
L 1484 -844 
Q 1016 -109 783 600 
Q 550 1309 550 2009 
Q 550 2706 781 3412 
Q 1013 4119 1484 4856 
L 1984 4856 
z
" transform="scale(0.015625)"/>
      <path id="DejaVuSans-6e" d="M 3513 2113 
L 3513 0 
L 2938 0 
L 2938 2094 
Q 2938 2591 2744 2837 
Q 2550 3084 2163 3084 
Q 1697 3084 1428 2787 
Q 1159 2491 1159 1978 
L 1159 0 
L 581 0 
L 581 3500 
L 1159 3500 
L 1159 2956 
Q 1366 3272 1645 3428 
Q 1925 3584 2291 3584 
Q 2894 3584 3203 3211 
Q 3513 2838 3513 2113 
z
" transform="scale(0.015625)"/>
      <path id="DejaVuSans-3d" d="M 678 2906 
L 4684 2906 
L 4684 2381 
L 678 2381 
L 678 2906 
z
M 678 1631 
L 4684 1631 
L 4684 1100 
L 678 1100 
L 678 1631 
z
" transform="scale(0.015625)"/>
      <path id="DejaVuSans-39" d="M 703 97 
L 703 672 
Q 941 559 1184 500 
Q 1428 441 1663 441 
Q 2288 441 2617 861 
Q 2947 1281 2994 2138 
Q 2813 1869 2534 1725 
Q 2256 1581 1919 1581 
Q 1219 1581 811 2004 
Q 403 2428 403 3163 
Q 403 3881 828 4315 
Q 1253 4750 1959 4750 
Q 2769 4750 3195 4129 
Q 3622 3509 3622 2328 
Q 3622 1225 3098 567 
Q 2575 -91 1691 -91 
Q 1453 -91 1209 -44 
Q 966 3 703 97 
z
M 1959 2075 
Q 2384 2075 2632 2365 
Q 2881 2656 2881 3163 
Q 2881 3666 2632 3958 
Q 2384 4250 1959 4250 
Q 1534 4250 1286 3958 
Q 1038 3666 1038 3163 
Q 1038 2656 1286 2365 
Q 1534 2075 1959 2075 
z
" transform="scale(0.015625)"/>
      <path id="DejaVuSans-2c" d="M 750 794 
L 1409 794 
L 1409 256 
L 897 -744 
L 494 -744 
L 750 256 
L 750 794 
z
" transform="scale(0.015625)"/>
      <path id="DejaVuSans-61" d="M 2194 1759 
Q 1497 1759 1228 1600 
Q 959 1441 959 1056 
Q 959 750 1161 570 
Q 1363 391 1709 391 
Q 2188 391 2477 730 
Q 2766 1069 2766 1631 
L 2766 1759 
L 2194 1759 
z
M 3341 1997 
L 3341 0 
L 2766 0 
L 2766 531 
Q 2569 213 2275 61 
Q 1981 -91 1556 -91 
Q 1019 -91 701 211 
Q 384 513 384 1019 
Q 384 1609 779 1909 
Q 1175 2209 1959 2209 
L 2766 2209 
L 2766 2266 
Q 2766 2663 2505 2880 
Q 2244 3097 1772 3097 
Q 1472 3097 1187 3025 
Q 903 2953 641 2809 
L 641 3341 
Q 956 3463 1253 3523 
Q 1550 3584 1831 3584 
Q 2591 3584 2966 3190 
Q 3341 2797 3341 1997 
z
" transform="scale(0.015625)"/>
      <path id="DejaVuSans-51" d="M 2522 4238 
Q 1834 4238 1429 3725 
Q 1025 3213 1025 2328 
Q 1025 1447 1429 934 
Q 1834 422 2522 422 
Q 3209 422 3611 934 
Q 4013 1447 4013 2328 
Q 4013 3213 3611 3725 
Q 3209 4238 2522 4238 
z
M 3406 84 
L 4238 -825 
L 3475 -825 
L 2784 -78 
Q 2681 -84 2626 -87 
Q 2572 -91 2522 -91 
Q 1538 -91 948 567 
Q 359 1225 359 2328 
Q 359 3434 948 4092 
Q 1538 4750 2522 4750 
Q 3503 4750 4090 4092 
Q 4678 3434 4678 2328 
Q 4678 1516 4351 937 
Q 4025 359 3406 84 
z
" transform="scale(0.015625)"/>
      <path id="DejaVuSans-37" d="M 525 4666 
L 3525 4666 
L 3525 4397 
L 1831 0 
L 1172 0 
L 2766 4134 
L 525 4134 
L 525 4666 
z
" transform="scale(0.015625)"/>
      <path id="DejaVuSans-2e" d="M 684 794 
L 1344 794 
L 1344 0 
L 684 0 
L 684 794 
z
" transform="scale(0.015625)"/>
      <path id="DejaVuSans-34" d="M 2419 4116 
L 825 1625 
L 2419 1625 
L 2419 4116 
z
M 2253 4666 
L 3047 4666 
L 3047 1625 
L 3713 1625 
L 3713 1100 
L 3047 1100 
L 3047 0 
L 2419 0 
L 2419 1100 
L 313 1100 
L 313 1709 
L 2253 4666 
z
" transform="scale(0.015625)"/>
      <path id="DejaVuSans-29" d="M 513 4856 
L 1013 4856 
Q 1481 4119 1714 3412 
Q 1947 2706 1947 2009 
Q 1947 1309 1714 600 
Q 1481 -109 1013 -844 
L 513 -844 
Q 928 -128 1133 580 
Q 1338 1288 1338 2009 
Q 1338 2731 1133 3434 
Q 928 4138 513 4856 
z
" transform="scale(0.015625)"/>
     </defs>
     <use xlink:href="#DejaVuSans-41"/>
     <use xlink:href="#DejaVuSans-74" transform="translate(66.658203 0)"/>
     <use xlink:href="#DejaVuSans-6f" transform="translate(105.867188 0)"/>
     <use xlink:href="#DejaVuSans-6d" transform="translate(167.048828 0)"/>
     <use xlink:href="#DejaVuSans-20" transform="translate(264.460938 0)"/>
     <use xlink:href="#DejaVuSans-54" transform="translate(296.248047 0)"/>
     <use xlink:href="#DejaVuSans-79" transform="translate(341.707031 0)"/>
     <use xlink:href="#DejaVuSans-70" transform="translate(400.886719 0)"/>
     <use xlink:href="#DejaVuSans-65" transform="translate(464.363281 0)"/>
     <use xlink:href="#DejaVuSans-20" transform="translate(525.886719 0)"/>
     <use xlink:href="#DejaVuSans-48" transform="translate(557.673828 0)"/>
     <use xlink:href="#DejaVuSans-20" transform="translate(632.869141 0)"/>
     <use xlink:href="#DejaVuSans-28" transform="translate(664.65625 0)"/>
     <use xlink:href="#DejaVuSans-6e" transform="translate(703.669922 0)"/>
     <use xlink:href="#DejaVuSans-3d" transform="translate(767.048828 0)"/>
     <use xlink:href="#DejaVuSans-39" transform="translate(850.837891 0)"/>
     <use xlink:href="#DejaVuSans-30" transform="translate(914.460938 0)"/>
     <use xlink:href="#DejaVuSans-2c" transform="translate(978.083984 0)"/>
     <use xlink:href="#DejaVuSans-20" transform="translate(1009.871094 0)"/>
     <use xlink:href="#DejaVuSans-6d" transform="translate(1041.658203 0)"/>
     <use xlink:href="#DejaVuSans-65" transform="translate(1139.070312 0)"/>
     <use xlink:href="#DejaVuSans-61" transform="translate(1200.59375 0)"/>
     <use xlink:href="#DejaVuSans-6e" transform="translate(1261.873047 0)"/>
     <use xlink:href="#DejaVuSans-20" transform="translate(1325.251953 0)"/>
     <use xlink:href="#DejaVuSans-51" transform="translate(1357.039062 0)"/>
     <use xlink:href="#DejaVuSans-3d" transform="translate(1435.75 0)"/>
     <use xlink:href="#DejaVuSans-37" transform="translate(1519.539062 0)"/>
     <use xlink:href="#DejaVuSans-2e" transform="translate(1583.162109 0)"/>
     <use xlink:href="#DejaVuSans-34" transform="translate(1614.949219 0)"/>
     <use xlink:href="#DejaVuSans-31" transform="translate(1678.572266 0)"/>
     <use xlink:href="#DejaVuSans-29" transform="translate(1742.195312 0)"/>
    </g>
   </g>
  </g>
 </g>
 <defs>
  <clipPath id="pce69387860">
   <rect x="57.6" y="41.472" width="357.12" height="266.112"/>
  </clipPath>
 </defs>
</svg>
