<?xml version="1.0" encoding="utf-8" standalone="no"?>
<!DOCTYPE svg PUBLIC "-//W3C//DTD SVG 1.1//EN"
  "http://www.w3.org/Graphics/SVG/1.1/DTD/svg11.dtd">
<svg xmlns:xlink="http://www.w3.org/1999/xlink" width="864pt" height="360pt" viewBox="0 0 864 360" xmlns="http://www.w3.org/2000/svg" version="1.1">
 <metadata>
  <rdf:RDF xmlns:dc="http://purl.org/dc/elements/1.1/" xmlns:cc="http://creativecommons.org/ns#" xmlns:rdf="http://www.w3.org/1999/02/22-rdf-syntax-ns#">
   <cc:Work>
    <dc:type rdf:resource="http://purl.org/dc/dcmitype/StillImage"/>
    <dc:date>2026-01-24T16:24:14.007589</dc:date>
    <dc:format>image/svg+xml</dc:format>
    <dc:creator>
     <cc:Agent>
      <dc:title>Matplotlib v3.10.6, https://matplotlib.org/</dc:title>
     </cc:Agent>
    </dc:creator>
   </cc:Work>
  </rdf:RDF>
 </metadata>
 <defs>
  <style type="text/css">*{stroke-linejoin: round; stroke-linecap: butt}</style>
 </defs>
 <g id="figure_1">
  <g id="patch_1">
   <path d="M 0 360 
L 864 360 
L 864 0 
L 0 0 
z
" style="fill: #ffffff"/>
  </g>
  <g id="axes_1">
   <g id="patch_2">
    <path d="M 108 320.4 
L 412.363636 320.4 
L 412.363636 43.2 
L 108 43.2 
z
" style="fill: #ffffff"/>
   </g>
   <g id="PathCollection_1">
    <defs>
     <path id="mb45d732323" d="M 0 1.118034 
C 0.296506 1.118034 0.580908 1.000231 0.790569 0.790569 
C 1.000231 0.580908 1.118034 0.296506 1.118034 0 
C 1.118034 -0.296506 1.000231 -0.580908 0.790569 -0.790569 
C 0.580908 -1.000231 0.296506 -1.118034 0 -1.118034 
C -0.296506 -1.118034 -0.580908 -1.000231 -0.790569 -0.790569 
C -1.000231 -0.580908 -1.118034 -0.296506 -1.118034 0 
C -1.118034 0.296506 -1.000231 0.580908 -0.790569 0.790569 
C -0.580908 1.000231 -0.296506 1.118034 0 1.118034 
z
" style="stroke: #000000"/>
    </defs>
    <g clip-path="url(#p42632fbde7)">
     <use xlink:href="#mb45d732323" x="124.342228" y="94.804245" style="stroke: #000000"/>
     <use xlink:href="#mb45d732323" x="307.172949" y="177.228215" style="stroke: #000000"/>
     <use xlink:href="#mb45d732323" x="125.097515" y="95.272754" style="stroke: #000000"/>
     <use xlink:href="#mb45d732323" x="263.591365" y="168.35695" style="stroke: #000000"/>
     <use xlink:href="#mb45d732323" x="257.109539" y="153.846406" style="stroke: #000000"/>
     <use xlink:href="#mb45d732323" x="292.471877" y="149.973368" style="stroke: #000000"/>
     <use xlink:href="#mb45d732323" x="333.989452" y="127.32029" style="stroke: #000000"/>
     <use xlink:href="#mb45d732323" x="308.965644" y="157.396233" style="stroke: #000000"/>
     <use xlink:href="#mb45d732323" x="279.909421" y="145.088483" style="stroke: #000000"/>
     <use xlink:href="#mb45d732323" x="127.036197" y="96.671689" style="stroke: #000000"/>
     <use xlink:href="#mb45d732323" x="301.780121" y="192.514708" style="stroke: #000000"/>
     <use xlink:href="#mb45d732323" x="355.807131" y="192.842867" style="stroke: #000000"/>
     <use xlink:href="#mb45d732323" x="318.753553" y="168.761104" style="stroke: #000000"/>
     <use xlink:href="#mb45d732323" x="125.23004" y="94.615528" style="stroke: #000000"/>
     <use xlink:href="#mb45d732323" x="292.042319" y="177.082944" style="stroke: #000000"/>
     <use xlink:href="#mb45d732323" x="143.927577" y="102.070854" style="stroke: #000000"/>
     <use xlink:href="#mb45d732323" x="330.263092" y="275.633403" style="stroke: #000000"/>
     <use xlink:href="#mb45d732323" x="341.144825" y="143.114366" style="stroke: #000000"/>
     <use xlink:href="#mb45d732323" x="124.387321" y="95.273876" style="stroke: #000000"/>
     <use xlink:href="#mb45d732323" x="381.962186" y="301.507907" style="stroke: #000000"/>
     <use xlink:href="#mb45d732323" x="215.167026" y="145.426691" style="stroke: #000000"/>
     <use xlink:href="#mb45d732323" x="398.528926" y="307.8" style="stroke: #000000"/>
     <use xlink:href="#mb45d732323" x="323.130177" y="155.12381" style="stroke: #000000"/>
     <use xlink:href="#mb45d732323" x="135.827513" y="100.821941" style="stroke: #000000"/>
     <use xlink:href="#mb45d732323" x="352.693258" y="196.239077" style="stroke: #000000"/>
     <use xlink:href="#mb45d732323" x="292.911321" y="143.373918" style="stroke: #000000"/>
     <use xlink:href="#mb45d732323" x="381.640193" y="278.045813" style="stroke: #000000"/>
     <use xlink:href="#mb45d732323" x="285.373873" y="180.01424" style="stroke: #000000"/>
     <use xlink:href="#mb45d732323" x="141.33868" y="100.584611" style="stroke: #000000"/>
     <use xlink:href="#mb45d732323" x="328.474617" y="186.679871" style="stroke: #000000"/>
     <use xlink:href="#mb45d732323" x="259.914349" y="146.554492" style="stroke: #000000"/>
     <use xlink:href="#mb45d732323" x="377.53488" y="279.543518" style="stroke: #000000"/>
     <use xlink:href="#mb45d732323" x="289.20754" y="169.298123" style="stroke: #000000"/>
     <use xlink:href="#mb45d732323" x="219.03381" y="144.39759" style="stroke: #000000"/>
     <use xlink:href="#mb45d732323" x="335.486549" y="266.39201" style="stroke: #000000"/>
     <use xlink:href="#mb45d732323" x="327.501519" y="186.664406" style="stroke: #000000"/>
     <use xlink:href="#mb45d732323" x="266.536056" y="130.865138" style="stroke: #000000"/>
     <use xlink:href="#mb45d732323" x="374.23121" y="296.792585" style="stroke: #000000"/>
     <use xlink:href="#mb45d732323" x="131.909257" y="97.735601" style="stroke: #000000"/>
     <use xlink:href="#mb45d732323" x="322.921429" y="304.802126" style="stroke: #000000"/>
     <use xlink:href="#mb45d732323" x="325.131684" y="151.790513" style="stroke: #000000"/>
     <use xlink:href="#mb45d732323" x="352.211091" y="186.7647" style="stroke: #000000"/>
     <use xlink:href="#mb45d732323" x="121.834711" y="93.447912" style="stroke: #000000"/>
     <use xlink:href="#mb45d732323" x="348.499749" y="283.037753" style="stroke: #000000"/>
     <use xlink:href="#mb45d732323" x="281.018443" y="169.696391" style="stroke: #000000"/>
     <use xlink:href="#mb45d732323" x="126.633942" y="97.308125" style="stroke: #000000"/>
     <use xlink:href="#mb45d732323" x="348.823785" y="163.791421" style="stroke: #000000"/>
     <use xlink:href="#mb45d732323" x="314.469247" y="176.98423" style="stroke: #000000"/>
     <use xlink:href="#mb45d732323" x="347.484499" y="263.393731" style="stroke: #000000"/>
     <use xlink:href="#mb45d732323" x="341.343677" y="185.268683" style="stroke: #000000"/>
    </g>
   </g>
   <g id="PathCollection_2">
    <defs>
     <path id="me92a2700e4" d="M 0 1.118034 
C 0.296506 1.118034 0.580908 1.000231 0.790569 0.790569 
C 1.000231 0.580908 1.118034 0.296506 1.118034 0 
C 1.118034 -0.296506 1.000231 -0.580908 0.790569 -0.790569 
C 0.580908 -1.000231 0.296506 -1.118034 0 -1.118034 
C -0.296506 -1.118034 -0.580908 -1.000231 -0.790569 -0.790569 
C -1.000231 -0.580908 -1.118034 -0.296506 -1.118034 0 
C -1.118034 0.296506 -1.000231 0.580908 -0.790569 0.790569 
C -0.580908 1.000231 -0.296506 1.118034 0 1.118034 
z
" style="stroke: #7e6e8a"/>
    </defs>
    <g clip-path="url(#p42632fbde7)">
     <use xlink:href="#me92a2700e4" x="231.876396" y="91.322529" style="fill: #7e6e8a; stroke: #7e6e8a"/>
     <use xlink:href="#me92a2700e4" x="210.371692" y="114.395277" style="fill: #7e6e8a; stroke: #7e6e8a"/>
     <use xlink:href="#me92a2700e4" x="222.812539" y="87.335406" style="fill: #7e6e8a; stroke: #7e6e8a"/>
     <use xlink:href="#me92a2700e4" x="262.51752" y="87.373039" style="fill: #7e6e8a; stroke: #7e6e8a"/>
     <use xlink:href="#me92a2700e4" x="250.218122" y="86.431228" style="fill: #7e6e8a; stroke: #7e6e8a"/>
     <use xlink:href="#me92a2700e4" x="240.888431" y="77.573234" style="fill: #7e6e8a; stroke: #7e6e8a"/>
     <use xlink:href="#me92a2700e4" x="247.309044" y="89.569837" style="fill: #7e6e8a; stroke: #7e6e8a"/>
     <use xlink:href="#me92a2700e4" x="263.524413" y="97.049089" style="fill: #7e6e8a; stroke: #7e6e8a"/>
     <use xlink:href="#me92a2700e4" x="231.439072" y="84.037402" style="fill: #7e6e8a; stroke: #7e6e8a"/>
     <use xlink:href="#me92a2700e4" x="246.933004" y="83.612355" style="fill: #7e6e8a; stroke: #7e6e8a"/>
     <use xlink:href="#me92a2700e4" x="216.874794" y="91.114602" style="fill: #7e6e8a; stroke: #7e6e8a"/>
     <use xlink:href="#me92a2700e4" x="235.612529" y="82.150252" style="fill: #7e6e8a; stroke: #7e6e8a"/>
     <use xlink:href="#me92a2700e4" x="299.879145" y="94.60069" style="fill: #7e6e8a; stroke: #7e6e8a"/>
     <use xlink:href="#me92a2700e4" x="219.345735" y="86.341913" style="fill: #7e6e8a; stroke: #7e6e8a"/>
     <use xlink:href="#me92a2700e4" x="207.072715" y="87.25296" style="fill: #7e6e8a; stroke: #7e6e8a"/>
     <use xlink:href="#me92a2700e4" x="245.522778" y="98.463296" style="fill: #7e6e8a; stroke: #7e6e8a"/>
     <use xlink:href="#me92a2700e4" x="192.255413" y="72.145795" style="fill: #7e6e8a; stroke: #7e6e8a"/>
     <use xlink:href="#me92a2700e4" x="203.482975" y="81.851251" style="fill: #7e6e8a; stroke: #7e6e8a"/>
     <use xlink:href="#me92a2700e4" x="211.842994" y="87.233008" style="fill: #7e6e8a; stroke: #7e6e8a"/>
     <use xlink:href="#me92a2700e4" x="206.689532" y="86.829911" style="fill: #7e6e8a; stroke: #7e6e8a"/>
     <use xlink:href="#me92a2700e4" x="234.135029" y="61.016793" style="fill: #7e6e8a; stroke: #7e6e8a"/>
     <use xlink:href="#me92a2700e4" x="212.277528" y="72.055149" style="fill: #7e6e8a; stroke: #7e6e8a"/>
     <use xlink:href="#me92a2700e4" x="213.042504" y="71.871153" style="fill: #7e6e8a; stroke: #7e6e8a"/>
     <use xlink:href="#me92a2700e4" x="197.899474" y="82.626718" style="fill: #7e6e8a; stroke: #7e6e8a"/>
     <use xlink:href="#me92a2700e4" x="215.381633" y="106.871461" style="fill: #7e6e8a; stroke: #7e6e8a"/>
     <use xlink:href="#me92a2700e4" x="221.306119" y="66.78389" style="fill: #7e6e8a; stroke: #7e6e8a"/>
     <use xlink:href="#me92a2700e4" x="219.953921" y="75.8209" style="fill: #7e6e8a; stroke: #7e6e8a"/>
     <use xlink:href="#me92a2700e4" x="199.629908" y="55.8" style="fill: #7e6e8a; stroke: #7e6e8a"/>
     <use xlink:href="#me92a2700e4" x="207.038243" y="78.70117" style="fill: #7e6e8a; stroke: #7e6e8a"/>
     <use xlink:href="#me92a2700e4" x="222.642397" y="77.928539" style="fill: #7e6e8a; stroke: #7e6e8a"/>
     <use xlink:href="#me92a2700e4" x="196.194995" y="72.342399" style="fill: #7e6e8a; stroke: #7e6e8a"/>
     <use xlink:href="#me92a2700e4" x="179.806958" y="55.878698" style="fill: #7e6e8a; stroke: #7e6e8a"/>
     <use xlink:href="#me92a2700e4" x="174.318075" y="58.312452" style="fill: #7e6e8a; stroke: #7e6e8a"/>
     <use xlink:href="#me92a2700e4" x="198.231506" y="77.740775" style="fill: #7e6e8a; stroke: #7e6e8a"/>
     <use xlink:href="#me92a2700e4" x="257.077504" y="78.827577" style="fill: #7e6e8a; stroke: #7e6e8a"/>
     <use xlink:href="#me92a2700e4" x="212.574582" y="87.288869" style="fill: #7e6e8a; stroke: #7e6e8a"/>
     <use xlink:href="#me92a2700e4" x="235.997241" y="91.711946" style="fill: #7e6e8a; stroke: #7e6e8a"/>
     <use xlink:href="#me92a2700e4" x="242.133959" y="120.625236" style="fill: #7e6e8a; stroke: #7e6e8a"/>
     <use xlink:href="#me92a2700e4" x="279.372396" y="75.607221" style="fill: #7e6e8a; stroke: #7e6e8a"/>
     <use xlink:href="#me92a2700e4" x="237.715386" y="93.477556" style="fill: #7e6e8a; stroke: #7e6e8a"/>
     <use xlink:href="#me92a2700e4" x="225.291014" y="102.413184" style="fill: #7e6e8a; stroke: #7e6e8a"/>
     <use xlink:href="#me92a2700e4" x="224.600571" y="122.243606" style="fill: #7e6e8a; stroke: #7e6e8a"/>
     <use xlink:href="#me92a2700e4" x="272.152874" y="84.475973" style="fill: #7e6e8a; stroke: #7e6e8a"/>
     <use xlink:href="#me92a2700e4" x="260.061968" y="81.387976" style="fill: #7e6e8a; stroke: #7e6e8a"/>
     <use xlink:href="#me92a2700e4" x="222.438329" y="76.507983" style="fill: #7e6e8a; stroke: #7e6e8a"/>
     <use xlink:href="#me92a2700e4" x="194.287868" y="84.449906" style="fill: #7e6e8a; stroke: #7e6e8a"/>
     <use xlink:href="#me92a2700e4" x="213.22902" y="68.371033" style="fill: #7e6e8a; stroke: #7e6e8a"/>
     <use xlink:href="#me92a2700e4" x="250.814355" y="75.266814" style="fill: #7e6e8a; stroke: #7e6e8a"/>
     <use xlink:href="#me92a2700e4" x="235.031288" y="91.382002" style="fill: #7e6e8a; stroke: #7e6e8a"/>
     <use xlink:href="#me92a2700e4" x="216.770271" y="86.203218" style="fill: #7e6e8a; stroke: #7e6e8a"/>
     <use xlink:href="#me92a2700e4" x="208.896929" y="89.810379" style="fill: #7e6e8a; stroke: #7e6e8a"/>
     <use xlink:href="#me92a2700e4" x="219.326872" y="72.524699" style="fill: #7e6e8a; stroke: #7e6e8a"/>
     <use xlink:href="#me92a2700e4" x="263.288708" y="85.941229" style="fill: #7e6e8a; stroke: #7e6e8a"/>
     <use xlink:href="#me92a2700e4" x="224.304394" y="78.73064" style="fill: #7e6e8a; stroke: #7e6e8a"/>
    </g>
   </g>
   <g id="PathCollection_3">
    <defs>
     <path id="m200aa1e1a1" d="M 0 1.118034 
C 0.296506 1.118034 0.580908 1.000231 0.790569 0.790569 
C 1.000231 0.580908 1.118034 0.296506 1.118034 0 
C 1.118034 -0.296506 1.000231 -0.580908 0.790569 -0.790569 
C 0.580908 -1.000231 0.296506 -1.118034 0 -1.118034 
C -0.296506 -1.118034 -0.580908 -1.000231 -0.790569 -0.790569 
C -1.000231 -0.580908 -1.118034 -0.296506 -1.118034 0 
C -1.118034 0.296506 -1.000231 0.580908 -0.790569 0.790569 
C -0.580908 1.000231 -0.296506 1.118034 0 1.118034 
z
" style="stroke: #e9c5dd"/>
    </defs>
    <g clip-path="url(#p42632fbde7)">
     <use xlink:href="#m200aa1e1a1" x="161.848" y="101.51115" style="fill: #e9c5dd; stroke: #e9c5dd"/>
     <use xlink:href="#m200aa1e1a1" x="186.509333" y="107.933285" style="fill: #e9c5dd; stroke: #e9c5dd"/>
     <use xlink:href="#m200aa1e1a1" x="189.81988" y="116.347198" style="fill: #e9c5dd; stroke: #e9c5dd"/>
     <use xlink:href="#m200aa1e1a1" x="173.603096" y="109.16426" style="fill: #e9c5dd; stroke: #e9c5dd"/>
     <use xlink:href="#m200aa1e1a1" x="148.953562" y="100.165263" style="fill: #e9c5dd; stroke: #e9c5dd"/>
     <use xlink:href="#m200aa1e1a1" x="194.945036" y="111.651262" style="fill: #e9c5dd; stroke: #e9c5dd"/>
     <use xlink:href="#m200aa1e1a1" x="193.068153" y="112.137879" style="fill: #e9c5dd; stroke: #e9c5dd"/>
     <use xlink:href="#m200aa1e1a1" x="194.114165" y="112.595594" style="fill: #e9c5dd; stroke: #e9c5dd"/>
     <use xlink:href="#m200aa1e1a1" x="196.385517" y="113.969049" style="fill: #e9c5dd; stroke: #e9c5dd"/>
     <use xlink:href="#m200aa1e1a1" x="177.26168" y="113.432266" style="fill: #e9c5dd; stroke: #e9c5dd"/>
     <use xlink:href="#m200aa1e1a1" x="204.940558" y="119.778105" style="fill: #e9c5dd; stroke: #e9c5dd"/>
     <use xlink:href="#m200aa1e1a1" x="168.01701" y="103.388956" style="fill: #e9c5dd; stroke: #e9c5dd"/>
     <use xlink:href="#m200aa1e1a1" x="174.314447" y="106.132959" style="fill: #e9c5dd; stroke: #e9c5dd"/>
     <use xlink:href="#m200aa1e1a1" x="170.619777" y="100.775316" style="fill: #e9c5dd; stroke: #e9c5dd"/>
     <use xlink:href="#m200aa1e1a1" x="207.18968" y="114.071965" style="fill: #e9c5dd; stroke: #e9c5dd"/>
     <use xlink:href="#m200aa1e1a1" x="251.255106" y="133.608529" style="fill: #e9c5dd; stroke: #e9c5dd"/>
     <use xlink:href="#m200aa1e1a1" x="244.785563" y="137.622077" style="fill: #e9c5dd; stroke: #e9c5dd"/>
     <use xlink:href="#m200aa1e1a1" x="269.28659" y="146.627174" style="fill: #e9c5dd; stroke: #e9c5dd"/>
     <use xlink:href="#m200aa1e1a1" x="254.219449" y="146.671467" style="fill: #e9c5dd; stroke: #e9c5dd"/>
     <use xlink:href="#m200aa1e1a1" x="252.962438" y="143.03009" style="fill: #e9c5dd; stroke: #e9c5dd"/>
     <use xlink:href="#m200aa1e1a1" x="207.043503" y="132.057465" style="fill: #e9c5dd; stroke: #e9c5dd"/>
     <use xlink:href="#m200aa1e1a1" x="254.969569" y="136.056665" style="fill: #e9c5dd; stroke: #e9c5dd"/>
     <use xlink:href="#m200aa1e1a1" x="218.217062" y="135.241704" style="fill: #e9c5dd; stroke: #e9c5dd"/>
     <use xlink:href="#m200aa1e1a1" x="210.42687" y="121.218284" style="fill: #e9c5dd; stroke: #e9c5dd"/>
     <use xlink:href="#m200aa1e1a1" x="245.745574" y="126.690136" style="fill: #e9c5dd; stroke: #e9c5dd"/>
     <use xlink:href="#m200aa1e1a1" x="221.591066" y="133.386102" style="fill: #e9c5dd; stroke: #e9c5dd"/>
     <use xlink:href="#m200aa1e1a1" x="190.94944" y="113.976561" style="fill: #e9c5dd; stroke: #e9c5dd"/>
     <use xlink:href="#m200aa1e1a1" x="258.73874" y="144.122736" style="fill: #e9c5dd; stroke: #e9c5dd"/>
     <use xlink:href="#m200aa1e1a1" x="231.947088" y="135.54909" style="fill: #e9c5dd; stroke: #e9c5dd"/>
     <use xlink:href="#m200aa1e1a1" x="232.804851" y="136.40867" style="fill: #e9c5dd; stroke: #e9c5dd"/>
    </g>
   </g>
   <g id="matplotlib.axis_1">
    <g id="xtick_1">
     <g id="line2d_1">
      <defs>
       <path id="m73f663a13f" d="M 0 0 
L 0 3.5 
" style="stroke: #000000; stroke-opacity: 0; stroke-width: 0.8"/>
      </defs>
      <g>
       <use xlink:href="#m73f663a13f" x="126.210671" y="320.4" style="fill-opacity: 0; stroke: #000000; stroke-opacity: 0; stroke-width: 0.8"/>
      </g>
     </g>
     <g id="text_1">
      <!-- −2.0 -->
      <g style="opacity: 0" transform="translate(107.998561 338.797656) scale(0.15 -0.15)">
       <defs>
        <path id="DejaVuSans-2212" d="M 678 2272 
L 4684 2272 
L 4684 1741 
L 678 1741 
L 678 2272 
z
" transform="scale(0.015625)"/>
        <path id="DejaVuSans-32" d="M 1228 531 
L 3431 531 
L 3431 0 
L 469 0 
L 469 531 
Q 828 903 1448 1529 
Q 2069 2156 2228 2338 
Q 2531 2678 2651 2914 
Q 2772 3150 2772 3378 
Q 2772 3750 2511 3984 
Q 2250 4219 1831 4219 
Q 1534 4219 1204 4116 
Q 875 4013 500 3803 
L 500 4441 
Q 881 4594 1212 4672 
Q 1544 4750 1819 4750 
Q 2544 4750 2975 4387 
Q 3406 4025 3406 3419 
Q 3406 3131 3298 2873 
Q 3191 2616 2906 2266 
Q 2828 2175 2409 1742 
Q 1991 1309 1228 531 
z
" transform="scale(0.015625)"/>
        <path id="DejaVuSans-2e" d="M 684 794 
L 1344 794 
L 1344 0 
L 684 0 
L 684 794 
z
" transform="scale(0.015625)"/>
        <path id="DejaVuSans-30" d="M 2034 4250 
Q 1547 4250 1301 3770 
Q 1056 3291 1056 2328 
Q 1056 1369 1301 889 
Q 1547 409 2034 409 
Q 2525 409 2770 889 
Q 3016 1369 3016 2328 
Q 3016 3291 2770 3770 
Q 2525 4250 2034 4250 
z
M 2034 4750 
Q 2819 4750 3233 4129 
Q 3647 3509 3647 2328 
Q 3647 1150 3233 529 
Q 2819 -91 2034 -91 
Q 1250 -91 836 529 
Q 422 1150 422 2328 
Q 422 3509 836 4129 
Q 1250 4750 2034 4750 
z
" transform="scale(0.015625)"/>
       </defs>
       <use xlink:href="#DejaVuSans-2212"/>
       <use xlink:href="#DejaVuSans-32" transform="translate(83.789062 0)"/>
       <use xlink:href="#DejaVuSans-2e" transform="translate(147.412109 0)"/>
       <use xlink:href="#DejaVuSans-30" transform="translate(179.199219 0)"/>
      </g>
     </g>
    </g>
    <g id="xtick_2">
     <g id="line2d_2">
      <g>
       <use xlink:href="#m73f663a13f" x="219.430354" y="320.4" style="fill-opacity: 0; stroke: #000000; stroke-opacity: 0; stroke-width: 0.8"/>
      </g>
     </g>
     <g id="text_2">
      <!-- −1.5 -->
      <g style="opacity: 0" transform="translate(201.218244 338.797656) scale(0.15 -0.15)">
       <defs>
        <path id="DejaVuSans-31" d="M 794 531 
L 1825 531 
L 1825 4091 
L 703 3866 
L 703 4441 
L 1819 4666 
L 2450 4666 
L 2450 531 
L 3481 531 
L 3481 0 
L 794 0 
L 794 531 
z
" transform="scale(0.015625)"/>
        <path id="DejaVuSans-35" d="M 691 4666 
L 3169 4666 
L 3169 4134 
L 1269 4134 
L 1269 2991 
Q 1406 3038 1543 3061 
Q 1681 3084 1819 3084 
Q 2600 3084 3056 2656 
Q 3513 2228 3513 1497 
Q 3513 744 3044 326 
Q 2575 -91 1722 -91 
Q 1428 -91 1123 -41 
Q 819 9 494 109 
L 494 744 
Q 775 591 1075 516 
Q 1375 441 1709 441 
Q 2250 441 2565 725 
Q 2881 1009 2881 1497 
Q 2881 1984 2565 2268 
Q 2250 2553 1709 2553 
Q 1456 2553 1204 2497 
Q 953 2441 691 2322 
L 691 4666 
z
" transform="scale(0.015625)"/>
       </defs>
       <use xlink:href="#DejaVuSans-2212"/>
       <use xlink:href="#DejaVuSans-31" transform="translate(83.789062 0)"/>
       <use xlink:href="#DejaVuSans-2e" transform="translate(147.412109 0)"/>
       <use xlink:href="#DejaVuSans-35" transform="translate(179.199219 0)"/>
      </g>
     </g>
    </g>
    <g id="xtick_3">
     <g id="line2d_3">
      <g>
       <use xlink:href="#m73f663a13f" x="312.650037" y="320.4" style="fill-opacity: 0; stroke: #000000; stroke-opacity: 0; stroke-width: 0.8"/>
      </g>
     </g>
     <g id="text_3">
      <!-- −1.0 -->
      <g style="opacity: 0" transform="translate(294.437928 338.797656) scale(0.15 -0.15)">
       <use xlink:href="#DejaVuSans-2212"/>
       <use xlink:href="#DejaVuSans-31" transform="translate(83.789062 0)"/>
       <use xlink:href="#DejaVuSans-2e" transform="translate(147.412109 0)"/>
       <use xlink:href="#DejaVuSans-30" transform="translate(179.199219 0)"/>
      </g>
     </g>
    </g>
    <g id="xtick_4">
     <g id="line2d_4">
      <g>
       <use xlink:href="#m73f663a13f" x="405.86972" y="320.4" style="fill-opacity: 0; stroke: #000000; stroke-opacity: 0; stroke-width: 0.8"/>
      </g>
     </g>
     <g id="text_4">
      <!-- −0.5 -->
      <g style="opacity: 0" transform="translate(387.657611 338.797656) scale(0.15 -0.15)">
       <use xlink:href="#DejaVuSans-2212"/>
       <use xlink:href="#DejaVuSans-30" transform="translate(83.789062 0)"/>
       <use xlink:href="#DejaVuSans-2e" transform="translate(147.412109 0)"/>
       <use xlink:href="#DejaVuSans-35" transform="translate(179.199219 0)"/>
      </g>
     </g>
    </g>
    <g id="text_5">
     <!-- PC1 -->
     <g transform="translate(240.806818 361.114062) scale(0.2 -0.2)">
      <defs>
       <path id="DejaVuSans-50" d="M 1259 4147 
L 1259 2394 
L 2053 2394 
Q 2494 2394 2734 2622 
Q 2975 2850 2975 3272 
Q 2975 3691 2734 3919 
Q 2494 4147 2053 4147 
L 1259 4147 
z
M 628 4666 
L 2053 4666 
Q 2838 4666 3239 4311 
Q 3641 3956 3641 3272 
Q 3641 2581 3239 2228 
Q 2838 1875 2053 1875 
L 1259 1875 
L 1259 0 
L 628 0 
L 628 4666 
z
" transform="scale(0.015625)"/>
       <path id="DejaVuSans-43" d="M 4122 4306 
L 4122 3641 
Q 3803 3938 3442 4084 
Q 3081 4231 2675 4231 
Q 1875 4231 1450 3742 
Q 1025 3253 1025 2328 
Q 1025 1406 1450 917 
Q 1875 428 2675 428 
Q 3081 428 3442 575 
Q 3803 722 4122 1019 
L 4122 359 
Q 3791 134 3420 21 
Q 3050 -91 2638 -91 
Q 1578 -91 968 557 
Q 359 1206 359 2328 
Q 359 3453 968 4101 
Q 1578 4750 2638 4750 
Q 3056 4750 3426 4639 
Q 3797 4528 4122 4306 
z
" transform="scale(0.015625)"/>
      </defs>
      <use xlink:href="#DejaVuSans-50"/>
      <use xlink:href="#DejaVuSans-43" transform="translate(60.302734 0)"/>
      <use xlink:href="#DejaVuSans-31" transform="translate(130.126953 0)"/>
     </g>
    </g>
   </g>
   <g id="matplotlib.axis_2">
    <g id="ytick_1">
     <g id="line2d_5">
      <defs>
       <path id="md750c6a62a" d="M 0 0 
L -3.5 0 
" style="stroke: #000000; stroke-opacity: 0; stroke-width: 0.8"/>
      </defs>
      <g>
       <use xlink:href="#md750c6a62a" x="108" y="283.5734" style="fill-opacity: 0; stroke: #000000; stroke-opacity: 0; stroke-width: 0.8"/>
      </g>
     </g>
     <g id="text_6">
      <!-- −2.5 -->
      <g style="opacity: 0" transform="translate(64.575781 289.272228) scale(0.15 -0.15)">
       <use xlink:href="#DejaVuSans-2212"/>
       <use xlink:href="#DejaVuSans-32" transform="translate(83.789062 0)"/>
       <use xlink:href="#DejaVuSans-2e" transform="translate(147.412109 0)"/>
       <use xlink:href="#DejaVuSans-35" transform="translate(179.199219 0)"/>
      </g>
     </g>
    </g>
    <g id="ytick_2">
     <g id="line2d_6">
      <g>
       <use xlink:href="#md750c6a62a" x="108" y="225.013515" style="fill-opacity: 0; stroke: #000000; stroke-opacity: 0; stroke-width: 0.8"/>
      </g>
     </g>
     <g id="text_7">
      <!-- −2.0 -->
      <g style="opacity: 0" transform="translate(64.575781 230.712343) scale(0.15 -0.15)">
       <use xlink:href="#DejaVuSans-2212"/>
       <use xlink:href="#DejaVuSans-32" transform="translate(83.789062 0)"/>
       <use xlink:href="#DejaVuSans-2e" transform="translate(147.412109 0)"/>
       <use xlink:href="#DejaVuSans-30" transform="translate(179.199219 0)"/>
      </g>
     </g>
    </g>
    <g id="ytick_3">
     <g id="line2d_7">
      <g>
       <use xlink:href="#md750c6a62a" x="108" y="166.453631" style="fill-opacity: 0; stroke: #000000; stroke-opacity: 0; stroke-width: 0.8"/>
      </g>
     </g>
     <g id="text_8">
      <!-- −1.5 -->
      <g style="opacity: 0" transform="translate(64.575781 172.152459) scale(0.15 -0.15)">
       <use xlink:href="#DejaVuSans-2212"/>
       <use xlink:href="#DejaVuSans-31" transform="translate(83.789062 0)"/>
       <use xlink:href="#DejaVuSans-2e" transform="translate(147.412109 0)"/>
       <use xlink:href="#DejaVuSans-35" transform="translate(179.199219 0)"/>
      </g>
     </g>
    </g>
    <g id="ytick_4">
     <g id="line2d_8">
      <g>
       <use xlink:href="#md750c6a62a" x="108" y="107.893746" style="fill-opacity: 0; stroke: #000000; stroke-opacity: 0; stroke-width: 0.8"/>
      </g>
     </g>
     <g id="text_9">
      <!-- −1.0 -->
      <g style="opacity: 0" transform="translate(64.575781 113.592574) scale(0.15 -0.15)">
       <use xlink:href="#DejaVuSans-2212"/>
       <use xlink:href="#DejaVuSans-31" transform="translate(83.789062 0)"/>
       <use xlink:href="#DejaVuSans-2e" transform="translate(147.412109 0)"/>
       <use xlink:href="#DejaVuSans-30" transform="translate(179.199219 0)"/>
      </g>
     </g>
    </g>
    <g id="ytick_5">
     <g id="line2d_9">
      <g>
       <use xlink:href="#md750c6a62a" x="108" y="49.333862" style="fill-opacity: 0; stroke: #000000; stroke-opacity: 0; stroke-width: 0.8"/>
      </g>
     </g>
     <g id="text_10">
      <!-- −0.5 -->
      <g style="opacity: 0" transform="translate(64.575781 55.03269) scale(0.15 -0.15)">
       <use xlink:href="#DejaVuSans-2212"/>
       <use xlink:href="#DejaVuSans-30" transform="translate(83.789062 0)"/>
       <use xlink:href="#DejaVuSans-2e" transform="translate(147.412109 0)"/>
       <use xlink:href="#DejaVuSans-35" transform="translate(179.199219 0)"/>
      </g>
     </g>
    </g>
    <g id="text_11">
     <!-- PC2 -->
     <g transform="translate(56.416406 201.175) rotate(-90) scale(0.2 -0.2)">
      <use xlink:href="#DejaVuSans-50"/>
      <use xlink:href="#DejaVuSans-43" transform="translate(60.302734 0)"/>
      <use xlink:href="#DejaVuSans-32" transform="translate(130.126953 0)"/>
     </g>
    </g>
   </g>
   <g id="patch_3">
    <path d="M 108 320.4 
L 108 43.2 
" style="fill: none; stroke: #000000; stroke-width: 3; stroke-linejoin: miter; stroke-linecap: square"/>
   </g>
   <g id="patch_4">
    <path d="M 412.363636 320.4 
L 412.363636 43.2 
" style="fill: none; stroke: #000000; stroke-width: 3; stroke-linejoin: miter; stroke-linecap: square"/>
   </g>
   <g id="patch_5">
    <path d="M 108 320.4 
L 412.363636 320.4 
" style="fill: none; stroke: #000000; stroke-width: 3; stroke-linejoin: miter; stroke-linecap: square"/>
   </g>
   <g id="patch_6">
    <path d="M 108 43.2 
L 412.363636 43.2 
" style="fill: none; stroke: #000000; stroke-width: 3; stroke-linejoin: miter; stroke-linecap: square"/>
   </g>
   <g id="legend_1">
    <g id="patch_7">
     <path d="M 120.6 311.4 
L 312.505312 311.4 
Q 316.105312 311.4 316.105312 307.8 
L 316.105312 230.338125 
Q 316.105312 226.738125 312.505312 226.738125 
L 120.6 226.738125 
Q 117 226.738125 117 230.338125 
L 117 307.8 
Q 117 311.4 120.6 311.4 
z
" style="fill: #ffffff; opacity: 0.8; stroke: #cccccc; stroke-linejoin: miter"/>
    </g>
    <g id="PathCollection_4">
     <g>
      <use xlink:href="#mb45d732323" x="142.2" y="242.890313" style="stroke: #000000"/>
     </g>
    </g>
    <g id="text_12">
     <!-- Cobalt Dataset -->
     <g transform="translate(174.6 247.615313) scale(0.18 -0.18)">
      <defs>
       <path id="DejaVuSans-6f" d="M 1959 3097 
Q 1497 3097 1228 2736 
Q 959 2375 959 1747 
Q 959 1119 1226 758 
Q 1494 397 1959 397 
Q 2419 397 2687 759 
Q 2956 1122 2956 1747 
Q 2956 2369 2687 2733 
Q 2419 3097 1959 3097 
z
M 1959 3584 
Q 2709 3584 3137 3096 
Q 3566 2609 3566 1747 
Q 3566 888 3137 398 
Q 2709 -91 1959 -91 
Q 1206 -91 779 398 
Q 353 888 353 1747 
Q 353 2609 779 3096 
Q 1206 3584 1959 3584 
z
" transform="scale(0.015625)"/>
       <path id="DejaVuSans-62" d="M 3116 1747 
Q 3116 2381 2855 2742 
Q 2594 3103 2138 3103 
Q 1681 3103 1420 2742 
Q 1159 2381 1159 1747 
Q 1159 1113 1420 752 
Q 1681 391 2138 391 
Q 2594 391 2855 752 
Q 3116 1113 3116 1747 
z
M 1159 2969 
Q 1341 3281 1617 3432 
Q 1894 3584 2278 3584 
Q 2916 3584 3314 3078 
Q 3713 2572 3713 1747 
Q 3713 922 3314 415 
Q 2916 -91 2278 -91 
Q 1894 -91 1617 61 
Q 1341 213 1159 525 
L 1159 0 
L 581 0 
L 581 4863 
L 1159 4863 
L 1159 2969 
z
" transform="scale(0.015625)"/>
       <path id="DejaVuSans-61" d="M 2194 1759 
Q 1497 1759 1228 1600 
Q 959 1441 959 1056 
Q 959 750 1161 570 
Q 1363 391 1709 391 
Q 2188 391 2477 730 
Q 2766 1069 2766 1631 
L 2766 1759 
L 2194 1759 
z
M 3341 1997 
L 3341 0 
L 2766 0 
L 2766 531 
Q 2569 213 2275 61 
Q 1981 -91 1556 -91 
Q 1019 -91 701 211 
Q 384 513 384 1019 
Q 384 1609 779 1909 
Q 1175 2209 1959 2209 
L 2766 2209 
L 2766 2266 
Q 2766 2663 2505 2880 
Q 2244 3097 1772 3097 
Q 1472 3097 1187 3025 
Q 903 2953 641 2809 
L 641 3341 
Q 956 3463 1253 3523 
Q 1550 3584 1831 3584 
Q 2591 3584 2966 3190 
Q 3341 2797 3341 1997 
z
" transform="scale(0.015625)"/>
       <path id="DejaVuSans-6c" d="M 603 4863 
L 1178 4863 
L 1178 0 
L 603 0 
L 603 4863 
z
" transform="scale(0.015625)"/>
       <path id="DejaVuSans-74" d="M 1172 4494 
L 1172 3500 
L 2356 3500 
L 2356 3053 
L 1172 3053 
L 1172 1153 
Q 1172 725 1289 603 
Q 1406 481 1766 481 
L 2356 481 
L 2356 0 
L 1766 0 
Q 1100 0 847 248 
Q 594 497 594 1153 
L 594 3053 
L 172 3053 
L 172 3500 
L 594 3500 
L 594 4494 
L 1172 4494 
z
" transform="scale(0.015625)"/>
       <path id="DejaVuSans-20" transform="scale(0.015625)"/>
       <path id="DejaVuSans-44" d="M 1259 4147 
L 1259 519 
L 2022 519 
Q 2988 519 3436 956 
Q 3884 1394 3884 2338 
Q 3884 3275 3436 3711 
Q 2988 4147 2022 4147 
L 1259 4147 
z
M 628 4666 
L 1925 4666 
Q 3281 4666 3915 4102 
Q 4550 3538 4550 2338 
Q 4550 1131 3912 565 
Q 3275 0 1925 0 
L 628 0 
L 628 4666 
z
" transform="scale(0.015625)"/>
       <path id="DejaVuSans-73" d="M 2834 3397 
L 2834 2853 
Q 2591 2978 2328 3040 
Q 2066 3103 1784 3103 
Q 1356 3103 1142 2972 
Q 928 2841 928 2578 
Q 928 2378 1081 2264 
Q 1234 2150 1697 2047 
L 1894 2003 
Q 2506 1872 2764 1633 
Q 3022 1394 3022 966 
Q 3022 478 2636 193 
Q 2250 -91 1575 -91 
Q 1294 -91 989 -36 
Q 684 19 347 128 
L 347 722 
Q 666 556 975 473 
Q 1284 391 1588 391 
Q 1994 391 2212 530 
Q 2431 669 2431 922 
Q 2431 1156 2273 1281 
Q 2116 1406 1581 1522 
L 1381 1569 
Q 847 1681 609 1914 
Q 372 2147 372 2553 
Q 372 3047 722 3315 
Q 1072 3584 1716 3584 
Q 2034 3584 2315 3537 
Q 2597 3491 2834 3397 
z
" transform="scale(0.015625)"/>
       <path id="DejaVuSans-65" d="M 3597 1894 
L 3597 1613 
L 953 1613 
Q 991 1019 1311 708 
Q 1631 397 2203 397 
Q 2534 397 2845 478 
Q 3156 559 3463 722 
L 3463 178 
Q 3153 47 2828 -22 
Q 2503 -91 2169 -91 
Q 1331 -91 842 396 
Q 353 884 353 1716 
Q 353 2575 817 3079 
Q 1281 3584 2069 3584 
Q 2775 3584 3186 3129 
Q 3597 2675 3597 1894 
z
M 3022 2063 
Q 3016 2534 2758 2815 
Q 2500 3097 2075 3097 
Q 1594 3097 1305 2825 
Q 1016 2553 972 2059 
L 3022 2063 
z
" transform="scale(0.015625)"/>
      </defs>
      <use xlink:href="#DejaVuSans-43"/>
      <use xlink:href="#DejaVuSans-6f" transform="translate(69.824219 0)"/>
      <use xlink:href="#DejaVuSans-62" transform="translate(131.005859 0)"/>
      <use xlink:href="#DejaVuSans-61" transform="translate(194.482422 0)"/>
      <use xlink:href="#DejaVuSans-6c" transform="translate(255.761719 0)"/>
      <use xlink:href="#DejaVuSans-74" transform="translate(283.544922 0)"/>
      <use xlink:href="#DejaVuSans-20" transform="translate(322.753906 0)"/>
      <use xlink:href="#DejaVuSans-44" transform="translate(354.541016 0)"/>
      <use xlink:href="#DejaVuSans-61" transform="translate(431.542969 0)"/>
      <use xlink:href="#DejaVuSans-74" transform="translate(492.822266 0)"/>
      <use xlink:href="#DejaVuSans-61" transform="translate(532.03125 0)"/>
      <use xlink:href="#DejaVuSans-73" transform="translate(593.310547 0)"/>
      <use xlink:href="#DejaVuSans-65" transform="translate(645.410156 0)"/>
      <use xlink:href="#DejaVuSans-74" transform="translate(706.933594 0)"/>
     </g>
    </g>
    <g id="PathCollection_5">
     <g>
      <use xlink:href="#me92a2700e4" x="142.2" y="269.310938" style="fill: #7e6e8a; stroke: #7e6e8a"/>
     </g>
    </g>
    <g id="text_13">
     <!-- $\mathregular{CoCl_3}$ -->
     <g transform="translate(174.6 274.035938) scale(0.18 -0.18)">
      <defs>
       <path id="DejaVuSans-33" d="M 2597 2516 
Q 3050 2419 3304 2112 
Q 3559 1806 3559 1356 
Q 3559 666 3084 287 
Q 2609 -91 1734 -91 
Q 1441 -91 1130 -33 
Q 819 25 488 141 
L 488 750 
Q 750 597 1062 519 
Q 1375 441 1716 441 
Q 2309 441 2620 675 
Q 2931 909 2931 1356 
Q 2931 1769 2642 2001 
Q 2353 2234 1838 2234 
L 1294 2234 
L 1294 2753 
L 1863 2753 
Q 2328 2753 2575 2939 
Q 2822 3125 2822 3475 
Q 2822 3834 2567 4026 
Q 2313 4219 1838 4219 
Q 1578 4219 1281 4162 
Q 984 4106 628 3988 
L 628 4550 
Q 988 4650 1302 4700 
Q 1616 4750 1894 4750 
Q 2613 4750 3031 4423 
Q 3450 4097 3450 3541 
Q 3450 3153 3228 2886 
Q 3006 2619 2597 2516 
z
" transform="scale(0.015625)"/>
      </defs>
      <use xlink:href="#DejaVuSans-43" transform="translate(0 0.015625)"/>
      <use xlink:href="#DejaVuSans-6f" transform="translate(69.824219 0.015625)"/>
      <use xlink:href="#DejaVuSans-43" transform="translate(131.005859 0.015625)"/>
      <use xlink:href="#DejaVuSans-6c" transform="translate(200.830078 0.015625)"/>
      <use xlink:href="#DejaVuSans-33" transform="translate(229.570312 -16.390625) scale(0.7)"/>
     </g>
    </g>
    <g id="PathCollection_6">
     <g>
      <use xlink:href="#m200aa1e1a1" x="142.2" y="295.731562" style="fill: #e9c5dd; stroke: #e9c5dd"/>
     </g>
    </g>
    <g id="text_14">
     <!-- $\mathregular{CoCl_4}$ -->
     <g transform="translate(174.6 300.456563) scale(0.18 -0.18)">
      <defs>
       <path id="DejaVuSans-34" d="M 2419 4116 
L 825 1625 
L 2419 1625 
L 2419 4116 
z
M 2253 4666 
L 3047 4666 
L 3047 1625 
L 3713 1625 
L 3713 1100 
L 3047 1100 
L 3047 0 
L 2419 0 
L 2419 1100 
L 313 1100 
L 313 1709 
L 2253 4666 
z
" transform="scale(0.015625)"/>
      </defs>
      <use xlink:href="#DejaVuSans-43" transform="translate(0 0.015625)"/>
      <use xlink:href="#DejaVuSans-6f" transform="translate(69.824219 0.015625)"/>
      <use xlink:href="#DejaVuSans-43" transform="translate(131.005859 0.015625)"/>
      <use xlink:href="#DejaVuSans-6c" transform="translate(200.830078 0.015625)"/>
      <use xlink:href="#DejaVuSans-34" transform="translate(229.570312 -16.390625) scale(0.7)"/>
     </g>
    </g>
   </g>
  </g>
  <g id="axes_2">
   <g id="patch_8">
    <path d="M 473.236364 320.4 
L 777.6 320.4 
L 777.6 43.2 
L 473.236364 43.2 
z
" style="fill: #ffffff"/>
   </g>
   <g id="matplotlib.axis_3">
    <g id="xtick_5">
     <g id="line2d_10">
      <defs>
       <path id="m7c75cd3591" d="M 0 0 
L 0 3.5 
" style="stroke: #000000; stroke-width: 0.8"/>
      </defs>
      <g>
       <use xlink:href="#m7c75cd3591" x="487.071074" y="320.4" style="stroke: #000000; stroke-width: 0.8"/>
      </g>
     </g>
     <g id="text_15">
      <!-- 0 -->
      <g transform="translate(482.299199 338.797656) scale(0.15 -0.15)">
       <use xlink:href="#DejaVuSans-30"/>
      </g>
     </g>
    </g>
    <g id="xtick_6">
     <g id="line2d_11">
      <g>
       <use xlink:href="#m7c75cd3591" x="548.558678" y="320.4" style="stroke: #000000; stroke-width: 0.8"/>
      </g>
     </g>
     <g id="text_16">
      <!-- 2 -->
      <g transform="translate(543.786803 338.797656) scale(0.15 -0.15)">
       <use xlink:href="#DejaVuSans-32"/>
      </g>
     </g>
    </g>
    <g id="xtick_7">
     <g id="line2d_12">
      <g>
       <use xlink:href="#m7c75cd3591" x="610.046281" y="320.4" style="stroke: #000000; stroke-width: 0.8"/>
      </g>
     </g>
     <g id="text_17">
      <!-- 4 -->
      <g transform="translate(605.274406 338.797656) scale(0.15 -0.15)">
       <use xlink:href="#DejaVuSans-34"/>
      </g>
     </g>
    </g>
    <g id="xtick_8">
     <g id="line2d_13">
      <g>
       <use xlink:href="#m7c75cd3591" x="671.533884" y="320.4" style="stroke: #000000; stroke-width: 0.8"/>
      </g>
     </g>
     <g id="text_18">
      <!-- 6 -->
      <g transform="translate(666.762009 338.797656) scale(0.15 -0.15)">
       <defs>
        <path id="DejaVuSans-36" d="M 2113 2584 
Q 1688 2584 1439 2293 
Q 1191 2003 1191 1497 
Q 1191 994 1439 701 
Q 1688 409 2113 409 
Q 2538 409 2786 701 
Q 3034 994 3034 1497 
Q 3034 2003 2786 2293 
Q 2538 2584 2113 2584 
z
M 3366 4563 
L 3366 3988 
Q 3128 4100 2886 4159 
Q 2644 4219 2406 4219 
Q 1781 4219 1451 3797 
Q 1122 3375 1075 2522 
Q 1259 2794 1537 2939 
Q 1816 3084 2150 3084 
Q 2853 3084 3261 2657 
Q 3669 2231 3669 1497 
Q 3669 778 3244 343 
Q 2819 -91 2113 -91 
Q 1303 -91 875 529 
Q 447 1150 447 2328 
Q 447 3434 972 4092 
Q 1497 4750 2381 4750 
Q 2619 4750 2861 4703 
Q 3103 4656 3366 4563 
z
" transform="scale(0.015625)"/>
       </defs>
       <use xlink:href="#DejaVuSans-36"/>
      </g>
     </g>
    </g>
    <g id="xtick_9">
     <g id="line2d_14">
      <g>
       <use xlink:href="#m7c75cd3591" x="733.021488" y="320.4" style="stroke: #000000; stroke-width: 0.8"/>
      </g>
     </g>
     <g id="text_19">
      <!-- 8 -->
      <g transform="translate(728.249613 338.797656) scale(0.15 -0.15)">
       <defs>
        <path id="DejaVuSans-38" d="M 2034 2216 
Q 1584 2216 1326 1975 
Q 1069 1734 1069 1313 
Q 1069 891 1326 650 
Q 1584 409 2034 409 
Q 2484 409 2743 651 
Q 3003 894 3003 1313 
Q 3003 1734 2745 1975 
Q 2488 2216 2034 2216 
z
M 1403 2484 
Q 997 2584 770 2862 
Q 544 3141 544 3541 
Q 544 4100 942 4425 
Q 1341 4750 2034 4750 
Q 2731 4750 3128 4425 
Q 3525 4100 3525 3541 
Q 3525 3141 3298 2862 
Q 3072 2584 2669 2484 
Q 3125 2378 3379 2068 
Q 3634 1759 3634 1313 
Q 3634 634 3220 271 
Q 2806 -91 2034 -91 
Q 1263 -91 848 271 
Q 434 634 434 1313 
Q 434 1759 690 2068 
Q 947 2378 1403 2484 
z
M 1172 3481 
Q 1172 3119 1398 2916 
Q 1625 2713 2034 2713 
Q 2441 2713 2670 2916 
Q 2900 3119 2900 3481 
Q 2900 3844 2670 4047 
Q 2441 4250 2034 4250 
Q 1625 4250 1398 4047 
Q 1172 3844 1172 3481 
z
" transform="scale(0.015625)"/>
       </defs>
       <use xlink:href="#DejaVuSans-38"/>
      </g>
     </g>
    </g>
    <g id="text_20">
     <!-- Time (ns) -->
     <g transform="translate(578.422869 361.114062) scale(0.2 -0.2)">
      <defs>
       <path id="DejaVuSans-54" d="M -19 4666 
L 3928 4666 
L 3928 4134 
L 2272 4134 
L 2272 0 
L 1638 0 
L 1638 4134 
L -19 4134 
L -19 4666 
z
" transform="scale(0.015625)"/>
       <path id="DejaVuSans-69" d="M 603 3500 
L 1178 3500 
L 1178 0 
L 603 0 
L 603 3500 
z
M 603 4863 
L 1178 4863 
L 1178 4134 
L 603 4134 
L 603 4863 
z
" transform="scale(0.015625)"/>
       <path id="DejaVuSans-6d" d="M 3328 2828 
Q 3544 3216 3844 3400 
Q 4144 3584 4550 3584 
Q 5097 3584 5394 3201 
Q 5691 2819 5691 2113 
L 5691 0 
L 5113 0 
L 5113 2094 
Q 5113 2597 4934 2840 
Q 4756 3084 4391 3084 
Q 3944 3084 3684 2787 
Q 3425 2491 3425 1978 
L 3425 0 
L 2847 0 
L 2847 2094 
Q 2847 2600 2669 2842 
Q 2491 3084 2119 3084 
Q 1678 3084 1418 2786 
Q 1159 2488 1159 1978 
L 1159 0 
L 581 0 
L 581 3500 
L 1159 3500 
L 1159 2956 
Q 1356 3278 1631 3431 
Q 1906 3584 2284 3584 
Q 2666 3584 2933 3390 
Q 3200 3197 3328 2828 
z
" transform="scale(0.015625)"/>
       <path id="DejaVuSans-28" d="M 1984 4856 
Q 1566 4138 1362 3434 
Q 1159 2731 1159 2009 
Q 1159 1288 1364 580 
Q 1569 -128 1984 -844 
L 1484 -844 
Q 1016 -109 783 600 
Q 550 1309 550 2009 
Q 550 2706 781 3412 
Q 1013 4119 1484 4856 
L 1984 4856 
z
" transform="scale(0.015625)"/>
       <path id="DejaVuSans-6e" d="M 3513 2113 
L 3513 0 
L 2938 0 
L 2938 2094 
Q 2938 2591 2744 2837 
Q 2550 3084 2163 3084 
Q 1697 3084 1428 2787 
Q 1159 2491 1159 1978 
L 1159 0 
L 581 0 
L 581 3500 
L 1159 3500 
L 1159 2956 
Q 1366 3272 1645 3428 
Q 1925 3584 2291 3584 
Q 2894 3584 3203 3211 
Q 3513 2838 3513 2113 
z
" transform="scale(0.015625)"/>
       <path id="DejaVuSans-29" d="M 513 4856 
L 1013 4856 
Q 1481 4119 1714 3412 
Q 1947 2706 1947 2009 
Q 1947 1309 1714 600 
Q 1481 -109 1013 -844 
L 513 -844 
Q 928 -128 1133 580 
Q 1338 1288 1338 2009 
Q 1338 2731 1133 3434 
Q 928 4138 513 4856 
z
" transform="scale(0.015625)"/>
      </defs>
      <use xlink:href="#DejaVuSans-54"/>
      <use xlink:href="#DejaVuSans-69" transform="translate(57.958984 0)"/>
      <use xlink:href="#DejaVuSans-6d" transform="translate(85.742188 0)"/>
      <use xlink:href="#DejaVuSans-65" transform="translate(183.154297 0)"/>
      <use xlink:href="#DejaVuSans-20" transform="translate(244.677734 0)"/>
      <use xlink:href="#DejaVuSans-28" transform="translate(276.464844 0)"/>
      <use xlink:href="#DejaVuSans-6e" transform="translate(315.478516 0)"/>
      <use xlink:href="#DejaVuSans-73" transform="translate(378.857422 0)"/>
      <use xlink:href="#DejaVuSans-29" transform="translate(430.957031 0)"/>
     </g>
    </g>
   </g>
   <g id="matplotlib.axis_4">
    <g id="ytick_6">
     <g id="line2d_15">
      <defs>
       <path id="m6d03b0c385" d="M 0 0 
L -3.5 0 
" style="stroke: #000000; stroke-width: 0.8"/>
      </defs>
      <g>
       <use xlink:href="#m6d03b0c385" x="473.236364" y="292.160604" style="stroke: #000000; stroke-width: 0.8"/>
      </g>
     </g>
     <g id="text_21">
      <!-- 35 -->
      <g transform="translate(447.148864 297.859432) scale(0.15 -0.15)">
       <use xlink:href="#DejaVuSans-33"/>
       <use xlink:href="#DejaVuSans-35" transform="translate(63.623047 0)"/>
      </g>
     </g>
    </g>
    <g id="ytick_7">
     <g id="line2d_16">
      <g>
       <use xlink:href="#m6d03b0c385" x="473.236364" y="258.60472" style="stroke: #000000; stroke-width: 0.8"/>
      </g>
     </g>
     <g id="text_22">
      <!-- 40 -->
      <g transform="translate(447.148864 264.303548) scale(0.15 -0.15)">
       <use xlink:href="#DejaVuSans-34"/>
       <use xlink:href="#DejaVuSans-30" transform="translate(63.623047 0)"/>
      </g>
     </g>
    </g>
    <g id="ytick_8">
     <g id="line2d_17">
      <g>
       <use xlink:href="#m6d03b0c385" x="473.236364" y="225.048835" style="stroke: #000000; stroke-width: 0.8"/>
      </g>
     </g>
     <g id="text_23">
      <!-- 45 -->
      <g transform="translate(447.148864 230.747663) scale(0.15 -0.15)">
       <use xlink:href="#DejaVuSans-34"/>
       <use xlink:href="#DejaVuSans-35" transform="translate(63.623047 0)"/>
      </g>
     </g>
    </g>
    <g id="ytick_9">
     <g id="line2d_18">
      <g>
       <use xlink:href="#m6d03b0c385" x="473.236364" y="191.492951" style="stroke: #000000; stroke-width: 0.8"/>
      </g>
     </g>
     <g id="text_24">
      <!-- 50 -->
      <g transform="translate(447.148864 197.191779) scale(0.15 -0.15)">
       <use xlink:href="#DejaVuSans-35"/>
       <use xlink:href="#DejaVuSans-30" transform="translate(63.623047 0)"/>
      </g>
     </g>
    </g>
    <g id="ytick_10">
     <g id="line2d_19">
      <g>
       <use xlink:href="#m6d03b0c385" x="473.236364" y="157.937067" style="stroke: #000000; stroke-width: 0.8"/>
      </g>
     </g>
     <g id="text_25">
      <!-- 55 -->
      <g transform="translate(447.148864 163.635895) scale(0.15 -0.15)">
       <use xlink:href="#DejaVuSans-35"/>
       <use xlink:href="#DejaVuSans-35" transform="translate(63.623047 0)"/>
      </g>
     </g>
    </g>
    <g id="ytick_11">
     <g id="line2d_20">
      <g>
       <use xlink:href="#m6d03b0c385" x="473.236364" y="124.381182" style="stroke: #000000; stroke-width: 0.8"/>
      </g>
     </g>
     <g id="text_26">
      <!-- 60 -->
      <g transform="translate(447.148864 130.08001) scale(0.15 -0.15)">
       <use xlink:href="#DejaVuSans-36"/>
       <use xlink:href="#DejaVuSans-30" transform="translate(63.623047 0)"/>
      </g>
     </g>
    </g>
    <g id="ytick_12">
     <g id="line2d_21">
      <g>
       <use xlink:href="#m6d03b0c385" x="473.236364" y="90.825298" style="stroke: #000000; stroke-width: 0.8"/>
      </g>
     </g>
     <g id="text_27">
      <!-- 65 -->
      <g transform="translate(447.148864 96.524126) scale(0.15 -0.15)">
       <use xlink:href="#DejaVuSans-36"/>
       <use xlink:href="#DejaVuSans-35" transform="translate(63.623047 0)"/>
      </g>
     </g>
    </g>
    <g id="ytick_13">
     <g id="line2d_22">
      <g>
       <use xlink:href="#m6d03b0c385" x="473.236364" y="57.269413" style="stroke: #000000; stroke-width: 0.8"/>
      </g>
     </g>
     <g id="text_28">
      <!-- 70 -->
      <g transform="translate(447.148864 62.968242) scale(0.15 -0.15)">
       <defs>
        <path id="DejaVuSans-37" d="M 525 4666 
L 3525 4666 
L 3525 4397 
L 1831 0 
L 1172 0 
L 2766 4134 
L 525 4134 
L 525 4666 
z
" transform="scale(0.015625)"/>
       </defs>
       <use xlink:href="#DejaVuSans-37"/>
       <use xlink:href="#DejaVuSans-30" transform="translate(63.623047 0)"/>
      </g>
     </g>
    </g>
    <g id="text_29">
     <!-- Q-Residual -->
     <g transform="translate(438.989489 235.785937) rotate(-90) scale(0.2 -0.2)">
      <defs>
       <path id="DejaVuSans-51" d="M 2522 4238 
Q 1834 4238 1429 3725 
Q 1025 3213 1025 2328 
Q 1025 1447 1429 934 
Q 1834 422 2522 422 
Q 3209 422 3611 934 
Q 4013 1447 4013 2328 
Q 4013 3213 3611 3725 
Q 3209 4238 2522 4238 
z
M 3406 84 
L 4238 -825 
L 3475 -825 
L 2784 -78 
Q 2681 -84 2626 -87 
Q 2572 -91 2522 -91 
Q 1538 -91 948 567 
Q 359 1225 359 2328 
Q 359 3434 948 4092 
Q 1538 4750 2522 4750 
Q 3503 4750 4090 4092 
Q 4678 3434 4678 2328 
Q 4678 1516 4351 937 
Q 4025 359 3406 84 
z
" transform="scale(0.015625)"/>
       <path id="DejaVuSans-2d" d="M 313 2009 
L 1997 2009 
L 1997 1497 
L 313 1497 
L 313 2009 
z
" transform="scale(0.015625)"/>
       <path id="DejaVuSans-52" d="M 2841 2188 
Q 3044 2119 3236 1894 
Q 3428 1669 3622 1275 
L 4263 0 
L 3584 0 
L 2988 1197 
Q 2756 1666 2539 1819 
Q 2322 1972 1947 1972 
L 1259 1972 
L 1259 0 
L 628 0 
L 628 4666 
L 2053 4666 
Q 2853 4666 3247 4331 
Q 3641 3997 3641 3322 
Q 3641 2881 3436 2590 
Q 3231 2300 2841 2188 
z
M 1259 4147 
L 1259 2491 
L 2053 2491 
Q 2509 2491 2742 2702 
Q 2975 2913 2975 3322 
Q 2975 3731 2742 3939 
Q 2509 4147 2053 4147 
L 1259 4147 
z
" transform="scale(0.015625)"/>
       <path id="DejaVuSans-64" d="M 2906 2969 
L 2906 4863 
L 3481 4863 
L 3481 0 
L 2906 0 
L 2906 525 
Q 2725 213 2448 61 
Q 2172 -91 1784 -91 
Q 1150 -91 751 415 
Q 353 922 353 1747 
Q 353 2572 751 3078 
Q 1150 3584 1784 3584 
Q 2172 3584 2448 3432 
Q 2725 3281 2906 2969 
z
M 947 1747 
Q 947 1113 1208 752 
Q 1469 391 1925 391 
Q 2381 391 2643 752 
Q 2906 1113 2906 1747 
Q 2906 2381 2643 2742 
Q 2381 3103 1925 3103 
Q 1469 3103 1208 2742 
Q 947 2381 947 1747 
z
" transform="scale(0.015625)"/>
       <path id="DejaVuSans-75" d="M 544 1381 
L 544 3500 
L 1119 3500 
L 1119 1403 
Q 1119 906 1312 657 
Q 1506 409 1894 409 
Q 2359 409 2629 706 
Q 2900 1003 2900 1516 
L 2900 3500 
L 3475 3500 
L 3475 0 
L 2900 0 
L 2900 538 
Q 2691 219 2414 64 
Q 2138 -91 1772 -91 
Q 1169 -91 856 284 
Q 544 659 544 1381 
z
M 1991 3584 
L 1991 3584 
z
" transform="scale(0.015625)"/>
      </defs>
      <use xlink:href="#DejaVuSans-51"/>
      <use xlink:href="#DejaVuSans-2d" transform="translate(81.460938 0)"/>
      <use xlink:href="#DejaVuSans-52" transform="translate(117.544922 0)"/>
      <use xlink:href="#DejaVuSans-65" transform="translate(182.527344 0)"/>
      <use xlink:href="#DejaVuSans-73" transform="translate(244.050781 0)"/>
      <use xlink:href="#DejaVuSans-69" transform="translate(296.150391 0)"/>
      <use xlink:href="#DejaVuSans-64" transform="translate(323.933594 0)"/>
      <use xlink:href="#DejaVuSans-75" transform="translate(387.410156 0)"/>
      <use xlink:href="#DejaVuSans-61" transform="translate(450.789062 0)"/>
      <use xlink:href="#DejaVuSans-6c" transform="translate(512.068359 0)"/>
     </g>
    </g>
   </g>
   <g id="line2d_23">
    <path d="M 487.071074 267.814082 
L 488.608264 273.344308 
L 490.145455 283.734063 
L 491.682645 246.257708 
L 493.219835 273.863177 
L 494.757025 204.972025 
L 496.294215 213.348288 
L 497.831405 235.388953 
L 499.368595 176.238166 
L 500.905785 210.75706 
L 502.442975 254.205848 
L 503.980165 230.268035 
L 505.517355 238.85637 
L 507.054545 238.029687 
L 508.591736 229.62312 
L 510.128926 259.55105 
L 511.666116 258.052131 
L 513.203306 234.66633 
L 514.740496 219.440249 
L 516.277686 247.871382 
L 517.814876 249.667309 
L 519.352066 256.64707 
L 520.889256 258.622784 
L 522.426446 227.573384 
L 523.963636 265.354245 
L 525.500826 234.497929 
L 527.038017 122.708969 
L 528.575207 174.704955 
L 530.112397 55.8 
L 531.649587 185.84281 
L 533.186777 170.047672 
L 534.723967 191.258163 
L 536.261157 169.879174 
L 537.798347 197.004806 
L 539.335537 221.562441 
L 540.872727 248.520275 
L 542.409917 207.045279 
L 543.947107 229.902718 
L 545.484298 159.632268 
L 547.021488 238.987161 
L 548.558678 216.951913 
L 550.095868 219.467012 
L 551.633058 226.291692 
L 553.170248 206.607057 
L 554.707438 240.702643 
L 556.244628 181.923405 
L 557.781818 184.694363 
L 559.319008 236.837725 
L 560.856198 210.680607 
L 562.393388 192.062277 
L 563.930579 233.21042 
L 565.467769 192.889828 
L 567.004959 204.244363 
L 568.542149 233.461704 
L 570.079339 204.026954 
L 571.616529 207.878278 
L 573.153719 198.599344 
L 574.690909 186.167872 
L 576.228099 196.320171 
L 577.765289 222.899584 
L 579.302479 210.503319 
L 580.839669 219.314094 
L 582.37686 237.964552 
L 583.91405 230.215276 
L 585.45124 236.647078 
L 586.98843 209.141131 
L 588.52562 195.394522 
L 590.06281 215.434966 
L 591.6 209.206819 
L 594.67438 216.909052 
L 596.21157 210.918627 
L 597.74876 228.342622 
L 599.28595 235.764646 
L 600.82314 242.605511 
L 602.360331 214.222428 
L 603.897521 238.469466 
L 605.434711 268.071179 
L 606.971901 237.89804 
L 608.509091 235.170603 
L 610.046281 235.899123 
L 611.583471 228.126337 
L 613.120661 209.774734 
L 614.657851 154.514662 
L 616.195041 210.214226 
L 617.732231 178.047052 
L 619.269421 216.334282 
L 620.806612 171.33313 
L 622.343802 159.312955 
L 623.880992 171.58333 
L 625.418182 170.257866 
L 626.955372 183.346806 
L 628.492562 137.842588 
L 630.029752 146.073788 
L 631.566942 211.2782 
L 633.104132 167.287455 
L 634.641322 224.8269 
L 636.178512 210.890136 
L 637.715702 224.589651 
L 639.252893 227.28392 
L 640.790083 236.987663 
L 642.327273 206.618159 
L 643.864463 233.150072 
L 645.401653 219.076267 
L 646.938843 219.51297 
L 648.476033 222.195322 
L 650.013223 264.369539 
L 651.550413 226.580709 
L 653.087603 239.018148 
L 654.624793 252.459136 
L 656.161983 252.045703 
L 657.699174 217.232264 
L 659.236364 249.897497 
L 660.773554 255.23942 
L 662.310744 221.798137 
L 663.847934 207.786525 
L 665.385124 209.362111 
L 666.922314 202.103962 
L 668.459504 216.378865 
L 669.996694 199.563449 
L 671.533884 202.00731 
L 673.071074 220.042412 
L 674.608264 215.172296 
L 676.145455 234.689833 
L 677.682645 213.092558 
L 679.219835 185.901589 
L 680.757025 166.505589 
L 682.294215 207.430052 
L 683.831405 207.407125 
L 685.368595 189.051255 
L 686.905785 184.216238 
L 688.442975 199.873403 
L 689.980165 197.813385 
L 691.517355 214.81354 
L 693.054545 183.386295 
L 694.591736 188.543308 
L 696.128926 223.85001 
L 697.666116 196.870972 
L 699.203306 175.565172 
L 700.740496 194.112163 
L 702.277686 198.524857 
L 703.814876 196.045306 
L 705.352066 132.874481 
L 706.889256 167.073263 
L 708.426446 179.352238 
L 709.963636 174.213303 
L 711.500826 226.100559 
L 713.038017 177.307105 
L 716.112397 211.401986 
L 717.649587 293.300232 
L 719.186777 301.265954 
L 720.723967 288.31573 
L 722.261157 306.002079 
L 723.798347 283.405636 
L 725.335537 291.662097 
L 726.872727 281.256675 
L 728.409917 301.806239 
L 729.947107 303.394326 
L 731.484298 290.650196 
L 733.021488 307.8 
L 734.558678 290.520176 
L 736.095868 298.364827 
L 737.633058 301.288712 
L 739.170248 296.323022 
L 740.707438 303.029646 
L 742.244628 291.816435 
L 743.781818 286.215083 
L 745.319008 277.204903 
L 746.856198 294.746423 
L 748.393388 283.045494 
L 749.930579 281.877171 
L 751.467769 281.360984 
L 753.004959 298.579359 
L 754.542149 301.974597 
L 756.079339 293.250169 
L 757.616529 294.636353 
L 759.153719 299.987722 
L 760.690909 294.555384 
L 762.228099 298.679178 
L 763.765289 294.164622 
L 763.765289 294.164622 
" clip-path="url(#p64a8e519f3)" style="fill: none; stroke: #a18aa5; stroke-width: 1.5; stroke-linecap: square"/>
   </g>
   <g id="patch_9">
    <path d="M 473.236364 320.4 
L 473.236364 43.2 
" style="fill: none; stroke: #000000; stroke-width: 3; stroke-linejoin: miter; stroke-linecap: square"/>
   </g>
   <g id="patch_10">
    <path d="M 777.6 320.4 
L 777.6 43.2 
" style="fill: none; stroke: #000000; stroke-width: 3; stroke-linejoin: miter; stroke-linecap: square"/>
   </g>
   <g id="patch_11">
    <path d="M 473.236364 320.4 
L 777.6 320.4 
" style="fill: none; stroke: #000000; stroke-width: 3; stroke-linejoin: miter; stroke-linecap: square"/>
   </g>
   <g id="patch_12">
    <path d="M 473.236364 43.2 
L 777.6 43.2 
" style="fill: none; stroke: #000000; stroke-width: 3; stroke-linejoin: miter; stroke-linecap: square"/>
   </g>
  </g>
 </g>
 <defs>
  <clipPath id="p42632fbde7">
   <rect x="108" y="43.2" width="304.363636" height="277.2"/>
  </clipPath>
  <clipPath id="p64a8e519f3">
   <rect x="473.236364" y="43.2" width="304.363636" height="277.2"/>
  </clipPath>
 </defs>
</svg>
