<?xml version="1.0" encoding="utf-8" standalone="no"?>
<!DOCTYPE svg PUBLIC "-//W3C//DTD SVG 1.1//EN"
  "http://www.w3.org/Graphics/SVG/1.1/DTD/svg11.dtd">
<svg xmlns:xlink="http://www.w3.org/1999/xlink" width="864pt" height="360pt" viewBox="0 0 864 360" xmlns="http://www.w3.org/2000/svg" version="1.1">
 <metadata>
  <rdf:RDF xmlns:dc="http://purl.org/dc/elements/1.1/" xmlns:cc="http://creativecommons.org/ns#" xmlns:rdf="http://www.w3.org/1999/02/22-rdf-syntax-ns#">
   <cc:Work>
    <dc:type rdf:resource="http://purl.org/dc/dcmitype/StillImage"/>
    <dc:date>2025-12-07T11:30:08.920439</dc:date>
    <dc:format>image/svg+xml</dc:format>
    <dc:creator>
     <cc:Agent>
      <dc:title>Matplotlib v3.10.3, https://matplotlib.org/</dc:title>
     </cc:Agent>
    </dc:creator>
   </cc:Work>
  </rdf:RDF>
 </metadata>
 <defs>
  <style type="text/css">*{stroke-linejoin: round; stroke-linecap: butt}</style>
 </defs>
 <g id="figure_1">
  <g id="patch_1">
   <path d="M 0 360 
L 864 360 
L 864 0 
L 0 0 
z
" style="fill: #ffffff"/>
  </g>
  <g id="axes_1">
   <g id="patch_2">
    <path d="M 69.68 295 
L 433.57 295 
L 433.57 19.44 
L 69.68 19.44 
z
" style="fill: #ffffff"/>
   </g>
   <g id="matplotlib.axis_1">
    <g id="xtick_1">
     <g id="line2d_1">
      <defs>
       <path id="m98c885af3a" d="M 0 0 
L 0 3.5 
" style="stroke: #000000; stroke-width: 0.8"/>
      </defs>
      <g>
       <use xlink:href="#m98c885af3a" x="86.220455" y="295" style="stroke: #000000; stroke-width: 0.8"/>
      </g>
     </g>
     <g id="text_1">
      <!-- 0 -->
      <g transform="translate(81.44858 313.397656) scale(0.15 -0.15)">
       <defs>
        <path id="DejaVuSans-30" d="M 2034 4250 
Q 1547 4250 1301 3770 
Q 1056 3291 1056 2328 
Q 1056 1369 1301 889 
Q 1547 409 2034 409 
Q 2525 409 2770 889 
Q 3016 1369 3016 2328 
Q 3016 3291 2770 3770 
Q 2525 4250 2034 4250 
z
M 2034 4750 
Q 2819 4750 3233 4129 
Q 3647 3509 3647 2328 
Q 3647 1150 3233 529 
Q 2819 -91 2034 -91 
Q 1250 -91 836 529 
Q 422 1150 422 2328 
Q 422 3509 836 4129 
Q 1250 4750 2034 4750 
z
" transform="scale(0.015625)"/>
       </defs>
       <use xlink:href="#DejaVuSans-30"/>
      </g>
     </g>
    </g>
    <g id="xtick_2">
     <g id="line2d_2">
      <g>
       <use xlink:href="#m98c885af3a" x="159.733586" y="295" style="stroke: #000000; stroke-width: 0.8"/>
      </g>
     </g>
     <g id="text_2">
      <!-- 2 -->
      <g transform="translate(154.961711 313.397656) scale(0.15 -0.15)">
       <defs>
        <path id="DejaVuSans-32" d="M 1228 531 
L 3431 531 
L 3431 0 
L 469 0 
L 469 531 
Q 828 903 1448 1529 
Q 2069 2156 2228 2338 
Q 2531 2678 2651 2914 
Q 2772 3150 2772 3378 
Q 2772 3750 2511 3984 
Q 2250 4219 1831 4219 
Q 1534 4219 1204 4116 
Q 875 4013 500 3803 
L 500 4441 
Q 881 4594 1212 4672 
Q 1544 4750 1819 4750 
Q 2544 4750 2975 4387 
Q 3406 4025 3406 3419 
Q 3406 3131 3298 2873 
Q 3191 2616 2906 2266 
Q 2828 2175 2409 1742 
Q 1991 1309 1228 531 
z
" transform="scale(0.015625)"/>
       </defs>
       <use xlink:href="#DejaVuSans-32"/>
      </g>
     </g>
    </g>
    <g id="xtick_3">
     <g id="line2d_3">
      <g>
       <use xlink:href="#m98c885af3a" x="233.246717" y="295" style="stroke: #000000; stroke-width: 0.8"/>
      </g>
     </g>
     <g id="text_3">
      <!-- 4 -->
      <g transform="translate(228.474842 313.397656) scale(0.15 -0.15)">
       <defs>
        <path id="DejaVuSans-34" d="M 2419 4116 
L 825 1625 
L 2419 1625 
L 2419 4116 
z
M 2253 4666 
L 3047 4666 
L 3047 1625 
L 3713 1625 
L 3713 1100 
L 3047 1100 
L 3047 0 
L 2419 0 
L 2419 1100 
L 313 1100 
L 313 1709 
L 2253 4666 
z
" transform="scale(0.015625)"/>
       </defs>
       <use xlink:href="#DejaVuSans-34"/>
      </g>
     </g>
    </g>
    <g id="xtick_4">
     <g id="line2d_4">
      <g>
       <use xlink:href="#m98c885af3a" x="306.759848" y="295" style="stroke: #000000; stroke-width: 0.8"/>
      </g>
     </g>
     <g id="text_4">
      <!-- 6 -->
      <g transform="translate(301.987973 313.397656) scale(0.15 -0.15)">
       <defs>
        <path id="DejaVuSans-36" d="M 2113 2584 
Q 1688 2584 1439 2293 
Q 1191 2003 1191 1497 
Q 1191 994 1439 701 
Q 1688 409 2113 409 
Q 2538 409 2786 701 
Q 3034 994 3034 1497 
Q 3034 2003 2786 2293 
Q 2538 2584 2113 2584 
z
M 3366 4563 
L 3366 3988 
Q 3128 4100 2886 4159 
Q 2644 4219 2406 4219 
Q 1781 4219 1451 3797 
Q 1122 3375 1075 2522 
Q 1259 2794 1537 2939 
Q 1816 3084 2150 3084 
Q 2853 3084 3261 2657 
Q 3669 2231 3669 1497 
Q 3669 778 3244 343 
Q 2819 -91 2113 -91 
Q 1303 -91 875 529 
Q 447 1150 447 2328 
Q 447 3434 972 4092 
Q 1497 4750 2381 4750 
Q 2619 4750 2861 4703 
Q 3103 4656 3366 4563 
z
" transform="scale(0.015625)"/>
       </defs>
       <use xlink:href="#DejaVuSans-36"/>
      </g>
     </g>
    </g>
    <g id="xtick_5">
     <g id="line2d_5">
      <g>
       <use xlink:href="#m98c885af3a" x="380.27298" y="295" style="stroke: #000000; stroke-width: 0.8"/>
      </g>
     </g>
     <g id="text_5">
      <!-- 8 -->
      <g transform="translate(375.501105 313.397656) scale(0.15 -0.15)">
       <defs>
        <path id="DejaVuSans-38" d="M 2034 2216 
Q 1584 2216 1326 1975 
Q 1069 1734 1069 1313 
Q 1069 891 1326 650 
Q 1584 409 2034 409 
Q 2484 409 2743 651 
Q 3003 894 3003 1313 
Q 3003 1734 2745 1975 
Q 2488 2216 2034 2216 
z
M 1403 2484 
Q 997 2584 770 2862 
Q 544 3141 544 3541 
Q 544 4100 942 4425 
Q 1341 4750 2034 4750 
Q 2731 4750 3128 4425 
Q 3525 4100 3525 3541 
Q 3525 3141 3298 2862 
Q 3072 2584 2669 2484 
Q 3125 2378 3379 2068 
Q 3634 1759 3634 1313 
Q 3634 634 3220 271 
Q 2806 -91 2034 -91 
Q 1263 -91 848 271 
Q 434 634 434 1313 
Q 434 1759 690 2068 
Q 947 2378 1403 2484 
z
M 1172 3481 
Q 1172 3119 1398 2916 
Q 1625 2713 2034 2713 
Q 2441 2713 2670 2916 
Q 2900 3119 2900 3481 
Q 2900 3844 2670 4047 
Q 2441 4250 2034 4250 
Q 1625 4250 1398 4047 
Q 1172 3844 1172 3481 
z
" transform="scale(0.015625)"/>
       </defs>
       <use xlink:href="#DejaVuSans-38"/>
      </g>
     </g>
    </g>
    <g id="text_6">
     <!-- Time (ns) -->
     <g transform="translate(204.629688 335.714063) scale(0.2 -0.2)">
      <defs>
       <path id="DejaVuSans-54" d="M -19 4666 
L 3928 4666 
L 3928 4134 
L 2272 4134 
L 2272 0 
L 1638 0 
L 1638 4134 
L -19 4134 
L -19 4666 
z
" transform="scale(0.015625)"/>
       <path id="DejaVuSans-69" d="M 603 3500 
L 1178 3500 
L 1178 0 
L 603 0 
L 603 3500 
z
M 603 4863 
L 1178 4863 
L 1178 4134 
L 603 4134 
L 603 4863 
z
" transform="scale(0.015625)"/>
       <path id="DejaVuSans-6d" d="M 3328 2828 
Q 3544 3216 3844 3400 
Q 4144 3584 4550 3584 
Q 5097 3584 5394 3201 
Q 5691 2819 5691 2113 
L 5691 0 
L 5113 0 
L 5113 2094 
Q 5113 2597 4934 2840 
Q 4756 3084 4391 3084 
Q 3944 3084 3684 2787 
Q 3425 2491 3425 1978 
L 3425 0 
L 2847 0 
L 2847 2094 
Q 2847 2600 2669 2842 
Q 2491 3084 2119 3084 
Q 1678 3084 1418 2786 
Q 1159 2488 1159 1978 
L 1159 0 
L 581 0 
L 581 3500 
L 1159 3500 
L 1159 2956 
Q 1356 3278 1631 3431 
Q 1906 3584 2284 3584 
Q 2666 3584 2933 3390 
Q 3200 3197 3328 2828 
z
" transform="scale(0.015625)"/>
       <path id="DejaVuSans-65" d="M 3597 1894 
L 3597 1613 
L 953 1613 
Q 991 1019 1311 708 
Q 1631 397 2203 397 
Q 2534 397 2845 478 
Q 3156 559 3463 722 
L 3463 178 
Q 3153 47 2828 -22 
Q 2503 -91 2169 -91 
Q 1331 -91 842 396 
Q 353 884 353 1716 
Q 353 2575 817 3079 
Q 1281 3584 2069 3584 
Q 2775 3584 3186 3129 
Q 3597 2675 3597 1894 
z
M 3022 2063 
Q 3016 2534 2758 2815 
Q 2500 3097 2075 3097 
Q 1594 3097 1305 2825 
Q 1016 2553 972 2059 
L 3022 2063 
z
" transform="scale(0.015625)"/>
       <path id="DejaVuSans-20" transform="scale(0.015625)"/>
       <path id="DejaVuSans-28" d="M 1984 4856 
Q 1566 4138 1362 3434 
Q 1159 2731 1159 2009 
Q 1159 1288 1364 580 
Q 1569 -128 1984 -844 
L 1484 -844 
Q 1016 -109 783 600 
Q 550 1309 550 2009 
Q 550 2706 781 3412 
Q 1013 4119 1484 4856 
L 1984 4856 
z
" transform="scale(0.015625)"/>
       <path id="DejaVuSans-6e" d="M 3513 2113 
L 3513 0 
L 2938 0 
L 2938 2094 
Q 2938 2591 2744 2837 
Q 2550 3084 2163 3084 
Q 1697 3084 1428 2787 
Q 1159 2491 1159 1978 
L 1159 0 
L 581 0 
L 581 3500 
L 1159 3500 
L 1159 2956 
Q 1366 3272 1645 3428 
Q 1925 3584 2291 3584 
Q 2894 3584 3203 3211 
Q 3513 2838 3513 2113 
z
" transform="scale(0.015625)"/>
       <path id="DejaVuSans-73" d="M 2834 3397 
L 2834 2853 
Q 2591 2978 2328 3040 
Q 2066 3103 1784 3103 
Q 1356 3103 1142 2972 
Q 928 2841 928 2578 
Q 928 2378 1081 2264 
Q 1234 2150 1697 2047 
L 1894 2003 
Q 2506 1872 2764 1633 
Q 3022 1394 3022 966 
Q 3022 478 2636 193 
Q 2250 -91 1575 -91 
Q 1294 -91 989 -36 
Q 684 19 347 128 
L 347 722 
Q 666 556 975 473 
Q 1284 391 1588 391 
Q 1994 391 2212 530 
Q 2431 669 2431 922 
Q 2431 1156 2273 1281 
Q 2116 1406 1581 1522 
L 1381 1569 
Q 847 1681 609 1914 
Q 372 2147 372 2553 
Q 372 3047 722 3315 
Q 1072 3584 1716 3584 
Q 2034 3584 2315 3537 
Q 2597 3491 2834 3397 
z
" transform="scale(0.015625)"/>
       <path id="DejaVuSans-29" d="M 513 4856 
L 1013 4856 
Q 1481 4119 1714 3412 
Q 1947 2706 1947 2009 
Q 1947 1309 1714 600 
Q 1481 -109 1013 -844 
L 513 -844 
Q 928 -128 1133 580 
Q 1338 1288 1338 2009 
Q 1338 2731 1133 3434 
Q 928 4138 513 4856 
z
" transform="scale(0.015625)"/>
      </defs>
      <use xlink:href="#DejaVuSans-54"/>
      <use xlink:href="#DejaVuSans-69" transform="translate(57.958984 0)"/>
      <use xlink:href="#DejaVuSans-6d" transform="translate(85.742188 0)"/>
      <use xlink:href="#DejaVuSans-65" transform="translate(183.154297 0)"/>
      <use xlink:href="#DejaVuSans-20" transform="translate(244.677734 0)"/>
      <use xlink:href="#DejaVuSans-28" transform="translate(276.464844 0)"/>
      <use xlink:href="#DejaVuSans-6e" transform="translate(315.478516 0)"/>
      <use xlink:href="#DejaVuSans-73" transform="translate(378.857422 0)"/>
      <use xlink:href="#DejaVuSans-29" transform="translate(430.957031 0)"/>
     </g>
    </g>
   </g>
   <g id="matplotlib.axis_2">
    <g id="ytick_1">
     <g id="line2d_6">
      <defs>
       <path id="m803784c590" d="M 0 0 
L -3.5 0 
" style="stroke: #000000; stroke-width: 0.8"/>
      </defs>
      <g>
       <use xlink:href="#m803784c590" x="69.68" y="244.368756" style="stroke: #000000; stroke-width: 0.8"/>
      </g>
     </g>
     <g id="text_7">
      <!-- 10 -->
      <g transform="translate(43.5925 250.067585) scale(0.15 -0.15)">
       <defs>
        <path id="DejaVuSans-31" d="M 794 531 
L 1825 531 
L 1825 4091 
L 703 3866 
L 703 4441 
L 1819 4666 
L 2450 4666 
L 2450 531 
L 3481 531 
L 3481 0 
L 794 0 
L 794 531 
z
" transform="scale(0.015625)"/>
       </defs>
       <use xlink:href="#DejaVuSans-31"/>
       <use xlink:href="#DejaVuSans-30" transform="translate(63.623047 0)"/>
      </g>
     </g>
    </g>
    <g id="ytick_2">
     <g id="line2d_7">
      <g>
       <use xlink:href="#m803784c590" x="69.68" y="186.719469" style="stroke: #000000; stroke-width: 0.8"/>
      </g>
     </g>
     <g id="text_8">
      <!-- 20 -->
      <g transform="translate(43.5925 192.418297) scale(0.15 -0.15)">
       <use xlink:href="#DejaVuSans-32"/>
       <use xlink:href="#DejaVuSans-30" transform="translate(63.623047 0)"/>
      </g>
     </g>
    </g>
    <g id="ytick_3">
     <g id="line2d_8">
      <g>
       <use xlink:href="#m803784c590" x="69.68" y="129.070182" style="stroke: #000000; stroke-width: 0.8"/>
      </g>
     </g>
     <g id="text_9">
      <!-- 30 -->
      <g transform="translate(43.5925 134.76901) scale(0.15 -0.15)">
       <defs>
        <path id="DejaVuSans-33" d="M 2597 2516 
Q 3050 2419 3304 2112 
Q 3559 1806 3559 1356 
Q 3559 666 3084 287 
Q 2609 -91 1734 -91 
Q 1441 -91 1130 -33 
Q 819 25 488 141 
L 488 750 
Q 750 597 1062 519 
Q 1375 441 1716 441 
Q 2309 441 2620 675 
Q 2931 909 2931 1356 
Q 2931 1769 2642 2001 
Q 2353 2234 1838 2234 
L 1294 2234 
L 1294 2753 
L 1863 2753 
Q 2328 2753 2575 2939 
Q 2822 3125 2822 3475 
Q 2822 3834 2567 4026 
Q 2313 4219 1838 4219 
Q 1578 4219 1281 4162 
Q 984 4106 628 3988 
L 628 4550 
Q 988 4650 1302 4700 
Q 1616 4750 1894 4750 
Q 2613 4750 3031 4423 
Q 3450 4097 3450 3541 
Q 3450 3153 3228 2886 
Q 3006 2619 2597 2516 
z
" transform="scale(0.015625)"/>
       </defs>
       <use xlink:href="#DejaVuSans-33"/>
       <use xlink:href="#DejaVuSans-30" transform="translate(63.623047 0)"/>
      </g>
     </g>
    </g>
    <g id="ytick_4">
     <g id="line2d_9">
      <g>
       <use xlink:href="#m803784c590" x="69.68" y="71.420895" style="stroke: #000000; stroke-width: 0.8"/>
      </g>
     </g>
     <g id="text_10">
      <!-- 40 -->
      <g transform="translate(43.5925 77.119723) scale(0.15 -0.15)">
       <use xlink:href="#DejaVuSans-34"/>
       <use xlink:href="#DejaVuSans-30" transform="translate(63.623047 0)"/>
      </g>
     </g>
    </g>
    <g id="text_11">
     <!-- Q-Residual -->
     <g transform="translate(35.433125 211.205937) rotate(-90) scale(0.2 -0.2)">
      <defs>
       <path id="DejaVuSans-51" d="M 2522 4238 
Q 1834 4238 1429 3725 
Q 1025 3213 1025 2328 
Q 1025 1447 1429 934 
Q 1834 422 2522 422 
Q 3209 422 3611 934 
Q 4013 1447 4013 2328 
Q 4013 3213 3611 3725 
Q 3209 4238 2522 4238 
z
M 3406 84 
L 4238 -825 
L 3475 -825 
L 2784 -78 
Q 2681 -84 2626 -87 
Q 2572 -91 2522 -91 
Q 1538 -91 948 567 
Q 359 1225 359 2328 
Q 359 3434 948 4092 
Q 1538 4750 2522 4750 
Q 3503 4750 4090 4092 
Q 4678 3434 4678 2328 
Q 4678 1516 4351 937 
Q 4025 359 3406 84 
z
" transform="scale(0.015625)"/>
       <path id="DejaVuSans-2d" d="M 313 2009 
L 1997 2009 
L 1997 1497 
L 313 1497 
L 313 2009 
z
" transform="scale(0.015625)"/>
       <path id="DejaVuSans-52" d="M 2841 2188 
Q 3044 2119 3236 1894 
Q 3428 1669 3622 1275 
L 4263 0 
L 3584 0 
L 2988 1197 
Q 2756 1666 2539 1819 
Q 2322 1972 1947 1972 
L 1259 1972 
L 1259 0 
L 628 0 
L 628 4666 
L 2053 4666 
Q 2853 4666 3247 4331 
Q 3641 3997 3641 3322 
Q 3641 2881 3436 2590 
Q 3231 2300 2841 2188 
z
M 1259 4147 
L 1259 2491 
L 2053 2491 
Q 2509 2491 2742 2702 
Q 2975 2913 2975 3322 
Q 2975 3731 2742 3939 
Q 2509 4147 2053 4147 
L 1259 4147 
z
" transform="scale(0.015625)"/>
       <path id="DejaVuSans-64" d="M 2906 2969 
L 2906 4863 
L 3481 4863 
L 3481 0 
L 2906 0 
L 2906 525 
Q 2725 213 2448 61 
Q 2172 -91 1784 -91 
Q 1150 -91 751 415 
Q 353 922 353 1747 
Q 353 2572 751 3078 
Q 1150 3584 1784 3584 
Q 2172 3584 2448 3432 
Q 2725 3281 2906 2969 
z
M 947 1747 
Q 947 1113 1208 752 
Q 1469 391 1925 391 
Q 2381 391 2643 752 
Q 2906 1113 2906 1747 
Q 2906 2381 2643 2742 
Q 2381 3103 1925 3103 
Q 1469 3103 1208 2742 
Q 947 2381 947 1747 
z
" transform="scale(0.015625)"/>
       <path id="DejaVuSans-75" d="M 544 1381 
L 544 3500 
L 1119 3500 
L 1119 1403 
Q 1119 906 1312 657 
Q 1506 409 1894 409 
Q 2359 409 2629 706 
Q 2900 1003 2900 1516 
L 2900 3500 
L 3475 3500 
L 3475 0 
L 2900 0 
L 2900 538 
Q 2691 219 2414 64 
Q 2138 -91 1772 -91 
Q 1169 -91 856 284 
Q 544 659 544 1381 
z
M 1991 3584 
L 1991 3584 
z
" transform="scale(0.015625)"/>
       <path id="DejaVuSans-61" d="M 2194 1759 
Q 1497 1759 1228 1600 
Q 959 1441 959 1056 
Q 959 750 1161 570 
Q 1363 391 1709 391 
Q 2188 391 2477 730 
Q 2766 1069 2766 1631 
L 2766 1759 
L 2194 1759 
z
M 3341 1997 
L 3341 0 
L 2766 0 
L 2766 531 
Q 2569 213 2275 61 
Q 1981 -91 1556 -91 
Q 1019 -91 701 211 
Q 384 513 384 1019 
Q 384 1609 779 1909 
Q 1175 2209 1959 2209 
L 2766 2209 
L 2766 2266 
Q 2766 2663 2505 2880 
Q 2244 3097 1772 3097 
Q 1472 3097 1187 3025 
Q 903 2953 641 2809 
L 641 3341 
Q 956 3463 1253 3523 
Q 1550 3584 1831 3584 
Q 2591 3584 2966 3190 
Q 3341 2797 3341 1997 
z
" transform="scale(0.015625)"/>
       <path id="DejaVuSans-6c" d="M 603 4863 
L 1178 4863 
L 1178 0 
L 603 0 
L 603 4863 
z
" transform="scale(0.015625)"/>
      </defs>
      <use xlink:href="#DejaVuSans-51"/>
      <use xlink:href="#DejaVuSans-2d" transform="translate(81.460938 0)"/>
      <use xlink:href="#DejaVuSans-52" transform="translate(117.544922 0)"/>
      <use xlink:href="#DejaVuSans-65" transform="translate(182.527344 0)"/>
      <use xlink:href="#DejaVuSans-73" transform="translate(244.050781 0)"/>
      <use xlink:href="#DejaVuSans-69" transform="translate(296.150391 0)"/>
      <use xlink:href="#DejaVuSans-64" transform="translate(323.933594 0)"/>
      <use xlink:href="#DejaVuSans-75" transform="translate(387.410156 0)"/>
      <use xlink:href="#DejaVuSans-61" transform="translate(450.789062 0)"/>
      <use xlink:href="#DejaVuSans-6c" transform="translate(512.068359 0)"/>
     </g>
    </g>
   </g>
   <g id="line2d_10">
    <path d="M 86.220455 269.469597 
L 88.058283 258.70284 
L 89.896111 252.808521 
L 91.733939 241.089303 
L 93.571768 259.436746 
L 95.409596 249.358808 
L 97.247424 254.002231 
L 99.085253 253.706074 
L 100.923081 240.476487 
L 102.760909 244.511088 
L 104.598737 238.375463 
L 106.436566 240.337748 
L 108.274394 242.555523 
L 110.112222 248.831783 
L 111.950051 250.825992 
L 113.787879 237.7019 
L 115.625707 259.095688 
L 117.463535 251.440615 
L 119.301364 254.950951 
L 121.139192 256.87333 
L 122.97702 253.365339 
L 124.814848 253.577271 
L 126.652677 243.570899 
L 128.490505 258.892973 
L 130.328333 251.077263 
L 132.166162 257.173045 
L 134.00399 260.83163 
L 135.841818 249.904334 
L 137.679646 259.667405 
L 141.355303 255.406116 
L 143.193131 252.058285 
L 145.03096 253.00479 
L 146.868788 254.222922 
L 148.706616 263.930533 
L 150.544444 252.706881 
L 152.382273 251.050883 
L 154.220101 252.816885 
L 156.057929 249.150342 
L 157.895758 244.6564 
L 159.733586 255.595604 
L 161.571414 247.860532 
L 163.409242 234.822939 
L 165.247071 248.847473 
L 167.084899 258.069295 
L 168.922727 242.116481 
L 170.760556 251.046469 
L 172.598384 246.334883 
L 174.436212 251.656007 
L 176.27404 246.745391 
L 178.111869 256.313326 
L 179.949697 263.962636 
L 181.787525 257.365759 
L 183.625354 256.564148 
L 185.463182 263.89651 
L 187.30101 262.656565 
L 189.138838 260.589852 
L 190.976667 260.047965 
L 192.814495 266.506535 
L 196.490152 259.623202 
L 198.32798 264.94261 
L 200.165808 264.520559 
L 202.003636 254.575759 
L 203.841465 264.957729 
L 205.679293 260.688152 
L 207.517121 242.577674 
L 209.354949 200.706628 
L 211.192778 235.820076 
L 213.030606 253.326597 
L 214.868434 217.563229 
L 216.706263 234.664848 
L 218.544091 233.607289 
L 220.381919 225.206176 
L 222.219747 235.844826 
L 224.057576 242.570044 
L 225.895404 272.048421 
L 227.733232 254.992669 
L 229.571061 258.440898 
L 231.408889 228.830056 
L 233.246717 237.116146 
L 235.084545 225.687988 
L 236.922374 241.879105 
L 238.760202 254.797545 
L 240.59803 254.52129 
L 242.435859 256.277541 
L 244.273687 220.866767 
L 246.111515 216.179128 
L 247.949343 202.584973 
L 249.787172 229.336082 
L 251.625 245.091654 
L 253.462828 231.355912 
L 255.300657 224.711655 
L 257.138485 243.49789 
L 258.976313 213.705369 
L 260.814141 224.785954 
L 262.65197 242.412628 
L 264.489798 247.987334 
L 266.327626 222.937845 
L 268.165455 237.948031 
L 270.003283 230.359986 
L 271.841111 230.32613 
L 273.678939 231.415399 
L 275.516768 237.592584 
L 277.354596 248.366287 
L 279.192424 233.636953 
L 281.030253 239.128421 
L 282.868081 238.596035 
L 284.705909 231.253753 
L 286.543737 234.706714 
L 288.381566 212.170529 
L 290.219394 232.909991 
L 292.057222 256.68657 
L 293.895051 241.095214 
L 295.732879 250.109133 
L 297.570707 242.685375 
L 299.408535 249.397271 
L 301.246364 247.385019 
L 303.084192 250.944118 
L 304.92202 207.402774 
L 306.759848 237.920575 
L 308.597677 231.165709 
L 310.435505 235.270578 
L 312.273333 238.354188 
L 314.111162 241.682767 
L 315.94899 234.200246 
L 317.786818 245.983027 
L 319.624646 231.324907 
L 321.462475 230.639807 
L 323.300303 252.903446 
L 325.138131 234.198858 
L 326.97596 231.039802 
L 328.813788 212.596229 
L 330.651616 234.050426 
L 332.489444 245.920273 
L 334.327273 239.990439 
L 336.165101 241.980055 
L 338.002929 232.07335 
L 339.840758 238.926018 
L 341.678586 240.321974 
L 343.516414 212.593839 
L 345.354242 234.322548 
L 347.192071 224.849173 
L 349.029899 257.83096 
L 350.867727 232.147692 
L 352.705556 240.785475 
L 354.543384 228.519371 
L 356.381212 241.936865 
L 358.21904 234.820376 
L 360.056869 238.221189 
L 361.894697 266.918417 
L 363.732525 257.761411 
L 365.570354 235.287559 
L 367.408182 269.374737 
L 369.24601 255.667102 
L 371.083838 252.241731 
L 372.921667 273.366113 
L 374.759495 254.897754 
L 376.597323 269.092392 
L 378.435152 264.047423 
L 380.27298 274.570853 
L 382.110808 250.238722 
L 383.948636 244.290222 
L 385.786465 243.113388 
L 387.624293 240.376045 
L 389.462121 242.477219 
L 391.299949 252.925817 
L 393.137778 241.033977 
L 394.975606 255.454152 
L 396.813434 261.464876 
L 398.651263 238.246887 
L 400.489091 234.587182 
L 402.326919 260.170159 
L 404.164747 249.544363 
L 406.002576 250.163288 
L 407.840404 247.662562 
L 409.678232 271.94599 
L 411.516061 246.474745 
L 413.353889 243.76969 
L 415.191717 279.19398 
L 417.029545 236.65493 
L 417.029545 236.65493 
" clip-path="url(#p4ce8dbd1c4)" style="fill: none; stroke: #a18aa5; stroke-width: 1.5; stroke-linecap: square"/>
   </g>
   <g id="line2d_11">
    <path d="M 86.220455 240.192867 
L 88.058283 241.545106 
L 89.896111 241.628126 
L 91.733939 241.08123 
L 93.571768 239.685109 
L 95.409596 238.655799 
L 97.247424 239.718026 
L 99.085253 234.575323 
L 100.923081 239.494323 
L 102.760909 246.799216 
L 104.598737 228.110702 
L 106.436566 220.106198 
L 108.274394 236.093445 
L 110.112222 228.913439 
L 111.950051 241.66523 
L 113.787879 222.512058 
L 115.625707 246.109129 
L 117.463535 238.726595 
L 119.301364 230.822069 
L 121.139192 229.255546 
L 122.97702 244.700053 
L 124.814848 238.231364 
L 126.652677 236.703222 
L 128.490505 239.916769 
L 130.328333 222.434445 
L 132.166162 245.144568 
L 134.00399 244.38504 
L 135.841818 235.427681 
L 137.679646 237.322009 
L 139.517475 233.970734 
L 141.355303 238.9603 
L 143.193131 236.655095 
L 145.03096 245.63637 
L 146.868788 244.077521 
L 148.706616 239.715127 
L 150.544444 247.585759 
L 152.382273 238.498561 
L 154.220101 242.134845 
L 156.057929 241.828343 
L 157.895758 226.257844 
L 159.733586 247.771209 
L 161.571414 219.865659 
L 163.409242 229.939935 
L 165.247071 232.507904 
L 167.084899 240.295998 
L 168.922727 222.045553 
L 170.760556 242.443905 
L 172.598384 224.131977 
L 174.436212 229.265169 
L 176.27404 226.478261 
L 178.111869 209.539606 
L 179.949697 240.940085 
L 181.787525 233.580278 
L 183.625354 250.774677 
L 185.463182 244.425987 
L 187.30101 230.43652 
L 189.138838 243.750122 
L 190.976667 232.583967 
L 192.814495 247.996677 
L 194.652323 250.236385 
L 198.32798 237.658899 
L 200.165808 241.739834 
L 202.003636 236.508139 
L 203.841465 245.345755 
L 205.679293 244.980047 
L 207.517121 160.583616 
L 209.354949 169.316234 
L 211.192778 146.486677 
L 213.030606 162.666001 
L 214.868434 143.959708 
L 216.706263 146.084408 
L 218.544091 158.942559 
L 220.381919 158.523553 
L 222.219747 158.465041 
L 224.057576 146.383563 
L 225.895404 140.053381 
L 227.733232 208.22445 
L 229.571061 224.75623 
L 231.408889 238.009702 
L 233.246717 230.729368 
L 235.084545 255.557636 
L 236.922374 247.087036 
L 238.760202 247.470936 
L 240.59803 233.643583 
L 242.435859 245.19779 
L 244.273687 254.98747 
L 246.111515 242.969212 
L 247.949343 239.562746 
L 249.787172 249.374713 
L 251.625 244.790823 
L 253.462828 241.977636 
L 255.300657 249.451033 
L 257.138485 252.910363 
L 258.976313 246.396467 
L 260.814141 247.518727 
L 262.65197 252.957112 
L 264.489798 245.517862 
L 266.327626 232.701338 
L 268.165455 245.188596 
L 270.003283 234.558898 
L 271.841111 260.799911 
L 273.678939 257.131002 
L 275.516768 235.139255 
L 277.354596 242.408096 
L 279.192424 242.998018 
L 281.030253 239.748695 
L 282.868081 230.223608 
L 284.705909 245.989796 
L 286.543737 239.67522 
L 288.381566 248.584187 
L 290.219394 260.083014 
L 292.057222 213.505152 
L 293.895051 235.78458 
L 295.732879 221.405295 
L 297.570707 233.405436 
L 299.408535 237.276825 
L 301.246364 243.283959 
L 303.084192 245.826385 
L 304.92202 237.452437 
L 306.759848 244.539478 
L 308.597677 250.733998 
L 310.435505 250.998258 
L 312.273333 251.605544 
L 314.111162 249.881047 
L 315.94899 240.191168 
L 317.786818 246.602462 
L 319.624646 224.997367 
L 321.462475 251.274292 
L 323.300303 232.863047 
L 325.138131 251.743872 
L 326.97596 253.328078 
L 328.813788 250.054583 
L 330.651616 229.84149 
L 332.489444 245.23176 
L 334.327273 243.007258 
L 336.165101 245.052573 
L 338.002929 242.435857 
L 339.840758 226.375894 
L 341.678586 245.143191 
L 343.516414 242.773458 
L 345.354242 242.040582 
L 347.192071 244.358192 
L 349.029899 230.920368 
L 350.867727 253.500888 
L 352.705556 247.979261 
L 354.543384 251.833348 
L 356.381212 247.340618 
L 358.21904 247.114928 
L 360.056869 241.475321 
L 361.894697 243.836936 
L 363.732525 239.815295 
L 365.570354 238.997581 
L 367.408182 249.378263 
L 369.24601 223.339516 
L 371.083838 237.773888 
L 372.921667 248.504724 
L 374.759495 233.296198 
L 376.597323 249.51363 
L 378.435152 245.863826 
L 380.27298 249.749355 
L 382.110808 236.053426 
L 383.948636 239.249813 
L 385.786465 229.69094 
L 387.624293 237.826063 
L 389.462121 241.417635 
L 391.299949 238.754449 
L 393.137778 236.433323 
L 394.975606 245.200649 
L 396.813434 240.655494 
L 398.651263 239.304555 
L 400.489091 244.787621 
L 402.326919 245.70001 
L 406.002576 243.219065 
L 407.840404 233.277859 
L 409.678232 241.72456 
L 411.516061 247.255245 
L 413.353889 239.910723 
L 415.191717 237.865261 
L 417.029545 239.025147 
L 417.029545 239.025147 
" clip-path="url(#p4ce8dbd1c4)" style="fill: none; stroke: #e9c5dd; stroke-width: 1.5; stroke-linecap: square"/>
   </g>
   <g id="line2d_12">
    <path d="M 86.220455 75.835265 
L 88.058283 94.194472 
L 89.896111 85.988421 
L 91.733939 86.215992 
L 93.571768 110.339701 
L 95.409596 101.22102 
L 97.247424 96.93125 
L 99.085253 97.679333 
L 100.923081 111.662392 
L 102.760909 86.545573 
L 106.436566 116.913126 
L 108.274394 99.440523 
L 110.112222 102.61766 
L 111.950051 85.926878 
L 113.787879 102.610625 
L 115.625707 85.072048 
L 117.463535 103.686901 
L 119.301364 94.445998 
L 121.139192 102.551859 
L 122.97702 114.348753 
L 124.814848 101.966121 
L 126.652677 100.097455 
L 128.490505 100.437644 
L 130.328333 57.807192 
L 132.166162 97.823326 
L 134.00399 100.62486 
L 135.841818 124.536061 
L 137.679646 104.727154 
L 139.517475 94.36874 
L 141.355303 93.622699 
L 143.193131 89.922315 
L 145.03096 113.367207 
L 148.706616 119.545334 
L 150.544444 109.108648 
L 152.382273 104.307909 
L 154.220101 114.099017 
L 156.057929 121.949985 
L 157.895758 110.080016 
L 159.733586 59.227752 
L 161.571414 101.824654 
L 163.409242 104.375728 
L 165.247071 95.114668 
L 167.084899 94.13781 
L 168.922727 108.075323 
L 170.760556 111.043315 
L 172.598384 109.442778 
L 174.436212 100.94357 
L 176.27404 112.425601 
L 178.111869 97.518547 
L 179.949697 46.405169 
L 181.787525 89.457559 
L 183.625354 91.148661 
L 185.463182 96.46792 
L 187.30101 106.662957 
L 189.138838 99.064719 
L 190.976667 93.108968 
L 192.814495 91.013807 
L 194.652323 77.820582 
L 196.490152 96.269826 
L 198.32798 86.422679 
L 200.165808 91.928289 
L 202.003636 103.557231 
L 203.841465 94.855433 
L 205.679293 102.828153 
L 207.517121 97.466047 
L 209.354949 97.015417 
L 211.192778 103.516655 
L 213.030606 108.737541 
L 214.868434 99.349375 
L 216.706263 106.738734 
L 218.544091 96.879411 
L 220.381919 104.171796 
L 222.219747 103.819386 
L 224.057576 104.157678 
L 225.895404 108.467121 
L 227.733232 96.513628 
L 229.571061 113.763623 
L 231.408889 122.727602 
L 233.246717 116.517505 
L 235.084545 105.089216 
L 236.922374 87.767526 
L 238.760202 109.897457 
L 240.59803 111.67997 
L 242.435859 113.670972 
L 244.273687 95.729354 
L 246.111515 117.218262 
L 247.949343 119.491683 
L 249.787172 99.471462 
L 251.625 118.762449 
L 253.462828 113.030385 
L 255.300657 72.667733 
L 257.138485 65.768677 
L 258.976313 78.991772 
L 260.814141 98.274855 
L 262.65197 102.88624 
L 264.489798 106.800316 
L 266.327626 110.171406 
L 268.165455 87.675881 
L 270.003283 108.273668 
L 271.841111 102.529765 
L 273.678939 65.005756 
L 275.516768 111.655523 
L 277.354596 89.598686 
L 279.192424 108.721796 
L 281.030253 108.286011 
L 282.868081 90.35231 
L 284.705909 104.75709 
L 286.543737 90.804823 
L 288.381566 114.546678 
L 290.219394 102.939804 
L 292.057222 93.655173 
L 293.895051 115.787366 
L 295.732879 102.066368 
L 297.570707 106.067112 
L 299.408535 104.388507 
L 301.246364 102.252915 
L 303.084192 95.468023 
L 304.92202 94.997028 
L 306.759848 102.251341 
L 308.597677 98.842364 
L 310.435505 99.163697 
L 312.273333 90.862467 
L 314.111162 107.312029 
L 315.94899 104.230776 
L 317.786818 103.87024 
L 319.624646 104.370639 
L 321.462475 101.767112 
L 323.300303 105.326585 
L 325.138131 100.050863 
L 326.97596 101.468396 
L 328.813788 105.747312 
L 330.651616 102.918221 
L 332.489444 102.156983 
L 334.327273 101.566786 
L 336.165101 99.179841 
L 338.002929 95.876334 
L 339.840758 100.583721 
L 341.678586 100.962397 
L 343.516414 99.354257 
L 345.354242 104.108054 
L 347.192071 105.350425 
L 349.029899 102.768853 
L 350.867727 102.95766 
L 352.705556 105.002602 
L 354.543384 106.020268 
L 356.381212 102.820253 
L 358.21904 105.991542 
L 360.056869 103.561224 
L 361.894697 96.586123 
L 363.732525 96.750582 
L 365.570354 94.60026 
L 367.408182 89.158277 
L 369.24601 70.551863 
L 371.083838 56.184065 
L 372.921667 80.731141 
L 374.759495 95.931798 
L 376.597323 83.861194 
L 378.435152 103.732284 
L 380.27298 64.735458 
L 382.110808 64.655892 
L 383.948636 105.994188 
L 385.786465 113.741931 
L 387.624293 107.590435 
L 389.462121 70.911497 
L 391.299949 102.660087 
L 393.137778 92.848358 
L 394.975606 92.810663 
L 396.813434 112.554309 
L 398.651263 101.856098 
L 400.489091 103.945104 
L 402.326919 59.507034 
L 404.164747 64.452536 
L 406.002576 104.31789 
L 407.840404 96.435763 
L 409.678232 101.78521 
L 411.516061 100.612468 
L 413.353889 103.760425 
L 415.191717 100.551936 
L 417.029545 31.965455 
L 417.029545 31.965455 
" clip-path="url(#p4ce8dbd1c4)" style="fill: none; stroke: #5c5470; stroke-width: 1.5; stroke-linecap: square"/>
   </g>
   <g id="line2d_13">
    <path d="M 200.533374 295 
L 200.533374 19.44 
" clip-path="url(#p4ce8dbd1c4)" style="fill: none; stroke: #000000; stroke-width: 1.5; stroke-linecap: square"/>
   </g>
   <g id="patch_3">
    <path d="M 69.68 295 
L 69.68 19.44 
" style="fill: none; stroke: #000000; stroke-width: 3; stroke-linejoin: miter; stroke-linecap: square"/>
   </g>
   <g id="patch_4">
    <path d="M 433.57 295 
L 433.57 19.44 
" style="fill: none; stroke: #000000; stroke-width: 3; stroke-linejoin: miter; stroke-linecap: square"/>
   </g>
   <g id="patch_5">
    <path d="M 69.68 295 
L 433.57 295 
" style="fill: none; stroke: #000000; stroke-width: 3; stroke-linejoin: miter; stroke-linecap: square"/>
   </g>
   <g id="patch_6">
    <path d="M 69.68 19.44 
L 433.57 19.44 
" style="fill: none; stroke: #000000; stroke-width: 3; stroke-linejoin: miter; stroke-linecap: square"/>
   </g>
   <g id="legend_1">
    <g id="patch_7">
     <path d="M 291.676563 199.550937 
L 420.97 199.550937 
Q 424.57 199.550937 424.57 195.950937 
L 424.57 118.489062 
Q 424.57 114.889062 420.97 114.889062 
L 291.676563 114.889062 
Q 288.076563 114.889062 288.076563 118.489062 
L 288.076563 195.950937 
Q 288.076563 199.550937 291.676563 199.550937 
z
" style="fill: #ffffff; opacity: 0.8; stroke: #cccccc; stroke-linejoin: miter"/>
    </g>
    <g id="line2d_14">
     <path d="M 295.276563 129.46625 
L 313.276563 129.46625 
L 331.276563 129.46625 
" style="fill: none; stroke: #a18aa5; stroke-width: 1.5; stroke-linecap: square"/>
    </g>
    <g id="text_12">
     <!-- O (137) -->
     <g transform="translate(345.676563 135.76625) scale(0.18 -0.18)">
      <defs>
       <path id="DejaVuSans-4f" d="M 2522 4238 
Q 1834 4238 1429 3725 
Q 1025 3213 1025 2328 
Q 1025 1447 1429 934 
Q 1834 422 2522 422 
Q 3209 422 3611 934 
Q 4013 1447 4013 2328 
Q 4013 3213 3611 3725 
Q 3209 4238 2522 4238 
z
M 2522 4750 
Q 3503 4750 4090 4092 
Q 4678 3434 4678 2328 
Q 4678 1225 4090 567 
Q 3503 -91 2522 -91 
Q 1538 -91 948 565 
Q 359 1222 359 2328 
Q 359 3434 948 4092 
Q 1538 4750 2522 4750 
z
" transform="scale(0.015625)"/>
       <path id="DejaVuSans-37" d="M 525 4666 
L 3525 4666 
L 3525 4397 
L 1831 0 
L 1172 0 
L 2766 4134 
L 525 4134 
L 525 4666 
z
" transform="scale(0.015625)"/>
      </defs>
      <use xlink:href="#DejaVuSans-4f"/>
      <use xlink:href="#DejaVuSans-20" transform="translate(78.710938 0)"/>
      <use xlink:href="#DejaVuSans-28" transform="translate(110.498047 0)"/>
      <use xlink:href="#DejaVuSans-31" transform="translate(149.511719 0)"/>
      <use xlink:href="#DejaVuSans-33" transform="translate(213.134766 0)"/>
      <use xlink:href="#DejaVuSans-37" transform="translate(276.757812 0)"/>
      <use xlink:href="#DejaVuSans-29" transform="translate(340.380859 0)"/>
     </g>
    </g>
    <g id="line2d_15">
     <path d="M 295.276563 155.886875 
L 313.276563 155.886875 
L 331.276563 155.886875 
" style="fill: none; stroke: #e9c5dd; stroke-width: 1.5; stroke-linecap: square"/>
    </g>
    <g id="text_13">
     <!-- H (147) -->
     <g transform="translate(345.676563 162.186875) scale(0.18 -0.18)">
      <defs>
       <path id="DejaVuSans-48" d="M 628 4666 
L 1259 4666 
L 1259 2753 
L 3553 2753 
L 3553 4666 
L 4184 4666 
L 4184 0 
L 3553 0 
L 3553 2222 
L 1259 2222 
L 1259 0 
L 628 0 
L 628 4666 
z
" transform="scale(0.015625)"/>
      </defs>
      <use xlink:href="#DejaVuSans-48"/>
      <use xlink:href="#DejaVuSans-20" transform="translate(75.195312 0)"/>
      <use xlink:href="#DejaVuSans-28" transform="translate(106.982422 0)"/>
      <use xlink:href="#DejaVuSans-31" transform="translate(145.996094 0)"/>
      <use xlink:href="#DejaVuSans-34" transform="translate(209.619141 0)"/>
      <use xlink:href="#DejaVuSans-37" transform="translate(273.242188 0)"/>
      <use xlink:href="#DejaVuSans-29" transform="translate(336.865234 0)"/>
     </g>
    </g>
    <g id="line2d_16">
     <path d="M 295.276563 182.3075 
L 313.276563 182.3075 
L 331.276563 182.3075 
" style="fill: none; stroke: #5c5470; stroke-width: 1.5; stroke-linecap: square"/>
    </g>
    <g id="text_14">
     <!-- Cl (192) -->
     <g transform="translate(345.676563 188.6075) scale(0.18 -0.18)">
      <defs>
       <path id="DejaVuSans-43" d="M 4122 4306 
L 4122 3641 
Q 3803 3938 3442 4084 
Q 3081 4231 2675 4231 
Q 1875 4231 1450 3742 
Q 1025 3253 1025 2328 
Q 1025 1406 1450 917 
Q 1875 428 2675 428 
Q 3081 428 3442 575 
Q 3803 722 4122 1019 
L 4122 359 
Q 3791 134 3420 21 
Q 3050 -91 2638 -91 
Q 1578 -91 968 557 
Q 359 1206 359 2328 
Q 359 3453 968 4101 
Q 1578 4750 2638 4750 
Q 3056 4750 3426 4639 
Q 3797 4528 4122 4306 
z
" transform="scale(0.015625)"/>
       <path id="DejaVuSans-39" d="M 703 97 
L 703 672 
Q 941 559 1184 500 
Q 1428 441 1663 441 
Q 2288 441 2617 861 
Q 2947 1281 2994 2138 
Q 2813 1869 2534 1725 
Q 2256 1581 1919 1581 
Q 1219 1581 811 2004 
Q 403 2428 403 3163 
Q 403 3881 828 4315 
Q 1253 4750 1959 4750 
Q 2769 4750 3195 4129 
Q 3622 3509 3622 2328 
Q 3622 1225 3098 567 
Q 2575 -91 1691 -91 
Q 1453 -91 1209 -44 
Q 966 3 703 97 
z
M 1959 2075 
Q 2384 2075 2632 2365 
Q 2881 2656 2881 3163 
Q 2881 3666 2632 3958 
Q 2384 4250 1959 4250 
Q 1534 4250 1286 3958 
Q 1038 3666 1038 3163 
Q 1038 2656 1286 2365 
Q 1534 2075 1959 2075 
z
" transform="scale(0.015625)"/>
      </defs>
      <use xlink:href="#DejaVuSans-43"/>
      <use xlink:href="#DejaVuSans-6c" transform="translate(69.824219 0)"/>
      <use xlink:href="#DejaVuSans-20" transform="translate(97.607422 0)"/>
      <use xlink:href="#DejaVuSans-28" transform="translate(129.394531 0)"/>
      <use xlink:href="#DejaVuSans-31" transform="translate(168.408203 0)"/>
      <use xlink:href="#DejaVuSans-39" transform="translate(232.03125 0)"/>
      <use xlink:href="#DejaVuSans-32" transform="translate(295.654297 0)"/>
      <use xlink:href="#DejaVuSans-29" transform="translate(359.277344 0)"/>
     </g>
    </g>
   </g>
  </g>
  <g id="axes_2">
   <g id="patch_8">
    <path d="M 480.67 295 
L 844.56 295 
L 844.56 19.44 
L 480.67 19.44 
z
" style="fill: #ffffff"/>
   </g>
   <g id="matplotlib.axis_3">
    <g id="xtick_6">
     <g id="line2d_17">
      <g>
       <use xlink:href="#m98c885af3a" x="497.210455" y="295" style="stroke: #000000; stroke-width: 0.8"/>
      </g>
     </g>
     <g id="text_15">
      <!-- 0 -->
      <g transform="translate(492.43858 313.397656) scale(0.15 -0.15)">
       <use xlink:href="#DejaVuSans-30"/>
      </g>
     </g>
    </g>
    <g id="xtick_7">
     <g id="line2d_18">
      <g>
       <use xlink:href="#m98c885af3a" x="570.723586" y="295" style="stroke: #000000; stroke-width: 0.8"/>
      </g>
     </g>
     <g id="text_16">
      <!-- 2 -->
      <g transform="translate(565.951711 313.397656) scale(0.15 -0.15)">
       <use xlink:href="#DejaVuSans-32"/>
      </g>
     </g>
    </g>
    <g id="xtick_8">
     <g id="line2d_19">
      <g>
       <use xlink:href="#m98c885af3a" x="644.236717" y="295" style="stroke: #000000; stroke-width: 0.8"/>
      </g>
     </g>
     <g id="text_17">
      <!-- 4 -->
      <g transform="translate(639.464842 313.397656) scale(0.15 -0.15)">
       <use xlink:href="#DejaVuSans-34"/>
      </g>
     </g>
    </g>
    <g id="xtick_9">
     <g id="line2d_20">
      <g>
       <use xlink:href="#m98c885af3a" x="717.749848" y="295" style="stroke: #000000; stroke-width: 0.8"/>
      </g>
     </g>
     <g id="text_18">
      <!-- 6 -->
      <g transform="translate(712.977973 313.397656) scale(0.15 -0.15)">
       <use xlink:href="#DejaVuSans-36"/>
      </g>
     </g>
    </g>
    <g id="xtick_10">
     <g id="line2d_21">
      <g>
       <use xlink:href="#m98c885af3a" x="791.26298" y="295" style="stroke: #000000; stroke-width: 0.8"/>
      </g>
     </g>
     <g id="text_19">
      <!-- 8 -->
      <g transform="translate(786.491105 313.397656) scale(0.15 -0.15)">
       <use xlink:href="#DejaVuSans-38"/>
      </g>
     </g>
    </g>
    <g id="text_20">
     <!-- Time (ns) -->
     <g transform="translate(615.619688 335.714063) scale(0.2 -0.2)">
      <use xlink:href="#DejaVuSans-54"/>
      <use xlink:href="#DejaVuSans-69" transform="translate(57.958984 0)"/>
      <use xlink:href="#DejaVuSans-6d" transform="translate(85.742188 0)"/>
      <use xlink:href="#DejaVuSans-65" transform="translate(183.154297 0)"/>
      <use xlink:href="#DejaVuSans-20" transform="translate(244.677734 0)"/>
      <use xlink:href="#DejaVuSans-28" transform="translate(276.464844 0)"/>
      <use xlink:href="#DejaVuSans-6e" transform="translate(315.478516 0)"/>
      <use xlink:href="#DejaVuSans-73" transform="translate(378.857422 0)"/>
      <use xlink:href="#DejaVuSans-29" transform="translate(430.957031 0)"/>
     </g>
    </g>
   </g>
   <g id="matplotlib.axis_4">
    <g id="ytick_5">
     <g id="line2d_22">
      <g>
       <use xlink:href="#m803784c590" x="480.67" y="244.368756" style="stroke: #000000; stroke-width: 0.8"/>
      </g>
     </g>
    </g>
    <g id="ytick_6">
     <g id="line2d_23">
      <g>
       <use xlink:href="#m803784c590" x="480.67" y="186.719469" style="stroke: #000000; stroke-width: 0.8"/>
      </g>
     </g>
    </g>
    <g id="ytick_7">
     <g id="line2d_24">
      <g>
       <use xlink:href="#m803784c590" x="480.67" y="129.070182" style="stroke: #000000; stroke-width: 0.8"/>
      </g>
     </g>
    </g>
    <g id="ytick_8">
     <g id="line2d_25">
      <g>
       <use xlink:href="#m803784c590" x="480.67" y="71.420895" style="stroke: #000000; stroke-width: 0.8"/>
      </g>
     </g>
    </g>
    <g id="text_21">
     <!--   -->
     <g transform="translate(469.010625 160.398125) rotate(-90) scale(0.2 -0.2)">
      <use xlink:href="#DejaVuSans-20"/>
     </g>
    </g>
   </g>
   <g id="line2d_26">
    <path d="M 497.210455 280.290535 
L 499.048283 268.644652 
L 500.886111 282.474545 
L 502.723939 261.816189 
L 504.561768 258.085147 
L 506.399596 251.661202 
L 508.237424 251.47161 
L 510.075253 252.30657 
L 511.913081 229.708124 
L 513.750909 247.184576 
L 515.588737 250.930504 
L 517.426566 240.936875 
L 519.264394 266.203811 
L 521.102222 249.271364 
L 522.940051 258.743621 
L 524.777879 246.838479 
L 526.615707 264.550969 
L 528.453535 257.479636 
L 530.291364 252.860381 
L 532.129192 253.302427 
L 533.96702 258.08796 
L 535.804848 256.349174 
L 537.642677 266.80857 
L 539.480505 253.703639 
L 541.318333 249.332568 
L 543.156162 248.947357 
L 544.99399 251.35511 
L 546.831818 259.942044 
L 548.669646 264.251805 
L 550.507475 266.723466 
L 552.345303 258.942619 
L 554.183131 263.314054 
L 556.02096 251.783537 
L 557.858788 267.460237 
L 559.696616 251.378377 
L 561.534444 256.725571 
L 563.372273 256.190717 
L 565.210101 244.775522 
L 567.047929 257.67854 
L 568.885758 243.327827 
L 570.723586 245.778468 
L 572.561414 255.073383 
L 574.399242 261.473342 
L 576.237071 266.234087 
L 578.074899 249.671136 
L 579.912727 244.574734 
L 581.750556 242.481018 
L 583.588384 246.232195 
L 585.426212 252.239624 
L 587.26404 240.767732 
L 589.101869 232.054475 
L 590.939697 261.700721 
L 592.777525 252.319653 
L 594.615354 255.990027 
L 596.453182 256.141314 
L 598.29101 252.969675 
L 600.128838 251.501419 
L 601.966667 235.067558 
L 603.804495 253.699238 
L 605.642323 261.975885 
L 607.480152 258.565339 
L 609.31798 244.010738 
L 611.155808 265.823901 
L 612.993636 251.246599 
L 614.831465 251.401698 
L 616.669293 259.292639 
L 618.507121 239.479514 
L 620.344949 250.262372 
L 622.182778 229.759906 
L 624.020606 244.0021 
L 625.858434 244.735938 
L 627.696263 267.540683 
L 629.534091 248.465719 
L 631.371919 257.781138 
L 633.209747 246.060866 
L 635.047576 253.422328 
L 636.885404 263.694136 
L 638.723232 261.226743 
L 640.561061 251.563859 
L 642.398889 250.744147 
L 644.236717 260.971787 
L 646.074545 259.317362 
L 647.912374 262.698284 
L 649.750202 263.449632 
L 651.58803 264.577544 
L 653.425859 266.381009 
L 655.263687 252.29356 
L 657.101515 257.25935 
L 658.939343 254.90205 
L 660.777172 260.250947 
L 662.615 254.778628 
L 664.452828 263.024626 
L 666.290657 247.12342 
L 668.128485 259.962145 
L 669.966313 242.740909 
L 671.804141 239.235125 
L 673.64197 252.903058 
L 675.479798 259.318092 
L 677.317626 270.262005 
L 679.155455 255.969166 
L 680.993283 253.105097 
L 682.831111 261.736429 
L 684.668939 261.297678 
L 686.506768 263.738096 
L 688.344596 260.883648 
L 690.182424 247.05341 
L 692.020253 270.950908 
L 693.858081 265.813801 
L 695.695909 271.031517 
L 697.533737 273.453548 
L 699.371566 274.940606 
L 701.209394 253.237224 
L 703.047222 236.623603 
L 704.885051 235.941882 
L 706.722879 261.937827 
L 708.560707 250.887747 
L 710.398535 248.258806 
L 712.236364 203.34912 
L 714.074192 228.647811 
L 715.91202 258.547897 
L 717.749848 265.263842 
L 719.587677 253.62056 
L 721.425505 277.280794 
L 723.263333 267.601572 
L 725.101162 273.110191 
L 726.93899 270.09887 
L 728.776818 264.021104 
L 730.614646 266.417644 
L 732.452475 255.990916 
L 734.290303 254.541186 
L 736.128131 254.409869 
L 737.96596 267.195875 
L 739.803788 220.344315 
L 741.641616 255.304577 
L 743.479444 256.545882 
L 745.317273 244.561813 
L 747.155101 262.906662 
L 748.992929 267.199759 
L 750.830758 271.775389 
L 752.668586 265.339439 
L 754.506414 278.623784 
L 756.344242 268.428607 
L 758.182071 263.696067 
L 760.019899 243.01036 
L 761.857727 253.343785 
L 763.695556 250.832079 
L 765.533384 261.068941 
L 767.371212 274.43153 
L 769.20904 253.081957 
L 771.046869 258.427194 
L 772.884697 265.820774 
L 774.722525 262.628384 
L 776.560354 268.763857 
L 778.398182 273.514268 
L 780.23601 253.48262 
L 782.073838 257.170041 
L 783.911667 264.457378 
L 785.749495 269.844928 
L 787.587323 261.64345 
L 789.425152 256.030173 
L 791.26298 269.798864 
L 793.100808 248.22509 
L 794.938636 260.615414 
L 796.776465 266.181663 
L 798.614293 260.511289 
L 800.452121 264.63956 
L 802.289949 253.86878 
L 804.127778 255.666803 
L 805.965606 258.576791 
L 807.803434 256.222657 
L 809.641263 248.428304 
L 811.479091 239.830365 
L 813.316919 271.951261 
L 815.154747 261.364393 
L 816.992576 257.277532 
L 818.830404 269.081655 
L 820.668232 260.62674 
L 822.506061 248.103169 
L 824.343889 259.649283 
L 826.181717 263.475716 
L 828.019545 253.696502 
L 828.019545 253.696502 
" clip-path="url(#pe23df96933)" style="fill: none; stroke: #a18aa5; stroke-width: 1.5; stroke-linecap: square"/>
   </g>
   <g id="line2d_27">
    <path d="M 497.210455 240.069502 
L 499.048283 246.670953 
L 500.886111 255.205252 
L 502.723939 243.668478 
L 504.561768 236.189499 
L 506.399596 236.42976 
L 508.237424 227.909393 
L 510.075253 233.274998 
L 511.913081 217.172203 
L 513.750909 233.882624 
L 515.588737 228.078102 
L 517.426566 212.426479 
L 519.264394 243.041366 
L 521.102222 231.896258 
L 522.940051 238.732512 
L 524.777879 230.925659 
L 526.615707 237.77692 
L 528.453535 245.785843 
L 530.291364 236.843502 
L 532.129192 236.123612 
L 533.96702 232.037488 
L 535.804848 235.49228 
L 537.642677 246.727271 
L 539.480505 233.028545 
L 541.318333 230.83127 
L 543.156162 229.215464 
L 544.99399 237.28564 
L 546.831818 246.334021 
L 548.669646 241.502611 
L 550.507475 238.030823 
L 552.345303 235.392221 
L 554.183131 234.326179 
L 556.02096 245.405471 
L 557.858788 234.743792 
L 559.696616 238.277646 
L 561.534444 242.073417 
L 563.372273 239.266487 
L 565.210101 227.989686 
L 567.047929 238.613596 
L 568.885758 223.771385 
L 570.723586 236.002559 
L 572.561414 245.171261 
L 574.399242 234.630732 
L 576.237071 237.096285 
L 578.074899 238.877826 
L 579.912727 222.890713 
L 581.750556 223.247332 
L 583.588384 224.819937 
L 585.426212 228.357641 
L 587.26404 226.930815 
L 589.101869 239.880106 
L 590.939697 257.450687 
L 592.777525 246.765633 
L 594.615354 248.944716 
L 596.453182 251.788682 
L 598.29101 239.650235 
L 600.128838 251.090023 
L 601.966667 244.673065 
L 603.804495 250.193006 
L 605.642323 253.844671 
L 607.480152 249.676116 
L 609.31798 246.195452 
L 611.155808 258.020808 
L 612.993636 250.092919 
L 614.831465 243.000916 
L 616.669293 252.804769 
L 618.507121 240.238807 
L 620.344949 248.494142 
L 622.182778 222.423022 
L 624.020606 239.324646 
L 625.858434 238.185154 
L 627.696263 250.164606 
L 629.534091 235.388354 
L 631.371919 246.07907 
L 633.209747 240.517997 
L 635.047576 238.097991 
L 636.885404 242.37128 
L 638.723232 239.959926 
L 640.561061 231.903311 
L 642.398889 206.403443 
L 644.236717 247.41656 
L 646.074545 226.145941 
L 647.912374 222.391013 
L 649.750202 245.321316 
L 651.58803 236.921603 
L 653.425859 241.697786 
L 655.263687 230.663855 
L 657.101515 231.27023 
L 658.939343 237.86224 
L 660.777172 213.360423 
L 662.615 213.839075 
L 664.452828 233.735869 
L 666.290657 191.180739 
L 668.128485 219.587373 
L 669.966313 222.352317 
L 671.804141 202.293378 
L 673.64197 209.248522 
L 675.479798 216.819127 
L 677.317626 231.180208 
L 679.155455 225.163089 
L 680.993283 226.131902 
L 682.831111 205.742139 
L 684.668939 242.972594 
L 686.506768 245.060478 
L 688.344596 232.443819 
L 690.182424 218.141197 
L 692.020253 244.920137 
L 693.858081 211.406013 
L 695.695909 208.344304 
L 697.533737 193.205148 
L 699.371566 218.283037 
L 701.209394 196.149727 
L 703.047222 211.305598 
L 704.885051 228.551242 
L 706.722879 209.634711 
L 708.560707 207.935999 
L 710.398535 165.640091 
L 712.236364 130.86388 
L 714.074192 163.136476 
L 715.91202 149.68101 
L 717.749848 144.831157 
L 719.587677 151.350689 
L 721.425505 158.689301 
L 723.263333 141.366203 
L 725.101162 155.227846 
L 726.93899 142.387674 
L 728.776818 144.384362 
L 730.614646 145.635569 
L 732.452475 142.954284 
L 734.290303 154.75726 
L 736.128131 158.484857 
L 737.96596 154.28391 
L 739.803788 148.179147 
L 741.641616 168.054901 
L 743.479444 152.043422 
L 745.317273 169.317683 
L 747.155101 156.932726 
L 748.992929 158.399695 
L 750.830758 161.851417 
L 752.668586 154.493757 
L 754.506414 154.250811 
L 756.344242 158.54826 
L 758.182071 150.538788 
L 760.019899 176.116309 
L 761.857727 169.155646 
L 763.695556 173.787738 
L 765.533384 144.358579 
L 767.371212 153.339464 
L 769.20904 160.230126 
L 771.046869 153.498896 
L 772.884697 247.53484 
L 774.722525 253.62651 
L 776.560354 241.093563 
L 778.398182 258.095762 
L 780.23601 245.467677 
L 782.073838 237.044321 
L 783.911667 246.530063 
L 785.749495 241.286922 
L 787.587323 229.049685 
L 789.425152 230.195896 
L 791.26298 237.842895 
L 793.100808 227.872038 
L 794.938636 246.0364 
L 796.776465 244.539574 
L 798.614293 234.748466 
L 800.452121 241.580811 
L 802.289949 214.361748 
L 804.127778 229.026924 
L 805.965606 233.073339 
L 809.641263 243.494732 
L 811.479091 230.823938 
L 813.316919 240.475757 
L 815.154747 235.808814 
L 816.992576 244.475929 
L 818.830404 247.062748 
L 820.668232 232.052747 
L 822.506061 224.703513 
L 824.343889 241.215407 
L 826.181717 230.114667 
L 828.019545 227.285363 
L 828.019545 227.285363 
" clip-path="url(#pe23df96933)" style="fill: none; stroke: #e9c5dd; stroke-width: 1.5; stroke-linecap: square"/>
   </g>
   <g id="line2d_28">
    <path d="M 497.210455 78.941553 
L 499.048283 86.866906 
L 500.886111 96.59168 
L 502.723939 99.324064 
L 504.561768 69.179309 
L 506.399596 79.77877 
L 508.237424 93.369682 
L 510.075253 96.529057 
L 511.913081 77.073064 
L 513.750909 104.097618 
L 515.588737 83.475322 
L 517.426566 94.551255 
L 519.264394 110.3714 
L 521.102222 94.916277 
L 522.940051 114.167959 
L 524.777879 103.898856 
L 526.615707 109.838111 
L 528.453535 112.328313 
L 530.291364 111.538887 
L 532.129192 107.07693 
L 533.96702 100.696947 
L 535.804848 115.914295 
L 537.642677 107.898962 
L 539.480505 104.657048 
L 541.318333 81.699139 
L 543.156162 52.915447 
L 544.99399 105.320913 
L 546.831818 83.842968 
L 548.669646 94.746801 
L 550.507475 88.358715 
L 552.345303 107.658836 
L 554.183131 96.878681 
L 557.858788 107.980842 
L 559.696616 84.083407 
L 561.534444 96.012911 
L 563.372273 90.911072 
L 565.210101 86.814511 
L 567.047929 106.232063 
L 568.885758 86.741856 
L 570.723586 58.785064 
L 572.561414 61.889657 
L 574.399242 96.070063 
L 576.237071 94.923336 
L 578.074899 90.088063 
L 579.912727 102.991001 
L 581.750556 105.796215 
L 583.588384 105.997448 
L 585.426212 64.176993 
L 587.26404 98.27442 
L 589.101869 90.473889 
L 590.939697 77.041792 
L 592.777525 85.240162 
L 594.615354 102.782887 
L 596.453182 98.756623 
L 598.29101 97.380191 
L 600.128838 81.260103 
L 601.966667 96.534645 
L 603.804495 75.656524 
L 605.642323 82.139836 
L 607.480152 78.472819 
L 609.31798 80.97168 
L 611.155808 71.960062 
L 612.993636 75.27173 
L 614.831465 72.968838 
L 616.669293 80.201433 
L 618.507121 98.078801 
L 622.182778 81.25833 
L 624.020606 99.567188 
L 625.858434 98.22807 
L 627.696263 98.510567 
L 629.534091 86.910229 
L 631.371919 83.916982 
L 633.209747 96.907108 
L 635.047576 84.87644 
L 636.885404 96.457206 
L 638.723232 101.840506 
L 640.561061 70.533964 
L 642.398889 90.734236 
L 644.236717 88.914682 
L 646.074545 80.223054 
L 647.912374 92.726546 
L 649.750202 86.637081 
L 651.58803 86.859178 
L 653.425859 91.280608 
L 655.263687 100.155373 
L 657.101515 87.290215 
L 658.939343 87.894623 
L 660.777172 82.37954 
L 662.615 84.273893 
L 664.452828 100.316907 
L 666.290657 88.956849 
L 668.128485 78.559284 
L 669.966313 79.74767 
L 671.804141 102.921176 
L 673.64197 92.115884 
L 675.479798 106.395452 
L 677.317626 103.593026 
L 679.155455 75.252957 
L 680.993283 101.874478 
L 682.831111 98.784265 
L 684.668939 104.676705 
L 686.506768 89.384557 
L 688.344596 70.601451 
L 690.182424 73.425361 
L 692.020253 48.614975 
L 693.858081 105.354618 
L 695.695909 76.406242 
L 697.533737 85.285729 
L 699.371566 100.831727 
L 701.209394 86.245233 
L 703.047222 102.94296 
L 704.885051 98.161397 
L 706.722879 90.17918 
L 708.560707 100.762856 
L 710.398535 97.224058 
L 712.236364 69.608618 
L 714.074192 81.553611 
L 715.91202 88.822258 
L 717.749848 86.423717 
L 719.587677 91.329602 
L 721.425505 89.700391 
L 723.263333 97.806981 
L 725.101162 82.755884 
L 726.93899 94.680252 
L 728.776818 97.979459 
L 730.614646 99.774585 
L 732.452475 103.663452 
L 734.290303 111.266048 
L 736.128131 113.049687 
L 737.96596 113.228628 
L 739.803788 112.273171 
L 741.641616 110.545669 
L 743.479444 110.087024 
L 745.317273 110.567856 
L 747.155101 101.653389 
L 748.992929 107.484016 
L 750.830758 111.187353 
L 752.668586 107.718359 
L 754.506414 112.033364 
L 756.344242 113.749383 
L 758.182071 110.820675 
L 760.019899 112.894004 
L 761.857727 112.490142 
L 763.695556 113.59508 
L 765.533384 114.284578 
L 767.371212 112.83809 
L 769.20904 111.064677 
L 771.046869 111.701653 
L 772.884697 83.597667 
L 774.722525 84.899572 
L 776.560354 73.452595 
L 778.398182 74.472752 
L 780.23601 95.314538 
L 782.073838 88.85393 
L 783.911667 93.072946 
L 785.749495 102.434768 
L 787.587323 88.517472 
L 789.425152 91.297443 
L 791.26298 97.832671 
L 793.100808 90.245977 
L 794.938636 90.367965 
L 796.776465 75.014868 
L 798.614293 90.138526 
L 800.452121 90.127278 
L 802.289949 102.625726 
L 805.965606 91.545874 
L 807.803434 83.041038 
L 809.641263 80.930544 
L 811.479091 96.979884 
L 813.316919 99.844033 
L 815.154747 93.872499 
L 816.992576 82.392175 
L 818.830404 78.183623 
L 820.668232 89.43816 
L 822.506061 99.502312 
L 824.343889 84.103997 
L 826.181717 91.732866 
L 828.019545 94.606973 
L 828.019545 94.606973 
" clip-path="url(#pe23df96933)" style="fill: none; stroke: #5c5470; stroke-width: 1.5; stroke-linecap: square"/>
   </g>
   <g id="line2d_29">
    <path d="M 703.139114 295 
L 703.139114 19.44 
" clip-path="url(#pe23df96933)" style="fill: none; stroke: #000000; stroke-width: 1.5; stroke-linecap: square"/>
   </g>
   <g id="patch_9">
    <path d="M 480.67 295 
L 480.67 19.44 
" style="fill: none; stroke: #000000; stroke-width: 3; stroke-linejoin: miter; stroke-linecap: square"/>
   </g>
   <g id="patch_10">
    <path d="M 844.56 295 
L 844.56 19.44 
" style="fill: none; stroke: #000000; stroke-width: 3; stroke-linejoin: miter; stroke-linecap: square"/>
   </g>
   <g id="patch_11">
    <path d="M 480.67 295 
L 844.56 295 
" style="fill: none; stroke: #000000; stroke-width: 3; stroke-linejoin: miter; stroke-linecap: square"/>
   </g>
   <g id="patch_12">
    <path d="M 480.67 19.44 
L 844.56 19.44 
" style="fill: none; stroke: #000000; stroke-width: 3; stroke-linejoin: miter; stroke-linecap: square"/>
   </g>
   <g id="legend_2">
    <g id="patch_13">
     <path d="M 493.27 199.550937 
L 622.563437 199.550937 
Q 626.163437 199.550937 626.163437 195.950937 
L 626.163437 118.489062 
Q 626.163437 114.889062 622.563437 114.889062 
L 493.27 114.889062 
Q 489.67 114.889062 489.67 118.489062 
L 489.67 195.950937 
Q 489.67 199.550937 493.27 199.550937 
z
" style="fill: #ffffff; opacity: 0.8; stroke: #cccccc; stroke-linejoin: miter"/>
    </g>
    <g id="line2d_30">
     <path d="M 496.87 129.46625 
L 514.87 129.46625 
L 532.87 129.46625 
" style="fill: none; stroke: #a18aa5; stroke-width: 1.5; stroke-linecap: square"/>
    </g>
    <g id="text_22">
     <!-- O (90) -->
     <g transform="translate(547.27 135.76625) scale(0.18 -0.18)">
      <use xlink:href="#DejaVuSans-4f"/>
      <use xlink:href="#DejaVuSans-20" transform="translate(78.710938 0)"/>
      <use xlink:href="#DejaVuSans-28" transform="translate(110.498047 0)"/>
      <use xlink:href="#DejaVuSans-39" transform="translate(149.511719 0)"/>
      <use xlink:href="#DejaVuSans-30" transform="translate(213.134766 0)"/>
      <use xlink:href="#DejaVuSans-29" transform="translate(276.757812 0)"/>
     </g>
    </g>
    <g id="line2d_31">
     <path d="M 496.87 155.886875 
L 514.87 155.886875 
L 532.87 155.886875 
" style="fill: none; stroke: #e9c5dd; stroke-width: 1.5; stroke-linecap: square"/>
    </g>
    <g id="text_23">
     <!-- H (102) -->
     <g transform="translate(547.27 162.186875) scale(0.18 -0.18)">
      <use xlink:href="#DejaVuSans-48"/>
      <use xlink:href="#DejaVuSans-20" transform="translate(75.195312 0)"/>
      <use xlink:href="#DejaVuSans-28" transform="translate(106.982422 0)"/>
      <use xlink:href="#DejaVuSans-31" transform="translate(145.996094 0)"/>
      <use xlink:href="#DejaVuSans-30" transform="translate(209.619141 0)"/>
      <use xlink:href="#DejaVuSans-32" transform="translate(273.242188 0)"/>
      <use xlink:href="#DejaVuSans-29" transform="translate(336.865234 0)"/>
     </g>
    </g>
    <g id="line2d_32">
     <path d="M 496.87 182.3075 
L 514.87 182.3075 
L 532.87 182.3075 
" style="fill: none; stroke: #5c5470; stroke-width: 1.5; stroke-linecap: square"/>
    </g>
    <g id="text_24">
     <!-- Cl (193) -->
     <g transform="translate(547.27 188.6075) scale(0.18 -0.18)">
      <use xlink:href="#DejaVuSans-43"/>
      <use xlink:href="#DejaVuSans-6c" transform="translate(69.824219 0)"/>
      <use xlink:href="#DejaVuSans-20" transform="translate(97.607422 0)"/>
      <use xlink:href="#DejaVuSans-28" transform="translate(129.394531 0)"/>
      <use xlink:href="#DejaVuSans-31" transform="translate(168.408203 0)"/>
      <use xlink:href="#DejaVuSans-39" transform="translate(232.03125 0)"/>
      <use xlink:href="#DejaVuSans-33" transform="translate(295.654297 0)"/>
      <use xlink:href="#DejaVuSans-29" transform="translate(359.277344 0)"/>
     </g>
    </g>
   </g>
  </g>
 </g>
 <defs>
  <clipPath id="p4ce8dbd1c4">
   <rect x="69.68" y="19.44" width="363.89" height="275.56"/>
  </clipPath>
  <clipPath id="pe23df96933">
   <rect x="480.67" y="19.44" width="363.89" height="275.56"/>
  </clipPath>
 </defs>
</svg>
